<svg width="54" height="61" viewBox="0 0 54 61" fill="none" xmlns="http://www.w3.org/2000/svg">
<path d="M53.9997 17.8751C53.9997 15.0404 51.693 12.7337 48.8583 12.7337C47.4606 12.7337 46.1931 13.2968 45.2654 14.2044L32.0342 6.56519C32.1648 6.1126 32.2392 5.6357 32.2392 5.14073C32.2392 2.30604 29.9325 0 27.0978 0C24.2631 0 21.9563 2.30604 21.9563 5.14073C21.9563 5.6357 22.0303 6.11295 22.1613 6.56554L8.92948 14.204C8.00206 13.2964 6.73425 12.7334 5.33652 12.7334C2.50183 12.7334 0.195801 15.0401 0.195801 17.8748C0.195801 20.2833 1.86306 22.3048 4.10206 22.8602V37.8121C1.86306 38.3679 0.195801 40.3887 0.195801 42.7979C0.195801 45.6326 2.50183 47.9393 5.33652 47.9393C6.77836 47.9393 8.08126 47.3402 9.01631 46.3808L22.1613 53.971C22.0303 54.4236 21.9563 54.9005 21.9563 55.3955C21.9563 58.2302 24.2631 60.5369 27.0978 60.5369C29.9325 60.5369 32.2392 58.2302 32.2392 55.3955C32.2392 54.9005 32.1652 54.4239 32.0342 53.9707L45.1792 46.3808C46.1136 47.3405 47.4165 47.9383 48.8583 47.9383C51.693 47.9383 53.9997 45.6323 53.9997 42.7969C53.9997 40.3884 52.3318 38.3668 50.0928 37.8124V22.8606C52.3321 22.3055 53.9997 20.284 53.9997 17.8751ZM30.7977 8.7031L43.9652 16.3048C43.8062 16.8001 43.7179 17.3277 43.7179 17.8755C43.7179 18.3607 43.7902 18.8286 43.9163 19.2739L31.0526 26.6911C30.3698 25.9884 29.4896 25.481 28.5017 25.258L28.3388 10.1251C29.2909 9.8879 30.1377 9.38772 30.7977 8.7031ZM30.0398 30.2681C30.0398 31.7419 28.8411 32.9413 27.3673 32.9413C25.8942 32.9413 24.6955 31.7419 24.6955 30.2681C24.6955 28.7943 25.8942 27.5963 27.3673 27.5963C28.8411 27.5963 30.0398 28.7946 30.0398 30.2681ZM27.0981 2.46929C28.5719 2.46929 29.7706 3.66763 29.7706 5.14107C29.7706 6.61451 28.5716 7.81355 27.0981 7.81355C25.6247 7.81355 24.4256 6.61451 24.4256 5.14107C24.4256 3.66763 25.6243 2.46929 27.0981 2.46929ZM23.3985 8.7031C24.0616 9.3912 24.9133 9.89277 25.8702 10.1286L26.0331 25.3097C25.0929 25.5629 24.2603 26.0753 23.6142 26.7672L10.2817 19.2666C10.4064 18.8237 10.4783 18.3576 10.4783 17.8755C10.4783 17.3277 10.3904 16.8001 10.2306 16.3048L23.3985 8.7031ZM2.66509 17.8751C2.66509 16.402 3.86413 15.2026 5.33687 15.2026C6.81066 15.2026 8.00936 16.402 8.00936 17.8751C8.00936 19.3482 6.81101 20.5466 5.33791 20.5476C5.33791 20.5476 5.33757 20.5476 5.33687 20.5476C5.33618 20.5476 5.33583 20.5476 5.33583 20.5476C3.86343 20.5466 2.66509 19.3486 2.66509 17.8751ZM5.33687 45.4707C3.86378 45.4707 2.66509 44.2713 2.66509 42.7983C2.66509 41.3241 3.86413 40.1258 5.33687 40.1258C6.81066 40.1258 8.00936 41.3241 8.00936 42.7983C8.0097 44.2713 6.81066 45.4707 5.33687 45.4707ZM6.57134 37.8124V22.8606C7.53697 22.6213 8.39456 22.1107 9.05938 21.4115L22.411 28.9221C22.2947 29.3525 22.2266 29.8023 22.2266 30.2681C22.2266 30.7426 22.2967 31.2004 22.4169 31.6366L9.04306 39.2439C8.38067 38.554 7.52898 38.05 6.57134 37.8124ZM23.3985 51.8345L10.2654 44.2519C10.4019 43.7903 10.4783 43.3033 10.4783 42.7979C10.4783 42.3061 10.4047 41.833 10.2758 41.3828L23.6299 33.7871C24.2735 34.4706 25.1005 34.9757 26.0328 35.2275L25.8699 50.4079C24.9133 50.6448 24.0613 51.146 23.3985 51.8345ZM27.0981 58.0679C25.6243 58.0679 24.4256 56.8686 24.4256 55.3955C24.4256 53.9217 25.6243 52.723 27.0981 52.723C28.5719 52.723 29.7706 53.922 29.7706 55.3955C29.7706 56.8686 28.5716 58.0679 27.0981 58.0679ZM30.7977 51.8345C30.1377 51.1492 29.2909 50.6493 28.3392 50.4121L28.5021 35.2799C29.4819 35.0583 30.3566 34.5575 31.0367 33.8635L43.9225 41.3759C43.7923 41.8278 43.7183 42.304 43.7183 42.7969C43.7183 43.3023 43.7943 43.7896 43.9312 44.2516L30.7977 51.8345ZM45.1577 39.2373L32.2923 31.7367C32.4316 31.2709 32.5087 30.7783 32.5087 30.2677C32.5087 29.7655 32.4327 29.2809 32.2982 28.8217L45.1407 21.4167C45.8048 22.1135 46.6606 22.6216 47.6238 22.8602V37.8121C46.6693 38.049 45.8194 38.5502 45.1577 39.2373ZM51.5308 42.7972C51.5308 44.2717 50.3321 45.4697 48.8583 45.4697C47.3852 45.4697 46.1865 44.2714 46.1865 42.7972C46.1865 41.3248 47.3835 40.1272 48.8555 40.1254C48.8566 40.1254 48.8573 40.1258 48.8587 40.1258C48.86 40.1258 48.8604 40.1254 48.8614 40.1254C50.3338 40.1272 51.5308 41.3248 51.5308 42.7972ZM48.86 20.548C48.8597 20.548 48.859 20.548 48.8583 20.548C48.8576 20.548 48.8573 20.548 48.8566 20.548C47.3849 20.5469 46.1865 19.3486 46.1865 17.8755C46.1865 16.4024 47.3852 15.203 48.8583 15.203C50.3321 15.203 51.5308 16.4024 51.5308 17.8755C51.5308 19.3486 50.3328 20.5466 48.86 20.548Z" fill="#555555"/>
<circle cx="27" cy="30" r="4" stroke="url(#paint0_linear)" stroke-width="2"/>
<defs>
<linearGradient id="paint0_linear" x1="24.0833" y1="26.3216" x2="31.5833" y2="35.0716" gradientUnits="userSpaceOnUse">
<stop stop-color="#E50913"/>
<stop offset="1" stop-color="#E50913" stop-opacity="0"/>
</linearGradient>
</defs>
</svg>
