<svg width="57" height="60" viewBox="0 0 57 60" fill="none" xmlns="http://www.w3.org/2000/svg">
<path d="M28.4897 44.7341C37.8789 44.7341 45.5177 37.0949 45.5177 27.7051C45.5177 18.3153 37.8789 10.6758 28.4897 10.6758C19.1003 10.6758 11.4614 18.3153 11.4614 27.7051C11.4614 37.0949 19.0999 44.7341 28.4897 44.7341ZM28.4897 13.1444C36.518 13.1444 43.0491 19.6762 43.0491 27.7051C43.0491 35.7333 36.518 42.2655 28.4897 42.2655C20.4612 42.2655 13.93 35.7333 13.93 27.7051C13.93 19.6759 20.4608 13.1444 28.4897 13.1444Z" fill="#555555"/>
<path d="M38.7847 27.7053C38.7847 22.0276 34.1671 17.41 28.4894 17.41C28.3597 17.41 28.2549 17.3047 28.2549 17.1759C28.2549 17.0471 28.3601 16.9414 28.4897 16.9414C34.4238 16.9414 39.2536 21.771 39.2536 27.7053C39.2536 27.8345 39.1484 27.9398 39.0192 27.9398C38.8893 27.9398 38.7847 27.8353 38.7847 27.7053Z" stroke="url(#paint0_linear)" stroke-width="2"/>
<path d="M34.6348 46.3185C30.6542 47.635 26.3242 47.635 22.3436 46.3185C21.9677 46.1938 21.5551 46.2577 21.2335 46.4898C20.9118 46.7218 20.7222 47.0934 20.7222 47.4904V52.2022C20.7222 56.4853 24.2061 59.9696 28.4892 59.9696C32.772 59.9696 36.2569 56.4853 36.2569 52.2022V47.4904C36.2569 47.0934 36.0665 46.7218 35.7445 46.4898C35.4239 46.2574 35.011 46.1938 34.6348 46.3185ZM33.7883 52.2026C33.7883 55.1241 31.4111 57.5013 28.4892 57.5013C25.567 57.5013 23.1911 55.1241 23.1911 52.2026V49.1317C26.6576 49.9924 30.3201 49.9924 33.7883 49.1317V52.2026Z" fill="#555555"/>
<path d="M29.7232 7.23071V1.23447C29.7232 0.552633 29.1709 0 28.4887 0C27.8076 0 27.2539 0.552633 27.2539 1.23447V7.23105C27.2539 7.91289 27.8076 8.46552 28.4887 8.46552C29.1709 8.46518 29.7232 7.91255 29.7232 7.23071Z" fill="#555555"/>
<path d="M18.253 11.2092C18.4618 11.2092 18.674 11.156 18.8689 11.0438C19.4583 10.7027 19.6608 9.94831 19.3197 9.35748L16.3218 4.16431C15.9817 3.57452 15.2273 3.37131 14.6365 3.7124C14.0456 4.0535 13.8431 4.80795 14.1842 5.39878L17.1822 10.5916C17.4104 10.9883 17.8261 11.2092 18.253 11.2092Z" fill="#555555"/>
<path d="M11.8261 18.0866C12.1669 17.4968 11.9644 16.7413 11.3749 16.4003L6.18211 13.4016C5.59127 13.0612 4.83545 13.2634 4.49575 13.8539C4.15465 14.444 4.35716 15.1991 4.94799 15.5402L10.1408 18.5389C10.335 18.6507 10.5472 18.7042 10.7567 18.7042C11.1832 18.7042 11.5983 18.4829 11.8261 18.0866Z" fill="#555555"/>
<path d="M8.01406 26.4727H2.01814C1.33561 26.4727 0.783691 27.0253 0.783691 27.7072C0.783691 28.389 1.33561 28.9416 2.01814 28.9416H8.01406C8.69521 28.9416 9.24885 28.389 9.24885 27.7072C9.24885 27.0253 8.69521 26.4727 8.01406 26.4727Z" fill="#555555"/>
<path d="M54.9612 26.4727H48.9639C48.2828 26.4727 47.7295 27.0253 47.7295 27.7072C47.7295 28.389 48.2828 28.9416 48.9639 28.9416H54.9612C55.6424 28.9416 56.1957 28.389 56.1957 27.7072C56.1957 27.0253 55.6424 26.4727 54.9612 26.4727Z" fill="#555555"/>
<path d="M46.2224 18.7039C46.4322 18.7039 46.6444 18.6511 46.8382 18.539L52.0314 15.5403C52.6209 15.1992 52.8234 14.4437 52.4823 13.8539C52.1422 13.2631 51.3868 13.0613 50.797 13.4017L45.6038 16.4003C45.0133 16.7414 44.8122 17.4966 45.1519 18.0867C45.3811 18.4827 45.7959 18.7039 46.2224 18.7039Z" fill="#555555"/>
<path d="M38.7256 11.208C39.1525 11.208 39.5673 10.9867 39.7962 10.5908L42.793 5.39827C43.1341 4.80778 42.9316 4.05299 42.3422 3.71225C41.7514 3.37185 40.9969 3.57366 40.6558 4.16415L37.6579 9.35662C37.3178 9.94746 37.5193 10.7019 38.1098 11.043C38.3036 11.1548 38.5162 11.208 38.7256 11.208Z" fill="#555555"/>
<defs>
<linearGradient id="paint0_linear" x1="29.963" y1="17.6593" x2="39.7117" y2="29.0332" gradientUnits="userSpaceOnUse">
<stop stop-color="#E50913"/>
<stop offset="1" stop-color="#E50913" stop-opacity="0"/>
</linearGradient>
</defs>
</svg>
