<svg width="53" height="55" viewBox="0 0 53 55" fill="none" xmlns="http://www.w3.org/2000/svg">
<path d="M25.7346 54.523C25.8816 54.5892 26.0383 54.623 26.196 54.623C26.3527 54.623 26.5103 54.5892 26.6573 54.523C50.3542 43.7493 52.1958 12.9272 52.1958 3.7375C52.1958 3.24198 51.8683 2.80633 51.3929 2.66749C51.0186 2.55873 42.0427 0 26.1957 0C10.348 0 1.373 2.55873 0.99878 2.66749C0.522072 2.80633 0.195801 3.24198 0.195801 3.7375C0.196114 12.9272 2.03775 43.7493 25.7346 54.523ZM26.196 2.22777C39.052 2.22777 47.4303 3.98542 49.9627 4.59909C49.8439 14.3037 47.5695 42.1828 26.196 52.2811C4.82028 42.1816 2.54802 14.3012 2.42955 4.59784C4.95601 3.98448 13.313 2.22777 26.196 2.22777Z" fill="#555555"/>
<path d="M32.598 44.3976L32.6 44.3958C34.2397 42.8945 36.3468 40.0927 38.3567 37.0024C40.3541 33.9313 42.1984 30.6642 43.3218 28.2944L32.598 44.3976ZM32.598 44.3976C32.5776 44.4164 32.5526 44.4261 32.524 44.4261C32.492 44.4261 32.464 44.4141 32.4419 44.3899L32.4401 44.3879C32.3976 44.3415 32.4008 44.2696 32.447 44.2272C34.1813 42.6392 36.3074 39.7586 38.2426 36.7672C40.1915 33.7548 42.0084 30.5331 43.1158 28.1967C43.144 28.1379 43.2117 28.116 43.2664 28.142L43.2676 28.1426M32.598 44.3976L43.2676 28.1426M43.2676 28.1426C43.324 28.1693 43.3486 28.2375 43.3218 28.2942L43.2676 28.1426Z" stroke="url(#paint0_linear)" stroke-width="2"/>
<defs>
<linearGradient id="paint0_linear" x1="43.5" y1="26" x2="40.3694" y2="45.5974" gradientUnits="userSpaceOnUse">
<stop stop-color="#E50913"/>
<stop offset="1" stop-color="#E50913" stop-opacity="0"/>
</linearGradient>
</defs>
</svg>
