<svg width="60" height="60" viewBox="0 0 60 60" fill="none" xmlns="http://www.w3.org/2000/svg">
<path d="M0.482991 35.0414C1.16164 38.7884 2.54112 42.2933 4.48596 45.4132C5.35159 46.8012 6.32845 48.1114 7.40392 49.3343C12.8567 55.5383 20.8421 59.4649 29.7314 59.4649C38.6208 59.4649 46.6059 55.5383 52.0593 49.3343C53.1338 48.1114 54.1116 46.8016 54.9766 45.4136C56.9214 42.2933 58.3009 38.7884 58.9795 35.0414C59.2201 33.7134 59.375 32.3565 59.4327 30.9742C59.4497 30.5621 59.4641 30.1489 59.4641 29.7323C59.4641 27.9464 59.2972 26.1995 58.9939 24.4996C58.8321 23.5965 58.6315 22.7076 58.3913 21.8342C57.8205 19.7682 57.034 17.7919 56.0544 15.931C55.6856 15.2302 55.2888 14.5471 54.8674 13.8808C53.4825 11.6926 51.8232 9.6966 49.9333 7.94282C49.2352 7.2959 48.5071 6.68174 47.7499 6.10306C42.7462 2.27854 36.5019 0 29.7321 0C22.9624 0 16.7177 2.27854 11.7143 6.10306C10.9568 6.68174 10.2287 7.2959 9.53061 7.94282C7.6407 9.6966 5.9811 11.6926 4.5965 13.8808C4.17512 14.5471 3.7783 15.2305 3.40946 15.931C2.42953 17.7919 1.64342 19.7682 1.07293 21.8342C0.832041 22.7076 0.631397 23.5965 0.47035 24.4996C0.167022 26.1998 -0.000488281 27.9464 -0.000488281 29.7323C-0.000488281 30.1489 0.0141765 30.5617 0.0308954 30.9742C0.0875348 32.3568 0.242444 33.7134 0.482991 35.0414ZM29.7314 57.0396C23.2046 57.0396 17.2073 54.7352 12.5045 50.9007C17.4765 52.1311 23.3629 52.836 29.7314 52.836C36.0996 52.836 41.986 52.1311 46.9584 50.9007C42.2559 54.7352 36.2583 57.0396 29.7314 57.0396ZM50.572 47.3502C45.3465 49.1872 38.1885 50.4111 29.7311 50.4111C21.2737 50.4111 14.1157 49.1872 8.89086 47.3502C6.37109 44.3746 4.47811 40.8551 3.41186 36.9944C9.3102 40.2375 18.8147 42.3055 29.7311 42.3055C40.6475 42.3055 50.152 40.2375 56.051 36.9944C54.9841 40.8551 53.0914 44.3746 50.572 47.3502ZM29.7314 2.42492C35.2217 2.42492 40.3343 4.05893 44.6201 6.85849C40.3472 7.7521 35.3241 8.28813 29.7314 8.28813C24.1388 8.28813 19.1163 7.75209 14.8428 6.85815C19.1283 4.05893 24.2415 2.42492 29.7314 2.42492ZM12.3042 8.72657C17.3185 9.98765 23.2766 10.7134 29.7314 10.7134C36.1859 10.7134 42.1433 9.98799 47.1583 8.72657C49.2963 10.5032 51.1548 12.6023 52.6694 14.9439C47.3442 17.2245 39.3844 18.819 29.7314 18.819C20.0789 18.819 12.119 17.2245 6.79351 14.9436C8.30776 12.6023 10.1663 10.5032 12.3042 8.72657ZM5.5836 17.0017C11.5127 19.6232 20.0679 21.2442 29.7311 21.2442C39.3943 21.2442 47.9502 19.6232 53.8793 17.0017C54.9585 19.0411 55.7845 21.233 56.3209 23.5357C51.4339 26.7997 41.9383 29.3498 29.7311 29.3498C17.5239 29.3498 8.02864 26.7997 3.14127 23.5357C3.67833 21.2326 4.5037 19.0411 5.5836 17.0017ZM2.68033 26.0432C8.50497 29.5269 18.3507 31.775 29.7314 31.775C41.1122 31.775 50.9576 29.5272 56.7832 26.0432C56.9467 27.2507 57.0391 28.4807 57.0391 29.7326C57.0391 31.1083 56.9347 32.4595 56.7372 33.781C51.9859 37.1807 42.2938 39.8806 29.7318 39.8806C17.1704 39.8806 7.47762 37.1804 2.72639 33.781C2.52918 32.4595 2.42443 31.1083 2.42443 29.7326C2.42374 28.4807 2.51621 27.2507 2.68033 26.0432Z" fill="#555555"/>
<path d="M4.96387 15.6172C4.96387 15.6172 13.9639 20.1172 29.4639 20.1172C44.9639 20.1172 53.9639 15.6172 53.9639 15.6172" stroke="url(#paint0_linear)" stroke-width="2"/>
<path d="M1.46387 35.1172C1.46387 35.1172 11.7496 41.1172 29.4639 41.1172C47.1782 41.1172 57.4639 35.1172 57.4639 35.1172" stroke="url(#paint1_linear)" stroke-width="2"/>
<defs>
<linearGradient id="paint0_linear" x1="-2" y1="33.5" x2="3.01301" y2="43.2445" gradientUnits="userSpaceOnUse">
<stop stop-color="#E50913"/>
<stop offset="1" stop-color="#E50913" stop-opacity="0"/>
</linearGradient>
<linearGradient id="paint1_linear" x1="1" y1="46" x2="5.88309" y2="57.7611" gradientUnits="userSpaceOnUse">
<stop stop-color="#E50913"/>
<stop offset="1" stop-color="#E50913" stop-opacity="0"/>
</linearGradient>
</defs>
</svg>
