<svg width="57" height="57" viewBox="0 0 57 57" fill="none" xmlns="http://www.w3.org/2000/svg">
<path d="M28.3927 45.4678C37.8086 45.4678 45.4679 37.8081 45.4679 28.3916C45.4679 18.9761 37.8086 11.3164 28.3927 11.3164C18.9769 11.3164 11.3162 18.9761 11.3162 28.3916C11.3162 37.8081 18.9769 45.4678 28.3927 45.4678ZM28.3927 13.785C36.4466 13.785 42.9993 20.338 42.9993 28.3916C42.9993 36.4458 36.4466 42.9989 28.3927 42.9989C20.3378 42.9989 13.7847 36.4462 13.7847 28.3916C13.7847 20.338 20.3378 13.785 28.3927 13.785Z" fill="#555555"/>
<path d="M2.20979 39.8257L5.39985 45.3488C5.69648 45.8615 6.31473 46.0928 6.87535 45.8973L11.0268 44.4509C11.445 44.9028 11.8817 45.3394 12.3325 45.7576L10.8872 49.9105C10.6917 50.4697 10.9223 51.0883 11.4357 51.3846L16.9588 54.5733C17.4725 54.8699 18.1235 54.7588 18.5104 54.3104L21.3781 50.9883C21.9676 51.1703 22.5657 51.3294 23.1683 51.4656L23.9916 55.78C24.1024 56.3625 24.6112 56.7831 25.2031 56.7831H31.581C32.1739 56.7831 32.6828 56.3625 32.7936 55.78L33.6168 51.4656C34.2195 51.3294 34.8172 51.1703 35.4056 50.9883L38.2747 54.3117C38.6617 54.7601 39.3137 54.871 39.8263 54.5733L45.3495 51.3836C45.8619 51.088 46.0921 50.4684 45.8979 49.9091L44.4512 45.7562C44.9035 45.3394 45.3401 44.9028 45.7569 44.4509L49.9112 45.8973C50.4714 46.0928 51.0891 45.8611 51.3854 45.3488L54.574 39.8257C54.8706 39.3119 54.7594 38.661 54.311 38.2741L50.989 35.405C51.1707 34.8169 51.3297 34.2188 51.4663 33.6162L55.7807 32.793C56.3632 32.6822 56.7838 32.1733 56.7838 31.5803V25.2027C56.7838 24.6112 56.3632 24.1024 55.7807 23.9902L51.4663 23.1683C51.3297 22.5643 51.1707 21.9665 50.989 21.3781L54.3121 18.509C54.7605 18.1224 54.8703 17.4711 54.574 16.9578L51.3839 11.4343C51.0887 10.922 50.4715 10.6917 49.9098 10.8858L45.7569 12.3325C45.3401 11.8803 44.9035 11.444 44.4512 11.0268L45.8979 6.87397C46.0935 6.3137 45.8629 5.69509 45.3495 5.39845L39.825 2.21016C39.3126 1.91352 38.6617 2.02432 38.2747 2.47274L35.4056 5.79477C34.8172 5.61311 34.2195 5.45402 33.6168 5.31751L32.7936 1.00314C32.6828 0.420984 32.1739 0 31.581 0H25.2031C24.6112 0 24.1013 0.422026 23.9901 1.00314L23.1683 5.31751C22.5657 5.45402 21.9676 5.61311 21.3781 5.79477L18.5104 2.47274C18.1235 2.02432 17.4725 1.91352 16.9588 2.21016L11.4357 5.39845C10.9219 5.69509 10.6917 6.31475 10.8872 6.87397L12.3325 11.0268C11.8817 11.444 11.445 11.8803 11.0268 12.3325L6.87395 10.8858C6.31472 10.6917 5.69475 10.922 5.39985 11.4343L2.20979 16.9578C1.91455 17.4711 2.02434 18.1224 2.47276 18.509L5.79617 21.3781C5.61312 21.9665 5.45402 22.5657 5.31751 23.1683L1.00311 23.9902C0.420963 24.1024 0 24.6112 0 25.2027L0.00135682 31.5803C0.00135682 32.1733 0.422014 32.6822 1.00451 32.793L5.31751 33.6162C5.45402 34.2188 5.61312 34.8169 5.79617 35.405L2.47276 38.2741C2.02434 38.661 1.91351 39.3133 2.20979 39.8257ZM8.03238 36.736C8.41689 36.4043 8.55928 35.8715 8.39151 35.3928C8.04313 34.3998 7.76839 33.3692 7.57318 32.3299C7.47905 31.8308 7.08967 31.4404 6.59088 31.3452L2.47064 30.5592L2.46963 26.2239L6.59088 25.4379C7.08898 25.3427 7.47938 24.9519 7.57212 24.4528C7.76837 23.4139 8.04315 22.382 8.3905 21.3885C8.55792 20.9102 8.41585 20.3784 8.03238 20.0471L4.85831 17.3082L7.02715 13.5531L10.9931 14.9334C11.4714 15.1009 12.0032 14.9574 12.3332 14.5743C13.0213 13.775 13.775 13.0216 14.5743 12.3332C14.9578 12.0029 15.1012 11.4714 14.9345 10.9928L13.5531 7.02681L17.3082 4.85833L20.0471 8.03238C20.3784 8.41585 20.9126 8.55826 21.3899 8.3905C22.383 8.04315 23.4139 7.76701 24.4528 7.57284C24.9519 7.47871 25.3427 7.08933 25.4375 6.59055L26.224 2.46929H30.5598L31.3459 6.59055C31.4407 7.08968 31.8314 7.47906 32.3306 7.57284C33.3709 7.7684 34.4015 8.04315 35.3935 8.3905C35.8722 8.55792 36.405 8.4155 36.7364 8.03238L39.4752 4.85833L43.2304 7.02577L41.8504 10.9928C41.683 11.4714 41.826 12.0029 42.2092 12.3332C43.0074 13.0216 43.7621 13.775 44.4512 14.5743C44.7816 14.9578 45.3134 15.1012 45.7917 14.9334L49.7567 13.5531L51.9251 17.3082L48.7511 20.0471C48.3676 20.3784 48.2255 20.9113 48.3933 21.3899C48.7403 22.3819 49.0164 23.4125 49.2113 24.4528C49.3054 24.9519 49.6951 25.3427 50.1925 25.4379L54.3141 26.2239V30.5592L50.1925 31.3452C49.6948 31.4404 49.3054 31.8308 49.2113 32.3299C49.015 33.3703 48.7403 34.4012 48.3933 35.3928C48.2259 35.8715 48.368 36.4043 48.7511 36.736L51.9251 39.4748L49.7577 43.23L45.7907 41.8497C45.312 41.6822 44.7805 41.8257 44.4502 42.2088C43.7621 43.008 43.0088 43.7614 42.2092 44.4495C41.8257 44.7799 41.6826 45.3113 41.8504 45.79L43.2304 49.7573L39.4765 51.9244L36.7364 48.7504C36.405 48.3669 35.8722 48.2234 35.3935 48.3926C34.4015 48.7396 33.3709 49.0158 32.3306 49.211C31.8314 49.3051 31.4407 49.6945 31.3459 50.1919L30.5598 54.3135H26.225L25.439 50.1933C25.3438 49.6941 24.9534 49.3047 24.4542 49.211C23.4125 49.0154 22.3819 48.7396 21.3899 48.3926C21.2572 48.3453 21.1186 48.3225 20.9825 48.3225C20.6303 48.3225 20.2868 48.4746 20.0485 48.7504L17.3082 51.9244L13.5531 49.7573L14.9345 45.7913C15.1009 45.3127 14.9588 44.7813 14.5743 44.4495C13.7775 43.7621 13.0227 43.0091 12.3332 42.2088C12.0032 41.8253 11.4714 41.6819 10.9931 41.8497L7.02715 43.23L4.85831 39.4759L8.03238 36.736Z" fill="#555555"/>
<circle cx="28" cy="27.9141" r="5" stroke="url(#paint0_linear)" stroke-width="2"/>
<defs>
<linearGradient id="paint0_linear" x1="24.5" y1="23.5" x2="33.5" y2="34" gradientUnits="userSpaceOnUse">
<stop stop-color="#E50913"/>
<stop offset="1" stop-color="#E50913" stop-opacity="0"/>
</linearGradient>
</defs>
</svg>
