<svg width="512" height="512" viewBox="0 0 512 512" fill="none" xmlns="http://www.w3.org/2000/svg">
<g clip-path="url(#clip0)">
<path d="M426.667 512H362.667C350.912 512 341.334 502.421 341.334 490.667V384H288C283.691 384 279.787 381.397 278.144 377.408C276.48 373.419 277.398 368.832 280.448 365.781L387.115 259.115C391.275 254.955 398.038 254.955 402.198 259.115L508.864 365.781C511.915 368.832 512.832 373.419 511.168 377.408C509.547 381.397 505.643 384 501.334 384H448V490.667C448 502.421 438.422 512 426.667 512V512ZM313.75 362.667H352C357.888 362.667 362.667 367.445 362.667 373.333V490.667H426.667V373.333C426.667 367.445 431.446 362.667 437.334 362.667H475.584L394.667 281.749L313.75 362.667Z" fill="#555555"/>
<path d="M288 448H53.3333C23.936 448 0 424.064 0 394.667V117.333C0 87.936 23.936 64 53.3333 64H458.667C488.064 64 512 87.936 512 117.333V309.333C512 315.221 507.221 320 501.333 320C495.445 320 490.667 315.221 490.667 309.333V117.333C490.667 99.6907 476.309 85.3333 458.667 85.3333H53.3333C35.6907 85.3333 21.3333 99.6907 21.3333 117.333V394.667C21.3333 412.309 35.6907 426.667 53.3333 426.667H288C293.888 426.667 298.667 431.445 298.667 437.333C298.667 443.221 293.888 448 288 448Z" fill="#555555"/>
<path d="M160 341.333H10.6667C4.77867 341.333 0 336.555 0 330.667V181.333C0 175.445 4.77867 170.667 10.6667 170.667H160C189.397 170.667 213.333 194.603 213.333 224V288C213.333 317.397 189.397 341.333 160 341.333ZM21.3333 320H160C177.643 320 192 305.643 192 288V224C192 206.357 177.643 192 160 192H21.3333V320Z" fill="#555555"/>
<path d="M106.667 298.667C83.136 298.667 64 279.531 64 256C64 232.469 83.136 213.333 106.667 213.333C130.197 213.333 149.333 232.469 149.333 256C149.333 279.531 130.197 298.667 106.667 298.667ZM106.667 234.667C94.912 234.667 85.3333 244.245 85.3333 256C85.3333 267.755 94.912 277.333 106.667 277.333C118.421 277.333 128 267.755 128 256C128 244.245 118.421 234.667 106.667 234.667Z" fill="#555555"/>
</g>
<defs>
<clipPath id="clip0">
<rect width="512" height="512" fill="white"/>
</clipPath>
</defs>
</svg>
