<svg width="164" height="34" viewBox="0 0 164 34" fill="none" xmlns="http://www.w3.org/2000/svg">
<path d="M0.114258 3.7034C0.114258 2.82952 0.822682 2.12109 1.69657 2.12109H25.2171C26.091 2.12109 26.7994 2.82952 26.7994 3.7034V27.2229C26.7994 28.0967 26.091 28.8052 25.2171 28.8052H1.69657C0.822683 28.8052 0.114258 28.0967 0.114258 27.2229V3.7034Z" fill="white"/>
<path d="M21.5528 4.86914H6.2832V8.07254H21.5528V4.86914Z" fill="#E50913"/>
<path d="M37.0404 10.5105V21.6112C37.0404 22.7212 37.3135 23.5758 37.8597 24.1749C38.4059 24.774 39.2076 25.0735 40.2648 25.0735C41.322 25.0735 42.1326 24.774 42.6964 24.1749C43.2603 23.5758 43.5422 22.7212 43.5422 21.6112V10.5105H48.0617V21.5847C48.0617 23.241 47.7093 24.6418 47.0045 25.7871C46.2997 26.9324 45.3482 27.7958 44.1501 28.3773C42.9695 28.9587 41.648 29.2495 40.1855 29.2495C38.7231 29.2495 37.4104 28.9675 36.2475 28.4037C35.1021 27.8222 34.1947 26.9589 33.5251 25.8135C32.8556 24.6506 32.5208 23.241 32.5208 21.5847V10.5105H37.0404ZM58.9794 10.5105C60.9353 10.5105 62.6444 10.8981 64.1069 11.6734C65.5694 12.4487 66.697 13.5411 67.4899 14.9508C68.3005 16.3427 68.7057 17.955 68.7057 19.7875C68.7057 21.6023 68.3005 23.2146 67.4899 24.6242C66.697 26.0338 65.5605 27.1262 64.0805 27.9015C62.618 28.6768 60.9177 29.0645 58.9794 29.0645H52.0283V10.5105H58.9794ZM58.6887 25.1528C60.3979 25.1528 61.7282 24.6859 62.6797 23.752C63.6311 22.8181 64.1069 21.4966 64.1069 19.7875C64.1069 18.0783 63.6311 16.748 62.6797 15.7965C61.7282 14.845 60.3979 14.3693 58.6887 14.3693H56.5479V25.1528H58.6887ZM76.5439 10.5105V29.0645H72.0244V10.5105H76.5439ZM93.9593 10.5105V14.1314H89.0433V29.0645H84.5238V14.1314H79.6078V10.5105H93.9593ZM98.8441 29.2495C98.1746 29.2495 97.6195 29.0468 97.179 28.6416C96.7562 28.2187 96.5447 27.6989 96.5447 27.0822C96.5447 26.4655 96.7562 25.9545 97.179 25.5492C97.6195 25.1264 98.1746 24.9149 98.8441 24.9149C99.4961 24.9149 100.034 25.1264 100.456 25.5492C100.879 25.9545 101.091 26.4655 101.091 27.0822C101.091 27.6989 100.879 28.2187 100.456 28.6416C100.034 29.0468 99.4961 29.2495 98.8441 29.2495ZM111.366 29.3023C109.956 29.3023 108.688 28.994 107.56 28.3773C106.432 27.7429 105.542 26.8531 104.89 25.7078C104.256 24.5625 103.939 23.241 103.939 21.7433C103.939 20.2456 104.265 18.9241 104.917 17.7788C105.586 16.6335 106.494 15.7525 107.639 15.1358C108.784 14.5014 110.062 14.1843 111.472 14.1843C112.881 14.1843 114.159 14.5014 115.304 15.1358C116.449 15.7525 117.348 16.6335 118 17.7788C118.669 18.9241 119.004 20.2456 119.004 21.7433C119.004 23.241 118.661 24.5625 117.973 25.7078C117.304 26.8531 116.388 27.7429 115.225 28.3773C114.079 28.994 112.793 29.3023 111.366 29.3023ZM111.366 26.0778C112.035 26.0778 112.661 25.9193 113.242 25.6021C113.841 25.2673 114.317 24.774 114.67 24.122C115.022 23.4701 115.198 22.6772 115.198 21.7433C115.198 20.3513 114.828 19.2853 114.088 18.5453C113.366 17.7876 112.476 17.4088 111.419 17.4088C110.361 17.4088 109.472 17.7876 108.749 18.5453C108.044 19.2853 107.692 20.3513 107.692 21.7433C107.692 23.1353 108.036 24.2101 108.723 24.9678C109.428 25.7078 110.309 26.0778 111.366 26.0778ZM130.625 14.2107C132.37 14.2107 133.779 14.7657 134.854 15.8758C135.929 16.9683 136.466 18.5012 136.466 20.4747V29.0645H132.766V20.9768C132.766 19.8139 132.475 18.9241 131.894 18.3074C131.313 17.6731 130.52 17.3559 129.515 17.3559C128.493 17.3559 127.683 17.6731 127.084 18.3074C126.502 18.9241 126.212 19.8139 126.212 20.9768V29.0645H122.511V14.4222H126.212V16.2458C126.705 15.6115 127.33 15.1181 128.088 14.7657C128.863 14.3957 129.709 14.2107 130.625 14.2107ZM154.39 21.4261C154.39 21.9547 154.354 22.4305 154.284 22.8534H143.58C143.668 23.9106 144.038 24.7387 144.69 25.3378C145.342 25.9369 146.143 26.2364 147.095 26.2364C148.469 26.2364 149.447 25.6462 150.029 24.4656H154.02C153.597 25.8752 152.786 27.0381 151.588 27.9544C150.39 28.853 148.919 29.3023 147.174 29.3023C145.765 29.3023 144.496 28.994 143.368 28.3773C142.258 27.7429 141.386 26.8531 140.752 25.7078C140.135 24.5625 139.827 23.241 139.827 21.7433C139.827 20.228 140.135 18.8977 140.752 17.7524C141.368 16.607 142.232 15.726 143.342 15.1093C144.452 14.4926 145.729 14.1843 147.174 14.1843C148.566 14.1843 149.808 14.4838 150.901 15.0829C152.011 15.682 152.865 16.5366 153.465 17.6466C154.081 18.7391 154.39 19.9989 154.39 21.4261ZM150.557 20.3689C150.54 19.4175 150.196 18.6598 149.526 18.0959C148.857 17.5145 148.038 17.2237 147.068 17.2237C146.152 17.2237 145.377 17.5057 144.743 18.0695C144.126 18.6157 143.747 19.3822 143.606 20.3689H150.557Z" fill="white"/>
<path d="M18.1029 28.8997H22.8867L16.1735 10.3457H10.9403L4.22705 28.8997H8.95805L10.0681 25.6223H16.9928L18.1029 28.8997ZM15.8299 22.1335H11.2575L13.5305 15.341L15.8299 22.1335Z" fill="black"/>
</svg>
