<svg width="169" height="42" viewBox="0 0 169 42" fill="none" xmlns="http://www.w3.org/2000/svg">
<path d="M21.1277 37.4529C18.156 37.4529 15.2437 36.6209 12.6286 35.0756C10.073 33.5303 7.99278 31.3313 6.56637 28.7162C5.13996 26.1011 4.4862 23.1294 4.6645 20.1577C4.78337 17.186 5.73431 14.2738 7.39846 11.7775C9.06261 9.28131 11.3805 7.31999 14.0551 6.01245C16.7296 4.7049 19.7607 4.22943 22.7324 4.46716C25.7041 4.76433 28.5569 5.83414 30.9342 7.61716C33.3116 9.40018 35.2135 11.7775 36.3428 14.5115H40.8597C39.3739 9.81622 36.2239 5.77471 32.004 3.21906C27.7842 0.60397 22.7918 -0.406407 17.9183 0.366233C13.0447 1.13887 8.58712 3.6351 5.37769 7.37943C2.16827 11.1238 0.385254 15.9379 0.385254 20.8709C0.385254 25.8039 2.16827 30.6181 5.37769 34.3624C8.58712 38.1067 13.0447 40.6029 17.9183 41.3756C22.7918 42.1482 27.7842 41.1378 32.004 38.5228C36.2239 35.9077 39.3739 31.9256 40.8597 27.2303H36.3428C35.0946 30.2615 32.955 32.8171 30.2805 34.6596C27.5465 36.502 24.3965 37.4529 21.1277 37.4529Z" fill="#0040DC"/>
<path d="M28.8541 23.0701C28.3192 24.972 27.19 26.5767 25.5258 27.6466C23.9211 28.7164 21.9598 29.1918 19.9985 28.8947C18.0966 28.6569 16.3136 27.706 15.006 26.2201C13.6985 24.7343 12.9853 22.8918 12.9853 20.9305C12.9853 18.9692 13.6985 17.1268 15.006 15.6409C16.3136 14.1551 18.0372 13.2041 19.9985 12.9664C21.9004 12.7287 23.8617 13.1447 25.5258 14.2145C27.1306 15.2843 28.3192 16.9485 28.8541 18.7909H37.472C37.2937 17.3051 36.9371 15.8787 36.3428 14.5711H31.5881C30.2211 12.2532 28.0815 10.4702 25.5853 9.4598C23.089 8.44943 20.3551 8.33055 17.74 9.04376C15.1249 9.75696 12.8664 11.3022 11.2023 13.4419C9.59755 15.5815 8.70605 18.1966 8.70605 20.8711C8.70605 23.5456 9.59755 26.1607 11.2023 28.3003C12.807 30.4399 15.1249 31.9852 17.74 32.6984C20.3551 33.4116 23.089 33.2928 25.5853 32.2824C28.0815 31.272 30.1617 29.489 31.5881 27.1711H36.3428C36.8777 25.8041 37.2937 24.3777 37.472 22.9513L28.8541 23.0701ZM40.8598 27.29H45.2579C45.6145 25.923 45.8522 24.4966 45.9711 23.0701H41.7513C41.573 24.4966 41.2758 25.923 40.8598 27.29ZM41.6919 18.8503H45.9116C45.7928 17.4239 45.555 15.9975 45.1984 14.6305H40.8598C41.2758 15.9975 41.573 17.4239 41.6919 18.8503Z" fill="#0040DC"/>
<path d="M41.8107 20.9306C41.8107 20.2174 41.8107 19.5042 41.6918 18.791H37.4126C37.5909 20.2174 37.5909 21.6438 37.4126 23.0703H41.6918C41.7513 22.357 41.8107 21.6438 41.8107 20.9306Z" fill="#0040DC"/>
<path d="M20.593 24.2601C22.4354 24.2601 23.9212 22.7743 23.9212 20.9318C23.9212 19.0894 22.4354 17.6035 20.593 17.6035C18.7505 17.6035 17.2646 19.0894 17.2646 20.9318C17.2646 22.7743 18.7505 24.2601 20.593 24.2601Z" fill="#0040DC"/>
<path d="M50.1905 18.8496H45.9707C46.0301 19.5628 46.0896 20.2166 46.0896 20.9298C46.0896 21.643 46.0896 22.4157 45.9707 23.1289H50.1905C50.25 22.4157 50.3094 21.7025 50.3094 20.9298C50.25 20.2166 50.25 19.5628 50.1905 18.8496ZM65.049 28.1808C63.8009 28.1808 62.5528 27.8836 61.483 27.2298C60.4132 26.6355 59.4622 25.6845 58.8084 24.6147C58.1547 23.5449 57.7981 22.2968 57.7981 21.0487C57.7981 19.8006 58.0952 18.5525 58.6896 17.4232C59.2839 16.294 60.1754 15.4025 61.2452 14.7487C62.315 14.0949 63.5631 13.7383 64.8112 13.6789C66.0594 13.6195 67.3075 13.9166 68.4367 14.511C69.566 15.1053 70.5169 15.9374 71.1707 17.0072C71.6461 17.661 71.9433 18.4336 72.1216 19.2657H68.3773C68.1395 18.5525 67.6641 17.9581 67.0697 17.5421C66.4754 17.1261 65.7622 16.8883 64.9895 16.8289C64.4546 16.8289 63.9792 16.9478 63.5037 17.1855C63.0282 17.4232 62.6122 17.7204 62.2556 18.077C61.899 18.4336 61.6613 18.9091 61.483 19.3845C61.3047 19.86 61.2452 20.3949 61.2452 20.8704C61.1858 21.4053 61.3047 21.9402 61.483 22.4157C61.6613 22.8911 61.899 23.3666 62.2556 23.7232C62.6122 24.1393 63.0282 24.4364 63.5037 24.6147C63.9792 24.8525 64.5141 24.9713 64.9895 24.9713C65.7027 24.9713 66.416 24.7336 67.0103 24.3176C67.6046 23.9015 68.0801 23.3072 68.3179 22.6534H72.0622C71.7056 24.2581 70.7546 25.6251 69.5065 26.6355C68.2584 27.7053 66.6537 28.2402 65.049 28.1808ZM137.855 28.1808C135.954 28.1808 134.111 27.4675 132.804 26.16C131.437 24.8525 130.664 23.0694 130.605 21.1676C130.605 20.1572 130.783 19.1468 131.139 18.1959C131.377 17.661 131.674 17.1261 132.031 16.6506C132.744 15.6402 133.755 14.8676 134.884 14.3327C136.013 13.7978 137.261 13.6195 138.509 13.6789C139.757 13.7978 140.946 14.2138 141.956 14.927C142.967 15.6402 143.799 16.5911 144.393 17.661C144.928 18.7902 145.225 19.9789 145.166 21.227C145.106 22.4751 144.75 23.6638 144.096 24.7336C143.442 25.8034 142.551 26.6355 141.422 27.2892C140.292 27.8242 139.044 28.1808 137.855 28.1808ZM137.855 16.8883C137.321 16.8883 136.845 17.0072 136.37 17.2449C135.894 17.4827 135.478 17.7798 135.121 18.1364C134.765 18.493 134.468 18.9685 134.289 19.444C134.111 19.9194 134.052 20.4544 134.052 20.9893C133.992 21.5242 134.052 22.0591 134.23 22.5345C134.408 23.01 134.646 23.4855 135.003 23.9015C135.359 24.3175 135.775 24.6147 136.251 24.8525C136.726 25.0902 137.261 25.2091 137.796 25.2091C138.331 25.2091 138.866 25.0902 139.341 24.9119C139.817 24.6742 140.233 24.377 140.589 24.0204C140.946 23.6044 141.243 23.1883 141.422 22.6534C141.6 22.1779 141.659 21.643 141.6 21.1081C141.6 20.5732 141.54 20.0977 141.362 19.6223C141.184 19.1468 140.946 18.6713 140.589 18.3147C140.233 17.9581 139.817 17.6015 139.341 17.4232C138.866 17.1855 138.39 17.0666 137.855 17.0666V16.8883ZM91.9131 17.6015C91.2593 17.6015 90.6055 17.7798 90.0706 18.077C89.5357 18.4336 89.1197 18.9685 88.882 19.5628V17.7798H85.6726V27.8836H89.0008V22.8911C89.0008 22.594 89.0603 22.2968 89.1791 21.9996C89.298 21.7025 89.4169 21.4647 89.6546 21.227C89.8923 20.9893 90.1301 20.811 90.4273 20.6921C90.7839 20.5732 91.1404 20.5138 91.4376 20.5138H91.9725L91.9131 17.6015ZM99.8178 20.5138H97.7376V24.5553C97.7376 24.7336 97.7376 24.8525 97.797 24.9713C97.8565 25.0902 97.9753 25.2091 98.0942 25.3279C98.3319 25.4468 98.6291 25.5062 98.9263 25.5062H99.3423C99.4612 25.5062 99.6395 25.5062 99.7583 25.5062V27.943L98.8668 28.0025C98.5697 28.0025 98.2725 28.0025 97.9753 28.0025C97.381 28.0025 96.7867 27.943 96.2518 27.8242C95.8357 27.7647 95.4791 27.527 95.182 27.2298C94.8848 26.9326 94.7065 26.576 94.5876 26.16C94.4688 25.5657 94.4093 25.0308 94.4093 24.4364V20.5138H93.3395V17.661H94.4688V14.7487H97.797V17.661H99.8772L99.8178 20.5138ZM111.526 27.8836H108.317V26.5166C108.02 27.0515 107.544 27.4675 107.009 27.7647C106.474 28.0619 105.88 28.1808 105.286 28.2402C104.691 28.2402 104.038 28.1808 103.503 27.943C103.027 27.7647 102.611 27.4675 102.314 27.0515C102.017 26.6355 101.779 26.16 101.72 25.6845C101.601 25.0902 101.541 24.5553 101.541 23.9609V17.8987H104.87V23.7826C104.87 24.0204 104.87 24.2581 104.929 24.5553C104.989 24.793 105.107 25.0308 105.286 25.2091C105.642 25.5062 106.058 25.6251 106.534 25.6251C106.712 25.6251 106.95 25.5657 107.128 25.5062C107.366 25.4468 107.544 25.3279 107.722 25.1496C107.901 24.9713 108.079 24.7336 108.198 24.4364C108.317 24.0798 108.376 23.7232 108.376 23.3072V17.8987H111.705V27.8836H111.526ZM116.459 24.5553C116.459 24.793 116.519 24.9713 116.578 25.2091C116.697 25.3874 116.816 25.5657 116.994 25.6845C117.172 25.8034 117.351 25.9223 117.529 25.9817C117.767 26.0411 118.005 26.0411 118.183 26.0411C118.361 26.0411 118.539 26.0411 118.718 25.9817C118.896 25.9223 119.074 25.8628 119.193 25.8034C119.372 25.744 119.49 25.6251 119.609 25.4468C119.728 25.3279 119.788 25.1496 119.788 24.9713C119.788 24.793 119.728 24.6147 119.609 24.4959C119.49 24.377 119.372 24.2581 119.193 24.1987C119.015 24.1392 118.837 24.0798 118.658 24.0204L118.183 23.9015C117.648 23.7826 117.172 23.6638 116.578 23.5449C116.043 23.426 115.568 23.3072 115.033 23.0694C114.617 22.8911 114.201 22.594 113.904 22.1779C113.606 21.7025 113.428 21.1676 113.488 20.5732C113.488 20.0383 113.606 19.5034 113.904 19.0874C114.201 18.6713 114.557 18.3742 115.033 18.1364C115.508 17.8987 115.984 17.7204 116.519 17.661C117.054 17.5421 117.589 17.5421 118.064 17.5421C118.599 17.5421 119.134 17.6015 119.728 17.661C120.263 17.7204 120.739 17.8987 121.214 18.1959C121.689 18.4336 122.046 18.7902 122.284 19.2062C122.581 19.6817 122.759 20.276 122.759 20.811H119.669C119.669 20.6327 119.669 20.4543 119.55 20.3355C119.49 20.1572 119.372 20.0383 119.193 19.9789C118.896 19.8006 118.539 19.7411 118.183 19.7411C118.005 19.7411 117.886 19.7411 117.707 19.7411C117.529 19.7411 117.41 19.8006 117.232 19.86C117.113 19.9195 116.994 19.9789 116.875 20.0977C116.816 20.1572 116.756 20.2166 116.756 20.2761C116.756 20.3355 116.697 20.3949 116.697 20.5138C116.697 20.6327 116.756 20.7515 116.816 20.8704C116.875 20.9893 116.994 21.0487 117.054 21.1081C117.351 21.2864 117.648 21.4053 118.005 21.4647C118.361 21.5836 118.777 21.643 119.193 21.7025L120.441 21.9402C120.857 21.9996 121.333 22.1779 121.689 22.4157C121.987 22.594 122.284 22.8317 122.462 23.1289C122.64 23.3666 122.759 23.6638 122.878 23.9015C122.938 24.1392 122.997 24.377 122.997 24.6147C122.997 25.2091 122.878 25.8034 122.581 26.3383C122.284 26.8138 121.927 27.1704 121.452 27.4675C120.976 27.7647 120.441 27.943 119.906 28.0619C119.312 28.1807 118.777 28.2402 118.183 28.2402C117.589 28.2402 116.994 28.1807 116.4 28.0619C115.865 27.943 115.33 27.7647 114.795 27.4675C114.32 27.1704 113.963 26.8138 113.666 26.3383C113.369 25.8034 113.19 25.2091 113.19 24.6147L116.459 24.5553ZM125.137 24.2581H128.762V27.8836H125.137V24.2581ZM146.652 17.7798H149.861V19.1468C150.039 18.9091 150.218 18.6713 150.455 18.4336C150.693 18.1959 150.931 18.077 151.228 17.8987C151.525 17.7798 151.822 17.661 152.12 17.5421C152.417 17.4827 152.714 17.4232 153.011 17.4232C153.724 17.3638 154.378 17.5421 155.032 17.8393C155.507 18.077 155.864 18.4336 156.102 18.8496C156.339 19.2657 156.518 19.6817 156.577 20.0977C156.637 20.5138 156.696 20.9298 156.696 21.3459V27.8242H153.427V21.9402C153.427 21.643 153.368 21.3459 153.308 21.0487C153.189 20.811 153.071 20.5732 152.833 20.3949C152.536 20.2166 152.179 20.0978 151.822 20.1572C151.525 20.1572 151.288 20.2166 150.99 20.3355C150.753 20.4543 150.574 20.6327 150.455 20.811C150.277 21.0487 150.218 21.2864 150.158 21.5242C150.099 21.7619 150.039 22.0591 150.039 22.2968V27.8242H146.711L146.652 17.7798ZM84.1272 22.8317C84.1867 22.1185 84.0678 21.3459 83.8301 20.6921C83.5923 19.9789 83.1763 19.3845 82.7009 18.8496C82.2254 18.3147 81.5716 17.8987 80.9178 17.6015C80.2641 17.3044 79.5508 17.1261 78.7782 17.1261C78.065 17.1261 77.3518 17.2449 76.6386 17.5421C75.9848 17.8393 75.3311 18.2553 74.8556 18.7902C74.3207 19.3251 73.9641 19.9194 73.6669 20.6326C73.4292 21.2864 73.2508 22.0591 73.3103 22.7723C73.3103 24.1393 73.8452 25.5062 74.8556 26.5166C75.8065 27.527 77.1141 28.1213 78.5405 28.1808H79.2537C79.6697 28.1808 80.1452 28.1213 80.5612 28.0619C81.0961 27.943 81.5716 27.7647 82.0471 27.4675C82.5225 27.1704 82.8791 26.8732 83.2357 26.4572C83.5923 25.9817 83.8301 25.5062 84.0084 24.9119H80.9178C80.799 25.2685 80.5018 25.5657 80.1452 25.744C79.7886 25.9223 79.432 26.0411 79.0159 26.0411C78.7188 26.0411 78.4216 26.0411 78.1244 25.9223C77.8273 25.8034 77.5895 25.6251 77.3518 25.4468C77.2329 25.3279 77.1141 25.1496 77.0546 24.9713C76.8763 24.6147 76.7575 24.1987 76.7575 23.7826H84.1867C84.1273 23.3666 84.1272 23.1289 84.1272 22.8317ZM78.7782 19.7411C79.0159 19.7411 79.3131 19.8006 79.5508 19.9194C79.7886 20.0383 80.0263 20.1572 80.2046 20.3949C80.5612 20.811 80.799 21.3459 80.8584 21.8808H76.698C76.7575 21.3459 76.9952 20.811 77.4112 20.3949C77.5895 20.2166 77.8273 20.0383 78.065 19.9789C78.2433 19.8006 78.5405 19.7411 78.7782 19.7411ZM168.939 22.8317C168.999 22.1185 168.88 21.3459 168.642 20.6921C168.404 19.9789 167.988 19.3845 167.513 18.8496C167.037 18.3147 166.384 17.8987 165.73 17.6015C165.076 17.3044 164.363 17.1261 163.59 17.1261C162.877 17.1261 162.164 17.2449 161.451 17.5421C160.797 17.8393 160.143 18.2553 159.668 18.7902C159.133 19.3251 158.776 19.9194 158.479 20.6326C158.241 21.2864 158.122 22.0591 158.122 22.7723C158.122 24.1393 158.657 25.5062 159.668 26.5166C160.619 27.527 161.926 28.1213 163.353 28.1808H164.066C164.482 28.1808 164.957 28.1213 165.373 28.0619C165.908 27.943 166.384 27.7647 166.859 27.4675C167.335 27.1704 167.691 26.8732 168.048 26.4572C168.404 26.0411 168.642 25.5062 168.761 24.9713H165.671C165.552 25.3279 165.254 25.6251 164.898 25.8034C164.541 25.9817 164.185 26.1006 163.769 26.1006C163.471 26.1006 163.174 26.1006 162.877 25.9817C162.58 25.8628 162.342 25.6845 162.104 25.5062C161.986 25.3874 161.867 25.2091 161.748 25.0308C161.57 24.6742 161.451 24.2581 161.451 23.8421H168.88C168.88 23.426 168.939 23.1289 168.939 22.8317ZM163.59 19.7411C163.828 19.7411 164.125 19.8006 164.363 19.9194C164.601 20.0383 164.838 20.1572 165.017 20.3949C165.373 20.811 165.611 21.3459 165.611 21.8808H161.451C161.51 21.3459 161.748 20.811 162.164 20.3949C162.342 20.2166 162.58 20.0383 162.818 19.9789C162.996 19.7411 163.293 19.7411 163.59 19.7411Z" fill="#0040DC"/>
</svg>
