<?xml version="1.0" encoding="UTF-8"?>
<svg width="162px" height="19px" viewBox="0 0 162 19" version="1.1" xmlns="http://www.w3.org/2000/svg" xmlns:xlink="http://www.w3.org/1999/xlink">
    <!-- Generator: sketchtool 51.1 (57501) - http://www.bohemiancoding.com/sketch -->
    <title>2A0C2FED-9F27-4031-A11B-47AD3BFDF365@2x</title>
    <desc>Created with sketchtool.</desc>
    <defs>
        <polygon id="path-1" points="0 18.974871 161.903161 18.974871 161.903161 0 0 0"></polygon>
    </defs>
    <g id="Page-1" stroke="none" stroke-width="1" fill="none" fill-rule="evenodd">
        <g id="Home-v4" transform="translate(-150.000000, -61.000000)">
            <g id="Group-17" transform="translate(150.000000, 61.000000)">
                <path d="M4.25109653,16.9200108 C4.9812995,16.9200108 5.52464109,16.6942581 5.88112129,16.2423441 C6.2372005,15.7906344 6.41564109,15.1395269 6.41564109,14.2890215 L6.41564109,4.72201075 C6.41564109,3.87150538 6.2372005,3.22039785 5.88112129,2.76868817 C5.52464109,2.31677419 4.97227723,2.09102151 4.22483168,2.09102151 L2.03422277,2.09102151 L2.03422277,16.9200108 L4.25109653,16.9200108 Z M4.27716089,0.204301075 C5.7024802,0.204301075 6.75026733,0.616172043 7.4197203,1.43991398 C8.08897277,2.26386022 8.4237995,3.39323656 8.4237995,4.82824731 L8.4237995,14.2093441 C8.4237995,15.6443548 8.08897277,16.7696452 7.4197203,17.5843978 C6.75026733,18.3995591 5.7024802,18.8067312 4.27716089,18.8067312 L0,18.8067312 L0,0.204301075 L4.27716089,0.204301075 Z" id="Fill-1" fill="#FFFFFF"></path>
                <path d="M16.443802,14.4038387 C16.443802,15.2543441 16.6220421,15.9144409 16.9785223,16.3835161 C17.3346015,16.8532043 17.8781436,17.0879462 18.608547,17.0879462 C19.3557921,17.0879462 19.9035446,16.8532043 20.2514035,16.3835161 C20.5992624,15.9144409 20.7730916,15.2543441 20.7730916,14.4038387 L20.7730916,4.57103226 C20.7730916,3.72052688 20.5992624,3.06083871 20.2514035,2.59135484 C19.9035446,2.12207527 19.3557921,1.88692473 18.608547,1.88692473 C17.8781436,1.88692473 17.3346015,2.12207527 16.9785223,2.59135484 C16.6220421,3.06083871 16.443802,3.72052688 16.443802,4.57103226 L16.443802,14.4038387 Z M14.4356436,4.67747312 C14.4356436,3.24225806 14.7786906,2.10409677 15.4657871,1.26258065 C16.1524827,0.421268817 17.2000693,0 18.608547,0 C20.0168243,0 21.0684208,0.421268817 21.7641386,1.26258065 C22.4594554,2.10409677 22.8073144,3.24225806 22.8073144,4.67747312 L22.8073144,14.2973978 C22.8073144,15.7152473 22.4594554,16.848914 21.7641386,17.6992151 C21.0684208,18.5495161 20.0168243,18.974871 18.608547,18.974871 C17.2000693,18.974871 16.1524827,18.5495161 15.4657871,17.6992151 C14.7786906,16.848914 14.4356436,15.7152473 14.4356436,14.2973978 L14.4356436,4.67747312 Z" id="Fill-3" fill="#FFFFFF"></path>
                <polygon id="Fill-5" fill="#FFFFFF" points="31.97475 10.7280538 30.9055099 12.5618602 30.9055099 18.8069355 28.8712871 18.8069355 28.8712871 0.204301075 30.9055099 0.204301075 30.9055099 9.18660215 35.7562871 0.204301075 37.8167748 0.204301075 33.2003762 8.68177419 37.9731609 18.8069355 35.8868094 18.8069355"></polygon>
                <mask id="mask-2" fill="white">
                    <use xlink:href="#path-1"></use>
                </mask>
                <g id="Clip-8"></g>
                <polygon id="Fill-7" fill="#FFFFFF" mask="url(#mask-2)" points="43.7079208 18.8069355 45.7421436 18.8069355 45.7421436 0.204301075 43.7079208 0.204301075"></polygon>
                <path d="M54.169552,13.2793656 L58.2379975,13.2793656 L56.1777104,2.54273118 L54.169552,13.2793656 Z M53.9087079,15.0598495 L53.2045693,18.8069355 L51.3267327,18.8069355 L54.8215619,0.204301075 L57.7684381,0.204301075 L61.2632673,18.8069355 L59.2290446,18.8069355 L58.5249059,15.0598495 L53.9087079,15.0598495 Z" id="Fill-9" fill="#FFFFFF" mask="url(#mask-2)"></path>
                <path d="M79.279953,0 C80.6884307,0 81.726995,0.425354839 82.3966485,1.27565591 C83.065901,2.12595699 83.4007277,3.26003226 83.4007277,4.67747312 L83.4007277,6.35172043 L81.4709629,6.35172043 L81.4709629,4.57103226 C81.4709629,3.72052688 81.3013441,3.06083871 80.9623069,2.59135484 C80.6230693,2.12207527 80.0795272,1.88692473 79.3324827,1.88692473 C78.6020792,1.88692473 78.062948,2.12207527 77.7150891,2.59135484 C77.3674307,3.06083871 77.1936015,3.72052688 77.1936015,4.57103226 L77.1936015,14.4038387 C77.1936015,15.2543441 77.3674307,15.9142366 77.7150891,16.3835161 C78.062948,16.8532043 78.6020792,17.0879462 79.3324827,17.0879462 C80.0795272,17.0879462 80.6230693,16.8532043 80.9623069,16.3835161 C81.3013441,15.9142366 81.4709629,15.2543441 81.4709629,14.4038387 L81.4709629,11.9855269 L83.4007277,11.9855269 L83.4007277,14.2973978 C83.4007277,15.7152473 83.065901,16.848914 82.3966485,17.6992151 C81.726995,18.5495161 80.6884307,18.974871 79.279953,18.974871 C77.8891188,18.974871 76.8587748,18.5495161 76.1895223,17.6992151 C75.5202698,16.848914 75.1856436,15.7152473 75.1856436,14.2973978 L75.1856436,4.67747312 C75.1856436,3.96895699 75.2678465,3.32663441 75.433255,2.75070968 C75.5982624,2.17498925 75.8504851,1.68344086 76.1895223,1.27565591 C76.5285594,0.86827957 76.9546114,0.554064516 77.4676782,0.332397849 C77.9803441,0.110935484 78.5844356,0 79.279953,0" id="Fill-10" fill="#FFFFFF" mask="url(#mask-2)"></path>
                <path d="M91.6619257,13.2793656 L95.7305718,13.2793656 L93.6700842,2.54273118 L91.6619257,13.2793656 Z M91.4010817,15.0598495 L90.6971436,18.8069355 L88.8193069,18.8069355 L92.3139356,0.204301075 L95.2610124,0.204301075 L98.7556411,18.8069355 L96.7216188,18.8069355 L96.0172797,15.0598495 L91.4010817,15.0598495 Z" id="Fill-11" fill="#FFFFFF" mask="url(#mask-2)"></path>
                <path d="M108.492082,9.61195699 C109.25677,9.61195699 109.822366,9.42154839 110.187267,9.04052688 C110.552168,8.65991398 110.73522,8.0173871 110.73522,7.11376344 L110.73522,4.64253763 C110.73522,3.79203226 110.574223,3.1542043 110.252228,2.72905376 C109.930433,2.30390323 109.395913,2.09102151 108.648668,2.09102151 L106.692639,2.09102151 L106.692639,9.61195699 L108.492082,9.61195699 Z M108.648668,0.204301075 C110.091431,0.204301075 111.134606,0.607591398 111.778396,1.41355914 C112.421384,2.21993548 112.743178,3.33153763 112.743178,4.74856989 L112.743178,6.98096774 C112.743178,8.46909677 112.39973,9.59009677 111.712834,10.3427419 C111.026139,11.096 109.952688,11.4721183 108.492082,11.4721183 L106.692639,11.4721183 L106.692639,18.8069355 L104.658416,18.8069355 L104.658416,0.204301075 L108.648668,0.204301075 Z" id="Fill-12" fill="#FFFFFF" mask="url(#mask-2)"></path>
                <polygon id="Fill-13" fill="#FFFFFF" mask="url(#mask-2)" points="118.492574 18.8069355 120.526797 18.8069355 120.526797 0.204301075 118.492574 0.204301075"></polygon>
                <polygon id="Fill-14" fill="#FFFFFF" mask="url(#mask-2)" points="129.475493 18.8069355 129.475493 2.09122581 126.111386 2.09122581 126.111386 0.204301075 134.874022 0.204301075 134.874022 2.09122581 131.509715 2.09122581 131.509715 18.8069355"></polygon>
                <path d="M141.785688,13.2793656 L145.854334,13.2793656 L143.793847,2.54273118 L141.785688,13.2793656 Z M141.524844,15.0598495 L140.820906,18.8069355 L138.943069,18.8069355 L142.437698,0.204301075 L145.384775,0.204301075 L148.879403,18.8069355 L146.845381,18.8069355 L146.141042,15.0598495 L141.524844,15.0598495 Z" id="Fill-15" fill="#FFFFFF" mask="url(#mask-2)"></path>
                <polygon id="Fill-16" fill="#FFFFFF" mask="url(#mask-2)" points="154.581683 18.8069355 154.581683 0.204301075 156.615906 0.204301075 156.615906 16.9202151 161.831985 16.9202151 161.831985 18.8069355"></polygon>
            </g>
        </g>
    </g>
</svg>