<svg width="176" height="50" viewBox="0 0 176 50" fill="none" xmlns="http://www.w3.org/2000/svg">
<path fill-rule="evenodd" clip-rule="evenodd" d="M70.6942 28.5554C71.18 28.5554 71.5415 28.4052 71.7787 28.1045C72.0156 27.804 72.1344 27.3708 72.1344 26.8049V20.4395C72.1344 19.8736 72.0156 19.4404 71.7787 19.1398C71.5415 18.8391 71.174 18.6889 70.6767 18.6889H69.2192V28.5554H70.6942ZM70.7115 17.4336C71.6599 17.4336 72.357 17.7076 72.8024 18.2557C73.2477 18.8039 73.4705 19.5554 73.4705 20.5101V26.7519C73.4705 27.7066 73.2477 28.4553 72.8024 28.9974C72.357 29.5398 71.6599 29.8107 70.7115 29.8107H67.8657V17.4336H70.7115Z" fill="white"/>
<path fill-rule="evenodd" clip-rule="evenodd" d="M78.8068 26.8824C78.8068 27.4483 78.9254 27.8875 79.1626 28.1996C79.3995 28.5121 79.7612 28.6683 80.2471 28.6683C80.7443 28.6683 81.1088 28.5121 81.3402 28.1996C81.5717 27.8875 81.6873 27.4483 81.6873 26.8824V20.3402C81.6873 19.7743 81.5717 19.3354 81.3402 19.023C81.1088 18.7108 80.7443 18.5543 80.2471 18.5543C79.7612 18.5543 79.3995 18.7108 79.1626 19.023C78.9254 19.3354 78.8068 19.7743 78.8068 20.3402V26.8824ZM77.4707 20.411C77.4707 19.4561 77.6989 18.6988 78.1561 18.1389C78.613 17.5791 79.31 17.2988 80.2471 17.2988C81.1841 17.2988 81.8838 17.5791 82.3467 18.1389C82.8093 18.6988 83.0408 19.4561 83.0408 20.411V26.8116C83.0408 27.755 82.8093 28.5093 82.3467 29.075C81.8838 29.6408 81.1841 29.9238 80.2471 29.9238C79.31 29.9238 78.613 29.6408 78.1561 29.075C77.6989 28.5093 77.4707 27.755 77.4707 26.8116V20.411Z" fill="white"/>
<path fill-rule="evenodd" clip-rule="evenodd" d="M89.1406 24.4375L88.4292 25.6577V29.8128H87.0757V17.4355H88.4292V23.4119L91.6566 17.4355H93.0276L89.956 23.076L93.1316 29.8128H91.7435L89.1406 24.4375Z" fill="white"/>
<mask id="mask0" mask-type="alpha" maskUnits="userSpaceOnUse" x="67" y="17" width="109" height="13">
<path d="M67.8657 29.9257H175.588V17.3008H67.8657V29.9257Z" fill="white"/>
</mask>
<g mask="url(#mask0)">
<path fill-rule="evenodd" clip-rule="evenodd" d="M96.9468 29.8128H98.3002V17.4355H96.9468V29.8128Z" fill="white"/>
<path fill-rule="evenodd" clip-rule="evenodd" d="M103.908 26.135H106.615L105.244 18.9914L103.908 26.135ZM103.734 27.3197L103.266 29.8128H102.016L104.341 17.4355H106.302L108.627 29.8128H107.274L106.805 27.3197H103.734Z" fill="white"/>
<path fill-rule="evenodd" clip-rule="evenodd" d="M120.615 17.2988C121.552 17.2988 122.243 17.5818 122.688 18.1476C123.134 18.7133 123.357 19.4679 123.357 20.411V21.5249H122.073V20.3402C122.073 19.7743 121.96 19.3354 121.734 19.023C121.508 18.7108 121.147 18.5543 120.65 18.5543C120.164 18.5543 119.805 18.7108 119.574 19.023C119.342 19.3354 119.227 19.7743 119.227 20.3402V26.8824C119.227 27.4483 119.342 27.8874 119.574 28.1996C119.805 28.5121 120.164 28.6683 120.65 28.6683C121.147 28.6683 121.508 28.5121 121.734 28.1996C121.96 27.8874 122.073 27.4483 122.073 26.8824V25.2734H123.357V26.8116C123.357 27.755 123.134 28.5093 122.688 29.075C122.243 29.6408 121.552 29.9238 120.615 29.9238C119.689 29.9238 119.004 29.6408 118.559 29.075C118.113 28.5093 117.891 27.755 117.891 26.8116V20.411C117.891 19.9396 117.945 19.5122 118.055 19.129C118.165 18.746 118.333 18.4189 118.559 18.1476C118.784 17.8765 119.068 17.6675 119.409 17.52C119.75 17.3726 120.152 17.2988 120.615 17.2988Z" fill="white"/>
<path fill-rule="evenodd" clip-rule="evenodd" d="M128.853 26.135H131.56L130.189 18.9914L128.853 26.135ZM128.68 27.3197L128.211 29.8128H126.962L129.287 17.4355H131.248L133.573 29.8128H132.22L131.751 27.3197H128.68Z" fill="white"/>
<path fill-rule="evenodd" clip-rule="evenodd" d="M140.051 23.6949C140.56 23.6949 140.936 23.5682 141.179 23.3147C141.422 23.0615 141.544 22.634 141.544 22.0328V20.3885C141.544 19.8226 141.437 19.3983 141.222 19.1154C141.008 18.8325 140.653 18.6909 140.155 18.6909H138.854V23.6949H140.051ZM140.155 17.4355C141.115 17.4355 141.809 17.7039 142.238 18.2401C142.666 18.7766 142.88 19.5163 142.88 20.4591V21.9444C142.88 22.9345 142.651 23.6804 142.194 24.1812C141.737 24.6823 141.023 24.9326 140.051 24.9326H138.854V29.8128H137.5V17.4355H140.155Z" fill="white"/>
<path fill-rule="evenodd" clip-rule="evenodd" d="M146.705 29.8128H148.059V17.4355H146.705V29.8128Z" fill="white"/>
<path fill-rule="evenodd" clip-rule="evenodd" d="M154.013 29.8128V18.691H151.774V17.4355H157.605V18.691H155.366V29.8128H154.013Z" fill="white"/>
<path fill-rule="evenodd" clip-rule="evenodd" d="M162.203 26.135H164.91L163.539 18.9914L162.203 26.135ZM162.03 27.3197L161.561 29.8128H160.312L162.637 17.4355H164.598L166.923 29.8128H165.57L165.101 27.3197H162.03Z" fill="white"/>
<path fill-rule="evenodd" clip-rule="evenodd" d="M170.717 29.8128V17.4355H172.07V28.5575H175.541V29.8128H170.717Z" fill="white"/>
</g>
<path fill-rule="evenodd" clip-rule="evenodd" d="M33.3657 8.1368C32.3475 7.71504 31.1801 8.19856 30.7584 9.21677C30.3366 10.235 30.8202 11.4023 31.8383 11.8241C32.8566 12.2458 34.0239 11.7623 34.4456 10.7441C34.8674 9.72588 34.3839 8.55856 33.3657 8.1368Z" fill="white"/>
<path fill-rule="evenodd" clip-rule="evenodd" d="M35.1828 11.8952C34.4033 12.6747 34.4033 13.9385 35.1828 14.718C35.9623 15.4975 37.2261 15.4975 38.0056 14.718C38.7851 13.9385 38.7851 12.6747 38.0056 11.8952C37.2261 11.1157 35.9623 11.1157 35.1828 11.8952Z" fill="white"/>
<path fill-rule="evenodd" clip-rule="evenodd" d="M38.0772 18.7285C38.499 19.7467 39.6663 20.2302 40.6845 19.8084C41.7027 19.3867 42.1862 18.2194 41.7645 17.2011C41.3427 16.1829 40.1754 15.6994 39.1572 16.1212C38.139 16.5429 37.6555 17.7102 38.0772 18.7285Z" fill="white"/>
<path fill-rule="evenodd" clip-rule="evenodd" d="M40.5864 21.291C39.484 21.291 38.5903 22.1847 38.5903 23.2871C38.5903 24.3895 39.484 25.2831 40.5864 25.2831C41.6888 25.2831 42.5824 24.3895 42.5824 23.2871C42.5824 22.1847 41.6888 21.291 40.5864 21.291Z" fill="white"/>
<path fill-rule="evenodd" clip-rule="evenodd" d="M41.7645 30.039C42.1862 29.0208 41.7027 27.8535 40.6845 27.4317C39.6663 27.01 38.499 27.4935 38.0772 28.5117C37.6555 29.5299 38.139 30.6972 39.1572 31.119C40.1754 31.5407 41.3427 31.0572 41.7645 30.039Z" fill="white"/>
<path fill-rule="evenodd" clip-rule="evenodd" d="M35.1828 31.8542C34.4033 32.6337 34.4033 33.8975 35.1828 34.677C35.9623 35.4565 37.2261 35.4565 38.0056 34.677C38.7851 33.8975 38.7851 32.6337 38.0056 31.8542C37.2261 31.0747 35.9623 31.0747 35.1828 31.8542Z" fill="white"/>
<path fill-rule="evenodd" clip-rule="evenodd" d="M31.8383 34.7501C30.8201 35.1718 30.3366 36.3392 30.7584 37.3574C31.1801 38.3756 32.3475 38.8591 33.3657 38.4373C34.3839 38.0156 34.8674 36.8483 34.4456 35.8301C34.0239 34.8118 32.8566 34.3283 31.8383 34.7501Z" fill="white"/>
<path fill-rule="evenodd" clip-rule="evenodd" d="M26.6137 35.2637C25.5113 35.2637 24.6177 36.1573 24.6177 37.2597C24.6177 38.3621 25.5113 39.2558 26.6137 39.2558C27.7161 39.2558 28.6098 38.3621 28.6098 37.2597C28.6098 36.1573 27.7161 35.2637 26.6137 35.2637Z" fill="white"/>
<path fill-rule="evenodd" clip-rule="evenodd" d="M23.1351 37.3574C23.5568 36.3392 23.0733 35.1718 22.0551 34.7501C21.0369 34.3283 19.8696 34.8118 19.4478 35.8301C19.0261 36.8483 19.5096 38.0156 20.5278 38.4373C21.546 38.8591 22.7133 38.3756 23.1351 37.3574Z" fill="white"/>
<path fill-rule="evenodd" clip-rule="evenodd" d="M18.0452 34.677C18.8247 33.8975 18.8247 32.6337 18.0452 31.8542C17.2657 31.0747 16.0018 31.0747 15.2223 31.8542C14.4428 32.6337 14.4428 33.8975 15.2223 34.677C16.0018 35.4565 17.2657 35.4565 18.0452 34.677Z" fill="white"/>
<path fill-rule="evenodd" clip-rule="evenodd" d="M15.1507 28.5117C14.729 27.4935 13.5616 27.01 12.5434 27.4317C11.5252 27.8535 11.0417 29.0208 11.4635 30.039C11.8852 31.0572 13.0525 31.5407 14.0707 31.119C15.0889 30.6972 15.5725 29.5299 15.1507 28.5117Z" fill="white"/>
<path fill-rule="evenodd" clip-rule="evenodd" d="M10.6455 23.2871C10.6455 24.3895 11.5392 25.2831 12.6416 25.2831C13.7439 25.2831 14.6376 24.3895 14.6376 23.2871C14.6376 22.1847 13.7439 21.291 12.6416 21.291C11.5392 21.291 10.6455 22.1847 10.6455 23.2871Z" fill="white"/>
<path fill-rule="evenodd" clip-rule="evenodd" d="M11.4635 17.2011C11.0417 18.2193 11.5252 19.3867 12.5434 19.8084C13.5616 20.2302 14.729 19.7467 15.1507 18.7285C15.5725 17.7102 15.0889 16.5429 14.0707 16.1212C13.0525 15.6994 11.8852 16.1829 11.4635 17.2011Z" fill="white"/>
<path fill-rule="evenodd" clip-rule="evenodd" d="M18.0452 14.718C18.8247 13.9385 18.8247 12.6747 18.0452 11.8952C17.2657 11.1157 16.0018 11.1157 15.2223 11.8952C14.4428 12.6747 14.4428 13.9385 15.2223 14.718C16.0018 15.4975 17.2657 15.4975 18.0452 14.718Z" fill="white"/>
<path fill-rule="evenodd" clip-rule="evenodd" d="M22.0551 11.8241C23.0733 11.4023 23.5568 10.235 23.1351 9.21677C22.7133 8.19857 21.546 7.71504 20.5278 8.1368C19.5096 8.55856 19.0261 9.72587 19.4478 10.7441C19.8696 11.7623 21.0369 12.2458 22.0551 11.8241Z" fill="white"/>
<path fill-rule="evenodd" clip-rule="evenodd" d="M26.6137 7.31836C25.5113 7.31836 24.6177 8.21202 24.6177 9.3144C24.6177 10.4168 25.5113 11.3105 26.6137 11.3105C27.7161 11.3105 28.6098 10.4168 28.6098 9.3144C28.6098 8.21202 27.7161 7.31836 26.6137 7.31836Z" fill="white"/>
<path fill-rule="evenodd" clip-rule="evenodd" d="M41.3943 1.26987C41.5451 1.37474 41.7524 1.33746 41.8573 1.18662C41.9621 1.03577 41.9249 0.828475 41.774 0.723605C41.6232 0.618745 41.4159 0.656014 41.311 0.806853C41.2061 0.957703 41.2434 1.165 41.3943 1.26987Z" fill="white"/>
<path fill-rule="evenodd" clip-rule="evenodd" d="M49.0826 9.26105C49.2373 9.16182 49.2822 8.95605 49.1829 8.80144C49.0837 8.64684 48.8779 8.60195 48.7233 8.70117C48.5687 8.8004 48.5238 9.00618 48.623 9.16078C48.7223 9.31539 48.9281 9.36028 49.0826 9.26105Z" fill="white"/>
<path fill-rule="evenodd" clip-rule="evenodd" d="M53.2225 18.2387C53.19 18.0579 53.0171 17.9376 52.8363 17.9702C52.6555 18.0027 52.5353 18.1756 52.5678 18.3564C52.6003 18.5372 52.7732 18.6574 52.954 18.6249C53.1348 18.5924 53.2551 18.4195 53.2225 18.2387Z" fill="white"/>
<path fill-rule="evenodd" clip-rule="evenodd" d="M52.301 28.6171C52.1216 28.5779 51.9443 28.6917 51.9052 28.8712C51.866 29.0506 51.9798 29.2279 52.1592 29.267C52.3387 29.3062 52.5159 29.1924 52.5551 29.0129C52.5943 28.8335 52.4805 28.6562 52.301 28.6171Z" fill="white"/>
<path fill-rule="evenodd" clip-rule="evenodd" d="M48.4273 37.9853C48.2765 37.8805 48.0692 37.9177 47.9643 38.0686C47.8595 38.2194 47.8967 38.4267 48.0476 38.5316C48.1984 38.6365 48.4057 38.5992 48.5106 38.4483C48.6155 38.2975 48.5782 38.0902 48.4273 37.9853Z" fill="white"/>
<path fill-rule="evenodd" clip-rule="evenodd" d="M40.7389 45.2969C40.5843 45.3961 40.5394 45.6019 40.6387 45.7565C40.7379 45.9111 40.9437 45.956 41.0983 45.8568C41.2529 45.7575 41.2978 45.5518 41.1986 45.3971C41.0993 45.2425 40.8935 45.1977 40.7389 45.2969Z" fill="white"/>
<path fill-rule="evenodd" clip-rule="evenodd" d="M31.5448 49.2416C31.364 49.2741 31.2438 49.4471 31.2763 49.6279C31.3088 49.8087 31.4817 49.9289 31.6625 49.8964C31.8433 49.8639 31.9635 49.6909 31.931 49.5101C31.8985 49.3293 31.7256 49.2091 31.5448 49.2416Z" fill="white"/>
<path fill-rule="evenodd" clip-rule="evenodd" d="M20.3635 48.578C20.1841 48.5389 20.0068 48.6526 19.9677 48.8321C19.9285 49.0116 20.0423 49.1888 20.2217 49.228C20.4012 49.2671 20.5784 49.1534 20.6176 48.9739C20.6568 48.7944 20.543 48.6172 20.3635 48.578Z" fill="white"/>
<path fill-rule="evenodd" clip-rule="evenodd" d="M11.1681 44.6377C11.0172 44.5328 10.8099 44.5701 10.7051 44.7209C10.6002 44.8718 10.6375 45.0791 10.7883 45.1839C10.9391 45.2888 11.1464 45.2515 11.2513 45.1007C11.3562 44.9498 11.3189 44.7425 11.1681 44.6377Z" fill="white"/>
<path fill-rule="evenodd" clip-rule="evenodd" d="M4.14519 37.3125C3.99059 37.4117 3.9457 37.6175 4.04492 37.7721C4.14415 37.9267 4.34993 37.9716 4.50453 37.8724C4.65913 37.7731 4.70403 37.5674 4.6048 37.4128C4.50557 37.2582 4.2998 37.2133 4.14519 37.3125Z" fill="white"/>
<path fill-rule="evenodd" clip-rule="evenodd" d="M0.27381 27.9487C0.093008 27.9812 -0.0272029 28.1541 0.00530717 28.3349C0.0378172 28.5157 0.210732 28.6359 0.391534 28.6034C0.572335 28.5709 0.692546 28.398 0.660046 28.2172C0.627536 28.0364 0.454612 27.9162 0.27381 27.9487Z" fill="white"/>
<path fill-rule="evenodd" clip-rule="evenodd" d="M0.403567 16.6405C0.224103 16.6014 0.0468677 16.7151 0.00771112 16.8946C-0.0314356 17.0741 0.0823088 17.2513 0.261783 17.2904C0.441248 17.3296 0.618483 17.2159 0.657639 17.0364C0.696786 16.8569 0.583042 16.6797 0.403567 16.6405Z" fill="white"/>
<path fill-rule="evenodd" clip-rule="evenodd" d="M4.59799 7.84091C4.70286 7.69006 4.66558 7.48277 4.51474 7.3779C4.36389 7.27304 4.1566 7.31031 4.05174 7.46116C3.94687 7.612 3.98414 7.81929 4.13499 7.92416C4.28583 8.02903 4.49312 7.99175 4.59799 7.84091Z" fill="white"/>
<path fill-rule="evenodd" clip-rule="evenodd" d="M12.4884 1.27668C12.643 1.17745 12.6879 0.971676 12.5887 0.817065C12.4895 0.662464 12.2837 0.617576 12.1291 0.716795C11.9745 0.816024 11.9296 1.0218 12.0288 1.17641C12.128 1.33101 12.3338 1.3759 12.4884 1.27668Z" fill="white"/>
<path fill-rule="evenodd" clip-rule="evenodd" d="M35.0089 2.61193C35.3483 2.75251 35.7375 2.59133 35.878 2.25193C36.0186 1.91254 35.8574 1.52342 35.5181 1.38284C35.1786 1.24225 34.7895 1.40343 34.649 1.74283C34.5084 2.08224 34.6695 2.47134 35.0089 2.61193Z" fill="white"/>
<path fill-rule="evenodd" clip-rule="evenodd" d="M42.1119 6.84722C41.852 7.10705 41.852 7.52833 42.1119 7.78816C42.3717 8.04801 42.793 8.04801 43.0528 7.78816C43.3126 7.52833 43.3126 7.10705 43.0528 6.84722C42.793 6.58739 42.3717 6.58739 42.1119 6.84722Z" fill="white"/>
<path fill-rule="evenodd" clip-rule="evenodd" d="M47.4941 15.2525C47.8335 15.112 47.9947 14.7229 47.8541 14.3834C47.7135 14.044 47.3244 13.8829 46.985 14.0235C46.6456 14.1641 46.4844 14.5532 46.625 14.8926C46.7656 15.232 47.1547 15.3931 47.4941 15.2525Z" fill="white"/>
<path fill-rule="evenodd" clip-rule="evenodd" d="M49.2357 21.957C48.8682 21.957 48.5703 22.2549 48.5703 22.6224C48.5703 22.9898 48.8682 23.2877 49.2357 23.2877C49.6031 23.2877 49.901 22.9898 49.901 22.6224C49.901 22.2549 49.6031 21.957 49.2357 21.957Z" fill="white"/>
<path fill-rule="evenodd" clip-rule="evenodd" d="M47.8541 32.1894C47.9947 31.85 47.8335 31.4609 47.4941 31.3203C47.1547 31.1798 46.7656 31.3409 46.625 31.6803C46.4844 32.0197 46.6456 32.4088 46.985 32.5494C47.3244 32.69 47.7135 32.5288 47.8541 32.1894Z" fill="white"/>
<path fill-rule="evenodd" clip-rule="evenodd" d="M42.1119 38.7847C41.852 39.0445 41.852 39.4658 42.1119 39.7257C42.3717 39.9855 42.793 39.9855 43.0528 39.7257C43.3126 39.4658 43.3126 39.0445 43.0528 38.7847C42.793 38.5249 42.3717 38.5249 42.1119 38.7847Z" fill="white"/>
<path fill-rule="evenodd" clip-rule="evenodd" d="M35.0089 43.2989C34.6695 43.4394 34.5084 43.8285 34.649 44.168C34.7895 44.5074 35.1786 44.6685 35.5181 44.5279C35.8574 44.3874 36.0186 43.9982 35.878 43.6588C35.7375 43.3194 35.3483 43.1583 35.0089 43.2989Z" fill="white"/>
<path fill-rule="evenodd" clip-rule="evenodd" d="M25.9481 45.2441C25.5806 45.2441 25.2827 45.542 25.2827 45.9095C25.2827 46.2769 25.5806 46.5748 25.9481 46.5748C26.3155 46.5748 26.6134 46.2769 26.6134 45.9095C26.6134 45.542 26.3155 45.2441 25.9481 45.2441Z" fill="white"/>
<path fill-rule="evenodd" clip-rule="evenodd" d="M18.2192 43.2989C17.8798 43.1583 17.4907 43.3194 17.3501 43.6588C17.2095 43.9982 17.3707 44.3874 17.7101 44.5279C18.0495 44.6685 18.4386 44.5074 18.5792 44.168C18.7198 43.8285 18.5586 43.4394 18.2192 43.2989Z" fill="white"/>
<path fill-rule="evenodd" clip-rule="evenodd" d="M11.1158 38.7847C10.856 38.5249 10.4347 38.5249 10.1749 38.7847C9.91502 39.0445 9.91502 39.4658 10.1749 39.7257C10.4347 39.9855 10.856 39.9855 11.1158 39.7257C11.3756 39.4658 11.3756 39.0445 11.1158 38.7847Z" fill="white"/>
<path fill-rule="evenodd" clip-rule="evenodd" d="M5.06802 31.3203C4.72861 31.4609 4.56745 31.85 4.70804 32.1894C4.84862 32.5288 5.23772 32.69 5.57712 32.5494C5.91653 32.4088 6.07771 32.0197 5.93712 31.6803C5.79653 31.3409 5.40743 31.1798 5.06802 31.3203Z" fill="white"/>
<path fill-rule="evenodd" clip-rule="evenodd" d="M3.99201 21.957C3.62455 21.957 3.32666 22.2549 3.32666 22.6224C3.32666 22.9898 3.62455 23.2877 3.99201 23.2877C4.35947 23.2877 4.65736 22.9898 4.65736 22.6224C4.65736 22.2549 4.35947 21.957 3.99201 21.957Z" fill="white"/>
<path fill-rule="evenodd" clip-rule="evenodd" d="M5.57713 14.0235C5.23773 13.8829 4.84862 14.044 4.70803 14.3834C4.56745 14.7229 4.72862 15.112 5.06803 15.2525C5.40743 15.3931 5.79653 15.232 5.93711 14.8926C6.07771 14.5532 5.91654 14.1641 5.57713 14.0235Z" fill="white"/>
<path fill-rule="evenodd" clip-rule="evenodd" d="M11.1158 7.78817C11.3756 7.52833 11.3756 7.10705 11.1158 6.84722C10.856 6.58739 10.4347 6.58739 10.1749 6.84722C9.91502 7.10705 9.91502 7.52833 10.1749 7.78817C10.4347 8.048 10.856 8.048 11.1158 7.78817Z" fill="white"/>
<path fill-rule="evenodd" clip-rule="evenodd" d="M17.7101 1.38284C17.3707 1.52342 17.2095 1.91253 17.3501 2.25193C17.4907 2.59133 17.8798 2.75251 18.2192 2.61193C18.5586 2.47134 18.7198 2.08222 18.5792 1.74283C18.4386 1.40343 18.0495 1.24225 17.7101 1.38284Z" fill="white"/>
<path fill-rule="evenodd" clip-rule="evenodd" d="M25.9481 1.3307C26.3155 1.3307 26.6134 1.03282 26.6134 0.665344C26.6134 0.297882 26.3155 0 25.9481 0C25.5806 0 25.2827 0.297882 25.2827 0.665344C25.2827 1.03282 25.5806 1.3307 25.9481 1.3307Z" fill="white"/>
<path fill-rule="evenodd" clip-rule="evenodd" d="M31.254 5.17224C31.3546 4.63039 30.9968 4.10964 30.455 4.00911C29.9131 3.90858 29.3924 4.26634 29.2918 4.80819C29.1913 5.35004 29.549 5.87079 30.0909 5.97132C30.6327 6.07185 31.1535 5.71409 31.254 5.17224Z" fill="white"/>
<path fill-rule="evenodd" clip-rule="evenodd" d="M36.3831 8.48719C36.8452 8.78744 37.4633 8.65619 37.7636 8.19403C38.0638 7.73186 37.9325 7.1138 37.4704 6.81355C37.0082 6.5133 36.3902 6.64455 36.0899 7.10671C35.7897 7.56886 35.9209 8.18693 36.3831 8.48719Z" fill="white"/>
<path fill-rule="evenodd" clip-rule="evenodd" d="M42.8146 13.1311C43.2688 12.819 43.3841 12.1978 43.072 11.7435C42.7599 11.2892 42.1387 11.174 41.6844 11.486C41.2301 11.7981 41.1149 12.4194 41.427 12.8736C41.739 13.3279 42.3603 13.4432 42.8146 13.1311Z" fill="white"/>
<path fill-rule="evenodd" clip-rule="evenodd" d="M45.1184 19.9389C45.6574 19.8245 46.0016 19.2946 45.8872 18.7556C45.7727 18.2165 45.2429 17.8723 44.7038 17.9868C44.1648 18.1013 43.8206 18.6311 43.9351 19.1701C44.0495 19.7092 44.5793 20.0534 45.1184 19.9389Z" fill="white"/>
<path fill-rule="evenodd" clip-rule="evenodd" d="M45.0931 25.9661C44.5513 25.8656 44.0305 26.2234 43.93 26.7652C43.8295 27.3071 44.1872 27.8278 44.7291 27.9284C45.2709 28.0289 45.7917 27.6711 45.8922 27.1293C45.9927 26.5874 45.635 26.0667 45.0931 25.9661Z" fill="white"/>
<path fill-rule="evenodd" clip-rule="evenodd" d="M43.0863 34.1432C43.3866 33.6811 43.2553 33.063 42.7932 32.7628C42.331 32.4625 41.7129 32.5938 41.4127 33.0559C41.1124 33.5181 41.2437 34.1362 41.7058 34.4364C42.168 34.7367 42.7861 34.6054 43.0863 34.1432Z" fill="white"/>
<path fill-rule="evenodd" clip-rule="evenodd" d="M37.0267 38.1013C36.5724 38.4134 36.4572 39.0346 36.7693 39.4889C37.0813 39.9432 37.7026 40.0584 38.1569 39.7463C38.6111 39.4342 38.7264 38.813 38.4143 38.3587C38.1022 37.9045 37.481 37.7892 37.0267 38.1013Z" fill="white"/>
<path fill-rule="evenodd" clip-rule="evenodd" d="M31.9145 41.3767C31.8 40.8376 31.2702 40.4934 30.7312 40.6079C30.1921 40.7224 29.8479 41.2522 29.9624 41.7912C30.0769 42.3303 30.6067 42.6745 31.1457 42.56C31.6848 42.4455 32.029 41.9158 31.9145 41.3767Z" fill="white"/>
<path fill-rule="evenodd" clip-rule="evenodd" d="M23.1361 40.6029C22.5943 40.5023 22.0735 40.8601 21.973 41.4019C21.8724 41.9438 22.2302 42.4645 22.7721 42.5651C23.3139 42.6656 23.8347 42.3078 23.9352 41.766C24.0357 41.2241 23.678 40.7034 23.1361 40.6029Z" fill="white"/>
<path fill-rule="evenodd" clip-rule="evenodd" d="M16.8449 38.087C16.3827 37.7867 15.7647 37.918 15.4644 38.3801C15.1642 38.8423 15.2954 39.4604 15.7576 39.7606C16.2198 40.0609 16.8378 39.9296 17.1381 39.4675C17.4383 39.0053 17.3071 38.3872 16.8449 38.087Z" fill="white"/>
<path fill-rule="evenodd" clip-rule="evenodd" d="M10.4129 33.4431C9.95865 33.7552 9.84339 34.3764 10.1555 34.8307C10.4676 35.285 11.0888 35.4002 11.5431 35.0881C11.9974 34.776 12.1126 34.1548 11.8005 33.7005C11.4885 33.2463 10.8672 33.131 10.4129 33.4431Z" fill="white"/>
<path fill-rule="evenodd" clip-rule="evenodd" d="M8.1096 26.6353C7.57054 26.7497 7.22634 27.2795 7.34082 27.8186C7.45529 28.3577 7.98508 28.7018 8.52414 28.5874C9.06322 28.4729 9.40741 27.9431 9.29292 27.404C9.17845 26.865 8.64866 26.5208 8.1096 26.6353Z" fill="white"/>
<path fill-rule="evenodd" clip-rule="evenodd" d="M8.13485 20.608C8.67669 20.7086 9.19744 20.3508 9.29798 19.809C9.3985 19.2671 9.04075 18.7464 8.4989 18.6458C7.95705 18.5453 7.43629 18.9031 7.33577 19.4449C7.23523 19.9867 7.593 20.5075 8.13485 20.608Z" fill="white"/>
<path fill-rule="evenodd" clip-rule="evenodd" d="M10.1412 12.429C9.84094 12.8911 9.97219 13.5092 10.4344 13.8095C10.8965 14.1097 11.5146 13.9785 11.8148 13.5163C12.1151 13.0541 11.9838 12.4361 11.5217 12.1358C11.0595 11.8356 10.4414 11.9668 10.1412 12.429Z" fill="white"/>
<path fill-rule="evenodd" clip-rule="evenodd" d="M16.2008 8.47289C16.6551 8.16081 16.7703 7.53956 16.4582 7.08528C16.1462 6.63102 15.5249 6.51576 15.0706 6.82784C14.6164 7.13992 14.5011 7.76117 14.8132 8.21544C15.1253 8.66972 15.7465 8.78499 16.2008 8.47289Z" fill="white"/>
<path fill-rule="evenodd" clip-rule="evenodd" d="M21.3125 5.19749C21.427 5.73655 21.9568 6.08074 22.4958 5.96627C23.0349 5.8518 23.3791 5.32199 23.2646 4.78294C23.1501 4.24388 22.6203 3.89968 22.0813 4.01416C21.5422 4.12864 21.198 4.65843 21.3125 5.19749Z" fill="white"/>
</svg>
