<svg width="107" height="48" viewBox="0 0 107 48" fill="none" xmlns="http://www.w3.org/2000/svg">
<path d="M96.2627 43.472L99.4616 42.8013C99.6164 44.0911 100.545 44.5555 101.474 44.5555C102.557 44.5555 103.073 43.9363 103.073 43.2656C103.073 42.8013 102.815 42.3885 102.093 42.1821L99.7196 41.5114C97.8105 40.9954 96.5723 39.9119 96.5723 37.9513C96.5723 35.6295 98.3265 33.9785 101.164 33.9785C103.847 33.9785 105.705 35.4748 106.117 37.6418L103.073 38.2609C102.97 37.2806 102.351 36.4551 101.164 36.4551C100.287 36.4551 99.7711 36.9194 99.7711 37.5902C99.7711 38.2609 100.236 38.6221 101.061 38.8284L103.28 39.4992C105.189 40.0667 106.169 41.2534 106.169 43.0592C106.169 45.6906 104.157 47.1868 101.267 47.1868C98.894 47.1352 96.5207 46.2065 96.2627 43.472Z" fill="white"/>
<path d="M3.49463 3.79492V8.64485H12.7301V11.6374H3.49463V19.6346H0.244141V0.699219H13.2461V3.74332H3.49463V3.79492ZM16.7545 1.06038C17.838 1.06038 18.6636 1.98909 18.6636 3.02099C18.6636 4.10449 17.838 4.93001 16.7545 4.93001C15.6195 4.93001 14.8455 4.10449 14.8455 3.02099C14.8455 1.98909 15.6195 1.06038 16.7545 1.06038ZM18.354 19.6346H15.1551V7.20019H18.354V19.6346ZM33.7293 9.93472H31.3559C31.6139 10.5539 31.7687 11.2246 31.7687 11.9985C31.7687 14.8878 29.4985 17.1064 26.4544 17.1064C25.3193 17.1064 24.2874 16.7969 23.4619 16.2809C23.1523 16.4873 22.9975 16.7453 22.9975 17.0548C22.9975 17.7256 23.5651 18.1383 24.4422 18.1383H28.415C31.3043 18.1383 33.2133 19.8926 33.2133 22.5239C33.2133 25.4132 30.9432 27.3738 27.1767 27.3738H25.2161C21.6045 27.3738 19.7471 25.4132 19.7471 22.8335C19.7471 21.492 20.263 20.4085 21.1401 19.6346C20.8305 19.325 20.5726 18.9638 20.4178 18.5511C20.263 18.1383 20.1598 17.674 20.1598 17.2612C20.1598 15.9197 20.8305 14.991 21.7593 14.3719C21.3981 13.6496 21.1917 12.824 21.1917 12.0501C21.1917 9.10921 23.4619 6.94221 26.506 6.94221C27.2283 6.94221 27.9507 7.0454 28.5698 7.30337H33.7809V9.93472H33.7293ZM26.4544 14.3203C27.8475 14.3203 28.931 13.2884 28.931 11.9985C28.931 10.6571 27.8475 9.62515 26.4544 9.62515C25.0613 9.62515 24.0294 10.6571 24.0294 11.9985C23.9778 13.2884 25.0613 14.3203 26.4544 14.3203ZM28.3634 20.8213H24.9066C23.6683 20.8213 22.8428 21.492 22.8428 22.6271C22.8428 23.7106 23.5651 24.6909 25.3709 24.6909H27.1251C28.9826 24.6909 30.0145 23.7622 30.0145 22.5239C30.0145 21.492 29.3953 20.8213 28.3634 20.8213ZM50.2397 6.83902C52.7679 6.83902 54.9348 8.85123 54.9348 11.8953V19.6862H51.7876V12.5661C51.7876 10.915 50.7557 9.88312 49.4142 9.88312C47.7116 9.88312 46.6281 11.0698 46.6281 13.7012V19.6862H43.4292V12.5661C43.4292 10.915 42.3973 9.88312 41.0558 9.88312C39.3532 9.88312 38.3213 11.0698 38.3213 13.7012V19.6862H35.1224V7.25178H38.3213V8.28368C39.1468 7.40657 40.3335 6.89062 41.9329 6.89062C43.5324 6.89062 45.0286 7.61295 45.9057 8.95442C46.8344 7.61295 48.2791 6.83902 50.2397 6.83902ZM68.298 13.1852V14.3203H59.1656C59.4752 16.1261 60.7135 17.2096 62.1581 17.2096C63.0869 17.2096 64.2735 17.1064 65.1507 15.5586L67.9884 16.1777C66.9049 18.7575 64.7895 19.9957 62.1581 19.9957C58.7529 19.9957 56.0183 17.3128 56.0183 13.4432C56.0183 9.52196 58.8045 6.83902 62.2097 6.83902C65.4086 6.83902 68.1948 9.41877 68.298 13.1852ZM62.2097 9.72834C61.0231 9.72834 59.63 10.5023 59.2688 11.9985H65.0475C64.6347 10.3991 63.4996 9.72834 62.2097 9.72834ZM76.6563 6.83902C79.5457 6.83902 81.4547 9.00601 81.4547 12.0501V19.6346H78.2558V12.7724C78.2558 11.0182 77.2755 9.88312 75.8308 9.88312C74.025 9.88312 72.8383 11.1214 72.8383 14.1655V19.6862H69.6394V7.25178H72.8383V8.38687C73.8186 7.35497 75.0569 6.83902 76.6563 6.83902ZM88.1104 9.93472V15.0942C88.1104 16.3325 88.678 17.0032 89.6067 17.0032C90.1742 17.0032 90.9998 16.7453 91.6189 16.3841L92.5476 19.1186C91.3093 19.841 90.4322 20.0473 89.4003 20.0473C86.511 20.0473 84.9116 18.3447 84.9116 15.3522V9.93472H82.3318V7.25178H84.9116V2.71142L88.1104 1.73112V7.25178H92.754V9.93472H88.1104ZM17.3221 27.8382V46.7736H15.0519L3.49463 33.978V46.7736H0.244141V27.8382H2.51432L14.0716 40.8917V27.8898H17.3221V27.8382ZM31.0464 40.3242V41.4593H21.914C22.2236 43.2651 23.4619 44.3486 24.9066 44.3486C25.8353 44.3486 27.0219 44.2454 27.8991 42.6976L30.7368 43.3167C29.6533 45.8965 27.5379 47.1347 24.9066 47.1347C21.5013 47.1347 18.7668 44.4518 18.7668 40.5822C18.7668 36.6609 21.5529 33.978 24.9582 33.978C28.157 33.978 30.9432 36.5577 31.0464 40.3242ZM24.9582 36.8673C23.7715 36.8673 22.3784 37.6412 22.0172 39.1375H27.7959C27.3831 37.5381 26.248 36.8673 24.9582 36.8673ZM37.0314 37.0221V42.1816C37.0314 43.4199 37.5989 44.0906 38.5276 44.0906C39.0952 44.0906 39.9207 43.8326 40.5398 43.4715L41.4685 46.206C40.2303 46.9283 39.3532 47.1347 38.3213 47.1347C35.4319 47.1347 33.8325 45.4321 33.8325 42.4396V37.0221H31.2527V34.3392H33.8325V29.8504L37.0314 28.8701V34.3908H41.6749V37.0737H37.0314V37.0221ZM61.9002 34.3392L57.463 46.7736H54.8317L52.2519 39.4471L49.6206 46.7736H46.9892L42.552 34.3392H45.9573L48.4855 41.7688L51.0652 34.3392H53.5418L56.1215 41.8204L58.6497 34.3392H61.9002ZM67.8336 33.978C71.3937 33.978 74.3862 36.6609 74.3862 40.5822C74.3862 44.5034 71.3937 47.1347 67.8336 47.1347C64.222 47.1347 61.2294 44.4518 61.2294 40.5822C61.2294 36.6609 64.222 33.978 67.8336 33.978ZM67.8336 44.297C69.6394 44.297 71.2905 42.9039 71.2905 40.5822C71.2905 38.2604 69.6394 36.8673 67.8336 36.8673C65.9762 36.8673 64.3251 38.2604 64.3251 40.5822C64.3251 42.9039 65.9762 44.297 67.8336 44.297ZM82.7446 34.1844C83.0541 34.1844 83.3121 34.1844 83.5701 34.2876L83.4153 37.4349H82.693C79.7521 37.4349 78.4106 39.2923 78.4106 42.7491V46.7736H75.2117V34.3392H78.4106V36.5062C79.3393 35.0615 80.7324 34.1844 82.7446 34.1844ZM92.5992 46.7736L87.8009 42.0784V46.7736H84.602V26.8579H87.8009V39.2407L92.496 34.3392H96.5204L90.7418 40.5306L96.9848 46.7736H92.5992Z" fill="white"/>
</svg>
