<svg width="86" height="30" viewBox="0 0 86 30" fill="none" xmlns="http://www.w3.org/2000/svg">
<path d="M58.8472 0.29843V10.2146C58.8472 10.3253 58.9372 10.4151 59.0482 10.4151H84.9342C85.0993 10.4151 85.2332 10.2816 85.2332 10.1169V0.29843C85.2332 0.133765 85.0993 0.000277427 84.9342 0.000277427H59.1591C59.0775 -0.0032292 58.9981 0.0266283 58.9392 0.0829273C58.8804 0.139226 58.8471 0.217077 58.8472 0.29843ZM82.5397 7.92959H61.5407C61.4306 7.9296 61.341 7.8414 61.3396 7.73168V2.68365C61.3396 2.63071 61.3609 2.57998 61.3987 2.54279C61.4364 2.5056 61.4876 2.48505 61.5407 2.48574H82.5397C82.5928 2.48505 82.6439 2.5056 82.6817 2.54279C82.7195 2.57998 82.7407 2.63071 82.7407 2.68365V7.73168C82.7393 7.8414 82.6497 7.9296 82.5397 7.92959Z" fill="white"/>
<path d="M61.1417 16.2188H59.0451C58.9358 16.2188 58.8472 16.3074 58.8472 16.4167V18.5063C58.8472 18.6156 58.9358 18.7042 59.0451 18.7042H61.1417C61.251 18.7042 61.3396 18.6156 61.3396 18.5063V16.4167C61.3396 16.3074 61.251 16.2188 61.1417 16.2188Z" fill="white"/>
<path fill-rule="evenodd" clip-rule="evenodd" d="M29.2471 0.298153V2.28498C29.2471 2.3957 29.3371 2.48546 29.4481 2.48546H53.0968C53.2064 2.48546 53.2953 2.57407 53.2953 2.68337V7.7314C53.2939 7.84013 53.2059 7.92793 53.0968 7.92932H29.4481C29.3381 7.92931 29.2485 8.01751 29.2471 8.12723V10.2169C29.2471 10.3262 29.3359 10.4148 29.4455 10.4148H55.4913C55.6565 10.4148 55.7903 10.2813 55.7903 10.1166V0.298153C55.7903 0.133487 55.6565 0 55.4913 0H29.5461C29.3809 0 29.2471 0.133487 29.2471 0.298153Z" fill="white"/>
<path d="M6.93404e-10 0.496064V10.2143C-9.04273e-06 10.324 0.0884418 10.4134 0.198469 10.4148H25.886C26.0184 10.4148 26.1453 10.3622 26.2387 10.2686C26.332 10.175 26.3841 10.0482 26.3835 9.91614V0.496064C26.3835 0.222095 26.1607 0 25.886 0H0.497461C0.223307 0.0014056 0.00140956 0.22268 6.93404e-10 0.496064ZM23.6925 7.92932H2.69093C2.58132 7.92932 2.49246 7.84071 2.49246 7.7314V2.68337C2.49176 2.63067 2.51244 2.57993 2.54982 2.54266C2.58719 2.50539 2.63808 2.48476 2.69093 2.48546H23.6925C23.7454 2.48476 23.7963 2.50539 23.8336 2.54266C23.871 2.57993 23.8917 2.63067 23.891 2.68337V7.7314C23.891 7.84071 23.8021 7.92932 23.6925 7.92932Z" fill="white"/>
<path d="M2.29455 16.2188H0.197912C0.088608 16.2188 0 16.3074 0 16.4167V18.5063C0 18.6156 0.088608 18.7042 0.197912 18.7042H2.29455C2.40385 18.7042 2.49246 18.6156 2.49246 18.5063V16.4167C2.49246 16.3074 2.40385 16.2188 2.29455 16.2188Z" fill="white"/>
<path fill-rule="evenodd" clip-rule="evenodd" d="M55.7906 16.5189V18.4029C55.7892 18.5665 55.6558 18.6985 55.4916 18.6985H29.4587C29.3501 18.6985 29.2617 18.6114 29.2603 18.5031V16.4186C29.2617 16.3089 29.3513 16.2207 29.4613 16.2207H55.4942C55.6583 16.2221 55.7906 16.3552 55.7906 16.5189Z" fill="white"/>
<path fill-rule="evenodd" clip-rule="evenodd" d="M1.58008 28.2162L2.37653 25.3555H3.06731L1.88423 29.1749H1.28882L0.100586 25.3555H0.788783L1.58008 28.2162Z" fill="white"/>
<path d="M12.4547 28.2882H11.2588L11.001 29.1749H10.3438L11.599 25.3555H12.1557L13.3749 29.1749H12.7125L12.4547 28.2882ZM11.4237 27.751H12.3027L11.8568 26.2525L11.4237 27.751Z" fill="white"/>
<path fill-rule="evenodd" clip-rule="evenodd" d="M21.525 28.6609H23.3499V29.1749H20.8936V25.3555H21.525V28.6609Z" fill="white"/>
<path fill-rule="evenodd" clip-rule="evenodd" d="M31.1544 25.3555H33.4304V25.8695H32.603V28.648H33.4304V29.1621H31.1544V28.648H31.9612V25.8772H31.1519L31.1544 25.3555Z" fill="white"/>
<path d="M41.2739 29.1749V25.3555L42.2096 25.3555C42.452 25.3541 42.6925 25.3986 42.9184 25.4866C43.121 25.5664 43.3033 25.6902 43.4519 25.849C43.6025 26.0092 43.7175 26.1993 43.7896 26.4067C43.8724 26.6367 43.9134 26.8795 43.9107 27.1239V27.4117C43.9134 27.656 43.8724 27.8989 43.7896 28.1288C43.7173 28.3349 43.6033 28.5239 43.4545 28.684C43.3062 28.8408 43.126 28.9644 42.9261 29.0464C42.7039 29.1343 42.4666 29.1779 42.2276 29.1749H41.2739ZM41.9157 25.8644V28.6686H42.2276C42.3848 28.6701 42.5404 28.6376 42.6838 28.5735C42.8112 28.515 42.9226 28.4269 43.0086 28.3165C43.1002 28.2005 43.1661 28.0665 43.2019 27.9232C43.2479 27.7558 43.2704 27.5828 43.2689 27.4092V27.1161C43.2716 26.9425 43.249 26.7693 43.2019 26.6021C43.1647 26.4581 43.098 26.3233 43.006 26.2063C42.9181 26.0956 42.805 26.0075 42.6761 25.9492C42.5296 25.8834 42.3702 25.8509 42.2096 25.8541L41.9157 25.8644Z" fill="white"/>
<path d="M53.3983 28.2882H52.1998L51.942 29.1749H51.2925L52.5374 25.3555H53.0967L54.3185 29.1749H53.669L53.3983 28.2882ZM52.3673 27.751H53.2462L52.8132 26.2525L52.3673 27.751Z" fill="white"/>
<path fill-rule="evenodd" clip-rule="evenodd" d="M64.487 25.8754H63.3117V29.1756H62.6828V25.8754H61.5151V25.3613H64.487V25.8754Z" fill="white"/>
<path d="M74.6065 27.5017C74.6073 27.7204 74.5787 27.9383 74.5215 28.1494C74.4688 28.3465 74.3816 28.5328 74.2637 28.6995C74.151 28.8558 74.0037 28.9842 73.8333 29.0747C73.6467 29.1725 73.4382 29.2212 73.2276 29.2161C73.0185 29.2215 72.8116 29.1728 72.627 29.0747C72.4585 28.9813 72.3131 28.8513 72.2017 28.6943C72.0837 28.5296 71.9964 28.345 71.944 28.1494C71.8869 27.9383 71.8582 27.7204 71.8589 27.5017V27.0134C71.8586 26.8651 71.8716 26.7172 71.8976 26.5713C71.9213 26.4332 71.9593 26.298 72.011 26.1677C72.0582 26.0433 72.1206 25.925 72.1965 25.8156C72.2675 25.7103 72.3545 25.6167 72.4543 25.538C72.5581 25.4601 72.6739 25.3993 72.7971 25.3581C72.9324 25.3124 73.0744 25.2898 73.2172 25.2913C73.4282 25.287 73.6367 25.3365 73.823 25.4352C73.9943 25.5266 74.1424 25.6558 74.256 25.813C74.3738 25.9797 74.4611 26.166 74.5137 26.3631C74.571 26.5751 74.5996 26.7938 74.5988 27.0134L74.6065 27.5017ZM73.975 27.0185C73.9728 26.8746 73.959 26.731 73.9338 26.5893C73.9137 26.4574 73.8719 26.3297 73.8101 26.2114C73.7545 26.1093 73.6759 26.0214 73.5807 25.9544C73.4754 25.8828 73.3498 25.8467 73.2224 25.8516C73.0958 25.8467 72.9711 25.8828 72.8667 25.9544C72.7716 26.0258 72.6954 26.1193 72.645 26.2269C72.5858 26.3456 72.5466 26.4732 72.5291 26.6047C72.5067 26.7459 72.4946 26.8885 72.493 27.0314V27.5017C72.4946 27.6438 72.5067 27.7855 72.5291 27.9258C72.5485 28.058 72.5885 28.1863 72.6476 28.3062C72.6979 28.4145 72.774 28.5089 72.8693 28.5812C72.9732 28.6541 73.0981 28.6911 73.225 28.6866C73.3526 28.6907 73.4783 28.6538 73.5833 28.5812C73.6807 28.5103 73.7594 28.4168 73.8127 28.3088C73.8741 28.1894 73.9159 28.061 73.9364 27.9284C73.9595 27.7873 73.9724 27.6447 73.975 27.5017V27.0185Z" fill="white"/>
<path d="M83.5296 27.6841H82.8878V29.1749H82.2563V25.3555H83.4678C83.6508 25.3554 83.8329 25.3805 84.0091 25.43C84.1652 25.4735 84.3114 25.5468 84.4395 25.6459C84.5612 25.7408 84.6584 25.8633 84.723 26.0032C84.7925 26.1655 84.8259 26.3408 84.821 26.5172C84.8233 26.6366 84.8058 26.7556 84.7694 26.8694C84.738 26.9723 84.6901 27.0695 84.6277 27.1572C84.5646 27.2424 84.49 27.3186 84.406 27.3834C84.318 27.4487 84.2229 27.5039 84.1225 27.5479L84.9318 29.1518V29.1852H84.2591L83.5296 27.6841ZM82.8878 27.1701H83.4704C83.5683 27.1708 83.6657 27.1561 83.759 27.1264C83.8423 27.0987 83.9193 27.055 83.9859 26.9979C84.0503 26.9432 84.1014 26.8747 84.1354 26.7974C84.1719 26.7104 84.1895 26.6167 84.1869 26.5224C84.1892 26.4258 84.1726 26.3298 84.1379 26.2396C84.107 26.1599 84.0575 26.0885 83.9936 26.0315C83.9283 25.9732 83.8508 25.9302 83.7668 25.9055C83.6704 25.8736 83.5693 25.8579 83.4678 25.8592H82.8878V27.1701Z" fill="white"/>
</svg>
