<svg xmlns="http://www.w3.org/2000/svg" xmlns:xlink="http://www.w3.org/1999/xlink" viewBox="0 0 127 44" id="logo">
    <!-- Generator: Sketch 52.2 (67145) - http://www.bohemiancoding.com/sketch -->
    <title>Ресурс 1 Copy</title>
    <desc>Created with Sketch.</desc>
    <g id="logo_land" stroke="none" stroke-width="1" fill="none" fill-rule="evenodd">
        <g id="logo_Ресурс-1-Copy" fill="currentColor">
            <path d="M87.5993051,0.826434783 L87.5993051,15.5874783 C87.5993051,15.7522992 87.7332951,15.885913 87.8985801,15.885913 L126.432145,15.885913 C126.677953,15.885913 126.877221,15.6872053 126.877221,15.442087 L126.877221,0.826434783 C126.877221,0.581316403 126.677953,0.382608696 126.432145,0.382608696 L88.063565,0.382608696 C87.9422361,0.37738878 87.8240371,0.4218342 87.7363727,0.505640206 C87.6487082,0.589446212 87.5991923,0.705334002 87.5993051,0.826434783 Z M122.867704,12.186087 L91.6088218,12.186087 C91.4450236,12.1861004 91.3116468,12.0548031 91.3095468,11.8914783 L91.3095468,4.37704348 C91.3095402,4.29824094 91.3411927,4.22272035 91.3974307,4.16735919 C91.4536687,4.11199803 91.529804,4.08141137 91.6088218,4.08243478 L122.867704,4.08243478 C122.946722,4.08141137 123.022857,4.11199803 123.079095,4.16735919 C123.135333,4.22272035 123.166986,4.29824094 123.166979,4.37704348 L123.166979,11.8914783 C123.164879,12.0548031 123.031502,12.1861004 122.867704,12.186087 Z" id="logo_Shape" fill-rule="nonzero"></path>
            <rect id="logo_Path" x="87.5993051" y="24.5252174" width="3.71024169" height="3.69982609" rx="0.294608696"></rect>
            <path d="M43.5368278,0.826434783 L43.5368278,3.784 C43.5368278,3.94882098 43.6708177,4.08243478 43.8361027,4.08243478 L79.0392749,4.08243478 C79.2024409,4.08243478 79.334713,4.21433559 79.334713,4.37704348 L79.334713,11.8914783 C79.3326452,12.0533244 79.2015766,12.184025 79.0392749,12.186087 L43.8361027,12.186087 C43.6723046,12.1860735 43.5389278,12.3173708 43.5368278,12.4806957 L43.5368278,15.5913043 C43.5368278,15.7540122 43.6690999,15.885913 43.8322659,15.885913 L82.603716,15.885913 C82.8495244,15.885913 83.0487915,15.6872053 83.0487915,15.442087 L83.0487915,0.826434783 C83.0487915,0.581316403 82.8495244,0.382608696 82.603716,0.382608696 L43.9819033,0.382608696 C43.7360949,0.382608696 43.5368278,0.581316403 43.5368278,0.826434783 Z" id="logo_Path"></path>
            <path d="M0,1.12104348 L0,15.5874783 C-1.34619294e-05,15.7508165 0.131653417,15.883819 0.295438066,15.885913 L38.533565,15.885913 C38.730628,15.8859157 38.9195643,15.8075915 39.0585484,15.6682795 C39.1975324,15.5289675 39.2750996,15.3401593 39.2740785,15.1436522 L39.2740785,1.12104348 C39.2740785,0.713217209 38.9425393,0.382608696 38.533565,0.382608696 L0.740513595,0.382608696 C0.332411514,0.384701058 0.00209825274,0.714087045 0,1.12104348 Z M35.2683988,12.186087 L4.00567976,12.186087 C3.84251382,12.186087 3.71024169,12.0541862 3.71024169,11.8914783 L3.71024169,4.37704348 C3.70919957,4.29859443 3.73999123,4.22305425 3.79562413,4.16757753 C3.85125702,4.11210081 3.92700986,4.08139559 4.00567976,4.08243478 L35.2683988,4.08243478 C35.3470687,4.08139559 35.4228215,4.11210081 35.4784544,4.16757753 C35.5340873,4.22305425 35.564879,4.29859443 35.5638369,4.37704348 L35.5638369,11.8914783 C35.5638369,12.0541862 35.4315647,12.186087 35.2683988,12.186087 Z" id="logo_Shape" fill-rule="nonzero"></path>
            <rect id="logo_Path-2" x="0" y="24.5252174" width="3.71024169" height="3.69982609" rx="0.294608696"></rect>
            <path d="M83.0487915,24.9728696 L83.0487915,27.7773913 C83.0466854,28.0210142 82.8480338,28.2174004 82.603716,28.2173913 L43.8514502,28.2173913 C43.6897709,28.2174049 43.5581118,28.0878204 43.5560121,27.9266087 L43.5560121,24.8236522 C43.5581121,24.6603273 43.6914889,24.5290301 43.855287,24.5290435 L82.6075529,24.5290435 C82.8518616,24.5311438 83.0488006,24.7292376 83.0487915,24.9728696 Z" id="logo_Path-3"></path>
            <polygon id="logo_Path" points="2.35199396 42.3853913 3.53758308 38.1269565 4.56586103 38.1269565 2.8047432 43.8125217 1.918429 43.8125217 0.149637462 38.1269565 1.17407855 38.1269565"></polygon>
            <path d="M18.5396979,42.4925217 L16.7593958,42.4925217 L16.37571,43.8125217 L15.3973112,43.8125217 L17.265861,38.1269565 L18.0946224,38.1269565 L19.9094562,43.8125217 L18.9233837,43.8125217 L18.5396979,42.4925217 Z M17.0049547,41.6928696 L18.3133233,41.6928696 L17.6495468,39.4622609 L17.0049547,41.6928696 Z" id="logo_Shape" fill-rule="nonzero"></path>
            <polygon id="logo_Path" points="32.0416012 43.0473043 34.7580967 43.0473043 34.7580967 43.8125217 31.101571 43.8125217 31.101571 38.1269565 32.0416012 38.1269565"></polygon>
            <polygon id="logo_Path" points="46.3761027 38.1269565 49.7640483 38.1269565 49.7640483 38.8921739 48.5324169 38.8921739 48.5324169 43.0281739 49.7640483 43.0281739 49.7640483 43.7933913 46.3761027 43.7933913 46.3761027 43.0281739 47.5770393 43.0281739 47.5770393 38.9036522 46.3722659 38.9036522"></polygon>
            <path d="M61.4396073,43.8125217 L61.4396073,38.12691 L62.8323867,38.1269565 C63.1933065,38.124899 63.5513437,38.1911123 63.8875227,38.322087 C64.1891614,38.4408567 64.4604766,38.6251469 64.6817523,38.8615652 C64.9058368,39.1001017 65.0770884,39.3829817 65.1843807,39.6918261 C65.3076137,40.0341423 65.3686793,40.3956204 65.364713,40.7593043 L65.364713,41.1878261 C65.3686793,41.55151 65.3076137,41.9129881 65.1843807,42.2553043 C65.0768282,42.5620326 64.907032,42.8433636 64.6855891,43.0817391 C64.4647641,43.315186 64.1966378,43.4990869 63.8990332,43.6212174 C63.568265,43.7519957 63.2150353,43.8169842 62.8592447,43.8125217 L61.4396073,43.8125217 Z M62.3949849,38.8845217 L62.3949849,43.0587826 L62.8592447,43.0587826 C63.0932058,43.0609599 63.3248731,43.0126682 63.5383686,42.9172174 C63.7279662,42.8302067 63.8937821,42.6989761 64.0218127,42.5346087 C64.1581788,42.3619731 64.25626,42.1624491 64.309577,41.9492174 C64.3779809,41.6999374 64.4115505,41.4424347 64.4093353,41.184 L64.4093353,40.7478261 C64.4132991,40.489289 64.3796976,40.2315419 64.309577,39.9826087 C64.2542151,39.7682329 64.1549296,39.567614 64.0179758,39.3933913 C63.8871397,39.2286955 63.7187675,39.097524 63.526858,39.0107826 C63.3087732,38.9127805 63.0715445,38.8644224 62.8323867,38.8692174 L62.3949849,38.8845217 Z" id="logo_Shape" fill-rule="nonzero"></path>
            <path d="M79.4881873,42.4925217 L77.7040483,42.4925217 L77.3203625,43.8125217 L76.3534743,43.8125217 L78.2066767,38.1269565 L79.0392749,38.1269565 L80.8579456,43.8125217 L79.8910574,43.8125217 L79.4881873,42.4925217 Z M77.9534441,41.6928696 L79.2618127,41.6928696 L78.6172205,39.4622609 L77.9534441,41.6928696 Z" id="logo_Shape" fill-rule="nonzero"></path>
            <polygon id="logo_Path" points="95.9943505 38.8998261 94.2447432 38.8998261 94.2447432 43.8125217 93.3085498 43.8125217 93.3085498 38.8998261 91.5704532 38.8998261 91.5704532 38.1346087 95.9943505 38.1346087"></polygon>
            <path d="M111.057855,41.3217391 C111.059054,41.6473291 111.016469,41.9716094 110.931239,42.285913 C110.852903,42.5793182 110.722995,42.8565403 110.547553,43.1046957 C110.379699,43.3373856 110.160474,43.5285053 109.906798,43.6633043 C109.629122,43.8088833 109.318758,43.881318 109.005136,43.8737391 C108.69392,43.8817208 108.385933,43.809224 108.111148,43.6633043 C107.860295,43.5241582 107.643953,43.3306504 107.478066,43.0970435 C107.302446,42.8517874 107.172483,42.5770388 107.094381,42.285913 C107.009376,41.9715645 106.966796,41.6473145 106.967764,41.3217391 L106.967764,40.5947826 C106.967375,40.3741539 106.986635,40.1539266 107.025317,39.9366957 C107.060664,39.7311933 107.117239,39.5298895 107.194139,39.336 C107.264517,39.1507282 107.357286,38.9747046 107.470393,38.8118261 C107.576079,38.6551212 107.705514,38.5157229 107.854079,38.3986087 C108.008635,38.2825583 108.180948,38.1921219 108.364381,38.1307826 C108.565762,38.0628108 108.777194,38.0291802 108.989789,38.0313043 C109.303745,38.0249024 109.614129,38.0986586 109.89145,38.2455652 C110.146535,38.3815425 110.367028,38.5739324 110.536042,38.808 C110.711485,39.0561554 110.841393,39.3333775 110.919728,39.6267826 C111.004981,39.9423854 111.047563,40.2679325 111.046344,40.5947826 L111.057855,41.3217391 Z M110.117825,40.6024348 C110.114501,40.3881565 110.093972,40.1744879 110.056435,39.9634783 C110.026538,39.7671623 109.96431,39.5771233 109.872266,39.4010435 C109.789459,39.2490183 109.672603,39.1180882 109.530785,39.0184348 C109.374024,38.911804 109.187082,38.8581588 108.997462,38.8653913 C108.809039,38.8581678 108.623318,38.9118487 108.467976,39.0184348 C108.32634,39.1246379 108.213031,39.2639059 108.138006,39.424 C108.049822,39.6007319 107.991486,39.7907625 107.965347,39.9864348 C107.932068,40.1965716 107.914116,40.4088385 107.911631,40.6215652 L107.911631,41.3217391 C107.914112,41.5331968 107.932065,41.744192 107.965347,41.9530435 C107.994307,42.1497975 108.053854,42.3408457 108.141843,42.5193043 C108.21674,42.6805396 108.330015,42.8210801 108.471813,42.9286957 C108.626442,43.0371421 108.812374,43.0922279 109.001299,43.0855652 C109.191345,43.0916767 109.378325,43.0366793 109.534622,42.9286957 C109.679712,42.8230847 109.796899,42.6839051 109.876103,42.5231304 C109.96759,42.3454644 110.029776,42.1542611 110.060272,41.9568696 C110.094651,41.7468029 110.113885,41.5345487 110.117825,41.3217391 L110.117825,40.6024348 Z" id="logo_Shape" fill-rule="nonzero"></path>
            <path d="M124.341057,41.5933913 L123.38568,41.5933913 L123.38568,43.8125217 L122.44565,43.8125217 L122.44565,38.1269561 L124.248973,38.1269565 C124.521392,38.1268183 124.792527,38.1641557 125.054713,38.237913 C125.287142,38.3026866 125.504752,38.4118358 125.695468,38.5593043 C125.876646,38.700505 126.021352,38.8828471 126.117523,39.0911304 C126.220893,39.3327334 126.270631,39.5937752 126.263323,39.8563478 C126.266718,40.034085 126.240793,40.21117 126.186586,40.3805217 C126.139762,40.5337303 126.068508,40.6784223 125.975559,40.8090435 C125.881622,40.935875 125.770585,41.0491753 125.645589,41.1457391 C125.514583,41.2429248 125.373004,41.3250671 125.223535,41.3906087 L126.428308,43.778087 L126.428308,43.8278261 L125.426888,43.8278261 L124.341057,41.5933913 Z M123.38568,40.8281739 L124.25281,40.8281739 C124.398597,40.8292436 124.543635,40.8072907 124.682538,40.7631304 C124.806485,40.7218525 124.921172,40.6568722 125.020181,40.5718261 C125.116134,40.4904996 125.19224,40.3884374 125.242719,40.2733913 C125.297091,40.1438889 125.323248,40.0043437 125.319456,39.864 C125.322914,39.7203117 125.298149,39.5773366 125.246556,39.4431304 C125.200449,39.3243729 125.126823,39.2181767 125.031692,39.1332174 C124.934492,39.0465114 124.819154,38.9824698 124.694048,38.9457391 C124.550584,38.8981724 124.400146,38.8748941 124.248973,38.8768696 L123.38568,38.8768696 L123.38568,40.8281739 Z" id="logo_Shape" fill-rule="nonzero"></path>
        </g>
    </g>
</svg>