<svg width="141" height="31" viewBox="0 0 141 31" fill="none" xmlns="http://www.w3.org/2000/svg">
<path d="M35.2532 30.727C43.7048 30.727 50.5561 23.8757 50.5561 15.4241C50.5561 6.97247 43.7048 0.121094 35.2532 0.121094C26.8016 0.121094 19.9502 6.97247 19.9502 15.4241C19.9502 23.8757 26.8016 30.727 35.2532 30.727Z" fill="#82D318"/>
<path fill-rule="evenodd" clip-rule="evenodd" d="M37.3186 15.1497L36.6057 14.0861C35.3492 12.3139 33.862 10.717 32.1834 9.33777C29.3546 6.91076 25.8316 5.43887 22.117 5.13201C17.3901 4.91846 12.7632 6.53808 9.20146 9.65306C8.12434 10.5507 7.12995 11.5432 6.23026 12.6186C6.21698 12.6322 6.20081 12.6426 6.18295 12.6491C6.16509 12.6556 6.146 12.658 6.12709 12.6561C6.10817 12.6542 6.08993 12.6481 6.0737 12.6382C6.05748 12.6283 6.04369 12.6149 6.03336 12.5989C5.01166 10.8044 4.21066 8.89284 3.64779 6.90599L3.64209 6.87623C3.56158 6.67048 3.43918 6.4837 3.28268 6.32774C3.12618 6.17178 2.93897 6.05004 2.73294 5.97025C2.56033 5.89877 2.37458 5.86448 2.18783 5.86961C2.00107 5.87474 1.81749 5.91917 1.64905 6C1.33083 6.17243 1.07657 6.44272 0.92389 6.77087C0.771214 7.09903 0.728236 7.46762 0.801315 7.8221L0.807013 7.84173C1.53226 10.4425 2.62483 12.9266 4.05172 15.2188C4.08895 15.2778 4.1087 15.3462 4.1087 15.416C4.1087 15.4858 4.08895 15.5541 4.05172 15.6132C2.62568 17.9136 1.53123 20.4037 0.800682 23.0098L0.794351 23.0396V23.0687C0.793463 23.3901 0.885029 23.7049 1.05813 23.9757C1.23123 24.2464 1.47855 24.4617 1.77061 24.5958C1.94926 24.6737 2.14117 24.7167 2.33598 24.7224C2.59059 24.7167 2.84 24.6492 3.06285 24.526C3.2857 24.4027 3.47533 24.2272 3.6155 24.0146L3.63449 23.9848L3.64589 23.9551C4.21058 21.9616 5.01368 20.0436 6.03779 18.2425C6.0419 18.236 6.04679 18.2301 6.05235 18.2248C6.06416 18.2125 6.07832 18.2028 6.09399 18.1961C6.10965 18.1895 6.1265 18.186 6.14352 18.186C6.16054 18.186 6.17739 18.1895 6.19305 18.1961C6.20871 18.2028 6.22288 18.2125 6.23469 18.2248C7.13582 19.3034 8.13167 20.2993 9.21032 21.2004C12.503 24.0539 16.6897 25.6664 21.0457 25.7588C21.4009 25.7588 21.7637 25.7493 22.122 25.7196C25.8378 25.4173 29.3621 23.9449 32.1885 21.5138C33.869 20.1368 35.3563 18.5397 36.6102 16.7655L37.318 15.7018C37.3723 15.62 37.4013 15.5241 37.4014 15.4259C37.4015 15.3277 37.3727 15.2317 37.3186 15.1497ZM33.5959 15.7012C31.8308 17.9171 27.746 22.1235 21.9397 22.5173C16.8115 22.8718 11.7624 20.2026 8.10934 15.6524C8.05742 15.5883 8.0291 15.5083 8.0291 15.4258C8.0291 15.3433 8.05742 15.2633 8.10934 15.1991C11.7624 10.6489 16.8121 7.98165 21.934 8.32416C27.7472 8.72809 31.8333 12.9459 33.5959 15.1618C33.6553 15.2392 33.6874 15.334 33.6874 15.4315C33.6874 15.529 33.6553 15.6238 33.5959 15.7012Z" fill="white"/>
<path fill-rule="evenodd" clip-rule="evenodd" d="M28.0259 13.8506C28.4363 13.8986 28.8118 14.1048 29.0727 14.4253C29.3336 14.7458 29.4592 15.1553 29.423 15.567C29.3867 15.9786 29.1914 16.3599 28.8786 16.6299C28.5657 16.8998 28.1599 17.0372 27.7474 17.0128C27.3349 16.9883 26.9481 16.804 26.6693 16.499C26.3905 16.194 26.2416 15.7923 26.2542 15.3793C26.2668 14.9662 26.4399 14.5744 26.7368 14.2869C27.0337 13.9995 27.4309 13.8391 27.8441 13.8398C27.9049 13.84 27.9655 13.8435 28.0259 13.8506Z" fill="white"/>
<path d="M119.007 9.18351C119.45 9.18351 119.821 9.05689 120.102 8.80365C120.242 8.67671 120.353 8.52065 120.427 8.34636C120.502 8.17207 120.537 7.98372 120.53 7.79446C120.53 7.38104 120.386 7.04423 120.101 6.79351C119.815 6.5428 119.452 6.42188 119.007 6.42188C118.549 6.42188 118.178 6.5485 117.904 6.79415C117.63 7.03979 117.484 7.38104 117.484 7.79446C117.484 8.20789 117.624 8.54597 117.902 8.80238C118.179 9.05879 118.548 9.18351 119.007 9.18351Z" fill="white"/>
<path d="M119.121 10.8032H113.758V10.4936C113.758 9.93518 113.885 9.50846 114.125 9.22419C114.365 8.93993 114.763 8.77595 115.307 8.72847L115.723 8.69111C115.985 8.67698 116.233 8.57041 116.423 8.39039C116.598 8.21565 116.687 7.97 116.687 7.65977C116.687 7.21659 116.491 6.68415 115.56 6.68415C115.462 6.68155 115.363 6.68812 115.266 6.70377L114.831 6.74113C113.67 6.84496 112.756 7.25585 112.114 7.96303C111.472 8.67022 111.152 9.61926 111.146 10.8032H110.323C109.346 10.8032 109.14 11.354 109.14 11.8162C109.14 12.2783 109.346 12.8291 110.323 12.8291H111.146V19.147C111.146 19.549 111.273 19.8611 111.531 20.0738C111.794 20.2862 112.124 20.3972 112.461 20.3866C112.831 20.3866 113.141 20.2809 113.384 20.07C113.627 19.8592 113.758 19.5452 113.758 19.1438V12.8291H117.692V19.147C117.692 19.5484 117.819 19.863 118.075 20.0821C118.336 20.3007 118.667 20.4158 119.007 20.4056C119.345 20.4169 119.675 20.301 119.931 20.0808C120.178 19.8618 120.304 19.5477 120.304 19.147V11.8162C120.304 11.354 120.099 10.8032 119.121 10.8032Z" fill="white"/>
<path d="M129.684 16.1167C129.465 15.7571 129.101 15.4551 128.602 15.2189C128.117 14.9891 127.44 14.7827 126.59 14.6048C125.813 14.4446 125.286 14.2851 125.022 14.1287C124.912 14.0706 124.82 13.9825 124.757 13.8745C124.695 13.7666 124.664 13.6431 124.668 13.5184C124.664 13.3857 124.695 13.2543 124.757 13.1369C124.818 13.0194 124.909 12.9199 125.021 12.8479C125.268 12.6751 125.617 12.5871 126.054 12.5871C126.373 12.5789 126.691 12.6243 126.995 12.7213C127.312 12.84 127.621 12.9792 127.92 13.1379C128.086 13.2336 128.257 13.3206 128.433 13.3987C128.576 13.4611 128.731 13.4934 128.888 13.4937C129.005 13.494 129.121 13.4669 129.227 13.4148C129.332 13.3626 129.424 13.2866 129.495 13.193C129.655 12.9909 129.739 12.7386 129.731 12.4807C129.731 12.0217 129.508 11.6488 129.07 11.3747C128.65 11.1082 128.192 10.9085 127.712 10.7827C127.202 10.6467 126.677 10.5786 126.149 10.5801C125.405 10.5801 124.73 10.7067 124.144 10.96C123.558 11.2132 123.081 11.5766 122.742 12.0407C122.403 12.4961 122.222 13.0492 122.226 13.6165C122.226 14.3819 122.485 14.9923 122.997 15.431C123.496 15.8584 124.326 16.1908 125.461 16.4212C125.931 16.518 126.396 16.6397 126.854 16.7859C127.141 16.8859 127.341 16.9923 127.446 17.1024C127.497 17.1601 127.536 17.2272 127.561 17.3C127.586 17.3728 127.597 17.4498 127.592 17.5266C127.592 17.797 127.465 18.0027 127.212 18.1559C126.937 18.3199 126.542 18.4028 126.038 18.4028C125.534 18.4028 125.119 18.3535 124.799 18.2572C124.429 18.1413 124.067 17.9991 123.717 17.8318C123.316 17.6184 123.007 17.5152 122.767 17.5152C122.652 17.514 122.538 17.5384 122.434 17.5866C122.329 17.6348 122.237 17.7055 122.163 17.7938C121.999 17.9879 121.914 18.2363 121.924 18.4902C121.924 18.9758 122.147 19.355 122.588 19.6172C123.448 20.1686 124.588 20.4484 125.979 20.4484C127.182 20.4484 128.166 20.1794 128.895 19.6494C129.638 19.1107 130.015 18.3832 130.015 17.4886C130.015 16.9359 129.903 16.475 129.684 16.1167Z" fill="white"/>
<path d="M137.12 10.5776C136.484 10.5669 135.854 10.7039 135.279 10.9777C134.863 11.1808 134.496 11.471 134.203 11.8286V7.81151C134.203 7.4481 134.08 7.15624 133.839 6.94351C133.598 6.73078 133.289 6.62695 132.906 6.62695C132.524 6.62695 132.205 6.73965 131.962 6.96187C131.84 7.07394 131.743 7.21123 131.679 7.36425C131.615 7.51728 131.585 7.6824 131.591 7.84823V19.148C131.591 19.5342 131.708 19.8444 131.941 20.0692C132.173 20.294 132.49 20.4067 132.887 20.4067C133.284 20.4067 133.604 20.2933 133.842 20.0705C134.079 19.8476 134.203 19.5349 134.203 19.148V14.9366C134.203 14.2553 134.398 13.7058 134.782 13.3038C135.166 12.9017 135.684 12.6998 136.326 12.6998C136.864 12.6998 137.262 12.8416 137.507 13.1202C137.752 13.3987 137.882 13.8691 137.882 14.5016V19.1499C137.882 19.5368 138.003 19.8463 138.243 20.0724C138.482 20.2984 138.801 20.4086 139.197 20.4086C139.594 20.4086 139.913 20.2946 140.147 20.0711C140.381 19.8476 140.497 19.5361 140.497 19.1499V14.4997C140.495 11.8976 139.359 10.5776 137.12 10.5776Z" fill="white"/>
<path d="M62.4275 16.1167C62.2078 15.7571 61.8431 15.4551 61.3442 15.2189C60.8593 14.9891 60.1825 14.7827 59.3322 14.6048C58.5566 14.4446 58.0293 14.2851 57.7646 14.1287C57.6543 14.0705 57.5625 13.9824 57.4999 13.8744C57.4373 13.7665 57.4064 13.6431 57.4107 13.5184C57.4068 13.3857 57.4373 13.2543 57.499 13.1369C57.5608 13.0194 57.6519 12.9199 57.7634 12.8479C58.0115 12.6751 58.3591 12.5871 58.7972 12.5871C59.1159 12.5789 59.4337 12.6243 59.7374 12.7213C60.0547 12.8399 60.3639 12.979 60.663 13.1379C60.8292 13.2336 61.0001 13.3206 61.1752 13.3987C61.3191 13.4612 61.4742 13.4935 61.631 13.4937C61.7486 13.494 61.8646 13.4669 61.97 13.4148C62.0754 13.3626 62.1672 13.2866 62.2382 13.193C62.3981 12.9906 62.4814 12.7384 62.4737 12.4807C62.4737 12.0217 62.2509 11.6488 61.8121 11.3747C61.3929 11.1081 60.9347 10.9084 60.4541 10.7827C59.9444 10.6467 59.4191 10.5786 58.8916 10.5801C58.147 10.5801 57.4721 10.7067 56.8865 10.96C56.3299 11.1867 55.8452 11.5602 55.4842 12.0407C55.1459 12.4961 54.965 13.0492 54.9688 13.6165C54.9688 14.3819 55.2284 14.9923 55.7399 15.431C56.2382 15.8584 57.0695 16.1908 58.2034 16.4212C58.6738 16.518 59.1387 16.6397 59.5962 16.7859C59.8837 16.8859 60.0831 16.9923 60.1888 17.1024C60.2913 17.2191 60.3434 17.3716 60.3338 17.5266C60.3338 17.797 60.2072 18.0027 59.9539 18.1559C59.6792 18.3199 59.2847 18.4028 58.7808 18.4028C58.2768 18.4028 57.8609 18.3535 57.5411 18.2572C57.1708 18.1413 56.8093 17.9991 56.4591 17.8318C56.0584 17.6184 55.7488 17.5152 55.5095 17.5152C55.3945 17.514 55.2806 17.5384 55.1762 17.5866C55.0717 17.6348 54.9793 17.7055 54.9055 17.7938C54.7419 17.9881 54.6568 18.2364 54.6668 18.4902C54.6668 18.9758 54.8897 19.355 55.3303 19.6172C56.1901 20.1686 57.3309 20.4484 58.7213 20.4484C59.9242 20.4484 60.908 20.1794 61.638 19.6494C62.3806 19.1107 62.7574 18.3832 62.7574 17.4886C62.7574 16.9359 62.6466 16.475 62.4275 16.1167Z" fill="white"/>
<path d="M69.508 18.3988L68.9977 18.3614C68.2114 18.3038 67.829 17.855 67.829 16.9939V12.8299H69.3099C69.6777 12.8299 69.9689 12.7438 70.1734 12.5767C70.3779 12.4096 70.49 12.1468 70.49 11.817C70.49 11.4871 70.383 11.2351 70.1734 11.0572C69.9639 10.8793 69.6777 10.804 69.3099 10.804H67.829V9.19081C67.829 8.81664 67.7075 8.51274 67.4682 8.28735C67.2288 8.06197 66.9161 7.95117 66.5324 7.95117C66.1361 7.95117 65.8145 8.06387 65.5777 8.28735C65.3409 8.51084 65.2168 8.816 65.2168 9.19081V10.804H64.3975C64.0291 10.804 63.7385 10.8894 63.5334 11.0572C63.3282 11.225 63.2168 11.4877 63.2168 11.817C63.2168 12.1462 63.3244 12.3994 63.5334 12.5767C63.7423 12.754 64.0284 12.8299 64.3975 12.8299H65.2174V16.8236C65.2174 19.0072 66.3247 20.193 68.5096 20.3494L69.0218 20.3874C69.0851 20.3874 69.1484 20.3925 69.206 20.3925C69.5979 20.3925 69.9132 20.3178 70.1449 20.169C70.2803 20.0865 70.3911 19.9693 70.466 19.8296C70.5409 19.69 70.5772 19.5328 70.571 19.3744C70.5685 18.9585 70.3843 18.452 69.508 18.3988Z" fill="white"/>
<path d="M78.8809 11.5676C78.2358 10.9098 77.243 10.5762 75.9293 10.5762C75.3127 10.5782 74.6981 10.6489 74.0971 10.787C73.5367 10.9062 72.995 11.1011 72.4871 11.3663C72.2187 11.5138 72.023 11.6759 71.9053 11.8494C71.7823 12.0351 71.7189 12.254 71.7236 12.4768C71.7128 12.7411 71.8014 12.9999 71.9718 13.2023C72.0523 13.2955 72.1525 13.3696 72.2652 13.4193C72.3778 13.469 72.5001 13.4931 72.6232 13.4898C72.7961 13.4898 73.0487 13.4056 73.383 13.2365C73.8945 13.0371 74.3415 12.8826 74.7125 12.7775C75.0639 12.6762 75.4275 12.6238 75.7932 12.6218C76.3466 12.6218 76.748 12.7515 76.9866 13.0067C77.2253 13.2618 77.3494 13.6911 77.3494 14.2729V14.5825H77.0025C75.6267 14.5825 74.5333 14.6724 73.7438 14.8503C72.9411 15.0314 72.351 15.3308 71.987 15.7367C71.6229 16.1425 71.4361 16.7174 71.4361 17.4258C71.4313 17.9737 71.5898 18.5106 71.8914 18.9681C72.2001 19.4331 72.6277 19.8069 73.1297 20.0507C73.6704 20.3153 74.2657 20.4493 74.8676 20.442C75.4506 20.4529 76.0253 20.3026 76.5283 20.0077C76.856 19.8129 77.1369 19.5485 77.3513 19.2334C77.3553 19.5401 77.4805 19.8328 77.6995 20.0475C77.818 20.1602 77.9578 20.248 78.1106 20.306C78.2635 20.3639 78.4263 20.3908 78.5897 20.385C78.974 20.385 79.2861 20.2748 79.5077 20.057C79.7293 19.8392 79.8483 19.5373 79.8483 19.1637V14.5553C79.8521 13.2302 79.5254 12.2248 78.8809 11.5676ZM77.3532 16.0786V16.3502C77.3532 16.9833 77.1633 17.5031 76.7923 17.8988C76.4213 18.2945 75.9433 18.492 75.3437 18.492C74.9882 18.5037 74.6422 18.3765 74.3788 18.1374C74.2529 18.0249 74.1532 17.886 74.0869 17.7307C74.0206 17.5753 73.9893 17.4072 73.9952 17.2384C73.9952 16.944 74.0807 16.7205 74.2579 16.5547C74.4352 16.3888 74.7543 16.2615 75.1937 16.19C75.6514 16.1159 76.3054 16.0786 77.1386 16.0786H77.3532Z" fill="white"/>
<path d="M90.4281 18.2408L87.243 15.3849L90.1122 12.7194C90.3743 12.4567 90.5073 12.1598 90.5073 11.8375C90.5024 11.52 90.3741 11.2169 90.1495 10.9924C89.925 10.7678 89.6219 10.6395 89.3044 10.6346C89.1429 10.6354 88.9833 10.669 88.8353 10.7334C88.6872 10.7978 88.5539 10.8918 88.4433 11.0094L84.6117 14.6815V7.86727C84.6117 7.46461 84.4851 7.15249 84.2268 6.93976C83.9638 6.72785 83.6337 6.61713 83.2961 6.62764C82.927 6.62764 82.6168 6.73274 82.3743 6.94419C82.1318 7.15565 81.9995 7.46841 81.9995 7.87044V19.1468C81.9995 19.5488 82.1261 19.8603 82.3737 20.0731C82.6212 20.2858 82.927 20.3896 83.2961 20.3896C83.6338 20.4001 83.964 20.2891 84.2268 20.0769C84.4801 19.8641 84.6117 19.552 84.6117 19.15V16.1978L88.8213 20.0116C89.0834 20.2605 89.3734 20.3864 89.6823 20.3864C89.8382 20.3859 89.9921 20.3516 90.1335 20.2861C90.2749 20.2205 90.4004 20.1252 90.5016 20.0066C90.7232 19.7755 90.8469 19.4676 90.8466 19.1474C90.8479 18.81 90.7073 18.5061 90.4281 18.2408Z" fill="white"/>
<path d="M99.6226 17.51C99.4244 17.51 99.1332 17.6132 98.74 17.8234C98.4022 17.9784 98.0565 18.1153 97.7042 18.2337C97.371 18.3356 97.0238 18.3845 96.6754 18.3787C95.9195 18.3787 95.3389 18.1843 94.9496 17.8006C94.5792 17.4359 94.3487 16.8636 94.2626 16.0975H99.6985C100.083 16.0975 100.541 15.9348 100.541 15.1599C100.541 14.2368 100.365 13.4233 100.018 12.7414C99.6873 12.0764 99.1723 11.5207 98.5342 11.1409C97.9011 10.7661 97.1477 10.5762 96.2975 10.5762C95.4111 10.5762 94.6039 10.7851 93.9005 11.1979C93.1955 11.6118 92.6242 12.2194 92.2544 12.9484C91.8695 13.6936 91.6738 14.5585 91.6738 15.5189C91.6738 17.0327 92.1252 18.2451 93.0148 19.1219C93.9043 19.9988 95.1243 20.4432 96.6374 20.4432C97.1725 20.4384 97.7046 20.3637 98.2202 20.221C98.7376 20.0873 99.2363 19.8898 99.7049 19.6329C100.211 19.3461 100.465 18.9788 100.465 18.542C100.465 18.2368 100.389 17.9874 100.239 17.8019C100.166 17.7086 100.072 17.6337 99.9651 17.583C99.8582 17.5323 99.7409 17.5073 99.6226 17.51ZM98.2658 14.5812H94.2671C94.3525 13.9241 94.5672 13.4106 94.9071 13.0548C95.2648 12.6787 95.7523 12.4888 96.3563 12.4888C96.9603 12.4888 97.4054 12.6699 97.7365 13.0421C98.0455 13.3923 98.2234 13.9095 98.2658 14.5812Z" fill="white"/>
<path fill-rule="evenodd" clip-rule="evenodd" d="M105.411 13.8506C105.822 13.8986 106.197 14.1048 106.458 14.4252C106.719 14.7457 106.844 15.1552 106.808 15.5668C106.772 15.9784 106.577 16.3597 106.264 16.6297C105.951 16.8997 105.545 17.0371 105.133 17.0128C104.72 16.9884 104.334 16.8042 104.055 16.4993C103.776 16.1944 103.627 15.7928 103.639 15.3798C103.652 14.9667 103.825 14.5748 104.122 14.2873C104.418 13.9998 104.816 13.8393 105.229 13.8398C105.29 13.8399 105.351 13.8435 105.411 13.8506Z" fill="white"/>
</svg>
