<svg width="683" height="401" viewBox="0 0 683 401" fill="none" xmlns="http://www.w3.org/2000/svg">
<g clip-path="url(#clip0_1995_785)">
<rect width="682" height="401" transform="translate(0.5)" fill="#1C1C21"/>
<line x1="639.5" y1="329.5" x2="49.5" y2="329.5" stroke="#333339" stroke-opacity="0.44"/>
<line x1="639.5" y1="272.5" x2="49.5" y2="272.5" stroke="#333339" stroke-opacity="0.44"/>
<line x1="639.5" y1="215.5" x2="49.5" y2="215.5" stroke="#333339" stroke-opacity="0.44"/>
<line x1="639.5" y1="158.5" x2="49.5" y2="158.5" stroke="#333339" stroke-opacity="0.44"/>
<line x1="639.5" y1="101.5" x2="49.5" y2="101.5" stroke="#333339" stroke-opacity="0.44"/>
<line x1="639.5" y1="44.5" x2="49.5" y2="44.5" stroke="#333339" stroke-opacity="0.44"/>
<path d="M536.723 244C535.83 244 467.614 306.805 452.699 320.547C450.762 322.331 448.747 323.914 446.545 325.359C437.903 331.031 413.196 346.995 383.662 363.854C380.57 365.62 377.302 367.084 373.846 367.94C344.964 375.097 305.552 370.816 290 376L683 376.422V244L536.723 244Z" fill="url(#paint0_linear_1995_785)"/>
<path d="M279.427 375.003C278.876 375.043 278.462 375.522 278.503 376.073C278.543 376.624 279.022 377.038 279.573 376.997L279.427 375.003ZM388 361.77L388.535 362.615L388 361.77ZM364.008 369.817L363.935 368.82L364.008 369.817ZM453.395 319.516L452.723 318.775L453.395 319.516ZM446.408 324.828L445.874 323.983L446.408 324.828ZM454.066 320.257L537.394 244.741L536.051 243.259L452.723 318.775L454.066 320.257ZM388.535 362.615L446.943 325.673L445.874 323.983L387.466 360.924L388.535 362.615ZM279.573 376.997L364.081 370.814L363.935 368.82L279.427 375.003L279.573 376.997ZM388.082 362.901L388.535 362.615L387.466 360.924L387.013 361.21L388.082 362.901ZM364.081 370.814C372.611 370.19 380.854 367.472 388.082 362.901L387.013 361.21C380.063 365.606 372.137 368.22 363.935 368.82L364.081 370.814ZM452.723 318.775C450.594 320.705 448.302 322.447 445.874 323.983L446.943 325.673C449.469 324.076 451.852 322.264 454.066 320.257L452.723 318.775Z" fill="#7B7B7B"/>
<path d="M46.7068 364.422L0.668945 376.272H682.5V130.461H551.821C542.659 130.461 533.665 132.929 525.786 137.607L455.21 179.506C448.274 183.623 440.461 186.037 432.411 186.549L343.576 192.197C330.876 193.005 318.937 198.531 310.103 207.69L253.916 265.948C245.489 274.685 234.222 280.13 222.141 281.304L148.588 288.453C136.723 289.606 125.637 294.88 117.256 303.357L70.2597 350.889C63.7765 357.446 55.6368 362.123 46.7068 364.422Z" fill="url(#paint1_linear_1995_785)"/>
<path d="M1.93018 375L46.7322 363.427C55.6461 361.125 63.7705 356.452 70.2435 349.905L117.256 302.357C125.637 293.88 136.723 288.606 148.588 287.453L222.141 280.304C234.222 279.13 245.489 273.685 253.916 264.948L310.103 206.69C318.937 197.531 330.876 192.005 343.576 191.197L432.735 185.528C440.577 185.03 448.199 182.725 455.004 178.795L537.763 131" stroke="#C4C4C4" stroke-width="2"/>
<line x1="2" y1="44.4297" x2="2.00001" y2="376.273" stroke="#333339"/>
<path d="M682.5 376.5L1.5 376.773" stroke="#333339"/>
<circle cx="536" cy="133" r="4" fill="#CC2930" stroke="white" stroke-width="2"/>
<path d="M462.977 108.66V117H461.609V111.288L459.065 117H458.117L455.561 111.288V117H454.193V108.66H455.669L458.597 115.2L461.513 108.66H462.977ZM464.319 113.664C464.319 113 464.455 112.412 464.727 111.9C465.007 111.388 465.383 110.992 465.855 110.712C466.335 110.424 466.863 110.28 467.439 110.28C467.959 110.28 468.411 110.384 468.795 110.592C469.187 110.792 469.499 111.044 469.731 111.348V110.388H471.111V117H469.731V116.016C469.499 116.328 469.183 116.588 468.783 116.796C468.383 117.004 467.927 117.108 467.415 117.108C466.847 117.108 466.327 116.964 465.855 116.676C465.383 116.38 465.007 115.972 464.727 115.452C464.455 114.924 464.319 114.328 464.319 113.664ZM469.731 113.688C469.731 113.232 469.635 112.836 469.443 112.5C469.259 112.164 469.015 111.908 468.711 111.732C468.407 111.556 468.079 111.468 467.727 111.468C467.375 111.468 467.047 111.556 466.743 111.732C466.439 111.9 466.191 112.152 465.999 112.488C465.815 112.816 465.723 113.208 465.723 113.664C465.723 114.12 465.815 114.52 465.999 114.864C466.191 115.208 466.439 115.472 466.743 115.656C467.055 115.832 467.383 115.92 467.727 115.92C468.079 115.92 468.407 115.832 468.711 115.656C469.015 115.48 469.259 115.224 469.443 114.888C469.635 114.544 469.731 114.144 469.731 113.688ZM474.276 111.348C474.476 111.012 474.74 110.752 475.068 110.568C475.404 110.376 475.8 110.28 476.256 110.28V111.696H475.908C475.372 111.696 474.964 111.832 474.684 112.104C474.412 112.376 474.276 112.848 474.276 113.52V117H472.908V110.388H474.276V111.348ZM480.129 113.7L483.177 117H481.329L478.881 114.156V117H477.513V108.12H478.881V113.28L481.281 110.388H483.177L480.129 113.7ZM490.218 113.532C490.218 113.78 490.202 114.004 490.17 114.204H485.118C485.158 114.732 485.354 115.156 485.706 115.476C486.058 115.796 486.49 115.956 487.002 115.956C487.738 115.956 488.258 115.648 488.562 115.032H490.038C489.838 115.64 489.474 116.14 488.946 116.532C488.426 116.916 487.778 117.108 487.002 117.108C486.37 117.108 485.802 116.968 485.298 116.688C484.802 116.4 484.41 116 484.122 115.488C483.842 114.968 483.702 114.368 483.702 113.688C483.702 113.008 483.838 112.412 484.11 111.9C484.39 111.38 484.778 110.98 485.274 110.7C485.778 110.42 486.354 110.28 487.002 110.28C487.626 110.28 488.182 110.416 488.67 110.688C489.158 110.96 489.538 111.344 489.81 111.84C490.082 112.328 490.218 112.892 490.218 113.532ZM488.79 113.1C488.782 112.596 488.602 112.192 488.25 111.888C487.898 111.584 487.462 111.432 486.942 111.432C486.47 111.432 486.066 111.584 485.73 111.888C485.394 112.184 485.194 112.588 485.13 113.1H488.79ZM493.16 111.504V115.164C493.16 115.412 493.216 115.592 493.328 115.704C493.448 115.808 493.648 115.86 493.928 115.86H494.768V117H493.688C493.072 117 492.6 116.856 492.272 116.568C491.944 116.28 491.78 115.812 491.78 115.164V111.504H491V110.388H491.78V108.744H493.16V110.388H494.768V111.504H493.16ZM498.69 113.688C498.69 113.008 498.826 112.412 499.098 111.9C499.378 111.38 499.762 110.98 500.25 110.7C500.738 110.42 501.298 110.28 501.93 110.28C502.73 110.28 503.39 110.472 503.91 110.856C504.438 111.232 504.794 111.772 504.978 112.476H503.502C503.382 112.148 503.19 111.892 502.926 111.708C502.662 111.524 502.33 111.432 501.93 111.432C501.37 111.432 500.922 111.632 500.586 112.032C500.258 112.424 500.094 112.976 500.094 113.688C500.094 114.4 500.258 114.956 500.586 115.356C500.922 115.756 501.37 115.956 501.93 115.956C502.722 115.956 503.246 115.608 503.502 114.912H504.978C504.786 115.584 504.426 116.12 503.898 116.52C503.37 116.912 502.714 117.108 501.93 117.108C501.298 117.108 500.738 116.968 500.25 116.688C499.762 116.4 499.378 116 499.098 115.488C498.826 114.968 498.69 114.368 498.69 113.688ZM505.885 113.664C505.885 113 506.021 112.412 506.293 111.9C506.573 111.388 506.949 110.992 507.421 110.712C507.901 110.424 508.429 110.28 509.005 110.28C509.525 110.28 509.977 110.384 510.361 110.592C510.753 110.792 511.065 111.044 511.297 111.348V110.388H512.677V117H511.297V116.016C511.065 116.328 510.749 116.588 510.349 116.796C509.949 117.004 509.493 117.108 508.981 117.108C508.413 117.108 507.893 116.964 507.421 116.676C506.949 116.38 506.573 115.972 506.293 115.452C506.021 114.924 505.885 114.328 505.885 113.664ZM511.297 113.688C511.297 113.232 511.201 112.836 511.009 112.5C510.825 112.164 510.581 111.908 510.277 111.732C509.973 111.556 509.645 111.468 509.293 111.468C508.941 111.468 508.613 111.556 508.309 111.732C508.005 111.9 507.757 112.152 507.565 112.488C507.381 112.816 507.289 113.208 507.289 113.664C507.289 114.12 507.381 114.52 507.565 114.864C507.757 115.208 508.005 115.472 508.309 115.656C508.621 115.832 508.949 115.92 509.293 115.92C509.645 115.92 509.973 115.832 510.277 115.656C510.581 115.48 510.825 115.224 511.009 114.888C511.201 114.544 511.297 114.144 511.297 113.688ZM515.842 111.36C516.074 111.056 516.39 110.8 516.79 110.592C517.19 110.384 517.642 110.28 518.146 110.28C518.722 110.28 519.246 110.424 519.718 110.712C520.198 110.992 520.574 111.388 520.846 111.9C521.118 112.412 521.254 113 521.254 113.664C521.254 114.328 521.118 114.924 520.846 115.452C520.574 115.972 520.198 116.38 519.718 116.676C519.246 116.964 518.722 117.108 518.146 117.108C517.642 117.108 517.194 117.008 516.802 116.808C516.41 116.6 516.09 116.344 515.842 116.04V120.144H514.474V110.388H515.842V111.36ZM519.862 113.664C519.862 113.208 519.766 112.816 519.574 112.488C519.39 112.152 519.142 111.9 518.83 111.732C518.526 111.556 518.198 111.468 517.846 111.468C517.502 111.468 517.174 111.556 516.862 111.732C516.558 111.908 516.31 112.164 516.118 112.5C515.934 112.836 515.842 113.232 515.842 113.688C515.842 114.144 515.934 114.544 516.118 114.888C516.31 115.224 516.558 115.48 516.862 115.656C517.174 115.832 517.502 115.92 517.846 115.92C518.198 115.92 518.526 115.832 518.83 115.656C519.142 115.472 519.39 115.208 519.574 114.864C519.766 114.52 519.862 114.12 519.862 113.664Z" fill="white"/>
<path d="M453.607 131.192C453.767 130.296 454.066 129.635 454.503 129.208C454.941 128.771 455.49 128.552 456.151 128.552C456.45 128.552 456.711 128.6 456.935 128.696C457.17 128.792 457.437 128.936 457.735 129.128C458.002 129.288 458.21 129.405 458.359 129.48C458.519 129.555 458.695 129.592 458.887 129.592C459.154 129.592 459.389 129.507 459.591 129.336C459.805 129.155 459.933 128.904 459.975 128.584H461.303C461.143 129.48 460.839 130.147 460.391 130.584C459.954 131.011 459.405 131.224 458.743 131.224C458.445 131.224 458.183 131.176 457.959 131.08C457.735 130.984 457.474 130.84 457.175 130.648C456.941 130.488 456.738 130.371 456.567 130.296C456.397 130.221 456.215 130.184 456.023 130.184C455.746 130.184 455.501 130.275 455.287 130.456C455.085 130.627 454.962 130.872 454.919 131.192H453.607ZM470.579 131.832C470.579 132.365 470.446 132.867 470.179 133.336C469.923 133.805 469.539 134.2 469.027 134.52C468.526 134.84 467.928 135.032 467.235 135.096V136.392H466.195V135.096C465.192 135 464.382 134.685 463.763 134.152C463.144 133.619 462.835 132.915 462.835 132.04H464.787C464.819 132.456 464.952 132.803 465.187 133.08C465.422 133.347 465.758 133.517 466.195 133.592V130.072C465.48 129.891 464.899 129.709 464.451 129.528C464.003 129.336 463.619 129.037 463.299 128.632C462.99 128.227 462.835 127.672 462.835 126.968C462.835 126.083 463.144 125.352 463.763 124.776C464.382 124.189 465.192 123.848 466.195 123.752V122.456H467.235V123.752C468.174 123.837 468.926 124.136 469.491 124.648C470.067 125.149 470.392 125.843 470.467 126.728H468.515C468.483 126.397 468.355 126.104 468.131 125.848C467.907 125.581 467.608 125.4 467.235 125.304V128.76C467.95 128.931 468.531 129.112 468.979 129.304C469.427 129.485 469.806 129.779 470.115 130.184C470.424 130.579 470.579 131.128 470.579 131.832ZM464.691 126.872C464.691 127.309 464.819 127.651 465.075 127.896C465.342 128.141 465.715 128.339 466.195 128.488V125.256C465.736 125.309 465.368 125.475 465.091 125.752C464.824 126.029 464.691 126.403 464.691 126.872ZM467.235 133.592C467.704 133.517 468.072 133.331 468.339 133.032C468.606 132.723 468.739 132.355 468.739 131.928C468.739 131.501 468.606 131.171 468.339 130.936C468.083 130.691 467.715 130.493 467.235 130.344V133.592ZM473.209 126.216C473.273 125.224 473.652 124.451 474.345 123.896C475.049 123.341 475.945 123.064 477.033 123.064C477.78 123.064 478.425 123.197 478.969 123.464C479.513 123.731 479.924 124.093 480.201 124.552C480.479 125.011 480.617 125.528 480.617 126.104C480.617 126.765 480.441 127.331 480.089 127.8C479.737 128.269 479.316 128.584 478.825 128.744V128.808C479.455 129 479.945 129.352 480.297 129.864C480.649 130.365 480.825 131.011 480.825 131.8C480.825 132.429 480.681 132.989 480.393 133.48C480.105 133.971 479.679 134.36 479.113 134.648C478.548 134.925 477.871 135.064 477.081 135.064C475.929 135.064 474.98 134.771 474.233 134.184C473.497 133.587 473.103 132.733 473.049 131.624H474.809C474.852 132.189 475.071 132.653 475.465 133.016C475.86 133.368 476.393 133.544 477.065 133.544C477.716 133.544 478.217 133.368 478.569 133.016C478.921 132.653 479.097 132.189 479.097 131.624C479.097 130.877 478.857 130.349 478.377 130.04C477.908 129.72 477.183 129.56 476.201 129.56H475.785V128.056H476.217C477.081 128.045 477.737 127.901 478.185 127.624C478.644 127.347 478.873 126.909 478.873 126.312C478.873 125.8 478.708 125.395 478.377 125.096C478.047 124.787 477.577 124.632 476.969 124.632C476.372 124.632 475.908 124.787 475.577 125.096C475.247 125.395 475.049 125.768 474.985 126.216H473.209ZM484.709 128.904C483.6 128.349 483.045 127.475 483.045 126.28C483.045 125.704 483.189 125.176 483.477 124.696C483.765 124.216 484.197 123.837 484.773 123.56C485.349 123.272 486.053 123.128 486.885 123.128C487.707 123.128 488.405 123.272 488.981 123.56C489.568 123.837 490.005 124.216 490.293 124.696C490.581 125.176 490.725 125.704 490.725 126.28C490.725 126.877 490.571 127.405 490.261 127.864C489.963 128.312 489.563 128.659 489.061 128.904C489.669 129.128 490.149 129.496 490.501 130.008C490.853 130.509 491.029 131.101 491.029 131.784C491.029 132.477 490.853 133.091 490.501 133.624C490.149 134.157 489.659 134.568 489.029 134.856C488.4 135.144 487.685 135.288 486.885 135.288C486.085 135.288 485.371 135.144 484.741 134.856C484.123 134.568 483.637 134.157 483.285 133.624C482.933 133.091 482.757 132.477 482.757 131.784C482.757 131.091 482.933 130.493 483.285 129.992C483.637 129.491 484.112 129.128 484.709 128.904ZM488.981 126.504C488.981 125.907 488.795 125.448 488.421 125.128C488.048 124.808 487.536 124.648 486.885 124.648C486.245 124.648 485.739 124.808 485.365 125.128C484.992 125.448 484.805 125.912 484.805 126.52C484.805 127.053 484.997 127.491 485.381 127.832C485.776 128.163 486.277 128.328 486.885 128.328C487.493 128.328 487.995 128.157 488.389 127.816C488.784 127.475 488.981 127.037 488.981 126.504ZM486.885 129.704C486.181 129.704 485.605 129.88 485.157 130.232C484.72 130.573 484.501 131.069 484.501 131.72C484.501 132.328 484.715 132.824 485.141 133.208C485.568 133.581 486.149 133.768 486.885 133.768C487.611 133.768 488.181 133.576 488.597 133.192C489.024 132.808 489.237 132.317 489.237 131.72C489.237 131.08 489.019 130.584 488.581 130.232C488.155 129.88 487.589 129.704 486.885 129.704ZM492.72 132.568V131.192L498.096 123.48H500.304V130.984H501.792V132.568H500.304V135H498.512V132.568H492.72ZM498.592 125.336L494.816 130.984H498.592V125.336ZM513.652 129.288C514.249 129.395 514.756 129.709 515.172 130.232C515.588 130.755 515.796 131.347 515.796 132.008C515.796 132.573 515.647 133.085 515.348 133.544C515.06 133.992 514.639 134.349 514.084 134.616C513.529 134.872 512.884 135 512.148 135H507.7V123.88H511.94C512.697 123.88 513.348 124.008 513.892 124.264C514.436 124.52 514.847 124.867 515.124 125.304C515.401 125.731 515.54 126.211 515.54 126.744C515.54 127.384 515.369 127.917 515.028 128.344C514.687 128.771 514.228 129.085 513.652 129.288ZM509.524 128.552H511.78C512.377 128.552 512.841 128.419 513.172 128.152C513.513 127.875 513.684 127.48 513.684 126.968C513.684 126.467 513.513 126.077 513.172 125.8C512.841 125.512 512.377 125.368 511.78 125.368H509.524V128.552ZM511.988 133.512C512.607 133.512 513.092 133.363 513.444 133.064C513.796 132.765 513.972 132.349 513.972 131.816C513.972 131.272 513.785 130.84 513.412 130.52C513.039 130.2 512.543 130.04 511.924 130.04H509.524V133.512H511.988ZM522.226 126.04C522.919 126.04 523.538 126.184 524.082 126.472C524.637 126.76 525.069 127.187 525.378 127.752C525.687 128.317 525.842 129 525.842 129.8V135H524.034V130.072C524.034 129.283 523.837 128.68 523.442 128.264C523.047 127.837 522.509 127.624 521.826 127.624C521.143 127.624 520.599 127.837 520.194 128.264C519.799 128.68 519.602 129.283 519.602 130.072V135H517.778V126.184H519.602V127.192C519.901 126.829 520.279 126.547 520.738 126.344C521.207 126.141 521.703 126.04 522.226 126.04Z" fill="white"/>
<circle cx="535" cy="244" r="4" fill="#CC2930" stroke="white" stroke-width="2"/>
<path d="M468.977 219.66V228H467.609V222.288L465.065 228H464.117L461.561 222.288V228H460.193V219.66H461.669L464.597 226.2L467.513 219.66H468.977ZM470.319 224.664C470.319 224 470.455 223.412 470.727 222.9C471.007 222.388 471.383 221.992 471.855 221.712C472.335 221.424 472.863 221.28 473.439 221.28C473.959 221.28 474.411 221.384 474.795 221.592C475.187 221.792 475.499 222.044 475.731 222.348V221.388H477.111V228H475.731V227.016C475.499 227.328 475.183 227.588 474.783 227.796C474.383 228.004 473.927 228.108 473.415 228.108C472.847 228.108 472.327 227.964 471.855 227.676C471.383 227.38 471.007 226.972 470.727 226.452C470.455 225.924 470.319 225.328 470.319 224.664ZM475.731 224.688C475.731 224.232 475.635 223.836 475.443 223.5C475.259 223.164 475.015 222.908 474.711 222.732C474.407 222.556 474.079 222.468 473.727 222.468C473.375 222.468 473.047 222.556 472.743 222.732C472.439 222.9 472.191 223.152 471.999 223.488C471.815 223.816 471.723 224.208 471.723 224.664C471.723 225.12 471.815 225.52 471.999 225.864C472.191 226.208 472.439 226.472 472.743 226.656C473.055 226.832 473.383 226.92 473.727 226.92C474.079 226.92 474.407 226.832 474.711 226.656C475.015 226.48 475.259 226.224 475.443 225.888C475.635 225.544 475.731 225.144 475.731 224.688ZM480.276 222.348C480.476 222.012 480.74 221.752 481.068 221.568C481.404 221.376 481.8 221.28 482.256 221.28V222.696H481.908C481.372 222.696 480.964 222.832 480.684 223.104C480.412 223.376 480.276 223.848 480.276 224.52V228H478.908V221.388H480.276V222.348ZM486.129 224.7L489.177 228H487.329L484.881 225.156V228H483.513V219.12H484.881V224.28L487.281 221.388H489.177L486.129 224.7ZM496.218 224.532C496.218 224.78 496.202 225.004 496.17 225.204H491.118C491.158 225.732 491.354 226.156 491.706 226.476C492.058 226.796 492.49 226.956 493.002 226.956C493.738 226.956 494.258 226.648 494.562 226.032H496.038C495.838 226.64 495.474 227.14 494.946 227.532C494.426 227.916 493.778 228.108 493.002 228.108C492.37 228.108 491.802 227.968 491.298 227.688C490.802 227.4 490.41 227 490.122 226.488C489.842 225.968 489.702 225.368 489.702 224.688C489.702 224.008 489.838 223.412 490.11 222.9C490.39 222.38 490.778 221.98 491.274 221.7C491.778 221.42 492.354 221.28 493.002 221.28C493.626 221.28 494.182 221.416 494.67 221.688C495.158 221.96 495.538 222.344 495.81 222.84C496.082 223.328 496.218 223.892 496.218 224.532ZM494.79 224.1C494.782 223.596 494.602 223.192 494.25 222.888C493.898 222.584 493.462 222.432 492.942 222.432C492.47 222.432 492.066 222.584 491.73 222.888C491.394 223.184 491.194 223.588 491.13 224.1H494.79ZM499.16 222.504V226.164C499.16 226.412 499.216 226.592 499.328 226.704C499.448 226.808 499.648 226.86 499.928 226.86H500.768V228H499.688C499.072 228 498.6 227.856 498.272 227.568C497.944 227.28 497.78 226.812 497.78 226.164V222.504H497V221.388H497.78V219.744H499.16V221.388H500.768V222.504H499.16ZM504.69 224.688C504.69 224.008 504.826 223.412 505.098 222.9C505.378 222.38 505.762 221.98 506.25 221.7C506.738 221.42 507.298 221.28 507.93 221.28C508.73 221.28 509.39 221.472 509.91 221.856C510.438 222.232 510.794 222.772 510.978 223.476H509.502C509.382 223.148 509.19 222.892 508.926 222.708C508.662 222.524 508.33 222.432 507.93 222.432C507.37 222.432 506.922 222.632 506.586 223.032C506.258 223.424 506.094 223.976 506.094 224.688C506.094 225.4 506.258 225.956 506.586 226.356C506.922 226.756 507.37 226.956 507.93 226.956C508.722 226.956 509.246 226.608 509.502 225.912H510.978C510.786 226.584 510.426 227.12 509.898 227.52C509.37 227.912 508.714 228.108 507.93 228.108C507.298 228.108 506.738 227.968 506.25 227.688C505.762 227.4 505.378 227 505.098 226.488C504.826 225.968 504.69 225.368 504.69 224.688ZM511.885 224.664C511.885 224 512.021 223.412 512.293 222.9C512.573 222.388 512.949 221.992 513.421 221.712C513.901 221.424 514.429 221.28 515.005 221.28C515.525 221.28 515.977 221.384 516.361 221.592C516.753 221.792 517.065 222.044 517.297 222.348V221.388H518.677V228H517.297V227.016C517.065 227.328 516.749 227.588 516.349 227.796C515.949 228.004 515.493 228.108 514.981 228.108C514.413 228.108 513.893 227.964 513.421 227.676C512.949 227.38 512.573 226.972 512.293 226.452C512.021 225.924 511.885 225.328 511.885 224.664ZM517.297 224.688C517.297 224.232 517.201 223.836 517.009 223.5C516.825 223.164 516.581 222.908 516.277 222.732C515.973 222.556 515.645 222.468 515.293 222.468C514.941 222.468 514.613 222.556 514.309 222.732C514.005 222.9 513.757 223.152 513.565 223.488C513.381 223.816 513.289 224.208 513.289 224.664C513.289 225.12 513.381 225.52 513.565 225.864C513.757 226.208 514.005 226.472 514.309 226.656C514.621 226.832 514.949 226.92 515.293 226.92C515.645 226.92 515.973 226.832 516.277 226.656C516.581 226.48 516.825 226.224 517.009 225.888C517.201 225.544 517.297 225.144 517.297 224.688ZM521.842 222.36C522.074 222.056 522.39 221.8 522.79 221.592C523.19 221.384 523.642 221.28 524.146 221.28C524.722 221.28 525.246 221.424 525.718 221.712C526.198 221.992 526.574 222.388 526.846 222.9C527.118 223.412 527.254 224 527.254 224.664C527.254 225.328 527.118 225.924 526.846 226.452C526.574 226.972 526.198 227.38 525.718 227.676C525.246 227.964 524.722 228.108 524.146 228.108C523.642 228.108 523.194 228.008 522.802 227.808C522.41 227.6 522.09 227.344 521.842 227.04V231.144H520.474V221.388H521.842V222.36ZM525.862 224.664C525.862 224.208 525.766 223.816 525.574 223.488C525.39 223.152 525.142 222.9 524.83 222.732C524.526 222.556 524.198 222.468 523.846 222.468C523.502 222.468 523.174 222.556 522.862 222.732C522.558 222.908 522.31 223.164 522.118 223.5C521.934 223.836 521.842 224.232 521.842 224.688C521.842 225.144 521.934 225.544 522.118 225.888C522.31 226.224 522.558 226.48 522.862 226.656C523.174 226.832 523.502 226.92 523.846 226.92C524.198 226.92 524.526 226.832 524.83 226.656C525.142 226.472 525.39 226.208 525.574 225.864C525.766 225.52 525.862 225.12 525.862 224.664Z" fill="white"/>
<path d="M459.592 242.192C459.752 241.296 460.05 240.635 460.488 240.208C460.925 239.771 461.474 239.552 462.136 239.552C462.434 239.552 462.696 239.6 462.92 239.696C463.154 239.792 463.421 239.936 463.72 240.128C463.986 240.288 464.194 240.405 464.344 240.48C464.504 240.555 464.68 240.592 464.872 240.592C465.138 240.592 465.373 240.507 465.576 240.336C465.789 240.155 465.917 239.904 465.96 239.584H467.288C467.128 240.48 466.824 241.147 466.376 241.584C465.938 242.011 465.389 242.224 464.728 242.224C464.429 242.224 464.168 242.176 463.944 242.08C463.72 241.984 463.458 241.84 463.16 241.648C462.925 241.488 462.722 241.371 462.552 241.296C462.381 241.221 462.2 241.184 462.008 241.184C461.73 241.184 461.485 241.275 461.272 241.456C461.069 241.627 460.946 241.872 460.904 242.192H459.592ZM476.563 242.832C476.563 243.365 476.43 243.867 476.163 244.336C475.907 244.805 475.523 245.2 475.011 245.52C474.51 245.84 473.913 246.032 473.219 246.096V247.392H472.179V246.096C471.177 246 470.366 245.685 469.747 245.152C469.129 244.619 468.819 243.915 468.819 243.04H470.771C470.803 243.456 470.937 243.803 471.171 244.08C471.406 244.347 471.742 244.517 472.179 244.592V241.072C471.465 240.891 470.883 240.709 470.435 240.528C469.987 240.336 469.603 240.037 469.283 239.632C468.974 239.227 468.819 238.672 468.819 237.968C468.819 237.083 469.129 236.352 469.747 235.776C470.366 235.189 471.177 234.848 472.179 234.752V233.456H473.219V234.752C474.158 234.837 474.91 235.136 475.475 235.648C476.051 236.149 476.377 236.843 476.451 237.728H474.499C474.467 237.397 474.339 237.104 474.115 236.848C473.891 236.581 473.593 236.4 473.219 236.304V239.76C473.934 239.931 474.515 240.112 474.963 240.304C475.411 240.485 475.79 240.779 476.099 241.184C476.409 241.579 476.563 242.128 476.563 242.832ZM470.675 237.872C470.675 238.309 470.803 238.651 471.059 238.896C471.326 239.141 471.699 239.339 472.179 239.488V236.256C471.721 236.309 471.353 236.475 471.075 236.752C470.809 237.029 470.675 237.403 470.675 237.872ZM473.219 244.592C473.689 244.517 474.057 244.331 474.323 244.032C474.59 243.723 474.723 243.355 474.723 242.928C474.723 242.501 474.59 242.171 474.323 241.936C474.067 241.691 473.699 241.493 473.219 241.344V244.592ZM478.986 236V234.336H482.314V246H480.474V236H478.986ZM484.787 237.216C484.851 236.224 485.23 235.451 485.923 234.896C486.627 234.341 487.523 234.064 488.611 234.064C489.358 234.064 490.003 234.197 490.547 234.464C491.091 234.731 491.502 235.093 491.779 235.552C492.057 236.011 492.195 236.528 492.195 237.104C492.195 237.765 492.019 238.331 491.667 238.8C491.315 239.269 490.894 239.584 490.403 239.744V239.808C491.033 240 491.523 240.352 491.875 240.864C492.227 241.365 492.403 242.011 492.403 242.8C492.403 243.429 492.259 243.989 491.971 244.48C491.683 244.971 491.257 245.36 490.691 245.648C490.126 245.925 489.449 246.064 488.659 246.064C487.507 246.064 486.558 245.771 485.811 245.184C485.075 244.587 484.681 243.733 484.627 242.624H486.387C486.43 243.189 486.649 243.653 487.043 244.016C487.438 244.368 487.971 244.544 488.643 244.544C489.294 244.544 489.795 244.368 490.147 244.016C490.499 243.653 490.675 243.189 490.675 242.624C490.675 241.877 490.435 241.349 489.955 241.04C489.486 240.72 488.761 240.56 487.779 240.56H487.363V239.056H487.795C488.659 239.045 489.315 238.901 489.763 238.624C490.222 238.347 490.451 237.909 490.451 237.312C490.451 236.8 490.286 236.395 489.955 236.096C489.625 235.787 489.155 235.632 488.547 235.632C487.95 235.632 487.486 235.787 487.155 236.096C486.825 236.395 486.627 236.768 486.563 237.216H484.787ZM504.668 240.288C505.265 240.395 505.772 240.709 506.188 241.232C506.604 241.755 506.812 242.347 506.812 243.008C506.812 243.573 506.662 244.085 506.364 244.544C506.076 244.992 505.654 245.349 505.1 245.616C504.545 245.872 503.9 246 503.164 246H498.716V234.88H502.956C503.713 234.88 504.364 235.008 504.908 235.264C505.452 235.52 505.862 235.867 506.14 236.304C506.417 236.731 506.556 237.211 506.556 237.744C506.556 238.384 506.385 238.917 506.044 239.344C505.702 239.771 505.244 240.085 504.668 240.288ZM500.54 239.552H502.796C503.393 239.552 503.857 239.419 504.188 239.152C504.529 238.875 504.7 238.48 504.7 237.968C504.7 237.467 504.529 237.077 504.188 236.8C503.857 236.512 503.393 236.368 502.796 236.368H500.54V239.552ZM503.004 244.512C503.622 244.512 504.108 244.363 504.46 244.064C504.812 243.765 504.988 243.349 504.988 242.816C504.988 242.272 504.801 241.84 504.428 241.52C504.054 241.2 503.558 241.04 502.94 241.04H500.54V244.512H503.004ZM513.242 237.04C513.935 237.04 514.554 237.184 515.098 237.472C515.652 237.76 516.084 238.187 516.394 238.752C516.703 239.317 516.858 240 516.858 240.8V246H515.05V241.072C515.05 240.283 514.852 239.68 514.458 239.264C514.063 238.837 513.524 238.624 512.842 238.624C512.159 238.624 511.615 238.837 511.21 239.264C510.815 239.68 510.618 240.283 510.618 241.072V246H508.794V237.184H510.618V238.192C510.916 237.829 511.295 237.547 511.754 237.344C512.223 237.141 512.719 237.04 513.242 237.04Z" fill="white"/>
<path d="M542.037 286.296H538.545L537.945 288H536.517L539.505 279.648H541.089L544.077 288H542.637L542.037 286.296ZM541.653 285.18L540.297 281.304L538.929 285.18H541.653ZM547.933 286.776L549.805 281.388H551.257L548.737 288H547.105L544.597 281.388H546.061L547.933 286.776ZM554.955 281.28C555.467 281.28 555.919 281.384 556.311 281.592C556.711 281.792 557.023 282.044 557.247 282.348V281.388H558.627V288.108C558.627 288.716 558.499 289.256 558.243 289.728C557.987 290.208 557.615 290.584 557.127 290.856C556.647 291.128 556.071 291.264 555.399 291.264C554.503 291.264 553.759 291.052 553.167 290.628C552.575 290.212 552.239 289.644 552.159 288.924H553.515C553.619 289.268 553.839 289.544 554.175 289.752C554.519 289.968 554.927 290.076 555.399 290.076C555.951 290.076 556.395 289.908 556.731 289.572C557.075 289.236 557.247 288.748 557.247 288.108V287.004C557.015 287.316 556.699 287.58 556.299 287.796C555.907 288.004 555.459 288.108 554.955 288.108C554.379 288.108 553.851 287.964 553.371 287.676C552.899 287.38 552.523 286.972 552.243 286.452C551.971 285.924 551.835 285.328 551.835 284.664C551.835 284 551.971 283.412 552.243 282.9C552.523 282.388 552.899 281.992 553.371 281.712C553.851 281.424 554.379 281.28 554.955 281.28ZM557.247 284.688C557.247 284.232 557.151 283.836 556.959 283.5C556.775 283.164 556.531 282.908 556.227 282.732C555.923 282.556 555.595 282.468 555.243 282.468C554.891 282.468 554.563 282.556 554.259 282.732C553.955 282.9 553.707 283.152 553.515 283.488C553.331 283.816 553.239 284.208 553.239 284.664C553.239 285.12 553.331 285.52 553.515 285.864C553.707 286.208 553.955 286.472 554.259 286.656C554.571 286.832 554.899 286.92 555.243 286.92C555.595 286.92 555.923 286.832 556.227 286.656C556.531 286.48 556.775 286.224 556.959 285.888C557.151 285.544 557.247 285.144 557.247 284.688ZM572.325 279.66V288H570.957V282.288L568.413 288H567.465L564.909 282.288V288H563.541V279.66H565.017L567.945 286.2L570.861 279.66H572.325ZM576.991 288.108C576.367 288.108 575.803 287.968 575.299 287.688C574.795 287.4 574.399 287 574.111 286.488C573.823 285.968 573.679 285.368 573.679 284.688C573.679 284.016 573.827 283.42 574.123 282.9C574.419 282.38 574.823 281.98 575.335 281.7C575.847 281.42 576.419 281.28 577.051 281.28C577.683 281.28 578.255 281.42 578.767 281.7C579.279 281.98 579.683 282.38 579.979 282.9C580.275 283.42 580.423 284.016 580.423 284.688C580.423 285.36 580.271 285.956 579.967 286.476C579.663 286.996 579.247 287.4 578.719 287.688C578.199 287.968 577.623 288.108 576.991 288.108ZM576.991 286.92C577.343 286.92 577.671 286.836 577.975 286.668C578.287 286.5 578.539 286.248 578.731 285.912C578.923 285.576 579.019 285.168 579.019 284.688C579.019 284.208 578.927 283.804 578.743 283.476C578.559 283.14 578.315 282.888 578.011 282.72C577.707 282.552 577.379 282.468 577.027 282.468C576.675 282.468 576.347 282.552 576.043 282.72C575.747 282.888 575.511 283.14 575.335 283.476C575.159 283.804 575.071 284.208 575.071 284.688C575.071 285.4 575.251 285.952 575.611 286.344C575.979 286.728 576.439 286.92 576.991 286.92ZM585.111 281.28C585.631 281.28 586.095 281.388 586.503 281.604C586.919 281.82 587.243 282.14 587.475 282.564C587.707 282.988 587.823 283.5 587.823 284.1V288H586.467V284.304C586.467 283.712 586.319 283.26 586.023 282.948C585.727 282.628 585.323 282.468 584.811 282.468C584.299 282.468 583.891 282.628 583.587 282.948C583.291 283.26 583.143 283.712 583.143 284.304V288H581.775V281.388H583.143V282.144C583.367 281.872 583.651 281.66 583.995 281.508C584.347 281.356 584.719 281.28 585.111 281.28ZM591.164 282.504V286.164C591.164 286.412 591.22 286.592 591.332 286.704C591.452 286.808 591.652 286.86 591.932 286.86H592.772V288H591.692C591.076 288 590.604 287.856 590.276 287.568C589.948 287.28 589.784 286.812 589.784 286.164V282.504H589.004V281.388H589.784V279.744H591.164V281.388H592.772V282.504H591.164ZM597.453 281.28C597.957 281.28 598.405 281.388 598.797 281.604C599.197 281.82 599.509 282.14 599.733 282.564C599.965 282.988 600.081 283.5 600.081 284.1V288H598.725V284.304C598.725 283.712 598.577 283.26 598.281 282.948C597.985 282.628 597.581 282.468 597.069 282.468C596.557 282.468 596.149 282.628 595.845 282.948C595.549 283.26 595.401 283.712 595.401 284.304V288H594.033V279.12H595.401V282.156C595.633 281.876 595.925 281.66 596.277 281.508C596.637 281.356 597.029 281.28 597.453 281.28ZM603.194 279.12V288H601.826V279.12H603.194ZM610.942 281.388L606.886 291.108H605.47L606.814 287.892L604.21 281.388H605.734L607.594 286.428L609.526 281.388H610.942ZM621.127 282.06C620.911 281.644 620.611 281.332 620.227 281.124C619.843 280.908 619.399 280.8 618.895 280.8C618.343 280.8 617.851 280.924 617.419 281.172C616.987 281.42 616.647 281.772 616.399 282.228C616.159 282.684 616.039 283.212 616.039 283.812C616.039 284.412 616.159 284.944 616.399 285.408C616.647 285.864 616.987 286.216 617.419 286.464C617.851 286.712 618.343 286.836 618.895 286.836C619.639 286.836 620.243 286.628 620.707 286.212C621.171 285.796 621.455 285.232 621.559 284.52H618.427V283.428H623.023V284.496C622.935 285.144 622.703 285.74 622.327 286.284C621.959 286.828 621.475 287.264 620.875 287.592C620.283 287.912 619.623 288.072 618.895 288.072C618.111 288.072 617.395 287.892 616.747 287.532C616.099 287.164 615.583 286.656 615.199 286.008C614.823 285.36 614.635 284.628 614.635 283.812C614.635 282.996 614.823 282.264 615.199 281.616C615.583 280.968 616.099 280.464 616.747 280.104C617.403 279.736 618.119 279.552 618.895 279.552C619.783 279.552 620.571 279.772 621.259 280.212C621.955 280.644 622.459 281.26 622.771 282.06H621.127ZM625.741 282.348C625.941 282.012 626.205 281.752 626.533 281.568C626.869 281.376 627.265 281.28 627.721 281.28V282.696H627.373C626.837 282.696 626.429 282.832 626.149 283.104C625.877 283.376 625.741 283.848 625.741 284.52V288H624.373V281.388H625.741V282.348ZM631.846 288.108C631.222 288.108 630.658 287.968 630.154 287.688C629.65 287.4 629.254 287 628.966 286.488C628.678 285.968 628.534 285.368 628.534 284.688C628.534 284.016 628.682 283.42 628.978 282.9C629.274 282.38 629.678 281.98 630.19 281.7C630.702 281.42 631.274 281.28 631.906 281.28C632.538 281.28 633.11 281.42 633.622 281.7C634.134 281.98 634.538 282.38 634.834 282.9C635.13 283.42 635.278 284.016 635.278 284.688C635.278 285.36 635.126 285.956 634.822 286.476C634.518 286.996 634.102 287.4 633.574 287.688C633.054 287.968 632.478 288.108 631.846 288.108ZM631.846 286.92C632.198 286.92 632.526 286.836 632.83 286.668C633.142 286.5 633.394 286.248 633.586 285.912C633.778 285.576 633.874 285.168 633.874 284.688C633.874 284.208 633.782 283.804 633.598 283.476C633.414 283.14 633.17 282.888 632.866 282.72C632.562 282.552 632.234 282.468 631.882 282.468C631.53 282.468 631.202 282.552 630.898 282.72C630.602 282.888 630.366 283.14 630.19 283.476C630.014 283.804 629.926 284.208 629.926 284.688C629.926 285.4 630.106 285.952 630.466 286.344C630.834 286.728 631.294 286.92 631.846 286.92ZM645.51 281.388L643.458 288H642.018L640.686 283.116L639.354 288H637.914L635.85 281.388H637.242L638.622 286.704L640.026 281.388H641.454L642.798 286.68L644.166 281.388H645.51ZM648.129 282.504V286.164C648.129 286.412 648.185 286.592 648.297 286.704C648.417 286.808 648.617 286.86 648.897 286.86H649.737V288H648.657C648.041 288 647.569 287.856 647.241 287.568C646.913 287.28 646.749 286.812 646.749 286.164V282.504H645.969V281.388H646.749V279.744H648.129V281.388H649.737V282.504H648.129ZM654.418 281.28C654.922 281.28 655.37 281.388 655.762 281.604C656.162 281.82 656.474 282.14 656.698 282.564C656.93 282.988 657.046 283.5 657.046 284.1V288H655.69V284.304C655.69 283.712 655.542 283.26 655.246 282.948C654.95 282.628 654.546 282.468 654.034 282.468C653.522 282.468 653.114 282.628 652.81 282.948C652.514 283.26 652.366 283.712 652.366 284.304V288H650.998V279.12H652.366V282.156C652.598 281.876 652.89 281.66 653.242 281.508C653.602 281.356 653.994 281.28 654.418 281.28Z" fill="white"/>
<path d="M575.918 301.864V299.32H580.35V311H577.502V301.864H575.918ZM582.734 301.864V299.32H587.166V311H584.318V301.864H582.734ZM589.837 305C589.837 303.165 590.189 301.72 590.893 300.664C591.608 299.608 592.755 299.08 594.333 299.08C595.912 299.08 597.053 299.608 597.757 300.664C598.472 301.72 598.829 303.165 598.829 305C598.829 306.856 598.472 308.312 597.757 309.368C597.053 310.424 595.912 310.952 594.333 310.952C592.755 310.952 591.608 310.424 590.893 309.368C590.189 308.312 589.837 306.856 589.837 305ZM596.141 305C596.141 303.923 596.024 303.096 595.789 302.52C595.555 301.933 595.069 301.64 594.333 301.64C593.597 301.64 593.112 301.933 592.877 302.52C592.643 303.096 592.525 303.923 592.525 305C592.525 305.725 592.568 306.328 592.653 306.808C592.739 307.277 592.909 307.661 593.165 307.96C593.432 308.248 593.821 308.392 594.333 308.392C594.845 308.392 595.229 308.248 595.485 307.96C595.752 307.661 595.928 307.277 596.013 306.808C596.099 306.328 596.141 305.725 596.141 305ZM601.075 305C601.075 303.165 601.427 301.72 602.131 300.664C602.845 299.608 603.992 299.08 605.571 299.08C607.149 299.08 608.291 299.608 608.995 300.664C609.709 301.72 610.067 303.165 610.067 305C610.067 306.856 609.709 308.312 608.995 309.368C608.291 310.424 607.149 310.952 605.571 310.952C603.992 310.952 602.845 310.424 602.131 309.368C601.427 308.312 601.075 306.856 601.075 305ZM607.379 305C607.379 303.923 607.261 303.096 607.027 302.52C606.792 301.933 606.307 301.64 605.571 301.64C604.835 301.64 604.349 301.933 604.115 302.52C603.88 303.096 603.763 303.923 603.763 305C603.763 305.725 603.805 306.328 603.891 306.808C603.976 307.277 604.147 307.661 604.403 307.96C604.669 308.248 605.059 308.392 605.571 308.392C606.083 308.392 606.467 308.248 606.723 307.96C606.989 307.661 607.165 307.277 607.251 306.808C607.336 306.328 607.379 305.725 607.379 305ZM612.088 302.264C612.088 301.4 612.334 300.733 612.824 300.264C613.326 299.795 613.971 299.56 614.76 299.56C615.55 299.56 616.19 299.795 616.68 300.264C617.171 300.733 617.416 301.4 617.416 302.264C617.416 303.128 617.171 303.795 616.68 304.264C616.19 304.733 615.55 304.968 614.76 304.968C613.971 304.968 613.326 304.733 612.824 304.264C612.334 303.795 612.088 303.128 612.088 302.264ZM622.952 299.736L616.792 311H614.152L620.312 299.736H622.952ZM614.744 301.16C614.232 301.16 613.976 301.528 613.976 302.264C613.976 302.989 614.232 303.352 614.744 303.352C614.99 303.352 615.182 303.261 615.32 303.08C615.459 302.899 615.528 302.627 615.528 302.264C615.528 301.528 615.267 301.16 614.744 301.16ZM619.704 308.472C619.704 307.608 619.95 306.941 620.44 306.472C620.931 306.003 621.571 305.768 622.36 305.768C623.15 305.768 623.79 306.003 624.28 306.472C624.771 306.941 625.016 307.608 625.016 308.472C625.016 309.336 624.771 310.003 624.28 310.472C623.79 310.941 623.15 311.176 622.36 311.176C621.571 311.176 620.931 310.941 620.44 310.472C619.95 310.003 619.704 309.336 619.704 308.472ZM622.344 307.368C622.099 307.368 621.907 307.459 621.768 307.64C621.64 307.821 621.576 308.099 621.576 308.472C621.576 309.197 621.832 309.56 622.344 309.56C622.59 309.56 622.782 309.469 622.92 309.288C623.059 309.107 623.128 308.835 623.128 308.472C623.128 308.109 623.059 307.837 622.92 307.656C622.782 307.464 622.59 307.368 622.344 307.368Z" fill="white"/>
<rect x="224" y="2.5" width="13" height="13" fill="#38383C" stroke="white"/>
<path d="M248.433 7.144C248.433 7.568 248.333 7.968 248.133 8.344C247.933 8.72 247.613 9.028 247.173 9.268C246.733 9.5 246.169 9.616 245.481 9.616H243.969V13H242.601V4.66H245.481C246.121 4.66 246.661 4.772 247.101 4.996C247.549 5.212 247.881 5.508 248.097 5.884C248.321 6.26 248.433 6.68 248.433 7.144ZM245.481 8.5C246.001 8.5 246.389 8.384 246.645 8.152C246.901 7.912 247.029 7.576 247.029 7.144C247.029 6.232 246.513 5.776 245.481 5.776H243.969V8.5H245.481ZM251.106 7.348C251.306 7.012 251.57 6.752 251.898 6.568C252.234 6.376 252.63 6.28 253.086 6.28V7.696H252.738C252.202 7.696 251.794 7.832 251.514 8.104C251.242 8.376 251.106 8.848 251.106 9.52V13H249.738V6.388H251.106V7.348ZM257.211 13.108C256.587 13.108 256.023 12.968 255.519 12.688C255.015 12.4 254.619 12 254.331 11.488C254.043 10.968 253.899 10.368 253.899 9.688C253.899 9.016 254.047 8.42 254.343 7.9C254.639 7.38 255.043 6.98 255.555 6.7C256.067 6.42 256.639 6.28 257.271 6.28C257.903 6.28 258.475 6.42 258.987 6.7C259.499 6.98 259.903 7.38 260.199 7.9C260.495 8.42 260.643 9.016 260.643 9.688C260.643 10.36 260.491 10.956 260.187 11.476C259.883 11.996 259.467 12.4 258.939 12.688C258.419 12.968 257.843 13.108 257.211 13.108ZM257.211 11.92C257.563 11.92 257.891 11.836 258.195 11.668C258.507 11.5 258.759 11.248 258.951 10.912C259.143 10.576 259.239 10.168 259.239 9.688C259.239 9.208 259.147 8.804 258.963 8.476C258.779 8.14 258.535 7.888 258.231 7.72C257.927 7.552 257.599 7.468 257.247 7.468C256.895 7.468 256.567 7.552 256.263 7.72C255.967 7.888 255.731 8.14 255.555 8.476C255.379 8.804 255.291 9.208 255.291 9.688C255.291 10.4 255.471 10.952 255.831 11.344C256.199 11.728 256.659 11.92 257.211 11.92ZM264.864 13.108C264.24 13.108 263.676 12.968 263.172 12.688C262.668 12.4 262.272 12 261.984 11.488C261.696 10.968 261.552 10.368 261.552 9.688C261.552 9.016 261.7 8.42 261.996 7.9C262.292 7.38 262.696 6.98 263.208 6.7C263.72 6.42 264.292 6.28 264.924 6.28C265.556 6.28 266.128 6.42 266.64 6.7C267.152 6.98 267.556 7.38 267.852 7.9C268.148 8.42 268.296 9.016 268.296 9.688C268.296 10.36 268.144 10.956 267.84 11.476C267.536 11.996 267.12 12.4 266.592 12.688C266.072 12.968 265.496 13.108 264.864 13.108ZM264.864 11.92C265.216 11.92 265.544 11.836 265.848 11.668C266.16 11.5 266.412 11.248 266.604 10.912C266.796 10.576 266.892 10.168 266.892 9.688C266.892 9.208 266.8 8.804 266.616 8.476C266.432 8.14 266.188 7.888 265.884 7.72C265.58 7.552 265.252 7.468 264.9 7.468C264.548 7.468 264.22 7.552 263.916 7.72C263.62 7.888 263.384 8.14 263.208 8.476C263.032 8.804 262.944 9.208 262.944 9.688C262.944 10.4 263.124 10.952 263.484 11.344C263.852 11.728 264.312 11.92 264.864 11.92ZM272.42 7.504H271.196V13H269.816V7.504H269.036V6.388H269.816V5.92C269.816 5.16 270.016 4.608 270.416 4.264C270.824 3.912 271.46 3.736 272.324 3.736V4.876C271.908 4.876 271.616 4.956 271.448 5.116C271.28 5.268 271.196 5.536 271.196 5.92V6.388H272.42V7.504ZM278.708 8.08V9.232H273.776V8.08H278.708ZM283.52 13.108C282.896 13.108 282.332 12.968 281.828 12.688C281.324 12.4 280.928 12 280.64 11.488C280.352 10.968 280.208 10.368 280.208 9.688C280.208 9.016 280.356 8.42 280.652 7.9C280.948 7.38 281.352 6.98 281.864 6.7C282.376 6.42 282.948 6.28 283.58 6.28C284.212 6.28 284.784 6.42 285.296 6.7C285.808 6.98 286.212 7.38 286.508 7.9C286.804 8.42 286.952 9.016 286.952 9.688C286.952 10.36 286.8 10.956 286.496 11.476C286.192 11.996 285.776 12.4 285.248 12.688C284.728 12.968 284.152 13.108 283.52 13.108ZM283.52 11.92C283.872 11.92 284.2 11.836 284.504 11.668C284.816 11.5 285.068 11.248 285.26 10.912C285.452 10.576 285.548 10.168 285.548 9.688C285.548 9.208 285.456 8.804 285.272 8.476C285.088 8.14 284.844 7.888 284.54 7.72C284.236 7.552 283.908 7.468 283.556 7.468C283.204 7.468 282.876 7.552 282.572 7.72C282.276 7.888 282.04 8.14 281.864 8.476C281.688 8.804 281.6 9.208 281.6 9.688C281.6 10.4 281.78 10.952 282.14 11.344C282.508 11.728 282.968 11.92 283.52 11.92ZM291.076 7.504H289.852V13H288.472V7.504H287.692V6.388H288.472V5.92C288.472 5.16 288.672 4.608 289.072 4.264C289.48 3.912 290.116 3.736 290.98 3.736V4.876C290.564 4.876 290.272 4.956 290.104 5.116C289.936 5.268 289.852 5.536 289.852 5.92V6.388H291.076V7.504ZM297.365 8.08V9.232H292.433V8.08H297.365ZM302.056 13.084C301.496 13.084 300.992 12.988 300.544 12.796C300.096 12.596 299.744 12.316 299.488 11.956C299.232 11.596 299.104 11.176 299.104 10.696H300.568C300.6 11.056 300.74 11.352 300.988 11.584C301.244 11.816 301.6 11.932 302.056 11.932C302.528 11.932 302.896 11.82 303.16 11.596C303.424 11.364 303.556 11.068 303.556 10.708C303.556 10.428 303.472 10.2 303.304 10.024C303.144 9.848 302.94 9.712 302.692 9.616C302.452 9.52 302.116 9.416 301.684 9.304C301.14 9.16 300.696 9.016 300.352 8.872C300.016 8.72 299.728 8.488 299.488 8.176C299.248 7.864 299.128 7.448 299.128 6.928C299.128 6.448 299.248 6.028 299.488 5.668C299.728 5.308 300.064 5.032 300.496 4.84C300.928 4.648 301.428 4.552 301.996 4.552C302.804 4.552 303.464 4.756 303.976 5.164C304.496 5.564 304.784 6.116 304.84 6.82H303.328C303.304 6.516 303.16 6.256 302.896 6.04C302.632 5.824 302.284 5.716 301.852 5.716C301.46 5.716 301.14 5.816 300.892 6.016C300.644 6.216 300.52 6.504 300.52 6.88C300.52 7.136 300.596 7.348 300.748 7.516C300.908 7.676 301.108 7.804 301.348 7.9C301.588 7.996 301.916 8.1 302.332 8.212C302.884 8.364 303.332 8.516 303.676 8.668C304.028 8.82 304.324 9.056 304.564 9.376C304.812 9.688 304.936 10.108 304.936 10.636C304.936 11.06 304.82 11.46 304.588 11.836C304.364 12.212 304.032 12.516 303.592 12.748C303.16 12.972 302.648 13.084 302.056 13.084ZM308.146 7.504V11.164C308.146 11.412 308.202 11.592 308.314 11.704C308.434 11.808 308.634 11.86 308.914 11.86H309.754V13H308.674C308.058 13 307.586 12.856 307.258 12.568C306.93 12.28 306.766 11.812 306.766 11.164V7.504H305.986V6.388H306.766V4.744H308.146V6.388H309.754V7.504H308.146ZM310.559 9.664C310.559 9 310.695 8.412 310.967 7.9C311.247 7.388 311.623 6.992 312.095 6.712C312.575 6.424 313.103 6.28 313.679 6.28C314.199 6.28 314.651 6.384 315.035 6.592C315.427 6.792 315.739 7.044 315.971 7.348V6.388H317.351V13H315.971V12.016C315.739 12.328 315.423 12.588 315.023 12.796C314.623 13.004 314.167 13.108 313.655 13.108C313.087 13.108 312.567 12.964 312.095 12.676C311.623 12.38 311.247 11.972 310.967 11.452C310.695 10.924 310.559 10.328 310.559 9.664ZM315.971 9.688C315.971 9.232 315.875 8.836 315.683 8.5C315.499 8.164 315.255 7.908 314.951 7.732C314.647 7.556 314.319 7.468 313.967 7.468C313.615 7.468 313.287 7.556 312.983 7.732C312.679 7.9 312.431 8.152 312.239 8.488C312.055 8.816 311.963 9.208 311.963 9.664C311.963 10.12 312.055 10.52 312.239 10.864C312.431 11.208 312.679 11.472 312.983 11.656C313.295 11.832 313.623 11.92 313.967 11.92C314.319 11.92 314.647 11.832 314.951 11.656C315.255 11.48 315.499 11.224 315.683 10.888C315.875 10.544 315.971 10.144 315.971 9.688ZM321.764 9.7L324.812 13H322.964L320.516 10.156V13H319.148V4.12H320.516V9.28L322.916 6.388H324.812L321.764 9.7ZM331.853 9.532C331.853 9.78 331.837 10.004 331.805 10.204H326.753C326.793 10.732 326.989 11.156 327.341 11.476C327.693 11.796 328.125 11.956 328.637 11.956C329.373 11.956 329.893 11.648 330.197 11.032H331.673C331.473 11.64 331.109 12.14 330.581 12.532C330.061 12.916 329.413 13.108 328.637 13.108C328.005 13.108 327.437 12.968 326.933 12.688C326.437 12.4 326.045 12 325.757 11.488C325.477 10.968 325.337 10.368 325.337 9.688C325.337 9.008 325.473 8.412 325.745 7.9C326.025 7.38 326.413 6.98 326.909 6.7C327.413 6.42 327.989 6.28 328.637 6.28C329.261 6.28 329.817 6.416 330.305 6.688C330.793 6.96 331.173 7.344 331.445 7.84C331.717 8.328 331.853 8.892 331.853 9.532ZM330.425 9.1C330.417 8.596 330.237 8.192 329.885 7.888C329.533 7.584 329.097 7.432 328.577 7.432C328.105 7.432 327.701 7.584 327.365 7.888C327.029 8.184 326.829 8.588 326.765 9.1H330.425Z" fill="white"/>
<rect x="393" y="2.5" width="13" height="13" fill="#E50913" stroke="white"/>
<path d="M413.063 11.896H415.883V13H411.695V4.66H413.063V11.896ZM417.723 5.512C417.475 5.512 417.267 5.428 417.099 5.26C416.931 5.092 416.847 4.884 416.847 4.636C416.847 4.388 416.931 4.18 417.099 4.012C417.267 3.844 417.475 3.76 417.723 3.76C417.963 3.76 418.167 3.844 418.335 4.012C418.503 4.18 418.587 4.388 418.587 4.636C418.587 4.884 418.503 5.092 418.335 5.26C418.167 5.428 417.963 5.512 417.723 5.512ZM418.395 6.388V13H417.027V6.388H418.395ZM419.735 9.664C419.735 9 419.871 8.412 420.143 7.9C420.423 7.388 420.799 6.992 421.271 6.712C421.751 6.424 422.283 6.28 422.867 6.28C423.379 6.28 423.831 6.384 424.223 6.592C424.623 6.8 424.931 7.052 425.147 7.348V6.388H426.527V16.144H425.147V12.04C424.931 12.336 424.619 12.588 424.211 12.796C423.803 13.004 423.339 13.108 422.819 13.108C422.251 13.108 421.731 12.964 421.259 12.676C420.795 12.38 420.423 11.972 420.143 11.452C419.871 10.924 419.735 10.328 419.735 9.664ZM425.147 9.688C425.147 9.232 425.051 8.836 424.859 8.5C424.675 8.164 424.431 7.908 424.127 7.732C423.823 7.556 423.495 7.468 423.143 7.468C422.791 7.468 422.463 7.556 422.159 7.732C421.855 7.9 421.607 8.152 421.415 8.488C421.231 8.816 421.139 9.208 421.139 9.664C421.139 10.12 421.231 10.52 421.415 10.864C421.607 11.208 421.855 11.472 422.159 11.656C422.471 11.832 422.799 11.92 423.143 11.92C423.495 11.92 423.823 11.832 424.127 11.656C424.431 11.48 424.675 11.224 424.859 10.888C425.051 10.544 425.147 10.144 425.147 9.688ZM434.312 6.388V13H432.944V12.22C432.728 12.492 432.444 12.708 432.092 12.868C431.748 13.02 431.38 13.096 430.988 13.096C430.468 13.096 430 12.988 429.584 12.772C429.176 12.556 428.852 12.236 428.612 11.812C428.38 11.388 428.264 10.876 428.264 10.276V6.388H429.62V10.072C429.62 10.664 429.768 11.12 430.064 11.44C430.36 11.752 430.764 11.908 431.276 11.908C431.788 11.908 432.192 11.752 432.488 11.44C432.792 11.12 432.944 10.664 432.944 10.072V6.388H434.312ZM436.813 5.512C436.565 5.512 436.357 5.428 436.189 5.26C436.021 5.092 435.937 4.884 435.937 4.636C435.937 4.388 436.021 4.18 436.189 4.012C436.357 3.844 436.565 3.76 436.813 3.76C437.053 3.76 437.257 3.844 437.425 4.012C437.593 4.18 437.677 4.388 437.677 4.636C437.677 4.884 437.593 5.092 437.425 5.26C437.257 5.428 437.053 5.512 436.813 5.512ZM437.485 6.388V13H436.117V6.388H437.485ZM438.825 9.664C438.825 9 438.961 8.412 439.233 7.9C439.513 7.388 439.889 6.992 440.361 6.712C440.841 6.424 441.373 6.28 441.957 6.28C442.389 6.28 442.813 6.376 443.229 6.568C443.653 6.752 443.989 7 444.237 7.312V4.12H445.617V13H444.237V12.004C444.013 12.324 443.701 12.588 443.301 12.796C442.909 13.004 442.457 13.108 441.945 13.108C441.369 13.108 440.841 12.964 440.361 12.676C439.889 12.38 439.513 11.972 439.233 11.452C438.961 10.924 438.825 10.328 438.825 9.664ZM444.237 9.688C444.237 9.232 444.141 8.836 443.949 8.5C443.765 8.164 443.521 7.908 443.217 7.732C442.913 7.556 442.585 7.468 442.233 7.468C441.881 7.468 441.553 7.556 441.249 7.732C440.945 7.9 440.697 8.152 440.505 8.488C440.321 8.816 440.229 9.208 440.229 9.664C440.229 10.12 440.321 10.52 440.505 10.864C440.697 11.208 440.945 11.472 441.249 11.656C441.561 11.832 441.889 11.92 442.233 11.92C442.585 11.92 442.913 11.832 443.217 11.656C443.521 11.48 443.765 11.224 443.949 10.888C444.141 10.544 444.237 10.144 444.237 9.688ZM453.279 13.084C452.719 13.084 452.215 12.988 451.767 12.796C451.319 12.596 450.967 12.316 450.711 11.956C450.455 11.596 450.327 11.176 450.327 10.696H451.791C451.823 11.056 451.963 11.352 452.211 11.584C452.467 11.816 452.823 11.932 453.279 11.932C453.751 11.932 454.119 11.82 454.383 11.596C454.647 11.364 454.779 11.068 454.779 10.708C454.779 10.428 454.695 10.2 454.527 10.024C454.367 9.848 454.163 9.712 453.915 9.616C453.675 9.52 453.339 9.416 452.907 9.304C452.363 9.16 451.919 9.016 451.575 8.872C451.239 8.72 450.951 8.488 450.711 8.176C450.471 7.864 450.351 7.448 450.351 6.928C450.351 6.448 450.471 6.028 450.711 5.668C450.951 5.308 451.287 5.032 451.719 4.84C452.151 4.648 452.651 4.552 453.219 4.552C454.027 4.552 454.687 4.756 455.199 5.164C455.719 5.564 456.007 6.116 456.063 6.82H454.551C454.527 6.516 454.383 6.256 454.119 6.04C453.855 5.824 453.507 5.716 453.075 5.716C452.683 5.716 452.363 5.816 452.115 6.016C451.867 6.216 451.743 6.504 451.743 6.88C451.743 7.136 451.819 7.348 451.971 7.516C452.131 7.676 452.331 7.804 452.571 7.9C452.811 7.996 453.139 8.1 453.555 8.212C454.107 8.364 454.555 8.516 454.899 8.668C455.251 8.82 455.547 9.056 455.787 9.376C456.035 9.688 456.159 10.108 456.159 10.636C456.159 11.06 456.043 11.46 455.811 11.836C455.587 12.212 455.255 12.516 454.815 12.748C454.383 12.972 453.871 13.084 453.279 13.084ZM459.369 7.504V11.164C459.369 11.412 459.425 11.592 459.537 11.704C459.657 11.808 459.857 11.86 460.137 11.86H460.977V13H459.897C459.281 13 458.809 12.856 458.481 12.568C458.153 12.28 457.989 11.812 457.989 11.164V7.504H457.209V6.388H457.989V4.744H459.369V6.388H460.977V7.504H459.369ZM461.782 9.664C461.782 9 461.918 8.412 462.19 7.9C462.47 7.388 462.846 6.992 463.318 6.712C463.798 6.424 464.326 6.28 464.902 6.28C465.422 6.28 465.874 6.384 466.258 6.592C466.65 6.792 466.962 7.044 467.194 7.348V6.388H468.574V13H467.194V12.016C466.962 12.328 466.646 12.588 466.246 12.796C465.846 13.004 465.39 13.108 464.878 13.108C464.31 13.108 463.79 12.964 463.318 12.676C462.846 12.38 462.47 11.972 462.19 11.452C461.918 10.924 461.782 10.328 461.782 9.664ZM467.194 9.688C467.194 9.232 467.098 8.836 466.906 8.5C466.722 8.164 466.478 7.908 466.174 7.732C465.87 7.556 465.542 7.468 465.19 7.468C464.838 7.468 464.51 7.556 464.206 7.732C463.902 7.9 463.654 8.152 463.462 8.488C463.278 8.816 463.186 9.208 463.186 9.664C463.186 10.12 463.278 10.52 463.462 10.864C463.654 11.208 463.902 11.472 464.206 11.656C464.518 11.832 464.846 11.92 465.19 11.92C465.542 11.92 465.87 11.832 466.174 11.656C466.478 11.48 466.722 11.224 466.906 10.888C467.098 10.544 467.194 10.144 467.194 9.688ZM472.987 9.7L476.035 13H474.187L471.739 10.156V13H470.371V4.12H471.739V9.28L474.139 6.388H476.035L472.987 9.7ZM477.711 5.512C477.463 5.512 477.255 5.428 477.087 5.26C476.919 5.092 476.835 4.884 476.835 4.636C476.835 4.388 476.919 4.18 477.087 4.012C477.255 3.844 477.463 3.76 477.711 3.76C477.951 3.76 478.155 3.844 478.323 4.012C478.491 4.18 478.575 4.388 478.575 4.636C478.575 4.884 478.491 5.092 478.323 5.26C478.155 5.428 477.951 5.512 477.711 5.512ZM478.383 6.388V13H477.015V6.388H478.383ZM483.515 6.28C484.035 6.28 484.499 6.388 484.907 6.604C485.323 6.82 485.647 7.14 485.879 7.564C486.111 7.988 486.227 8.5 486.227 9.1V13H484.871V9.304C484.871 8.712 484.723 8.26 484.427 7.948C484.131 7.628 483.727 7.468 483.215 7.468C482.703 7.468 482.295 7.628 481.991 7.948C481.695 8.26 481.547 8.712 481.547 9.304V13H480.179V6.388H481.547V7.144C481.771 6.872 482.055 6.66 482.399 6.508C482.751 6.356 483.123 6.28 483.515 6.28ZM490.636 6.28C491.148 6.28 491.6 6.384 491.992 6.592C492.392 6.792 492.704 7.044 492.928 7.348V6.388H494.308V13.108C494.308 13.716 494.18 14.256 493.924 14.728C493.668 15.208 493.296 15.584 492.808 15.856C492.328 16.128 491.752 16.264 491.08 16.264C490.184 16.264 489.44 16.052 488.848 15.628C488.256 15.212 487.92 14.644 487.84 13.924H489.196C489.3 14.268 489.52 14.544 489.856 14.752C490.2 14.968 490.608 15.076 491.08 15.076C491.632 15.076 492.076 14.908 492.412 14.572C492.756 14.236 492.928 13.748 492.928 13.108V12.004C492.696 12.316 492.38 12.58 491.98 12.796C491.588 13.004 491.14 13.108 490.636 13.108C490.06 13.108 489.532 12.964 489.052 12.676C488.58 12.38 488.204 11.972 487.924 11.452C487.652 10.924 487.516 10.328 487.516 9.664C487.516 9 487.652 8.412 487.924 7.9C488.204 7.388 488.58 6.992 489.052 6.712C489.532 6.424 490.06 6.28 490.636 6.28ZM492.928 9.688C492.928 9.232 492.832 8.836 492.64 8.5C492.456 8.164 492.212 7.908 491.908 7.732C491.604 7.556 491.276 7.468 490.924 7.468C490.572 7.468 490.244 7.556 489.94 7.732C489.636 7.9 489.388 8.152 489.196 8.488C489.012 8.816 488.92 9.208 488.92 9.664C488.92 10.12 489.012 10.52 489.196 10.864C489.388 11.208 489.636 11.472 489.94 11.656C490.252 11.832 490.58 11.92 490.924 11.92C491.276 11.92 491.604 11.832 491.908 11.656C492.212 11.48 492.456 11.224 492.64 10.888C492.832 10.544 492.928 10.144 492.928 9.688Z" fill="white"/>
<path d="M3.67317 395.83C4.56917 395.055 5.27384 394.421 5.78717 393.926C6.30984 393.422 6.74384 392.899 7.08917 392.358C7.43451 391.817 7.60717 391.275 7.60717 390.734C7.60717 390.174 7.47184 389.735 7.20117 389.418C6.93984 389.101 6.52451 388.942 5.95517 388.942C5.40451 388.942 4.97517 389.119 4.66717 389.474C4.36851 389.819 4.20984 390.286 4.19117 390.874H2.65117C2.67917 389.81 2.99651 388.998 3.60317 388.438C4.21917 387.869 4.99851 387.584 5.94117 387.584C6.95851 387.584 7.75184 387.864 8.32117 388.424C8.89984 388.984 9.18917 389.731 9.18917 390.664C9.18917 391.336 9.01651 391.985 8.67117 392.61C8.33517 393.226 7.92917 393.781 7.45317 394.276C6.98651 394.761 6.38917 395.326 5.66117 395.97L5.03117 396.53H9.46917V397.86H2.66517V396.698L3.67317 395.83ZM10.8713 392.764C10.8713 391.149 11.1419 389.889 11.6833 388.984C12.2339 388.069 13.1766 387.612 14.5113 387.612C15.8459 387.612 16.7839 388.069 17.3253 388.984C17.8759 389.889 18.1513 391.149 18.1513 392.764C18.1513 394.397 17.8759 395.676 17.3253 396.6C16.7839 397.515 15.8459 397.972 14.5113 397.972C13.1766 397.972 12.2339 397.515 11.6833 396.6C11.1419 395.676 10.8713 394.397 10.8713 392.764ZM16.5833 392.764C16.5833 392.008 16.5319 391.369 16.4293 390.846C16.3359 390.323 16.1399 389.899 15.8413 389.572C15.5426 389.236 15.0993 389.068 14.5113 389.068C13.9233 389.068 13.4799 389.236 13.1813 389.572C12.8826 389.899 12.6819 390.323 12.5793 390.846C12.4859 391.369 12.4393 392.008 12.4393 392.764C12.4393 393.548 12.4859 394.206 12.5793 394.738C12.6726 395.27 12.8686 395.699 13.1673 396.026C13.4753 396.353 13.9233 396.516 14.5113 396.516C15.0993 396.516 15.5426 396.353 15.8413 396.026C16.1493 395.699 16.3499 395.27 16.4433 394.738C16.5366 394.206 16.5833 393.548 16.5833 392.764ZM20.722 395.83C21.618 395.055 22.3227 394.421 22.836 393.926C23.3587 393.422 23.7927 392.899 24.138 392.358C24.4833 391.817 24.656 391.275 24.656 390.734C24.656 390.174 24.5207 389.735 24.25 389.418C23.9887 389.101 23.5733 388.942 23.004 388.942C22.4533 388.942 22.024 389.119 21.716 389.474C21.4173 389.819 21.2587 390.286 21.24 390.874H19.7C19.728 389.81 20.0453 388.998 20.652 388.438C21.268 387.869 22.0473 387.584 22.99 387.584C24.0073 387.584 24.8007 387.864 25.37 388.424C25.9487 388.984 26.238 389.731 26.238 390.664C26.238 391.336 26.0653 391.985 25.72 392.61C25.384 393.226 24.978 393.781 24.502 394.276C24.0353 394.761 23.438 395.326 22.71 395.97L22.08 396.53H26.518V397.86H19.714V396.698L20.722 395.83ZM27.9201 392.764C27.9201 391.149 28.1907 389.889 28.7321 388.984C29.2827 388.069 30.2254 387.612 31.5601 387.612C32.8947 387.612 33.8327 388.069 34.3741 388.984C34.9247 389.889 35.2001 391.149 35.2001 392.764C35.2001 394.397 34.9247 395.676 34.3741 396.6C33.8327 397.515 32.8947 397.972 31.5601 397.972C30.2254 397.972 29.2827 397.515 28.7321 396.6C28.1907 395.676 27.9201 394.397 27.9201 392.764ZM33.6321 392.764C33.6321 392.008 33.5807 391.369 33.4781 390.846C33.3847 390.323 33.1887 389.899 32.8901 389.572C32.5914 389.236 32.1481 389.068 31.5601 389.068C30.9721 389.068 30.5287 389.236 30.2301 389.572C29.9314 389.899 29.7307 390.323 29.6281 390.846C29.5347 391.369 29.4881 392.008 29.4881 392.764C29.4881 393.548 29.5347 394.206 29.6281 394.738C29.7214 395.27 29.9174 395.699 30.2161 396.026C30.5241 396.353 30.9721 396.516 31.5601 396.516C32.1481 396.516 32.5914 396.353 32.8901 396.026C33.1981 395.699 33.3987 395.27 33.4921 394.738C33.5854 394.206 33.6321 393.548 33.6321 392.764Z" fill="white"/>
<path d="M522.21 395.83C523.106 395.055 523.811 394.421 524.324 393.926C524.847 393.422 525.281 392.899 525.626 392.358C525.972 391.817 526.144 391.275 526.144 390.734C526.144 390.174 526.009 389.735 525.738 389.418C525.477 389.101 525.062 388.942 524.492 388.942C523.942 388.942 523.512 389.119 523.204 389.474C522.906 389.819 522.747 390.286 522.728 390.874H521.188C521.216 389.81 521.534 388.998 522.14 388.438C522.756 387.869 523.536 387.584 524.478 387.584C525.496 387.584 526.289 387.864 526.858 388.424C527.437 388.984 527.726 389.731 527.726 390.664C527.726 391.336 527.554 391.985 527.208 392.61C526.872 393.226 526.466 393.781 525.99 394.276C525.524 394.761 524.926 395.326 524.198 395.97L523.568 396.53H528.006V397.86H521.202V396.698L522.21 395.83ZM529.408 392.764C529.408 391.149 529.679 389.889 530.22 388.984C530.771 388.069 531.714 387.612 533.048 387.612C534.383 387.612 535.321 388.069 535.862 388.984C536.413 389.889 536.688 391.149 536.688 392.764C536.688 394.397 536.413 395.676 535.862 396.6C535.321 397.515 534.383 397.972 533.048 397.972C531.714 397.972 530.771 397.515 530.22 396.6C529.679 395.676 529.408 394.397 529.408 392.764ZM535.12 392.764C535.12 392.008 535.069 391.369 534.966 390.846C534.873 390.323 534.677 389.899 534.378 389.572C534.08 389.236 533.636 389.068 533.048 389.068C532.46 389.068 532.017 389.236 531.718 389.572C531.42 389.899 531.219 390.323 531.116 390.846C531.023 391.369 530.976 392.008 530.976 392.764C530.976 393.548 531.023 394.206 531.116 394.738C531.21 395.27 531.406 395.699 531.704 396.026C532.012 396.353 532.46 396.516 533.048 396.516C533.636 396.516 534.08 396.353 534.378 396.026C534.686 395.699 534.887 395.27 534.98 394.738C535.074 394.206 535.12 393.548 535.12 392.764ZM539.259 395.83C540.155 395.055 540.86 394.421 541.373 393.926C541.896 393.422 542.33 392.899 542.675 392.358C543.02 391.817 543.193 391.275 543.193 390.734C543.193 390.174 543.058 389.735 542.787 389.418C542.526 389.101 542.11 388.942 541.541 388.942C540.99 388.942 540.561 389.119 540.253 389.474C539.954 389.819 539.796 390.286 539.777 390.874H538.237C538.265 389.81 538.582 388.998 539.189 388.438C539.805 387.869 540.584 387.584 541.527 387.584C542.544 387.584 543.338 387.864 543.907 388.424C544.486 388.984 544.775 389.731 544.775 390.664C544.775 391.336 544.602 391.985 544.257 392.61C543.921 393.226 543.515 393.781 543.039 394.276C542.572 394.761 541.975 395.326 541.247 395.97L540.617 396.53H545.055V397.86H538.251V396.698L539.259 395.83ZM546.247 389.25V387.794H549.159V398H547.549V389.25H546.247Z" fill="white"/>
</g>
<defs>
<linearGradient id="paint0_linear_1995_785" x1="418.533" y1="303.464" x2="418.533" y2="417.831" gradientUnits="userSpaceOnUse">
<stop stop-color="#E50913" stop-opacity="0.5"/>
<stop offset="1" stop-color="#E50913" stop-opacity="0"/>
</linearGradient>
<linearGradient id="paint1_linear_1995_785" x1="341.584" y1="130.461" x2="341.584" y2="376.272" gradientUnits="userSpaceOnUse">
<stop stop-color="#C4C4C4" stop-opacity="0.2"/>
<stop offset="1" stop-color="#C4C4C4" stop-opacity="0"/>
</linearGradient>
<clipPath id="clip0_1995_785">
<rect width="682" height="401" fill="white" transform="translate(0.5)"/>
</clipPath>
</defs>
</svg>
