<svg width="62" height="62" viewBox="0 0 62 62" fill="none" xmlns="http://www.w3.org/2000/svg">
<path d="M23.917 27.0684C24.4168 27.0684 24.861 27.1633 25.2498 27.3531C25.6385 27.5429 25.9647 27.81 26.2285 28.1544C26.4992 28.4918 26.7005 28.8855 26.8324 29.3353C26.9712 29.7782 27.0407 30.2527 27.0407 30.7588C27.0407 31.4406 26.9192 32.0627 26.6762 32.6251C26.4333 33.1804 26.0793 33.6232 25.6142 33.9536C25.156 34.284 24.5903 34.4492 23.917 34.4492H21.4285C21.248 34.4492 21.0953 34.3894 20.9703 34.2699C20.8523 34.1434 20.7933 33.9887 20.7933 33.806V27.7116C20.7933 27.5288 20.8523 27.3777 20.9703 27.2582C21.0953 27.1316 21.248 27.0684 21.4285 27.0684H23.917ZM23.8129 33.2366C24.2502 33.2366 24.6077 33.1241 24.8853 32.8992C25.163 32.6672 25.3643 32.365 25.4892 31.9924C25.6211 31.6128 25.6871 31.2016 25.6871 30.7588C25.6871 30.4284 25.6489 30.1156 25.5725 29.8204C25.5031 29.5181 25.3921 29.2545 25.2393 29.0296C25.0866 28.7976 24.8923 28.6148 24.6563 28.4813C24.4202 28.3477 24.1391 28.2809 23.8129 28.2809H21.9907H22.0948V33.2366H22.0324H23.8129Z" fill="white"/>
<path d="M30.8513 34.5546C30.2612 34.5546 29.7476 34.4316 29.3102 34.1856C28.8799 33.9325 28.5467 33.5916 28.3107 33.1628C28.0816 32.734 27.9671 32.249 27.9671 31.7077C27.9671 31.0751 28.092 30.5373 28.3419 30.0945C28.5987 29.6446 28.9319 29.3002 29.3415 29.0612C29.751 28.8222 30.1849 28.7027 30.643 28.7027C30.997 28.7027 31.3302 28.7765 31.6426 28.9241C31.9619 29.0717 32.243 29.2756 32.486 29.5357C32.7289 29.7887 32.9198 30.084 33.0587 30.4214C33.2044 30.7588 33.2773 31.1173 33.2773 31.4968C33.2704 31.6655 33.2044 31.8026 33.0795 31.9081C32.9545 32.0135 32.8088 32.0662 32.6422 32.0662H29.2163L29.1231 31.5357L29.2097 31.0219L31.9317 30.9808L31.9445 30.938C31.9307 30.7342 31.8578 30.5514 31.7259 30.3897C31.6009 30.2281 31.4413 30.1015 31.2469 30.0101C31.0595 29.9117 30.8582 29.8625 30.643 29.8625C30.4348 29.8625 30.2404 29.8906 30.0599 29.9469C29.8794 30.0031 29.7233 30.098 29.5914 30.2316C29.4595 30.3651 29.3554 30.5444 29.279 30.7693C29.2026 30.9942 29.1916 31.1195 29.1231 31.5357C29.2038 31.9969 29.2408 32.3263 29.3935 32.5934C29.5532 32.8535 29.7545 33.0538 29.9975 33.1944C30.2473 33.328 30.5111 33.3948 30.7888 33.3948C31.0456 33.3948 31.2504 33.3737 31.4031 33.3315C31.5558 33.2893 31.6773 33.2401 31.7675 33.1839C31.8647 33.1206 31.9515 33.0679 32.0278 33.0257C32.1528 32.9625 32.2708 32.9308 32.3819 32.9308C32.5346 32.9308 32.6595 32.9835 32.7567 33.089C32.8608 33.1944 32.9129 33.3174 32.9129 33.458C32.9129 33.6478 32.8157 33.82 32.6213 33.9747C32.4409 34.1293 32.1875 34.2664 31.8612 34.3859C31.535 34.4984 31.1983 34.5546 30.8513 34.5546Z" fill="white"/>
<path d="M35.1428 34.4492C34.9484 34.4492 34.7887 34.3894 34.6638 34.2699C34.5458 34.1434 34.4868 33.9887 34.4868 33.806V27.7116C34.4868 27.5288 34.5458 27.3777 34.6638 27.2582C34.7887 27.1316 34.9415 27.0684 35.1219 27.0684H38.5059C38.6864 27.0684 38.8356 27.1281 38.9537 27.2476C39.0786 27.3601 39.1411 27.5077 39.1411 27.6905C39.1411 27.8451 39.0786 27.9822 38.9537 28.1017C38.8356 28.2212 38.6864 28.2809 38.5059 28.2809H35.6946H35.7883V30.1367H35.7154H38.0374C38.2179 30.1367 38.3671 30.1964 38.4851 30.3159C38.6101 30.4284 38.6725 30.576 38.6725 30.7588C38.6725 30.9134 38.6101 31.0505 38.4851 31.17C38.3671 31.2895 38.2179 31.3492 38.0374 31.3492H35.6946H35.7883V33.806C35.7883 33.9887 35.7224 34.1434 35.5905 34.2699C35.4655 34.3894 35.3163 34.4492 35.1428 34.4492Z" fill="white"/>
<path d="M41.4197 33.806C41.4197 33.9887 41.3607 34.1434 41.2427 34.2699C41.1247 34.3894 40.9754 34.4492 40.795 34.4492C40.6145 34.4492 40.4652 34.3894 40.3472 34.2699C40.2292 34.1434 40.1702 33.9887 40.1702 33.806V29.4513C40.1702 29.2686 40.2292 29.1174 40.3472 28.9979C40.4652 28.8714 40.6145 28.8081 40.795 28.8081C40.9754 28.8081 41.1247 28.8714 41.2427 28.9979C41.3607 29.1174 41.4197 29.2686 41.4197 29.4513V33.806ZM40.7845 28.1228C40.5485 28.1228 40.3819 28.0841 40.2847 28.0068C40.1876 27.9295 40.139 27.7924 40.139 27.5956V27.3952C40.139 27.1914 40.191 27.0543 40.2952 26.984C40.4062 26.9067 40.5728 26.868 40.795 26.868C41.0379 26.868 41.208 26.9067 41.3052 26.984C41.4023 27.0613 41.4509 27.1984 41.4509 27.3952V27.5956C41.4509 27.7994 41.3989 27.94 41.2947 28.0173C41.1906 28.0876 41.0205 28.1228 40.7845 28.1228Z" fill="white"/>
<path d="M21.4631 39.7348L16.8053 44.3926C15.9057 43.7306 14.8259 43.3679 13.6881 43.3679C12.2774 43.3679 10.9516 43.9173 9.95471 44.9146C7.89604 46.9733 7.89604 50.3231 9.95471 52.3814C10.952 53.3787 12.2774 53.9281 13.6881 53.9281C15.0984 53.9281 16.4245 53.3787 17.4215 52.3814C19.2861 50.5167 19.456 47.5959 17.9427 45.5316L22.6013 40.873C22.9157 40.5586 22.9157 40.0491 22.6013 39.7348C22.287 39.4204 21.7779 39.4204 21.4631 39.7348ZM16.2836 51.2428C15.5902 51.9359 14.6685 52.3178 13.6885 52.3178C12.7076 52.3178 11.7864 51.9359 11.0933 51.2428C9.66251 49.812 9.66251 47.4837 11.0933 46.0524C11.7868 45.3594 12.708 44.9774 13.6885 44.9774C14.6689 44.9774 15.5906 45.3594 16.2836 46.0524C17.7145 47.4837 17.7145 49.812 16.2836 51.2428Z" fill="white" stroke="white"/>
<path d="M40.5361 22.2652L45.1943 17.6069C46.1192 18.2847 47.2136 18.6296 48.3107 18.6296C49.6626 18.6296 51.0153 18.1153 52.0441 17.0857C54.1023 15.0271 54.1023 11.6773 52.0441 9.61859C49.9866 7.56032 46.636 7.55952 44.5769 9.61859C42.7127 11.4833 42.5428 14.404 44.0557 16.4683L39.3979 21.127C39.0835 21.4413 39.0835 21.9509 39.3979 22.2652C39.5552 22.4226 39.7609 22.5011 39.967 22.5011C40.173 22.5011 40.3787 22.4222 40.5361 22.2652ZM45.7155 10.7572C46.4311 10.0416 47.3709 9.68379 48.3107 9.68379C49.2505 9.68379 50.1907 10.0416 50.9059 10.7568C52.3367 12.188 52.3367 14.5163 50.9059 15.9471C49.4743 17.3779 47.1467 17.3779 45.7155 15.9471C44.2851 14.5163 44.2851 12.188 45.7155 10.7572Z" fill="white" stroke="white"/>
<path d="M29.957 11.4922V18.0803C29.957 18.5246 30.3176 18.8853 30.7619 18.8853C31.2063 18.8853 31.5669 18.5246 31.5669 18.0803V11.4922C34.0965 11.1026 36.0416 8.91712 36.0416 6.28009C36.0416 3.36857 33.673 1 30.7619 1C27.8504 1 25.4818 3.36857 25.4818 6.28009C25.4818 8.91712 27.427 11.1026 29.957 11.4922ZM30.7619 2.60991C32.7852 2.60991 34.4317 4.25644 34.4317 6.28009C34.4317 8.30374 32.7852 9.95027 30.7619 9.95027C28.7383 9.95027 27.0918 8.30374 27.0918 6.28009C27.0918 4.25644 28.7383 2.60991 30.7619 2.60991Z" fill="white" stroke="white"/>
<path d="M13.3516 18.9686C14.4898 18.9686 15.5693 18.6056 16.4688 17.9439L21.1267 22.6018C21.284 22.7592 21.4897 22.8376 21.6958 22.8376C21.9018 22.8376 22.1075 22.7592 22.2649 22.6018C22.5792 22.2875 22.5792 21.7779 22.2649 21.4636L17.607 16.8057C18.2691 15.9062 18.6317 14.8263 18.6317 13.6885C18.6317 12.2783 18.0827 10.9525 17.085 9.95517C16.0877 8.95783 14.7623 8.40845 13.3516 8.40845C11.9413 8.40845 10.6156 8.95783 9.61865 9.95517C8.62091 10.9525 8.07193 12.2783 8.07193 13.6885C8.07193 15.0988 8.62091 16.425 9.61865 17.4219C10.6156 18.4197 11.9413 18.9686 13.3516 18.9686ZM10.7569 11.0938C11.4503 10.4007 12.3716 10.0188 13.3516 10.0188C14.3325 10.0188 15.2537 10.4007 15.9468 11.0938C16.6403 11.7872 17.0218 12.7089 17.0218 13.6889C17.0218 14.6694 16.6403 15.591 15.9468 16.2841C15.2533 16.9772 14.3321 17.3591 13.3516 17.3591C12.3712 17.3591 11.4499 16.9772 10.7569 16.2841C10.0634 15.5906 9.68184 14.669 9.68184 13.6889C9.68184 12.7085 10.0634 11.7868 10.7569 11.0938Z" fill="white" stroke="white"/>
<path d="M11.4918 32.0431H18.0799C18.5242 32.0431 18.8849 31.6824 18.8849 31.2381C18.8849 30.7938 18.5242 30.4331 18.0799 30.4331H11.4918C11.1022 27.9036 8.91712 25.958 6.28009 25.958C3.36857 25.958 1 28.3266 1 31.2381C1 34.1496 3.36817 36.5178 6.28009 36.5178C8.91712 36.5178 11.1022 34.5726 11.4918 32.0431ZM6.28009 34.9079C4.25644 34.9079 2.60991 33.2613 2.60991 31.2377C2.60991 29.214 4.25644 27.5675 6.28009 27.5675C8.30334 27.5675 9.94987 29.214 9.94987 31.2377C9.94987 33.2613 8.30334 34.9079 6.28009 34.9079Z" fill="white" stroke="white"/>
<path d="M32.0426 50.5078V43.9197C32.0426 43.4754 31.682 43.1147 31.2377 43.1147C30.7933 43.1147 30.4327 43.4754 30.4327 43.9197V50.5078C27.9031 50.8974 25.958 53.0829 25.958 55.7199C25.958 58.6314 28.3266 61 31.2377 61C34.1492 61 36.5178 58.6314 36.5178 55.7199C36.5178 53.0825 34.5726 50.8974 32.0426 50.5078ZM31.2377 59.3901C29.2144 59.3901 27.5679 57.7436 27.5679 55.7199C27.5679 53.6963 29.2144 52.0497 31.2377 52.0497C33.2613 52.0497 34.9078 53.6963 34.9078 55.7199C34.9078 57.7436 33.2613 59.3901 31.2377 59.3901Z" fill="white" stroke="white"/>
<path d="M48.6476 43.0314C47.5094 43.0314 46.4299 43.3944 45.5304 44.0561L40.8726 39.3982C40.5582 39.0839 40.0487 39.0839 39.7343 39.3982C39.42 39.7126 39.42 40.2221 39.7343 40.5364L44.3922 45.1943C43.7301 46.0938 43.3675 47.1733 43.3675 48.3115C43.3675 49.7218 43.9165 51.0479 44.9142 52.0448C45.9438 53.0744 47.2957 53.5887 48.6472 53.5887C49.9991 53.5887 51.3514 53.074 52.3806 52.0448C54.4392 49.9862 54.4392 46.6364 52.3806 44.5781C51.3836 43.5804 50.0579 43.0314 48.6476 43.0314ZM51.2428 50.9062C49.8116 52.337 47.4828 52.3366 46.0524 50.9062C45.359 50.2128 44.9774 49.2911 44.9774 48.3111C44.9774 47.331 45.359 46.4094 46.0524 45.7159C46.7459 45.0228 47.6672 44.6409 48.6476 44.6409C49.628 44.6409 50.5493 45.0228 51.2424 45.7159C52.6732 47.1471 52.6732 49.4754 51.2428 50.9062Z" fill="white" stroke="white"/>
<path d="M55.7195 25.4823C53.0825 25.4823 50.8974 27.4275 50.5078 29.9574H43.9197C43.4754 29.9574 43.1147 30.3181 43.1147 30.7624C43.1147 31.2067 43.4754 31.5673 43.9197 31.5673H50.5078C50.8974 34.0969 53.0825 36.0425 55.7195 36.0425C58.631 36.0425 60.9996 33.6739 60.9996 30.7624C60.9996 27.8509 58.631 25.4823 55.7195 25.4823ZM55.7195 34.4322C53.6963 34.4322 52.0497 32.7856 52.0497 30.762C52.0497 28.7383 53.6963 27.0918 55.7195 27.0918C57.7432 27.0918 59.3897 28.7383 59.3897 30.762C59.3897 32.7856 57.7432 34.4322 55.7195 34.4322Z" fill="white" stroke="white"/>
</svg>
