<svg width="41" height="51" viewBox="0 0 41 51" fill="none" xmlns="http://www.w3.org/2000/svg">
<path d="M20.4997 0.917969C7.39676 12.1034 0.833008 21.7646 0.833008 29.9263C0.833008 42.1688 10.1747 50.0846 20.4997 50.0846C30.8247 50.0846 40.1663 42.1688 40.1663 29.9263C40.1663 21.7646 33.6026 12.1034 20.4997 0.917969ZM20.4997 45.168C12.2643 45.168 5.74967 38.8501 5.74967 29.9263C5.74967 24.1738 10.5434 16.553 20.4997 7.45714C30.4559 16.553 35.2497 24.1492 35.2497 29.9263C35.2497 38.8501 28.7351 45.168 20.4997 45.168ZM10.2484 30.418C11.158 30.418 11.8955 31.0571 12.0676 31.9421C13.0755 37.3996 17.6726 39.268 21.0159 38.9976C22.073 38.9484 22.958 39.7842 22.958 40.8413C22.958 41.8246 22.1713 42.6359 21.188 42.6851C15.9518 43.0046 9.83051 40.0055 8.42926 32.5567C8.38654 32.2932 8.40157 32.0234 8.47332 31.7663C8.54507 31.5091 8.67183 31.2705 8.84483 31.0672C9.01782 30.8638 9.23293 30.7004 9.47527 30.5883C9.71762 30.4762 9.98141 30.4181 10.2484 30.418Z" fill="#F8F8F8"/>
</svg>
