<svg width="50" height="50" viewBox="0 0 50 50" fill="none" xmlns="http://www.w3.org/2000/svg">
<path d="M7.14286 7.14286C7.14286 5.24845 7.89541 3.43164 9.23495 2.09209C10.5745 0.752549 12.3913 0 14.2857 0C16.1801 0 17.9969 0.752549 19.3365 2.09209C20.676 3.43164 21.4286 5.24845 21.4286 7.14286C21.4286 9.03726 20.676 10.8541 19.3365 12.1936C17.9969 13.5332 16.1801 14.2857 14.2857 14.2857C12.3913 14.2857 10.5745 13.5332 9.23495 12.1936C7.89541 10.8541 7.14286 9.03726 7.14286 7.14286ZM31.3536 12.8L31.5036 12.9143C33.0189 14.0375 34.917 14.5158 36.7837 14.2447C38.6503 13.9736 40.334 12.9752 41.4672 11.4673C42.6004 9.95938 43.0912 8.06447 42.8324 6.19607C42.5736 4.32767 41.5863 2.63747 40.086 1.49433C38.5856 0.351187 36.694 -0.152084 34.8239 0.0943469C32.9538 0.340777 31.2571 1.3169 30.1041 2.8097C28.9511 4.30249 28.4354 6.19076 28.6694 8.06241C28.9035 9.93407 29.8684 11.6372 31.3536 12.8ZM18.8143 17.8571C19.2629 17.0077 19.8782 16.2575 20.6234 15.6514C21.3686 15.0453 22.2284 14.5957 23.1514 14.3295C24.0744 14.0634 25.0415 13.9861 25.9951 14.1024C26.9486 14.2187 27.8689 14.5261 28.7008 15.0062C29.5328 15.4864 30.2594 16.1294 30.8371 16.8969C31.4148 17.6643 31.8318 18.5404 32.0631 19.4727C32.2945 20.405 32.3353 21.3744 32.1833 22.3229C32.0314 23.2714 31.6896 24.1795 31.1786 24.9929C30.1954 26.5576 28.6441 27.6804 26.8505 28.1254C25.0569 28.5704 23.1606 28.303 21.5601 27.3792C19.9595 26.4555 18.7793 24.9474 18.2673 23.1718C17.7552 21.3962 17.9513 19.4912 18.8143 17.8571ZM5.35714 17.8571H14.8929C14.2581 19.6698 14.1201 21.6194 14.4931 23.5035C14.8662 25.3875 15.7367 27.1374 17.0143 28.5714H16.0714C14.2301 28.5712 12.4337 29.14 10.9282 30.1999C9.42257 31.2599 8.28135 32.7593 7.66071 34.4929C6.46191 34.0113 5.33946 33.358 4.32857 32.5536C1.64286 30.3929 0 27.2 0 23.2143C0 21.7935 0.564412 20.4309 1.56907 19.4262C2.57373 18.4216 3.93634 17.8571 5.35714 17.8571ZM33.9286 28.5714C35.7694 28.5714 37.5652 29.1403 39.0702 30.2003C40.5752 31.2603 41.7157 32.7596 42.3357 34.4929C43.55 33.9964 44.675 33.35 45.6714 32.5536C48.3571 30.3929 50 27.2 50 23.2143C50 21.7935 49.4356 20.4309 48.4309 19.4262C47.4263 18.4216 46.0637 17.8571 44.6429 17.8571H35.1071C35.5 18.975 35.7143 20.1786 35.7143 21.4286C35.7176 24.0647 34.7457 26.6089 32.9857 28.5714H33.9286ZM38.8821 35.4571C39.1429 36.0857 39.2857 36.7786 39.2857 37.5C39.2857 41.4857 37.6464 44.6786 34.9571 46.8393C32.3107 48.9643 28.7607 50 25 50C21.2393 50 17.6893 48.9643 15.0429 46.8393C12.3571 44.6786 10.7143 41.4857 10.7143 37.5C10.7124 36.796 10.8497 36.0985 11.1182 35.4477C11.3868 34.7969 11.7813 34.2056 12.2792 33.7077C12.777 33.2099 13.3683 32.8154 14.0191 32.5468C14.6699 32.2783 15.3674 32.141 16.0714 32.1429H33.9286C34.9897 32.1426 36.0269 32.4575 36.9088 33.0475C37.7907 33.6376 38.4775 34.4762 38.8821 35.4571Z" fill="#C33B3D"/>
</svg>
