<svg width="230" height="231" viewBox="0 0 230 231" fill="none" xmlns="http://www.w3.org/2000/svg">
<path d="M221.94 107.148H8V118.268H221.94V107.148Z" fill="#0A0A0A"/>
<g filter="url(#filter0_d_1952_201)">
<path d="M115 215.02C174.094 215.02 222 167.11 222 108.01C222 48.91 174.094 1 115 1C55.9055 1 8 48.91 8 108.01C8 167.11 55.9055 215.02 115 215.02Z" fill="#262626"/>
</g>
<path opacity="0.5" d="M114.97 136.96C168.845 136.96 216 108.283 216 73.5C204 37.5 169 1.5 114.97 1C91.5509 1 74.5 7.5 57.5 17.5C37.5 31.5 24 47 15.5 69C15.5 103.783 61.0945 136.96 114.97 136.96Z" fill="url(#paint0_linear_1952_201)"/>
<path d="M202.043 109.565C202.32 61.4842 163.571 22.2823 115.496 22.0054C67.4202 21.7285 28.2227 60.4814 27.9458 108.563C27.6688 156.644 66.4173 195.846 114.493 196.122C162.568 196.399 201.766 157.646 202.043 109.565Z" fill="#262626" stroke="#0A0A0A" stroke-width="3.99" stroke-miterlimit="10"/>
<path d="M115 29.9309C137.212 29.9667 158.572 38.4803 174.719 53.7331C190.866 68.9858 200.581 89.8271 201.88 112.001C201.97 110.351 202.02 108.691 202.02 107.001C202.144 95.4901 199.983 84.0692 195.663 73.399C191.344 62.7288 184.951 53.0212 176.855 44.8379C168.759 36.6546 159.12 30.1581 148.497 25.7244C137.874 21.2907 126.477 19.0078 114.965 19.0078C103.454 19.0078 92.0568 21.2907 81.4335 25.7244C70.8102 30.1581 61.1716 36.6546 53.0756 44.8379C44.9795 53.0212 38.5867 62.7288 34.2671 73.399C29.9475 84.0692 27.7869 95.4901 27.9103 107.001C27.9103 108.671 27.9703 110.331 28.0603 112.001C29.358 89.816 39.0808 68.9646 55.2408 53.7098C71.4008 38.455 92.7775 29.949 115 29.9309V29.9309Z" fill="#0A0A0A"/>
<path d="M144.46 108.461C144.494 112.111 143.592 115.709 141.84 118.911C139.961 122.153 137.182 124.779 133.84 126.471C130.233 128.405 125.75 129.368 120.39 129.361H110.5V152.871H94.5V87.3812H120.35C124.921 87.2399 129.461 88.1679 133.61 90.0912C137.008 91.7005 139.839 94.3014 141.73 97.5512C143.582 100.885 144.524 104.648 144.46 108.461V108.461ZM119.16 116.671C122.207 116.671 124.477 115.958 125.97 114.531C127.416 112.841 128.21 110.69 128.21 108.466C128.21 106.242 127.416 104.091 125.97 102.401C124.483 100.968 122.213 100.251 119.16 100.251H110.48V116.671H119.16Z" fill="white"/>
<path d="M144.79 69.2617H94.5195V79.8017H144.79V69.2617Z" fill="#E50913"/>
<defs>
<filter id="filter0_d_1952_201" x="0" y="0" width="230" height="230.02" filterUnits="userSpaceOnUse" color-interpolation-filters="sRGB">
<feFlood flood-opacity="0" result="BackgroundImageFix"/>
<feColorMatrix in="SourceAlpha" type="matrix" values="0 0 0 0 0 0 0 0 0 0 0 0 0 0 0 0 0 0 127 0" result="hardAlpha"/>
<feOffset dy="7"/>
<feGaussianBlur stdDeviation="4"/>
<feComposite in2="hardAlpha" operator="out"/>
<feColorMatrix type="matrix" values="0 0 0 0 0 0 0 0 0 0 0 0 0 0 0 0 0 0 0.32 0"/>
<feBlend mode="normal" in2="BackgroundImageFix" result="effect1_dropShadow_1952_201"/>
<feBlend mode="normal" in="SourceGraphic" in2="effect1_dropShadow_1952_201" result="shape"/>
</filter>
<linearGradient id="paint0_linear_1952_201" x1="115.75" y1="1" x2="115.75" y2="136.96" gradientUnits="userSpaceOnUse">
<stop stop-color="white" stop-opacity="0.59"/>
<stop offset="0.9999" stop-color="white" stop-opacity="0"/>
</linearGradient>
</defs>
</svg>
