<svg width="112" height="25" viewBox="0 0 112 25" fill="none" xmlns="http://www.w3.org/2000/svg">
<path d="M52.2677 0.707031V20.4841H56.7733V15.5073L60.2604 20.4841H65.6878L60.7167 13.4222L65.5353 6.67263H60.1058L56.7733 11.3435V0.707031H52.2677Z" fill="white"/>
<path d="M111.453 10.8338V20.3712H107.012V10.9383C107.012 9.97628 106.196 9.19226 105.195 9.19226C104.188 9.19226 103.372 9.97628 103.372 10.9383V20.3712H98.9297V0.546875H103.372V6.96735C104.221 6.35779 105.274 5.99333 106.412 5.99333C109.197 5.99333 111.453 8.15891 111.453 10.8338Z" fill="white"/>
<path d="M44.4204 6.52688V7.21131C43.2133 6.46402 41.7795 6.02539 40.2348 6.02539C35.9657 6.02539 32.5048 9.34793 32.5048 13.446C32.5048 17.5441 35.9657 20.8666 40.2348 20.8666C41.7795 20.8666 43.2133 20.4273 44.4204 19.6786V20.4012H48.8597V6.52688H44.4204ZM40.8846 17.0596C38.7084 17.0596 36.9461 15.3658 36.9461 13.2786C36.9461 11.1893 38.7084 9.49767 40.8846 9.49767C43.0586 9.49767 44.823 11.1893 44.823 13.2786C44.823 15.3658 43.0586 17.0596 40.8846 17.0596Z" fill="white"/>
<path d="M76.4975 6.52688V7.21131C75.2904 6.46402 73.8566 6.02539 72.3119 6.02539C68.0429 6.02539 64.5812 9.34793 64.5812 13.446C64.5812 17.5441 68.0429 20.8666 72.3119 20.8666C73.8566 20.8666 75.2904 20.4273 76.4975 19.6786V20.4012H80.9368V6.52688H76.4975ZM72.9617 17.0596C70.7855 17.0596 69.0232 15.3658 69.0232 13.2786C69.0232 11.1893 70.7855 9.49767 72.9617 9.49767C75.1358 9.49767 76.9001 11.1893 76.9001 13.2786C76.9001 15.3658 75.1358 17.0596 72.9617 17.0596Z" fill="white"/>
<path d="M87.4214 15.8947C87.4412 16.1786 87.5196 16.4209 87.6538 16.6144C87.7951 16.8178 87.9801 16.9852 88.2033 17.1124C88.4435 17.2487 88.7246 17.3497 89.0424 17.414C89.3758 17.4818 89.7247 17.5171 90.08 17.5171C90.881 17.5171 91.4835 17.3998 91.8734 17.1717C92.2018 16.9782 92.3494 16.7726 92.3494 16.5014C92.3494 16.3757 92.3219 16.2725 92.2675 16.1871C92.2364 16.1369 92.1474 16.0338 91.9101 15.9067C91.6869 15.7866 91.3782 15.6715 90.9912 15.5669C90.585 15.4553 90.0567 15.3409 89.4217 15.2258C88.5777 15.0654 87.7937 14.8578 87.0895 14.6141C86.3704 14.3634 85.7425 14.0533 85.2255 13.6938C84.688 13.3194 84.2613 12.8822 83.9562 12.3892C83.6405 11.8785 83.4794 11.288 83.4794 10.6326C83.4794 10.0039 83.6391 9.39367 83.9513 8.82226C84.2592 8.2579 84.7063 7.75571 85.2799 7.33615C85.8407 6.92296 86.5279 6.5924 87.3254 6.35154C88.1129 6.11492 89.0092 5.99414 89.9896 5.99414C91.0117 5.99414 91.944 6.11139 92.7633 6.34306C93.594 6.57827 94.313 6.90953 94.8971 7.32556C95.4947 7.75218 95.9595 8.26991 96.2766 8.86252C96.598 9.45865 96.7597 10.112 96.7597 10.807H92.1933C92.1933 10.4164 92.0372 10.1099 91.701 9.84148C91.3472 9.55966 90.7715 9.41627 89.9896 9.41627C89.2543 9.41627 88.7048 9.53494 88.3594 9.77014C88.0564 9.97568 87.9166 10.1968 87.9166 10.4708C87.9166 10.5994 87.9441 10.7166 87.9985 10.8261C88.0458 10.9186 88.144 11.0126 88.2909 11.1051C88.4724 11.2181 88.7373 11.3262 89.0763 11.4258C89.4359 11.5317 89.9027 11.6256 90.4614 11.7026C91.333 11.8404 92.1495 12.0162 92.8954 12.2303C93.6653 12.4499 94.3406 12.7395 94.9049 13.0892C95.4912 13.4536 95.9573 13.9064 96.2935 14.4326C96.6382 14.9729 96.812 15.6192 96.812 16.3509C96.812 17.0276 96.6396 17.6598 96.3006 18.2312C95.9665 18.792 95.4912 19.2822 94.883 19.6841C94.2911 20.0782 93.5707 20.3883 92.7414 20.6044C91.9242 20.8184 91.0025 20.9265 90.0023 20.9265C88.8969 20.9265 87.9024 20.7838 87.0457 20.5034C86.1854 20.2195 85.4522 19.843 84.8638 19.3811C84.267 18.9128 83.8079 18.3703 83.4971 17.7692C83.1835 17.1646 83.0253 16.5445 83.0253 15.9257L87.4214 15.8947Z" fill="white"/>
<path d="M9.18225 0L23.4888 24.7213L28.253 16.4799L18.7176 0H9.18225Z" fill="#F34C2D"/>
<path d="M9.18225 16.9531L14.13 24.7227H24.015L19.0743 16.9531H9.18225Z" fill="#BE312D"/>
<path d="M4.94426 7.77148L0 16.2474L4.94779 24.7232L14.8328 7.77148H4.94426Z" fill="#F34C2D"/>
</svg>
