<svg width="112" height="30" viewBox="0 0 112 30" fill="none" xmlns="http://www.w3.org/2000/svg">
<path d="M107.95 22.9086C106.018 22.9086 104.454 21.337 104.454 19.4128V14.0463H102.285V12.1144H104.454V10.1211H106.386V12.1144H110.005V14.0463H106.386V19.4128C106.386 20.2791 107.091 20.9844 107.958 20.9844H109.644C110.641 20.9844 111.454 21.797 111.454 22.7936V22.9163H107.95V22.9086Z" fill="url(#paint0_linear)"/>
<path d="M38.5772 10.1211H36.6453V22.9086H38.5772V10.1211Z" fill="white"/>
<path d="M57.3979 10.1211H55.466V22.9086H57.3979V10.1211Z" fill="white"/>
<path d="M59.8133 22.9086V22.7936C59.8133 21.797 60.6259 20.9844 61.6225 20.9844H68.2003C68.6833 20.9844 69.1356 20.7927 69.4653 20.4401C69.8026 20.0874 69.9712 19.6274 69.9482 19.1444C69.9022 18.2091 69.1126 17.4808 68.1543 17.4808H63.4931C62.4888 17.4808 61.5535 17.0822 60.8559 16.3692C60.1583 15.6486 59.7903 14.7056 59.8133 13.7013C59.8669 11.731 61.5535 10.1211 63.5698 10.1211H70.9679V10.2438C70.9679 11.2404 70.1552 12.053 69.1586 12.053H63.4855C63.0025 12.053 62.5502 12.2447 62.2205 12.5973C61.8832 12.95 61.7145 13.41 61.7375 13.893C61.7835 14.8283 62.5732 15.5566 63.5315 15.5566H68.1926C69.1969 15.5566 70.1322 15.9552 70.8299 16.6682C71.5275 17.3888 71.8955 18.3318 71.8725 19.3361C71.8188 21.3064 70.1322 22.9163 68.116 22.9163H59.8133V22.9086Z" fill="white"/>
<path d="M51.6864 22.9086C51.0577 22.9086 50.4751 22.625 50.0841 22.142L46.6496 17.8412H44.2423V17.7185C44.2423 16.7219 45.055 15.9092 46.0516 15.9092H49.1871C50.2528 15.9092 51.1191 15.0429 51.1191 13.9773V12.5283C51.1191 12.26 50.9044 12.0454 50.6361 12.0454H43.399C43.1307 12.0454 42.916 12.26 42.916 12.5283V22.9086H40.9918V11.4474C40.9918 10.7191 41.5897 10.1211 42.318 10.1211H51.7324C52.4607 10.1211 53.0587 10.7191 53.0587 11.4474V13.985C53.0587 15.8709 51.6557 17.5115 49.7928 17.8028L49.5858 17.8335L53.649 22.9163H51.6864V22.9086Z" fill="white"/>
<path d="M91.782 22.9095C89.8501 22.9095 88.2861 21.3379 88.2861 19.4136V15.6111C88.2861 13.6792 89.8577 12.1152 91.782 12.1152H96.8495C97.8001 12.1152 98.6894 12.4909 99.3564 13.1732C100.023 13.8555 100.368 14.7601 100.345 15.7108C100.292 17.589 98.6894 19.1147 96.7728 19.1147H90.9387V18.992C90.9387 17.9954 91.7513 17.1827 92.748 17.1827H96.8112C97.6391 17.1827 98.3368 16.5617 98.4134 15.7644C98.4518 15.3198 98.3138 14.8905 98.0148 14.5608C97.7158 14.2312 97.2941 14.0472 96.8572 14.0472H91.7897C90.9234 14.0472 90.2181 14.7525 90.2181 15.6188V19.4213C90.2181 20.2876 90.9234 20.9929 91.7897 20.9929H98.5438C99.5404 20.9929 100.353 21.8056 100.353 22.8022V22.9249H91.782V22.9095Z" fill="url(#paint1_linear)"/>
<path d="M86.2315 22.909C85.2349 22.909 84.4223 22.0963 84.4223 21.0997V15.9709C84.4223 15.0049 83.6403 14.2229 82.6743 14.2229H76.7022C76.4339 14.2229 76.2192 14.4376 76.2192 14.7059V22.909H74.2873V13.6173C74.2873 12.889 74.8853 12.291 75.6136 12.291H82.6743C84.7059 12.291 86.3542 13.9393 86.3542 15.9709V22.909H86.2315Z" fill="url(#paint2_linear)"/>
<path d="M8.97412 21.4287L2.19038 22.1901L6.17064 12.9984L2.09149 7.43597L12.01 6.30369L14.7047 0.113281L20.6083 8.13807L27.3921 7.37663L23.4267 16.5238L27.4761 22.0467L17.612 23.1691L14.8778 29.4535L8.97412 21.4287ZM11.7924 20.8205C11.5304 20.9491 11.2535 21.0529 10.9667 21.132L10.7096 21.2062L14.5366 26.4077L15.8963 23.2828L15.6491 23.2532C14.3141 23.0851 13.0978 22.3632 12.3116 21.2803L11.9309 20.7562L11.7924 20.8205ZM10.4624 16.1085L13.5477 20.3755C14.1757 21.2408 15.1893 21.7599 16.2573 21.7599C16.3809 21.7599 16.5045 21.755 16.6281 21.7402L24.6776 20.8255L21.4736 16.4447C21.3154 16.2271 21.1325 16.0343 20.9248 15.8613L20.7369 15.703L18.4427 20.8848L14.4525 15.6041L10.4624 16.1085ZM10.6008 10.9069C9.40429 11.0306 8.36596 11.7969 7.88635 12.9045L4.6527 20.3656L10.0223 19.7624C10.2893 19.7327 10.5514 19.6685 10.7986 19.5795L11.0261 19.4954L7.70341 14.907L14.2548 14.0763L15.8123 10.3532L10.6008 10.9069ZM15.6689 14.6746L18.0966 17.8934L19.5799 14.546L20.2326 13.0726C20.7221 11.97 20.5787 10.6844 19.8667 9.7104L15.0508 3.16399L12.8852 8.13807C12.7764 8.38529 12.7022 8.6424 12.6528 8.90446L12.6132 9.14674L18.2301 8.5534L15.6689 14.6746ZM21.5676 9.5769L21.6615 9.80434C22.1807 11.0503 22.1708 12.4694 21.6269 13.6956L21.3648 14.2889L21.4934 14.3779C21.7357 14.5411 21.9631 14.729 22.1757 14.9366L22.3686 15.1245L24.9347 9.20112L21.5676 9.5769ZM4.89498 8.66713L6.94197 11.4558L7.0903 11.2629C7.90613 10.2048 9.12246 9.52251 10.4377 9.37912L11.0804 9.3099L11.0903 9.15168C11.1101 8.83029 11.1645 8.50891 11.2535 8.19246L11.3277 7.92546L4.89498 8.66713Z" fill="url(#paint3_linear)"/>
<path d="M13.3549 29.571C9.09277 29.1607 5.27074 26.9456 2.76392 23.435L4.47963 23.2422C4.76146 23.5883 5.06307 23.9245 5.37457 24.236C7.23367 26.105 9.56249 27.3658 12.1138 27.885L13.3549 29.571Z" fill="url(#paint4_linear)"/>
<path d="M16.9298 27.9855C19.6937 27.5405 22.2005 26.245 24.1981 24.2425C24.3761 24.0645 24.559 23.8717 24.737 23.669L26.8186 23.4316C24.3217 26.9372 20.4996 29.1573 16.2425 29.5726L16.9298 27.9855Z" fill="url(#paint5_linear)"/>
<path d="M27.2388 19.5252C27.8074 18.0172 28.0942 16.4201 28.0942 14.7835C28.0942 13.3398 27.8667 11.9207 27.4217 10.566L28.2573 8.64258C29.1325 10.5758 29.5775 12.6377 29.5775 14.7835C29.5775 16.9245 29.1374 18.9863 28.2623 20.9146L27.2388 19.5252Z" fill="url(#paint6_linear)"/>
<path d="M1.3251 20.9398C0.444998 19.0066 0 16.9349 0 14.789C0 12.6283 0.449942 10.5467 1.33994 8.60352L2.35849 9.9929C1.77505 11.5207 1.47838 13.1326 1.47838 14.789C1.47838 16.2377 1.70582 17.6617 2.15577 19.0214L1.3251 20.9398Z" fill="url(#paint7_linear)"/>
<path d="M2.82819 6.04702C5.33006 2.59582 9.12738 0.405442 13.3499 0L12.6577 1.58716C9.89376 2.03216 7.37705 3.32759 5.37951 5.33503C5.23117 5.48831 5.0779 5.64653 4.92462 5.81464L2.82819 6.04702Z" fill="url(#paint8_linear)"/>
<path d="M25.0975 6.32886C24.8107 5.9778 24.5091 5.64653 24.1976 5.33008C22.3435 3.46604 20.0147 2.20521 17.4683 1.68605L16.2322 0C20.4844 0.410387 24.3064 2.62549 26.8083 6.13602L25.0975 6.32886Z" fill="url(#paint9_linear)"/>
<defs>
<linearGradient id="paint0_linear" x1="76.0223" y1="27.0501" x2="111.137" y2="15.4658" gradientUnits="userSpaceOnUse">
<stop stop-color="#009DDE"/>
<stop offset="0.5" stop-color="#694D9F"/>
<stop offset="1" stop-color="#ED3554"/>
</linearGradient>
<linearGradient id="paint1_linear" x1="75.1247" y1="24.329" x2="110.24" y2="12.7447" gradientUnits="userSpaceOnUse">
<stop stop-color="#009DDE"/>
<stop offset="0.5" stop-color="#694D9F"/>
<stop offset="1" stop-color="#ED3554"/>
</linearGradient>
<linearGradient id="paint2_linear" x1="73.6884" y1="19.9748" x2="108.803" y2="8.39056" gradientUnits="userSpaceOnUse">
<stop stop-color="#009DDE"/>
<stop offset="0.5" stop-color="#694D9F"/>
<stop offset="1" stop-color="#ED3554"/>
</linearGradient>
<linearGradient id="paint3_linear" x1="2.84335" y1="26.6869" x2="25.9093" y2="3.62095" gradientUnits="userSpaceOnUse">
<stop stop-color="#009DDE"/>
<stop offset="0.5" stop-color="#694D9F"/>
<stop offset="1" stop-color="#ED3554"/>
</linearGradient>
<linearGradient id="paint4_linear" x1="5.36092" y1="29.2034" x2="28.4269" y2="6.13746" gradientUnits="userSpaceOnUse">
<stop stop-color="#009DDE"/>
<stop offset="0.5" stop-color="#694D9F"/>
<stop offset="1" stop-color="#ED3554"/>
</linearGradient>
<linearGradient id="paint5_linear" x1="11.9412" y1="35.7852" x2="35.0071" y2="12.7192" gradientUnits="userSpaceOnUse">
<stop stop-color="#009DDE"/>
<stop offset="0.5" stop-color="#694D9F"/>
<stop offset="1" stop-color="#ED3554"/>
</linearGradient>
<linearGradient id="paint6_linear" x1="9.5975" y1="33.4413" x2="32.6635" y2="10.3753" gradientUnits="userSpaceOnUse">
<stop stop-color="#009DDE"/>
<stop offset="0.5" stop-color="#694D9F"/>
<stop offset="1" stop-color="#ED3554"/>
</linearGradient>
<linearGradient id="paint7_linear" x1="-3.87077" y1="19.9735" x2="19.1952" y2="-3.09249" gradientUnits="userSpaceOnUse">
<stop stop-color="#009DDE"/>
<stop offset="0.5" stop-color="#694D9F"/>
<stop offset="1" stop-color="#ED3554"/>
</linearGradient>
<linearGradient id="paint8_linear" x1="-6.20911" y1="17.6349" x2="16.8569" y2="-5.43104" gradientUnits="userSpaceOnUse">
<stop stop-color="#009DDE"/>
<stop offset="0.5" stop-color="#694D9F"/>
<stop offset="1" stop-color="#ED3554"/>
</linearGradient>
<linearGradient id="paint9_linear" x1="0.371389" y1="24.2158" x2="23.4374" y2="1.14979" gradientUnits="userSpaceOnUse">
<stop stop-color="#009DDE"/>
<stop offset="0.5" stop-color="#694D9F"/>
<stop offset="1" stop-color="#ED3554"/>
</linearGradient>
</defs>
</svg>
