<svg width="133" height="23" viewBox="0 0 133 23" fill="none" xmlns="http://www.w3.org/2000/svg">
<path d="M36.1233 8.92085L14.9229 2.5332L0 14.4825L23.9537 22.7975L36.1233 8.92085Z" fill="#00F979"/>
<path d="M46.9494 3.32036H48.1305V13.9504C48.1305 14.402 48.2058 14.6973 48.3563 14.8363C48.5184 14.9752 48.7211 15.0447 48.9643 15.0447C49.1727 15.0447 49.3811 15.0215 49.5896 14.9752C49.8096 14.9289 49.9891 14.8826 50.128 14.8363L50.3364 15.7916C50.1164 15.8842 49.8443 15.9595 49.5201 16.0174C49.2074 16.0753 48.9353 16.1042 48.7037 16.1042C48.1711 16.1042 47.7426 15.9479 47.4184 15.6352C47.1057 15.3226 46.9494 14.8942 46.9494 14.3499V3.32036ZM55.5379 16.1737C54.6694 16.1737 53.8936 15.9595 53.2104 15.531C52.5272 15.1026 51.9887 14.5294 51.595 13.8115C51.2013 13.0935 51.0045 12.3061 51.0045 11.4492C51.0045 10.6039 51.1955 9.82808 51.5777 9.12173C51.9714 8.41537 52.5098 7.85377 53.193 7.4369C53.8762 7.00846 54.6521 6.79423 55.5205 6.79423C56.4121 6.79423 57.1938 7.00846 57.8654 7.4369C58.537 7.86534 59.0581 8.43274 59.4286 9.1391C59.8108 9.83387 60.0018 10.5981 60.0018 11.4319C60.0018 11.6171 59.996 11.7735 59.9844 11.9008H52.2377C52.2956 12.5493 52.4809 13.1283 52.7935 13.6378C53.1062 14.1357 53.5057 14.5352 53.992 14.8363C54.4784 15.1257 55.011 15.2705 55.59 15.2705C56.1806 15.2705 56.7364 15.12 57.2575 14.8189C57.7785 14.5178 58.1491 14.1241 58.3691 13.6378L59.3939 13.9157C59.2086 14.3557 58.9191 14.7494 58.5254 15.0968C58.1433 15.4326 57.6975 15.6989 57.188 15.8958C56.6785 16.0811 56.1284 16.1737 55.5379 16.1737ZM52.203 11.0497H58.8902C58.8439 10.4013 58.6644 9.82808 58.3517 9.33016C58.0391 8.82066 57.6396 8.42695 57.1532 8.14904C56.6669 7.85956 56.1284 7.71481 55.5379 7.71481C54.9473 7.71481 54.4089 7.85956 53.9225 8.14904C53.4362 8.42695 53.0367 8.82066 52.7241 9.33016C52.423 9.82808 52.2493 10.4013 52.203 11.0497ZM62.1566 16V7.8885H60.906V6.95056H62.1566V6.70739C62.1566 5.59575 62.394 4.72728 62.8687 4.10198C63.3551 3.4651 64.0035 3.14667 64.8141 3.14667C65.1615 3.14667 65.5031 3.19877 65.8389 3.30299C66.1863 3.40721 66.4815 3.54616 66.7247 3.71986L66.36 4.57095C66.0126 4.30462 65.5725 4.17146 65.0399 4.17146C64.4956 4.17146 64.073 4.38568 63.7719 4.81413C63.4824 5.24257 63.3377 5.86208 63.3377 6.67265V6.95056H65.8389V7.8885H63.3377V16H62.1566ZM71.7979 15.5658C71.659 15.6237 71.4042 15.7279 71.0337 15.8784C70.6631 16.0289 70.2347 16.1042 69.7483 16.1042C69.2388 16.1042 68.793 15.9595 68.4109 15.67C68.0288 15.3805 67.8377 14.9463 67.8377 14.3673V7.8885H66.5871V6.95056H67.8377V3.89355H69.0188V6.95056H71.1032V7.8885H69.0188V14.0373C69.042 14.3731 69.1578 14.622 69.3662 14.7841C69.5862 14.9347 69.8352 15.0099 70.1131 15.0099C70.4373 15.0099 70.7268 14.9578 70.9816 14.8536C71.2479 14.7378 71.4158 14.6568 71.4853 14.6105L71.7979 15.5658ZM81.331 16.1216C80.7057 16.1216 80.1325 15.9942 79.6114 15.7395C79.1019 15.4847 78.6561 15.1431 78.274 14.7147C77.9034 14.2746 77.614 13.7767 77.4055 13.2209C77.1971 12.6651 77.0929 12.0919 77.0929 11.5013C77.0929 10.656 77.2724 9.88019 77.6313 9.17384C77.9903 8.4559 78.4824 7.88271 79.1077 7.45427C79.7446 7.01425 80.4741 6.79423 81.2963 6.79423C82.0721 6.79423 82.7437 6.99109 83.3111 7.38479C83.8901 7.7785 84.3764 8.26484 84.7701 8.84382V6.95056H85.8297V16.0347C85.8297 16.88 85.627 17.5864 85.2217 18.1538C84.8164 18.7212 84.278 19.1496 83.6064 19.4391C82.9348 19.7286 82.1995 19.8734 81.4005 19.8734C80.3583 19.8734 79.5188 19.6881 78.8819 19.3175C78.2566 18.947 77.7413 18.4491 77.336 17.8238L78.0656 17.2506C78.4245 17.818 78.8993 18.2406 79.4898 18.5186C80.092 18.7965 80.7289 18.9354 81.4005 18.9354C81.991 18.9354 82.5295 18.8254 83.0158 18.6054C83.5137 18.397 83.9075 18.0785 84.1969 17.6501C84.498 17.2216 84.6485 16.6832 84.6485 16.0347V14.2457C84.3012 14.8131 83.8264 15.2705 83.2243 15.6179C82.6221 15.9537 81.991 16.1216 81.331 16.1216ZM81.661 15.1315C82.1358 15.1315 82.5874 15.0215 83.0158 14.8015C83.4443 14.5815 83.8032 14.3036 84.0927 13.9678C84.3938 13.6204 84.5791 13.2614 84.6485 12.8909V10.0944C84.4749 9.65439 84.2259 9.26647 83.9017 8.93067C83.5774 8.58328 83.2069 8.31695 82.79 8.13168C82.3732 7.93482 81.9505 7.8364 81.5221 7.8364C80.8504 7.8364 80.2715 8.02167 79.7851 8.39222C79.3104 8.75118 78.9398 9.21437 78.6735 9.78177C78.4187 10.3376 78.2914 10.9166 78.2914 11.5187C78.2914 12.1672 78.4419 12.7693 78.743 13.3251C79.044 13.8694 79.4493 14.3094 79.9588 14.6452C80.4683 14.9694 81.0357 15.1315 81.661 15.1315ZM87.7084 13.3946C87.7084 12.8388 87.8705 12.3582 88.1947 11.9529C88.519 11.5361 88.9648 11.2118 89.5322 10.9803C90.1112 10.7487 90.777 10.6329 91.5297 10.6329C91.9697 10.6329 92.4271 10.6734 92.9018 10.7545C93.3766 10.8239 93.7993 10.9224 94.1698 11.0497V10.2855C94.1698 9.52122 93.944 8.9133 93.4924 8.46169C93.0408 8.01009 92.4155 7.78429 91.6165 7.78429C91.1418 7.78429 90.667 7.87692 90.1922 8.0622C89.7175 8.23589 89.2253 8.49643 88.7158 8.84382L88.2642 8.01009C88.8548 7.6048 89.4338 7.30374 90.0012 7.10688C90.5686 6.89845 91.1475 6.79423 91.7381 6.79423C92.8497 6.79423 93.7298 7.11267 94.3782 7.74955C95.0267 8.38643 95.3509 9.26647 95.3509 10.3897V14.5757C95.3509 14.8884 95.4957 15.0505 95.7852 15.0621V16C95.5304 16.0347 95.3509 16.0463 95.2467 16.0347C94.9572 16.0232 94.7372 15.9305 94.5867 15.7568C94.4361 15.5831 94.3551 15.3979 94.3435 15.201L94.3261 14.541C93.9208 15.0621 93.394 15.4673 92.7455 15.7568C92.0971 16.0347 91.437 16.1737 90.7654 16.1737C90.1749 16.1737 89.648 16.0521 89.1848 15.8089C88.7216 15.5542 88.3569 15.2184 88.0905 14.8015C87.8358 14.3731 87.7084 13.9041 87.7084 13.3946ZM93.7703 14.0894C94.0366 13.7767 94.1698 13.4872 94.1698 13.2209V11.9008C93.3708 11.5882 92.5371 11.4319 91.6686 11.4319C90.8233 11.4319 90.1401 11.5998 89.619 11.9356C89.098 12.2714 88.8374 12.7288 88.8374 13.3077C88.8374 13.8057 89.0285 14.2573 89.4106 14.6626C89.8043 15.0678 90.3485 15.2705 91.0433 15.2705C91.6107 15.2705 92.1376 15.1605 92.6239 14.9405C93.1219 14.7205 93.504 14.4368 93.7703 14.0894ZM97.955 3.32036H99.1361V13.9504C99.1361 14.402 99.2114 14.6973 99.3619 14.8363C99.524 14.9752 99.7267 15.0447 99.9698 15.0447C100.178 15.0447 100.387 15.0215 100.595 14.9752C100.815 14.9289 100.995 14.8826 101.134 14.8363L101.342 15.7916C101.122 15.8842 100.85 15.9595 100.526 16.0174C100.213 16.0753 99.9409 16.1042 99.7093 16.1042C99.1766 16.1042 98.7482 15.9479 98.424 15.6352C98.1113 15.3226 97.955 14.8942 97.955 14.3499V3.32036ZM102.687 3.32036H103.869V13.9504C103.869 14.402 103.944 14.6973 104.094 14.8363C104.256 14.9752 104.459 15.0447 104.702 15.0447C104.911 15.0447 105.119 15.0215 105.328 14.9752C105.548 14.9289 105.727 14.8826 105.866 14.8363L106.074 15.7916C105.854 15.8842 105.582 15.9595 105.258 16.0174C104.945 16.0753 104.673 16.1042 104.442 16.1042C103.909 16.1042 103.481 15.9479 103.156 15.6352C102.844 15.3226 102.687 14.8942 102.687 14.3499V3.32036ZM111.276 16.1737C110.407 16.1737 109.632 15.9595 108.948 15.531C108.265 15.1026 107.727 14.5294 107.333 13.8115C106.939 13.0935 106.743 12.3061 106.743 11.4492C106.743 10.6039 106.934 9.82808 107.316 9.12173C107.709 8.41537 108.248 7.85377 108.931 7.4369C109.614 7.00846 110.39 6.79423 111.259 6.79423C112.15 6.79423 112.932 7.00846 113.603 7.4369C114.275 7.86534 114.796 8.43274 115.167 9.1391C115.549 9.83387 115.74 10.5981 115.74 11.4319C115.74 11.6171 115.734 11.7735 115.722 11.9008H107.976C108.034 12.5493 108.219 13.1283 108.532 13.6378C108.844 14.1357 109.244 14.5352 109.73 14.8363C110.216 15.1257 110.749 15.2705 111.328 15.2705C111.919 15.2705 112.474 15.12 112.995 14.8189C113.517 14.5178 113.887 14.1241 114.107 13.6378L115.132 13.9157C114.947 14.3557 114.657 14.7494 114.263 15.0968C113.881 15.4326 113.436 15.6989 112.926 15.8958C112.417 16.0811 111.866 16.1737 111.276 16.1737ZM107.941 11.0497H114.628C114.582 10.4013 114.402 9.82808 114.09 9.33016C113.777 8.82066 113.378 8.42695 112.891 8.14904C112.405 7.85956 111.866 7.71481 111.276 7.71481C110.685 7.71481 110.147 7.85956 109.661 8.14904C109.174 8.42695 108.775 8.82066 108.462 9.33016C108.161 9.82808 107.987 10.4013 107.941 11.0497ZM122.078 7.99272C121.291 8.01588 120.596 8.23589 119.994 8.65276C119.403 9.06962 118.986 9.64281 118.743 10.3723V16H117.562V6.95056H118.674V9.12173C118.986 8.48485 119.398 7.96956 119.907 7.57586C120.428 7.18215 120.978 6.96214 121.557 6.91582C121.673 6.90424 121.771 6.89845 121.852 6.89845C121.933 6.89845 122.009 6.90424 122.078 6.91582V7.99272ZM124.173 18.7791C124.335 18.7907 124.491 18.7965 124.642 18.7965C124.792 18.808 124.902 18.8023 124.972 18.7791C125.111 18.7675 125.238 18.6865 125.354 18.5359C125.481 18.397 125.632 18.1306 125.805 17.7369C125.991 17.3548 126.24 16.7758 126.552 16L122.609 6.95056H123.86L127.178 14.7841L130.235 6.95056H131.416L126.726 18.6228C126.599 18.9586 126.384 19.2481 126.083 19.4912C125.782 19.7344 125.383 19.8618 124.885 19.8734C124.781 19.8849 124.671 19.8849 124.555 19.8734C124.439 19.8734 124.312 19.8618 124.173 19.8386V18.7791Z" fill="white"/>
</svg>
