<svg width="93" height="42" viewBox="0 0 93 42" fill="none" xmlns="http://www.w3.org/2000/svg">
<path fill-rule="evenodd" clip-rule="evenodd" d="M15.3942 0L17.4429 0.65194L17.4458 2.77286L15.3999 3.43039L14.1297 1.71659L15.3942 0Z" fill="#4FB573"/>
<path fill-rule="evenodd" clip-rule="evenodd" d="M17.4437 0.652344L19.8931 13.5723L17.4466 2.77325L17.4437 0.652344Z" fill="#4FB573"/>
<path fill-rule="evenodd" clip-rule="evenodd" d="M14.1305 1.7168L15.4007 3.43059L19.8931 13.5721L14.1305 1.7168Z" fill="#4FB573"/>
<path fill-rule="evenodd" clip-rule="evenodd" d="M15.3999 3.42901L17.4458 2.77148L19.8923 13.5705L15.3999 3.42901Z" fill="#4FB573"/>
<path fill-rule="evenodd" clip-rule="evenodd" d="M28.6169 16.349L38.2738 7.30859L37.0094 9.02519L28.6169 16.349Z" fill="#4FB573"/>
<path fill-rule="evenodd" clip-rule="evenodd" d="M38.2738 7.30859L40.3225 7.96052L40.3254 10.0814L38.2779 10.7404L37.0092 9.02657L38.2738 7.30859Z" fill="#4FB573"/>
<path fill-rule="evenodd" clip-rule="evenodd" d="M21.2261 8.1566L22.2675 7.34375L23.3743 8.06984L23.0177 9.32895L21.6878 9.38352L21.2261 8.1566Z" fill="#4FB573"/>
<path fill-rule="evenodd" clip-rule="evenodd" d="M23.3739 8.07031L22.2685 13.1613L21.2257 8.15704L21.6874 9.38399L23.0172 9.33081L23.3739 8.07031Z" fill="#4FB573"/>
<path fill-rule="evenodd" clip-rule="evenodd" d="M28.6169 16.3492L37.0094 9.02539L38.2782 10.7392L28.6169 16.3492Z" fill="#4FB573"/>
<path fill-rule="evenodd" clip-rule="evenodd" d="M27.6373 9.18846L28.96 9.04297L29.5056 10.2349L28.5252 11.1163L27.3717 10.47L27.6373 9.18846Z" fill="#4FB573"/>
<path fill-rule="evenodd" clip-rule="evenodd" d="M27.6374 9.1875L27.3718 10.469L28.5253 11.1154L29.5057 10.234L26.0746 14.1274L27.6374 9.1875Z" fill="#4FB573"/>
<path fill-rule="evenodd" clip-rule="evenodd" d="M38.2775 10.7396L40.325 10.082L28.6165 16.3496L38.2775 10.7396Z" fill="#4FB573"/>
<path fill-rule="evenodd" clip-rule="evenodd" d="M12.5699 11.3145L13.8827 11.1074L14.4879 12.2714L13.5488 13.199L12.3639 12.6072L12.5699 11.3145Z" fill="#4FB573"/>
<path fill-rule="evenodd" clip-rule="evenodd" d="M13.882 11.1074L16.752 15.4206L12.3647 12.6071L13.5496 13.1989L14.4873 12.2728L13.882 11.1074Z" fill="#4FB573"/>
<path fill-rule="evenodd" clip-rule="evenodd" d="M1.26456 19.1895L14.4734 20.8585L3.31329 19.8414L1.26456 19.1895Z" fill="#4FB573"/>
<path fill-rule="evenodd" clip-rule="evenodd" d="M1.26448 19.1895L3.31322 19.8414L3.31606 21.9623L1.26874 22.6198L0 20.906L1.26448 19.1895Z" fill="#4FB573"/>
<path fill-rule="evenodd" clip-rule="evenodd" d="M3.3136 19.8418L14.4723 20.8589L3.31644 21.9627L3.3136 19.8418Z" fill="#4FB573"/>
<path fill-rule="evenodd" clip-rule="evenodd" d="M30.0863 20.8332L35.2083 19.8203L33.9466 20.226L33.9481 21.5355L35.2125 21.937L30.0863 20.8332Z" fill="#4FB573"/>
<path fill-rule="evenodd" clip-rule="evenodd" d="M33.9463 20.228L35.2093 19.8223L35.9908 20.8785L35.2137 21.939L33.9478 21.5375L33.9463 20.228Z" fill="#4FB573"/>
<path fill-rule="evenodd" clip-rule="evenodd" d="M3.3167 21.9612L14.474 20.8574L1.26938 22.6188L3.3167 21.9612Z" fill="#4FB573"/>
<path fill-rule="evenodd" clip-rule="evenodd" d="M9.60016 23.7105L14.8286 23.1816L10.2679 25.7236L11.342 24.9528L10.9286 23.7091L9.60016 23.7105Z" fill="#4FB573"/>
<path fill-rule="evenodd" clip-rule="evenodd" d="M9.60021 23.7104L10.9286 23.709L11.3421 24.9527L10.268 25.7236L9.19244 24.9555L9.60021 23.7104Z" fill="#4FB573"/>
<path fill-rule="evenodd" clip-rule="evenodd" d="M11.0949 27.342L15.9624 25.252L12.3039 29.0936L13.118 28.0597L12.3707 26.9783L11.0949 27.342Z" fill="#4FB573"/>
<path fill-rule="evenodd" clip-rule="evenodd" d="M28.631 25.377L40.3595 31.6151L38.3092 30.9618L28.631 25.377Z" fill="#4FB573"/>
<path fill-rule="evenodd" clip-rule="evenodd" d="M28.631 25.377L38.3092 30.9618L37.0462 32.6797L28.631 25.377Z" fill="#4FB573"/>
<path fill-rule="evenodd" clip-rule="evenodd" d="M28.631 25.377L37.0462 32.6797L38.3136 34.3951L28.631 25.377Z" fill="#4FB573"/>
<path fill-rule="evenodd" clip-rule="evenodd" d="M11.0947 27.3422L12.3705 26.9785L13.1179 28.0598L12.3038 29.0937L11.0535 28.6503L11.0947 27.3422Z" fill="#4FB573"/>
<path fill-rule="evenodd" clip-rule="evenodd" d="M13.7794 30.4371L17.6737 27.0234L15.4659 31.7507L15.9276 30.5237L14.8848 29.7109L13.7794 30.4371Z" fill="#4FB573"/>
<path fill-rule="evenodd" clip-rule="evenodd" d="M19.915 28.1816L17.5253 41.1085L17.5225 38.9876L19.915 28.1816Z" fill="#4FB573"/>
<path fill-rule="evenodd" clip-rule="evenodd" d="M19.9147 28.1816L17.5221 38.9876L15.4734 38.3356L19.9147 28.1816Z" fill="#4FB573"/>
<path fill-rule="evenodd" clip-rule="evenodd" d="M19.915 28.1816L15.4737 38.3356L14.2093 40.0522L19.915 28.1816Z" fill="#4FB573"/>
<path fill-rule="evenodd" clip-rule="evenodd" d="M24.7916 28.1738L27.4312 32.5807L26.6513 31.5231L25.3854 31.9301L25.3883 33.2382L24.7916 28.1738Z" fill="#4FB573"/>
<path fill-rule="evenodd" clip-rule="evenodd" d="M22.2914 28.5332L23.401 33.578L22.9876 32.3343L21.6606 32.3371L21.2514 33.5809L22.2914 28.5332Z" fill="#4FB573"/>
<path fill-rule="evenodd" clip-rule="evenodd" d="M13.7794 30.4372L14.8848 29.7109L15.9276 30.5238L15.4658 31.7508L14.1374 31.6976L13.7794 30.4372Z" fill="#4FB573"/>
<path fill-rule="evenodd" clip-rule="evenodd" d="M38.3099 30.9648L40.3587 31.6181L40.3615 33.7378L38.3141 34.3981L37.0453 32.6828L38.3099 30.9648Z" fill="#4FB573"/>
<path fill-rule="evenodd" clip-rule="evenodd" d="M25.3857 31.9304L26.6515 31.5234L27.4315 32.581L26.6544 33.6415L25.3885 33.2385L25.3857 31.9304Z" fill="#4FB573"/>
<path fill-rule="evenodd" clip-rule="evenodd" d="M21.6602 32.3353L22.9886 32.334L23.4021 33.5762L22.328 34.3473L21.251 33.5806L21.6602 32.3353Z" fill="#4FB573"/>
<path fill-rule="evenodd" clip-rule="evenodd" d="M15.4737 38.3359L17.5224 38.9879L17.5253 41.1086L15.4794 41.7676L14.2092 40.0526L15.4737 38.3359Z" fill="#4FB573"/>
<path fill-rule="evenodd" clip-rule="evenodd" d="M53.0002 16.0072H54.5172C54.9937 16.0072 55.3378 15.9234 55.555 15.7545C55.7705 15.5868 55.8806 15.3176 55.8806 14.9466C55.8806 14.5839 55.7705 14.3188 55.555 14.1498C55.3378 13.9808 54.9937 13.897 54.5172 13.897H53.0002V16.0072ZM54.3355 17.5501H53.0002V20.5959H50.8079V12.2539H54.8952C55.9314 12.2539 56.7293 12.482 57.2877 12.9367C57.8446 13.3914 58.1238 14.0481 58.1238 14.9082C58.1238 15.5154 57.9814 16.0196 57.6952 16.4249C57.4103 16.8288 56.9958 17.1283 56.4502 17.322L58.6284 20.5959H56.1639L54.3355 17.5501Z" fill="#4FB573"/>
<path fill-rule="evenodd" clip-rule="evenodd" d="M66.4492 18.9143V20.5959H59.6713V12.2539H66.2815V13.9341H61.8835V15.628H65.3814V17.208H61.8835V18.9143H66.4492Z" fill="#4FB573"/>
<path fill-rule="evenodd" clip-rule="evenodd" d="M75.0515 16.0725V20.7252H73.5403L73.4772 19.7079C72.998 20.473 72.2042 20.8555 71.0966 20.8555C70.3411 20.8555 69.6717 20.6841 69.0885 20.3412C68.5041 19.9984 68.0494 19.494 67.7223 18.8295C67.3938 18.1651 67.2309 17.3674 67.2309 16.4366C67.2309 15.5157 67.398 14.7223 67.7332 14.0592C68.07 13.3934 68.5492 12.8833 69.1693 12.5277C69.7908 12.1707 70.5244 11.9922 71.3732 11.9922C72.3218 11.9922 73.0856 12.1665 73.6662 12.5136C74.2452 12.8607 74.7024 13.4217 75.0376 14.1953L73.035 15.0156C72.9352 14.5906 72.7462 14.2732 72.4683 14.0649C72.1933 13.8567 71.8481 13.7518 71.4363 13.7518C70.7984 13.7518 70.3096 13.9785 69.9686 14.4305C69.6292 14.8824 69.4595 15.5469 69.4595 16.4239C69.4595 18.2317 70.1399 19.1356 71.4991 19.1356C72.0111 19.1356 72.4258 19.0137 72.7407 18.77C73.0543 18.5263 73.2115 18.175 73.2115 17.7145V17.5842H71.1474V16.0725H75.0515Z" fill="#4FB573"/>
<path fill-rule="evenodd" clip-rule="evenodd" d="M83.3936 18.9143V20.5959H76.6157V12.2539H83.2272V13.9341H78.8274V15.628H82.3255V17.208H78.8274V18.9143H83.3936Z" fill="#4FB573"/>
<path fill-rule="evenodd" clip-rule="evenodd" d="M92.5177 20.5959H90.0902L87.4859 16.0842L86.8509 14.8189H86.8384L86.8895 16.3878V20.5959H84.9578V12.2539H87.3853L89.9896 16.7656L90.6246 18.0295H90.6384L90.5873 16.4634V12.2539H92.5177V20.5959Z" fill="#4FB573"/>
<path fill-rule="evenodd" clip-rule="evenodd" d="M55.5002 30.7624H54.6037L52.1016 26.9217L51.4671 25.792H51.4604L51.495 26.7132V30.7624H50.8079V25.0273H51.7044L54.1955 28.8508L54.8394 29.9978H54.8493L54.813 29.0766V25.0273H55.5002V30.7624Z" fill="#4FB573"/>
<path fill-rule="evenodd" clip-rule="evenodd" d="M61.2353 30.1115V30.7624H56.8036V25.0273H61.0956V25.6797H57.5455V27.5299H60.3093V28.1824H57.5455V30.1115H61.2353Z" fill="#4FB573"/>
<path fill-rule="evenodd" clip-rule="evenodd" d="M66.4493 25.6784H64.4519V30.7624H63.7556V25.6784H61.7569V25.0273H66.4493V25.6784Z" fill="#4FB573"/>
<path fill-rule="evenodd" clip-rule="evenodd" d="M69.5577 30.7624H68.6847L66.9702 25.0273H67.7267L69.1273 30.2142L70.498 25.0273H71.2994L72.6716 30.233L74.0775 25.0273H74.7907L73.083 30.7624H72.2141L71.1841 27.0432L70.8838 25.7492H70.8771L70.578 27.0432L69.5577 30.7624Z" fill="#4FB573"/>
<path fill-rule="evenodd" clip-rule="evenodd" d="M76.6558 26.1047C76.2841 26.5378 76.0979 27.1337 76.0979 27.8939C76.0979 28.6553 76.2841 29.2513 76.6558 29.6829C77.0278 30.1162 77.5367 30.3328 78.1798 30.3328C78.8242 30.3328 79.3302 30.1162 79.7022 29.6829C80.0742 29.2513 80.2601 28.6553 80.2601 27.8939C80.2601 27.1337 80.0742 26.5378 79.7022 26.1047C79.3302 25.6715 78.8242 25.4564 78.1798 25.4564C77.5367 25.4564 77.0278 25.6715 76.6558 26.1047ZM79.6964 25.1478C80.1289 25.4026 80.4621 25.7636 80.697 26.2335C80.9305 26.702 81.0473 27.2554 81.0473 27.8939C81.0473 28.5323 80.9305 29.0857 80.697 29.5557C80.4621 30.0242 80.1289 30.3865 79.6964 30.6412C79.2668 30.8946 78.7608 31.0221 78.1798 31.0221C77.5987 31.0221 77.0927 30.8946 76.6615 30.6412C76.2306 30.3865 75.899 30.0242 75.6639 29.5557C75.429 29.0857 75.3122 28.5323 75.3122 27.8939C75.3122 27.2554 75.429 26.702 75.6639 26.2335C75.899 25.7636 76.2306 25.4026 76.6615 25.1478C77.0927 24.893 77.5987 24.7656 78.1798 24.7656C78.7608 24.7656 79.2668 24.893 79.6964 25.1478Z" fill="#4FB573"/>
<path fill-rule="evenodd" clip-rule="evenodd" d="M82.8231 27.7291H84.3679C85.2219 27.7291 85.6484 27.3881 85.6484 26.7038C85.6484 26.0206 85.2219 25.6784 84.3679 25.6784H82.8231V27.7291ZM84.2668 28.3816H82.8231V30.7624H82.0901V25.0273H84.3778C84.9928 25.0273 85.4865 25.1771 85.858 25.4779C86.2308 25.78 86.4167 26.1891 86.4167 26.7038C86.4167 27.1102 86.297 27.4509 86.0606 27.7291C85.8215 28.0072 85.4949 28.1983 85.0814 28.3026L86.7824 30.7624H85.9128L84.2668 28.3816Z" fill="#4FB573"/>
<mask id="mask0" mask-type="alpha" maskUnits="userSpaceOnUse" x="88" y="24" width="5" height="7">
<path fill-rule="evenodd" clip-rule="evenodd" d="M88.0946 24.8086H92.6744V30.8149H88.0946V24.8086Z" fill="#4FB573"/>
</mask>
<g mask="url(#mask0)">
<path fill-rule="evenodd" clip-rule="evenodd" d="M89.8378 27.7935L88.7982 28.8855V30.8149H88.0946V24.8086H88.7982V27.9028L91.725 24.8086H92.648L90.3313 27.2573L92.6752 30.8149H91.8305L89.8378 27.7935Z" fill="#4FB573"/>
</g>
</svg>
