<svg width="103" height="32" viewBox="0 0 103 32" fill="none" xmlns="http://www.w3.org/2000/svg">
<path d="M35.8518 23.7799C35.2548 23.596 34.7028 23.2893 34.2312 22.8796L34.739 21.8244C35.1766 22.1908 35.6768 22.4751 36.2155 22.6635C36.7678 22.8424 37.3457 22.9294 37.9262 22.921C38.6464 22.921 39.2082 22.7841 39.6008 22.5122C39.7905 22.3859 39.9445 22.2129 40.048 22.0098C40.1514 21.8067 40.2008 21.5804 40.1914 21.3526C40.1997 21.1583 40.1525 20.9657 40.0552 20.7973C39.9579 20.6289 39.8147 20.4917 39.6422 20.4019C39.0851 20.1284 38.4941 19.9304 37.8848 19.813C37.2364 19.6826 36.6017 19.4921 35.9887 19.244C35.5333 19.0603 35.1337 18.7612 34.829 18.3761C34.5373 17.9715 34.3896 17.4808 34.4095 16.9824C34.3992 16.4437 34.5551 15.915 34.856 15.4681C35.1758 15.0158 35.6164 14.6627 36.1273 14.4489C36.7311 14.1957 37.3815 14.073 38.036 14.0888C38.6876 14.0848 39.3352 14.1901 39.9519 14.4003C40.5068 14.5827 41.0121 14.8908 41.4285 15.3006L40.9405 16.3468C40.5279 15.9993 40.0622 15.7202 39.5612 15.5203C39.0802 15.3386 38.5699 15.2471 38.0558 15.2502C37.3608 15.2502 36.814 15.396 36.4154 15.6877C36.2228 15.8245 36.0674 16.0071 35.963 16.2189C35.8586 16.4308 35.8087 16.6654 35.8176 16.9014C35.8078 17.1004 35.8509 17.2984 35.9427 17.4752C36.0344 17.6521 36.1714 17.8014 36.3398 17.908C36.6879 18.1348 37.2467 18.3407 38.0162 18.5256C38.6815 18.6687 39.3351 18.8613 39.9717 19.1018C40.4312 19.2723 40.8418 19.553 41.1674 19.9193C41.4764 20.3011 41.6352 20.7827 41.6139 21.2734C41.6239 21.8031 41.4678 22.3226 41.1674 22.7589C40.845 23.2028 40.4019 23.5447 39.8907 23.7439C39.2626 23.9878 38.5926 24.1052 37.919 24.0896C37.2179 24.0956 36.5203 23.9911 35.8518 23.7799ZM43.3588 23.9744V14.186H44.7723V23.9708L43.3588 23.9744ZM55.1819 14.186H56.3091V23.9708H55.0324L55.045 16.8924L52.164 22.4024H51.2042L48.3052 16.9626L48.3196 23.9708H47.0429V14.186H48.1827L51.6976 20.9583L55.1819 14.186ZM58.5743 14.186H62.5844C63.6108 14.186 64.4073 14.4405 64.9739 14.9495C65.5405 15.4585 65.8244 16.1787 65.8256 17.1103C65.8256 18.0334 65.5417 18.7537 64.9739 19.271C64.4061 19.7884 63.6096 20.0471 62.5844 20.0471H59.9896V23.9618H58.5743V14.186ZM62.4331 18.9055C63.7896 18.9055 64.4673 18.3089 64.4661 17.1157C64.4649 15.9224 63.7872 15.3312 62.4331 15.342H59.9896V18.9091L62.4331 18.9055ZM67.529 23.9744V14.186H68.9443V22.7769H73.6404V23.9708L67.529 23.9744ZM81.0015 14.186L77.1427 19.4079V23.9744H75.7274V19.4079L71.8686 14.186H73.4892L76.4423 18.2249L79.3953 14.186H81.0015ZM92.4969 14.186H93.9375L89.6771 23.9744H88.4815L84.2157 14.186H85.685L89.0901 22.1665L92.4969 14.186ZM96.5952 23.4738C95.9027 23.0653 95.3483 22.4589 95.0035 21.7326C94.6157 20.9013 94.4253 19.9917 94.447 19.0748C94.4255 18.1578 94.6159 17.2483 95.0035 16.417C95.3475 15.692 95.9023 15.0877 96.5952 14.683C97.3413 14.2658 98.186 14.0574 99.0405 14.0798C99.6675 14.0745 100.29 14.18 100.881 14.3913C101.42 14.5841 101.912 14.8913 102.321 15.2916L101.821 16.3468C101.425 15.9973 100.971 15.7183 100.481 15.5221C100.02 15.3508 99.5322 15.2641 99.0405 15.2664C98.0322 15.2664 97.2561 15.5947 96.7123 16.2513C96.1685 16.908 95.896 17.8467 95.8948 19.0676C95.8948 20.2884 96.1673 21.2302 96.7123 21.8928C97.2573 22.5555 98.0334 22.8886 99.0405 22.8922C99.5319 22.8961 100.02 22.8113 100.481 22.6419C100.97 22.4471 101.423 22.17 101.819 21.8226L102.314 22.8778C101.904 23.2781 101.413 23.5852 100.874 23.7781C100.286 23.9894 99.6652 24.0949 99.0405 24.0896C98.1846 24.1107 97.3391 23.8977 96.5952 23.4738Z" fill="#B2834B"/>
<path d="M16.0303 6.48841L13.6895 5.1073V2.38111L16.07 1L18.4432 2.38111V5.1073L16.0303 6.48841Z" stroke="#B2834B" stroke-width="0.551002"/>
<path d="M16.0305 4.12496L15.7064 3.94489V3.54335L16.0305 3.36328L16.3546 3.54335V3.94309L16.0305 4.12496Z" fill="#B2834B"/>
<path d="M28.6943 29.1661L26.3192 27.785V25.0588L28.6943 23.6777L31.0676 25.0588V27.785L28.6943 29.1661Z" stroke="#B2834B" stroke-width="0.551002"/>
<path d="M28.694 26.8028L28.3699 26.6228V26.223L28.694 26.043L29.0163 26.223V26.6228L28.694 26.8028Z" fill="#B2834B"/>
<path d="M24.6731 16.8458L22.2908 15.4647V12.7457L24.6731 11.3574L27.0392 12.7457V15.4647L24.6731 16.8458Z" stroke="#B2834B" stroke-width="0.551002"/>
<path d="M24.6735 14.4843L24.3493 14.3043V13.9027L24.6735 13.7227L24.9958 13.9027V14.3025L24.6735 14.4843Z" fill="#B2834B"/>
<path d="M7.43751 16.8464L5.06424 15.4653V12.7463L7.43751 11.3652L9.81078 12.7463V15.4653L7.43751 16.8464Z" stroke="#B2834B" stroke-width="0.551002"/>
<path d="M7.43737 14.4843L7.11325 14.3043V13.9027L7.43737 13.7227L7.76149 13.9027V14.3025L7.43737 14.4843Z" fill="#B2834B"/>
<path d="M3.37327 29.1661L1 27.785V25.0588L3.37327 23.6777L5.74654 25.0588V27.785L3.37327 29.1661Z" stroke="#B2834B" stroke-width="0.551002"/>
<path d="M3.37353 26.8028L3.04941 26.6228V26.223L3.37353 26.043L3.69765 26.223V26.6228L3.37353 26.8028Z" fill="#B2834B"/>
<path d="M16.0303 31.4182L13.6895 30.0317V27.3109L16.0628 25.9316L18.436 27.3109V30.0317L16.0303 31.4182Z" stroke="#B2834B" stroke-width="0.551002"/>
<path d="M16.0305 29.0568L15.7064 28.8767V28.4769L16.0305 28.2969L16.3546 28.4769V28.8767L16.0305 29.0568Z" fill="#B2834B"/>
<path d="M22.2189 15.5008L5.96259 24.9129M16.0301 6.81445V25.6403V6.81445ZM9.99066 15.5729L26.247 24.9903L9.99066 15.5729Z" stroke="#B2834B" stroke-width="0.522191" stroke-linecap="square"/>
</svg>
