<svg width="130" height="15" viewBox="0 0 130 15" fill="none" xmlns="http://www.w3.org/2000/svg">
<path d="M11.3131 7.20307H10.2205C9.67399 7.20307 9.11202 7.29664 8.97176 7.45291C8.87825 7.10903 8.61269 6.29684 8.42522 5.84396C8.7062 5.76582 8.90911 5.37516 9.14334 4.82871C9.23685 4.61022 9.4089 4.12553 9.59591 3.51638H8.34714V1.89152H10.0017C10.1266 1.32916 10.236 0.750895 10.314 0.173096L12.1561 0.501061C12.0467 0.969851 11.9378 1.42273 11.797 1.89152H15.0286V3.51638H11.2664C10.9854 4.28179 10.6731 5.03176 10.3921 5.68769H11.3131V4.0474H13.0458V5.68769H14.763V7.20307H13.0458V8.67166H15.1848V10.2965H13.0458V12.3897H11.3131V10.2965H8.42522V8.67166H11.3131V7.20307ZM7.97218 3.71943L6.36435 4.235C6.20819 3.37556 5.8178 2.04779 5.45874 1.06389L6.9885 0.611007C7.36299 1.59537 7.7847 2.86045 7.97218 3.7199V3.71943ZM3.97574 11.6084L5.11557 10.7648C5.22498 11.2177 5.45921 11.8741 5.64622 12.1867C3.17954 14.0146 2.7424 14.4052 2.49274 14.7332L2.47731 14.6396C2.46188 14.671 2.46188 14.7023 2.46188 14.7332C2.30572 14.4052 1.85315 13.7802 1.57217 13.5458C2.05092 13.1439 2.35294 12.545 2.35294 11.8755C2.35294 11.8751 2.35294 11.8746 2.35294 11.8741V9.42163H0.963446V7.84356H2.35294V6.21871H1.63482V5.15621C1.55674 5.29703 1.44734 5.42195 1.35383 5.51552C1.229 5.14077 0.791863 4.23454 0.526306 3.84388C1.24443 2.95355 1.79097 1.62531 2.13414 0.282106L3.6639 0.719549C3.53673 1.18553 3.42452 1.53408 3.30109 1.87749L3.33616 1.76614H5.39703V3.35965H2.71201C2.47777 3.82844 2.24354 4.24998 1.97845 4.65607H5.02254V6.21824H3.97667V7.84309H5.45968V9.42117H3.97667L3.97574 11.6084ZM7.98761 5.29703V11.6711C8.25317 11.8119 8.53415 12.0304 8.90864 12.2489C9.68942 12.7177 10.6572 12.858 11.8592 12.858C12.7957 12.858 14.3881 12.7645 15.4031 12.6236C15.2469 13.1079 15.0127 14.0141 14.9973 14.4829C14.2165 14.5456 12.8116 14.5924 11.8438 14.5924C10.501 14.5924 9.56459 14.358 8.72163 13.8424C8.17509 13.5144 7.70709 13.1238 7.41021 13.1238C7.03572 13.1238 6.42653 14.0454 5.97396 14.8268L4.83412 13.0929C5.30259 12.5927 5.8178 12.1558 6.31713 11.8741V6.96868H5.41152V5.29703H7.98761ZM16.8707 14.8108V3.9847H18.7595V14.8108H16.8707ZM17.1517 1.23512L18.4944 0.313452C19.2279 0.953944 20.1022 1.86018 20.508 2.51611L19.0564 3.54726C18.6973 2.90677 17.8543 1.90696 17.1517 1.23512ZM22.0537 9.5152V10.5618C22.9747 10.4991 23.9738 10.4369 24.9888 10.3587V9.5152H22.0537ZM24.9888 5.20346H22.0537V6.03156H24.9888V5.20346ZM22.0537 7.32799V8.21831H24.9888V7.32799H22.0537ZM27.8455 11.577L26.6434 11.6865V13.4517H24.9888V11.8114C22.9125 11.9831 20.9298 12.124 19.3846 12.2489L19.2284 10.7335C19.5875 10.7181 19.9779 10.6867 20.3991 10.6708V5.20299H19.5562V3.78119H27.5182V5.20299H26.6439V10.2334L27.8305 10.1552L27.8455 11.577ZM30.3589 0.813588V12.8271C30.3589 13.7175 30.2027 14.1549 29.6721 14.452C29.1569 14.7332 28.392 14.78 27.3302 14.78C27.2676 14.3112 27.0338 13.5458 26.815 13.0929C27.3924 13.1242 28.0329 13.1242 28.2358 13.1242C28.4542 13.1088 28.5168 13.0461 28.5168 12.8276V2.47026H21.1481V0.814524L30.3589 0.813588ZM42.5698 10.5225C42.6325 10.5225 42.6947 10.5342 42.7573 10.5576C42.82 10.581 42.8798 10.6212 42.9368 10.6788L43.9827 11.7801C43.525 12.3789 42.9509 12.8309 42.2617 13.1355C41.5726 13.44 40.7567 13.5926 39.8147 13.5926C38.9507 13.5926 38.1769 13.4456 37.4925 13.1514C36.808 12.8571 36.2278 12.451 35.7518 11.9326C35.2759 11.4142 34.9103 10.7999 34.655 10.0893C34.3997 9.37859 34.2726 8.60663 34.2726 7.77338C34.2726 6.9247 34.4184 6.14478 34.7097 5.43411C35.001 4.72344 35.4082 4.11009 35.9314 3.59451C36.4545 3.07894 37.0801 2.67799 37.8085 2.39166C38.5369 2.10533 39.3411 1.96217 40.2205 1.96217C40.6473 1.96217 41.0494 2.00007 41.4262 2.07539C41.8031 2.15071 42.1561 2.25505 42.4838 2.38792C42.8115 2.52079 43.1136 2.67939 43.3894 2.86419C43.6652 3.04899 43.9098 3.25345 44.123 3.47755L43.2332 4.67245C43.1762 4.74543 43.1084 4.81187 43.0303 4.87175C42.9523 4.93164 42.8429 4.96158 42.7026 4.96158C42.6091 4.96158 42.5203 4.94053 42.437 4.89889C42.3538 4.85725 42.2655 4.80625 42.1715 4.74637C42.0775 4.68648 41.9751 4.62145 41.8634 4.55127C41.7516 4.4811 41.6189 4.41606 41.4655 4.35618C41.3122 4.29629 41.1326 4.2453 40.9269 4.20366C40.7212 4.16202 40.4809 4.14097 40.2051 4.14097C39.7263 4.14097 39.2892 4.22565 38.8936 4.39501C38.4981 4.56437 38.1587 4.80625 37.8749 5.12159C37.5911 5.43692 37.37 5.81822 37.2115 6.26596C37.053 6.7137 36.9735 7.21617 36.9735 7.77338C36.9735 8.3568 37.053 8.87471 37.2115 9.3276C37.37 9.78048 37.586 10.1622 37.8595 10.472C38.133 10.7817 38.4514 11.0175 38.8156 11.1789C39.1798 11.3403 39.5702 11.4212 39.9863 11.4212C40.2256 11.4212 40.444 11.4095 40.6417 11.3862C40.8395 11.3628 41.0228 11.3225 41.192 11.265C41.3613 11.2074 41.5226 11.1335 41.6759 11.0423C41.8293 10.951 41.984 10.8378 42.1402 10.7026C42.2028 10.6507 42.2701 10.6076 42.3431 10.574C42.416 10.5403 42.4913 10.523 42.5694 10.523L42.5698 10.5225ZM55.1136 13.4676H52.4595V8.65576H47.8384V13.4676H45.1842V2.08662H47.8384V6.84376H52.4595V2.08662H55.1136V13.4676ZM67.5714 13.4676H65.5265C65.2974 13.4676 65.1089 13.4143 64.9607 13.3076C64.8125 13.201 64.7097 13.0643 64.6526 12.8973L63.9813 10.9132H59.6571L58.9857 12.8973C58.9338 13.0433 58.8324 13.1748 58.6814 13.2917C58.5303 13.4087 58.3457 13.4676 58.1273 13.4676H56.0665L60.4687 2.08662H63.1696L67.5714 13.4676ZM60.2653 9.11659H63.3721L62.3262 5.99975L62.0882 5.30078C62.0265 5.1389 61.9344 4.84883 61.8498 4.55548L61.8189 4.4301C61.7357 4.74777 61.6497 5.04205 61.5613 5.31294C61.473 5.58383 61.3897 5.81822 61.3117 6.01613L60.2653 9.11659ZM71.3804 13.4676H68.7262V2.08662H71.3804V13.4676ZM74.8775 2.08662C74.9921 2.08662 75.0884 2.09177 75.1664 2.10206C75.2445 2.11235 75.3147 2.132 75.3773 2.16054C75.4399 2.18908 75.4998 2.22931 75.5568 2.28171C75.6139 2.33411 75.6793 2.40429 75.7518 2.49272L81.1532 9.3276C81.1321 9.10911 81.1167 8.8967 81.1064 8.69085C81.0961 8.48499 81.091 8.2913 81.091 8.10884V2.08662H83.4169V13.4676H82.0433C81.8404 13.4676 81.6688 13.4363 81.5281 13.3741C81.3874 13.3118 81.2523 13.1972 81.1223 13.0302L75.7597 6.25005C75.7752 6.44795 75.7883 6.64211 75.7985 6.83206C75.8088 7.02201 75.814 7.20026 75.814 7.36729V13.4676H73.488V2.08662H74.8775Z" fill="#676768"/>
<path opacity="0.5" d="M86.783 2.0841C86.8975 2.0841 86.9938 2.08925 87.0719 2.09954C87.15 2.10984 87.2201 2.12949 87.2828 2.15803C87.3454 2.18656 87.4053 2.2268 87.4623 2.2792C87.5193 2.3316 87.5848 2.40178 87.6573 2.4902L93.0586 9.32509C93.0376 9.1066 93.0222 8.89419 93.0119 8.68834C93.0016 8.48248 92.9965 8.28879 92.9965 8.10633V2.0841H95.3224V13.4651H93.9488C93.7459 13.4651 93.5743 13.4338 93.4336 13.3716C93.2929 13.3093 93.1577 13.1947 93.0278 13.0277L87.6652 6.24754C87.6806 6.44544 87.6937 6.6396 87.704 6.82955C87.7143 7.0195 87.7194 7.19775 87.7194 7.36478V13.4651H85.3935V2.0841H86.783ZM104.518 2.0841V4.11506H99.85V6.77107H103.425V8.72389H99.85V11.4342H104.518V13.4651H97.1958V2.0841H104.518ZM105.158 2.0841H107.375C107.604 2.0841 107.795 2.13604 107.949 2.24037C108.102 2.3447 108.202 2.48272 108.249 2.65442L109.81 8.59102C109.862 8.78378 109.914 8.98917 109.966 9.20812C110.018 9.42708 110.058 9.65586 110.083 9.8954C110.135 9.65071 110.193 9.42006 110.255 9.20391C110.317 8.98776 110.377 8.78331 110.434 8.59056L112.276 2.65395C112.323 2.50798 112.423 2.37651 112.577 2.25955C112.731 2.14259 112.916 2.08364 113.135 2.08364H113.916C114.145 2.08364 114.334 2.13463 114.482 2.23616C114.63 2.33768 114.733 2.4771 114.79 2.65395L116.616 8.59056C116.674 8.77302 116.733 8.96671 116.796 9.17257C116.859 9.37842 116.913 9.59831 116.96 9.83271C117.002 9.60346 117.045 9.38497 117.089 9.17678C117.133 8.96858 117.178 8.77302 117.225 8.59102L118.786 2.65442C118.828 2.5033 118.927 2.37043 119.083 2.25628C119.238 2.14212 119.426 2.08457 119.645 2.08457H121.721L118.208 13.4656H115.82L113.681 6.41223C113.644 6.30275 113.607 6.18298 113.568 6.05291C113.529 5.92285 113.491 5.78483 113.455 5.63886C113.418 5.78483 113.38 5.92285 113.341 6.05291C113.303 6.18298 113.265 6.30275 113.228 6.41223L111.059 13.4656H108.67L105.158 2.0841ZM129.074 4.39624C128.996 4.52116 128.914 4.61473 128.828 4.67742C128.742 4.74011 128.632 4.77099 128.496 4.77099C128.377 4.77099 128.248 4.7331 128.11 4.65777C127.972 4.58245 127.816 4.49777 127.642 4.40373C127.467 4.30969 127.268 4.22547 127.045 4.14968C126.821 4.07389 126.566 4.03646 126.28 4.03646C125.786 4.03646 125.417 4.14173 125.176 4.35273C124.934 4.56373 124.813 4.84866 124.813 5.20797C124.813 5.43722 124.886 5.62717 125.031 5.77828C125.176 5.9294 125.368 6.05946 125.605 6.16894C125.841 6.27842 126.112 6.37854 126.416 6.46977C126.721 6.561 127.032 6.66253 127.349 6.77434C127.667 6.88616 127.977 7.01763 128.282 7.16875C128.586 7.31986 128.857 7.51262 129.093 7.74655C129.33 7.98047 129.521 8.26586 129.667 8.60178C129.813 8.9377 129.885 9.3424 129.885 9.81633C129.885 10.3422 129.794 10.8344 129.612 11.2924C129.431 11.7504 129.166 12.1505 128.82 12.4915C128.474 12.8326 128.047 13.1007 127.54 13.2962C127.033 13.4918 126.456 13.5891 125.811 13.5891C125.457 13.5891 125.097 13.5526 124.73 13.4796C124.363 13.4066 124.008 13.3037 123.664 13.1713C123.321 13.0389 122.998 12.8808 122.697 12.6988C122.395 12.5168 122.132 12.3133 121.908 12.0896L122.689 10.8554C122.746 10.7619 122.827 10.6861 122.931 10.629C123.036 10.5719 123.147 10.5429 123.267 10.5429C123.423 10.5429 123.581 10.5925 123.739 10.6912C123.898 10.7899 124.077 10.8994 124.278 11.0192C124.478 11.139 124.708 11.2484 124.969 11.3472C125.229 11.4459 125.536 11.4955 125.89 11.4955C126.369 11.4955 126.741 11.3902 127.006 11.1792C127.271 10.9682 127.404 10.6337 127.404 10.1756C127.404 9.9099 127.331 9.69376 127.185 9.5272C127.04 9.36064 126.848 9.22263 126.612 9.11315C126.375 9.00367 126.106 8.90729 125.804 8.82401C125.502 8.74074 125.192 8.6481 124.875 8.54658C124.557 8.44505 124.248 8.32014 123.946 8.17183C123.644 8.02352 123.375 7.82795 123.138 7.58607C122.901 7.34419 122.71 7.04196 122.564 6.67984C122.419 6.31772 122.346 5.87139 122.346 5.34037C122.346 4.91322 122.432 4.49683 122.604 4.09073C122.775 3.68463 123.028 3.32252 123.361 3.00484C123.693 2.68717 124.102 2.43312 124.586 2.24318C125.07 2.05323 125.624 1.95825 126.249 1.95825C126.597 1.95825 126.937 1.98539 127.267 2.04013C127.598 2.09487 127.911 2.17534 128.208 2.28247C128.505 2.38961 128.782 2.51687 129.039 2.66518C129.297 2.81349 129.527 2.98145 129.73 3.16906L129.074 4.39624Z" fill="#676768"/>
</svg>
