<svg width="122" height="29" viewBox="0 0 122 29" fill="none" xmlns="http://www.w3.org/2000/svg">
<path d="M17.6001 20.6658L12.5484 22.8698V22.6474C11.5785 22.8901 10.4873 23.0316 9.47699 23.0923C4.70818 23.0518 0.949719 20.5444 0.889099 17.5922V16.5003C2.44502 18.765 5.6377 20.3018 9.47699 20.2411C10.7702 20.3018 12.1039 20.0996 13.2152 19.7963L13.6598 18.7044C12.3464 19.1088 10.8915 19.3716 9.47699 19.3716C4.70818 19.3716 0.949719 16.8845 0.889099 13.8716V12.9819C2.44502 15.0848 5.6377 16.6014 9.47699 16.5003C11.2148 16.6014 12.8919 16.2374 14.3266 15.6106L14.5489 14.5187C13.1546 15.2466 11.3562 15.6712 9.49719 15.6106C4.72839 15.6712 0.969926 13.1841 0.909306 10.1105V9.2208C2.46523 11.3642 5.6579 12.901 9.49719 12.9616C11.6795 12.901 13.7406 12.3146 15.438 11.4249L15.6603 10.1105C14.1245 11.2429 11.8816 11.991 9.49719 12.0922C4.72839 11.991 0.969926 9.48366 0.909306 6.36966C0.949719 3.3972 4.72839 0.910043 9.49719 0.869601C12.3261 0.910043 14.9732 1.90086 16.5292 3.51853L16.6908 3.7814H17.8022L17.6405 3.51853C16.0846 1.39534 12.9526 0.000105414 9.49719 0.000105414C4.20301 -0.0201154 0 2.87146 0 6.34944V6.57187V17.7944C0.181861 21.1915 4.28384 23.9618 9.45678 23.9618C12.8717 23.982 15.9634 22.6272 17.6001 20.6658Z" fill="#676768"/>
<path d="M15.5394 28.4113L17.3176 20.8488L12.2053 23.0731L15.3171 9.96997H9.33594L10.8919 3.51953H29.9873L28.4313 9.96997H22.2077L20.874 13.5288L27.7645 10.6373L15.5394 28.4113ZM18.6513 19.312L17.7622 23.7606L25.0972 12.6593L19.0958 15.3285L21.7631 9.10047H27.7645L28.8759 4.42947H11.5385L10.4271 9.10047H16.4285L13.5389 21.5363L18.6513 19.312Z" fill="#676768"/>
<path d="M42.6569 7.84656V7.86678C42.6771 8.57451 42.4549 9.12047 42.0103 9.52489C41.5658 9.9293 40.9596 10.1315 40.1715 10.1315C39.3834 10.1315 38.7368 9.86864 38.2519 9.36312C37.7669 8.8576 37.5244 8.19031 37.5244 7.38148V6.06712C37.5244 5.25829 37.7669 4.59101 38.2317 4.08549C38.7166 3.57997 39.343 3.3171 40.1109 3.3171C40.9192 3.3171 41.5456 3.5193 42.0103 3.9035C42.4751 4.30792 42.6974 4.85387 42.6771 5.5616V5.58183H41.3839C41.3839 5.15719 41.2829 4.83366 41.0808 4.63145C40.8787 4.42924 40.5554 4.32814 40.1311 4.32814C39.727 4.32814 39.4239 4.4899 39.2016 4.81344C38.9793 5.13697 38.8581 5.54139 38.8581 6.04691V7.38148C38.8581 7.887 38.9793 8.31164 39.2016 8.63517C39.4441 8.9587 39.7674 9.12047 40.1917 9.12047C40.5958 9.12047 40.8787 9.01937 41.0808 8.81716C41.2829 8.61495 41.3839 8.29142 41.3839 7.86678H42.6569V7.84656ZM49.9718 7.32082C49.9718 8.12965 49.7091 8.81716 49.2039 9.3429C48.6988 9.86864 48.0319 10.1315 47.2035 10.1315C46.375 10.1315 45.7284 9.86864 45.203 9.3429C44.6978 8.81716 44.4351 8.12965 44.4351 7.32082V6.12779C44.4351 5.31896 44.6978 4.65167 45.203 4.10571C45.7082 3.57997 46.375 3.29688 47.1833 3.29688C48.0117 3.29688 48.6786 3.55975 49.1837 4.10571C49.7091 4.63145 49.9516 5.31896 49.9516 6.12779V7.32082H49.9718ZM48.6381 6.10757C48.6381 5.58183 48.5169 5.17741 48.2542 4.83366C47.9915 4.51013 47.648 4.32814 47.1833 4.32814C46.7387 4.32814 46.375 4.4899 46.1325 4.83366C45.89 5.15719 45.7486 5.58183 45.7486 6.10757V7.3006C45.7486 7.82634 45.8698 8.25097 46.1325 8.59473C46.375 8.91826 46.7387 9.10025 47.1833 9.10025C47.648 9.10025 47.9915 8.93848 48.2542 8.59473C48.5169 8.27119 48.6381 7.82634 48.6381 7.3006V6.10757ZM53.4069 10.0304H52.0733V3.39798H53.4069V10.0304ZM61.0653 10.0304H59.7317L57.0644 5.5616H57.0442V10.0304H55.7105V3.39798H57.0442L59.7115 7.86678H59.7317V3.39798H61.0653V10.0304ZM67.7538 4.42924H65.8543V10.0304H64.5207V4.42924H62.6617V3.39798H67.7538V4.42924ZM73.25 7.11861H70.7848V9.01937H73.7148V10.0304H69.4713V3.39798H73.7148V4.42924H70.805V6.08735H73.2702V7.11861H73.25ZM76.9478 9.01937H79.9182V10.0304H75.6142V3.39798H76.9478V9.01937ZM85.5761 7.11861H83.1109V9.01937H86.0409V10.0304H81.7975V3.39798H86.0409V4.42924H83.1311V6.08735H85.5964V7.11861H85.5761ZM93.0325 9.14069C92.8304 9.40356 92.5273 9.64621 92.1029 9.84842C91.6988 10.0506 91.1734 10.1517 90.5268 10.1517C89.7185 10.1517 89.0719 9.90908 88.5667 9.40356C88.0616 8.89804 87.7989 8.25098 87.7989 7.44214V6.04691C87.7989 5.23808 88.0414 4.59101 88.5465 4.08549C89.0315 3.57997 89.6781 3.3171 90.446 3.3171C91.2543 3.3171 91.8807 3.5193 92.305 3.9035C92.7293 4.2877 92.9516 4.79322 92.9314 5.44028V5.4605H91.6786C91.6786 5.11675 91.5776 4.83366 91.3755 4.63145C91.1734 4.42924 90.8703 4.32814 90.4864 4.32814C90.0823 4.32814 89.759 4.4899 89.4963 4.79321C89.2538 5.11675 89.1325 5.52116 89.1325 6.00646V7.4017C89.1325 7.90722 89.2538 8.31164 89.5165 8.63517C89.7792 8.9587 90.1227 9.10025 90.547 9.10025C90.8703 9.10025 91.1128 9.05981 91.2947 8.99914C91.4765 8.93848 91.618 8.8576 91.719 8.7565V7.46237H90.446V6.53221H93.0527V9.14069H93.0325ZM96.4676 7.38148V10.0304H95.1339V3.39798H97.4375C98.1852 3.39798 98.7914 3.57997 99.2157 3.92372C99.6401 4.26748 99.8623 4.75277 99.8623 5.3594C99.8623 5.70315 99.7815 5.98625 99.5997 6.24912C99.4178 6.49177 99.1551 6.69397 98.8116 6.85574C99.1955 6.97707 99.4784 7.15905 99.6603 7.44214C99.8219 7.70501 99.923 8.04877 99.923 8.45319V8.93848C99.923 9.12047 99.9432 9.32268 100.004 9.52489C100.044 9.7271 100.145 9.86864 100.266 9.96975V10.0709H98.8924C98.7712 9.96975 98.6903 9.80798 98.6499 9.58555C98.6095 9.36312 98.5893 9.14069 98.5893 8.93848V8.47341C98.5893 8.14987 98.5085 7.887 98.3266 7.70501C98.1448 7.52303 97.8821 7.42192 97.5588 7.42192H96.4676V7.38148ZM96.4676 6.37044H97.4173C97.781 6.37044 98.0639 6.28956 98.2458 6.12779C98.4277 5.96602 98.5287 5.74359 98.5287 5.42006C98.5287 5.11675 98.4277 4.8741 98.2458 4.69211C98.0639 4.51012 97.8013 4.42924 97.4375 4.42924H96.4676V6.37044ZM105.5 8.61495H103.358L102.914 10.0506H101.519L103.762 3.4182H105.116L107.339 10.0506H105.945L105.5 8.61495ZM103.681 7.56347H105.177L104.449 5.21785H104.429L103.681 7.56347ZM110.289 7.62413V10.0304H108.955V3.39798H111.501C112.269 3.39798 112.855 3.60019 113.3 3.98438C113.744 4.36858 113.946 4.89432 113.946 5.52117C113.946 6.14801 113.724 6.67375 113.3 7.05795C112.855 7.44215 112.269 7.64435 111.501 7.64435H110.289V7.62413ZM110.289 6.61309H111.501C111.865 6.61309 112.148 6.51199 112.35 6.30978C112.532 6.10757 112.633 5.8447 112.633 5.54139C112.633 5.21785 112.532 4.95498 112.35 4.75277C112.168 4.55056 111.885 4.44946 111.501 4.44946H110.289V6.61309ZM121.241 10.0304H119.907V7.28037H117.2V10.0304H115.866V3.39798H117.2V6.24912H119.907V3.39798H121.241V10.0304Z" fill="#676768"/>
<path d="M39.9488 20.8691H39.1203V16.5014H37.625V15.7937H41.4441V16.5014H39.9488V20.8691ZM45.5056 20.8691H44.6772V18.5033C44.6772 18.1999 44.6165 17.9775 44.4953 17.836C44.3741 17.6944 44.1922 17.6135 43.9295 17.6135C43.586 17.6135 43.3435 17.7146 43.1819 17.9168C43.0202 18.1191 42.9394 18.4628 42.9394 18.9481V20.8489H42.1311V15.4499H42.9394V16.8249C42.9394 17.0474 42.9192 17.2698 42.899 17.5327H42.9596C43.0606 17.3507 43.2223 17.2091 43.4243 17.108C43.6264 17.0069 43.8487 16.9463 44.1114 16.9463C45.0409 16.9463 45.5056 17.4113 45.5056 18.3617V20.8691ZM48.3144 20.9298C47.7082 20.9298 47.2434 20.7478 46.9201 20.404C46.5766 20.0603 46.4149 19.575 46.4149 18.9683C46.4149 18.3415 46.5766 17.8562 46.8797 17.4922C47.1828 17.1282 47.6274 16.9463 48.1729 16.9463C48.6781 16.9463 49.0822 17.108 49.3651 17.4113C49.6682 17.7146 49.8097 18.1393 49.8097 18.6852V19.1301H47.2434C47.2636 19.4941 47.3647 19.7974 47.5465 19.9794C47.7284 20.1816 48.0113 20.2827 48.3548 20.2827C48.5771 20.2827 48.7993 20.2625 48.9812 20.222C49.1833 20.1816 49.3853 20.1007 49.6076 19.9996V20.6669C49.4056 20.768 49.2035 20.8287 49.0014 20.8691C48.8196 20.9095 48.5771 20.9298 48.3144 20.9298ZM48.1729 17.5731C47.9103 17.5731 47.7082 17.654 47.5465 17.8157C47.3849 17.9775 47.304 18.2202 47.2636 18.5437H49.0014C49.0014 18.2202 48.9206 17.9775 48.7791 17.8157C48.6377 17.654 48.4356 17.5731 48.1729 17.5731ZM54.4977 17.6338H53.5681V20.8691H52.7397V17.6338H52.1133V17.2496L52.7397 17.0069V16.7643C52.7397 16.3194 52.8407 15.9757 53.063 15.7532C53.2853 15.5308 53.6086 15.4297 54.0329 15.4297C54.3158 15.4297 54.5987 15.4701 54.8816 15.5712L54.6593 16.1981C54.4572 16.1374 54.2754 16.097 54.0733 16.097C53.8915 16.097 53.75 16.1576 53.6692 16.2587C53.5884 16.3801 53.5479 16.5418 53.5479 16.7643V17.0069H54.4775V17.6338H54.4977ZM57.8722 20.8691L57.751 20.3636H57.7105C57.5893 20.5456 57.4276 20.6871 57.2256 20.7882C57.0235 20.8893 56.781 20.95 56.5183 20.95C56.0536 20.95 55.7101 20.8287 55.4676 20.6062C55.2251 20.3838 55.1241 20.0198 55.1241 19.5547V17.0271H55.9525V19.393C55.9525 19.6963 56.0132 19.8985 56.1344 20.0603C56.2557 20.2018 56.4375 20.2827 56.7002 20.2827C57.0437 20.2827 57.2862 20.1816 57.4479 19.9794C57.6095 19.7772 57.6903 19.4334 57.6903 18.9481V17.0271H58.5188V20.8691H57.8722ZM61.1053 20.2625C61.3073 20.2625 61.5094 20.222 61.7115 20.1614V20.768C61.6307 20.8084 61.5094 20.8489 61.368 20.8691C61.2265 20.8893 61.0851 20.9095 60.9234 20.9095C60.1556 20.9095 59.7716 20.5051 59.7716 19.6963V17.6338H59.2463V17.2698L59.812 16.9665L60.0949 16.1576H60.6001V17.0069H61.6913V17.6338H60.6001V19.6963C60.6001 19.8985 60.6405 20.04 60.7416 20.1411C60.8022 20.222 60.9436 20.2625 61.1053 20.2625ZM65.1668 20.8691L65.0456 20.3636H65.0052C64.8839 20.5456 64.7223 20.6871 64.5202 20.7882C64.3182 20.8893 64.0757 20.95 63.813 20.95C63.3482 20.95 63.0047 20.8287 62.7622 20.6062C62.54 20.3838 62.4187 20.0198 62.4187 19.5547V17.0271H63.2472V19.393C63.2472 19.6963 63.3078 19.8985 63.4291 20.0603C63.5503 20.2018 63.7322 20.2827 63.9948 20.2827C64.3384 20.2827 64.5808 20.1816 64.7425 19.9794C64.9042 19.7772 64.985 19.4334 64.985 18.9481V17.0271H65.8135V20.8691H65.1668ZM68.9253 16.9463C69.087 16.9463 69.2284 16.9665 69.3294 16.9867L69.2486 17.7551C69.1274 17.7349 69.0061 17.7146 68.8849 17.7146C68.5616 17.7146 68.2989 17.8157 68.0968 18.0382C67.8948 18.2606 67.7937 18.5235 67.7937 18.8672V20.8691H66.9855V17.0271H67.6321L67.7331 17.6944H67.7735C67.8948 17.472 68.0766 17.29 68.2787 17.1485C68.4605 17.0271 68.6828 16.9463 68.9253 16.9463ZM71.5724 20.9298C70.9662 20.9298 70.5014 20.7478 70.1781 20.404C69.8346 20.0603 69.673 19.575 69.673 18.9683C69.673 18.3415 69.8346 17.8562 70.1377 17.4922C70.4408 17.1282 70.8854 16.9463 71.4309 16.9463C71.9361 16.9463 72.3402 17.108 72.6231 17.4113C72.9262 17.7146 73.0677 18.1393 73.0677 18.6852V19.1301H70.5014C70.5216 19.4941 70.6227 19.7974 70.8045 19.9794C70.9864 20.1816 71.2693 20.2827 71.6128 20.2827C71.8351 20.2827 72.0574 20.2625 72.2392 20.222C72.4413 20.1816 72.6433 20.1007 72.8656 19.9996V20.6669C72.6636 20.768 72.4615 20.8287 72.2594 20.8691C72.0574 20.9095 71.8351 20.9298 71.5724 20.9298ZM71.4309 17.5731C71.1683 17.5731 70.9662 17.654 70.8045 17.8157C70.6429 17.9775 70.562 18.2202 70.5216 18.5437H72.2594C72.2594 18.2202 72.1786 17.9775 72.0371 17.8157C71.8755 17.654 71.6734 17.5731 71.4309 17.5731ZM79.2308 18.9279C79.2308 19.5547 79.0691 20.04 78.7458 20.404C78.4225 20.7478 77.9779 20.9298 77.4122 20.9298C77.0484 20.9298 76.7453 20.8489 76.4624 20.6871C76.1795 20.5253 75.9775 20.2827 75.836 19.9794C75.6946 19.6761 75.6137 19.3323 75.6137 18.9279C75.6137 18.301 75.7754 17.8157 76.0987 17.472C76.422 17.1282 76.8666 16.9463 77.4526 16.9463C77.9981 16.9463 78.4427 17.1282 78.766 17.4922C79.0893 17.8562 79.2308 18.3213 79.2308 18.9279ZM76.4422 18.9279C76.4422 19.8176 76.7655 20.2625 77.4324 20.2625C78.079 20.2625 78.4023 19.8176 78.4023 18.9279C78.4023 18.0584 78.079 17.6135 77.4324 17.6135C77.0888 17.6135 76.8464 17.7349 76.6847 17.9573C76.5231 18.1797 76.4422 18.5033 76.4422 18.9279ZM82.1001 17.6338H81.1706V20.8691H80.3421V17.6338H79.7157V17.2496L80.3421 17.0069V16.7643C80.3421 16.3194 80.4432 15.9757 80.6654 15.7532C80.8877 15.5308 81.211 15.4297 81.6354 15.4297C81.9183 15.4297 82.2012 15.4701 82.4841 15.5712L82.2618 16.1981C82.0597 16.1374 81.8778 16.097 81.6758 16.097C81.4939 16.097 81.3525 16.1576 81.2716 16.2587C81.1908 16.3598 81.1504 16.5418 81.1504 16.7643V17.0069H82.0799V17.6338H82.1001ZM87.8388 20.8691H87.0104V18.5033C87.0104 18.1999 86.9497 17.9977 86.8487 17.836C86.7477 17.6944 86.5658 17.6135 86.3233 17.6135C86 17.6135 85.7778 17.7146 85.6363 17.9168C85.4949 18.1191 85.414 18.4628 85.414 18.9481V20.8691H84.6058V17.0271H85.2524L85.3736 17.5327H85.414C85.5151 17.3507 85.6767 17.2091 85.8788 17.108C86.0809 17.0069 86.3031 16.9665 86.5456 16.9665C87.1316 16.9665 87.5357 17.1687 87.7176 17.5731H87.7782C87.8995 17.3911 88.0611 17.2293 88.2632 17.1282C88.4653 17.0271 88.7077 16.9665 88.9704 16.9665C89.4352 16.9665 89.7585 17.0878 89.9808 17.3102C90.1828 17.5327 90.3041 17.8966 90.3041 18.3617V20.8691H89.4958V18.5033C89.4958 18.1999 89.4352 17.9977 89.3341 17.836C89.2129 17.6944 89.0513 17.6135 88.8088 17.6135C88.4855 17.6135 88.2632 17.7146 88.1217 17.9168C87.9803 18.1191 87.8995 18.4224 87.8995 18.8268V20.8691H87.8388ZM94.79 18.9279C94.79 19.5547 94.6283 20.04 94.305 20.404C93.9817 20.7478 93.5372 20.9298 92.9714 20.9298C92.6076 20.9298 92.3045 20.8489 92.0216 20.6871C91.7388 20.5253 91.5367 20.2827 91.3952 19.9794C91.2538 19.6761 91.173 19.3323 91.173 18.9279C91.173 18.301 91.3346 17.8157 91.6579 17.472C91.9812 17.1282 92.4258 16.9463 93.0118 16.9463C93.5574 16.9463 94.0019 17.1282 94.3252 17.4922C94.6283 17.8562 94.79 18.3213 94.79 18.9279ZM92.0014 18.9279C92.0014 19.8176 92.3248 20.2625 92.9916 20.2625C93.6382 20.2625 93.9615 19.8176 93.9615 18.9279C93.9615 18.0584 93.6382 17.6135 92.9916 17.6135C92.6481 17.6135 92.4056 17.7349 92.2439 17.9573C92.0823 18.1797 92.0014 18.5033 92.0014 18.9279ZM99.1142 20.8691H98.2857V18.5033C98.2857 18.1999 98.2251 17.9775 98.1039 17.836C97.9826 17.6944 97.8008 17.6135 97.5381 17.6135C97.1946 17.6135 96.9319 17.7146 96.7904 17.9168C96.649 18.1191 96.548 18.4628 96.548 18.9481V20.8691H95.7397V17.0271H96.3863L96.5076 17.5327H96.548C96.6692 17.3507 96.8309 17.2091 97.0329 17.108C97.235 17.0069 97.4775 16.9665 97.7402 16.9665C98.6697 16.9665 99.1142 17.4316 99.1142 18.3819V20.8691ZM101.923 20.9298C101.317 20.9298 100.852 20.7478 100.529 20.404C100.185 20.0603 100.024 19.575 100.024 18.9683C100.024 18.3415 100.185 17.8562 100.488 17.4922C100.791 17.1282 101.236 16.9463 101.782 16.9463C102.287 16.9463 102.691 17.108 102.974 17.4113C103.277 17.7146 103.418 18.1393 103.418 18.6852V19.1301H100.852C100.872 19.4941 100.973 19.7974 101.155 19.9794C101.337 20.1816 101.62 20.2827 101.963 20.2827C102.186 20.2827 102.408 20.2625 102.59 20.222C102.772 20.1816 102.994 20.1007 103.216 19.9996V20.6669C103.014 20.768 102.812 20.8287 102.61 20.8691C102.408 20.9095 102.186 20.9298 101.923 20.9298ZM101.761 17.5731C101.499 17.5731 101.297 17.654 101.135 17.8157C100.973 17.9775 100.892 18.2202 100.852 18.5437H102.59C102.59 18.2202 102.509 17.9775 102.368 17.8157C102.226 17.654 102.024 17.5731 101.761 17.5731ZM103.62 17.0271H104.509L105.298 19.211C105.419 19.5143 105.5 19.8176 105.54 20.0805H105.56C105.58 19.9592 105.621 19.7974 105.681 19.6154C105.742 19.4334 106.025 18.5639 106.571 17.0271H107.46L105.823 21.3746C105.52 22.1632 105.035 22.5676 104.328 22.5676C104.146 22.5676 103.964 22.5474 103.802 22.507V21.8599C103.923 21.8801 104.065 21.9004 104.227 21.9004C104.61 21.9004 104.893 21.6779 105.055 21.2128L105.196 20.8489L103.62 17.0271Z" fill="#676768"/>
</svg>
