<svg width="93" height="19" viewBox="0 0 93 19" fill="none" xmlns="http://www.w3.org/2000/svg">
<path d="M8.84366 9.59341C8.84366 10.0809 9.22253 10.46 9.70966 10.46C10.1968 10.46 10.5757 10.0809 10.5757 9.59341C10.5757 9.10595 10.1968 8.72681 9.70966 8.72681C9.22253 8.72681 8.84366 9.10595 8.84366 9.59341ZM16.1506 8.72681C15.6634 8.72681 15.2846 9.10595 15.2846 9.59341C15.2846 10.0809 15.6634 10.46 16.1506 10.46C16.6377 10.46 17.0166 10.0809 17.0166 9.59341C17.0166 9.10595 16.6377 8.72681 16.1506 8.72681ZM16.1506 15.2805C15.6634 15.2805 15.2846 15.6597 15.2846 16.1471C15.2846 16.6346 15.6634 17.0137 16.1506 17.0137C16.6377 17.0137 17.0166 16.6346 17.0166 16.1471C17.0166 15.6597 16.6377 15.2805 16.1506 15.2805Z" fill="#676768"/>
<path d="M17.9906 1.52428C17.1246 0.441022 15.555 0.386859 14.6349 1.25347L14.5266 1.36179L14.3101 1.52428C13.4441 2.2284 12.1451 2.17423 11.3332 1.36179V1.30763C11.0626 1.03681 10.6837 0.820162 10.3048 0.711836C10.2507 0.711836 10.1425 0.657674 10.0883 0.657674H9.22233C9.16821 0.657674 9.11408 0.657674 9.05996 0.711836H8.95171C8.89758 0.711836 8.84345 0.765999 8.78933 0.765999C8.78933 0.765999 8.7352 0.765999 8.7352 0.820162C8.68108 0.820162 8.62695 0.874325 8.57283 0.874325C8.57283 0.874325 8.5187 0.874325 8.5187 0.928488C8.46458 0.982651 8.41045 0.982651 8.35633 1.03681C8.35633 1.03681 8.3022 1.03681 8.3022 1.09098C8.24808 1.14514 8.19395 1.14514 8.13983 1.1993L8.0857 1.25347L7.97745 1.36179L7.76095 1.52428C6.89495 2.2284 5.59594 2.17423 4.83819 1.36179C4.83819 1.36179 4.78406 1.36179 4.78406 1.30763L4.67581 1.1993C4.35106 0.928488 3.97218 0.711836 3.53918 0.657674H3.32268H2.61905H2.56492C2.56492 0.711836 2.5108 0.711836 2.45667 0.765999H2.40255C2.13192 0.874325 1.8613 0.982651 1.6448 1.1993L1.59067 1.25347L1.42829 1.41595C1.21179 1.63261 1.10354 1.90342 0.995292 2.12007C0.995292 2.17423 0.941167 2.2284 0.941167 2.28256C0.941167 2.33672 0.887042 2.39089 0.887042 2.49921C0.832916 2.87835 0.832916 3.25749 0.941167 3.63663C0.941167 3.6908 0.995292 3.74496 0.995292 3.79912V3.85328C0.995292 3.90745 1.04942 3.96161 1.04942 4.01577C1.10354 4.06994 1.10354 4.1241 1.15767 4.23242C1.26592 4.28659 1.37417 4.39491 1.42829 4.44908L1.53654 4.5574L1.6448 4.66573C2.45667 5.47817 2.45667 6.88641 1.59067 7.75301C1.48242 7.86134 1.32004 8.02383 1.26592 8.13215C1.21179 8.18632 1.21179 8.24048 1.15767 8.34881V8.40297C1.10354 8.45713 1.10354 8.51129 1.04942 8.56546V8.61962C1.04942 8.67378 0.995292 8.72795 0.995292 8.78211V8.83627C0.995292 8.89043 0.995292 8.9446 0.941167 8.99876V9.8112C0.941167 9.86537 0.941167 9.91953 0.995292 9.97369V10.0279C1.10354 10.407 1.32004 10.7861 1.6448 11.1111C2.5108 11.9777 2.5108 13.386 1.6448 14.2526L1.59067 14.3067L1.48242 14.4151V14.4692C1.42829 14.5234 1.37417 14.5775 1.37417 14.6317C1.37417 14.6317 1.37417 14.6859 1.32004 14.6859C1.26592 14.74 1.26592 14.7942 1.21179 14.8484L1.15767 14.9025C1.15767 14.9567 1.10354 14.9567 1.10354 15.0108C1.10354 15.065 1.04942 15.065 1.04942 15.1192C1.04942 15.1733 1.04942 15.1733 0.995292 15.2275C0.887042 15.4441 0.832916 15.715 0.832916 15.9316V16.3649C0.887042 16.5274 0.887042 16.6899 0.995292 16.7982C0.995292 16.8524 1.04942 16.9065 1.04942 16.9065C1.04942 16.9065 1.04942 16.9607 1.10354 16.9607C1.10354 17.0149 1.15767 17.069 1.15767 17.1232C1.15767 17.1232 1.15767 17.1774 1.21179 17.1774C1.26592 17.2857 1.32004 17.3398 1.37417 17.394C1.37417 17.394 1.37417 17.4482 1.42829 17.4482C1.42829 17.4482 1.42829 17.5023 1.48242 17.5023C1.48242 17.5565 1.53654 17.5565 1.53654 17.5565L1.59067 17.6107C1.6448 17.6648 1.69892 17.6648 1.69892 17.719L1.75305 17.7732C1.75305 17.7732 1.80717 17.7731 1.80717 17.8273C1.8613 17.8815 1.91542 17.9356 1.96955 17.9356C1.96955 17.9356 2.02367 17.9356 2.02367 17.9898C2.0778 18.044 2.13192 18.044 2.18605 18.0981H2.24017C2.2943 18.1523 2.34842 18.1523 2.45667 18.1523C2.5108 18.1523 2.61905 18.2065 2.67318 18.2065H2.7273C2.78143 18.2065 2.83555 18.2065 2.88968 18.2606H3.3768C3.53918 18.2606 3.64743 18.2065 3.80981 18.2065H3.86393C3.91806 18.2065 3.97218 18.1523 4.02631 18.1523H4.08043C4.13456 18.1523 4.18868 18.0981 4.24281 18.0981H4.29693C4.40518 18.044 4.56756 17.9356 4.67581 17.8815L4.83819 17.719L4.89231 17.6648C5.75832 16.7441 7.16557 16.7441 8.03158 17.6648C9.00583 18.6939 10.6296 18.6398 11.5497 17.5023C12.1992 16.6899 12.1992 15.4983 11.5497 14.6317C10.6837 13.5484 9.11408 13.4943 8.19395 14.3609L8.0857 14.4692L7.8692 14.6317C7.0032 15.3358 5.70419 15.2817 4.89231 14.4692L4.78406 14.3609L4.62168 14.1442C3.91806 13.2776 3.97218 11.9777 4.78406 11.1653C5.27119 10.732 5.48769 10.1362 5.48769 9.54039V9.43206V9.3779C5.48769 8.83627 5.27119 8.29464 4.83819 7.9155C4.83819 7.86134 4.78406 7.86134 4.78406 7.80718L4.62168 7.59052C3.91806 6.72392 3.97218 5.42401 4.78406 4.61157L4.83819 4.5574L4.89231 4.50324C5.75832 3.58247 7.16557 3.58247 8.03158 4.50324L8.0857 4.5574L8.13983 4.61157L8.24808 4.71989C8.3022 4.71989 8.3022 4.77405 8.35633 4.77405C8.41045 4.77405 8.41045 4.82822 8.46458 4.82822C8.5187 4.82822 8.5187 4.88238 8.57283 4.88238C8.62695 4.88238 8.62695 4.93654 8.68108 4.93654C8.7352 4.93654 8.7352 4.99071 8.78933 4.99071C8.84345 4.99071 8.84345 5.04487 8.89758 5.04487C8.9517 5.04487 8.95171 5.04487 9.00583 5.09903C9.05996 5.09903 9.05996 5.09903 9.11408 5.15319H10.0342C10.0883 5.15319 10.1425 5.15319 10.1966 5.09903H10.3048C10.359 5.09903 10.4131 5.04487 10.4672 5.04487H10.5213C10.5755 5.04487 10.6296 4.99071 10.7378 4.93654C10.9543 4.82822 11.1708 4.66573 11.3332 4.50324L11.3873 4.44908C12.2533 3.52831 13.6606 3.52831 14.5266 4.44908C15.4467 5.53233 17.1246 5.47817 17.9906 4.34075C18.6401 3.52831 18.6401 2.33672 17.9906 1.52428Z" fill="#676768"/>
<path d="M30.3313 8.23878C30.0065 7.9138 29.7359 7.69715 29.357 7.53466C29.0323 7.37217 28.6534 7.26384 28.1663 7.26384C27.7333 7.26384 27.3003 7.37217 26.9755 7.53466C26.6508 7.69715 26.3802 7.9138 26.1636 8.23878C25.9471 8.50959 25.7848 8.83457 25.6765 9.21371C25.5683 9.59285 25.5141 9.97199 25.5141 10.3511C25.5141 10.7303 25.5683 11.1094 25.7306 11.4886C25.8389 11.8677 26.0554 12.1385 26.2719 12.4093C26.4884 12.6801 26.8132 12.8968 27.1379 13.0593C27.4627 13.2218 27.8415 13.2759 28.2745 13.2759C28.7617 13.2759 29.1405 13.1676 29.4653 13.0051C29.79 12.8426 30.1148 12.626 30.3854 12.301L31.5221 13.4926C31.0891 13.98 30.6019 14.305 30.0607 14.5217C29.5194 14.7383 28.924 14.8466 28.2745 14.8466C27.625 14.8466 26.9755 14.7383 26.4343 14.5217C25.893 14.305 25.4059 13.98 25.027 13.6009C24.6481 13.2218 24.3234 12.7343 24.1069 12.1927C23.8904 11.651 23.7821 11.0011 23.7821 10.3511C23.7821 9.70117 23.8904 9.05122 24.1069 8.50959C24.3234 7.96796 24.6481 7.48049 25.027 7.04719C25.4059 6.66805 25.893 6.34307 26.4343 6.12642C26.9755 5.90977 27.625 5.80145 28.2745 5.80145C28.924 5.80145 29.5194 5.90977 30.0607 6.12642C30.6561 6.34307 31.1432 6.72221 31.5762 7.15552L30.3313 8.23878ZM34.0118 10.2428C34.0118 10.6761 34.0659 11.1094 34.2283 11.4344C34.3366 11.8135 34.5531 12.1385 34.7696 12.4093C34.9861 12.6801 35.3108 12.8968 35.6356 13.0051C35.9603 13.1676 36.3933 13.2218 36.8263 13.2218C37.2593 13.2218 37.6382 13.1676 38.0171 13.0051C38.3418 12.8426 38.6666 12.626 38.8831 12.4093C39.0996 12.1385 39.3161 11.8135 39.4244 11.4344C39.5326 11.0552 39.6409 10.6761 39.6409 10.2428C39.6409 9.8095 39.5867 9.3762 39.4244 9.05122C39.3161 8.67208 39.0996 8.3471 38.8831 8.07629C38.6666 7.80547 38.3418 7.58882 38.0171 7.48049C37.6923 7.31801 37.2593 7.26384 36.8263 7.26384C36.3933 7.26384 36.0145 7.31801 35.6356 7.48049C35.3108 7.64298 34.9861 7.85964 34.7696 8.07629C34.5531 8.3471 34.3366 8.67208 34.2283 9.05122C34.1201 9.43036 34.0118 9.8095 34.0118 10.2428ZM32.2798 10.2428C32.2798 9.59285 32.3881 8.99706 32.6046 8.45543C32.8211 7.9138 33.1458 7.42633 33.5788 6.99303C34.0118 6.55973 34.4448 6.23475 35.0402 6.0181C35.5815 5.80145 36.1768 5.63896 36.8263 5.63896C37.4758 5.63896 38.0712 5.74728 38.6125 6.0181C39.1537 6.23475 39.6409 6.55973 40.0739 6.99303C40.5069 7.42633 40.7775 7.9138 41.0481 8.45543C41.2646 8.99706 41.3729 9.59285 41.3729 10.2428C41.3729 10.8928 41.2646 11.4886 41.0481 12.0302C40.8316 12.5718 40.5069 13.0593 40.0739 13.4926C39.6409 13.9259 39.2079 14.1967 38.6125 14.4675C38.0712 14.6842 37.4758 14.8466 36.8263 14.8466C36.1768 14.8466 35.5815 14.7383 35.0402 14.4675C34.499 14.2509 34.0118 13.9259 33.5788 13.4926C33.1458 13.0593 32.8752 12.626 32.6046 12.0302C32.4422 11.4886 32.2798 10.8928 32.2798 10.2428ZM43.0508 14.63H44.6745V5.96393H43.0508V14.63ZM42.6719 2.82249C42.6719 2.49751 42.7801 2.22669 42.9966 1.95588C43.2131 1.73923 43.4838 1.57674 43.8085 1.57674C44.1333 1.57674 44.4039 1.68506 44.6204 1.95588C44.8369 2.17253 44.9451 2.49751 44.9451 2.82249C44.9451 3.14746 44.8369 3.41828 44.6204 3.68909C44.4039 3.90574 44.1333 4.06823 43.8085 4.06823C43.4838 4.06823 43.2131 3.95991 42.9966 3.68909C42.7801 3.47244 42.6719 3.14746 42.6719 2.82249ZM46.9478 5.96393H48.5715V7.31801H48.6257C48.8422 6.83054 49.1669 6.4514 49.7082 6.18059C50.1953 5.90977 50.7907 5.74728 51.4943 5.74728C51.9273 5.74728 52.3062 5.80145 52.6851 5.96393C53.0639 6.07226 53.3887 6.28891 53.6593 6.55973C53.9299 6.83054 54.1465 7.15552 54.363 7.58882C54.5253 8.02212 54.6336 8.50959 54.6336 9.10538V14.6842H53.0098V9.53869C53.0098 9.15954 52.9557 8.78041 52.8474 8.50959C52.7392 8.23878 52.5768 7.96796 52.4144 7.80547C52.2521 7.64298 52.0356 7.4805 51.7649 7.42633C51.5484 7.37217 51.2778 7.31801 51.0072 7.31801C50.6824 7.31801 50.3577 7.37217 50.087 7.48049C49.8164 7.58882 49.5458 7.75131 49.3293 8.02212C49.1128 8.23878 48.9504 8.56375 48.8422 8.94289C48.7339 9.32203 48.6798 9.75534 48.6798 10.2428V14.7383H47.056V5.96393H46.9478ZM60.6415 13.2759C61.0745 13.2759 61.4534 13.2218 61.8322 13.0593C62.2111 12.8968 62.4818 12.6801 62.7524 12.4093C62.9689 12.1385 63.1854 11.8135 63.2936 11.4344C63.4019 11.0552 63.5101 10.6761 63.5101 10.1886C63.5101 9.75534 63.456 9.32203 63.2936 8.94289C63.1854 8.56375 62.9689 8.23878 62.7524 7.96796C62.4818 7.69715 62.2111 7.48049 61.8322 7.31801C61.4534 7.15552 61.0745 7.10135 60.6415 7.10135C60.2085 7.10135 59.8296 7.15552 59.4507 7.31801C59.0719 7.48049 58.8012 7.69715 58.5306 7.96796C58.3141 8.23878 58.0976 8.56375 57.9893 8.94289C57.8811 9.32203 57.7728 9.70117 57.7728 10.1886C57.7728 10.6219 57.827 11.0552 57.9893 11.4344C58.0976 11.8135 58.3141 12.1385 58.5306 12.4093C58.7471 12.6801 59.0719 12.8968 59.4507 13.0593C59.7755 13.1676 60.2085 13.2759 60.6415 13.2759ZM65.1339 14.5758H63.5101V13.3301H63.456C63.1313 13.8176 62.6983 14.1425 62.157 14.4133C61.6157 14.6842 61.0204 14.7925 60.425 14.7925C59.7755 14.7925 59.126 14.6842 58.5847 14.4675C58.0435 14.2509 57.5563 13.9259 57.1775 13.4926C56.7986 13.0593 56.4738 12.5718 56.3115 12.0302C56.095 11.4886 55.9867 10.8928 55.9867 10.2428C55.9867 9.59285 56.095 8.99706 56.3115 8.40126C56.528 7.85964 56.7986 7.37217 57.1775 6.93887C57.5563 6.50556 58.0435 6.18059 58.5847 5.96393C59.126 5.74728 59.7214 5.63896 60.425 5.63896C61.0204 5.63896 61.6157 5.74728 62.157 6.0181C62.6983 6.28891 63.1313 6.66805 63.4019 7.10135H63.456V0.601807H65.0798V14.5758H65.1339ZM73.4151 9.53869C73.4151 9.15954 73.3609 8.83457 73.2527 8.50959C73.1444 8.18461 72.9821 7.9138 72.7656 7.69715C72.5491 7.4805 72.2784 7.31801 72.0078 7.15552C71.6831 7.04719 71.3583 6.93887 70.9253 6.93887C70.5464 6.93887 70.1675 6.99303 69.8428 7.15552C69.518 7.31801 69.2474 7.48049 68.9768 7.75131C68.7603 7.96796 68.5438 8.23878 68.4355 8.56375C68.3273 8.88873 68.219 9.15954 68.219 9.43036H73.4151V9.53869ZM68.219 10.8928C68.219 11.2719 68.3273 11.5969 68.4897 11.9219C68.652 12.2468 68.8685 12.5176 69.1392 12.7343C69.4098 12.9509 69.7345 13.1134 70.0593 13.2218C70.4382 13.3301 70.7629 13.3843 71.1418 13.3843C71.6289 13.3843 72.1161 13.2759 72.4949 13.0051C72.8738 12.7885 73.1986 12.4635 73.5233 12.0843L74.7682 13.0593C73.8481 14.2509 72.5491 14.8466 70.9253 14.8466C70.2217 14.8466 69.6263 14.7383 69.085 14.5217C68.5438 14.305 68.0567 13.98 67.6778 13.5467C67.2989 13.1134 66.9742 12.6801 66.8118 12.0843C66.5953 11.5427 66.487 10.9469 66.487 10.297C66.487 9.64701 66.5953 9.05122 66.8118 8.50959C67.0283 7.96796 67.353 7.48049 67.7319 7.04719C68.1108 6.61389 68.5979 6.34307 69.1392 6.07226C69.6804 5.85561 70.2758 5.74728 70.9253 5.74728C71.6831 5.74728 72.3326 5.85561 72.8738 6.12642C73.4151 6.39724 73.8481 6.72221 74.1728 7.15552C74.4976 7.58882 74.7682 8.07629 74.9306 8.61792C75.093 9.15954 75.1471 9.70117 75.1471 10.297V10.8928H68.219ZM81.5339 8.13045C81.3174 7.9138 81.1009 7.69715 80.8302 7.53466C80.5596 7.37217 80.1807 7.26384 79.8019 7.26384C79.423 7.26384 79.0982 7.37217 78.7735 7.53466C78.5029 7.69715 78.3405 7.9138 78.3405 8.23878C78.3405 8.50959 78.4487 8.72624 78.6111 8.83457C78.7735 8.99706 78.99 9.10538 79.2065 9.21371C79.423 9.32203 79.6936 9.3762 79.9101 9.43036C80.1807 9.48452 80.3972 9.53869 80.5596 9.53869C80.8844 9.64701 81.2632 9.70117 81.5339 9.86366C81.8586 9.97199 82.1293 10.1345 82.3458 10.3511C82.5623 10.5678 82.7246 10.7844 82.887 11.0552C82.9953 11.3261 83.1035 11.651 83.1035 12.0843C83.1035 12.5718 82.9953 13.0051 82.7788 13.3301C82.5622 13.6551 82.2916 13.98 81.9669 14.1967C81.6421 14.4133 81.2632 14.5758 80.8302 14.6842C80.3972 14.7925 79.9642 14.8466 79.5854 14.8466C78.8817 14.8466 78.2322 14.7383 77.691 14.5217C77.1497 14.305 76.6626 13.9259 76.2296 13.3301L77.4745 12.301C77.7451 12.5718 78.0157 12.7885 78.3405 13.0051C78.6652 13.2218 79.0441 13.3301 79.5312 13.3301C79.7477 13.3301 79.9642 13.3301 80.1807 13.2759C80.3972 13.2218 80.5596 13.1676 80.722 13.0593C80.8844 12.9509 80.9926 12.8426 81.1009 12.7343C81.2091 12.5718 81.2632 12.4093 81.2632 12.2468C81.2632 12.0302 81.2091 11.8135 81.0467 11.651C80.8844 11.4885 80.722 11.3802 80.5055 11.2719C80.289 11.1636 80.0725 11.1094 79.856 11.0552L79.2065 10.8928C78.8817 10.7844 78.5029 10.7303 78.2322 10.6219C77.9075 10.5136 77.6368 10.3511 77.4203 10.1886C77.2038 10.0262 76.9873 9.75534 76.825 9.48452C76.6626 9.21371 76.6085 8.83457 76.6085 8.45543C76.6085 8.02212 76.7167 7.58882 76.8791 7.26384C77.0415 6.93887 77.3121 6.66805 77.6368 6.4514C77.9616 6.23475 78.2864 6.07226 78.6652 5.96393C79.0441 5.85561 79.4771 5.80145 79.856 5.80145C80.4514 5.80145 80.9926 5.90977 81.5339 6.12642C82.0751 6.34307 82.5081 6.72221 82.8329 7.20968L81.5339 8.13045ZM84.6731 0.818458H86.2969V9.59285L89.9774 5.90977H92.1966L88.2454 9.8095L92.5754 14.4675H90.248L86.2969 10.0262V14.4675H84.6731V0.818458Z" fill="#676768"/>
</svg>
