<svg width="71" height="29" viewBox="0 0 71 29" fill="none" xmlns="http://www.w3.org/2000/svg">
<path d="M69.7315 28.1196V27.3739H2.57414V1.62564H68.9368V28.1196H69.7315V27.3739V28.1196H70.5263V0.0847168H0.984619V28.9149H70.5263V28.1196H69.7315Z" fill="#676768"/>
<path d="M9.37917 15.4938L11.2171 20.1663H11.2667L13.0053 15.4938H15.0915L15.4392 16.3388L15.1412 16.3885C14.9425 16.3885 14.7935 16.5376 14.8432 16.7365L15.1909 22.0551L15.7869 22.1048L16.1346 22.9996H13.3033V22.1546L13.651 22.1048C13.8994 22.1048 13.8994 22.0054 13.8994 21.7072L13.5517 17.4821L11.7138 21.8066L10.6707 22.1546L8.93212 17.4821L8.68375 22.0054L9.27982 22.0551V22.9499H6.44849L6.79619 22.1048L7.1439 22.0551C7.34259 22.0054 7.44194 21.9557 7.44194 21.6575L7.78965 16.3885L7.19358 16.3388L7.54128 15.4441H9.37917V15.4938Z" fill="#676768"/>
<path d="M16.5813 22.9509L16.929 22.1059L17.1774 22.0562C17.4257 22.0065 17.4754 21.9071 17.5748 21.7083L19.363 16.4393L18.7669 16.3896L19.1146 15.4949H21.2505L23.5852 22.0562L23.9826 22.1059L24.3303 22.9509H21.4989V22.1059L21.8466 22.0562C22.0453 22.0562 22.1447 21.9071 22.0453 21.7083L21.7473 20.8135H19.1643L18.7669 22.0065L19.363 22.0562V22.9509H16.5813ZM19.4126 19.8691H21.4989L20.4558 16.6878H20.4061L19.4126 19.8691Z" fill="#676768"/>
<path d="M29.0993 21.7587V19.9692L28.5529 19.9195L28.2052 19.0248H31.1359L30.9868 19.8698L30.6888 19.9195C30.4901 19.9692 30.3908 20.0189 30.3908 20.2674V22.4049C29.745 22.8522 28.8509 23.1008 27.8575 23.1008C25.6719 23.1008 24.4797 21.8581 24.4797 19.2236C24.4797 16.3406 26.1686 15.3464 28.1058 15.3464C28.9999 15.3464 29.8444 15.5453 30.3411 15.7938V16.7879L29.298 17.1856V16.8377C29.298 16.6388 29.298 16.5394 29.0993 16.4897C28.9006 16.44 28.5032 16.3903 28.2052 16.3903C26.6157 16.3903 25.9202 17.4341 25.9202 19.0745C25.9202 20.8639 26.5163 21.9078 27.9071 21.9078C28.3045 22.0072 28.8013 21.9078 29.0993 21.7587Z" fill="#676768"/>
<path d="M38.5371 22.6019L37.2456 22.9499L33.9672 17.5318V22.0551L34.5633 22.1049V22.9499H31.8313L32.179 22.1049L32.3777 22.0551C32.5764 22.0054 32.6261 21.9557 32.6261 21.7569V16.3885L31.881 16.3388L32.2287 15.4441H34.0666L37.2456 20.8125V16.3885L36.6495 16.3388V15.4938H39.3318L38.9841 16.3388L38.7855 16.3885C38.5868 16.4382 38.4874 16.4879 38.4874 16.7365V22.6019H38.5371Z" fill="#676768"/>
<path d="M39.3811 22.9509L39.7288 22.1059L39.8282 22.0562C40.0765 22.0065 40.1262 21.9071 40.2255 21.7083L42.0634 16.4393L41.4674 16.3896L41.8151 15.4949H43.951L46.1862 22.0065L46.5836 22.0562L46.9313 22.9509H44.1V22.1059L44.4477 22.0562C44.6464 22.0562 44.7457 21.9071 44.6464 21.7083L44.3484 20.8135H41.7654L41.368 22.0065L41.9641 22.0562V22.9509H39.3811ZM42.0137 19.8691H44.1L43.0569 16.6878H43.0072L42.0137 19.8691Z" fill="#676768"/>
<path d="M48.9186 16.489H47.8754C47.6271 16.489 47.5774 16.5884 47.5774 16.7873V17.1849L46.4846 16.837V15.4949H52.644V16.837L51.5512 17.1849V16.7873C51.5512 16.5884 51.5015 16.489 51.2532 16.489H50.2597V22.0562L50.9055 22.1059L51.2532 23.0007H47.9251L48.2728 22.1556L48.6205 22.1059C48.8689 22.1059 48.9186 22.0065 48.9186 21.758V16.489Z" fill="#676768"/>
<path d="M53.8361 22.1049L53.9354 22.0551C54.2335 22.0054 54.2832 21.9557 54.2832 21.6575V16.3885L53.8361 16.3388L53.4884 15.4441H58.7537V16.7862L57.6609 17.1341V16.5874C57.6609 16.3885 57.6112 16.4382 57.3629 16.4382H55.6243V18.5756H58.3066V19.6195H55.6243V21.9557H57.5119C57.7602 21.9557 57.7602 21.8563 57.7602 21.6575V21.5581L58.853 21.2598V22.9499H53.4387L53.8361 22.1049Z" fill="#676768"/>
<path d="M63.6215 20.9119C63.6215 20.216 63.0254 19.9178 62.2306 19.6693C61.1875 19.371 60.0947 18.9236 60.1444 17.4821C60.194 16.0903 61.2372 15.295 62.8267 15.3447C63.5221 15.3447 64.3665 15.4938 64.9129 15.7921V16.8856L63.8201 17.2336V16.8856C63.8201 16.6868 63.8201 16.5874 63.6215 16.5377C63.4724 16.488 63.0751 16.4383 62.8267 16.4383C62.2306 16.4383 61.6346 16.6371 61.5849 17.3827C61.5849 18.0786 62.1809 18.3272 63.0254 18.6254C64.0685 18.9734 65.1116 19.371 65.062 20.8622C65.0123 22.3534 64.0188 23.1488 62.2306 23.099C61.4359 23.099 60.6411 22.9499 59.9954 22.6517V21.5581L61.0882 21.2102V21.5581C61.0882 21.757 61.1378 21.8564 61.2868 21.9061C61.4855 21.9558 61.8332 22.0055 62.1809 22.0055C62.9757 22.0055 63.6215 21.757 63.6215 20.9119Z" fill="#676768"/>
<path d="M7.39185 6.04956H12.2598V6.54663H7.93824V9.28052H11.5147V9.77759H7.93824V13.3565H7.39185V6.04956Z" fill="#676768"/>
<path d="M16.4328 6.04956H15.886V13.3565H16.4328V6.04956Z" fill="#676768"/>
<path d="M20.5559 6.04956H21.0526L25.9702 12.4618V6.04956H26.4669V13.3565H26.0199L21.1023 6.94429V13.3565H20.5559V6.04956Z" fill="#676768"/>
<path d="M33.1722 5.99878H33.6689L36.9473 13.3554H36.4009L35.4571 11.218H31.384L30.4402 13.3554H29.8938L33.1722 5.99878ZM35.2585 10.7707L33.4206 6.69468L31.5827 10.7707H35.2585Z" fill="#676768"/>
<path d="M40.3254 6.04956H40.7725L45.6901 12.4618V6.04956H46.2365V13.3565H45.7894L40.8222 6.94429V13.3565H40.3254V6.04956Z" fill="#676768"/>
<path d="M50.012 9.67887C50.012 7.49175 51.6015 5.90112 53.6877 5.90112C54.4825 5.90112 55.1779 6.09995 55.774 6.49761V7.04439C55.1779 6.64673 54.4825 6.39819 53.6877 6.39819C51.8995 6.39819 50.5087 7.78999 50.5087 9.67887C50.5087 11.5677 51.8995 12.9595 53.6877 12.9595C54.5818 12.9595 55.3269 12.711 55.923 12.2139V12.8104C55.3269 13.2578 54.5818 13.5063 53.6877 13.5063C51.6512 13.4566 50.012 11.9157 50.012 9.67887Z" fill="#676768"/>
<path d="M59.4983 6.04956H64.4159V6.54663H60.0447V9.18111H63.6708V9.67818H60.0447V12.8594H64.5649V13.3565H59.4983V6.04956Z" fill="#676768"/>
</svg>
