<svg width="402" height="249" viewBox="0 0 402 249" fill="none" xmlns="http://www.w3.org/2000/svg">
<g clip-path="url(#clip0_4637_36223)">
<path d="M101.424 173.774L73.4273 189.86C73.1766 189.695 73.1107 189.451 73.2624 189.246L74.7991 187.083C81.4604 177.685 90.8521 167.68 102.387 157.345L101.424 173.774Z" fill="#E59636"/>
<path d="M74.6188 190.038C74.2297 190.13 73.7878 190.077 73.491 189.906C73.4712 189.893 73.4514 189.879 73.4316 189.866L101.429 173.78L129.881 173.226C111.981 179.881 94.6554 185.309 78.3781 189.154L74.6254 190.044L74.6188 190.038Z" fill="#E59636"/>
<path d="M170.159 114.488C170.469 114.416 170.766 114.29 171.03 114.119L171.102 114.238C150.644 127.29 132.381 140.217 118.537 151.89C114.475 155.32 115.22 159.93 120.312 162.865C124.144 165.074 129.618 165.866 134.623 165.121C136.266 164.877 137.855 164.468 139.319 163.887C142.795 162.515 146.33 161.071 149.918 159.554C155.597 157.153 161.42 154.581 167.336 151.864C175.455 148.131 183.752 144.128 192.128 139.907L194.034 145.387C172.388 155.993 150.742 165.444 129.868 173.213L101.416 173.767L102.379 157.338C118.34 143.039 138.416 128.108 161.064 113.295L163.979 112.582L164.223 113.69C164.342 114.231 164.672 114.706 165.14 115.003C165.608 115.299 166.182 115.398 166.723 115.273L170.146 114.482L170.159 114.488Z" fill="#E59636"/>
<path d="M129.877 173.22C150.751 165.45 172.397 155.999 194.043 145.394L198.396 157.912C152.954 178.232 108.369 191.133 74.6211 190.031L78.3738 189.141C94.6511 185.296 111.984 179.874 129.877 173.213V173.22Z" fill="white"/>
<path d="M400.58 1.0553C400.706 1.12785 400.732 1.23337 400.653 1.32571L397.111 5.19057C384.461 19.0078 367.874 33.9528 348.576 49.188L349.678 30.4507L400.58 1.0553Z" fill="#E59636"/>
<path d="M348.577 49.1814C367.882 33.9462 384.462 19.0012 397.112 5.18395L400.654 1.31909C388.861 29.923 350.384 66.3622 302.034 99.5829L297.232 86.168C315.68 73.9468 333.012 61.4685 348.577 49.1748V49.1814Z" fill="white"/>
<path d="M400.58 1.05528L349.67 30.4441L317.215 31.0772C343.609 19.9311 369.496 10.3547 393.424 3.05366L400.118 1.00911C400.27 0.962941 400.461 0.976132 400.58 1.04868V1.05528Z" fill="#E59636"/>
<path d="M349.669 30.444L348.568 49.1813C333.003 61.475 315.67 73.9468 297.223 86.1745L295.1 80.2387C308.956 71.0844 321.547 62.2005 332.179 54.0486C337.184 50.2102 336.531 44.8284 330.648 41.4318C325.682 38.5628 318.269 37.8439 312.076 39.4268C311.179 37.5274 309.721 36.1687 308.033 35.0079C311.093 33.6757 314.154 32.3698 317.207 31.0837L349.663 30.4506L349.669 30.444Z" fill="#E59636"/>
<path d="M335.591 178.898L323.199 171.742C321.161 165.285 319.288 159.238 317.111 152.233C316.485 150.222 316.399 148.289 316.894 146.851C317.078 146.304 317.302 145.763 317.56 145.216C317.837 144.609 318.516 144.556 319.195 145.084C319.822 145.565 320.409 146.04 320.969 146.522C322.434 147.795 323.706 149.635 324.524 151.633C328.495 161.328 331.707 169.177 335.591 178.892V178.898Z" fill="#350B00"/>
<path d="M330.656 41.4319C336.539 44.8351 337.185 50.2103 332.186 54.0487C321.554 62.2072 308.964 71.0911 295.107 80.2388L293.221 74.9691C296.789 72.3838 300.034 69.7456 302.111 67.3515L309.214 65.1817C310.685 64.7332 311.754 63.4537 311.938 61.9302C312.103 60.5122 312.321 58.6127 312.519 56.489C312.921 52.1559 313.251 46.9258 313.007 43.1401C312.914 41.6957 312.585 40.469 312.09 39.4203C318.283 37.8374 325.696 38.5563 330.662 41.4253L330.656 41.4319Z" fill="#350B00"/>
<path d="M280.52 42.5992L277.525 44.2282C274.815 44.0567 273.891 41.2273 274.01 38.543C277.994 33.8076 281.45 29.2766 284.628 28.1356C286.132 27.5948 287.992 27.5486 289.654 27.6805C289.667 28.2741 289.727 28.8809 289.826 29.5008C290.545 33.8801 293.077 35.2849 295.359 34.9882C297.885 36.2742 301.552 35.9709 303.419 32.2247C304.982 33.1547 306.598 34.012 308.049 35.0145C309.73 36.1753 311.194 37.5339 312.091 39.4334C312.593 40.4887 312.916 41.7088 313.008 43.1532C313.259 46.9323 312.922 52.169 312.52 56.5021C310.304 57.7354 306.571 57.2408 304.454 55.9679L304.388 57.0495C304.316 58.2697 303.544 59.3381 302.403 59.7866L294.317 62.9787C293.664 63.2359 292.925 63.1568 292.345 62.7611L291.31 62.0554C291.072 61.8971 290.802 61.8048 290.518 61.7784L289.443 61.6926C287.913 61.5739 286.436 62.2466 285.519 63.4734L284.945 64.245C284.727 64.5352 284.589 64.8716 284.536 65.2145C280.915 63.9219 277.571 61.8114 276.2 58.7709C276.305 58.672 276.384 58.5796 276.431 58.5137C276.648 58.1575 277.011 56.8451 277.473 55.005C277.954 53.0989 280.071 44.3469 280.533 42.5992H280.52ZM300.24 48.8383L301.809 45.422L295.735 43.2917L294.469 46.8729C294.119 47.8622 294.594 48.9505 295.557 49.366L297.12 50.0387C298.314 50.5531 299.699 50.0189 300.24 48.8383Z" fill="white"/>
<path d="M312.522 56.4955C312.324 58.6192 312.113 60.5187 311.941 61.9367C311.756 63.4602 310.688 64.7397 309.217 65.1882L295.11 69.4883C294.351 69.7191 293.52 69.574 292.881 69.0992L290.5 67.3184C290.5 67.3184 290.473 67.2987 290.46 67.2921C289.972 66.9623 289.313 67.0612 288.943 67.5229L287.901 68.8552C287.769 69.0266 287.565 69.1322 287.347 69.1388C287.129 69.1454 286.918 69.0596 286.767 68.9013L285.078 67.0612C284.61 66.5468 284.419 65.8675 284.524 65.2211C284.577 64.8782 284.716 64.5418 284.933 64.2516L285.507 63.48C286.424 62.2532 287.908 61.5805 289.431 61.6992L290.506 61.785C290.79 61.8048 291.06 61.9037 291.298 62.062L292.333 62.7677C292.914 63.1634 293.652 63.2425 294.305 62.9853L302.391 59.7932C303.532 59.3447 304.304 58.2763 304.376 57.0561L304.442 55.9745C306.559 57.2474 310.292 57.7486 312.508 56.5087L312.522 56.4955Z" fill="white"/>
<path d="M295.361 34.9816C293.079 35.2784 290.54 33.8736 289.827 29.4943C289.728 28.8744 289.669 28.2676 289.656 27.674C289.596 25.1018 290.315 22.7869 291.423 20.9468C292.116 21.9888 292.063 23.5717 293.277 23.5717C294.609 23.5717 295.822 21.5997 297.313 21.5997C300.848 21.5997 299.041 26.7309 301.29 26.7309C301.448 26.7309 301.956 26.6319 302.668 26.3615C302.345 27.7663 302.187 29.1184 302.114 30.2989C302.075 30.9651 302.411 31.5982 302.978 31.9478C303.123 32.0401 303.275 32.1259 303.427 32.2182C301.56 35.9643 297.893 36.2677 295.367 34.9816H295.361Z" fill="white"/>
<path d="M297.943 16.6004C301.96 17.1016 303.826 21.692 302.745 25.9921C302.712 26.1174 302.685 26.2428 302.659 26.3681C301.947 26.6385 301.446 26.7374 301.281 26.7374C299.025 26.7374 300.839 21.6062 297.304 21.6062C295.813 21.6062 294.6 23.5782 293.267 23.5782C292.054 23.5782 292.107 21.9954 291.414 20.9533C293.149 18.0646 295.826 16.3432 297.937 16.607L297.943 16.6004Z" fill="#350B00"/>
<path d="M295.113 69.4884L302.11 67.3581C300.033 69.7522 296.781 72.3837 293.22 74.9757L290.463 67.2921C290.463 67.2921 290.489 67.3119 290.502 67.3185L292.883 69.0992C293.523 69.5807 294.348 69.7258 295.113 69.4884Z" fill="white"/>
<path d="M297.233 86.1745L302.035 99.5894C286.832 110.043 270.647 120.167 254.014 129.638L249.232 115.9C265.76 106.343 281.879 96.3445 297.227 86.1811L297.233 86.1745Z" fill="white"/>
<path d="M301.809 45.4286L300.239 48.845C299.698 50.0256 298.313 50.5598 297.119 50.0454L295.556 49.3726C294.593 48.9571 294.119 47.8689 294.468 46.8796L295.734 43.2983L301.809 45.4286Z" fill="#E59636"/>
<path d="M295.109 80.2388L297.232 86.1746C281.885 96.3446 265.766 106.336 249.238 115.893L247.174 109.957C249.291 108.724 263.9 100.018 268.971 96.892C278.04 91.3123 286.799 85.7261 295.109 80.2388Z" fill="#E59636"/>
<path d="M293.222 74.9691L295.108 80.2388C286.798 85.7261 278.039 91.3123 268.971 96.892C270.514 93.4558 271.886 90.7385 274.016 88.2983C275.836 86.2076 285.314 80.7005 293.222 74.9691Z" fill="#350B00"/>
<path d="M265.864 78.0424C265.739 74.2039 265.409 70.6425 264.677 68.809C264.545 68.4858 264.407 68.1758 264.262 67.8856C267.685 63.8823 274.735 60.1229 276.199 58.7709C277.571 61.8113 280.921 63.9218 284.536 65.2145C284.43 65.8608 284.621 66.5468 285.09 67.0546L286.778 68.8947C286.923 69.053 287.134 69.1453 287.358 69.1321C287.576 69.1255 287.781 69.02 287.912 68.8485L288.955 67.5163C289.324 67.048 289.983 66.9491 290.471 67.2854L293.228 74.969C285.321 80.7069 275.843 86.2074 274.023 88.2982C271.892 90.7384 270.521 93.4557 268.977 96.8919C263.905 100.018 258.735 103.138 253.498 106.237L257.257 95.3552L259.935 94.5835C263.378 93.5876 265.779 90.4746 265.871 86.8933C265.91 85.3369 265.937 83.5957 265.937 81.8018C265.937 80.5486 265.917 79.2757 265.877 78.0358L265.864 78.0424Z" fill="white"/>
<path d="M286.72 207.456L274.328 200.3C272.29 193.843 270.417 187.795 268.24 180.798C267.614 178.78 267.528 176.854 268.022 175.416C268.207 174.869 268.431 174.328 268.689 173.78C268.966 173.174 269.638 173.121 270.324 173.648C270.951 174.13 271.538 174.605 272.098 175.086C273.563 176.366 274.835 178.199 275.653 180.198C279.624 189.899 282.842 197.741 286.72 207.456Z" fill="#350B00"/>
<path d="M279.14 48.08C278.52 50.6323 277.939 53.099 277.458 55.005C271.727 57.7883 265.896 60.6902 260.013 63.6845C258.252 62.6688 256.076 61.785 253.418 60.5913C257.454 58.5533 261.517 56.5484 265.586 54.5632C266.384 55.2029 267.486 55.5393 268.528 55.5393C269.854 55.5393 270.473 54.6489 270.75 54.0289C270.929 53.62 271.245 53.2903 271.634 53.0858L272.868 52.4395C273.422 52.1493 273.652 51.47 273.389 50.9028L273.349 50.817C275.275 49.9003 277.201 48.9835 279.133 48.08H279.14Z" fill="white"/>
<path d="M277.525 44.2283L276.345 44.8746L273.067 48.8252C272.816 49.122 272.764 49.5441 272.928 49.8937L273.397 50.8961C273.661 51.4633 273.43 52.1427 272.876 52.4329L271.642 53.0792C271.247 53.2837 270.937 53.62 270.759 54.0223C270.488 54.6423 269.862 55.5327 268.536 55.5327C267.494 55.5327 266.392 55.1963 265.594 54.5565C265.225 54.2664 264.915 53.9036 264.711 53.4815C264.493 53.0462 264.381 52.545 264.414 51.9778C264.526 49.9926 265.74 48.7197 268.266 48.3833C268.483 42.0848 270.613 40.4623 272.711 40.06C273.153 39.5522 273.588 39.0377 274.017 38.5365C273.898 41.2208 274.828 44.0502 277.532 44.2217L277.525 44.2283Z" fill="white"/>
<path d="M277.461 55.005C276.999 56.8385 276.637 58.151 276.419 58.5137C276.379 58.5863 276.3 58.672 276.188 58.7709C274.724 60.123 267.674 63.8823 264.251 67.8857C263.274 65.9862 261.883 64.7595 260.01 63.6845C265.893 60.6902 271.723 57.7882 277.454 55.005H277.461Z" fill="#350B00"/>
<path d="M265.924 81.8084C265.924 83.5957 265.898 85.3369 265.858 86.9C265.766 90.4813 263.365 93.5943 259.922 94.5902L247.338 98.2308C246.732 98.4088 246.072 98.3165 245.531 97.9868L243.447 96.7073C243.302 96.6149 243.144 96.549 242.986 96.5094C242.372 96.3379 241.693 96.5028 241.225 96.9711L240.288 97.9076C240.077 98.1187 239.78 98.2176 239.483 98.1846C239.187 98.145 238.923 97.9736 238.771 97.7097L237.571 95.652C237.03 94.7287 237.149 93.5811 237.821 92.7764C237.894 92.6907 237.973 92.6116 238.059 92.5324C239.041 91.6486 240.644 90.8572 243.078 91.3453C244.812 91.6882 245.729 92.0905 246.197 92.4533C246.837 92.9545 247.701 93.0534 248.44 92.7237L255.827 89.393C257.627 88.5818 258.729 86.7417 258.583 84.7697L258.425 82.5471C260.575 82.4877 263.424 82.2107 265.917 81.815L265.924 81.8084Z" fill="white"/>
<path d="M258.102 77.8644C254.547 80.6608 251.883 85.8513 250.966 91.5761L248.447 92.7105C247.708 93.0468 246.844 92.9413 246.204 92.4401C245.736 92.0773 244.819 91.675 243.085 91.332C240.651 90.844 239.048 91.642 238.066 92.5192C237.98 92.5983 237.901 92.6775 237.828 92.7632C233.68 90.811 232.295 87.388 231.793 83.5957C233.396 82.1909 234.544 80.2915 235.019 78.1414C235.124 77.6665 235.21 77.1719 235.282 76.6508C235.421 75.6681 235.487 74.5997 235.487 73.4455C235.487 73.1817 235.487 72.9245 235.487 72.6541C235.487 71.6186 235.52 70.6359 235.639 69.7192C235.79 68.532 236.1 67.4636 236.687 66.5534L231.688 67.4504C230.514 66.1643 229.775 62.6028 230.732 60.6901C235.104 59.7734 239.226 59.5623 242.491 58.9358C243.052 59.6349 243.85 60.0108 245.037 59.9053C245.314 59.8855 245.591 59.8262 245.868 59.747C246.105 60.6242 246.323 61.5014 246.541 62.3786C248.15 63.8691 252.457 62.8007 252.602 60.9803C252.872 60.8418 253.143 60.7099 253.42 60.5714C256.071 61.7652 258.254 62.649 260.015 63.6646C261.888 64.7397 263.28 65.9664 264.256 67.8659C264.401 68.1561 264.546 68.466 264.671 68.7892C265.403 70.6227 265.74 74.1908 265.858 78.0227C265.898 79.2626 265.918 80.5355 265.918 81.7886C263.431 82.1843 260.575 82.4613 258.425 82.5207L258.089 77.8446L258.102 77.8644Z" fill="#E59636"/>
<path d="M264.704 53.4882C264.915 53.9103 265.219 54.2664 265.588 54.5632C261.519 56.5484 257.456 58.5534 253.42 60.5913C253.077 60.4396 252.727 60.2748 252.364 60.1099C252.272 59.7867 252.173 59.4437 252.074 59.081C252.549 59.2393 253.037 59.2921 253.512 59.2459C255.471 59.0744 257.278 57.3794 257.12 55.3349L264.691 53.4816L264.704 53.4882Z" fill="white"/>
<path d="M258.597 84.7632C258.742 86.7286 257.634 88.5752 255.84 89.3865L250.973 91.5827C251.889 85.858 254.554 80.6609 258.109 77.871L258.603 84.7697L258.597 84.7632Z" fill="#350B00"/>
<path d="M257.252 95.3618L253.493 106.244C251.395 107.484 249.292 108.724 247.174 109.957L245.559 105.314C247.86 103.553 249.931 101.06 250.485 97.314L257.252 95.3552V95.3618Z" fill="#350B00"/>
<path d="M257.131 55.3414C257.289 57.386 255.482 59.081 253.523 59.2524C253.042 59.292 252.554 59.2459 252.086 59.0876C251.954 58.6061 251.815 58.0917 251.67 57.5772C251.439 56.7726 251.571 55.902 252.026 55.1963C252.435 54.5632 252.686 53.996 252.824 53.6266C252.89 53.4618 252.857 53.2771 252.758 53.1386C252.653 53.0001 252.488 52.9209 252.31 52.9341H252.297C245.781 53.4683 247.924 46.1673 242.252 46.6554C241.922 46.6818 241.579 46.7543 241.236 46.8532C241.962 44.037 243.927 42.2299 247.528 41.9133C252.58 41.478 255.001 44.6966 255.377 49.1022C255.482 50.2828 255.265 51.3381 254.836 52.3867C255.904 52.8418 256.973 53.5739 257.124 55.3084C257.124 55.3216 257.124 55.3282 257.124 55.3414H257.131Z" fill="#350B00"/>
<path d="M249.239 115.893L254.02 129.631C235.797 140.006 217.027 149.582 198.402 157.912L194.049 145.394C212.608 136.299 231.167 126.36 249.245 115.9L249.239 115.893Z" fill="white"/>
<path d="M252.371 60.1097C252.727 60.2746 253.084 60.4395 253.427 60.5912C253.156 60.7231 252.879 60.8616 252.609 61.0001C252.629 60.7165 252.556 60.4131 252.352 60.1031H252.371V60.1097Z" fill="white"/>
<path d="M252.082 59.0809C252.18 59.437 252.273 59.78 252.372 60.1097H252.352C252.556 60.4131 252.629 60.7099 252.609 61.0001C252.464 62.8204 248.151 63.8889 246.548 62.3983C246.33 61.5211 246.113 60.644 245.875 59.7668C245.605 59.8459 245.328 59.9053 245.044 59.9251C243.857 60.0306 243.059 59.6547 242.499 58.9556C241.272 57.4123 241.245 54.2927 240.975 51.1929C240.837 49.577 240.909 48.1194 241.232 46.8597C241.575 46.7542 241.918 46.6882 242.248 46.6619C247.92 46.1738 245.776 53.4748 252.293 52.9406H252.306C252.484 52.9208 252.655 53 252.754 53.1385C252.86 53.277 252.886 53.4616 252.82 53.6265C252.675 53.9893 252.425 54.5631 252.022 55.1962C251.567 55.9019 251.435 56.7659 251.666 57.5771C251.811 58.0916 251.95 58.5994 252.082 59.0875V59.0809Z" fill="white"/>
<path d="M247.344 98.2241L250.484 97.314C249.93 101.06 247.865 103.553 245.557 105.314L242.754 97.2546L242.991 96.5027C243.15 96.5423 243.301 96.6083 243.453 96.7006L245.537 97.9801C246.078 98.3099 246.731 98.3956 247.344 98.2241Z" fill="white"/>
<path d="M247.173 109.957L249.237 115.893C231.159 126.353 212.6 136.299 194.041 145.387L192.135 139.907C195.261 138.337 217.316 126.756 221.161 124.658C229.906 119.877 238.612 114.95 247.173 109.957Z" fill="#E59636"/>
<path d="M245.558 105.314L247.174 109.957C238.62 114.95 229.908 119.877 221.162 124.658C222.969 119.778 223.444 115.412 223.444 115.412C223.444 115.412 235.955 110.65 239.227 108.895C240.737 108.084 243.263 107.062 245.558 105.308V105.314Z" fill="#350B00"/>
<path d="M242.758 97.2546L245.561 105.314C243.266 107.062 240.74 108.091 239.229 108.902C235.958 110.656 223.447 115.418 223.447 115.418C224.726 110.538 222.022 107.537 218.091 105.697C216.317 104.866 214.299 104.272 212.287 103.843C212.215 103.243 212.129 102.696 212.03 102.221C211.885 101.561 211.681 100.889 211.41 100.223C218.889 90.0789 223.117 87.1044 227.793 85.7919C229.303 85.3698 230.662 84.618 231.796 83.6089C232.298 87.4078 233.683 90.8242 237.831 92.7764C237.152 93.5744 237.04 94.7286 237.58 95.652L238.781 97.7097C238.932 97.9669 239.196 98.145 239.493 98.1846C239.79 98.2241 240.087 98.1186 240.298 97.9076L241.234 96.971C241.702 96.5028 242.382 96.3379 242.995 96.5094L242.758 97.2612V97.2546Z" fill="white"/>
<path d="M235.644 69.7324C235.518 70.6491 235.492 71.6318 235.492 72.6673C235.492 72.9311 235.492 73.1949 235.492 73.4587C235.492 74.6129 235.426 75.6747 235.288 76.664C225.454 81.9799 215.62 87.4804 205.978 93.0666C204.243 91.642 202.192 90.4021 199.857 89.4788C203.716 87.2495 207.607 85.0269 211.544 82.8241L217.058 81.4786C217.131 81.9205 217.355 82.3294 217.698 82.6262C218.126 83.0022 218.687 83.167 219.248 83.0945C221.688 82.7713 225.276 81.9601 225.276 80.0013C225.276 78.3854 225.019 77.1719 224.313 76.4662C224.55 76.1166 224.775 75.7671 224.979 75.4241C228.508 73.5115 232.069 71.612 235.644 69.7324Z" fill="white"/>
<path d="M235.287 76.6641C235.221 77.1851 235.129 77.6797 235.024 78.1546C234.542 80.3047 233.395 82.2041 231.798 83.6089C230.664 84.6114 229.305 85.3633 227.795 85.792C223.119 87.1045 218.885 90.0856 211.412 100.223C210.41 97.7164 208.557 95.1903 205.984 93.0732C215.627 87.4804 225.46 81.9799 235.294 76.6707L235.287 76.6641Z" fill="#350B00"/>
<path d="M231.998 238.705L219.605 231.549C217.567 225.092 215.694 219.044 213.517 212.04C212.891 210.028 212.805 208.096 213.3 206.658C213.484 206.111 213.709 205.576 213.966 205.022C214.243 204.416 214.916 204.363 215.602 204.89C216.228 205.372 216.815 205.847 217.376 206.328C218.846 207.601 220.113 209.441 220.931 211.44C224.901 221.141 228.113 228.983 231.998 238.698V238.705Z" fill="#350B00"/>
<path d="M231.696 67.4702L229.045 67.945C228.379 68.0637 227.838 68.5584 227.66 69.2113C227.304 70.5304 226.512 72.9047 224.982 75.4307C224.58 75.6484 224.178 75.866 223.782 76.0837C223.215 75.7869 222.456 75.6879 221.467 75.8133C221.045 75.866 220.656 75.9584 220.286 76.0639C220.253 76.0705 220.227 76.0837 220.194 76.0969C220.155 71.955 221.711 68.499 223.004 66.3424C223.538 65.4586 224.224 64.1857 225.048 63.1832C225.615 62.4907 226.249 61.9169 226.935 61.7058C228.221 61.3035 229.494 60.9804 230.753 60.7231C229.797 62.6358 230.536 66.1907 231.71 67.4834L231.696 67.4702Z" fill="white"/>
<path d="M223.773 76.0771C224.169 75.8595 224.571 75.6418 224.974 75.4242C224.763 75.7672 224.545 76.1167 224.308 76.4663C224.156 76.308 223.978 76.1827 223.773 76.0771Z" fill="white"/>
<path d="M224.309 76.4662C225.015 77.1785 225.272 78.3854 225.272 80.0013C225.272 81.9601 221.691 82.7713 219.244 83.0945C218.684 83.1736 218.116 83.0022 217.694 82.6262C217.351 82.3294 217.14 81.9205 217.054 81.4786C217.035 81.3731 217.021 81.261 217.021 81.1489V80.4564C217.021 80.2123 217.041 79.9749 217.081 79.7375C217.345 78.0491 218.538 76.6574 220.181 76.0903C220.214 76.0771 220.247 76.0705 220.273 76.0573C220.636 75.9517 221.025 75.8594 221.454 75.8067C222.449 75.6813 223.201 75.7803 223.769 76.0771C223.973 76.1826 224.144 76.3145 224.303 76.4662H224.309Z" fill="white"/>
<path d="M218.087 105.69C222.018 107.537 224.722 110.538 223.442 115.412C223.442 115.412 222.961 119.778 221.16 124.658C217.322 126.756 213.47 128.833 209.625 130.871C210.232 128.846 210.865 126.459 211.538 123.946C211.854 123.273 212.059 122.541 212.125 121.776C213.846 115.431 215.805 108.797 218.093 105.69H218.087Z" fill="white"/>
<path d="M217.061 81.4787L211.547 82.8241C213.387 81.7886 215.234 80.7598 217.087 79.7375C217.047 79.9749 217.028 80.2123 217.028 80.4564V81.1489C217.028 81.261 217.034 81.3665 217.061 81.4787Z" fill="white"/>
<path d="M218.09 105.69C215.801 108.796 213.842 115.431 212.121 121.776C212.121 121.73 212.128 121.677 212.134 121.631C212.451 116.526 212.833 108.519 212.279 103.837C214.298 104.265 216.316 104.859 218.083 105.69H218.09Z" fill="white"/>
<path d="M194.103 123.174L193.609 123.326C193.147 123.471 192.646 123.445 192.204 123.247L188.853 121.756C187.956 121.361 186.908 121.532 186.195 122.205L185.635 122.732C186.499 117.529 188.979 104.094 192.362 98.8771L196.069 94.6891C198.449 94.1614 200.718 91.9454 199.867 89.4722C202.202 90.3955 204.253 91.6354 205.988 93.06C208.56 95.1771 210.42 97.7031 211.416 100.209C211.686 100.875 211.891 101.548 212.036 102.208C212.141 102.689 212.221 103.23 212.293 103.83C212.847 108.506 212.458 116.52 212.148 121.624C212.148 121.671 212.148 121.723 212.135 121.769C211.937 122.495 211.739 123.22 211.548 123.933C210.73 125.667 209.16 126.98 207.215 127.435L194.505 130.376C194.163 130.456 193.813 130.469 193.477 130.416C194.189 128.807 194.281 126.32 194.281 124.856C194.281 124.249 194.215 123.689 194.11 123.168L194.103 123.174ZM198.298 121.849L201.8 120.747C203.225 120.299 204.201 118.993 204.24 117.509L204.471 109.073C202.156 111.758 199.643 116.071 198.298 121.855V121.849Z" fill="white"/>
<path d="M211.539 123.939C211.73 123.227 211.922 122.502 212.126 121.776C212.06 122.541 211.856 123.273 211.539 123.939Z" fill="white"/>
<path d="M200.564 85.5545C200.564 85.5545 200.597 85.5149 200.61 85.4951L211.545 82.8306C207.614 85.0335 203.716 87.2561 199.858 89.4853C199.535 88.6741 199.377 87.8892 199.1 87.0516C199.64 86.6361 200.135 86.1283 200.564 85.5545Z" fill="white"/>
<path d="M207.204 127.441C209.149 126.986 210.719 125.674 211.537 123.946C210.864 126.459 210.224 128.853 209.624 130.871C206.933 132.302 204.236 133.714 201.545 135.105C201.954 133.305 202.435 130.983 202.97 128.424L207.204 127.441Z" fill="white"/>
<path d="M204.468 109.074L204.237 117.509C204.198 119 203.215 120.299 201.797 120.747L198.295 121.849C199.64 116.065 202.153 111.751 204.468 109.067V109.074Z" fill="#350B00"/>
<path d="M202.971 128.424C202.437 130.99 201.949 133.305 201.547 135.105C198.401 136.734 195.268 138.337 192.135 139.913L190.434 135.026C192.735 133.476 194.641 131.814 195.67 130.119L202.971 128.424Z" fill="#350B00"/>
<path d="M200.609 85.4952C200.609 85.4952 200.583 85.5414 200.563 85.5546C200.662 85.1457 200.702 84.7434 200.642 84.3806C200.504 83.5496 199.904 82.8241 198.974 82.9758C198.301 83.0879 197.589 83.6221 197.14 84.3542C196.652 83.8332 196.217 83.2066 196.105 82.5207C195.894 81.2346 197.107 80.4036 196.955 79.4671C196.81 78.5635 195.557 78.3129 194.337 78.3789C193.328 78.5701 192.207 78.9329 191.092 79.1175C190.195 79.2626 188.955 79.3286 188.25 78.8933C187.966 78.7218 187.768 78.4646 187.709 78.1085C187.346 75.899 190.466 74.6921 192.055 73.7028C192.899 73.34 193.73 73.0894 194.396 72.9773C197.153 72.5288 199.969 73.3136 200.517 76.2354C201.533 77.04 202.093 78.1414 202.291 79.3418C202.627 81.3797 201.922 83.7277 200.616 85.4886L200.609 85.4952Z" fill="#350B00"/>
<path d="M200.643 84.374C200.702 84.7367 200.662 85.1457 200.563 85.548C200.135 86.1218 199.64 86.6296 199.099 87.0451C199.376 87.8827 199.535 88.6676 199.858 89.4788C200.708 91.952 198.44 94.1681 196.059 94.6957C195.208 94.887 194.344 94.8606 193.599 94.5506C193.539 94.3198 193.473 94.0955 193.407 93.8713C193.322 93.5943 193.223 93.3107 193.124 93.0337C193.058 93.0535 192.992 93.06 192.926 93.0732C190.156 93.5415 188.712 90.567 188.052 87.7112C187.966 87.3155 187.887 86.9198 187.821 86.5373C187.406 83.9915 187.531 81.3995 188.237 78.8867C188.949 79.322 190.182 79.256 191.079 79.1109C192.187 78.9263 193.315 78.5701 194.324 78.3723C195.544 78.3063 196.791 78.5569 196.943 79.4605C197.094 80.397 195.881 81.228 196.092 82.5141C196.204 83.2 196.633 83.8266 197.127 84.3476C197.582 83.6155 198.288 83.0813 198.961 82.9692C199.891 82.8175 200.497 83.543 200.629 84.374H200.643Z" fill="white"/>
<path d="M196.06 94.6957L192.353 98.8837L190.678 98.0461L193.408 93.8713C193.474 94.1021 193.54 94.3264 193.599 94.5506C194.338 94.8606 195.209 94.887 196.06 94.6957Z" fill="#E59636"/>
<path d="M194.495 130.383L195.669 130.113C194.646 131.814 192.74 133.47 190.432 135.02L188.242 128.721C189.027 128.233 190.049 128.266 190.808 128.84L192.232 129.908C192.595 130.179 193.024 130.357 193.466 130.423C193.802 130.475 194.152 130.462 194.495 130.383Z" fill="#350B00"/>
<path d="M188.242 128.728C188.137 128.794 188.031 128.866 187.932 128.952L186.877 129.875C186.758 129.981 186.593 130.02 186.442 129.994C186.283 129.968 186.152 129.869 186.072 129.724L184.259 126.32C184.008 125.852 183.942 125.331 184.028 124.836C184.028 124.817 184.028 124.803 184.034 124.79C184.127 124.342 184.358 123.92 184.707 123.59L185.624 122.732L186.184 122.205C186.897 121.532 187.945 121.354 188.842 121.756L192.193 123.247C192.635 123.445 193.136 123.478 193.598 123.326L194.092 123.174C194.198 123.695 194.264 124.256 194.264 124.863C194.264 126.327 194.171 128.82 193.459 130.423C193.017 130.357 192.589 130.179 192.226 129.908L190.801 128.84C190.043 128.266 189.02 128.24 188.236 128.721L188.242 128.728Z" fill="white"/>
<path d="M193.409 93.8713L190.679 98.0461C187.018 101.66 180.06 111.778 177.026 120.022C176.288 118.967 175.747 117.812 175.279 116.605C175.417 116.526 175.49 116.487 175.49 116.487L180.825 96.4567C180.858 96.3445 180.825 96.2192 180.759 96.1203C180.687 96.028 180.575 95.9818 180.456 95.9818H174.896C174.375 95.9818 173.88 96.206 173.518 96.582C173.162 96.9579 172.964 97.4657 172.983 97.9868C172.983 97.9868 173.366 108.394 173.359 108.533C171.387 107.774 168.716 107.095 166.889 107.095C166.639 107.095 166.408 107.102 166.197 107.115L165.9 95.5333C165.887 94.9793 165.953 94.4319 166.085 93.9174C166.639 91.7938 168.373 90.1185 170.622 89.703C175.094 88.8852 181.947 87.8234 188.054 87.7047C188.713 90.567 190.158 93.5349 192.928 93.0667C192.994 93.0535 193.06 93.0469 193.126 93.0271C193.225 93.3041 193.317 93.5811 193.409 93.8647V93.8713Z" fill="white"/>
<path d="M177.026 120.022C180.053 111.778 187.018 101.667 190.678 98.0461L192.354 98.8837C188.97 104.101 186.49 117.529 185.626 122.739L184.71 123.596C184.36 123.926 184.129 124.348 184.037 124.797L178.141 124.573L177.02 120.028L177.026 120.022Z" fill="#E59636"/>
<path d="M190.44 135.026L192.141 139.913C183.765 144.128 175.462 148.138 167.35 151.871C169.796 146.871 169.81 145.882 171.854 144.418C173.543 143.218 183.706 139.57 190.446 135.033L190.44 135.026Z" fill="#350B00"/>
<path d="M149.925 159.554C146.338 161.071 142.796 162.515 139.327 163.887C137.863 164.468 136.267 164.877 134.631 165.121C137.994 157.721 146.687 139.122 151.7 133.239C157.602 126.314 173.273 117.694 175.278 116.605C175.746 117.812 176.287 118.967 177.026 120.022L178.147 124.566L183.872 124.784C183.924 124.803 183.984 124.823 184.036 124.836C183.944 125.331 184.017 125.852 184.267 126.32L186.081 129.724C186.154 129.869 186.292 129.961 186.45 129.994C186.609 130.02 186.767 129.981 186.886 129.875L187.941 128.952C188.04 128.866 188.139 128.794 188.251 128.728L190.441 135.026C183.7 139.564 173.537 143.211 171.848 144.411C169.804 145.875 169.791 146.871 167.344 151.864C161.428 154.581 155.611 157.153 149.925 159.554Z" fill="white"/>
<path d="M184.042 124.79C184.042 124.79 184.042 124.823 184.035 124.836C183.983 124.816 183.924 124.797 183.871 124.784H184.042V124.79Z" fill="white"/>
<path d="M183.305 73.3664C183.562 73.749 183.707 74.1908 183.674 74.5734C183.634 75.1076 183.582 75.5956 183.509 76.0573C183.311 77.2643 182.632 78.1151 181.629 78.4514C178.503 79.4935 174.553 80.8653 170.543 82.2239L156.666 74.2106C163.466 73.1092 171.776 71.2032 177.718 70.5107C178.826 70.3853 180.126 70.8008 181.359 71.6912C181.827 72.0342 182.309 72.4035 182.816 72.819C183.008 72.9773 183.173 73.162 183.311 73.3664H183.305Z" fill="#350B00"/>
<path d="M179.44 101.667L177.105 110.452C175.087 111.718 173.088 112.978 171.11 114.244L171.037 114.126C171.479 113.842 171.835 113.44 172.059 112.952L172.686 111.586C173.121 110.63 173.359 109.588 173.372 108.539C173.372 108.401 173.372 108.269 173.372 108.13L173.273 105.505C175.317 104.226 177.375 102.946 179.446 101.667H179.44Z" fill="white"/>
<path d="M175.279 116.605C173.274 117.7 157.604 126.314 151.701 133.239C146.688 139.122 137.996 157.721 134.632 165.121C129.626 165.872 124.152 165.081 120.32 162.865C115.235 159.93 114.483 155.313 118.546 151.89C132.39 140.21 150.652 127.29 171.111 114.238C173.089 112.971 175.088 111.712 177.106 110.445L175.497 116.487C175.497 116.487 175.424 116.526 175.286 116.605H175.279Z" fill="#350B00"/>
<path d="M173.364 108.533C173.344 109.581 173.114 110.617 172.678 111.58L172.052 112.945C171.828 113.433 171.471 113.842 171.03 114.119C170.766 114.284 170.476 114.416 170.159 114.488L166.736 115.28C166.195 115.405 165.628 115.306 165.153 115.009C164.685 114.713 164.348 114.238 164.236 113.697L163.847 111.936C163.814 111.791 163.808 111.646 163.821 111.507C163.874 110.999 164.21 110.544 164.711 110.366C165.641 110.03 166.248 109.133 166.222 108.15L166.195 107.108C166.413 107.095 166.637 107.088 166.888 107.088C168.715 107.088 171.386 107.768 173.358 108.526L173.364 108.533Z" fill="white"/>
<path d="M163.848 111.942L163.993 112.595L161.078 113.308C161.988 112.708 162.905 112.114 163.828 111.514C163.815 111.652 163.828 111.797 163.855 111.942H163.848Z" fill="white"/>
<path d="M134.222 101.7C134.479 102.089 134.617 102.524 134.591 102.907C134.552 103.434 134.499 103.929 134.426 104.391C134.228 105.598 133.549 106.449 132.547 106.785C129.427 107.827 125.47 109.199 121.46 110.557L107.59 102.551C114.39 101.449 122.7 99.5367 128.642 98.8507C129.75 98.7254 131.056 99.1409 132.283 100.031C132.751 100.368 133.232 100.75 133.734 101.159C133.925 101.311 134.09 101.502 134.228 101.7H134.222Z" fill="#350B00"/>
<path d="M79.7179 133.173C79.9751 133.562 80.1136 133.997 80.0872 134.38C80.0476 134.914 79.9949 135.402 79.9223 135.864C79.7245 137.071 79.0451 137.921 78.0427 138.258C74.9231 139.3 70.9659 140.672 66.9559 142.03L53.0859 134.024C59.8857 132.922 68.1958 131.01 74.1382 130.324C75.2462 130.198 76.5521 130.614 77.7788 131.504C78.2471 131.847 78.7286 132.216 79.2298 132.632C79.4211 132.79 79.586 132.975 79.7245 133.179L79.7179 133.173Z" fill="#350B00"/>
<path d="M205.977 93.0667C215.619 87.4739 225.453 81.9734 235.286 76.6641" stroke="#350B00" stroke-width="1.9786" stroke-linecap="round" stroke-linejoin="round"/>
<path d="M260.012 63.6846C265.895 60.6903 271.725 57.7884 277.456 55.0051" stroke="#350B00" stroke-width="1.9786" stroke-linecap="round" stroke-linejoin="round"/>
<path d="M312.082 39.4269C318.275 37.844 325.688 38.5629 330.654 41.4319C336.538 44.8351 337.184 50.2103 332.185 54.0487C321.553 62.2072 308.962 71.0911 295.106 80.2388C286.796 85.7261 278.03 91.3124 268.968 96.892C263.897 100.018 249.288 108.717 247.171 109.957C238.617 114.95 229.904 119.877 221.159 124.658C217.32 126.756 195.259 138.337 192.133 139.907C183.757 144.121 175.453 148.131 167.341 151.864C161.425 154.581 155.608 157.154 149.923 159.554C146.335 161.071 142.793 162.516 139.324 163.887C137.86 164.468 136.264 164.877 134.628 165.121C129.622 165.866 124.148 165.081 120.316 162.865C115.231 159.93 114.479 155.313 118.542 151.89C132.386 140.21 150.648 127.296 171.107 114.238C173.086 112.971 175.084 111.712 177.102 110.445" stroke="#350B00" stroke-width="1.9786" stroke-linecap="round" stroke-linejoin="round"/>
<path d="M348.562 49.4518L349.67 30.4441L317.215 31.0838" stroke="#350B00" stroke-width="1.9786" stroke-linecap="round" stroke-linejoin="round"/>
<path d="M102.385 157.351L101.422 173.774L129.874 173.22" stroke="#350B00" stroke-width="1.9786" stroke-linecap="round" stroke-linejoin="round"/>
<path d="M74.6172 190.038C108.365 191.133 152.95 178.239 198.392 157.919C217.017 149.589 235.787 140.012 254.01 129.638C270.644 120.174 286.828 110.043 302.031 99.5896C350.374 66.3623 388.852 29.9297 400.651 1.32581" stroke="#350B00" stroke-width="1.9786" stroke-linecap="round" stroke-linejoin="round"/>
<path d="M252.605 60.9936C252.876 60.8551 261.522 56.5417 265.592 54.5631" stroke="#350B00" stroke-width="1.9786" stroke-linecap="round" stroke-linejoin="round"/>
<path d="M273.354 50.817C275.279 49.9003 277.205 48.9835 279.138 48.08" stroke="#350B00" stroke-width="1.9786" stroke-linecap="round" stroke-linejoin="round"/>
<path d="M308.041 35.008C311.101 33.6758 314.161 32.3699 317.215 31.0838C343.609 19.9443 369.496 10.3613 393.424 3.06025L400.118 1.0157C400.27 0.969533 400.461 0.982724 400.58 1.05527C400.705 1.12782 400.731 1.23335 400.652 1.32568L397.11 5.19054C384.461 19.0078 367.873 33.9462 348.575 49.188C333.01 61.4817 315.678 73.9534 297.231 86.1812C281.883 96.3512 265.758 106.343 249.237 115.9C231.159 126.36 212.6 136.306 194.04 145.394C172.394 155.999 150.749 165.457 129.874 173.22C111.975 179.881 94.6487 185.302 78.3714 189.147L74.6187 190.038C74.2296 190.13 73.7877 190.077 73.4909 189.906C73.4711 189.893 73.4513 189.879 73.4315 189.866C73.1875 189.695 73.1149 189.457 73.2666 189.253L74.8033 187.09C81.4646 177.691 90.8564 167.686 102.392 157.351C118.352 143.053 138.442 128.141 161.077 113.308C161.987 112.708 162.904 112.114 163.827 111.514" stroke="#350B00" stroke-width="1.9786" stroke-linecap="round" stroke-linejoin="round"/>
<path d="M219.601 231.549C217.563 225.092 215.69 219.044 213.514 212.04C212.887 210.028 212.801 208.096 213.296 206.658C213.481 206.111 213.705 205.576 213.962 205.022C214.239 204.416 214.912 204.363 215.598 204.891C216.224 205.372 216.811 205.847 217.372 206.328C218.843 207.601 220.109 209.441 220.927 211.44C224.897 221.141 228.109 228.983 231.994 238.698L219.601 231.542V231.549Z" stroke="#350B00" stroke-width="1.9786" stroke-linecap="round" stroke-linejoin="round"/>
<path d="M214.551 204.356L188.242 128.728" stroke="#350B00" stroke-width="1.9786" stroke-linecap="round" stroke-linejoin="round"/>
<path d="M79.7148 133.173L163.99 112.595" stroke="#350B00" stroke-width="1.9786" stroke-linecap="round" stroke-linejoin="round"/>
<path d="M53.0769 134.017L66.9469 142.024C70.9568 140.665 74.914 139.287 78.0336 138.251C79.0361 137.915 79.722 137.064 79.9133 135.857C79.9858 135.396 80.0386 134.908 80.0782 134.373C80.1046 133.997 79.9661 133.555 79.7088 133.166C79.5703 132.962 79.4055 132.777 79.2142 132.619C78.7129 132.203 78.2315 131.834 77.7632 131.491C76.5299 130.601 75.2306 130.185 74.1226 130.311C68.1802 130.996 59.8701 132.909 53.0703 134.011L53.0769 134.017Z" stroke="#350B00" stroke-width="1.9786" stroke-linecap="round" stroke-linejoin="round"/>
<path d="M235.642 69.7324C232.068 71.612 224.173 75.8594 223.777 76.0771" stroke="#350B00" stroke-width="1.9786" stroke-linecap="round" stroke-linejoin="round"/>
<path d="M217.081 79.7375C215.221 80.7598 203.712 87.2496 199.854 89.4788C199.531 88.6676 199.373 87.8827 199.096 87.0451C199.637 86.6296 200.131 86.1218 200.56 85.548C200.58 85.5282 200.593 85.5084 200.606 85.4886C201.912 83.7277 202.618 81.3797 202.281 79.3418C202.083 78.1348 201.523 77.04 200.507 76.2354C199.953 73.3136 197.137 72.5288 194.387 72.9773C193.721 73.0894 192.89 73.34 192.045 73.7028C190.456 74.6921 187.336 75.8924 187.699 78.1085C187.758 78.4646 187.956 78.7218 188.24 78.8933C188.952 79.322 190.185 79.2626 191.082 79.1175C192.19 78.9329 193.318 78.5767 194.327 78.3789C195.547 78.3129 196.794 78.5635 196.946 79.4671C197.097 80.4036 195.884 81.2346 196.095 82.5207C196.207 83.2066 196.636 83.8332 197.13 84.3542C197.585 83.6221 198.291 83.0879 198.964 82.9758C199.894 82.8241 200.501 83.5496 200.632 84.3806C200.692 84.7434 200.652 85.1523 200.553 85.5546" stroke="#350B00" stroke-width="1.9786" stroke-linecap="round" stroke-linejoin="round"/>
<path d="M173.266 105.499C175.31 104.219 177.368 102.94 179.439 101.66" stroke="#350B00" stroke-width="1.9786" stroke-linecap="round" stroke-linejoin="round"/>
<path d="M188.058 87.7112C181.951 87.83 175.098 88.8852 170.627 89.7096C168.371 90.1251 166.643 91.8003 166.089 93.924C165.957 94.4385 165.891 94.9859 165.904 95.5399L166.228 108.163C166.247 109.146 165.641 110.043 164.717 110.379C164.216 110.564 163.88 111.013 163.827 111.52C163.814 111.659 163.827 111.804 163.853 111.949L164.242 113.71C164.361 114.251 164.691 114.726 165.159 115.022C165.627 115.319 166.201 115.418 166.742 115.293L170.165 114.501C170.475 114.429 170.772 114.304 171.036 114.132C171.477 113.849 171.834 113.446 172.058 112.958L172.684 111.593C173.12 110.637 173.357 109.595 173.37 108.546C173.37 108.407 173.37 108.275 173.37 108.137L172.994 97.9999C172.975 97.4789 173.166 96.9711 173.529 96.5952C173.891 96.2192 174.386 96.0016 174.907 95.995H180.467C180.586 95.995 180.698 96.0411 180.77 96.1335C180.843 96.2258 180.869 96.3511 180.836 96.4698L175.501 116.5C175.501 116.5 175.428 116.539 175.29 116.619C173.285 117.713 157.614 126.327 151.711 133.252C146.699 139.135 138.006 157.734 134.643 165.134" stroke="#350B00" stroke-width="1.9786" stroke-linecap="round" stroke-linejoin="round"/>
<path d="M149.922 159.554C154.314 150.321 156.774 142.604 160.798 138.581C165.289 134.09 173.546 128.259 173.546 128.259" stroke="#350B00" stroke-width="1.9786" stroke-linecap="round" stroke-linejoin="round"/>
<path d="M167.342 151.864C169.789 146.865 169.802 145.876 171.846 144.411C173.535 143.211 183.698 139.564 190.439 135.026C192.74 133.476 194.646 131.814 195.675 130.119" stroke="#350B00" stroke-width="1.9786" stroke-linecap="round" stroke-linejoin="round"/>
<path d="M175.273 116.605C175.742 117.812 176.283 118.967 177.021 120.022" stroke="#350B00" stroke-width="1.9786" stroke-linecap="round" stroke-linejoin="round"/>
<path d="M183.863 124.784C183.916 124.803 183.975 124.823 184.028 124.836" stroke="#350B00" stroke-width="1.9786" stroke-linecap="round" stroke-linejoin="round"/>
<path d="M193.406 93.8713L190.676 98.0461L192.351 98.8837L196.058 94.6957" stroke="#350B00" stroke-width="1.9786" stroke-linecap="round" stroke-linejoin="round"/>
<path d="M190.676 98.0461C187.015 101.66 180.057 111.778 177.023 120.022L178.145 124.566L184.041 124.79" stroke="#350B00" stroke-width="1.9786" stroke-linecap="round" stroke-linejoin="round"/>
<path d="M185.623 122.739C186.487 117.535 188.967 104.101 192.35 98.8838" stroke="#350B00" stroke-width="1.9786" stroke-linecap="round" stroke-linejoin="round"/>
<path d="M166.195 107.115C166.413 107.102 166.637 107.095 166.888 107.095C168.715 107.095 171.386 107.774 173.358 108.533" stroke="#350B00" stroke-width="1.9786" stroke-linecap="round" stroke-linejoin="round"/>
<path d="M193.463 130.423C194.175 128.813 194.268 126.327 194.268 124.863C194.268 124.256 194.202 123.695 194.096 123.174" stroke="#350B00" stroke-width="1.9786" stroke-linecap="round" stroke-linejoin="round"/>
<path d="M211.536 123.939C211.853 123.273 212.044 122.541 212.123 121.776C212.123 121.73 212.13 121.677 212.136 121.631C212.453 116.526 212.835 108.52 212.281 103.837C212.209 103.237 212.123 102.689 212.024 102.214C211.879 101.555 211.675 100.882 211.404 100.216C210.402 97.7098 208.548 95.1838 205.976 93.0667C204.242 91.6421 202.19 90.4022 199.856 89.4789C200.707 91.9521 198.438 94.1682 196.057 94.6958C195.206 94.887 194.342 94.8607 193.597 94.5507C193.537 94.3198 193.471 94.0956 193.405 93.8714C193.32 93.5944 193.221 93.3108 193.122 93.0338C193.056 93.0535 192.99 93.0601 192.924 93.0733C190.154 93.5416 188.703 90.5737 188.05 87.7113C187.958 87.3156 187.885 86.9199 187.819 86.5374C187.404 83.9916 187.529 81.3996 188.235 78.8868" stroke="#350B00" stroke-width="1.9786" stroke-linecap="round" stroke-linejoin="round"/>
<path d="M198.293 121.855L193.603 123.333C193.142 123.478 192.641 123.451 192.199 123.254L188.848 121.763C187.951 121.367 186.903 121.539 186.19 122.211L185.63 122.739L184.713 123.596C184.363 123.926 184.133 124.342 184.04 124.797C184.04 124.81 184.04 124.83 184.034 124.843C183.948 125.338 184.014 125.859 184.265 126.327L186.078 129.73C186.151 129.875 186.289 129.968 186.448 130.001C186.606 130.027 186.764 129.987 186.883 129.882L187.938 128.958C188.037 128.873 188.136 128.8 188.248 128.734C189.04 128.253 190.055 128.279 190.814 128.853L192.238 129.921C192.601 130.192 193.03 130.37 193.472 130.436C193.808 130.489 194.158 130.475 194.5 130.396L207.21 127.455C209.155 127 210.725 125.687 211.543 123.959" stroke="#350B00" stroke-width="1.9786" stroke-linecap="round" stroke-linejoin="round"/>
<path d="M198.295 121.855C199.64 116.071 202.153 111.758 204.468 109.074L204.237 117.509C204.198 119 203.215 120.299 201.797 120.747L198.295 121.849V121.855Z" stroke="#350B00" stroke-width="1.9786" stroke-linecap="round" stroke-linejoin="round"/>
<path d="M323.189 171.742C321.151 165.286 319.278 159.238 317.101 152.233C316.475 150.222 316.389 148.289 316.884 146.852C317.068 146.304 317.293 145.763 317.55 145.216C317.827 144.609 318.506 144.556 319.186 145.084C319.812 145.566 320.399 146.04 320.96 146.522C322.424 147.795 323.697 149.635 324.515 151.633C328.485 161.328 331.697 169.177 335.582 178.892L323.189 171.736V171.742Z" stroke="#350B00" stroke-width="1.9786" stroke-linecap="round" stroke-linejoin="round"/>
<path d="M318.137 144.55L290.463 67.2855" stroke="#350B00" stroke-width="1.9786" stroke-linecap="round" stroke-linejoin="round"/>
<path d="M183.303 73.3664L225.031 63.1766" stroke="#350B00" stroke-width="1.9786" stroke-linecap="round" stroke-linejoin="round"/>
<path d="M257.129 55.3414L264.7 53.4882" stroke="#350B00" stroke-width="1.9786" stroke-linecap="round" stroke-linejoin="round"/>
<path d="M156.663 74.2041L170.539 82.2174C174.549 80.8588 178.5 79.4803 181.626 78.4449C182.629 78.1085 183.315 77.2577 183.506 76.0508C183.578 75.5891 183.631 75.101 183.671 74.5668C183.697 74.1909 183.552 73.749 183.301 73.3599C183.169 73.1554 182.998 72.9708 182.807 72.8125C182.305 72.397 181.824 72.0276 181.349 71.6847C180.116 70.7943 178.817 70.3722 177.709 70.5041C171.766 71.19 163.456 73.1027 156.656 74.2041H156.663Z" stroke="#350B00" stroke-width="1.9786" stroke-linecap="round" stroke-linejoin="round"/>
<path d="M291.418 20.9468C292.11 21.9888 292.058 23.5717 293.271 23.5717C294.604 23.5717 295.817 21.5997 297.308 21.5997C300.843 21.5997 299.036 26.7309 301.285 26.7309C301.443 26.7309 301.951 26.632 302.663 26.3615" stroke="#350B00" stroke-width="1.9786" stroke-linecap="round" stroke-linejoin="round"/>
<path d="M299.213 31.9281C298.672 33.5571 297.083 34.7574 295.355 34.9817C293.073 35.2785 290.533 33.8737 289.821 29.4944C289.722 28.8744 289.663 28.2676 289.65 27.6741C289.597 25.1019 290.309 22.7869 291.417 20.9468C293.152 18.0581 295.829 16.3367 297.94 16.6005C301.957 17.1018 303.823 21.6921 302.741 25.9923C302.708 26.1176 302.682 26.2429 302.656 26.3682C302.346 27.773 302.174 29.125 302.102 30.3056C302.062 30.9717 302.398 31.6049 302.966 31.9544C303.111 32.0468 303.262 32.1325 303.414 32.2248C304.977 33.1614 306.593 34.0122 308.044 35.0147C309.726 36.1754 311.19 37.5341 312.087 39.4335C312.582 40.4888 312.911 41.7089 313.004 43.1533C313.254 46.9324 312.918 52.1691 312.516 56.5022C312.318 58.6259 312.107 60.5254 311.935 61.9434C311.751 63.4669 310.682 64.7464 309.211 65.1949L295.104 69.495C294.346 69.7259 293.515 69.5808 292.875 69.1059L290.494 67.3252C290.494 67.3252 290.467 67.3054 290.454 67.2988C289.966 66.969 289.307 67.068 288.937 67.5296L287.895 68.8619C287.763 69.0334 287.559 69.1389 287.341 69.1455C287.124 69.1521 286.913 69.0663 286.761 68.9081L285.072 67.068C284.604 66.5535 284.413 65.8742 284.518 65.2279C284.571 64.8849 284.71 64.5485 284.927 64.2583L285.501 63.4867C286.418 62.26 287.902 61.5872 289.425 61.706L290.5 61.7917C290.784 61.8115 291.054 61.9104 291.292 62.0687L292.327 62.7744C292.908 63.1701 293.646 63.2493 294.299 62.992L302.385 59.7999C303.526 59.3514 304.298 58.283 304.37 57.0628L305.004 46.3125" stroke="#350B00" stroke-width="1.9786" stroke-linecap="round" stroke-linejoin="round"/>
<path d="M282.607 36.0369C281.981 37.4021 281.255 39.8292 280.517 42.5992C280.055 44.3536 277.938 53.099 277.457 55.005C276.995 56.8385 276.632 58.151 276.414 58.5137C276.375 58.5863 276.296 58.672 276.184 58.771C274.719 60.123 267.669 63.8823 264.246 67.8857" stroke="#350B00" stroke-width="1.9786" stroke-linecap="round" stroke-linejoin="round"/>
<path d="M268.969 96.8986C270.512 93.4625 271.884 90.7452 274.014 88.3049C275.834 86.2142 285.312 80.7137 293.22 74.9758C296.788 72.3904 300.033 69.7523 302.11 67.3582" stroke="#350B00" stroke-width="1.9786" stroke-linecap="round" stroke-linejoin="round"/>
<path d="M304.453 55.9614C306.57 57.2343 310.303 57.7356 312.519 56.4957" stroke="#350B00" stroke-width="1.9786" stroke-linecap="round" stroke-linejoin="round"/>
<path d="M289.645 27.6741C287.983 27.5422 286.13 27.5883 284.62 28.1291C281.447 29.2701 277.998 33.8143 274.001 38.5366C273.572 39.0444 273.137 39.5522 272.695 40.0601C270.598 40.4624 268.468 42.0848 268.25 48.3834C265.724 48.7197 264.51 49.9926 264.398 51.9778C264.365 52.545 264.477 53.0463 264.695 53.4816C264.906 53.9037 265.209 54.2598 265.579 54.5566C266.383 55.1964 267.478 55.5327 268.52 55.5327C269.846 55.5327 270.466 54.6424 270.743 54.0224C270.921 53.6135 271.238 53.2837 271.627 53.0793L272.86 52.4329C273.414 52.1427 273.645 51.4634 273.381 50.8962L272.913 49.8937C272.748 49.5376 272.801 49.1221 273.051 48.8253L276.329 44.8747L280.504 42.5993" stroke="#350B00" stroke-width="1.9786" stroke-linecap="round" stroke-linejoin="round"/>
<path d="M274.006 38.5431C273.887 41.2274 274.817 44.0568 277.521 44.2283" stroke="#350B00" stroke-width="1.9786" stroke-linecap="round" stroke-linejoin="round"/>
<path d="M295.355 34.9816C297.881 36.2677 301.548 35.9643 303.415 32.2181" stroke="#350B00" stroke-width="1.9786" stroke-linecap="round" stroke-linejoin="round"/>
<path d="M276.191 58.771C277.563 61.8114 280.914 63.9219 284.528 65.2146" stroke="#350B00" stroke-width="1.9786" stroke-linecap="round" stroke-linejoin="round"/>
<path d="M274.779 69.4158C272.524 71.7901 268.896 74.9558 265.869 78.0425" stroke="#350B00" stroke-width="1.9786" stroke-linecap="round" stroke-linejoin="round"/>
<path d="M295.74 43.2917L294.474 46.873C294.124 47.8623 294.599 48.9505 295.562 49.366L297.125 50.0388C298.319 50.5532 299.704 50.019 300.245 48.8384L301.815 45.422L295.74 43.2917Z" stroke="#350B00" stroke-width="1.9786" stroke-linecap="round" stroke-linejoin="round"/>
<path d="M257.248 95.3618L253.488 106.244" stroke="#350B00" stroke-width="1.9786" stroke-linecap="round" stroke-linejoin="round"/>
<path d="M274.318 200.3C272.28 193.843 270.407 187.795 268.23 180.798C267.604 178.78 267.518 176.854 268.013 175.416C268.197 174.869 268.422 174.328 268.679 173.78C268.956 173.174 269.629 173.121 270.314 173.649C270.941 174.13 271.528 174.605 272.089 175.086C273.553 176.366 274.826 178.199 275.643 180.198C279.614 189.899 282.832 197.741 286.71 207.456L274.318 200.3Z" stroke="#350B00" stroke-width="1.9786" stroke-linecap="round" stroke-linejoin="round"/>
<path d="M269.061 172.883L242.752 97.2547" stroke="#350B00" stroke-width="1.9786" stroke-linecap="round" stroke-linejoin="round"/>
<path d="M134.217 101.7L166.079 93.9241" stroke="#350B00" stroke-width="1.9786" stroke-linecap="round" stroke-linejoin="round"/>
<path d="M200.574 85.5018L217.056 81.4786" stroke="#350B00" stroke-width="1.9786" stroke-linecap="round" stroke-linejoin="round"/>
<path d="M107.589 102.544L121.459 110.551C125.469 109.192 129.426 107.814 132.545 106.778C133.548 106.442 134.234 105.591 134.425 104.384C134.498 103.923 134.55 103.435 134.59 102.9C134.616 102.518 134.478 102.076 134.221 101.693C134.082 101.489 133.917 101.304 133.726 101.153C133.218 100.744 132.743 100.361 132.275 100.025C131.042 99.1278 129.742 98.7123 128.634 98.8442C122.692 99.5301 114.382 101.443 107.582 102.544H107.589Z" stroke="#350B00" stroke-width="1.9786" stroke-linecap="round" stroke-linejoin="round"/>
<path d="M252.056 59.0744H252.083C252.558 59.2393 253.046 59.292 253.521 59.2524C255.479 59.081 257.286 57.386 257.128 55.3414C257.128 55.3282 257.128 55.3216 257.128 55.3084C256.977 53.5739 255.908 52.8418 254.84 52.3867C255.268 51.3447 255.486 50.2828 255.38 49.1022C254.998 44.6966 252.584 41.478 247.532 41.9133C243.931 42.2233 241.966 44.037 241.24 46.8532C240.917 48.1129 240.844 49.5705 240.983 51.1864C241.253 54.2862 241.28 57.4124 242.506 58.9491C243.067 59.6482 243.865 60.0241 245.052 59.9186C245.329 59.8988 245.606 59.8394 245.883 59.7603C246.121 60.6375 246.338 61.5146 246.556 62.3918" stroke="#350B00" stroke-width="1.9786" stroke-linecap="round" stroke-linejoin="round"/>
<path d="M252.368 60.1099C252.276 59.7867 251.807 58.0917 251.662 57.5773C251.431 56.7726 251.563 55.9021 252.018 55.1964C252.427 54.5632 252.678 53.996 252.816 53.6267C252.882 53.4618 252.849 53.2771 252.751 53.1386C252.645 53.0001 252.48 52.921 252.302 52.9342H252.289C245.773 53.4684 247.916 46.1673 242.244 46.6554C241.914 46.6818 241.571 46.7543 241.229 46.8533" stroke="#350B00" stroke-width="1.9786" stroke-linecap="round" stroke-linejoin="round"/>
<path d="M242.497 58.9557C239.232 59.5822 235.11 59.7999 230.738 60.71C229.484 60.9739 228.205 61.2904 226.919 61.6928C226.233 61.9038 225.6 62.4776 225.033 63.1701C224.208 64.1726 223.522 65.4455 222.988 66.3293C221.695 68.4859 220.139 71.9419 220.178 76.0838" stroke="#350B00" stroke-width="1.9786" stroke-linecap="round" stroke-linejoin="round"/>
<path d="M224.303 76.4663C224.54 76.1168 224.764 75.7672 224.969 75.4242C226.492 72.9048 227.29 70.5239 227.647 69.2048C227.825 68.5519 228.366 68.0573 229.032 67.9385L236.682 66.5601C236.095 67.4703 235.792 68.5387 235.634 69.7259C235.515 70.6426 235.482 71.6253 235.482 72.6608C235.482 72.9246 235.482 73.1884 235.482 73.4522C235.482 74.6064 235.409 75.6683 235.277 76.6576C235.205 77.1786 235.119 77.6732 235.014 78.1481C234.532 80.2982 233.385 82.191 231.789 83.6024C230.654 84.6049 229.295 85.3568 227.785 85.7855C223.109 87.098 218.875 90.0791 211.402 100.216" stroke="#350B00" stroke-width="1.9786" stroke-linecap="round" stroke-linejoin="round"/>
<path d="M212.281 103.837C214.299 104.266 216.318 104.859 218.085 105.69C222.016 107.537 224.72 110.538 223.441 115.412" stroke="#350B00" stroke-width="1.9786" stroke-linecap="round" stroke-linejoin="round"/>
<path d="M246.545 62.3984C248.154 63.889 252.461 62.8205 252.606 61.0002C252.626 60.7166 252.553 60.4133 252.349 60.1033H252.369C252.725 60.2748 253.081 60.4396 253.424 60.5913C256.082 61.7785 258.252 62.6689 260.019 63.6845C261.886 64.7596 263.284 65.9797 264.26 67.8858C264.412 68.176 264.55 68.4859 264.676 68.8091C265.408 70.6426 265.744 74.2107 265.863 78.0426C265.902 79.2825 265.922 80.5554 265.922 81.8085C265.922 83.5958 265.896 85.337 265.856 86.9001C265.764 90.4813 263.363 93.5943 259.92 94.5902L247.336 98.2309C246.73 98.4089 246.07 98.3166 245.529 97.9868L243.445 96.7073C243.3 96.615 243.142 96.5491 242.984 96.5095C242.37 96.338 241.691 96.5029 241.223 96.9712L240.286 97.9077C240.075 98.1187 239.778 98.2177 239.481 98.1847C239.185 98.1451 238.921 97.9736 238.769 97.7098L237.569 95.6521C237.028 94.7287 237.147 93.5812 237.819 92.7765C237.892 92.6908 237.971 92.6116 238.057 92.5325C239.04 91.6487 240.642 90.8573 243.076 91.3453C244.81 91.6883 245.727 92.0906 246.195 92.4534C246.835 92.9546 247.699 93.0535 248.438 92.7238L255.825 89.3931C257.625 88.5819 258.727 86.7418 258.581 84.7698L257.968 76.1695" stroke="#350B00" stroke-width="1.9786" stroke-linecap="round" stroke-linejoin="round"/>
<path d="M223.77 76.0771C223.203 75.7803 222.445 75.6813 221.455 75.8067C221.033 75.8594 220.644 75.9517 220.275 76.0573C220.242 76.0639 220.216 76.0771 220.183 76.0903C218.54 76.6574 217.347 78.0557 217.083 79.7375C217.043 79.9749 217.023 80.2123 217.023 80.4564V81.1489C217.023 81.261 217.037 81.3665 217.056 81.4786C217.136 81.9205 217.353 82.3294 217.696 82.6262C218.125 83.0022 218.685 83.167 219.246 83.0945C221.686 82.7713 225.274 81.9601 225.274 80.0013C225.274 78.3854 225.017 77.1785 224.311 76.4662C224.16 76.3079 223.982 76.1826 223.777 76.0771H223.77Z" stroke="#350B00" stroke-width="1.9786" stroke-linecap="round" stroke-linejoin="round"/>
<path d="M231.692 67.4703C230.518 66.1842 229.779 62.6227 230.736 60.7101" stroke="#350B00" stroke-width="1.9786" stroke-linecap="round" stroke-linejoin="round"/>
<path d="M258.436 82.5406C260.586 82.4812 263.435 82.2042 265.928 81.8085" stroke="#350B00" stroke-width="1.9786" stroke-linecap="round" stroke-linejoin="round"/>
<path d="M221.16 124.658C222.967 119.778 223.442 115.412 223.442 115.412C223.442 115.412 235.953 110.65 239.225 108.895C240.735 108.084 243.261 107.062 245.556 105.308C247.858 103.547 249.929 101.054 250.483 97.3075" stroke="#350B00" stroke-width="1.9786" stroke-linecap="round" stroke-linejoin="round"/>
<path d="M250.963 91.5827C251.88 85.8579 254.544 80.6608 258.099 77.871" stroke="#350B00" stroke-width="1.9786" stroke-linecap="round" stroke-linejoin="round"/>
<path d="M231.797 83.6024C232.298 87.4013 233.683 90.8177 237.832 92.7699" stroke="#350B00" stroke-width="1.9786" stroke-linecap="round" stroke-linejoin="round"/>
<path d="M218.086 105.69C215.797 108.797 213.851 115.431 212.117 121.776C211.919 122.502 211.721 123.227 211.53 123.939C210.857 126.459 210.217 128.853 209.617 130.871" stroke="#350B00" stroke-width="1.9786" stroke-linecap="round" stroke-linejoin="round"/>
<path d="M202.97 128.424C202.435 130.99 201.947 133.305 201.545 135.105" stroke="#350B00" stroke-width="1.9786" stroke-linecap="round" stroke-linejoin="round"/>
<path d="M149.369 79.3088C151.295 82.6922 155.45 84.7631 160.766 85.8843" stroke="#350B00" stroke-width="1.9786" stroke-linecap="round" stroke-linejoin="round"/>
<path d="M141.908 78.8274C142.799 84.9347 153.094 90.2703 162.809 90.1977" stroke="#350B00" stroke-width="1.9786" stroke-linecap="round" stroke-linejoin="round"/>
<path d="M101.857 107.431C103.829 110.894 108.083 113.018 113.525 114.165" stroke="#350B00" stroke-width="1.9786" stroke-linecap="round" stroke-linejoin="round"/>
<path d="M94.2129 106.943C95.123 113.196 105.669 118.657 115.615 118.584" stroke="#350B00" stroke-width="1.9786" stroke-linecap="round" stroke-linejoin="round"/>
<path d="M46.6348 139.808C48.8772 143.739 53.6984 146.146 59.8782 147.452" stroke="#350B00" stroke-width="1.9786" stroke-linecap="round" stroke-linejoin="round"/>
<path d="M37.9609 139.247C38.9964 146.344 50.9669 152.543 62.2515 152.464" stroke="#350B00" stroke-width="1.9786" stroke-linecap="round" stroke-linejoin="round"/>
<path d="M314.729 176.115C316.971 180.046 321.792 182.453 327.972 183.759" stroke="#350B00" stroke-width="1.9786" stroke-linecap="round" stroke-linejoin="round"/>
<path d="M306.055 175.561C307.09 182.658 319.061 188.857 330.345 188.778" stroke="#350B00" stroke-width="1.9786" stroke-linecap="round" stroke-linejoin="round"/>
<path d="M266.141 204.171C268.383 208.102 273.204 210.51 279.384 211.815" stroke="#350B00" stroke-width="1.9786" stroke-linecap="round" stroke-linejoin="round"/>
<path d="M257.467 203.611C258.502 210.707 270.473 216.907 281.757 216.828" stroke="#350B00" stroke-width="1.9786" stroke-linecap="round" stroke-linejoin="round"/>
<path d="M212.125 235.354C214.367 239.285 219.189 241.692 225.368 242.998" stroke="#350B00" stroke-width="1.9786" stroke-linecap="round" stroke-linejoin="round"/>
<path d="M203.451 234.794C204.487 241.89 216.457 248.09 227.742 248.011" stroke="#350B00" stroke-width="1.9786" stroke-linecap="round" stroke-linejoin="round"/>
<path d="M218.213 148.613C214.15 155.841 212.989 162.364 203.644 168.669C193.751 175.35 181.431 177.441 171.584 184.333C164.784 189.095 161.83 197.042 155.59 202.285C146.522 209.903 134.604 211.215 125.39 218.14C119.778 222.361 118.788 229.867 113.736 234.503C109.964 237.973 104.641 239.542 99.9258 241.818" stroke="#350B00" stroke-width="1.9786" stroke-linecap="round" stroke-linejoin="round"/>
<path d="M114.336 147.148C106.368 149.628 96.3567 151.29 89.2206 154.12C76.0233 159.356 73.7479 166.235 61.751 171.558C54.4434 174.803 41.4374 175.37 33.4043 178.285C23.7488 181.787 22.5814 187.604 11.1847 190.559C8.164 191.344 4.65528 191.739 0.988281 191.997" stroke="#350B00" stroke-width="1.9786" stroke-linecap="round" stroke-linejoin="round"/>
</g>
<defs>
<clipPath id="clip0_4637_36223">
<rect width="401.688" height="249" fill="white"/>
</clipPath>
</defs>
</svg>
