<svg width="402" height="250" viewBox="0 0 402 250" fill="none" xmlns="http://www.w3.org/2000/svg">
<g clip-path="url(#clip0_4637_36223)">
<path d="M101.424 174.225L73.4273 190.311C73.1766 190.146 73.1107 189.902 73.2624 189.698L74.7991 187.535C81.4604 178.136 90.8521 168.131 102.387 157.796L101.424 174.225Z" fill="#E59636"/>
<path d="M74.6188 190.489C74.2297 190.582 73.7878 190.529 73.491 190.357C73.4712 190.344 73.4514 190.331 73.4316 190.318L101.429 174.232L129.881 173.678C111.981 180.333 94.6554 185.76 78.3781 189.606L74.6254 190.496L74.6188 190.489Z" fill="#E59636"/>
<path d="M170.159 114.94C170.469 114.867 170.766 114.742 171.03 114.571L171.102 114.689C150.644 127.741 132.381 140.668 118.537 152.342C114.475 155.772 115.22 160.382 120.312 163.317C124.144 165.526 129.618 166.318 134.623 165.572C136.266 165.328 137.855 164.919 139.319 164.339C142.795 162.967 146.33 161.523 149.918 160.006C155.597 157.605 161.42 155.033 167.336 152.316C175.455 148.583 183.752 144.579 192.128 140.358L194.034 145.839C172.388 156.444 150.742 165.895 129.868 173.665L101.416 174.219L102.379 157.79C118.34 143.491 138.416 128.559 161.064 113.746L163.979 113.034L164.223 114.142C164.342 114.683 164.672 115.158 165.14 115.454C165.608 115.751 166.182 115.85 166.723 115.725L170.146 114.933L170.159 114.94Z" fill="#E59636"/>
<path d="M129.877 173.671C150.751 165.902 172.397 156.451 194.043 145.846L198.396 158.364C152.954 178.684 108.369 191.584 74.6211 190.483L78.3738 189.592C94.6511 185.747 111.984 180.326 129.877 173.665V173.671Z" fill="white"/>
<path d="M400.58 1.50696C400.706 1.57951 400.732 1.68503 400.653 1.77737L397.111 5.64223C384.461 19.4594 367.874 34.4045 348.576 49.6397L349.678 30.9023L400.58 1.50696Z" fill="#E59636"/>
<path d="M348.577 49.633C367.882 34.3978 384.462 19.4528 397.112 5.63561L400.654 1.77075C388.861 30.3747 350.384 66.8139 302.034 100.035L297.232 86.6196C315.68 74.3985 333.012 61.9201 348.577 49.6264V49.633Z" fill="white"/>
<path d="M400.58 1.50694L349.67 30.8957L317.215 31.5289C343.609 20.3828 369.496 10.8063 393.424 3.50532L400.118 1.46077C400.27 1.4146 400.461 1.42779 400.58 1.50034V1.50694Z" fill="#E59636"/>
<path d="M349.669 30.8956L348.568 49.633C333.003 61.9266 315.67 74.3984 297.223 86.6262L295.1 80.6904C308.956 71.536 321.547 62.6521 332.179 54.5003C337.184 50.6618 336.531 45.28 330.648 41.8834C325.682 39.0145 318.269 38.2956 312.076 39.8785C311.179 37.979 309.721 36.6204 308.033 35.4596C311.093 34.1273 314.154 32.8215 317.207 31.5354L349.663 30.9022L349.669 30.8956Z" fill="#E59636"/>
<path d="M335.591 179.35L323.199 172.194C321.161 165.737 319.288 159.689 317.111 152.685C316.485 150.673 316.399 148.741 316.894 147.303C317.078 146.756 317.302 146.215 317.56 145.668C317.837 145.061 318.516 145.008 319.195 145.536C319.822 146.017 320.409 146.492 320.969 146.973C322.434 148.246 323.706 150.086 324.524 152.085C328.495 161.78 331.707 169.628 335.591 179.343V179.35Z" fill="#350B00"/>
<path d="M330.656 41.8835C336.539 45.2867 337.185 50.6619 332.186 54.5004C321.554 62.6588 308.964 71.5427 295.107 80.6905L293.221 75.4208C296.789 72.8354 300.034 70.1973 302.111 67.8032L309.214 65.6333C310.685 65.1848 311.754 63.9053 311.938 62.3818C312.103 60.9638 312.321 59.0644 312.519 56.9407C312.921 52.6076 313.251 47.3775 313.007 43.5917C312.914 42.1474 312.585 40.9206 312.09 39.872C318.283 38.2891 325.696 39.008 330.662 41.877L330.656 41.8835Z" fill="#350B00"/>
<path d="M280.52 43.0508L277.525 44.6799C274.815 44.5084 273.891 41.679 274.01 38.9947C277.994 34.2592 281.45 29.7283 284.628 28.5873C286.132 28.0464 287.992 28.0003 289.654 28.1322C289.667 28.7258 289.727 29.3325 289.826 29.9525C290.545 34.3318 293.077 35.7366 295.359 35.4398C297.885 36.7259 301.552 36.4225 303.419 32.6764C304.982 33.6063 306.598 34.4637 308.049 35.4662C309.73 36.627 311.194 37.9856 312.091 39.8851C312.593 40.9403 312.916 42.1605 313.008 43.6048C313.259 47.384 312.922 52.6206 312.52 56.9538C310.304 58.1871 306.571 57.6924 304.454 56.4195L304.388 57.5012C304.316 58.7213 303.544 59.7898 302.403 60.2382L294.317 63.4304C293.664 63.6876 292.925 63.6085 292.345 63.2127L291.31 62.507C291.072 62.3487 290.802 62.2564 290.518 62.23L289.443 62.1443C287.913 62.0256 286.436 62.6983 285.519 63.925L284.945 64.6967C284.727 64.9869 284.589 65.3232 284.536 65.6662C280.915 64.3735 277.571 62.263 276.2 59.2226C276.305 59.1236 276.384 59.0313 276.431 58.9653C276.648 58.6092 277.011 57.2967 277.473 55.4566C277.954 53.5506 280.071 44.7986 280.533 43.0508H280.52Z" fill="white"/>
<path d="M300.986 48.0888C300.791 48.618 300.479 48.9077 300.049 48.9568C299.62 49.0059 299.108 48.8091 298.512 48.3675L298.14 48.0915L297.562 49.6647L296.235 48.6805L297.979 43.9393L299.677 45.1996C300.296 45.6594 300.713 46.1355 300.929 46.6282C301.143 47.1205 301.163 47.6075 300.986 48.09L300.986 48.0888ZM298.524 47.0463L298.767 47.2251C298.966 47.3724 299.144 47.4363 299.301 47.4153C299.458 47.3942 299.572 47.2885 299.642 47.0981C299.759 46.7784 299.635 46.4819 299.267 46.2094L298.925 45.9556L298.525 47.0451L298.524 47.0463Z" fill="#FFAD00" stroke="#350B00" stroke-width="0.5"/>
<path d="M299.709 43.8735L298.518 42.9021L298.85 42L302.421 44.8344L302.089 45.7365L299.709 43.8735Z" fill="#FFAD00" stroke="#350B00" stroke-width="0.5"/>
<path d="M312.522 56.9472C312.324 59.0709 312.113 60.9703 311.941 62.3883C311.756 63.9118 310.688 65.1913 309.217 65.6398L295.11 69.94C294.351 70.1708 293.52 70.0257 292.881 69.5508L290.5 67.7701C290.5 67.7701 290.473 67.7503 290.46 67.7437C289.972 67.414 289.313 67.5129 288.943 67.9746L287.901 69.3068C287.769 69.4783 287.565 69.5838 287.347 69.5904C287.129 69.597 286.918 69.5113 286.767 69.353L285.078 67.5129C284.61 66.9985 284.419 66.3191 284.524 65.6728C284.577 65.3298 284.716 64.9935 284.933 64.7033L285.507 63.9316C286.424 62.7049 287.908 62.0322 289.431 62.1509L290.506 62.2366C290.79 62.2564 291.06 62.3553 291.298 62.5136L292.333 63.2193C292.914 63.6151 293.652 63.6942 294.305 63.437L302.391 60.2448C303.532 59.7964 304.304 58.7279 304.376 57.5078L304.442 56.4261C306.559 57.699 310.292 58.2003 312.508 56.9604L312.522 56.9472Z" fill="white"/>
<path d="M295.361 35.4333C293.079 35.7301 290.54 34.3253 289.827 29.946C289.728 29.326 289.669 28.7192 289.656 28.1257C289.596 25.5535 290.315 23.2385 291.423 21.3984C292.116 22.4405 292.063 24.0234 293.277 24.0234C294.609 24.0234 295.822 22.0514 297.313 22.0514C300.848 22.0514 299.041 27.1825 301.29 27.1825C301.448 27.1825 301.956 27.0836 302.668 26.8132C302.345 28.218 302.187 29.57 302.114 30.7506C302.075 31.4167 302.411 32.0499 302.978 32.3994C303.123 32.4918 303.275 32.5775 303.427 32.6698C301.56 36.416 297.893 36.7194 295.367 35.4333H295.361Z" fill="white"/>
<path d="M297.943 17.052C301.96 17.5533 303.826 22.1436 302.745 26.4438C302.712 26.5691 302.685 26.6944 302.659 26.8197C301.947 27.0901 301.446 27.1891 301.281 27.1891C299.025 27.1891 300.839 22.0579 297.304 22.0579C295.813 22.0579 294.6 24.0299 293.267 24.0299C292.054 24.0299 292.107 22.447 291.414 21.405C293.149 18.5162 295.826 16.7948 297.937 17.0586L297.943 17.052Z" fill="#350B00"/>
<path d="M295.113 69.94L302.11 67.8097C300.033 70.2038 296.781 72.8354 293.22 75.4273L290.463 67.7438C290.463 67.7438 290.489 67.7636 290.502 67.7702L292.883 69.5509C293.523 70.0324 294.348 70.1775 295.113 69.94Z" fill="white"/>
<path d="M297.233 86.6262L302.035 100.041C286.832 110.495 270.647 120.618 254.014 130.089L249.232 116.351C265.76 106.795 281.879 96.7962 297.227 86.6328L297.233 86.6262Z" fill="white"/>
<path d="M295.109 80.6904L297.232 86.6262C281.885 96.7962 265.766 106.788 249.238 116.345L247.174 110.409C249.291 109.176 263.9 100.47 268.971 97.3436C278.04 91.764 286.799 86.1777 295.109 80.6904Z" fill="#E59636"/>
<path d="M293.222 75.4208L295.108 80.6904C286.798 86.1778 278.039 91.764 268.971 97.3436C270.514 93.9075 271.886 91.1902 274.016 88.7499C275.836 86.6592 285.314 81.1521 293.222 75.4208Z" fill="#350B00"/>
<path d="M265.864 78.4941C265.739 74.6556 265.409 71.0941 264.677 69.2606C264.545 68.9375 264.407 68.6275 264.262 68.3373C267.685 64.3339 274.735 60.5746 276.199 59.2225C277.571 62.263 280.921 64.3735 284.536 65.6662C284.43 66.3125 284.621 66.9984 285.09 67.5063L286.778 69.3464C286.923 69.5046 287.134 69.597 287.358 69.5838C287.576 69.5772 287.781 69.4717 287.912 69.3002L288.955 67.9679C289.324 67.4997 289.983 67.4007 290.471 67.7371L293.228 75.4207C285.321 81.1586 275.843 86.6591 274.023 88.7498C271.892 91.1901 270.521 93.9074 268.977 97.3435C263.905 100.47 258.735 103.589 253.498 106.689L257.257 95.8068L259.935 95.0352C263.378 94.0393 265.779 90.9263 265.871 87.345C265.91 85.7885 265.937 84.0473 265.937 82.2534C265.937 81.0003 265.917 79.7274 265.877 78.4875L265.864 78.4941Z" fill="white"/>
<path d="M286.72 207.908L274.328 200.752C272.29 194.295 270.417 188.247 268.24 181.249C267.614 179.231 267.528 177.305 268.022 175.868C268.207 175.32 268.431 174.779 268.689 174.232C268.966 173.625 269.638 173.572 270.324 174.1C270.951 174.582 271.538 175.056 272.098 175.538C273.563 176.817 274.835 178.651 275.653 180.649C279.624 190.351 282.842 198.193 286.72 207.908Z" fill="#350B00"/>
<path d="M279.14 48.5316C278.52 51.084 277.939 53.5507 277.458 55.4567C271.727 58.2399 265.896 61.1419 260.013 64.1362C258.252 63.1205 256.076 62.2367 253.418 61.043C257.454 59.005 261.517 57 265.586 55.0148C266.384 55.6546 267.486 55.9909 268.528 55.9909C269.854 55.9909 270.473 55.1006 270.75 54.4806C270.929 54.0717 271.245 53.7419 271.634 53.5375L272.868 52.8911C273.422 52.6009 273.652 51.9216 273.389 51.3544L273.349 51.2687C275.275 50.3519 277.201 49.4352 279.133 48.5316H279.14Z" fill="white"/>
<path d="M277.525 44.6799L276.345 45.3263L273.067 49.2769C272.816 49.5737 272.764 49.9958 272.928 50.3453L273.397 51.3478C273.661 51.915 273.43 52.5943 272.876 52.8845L271.642 53.5309C271.247 53.7353 270.937 54.0717 270.759 54.474C270.488 55.094 269.862 55.9843 268.536 55.9843C267.494 55.9843 266.392 55.648 265.594 55.0082C265.225 54.718 264.915 54.3553 264.711 53.9332C264.493 53.4979 264.381 52.9966 264.414 52.4294C264.526 50.4442 265.74 49.1713 268.266 48.835C268.483 42.5364 270.613 40.914 272.711 40.5117C273.153 40.0038 273.588 39.4894 274.017 38.9882C273.898 41.6725 274.828 44.5019 277.532 44.6733L277.525 44.6799Z" fill="white"/>
<path d="M277.461 55.4567C276.999 57.2902 276.637 58.6026 276.419 58.9654C276.379 59.0379 276.3 59.1237 276.188 59.2226C274.724 60.5746 267.674 64.334 264.251 68.3373C263.274 66.4379 261.883 65.2112 260.01 64.1361C265.893 61.1418 271.723 58.2399 277.454 55.4567H277.461Z" fill="#350B00"/>
<path d="M265.924 82.2601C265.924 84.0474 265.898 85.7886 265.858 87.3517C265.766 90.9329 263.365 94.0459 259.922 95.0418L247.338 98.6824C246.732 98.8605 246.072 98.7682 245.531 98.4384L243.447 97.1589C243.302 97.0666 243.144 97.0006 242.986 96.9611C242.372 96.7896 241.693 96.9545 241.225 97.4227L240.288 98.3593C240.077 98.5703 239.78 98.6692 239.483 98.6363C239.187 98.5967 238.923 98.4252 238.771 98.1614L237.571 96.1037C237.03 95.1803 237.149 94.0327 237.821 93.2281C237.894 93.1424 237.973 93.0632 238.059 92.9841C239.041 92.1003 240.644 91.3089 243.078 91.7969C244.812 92.1399 245.729 92.5422 246.197 92.9049C246.837 93.4062 247.701 93.5051 248.44 93.1753L255.827 89.8447C257.627 89.0335 258.729 87.1934 258.583 85.2214L258.425 82.9987C260.575 82.9394 263.424 82.6624 265.917 82.2667L265.924 82.2601Z" fill="white"/>
<path d="M258.102 78.316C254.547 81.1125 251.883 86.303 250.966 92.0277L248.447 93.1621C247.708 93.4985 246.844 93.393 246.204 92.8917C245.736 92.529 244.819 92.1267 243.085 91.7837C240.651 91.2956 239.048 92.0937 238.066 92.9709C237.98 93.05 237.901 93.1291 237.828 93.2149C233.68 91.2627 232.295 87.8397 231.793 84.0474C233.396 82.6426 234.544 80.7431 235.019 78.593C235.124 78.1182 235.21 77.6235 235.282 77.1025C235.421 76.1198 235.487 75.0514 235.487 73.8972C235.487 73.6334 235.487 73.3761 235.487 73.1057C235.487 72.0703 235.52 71.0876 235.639 70.1708C235.79 68.9837 236.1 67.9152 236.687 67.0051L231.688 67.902C230.514 66.6159 229.775 63.0545 230.732 61.1418C235.104 60.2251 239.226 60.014 242.491 59.3875C243.052 60.0866 243.85 60.4625 245.037 60.357C245.314 60.3372 245.591 60.2778 245.868 60.1987C246.105 61.0759 246.323 61.953 246.541 62.8302C248.15 64.3208 252.457 63.2523 252.602 61.432C252.872 61.2935 253.143 61.1616 253.42 61.0231C256.071 62.2168 258.254 63.1006 260.015 64.1163C261.888 65.1913 263.28 66.4181 264.256 68.3175C264.401 68.6077 264.546 68.9177 264.671 69.2409C265.403 71.0744 265.74 74.6424 265.858 78.4743C265.898 79.7143 265.918 80.9872 265.918 82.2403C263.431 82.636 260.575 82.913 258.425 82.9723L258.089 78.2963L258.102 78.316Z" fill="#E59636"/>
<path d="M254.986 74.0888C254.791 74.618 254.479 74.9077 254.049 74.9568C253.62 75.0059 253.108 74.8091 252.512 74.3675L252.14 74.0915L251.562 75.6647L250.235 74.6805L251.979 69.9393L253.677 71.1996C254.296 71.6594 254.713 72.1355 254.929 72.6282C255.143 73.1205 255.163 73.6075 254.986 74.09L254.986 74.0888ZM252.524 73.0463L252.767 73.2251C252.966 73.3724 253.144 73.4363 253.301 73.4153C253.458 73.3942 253.572 73.2885 253.642 73.0981C253.759 72.7784 253.635 72.4819 253.267 72.2094L252.925 71.9556L252.525 73.0451L252.524 73.0463Z" fill="white" stroke="#350B00" stroke-width="0.5"/>
<path d="M253.709 69.8735L252.518 68.9021L252.85 68L256.421 70.8344L256.089 71.7365L253.709 69.8735Z" fill="white" stroke="#350B00" stroke-width="0.5"/>
<path d="M264.704 53.9398C264.915 54.3619 265.219 54.7181 265.588 55.0149C261.519 57.0001 257.456 59.005 253.42 61.043C253.077 60.8913 252.727 60.7264 252.364 60.5615C252.272 60.2384 252.173 59.8954 252.074 59.5327C252.549 59.691 253.037 59.7437 253.512 59.6975C255.471 59.5261 257.278 57.8311 257.12 55.7865L264.691 53.9332L264.704 53.9398Z" fill="white"/>
<path d="M258.597 85.2148C258.742 87.1802 257.634 89.0269 255.84 89.8381L250.973 92.0344C251.889 86.3096 254.554 81.1125 258.109 78.3227L258.603 85.2214L258.597 85.2148Z" fill="#350B00"/>
<path d="M257.252 95.8135L253.493 106.696C251.395 107.936 249.292 109.176 247.174 110.409L245.559 105.766C247.86 104.005 249.931 101.512 250.485 97.7657L257.252 95.8069V95.8135Z" fill="#350B00"/>
<path d="M257.131 55.7931C257.289 57.8376 255.482 59.5326 253.523 59.7041C253.042 59.7437 252.554 59.6975 252.086 59.5392C251.954 59.0578 251.815 58.5433 251.67 58.0289C251.439 57.2243 251.571 56.3537 252.026 55.648C252.435 55.0148 252.686 54.4476 252.824 54.0783C252.89 53.9134 252.857 53.7287 252.758 53.5902C252.653 53.4517 252.488 53.3726 252.31 53.3858H252.297C245.781 53.92 247.924 46.619 242.252 47.107C241.922 47.1334 241.579 47.206 241.236 47.3049C241.962 44.4887 243.927 42.6816 247.528 42.365C252.58 41.9297 255.001 45.1482 255.377 49.5539C255.482 50.7345 255.265 51.7897 254.836 52.8384C255.904 53.2935 256.973 54.0255 257.124 55.7601C257.124 55.7733 257.124 55.7799 257.124 55.7931H257.131Z" fill="#350B00"/>
<path d="M249.239 116.345L254.02 130.083C235.797 140.457 217.027 150.034 198.402 158.364L194.049 145.846C212.608 136.751 231.167 126.812 249.245 116.351L249.239 116.345Z" fill="white"/>
<path d="M252.371 60.5614C252.727 60.7263 253.084 60.8912 253.427 61.0429C253.156 61.1748 252.879 61.3133 252.609 61.4518C252.629 61.1682 252.556 60.8648 252.352 60.5548H252.371V60.5614Z" fill="white"/>
<path d="M252.082 59.5325C252.18 59.8887 252.273 60.2316 252.372 60.5614H252.352C252.556 60.8648 252.629 61.1616 252.609 61.4518C252.464 63.2721 248.151 64.3405 246.548 62.85C246.33 61.9728 246.113 61.0956 245.875 60.2184C245.605 60.2976 245.328 60.3569 245.044 60.3767C243.857 60.4823 243.059 60.1063 242.499 59.4072C241.272 57.8639 241.245 54.7443 240.975 51.6445C240.837 50.0287 240.909 48.5711 241.232 47.3114C241.575 47.2059 241.918 47.1399 242.248 47.1135C247.92 46.6255 245.776 53.9265 252.293 53.3923H252.306C252.484 53.3725 252.655 53.4516 252.754 53.5901C252.86 53.7286 252.886 53.9133 252.82 54.0782C252.675 54.4409 252.425 55.0147 252.022 55.6479C251.567 56.3536 251.435 57.2176 251.666 58.0288C251.811 58.5432 251.95 59.0511 252.082 59.5391V59.5325Z" fill="white"/>
<path d="M247.344 98.6758L250.484 97.7656C249.93 101.512 247.865 104.005 245.557 105.766L242.754 97.7063L242.991 96.9544C243.15 96.994 243.301 97.0599 243.453 97.1523L245.537 98.4318C246.078 98.7615 246.731 98.8473 247.344 98.6758Z" fill="white"/>
<path d="M247.173 110.409L249.237 116.345C231.159 126.805 212.6 136.751 194.041 145.839L192.135 140.358C195.261 138.789 217.316 127.207 221.161 125.11C229.906 120.328 238.612 115.402 247.173 110.409Z" fill="#E59636"/>
<path d="M245.558 105.766L247.174 110.409C238.62 115.402 229.908 120.328 221.162 125.11C222.969 120.229 223.444 115.863 223.444 115.863C223.444 115.863 235.955 111.101 239.227 109.347C240.737 108.536 243.263 107.514 245.558 105.759V105.766Z" fill="#350B00"/>
<path d="M242.758 97.7063L245.561 105.766C243.266 107.514 240.74 108.542 239.229 109.354C235.958 111.108 223.447 115.87 223.447 115.87C224.726 110.989 222.022 107.988 218.091 106.148C216.317 105.317 214.299 104.724 212.287 104.295C212.215 103.695 212.129 103.147 212.03 102.673C211.885 102.013 211.681 101.34 211.41 100.674C218.889 90.5306 223.117 87.5561 227.793 86.2436C229.303 85.8215 230.662 85.0696 231.796 84.0605C232.298 87.8595 233.683 91.2758 237.831 93.2281C237.152 94.0261 237.04 95.1803 237.58 96.1036L238.781 98.1614C238.932 98.4186 239.196 98.5966 239.493 98.6362C239.79 98.6758 240.087 98.5703 240.298 98.3592L241.234 97.4227C241.702 96.9544 242.382 96.7895 242.995 96.961L242.758 97.7129V97.7063Z" fill="white"/>
<path d="M235.644 70.1841C235.518 71.1008 235.492 72.0835 235.492 73.119C235.492 73.3828 235.492 73.6466 235.492 73.9104C235.492 75.0646 235.426 76.1265 235.288 77.1158C225.454 82.4316 215.62 87.9321 205.978 93.5183C204.243 92.0938 202.192 90.8538 199.857 89.9305C203.716 87.7013 207.607 85.4786 211.544 83.2758L217.058 81.9304C217.131 82.3722 217.355 82.7812 217.698 83.0779C218.126 83.4539 218.687 83.6188 219.248 83.5462C221.688 83.223 225.276 82.4118 225.276 80.453C225.276 78.8372 225.019 77.6236 224.313 76.9179C224.55 76.5684 224.775 76.2188 224.979 75.8758C228.508 73.9632 232.069 72.0638 235.644 70.1841Z" fill="white"/>
<path d="M235.287 77.1157C235.221 77.6368 235.129 78.1314 235.024 78.6063C234.542 80.7563 233.395 82.6558 231.798 84.0606C230.664 85.0631 229.305 85.815 227.795 86.2437C223.119 87.5561 218.885 90.5372 211.412 100.674C210.41 98.168 208.557 95.642 205.984 93.5249C215.627 87.9321 225.46 82.4316 235.294 77.1223L235.287 77.1157Z" fill="#350B00"/>
<path d="M231.998 239.156L219.605 232C217.567 225.544 215.694 219.496 213.517 212.491C212.891 210.48 212.805 208.547 213.3 207.11C213.484 206.562 213.709 206.028 213.966 205.474C214.243 204.867 214.916 204.814 215.602 205.342C216.228 205.824 216.815 206.298 217.376 206.78C218.846 208.053 220.113 209.893 220.931 211.891C224.901 221.593 228.113 229.435 231.998 239.15V239.156Z" fill="#350B00"/>
<path d="M231.696 67.9218L229.045 68.3967C228.379 68.5154 227.838 69.0101 227.66 69.663C227.304 70.9821 226.512 73.3564 224.982 75.8824C224.58 76.1 224.178 76.3177 223.782 76.5353C223.215 76.2385 222.456 76.1396 221.467 76.2649C221.045 76.3177 220.656 76.41 220.286 76.5155C220.253 76.5221 220.227 76.5353 220.194 76.5485C220.155 72.4066 221.711 68.9507 223.004 66.794C223.538 65.9102 224.224 64.6374 225.048 63.6349C225.615 62.9424 226.249 62.3686 226.935 62.1575C228.221 61.7552 229.494 61.432 230.753 61.1748C229.797 63.0874 230.536 66.6423 231.71 67.935L231.696 67.9218Z" fill="white"/>
<path d="M223.773 76.5288C224.169 76.3111 224.571 76.0935 224.974 75.8759C224.763 76.2188 224.545 76.5684 224.308 76.9179C224.156 76.7596 223.978 76.6343 223.773 76.5288Z" fill="white"/>
<path d="M224.309 76.9178C225.015 77.6301 225.272 78.8371 225.272 80.4529C225.272 82.4118 221.691 83.223 219.244 83.5461C218.684 83.6253 218.116 83.4538 217.694 83.0779C217.351 82.7811 217.14 82.3722 217.054 81.9303C217.035 81.8248 217.021 81.7126 217.021 81.6005V80.908C217.021 80.664 217.041 80.4266 217.081 80.1891C217.345 78.5007 218.538 77.1091 220.181 76.5419C220.214 76.5287 220.247 76.5221 220.273 76.5089C220.636 76.4034 221.025 76.3111 221.454 76.2583C222.449 76.133 223.201 76.2319 223.769 76.5287C223.973 76.6342 224.144 76.7662 224.303 76.9178H224.309Z" fill="white"/>
<path d="M218.087 106.142C222.018 107.988 224.722 110.989 223.442 115.863C223.442 115.863 222.961 120.229 221.16 125.11C217.322 127.207 213.47 129.285 209.625 131.323C210.232 129.298 210.865 126.91 211.538 124.398C211.854 123.725 212.059 122.993 212.125 122.228C213.846 115.883 215.805 109.248 218.093 106.142H218.087Z" fill="white"/>
<path d="M217.061 81.9303L211.547 83.2758C213.387 82.2403 215.234 81.2114 217.087 80.1891C217.047 80.4266 217.028 80.664 217.028 80.908V81.6005C217.028 81.7127 217.034 81.8182 217.061 81.9303Z" fill="white"/>
<path d="M218.09 106.142C215.801 109.248 213.842 115.883 212.121 122.228C212.121 122.182 212.128 122.129 212.134 122.083C212.451 116.978 212.833 108.971 212.279 104.288C214.298 104.717 216.316 105.311 218.083 106.142H218.09Z" fill="white"/>
<path d="M194.103 123.626L193.609 123.778C193.147 123.923 192.646 123.896 192.204 123.698L188.853 122.208C187.956 121.812 186.908 121.984 186.195 122.656L185.635 123.184C186.499 117.98 188.979 104.546 192.362 99.3288L196.069 95.1407C198.449 94.6131 200.718 92.3971 199.867 89.9238C202.202 90.8472 204.253 92.0871 205.988 93.5117C208.56 95.6288 210.42 98.1548 211.416 100.661C211.686 101.327 211.891 102 212.036 102.659C212.141 103.141 212.221 103.682 212.293 104.282C212.847 108.958 212.458 116.971 212.148 122.076C212.148 122.122 212.148 122.175 212.135 122.221C211.937 122.947 211.739 123.672 211.548 124.384C210.73 126.119 209.16 127.431 207.215 127.887L194.505 130.828C194.163 130.907 193.813 130.92 193.477 130.868C194.189 129.258 194.281 126.772 194.281 125.308C194.281 124.701 194.215 124.14 194.11 123.619L194.103 123.626ZM198.298 122.3L201.8 121.199C203.225 120.75 204.201 119.445 204.24 117.961L204.471 109.525C202.156 112.209 199.643 116.523 198.298 122.307V122.3Z" fill="white"/>
<path d="M199.986 105.768C199.791 106.297 199.479 106.587 199.049 106.636C198.62 106.685 198.108 106.488 197.512 106.046L197.14 105.77L196.562 107.344L195.235 106.359L196.979 101.618L198.677 102.879C199.296 103.338 199.713 103.814 199.929 104.307C200.143 104.799 200.163 105.286 199.986 105.769L199.986 105.768ZM197.524 104.725L197.767 104.904C197.966 105.051 198.144 105.115 198.301 105.094C198.458 105.073 198.572 104.967 198.642 104.777C198.759 104.457 198.635 104.161 198.267 103.888L197.925 103.635L197.525 104.724L197.524 104.725Z" fill="#FFAD00" stroke="#350B00" stroke-width="0.5"/>
<path d="M198.709 101.552L197.518 100.581L197.85 99.679L201.421 102.513L201.089 103.415L198.709 101.552Z" fill="#FFAD00" stroke="#350B00" stroke-width="0.5"/>
<path d="M211.539 124.391C211.73 123.679 211.922 122.953 212.126 122.228C212.06 122.993 211.856 123.725 211.539 124.391Z" fill="white"/>
<path d="M200.564 86.0062C200.564 86.0062 200.597 85.9666 200.61 85.9468L211.545 83.2823C207.614 85.4851 203.716 87.7077 199.858 89.937C199.535 89.1257 199.377 88.3409 199.1 87.5033C199.64 87.0878 200.135 86.58 200.564 86.0062Z" fill="white"/>
<path d="M207.204 127.893C209.149 127.438 210.719 126.126 211.537 124.398C210.864 126.91 210.224 129.305 209.624 131.323C206.933 132.754 204.236 134.165 201.545 135.557C201.954 133.756 202.435 131.435 202.97 128.876L207.204 127.893Z" fill="white"/>
<path d="M204.468 109.525L204.237 117.961C204.198 119.451 203.215 120.75 201.797 121.199L198.295 122.3C199.64 116.516 202.153 112.203 204.468 109.519V109.525Z" fill="#350B00"/>
<path d="M202.971 128.876C202.437 131.441 201.949 133.756 201.547 135.557C198.401 137.186 195.268 138.789 192.135 140.365L190.434 135.478C192.735 133.928 194.641 132.266 195.67 130.571L202.971 128.876Z" fill="#350B00"/>
<path d="M200.609 85.9468C200.609 85.9468 200.583 85.993 200.563 86.0062C200.662 85.5973 200.702 85.195 200.642 84.8322C200.504 84.0012 199.904 83.2757 198.974 83.4274C198.301 83.5395 197.589 84.0737 197.14 84.8058C196.652 84.2848 196.217 83.6582 196.105 82.9723C195.894 81.6862 197.107 80.8552 196.955 79.9187C196.81 79.0151 195.557 78.7645 194.337 78.8305C193.328 79.0217 192.207 79.3845 191.092 79.5691C190.195 79.7142 188.955 79.7802 188.25 79.3449C187.966 79.1734 187.768 78.9162 187.709 78.56C187.346 76.3506 190.466 75.1437 192.055 74.1544C192.899 73.7916 193.73 73.541 194.396 73.4289C197.153 72.9804 199.969 73.7652 200.517 76.687C201.533 77.4916 202.093 78.593 202.291 79.7934C202.627 81.8313 201.922 84.1793 200.616 85.9402L200.609 85.9468Z" fill="#350B00"/>
<path d="M200.643 84.8257C200.702 85.1884 200.662 85.5973 200.563 85.9996C200.135 86.5734 199.64 87.0813 199.099 87.4968C199.376 88.3344 199.535 89.1192 199.858 89.9304C200.708 92.4037 198.44 94.6197 196.059 95.1474C195.208 95.3386 194.344 95.3122 193.599 95.0023C193.539 94.7714 193.473 94.5472 193.407 94.3229C193.322 94.0459 193.223 93.7623 193.124 93.4853C193.058 93.5051 192.992 93.5117 192.926 93.5249C190.156 93.9932 188.712 91.0187 188.052 88.1629C187.966 87.7672 187.887 87.3715 187.821 86.9889C187.406 84.4431 187.531 81.8512 188.237 79.3384C188.949 79.7736 190.182 79.7077 191.079 79.5626C192.187 79.3779 193.315 79.0218 194.324 78.8239C195.544 78.758 196.791 79.0086 196.943 79.9121C197.094 80.8487 195.881 81.6797 196.092 82.9658C196.204 83.6517 196.633 84.2783 197.127 84.7993C197.582 84.0672 198.288 83.533 198.961 83.4209C199.891 83.2692 200.497 83.9947 200.629 84.8257H200.643Z" fill="white"/>
<path d="M196.06 95.1474L192.353 99.3354L190.678 98.4978L193.408 94.3229C193.474 94.5538 193.54 94.778 193.599 95.0023C194.338 95.3122 195.209 95.3386 196.06 95.1474Z" fill="#E59636"/>
<path d="M194.495 130.835L195.669 130.564C194.646 132.266 192.74 133.921 190.432 135.471L188.242 129.173C189.027 128.685 190.049 128.718 190.808 129.291L192.232 130.36C192.595 130.63 193.024 130.808 193.466 130.874C193.802 130.927 194.152 130.914 194.495 130.835Z" fill="#350B00"/>
<path d="M188.242 129.179C188.137 129.245 188.031 129.318 187.932 129.404L186.877 130.327C186.758 130.432 186.593 130.472 186.442 130.446C186.283 130.419 186.152 130.32 186.072 130.175L184.259 126.772C184.008 126.304 183.942 125.783 184.028 125.288C184.028 125.268 184.028 125.255 184.034 125.242C184.127 124.793 184.358 124.371 184.707 124.042L185.624 123.184L186.184 122.657C186.897 121.984 187.945 121.806 188.842 122.208L192.193 123.699C192.635 123.896 193.136 123.929 193.598 123.778L194.092 123.626C194.198 124.147 194.264 124.708 194.264 125.314C194.264 126.779 194.171 129.272 193.459 130.874C193.017 130.808 192.589 130.63 192.226 130.36L190.801 129.291C190.043 128.718 189.02 128.691 188.236 129.173L188.242 129.179Z" fill="white"/>
<path d="M193.409 94.3229L190.679 98.4978C187.018 102.112 180.06 112.229 177.026 120.473C176.288 119.418 175.747 118.264 175.279 117.057C175.417 116.978 175.49 116.938 175.49 116.938L180.825 96.9083C180.858 96.7962 180.825 96.6709 180.759 96.572C180.687 96.4796 180.575 96.4334 180.456 96.4334H174.896C174.375 96.4334 173.88 96.6577 173.518 97.0336C173.162 97.4096 172.964 97.9174 172.983 98.4384C172.983 98.4384 173.366 108.846 173.359 108.984C171.387 108.226 168.716 107.547 166.889 107.547C166.639 107.547 166.408 107.553 166.197 107.566L165.9 95.985C165.887 95.431 165.953 94.8835 166.085 94.3691C166.639 92.2454 168.373 90.5702 170.622 90.1547C175.094 89.3369 181.947 88.275 188.054 88.1563C188.713 91.0187 190.158 93.9866 192.928 93.5183C192.994 93.5051 193.06 93.4985 193.126 93.4787C193.225 93.7557 193.317 94.0328 193.409 94.3164V94.3229Z" fill="white"/>
<path d="M177.026 120.473C180.053 112.229 187.018 102.119 190.678 98.4978L192.354 99.3354C188.97 104.552 186.49 117.98 185.626 123.191L184.71 124.048C184.36 124.378 184.129 124.8 184.037 125.248L178.141 125.024L177.02 120.48L177.026 120.473Z" fill="#E59636"/>
<path d="M190.44 135.478L192.141 140.365C183.765 144.579 175.462 148.589 167.35 152.322C169.796 147.323 169.81 146.334 171.854 144.87C173.543 143.669 183.706 140.022 190.446 135.484L190.44 135.478Z" fill="#350B00"/>
<path d="M149.925 160.006C146.338 161.523 142.796 162.967 139.327 164.339C137.863 164.919 136.267 165.328 134.631 165.572C137.994 158.172 146.687 139.574 151.7 133.69C157.602 126.765 173.273 118.145 175.278 117.057C175.746 118.264 176.287 119.418 177.026 120.473L178.147 125.018L183.872 125.235C183.924 125.255 183.984 125.275 184.036 125.288C183.944 125.783 184.017 126.304 184.267 126.772L186.081 130.175C186.154 130.32 186.292 130.413 186.45 130.446C186.609 130.472 186.767 130.432 186.886 130.327L187.941 129.404C188.04 129.318 188.139 129.245 188.251 129.179L190.441 135.478C183.7 140.015 173.537 143.663 171.848 144.863C169.804 146.327 169.791 147.323 167.344 152.316C161.428 155.033 155.611 157.605 149.925 160.006Z" fill="white"/>
<path d="M184.042 125.242C184.042 125.242 184.042 125.275 184.035 125.288C183.983 125.268 183.924 125.248 183.871 125.235H184.042V125.242Z" fill="white"/>
<path d="M183.305 73.8181C183.562 74.2006 183.707 74.6425 183.674 75.025C183.634 75.5593 183.582 76.0473 183.509 76.509C183.311 77.7159 182.632 78.5667 181.629 78.9031C178.503 79.9451 174.553 81.317 170.543 82.6756L156.666 74.6623C163.466 73.5609 171.776 71.6548 177.718 70.9623C178.826 70.837 180.126 71.2525 181.359 72.1429C181.827 72.4858 182.309 72.8552 182.816 73.2707C183.008 73.429 183.173 73.6136 183.311 73.8181H183.305Z" fill="#350B00"/>
<path d="M179.44 102.119L177.105 110.904C175.087 112.17 173.088 113.43 171.11 114.696L171.037 114.577C171.479 114.294 171.835 113.891 172.059 113.403L172.686 112.038C173.121 111.082 173.359 110.04 173.372 108.991C173.372 108.852 173.372 108.721 173.372 108.582L173.273 105.957C175.317 104.678 177.375 103.398 179.446 102.119H179.44Z" fill="white"/>
<path d="M175.279 117.057C173.274 118.152 157.604 126.765 151.701 133.69C146.688 139.573 137.996 158.172 134.632 165.572C129.626 166.324 124.152 165.533 120.32 163.317C115.235 160.382 114.483 155.765 118.546 152.342C132.39 140.662 150.652 127.741 171.111 114.689C173.089 113.423 175.088 112.163 177.106 110.897L175.497 116.938C175.497 116.938 175.424 116.978 175.286 117.057H175.279Z" fill="#350B00"/>
<path d="M173.364 108.984C173.344 110.033 173.114 111.068 172.678 112.031L172.052 113.397C171.828 113.885 171.471 114.294 171.03 114.571C170.766 114.735 170.476 114.867 170.159 114.94L166.736 115.731C166.195 115.857 165.628 115.758 165.153 115.461C164.685 115.164 164.348 114.689 164.236 114.148L163.847 112.388C163.814 112.242 163.808 112.097 163.821 111.959C163.874 111.451 164.21 110.996 164.711 110.818C165.641 110.481 166.248 109.585 166.222 108.602L166.195 107.56C166.413 107.547 166.637 107.54 166.888 107.54C168.715 107.54 171.386 108.219 173.358 108.978L173.364 108.984Z" fill="white"/>
<path d="M163.848 112.394L163.993 113.047L161.078 113.759C161.988 113.159 162.905 112.566 163.828 111.965C163.815 112.104 163.828 112.249 163.855 112.394H163.848Z" fill="white"/>
<path d="M134.222 102.152C134.479 102.541 134.617 102.976 134.591 103.359C134.552 103.886 134.499 104.381 134.426 104.842C134.228 106.049 133.549 106.9 132.547 107.237C129.427 108.279 125.47 109.65 121.46 111.009L107.59 103.002C114.39 101.901 122.7 99.9883 128.642 99.3024C129.75 99.1771 131.056 99.5926 132.283 100.483C132.751 100.819 133.232 101.202 133.734 101.611C133.925 101.762 134.09 101.954 134.228 102.152H134.222Z" fill="#350B00"/>
<path d="M79.7179 133.624C79.9751 134.014 80.1136 134.449 80.0872 134.831C80.0476 135.366 79.9949 135.854 79.9223 136.315C79.7245 137.522 79.0451 138.373 78.0427 138.709C74.9231 139.752 70.9659 141.123 66.9559 142.482L53.0859 134.475C59.8857 133.374 68.1958 131.461 74.1382 130.775C75.2462 130.65 76.5521 131.065 77.7788 131.956C78.2471 132.299 78.7286 132.668 79.2298 133.084C79.4211 133.242 79.586 133.427 79.7245 133.631L79.7179 133.624Z" fill="#350B00"/>
<path d="M205.977 93.5184C215.619 87.9255 225.453 82.425 235.286 77.1158" stroke="#350B00" stroke-width="1.9786" stroke-linecap="round" stroke-linejoin="round"/>
<path d="M260.012 64.1362C265.895 61.142 271.725 58.24 277.456 55.4568" stroke="#350B00" stroke-width="1.9786" stroke-linecap="round" stroke-linejoin="round"/>
<path d="M312.082 39.8786C318.275 38.2957 325.688 39.0146 330.654 41.8835C336.538 45.2867 337.184 50.6619 332.185 54.5004C321.553 62.6588 308.962 71.5427 295.106 80.6905C286.796 86.1778 278.03 91.764 268.968 97.3437C263.897 100.47 249.288 109.169 247.171 110.409C238.617 115.402 229.904 120.328 221.159 125.11C217.32 127.207 195.259 138.789 192.133 140.358C183.757 144.573 175.453 148.583 167.341 152.316C161.425 155.033 155.608 157.605 149.923 160.006C146.335 161.523 142.793 162.967 139.324 164.339C137.86 164.919 136.264 165.328 134.628 165.572C129.622 166.318 124.148 165.533 120.316 163.317C115.231 160.382 114.479 155.765 118.542 152.342C132.386 140.662 150.648 127.748 171.107 114.689C173.086 113.423 175.084 112.163 177.102 110.897" stroke="#350B00" stroke-width="1.9786" stroke-linecap="round" stroke-linejoin="round"/>
<path d="M348.562 49.9035L349.67 30.8958L317.215 31.5355" stroke="#350B00" stroke-width="1.9786" stroke-linecap="round" stroke-linejoin="round"/>
<path d="M102.385 157.803L101.422 174.225L129.874 173.671" stroke="#350B00" stroke-width="1.9786" stroke-linecap="round" stroke-linejoin="round"/>
<path d="M74.6172 190.49C108.365 191.584 152.95 178.691 198.392 158.37C217.017 150.04 235.787 140.464 254.01 130.09C270.644 120.625 286.828 110.495 302.031 100.041C350.374 66.814 388.852 30.3814 400.651 1.77747" stroke="#350B00" stroke-width="1.9786" stroke-linecap="round" stroke-linejoin="round"/>
<path d="M252.605 61.4452C252.876 61.3067 261.522 56.9934 265.592 55.0148" stroke="#350B00" stroke-width="1.9786" stroke-linecap="round" stroke-linejoin="round"/>
<path d="M273.354 51.2687C275.279 50.3519 277.205 49.4352 279.138 48.5316" stroke="#350B00" stroke-width="1.9786" stroke-linecap="round" stroke-linejoin="round"/>
<path d="M308.041 35.4597C311.101 34.1274 314.161 32.8215 317.215 31.5355C343.609 20.3959 369.496 10.8129 393.424 3.51191L400.118 1.46736C400.27 1.42119 400.461 1.43438 400.58 1.50693C400.705 1.57948 400.731 1.68501 400.652 1.77734L397.11 5.6422C384.461 19.4594 367.873 34.3978 348.575 49.6396C333.01 61.9333 315.678 74.4051 297.231 86.6328C281.883 96.8028 265.758 106.795 249.237 116.351C231.159 126.812 212.6 136.757 194.04 145.846C172.394 156.451 150.749 165.909 129.874 173.671C111.975 180.333 94.6487 185.754 78.3714 189.599L74.6187 190.489C74.2296 190.582 73.7877 190.529 73.4909 190.358C73.4711 190.344 73.4513 190.331 73.4315 190.318C73.1875 190.146 73.1149 189.909 73.2666 189.705L74.8033 187.541C81.4646 178.143 90.8564 168.138 102.392 157.803C118.352 143.504 138.442 128.592 161.077 113.759C161.987 113.159 162.904 112.566 163.827 111.965" stroke="#350B00" stroke-width="1.9786" stroke-linecap="round" stroke-linejoin="round"/>
<path d="M219.601 232C217.563 225.544 215.69 219.496 213.514 212.492C212.887 210.48 212.801 208.548 213.296 207.11C213.481 206.562 213.705 206.028 213.962 205.474C214.239 204.867 214.912 204.815 215.598 205.342C216.224 205.824 216.811 206.299 217.372 206.78C218.843 208.053 220.109 209.893 220.927 211.891C224.897 221.593 228.109 229.435 231.994 239.15L219.601 231.994V232Z" stroke="#350B00" stroke-width="1.9786" stroke-linecap="round" stroke-linejoin="round"/>
<path d="M214.551 204.808L188.242 129.179" stroke="#350B00" stroke-width="1.9786" stroke-linecap="round" stroke-linejoin="round"/>
<path d="M79.7148 133.625L163.99 113.047" stroke="#350B00" stroke-width="1.9786" stroke-linecap="round" stroke-linejoin="round"/>
<path d="M53.0769 134.469L66.9469 142.476C70.9568 141.117 74.914 139.738 78.0336 138.703C79.0361 138.367 79.722 137.516 79.9133 136.309C79.9858 135.847 80.0386 135.359 80.0782 134.825C80.1046 134.449 79.9661 134.007 79.7088 133.618C79.5703 133.414 79.4055 133.229 79.2142 133.071C78.7129 132.655 78.2315 132.286 77.7632 131.943C76.5299 131.052 75.2306 130.637 74.1226 130.762C68.1802 131.448 59.8701 133.361 53.0703 134.462L53.0769 134.469Z" stroke="#350B00" stroke-width="1.9786" stroke-linecap="round" stroke-linejoin="round"/>
<path d="M235.642 70.1841C232.068 72.0638 224.173 76.3111 223.777 76.5288" stroke="#350B00" stroke-width="1.9786" stroke-linecap="round" stroke-linejoin="round"/>
<path d="M217.081 80.1891C215.221 81.2114 203.712 87.7012 199.854 89.9304C199.531 89.1192 199.373 88.3343 199.096 87.4967C199.637 87.0812 200.131 86.5734 200.56 85.9996C200.58 85.9798 200.593 85.96 200.606 85.9402C201.912 84.1793 202.618 81.8313 202.281 79.7934C202.083 78.5864 201.523 77.4916 200.507 76.687C199.953 73.7652 197.137 72.9804 194.387 73.4289C193.721 73.541 192.89 73.7916 192.045 74.1544C190.456 75.1437 187.336 76.344 187.699 78.56C187.758 78.9162 187.956 79.1734 188.24 79.3449C188.952 79.7736 190.185 79.7142 191.082 79.5691C192.19 79.3845 193.318 79.0283 194.327 78.8305C195.547 78.7645 196.794 79.0151 196.946 79.9187C197.097 80.8552 195.884 81.6862 196.095 82.9723C196.207 83.6582 196.636 84.2848 197.13 84.8058C197.585 84.0737 198.291 83.5395 198.964 83.4274C199.894 83.2757 200.501 84.0012 200.632 84.8322C200.692 85.195 200.652 85.6039 200.553 86.0062" stroke="#350B00" stroke-width="1.9786" stroke-linecap="round" stroke-linejoin="round"/>
<path d="M173.266 105.951C175.31 104.671 177.368 103.392 179.439 102.112" stroke="#350B00" stroke-width="1.9786" stroke-linecap="round" stroke-linejoin="round"/>
<path d="M188.058 88.1629C181.951 88.2816 175.098 89.3369 170.627 90.1613C168.371 90.5768 166.643 92.252 166.089 94.3757C165.957 94.8901 165.891 95.4375 165.904 95.9916L166.228 108.615C166.247 109.598 165.641 110.495 164.717 110.831C164.216 111.016 163.88 111.464 163.827 111.972C163.814 112.111 163.827 112.256 163.853 112.401L164.242 114.162C164.361 114.703 164.691 115.177 165.159 115.474C165.627 115.771 166.201 115.87 166.742 115.745L170.165 114.953C170.475 114.881 170.772 114.755 171.036 114.584C171.477 114.3 171.834 113.898 172.058 113.41L172.684 112.045C173.12 111.088 173.357 110.046 173.37 108.998C173.37 108.859 173.37 108.727 173.37 108.589L172.994 98.4516C172.975 97.9306 173.166 97.4227 173.529 97.0468C173.891 96.6709 174.386 96.4532 174.907 96.4466H180.467C180.586 96.4466 180.698 96.4928 180.77 96.5851C180.843 96.6775 180.869 96.8028 180.836 96.9215L175.501 116.952C175.501 116.952 175.428 116.991 175.29 117.07C173.285 118.165 157.614 126.779 151.711 133.704C146.699 139.587 138.006 158.185 134.643 165.585" stroke="#350B00" stroke-width="1.9786" stroke-linecap="round" stroke-linejoin="round"/>
<path d="M149.922 160.006C154.314 150.772 156.774 143.056 160.798 139.033C165.289 134.541 173.546 128.711 173.546 128.711" stroke="#350B00" stroke-width="1.9786" stroke-linecap="round" stroke-linejoin="round"/>
<path d="M167.342 152.316C169.789 147.316 169.802 146.327 171.846 144.863C173.535 143.663 183.698 140.015 190.439 135.478C192.74 133.928 194.646 132.266 195.675 130.571" stroke="#350B00" stroke-width="1.9786" stroke-linecap="round" stroke-linejoin="round"/>
<path d="M175.273 117.057C175.742 118.264 176.283 119.418 177.021 120.473" stroke="#350B00" stroke-width="1.9786" stroke-linecap="round" stroke-linejoin="round"/>
<path d="M183.863 125.235C183.916 125.255 183.975 125.275 184.028 125.288" stroke="#350B00" stroke-width="1.9786" stroke-linecap="round" stroke-linejoin="round"/>
<path d="M193.406 94.3229L190.676 98.4978L192.351 99.3354L196.058 95.1474" stroke="#350B00" stroke-width="1.9786" stroke-linecap="round" stroke-linejoin="round"/>
<path d="M190.676 98.4978C187.015 102.112 180.057 112.229 177.023 120.473L178.145 125.018L184.041 125.242" stroke="#350B00" stroke-width="1.9786" stroke-linecap="round" stroke-linejoin="round"/>
<path d="M185.623 123.191C186.487 117.987 188.967 104.552 192.35 99.3354" stroke="#350B00" stroke-width="1.9786" stroke-linecap="round" stroke-linejoin="round"/>
<path d="M166.195 107.566C166.413 107.553 166.637 107.547 166.888 107.547C168.715 107.547 171.386 108.226 173.358 108.984" stroke="#350B00" stroke-width="1.9786" stroke-linecap="round" stroke-linejoin="round"/>
<path d="M193.463 130.874C194.175 129.265 194.268 126.779 194.268 125.315C194.268 124.708 194.202 124.147 194.096 123.626" stroke="#350B00" stroke-width="1.9786" stroke-linecap="round" stroke-linejoin="round"/>
<path d="M211.536 124.391C211.853 123.725 212.044 122.993 212.123 122.228C212.123 122.182 212.13 122.129 212.136 122.083C212.453 116.978 212.835 108.971 212.281 104.289C212.209 103.688 212.123 103.141 212.024 102.666C211.879 102.007 211.675 101.334 211.404 100.668C210.402 98.1615 208.548 95.6355 205.976 93.5184C204.242 92.0938 202.19 90.8539 199.856 89.9305C200.707 92.4038 198.438 94.6198 196.057 95.1474C195.206 95.3387 194.342 95.3123 193.597 95.0023C193.537 94.7715 193.471 94.5473 193.405 94.323C193.32 94.046 193.221 93.7624 193.122 93.4854C193.056 93.5052 192.99 93.5118 192.924 93.525C190.154 93.9933 188.703 91.0254 188.05 88.163C187.958 87.7673 187.885 87.3716 187.819 86.989C187.404 84.4432 187.529 81.8513 188.235 79.3384" stroke="#350B00" stroke-width="1.9786" stroke-linecap="round" stroke-linejoin="round"/>
<path d="M198.293 122.307L193.603 123.784C193.142 123.929 192.641 123.903 192.199 123.705L188.848 122.215C187.951 121.819 186.903 121.99 186.19 122.663L185.63 123.191L184.713 124.048C184.363 124.378 184.133 124.793 184.04 125.249C184.04 125.262 184.04 125.281 184.034 125.295C183.948 125.789 184.014 126.31 184.265 126.779L186.078 130.182C186.151 130.327 186.289 130.419 186.448 130.452C186.606 130.479 186.764 130.439 186.883 130.333L187.938 129.41C188.037 129.324 188.136 129.252 188.248 129.186C189.04 128.704 190.055 128.731 190.814 129.305L192.238 130.373C192.601 130.643 193.03 130.822 193.472 130.888C193.808 130.94 194.158 130.927 194.5 130.848L207.21 127.906C209.155 127.451 210.725 126.139 211.543 124.411" stroke="#350B00" stroke-width="1.9786" stroke-linecap="round" stroke-linejoin="round"/>
<path d="M198.295 122.307C199.64 116.523 202.153 112.21 204.468 109.525L204.237 117.961C204.198 119.451 203.215 120.751 201.797 121.199L198.295 122.3V122.307Z" stroke="#350B00" stroke-width="1.9786" stroke-linecap="round" stroke-linejoin="round"/>
<path d="M323.189 172.194C321.151 165.737 319.278 159.689 317.101 152.685C316.475 150.673 316.389 148.741 316.884 147.303C317.068 146.756 317.293 146.215 317.55 145.668C317.827 145.061 318.506 145.008 319.186 145.536C319.812 146.017 320.399 146.492 320.96 146.974C322.424 148.246 323.697 150.087 324.515 152.085C328.485 161.78 331.697 169.628 335.582 179.343L323.189 172.187V172.194Z" stroke="#350B00" stroke-width="1.9786" stroke-linecap="round" stroke-linejoin="round"/>
<path d="M318.137 145.001L290.463 67.7372" stroke="#350B00" stroke-width="1.9786" stroke-linecap="round" stroke-linejoin="round"/>
<path d="M183.303 73.8181L225.031 63.6283" stroke="#350B00" stroke-width="1.9786" stroke-linecap="round" stroke-linejoin="round"/>
<path d="M257.129 55.7931L264.7 53.9398" stroke="#350B00" stroke-width="1.9786" stroke-linecap="round" stroke-linejoin="round"/>
<path d="M156.663 74.6557L170.539 82.669C174.549 81.3104 178.5 79.9319 181.626 78.8965C182.629 78.5601 183.315 77.7093 183.506 76.5024C183.578 76.0407 183.631 75.5526 183.671 75.0184C183.697 74.6425 183.552 74.2006 183.301 73.8115C183.169 73.607 182.998 73.4224 182.807 73.2641C182.305 72.8486 181.824 72.4792 181.349 72.1363C180.116 71.2459 178.817 70.8238 177.709 70.9557C171.766 71.6416 163.456 73.5543 156.656 74.6557H156.663Z" stroke="#350B00" stroke-width="1.9786" stroke-linecap="round" stroke-linejoin="round"/>
<path d="M291.418 21.3984C292.11 22.4405 292.058 24.0234 293.271 24.0234C294.604 24.0234 295.817 22.0514 297.308 22.0514C300.843 22.0514 299.036 27.1825 301.285 27.1825C301.443 27.1825 301.951 27.0836 302.663 26.8132" stroke="#350B00" stroke-width="1.9786" stroke-linecap="round" stroke-linejoin="round"/>
<path d="M299.213 32.3797C298.672 34.0088 297.083 35.2091 295.355 35.4333C293.073 35.7301 290.533 34.3253 289.821 29.946C289.722 29.3261 289.663 28.7193 289.65 28.1257C289.597 25.5535 290.309 23.2386 291.417 21.3985C293.152 18.5097 295.829 16.7884 297.94 17.0522C301.957 17.5534 303.823 22.1438 302.741 26.4439C302.708 26.5692 302.682 26.6945 302.656 26.8199C302.346 28.2247 302.174 29.5767 302.102 30.7573C302.062 31.4234 302.398 32.0565 302.966 32.4061C303.111 32.4984 303.262 32.5842 303.414 32.6765C304.977 33.613 306.593 34.4638 308.044 35.4663C309.726 36.6271 311.19 37.9857 312.087 39.8852C312.582 40.9404 312.911 42.1606 313.004 43.605C313.254 47.3841 312.918 52.6208 312.516 56.9539C312.318 59.0776 312.107 60.977 311.935 62.395C311.751 63.9186 310.682 65.1981 309.211 65.6465L295.104 69.9467C294.346 70.1775 293.515 70.0324 292.875 69.5576L290.494 67.7768C290.494 67.7768 290.467 67.757 290.454 67.7505C289.966 67.4207 289.307 67.5196 288.937 67.9813L287.895 69.3135C287.763 69.485 287.559 69.5905 287.341 69.5971C287.124 69.6037 286.913 69.518 286.761 69.3597L285.072 67.5196C284.604 67.0052 284.413 66.3259 284.518 65.6795C284.571 65.3366 284.71 65.0002 284.927 64.71L285.501 63.9384C286.418 62.7116 287.902 62.0389 289.425 62.1576L290.5 62.2434C290.784 62.2631 291.054 62.3621 291.292 62.5204L292.327 63.2261C292.908 63.6218 293.646 63.7009 294.299 63.4437L302.385 60.2516C303.526 59.8031 304.298 58.7346 304.37 57.5145L305.004 46.7641" stroke="#350B00" stroke-width="1.9786" stroke-linecap="round" stroke-linejoin="round"/>
<path d="M282.607 36.4885C281.981 37.8538 281.255 40.2808 280.517 43.0509C280.055 44.8052 277.938 53.5506 277.457 55.4567C276.995 57.2902 276.632 58.6027 276.414 58.9654C276.375 59.038 276.296 59.1237 276.184 59.2226C274.719 60.5747 267.669 64.334 264.246 68.3374" stroke="#350B00" stroke-width="1.9786" stroke-linecap="round" stroke-linejoin="round"/>
<path d="M268.969 97.3503C270.512 93.9141 271.884 91.1969 274.014 88.7566C275.834 86.6659 285.312 81.1654 293.22 75.4274C296.788 72.8421 300.033 70.2039 302.11 67.8098" stroke="#350B00" stroke-width="1.9786" stroke-linecap="round" stroke-linejoin="round"/>
<path d="M304.453 56.4131C306.57 57.686 310.303 58.1872 312.519 56.9473" stroke="#350B00" stroke-width="1.9786" stroke-linecap="round" stroke-linejoin="round"/>
<path d="M289.645 28.1257C287.983 27.9938 286.13 28.04 284.62 28.5808C281.447 29.7218 277.998 34.266 274.001 38.9882C273.572 39.4961 273.137 40.0039 272.695 40.5117C270.598 40.9141 268.468 42.5365 268.25 48.835C265.724 49.1714 264.51 50.4443 264.398 52.4295C264.365 52.9967 264.477 53.4979 264.695 53.9332C264.906 54.3553 265.209 54.7115 265.579 55.0083C266.383 55.648 267.478 55.9844 268.52 55.9844C269.846 55.9844 270.466 55.094 270.743 54.4741C270.921 54.0651 271.238 53.7354 271.627 53.5309L272.86 52.8846C273.414 52.5944 273.645 51.9151 273.381 51.3479L272.913 50.3454C272.748 49.9892 272.801 49.5737 273.051 49.2769L276.329 45.3263L280.504 43.0509" stroke="#350B00" stroke-width="1.9786" stroke-linecap="round" stroke-linejoin="round"/>
<path d="M274.006 38.9948C273.887 41.679 274.817 44.5084 277.521 44.6799" stroke="#350B00" stroke-width="1.9786" stroke-linecap="round" stroke-linejoin="round"/>
<path d="M295.355 35.4332C297.881 36.7193 301.548 36.4159 303.415 32.6698" stroke="#350B00" stroke-width="1.9786" stroke-linecap="round" stroke-linejoin="round"/>
<path d="M276.191 59.2227C277.563 62.2631 280.914 64.3736 284.528 65.6663" stroke="#350B00" stroke-width="1.9786" stroke-linecap="round" stroke-linejoin="round"/>
<path d="M274.779 69.8674C272.524 72.2417 268.896 75.4075 265.869 78.4941" stroke="#350B00" stroke-width="1.9786" stroke-linecap="round" stroke-linejoin="round"/>
<path d="M257.248 95.8135L253.488 106.696" stroke="#350B00" stroke-width="1.9786" stroke-linecap="round" stroke-linejoin="round"/>
<path d="M274.318 200.752C272.28 194.295 270.407 188.247 268.23 181.25C267.604 179.231 267.518 177.306 268.013 175.868C268.197 175.32 268.422 174.779 268.679 174.232C268.956 173.625 269.629 173.573 270.314 174.1C270.941 174.582 271.528 175.056 272.089 175.538C273.553 176.817 274.826 178.651 275.643 180.649C279.614 190.351 282.832 198.193 286.71 207.908L274.318 200.752Z" stroke="#350B00" stroke-width="1.9786" stroke-linecap="round" stroke-linejoin="round"/>
<path d="M269.061 173.335L242.752 97.7064" stroke="#350B00" stroke-width="1.9786" stroke-linecap="round" stroke-linejoin="round"/>
<path d="M134.217 102.152L166.079 94.3757" stroke="#350B00" stroke-width="1.9786" stroke-linecap="round" stroke-linejoin="round"/>
<path d="M200.574 85.9534L217.056 81.9303" stroke="#350B00" stroke-width="1.9786" stroke-linecap="round" stroke-linejoin="round"/>
<path d="M107.589 102.996L121.459 111.003C125.469 109.644 129.426 108.266 132.545 107.23C133.548 106.894 134.234 106.043 134.425 104.836C134.498 104.374 134.55 103.886 134.59 103.352C134.616 102.969 134.478 102.528 134.221 102.145C134.082 101.941 133.917 101.756 133.726 101.604C133.218 101.195 132.743 100.813 132.275 100.476C131.042 99.5795 129.742 99.164 128.634 99.2959C122.692 99.9818 114.382 101.894 107.582 102.996H107.589Z" stroke="#350B00" stroke-width="1.9786" stroke-linecap="round" stroke-linejoin="round"/>
<path d="M252.056 59.526H252.083C252.558 59.6909 253.046 59.7437 253.521 59.7041C255.479 59.5326 257.286 57.8376 257.128 55.7931C257.128 55.7799 257.128 55.7733 257.128 55.7601C256.977 54.0255 255.908 53.2935 254.84 52.8384C255.268 51.7963 255.486 50.7345 255.38 49.5539C254.998 45.1482 252.584 41.9297 247.532 42.365C243.931 42.675 241.966 44.4887 241.24 47.3049C240.917 48.5646 240.844 50.0222 240.983 51.638C241.253 54.7378 241.28 57.864 242.506 59.4007C243.067 60.0998 243.865 60.4758 245.052 60.3702C245.329 60.3505 245.606 60.2911 245.883 60.212C246.121 61.0891 246.338 61.9663 246.556 62.8435" stroke="#350B00" stroke-width="1.9786" stroke-linecap="round" stroke-linejoin="round"/>
<path d="M252.368 60.5615C252.276 60.2384 251.807 58.5434 251.662 58.0289C251.431 57.2243 251.563 56.3537 252.018 55.648C252.427 55.0149 252.678 54.4477 252.816 54.0783C252.882 53.9134 252.849 53.7288 252.751 53.5903C252.645 53.4518 252.48 53.3726 252.302 53.3858H252.289C245.773 53.92 247.916 46.619 242.244 47.1071C241.914 47.1334 241.571 47.206 241.229 47.3049" stroke="#350B00" stroke-width="1.9786" stroke-linecap="round" stroke-linejoin="round"/>
<path d="M242.497 59.4073C239.232 60.0339 235.11 60.2516 230.738 61.1617C229.484 61.4255 228.205 61.7421 226.919 62.1444C226.233 62.3555 225.6 62.9293 225.033 63.6218C224.208 64.6243 223.522 65.8972 222.988 66.7809C221.695 68.9376 220.139 72.3935 220.178 76.5354" stroke="#350B00" stroke-width="1.9786" stroke-linecap="round" stroke-linejoin="round"/>
<path d="M224.303 76.9179C224.54 76.5684 224.764 76.2188 224.969 75.8758C226.492 73.3564 227.29 70.9755 227.647 69.6564C227.825 69.0035 228.366 68.5089 229.032 68.3901L236.682 67.0117C236.095 67.9219 235.792 68.9903 235.634 70.1775C235.515 71.0942 235.482 72.0769 235.482 73.1124C235.482 73.3762 235.482 73.64 235.482 73.9038C235.482 75.058 235.409 76.1199 235.277 77.1092C235.205 77.6302 235.119 78.1248 235.014 78.5997C234.532 80.7498 233.385 82.6426 231.789 84.054C230.654 85.0565 229.295 85.8084 227.785 86.2371C223.109 87.5496 218.875 90.5307 211.402 100.668" stroke="#350B00" stroke-width="1.9786" stroke-linecap="round" stroke-linejoin="round"/>
<path d="M212.281 104.289C214.299 104.717 216.318 105.311 218.085 106.142C222.016 107.989 224.72 110.989 223.441 115.863" stroke="#350B00" stroke-width="1.9786" stroke-linecap="round" stroke-linejoin="round"/>
<path d="M246.545 62.8501C248.154 64.3407 252.461 63.2722 252.606 61.4519C252.626 61.1683 252.553 60.8649 252.349 60.5549H252.369C252.725 60.7264 253.081 60.8913 253.424 61.043C256.082 62.2301 258.252 63.1205 260.019 64.1362C261.886 65.2112 263.284 66.4314 264.26 68.3374C264.412 68.6276 264.55 68.9376 264.676 69.2608C265.408 71.0943 265.744 74.6623 265.863 78.4942C265.902 79.7341 265.922 81.007 265.922 82.2602C265.922 84.0475 265.896 85.7887 265.856 87.3517C265.764 90.933 263.363 94.046 259.92 95.0419L247.336 98.6825C246.73 98.8606 246.07 98.7683 245.529 98.4385L243.445 97.159C243.3 97.0667 243.142 97.0007 242.984 96.9611C242.37 96.7897 241.691 96.9545 241.223 97.4228L240.286 98.3594C240.075 98.5704 239.778 98.6693 239.481 98.6364C239.185 98.5968 238.921 98.4253 238.769 98.1615L237.569 96.1037C237.028 95.1804 237.147 94.0328 237.819 93.2282C237.892 93.1424 237.971 93.0633 238.057 92.9842C239.04 92.1004 240.642 91.3089 243.076 91.797C244.81 92.14 245.727 92.5423 246.195 92.905C246.835 93.4063 247.699 93.5052 248.438 93.1754L255.825 89.8448C257.625 89.0336 258.727 87.1935 258.581 85.2215L257.968 76.6212" stroke="#350B00" stroke-width="1.9786" stroke-linecap="round" stroke-linejoin="round"/>
<path d="M223.77 76.5287C223.203 76.2319 222.445 76.133 221.455 76.2583C221.033 76.3111 220.644 76.4034 220.275 76.5089C220.242 76.5155 220.216 76.5287 220.183 76.5419C218.54 77.1091 217.347 78.5073 217.083 80.1891C217.043 80.4266 217.023 80.664 217.023 80.908V81.6005C217.023 81.7126 217.037 81.8182 217.056 81.9303C217.136 82.3722 217.353 82.7811 217.696 83.0779C218.125 83.4538 218.685 83.6187 219.246 83.5461C221.686 83.223 225.274 82.4118 225.274 80.4529C225.274 78.8371 225.017 77.6301 224.311 76.9178C224.16 76.7596 223.982 76.6342 223.777 76.5287H223.77Z" stroke="#350B00" stroke-width="1.9786" stroke-linecap="round" stroke-linejoin="round"/>
<path d="M231.692 67.922C230.518 66.6359 229.779 63.0744 230.736 61.1617" stroke="#350B00" stroke-width="1.9786" stroke-linecap="round" stroke-linejoin="round"/>
<path d="M258.436 82.9922C260.586 82.9329 263.435 82.6559 265.928 82.2601" stroke="#350B00" stroke-width="1.9786" stroke-linecap="round" stroke-linejoin="round"/>
<path d="M221.16 125.11C222.967 120.229 223.442 115.863 223.442 115.863C223.442 115.863 235.953 111.102 239.225 109.347C240.735 108.536 243.261 107.514 245.556 105.759C247.858 103.998 249.929 101.505 250.483 97.7592" stroke="#350B00" stroke-width="1.9786" stroke-linecap="round" stroke-linejoin="round"/>
<path d="M250.963 92.0343C251.88 86.3096 254.544 81.1125 258.099 78.3226" stroke="#350B00" stroke-width="1.9786" stroke-linecap="round" stroke-linejoin="round"/>
<path d="M231.797 84.0541C232.298 87.853 233.683 91.2694 237.832 93.2216" stroke="#350B00" stroke-width="1.9786" stroke-linecap="round" stroke-linejoin="round"/>
<path d="M218.086 106.142C215.797 109.248 213.851 115.883 212.117 122.228C211.919 122.953 211.721 123.679 211.53 124.391C210.857 126.91 210.217 129.305 209.617 131.323" stroke="#350B00" stroke-width="1.9786" stroke-linecap="round" stroke-linejoin="round"/>
<path d="M202.97 128.876C202.435 131.441 201.947 133.756 201.545 135.557" stroke="#350B00" stroke-width="1.9786" stroke-linecap="round" stroke-linejoin="round"/>
<path d="M149.369 79.7604C151.295 83.1438 155.45 85.2148 160.766 86.336" stroke="#350B00" stroke-width="1.9786" stroke-linecap="round" stroke-linejoin="round"/>
<path d="M141.908 79.2791C142.799 85.3863 153.094 90.7219 162.809 90.6494" stroke="#350B00" stroke-width="1.9786" stroke-linecap="round" stroke-linejoin="round"/>
<path d="M101.857 107.883C103.829 111.345 108.083 113.469 113.525 114.617" stroke="#350B00" stroke-width="1.9786" stroke-linecap="round" stroke-linejoin="round"/>
<path d="M94.2129 107.395C95.123 113.647 105.669 119.108 115.615 119.036" stroke="#350B00" stroke-width="1.9786" stroke-linecap="round" stroke-linejoin="round"/>
<path d="M46.6348 140.259C48.8772 144.19 53.6984 146.598 59.8782 147.903" stroke="#350B00" stroke-width="1.9786" stroke-linecap="round" stroke-linejoin="round"/>
<path d="M37.9609 139.699C38.9964 146.795 50.9669 152.995 62.2515 152.916" stroke="#350B00" stroke-width="1.9786" stroke-linecap="round" stroke-linejoin="round"/>
<path d="M314.729 176.567C316.971 180.498 321.792 182.905 327.972 184.211" stroke="#350B00" stroke-width="1.9786" stroke-linecap="round" stroke-linejoin="round"/>
<path d="M306.055 176.013C307.09 183.109 319.061 189.309 330.345 189.23" stroke="#350B00" stroke-width="1.9786" stroke-linecap="round" stroke-linejoin="round"/>
<path d="M266.141 204.623C268.383 208.554 273.204 210.961 279.384 212.267" stroke="#350B00" stroke-width="1.9786" stroke-linecap="round" stroke-linejoin="round"/>
<path d="M257.467 204.062C258.502 211.159 270.473 217.359 281.757 217.28" stroke="#350B00" stroke-width="1.9786" stroke-linecap="round" stroke-linejoin="round"/>
<path d="M212.125 235.806C214.367 239.737 219.189 242.144 225.368 243.45" stroke="#350B00" stroke-width="1.9786" stroke-linecap="round" stroke-linejoin="round"/>
<path d="M203.451 235.245C204.487 242.342 216.457 248.541 227.742 248.462" stroke="#350B00" stroke-width="1.9786" stroke-linecap="round" stroke-linejoin="round"/>
<path d="M218.213 149.064C214.15 156.293 212.989 162.815 203.644 169.121C193.751 175.802 181.431 177.892 171.584 184.784C164.784 189.546 161.83 197.494 155.59 202.737C146.522 210.355 134.604 211.667 125.39 218.592C119.778 222.813 118.788 230.319 113.736 234.955C109.964 238.424 104.641 239.994 99.9258 242.269" stroke="#350B00" stroke-width="1.9786" stroke-linecap="round" stroke-linejoin="round"/>
<path d="M114.336 147.6C106.368 150.08 96.3567 151.742 89.2206 154.571C76.0233 159.808 73.7479 166.687 61.751 172.009C54.4434 175.254 41.4374 175.821 33.4043 178.737C23.7488 182.239 22.5814 188.056 11.1847 191.01C8.164 191.795 4.65528 192.191 0.988281 192.448" stroke="#350B00" stroke-width="1.9786" stroke-linecap="round" stroke-linejoin="round"/>
</g>
<defs>
<clipPath id="clip0_4637_36223">
<rect width="401.688" height="249" fill="white" transform="translate(0 0.45166)"/>
</clipPath>
</defs>
</svg>
