<svg width="402" height="340" viewBox="0 0 402 340" fill="none" xmlns="http://www.w3.org/2000/svg">
<g style="mix-blend-mode:multiply">
<path d="M310.416 116.346C304.375 115.35 299.908 117.845 294.907 120.516C290.488 122.876 225.974 156.355 211.137 164.122C211.399 163.108 210.097 162.186 209.119 163.03C206.282 165.477 202.095 165.215 198.847 167.037C194.946 169.227 191.969 172.89 193.349 177.361C195.023 182.772 200.88 185.971 206.902 185.941C213.335 185.91 219.226 182.527 224.691 179.861C245.65 169.642 266.271 158.523 286.059 146.539C291.732 143.104 297.376 139.638 302.952 136.071C305.687 134.323 308.679 132.653 311.128 130.577C314.003 128.138 314.903 125.446 315.175 122.002C315.358 119.642 313.04 116.783 310.407 116.346H310.416Z" fill="#D7DCE0"/>
</g>
<g style="mix-blend-mode:multiply">
<path d="M198.139 119.441C197.795 117.304 196.135 115.962 193.826 115.525C190.278 114.852 187.509 116.364 184.58 117.929C176.119 122.443 167.857 127.225 159.603 132.042C150.339 137.444 140.73 142.378 131.524 147.863C130.396 148.532 131.165 149.865 132.39 149.717C142.09 148.537 151.346 145.429 160.296 141.959C169.284 138.475 178.089 134.603 186.555 130.166C190.883 127.898 199.044 125.062 198.139 119.441Z" fill="#D7DCE0"/>
</g>
<path d="M308.344 102.505V106.994C308.344 112.356 304.733 118.589 300.28 120.91L208.422 168.795C206.35 169.875 204.462 169.918 203.039 169.119C201.393 168.201 200.357 166.16 200.357 163.293V158.799L308.344 102.505Z" fill="#E59636"/>
<path d="M308.344 43.9949V102.505L200.357 158.8V100.289C200.357 94.9266 203.968 88.694 208.422 86.3732L300.28 38.4878C302.245 37.4651 304.046 37.3733 305.445 38.0508C307.217 38.9074 308.344 40.9966 308.344 43.9949ZM299.777 69.4367V53.8508C299.777 52.9373 299.065 52.5702 298.189 53.0248C297.313 53.4837 296.601 54.5938 296.601 55.5073V71.0932C296.601 72.0067 297.313 72.3738 298.189 71.9193C299.065 71.4603 299.777 70.3502 299.777 69.4367ZM291.804 80.4334V67.8458C291.804 66.9323 291.098 66.5608 290.221 67.0197C289.341 67.4743 288.634 68.5844 288.634 69.5023V82.0899C288.634 83.0034 289.341 83.3749 290.221 82.916C291.098 82.457 291.804 81.3469 291.804 80.4334ZM283.837 92.5271V77.7498C283.837 76.8319 283.125 76.4648 282.249 76.9193C281.373 77.3783 280.661 78.4884 280.661 79.4019V94.1792C280.661 95.0927 281.373 95.4642 282.249 95.0097C283.125 94.5507 283.837 93.4406 283.837 92.5271ZM275.865 86.8277V78.0732C275.865 77.1597 275.153 76.7882 274.277 77.2428C273.401 77.7017 272.689 78.8119 272.689 79.7253V88.4842C272.689 89.3977 273.401 89.7692 274.277 89.3103C275.153 88.8557 275.865 87.7412 275.865 86.8277ZM267.892 85.2368V70.4726C267.892 69.5591 267.186 69.1876 266.309 69.6465C265.428 70.1054 264.722 71.2156 264.722 72.1291V86.8933C264.722 87.8067 265.428 88.1783 266.309 87.7193C267.186 87.2604 267.892 86.1503 267.892 85.2368ZM259.925 104.446V85.8356C259.925 84.9221 259.213 84.5506 258.337 85.0095C257.461 85.4641 256.749 86.5742 256.749 87.4877V106.098C256.749 107.012 257.461 107.383 258.337 106.929C259.213 106.47 259.925 105.359 259.925 104.446ZM251.952 105.036V98.2003C251.952 97.2868 251.241 96.9153 250.365 97.3742C249.489 97.8288 248.777 98.9389 248.777 99.8568V106.693C248.777 107.606 249.489 107.978 250.365 107.519C251.241 107.064 251.952 105.954 251.952 105.036ZM243.98 115.491V103.178C243.98 102.261 243.273 101.894 242.392 102.348C241.516 102.807 240.81 103.917 240.81 104.831V117.147C240.81 118.061 241.516 118.432 242.392 117.973C243.273 117.519 243.98 116.404 243.98 115.491ZM236.013 113.349V97.4791C236.013 96.5656 235.301 96.1941 234.425 96.653C233.549 97.1076 232.837 98.2221 232.837 99.1356V115.006C232.837 115.919 233.549 116.286 234.425 115.832C235.301 115.373 236.013 114.263 236.013 113.349ZM228.04 110.665V88.4973C228.04 87.5838 227.329 87.2167 226.453 87.6713C225.576 88.1302 224.865 89.2403 224.865 90.1538V112.322C224.865 113.235 225.576 113.607 226.453 113.148C227.329 112.689 228.04 111.579 228.04 110.665ZM220.068 116.19V107.707C220.068 106.793 219.356 106.422 218.48 106.88C217.604 107.335 216.893 108.445 216.893 109.363V117.847C216.893 118.76 217.604 119.127 218.48 118.673C219.356 118.214 220.068 117.104 220.068 116.19ZM218.108 137.777V135.194C218.108 133.262 216.81 132.375 215.203 133.214L211.829 134.971C210.222 135.81 208.925 138.052 208.925 139.98V142.567C208.925 144.495 210.222 145.382 211.829 144.547L215.203 142.786C216.81 141.951 218.108 139.709 218.108 137.777ZM212.1 119.525V112.956C212.1 112.042 211.389 111.671 210.513 112.13C209.637 112.584 208.925 113.699 208.925 114.612V121.177C208.925 122.09 209.637 122.462 210.513 122.007C211.389 121.549 212.1 120.438 212.1 119.525Z" fill="white"/>
<path d="M305.459 38.0465H305.454C304.055 37.3734 302.254 37.4652 300.289 38.488L208.431 86.3733C203.977 88.6941 200.366 94.9268 200.366 100.29V163.293C200.366 166.16 201.402 168.201 203.048 169.119H203.043L192.442 163.595C190.734 162.708 189.654 160.64 189.654 157.707V94.7039C189.654 89.341 193.265 83.1128 197.719 80.7919L289.577 32.9022C291.595 31.8532 293.44 31.7833 294.853 32.5176L305.459 38.0465Z" fill="#350B00"/>
<path d="M275.853 78.0742V86.8287C275.853 87.7422 275.142 88.8567 274.265 89.3113C273.389 89.7702 272.678 89.3987 272.678 88.4852V79.7264C272.678 78.8129 273.389 77.7027 274.265 77.2438C275.142 76.7892 275.853 77.1607 275.853 78.0742Z" fill="#350B00"/>
<path d="M298.074 56.624V65.3785C298.074 66.292 297.362 67.4065 296.486 67.8611C295.61 68.32 294.898 67.9485 294.898 67.035V58.2762C294.898 57.3627 295.61 56.2525 296.486 55.7936C297.362 55.339 298.074 55.7105 298.074 56.624Z" fill="#350B00"/>
<path d="M267.887 70.473V85.2372C267.887 86.1507 267.181 87.2609 266.304 87.7198C265.424 88.1787 264.717 87.8072 264.717 86.8937V72.1295C264.717 71.2161 265.424 70.1059 266.304 69.647C267.181 69.1881 267.887 69.5595 267.887 70.473Z" fill="#350B00"/>
<path d="M290.108 49.0228V63.7871C290.108 64.7005 289.401 65.8107 288.525 66.2696C287.644 66.7285 286.938 66.357 286.938 65.4435V50.6793C286.938 49.7659 287.644 48.6557 288.525 48.1968C289.401 47.7379 290.108 48.1094 290.108 49.0228Z" fill="#350B00"/>
<path d="M259.908 85.8344V104.445C259.908 105.358 259.196 106.468 258.32 106.927C257.444 107.382 256.732 107.01 256.732 106.097V87.4865C256.732 86.573 257.444 85.4629 258.32 85.0083C259.196 84.5494 259.908 84.9209 259.908 85.8344Z" fill="#350B00"/>
<path d="M282.128 64.3842V82.9946C282.128 83.9081 281.417 85.0182 280.541 85.4772C279.665 85.9317 278.953 85.5602 278.953 84.6467V66.0363C278.953 65.1228 279.665 64.0127 280.541 63.5581C281.417 63.0992 282.128 63.4707 282.128 64.3842Z" fill="#350B00"/>
<path d="M251.955 98.1996V105.035C251.955 105.953 251.243 107.063 250.367 107.518C249.491 107.977 248.779 107.605 248.779 106.692V99.8561C248.779 98.9383 249.491 97.8281 250.367 97.3735C251.243 96.9146 251.955 97.2861 251.955 98.1996Z" fill="#350B00"/>
<path d="M243.965 103.179V115.491C243.965 116.404 243.259 117.519 242.378 117.973C241.502 118.432 240.795 118.061 240.795 117.147V104.831C240.795 103.917 241.502 102.807 242.378 102.348C243.259 101.894 243.965 102.261 243.965 103.179Z" fill="#350B00"/>
<path d="M235.994 97.4789V113.349C235.994 114.262 235.282 115.373 234.406 115.831C233.53 116.286 232.818 115.919 232.818 115.005V99.1354C232.818 98.2219 233.53 97.1074 234.406 96.6528C235.282 96.1939 235.994 96.5654 235.994 97.4789Z" fill="#350B00"/>
<path d="M228.041 88.5004V110.669C228.041 111.582 227.329 112.692 226.453 113.151C225.577 113.61 224.865 113.239 224.865 112.325V90.1569C224.865 89.2434 225.577 88.1333 226.453 87.6744C227.329 87.2198 228.041 87.5869 228.041 88.5004Z" fill="#350B00"/>
<path d="M220.064 107.705V116.189C220.064 117.102 219.352 118.213 218.476 118.672C217.6 119.126 216.889 118.759 216.889 117.845V109.362C216.889 108.444 217.6 107.334 218.476 106.879C219.352 106.42 220.064 106.792 220.064 107.705Z" fill="#350B00"/>
<path d="M219.971 69.173L197.69 80.7904C193.237 83.1112 189.626 89.3394 189.626 94.7023V117.81L125.818 151.071L137.779 122.072L143.598 122.587L146.023 118.365L157.17 119.65L162.505 95.878L171.232 99.6062L173.168 94.7503L178.987 95.8561L188.682 71.2884L200.803 77.3899L210.987 67.0576L219.971 69.173Z" fill="#E59636"/>
<path d="M218.11 135.196V137.779C218.11 139.711 216.813 141.953 215.206 142.788L211.832 144.549C210.225 145.384 208.928 144.497 208.928 142.569V139.982C208.928 138.054 210.225 135.812 211.832 134.973L215.206 133.216C216.813 132.377 218.11 133.264 218.11 135.196Z" fill="#350B00"/>
<path d="M212.103 112.955V119.525C212.103 120.438 211.392 121.548 210.515 122.007C209.639 122.462 208.928 122.09 208.928 121.177V114.612C208.928 113.698 209.639 112.584 210.515 112.129C211.392 111.67 212.103 112.042 212.103 112.955Z" fill="#350B00"/>
<path d="M308.344 102.505V106.994C308.344 112.357 304.733 118.59 300.28 120.91L208.422 168.796C206.35 169.875 204.462 169.915 203.039 169.119C201.393 168.197 200.357 166.16 200.357 163.293V100.289C200.357 94.9266 203.968 88.694 208.422 86.3732L300.28 38.4878C302.245 37.4651 304.046 37.3733 305.445 38.0508C307.217 38.9074 308.344 40.9966 308.344 43.9949V102.505Z" stroke="#350B00" stroke-width="0.82907" stroke-linecap="round" stroke-linejoin="round"/>
<path d="M200.357 158.799L308.344 102.505" stroke="#350B00" stroke-width="0.82907" stroke-linecap="round" stroke-linejoin="round"/>
<path d="M210.515 122.007C209.639 122.462 208.928 122.09 208.928 121.177V114.612C208.928 113.698 209.639 112.584 210.515 112.129C211.392 111.67 212.103 112.042 212.103 112.955V119.525C212.103 120.438 211.392 121.548 210.515 122.007Z" stroke="#350B00" stroke-width="0.82907" stroke-linecap="round" stroke-linejoin="round"/>
<path d="M218.476 118.672C217.6 119.126 216.889 118.759 216.889 117.845V109.362C216.889 108.444 217.6 107.334 218.476 106.879C219.352 106.42 220.064 106.792 220.064 107.705V116.189C220.064 117.102 219.352 118.213 218.476 118.672Z" stroke="#350B00" stroke-width="0.82907" stroke-linecap="round" stroke-linejoin="round"/>
<path d="M226.453 113.151C225.577 113.61 224.865 113.239 224.865 112.325V90.1569C224.865 89.2434 225.577 88.1333 226.453 87.6744C227.329 87.2198 228.041 87.5869 228.041 88.5004V110.669C228.041 111.582 227.329 112.692 226.453 113.151Z" stroke="#350B00" stroke-width="0.82907" stroke-linecap="round" stroke-linejoin="round"/>
<path d="M234.406 115.831C233.53 116.286 232.818 115.919 232.818 115.005V99.1354C232.818 98.2219 233.53 97.1074 234.406 96.6528C235.282 96.1939 235.994 96.5654 235.994 97.4789V113.349C235.994 114.262 235.282 115.373 234.406 115.831Z" stroke="#350B00" stroke-width="0.82907" stroke-linecap="round" stroke-linejoin="round"/>
<path d="M242.378 117.973C241.502 118.432 240.795 118.061 240.795 117.147V104.831C240.795 103.917 241.502 102.807 242.378 102.348C243.259 101.894 243.965 102.261 243.965 103.179V115.491C243.965 116.404 243.259 117.519 242.378 117.973Z" stroke="#350B00" stroke-width="0.82907" stroke-linecap="round" stroke-linejoin="round"/>
<path d="M250.367 107.518C249.491 107.977 248.779 107.605 248.779 106.692V99.8561C248.779 98.9383 249.491 97.8281 250.367 97.3735C251.243 96.9146 251.955 97.2861 251.955 98.1996V105.035C251.955 105.953 251.243 107.063 250.367 107.518Z" stroke="#350B00" stroke-width="0.82907" stroke-linecap="round" stroke-linejoin="round"/>
<path d="M258.32 106.927C257.444 107.382 256.732 107.01 256.732 106.097V87.4865C256.732 86.573 257.444 85.4629 258.32 85.0083C259.196 84.5494 259.908 84.9209 259.908 85.8344V104.445C259.908 105.358 259.196 106.468 258.32 106.927Z" stroke="#350B00" stroke-width="0.82907" stroke-linecap="round" stroke-linejoin="round"/>
<path d="M266.304 87.7198C265.424 88.1787 264.717 87.8072 264.717 86.8937V72.1295C264.717 71.2161 265.424 70.1059 266.304 69.647C267.181 69.1881 267.887 69.5595 267.887 70.473V85.2372C267.887 86.1507 267.181 87.2609 266.304 87.7198Z" stroke="#350B00" stroke-width="0.82907" stroke-linecap="round" stroke-linejoin="round"/>
<path d="M274.265 89.3113C273.389 89.7702 272.678 89.3987 272.678 88.4852V79.7264C272.678 78.8129 273.389 77.7027 274.265 77.2438C275.142 76.7892 275.853 77.1607 275.853 78.0742V86.8287C275.853 87.7422 275.142 88.8567 274.265 89.3113Z" stroke="#350B00" stroke-width="0.82907" stroke-linecap="round" stroke-linejoin="round"/>
<path d="M215.206 142.788L211.832 144.549C210.225 145.384 208.928 144.497 208.928 142.569V139.982C208.928 138.054 210.225 135.812 211.832 134.973L215.206 133.216C216.813 132.377 218.11 133.264 218.11 135.196V137.779C218.11 139.711 216.813 141.953 215.206 142.788Z" stroke="#350B00" stroke-width="0.82907" stroke-linecap="round" stroke-linejoin="round"/>
<path d="M305.565 38.1033L294.853 32.5176C293.44 31.7833 291.595 31.8532 289.577 32.9022L197.719 80.7919C193.265 83.1128 189.654 89.341 189.654 94.7039V157.707C189.654 160.64 190.734 162.708 192.442 163.595L203.154 169.181" stroke="#350B00" stroke-width="0.82907" stroke-linecap="round" stroke-linejoin="round"/>
<path d="M278.637 173.869L258.413 163.327L242.101 171.832L222.342 161.53" stroke="#350B00" stroke-width="0.82907" stroke-linecap="round" stroke-linejoin="round"/>
<path d="M189.632 155.839L172.1 165.301" stroke="#350B00" stroke-width="0.82907" stroke-linecap="round" stroke-linejoin="round"/>
<path d="M189.626 117.81L125.818 151.071L137.779 122.072L143.598 122.587L146.023 118.365L157.17 119.65L162.505 95.878L171.232 99.6062L173.168 94.7503L178.987 95.8561L188.682 71.2884L200.803 77.3899L210.987 67.0576L219.971 69.173" stroke="#350B00" stroke-width="0.82907" stroke-linecap="round" stroke-linejoin="round"/>
<path d="M113.512 224.154L108.726 225.324L103.502 223.343L104.184 222.095L105.856 221.542C105.856 221.542 108.031 221.181 108.365 220.062C108.7 218.93 111.839 220.062 111.839 220.062L114.001 221.915L113.512 224.166V224.154Z" fill="#E59636"/>
<path d="M108.672 226.071L102.496 223.716L103.705 221.516L105.751 220.847C106.485 220.731 107.565 220.32 107.694 219.857C107.797 219.509 108.028 219.226 108.363 219.059C109.431 218.506 111.476 219.175 112.081 219.393L112.3 219.522L114.783 221.645L114.114 224.746L108.697 226.071H108.672ZM104.503 222.983L108.762 224.604L112.905 223.588L113.213 222.172L111.476 220.68C110.434 220.32 109.251 220.152 108.993 220.32C108.62 221.696 106.485 222.147 106.034 222.224L104.67 222.674L104.503 222.97V222.983Z" fill="#350B00"/>
<path d="M130.263 196.84C130.263 196.84 120.562 193.675 117.937 191.308C117.937 191.308 119.636 194.807 117.564 200.584C115.943 205.113 115.184 215.792 114.67 219.626C114.541 220.616 113.795 221.362 112.894 221.414L112.045 221.53C110.977 221.594 108.841 220.681 108.803 219.497C108.584 211.687 107.979 185.106 109.78 182.713C111.903 179.909 118.89 177.104 122.389 177.734C125.889 178.365 136.246 179.986 136.246 179.986L130.276 196.84H130.263Z" fill="white"/>
<path d="M111.954 222.237C110.938 222.237 109.639 221.722 108.867 221.028C108.378 220.577 108.107 220.063 108.095 219.522C107.734 206.657 107.4 184.694 109.214 182.289C111.491 179.278 118.812 176.37 122.504 177.039C125.952 177.657 136.245 179.278 136.348 179.291L137.184 179.419L130.7 197.715L130.044 197.496C129.696 197.38 122.865 195.142 119.134 192.98C119.417 194.666 119.468 197.355 118.22 200.803C117.011 204.173 116.277 211.25 115.788 215.933C115.634 217.464 115.493 218.789 115.364 219.715C115.184 221.028 114.167 222.031 112.932 222.108L112.135 222.211C112.135 222.211 112.019 222.211 111.954 222.211V222.237ZM121.256 178.352C117.808 178.352 112.16 180.745 110.346 183.151C109.253 184.592 108.931 198.86 109.51 219.484C109.51 219.625 109.626 219.805 109.832 219.986C110.41 220.513 111.465 220.873 112.006 220.835L112.804 220.732C113.421 220.693 113.884 220.191 113.974 219.548C114.103 218.635 114.232 217.335 114.386 215.817C114.914 210.786 115.634 203.89 116.895 200.365C118.825 194.974 117.319 191.668 117.294 191.629L115.788 188.438L118.4 190.793C120.497 192.684 127.625 195.206 129.825 195.952L135.28 180.552C132.746 180.153 125.129 178.943 122.247 178.429C121.938 178.377 121.604 178.352 121.244 178.352H121.256Z" fill="#350B00"/>
<path d="M102.611 222.198C103.254 221.13 104.695 221.233 105.853 221.542C105.776 221.594 105.699 221.632 105.634 221.697C105.017 222.185 105.583 222.957 106.702 223.536C108.902 224.681 111.437 224.347 112.646 222.494L112.775 222.108V221.748C112.775 221.748 112.788 221.748 112.801 221.748C113.187 221.311 113.778 220.732 114.229 220.294C114.64 219.908 115.271 220.037 115.502 220.577C115.863 221.452 116.12 223.009 115.297 225.479L114.898 229.236C114.872 229.48 114.756 229.712 114.563 229.853C114.537 229.905 114.473 229.931 114.409 229.944C114.177 230.059 113.637 229.982 113.431 229.866C112.994 229.789 112.62 229.699 112.17 229.545C111.964 229.48 111.823 229.262 111.836 229.017L111.939 227.255C111.951 226.984 111.694 226.804 111.475 226.92L110.922 227.267C110.42 227.589 109.854 227.782 109.275 227.834C108.645 227.885 108.027 227.756 107.448 227.473C104.734 226.11 101.427 224.128 102.598 222.198H102.611Z" fill="#350B00"/>
<path d="M114.101 230.535C113.805 230.535 113.483 230.471 113.264 230.368C112.84 230.291 112.467 230.201 112.004 230.046C111.566 229.905 111.283 229.454 111.309 228.978L111.386 227.627L111.232 227.73C110.653 228.103 109.996 228.322 109.34 228.374C108.62 228.438 107.886 228.284 107.23 227.962C103.95 226.315 102.316 224.977 101.93 223.626C101.762 223.034 101.84 222.455 102.161 221.928C102.624 221.169 103.654 220.41 106.008 221.027L107.192 221.336L106.162 222.005C106.085 222.057 106.034 222.082 105.982 222.121C105.931 222.262 106.162 222.648 106.96 223.06C108.967 224.102 111.142 223.755 112.171 222.25L112.261 222.005L112.287 221.49L112.467 221.336C112.827 220.937 113.29 220.461 113.869 219.895C114.191 219.586 114.628 219.458 115.053 219.548C115.477 219.638 115.85 219.947 116.018 220.371C116.404 221.323 116.7 222.996 115.838 225.595L115.439 229.3C115.4 229.673 115.233 230.008 114.963 230.239C114.86 230.355 114.731 230.432 114.564 230.471C114.448 230.535 114.294 230.561 114.114 230.561L114.101 230.535ZM111.63 226.341C111.785 226.341 111.939 226.379 112.068 226.47C112.338 226.637 112.492 226.958 112.48 227.28L112.377 229.043C112.776 229.171 113.11 229.261 113.509 229.326L113.676 229.39C113.779 229.442 114.075 229.467 114.178 229.442H114.191H114.204C114.268 229.377 114.319 229.274 114.332 229.171L114.757 225.299C115.529 222.983 115.31 221.555 114.988 220.783C114.937 220.654 114.847 220.616 114.795 220.603C114.744 220.603 114.667 220.603 114.59 220.667C114.062 221.182 113.625 221.619 113.316 221.954L113.277 222.275L113.084 222.777C111.759 224.797 108.967 225.324 106.433 224.012C105.867 223.716 104.902 223.099 104.824 222.275C104.824 222.147 104.824 222.018 104.85 221.902C104.117 221.812 103.396 221.902 103.049 222.481C102.882 222.751 102.843 223.021 102.933 223.33C103.216 224.334 104.824 225.569 107.681 226.997C108.157 227.241 108.684 227.344 109.225 227.306C109.713 227.267 110.189 227.1 110.614 226.83L111.154 226.47C111.309 226.392 111.45 226.354 111.605 226.354L111.63 226.341Z" fill="#350B00"/>
<path d="M111.415 224.084L111.115 226.29L112.186 226.435L112.486 224.229L111.415 224.084Z" fill="#E59636"/>
<path d="M102.162 226.511L97.3759 227.681L92.1523 225.7L92.8342 224.452L94.5068 223.899C94.5068 223.899 96.6811 223.539 97.0156 222.419C97.3502 221.287 100.489 222.419 100.489 222.419L102.651 224.272L102.162 226.524V226.511Z" fill="#E59636"/>
<path d="M97.3377 228.414L91.1621 226.06L92.3715 223.86L94.4172 223.191C95.1505 223.075 96.2313 222.663 96.3599 222.2C96.4628 221.852 96.6944 221.569 97.0289 221.402C98.0968 220.849 100.142 221.518 100.747 221.737L100.966 221.865L103.449 223.988L102.78 227.089L97.3635 228.414H97.3377ZM93.1692 225.326L97.4278 226.947L101.571 225.931L101.879 224.516L100.142 223.023C99.1004 222.663 97.9167 222.496 97.6594 222.663C97.2863 224.04 95.1505 224.49 94.7002 224.567L93.3364 225.017L93.1692 225.313V225.326Z" fill="#350B00"/>
<path d="M118.913 199.195C118.913 199.195 109.212 196.03 106.588 193.663C106.588 193.663 108.286 197.163 106.215 202.939C104.594 207.468 103.835 218.147 103.32 221.981C103.191 222.971 102.445 223.718 101.544 223.769L100.695 223.885C99.6274 223.949 97.4917 223.036 97.4531 221.852C97.2344 214.043 96.6297 187.462 98.4309 185.069C100.554 182.264 107.54 179.459 111.039 180.09C114.539 180.72 124.896 182.341 124.896 182.341L118.926 199.195H118.913Z" fill="white"/>
<path d="M100.605 224.58C99.5884 224.58 98.2889 224.065 97.517 223.37C97.0281 222.92 96.7579 222.405 96.745 221.865C96.3848 208.999 96.0503 187.037 97.8643 184.631C100.142 181.62 107.462 178.713 111.155 179.382C114.603 179.999 124.896 181.62 124.998 181.633L125.835 181.762L119.35 200.057L118.694 199.839C118.347 199.723 111.515 197.484 107.784 195.323C108.067 197.008 108.118 199.697 106.87 203.145C105.661 206.516 104.928 213.592 104.439 218.275C104.284 219.806 104.143 221.132 104.014 222.058C103.834 223.37 102.818 224.374 101.583 224.451L100.785 224.554C100.785 224.554 100.669 224.554 100.605 224.554V224.58ZM109.907 180.694C106.459 180.694 100.811 183.087 98.9965 185.493C97.9029 186.934 97.5813 201.202 98.1603 221.826C98.1603 221.968 98.2761 222.148 98.4819 222.328C99.0609 222.856 100.116 223.216 100.656 223.177L101.454 223.074C102.071 223.036 102.535 222.534 102.625 221.891C102.753 220.977 102.882 219.678 103.036 218.16C103.564 213.129 104.284 206.233 105.545 202.708C107.475 197.317 105.97 194.01 105.944 193.972L104.439 190.781L107.051 193.135C109.148 195.027 116.275 197.548 118.475 198.295L123.931 182.894C121.396 182.495 113.779 181.286 110.897 180.771C110.589 180.72 110.254 180.694 109.894 180.694H109.907Z" fill="#350B00"/>
<path d="M91.267 224.541C91.9103 223.473 93.3513 223.576 94.5092 223.885C94.432 223.937 94.3548 223.975 94.2905 224.039C93.6729 224.528 94.239 225.3 95.3584 225.879C97.5584 227.024 100.093 226.69 101.302 224.837L101.431 224.451V224.091C101.431 224.091 101.444 224.091 101.457 224.091C101.843 223.653 102.435 223.074 102.885 222.637C103.297 222.251 103.927 222.38 104.159 222.92C104.519 223.795 104.776 225.352 103.953 227.822L103.554 231.579C103.528 231.823 103.412 232.055 103.219 232.196C103.194 232.248 103.129 232.274 103.065 232.286C102.833 232.402 102.293 232.325 102.087 232.209C101.65 232.132 101.277 232.042 100.826 231.888C100.621 231.823 100.479 231.605 100.492 231.36L100.595 229.597C100.608 229.327 100.35 229.147 100.132 229.263L99.5784 229.61C99.0766 229.932 98.5105 230.125 97.9315 230.176C97.3011 230.228 96.6835 230.099 96.1046 229.816C93.3899 228.452 90.0834 226.471 91.2541 224.541H91.267Z" fill="#350B00"/>
<path d="M102.767 232.891C102.471 232.891 102.149 232.827 101.93 232.724C101.506 232.647 101.133 232.557 100.67 232.402C100.232 232.261 99.9491 231.81 99.9748 231.334L100.052 229.984L99.8976 230.086C99.3187 230.46 98.6625 230.678 98.0063 230.73C97.2858 230.794 96.5525 230.64 95.8963 230.318C92.6155 228.671 90.9816 227.333 90.5956 225.982C90.4283 225.39 90.5055 224.811 90.8272 224.284C91.2904 223.525 92.3196 222.766 94.6741 223.383L95.8577 223.692L94.8285 224.361C94.7513 224.413 94.6998 224.438 94.6483 224.477C94.5969 224.618 94.8285 225.004 95.6262 225.416C97.6332 226.458 99.8076 226.111 100.837 224.606L100.927 224.361L100.953 223.847L101.133 223.692C101.493 223.293 101.956 222.817 102.535 222.251C102.857 221.942 103.294 221.814 103.719 221.904C104.143 221.994 104.516 222.303 104.684 222.727C105.07 223.679 105.366 225.352 104.504 227.951L104.105 231.656C104.066 232.029 103.899 232.364 103.629 232.595C103.526 232.711 103.397 232.788 103.23 232.827C103.114 232.891 102.96 232.917 102.78 232.917L102.767 232.891ZM100.296 228.697C100.451 228.697 100.605 228.736 100.734 228.826C101.004 228.993 101.158 229.315 101.146 229.636L101.043 231.399C101.442 231.527 101.776 231.618 102.175 231.682L102.342 231.746C102.445 231.798 102.741 231.823 102.844 231.798H102.857H102.87C102.934 231.733 102.985 231.63 102.998 231.527L103.423 227.655C104.195 225.339 103.976 223.911 103.654 223.139C103.603 223.01 103.513 222.972 103.461 222.959C103.41 222.959 103.333 222.959 103.256 223.023C102.728 223.538 102.291 223.975 101.982 224.31L101.943 224.631L101.75 225.133C100.425 227.153 97.6332 227.681 95.0987 226.368C94.5326 226.072 93.5676 225.455 93.4904 224.631C93.4904 224.503 93.4904 224.374 93.5161 224.258C92.7828 224.168 92.0623 224.258 91.7149 224.837C91.5477 225.107 91.5091 225.378 91.5991 225.686C91.8822 226.69 93.4904 227.925 96.3466 229.353C96.8227 229.598 97.3502 229.7 97.8905 229.662C98.3794 229.623 98.8555 229.456 99.2801 229.186L99.8204 228.826C99.9748 228.748 100.116 228.71 100.271 228.71L100.296 228.697Z" fill="#350B00"/>
<path d="M100.063 226.432L99.7637 228.638L100.835 228.783L101.134 226.578L100.063 226.432Z" fill="#E59636"/>
<path opacity="0.3" d="M216.501 203.943V200.636L191.889 186.419H186.163L161.551 200.636V203.943L186.163 218.146H191.889L216.501 203.943Z" fill="black"/>
<path d="M158.707 167.262L161.563 162.296L163.853 163.827L161.846 168.343L158.707 167.262Z" fill="#350B00"/>
<path d="M216.5 162.296L219.382 167.262L217.401 168.279L214.352 164.625L216.5 162.309V162.296Z" fill="#350B00"/>
<path d="M191.888 210.659H186.176V214.84H191.888V210.659Z" fill="#350B00"/>
<path d="M193.213 178.712H185.262V185.21H193.213V178.712Z" fill="#350B00"/>
<path d="M186.058 179.936L188.875 184.825V213.091L186.174 214.661L161.677 200.521L158.859 195.658V167.379L161.548 165.822L186.045 179.962L186.058 179.936Z" fill="#350B00"/>
<path d="M216.499 165.796L219.214 167.352V195.631L216.397 200.495L191.9 214.634L189.211 213.065V184.798L192.029 179.909L216.512 165.77L216.499 165.796Z" fill="#E59636" stroke="#350B00" stroke-width="1.40327"/>
<path d="M191.864 148.259L216.348 162.399V165.512L191.864 179.652H186.229L161.732 165.512V162.399L186.229 148.259H191.864Z" fill="white" stroke="#350B00" stroke-width="1.40327"/>
<path d="M170.799 189.494L144.617 206.142" stroke="#350B00" stroke-width="2.80653" stroke-linecap="round" stroke-linejoin="round"/>
<path d="M206.539 189.494L232.721 206.142" stroke="#350B00" stroke-width="2.80653" stroke-linecap="round" stroke-linejoin="round"/>
<path opacity="0.3" d="M163.97 246.078V242.772L139.357 228.555H133.632L109.02 242.772V246.078L133.632 260.282H139.357L163.97 246.078Z" fill="black"/>
<path d="M106.162 209.397L109.018 204.431L111.308 205.962L109.301 210.478L106.162 209.397Z" fill="#350B00"/>
<path d="M163.969 204.444L166.851 209.41L164.87 210.426L161.82 206.772L163.969 204.457V204.444Z" fill="#350B00"/>
<path d="M139.355 252.793H133.643V256.975H139.355V252.793Z" fill="#350B00"/>
<path d="M140.67 220.86H132.719V227.357H140.67V220.86Z" fill="#350B00"/>
<path d="M133.513 222.071L136.331 226.96V255.226L133.629 256.796L109.132 242.656L106.314 237.793V209.514L109.003 207.957L133.5 222.096L133.513 222.071Z" fill="#350B00"/>
<path d="M163.968 207.931L166.683 209.488V237.767L163.865 242.631L139.369 256.77L136.68 255.2V226.934L139.497 222.045L163.981 207.906L163.968 207.931Z" fill="#E59636" stroke="#350B00" stroke-width="1.40327"/>
<path d="M139.319 190.394L163.803 204.534V207.648L139.319 221.787H133.684L109.188 207.648V204.534L133.684 190.394H139.319Z" fill="white" stroke="#350B00" stroke-width="1.40327"/>
<path d="M153.74 233.083L179.922 249.731" stroke="#350B00" stroke-width="2.80653" stroke-linecap="round" stroke-linejoin="round"/>
<path opacity="0.3" d="M270.138 246.078V242.772L245.525 228.555H239.8L215.188 242.772V246.078L239.8 260.282H245.525L270.138 246.078Z" fill="black"/>
<path d="M212.33 209.397L215.186 204.431L217.476 205.962L215.469 210.478L212.33 209.397Z" fill="#350B00"/>
<path d="M270.137 204.444L273.019 209.41L271.037 210.426L267.988 206.772L270.137 204.457V204.444Z" fill="#350B00"/>
<path d="M245.525 252.793H239.812V256.975H245.525V252.793Z" fill="#350B00"/>
<path d="M246.85 220.86H238.898V227.357H246.85V220.86Z" fill="#350B00"/>
<path d="M239.683 222.071L242.5 226.96V255.226L239.799 256.796L215.302 242.656L212.484 237.793V209.514L215.173 207.957L239.67 222.097L239.683 222.071Z" fill="#350B00"/>
<path d="M270.136 207.931L272.851 209.488V237.767L270.033 242.631L245.537 256.77L242.848 255.201V226.934L245.665 222.045L270.149 207.906L270.136 207.931Z" fill="#E59636" stroke="#350B00" stroke-width="1.40327"/>
<path d="M245.487 190.394L269.971 204.534V207.648L245.487 221.787H239.852L215.355 207.648V204.534L239.852 190.394H245.487Z" fill="white" stroke="#350B00" stroke-width="1.40327"/>
<path d="M225.426 232.17L199.244 248.831" stroke="#350B00" stroke-width="2.80653" stroke-linecap="round" stroke-linejoin="round"/>
<path d="M189.054 193.328L189.016 235.863" stroke="#350B00" stroke-width="2.80653" stroke-linecap="round" stroke-linejoin="round"/>
<path opacity="0.3" d="M216.501 289.321V286.014L191.889 271.797H186.163L161.551 286.014V289.321L186.163 303.524H191.889L216.501 289.321Z" fill="black"/>
<path d="M158.707 252.64L161.563 247.674L163.853 249.205L161.846 253.721L158.707 252.64Z" fill="#350B00"/>
<path d="M216.5 247.674L219.382 252.64L217.401 253.657L214.352 250.003L216.5 247.687V247.674Z" fill="#350B00"/>
<path d="M191.888 296.037H186.176V300.218H191.888V296.037Z" fill="#350B00"/>
<path d="M193.213 264.09H185.262V270.588H193.213V264.09Z" fill="#350B00"/>
<path d="M186.058 265.3L188.875 270.189V298.455L186.174 300.025L161.677 285.885L158.859 281.022V252.743L161.548 251.186L186.045 265.326L186.058 265.3Z" fill="#350B00"/>
<path d="M216.499 251.174L219.214 252.73V281.01L216.397 285.873L191.9 300.012L189.211 298.443V270.176L192.029 265.287L216.512 251.148L216.499 251.174Z" fill="#E59636" stroke="#350B00" stroke-width="1.40327"/>
<path d="M191.864 233.637L216.348 247.777V250.89L191.864 265.03H186.229L161.732 250.89V247.777L186.229 233.637H191.864Z" fill="white" stroke="#350B00" stroke-width="1.40327"/>
<path d="M106.91 147.794L87.1612 159.039C86.3506 159.515 84.9225 159.45 83.9833 158.91L78.4381 155.706C77.4989 155.166 77.396 154.342 78.2065 153.866L97.9556 142.622C98.7662 142.146 100.194 142.21 101.133 142.75L106.679 145.954C107.618 146.494 107.721 147.318 106.91 147.794Z" fill="#E59636"/>
<path d="M85.7712 159.888C85.0507 159.888 84.3045 159.708 83.6998 159.373L78.1546 156.17C77.4856 155.784 77.0996 155.23 77.0996 154.664C77.0996 154.15 77.3955 153.699 77.923 153.404L97.685 142.159C98.6628 141.593 100.297 141.657 101.403 142.287L106.948 145.491C107.617 145.877 108.003 146.43 108.003 146.996C108.003 147.511 107.708 147.961 107.18 148.257L87.4309 159.502C86.9806 159.759 86.3888 159.888 85.7841 159.888H85.7712ZM99.3318 142.841C98.9073 142.841 98.5084 142.918 98.2254 143.085L78.4634 154.33C78.3862 154.381 78.1803 154.51 78.1803 154.652C78.1803 154.78 78.309 154.999 78.6821 155.218L84.2273 158.421C84.9993 158.872 86.2086 158.936 86.8648 158.55L106.614 147.305C106.704 147.254 106.897 147.125 106.897 146.983C106.897 146.855 106.768 146.636 106.395 146.417L100.85 143.214C100.413 142.969 99.8465 142.841 99.319 142.841H99.3318Z" fill="white"/>
<path d="M89.7345 88.9196L111.516 76.3497C112.494 75.7836 113.292 76.3882 113.292 77.6877V87.6716C113.292 88.9839 112.494 90.5021 111.516 91.0682L109.008 92.5092C108.789 93.6028 107.94 96.5491 105.161 98.1444C105.019 98.2216 104.916 98.1058 104.981 97.9129C105.225 97.2438 105.585 95.88 105.289 94.6449L89.7345 103.625C88.7567 104.191 87.959 103.587 87.959 102.287V92.3033C87.959 90.991 88.7567 89.4728 89.7345 88.9067V88.9196Z" fill="#E59636"/>
<path d="M89.0274 104.398C88.77 104.398 88.5256 104.333 88.294 104.205C87.7279 103.883 87.4062 103.188 87.4062 102.3V92.3165C87.4062 90.8112 88.3069 89.1129 89.4519 88.4568L111.234 75.8868C111.839 75.5394 112.443 75.5008 112.945 75.7968C113.511 76.1184 113.833 76.8132 113.833 77.7009V87.6848C113.833 89.1901 112.932 90.8884 111.787 91.5446L109.484 92.8698C109.162 94.2336 108.197 97.0383 105.431 98.6337C105.174 98.7752 104.878 98.7623 104.659 98.5822C104.428 98.3892 104.363 98.0676 104.479 97.7588C104.621 97.36 104.891 96.4722 104.865 95.5459L90.018 104.115C89.6835 104.308 89.349 104.398 89.0402 104.398H89.0274ZM90.0052 89.396C89.1946 89.872 88.4998 91.2101 88.4998 92.3165V102.3C88.4998 102.776 88.6285 103.15 88.8472 103.265C89.0531 103.381 89.3233 103.265 89.4648 103.175L105.637 93.8347L105.817 94.5295C106.036 95.4043 105.946 96.3436 105.792 97.064C107.644 95.5459 108.288 93.3587 108.481 92.4066L108.532 92.1621L111.247 90.5925C112.057 90.1165 112.752 88.7784 112.752 87.672V77.688C112.752 77.212 112.623 76.8389 112.405 76.7231C112.212 76.6073 111.929 76.7231 111.787 76.8132L90.0052 89.3831V89.396Z" fill="white"/>
<path d="M107.793 83.7123L92.9277 92.2913L93.4679 93.2273L108.333 84.6484L107.793 83.7123Z" fill="white"/>
<path d="M107.787 87.1174L92.9238 95.699L93.4642 96.6349L108.328 88.0534L107.787 87.1174Z" fill="white"/>
<path d="M78.3849 76.6841L91.5338 69.2348C92.5116 68.6687 93.3093 69.2734 93.3093 70.5728V74.9215C93.3093 76.2338 92.5116 77.752 91.5338 78.3181L88.4074 80.1193C88.1629 81.2515 87.3009 84.1463 84.5734 85.716C84.4318 85.7932 84.3289 85.6774 84.3932 85.4844C84.6248 84.8282 84.9979 83.4644 84.702 82.255L78.3849 85.7674C77.4071 86.3335 76.6094 85.7288 76.6094 84.4294V80.0807C76.6094 78.7684 77.4071 77.2502 78.3849 76.6841Z" fill="#E59636"/>
<path d="M77.6777 86.5265C77.4204 86.5265 77.176 86.4622 76.9444 86.3335C76.3783 86.0119 76.0566 85.3171 76.0566 84.4294V80.0807C76.0566 78.5754 76.9573 76.8771 78.1023 76.2209L91.2512 68.7716C91.8431 68.4242 92.4478 68.3985 92.9495 68.6815C93.5156 69.0032 93.8373 69.6979 93.8373 70.5857V74.9343C93.8373 76.4397 92.9367 78.1379 91.7916 78.7941L88.8711 80.4795C88.5494 81.8305 87.5716 84.6224 84.8312 86.192C84.5738 86.3335 84.2779 86.3206 84.0592 86.1405C83.8276 85.9475 83.7633 85.6259 83.8791 85.3171C84.0206 84.9183 84.2908 84.0434 84.2651 83.1299L78.6427 86.2563C78.321 86.4493 77.9865 86.5394 77.6777 86.5394V86.5265ZM78.6555 77.1473C77.845 77.6233 77.1502 78.9614 77.1502 80.0678V84.4165C77.1502 84.8925 77.2789 85.2656 77.4976 85.3814C77.7035 85.4972 77.9737 85.3814 78.1152 85.2914L85.0628 81.4316L85.23 82.1264C85.4359 83.0013 85.3458 83.9147 85.1914 84.6224C87.0312 83.117 87.6745 80.9556 87.8675 80.0035L87.919 79.7719L91.2512 77.8549C92.0618 77.3789 92.7565 76.0408 92.7565 74.9343V70.5857C92.7565 70.1096 92.6279 69.7365 92.4092 69.6207C92.2162 69.505 91.9331 69.6207 91.7916 69.7108L78.6427 77.1601L78.6555 77.1473Z" fill="white"/>
<path d="M75.1466 119.799L96.9285 107.229C97.9063 106.663 98.704 107.267 98.704 108.567V127.132C98.704 128.445 97.9063 129.963 96.9285 130.529L83.4193 138.326C83.0977 139.934 83.4708 140.886 83.7153 141.285C83.7796 141.401 83.6767 141.632 83.5351 141.722C80.7175 143.356 79.8941 141.298 79.6754 140.487L75.1466 143.099C74.1688 143.665 73.3711 143.06 73.3711 141.761V123.195C73.3711 121.883 74.1688 120.365 75.1466 119.799Z" fill="#E59636"/>
<path d="M74.4383 143.87C74.181 143.87 73.9365 143.806 73.7178 143.677C73.1517 143.356 72.8301 142.661 72.8301 141.773V123.208C72.8301 121.702 73.7307 120.004 74.8758 119.348L96.6577 106.778C97.2624 106.431 97.8671 106.392 98.3688 106.688C98.9349 107.01 99.2566 107.704 99.2566 108.592V127.157C99.2566 128.663 98.356 130.361 97.2109 131.017L83.9205 138.685C83.7017 140.023 84.0363 140.757 84.1906 141.014C84.2936 141.181 84.3193 141.387 84.2678 141.593C84.2035 141.85 84.0363 142.069 83.8304 142.198C82.6339 142.892 81.6046 143.06 80.7683 142.712C80.0607 142.416 79.649 141.825 79.4174 141.297L75.4547 143.587C75.1202 143.78 74.7857 143.87 74.4769 143.87H74.4383ZM75.4161 120.274C74.6056 120.75 73.9108 122.088 73.9108 123.195V141.76C73.9108 142.236 74.0395 142.609 74.2582 142.725C74.464 142.841 74.7342 142.725 74.8758 142.635L80.0221 139.663L80.2022 140.358C80.2794 140.68 80.5496 141.451 81.1543 141.696C81.6432 141.902 82.2994 141.773 83.1228 141.323C82.8783 140.808 82.5695 139.779 82.8912 138.222L82.9427 137.978L96.6705 130.052C97.4811 129.576 98.1758 128.238 98.1758 127.132V108.566C98.1758 108.09 98.0472 107.717 97.8285 107.601C97.6226 107.486 97.3524 107.601 97.2109 107.691L75.429 120.261L75.4161 120.274Z" fill="white"/>
<path d="M93.1996 115.3L78.3359 123.881L78.8763 124.817L93.74 116.236L93.1996 115.3Z" fill="white"/>
<path d="M93.1972 118.702L78.332 127.281L78.8722 128.217L93.7374 119.638L93.1972 118.702Z" fill="white"/>
<path d="M93.1996 122.106L78.3359 130.688L78.8763 131.624L93.74 123.042L93.1996 122.106Z" fill="white"/>
<path d="M93.203 125.512L78.3379 134.091L78.8781 135.027L93.7432 126.448L93.203 125.512Z" fill="white"/>
<path d="M108.097 151.564L105.254 149.724C104.199 149.042 102.977 148.72 101.742 148.81C100.146 148.926 99.0912 149.261 98.2678 150.779L98.1777 151.512L100.957 152.477L101.047 152.889L100.133 153.313C100.133 153.313 100.944 156.234 105.987 155.539C110.606 154.896 108.072 151.564 108.072 151.564H108.097Z" fill="white"/>
<path d="M104.533 156.337C100.326 156.337 99.5151 153.622 99.4765 153.494L99.3093 152.915L99.6566 152.747L97.418 151.976L97.6496 150.432C98.6016 148.669 99.9011 148.232 101.689 148.103C103.066 148 104.443 148.36 105.626 149.132L108.65 151.139C108.779 151.307 109.924 152.876 109.306 154.356C108.894 155.359 107.814 155.99 106.09 156.234C105.511 156.311 104.996 156.35 104.507 156.35L104.533 156.337ZM101.136 153.622C101.638 154.266 102.899 155.243 105.922 154.819C106.733 154.703 107.762 154.446 108.019 153.803C108.264 153.224 107.839 152.413 107.608 152.066L104.88 150.303C103.941 149.698 102.886 149.428 101.805 149.505C100.416 149.608 99.618 149.853 98.9747 150.985V151.011L101.599 151.924L101.895 153.275L101.149 153.622H101.136Z" fill="#350B00"/>
<path d="M110.85 152.567L109.203 151.602C108.959 151.461 108.65 151.473 108.431 151.666C107.904 152.117 106.952 153.094 106.398 154.638C106.257 155.024 106.45 155.475 106.797 155.629L108.65 156.504C108.972 156.658 109.332 156.53 109.538 156.221L111.107 153.725C111.352 153.326 111.236 152.786 110.85 152.567Z" fill="#350B00"/>
<path d="M108.945 157.276C108.753 157.276 108.547 157.238 108.354 157.148L106.501 156.273C105.806 155.951 105.472 155.128 105.729 154.394C106.347 152.696 107.402 151.615 107.968 151.126C108.418 150.74 109.048 150.689 109.563 150.998L111.21 151.963C111.557 152.169 111.802 152.503 111.892 152.902C111.995 153.314 111.918 153.751 111.699 154.098L110.129 156.594C109.859 157.032 109.409 157.276 108.933 157.276H108.945ZM108.855 152.207C108.431 152.593 107.569 153.481 107.067 154.87C107.054 154.909 107.093 154.973 107.106 154.986L108.958 155.861L110.515 153.339C110.515 153.339 110.541 153.262 110.528 153.224L110.502 153.172L108.855 152.207Z" fill="#350B00"/>
<path d="M129.774 150.716C129.375 151.951 130.366 149.146 129.774 150.716C128.127 155.077 126.159 159.838 126.159 159.838C126.159 159.838 121.437 157.535 117.95 156.299C114.863 155.193 112.302 153.327 111.762 152.916C111.685 152.864 111.62 152.851 111.53 152.877C110.99 153.057 108.996 153.893 108.867 156.428C108.867 156.544 108.893 156.647 108.97 156.711C110.192 157.83 120.987 167.583 129.002 169.371C129.002 169.371 133.634 165.138 135.911 157.226C138.201 149.313 130.726 147.718 129.761 150.716H129.774Z" fill="#E59636"/>
<path d="M129.221 170.13L128.861 170.053C120.666 168.226 109.717 158.345 108.507 157.225C108.276 157.019 108.16 156.711 108.173 156.376C108.302 154.022 109.884 152.671 111.312 152.195C111.621 152.092 111.93 152.143 112.2 152.336C112.676 152.697 115.198 154.536 118.208 155.617C120.936 156.595 124.371 158.177 125.812 158.859C126.417 157.393 127.87 153.79 129.118 150.471C129.144 150.394 129.17 150.316 129.209 150.252C129.311 149.982 129.44 149.737 129.62 149.596C130.418 148.682 131.872 148.335 133.377 148.785C136.002 149.583 138.022 152.568 136.619 157.405C134.303 165.408 129.697 169.692 129.504 169.872L129.234 170.117L129.221 170.13ZM109.588 156.299C111.248 157.817 121.232 166.682 128.797 168.586C129.788 167.569 133.364 163.568 135.256 157.019C136.465 152.825 134.767 150.689 132.953 150.136C132.065 149.866 130.984 149.969 130.559 150.664C130.559 150.689 130.547 150.715 130.534 150.741C130.457 150.96 130.379 151.178 130.276 151.358C128.681 155.579 126.828 160.043 126.815 160.094L126.532 160.789L125.863 160.468C125.863 160.468 121.129 158.165 117.732 156.955C114.837 155.926 112.367 154.215 111.557 153.623C110.952 153.88 109.755 154.601 109.601 156.312L109.588 156.299Z" fill="#350B00"/>
<path d="M149.676 160.595C149.676 160.595 152.262 177.565 153.677 186.829C155.092 196.092 143.153 200.968 135.459 201.895C127.765 202.821 119.724 198.665 117.318 194.728C114.912 190.791 111.232 188.862 111.232 188.862C111.232 188.862 120.998 182.043 123.802 164.584C126.607 147.125 136.334 144.333 136.887 144.346C137.427 144.346 149.676 160.595 149.676 160.595Z" fill="#350B00"/>
<path d="M133.247 202.731C126.145 202.731 119.095 198.987 116.715 195.102C114.45 191.383 110.938 189.505 110.899 189.492L109.883 188.952L110.822 188.283C110.912 188.218 120.381 181.387 123.109 164.468C126.12 145.684 136.785 143.638 136.901 143.638C137.339 143.638 137.789 143.651 150.243 160.171L150.346 160.312L150.372 160.492C150.372 160.492 152.958 177.463 154.373 186.726C154.798 189.531 154.116 192.13 152.353 194.471C148.828 199.116 141.378 201.895 135.55 202.602C134.791 202.693 134.019 202.744 133.247 202.744V202.731ZM112.469 188.785C113.755 189.634 116.161 191.474 117.924 194.368C120.047 197.842 127.715 202.126 135.383 201.2C140.915 200.531 147.966 197.932 151.234 193.622C152.765 191.602 153.357 189.351 152.983 186.945C151.645 178.235 149.278 162.705 149.008 160.891C144.788 155.295 138.046 146.507 136.695 145.105C135.383 145.517 127.072 148.694 124.498 164.7C122.131 179.47 114.939 186.7 112.469 188.797V188.785Z" fill="#350B00"/>
<path d="M114.782 190.276L114.178 189.376C121.974 184.165 125.731 172.187 125.77 172.071L126.812 172.393C126.658 172.895 122.914 184.86 114.782 190.276Z" fill="#E59636"/>
<path d="M97.3557 156.326C97.3557 156.326 96.3521 153.547 95.0655 152.531C94.1006 151.771 93.3286 152.608 93.007 153.071C92.9041 153.225 92.7111 153.277 92.5567 153.187L89.6619 151.578C89.3274 151.385 88.9156 151.475 88.6841 151.81C88.2338 152.44 87.7448 153.663 88.4911 155.58C89.649 158.526 94.6152 159.632 94.6152 159.632L97.3685 156.326H97.3557Z" fill="white"/>
<path d="M94.872 160.417L94.4474 160.327C94.2287 160.276 89.1081 159.105 87.8215 155.837C86.9338 153.573 87.6157 152.093 88.1046 151.411C88.542 150.794 89.3397 150.614 89.9958 150.974L92.6076 152.428C92.9293 152.042 93.3924 151.643 94.01 151.54C94.3574 151.488 94.8977 151.514 95.4896 151.977C96.9048 153.084 97.9084 155.786 98.0113 156.094L98.1528 156.48L94.872 160.417ZM89.3139 152.196C88.8636 152.775 88.5163 153.753 89.1338 155.322C89.9572 157.432 93.1994 158.513 94.3445 158.835L96.5446 156.197C96.1843 155.31 95.4124 153.714 94.6147 153.084C94.3831 152.904 94.2544 152.929 94.2158 152.929C94.0357 152.955 93.7913 153.161 93.5726 153.47C93.2638 153.92 92.6719 154.062 92.1959 153.804L89.3011 152.196H89.3139Z" fill="#350B00"/>
<path d="M99.2977 157.587L97.7924 156.004C97.5609 155.76 97.2392 155.683 96.9433 155.811C96.2485 156.12 94.9619 156.866 93.9455 158.333C93.6882 158.706 93.7783 159.246 94.1128 159.542L95.8754 161.099C96.1713 161.369 96.6088 161.356 96.9047 161.099L99.272 158.938C99.6451 158.603 99.658 157.973 99.3106 157.613L99.2977 157.587Z" fill="#350B00"/>
<path d="M96.3777 162.001C96.0304 162.001 95.683 161.872 95.3999 161.627L93.6373 160.071C93.0326 159.53 92.9039 158.591 93.3671 157.935C94.4865 156.314 95.9017 155.516 96.6608 155.169C97.2269 154.911 97.8702 155.053 98.3076 155.516L99.8129 157.099C100.109 157.407 100.276 157.845 100.25 158.282C100.237 158.72 100.045 159.144 99.7357 159.427L97.3684 161.589C97.0854 161.846 96.7251 161.988 96.3777 161.988V162.001ZM97.2912 156.494C96.6222 156.738 95.4514 157.407 94.5379 158.745C94.4865 158.81 94.5122 158.951 94.5894 159.016L96.352 160.572L98.7965 158.398C98.7965 158.398 98.8608 158.308 98.8608 158.244C98.8608 158.179 98.848 158.115 98.8094 158.076L97.3041 156.494H97.2912Z" fill="#350B00"/>
<path d="M128.877 153.018C128.35 152.156 127.411 151.822 126.523 152.002C126.085 152.092 125.661 152.298 125.301 152.632C124.284 153.584 122.547 155.399 120.849 158.062C118.186 162.205 112.396 169.783 112.396 169.783C112.396 169.783 108.305 166.077 105.178 163.787C102.399 161.754 100.328 159.13 99.9033 158.564C99.8519 158.486 99.7747 158.448 99.6846 158.448C99.1185 158.461 96.9184 158.679 96.1594 161.162C96.1336 161.265 96.1465 161.368 96.1979 161.458C97.0857 162.874 104.754 174.929 112.01 179.561C112.499 179.869 113.117 179.805 113.554 179.419C115.831 177.412 122.869 170.979 126.394 165.061C130.64 157.933 129.868 154.652 128.916 153.031C128.916 153.018 128.89 152.993 128.89 152.98L128.877 153.018Z" fill="#E59636"/>
<path d="M112.651 180.501C112.291 180.501 111.931 180.398 111.609 180.192C104.211 175.47 96.4401 163.248 95.5781 161.871C95.4237 161.614 95.3722 161.292 95.4623 160.996C96.1699 158.68 98.0869 157.818 99.6566 157.78C99.9911 157.78 100.261 157.908 100.454 158.166C100.84 158.667 102.873 161.266 105.588 163.248C108.019 165.023 111.043 167.673 112.291 168.78C113.719 166.901 118.08 161.099 120.255 157.702C121.953 155.052 123.677 153.212 124.822 152.131C125.26 151.72 125.8 151.437 126.379 151.321C127.601 151.064 128.823 151.591 129.48 152.659L129.505 152.698C131.217 155.605 130.393 159.774 126.997 165.473C123.407 171.52 116.151 178.12 114.015 179.999C113.629 180.346 113.14 180.514 112.664 180.514L112.651 180.501ZM96.8518 161.253C98.0355 163.132 105.433 174.569 112.368 179.008C112.587 179.15 112.857 179.111 113.076 178.931C115.173 177.091 122.288 170.607 125.774 164.74C128.836 159.594 129.686 155.785 128.296 153.431L128.875 153.032L128.27 153.405C127.923 152.839 127.305 152.582 126.649 152.71C126.328 152.775 126.019 152.929 125.774 153.174C124.694 154.19 123.047 155.94 121.426 158.474C118.788 162.591 112.998 170.169 112.934 170.247L112.471 170.851L111.905 170.337C111.905 170.337 107.801 166.631 104.739 164.393C102.114 162.476 100.094 160.018 99.4636 159.208C98.8074 159.272 97.4308 159.606 96.8518 161.266V161.253Z" fill="#350B00"/>
<path d="M111.452 173.166C111.143 171.622 111.671 169.679 111.684 169.602L113.048 169.975C113.048 169.975 112.597 171.686 112.829 172.896L111.452 173.166Z" fill="#350B00"/>
<path d="M130.198 142.005C130.198 142.005 131.459 146.212 130.379 148.219C129.298 150.213 134.418 149.66 134.418 149.66L139.616 145.929C139.616 145.929 138.059 143.407 138.162 141.245C138.265 139.084 138.497 138.878 137.995 139.02C137.493 139.174 130.186 142.005 130.186 142.005H130.198Z" fill="#E59636"/>
<path d="M132.951 150.445C131.716 150.445 130.288 150.252 129.748 149.454C129.568 149.197 129.336 148.643 129.748 147.871C130.52 146.443 129.838 143.291 129.516 142.198L129.336 141.58L129.941 141.348C130.687 141.053 137.287 138.505 137.789 138.338C137.943 138.286 138.355 138.171 138.689 138.441C139.063 138.737 139.024 139.136 138.96 139.805C138.934 140.139 138.882 140.615 138.857 141.258C138.767 143.175 140.195 145.517 140.208 145.543L140.555 146.096L134.675 150.316L134.495 150.342C134.109 150.38 133.556 150.432 132.951 150.432V150.445ZM131.047 142.429C131.382 143.767 131.961 146.778 131.009 148.541C130.944 148.656 130.944 148.708 130.944 148.708C131.163 148.965 132.707 149.107 134.161 148.965L138.702 145.71C138.226 144.784 137.39 142.918 137.467 141.194C137.493 140.667 137.519 140.255 137.557 139.92C136.219 140.422 133.324 141.541 131.06 142.416L131.047 142.429Z" fill="#350B00"/>
<path d="M130.61 121.507C130.61 121.507 124.203 121.25 122.119 126.744C120.034 132.238 124.28 136.406 124.28 136.406C124.28 136.406 129.697 134.721 130.623 132.16C131.549 129.6 130.597 121.507 130.597 121.507H130.61Z" fill="white"/>
<path d="M124.099 137.205L123.803 136.909C123.623 136.729 119.262 132.341 121.475 126.487C123.7 120.595 130.571 120.788 130.648 120.801L131.253 120.826L131.317 121.418C131.356 121.753 132.282 129.717 131.317 132.393C130.301 135.197 125.103 136.883 124.511 137.076L124.112 137.205H124.099ZM129.992 122.229C128.435 122.319 124.331 122.949 122.8 127.002C121.217 131.183 123.662 134.58 124.511 135.609C126.145 135.03 129.374 133.602 129.979 131.93C130.635 130.128 130.249 124.815 129.979 122.229H129.992Z" fill="#350B00"/>
<path d="M134.3 122.241C134.3 122.241 138.739 118.497 140.45 127.812C141.647 134.297 139.138 138.169 134.313 141.862C132.808 143.007 131.122 143.2 129.643 142.762C127.649 142.171 126.233 140.254 125.603 138.092C124.471 134.219 124.252 130.604 124.998 127.015C124.085 123.168 126.607 123.734 131.148 122.473L134.3 122.254V122.241Z" fill="#E59636"/>
<path d="M131.135 143.689C130.568 143.689 130.002 143.599 129.436 143.432C127.378 142.814 125.679 140.884 124.92 138.285C123.762 134.336 123.544 130.643 124.264 127.015C123.981 125.741 124.058 124.828 124.483 124.133C125.152 123.065 126.503 122.782 128.355 122.396C129.127 122.229 129.989 122.049 130.942 121.778L131.083 121.753L134.029 121.547C134.518 121.199 135.856 120.428 137.362 120.968C139.163 121.611 140.424 123.863 141.131 127.671C142.263 133.795 140.411 138.067 134.724 142.415C133.63 143.252 132.395 143.676 131.122 143.676L131.135 143.689ZM131.263 123.155C130.298 123.425 129.423 123.605 128.651 123.773C127.133 124.094 126.04 124.326 125.679 124.892C125.448 125.252 125.448 125.896 125.679 126.848L125.718 127.002L125.692 127.156C124.985 130.604 125.178 134.117 126.284 137.899C126.915 140.048 128.253 141.618 129.861 142.094C131.263 142.518 132.704 142.235 133.901 141.309C138.288 137.951 140.964 134.387 139.78 127.941C139.034 123.876 137.812 122.628 136.937 122.306C135.843 121.907 134.788 122.769 134.776 122.782L134.595 122.924L131.276 123.155H131.263Z" fill="#350B00"/>
<path d="M131.338 152.761C129.305 153.031 126.012 150.445 127.594 149.029C127.671 148.965 127.736 148.901 127.813 148.862C129.19 147.974 133.229 149.248 135.841 147.563C137.797 146.302 137.784 145.002 137.668 144.423C137.578 144.012 137.72 143.549 138.028 143.291C138.26 143.098 138.607 142.957 139.122 142.995C140.537 143.098 141.618 144.925 141.026 146.675C140.434 148.425 138.286 150.766 135.777 151.654C133.873 152.323 133.397 152.49 131.338 152.773V152.761Z" fill="#E59636"/>
<path d="M131.044 153.494C129.41 153.494 127.364 152.271 126.695 150.83C126.297 149.968 126.451 149.119 127.133 148.502C127.236 148.412 127.339 148.322 127.454 148.257C128.214 147.768 129.359 147.781 130.697 147.794C132.318 147.794 134.145 147.82 135.483 146.958C137.091 145.916 137.078 144.938 137.001 144.565C136.847 143.883 137.078 143.162 137.593 142.738C137.876 142.493 138.39 142.21 139.201 142.275C140.024 142.339 140.796 142.828 141.311 143.6C141.941 144.552 142.096 145.774 141.723 146.881C141.079 148.785 138.776 151.332 136.036 152.297C134.106 152.979 133.591 153.159 131.456 153.442C131.327 153.455 131.198 153.468 131.07 153.468L131.044 153.494ZM130.143 149.209C129.307 149.209 128.535 149.235 128.201 149.454C128.149 149.48 128.111 149.518 128.072 149.557C127.931 149.685 127.802 149.853 127.982 150.239C128.445 151.229 130.182 152.207 131.25 152.066C133.244 151.795 133.682 151.641 135.547 150.985C137.85 150.174 139.844 147.987 140.359 146.443C140.591 145.748 140.5 144.989 140.114 144.398C139.844 143.986 139.458 143.728 139.072 143.69C138.815 143.677 138.609 143.716 138.481 143.819C138.39 143.896 138.326 144.076 138.365 144.256C138.506 144.912 138.596 146.61 136.242 148.129C134.556 149.222 132.408 149.196 130.684 149.184C130.504 149.184 130.336 149.184 130.156 149.184L130.143 149.209Z" fill="#350B00"/>
<path d="M132.658 118.588C129.145 119.038 125.015 121.868 124.243 124.326C123.343 127.221 123.716 128.893 126.688 128.559C127.859 128.43 128.811 131.634 129.248 132.766C129.506 133.435 130.535 133.885 130.921 133.846C131.834 133.744 133.108 134.992 133.25 136.407C133.365 137.565 132.967 138.941 132.31 139.34C134.279 144.011 125.028 149.131 134.189 152.798C134.433 152.901 127.859 161.997 136.363 166.976C143.439 171.132 157.772 169.614 160.95 161.508C166.508 147.369 147.029 144.705 146.103 132.598C145.382 123.142 138.357 117.867 132.645 118.588H132.658Z" fill="white"/>
<path d="M145.846 169.922C142.192 169.922 138.654 169.125 136.016 167.581C132.439 165.484 129.069 161.277 133.263 153.158C131.32 152.27 130.124 151.228 129.635 149.98C128.927 148.153 129.815 146.288 130.677 144.499C131.513 142.763 132.311 141.116 131.667 139.623L131.436 139.057L131.963 138.736C132.272 138.555 132.658 137.513 132.555 136.471C132.504 135.866 132.144 135.223 131.642 134.824C131.359 134.593 131.114 134.528 131.011 134.541C130.317 134.618 128.979 134.001 128.593 133.023C128.528 132.856 128.451 132.65 128.361 132.418C127.46 129.922 126.984 129.331 126.74 129.266C125.286 129.433 124.27 129.15 123.665 128.417C122.957 127.555 122.919 126.191 123.562 124.12C124.411 121.392 128.786 118.369 132.555 117.893C135.36 117.545 138.422 118.523 140.97 120.595C144.353 123.348 146.425 127.594 146.798 132.534C147.184 137.513 151.005 140.923 154.71 144.216C159.728 148.681 164.926 153.313 161.606 161.765C160.384 164.879 157.592 167.272 153.527 168.674C151.108 169.511 148.445 169.922 145.833 169.922H145.846ZM133.134 139.533C133.687 141.45 132.761 143.38 131.938 145.091C131.166 146.687 130.445 148.192 130.934 149.453C131.333 150.469 132.478 151.344 134.447 152.129L134.742 152.245L134.858 152.541C134.974 152.875 134.858 153.081 134.575 153.634C131.487 159.54 132.182 163.695 136.711 166.346C140.841 168.764 147.711 169.176 153.063 167.323C155.611 166.436 158.943 164.66 160.294 161.225C163.253 153.686 158.647 149.594 153.771 145.246C149.86 141.759 145.82 138.169 145.395 132.624C145.048 128.07 143.157 124.171 140.069 121.663C137.817 119.836 135.154 118.961 132.722 119.257C129.532 119.655 125.582 122.306 124.9 124.506C124.308 126.41 124.488 127.182 124.733 127.491C125.08 127.902 125.929 127.915 126.585 127.838C128.155 127.671 129.03 130.115 129.673 131.904C129.75 132.122 129.828 132.328 129.879 132.483C129.995 132.779 130.612 133.1 130.844 133.113C131.359 133.049 131.951 133.255 132.504 133.705C133.289 134.335 133.829 135.339 133.932 136.317C134.035 137.397 133.777 138.748 133.121 139.52L133.134 139.533Z" fill="#350B00"/>
<path d="M125.976 128.662C125.462 124.956 127.559 123.001 128.742 122.486L129.309 123.773C129.206 123.811 126.877 124.918 127.379 128.469L125.976 128.662Z" fill="#350B00"/>
<path d="M134.856 153.017L133.518 152.58C134.045 150.959 134.804 149.595 135.769 148.54L136.811 149.492C135.988 150.406 135.332 151.589 134.856 153.017Z" fill="#350B00"/>
<path d="M142.173 132.316C141.671 127.568 139.162 125.214 139.137 125.188L140.089 124.146C140.205 124.249 143.022 126.861 143.588 132.174L142.186 132.316H142.173Z" fill="#350B00"/>
<path d="M153.433 164.533L152.738 163.311C156.225 161.317 156.431 157.907 156.431 157.766L157.833 157.817C157.833 157.997 157.614 162.127 153.433 164.52V164.533Z" fill="#350B00"/>
<path d="M290.762 243.889C290.762 243.889 290.402 247.119 291.508 249.538C292.602 251.969 291.238 254.349 287.198 253.243L282.85 250.773C282.85 250.773 284.123 247.556 284.175 243.761C284.226 239.965 287.108 240.66 287.108 240.66L290.762 243.889Z" fill="white"/>
<path d="M287.005 253.938L281.949 251.094L282.181 250.515C282.181 250.515 283.403 247.363 283.455 243.748C283.48 242.243 283.905 241.149 284.741 240.493C285.848 239.631 287.211 239.94 287.263 239.952L287.443 239.991L291.509 243.581L291.47 243.954C291.47 243.954 291.148 247.003 292.152 249.229C292.808 250.683 292.705 252.124 291.882 253.089C291.47 253.565 290.634 254.221 289.051 254.221C288.472 254.221 287.803 254.131 287.018 253.925L287.005 253.938ZM286.787 241.329C286.529 241.303 286.015 241.303 285.616 241.625C285.024 242.088 284.896 243.04 284.883 243.761C284.844 246.72 284.098 249.319 283.725 250.438L287.469 252.574C289.013 252.986 290.222 252.831 290.788 252.175C291.251 251.635 291.264 250.76 290.852 249.833C289.9 247.736 289.952 245.15 290.016 244.185L286.787 241.329Z" fill="#350B00"/>
<path d="M263.359 261.98C263.359 261.98 263.037 264.952 264.04 267.204C265.044 269.455 263.629 272.26 259.911 271.244L256.051 268.336C256.051 268.336 257.222 265.364 257.273 261.864C257.324 258.365 259.988 258.995 259.988 258.995L263.359 261.98Z" fill="white"/>
<path d="M259.716 271.938L255.188 268.593L255.38 268.091C255.38 268.091 256.5 265.183 256.551 261.864C256.577 260.449 256.976 259.432 257.761 258.815C258.803 258.004 260.089 258.3 260.141 258.313L260.321 258.351L264.104 261.697L264.065 262.07C264.065 262.07 263.769 264.887 264.695 266.92C265.326 268.323 265.159 269.918 264.258 270.973C263.576 271.771 262.573 272.182 261.363 272.182C260.848 272.182 260.295 272.105 259.716 271.951V271.938ZM259.665 259.677C259.433 259.664 258.983 259.677 258.636 259.947C258.108 260.359 257.992 261.233 257.979 261.877C257.941 264.643 257.233 267.062 256.899 268.091L260.231 270.6C261.543 270.934 262.585 270.728 263.177 270.034C263.718 269.39 263.808 268.4 263.396 267.499C262.521 265.569 262.56 263.189 262.624 262.288L259.678 259.677H259.665Z" fill="#350B00"/>
<path d="M290.172 248.175C290.931 247.956 291.754 248.329 292.115 249.037C292.951 250.658 295.305 254.698 298.74 256.512C303.089 258.815 300.593 261.426 298.496 261.877C297.209 262.16 294.816 261.259 292.951 260.41C291.651 259.818 290.493 259.008 289.387 258.107C288.757 257.592 287.804 257.039 286.518 256.859C284.537 256.589 282.298 255.341 281.359 254.788C281.088 254.62 280.934 254.324 280.96 254.003C281.063 252.497 281.436 248.149 282.169 247.596C283.057 246.914 284.073 246.927 284.241 248.753C284.395 250.58 287.316 251.378 287.689 250.169C287.92 249.397 289.091 248.496 290.185 248.175H290.172Z" fill="#E59636"/>
<path d="M292.654 261.066C291.445 260.512 290.261 259.753 288.936 258.672C288.434 258.261 287.598 257.733 286.427 257.579C284.381 257.296 282.156 256.099 280.998 255.417C280.496 255.109 280.213 254.555 280.252 253.976C280.676 247.852 281.448 247.26 281.731 247.042C282.452 246.501 283.185 246.347 283.803 246.617C284.459 246.913 284.845 247.608 284.948 248.714C284.999 249.345 285.617 249.769 286.118 249.949C286.607 250.117 286.942 250.052 286.993 249.988C287.328 248.894 288.769 247.865 289.965 247.518C291.046 247.196 292.217 247.711 292.744 248.74C293.568 250.323 295.819 254.195 299.061 255.906C301.583 257.232 301.943 258.672 301.815 259.65C301.609 261.181 300.052 262.288 298.637 262.609C298.431 262.661 298.199 262.674 297.942 262.674C296.72 262.674 294.983 262.146 292.641 261.091L292.654 261.066ZM290.377 248.869C289.438 249.152 288.499 249.924 288.37 250.387C288.138 251.146 287.405 251.545 286.414 251.455C285.102 251.313 283.661 250.297 283.532 248.817C283.468 248.148 283.301 247.942 283.236 247.904C283.172 247.878 282.953 247.904 282.645 248.135C282.413 248.418 281.963 250.232 281.693 254.054C281.693 254.092 281.693 254.144 281.757 254.169C282.606 254.684 284.78 255.893 286.646 256.151C288.151 256.357 289.232 257.026 289.862 257.553C291.085 258.557 292.178 259.264 293.272 259.753C296.668 261.297 297.968 261.259 298.367 261.181C299.28 260.975 300.322 260.255 300.438 259.432C300.541 258.698 299.821 257.875 298.431 257.141C294.829 255.237 292.384 251.069 291.509 249.37C291.342 249.036 290.995 248.83 290.634 248.83C290.557 248.83 290.467 248.83 290.39 248.869H290.377Z" fill="#350B00"/>
<path d="M284.228 248.753C284.253 249.101 284.395 249.409 284.588 249.68C284.099 252.008 284.665 254.131 285.489 254.311C286.312 254.491 288.962 255.045 290.429 256.048C291.896 257.052 296.103 259.895 298.213 260.075C300.297 260.255 300.529 259.316 300.825 258.801C301.519 260.41 299.976 261.555 298.496 261.889C297.209 262.172 294.816 261.272 292.951 260.423C291.651 259.831 290.493 259.02 289.387 258.12C288.757 257.605 287.804 257.052 286.518 256.872C284.537 256.601 282.298 255.353 281.359 254.8C281.088 254.633 280.934 254.337 280.96 254.015C281.063 252.51 281.436 248.161 282.169 247.608C283.057 246.926 284.073 246.939 284.241 248.766L284.228 248.753Z" fill="#350B00"/>
<path d="M292.654 261.066C291.445 260.512 290.261 259.753 288.936 258.672C288.203 258.081 287.366 257.708 286.427 257.579C284.369 257.296 282.143 256.099 280.998 255.417C280.496 255.109 280.213 254.555 280.252 253.976C280.676 247.852 281.448 247.26 281.731 247.042C282.452 246.501 283.185 246.347 283.803 246.617C284.459 246.913 284.845 247.608 284.948 248.714C284.96 248.907 285.038 249.1 285.166 249.28L285.346 249.538L285.282 249.847C284.845 251.918 285.359 253.462 285.642 253.629L285.771 253.655C286.749 253.874 289.322 254.44 290.827 255.469C295.549 258.711 297.518 259.316 298.264 259.38C299.64 259.509 299.859 259.097 300.091 258.672C300.129 258.595 300.168 258.531 300.207 258.454L300.927 257.244L301.48 258.544C301.802 259.29 301.776 260.036 301.429 260.718C300.876 261.786 299.628 262.391 298.637 262.609C298.431 262.661 298.199 262.674 297.942 262.674C296.72 262.674 294.983 262.146 292.641 261.091L292.654 261.066ZM298.148 260.782C296.565 260.641 293.825 259.251 290.017 256.627C288.743 255.752 286.35 255.224 285.462 255.031L285.321 255.006C283.905 254.684 283.417 252.124 283.828 249.821C283.648 249.512 283.545 249.165 283.519 248.817C283.455 248.148 283.288 247.942 283.224 247.904C283.146 247.878 282.928 247.904 282.632 248.135C282.387 248.418 281.95 250.232 281.68 254.054C281.68 254.092 281.68 254.144 281.744 254.169C282.593 254.684 284.755 255.893 286.633 256.151C287.817 256.318 288.936 256.794 289.849 257.553C291.072 258.557 292.152 259.251 293.259 259.753C296.656 261.297 297.955 261.271 298.354 261.181C298.766 261.091 299.151 260.937 299.46 260.744C299.1 260.808 298.675 260.821 298.161 260.782H298.148Z" fill="#350B00"/>
<path d="M290.361 253.359C291.673 251.956 293.397 251.712 293.423 251.712L293.282 250.618C293.191 250.618 291.146 250.927 289.576 252.6L290.374 253.359H290.361Z" fill="#350B00"/>
<path d="M291.726 254.813C293.039 253.41 294.763 253.166 294.788 253.166L294.647 252.072C294.557 252.072 292.511 252.381 290.941 254.054L291.739 254.813H291.726Z" fill="#350B00"/>
<path d="M282.336 254.981L283.365 254.608C282.567 252.382 283.507 249.68 283.507 249.654L282.465 249.294C282.426 249.423 281.397 252.395 282.323 254.981H282.336Z" fill="#E59636"/>
<path d="M261.53 266.6C260.308 267.05 259.832 268.311 259.652 269.379C259.536 270.035 258.725 270.28 258.275 269.791C257.374 268.813 256.358 267.552 256.512 266.922C256.783 265.828 257.014 264.683 257.014 264.683C257.014 264.683 255.869 263.396 254.814 265.596C253.759 267.796 254.351 270.331 254.351 271.386C254.351 272.441 256.628 273.921 258.417 275.271C260.192 276.622 261.71 279.35 263.936 281.408C266.123 283.428 272.325 282.759 269.996 278.025C267.667 273.29 266.947 272.66 266.612 271.129C266.278 269.61 265.197 265.197 263.473 265.185C263.473 265.185 263.46 266.15 264.129 267.385C264.129 267.385 263.357 265.918 261.543 266.6H261.53Z" fill="#E59636"/>
<path d="M263.447 281.936C262.34 280.906 261.427 279.761 260.552 278.655C259.664 277.536 258.828 276.493 257.979 275.837C257.683 275.619 257.387 275.4 257.078 275.168C255.225 273.804 253.63 272.621 253.63 271.373C253.63 271.154 253.604 270.884 253.566 270.549C253.437 269.198 253.244 267.166 254.157 265.261C254.646 264.245 255.251 263.692 255.971 263.589C256.846 263.46 257.464 264.116 257.528 264.194L257.76 264.464L257.695 264.811C257.695 264.811 257.464 265.969 257.194 267.05C257.194 267.05 257.219 267.603 258.789 269.301L258.262 269.79L258.943 269.263C259.227 267.552 260.037 266.394 261.272 265.943C261.838 265.738 262.353 265.686 262.79 265.738C262.739 265.429 262.739 265.223 262.739 265.171V264.464H263.459C264.051 264.464 265.852 264.49 267.293 270.974C267.461 271.746 267.757 272.286 268.413 273.47C268.927 274.396 269.622 275.67 270.626 277.716C271.977 280.469 270.639 281.884 270.008 282.36C269.249 282.926 268.181 283.197 267.1 283.197C265.737 283.197 264.334 282.772 263.447 281.949V281.936ZM263.498 267.732C263.408 267.577 262.932 266.844 261.787 267.281C261.053 267.552 260.565 268.298 260.372 269.507C260.269 270.086 259.87 270.536 259.317 270.704C258.763 270.871 258.159 270.704 257.773 270.279C255.804 268.156 255.701 267.281 255.843 266.754C255.997 266.111 256.152 265.454 256.242 265.03C256.229 265.03 256.216 265.03 256.203 265.03C256.049 265.056 255.778 265.287 255.483 265.905C254.749 267.449 254.916 269.25 255.019 270.434C255.058 270.82 255.084 271.141 255.084 271.386C255.084 271.913 256.949 273.29 257.953 274.023C258.262 274.255 258.57 274.486 258.866 274.705C259.857 275.464 260.758 276.583 261.697 277.767C262.546 278.835 263.421 279.929 264.45 280.881C265.544 281.897 268.027 282.064 269.185 281.202C269.957 280.623 270.034 279.658 269.378 278.333C268.387 276.326 267.705 275.065 267.19 274.152C266.496 272.891 266.148 272.261 265.93 271.283C265.492 269.289 265.016 267.976 264.592 267.153L263.511 267.732H263.498Z" fill="#350B00"/>
<path d="M257.001 264.681C257.001 264.681 256.782 265.813 256.499 266.919C256.499 266.945 256.499 266.984 256.499 267.022C256.422 267.215 256.357 267.408 256.306 267.614C256.216 267.974 256.177 268.335 256.177 268.708C256.151 270.561 257.091 272.297 258.544 273.442C260.166 274.729 262.687 276.955 264.36 279.502C266.894 283.349 269.905 281.355 269.905 281.355C269.905 282.359 265.453 282.847 263.922 281.432C261.697 279.374 260.178 276.646 258.403 275.295C256.627 273.944 254.337 272.465 254.337 271.41C254.337 270.355 253.745 267.82 254.8 265.62C255.856 263.42 257.001 264.707 257.001 264.707V264.681Z" fill="#350B00"/>
<path d="M263.447 281.935C262.34 280.905 261.427 279.76 260.552 278.667C259.664 277.547 258.828 276.492 257.979 275.849C257.683 275.63 257.387 275.412 257.078 275.18C255.225 273.816 253.63 272.633 253.63 271.385C253.63 271.166 253.604 270.896 253.566 270.561C253.437 269.21 253.244 267.177 254.157 265.273C254.646 264.257 255.251 263.704 255.971 263.601C256.846 263.472 257.464 264.128 257.528 264.205L257.76 264.476L257.695 264.823C257.695 264.823 257.477 265.929 257.207 267.023L257.142 267.319C257.091 267.473 257.026 267.628 256.988 267.782C256.911 268.065 256.885 268.387 256.872 268.709C256.846 270.265 257.631 271.822 258.969 272.877C260.758 274.305 263.254 276.544 264.939 279.091C266.997 282.205 269.249 280.892 269.493 280.738L270.6 280.005V281.33C270.6 281.69 270.42 282.192 269.596 282.565C268.966 282.848 268.027 283.003 267.036 283.003C265.672 283.003 264.244 282.694 263.421 281.935H263.447ZM255.817 266.74C255.971 266.097 256.126 265.441 256.216 265.016C256.203 265.016 256.19 265.016 256.177 265.016C256.023 265.042 255.753 265.273 255.457 265.891C254.723 267.435 254.891 269.223 254.994 270.42C255.032 270.806 255.058 271.127 255.058 271.372C255.058 271.899 256.924 273.276 257.927 274.009C258.236 274.241 258.545 274.472 258.841 274.691C259.831 275.45 260.732 276.57 261.671 277.753C262.52 278.821 263.395 279.915 264.424 280.867C264.527 280.97 264.669 281.06 264.81 281.137C264.463 280.79 264.116 280.378 263.781 279.863C262.121 277.329 259.522 275.09 258.12 273.971C256.447 272.633 255.457 270.651 255.483 268.67C255.483 268.232 255.534 267.808 255.637 267.409C255.676 267.242 255.74 267.062 255.804 266.869L255.83 266.714L255.817 266.74Z" fill="#350B00"/>
<path d="M261.464 272.723C263.252 271.347 266.469 271.077 266.507 271.077L266.417 269.983C266.276 269.983 262.841 270.279 260.795 271.861L261.464 272.736V272.723Z" fill="#350B00"/>
<path d="M262.532 274.615C264.321 273.238 267.1 273.058 267.125 273.058L267.061 271.965C266.932 271.965 263.909 272.17 261.863 273.753L262.532 274.628V274.615Z" fill="#350B00"/>
<path d="M264.537 266.965L263.537 267.407L264.323 269.184L265.323 268.742L264.537 266.965Z" fill="#350B00"/>
<path d="M255.031 272.132L256.073 271.797C255.507 269.996 255.905 267.474 255.905 267.449L254.825 267.269C254.799 267.384 254.374 270.06 255.031 272.119V272.132Z" fill="#E59636"/>
<path d="M264.838 261.813C264.838 261.813 263.937 249.642 264.941 238.564C265.391 233.598 265.622 230.021 265.738 227.564C265.867 224.862 265.095 222.186 263.538 219.973L256.23 209.578C256.127 209.436 256.282 209.256 256.436 209.333C258.611 210.285 266.896 213.643 275.388 213.476L282.528 214.274C282.657 214.286 282.734 214.428 282.67 214.544C282.207 215.406 280.727 218.609 281.267 223.872C281.911 230.099 283.326 235.001 283.532 243.325C283.532 243.325 287.649 246.901 291.869 243.055C291.869 243.055 291.599 223.28 291.869 215.406C292.139 207.532 292.049 205.705 285.912 201.948C279.775 198.191 265.764 196.725 259.267 196.634C252.769 196.544 241.139 200.752 241.139 200.752L236.558 203.865C236.558 203.865 232.441 213.206 244.896 220.809C244.896 220.809 252.152 226.38 254.918 228.49C254.995 228.555 255.021 228.658 254.97 228.735C254.558 229.404 252.962 232.44 253.052 238.757C253.143 245.988 255.253 251.572 255.896 259.085L256.076 261.646C256.076 261.646 259.55 264.476 264.851 261.826L264.838 261.813Z" fill="#350B00"/>
<path d="M255.613 262.186L255.368 261.993L255.163 259.137C254.88 255.869 254.313 252.936 253.773 250.105C253.053 246.387 252.371 242.875 252.319 238.757C252.242 233.135 253.477 230.009 254.108 228.774C251.136 226.509 244.51 221.414 244.51 221.414C231.67 213.579 235.851 203.672 235.89 203.582L235.967 203.389L240.714 200.16L240.869 200.083C241.345 199.915 252.448 195.914 259.035 195.914C259.112 195.914 259.19 195.914 259.254 195.914C266.446 196.017 280.122 197.574 286.259 201.331C292.654 205.242 292.834 207.313 292.551 215.432C292.281 223.203 292.551 242.849 292.551 243.055V243.376L292.319 243.595C287.688 247.815 283.082 243.917 283.043 243.878L282.798 243.672V243.351C282.657 238.063 282.039 234.177 281.435 230.42C281.087 228.259 280.766 226.213 280.534 223.949C280.071 219.433 281.049 216.345 281.679 214.904L275.375 214.196C268.35 214.325 261.39 212.074 257.877 210.71L264.104 219.574C265.738 221.903 266.575 224.759 266.433 227.616C266.279 230.729 266.009 234.434 265.635 238.642C264.645 249.526 265.52 261.659 265.532 261.774L265.571 262.251L265.147 262.469C263.332 263.383 261.711 263.691 260.348 263.691C257.453 263.691 255.703 262.289 255.6 262.212L255.613 262.186ZM264.233 238.487C264.619 234.306 264.876 230.613 265.031 227.526C265.147 224.991 264.413 222.456 262.959 220.372L255.652 209.976C255.42 209.655 255.433 209.217 255.69 208.909C255.947 208.6 256.359 208.497 256.732 208.651C259.009 209.655 267.064 212.884 275.478 212.743L282.606 213.54C282.901 213.579 283.172 213.746 283.3 214.016C283.442 214.287 283.442 214.595 283.3 214.853C282.863 215.663 281.46 218.712 281.988 223.769C282.22 225.994 282.541 228.014 282.889 230.163C283.48 233.894 284.098 237.741 284.252 242.952C285.101 243.569 288.061 245.319 291.161 242.707C291.123 240.083 290.917 222.598 291.161 215.342C291.431 207.455 291.316 206.04 285.552 202.514C279.44 198.77 265.198 197.394 259.267 197.304C259.202 197.304 259.125 197.304 259.061 197.304C253.014 197.304 242.515 200.983 241.473 201.356L237.15 204.29C236.7 205.576 234.423 213.54 245.333 220.205C245.333 220.205 252.589 225.776 255.356 227.886C255.729 228.169 255.819 228.683 255.587 229.069C255.266 229.597 253.696 232.505 253.773 238.706C253.825 242.694 254.494 246.142 255.201 249.796C255.754 252.665 256.333 255.637 256.616 258.995L256.771 261.221C257.556 261.723 260.257 263.1 264.117 261.35C263.963 258.957 263.371 248.227 264.259 238.474L264.233 238.487Z" fill="#350B00"/>
<path d="M283.3 214.415C284.329 212.91 285.822 212.228 285.835 212.228L285.384 211.224C285.307 211.263 283.583 212.035 282.387 213.798L283.3 214.415Z" fill="#E59636"/>
<path d="M255.793 228.606C256.86 227.294 258.533 227.436 258.546 227.436L258.649 226.342C258.559 226.342 256.371 226.149 254.943 227.912L255.793 228.606Z" fill="#E59636"/>
<path d="M287.404 242.9C289.476 242.9 291.136 242.295 291.238 242.257L290.852 241.227C290.852 241.227 287.353 242.501 284.445 241.227L284.008 242.231C285.14 242.72 286.324 242.887 287.404 242.887V242.9Z" fill="#E59636"/>
<path d="M242.31 217.657C247.546 214.698 245.243 209.32 245.218 209.268L244.214 209.706C244.291 209.886 246.131 214.235 241.77 216.705L242.31 217.657Z" fill="#E59636"/>
<path d="M260.152 261.349C262.224 261.349 263.884 260.744 263.986 260.706L263.6 259.677C263.6 259.677 260.101 260.95 257.193 259.677L256.756 260.68C257.888 261.169 259.072 261.336 260.152 261.336V261.349Z" fill="#E59636"/>
<path d="M256.692 165.936C256.692 165.936 256.821 166.296 257.014 166.901C258.545 171.571 259.432 176.435 259.716 181.35L259.793 182.675C259.793 182.816 259.896 182.932 260.024 182.958C260.886 183.164 263.151 184.051 265.775 185.865C268.181 187.512 274.498 193.289 274.498 193.289L266.663 196.608L249.564 187.731L246.477 176.19L250.89 169.32L254.929 165.267L256.692 165.936Z" fill="white"/>
<path d="M248.972 188.22L245.717 176.075L250.297 168.947L254.762 164.444L257.257 165.383L257.373 165.692C257.373 165.692 257.502 166.052 257.708 166.683C259.239 171.353 260.152 176.28 260.448 181.311L260.513 182.353C261.542 182.662 263.69 183.563 266.212 185.274C268.631 186.933 274.755 192.517 275.012 192.749L275.836 193.495L266.675 197.38L248.998 188.194L248.972 188.22ZM265.389 186.47C262.97 184.811 260.757 183.884 259.869 183.678C259.432 183.575 259.11 183.189 259.084 182.739L259.007 181.414C258.724 176.499 257.836 171.7 256.344 167.146C256.254 166.876 256.19 166.67 256.125 166.502L255.109 166.116L251.455 169.783L247.261 176.319L250.194 187.242L266.714 195.824L273.198 193.07C271.41 191.462 267.203 187.718 265.376 186.457L265.389 186.47Z" fill="#350B00"/>
<path d="M252.28 169.05C252.55 169.281 255.316 167.442 257.375 165.254C257.375 165.254 253.541 153.302 247.738 152.916C241.936 152.53 245.526 158.706 245.526 158.706L252.293 169.063L252.28 169.05Z" fill="white"/>
<path d="M251.829 169.603L244.907 159.053C244.701 158.693 242.913 155.502 244.148 153.534C244.779 152.53 245.988 152.08 247.789 152.196C254.004 152.607 257.902 164.521 258.056 165.036L258.185 165.435L257.902 165.743C257.902 165.743 253.978 169.758 252.292 169.758C252.112 169.758 251.958 169.706 251.829 169.603ZM247.686 153.624C246.464 153.547 245.679 153.765 245.345 154.293C244.689 155.348 245.718 157.625 246.117 158.307L252.601 168.227C253.36 167.815 255.071 166.605 256.564 165.074C255.38 161.639 251.881 153.907 247.686 153.637V153.624Z" fill="#350B00"/>
<path d="M247.106 153.326C247.106 153.326 251.686 154.831 252.651 162.937C253.616 171.042 257.412 188.295 261.323 194.059C261.323 194.059 263.381 197.353 257.682 199.283C251.982 201.2 248.071 201.689 242.603 206.192C237.174 210.656 234.176 212.393 233.146 206.835C232.117 201.277 228.219 188.09 225.89 183.072C223.561 178.054 222.391 160.608 222.391 160.608C222.391 160.608 225.363 156.105 233.378 152.927C238.717 150.804 247.119 153.339 247.119 153.339L247.106 153.326Z" fill="#E59636"/>
<path d="M234.794 210.875C233.61 210.438 232.864 209.203 232.452 206.951C231.423 201.38 227.525 188.231 225.247 183.355C222.88 178.273 221.722 161.355 221.684 160.634V160.39L221.799 160.184C221.928 159.991 224.99 155.462 233.121 152.233C238.628 150.045 246.978 152.516 247.325 152.631H247.338C247.544 152.709 252.356 154.381 253.359 162.834C254.273 170.528 258.017 187.884 261.928 193.661C261.967 193.712 262.764 195.025 262.198 196.581C261.684 198.022 260.243 199.142 257.914 199.926C256.769 200.312 255.688 200.647 254.646 200.956C250.555 202.204 247.312 203.194 243.054 206.707C239.683 209.473 237.47 211.004 235.72 211.004C235.399 211.004 235.09 210.952 234.781 210.837L234.794 210.875ZM233.636 153.571C226.869 156.26 223.768 159.939 223.112 160.801C223.266 162.976 224.424 178.247 226.534 182.75C228.901 187.845 232.787 200.969 233.842 206.681C234.151 208.328 234.627 209.28 235.27 209.524C236.634 210.013 239.529 207.775 242.14 205.626C246.631 201.933 250.143 200.853 254.221 199.605C255.238 199.296 256.306 198.961 257.451 198.588C259.303 197.958 260.487 197.109 260.847 196.131C261.182 195.217 260.732 194.446 260.732 194.446C256.64 188.424 252.896 171.043 251.931 163.001C251.056 155.603 247.145 154.085 246.875 153.995C246.515 153.892 238.576 151.589 233.623 153.571H233.636Z" fill="#350B00"/>
<path d="M238.988 152.568C241.226 154.254 244.661 154.395 246.476 154.331C247.222 154.305 247.917 153.881 248.264 153.212C252.921 144.218 250.014 136.254 250.014 136.254L237.997 135.032L235.295 138.956C234.549 140.05 234.266 141.388 234.562 142.687C234.858 143.948 234.819 145.942 233.339 148.709C229.184 156.428 231.165 158.113 236.8 162.565C240.802 165.73 247.492 163.286 243.143 154.138L238.975 152.555L238.988 152.568Z" fill="white"/>
<path d="M236.363 163.131C230.779 158.718 228.219 156.698 232.709 148.374C234.111 145.762 234.111 143.935 233.867 142.854C233.532 141.388 233.841 139.831 234.703 138.557L237.636 134.286L250.528 135.598L250.682 136.023C250.811 136.357 253.641 144.385 248.894 153.559C248.431 154.447 247.517 155.026 246.488 155.051C245.883 155.077 245.137 155.064 244.301 155C246.475 160.391 244.507 162.784 243.49 163.581C242.641 164.263 241.56 164.598 240.428 164.598C239.052 164.598 237.585 164.096 236.363 163.131ZM238.55 153.147L239.412 152.002C241.47 153.546 244.7 153.688 246.449 153.623C246.951 153.61 247.402 153.327 247.633 152.89C251.493 145.44 249.975 138.647 249.486 136.923L238.357 135.791L235.899 139.368C235.256 140.307 235.025 141.452 235.282 142.533C235.591 143.845 235.604 146.045 233.995 149.043C230.071 156.325 231.744 157.637 237.276 162.012C239 163.376 241.252 163.568 242.641 162.475C244.301 161.15 244.314 158.371 242.693 154.794C241.265 154.537 239.785 154.035 238.588 153.147H238.55Z" fill="#350B00"/>
<path d="M233.584 130.567C238.563 126.334 246.128 129.975 247.698 129.087C248.997 128.341 248.495 126.63 248.289 126.064C248.264 125.974 248.328 125.896 248.418 125.909C249.422 126.012 253.963 126.758 254.684 131.905C255.494 137.694 250.914 139.521 250.914 139.521C249.036 140.461 247.029 140.499 244.906 140.409C244.057 140.37 243.207 140.538 242.474 140.962C241.805 141.361 241.123 142.017 240.801 143.085C240.621 143.664 240.12 144.063 239.515 144.024L237.572 143.883L235.617 143.291C235.282 143.767 235.076 144.243 235.076 144.668V146.739C235.076 146.739 230.251 144.295 230.47 138.312C230.251 135.417 230.818 132.921 233.584 130.554V130.567Z" fill="#350B00"/>
<path d="M234.755 147.395C234.536 147.292 229.518 144.668 229.763 138.389C229.48 134.774 230.496 132.278 233.134 130.026C236.762 126.938 241.548 127.723 244.726 128.251C245.716 128.405 247.067 128.637 247.363 128.469C248.161 128.019 247.813 126.81 247.633 126.321C247.53 126.051 247.569 125.742 247.749 125.523C247.929 125.292 248.212 125.176 248.495 125.202C249.512 125.304 254.594 126.115 255.391 131.815C256.279 138.08 251.249 140.165 251.236 140.165C249.164 141.207 246.964 141.207 244.88 141.129C244.108 141.091 243.4 141.258 242.847 141.593C242.178 141.991 241.715 142.57 241.496 143.317C241.213 144.23 240.377 144.822 239.476 144.758L237.534 144.616L235.951 144.166C235.822 144.41 235.797 144.59 235.797 144.706V147.936L234.755 147.408V147.395ZM237.714 143.188L239.579 143.317C239.862 143.342 240.055 143.111 240.12 142.879C240.441 141.799 241.136 140.924 242.114 140.345C242.912 139.869 243.876 139.65 244.944 139.688C246.823 139.766 248.83 139.766 250.657 138.852C250.824 138.788 254.71 137.141 253.989 132.008C253.462 128.315 250.824 127.144 249.229 126.771C249.46 128.083 249.049 129.151 248.058 129.705C247.337 130.116 246.205 129.936 244.494 129.653C241.406 129.151 237.186 128.457 234.06 131.107C231.783 133.05 230.946 135.121 231.191 138.35C231.049 142.133 233.069 144.372 234.369 145.414V144.68C234.369 144.127 234.587 143.535 235.038 142.892L235.334 142.468L237.714 143.175V143.188Z" fill="#350B00"/>
<path d="M245.2 139.766L245.844 138.878C245.651 138.737 241.083 135.469 236.053 137.592L236.477 138.608C240.929 136.73 245.149 139.74 245.2 139.766Z" fill="#E59636"/>
<path d="M234.124 142.673L235.063 142.094C234.253 140.795 235.488 139.315 235.501 139.29L234.664 138.582C234.587 138.672 232.915 140.692 234.137 142.673H234.124Z" fill="#E59636"/>
<path d="M233.776 137.695C235.668 134.169 240.531 134.491 240.582 134.491L240.672 133.397C240.441 133.384 235.05 133.024 232.824 137.18L233.789 137.695H233.776Z" fill="#E59636"/>
<path d="M244.481 135.405L245.047 134.466C245.047 134.466 244.043 133.861 242.281 133.604L242.113 134.697C243.631 134.929 244.468 135.405 244.468 135.418L244.481 135.405Z" fill="#E59636"/>
<path d="M237.892 148.309C236.773 148.103 235.795 147.434 235.203 146.469C234.727 145.697 234.329 144.745 234.483 143.883C234.817 142.031 236.632 142.468 237.416 143.626L238.085 144.668L237.905 148.309H237.892Z" fill="white"/>
<path d="M237.762 149.017L238.019 147.615C237.106 147.447 236.295 146.894 235.806 146.109C235.292 145.286 235.073 144.565 235.176 144.025C235.253 143.626 235.395 143.408 235.601 143.369C235.909 143.305 236.463 143.536 236.81 144.038L237.466 145.067L238.663 144.295L237.994 143.253C237.338 142.288 236.231 141.774 235.292 141.967C234.494 142.134 233.928 142.79 233.748 143.768C233.581 144.668 233.864 145.711 234.571 146.856C235.266 147.988 236.424 148.773 237.736 149.017H237.762Z" fill="#350B00"/>
<path d="M251.994 131.145L253.036 130.798C252.998 130.682 251.994 127.813 249.099 127.645L249.035 128.739C251.197 128.868 251.994 131.132 251.994 131.145Z" fill="#E59636"/>
<path d="M239.539 163.864L237.79 166.759C237.661 166.965 237.404 167.042 237.198 166.926C236.079 166.308 232.682 164.263 230.611 161.316C228.102 157.74 227.085 153.159 231.949 150.47C231.949 150.47 231.588 154.266 233.287 157.199C234.985 160.133 239.539 163.877 239.539 163.877V163.864Z" fill="white"/>
<path d="M236.864 167.557C235.513 166.81 232.155 164.739 230.032 161.728C228.192 159.117 227.459 156.466 227.961 154.266C228.385 152.439 229.607 150.947 231.602 149.84L232.785 149.184L232.657 150.535C232.657 150.535 232.348 154.15 233.905 156.839C235.513 159.618 239.939 163.285 239.99 163.324L240.466 163.71L238.408 167.132C238.189 167.492 237.803 167.698 237.417 167.698C237.224 167.698 237.031 167.647 236.864 167.557ZM232.682 157.547C231.537 155.566 231.267 153.25 231.216 151.796C230.225 152.581 229.607 153.507 229.363 154.575C228.951 156.376 229.607 158.615 231.203 160.892C233.068 163.555 236.118 165.472 237.314 166.167L238.614 164.018C237.378 162.963 234.098 160.017 232.67 157.547H232.682Z" fill="#350B00"/>
<path d="M246.681 162.656C246.154 162.373 245.021 161.807 244.108 161.678C244.108 161.678 245.086 157.008 242.744 154.074C242.744 154.074 244.648 154.602 246.257 154.434C246.257 154.434 248.418 158.05 247.08 162.476C247.028 162.643 246.835 162.733 246.681 162.643V162.656Z" fill="white"/>
<path d="M246.335 163.285C245.91 163.054 244.817 162.501 244.006 162.385L243.247 162.282L243.402 161.536C243.402 161.536 244.289 157.161 242.179 154.524L240.803 152.8L242.926 153.392C242.926 153.392 244.714 153.88 246.181 153.739L246.631 153.687L246.863 154.073C246.953 154.228 249.166 158.01 247.75 162.694C247.66 162.977 247.454 163.208 247.171 163.324C247.043 163.375 246.914 163.401 246.785 163.401C246.618 163.401 246.464 163.363 246.309 163.285H246.335ZM244.186 155.09C245.216 157.341 245.061 159.915 244.907 161.124C245.486 161.291 246.065 161.548 246.528 161.78C247.274 158.731 246.271 156.132 245.833 155.193C245.267 155.206 244.688 155.167 244.186 155.09Z" fill="#350B00"/>
<path d="M244.981 171.931L246.396 171.764C245.83 167.016 244.145 162.616 244.08 162.436L242.742 162.95C242.742 162.95 244.428 167.363 244.981 171.931Z" fill="#350B00"/>
<path d="M241.174 167.609C241.174 168.085 241.56 168.471 242.036 168.471C242.512 168.471 242.898 168.085 242.898 167.609C242.898 167.133 242.512 166.747 242.036 166.747C241.56 166.747 241.174 167.133 241.174 167.609Z" fill="#350B00"/>
<path d="M241.689 170.452C241.689 170.928 242.075 171.314 242.551 171.314C243.028 171.314 243.413 170.928 243.413 170.452C243.413 169.976 243.028 169.59 242.551 169.59C242.075 169.59 241.689 169.976 241.689 170.452Z" fill="#350B00"/>
<path d="M279.21 197.921L253.426 212.806C253.426 212.806 253.311 212.832 253.259 212.806L235.556 202.256C235.44 202.192 235.44 202.038 235.556 201.96L261.146 186.882C261.146 186.882 261.262 186.856 261.313 186.882L279.21 197.625C279.325 197.689 279.312 197.856 279.21 197.921Z" fill="white"/>
<path d="M252.886 213.412L235.182 202.862C234.912 202.707 234.758 202.412 234.758 202.103C234.758 201.794 234.925 201.498 235.195 201.344L260.785 186.265C261.069 186.098 261.416 186.098 261.686 186.265L279.595 197.008C279.866 197.162 280.02 197.458 280.02 197.767C280.02 198.076 279.853 198.372 279.583 198.526L253.786 213.425C253.645 213.502 253.503 213.541 253.349 213.541C253.195 213.541 253.04 213.502 252.899 213.412H252.886ZM261.223 187.654L236.701 202.103L253.336 212.009L278.039 197.741L261.21 187.641L261.223 187.654Z" fill="#350B00"/>
<path d="M251.495 208.24L252.229 207.018L243.699 201.923L249.012 198.796L248.292 197.561L242.296 201.074C242 201.241 241.82 201.563 241.82 201.897C241.82 202.244 242 202.553 242.296 202.733L251.495 208.227V208.24Z" fill="#350B00"/>
<path d="M229.369 177.889C229.369 177.889 230.488 181.196 231.119 186.548C231.633 190.922 231.595 194.731 231.582 194.795C231.659 194.782 237.217 193.753 242.029 195.245C246.866 196.751 253.415 196.017 253.415 196.017C253.415 196.017 256.76 193.534 258.227 193.676C259.694 193.817 258.96 195.245 258.96 195.245C258.96 195.245 265.921 197.625 263.36 199.838C260.8 202.051 253.415 200.61 253.415 200.61C253.415 200.61 236.123 202.476 226.963 201.164C226.564 201.112 226.229 200.868 226.049 200.52C225.033 198.629 221.302 191.566 220.221 178.816C218.935 163.557 229.382 176.23 229.382 176.23L229.356 177.876L229.369 177.889Z" fill="white"/>
<path d="M226.872 201.884C226.254 201.794 225.714 201.421 225.431 200.867C221.455 193.405 220.014 184.798 219.525 178.892C219.127 174.171 219.796 171.507 221.584 170.787C224.659 169.526 229.419 175.148 229.96 175.805L230.127 176.01L230.101 177.799C230.307 178.455 231.272 181.62 231.851 186.483C232.237 189.713 232.314 192.595 232.327 193.984C234.115 193.752 238.413 193.379 242.272 194.589C246.467 195.888 252.089 195.451 253.183 195.348C254.045 194.73 256.798 192.839 258.329 192.993C259.152 193.071 259.538 193.469 259.706 193.791C259.899 194.138 259.911 194.512 259.873 194.833C261.327 195.399 264.299 196.75 264.633 198.487C264.723 198.976 264.672 199.709 263.848 200.404C261.198 202.694 254.585 201.575 253.414 201.356C252.256 201.485 243.482 202.373 235.376 202.373C232.301 202.373 229.329 202.244 226.898 201.897L226.872 201.884ZM253.556 199.915C255.511 200.301 261.005 200.944 262.896 199.311C263.257 199.002 263.218 198.809 263.205 198.744C263.025 197.805 260.426 196.519 258.728 195.927L257.969 195.657L258.329 194.923C258.406 194.769 258.458 194.524 258.432 194.46C258.432 194.46 258.368 194.409 258.162 194.396C257.338 194.331 255.138 195.631 253.839 196.596L253.684 196.712L253.491 196.737C253.221 196.763 246.75 197.471 241.822 195.94C237.229 194.512 231.941 195.464 231.709 195.502L230.847 195.657L230.873 194.782C230.873 194.782 230.925 190.961 230.41 186.638C229.792 181.44 228.699 178.159 228.686 178.133L228.647 178.018L228.673 176.512C226.769 174.261 223.578 171.52 222.111 172.112C221.61 172.318 220.478 173.373 220.941 178.777C221.43 184.553 222.819 192.955 226.692 200.198C226.769 200.353 226.91 200.456 227.078 200.468C236.045 201.755 253.183 199.928 253.35 199.902H253.453H253.556V199.915Z" fill="#350B00"/>
<path d="M230.293 177.888C230.872 177.167 231.129 176.241 231.103 175.314C230.987 171.789 230.241 160.918 225.738 158.936C220.334 156.556 218.507 172.767 218.778 176.845C219.048 180.924 228.183 179.033 229.366 178.634C229.727 178.518 230.035 178.222 230.305 177.9L230.293 177.888Z" fill="white"/>
<path d="M219.408 179.174C218.585 178.634 218.122 177.836 218.057 176.884C217.864 173.964 218.893 161.381 222.895 158.563C223.847 157.894 224.928 157.791 226.008 158.267C230.794 160.377 231.656 170.863 231.798 175.276C231.837 176.421 231.489 177.502 230.833 178.325C230.447 178.814 230.022 179.136 229.572 179.29C229.058 179.47 226.317 180.126 223.641 180.126C222.046 180.126 220.463 179.895 219.382 179.174H219.408ZM223.718 159.734C220.592 161.921 219.241 173.333 219.472 176.781C219.511 177.296 219.73 177.682 220.193 177.978C222.251 179.355 227.9 178.351 229.122 177.926C229.302 177.862 229.521 177.682 229.727 177.425C230.177 176.871 230.408 176.125 230.383 175.327C230.151 168.663 228.736 161.034 225.442 159.58C225.172 159.464 224.928 159.4 224.683 159.4C224.349 159.4 224.04 159.515 223.718 159.734Z" fill="#350B00"/>
<path d="M229.174 199.54C229.56 199.54 229.856 199.476 229.921 199.45L229.573 198.061C229.406 198.099 228.904 198.164 228.557 197.958C228.364 197.842 228.235 197.649 228.171 197.353L226.781 197.688C226.936 198.357 227.296 198.871 227.823 199.18C228.287 199.45 228.775 199.528 229.174 199.528V199.54Z" fill="#350B00"/>
<path d="M224.257 176.704C226.071 176.704 227.5 176.421 227.615 176.395L227.332 174.993C227.332 174.993 222.032 176.048 219.162 174.002L218.326 175.16C220.05 176.395 222.366 176.704 224.257 176.704Z" fill="#350B00"/>
<path d="M253.429 212.639L262.191 192.607C262.191 192.607 262.203 192.581 262.216 192.569L288.707 176.846C288.771 176.808 288.849 176.872 288.823 176.949L279.457 197.754C279.457 197.754 279.444 197.779 279.431 197.792L253.545 212.742C253.48 212.781 253.403 212.717 253.429 212.639Z" fill="#E59636"/>
<path d="M252.566 212.82L261.56 192.273L261.688 192.054L288.359 176.229C288.655 176.049 289.028 176.088 289.286 176.319L289.697 176.757L280.125 198.024L279.996 198.281L253.892 213.347L253.351 213.592L252.566 212.807V212.82ZM287.343 178.494L262.756 193.083L254.857 211.16L278.89 197.278L287.343 178.494Z" fill="#350B00"/>
<path d="M272.584 196.159C271.478 197.561 270.062 198.295 269.419 197.793C268.776 197.291 269.162 195.747 270.268 194.332C271.375 192.93 272.79 192.196 273.433 192.698C274.077 193.2 273.691 194.744 272.584 196.159Z" fill="white"/>
<path d="M268.983 198.359C267.851 197.471 268.494 195.438 269.716 193.894C270.308 193.135 271.016 192.518 271.71 192.17C272.868 191.566 273.576 191.9 273.885 192.145C274.194 192.389 274.682 192.994 274.361 194.267C274.181 195.014 273.743 195.85 273.151 196.609C272.238 197.767 270.977 198.68 269.935 198.68C269.588 198.68 269.266 198.577 268.996 198.359H268.983ZM272.019 195.721C272.971 194.499 273.126 193.444 272.997 193.277C272.791 193.187 271.8 193.573 270.836 194.795C269.871 196.017 269.729 197.072 269.858 197.239C270.076 197.342 271.067 196.944 272.019 195.721Z" fill="#350B00"/>
</svg>
