<svg width="402" height="340" viewBox="0 0 402 340" fill="none" xmlns="http://www.w3.org/2000/svg">
<path d="M276.797 165.065V134.298L335.379 168.091V199.224L276.797 165.065Z" fill="#E59636"/>
<path d="M276.797 133.394L298.585 120.707L357.119 154.5L335.379 166.968L276.797 133.394Z" fill="#E59636"/>
<path d="M335.697 167.165L335.379 169.873L276.797 136.398V133.543L335.697 167.165Z" fill="#E59636"/>
<path d="M278.994 134.736L298.587 123.342L357.12 157.11L337.577 168.309L278.994 134.736Z" fill="white"/>
<path d="M298.586 120.049L276.236 133.054V165.407L335.404 199.908L357.705 186.927V154.159L298.586 120.049ZM277.31 137.251L281.555 139.666V167.164L277.383 164.724L277.31 137.251ZM325.059 164.529L329.573 167.115V195.174L325.035 192.515H325.059V164.529ZM324.23 192.051L319.716 189.416V161.479L324.23 164.065V192.051ZM318.886 161.064V188.928L314.372 186.293V158.429L319.008 161.089H318.886V161.064ZM313.543 185.805L309.029 183.17V155.355L313.543 157.941V185.805ZM308.199 182.682L303.685 180.047V152.305L308.199 154.891V182.682ZM302.856 179.559L298.391 176.948V149.255L302.856 151.817V179.559ZM297.561 176.484L293.047 173.849V146.229L297.561 148.816V176.484ZM292.218 173.361L287.704 170.726V143.155L292.218 145.741V173.361ZM286.874 170.238L282.361 167.603V140.105L286.874 142.692V170.238ZM334.794 198.175L330.378 195.589V167.53L334.794 170.043V198.151V198.175ZM334.794 167.554V168.921L277.285 136.055V134.152L334.794 167.237V167.554ZM335.38 166.237L277.944 133.322L298.586 121.318L355.973 154.428L335.404 166.237H335.38Z" fill="#350B00"/>
<path d="M357.706 156.916L357.681 155.867L334.893 169.042V170.091L346.409 163.43V193.49L347.214 193.002V162.967L357.706 156.916Z" fill="#E59636"/>
<path d="M341.919 185C341.675 185 341.431 184.926 341.236 184.804L340.894 184.609C340.724 184.512 340.675 184.292 340.772 184.121C340.87 183.95 341.09 183.902 341.26 183.999L341.602 184.194C341.822 184.316 342.09 184.316 342.31 184.194L344.53 182.974L344.164 182.755C343.993 182.657 343.944 182.438 344.042 182.267C344.139 182.096 344.359 182.047 344.53 182.145L344.871 182.34C345.091 182.462 345.237 182.706 345.237 182.974C345.237 183.243 345.091 183.462 344.871 183.609L342.651 184.829C342.432 184.951 342.188 185 341.944 185H341.919Z" fill="#E59636"/>
<path d="M349.677 180.656C349.433 180.656 349.189 180.583 348.994 180.461L348.652 180.266C348.481 180.168 348.433 179.949 348.53 179.778C348.628 179.607 348.847 179.558 349.018 179.656L349.36 179.851C349.579 179.973 349.848 179.973 350.067 179.851L352.288 178.631L351.922 178.411C351.751 178.314 351.702 178.094 351.8 177.923C351.897 177.753 352.117 177.704 352.288 177.801L352.629 177.997C352.849 178.119 352.995 178.363 352.995 178.631C352.995 178.899 352.849 179.119 352.629 179.265L350.409 180.485C350.189 180.607 349.945 180.656 349.701 180.656H349.677Z" fill="#E59636"/>
<path d="M343.774 150.94L332.282 144.328L320.766 150.94V154.161L332.282 160.773V157.577L343.774 150.94Z" fill="#E59636"/>
<path d="M343.774 150.476L332.282 143.839L320.375 150.695V154.38L331.867 160.992L332.282 161.236L344.189 154.404V150.72L343.774 150.476ZM342.944 150.939L332.282 157.088L321.619 150.939L332.282 144.791L342.944 150.939ZM321.18 153.916V151.647L325.596 154.209L331.843 157.82V160.065L321.18 153.941V153.916Z" fill="#350B00"/>
<path d="M338.382 151.646L332.282 155.062L326.158 151.646L332.282 148.133L338.382 151.646Z" fill="white"/>
<path d="M332.282 155.576L324.279 150.964L332.282 146.353L340.31 150.964L332.282 155.576ZM325.914 150.964L332.282 154.649L338.65 150.964L332.282 147.28L325.914 150.964Z" fill="#350B00"/>
<path d="M280.215 216.231V185.464L338.797 219.257V250.39L280.215 216.231Z" fill="#E59636"/>
<path d="M280.215 184.536L301.979 171.873L360.513 205.641L338.797 218.133L280.215 184.536Z" fill="#E59636"/>
<path d="M339.09 218.328L338.797 221.037L280.215 187.561V184.682L339.09 218.328Z" fill="#E59636"/>
<path d="M282.387 185.902L301.979 174.507L360.513 208.276L340.969 219.475L282.387 185.902Z" fill="white"/>
<path d="M301.979 171.215L279.629 184.22V216.573L338.797 251.074L361.098 238.093V205.325L301.979 171.215ZM280.702 188.416L284.948 190.832V218.33L280.776 215.89L280.702 188.416ZM328.452 215.695L332.966 218.281V246.34L328.427 243.681H328.452V215.695ZM327.622 243.217L323.108 240.582V212.645L327.622 215.231V243.217ZM322.279 212.23V240.094L317.765 237.459V209.595L322.401 212.254H322.279V212.23ZM316.935 236.971L312.421 234.336V206.521L316.935 209.107V236.971ZM311.592 233.848L307.078 231.213V203.471L311.592 206.057V233.848ZM306.248 230.725L301.783 228.114V200.421L306.248 202.983V230.725ZM300.954 227.65L296.44 225.015V197.395L300.954 199.982V227.65ZM295.61 224.527L291.097 221.892V194.321L295.61 196.907V224.527ZM290.267 221.404L285.753 218.769V191.271L290.267 193.857V221.404ZM338.187 249.341L333.771 246.755V218.696L338.187 221.209V249.317V249.341ZM338.187 218.72V220.087L280.678 187.221V185.318L338.187 218.403V218.72ZM338.773 217.403L281.337 184.488L301.979 172.484L359.366 205.593L338.797 217.403H338.773Z" fill="#350B00"/>
<path d="M361.098 208.081V207.032L338.285 220.183L338.31 221.232L349.802 214.595V244.655L350.631 244.167V214.132L361.098 208.081Z" fill="#E59636"/>
<path d="M345.337 236.165C345.093 236.165 344.849 236.092 344.654 235.97L344.312 235.775C344.142 235.677 344.093 235.458 344.19 235.287C344.288 235.116 344.508 235.067 344.678 235.165L345.02 235.36C345.24 235.482 345.508 235.482 345.728 235.36L347.948 234.14L347.582 233.921C347.411 233.823 347.362 233.604 347.46 233.433C347.557 233.262 347.777 233.213 347.948 233.311L348.289 233.506C348.509 233.628 348.655 233.872 348.655 234.14C348.655 234.409 348.509 234.628 348.289 234.775L346.069 235.995C345.85 236.117 345.606 236.165 345.362 236.165H345.337Z" fill="#E59636"/>
<path d="M353.095 231.822C352.851 231.822 352.607 231.749 352.412 231.627L352.07 231.432C351.899 231.334 351.851 231.114 351.948 230.944C352.046 230.773 352.265 230.724 352.436 230.822L352.778 231.017C352.997 231.139 353.266 231.139 353.485 231.017L355.706 229.797L355.34 229.577C355.169 229.48 355.12 229.26 355.218 229.089C355.315 228.919 355.535 228.87 355.706 228.967L356.047 229.163C356.267 229.285 356.413 229.529 356.413 229.797C356.413 230.065 356.267 230.285 356.047 230.431L353.827 231.651C353.607 231.773 353.363 231.822 353.119 231.822H353.095Z" fill="#E59636"/>
<path d="M347.166 202.106L335.674 195.469L324.182 202.106V205.326L335.674 211.938V208.742L347.166 202.106Z" fill="#E59636"/>
<path d="M347.166 201.641L335.674 195.004L323.768 201.86V205.545L335.26 212.157L335.674 212.401L347.581 205.569V201.885L347.166 201.641ZM346.337 202.104L335.674 208.253L325.012 202.104L335.674 195.956L346.337 202.104ZM324.573 205.081V202.812L328.989 205.374L335.235 208.985V211.23L324.573 205.105V205.081Z" fill="#350B00"/>
<path d="M341.798 202.811L335.674 206.227L329.574 202.811L335.674 199.298L341.798 202.811Z" fill="white"/>
<path d="M335.675 206.715L327.672 202.103L335.675 197.492L343.702 202.103L335.675 206.715ZM329.307 202.103L335.675 205.787L342.043 202.103L335.675 198.419L329.307 202.103Z" fill="#350B00"/>
<path d="M123.162 222.034V227.812L209.433 277.609V271.831L123.162 222.034Z" fill="#E59636"/>
<path d="M209.433 271.831L123.162 222.034L191.901 182.145L278.172 231.942L209.433 271.831Z" fill="#E59636"/>
<path d="M209.433 274.67L123.162 224.853L191.901 184.984L278.172 234.781L209.433 274.67Z" fill="white"/>
<path d="M278.608 231.704L192.119 181.768L191.9 181.649L122.725 221.776V228.051L209.432 278.106L278.608 237.978V231.704ZM277.298 231.962L209.413 271.335L178.359 253.406L124.015 222.034L191.9 182.662L277.298 231.962ZM123.578 227.574V222.789L208.976 272.09V276.875L123.578 227.574Z" fill="#350B00"/>
<path d="M143.236 225.43L136.783 221.697L136.843 170.967L143.296 174.68L143.236 225.43Z" fill="#E59636"/>
<path d="M136.842 170.966L143.354 167.174L149.847 170.966L143.394 174.679L136.842 170.966Z" fill="#E59636"/>
<path d="M136.922 173.429L143.434 169.636L149.947 173.429L143.494 177.142L136.922 173.429Z" fill="white"/>
<path d="M150.284 170.708L143.335 166.678L136.386 170.708L136.326 221.935L143.276 225.946L150.225 221.935L150.284 170.708ZM143.335 167.67L148.974 170.947L143.395 174.163L137.696 170.927L143.335 167.651V167.67ZM142.779 224.655L137.2 221.438L137.259 171.701L142.839 174.918L142.779 224.655Z" fill="#350B00"/>
<path d="M258.556 235.436L252.104 231.704L252.163 180.974L258.616 184.686L258.556 235.436Z" fill="#E59636"/>
<path d="M252.164 180.973L258.677 177.181L265.189 180.973L258.736 184.686L252.164 180.973Z" fill="#E59636"/>
<path d="M252.266 183.436L258.758 179.643L265.271 183.436L258.818 187.168L252.266 183.436Z" fill="white"/>
<path d="M265.626 180.715L258.677 176.684L251.728 180.715L251.668 231.942L258.617 235.952L265.567 231.942L265.626 180.715ZM258.677 177.677L264.316 180.953L258.736 184.17L253.038 180.933L258.677 177.657V177.677ZM258.121 234.662L252.542 231.445L252.601 181.708L258.181 184.924L258.121 234.662Z" fill="#350B00"/>
<path d="M209.314 262.42L202.861 258.707L202.921 207.957L209.374 211.69L209.314 262.42Z" fill="#E59636"/>
<path d="M202.92 207.956L209.432 204.184L215.945 207.956L209.492 211.689L202.92 207.956Z" fill="#E59636"/>
<path d="M203.021 210.419L209.534 206.646L216.027 210.419L209.574 214.151L203.021 210.419Z" fill="white"/>
<path d="M216.382 207.718L209.433 203.687L202.483 207.718L202.424 258.945L209.373 262.955L216.322 258.945L216.382 207.718ZM209.433 204.68L215.072 207.956L209.492 211.173L203.794 207.936L209.433 204.66V204.68ZM208.877 261.665L203.297 258.448L203.357 208.711L208.936 211.927L208.877 261.665Z" fill="#350B00"/>
<path d="M193.17 196.778L186.717 193.065L186.776 142.335L193.229 146.048L193.17 196.778Z" fill="#E59636"/>
<path d="M186.775 142.334L193.288 138.542L199.8 142.334L193.347 146.047L186.775 142.334Z" fill="#E59636"/>
<path d="M186.877 144.797L193.389 141.004L199.882 144.797L193.449 148.51L186.877 144.797Z" fill="white"/>
<path d="M200.238 142.076L193.288 138.046L186.339 142.076L186.279 193.303L193.229 197.313L200.178 193.303L200.238 142.076ZM193.288 139.038L198.927 142.314L193.348 145.531L187.649 142.295L193.288 139.018V139.038ZM192.732 196.023L187.153 192.806L187.212 143.069L192.792 146.285L192.732 196.023Z" fill="#350B00"/>
<path d="M176.115 243.678L173.037 241.891V195.768L176.115 197.555V243.678Z" fill="#E59636"/>
<path d="M173.037 195.766L175.42 194.257L178.497 196.025L176.115 197.553L173.037 195.766Z" fill="#E59636"/>
<path d="M173.176 196.937L175.558 195.428L178.636 197.195L176.253 198.724L173.176 196.937Z" fill="white"/>
<path d="M175.4 193.821L172.66 195.548V242.109L176.115 244.114L178.855 242.427V195.807L175.38 193.821H175.4ZM175.738 208.712V243.022L173.395 241.672V196.402L175.738 197.752V208.712ZM174.129 195.965L173.752 195.747L175.42 194.695L177.783 196.045L176.115 197.117L174.149 195.985L174.129 195.965Z" fill="#350B00"/>
<path d="M176.791 212.764V209.051L191.007 217.35V221.063L176.791 212.764Z" fill="#E59636"/>
<path d="M191.385 221.718L176.414 212.982V208.396L191.385 217.132V221.718ZM177.169 212.565L190.65 220.428V217.569L177.169 209.706V212.565Z" fill="#350B00"/>
<path d="M176.793 209.052L178.421 208.138L192.757 216.378L191.009 217.351L176.793 209.052Z" fill="#E59636"/>
<path d="M177.172 210.064L178.78 209.151L193.116 217.39L191.388 218.363L177.172 210.064Z" fill="white"/>
<path d="M191.01 217.768L190.831 217.669L176.059 209.052L178.421 207.721L193.511 216.398L191.029 217.788L191.01 217.768ZM177.548 209.052L191.029 216.914L192.002 216.378L178.421 208.575L177.548 209.071V209.052Z" fill="#350B00"/>
<path d="M192.755 216.376V219.93L191.008 221.062V217.349L192.755 216.376Z" fill="#E59636"/>
<path d="M190.65 221.758V217.132L193.132 215.762V220.15L190.65 221.778V221.758ZM191.405 217.569V220.388L192.398 219.733V217.013L191.405 217.569Z" fill="#350B00"/>
<path d="M176.908 230.275V226.562L191.144 234.861V238.574L176.908 230.275Z" fill="#E59636"/>
<path d="M191.502 239.229L176.531 230.493V225.907L191.502 234.643V239.229ZM177.286 230.076L190.767 237.939V235.08L177.286 227.217V230.076Z" fill="#350B00"/>
<path d="M176.908 226.563L178.536 225.65L192.872 233.89L191.144 234.862L176.908 226.563Z" fill="#E59636"/>
<path d="M177.287 227.575L178.915 226.662L193.251 234.902L191.503 235.875L177.287 227.575Z" fill="white"/>
<path d="M191.125 235.28L190.946 235.18L176.174 226.563L178.537 225.233L193.627 233.91L191.145 235.299L191.125 235.28ZM177.663 226.563L191.145 234.426L192.118 233.89L178.537 226.087L177.663 226.583V226.563Z" fill="#350B00"/>
<path d="M192.874 233.89V237.444L191.146 238.576V234.863L192.874 233.89Z" fill="#E59636"/>
<path d="M190.77 239.27V234.644L193.251 233.254V237.642L190.77 239.27ZM191.524 235.081V237.9L192.517 237.265V234.545L191.524 235.101V235.081Z" fill="#350B00"/>
<path d="M194.103 254.262L191.006 252.495L191.026 206.351L194.103 208.138V254.262Z" fill="#E59636"/>
<path d="M191.025 206.35L193.388 204.841L196.486 206.608L194.103 208.137L191.025 206.35Z" fill="#E59636"/>
<path d="M191.025 207.562L193.388 206.053L196.486 207.82L194.103 209.349L191.025 207.562Z" fill="white"/>
<path d="M193.388 204.405L190.648 206.132V252.693L194.103 254.698L196.843 253.01V206.39L193.369 204.405H193.388ZM193.726 219.296V253.606L191.383 252.256V206.986L193.726 208.336V219.296ZM192.118 206.549L191.74 206.331L193.408 205.278L195.771 206.629L194.103 207.701L192.138 206.569L192.118 206.549Z" fill="#350B00"/>
<path d="M123.162 163.603V169.4L209.433 219.197V213.419L123.162 163.603Z" fill="#E59636"/>
<path d="M209.433 213.419L123.162 163.602L191.901 123.733L278.172 173.53L209.433 213.419Z" fill="#E59636"/>
<path d="M209.433 216.258L123.162 166.442L191.901 126.552L278.172 176.369L209.433 216.258Z" fill="white"/>
<path d="M278.608 173.292L192.119 123.356L191.9 123.237L122.725 163.364V169.638L209.432 219.693L278.608 179.566V173.292ZM277.298 173.55L209.413 212.923L178.359 194.993L124.015 163.622L191.9 124.249L277.298 173.55ZM123.578 169.162V164.377L208.976 213.677V218.462L123.578 169.162Z" fill="#350B00"/>
<path d="M143.236 166.997L136.783 163.284L136.843 112.554L143.296 116.267L143.236 166.997Z" fill="#E59636"/>
<path d="M136.842 112.553L143.354 108.76L149.847 112.553L143.394 116.266L136.842 112.553Z" fill="#E59636"/>
<path d="M136.922 115.015L143.434 111.223L149.947 115.015L143.494 118.728L136.922 115.015Z" fill="white"/>
<path d="M150.284 112.295L143.335 108.264L136.386 112.295L136.326 163.521L143.276 167.532L150.225 163.521L150.284 112.295ZM143.335 109.257L148.974 112.533L143.395 115.749L137.696 112.513L143.335 109.237V109.257ZM142.779 166.241L137.2 163.025L137.259 113.287L142.839 116.504L142.779 166.241Z" fill="#350B00"/>
<path d="M258.556 177.004L252.104 173.291L252.163 122.561L258.616 126.274L258.556 177.004Z" fill="#E59636"/>
<path d="M252.164 122.56L258.677 118.768L265.189 122.56L258.736 126.273L252.164 122.56Z" fill="#E59636"/>
<path d="M252.266 125.023L258.758 121.23L265.271 125.023L258.818 128.736L252.266 125.023Z" fill="white"/>
<path d="M265.626 122.302L258.677 118.271L251.728 122.302L251.668 173.529L258.617 177.539L265.567 173.529L265.626 122.302ZM258.677 119.264L264.316 122.54L258.736 125.757L253.038 122.521L258.677 119.244V119.264ZM258.121 176.249L252.542 173.032L252.601 123.295L258.181 126.511L258.121 176.249Z" fill="#350B00"/>
<path d="M237.329 160.923L212.689 146.846L199.088 154.708V170.394L223.728 184.471V168.806L237.329 160.923Z" fill="white"/>
<path d="M199.088 170.354L223.728 184.411V168.765L199.088 154.648V170.354Z" fill="#E59636"/>
<path d="M237.588 160.764L212.689 146.527L198.87 154.509H198.83V154.847V170.552L223.47 184.63L223.748 184.788L224.026 184.63L237.488 176.866L237.627 176.787V161.101V160.783L237.588 160.764ZM217.057 164.615L199.624 154.708L212.669 147.183L230.102 157.09L217.057 164.615ZM223.451 183.994L199.366 170.235V155.164L223.451 168.924V183.994ZM230.38 157.229L236.773 160.922L229.248 165.271L223.709 168.467L217.315 164.774L230.36 157.249L230.38 157.229Z" fill="#350B00"/>
<path d="M209.314 204.007L202.861 200.274L202.921 149.544L209.374 153.277L209.314 204.007Z" fill="#E59636"/>
<path d="M202.92 149.544L209.432 145.752L215.945 149.544L209.492 153.277L202.92 149.544Z" fill="#E59636"/>
<path d="M203.021 152.006L209.534 148.234L216.027 152.006L209.574 155.739L203.021 152.006Z" fill="white"/>
<path d="M216.382 149.306L209.433 145.275L202.483 149.306L202.424 200.532L209.373 204.543L216.322 200.532L216.382 149.306ZM209.433 146.268L215.072 149.544L209.492 152.76L203.794 149.524L209.433 146.248V146.268ZM208.877 203.252L203.297 200.036L203.357 150.298L208.936 153.515L208.877 203.252Z" fill="#350B00"/>
<path d="M193.17 138.367L186.717 134.654L186.776 83.9043L193.229 87.6371L193.17 138.367Z" fill="#E59636"/>
<path d="M186.775 83.9036L193.288 80.1311L199.8 83.9036L193.347 87.6364L186.775 83.9036Z" fill="#E59636"/>
<path d="M186.877 86.386L193.389 82.5936L199.882 86.386L193.449 90.0989L186.877 86.386Z" fill="white"/>
<path d="M200.238 83.6654L193.288 79.6348L186.339 83.6654L186.279 134.892L193.229 138.903L200.178 134.892L200.238 83.6654ZM193.288 80.6275L198.927 83.9036L193.348 87.1202L187.649 83.8838L193.288 80.6077V80.6275ZM192.732 137.612L187.153 134.396L187.212 84.6581L192.792 87.8747L192.732 137.612Z" fill="#350B00"/>
<path d="M123.162 105.882V111.66L209.433 161.457V155.679L123.162 105.882Z" fill="#E59636"/>
<path d="M209.433 155.679L123.162 105.882L191.901 65.9926L278.172 115.809L209.433 155.679Z" fill="#E59636"/>
<path d="M209.433 158.518L123.162 108.701L191.901 68.8314L278.172 118.628L209.433 158.518Z" fill="white"/>
<path d="M278.608 115.551L192.119 65.6155L191.9 65.4963L122.725 105.624V111.898L209.432 161.953L278.608 121.826V115.551ZM277.298 115.81L209.413 155.182L178.359 137.253L124.015 105.882L191.9 66.5089L277.298 115.81ZM123.578 111.422V106.636L208.976 155.937V160.722L123.578 111.422Z" fill="#350B00"/>
<path d="M143.236 109.277L136.783 105.544L136.843 54.8143L143.296 58.5471L143.236 109.277Z" fill="#E59636"/>
<path d="M136.842 54.8147L143.354 51.0223L149.847 54.8147L143.394 58.5475L136.842 54.8147Z" fill="#E59636"/>
<path d="M136.922 57.2772L143.434 53.4849L149.947 57.2772L143.494 61.01L136.922 57.2772Z" fill="white"/>
<path d="M150.284 54.5567L143.335 50.5261L136.386 54.5567L136.326 105.783L143.276 109.794L150.225 105.783L150.284 54.5567ZM143.335 51.5189L148.974 54.795L143.395 58.0115L137.696 54.7751L143.335 51.499V51.5189ZM142.779 108.503L137.2 105.287L137.259 55.5495L142.839 58.7661L142.779 108.503Z" fill="#350B00"/>
<path d="M258.556 119.285L252.104 115.552L252.163 64.8219L258.616 68.5547L258.556 119.285Z" fill="#E59636"/>
<path d="M252.164 64.8214L258.677 61.0291L265.189 64.8214L258.736 68.5542L252.164 64.8214Z" fill="#E59636"/>
<path d="M252.266 67.2838L258.758 63.4915L265.271 67.2838L258.818 71.0166L252.266 67.2838Z" fill="white"/>
<path d="M265.626 64.5634L258.677 60.5328L251.728 64.5634L251.668 115.79L258.617 119.801L265.567 115.79L265.626 64.5634ZM258.677 61.5256L264.316 64.8017L258.736 68.0183L253.038 64.7819L258.677 61.5057V61.5256ZM258.121 118.51L252.542 115.294L252.601 65.5562L258.181 68.7727L258.121 118.51Z" fill="#350B00"/>
<path d="M209.314 146.267L202.861 142.554L202.921 91.8242L209.374 95.5372L209.314 146.267Z" fill="#E59636"/>
<path d="M202.92 91.8236L209.432 88.0312L215.945 91.8236L209.492 95.5365L202.92 91.8236Z" fill="#E59636"/>
<path d="M203.021 94.286L209.534 90.4937L216.027 94.286L209.574 97.9989L203.021 94.286Z" fill="white"/>
<path d="M216.382 91.5656L209.433 87.535L202.483 91.5656L202.424 142.792L209.373 146.803L216.322 142.792L216.382 91.5656ZM209.433 88.5278L215.072 91.8039L209.492 95.0205L203.794 91.7841L209.433 88.5079V88.5278ZM208.877 145.512L203.297 142.296L203.357 92.5584L208.936 95.775L208.877 145.512Z" fill="#350B00"/>
<path d="M193.17 80.6267L186.717 76.9137L186.776 26.1836L193.229 29.8965L193.17 80.6267Z" fill="#E59636"/>
<path d="M186.775 26.1827L193.288 22.3904L199.8 26.1827L193.347 29.8957L186.775 26.1827Z" fill="#E59636"/>
<path d="M186.877 28.6454L193.389 24.853L199.882 28.6454L193.449 32.3583L186.877 28.6454Z" fill="white"/>
<path d="M200.238 25.9247L193.288 21.894L186.339 25.9247L186.279 77.1512L193.229 81.1619L200.178 77.1512L200.238 25.9247ZM193.288 22.8868L198.927 26.1629L193.348 29.3795L187.649 26.1431L193.288 22.867V22.8868ZM192.732 79.8713L187.153 76.6548L187.212 26.9174L192.792 30.134L192.732 79.8713Z" fill="#350B00"/>
<path d="M181.915 78.619L170.458 72.0072L159.002 78.619V91.8426L170.458 98.4544V85.2705L181.915 78.619Z" fill="white"/>
<path d="M159.002 91.8043L170.458 98.4161V85.2322L159.002 78.5807V91.8043Z" fill="#E59636"/>
<path d="M182.153 78.4811L170.478 71.7303L158.823 78.4613H158.783V78.7392V91.9628L170.24 98.5746L170.478 98.7136L170.716 98.5746L182.054 92.0224L182.173 91.9628V78.7392V78.4811H182.153ZM170.478 72.2664L175.859 75.3837L164.859 81.7374L159.478 78.6201L170.478 72.2664ZM170.24 98.0584L159.24 91.7047V79.0172L170.24 85.3709V98.0584ZM175.124 82.2735L170.458 84.9738L165.077 81.8565L176.077 75.5028L181.458 78.6201L175.124 82.2735Z" fill="#350B00"/>
<path d="M182.93 100.72L175.861 96.6492V88.5085L182.93 92.5789V100.72Z" fill="#E59636"/>
<path d="M189.978 88.5092L182.93 92.5795L175.861 88.5092L182.93 84.4388L189.978 88.5092Z" fill="#E59636"/>
<path d="M189.977 89.3229L183.623 92.9365L176.574 88.8662L182.928 85.2526L189.977 89.3229Z" fill="white"/>
<path d="M182.909 84.2L175.861 88.2703L175.662 88.3894V96.7683L182.711 100.839L182.909 100.958L183.108 100.839L190.156 96.7683V88.3894L182.889 84.2H182.909ZM182.909 84.6765L189.541 88.5085L186.205 90.4345L182.889 92.3406L181.857 91.7449L176.258 88.5085L182.889 84.6765H182.909ZM176.059 96.5301V88.8659L182.691 92.698V100.362L176.059 96.5301Z" fill="#350B00"/>
<path d="M116.459 213.554L113.36 211.675L113.141 207.65L116.459 207.43V213.554Z" fill="#E59636"/>
<path d="M120.363 205.477L115.971 202.695L115.654 208.551L119.973 208.112L120.363 205.477Z" fill="#E59636"/>
<path d="M120.217 206.21L115.849 203.453L115.508 209.309L119.851 208.845L120.217 206.21Z" fill="white"/>
<path d="M120.608 205.354C120.608 205.354 120.559 205.305 120.534 205.305C120.534 205.305 120.51 205.305 120.486 205.305L115.777 202.328L115.508 207.281L112.922 207.452L113.166 211.844L116.484 213.869L120.168 211.673L120.998 209.526V206.061C120.998 205.768 120.876 205.524 120.656 205.354H120.608ZM116.216 213.161L113.581 211.551L113.385 207.867L115.459 207.72L115.386 208.818L116.191 208.745V213.186L116.216 213.161ZM116.216 208.282H115.899L115.923 207.696H116.216V208.282ZM116.387 207.208H115.972L116.191 203.109L119.656 205.305L116.411 207.208H116.387Z" fill="#350B00"/>
<path d="M82.4219 227.755L87.2773 224.559L85.6182 224.022L82.4219 222.168V227.755Z" fill="#E59636"/>
<path d="M82.2021 228.169V221.777L85.74 223.802L87.7896 224.461L82.1777 228.169H82.2021ZM82.6657 222.557V227.315L86.7648 224.607L85.5692 224.217L82.6657 222.557Z" fill="#350B00"/>
<path d="M91.1324 219.481L85.6426 224.019L88.3753 225.63L88.8877 225.337C89.8392 224.776 90.7176 224.922 91.108 225.703L91.962 227.216C92.2304 227.752 92.206 226.898 92.8648 226.508L94.6215 226.801H96.2562L96.915 225.483L98.5742 224.532L107.992 219.091C108.724 218.676 109.383 217.773 109.651 216.846C109.871 216.09 111.14 215.236 111.725 214.894L112.043 214.699C112.823 214.26 113.458 213.162 113.458 212.259V209.453L91.2056 219.457L91.1324 219.481Z" fill="#E59636"/>
<path d="M92.0837 227.606C91.8885 227.606 91.791 227.411 91.7422 227.313L90.8882 225.825C90.7418 225.532 90.5466 225.361 90.2782 225.288C89.9122 225.19 89.4486 225.288 88.985 225.556L88.375 225.922L85.252 224.068L91.059 219.286L113.628 209.136V212.308C113.628 213.283 112.969 214.455 112.115 214.943L111.798 215.138C111.115 215.528 110.017 216.358 109.846 216.968C109.554 217.968 108.87 218.895 108.09 219.359L97.0856 225.703L96.4024 227.069H94.6456L92.9377 226.825C92.7181 226.971 92.6205 227.191 92.5229 227.337C92.4253 227.508 92.3521 227.679 92.1569 227.679L92.0837 227.606ZM89.9366 224.776C90.083 224.776 90.2294 224.776 90.3758 224.849C90.7662 224.971 91.059 225.215 91.2542 225.605L92.0593 226.996C92.1813 226.776 92.3521 226.508 92.6937 226.313L92.7669 226.264L94.5969 226.557H96.0364L96.6708 225.312L98.3787 224.312L107.797 218.871C108.48 218.481 109.09 217.627 109.358 216.748C109.651 215.772 111.335 214.772 111.53 214.65L111.847 214.455C112.555 214.04 113.14 213.015 113.14 212.21V209.77L91.2298 219.603L86.0083 223.922L88.3507 225.312L88.741 225.093C89.1558 224.849 89.5706 224.727 89.9366 224.727V224.776Z" fill="#350B00"/>
<path d="M90.2069 221.995C89.4993 221.556 88.5233 221.58 87.4254 222.214C85.3027 223.434 83.5703 226.435 83.5703 228.9C83.5703 230.022 83.9363 230.827 84.5219 231.267H84.5463C84.6439 231.34 84.7415 231.388 84.8635 231.437L87.7182 233.096L90.0117 230.461L93.0372 225.508V223.556L90.2313 221.946L90.2069 221.995Z" fill="#E59636"/>
<path d="M86.9115 228.485L84.5204 227.118C84.4472 227.265 84.3984 227.411 84.3496 227.557L86.5455 228.826L90.0834 231.705L89.8638 232.071L89.4978 232.486L89.3758 232.706L90.2298 231.73L90.4494 231.364L86.9115 228.485Z" fill="white"/>
<path d="M91.2539 230.047L93.2547 226.777V224.825L90.4488 223.215C89.7412 222.776 88.7652 222.8 87.6673 223.434C86.5937 224.069 85.6177 225.142 84.9102 226.362L91.2539 230.022V230.047Z" fill="white"/>
<path d="M87.5706 233.316L84.7159 231.656C84.7159 231.656 84.4963 231.534 84.3743 231.461H84.3255V231.437L84.2523 231.388C83.6424 230.876 83.3008 229.997 83.3008 228.899C83.3008 226.362 85.0819 223.287 87.2779 222.019C88.4002 221.384 89.4494 221.287 90.2546 221.775H90.3034L93.2069 223.483V225.63L90.157 230.632L87.5706 233.34V233.316ZM84.6427 231.095C84.6427 231.095 84.8135 231.217 84.9111 231.266L87.6194 232.828L89.791 230.339L92.7433 225.483V223.751L90.2058 222.287L90.0594 222.189C89.4006 221.775 88.4978 221.848 87.4974 222.409C85.4479 223.605 83.7644 226.508 83.7644 228.875C83.7644 229.875 84.0572 230.632 84.6183 231.046L84.6427 231.095Z" fill="#350B00"/>
<path d="M94.1105 226.094C94.1105 228.558 92.3782 231.535 90.2555 232.779C88.1327 233.999 86.4004 233.023 86.4004 230.559C86.4004 228.095 88.1327 225.118 90.2555 223.874C92.3782 222.654 94.1105 223.63 94.1105 226.094Z" fill="#350B00"/>
<path d="M88.5464 233.535C88.1316 233.535 87.7656 233.438 87.424 233.243C86.6189 232.779 86.1797 231.827 86.1797 230.559C86.1797 228.021 87.9608 224.947 90.1568 223.678C91.2547 223.044 92.3039 222.946 93.1091 223.41C93.9142 223.873 94.3534 224.825 94.3534 226.094C94.3534 228.631 92.5723 231.705 90.3763 232.974C89.742 233.34 89.1076 233.535 88.5464 233.535ZM91.9867 223.58C91.4987 223.58 90.9619 223.751 90.3763 224.068C88.3268 225.264 86.6433 228.168 86.6433 230.534C86.6433 231.632 87.0093 232.462 87.668 232.828C88.3268 233.194 89.2052 233.121 90.1568 232.559C92.2307 231.364 93.8898 228.46 93.8898 226.094C93.8898 224.996 93.5239 224.166 92.8651 223.8C92.5967 223.654 92.3039 223.58 91.9867 223.58Z" fill="#350B00"/>
<path d="M89.1084 231.85C88.84 231.85 88.5716 231.777 88.352 231.655C87.8152 231.337 87.498 230.679 87.498 229.825C87.498 228.117 88.6936 226.043 90.182 225.189C90.9383 224.75 91.6459 224.701 92.2071 225.018C92.7439 225.335 93.0611 225.994 93.0611 226.848C93.0611 228.556 91.8655 230.63 90.3771 231.484C89.938 231.728 89.5232 231.874 89.1328 231.874L89.1084 231.85ZM91.4019 225.189C91.0847 225.189 90.7187 225.286 90.3528 225.506C88.9864 226.287 87.864 228.214 87.864 229.8C87.864 230.532 88.108 231.069 88.5228 231.313C88.9376 231.557 89.5232 231.484 90.1576 231.142C91.5239 230.361 92.6463 228.434 92.6463 226.848C92.6463 226.116 92.4023 225.579 91.9875 225.335C91.8167 225.238 91.6215 225.189 91.4019 225.189Z" fill="#E59636"/>
<path d="M89.1067 231.851C88.6187 231.851 88.1795 231.655 87.8867 231.241V230.923H88.0575C88.3991 230.923 88.7895 230.826 89.2043 230.606C90.5706 229.825 91.693 227.898 91.693 226.312C91.693 225.824 91.571 225.409 91.3758 225.116L91.5466 224.824C92.4738 224.897 93.035 225.653 93.035 226.849C93.035 228.557 91.8394 230.631 90.351 231.485C89.9119 231.729 89.4971 231.851 89.1067 231.851ZM88.4723 231.289C88.8871 231.582 89.4971 231.533 90.1558 231.143C91.5222 230.362 92.6446 228.435 92.6446 226.849C92.6446 226.068 92.3762 225.507 91.8882 225.287C92.0102 225.58 92.059 225.922 92.059 226.312C92.059 228.02 90.8634 230.094 89.3751 230.948C89.0579 231.119 88.7651 231.241 88.4723 231.289Z" fill="#E59636"/>
<path d="M89.084 230.753L87.498 229.826V229.704C87.5468 228.143 88.5228 226.337 89.8404 225.385L89.938 225.312L91.4751 226.215C91.4751 226.215 91.5971 226.313 91.6215 226.386C91.6215 226.459 91.6215 226.532 91.5971 226.605L89.1084 230.729L89.084 230.753ZM87.8884 229.607L88.962 230.241L91.2067 226.508L89.9624 225.776C88.84 226.63 87.9616 228.24 87.8884 229.607Z" fill="#E59636"/>
<path d="M91.8651 227.484C91.8651 228.558 91.1088 229.851 90.1816 230.388C89.2544 230.925 88.498 230.485 88.498 229.412C88.498 228.338 89.2544 227.045 90.1816 226.508C91.1088 225.972 91.8651 226.411 91.8651 227.484Z" fill="#350B00"/>
<path d="M89.4485 230.802C89.2533 230.802 89.0825 230.754 88.9117 230.656C88.5458 230.436 88.3262 229.997 88.3262 229.412C88.3262 228.289 89.1313 226.899 90.1073 226.337C90.6197 226.045 91.1077 225.996 91.4737 226.215C91.8397 226.435 92.0592 226.874 92.0592 227.46C92.0592 228.582 91.2541 229.973 90.2781 230.534C89.9853 230.705 89.6925 230.778 89.4241 230.778L89.4485 230.802ZM90.9369 226.484C90.7417 226.484 90.5221 226.557 90.2781 226.679C89.3997 227.191 88.6922 228.411 88.6922 229.412C88.6922 229.851 88.8385 230.192 89.0825 230.339C89.3265 230.485 89.6925 230.436 90.0829 230.217C90.9613 229.704 91.6689 228.484 91.6689 227.484C91.6689 227.045 91.5225 226.703 91.2785 226.557C91.1809 226.508 91.0589 226.459 90.9369 226.459V226.484Z" fill="#E59636"/>
<path d="M76.0057 213.871C75.2981 213.432 74.3222 213.456 73.2242 214.091C71.1015 215.311 69.3691 218.312 69.3691 220.776C69.3691 221.898 69.7351 222.704 70.3207 223.143H70.3451C70.4427 223.216 70.5403 223.265 70.6623 223.314L73.517 224.973L75.8105 222.338L78.836 217.385V215.433L76.0301 213.822L76.0057 213.871Z" fill="#E59636"/>
<path d="M72.7357 220.361L70.3446 218.995C70.2714 219.141 70.2226 219.287 70.1738 219.434L72.3698 220.702L75.9076 223.582L75.6881 223.948L75.3221 224.362L75.2001 224.582L76.054 223.606L76.2736 223.24L72.7357 220.361Z" fill="white"/>
<path d="M77.0547 221.923L79.0555 218.653V216.701L76.2496 215.091C75.542 214.652 74.566 214.676 73.4681 215.311C72.3945 215.945 71.4185 217.019 70.7109 218.238L77.0547 221.898V221.923Z" fill="white"/>
<path d="M73.3461 225.167L70.5402 223.532C70.5402 223.532 70.3206 223.41 70.1986 223.337H70.1498V223.313L70.0766 223.264C69.4666 222.752 69.125 221.873 69.125 220.775C69.125 218.238 70.9061 215.164 73.1021 213.895C74.2244 213.26 75.2736 213.163 76.0788 213.651H76.1276L79.0311 215.359V217.506L75.9812 222.508L73.3461 225.192V225.167ZM70.467 222.971C70.467 222.971 70.6378 223.093 70.7353 223.142L73.4437 224.704L75.6152 222.215L78.5675 217.359V215.627L76.03 214.163L75.8836 214.066C75.2248 213.651 74.322 213.724 73.3217 214.285C71.2721 215.481 69.5886 218.384 69.5886 220.751C69.5886 221.751 69.8814 222.508 70.4426 222.922L70.467 222.971Z" fill="#350B00"/>
<path d="M79.9328 217.969C79.9328 220.434 78.2005 223.41 76.0777 224.655C73.955 225.875 72.2227 224.899 72.2227 222.434C72.2227 219.97 73.955 216.993 76.0777 215.749C78.2005 214.529 79.9328 215.505 79.9328 217.969Z" fill="#350B00"/>
<path d="M74.3452 225.41C73.9304 225.41 73.5645 225.313 73.2229 225.117C72.4177 224.654 71.9785 223.702 71.9785 222.434C71.9785 219.896 73.7597 216.822 75.9556 215.553C77.0536 214.919 78.1027 214.821 78.9079 215.285C79.7131 215.748 80.1522 216.7 80.1522 217.968C80.1522 220.506 78.3711 223.58 76.1752 224.849C75.5408 225.215 74.9064 225.41 74.3452 225.41ZM77.7855 215.455C77.2975 215.455 76.7608 215.626 76.1752 215.943C74.1256 217.139 72.4421 220.042 72.4421 222.409C72.4421 223.507 72.8081 224.337 73.4669 224.703C74.1256 225.069 75.004 224.995 75.9556 224.434C78.0295 223.239 79.6887 220.335 79.6887 217.968C79.6887 216.871 79.3227 216.041 78.6639 215.675C78.3955 215.529 78.1027 215.455 77.7855 215.455Z" fill="#350B00"/>
<path d="M74.9307 223.725C74.6623 223.725 74.3939 223.652 74.1743 223.53C73.6375 223.213 73.3203 222.554 73.3203 221.7C73.3203 219.992 74.5159 217.918 76.0042 217.064C76.7606 216.625 77.4682 216.576 78.0294 216.893C78.5661 217.211 78.8833 217.869 78.8833 218.723C78.8833 220.431 77.6878 222.505 76.1994 223.359C75.7602 223.603 75.3454 223.749 74.9551 223.749L74.9307 223.725ZM77.2242 217.064C76.907 217.064 76.541 217.162 76.175 217.381C74.8087 218.162 73.6863 220.09 73.6863 221.676C73.6863 222.408 73.9303 222.944 74.3451 223.188C74.7599 223.432 75.3454 223.359 75.9798 223.018C77.3462 222.237 78.4685 220.309 78.4685 218.723C78.4685 217.991 78.2246 217.454 77.8098 217.21C77.639 217.113 77.4438 217.064 77.2242 217.064Z" fill="#E59636"/>
<path d="M74.9309 223.726C74.4429 223.726 74.0037 223.531 73.7109 223.116V222.799H73.8817C74.2233 222.799 74.6137 222.701 75.0285 222.481C76.3949 221.701 77.5172 219.773 77.5172 218.187C77.5172 217.699 77.3952 217.284 77.2 216.992L77.3708 216.699C78.298 216.772 78.8592 217.528 78.8592 218.724C78.8592 220.432 77.6636 222.506 76.1753 223.36C75.7361 223.604 75.3213 223.726 74.9309 223.726ZM74.2965 223.165C74.7113 223.457 75.3213 223.409 75.9801 223.018C77.3464 222.237 78.4688 220.31 78.4688 218.724C78.4688 217.943 78.2004 217.382 77.7124 217.162C77.8344 217.455 77.8832 217.797 77.8832 218.187C77.8832 219.895 76.6876 221.969 75.1993 222.823C74.8821 222.994 74.5893 223.116 74.2965 223.165Z" fill="#E59636"/>
<path d="M74.8828 222.629L73.2969 221.701V221.579C73.3457 220.018 74.3216 218.212 75.6392 217.261L75.7368 217.188L77.2739 218.09C77.2739 218.09 77.3959 218.188 77.4203 218.261C77.4203 218.334 77.4203 218.407 77.3959 218.481L74.9072 222.604L74.8828 222.629ZM73.6873 221.482L74.7608 222.116L77.0055 218.383L75.7612 217.651C74.6388 218.505 73.7605 220.115 73.6873 221.482Z" fill="#E59636"/>
<path d="M77.6894 219.361C77.6894 220.435 76.933 221.728 76.0058 222.265C75.0786 222.802 74.3223 222.362 74.3223 221.289C74.3223 220.215 75.0786 218.922 76.0058 218.385C76.933 217.849 77.6894 218.288 77.6894 219.361Z" fill="#350B00"/>
<path d="M75.2728 222.679C75.0776 222.679 74.9068 222.63 74.736 222.533C74.37 222.313 74.1504 221.874 74.1504 221.288C74.1504 220.166 74.9556 218.775 75.9315 218.214C76.4439 217.921 76.9319 217.873 77.2979 218.092C77.6639 218.312 77.8835 218.751 77.8835 219.337C77.8835 220.459 77.0783 221.85 76.1023 222.411C75.8095 222.582 75.5167 222.655 75.2484 222.655L75.2728 222.679ZM76.7611 218.361C76.5659 218.361 76.3463 218.434 76.1023 218.556C75.224 219.068 74.5164 220.288 74.5164 221.288C74.5164 221.728 74.6628 222.069 74.9068 222.216C75.1508 222.362 75.5167 222.313 75.9071 222.094C76.7855 221.581 77.4931 220.361 77.4931 219.361C77.4931 218.922 77.3467 218.58 77.1027 218.434C77.0051 218.385 76.8831 218.336 76.7611 218.336V218.361Z" fill="#E59636"/>
<path d="M110.482 179.394L94.769 170.39L94.647 170.317H94.5982C94.3298 170.195 94.0126 170.22 93.6222 170.415L84.6189 175.197C83.5942 175.734 82.6182 176.856 82.0082 178.174L78.6899 185.323C75.0545 193.155 72.4437 201.158 71.0042 208.892L69.8574 214.968L85.6193 224.02L96.2818 203.036L96.5014 202.914C97.1113 202.548 97.6237 201.695 97.6237 200.987V200.426L102.821 190.178L110.482 179.394Z" fill="#E59636"/>
<path d="M110.457 180.59L94.7436 171.586L94.6216 171.513H94.5728C94.3044 171.391 93.9872 171.416 93.5969 171.611L85.1303 176.173C84.1056 176.71 83.1296 177.833 82.5196 179.15L79.2013 186.299C75.5658 194.131 72.9551 202.134 71.5156 209.869L69.832 216.188L84.4716 223.361L85.6183 224.02L96.232 204.257L96.4516 204.135C97.0616 203.769 97.5739 202.915 97.5739 202.207V201.646L102.771 191.399L110.432 180.614L110.457 180.59Z" fill="white"/>
<path d="M85.6426 224.264L69.5879 215.09L70.7591 208.844C72.223 201.061 74.8093 193.107 78.4692 185.226L81.7875 178.077C82.4219 176.71 83.4222 175.564 84.4958 175.002L93.4991 170.22C94.0115 169.952 94.4263 170.001 94.6459 170.074H94.7191C94.7191 170.074 94.8167 170.171 94.8655 170.196L110.774 179.321L102.966 190.301L97.7934 200.475V200.988C97.7934 201.793 97.2566 202.72 96.549 203.135L96.4026 203.232L85.5938 224.289L85.6426 224.264ZM70.1003 214.846L85.5206 223.679L96.1098 202.866L96.3782 202.72C96.915 202.403 97.3786 201.598 97.3786 200.988V200.329L102.6 190.081L110.139 179.467L94.6459 170.586L94.5239 170.513C94.2799 170.44 94.0115 170.464 93.7187 170.611L84.7154 175.393C83.715 175.93 82.7879 177.003 82.2023 178.247L78.884 185.396C75.2485 193.253 72.6622 201.158 71.2226 208.893L70.1247 214.822L70.1003 214.846Z" fill="#350B00"/>
<path d="M117.214 193.962L106.039 187.52C106.039 187.52 105.966 187.472 105.917 187.447C105.527 187.252 105.039 187.301 104.478 187.618L104.185 187.789C103.673 188.082 103.258 188.814 103.258 189.399V202.965C103.258 203.282 103.38 203.478 103.551 203.575L114.725 210.017C114.725 210.017 114.921 210.017 114.945 209.919C115.213 208.406 117.019 198.549 117.019 198.281C117.019 197.988 116.214 195.475 116.214 195.475L117.239 193.937L117.214 193.962Z" fill="#E59636"/>
<path d="M117.264 195.108L106.089 188.667C106.089 188.667 106.016 188.618 105.967 188.594C105.577 188.398 105.089 188.447 104.528 188.764L104.235 188.935C103.722 189.228 104.162 189.326 104.162 189.326C104.162 189.326 116.605 196.816 116.605 196.548C116.605 196.255 117.239 195.108 117.239 195.108H117.264Z" fill="white"/>
<path d="M114.775 210.261C114.775 210.261 114.653 210.261 114.58 210.212L103.405 203.795C103.161 203.648 102.99 203.356 102.99 202.99V189.424C102.99 188.74 103.454 187.935 104.039 187.594L104.332 187.423C104.942 187.081 105.528 187.008 105.991 187.228C106.04 187.252 106.089 187.277 106.138 187.325L117.508 193.889L116.41 195.523C116.629 196.207 117.191 197.988 117.191 198.281C117.191 198.549 115.727 206.528 115.117 209.943C115.117 210.065 115.019 210.163 114.897 210.212C114.848 210.212 114.799 210.236 114.751 210.236L114.775 210.261ZM105.406 187.569C105.162 187.569 104.869 187.667 104.576 187.838L104.283 188.008C103.844 188.277 103.454 188.911 103.454 189.424V202.99C103.454 203.185 103.527 203.331 103.625 203.404L114.702 209.773C115.702 204.258 116.727 198.598 116.751 198.305C116.751 198.134 116.337 196.768 115.946 195.572V195.475L116.849 194.06L105.894 187.74C105.894 187.74 105.821 187.691 105.796 187.667C105.674 187.618 105.552 187.569 105.406 187.569Z" fill="#350B00"/>
<path d="M114.508 195.913V209.479C114.508 210.065 114.923 210.309 115.435 210.016L116.923 209.162C117.436 208.869 117.851 208.137 117.851 207.551V195.376C117.851 194.01 116.899 193.473 115.728 194.156L115.435 194.327C114.923 194.62 114.508 195.352 114.508 195.937V195.913Z" fill="#350B00"/>
<path d="M115.02 210.382C114.898 210.382 114.776 210.358 114.654 210.284C114.41 210.138 114.264 209.845 114.264 209.479V195.913C114.264 195.23 114.727 194.425 115.313 194.083L115.606 193.913C116.24 193.547 116.874 193.498 117.338 193.766C117.826 194.035 118.07 194.596 118.07 195.352V207.527C118.07 208.21 117.606 209.016 117.021 209.357L115.532 210.211C115.337 210.309 115.166 210.382 114.996 210.382H115.02ZM116.679 194.059C116.435 194.059 116.142 194.157 115.85 194.327L115.557 194.498C115.118 194.767 114.727 195.401 114.727 195.913V209.479C114.727 209.674 114.776 209.821 114.898 209.894C114.996 209.943 115.166 209.918 115.337 209.821L116.826 208.967C117.265 208.698 117.655 208.064 117.655 207.552V195.376C117.655 194.815 117.484 194.376 117.143 194.205C117.021 194.132 116.874 194.083 116.704 194.083L116.679 194.059Z" fill="#350B00"/>
<path d="M111.043 213.845C110.482 213.504 109.701 213.528 108.847 214.016C107.163 214.992 105.797 217.359 105.797 219.286C105.797 220.165 106.09 220.799 106.553 221.165H106.578C106.651 221.214 106.748 221.263 106.822 221.311L109.066 222.605L110.872 220.531L113.263 216.627V215.09L111.043 213.821V213.845Z" fill="#E59636"/>
<path d="M106.626 217.507L111.335 220.264L112.945 217.605V216.067L110.725 214.799C110.164 214.457 109.383 214.481 108.529 214.969C107.651 215.482 106.87 216.36 106.309 217.361C106.406 217.409 106.504 217.434 106.601 217.507H106.626Z" fill="white"/>
<path d="M109.091 222.923L106.675 221.532C106.675 221.532 106.504 221.435 106.407 221.386H106.382L106.285 221.313C105.797 220.898 105.553 220.19 105.553 219.336C105.553 217.336 106.968 214.871 108.725 213.871C109.554 213.383 110.384 213.31 111.018 213.603L111.067 213.627L111.14 213.676L113.458 215.018V216.75L111.043 220.703L109.091 222.948V222.923ZM106.7 221.02C106.7 221.02 106.846 221.093 106.895 221.118L108.993 222.338L110.677 220.41L113.019 216.579V215.237L111.067 214.115L110.921 214.017C110.408 213.7 109.725 213.749 108.944 214.188C107.334 215.115 106.016 217.409 106.016 219.263C106.016 220.044 106.26 220.63 106.675 220.947H106.724L106.7 221.02Z" fill="#350B00"/>
<path d="M114.117 217.092C114.117 219.044 112.751 221.386 111.067 222.362C109.384 223.338 108.018 222.558 108.018 220.606C108.018 218.654 109.384 216.311 111.067 215.335C112.751 214.359 114.117 215.14 114.117 217.092Z" fill="#350B00"/>
<path d="M109.725 222.997C109.408 222.997 109.091 222.923 108.823 222.753C108.164 222.387 107.822 221.606 107.822 220.581C107.822 218.58 109.237 216.116 110.994 215.116C111.873 214.603 112.727 214.53 113.385 214.896C114.044 215.262 114.386 216.043 114.386 217.068C114.386 219.068 112.97 221.533 111.214 222.533C110.701 222.826 110.189 222.972 109.75 222.972L109.725 222.997ZM112.458 215.116C112.092 215.116 111.653 215.238 111.214 215.506C109.603 216.433 108.286 218.727 108.286 220.581C108.286 221.435 108.554 222.069 109.067 222.362C109.579 222.655 110.262 222.582 110.994 222.143C112.605 221.215 113.922 218.922 113.922 217.068C113.922 216.214 113.654 215.579 113.141 215.286C112.946 215.164 112.702 215.116 112.458 215.116Z" fill="#350B00"/>
<path d="M110.165 221.654C109.946 221.654 109.726 221.605 109.531 221.483C109.092 221.214 108.848 220.702 108.848 219.994C108.848 218.628 109.799 216.969 110.97 216.286C111.58 215.944 112.166 215.895 112.605 216.139C113.044 216.408 113.288 216.92 113.288 217.628C113.288 218.994 112.337 220.653 111.166 221.336C110.824 221.532 110.482 221.629 110.165 221.629V221.654ZM111.995 216.383C111.751 216.383 111.483 216.456 111.19 216.627C110.116 217.237 109.238 218.75 109.238 219.994C109.238 220.556 109.409 220.97 109.75 221.141C110.068 221.336 110.507 221.288 110.995 220.995C112.068 220.385 112.947 218.872 112.947 217.628C112.947 217.066 112.776 216.652 112.434 216.481C112.312 216.408 112.166 216.359 111.995 216.359V216.383Z" fill="#E59636"/>
<path d="M110.165 221.654C109.751 221.654 109.409 221.484 109.165 221.166L109.092 220.849H109.336C109.604 220.874 109.897 220.8 110.214 220.605C111.288 219.995 112.166 218.483 112.166 217.238C112.166 216.848 112.068 216.531 111.922 216.311L111.751 216.091L112.093 216.018C112.849 216.067 113.313 216.701 113.313 217.653C113.313 219.019 112.361 220.678 111.19 221.362C110.849 221.557 110.507 221.654 110.19 221.654H110.165ZM109.775 221.191C110.092 221.337 110.507 221.288 110.971 221.02C112.044 220.41 112.922 218.897 112.922 217.653C112.922 217.092 112.752 216.701 112.434 216.506C112.508 216.726 112.532 216.97 112.532 217.238C112.532 218.605 111.58 220.264 110.409 220.947C110.19 221.069 109.995 221.166 109.775 221.215V221.191Z" fill="#E59636"/>
<path d="M110.165 220.824L108.848 220.068V219.946C108.872 218.701 109.653 217.262 110.702 216.505L110.8 216.432L112.02 217.164C112.02 217.164 112.117 217.262 112.142 217.335C112.142 217.408 112.142 217.481 112.117 217.554L110.141 220.848L110.165 220.824ZM109.238 219.848L110.019 220.312L111.751 217.433L110.824 216.896C109.97 217.579 109.287 218.799 109.214 219.848H109.238Z" fill="#E59636"/>
<path d="M112.362 218.165C112.362 219.019 111.776 220.044 111.044 220.459C110.312 220.874 109.727 220.532 109.727 219.703C109.727 218.873 110.312 217.824 111.044 217.409C111.776 216.994 112.362 217.336 112.362 218.165Z" fill="#350B00"/>
<path d="M110.433 220.849C110.262 220.849 110.116 220.8 109.994 220.727C109.677 220.556 109.506 220.19 109.506 219.702C109.506 218.775 110.14 217.701 110.921 217.238C111.336 216.994 111.726 216.969 112.043 217.14C112.361 217.311 112.531 217.677 112.531 218.165C112.531 219.092 111.897 220.165 111.116 220.629C110.872 220.775 110.653 220.849 110.433 220.849ZM111.604 217.433C111.458 217.433 111.287 217.482 111.116 217.579C110.433 217.969 109.896 218.921 109.896 219.702C109.896 220.043 109.994 220.287 110.189 220.385C110.384 220.483 110.653 220.458 110.945 220.287C111.629 219.897 112.165 218.945 112.165 218.165C112.165 217.823 112.068 217.579 111.873 217.481C111.799 217.433 111.726 217.408 111.629 217.408L111.604 217.433Z" fill="#E59636"/>
<path d="M85.6191 224.02L86.7659 217.944C88.2055 210.21 90.8162 202.207 94.4517 194.375L97.7699 187.226C98.3799 185.908 99.3559 184.81 100.381 184.249L109.384 179.467C110.262 179.003 110.946 179.442 110.946 180.443V195.375C110.946 195.839 111.141 196.18 111.458 196.302L112.824 196.766C113.166 196.888 113.385 197.254 113.385 197.766V210.039C113.385 210.746 112.873 211.625 112.263 211.966L109.75 213.43C108.969 213.87 108.286 214.846 108.042 215.821L107.042 219.823C106.871 220.531 106.383 221.214 105.822 221.531L96.9648 226.63C96.3792 226.972 95.8912 226.801 95.7204 226.264L95.0616 223.922C94.8176 223.068 94.4273 222.409 93.8905 221.946C92.6705 220.897 90.7674 221.043 88.8154 222.165L85.6435 224.02H85.6191Z" fill="#350B00"/>
<path d="M96.379 227.022C96.379 227.022 96.135 227.022 96.0375 226.949C95.7691 226.851 95.5983 226.607 95.5007 226.314L94.8419 223.972C94.6223 223.191 94.2563 222.557 93.7439 222.117C92.646 221.166 90.8404 221.263 88.9373 222.361L85.6678 224.265L85.375 224.143L86.5462 217.896C88.0101 210.113 90.5964 202.159 94.2563 194.278L97.5746 187.129C98.209 185.763 99.2094 184.616 100.283 184.055L109.286 179.272C109.774 179.004 110.238 178.98 110.604 179.199C110.97 179.419 111.189 179.858 111.189 180.444V195.376C111.189 195.742 111.311 196.01 111.531 196.084L112.897 196.547C113.337 196.693 113.605 197.157 113.605 197.767V210.04C113.605 210.845 113.068 211.772 112.361 212.187L109.847 213.651C109.115 214.066 108.481 214.968 108.261 215.896L107.261 219.897C107.066 220.654 106.529 221.41 105.944 221.751L97.0866 226.851C96.8426 226.997 96.623 227.046 96.4034 227.046L96.379 227.022ZM91.8408 220.995C92.6948 220.995 93.4511 221.239 94.0367 221.751C94.6223 222.264 95.0371 222.947 95.2811 223.825L95.9399 226.168C95.9643 226.29 96.0375 226.461 96.2082 226.509C96.379 226.583 96.5986 226.534 96.8426 226.387L105.7 221.288C106.212 220.995 106.651 220.361 106.822 219.726L107.822 215.725C108.091 214.676 108.823 213.675 109.628 213.187L112.141 211.723C112.678 211.406 113.141 210.625 113.141 209.991V197.718C113.141 197.303 112.995 197.011 112.751 196.937L111.385 196.474C110.97 196.327 110.726 195.913 110.726 195.327V180.395C110.726 179.98 110.604 179.687 110.384 179.541C110.165 179.419 109.847 179.443 109.53 179.614L100.527 184.396C99.5265 184.933 98.5994 185.982 98.0138 187.251L94.6955 194.4C91.06 202.257 88.4737 210.162 87.0341 217.896L85.985 223.484L88.7177 221.898C89.8157 221.263 90.9136 220.922 91.8652 220.922L91.8408 220.995Z" fill="#350B00"/>
<path d="M108.725 183.079C108.725 182.42 108.286 182.152 107.725 182.445L101.356 185.836C100.356 186.373 99.1604 188.008 98.5749 189.276L96.3057 194.132C92.7922 201.696 90.2547 209.455 88.864 216.945L88.4004 219.385L90.0595 218.409C91.7431 217.506 93.1582 217.409 94.4026 217.75C95.4518 218.043 96.1593 218.775 96.2569 218.97C96.4033 219.239 96.7205 219.263 97.0621 219.068L101.576 216.457C102.04 216.189 102.454 215.579 102.552 214.993L103.991 206.112C104.065 205.599 104.357 205.038 104.748 204.648L107.944 201.403C108.432 200.915 108.749 200.183 108.749 199.573V183.079H108.725Z" fill="#E59636"/>
<path d="M88.0586 219.824L88.6198 216.896C90.0349 209.357 92.5481 201.647 96.0859 194.034L98.3551 189.179C98.965 187.885 100.209 186.202 101.259 185.641L107.627 182.249C107.968 182.054 108.31 182.054 108.554 182.2C108.822 182.371 108.969 182.664 108.969 183.079V199.573C108.969 200.231 108.627 201.012 108.09 201.573L104.894 204.818C104.528 205.184 104.284 205.697 104.186 206.16L102.747 215.042C102.649 215.701 102.186 216.359 101.673 216.676L97.1595 219.287C96.6959 219.556 96.2567 219.482 96.0371 219.092C95.9395 218.921 95.2808 218.238 94.3048 217.994C92.9628 217.628 91.5965 217.848 90.1325 218.628L88.0586 219.848V219.824ZM93.0116 217.335C93.4752 217.335 93.9632 217.408 94.4268 217.53C95.5248 217.823 96.2811 218.604 96.4275 218.848C96.5495 219.068 96.8179 218.921 96.9155 218.848L101.429 216.237C101.844 215.993 102.21 215.457 102.283 214.92L103.723 206.038C103.82 205.477 104.113 204.867 104.552 204.452L107.749 201.207C108.188 200.744 108.505 200.085 108.505 199.548V183.054C108.505 182.81 108.432 182.64 108.31 182.566C108.188 182.493 108.017 182.518 107.822 182.615L101.454 186.007C100.502 186.519 99.331 188.129 98.7698 189.325L96.5007 194.18C92.9872 201.769 90.4741 209.43 89.0834 216.945L88.7174 218.872L89.9373 218.165C91.0109 217.579 92.0357 217.286 93.036 217.286L93.0116 217.335Z" fill="#350B00"/>
<path d="M107.699 182.443L107.113 182.761V198.986C107.113 199.596 106.796 200.328 106.308 200.816L103.112 204.061C102.721 204.451 102.428 205.013 102.355 205.525L100.916 214.406C100.818 214.992 100.428 215.602 99.9398 215.87L95.6211 218.359C95.9627 218.603 96.1579 218.847 96.2311 218.945C96.3775 219.213 96.6947 219.237 97.0363 219.042L101.55 216.431C102.014 216.163 102.428 215.553 102.526 214.967L103.966 206.086C104.039 205.574 104.332 205.013 104.722 204.622L107.918 201.377C108.406 200.889 108.723 200.157 108.723 199.547V183.053C108.723 182.395 108.284 182.126 107.723 182.419L107.699 182.443Z" fill="#E59636"/>
<path d="M107.798 183.859L107.212 184.176V199.694C107.212 200.304 106.895 201.036 106.407 201.524L103.211 204.769C102.82 205.159 102.527 205.721 102.454 206.233L101.015 215.114C100.917 215.7 100.527 216.31 100.039 216.578L96.1836 218.799C96.5252 219.043 96.6228 219.165 96.696 219.262C96.8424 219.531 97.0132 219.067 97.3547 218.872L101.381 216.725C101.844 216.456 102.454 215.553 102.527 214.968L103.869 207.819C103.943 207.307 104.235 206.745 104.626 206.355L108.017 202.866C108.505 202.378 108.822 201.646 108.822 201.036V184.493C108.822 183.835 108.383 183.566 107.822 183.859H107.798Z" fill="white"/>
<path d="M96.6222 219.434C96.3782 219.434 96.1586 219.312 96.0122 219.092C95.9634 219.019 95.7926 218.824 95.4754 218.58L95.207 218.36L99.8185 215.701C100.233 215.457 100.599 214.92 100.672 214.383L102.112 205.502C102.21 204.941 102.502 204.331 102.942 203.916L106.138 200.671C106.577 200.207 106.894 199.549 106.894 198.987V182.616L107.602 182.225C107.943 182.054 108.285 182.03 108.529 182.176C108.797 182.347 108.944 182.64 108.944 183.055V199.549C108.944 200.207 108.602 200.988 108.065 201.549L104.869 204.794C104.503 205.16 104.259 205.673 104.162 206.136L102.722 215.018C102.624 215.676 102.161 216.335 101.648 216.652L97.1346 219.263C96.9638 219.361 96.7686 219.41 96.6222 219.41V219.434ZM96.0122 218.434C96.2074 218.604 96.3538 218.775 96.4026 218.873C96.5246 219.068 96.793 218.946 96.8906 218.873L101.404 216.262C101.819 216.018 102.185 215.481 102.258 214.944L103.698 206.063C103.796 205.502 104.088 204.892 104.528 204.477L107.724 201.232C108.163 200.769 108.48 200.11 108.48 199.573V183.079C108.48 182.835 108.407 182.664 108.285 182.591C108.163 182.518 107.992 182.542 107.797 182.64L107.333 182.884V198.987C107.333 199.646 106.992 200.451 106.455 200.988L103.259 204.233C102.893 204.599 102.649 205.112 102.551 205.575L101.112 214.457C101.014 215.115 100.55 215.774 100.038 216.091L96.0122 218.409V218.434Z" fill="#350B00"/>
<path d="M90.8139 218.042C90.8139 218.042 91.0091 217.969 91.1311 217.92C91.2287 217.895 91.3263 217.847 91.3995 217.822C91.4727 217.822 91.5459 217.773 91.6191 217.749C91.7167 217.725 91.8387 217.7 91.9363 217.676H91.9607C92.8391 217.505 93.6198 217.554 94.3518 217.749L92.7415 217.163C91.5703 216.846 90.2284 216.919 88.6668 217.676L88.3496 219.359L90.0087 218.383C90.2039 218.286 90.3747 218.188 90.5699 218.115C90.6431 218.091 90.7163 218.042 90.7895 218.017L90.8139 218.042Z" fill="#E59636"/>
<path d="M91.8631 217.7C92.7415 217.529 92.3023 217.505 93.0343 217.7L92.7415 217.602C91.5704 217.285 90.2284 217.358 88.6669 218.115L88.4473 219.31L89.8868 218.529C90.082 218.432 91.8631 217.675 91.8631 217.675V217.7Z" fill="white"/>
<path d="M88.0576 219.823L88.4968 217.553L88.5944 217.505C90.0583 216.773 91.4491 216.602 92.8154 216.968L94.4502 217.553L94.3038 217.993C93.5718 217.797 92.7911 217.773 92.0103 217.919C91.8883 217.944 91.7907 217.968 91.6687 217.993C91.5955 217.993 91.5223 218.041 91.4491 218.041C91.3515 218.066 91.2783 218.09 91.1807 218.139C91.0831 218.163 90.9855 218.212 90.8879 218.237L90.8147 218.285C90.7659 218.285 90.7171 218.334 90.6683 218.334C90.4975 218.407 90.3023 218.505 90.1315 218.603L88.0332 219.823H88.0576ZM88.9116 217.846L88.7164 218.92L89.9363 218.212C90.1315 218.09 90.3267 218.017 90.5219 217.919C90.5707 217.919 90.6195 217.871 90.6683 217.846H90.7415V217.797C90.8391 217.749 90.9367 217.724 91.0343 217.675C91.1319 217.651 91.2295 217.602 91.3271 217.578C91.4003 217.578 91.4735 217.529 91.5467 217.505C91.6687 217.48 91.7663 217.456 91.8883 217.431C92.1079 217.383 92.3519 217.358 92.5715 217.334C91.4003 217.041 90.1803 217.212 88.8872 217.822L88.9116 217.846Z" fill="#350B00"/>
<path d="M108.822 208.943C108.822 208.943 108.578 208.845 108.456 208.845C108.31 208.845 108.164 208.894 108.017 208.967L105.675 210.309C105.675 210.309 105.553 210.431 105.48 210.504C105.163 210.797 104.919 211.212 104.87 211.626C104.821 211.992 104.919 212.285 105.138 212.456C105.236 212.529 105.333 212.554 105.455 212.554C105.602 212.554 105.748 212.505 105.894 212.432L108.237 211.09C108.652 210.846 109.018 210.285 109.091 209.772C109.14 209.406 109.042 209.113 108.822 208.943ZM105.894 210.651L108.237 209.284C108.237 209.284 108.383 209.235 108.456 209.211C108.505 209.211 108.53 209.211 108.554 209.211C108.627 209.26 108.676 209.382 108.676 209.553C108.627 209.601 108.578 209.626 108.53 209.675L106.187 211.016C106.041 211.09 105.919 211.114 105.821 211.065C105.748 211.017 105.699 210.895 105.699 210.748C105.748 210.699 105.821 210.651 105.894 210.602V210.651ZM108.042 210.748L105.699 212.09C105.553 212.188 105.431 212.188 105.333 212.139C105.236 212.066 105.187 211.895 105.211 211.675C105.211 211.504 105.309 211.334 105.382 211.163C105.431 211.26 105.504 211.358 105.577 211.407C105.675 211.456 105.773 211.504 105.894 211.504C106.041 211.504 106.187 211.456 106.334 211.382L108.53 210.114C108.408 210.382 108.212 210.602 107.993 210.724L108.042 210.748Z" fill="#E59636"/>
<path d="M104.797 179.227L104.87 179.178L93.5243 172.541L86.4973 176.274C85.4725 176.811 84.4966 177.933 83.8866 179.251L80.5683 186.4C76.9816 194.11 73.8829 204.407 72.4434 212.019L84.7406 219.339C86.1801 211.653 89.3032 201.283 92.9143 193.524L96.2326 186.375C96.8426 185.058 97.8185 183.96 98.8433 183.399L105.724 179.739L104.797 179.202V179.227Z" fill="#E59636"/>
<path d="M84.5455 216.751L72.6875 209.749V209.578C74.1759 201.892 76.7622 194.06 80.3489 186.301L83.6671 179.152C84.3015 177.786 85.3019 176.639 86.3754 176.078L93.5244 172.271L93.6464 172.345L105.334 179.176L98.0871 183.031C97.1111 183.568 96.1595 184.617 95.574 185.886L92.2557 193.035C88.6446 200.818 86.0827 208.699 84.6187 216.41L84.5699 216.727L84.5455 216.751ZM73.1755 209.529L84.2039 216.019C85.6679 208.382 88.2298 200.574 91.8165 192.864L95.1348 185.715C95.7692 184.349 96.7695 183.202 97.8431 182.641L104.358 179.176L93.4756 172.808L86.5462 176.492C85.5459 177.029 84.6187 178.078 84.0331 179.347L80.7148 186.496C77.1525 194.157 74.615 201.892 73.1511 209.505L73.1755 209.529Z" fill="#350B00"/>
<path d="M74.9568 208.554C76.4207 200.917 78.5679 195.037 82.1545 187.327L85.4728 180.178C86.0828 178.861 87.0588 177.763 88.0835 177.201L93.2318 174.396L103.04 180.129L104.846 179.178L93.5002 172.541L86.4732 176.274C85.4484 176.811 84.4725 177.933 83.8625 179.251L80.5442 186.4C76.9575 194.11 74.3956 201.991 72.9316 209.628L84.3749 216.362C84.4969 215.679 84.6433 215.02 84.7897 214.337L74.9324 208.53L74.9568 208.554Z" fill="#E59636"/>
<path d="M74.7361 209.359L72.7109 210.457L84.1542 217.191C84.2762 216.508 84.4226 215.849 84.569 215.166L74.7117 209.359H74.7361Z" fill="white"/>
<path d="M84.5455 216.751L72.6875 209.749V209.578C74.1759 201.892 76.7622 194.06 80.3489 186.301L83.6671 179.152C84.3015 177.786 85.3019 176.639 86.3754 176.078L93.5244 172.271L93.6464 172.345L105.334 179.176L103.04 180.396L93.2316 174.663L88.2054 177.42C87.205 177.956 86.2779 179.03 85.6923 180.299L82.374 187.448C79.1045 194.499 76.7622 200.477 75.225 208.455L85.0823 214.262L84.9847 214.677C84.8627 215.263 84.7407 215.848 84.6187 216.434L84.5699 216.751H84.5455ZM73.1755 209.529L84.2039 216.019C84.3015 215.531 84.3991 215.043 84.4967 214.555V214.458L74.6638 208.651V208.48C76.2498 200.379 78.5921 194.328 81.9104 187.204L85.2287 180.055C85.8631 178.688 86.8634 177.542 87.937 176.98L93.1828 174.101L102.991 179.835L104.333 179.128L93.4512 172.759L86.5218 176.444C85.5215 176.98 84.5943 178.03 84.0087 179.298L80.6904 186.447C77.1282 194.109 74.5906 201.843 73.1267 209.456L73.1755 209.529Z" fill="#350B00"/>
<path d="M73.2 209.53L74.7128 208.676L75.4692 206.114L78.0799 197.086L83.4233 184.618L85.8388 179.519L86.6928 178.348L88.3763 177.079L93.2318 174.419L93.5246 172.565L85.9364 176.664L84.8873 177.664L82.1057 182.544L78.2019 192.011L75.7619 198.696L72.9316 209.237L73.2 209.53Z" fill="#350B00"/>
<path d="M104.116 193.554L96.8828 202.765L97.2474 203.051L104.48 193.84L104.116 193.554Z" fill="#350B00"/>
<path d="M100.415 202.908L96.3105 208.217L96.6773 208.5L100.781 203.192L100.415 202.908Z" fill="#350B00"/>
<path d="M93.1082 208.284L92.7422 207.991L95.9141 203.965L96.2801 204.234L93.1082 208.284Z" fill="#350B00"/>
<path d="M103.257 190.13L101.793 192.021L102.16 192.304L103.623 190.414L103.257 190.13Z" fill="#350B00"/>
<path d="M72.5645 216.531V221.923L82.4217 227.755V222.167L72.5645 216.531Z" fill="#E59636"/>
<path d="M72.4922 217.751V221.801L82.3495 227.608V223.387L72.4922 217.751Z" fill="white"/>
<path d="M82.6412 228.145L72.3203 222.045V216.116L82.6412 222.021V228.12V228.145ZM72.7839 221.801L82.1776 227.34V222.313L72.7839 216.921V221.801Z" fill="#350B00"/>
<path d="M83.422 230.804L80.5185 232.488L80.4941 174.149L83.3977 172.49L83.422 230.804Z" fill="#350B00"/>
<path d="M79.2012 173.368L80.4943 174.149L83.3978 172.489L82.1047 171.684L79.2012 173.368Z" fill="#E59636"/>
<path d="M79.2012 173.978L80.4943 174.783V174.148L82.8854 172.782L82.1047 172.294L79.2012 173.978Z" fill="white"/>
<path d="M79.2012 231.681L80.5187 232.486L80.4943 174.148L79.2012 173.367V231.681Z" fill="#E59636"/>
<path d="M83.6417 172.344L82.1045 171.392L78.957 173.198V231.78L80.5186 232.732L83.6661 230.926V172.344H83.6417ZM82.1045 171.929L82.9585 172.466L82.2997 172.856L80.4942 173.905L79.6402 173.368L82.1045 171.953V171.929ZM79.445 231.536V173.759L80.2746 174.271V186.056V232.049L79.4206 231.536H79.445ZM80.7382 186.08V174.296L82.5925 173.222L83.2025 172.88V230.658L80.7626 232.073V186.08H80.7382Z" fill="#350B00"/>
<path d="M94.6943 183.347L88.2773 179.443L88.4725 179.126L94.8895 183.03L94.6943 183.347Z" fill="#350B00"/>
<path d="M91.207 179.712L89.5234 178.687L89.7186 178.346L91.4022 179.37L91.207 179.712Z" fill="#350B00"/>
<path d="M92.1224 179.766L91.916 180.098L92.7444 180.614L92.9508 180.282L92.1224 179.766Z" fill="#350B00"/>
<path d="M89.4986 195.84L85.5215 193.327L85.7167 193.01L89.6937 195.498L89.4986 195.84Z" fill="#350B00"/>
<path d="M88.1654 196.334L87.959 196.665L88.7874 197.181L88.9938 196.85L88.1654 196.334Z" fill="#350B00"/>
<path d="M117.63 206.893V207.43C117.63 207.943 117.264 208.601 116.801 208.845L116.605 208.967V209.504L117.045 209.26C117.63 208.919 118.094 208.113 118.094 207.43V206.625L117.63 206.893Z" fill="#E59636"/>
<path d="M72.9552 224.461L70.0517 226.144L70.0273 167.83L72.9552 166.147V224.461Z" fill="#350B00"/>
<path d="M68.7344 167.025L70.0275 167.831L72.9554 166.147L71.6379 165.342L68.7344 167.025Z" fill="#E59636"/>
<path d="M68.7344 167.635L70.0275 168.44V167.83L72.4431 166.464L71.6379 165.976L68.7344 167.635Z" fill="white"/>
<path d="M68.7588 225.339L70.0519 226.144L70.0275 167.83L68.7344 167.025L68.7588 225.339Z" fill="#E59636"/>
<path d="M73.1749 166.025L71.6377 165.073L68.4902 166.879V225.462L70.0518 226.413L73.1993 224.608V166.025H73.1749ZM71.6377 165.61L72.4917 166.147L71.8329 166.537L70.0274 167.587L69.1734 167.05L71.6377 165.635V165.61ZM68.9782 225.218V167.44L69.8078 167.953V179.737V225.73L68.9538 225.218H68.9782ZM70.2714 179.762V167.977L72.1257 166.903L72.7357 166.562V224.339L70.2958 225.754V179.762H70.2714Z" fill="#350B00"/>
<path d="M98.5991 224.314L97.6475 224.875C97.4523 224.997 97.2571 225.022 97.1107 224.973C96.9643 224.924 96.9155 224.778 96.8911 224.68L96.4519 223.094L96.0859 223.24L96.5251 224.778C96.5983 225.046 96.7691 225.241 96.9887 225.314C97.0863 225.363 97.1839 225.363 97.2815 225.363C97.4767 225.363 97.6719 225.314 97.8671 225.192L98.6235 224.753V224.314H98.5991Z" fill="#E59636"/>
<path d="M72.834 224.41L73.1756 224.654H73.2V223.044L72.834 222.824V224.41Z" fill="#E59636"/>
<path d="M72.834 208.991L73.1756 209.235L73.2 207.771L72.834 207.551V208.991Z" fill="#E59636"/>
<path d="M83.3008 183.737L83.6424 183.981L83.618 179.979L83.3008 179.76V183.737Z" fill="#E59636"/>
<path d="M56.4141 218.114V219.456L80.6425 233.412V232.119L56.4141 218.114Z" fill="#E59636"/>
<path d="M80.6425 232.119L56.4141 218.114L59.2932 216.455L83.546 230.436L80.6425 232.119Z" fill="#E59636"/>
<path d="M80.6418 232.119L56.877 218.407L59.2925 216.992L83.1305 230.753L80.6418 232.119Z" fill="white"/>
<path d="M83.7167 230.534V230.339L83.5459 230.241L59.3906 216.309L59.293 216.26L56.3895 217.944L56.2188 218.042V219.579L80.4472 233.535L80.618 233.633L80.7888 233.535L83.6923 231.876V230.558L83.7167 230.534ZM83.1799 230.436L82.4723 230.827L80.618 231.9L72.005 226.923L56.7311 218.115L59.2687 216.651L83.1555 230.436H83.1799ZM56.5847 219.359V218.432L80.4716 232.217V233.12L56.5847 219.383V219.359Z" fill="#350B00"/>
<path d="M52.4609 220.238V221.58L76.6894 235.536V234.243L52.4609 220.238Z" fill="#E59636"/>
<path d="M76.6894 234.244L52.4609 220.239L55.34 218.579L79.5685 232.56L76.6894 234.244Z" fill="#E59636"/>
<path d="M76.6887 234.243L52.9238 220.531L55.3394 219.116L79.153 232.877L76.6887 234.243Z" fill="white"/>
<path d="M79.7635 232.658V232.463L79.5927 232.365L55.4375 218.433L55.3399 218.384L52.4364 220.068L52.2656 220.166V221.703L76.494 235.659L76.6648 235.757L76.8356 235.659L79.7391 234V232.682L79.7635 232.658ZM79.2268 232.56L78.5192 232.951L76.6648 234.024L68.0519 229.047L52.778 220.239L55.3155 218.775L79.2024 232.56H79.2268ZM52.6316 221.483V220.556L76.5184 234.341V235.244L52.6316 221.507V221.483Z" fill="#350B00"/>
<path d="M48.4824 222.529V223.871L72.7352 237.827V236.509L48.4824 222.529Z" fill="#E59636"/>
<path d="M72.7372 236.51L48.4844 222.529L51.3879 220.846L75.6163 234.851L72.7372 236.51Z" fill="#E59636"/>
<path d="M72.7355 236.509L48.9707 222.797L51.3862 221.406L75.1999 235.167L72.7355 236.509Z" fill="white"/>
<path d="M75.8104 234.948V234.753L75.6396 234.655L51.4844 220.723L51.3868 220.675L48.4833 222.358L48.3125 222.456V223.993L72.5409 237.949L72.7117 238.047L72.8825 237.949L75.786 236.29V234.973L75.8104 234.948ZM75.2736 234.851L74.566 235.241L72.7117 236.315L64.0988 231.337L48.8249 222.529L51.3624 221.065L75.2492 234.851H75.2736ZM48.6785 223.773V222.846L72.5653 236.632V237.535L48.6785 223.798V223.773Z" fill="#350B00"/>
<path d="M44.5312 224.824V226.166L68.7597 240.122V238.805L44.5312 224.824Z" fill="#E59636"/>
<path d="M68.7597 238.806L44.5312 224.826L47.4348 223.142L71.6632 237.147L68.7597 238.806Z" fill="#E59636"/>
<path d="M68.76 238.805L45.0195 225.093L47.435 223.702L71.2487 237.463L68.76 238.805Z" fill="white"/>
<path d="M71.8338 237.244V237.049L71.6631 236.952L47.5078 223.02L47.4102 222.971L44.5067 224.654L44.3359 224.752V226.289L68.5644 240.245L68.7351 240.343L68.9059 240.245L71.8095 238.586V237.269L71.8338 237.244ZM71.2971 237.147L70.5895 237.537L68.7351 238.611L60.1222 233.633L44.8483 224.825L47.3858 223.361L71.2727 237.147H71.2971ZM44.7019 226.07V225.142L68.5888 238.928V239.831L44.7019 226.094V226.07Z" fill="#350B00"/>
<path d="M56.4141 213.892V215.234L80.6425 229.19V227.897L56.4141 213.892Z" fill="#E59636"/>
<path d="M80.6425 227.898L56.4141 213.893L59.2932 212.233L83.546 226.214L80.6425 227.898Z" fill="#E59636"/>
<path d="M80.6418 227.897L56.877 214.185L59.2925 212.77L83.1305 226.531L80.6418 227.897Z" fill="white"/>
<path d="M83.7167 226.312V226.117L83.5459 226.019L59.3906 212.087L59.293 212.038L56.3895 213.722L56.2188 213.819V215.357L80.4472 229.313L80.618 229.411L80.7888 229.313L83.6923 227.654V226.336L83.7167 226.312ZM83.1799 226.214L82.4723 226.629L80.618 227.703L72.005 222.725L56.7311 213.917L59.2687 212.453L83.1555 226.239L83.1799 226.214ZM56.5847 215.137V214.21L80.4716 227.995V228.898L56.5847 215.161V215.137Z" fill="#350B00"/>
<path d="M52.4609 216.015V217.357L76.6894 231.313V230.02L52.4609 216.015Z" fill="#E59636"/>
<path d="M76.6894 230.021L52.4609 216.016L55.34 214.357L79.5685 228.338L76.6894 230.021Z" fill="#E59636"/>
<path d="M76.6887 230.02L52.9238 216.307L55.3394 214.892L79.153 228.653L76.6887 230.02Z" fill="white"/>
<path d="M79.7635 228.435V228.239L79.5927 228.142L55.4375 214.21L55.3399 214.161L52.4364 215.845L52.2656 215.942V217.479L76.494 231.436L76.6648 231.533L76.8356 231.436L79.7391 229.777V228.459L79.7635 228.435ZM79.2268 228.337L78.5192 228.727L76.6648 229.801L68.0519 224.824L52.778 216.015L55.3155 214.552L79.2024 228.337H79.2268ZM52.6316 217.26V216.333L76.5184 230.118V231.021L52.6316 217.284V217.26Z" fill="#350B00"/>
<path d="M48.4824 218.308V219.65L72.7352 233.606V232.288L48.4824 218.308Z" fill="#E59636"/>
<path d="M72.7372 232.29L48.4844 218.309L51.3879 216.625L75.6163 230.631L72.7372 232.29Z" fill="#E59636"/>
<path d="M72.7355 232.289L48.9707 218.576L51.3862 217.186L75.1999 230.947L72.7355 232.289Z" fill="white"/>
<path d="M75.8104 230.728V230.533L75.6396 230.435L51.4844 216.503L51.3868 216.454L48.4833 218.138L48.3125 218.235V219.773L72.5409 233.729L72.7117 233.827L72.8825 233.729L75.786 232.07V230.752L75.8104 230.728ZM75.2736 230.63L74.566 231.021L72.7117 232.094L64.0988 227.117L48.8249 218.309L51.3624 216.845L75.2492 230.63H75.2736ZM48.6785 219.553V218.626L72.5653 232.411V233.314L48.6785 219.577V219.553Z" fill="#350B00"/>
<path d="M44.5312 220.602V221.944L68.7597 235.9V234.583L44.5312 220.602Z" fill="#E59636"/>
<path d="M68.7597 234.584L44.5312 220.603L47.4348 218.92L71.6632 232.925L68.7597 234.584Z" fill="#E59636"/>
<path d="M68.76 234.583L45.0195 220.87L47.435 219.48L71.2487 233.241L68.76 234.583Z" fill="white"/>
<path d="M71.8338 233.022V232.827L71.6631 232.729L47.5078 218.797L47.4102 218.748L44.5067 220.432L44.3359 220.53V222.067L68.5644 236.023L68.7351 236.121L68.9059 236.023L71.8095 234.364V233.046L71.8338 233.022ZM71.2971 232.924L70.5895 233.315L68.7351 234.388L60.1222 229.411L44.8483 220.603L47.3858 219.139L71.2727 232.924H71.2971ZM44.7019 221.847V220.92L68.5888 234.705V235.608L44.7019 221.872V221.847Z" fill="#350B00"/>
<path d="M62.2207 235.048V232.12L65.8806 234.242V237.146L62.2207 235.048Z" fill="#E59636"/>
<path d="M68.418 235.68L66.0513 234.314V234.119L62.0254 231.801V235.144L66.0513 237.437V237.022L68.418 235.656V235.68ZM65.7097 236.827L62.3914 234.924V232.387L65.7097 234.314V236.827Z" fill="#350B00"/>
<path d="M47.1172 226.287V223.433L50.7771 225.58V228.435L47.1172 226.287Z" fill="#E59636"/>
<path d="M53.3145 226.97L50.9477 225.604V225.458L46.9219 223.115V226.385L50.9477 228.727V228.312L53.3145 226.946V226.97ZM50.6062 228.117L47.2879 226.19V223.725L50.6062 225.653V228.093V228.117Z" fill="#350B00"/>
<path d="M54.4863 230.533V227.679L58.1462 229.826V232.681L54.4863 230.533Z" fill="#E59636"/>
<path d="M60.6836 231.216L58.3169 229.85V229.704L54.291 227.361V230.631L58.3169 232.973V232.558L60.6836 231.192V231.216ZM57.9753 232.363L54.657 230.435V227.971L57.9753 229.899V232.339V232.363Z" fill="#350B00"/>
<path d="M71.5912 208.917L60.6604 202.622L49.7539 208.917V221.532L60.6604 227.851V215.261L71.5912 208.917Z" fill="white"/>
<path d="M49.7539 221.505L60.6604 227.801V215.21L49.7539 208.891V221.505Z" fill="#E59636"/>
<path d="M71.8097 208.794L60.6592 202.353L49.5576 208.77H49.5332V209.038V221.652L60.464 227.972L60.6836 228.094L60.9032 227.972L71.7121 221.726L71.8097 221.652V209.038V208.794ZM60.6592 202.865L65.7831 205.842L55.2914 211.893L50.1676 208.94L60.6592 202.889V202.865ZM60.4397 227.459L49.948 221.408V209.306L60.4397 215.357V227.459ZM65.0999 212.405L60.6592 214.967L55.5354 212.015L66.0271 205.964L71.1509 208.94L65.0999 212.43V212.405Z" fill="#350B00"/>
<path d="M56.3156 215.235L54.2904 214.064C54.0708 213.942 53.8268 213.917 53.656 214.039C53.4364 214.161 53.3145 214.43 53.3145 214.747C53.3145 215.308 53.656 215.918 54.0708 216.162L56.096 217.333C56.218 217.407 56.34 217.431 56.462 217.431C56.5596 217.431 56.6571 217.407 56.7303 217.358C56.9499 217.236 57.0719 216.967 57.0719 216.65C57.0719 216.089 56.7303 215.479 56.3156 215.235ZM56.5108 216.992C56.5108 216.992 56.3644 216.992 56.3156 216.967L54.2904 215.796C53.9976 215.625 53.7536 215.162 53.7536 214.747C53.7536 214.552 53.8024 214.454 53.8756 214.405C53.9488 214.357 54.022 214.405 54.0708 214.43L54.2172 214.503C54.266 214.967 54.5588 215.479 54.9004 215.674L56.6327 216.675C56.6327 216.845 56.5839 216.919 56.5351 216.967L56.5108 216.992Z" fill="#350B00"/>
<path d="M72.5418 230.024L65.832 226.12V218.361L72.5418 222.24V230.024Z" fill="#E59636"/>
<path d="M79.276 218.362L72.5418 222.241L65.832 218.362L72.5418 214.482L79.276 218.362Z" fill="#E59636"/>
<path d="M79.2754 219.141L73.2244 222.581L66.4902 218.702L72.5412 215.261L79.2754 219.141Z" fill="white"/>
<path d="M72.5407 214.237L65.8065 218.116L65.6113 218.238V226.217L72.3455 230.096L72.5407 230.218L72.7359 230.096L79.4701 226.217V218.214L72.5407 214.213V214.237ZM72.5407 214.701L78.8845 218.36L75.7126 220.19L72.5651 222.02L71.5647 221.459L66.2213 218.385L72.5407 214.725V214.701ZM66.0017 226.022V218.702L72.3455 222.362V229.682L66.0017 226.022Z" fill="#350B00"/>
<path d="M70.9308 227.682L69.9061 227.096C69.7353 226.998 69.6133 226.754 69.6133 226.535V225.461C69.6133 225.242 69.7353 225.144 69.9061 225.242L70.9308 225.827C71.1016 225.925 71.2236 226.169 71.2236 226.388V227.462C71.2236 227.682 71.1016 227.779 70.9308 227.682Z" fill="#350B00"/>
<path d="M71.7849 214.552L71.3945 214.771V209.525L71.7849 209.306V214.552Z" fill="#E59636"/>
<path d="M81.373 228.971L81.3975 228.557L83.203 227.507L83.1786 227.947L81.373 228.971Z" fill="#E59636"/>
</svg>
