<svg width="329" height="257" viewBox="0 0 329 257" fill="none" xmlns="http://www.w3.org/2000/svg">
<path d="M243.797 143.517V112.75L302.379 146.543V177.676L243.797 143.517Z" fill="#E59636"/>
<path d="M243.797 111.846L265.585 99.1583L324.119 132.951L302.379 145.419L243.797 111.846Z" fill="#E59636"/>
<path d="M302.697 145.617L302.379 148.325L243.797 114.849V111.995L302.697 145.617Z" fill="#E59636"/>
<path d="M245.994 113.188L265.587 101.793L324.12 135.562L304.577 146.761L245.994 113.188Z" fill="white"/>
<path d="M265.586 98.5007L243.236 111.506V143.859L302.404 178.359L324.705 165.379V132.611L265.586 98.5007ZM244.31 115.702L248.555 118.118V145.616L244.383 143.176L244.31 115.702ZM292.059 142.981L296.573 145.567V173.626L292.035 170.966H292.059V142.981ZM291.23 170.503L286.716 167.868V139.931L291.23 142.517V170.503ZM285.886 139.516V167.38L281.372 164.745V136.881L286.008 139.54H285.886V139.516ZM280.543 164.257L276.029 161.622V133.806L280.543 136.393V164.257ZM275.199 161.133L270.685 158.498V130.756L275.199 133.343V161.133ZM269.856 158.01L265.391 155.4V127.707L269.856 130.269V158.01ZM264.561 154.936L260.047 152.301V124.681L264.561 127.267V154.936ZM259.218 151.813L254.704 149.178V121.607L259.218 124.193V151.813ZM253.874 148.69L249.361 146.055V118.557L253.874 121.143V148.69ZM301.794 176.627L297.378 174.041V145.982L301.794 148.495V176.603V176.627ZM301.794 146.006V147.372L244.285 114.507V112.603L301.794 145.689V146.006ZM302.38 144.688L244.944 111.774L265.586 99.7695L322.973 132.879L302.404 144.688H302.38Z" fill="#350B00"/>
<path d="M324.706 135.368L324.681 134.318L301.893 147.494V148.543L313.409 141.882V171.942L314.214 171.454V141.419L324.706 135.368Z" fill="#E59636"/>
<path d="M308.919 163.451C308.675 163.451 308.431 163.378 308.236 163.256L307.894 163.061C307.724 162.963 307.675 162.744 307.772 162.573C307.87 162.402 308.09 162.353 308.26 162.451L308.602 162.646C308.822 162.768 309.09 162.768 309.31 162.646L311.53 161.426L311.164 161.206C310.993 161.109 310.944 160.889 311.042 160.718C311.139 160.548 311.359 160.499 311.53 160.596L311.871 160.792C312.091 160.914 312.237 161.158 312.237 161.426C312.237 161.694 312.091 161.914 311.871 162.06L309.651 163.28C309.432 163.402 309.188 163.451 308.944 163.451H308.919Z" fill="#E59636"/>
<path d="M316.677 159.108C316.433 159.108 316.189 159.035 315.994 158.913L315.652 158.717C315.481 158.62 315.433 158.4 315.53 158.229C315.628 158.059 315.847 158.01 316.018 158.107L316.36 158.303C316.579 158.425 316.848 158.425 317.067 158.303L319.288 157.083L318.922 156.863C318.751 156.765 318.702 156.546 318.8 156.375C318.897 156.204 319.117 156.156 319.288 156.253L319.629 156.448C319.849 156.57 319.995 156.814 319.995 157.083C319.995 157.351 319.849 157.571 319.629 157.717L317.409 158.937C317.189 159.059 316.945 159.108 316.701 159.108H316.677Z" fill="#E59636"/>
<path d="M310.774 129.392L299.282 122.78L287.766 129.392V132.612L299.282 139.225V136.028L310.774 129.392Z" fill="#E59636"/>
<path d="M310.774 128.927L299.282 122.291L287.375 129.147V132.831L298.867 139.444L299.282 139.688L311.189 132.856V129.171L310.774 128.927ZM309.944 129.391L299.282 135.54L288.619 129.391L299.282 123.242L309.944 129.391ZM288.18 132.368V130.099L292.596 132.661L298.843 136.272V138.516L288.18 132.392V132.368Z" fill="#350B00"/>
<path d="M305.382 130.098L299.282 133.514L293.158 130.098L299.282 126.584L305.382 130.098Z" fill="white"/>
<path d="M299.282 134.027L291.279 129.416L299.282 124.804L307.31 129.416L299.282 134.027ZM292.914 129.416L299.282 133.1L305.65 129.416L299.282 125.732L292.914 129.416Z" fill="#350B00"/>
<path d="M247.215 194.683V163.916L305.797 197.709V228.842L247.215 194.683Z" fill="#E59636"/>
<path d="M247.215 162.987L268.979 150.324L327.513 184.093L305.797 196.585L247.215 162.987Z" fill="#E59636"/>
<path d="M306.09 196.78L305.797 199.488L247.215 166.013V163.133L306.09 196.78Z" fill="#E59636"/>
<path d="M249.387 164.354L268.979 152.959L327.513 186.728L307.969 197.927L249.387 164.354Z" fill="white"/>
<path d="M268.979 149.667L246.629 162.671V195.025L305.797 229.525L328.098 216.545V183.777L268.979 149.667ZM247.702 166.868L251.948 169.284V196.781L247.776 194.342L247.702 166.868ZM295.452 194.146L299.966 196.733V224.792L295.427 222.132H295.452V194.146ZM294.622 221.669L290.108 219.034V191.096L294.622 193.683V221.669ZM289.279 190.682V218.546L284.765 215.91V188.047L289.401 190.706H289.279V190.682ZM283.935 215.422L279.421 212.787V184.972L283.935 187.559V215.422ZM278.592 212.299L274.078 209.664V181.922L278.592 184.509V212.299ZM273.248 209.176L268.783 206.566V178.872L273.248 181.434V209.176ZM267.954 206.102L263.44 203.467V175.847L267.954 178.433V206.102ZM262.61 202.979L258.097 200.344V172.773L262.61 175.359V202.979ZM257.267 199.856L252.753 197.221V169.723L257.267 172.309V199.856ZM305.187 227.793L300.771 225.207V197.148L305.187 199.661V227.769V227.793ZM305.187 197.172V198.538L247.678 165.673V163.769L305.187 196.855V197.172ZM305.773 195.854L248.337 162.94L268.979 150.935L326.366 184.045L305.797 195.854H305.773Z" fill="#350B00"/>
<path d="M328.098 186.532V185.483L305.285 198.634L305.31 199.684L316.802 193.047V223.107L317.631 222.619V192.583L328.098 186.532Z" fill="#E59636"/>
<path d="M312.337 214.617C312.093 214.617 311.849 214.544 311.654 214.422L311.312 214.227C311.142 214.129 311.093 213.91 311.19 213.739C311.288 213.568 311.508 213.519 311.678 213.617L312.02 213.812C312.24 213.934 312.508 213.934 312.728 213.812L314.948 212.592L314.582 212.372C314.411 212.275 314.362 212.055 314.46 211.884C314.557 211.714 314.777 211.665 314.948 211.762L315.289 211.958C315.509 212.08 315.655 212.324 315.655 212.592C315.655 212.86 315.509 213.08 315.289 213.226L313.069 214.446C312.85 214.568 312.606 214.617 312.362 214.617H312.337Z" fill="#E59636"/>
<path d="M320.095 210.274C319.851 210.274 319.607 210.201 319.412 210.079L319.07 209.883C318.899 209.786 318.851 209.566 318.948 209.395C319.046 209.225 319.265 209.176 319.436 209.273L319.778 209.469C319.997 209.591 320.266 209.591 320.485 209.469L322.706 208.249L322.34 208.029C322.169 207.931 322.12 207.712 322.218 207.541C322.315 207.37 322.535 207.321 322.706 207.419L323.047 207.614C323.267 207.736 323.413 207.98 323.413 208.249C323.413 208.517 323.267 208.737 323.047 208.883L320.827 210.103C320.607 210.225 320.363 210.274 320.119 210.274H320.095Z" fill="#E59636"/>
<path d="M314.166 180.557L302.674 173.921L291.182 180.557V183.778L302.674 190.39V187.194L314.166 180.557Z" fill="#E59636"/>
<path d="M314.166 180.092L302.674 173.456L290.768 180.312V183.996L302.26 190.608L302.674 190.852L314.581 184.021V180.336L314.166 180.092ZM313.337 180.556L302.674 186.705L292.012 180.556L302.674 174.407L313.337 180.556ZM291.573 183.533V181.264L295.989 183.825L302.235 187.437V189.681L291.573 183.557V183.533Z" fill="#350B00"/>
<path d="M308.798 181.263L302.674 184.679L296.574 181.263L302.674 177.749L308.798 181.263Z" fill="white"/>
<path d="M302.675 185.166L294.672 180.555L302.675 175.943L310.702 180.555L302.675 185.166ZM296.307 180.555L302.675 184.239L309.043 180.555L302.675 176.871L296.307 180.555Z" fill="#350B00"/>
<path d="M90.1621 200.486V206.264L176.433 256.061V250.283L90.1621 200.486Z" fill="#E59636"/>
<path d="M176.433 250.283L90.1621 200.486L158.901 160.597L245.172 210.394L176.433 250.283Z" fill="#E59636"/>
<path d="M176.433 253.122L90.1621 203.305L158.901 163.436L245.172 213.233L176.433 253.122Z" fill="white"/>
<path d="M245.608 210.156L159.119 160.22L158.9 160.101L89.7246 200.228V206.502L176.432 256.557L245.608 216.43V210.156ZM244.298 210.414L176.413 249.787L145.359 231.857L91.0152 200.486L158.9 161.113L244.298 210.414ZM90.5784 206.026V201.241L175.976 250.541V255.326L90.5784 206.026Z" fill="#350B00"/>
<path d="M110.236 203.882L103.783 200.149L103.843 149.419L110.296 153.131L110.236 203.882Z" fill="#E59636"/>
<path d="M103.842 149.418L110.354 145.626L116.847 149.418L110.394 153.131L103.842 149.418Z" fill="#E59636"/>
<path d="M103.922 151.88L110.434 148.088L116.947 151.88L110.494 155.593L103.922 151.88Z" fill="white"/>
<path d="M117.284 149.16L110.335 145.129L103.386 149.16L103.326 200.387L110.276 204.397L117.225 200.387L117.284 149.16ZM110.335 146.122L115.974 149.398L110.395 152.615L104.696 149.378L110.335 146.102V146.122ZM109.779 203.107L104.2 199.89L104.259 150.153L109.839 153.369L109.779 203.107Z" fill="#350B00"/>
<path d="M225.556 213.888L219.104 210.155L219.163 159.425L225.616 163.138L225.556 213.888Z" fill="#E59636"/>
<path d="M219.164 159.425L225.677 155.632L232.189 159.425L225.736 163.138L219.164 159.425Z" fill="#E59636"/>
<path d="M219.266 161.887L225.758 158.095L232.271 161.887L225.818 165.62L219.266 161.887Z" fill="white"/>
<path d="M232.626 159.167L225.677 155.136L218.728 159.167L218.668 210.393L225.617 214.404L232.567 210.393L232.626 159.167ZM225.677 156.129L231.316 159.405L225.736 162.622L220.038 159.385L225.677 156.109V156.129ZM225.121 213.113L219.542 209.897L219.601 160.159L225.181 163.376L225.121 213.113Z" fill="#350B00"/>
<path d="M176.314 240.872L169.861 237.159L169.921 186.409L176.374 190.142L176.314 240.872Z" fill="#E59636"/>
<path d="M169.92 186.408L176.432 182.635L182.945 186.408L176.492 190.141L169.92 186.408Z" fill="#E59636"/>
<path d="M170.021 188.87L176.534 185.098L183.027 188.87L176.574 192.603L170.021 188.87Z" fill="white"/>
<path d="M183.382 186.17L176.433 182.139L169.483 186.17L169.424 237.396L176.373 241.407L183.322 237.396L183.382 186.17ZM176.433 183.132L182.072 186.408L176.492 189.624L170.794 186.388L176.433 183.112V183.132ZM175.877 240.116L170.297 236.9L170.357 187.162L175.936 190.379L175.877 240.116Z" fill="#350B00"/>
<path d="M160.17 175.23L153.717 171.517L153.776 120.787L160.229 124.5L160.17 175.23Z" fill="#E59636"/>
<path d="M153.775 120.786L160.288 116.994L166.8 120.786L160.347 124.499L153.775 120.786Z" fill="#E59636"/>
<path d="M153.877 123.248L160.389 119.456L166.882 123.248L160.449 126.961L153.877 123.248Z" fill="white"/>
<path d="M167.238 120.528L160.288 116.497L153.339 120.528L153.279 171.754L160.229 175.765L167.178 171.754L167.238 120.528ZM160.288 117.49L165.927 120.766L160.348 123.983L154.649 120.746L160.288 117.47V117.49ZM159.732 174.474L154.153 171.258L154.212 121.521L159.792 124.737L159.732 174.474Z" fill="#350B00"/>
<path d="M143.115 222.13L140.037 220.343V174.219L143.115 176.006V222.13Z" fill="#E59636"/>
<path d="M140.037 174.218L142.42 172.709L145.497 174.476L143.115 176.005L140.037 174.218Z" fill="#E59636"/>
<path d="M140.176 175.389L142.558 173.88L145.636 175.647L143.253 177.176L140.176 175.389Z" fill="white"/>
<path d="M142.4 172.273L139.66 174V220.561L143.115 222.566L145.855 220.878V174.258L142.38 172.273H142.4ZM142.738 187.164V221.474L140.395 220.124V174.854L142.738 176.204V187.164ZM141.129 174.417L140.752 174.199L142.42 173.146L144.783 174.497L143.115 175.569L141.149 174.437L141.129 174.417Z" fill="#350B00"/>
<path d="M143.791 191.215V187.502L158.007 195.802V199.515L143.791 191.215Z" fill="#E59636"/>
<path d="M158.385 200.17L143.414 191.434V186.847L158.385 195.583V200.17ZM144.169 191.017L157.65 198.879V196.02L144.169 188.158V191.017Z" fill="#350B00"/>
<path d="M143.793 187.503L145.421 186.59L159.757 194.83L158.009 195.803L143.793 187.503Z" fill="#E59636"/>
<path d="M144.172 188.516L145.78 187.602L160.116 195.842L158.388 196.815L144.172 188.516Z" fill="white"/>
<path d="M158.01 196.22L157.831 196.12L143.059 187.503L145.421 186.173L160.511 194.85L158.029 196.24L158.01 196.22ZM144.548 187.503L158.029 195.366L159.002 194.83L145.421 187.027L144.548 187.523V187.503Z" fill="#350B00"/>
<path d="M159.755 194.828V198.382L158.008 199.514V195.801L159.755 194.828Z" fill="#E59636"/>
<path d="M157.65 200.21V195.583L160.132 194.213V198.601L157.65 200.23V200.21ZM158.405 196.02V198.84L159.398 198.184V195.464L158.405 196.02Z" fill="#350B00"/>
<path d="M143.908 208.726V205.013L158.144 213.313V217.026L143.908 208.726Z" fill="#E59636"/>
<path d="M158.502 217.681L143.531 208.945V204.358L158.502 213.095V217.681ZM144.286 208.528L157.767 216.391V213.531L144.286 205.669V208.528Z" fill="#350B00"/>
<path d="M143.908 205.015L145.536 204.101L159.872 212.341L158.144 213.314L143.908 205.015Z" fill="#E59636"/>
<path d="M144.287 206.027L145.915 205.113L160.251 213.353L158.503 214.326L144.287 206.027Z" fill="white"/>
<path d="M158.125 213.731L157.946 213.632L143.174 205.015L145.537 203.684L160.627 212.361L158.145 213.751L158.125 213.731ZM144.663 205.015L158.145 212.877L159.118 212.341L145.537 204.538L144.663 205.035V205.015Z" fill="#350B00"/>
<path d="M159.874 212.341V215.896L158.146 217.027V213.314L159.874 212.341Z" fill="#E59636"/>
<path d="M157.77 217.722V213.096L160.251 211.706V216.094L157.77 217.722ZM158.524 213.532V216.352L159.517 215.716V212.996L158.524 213.552V213.532Z" fill="#350B00"/>
<path d="M161.103 232.714L158.006 230.947L158.026 184.803L161.103 186.59V232.714Z" fill="#E59636"/>
<path d="M158.025 184.802L160.388 183.293L163.486 185.06L161.103 186.589L158.025 184.802Z" fill="#E59636"/>
<path d="M158.025 186.013L160.388 184.504L163.486 186.271L161.103 187.8L158.025 186.013Z" fill="white"/>
<path d="M160.388 182.856L157.648 184.584V231.144L161.103 233.15L163.843 231.462V184.842L160.369 182.856H160.388ZM160.726 197.748V232.058L158.383 230.708V185.438L160.726 186.788V197.748ZM159.118 185.001L158.74 184.782L160.408 183.73L162.771 185.08L161.103 186.152L159.138 185.021L159.118 185.001Z" fill="#350B00"/>
<path d="M90.1621 142.054V147.852L176.433 197.649V191.871L90.1621 142.054Z" fill="#E59636"/>
<path d="M176.433 191.871L90.1621 142.054L158.901 102.185L245.172 151.982L176.433 191.871Z" fill="#E59636"/>
<path d="M176.433 194.71L90.1621 144.893L158.901 105.004L245.172 154.821L176.433 194.71Z" fill="white"/>
<path d="M245.608 151.743L159.119 101.807L158.9 101.688L89.7246 141.816V148.09L176.432 198.145L245.608 158.018V151.743ZM244.298 152.001L176.413 191.374L145.359 173.445L91.0152 142.074L158.9 102.701L244.298 152.001ZM90.5784 147.613V142.828L175.976 192.129V196.914L90.5784 147.613Z" fill="#350B00"/>
<path d="M110.236 145.448L103.783 141.735L103.843 91.0052L110.296 94.7182L110.236 145.448Z" fill="#E59636"/>
<path d="M103.842 91.0045L110.354 87.2122L116.847 91.0045L110.394 94.7175L103.842 91.0045Z" fill="#E59636"/>
<path d="M103.922 93.4669L110.434 89.6746L116.947 93.4669L110.494 97.1798L103.922 93.4669Z" fill="white"/>
<path d="M117.284 90.7463L110.335 86.7157L103.386 90.7463L103.326 141.973L110.276 145.984L117.225 141.973L117.284 90.7463ZM110.335 87.7085L115.974 90.9846L110.395 94.2011L104.696 90.9647L110.335 87.6886V87.7085ZM109.779 144.693L104.2 141.476L104.259 91.7391L109.839 94.9556L109.779 144.693Z" fill="#350B00"/>
<path d="M225.556 155.456L219.104 151.743L219.163 101.013L225.616 104.726L225.556 155.456Z" fill="#E59636"/>
<path d="M219.164 101.012L225.677 97.2195L232.189 101.012L225.736 104.725L219.164 101.012Z" fill="#E59636"/>
<path d="M219.266 103.474L225.758 99.682L232.271 103.474L225.818 107.187L219.266 103.474Z" fill="white"/>
<path d="M232.626 100.754L225.677 96.7231L218.728 100.754L218.668 151.98L225.617 155.991L232.567 151.98L232.626 100.754ZM225.677 97.7159L231.316 100.992L225.736 104.209L220.038 100.972L225.677 97.6961V97.7159ZM225.121 154.7L219.542 151.484L219.601 101.747L225.181 104.963L225.121 154.7Z" fill="#350B00"/>
<path d="M204.329 139.375L179.689 125.297L166.088 133.16V148.846L190.728 162.923V147.257L204.329 139.375Z" fill="white"/>
<path d="M166.088 148.805L190.728 162.863V147.217L166.088 133.1V148.805Z" fill="#E59636"/>
<path d="M204.588 139.215L179.689 124.979L165.87 132.961H165.83V133.298V149.004L190.47 163.081L190.748 163.24L191.026 163.081L204.488 155.318L204.627 155.238V139.553V139.235L204.588 139.215ZM184.057 143.067L166.624 133.159L179.669 125.634L197.102 135.542L184.057 143.067ZM190.451 162.446L166.366 148.686V133.616L190.451 147.376V162.446ZM197.38 135.681L203.773 139.374L196.248 143.722L190.709 146.919L184.315 143.226L197.36 135.701L197.38 135.681Z" fill="#350B00"/>
<path d="M176.314 182.459L169.861 178.726L169.921 127.996L176.374 131.729L176.314 182.459Z" fill="#E59636"/>
<path d="M169.92 127.996L176.432 124.203L182.945 127.996L176.492 131.729L169.92 127.996Z" fill="#E59636"/>
<path d="M170.021 130.458L176.534 126.685L183.027 130.458L176.574 134.191L170.021 130.458Z" fill="white"/>
<path d="M183.382 127.757L176.433 123.727L169.483 127.757L169.424 178.984L176.373 182.994L183.322 178.984L183.382 127.757ZM176.433 124.719L182.072 127.995L176.492 131.212L170.794 127.976L176.433 124.699V124.719ZM175.877 181.704L170.297 178.487L170.357 128.75L175.936 131.966L175.877 181.704Z" fill="#350B00"/>
<path d="M160.17 116.819L153.717 113.106L153.776 62.356L160.229 66.0887L160.17 116.819Z" fill="#E59636"/>
<path d="M153.775 62.3553L160.288 58.5828L166.8 62.3553L160.347 66.088L153.775 62.3553Z" fill="#E59636"/>
<path d="M153.877 64.8376L160.389 61.0453L166.882 64.8376L160.449 68.5506L153.877 64.8376Z" fill="white"/>
<path d="M167.238 62.117L160.288 58.0864L153.339 62.117L153.279 113.344L160.229 117.354L167.178 113.344L167.238 62.117ZM160.288 59.0792L165.927 62.3553L160.348 65.5719L154.649 62.3354L160.288 59.0593V59.0792ZM159.732 116.064L154.153 112.847L154.212 63.1098L159.792 66.3264L159.732 116.064Z" fill="#350B00"/>
<path d="M90.1621 84.3334V90.1113L176.433 139.908V134.13L90.1621 84.3334Z" fill="#E59636"/>
<path d="M176.433 134.13L90.1621 84.3334L158.901 44.4442L245.172 94.261L176.433 134.13Z" fill="#E59636"/>
<path d="M176.433 136.969L90.1621 87.1524L158.901 47.2831L245.172 97.08L176.433 136.969Z" fill="white"/>
<path d="M245.608 94.0031L159.119 44.0671L158.9 43.948L89.7246 84.0754V90.3497L176.432 140.405L245.608 100.277V94.0031ZM244.298 94.2612L176.413 133.634L145.359 115.705L91.0152 84.3335L158.9 44.9606L244.298 94.2612ZM90.5784 89.8732V85.088L175.976 134.389V139.174L90.5784 89.8732Z" fill="#350B00"/>
<path d="M110.236 87.729L103.783 83.9963L103.843 33.2661L110.296 36.9989L110.236 87.729Z" fill="#E59636"/>
<path d="M103.842 33.2665L110.354 29.4741L116.847 33.2665L110.394 36.9993L103.842 33.2665Z" fill="#E59636"/>
<path d="M103.922 35.7289L110.434 31.9365L116.947 35.7289L110.494 39.4617L103.922 35.7289Z" fill="white"/>
<path d="M117.284 33.0084L110.335 28.9778L103.386 33.0084L103.326 84.2349L110.276 88.2457L117.225 84.2349L117.284 33.0084ZM110.335 29.9705L115.974 33.2467L110.395 36.4632L104.696 33.2268L110.335 29.9507V29.9705ZM109.779 86.9551L104.2 83.7385L104.259 34.0012L109.839 37.2177L109.779 86.9551Z" fill="#350B00"/>
<path d="M225.556 97.7365L219.104 94.0037L219.163 43.2736L225.616 47.0063L225.556 97.7365Z" fill="#E59636"/>
<path d="M219.164 43.2731L225.677 39.4807L232.189 43.2731L225.736 47.0058L219.164 43.2731Z" fill="#E59636"/>
<path d="M219.266 45.7355L225.758 41.9431L232.271 45.7355L225.818 49.4683L219.266 45.7355Z" fill="white"/>
<path d="M232.626 43.0151L225.677 38.9845L218.728 43.0151L218.668 94.2416L225.617 98.2524L232.567 94.2416L232.626 43.0151ZM225.677 39.9773L231.316 43.2534L225.736 46.4699L220.038 43.2335L225.677 39.9574V39.9773ZM225.121 96.9618L219.542 93.7452L219.601 44.0079L225.181 47.2244L225.121 96.9618Z" fill="#350B00"/>
<path d="M176.314 124.719L169.861 121.006L169.921 70.2759L176.374 73.9888L176.314 124.719Z" fill="#E59636"/>
<path d="M169.92 70.2753L176.432 66.4829L182.945 70.2753L176.492 73.9882L169.92 70.2753Z" fill="#E59636"/>
<path d="M170.021 72.7377L176.534 68.9453L183.027 72.7377L176.574 76.4506L170.021 72.7377Z" fill="white"/>
<path d="M183.382 70.0173L176.433 65.9867L169.483 70.0173L169.424 121.244L176.373 125.255L183.322 121.244L183.382 70.0173ZM176.433 66.9795L182.072 70.2556L176.492 73.4721L170.794 70.2357L176.433 66.9596V66.9795ZM175.877 123.964L170.297 120.747L170.357 71.0101L175.936 74.2266L175.877 123.964Z" fill="#350B00"/>
<path d="M160.17 59.0783L153.717 55.3654L153.776 4.63525L160.229 8.34818L160.17 59.0783Z" fill="#E59636"/>
<path d="M153.775 4.63439L160.288 0.842041L166.8 4.63439L160.347 8.34732L153.775 4.63439Z" fill="#E59636"/>
<path d="M153.877 7.09704L160.389 3.30469L166.882 7.09704L160.449 10.81L153.877 7.09704Z" fill="white"/>
<path d="M167.238 4.37631L160.288 0.345703L153.339 4.37631L153.279 55.6028L160.229 59.6136L167.178 55.6028L167.238 4.37631ZM160.288 1.33847L165.927 4.61458L160.348 7.83113L154.649 4.59472L160.288 1.31861V1.33847ZM159.732 58.323L154.153 55.1065L154.212 5.36908L159.792 8.58563L159.732 58.323Z" fill="#350B00"/>
<path d="M148.915 57.0707L137.458 50.4589L126.002 57.0707V70.2942L137.458 76.906V63.7222L148.915 57.0707Z" fill="white"/>
<path d="M126.002 70.2559L137.458 76.8677V63.6839L126.002 57.0323V70.2559Z" fill="#E59636"/>
<path d="M149.153 56.9328L137.478 50.182L125.823 56.9129H125.783V57.1909V70.4145L137.24 77.0263L137.478 77.1653L137.716 77.0263L149.054 70.4741L149.173 70.4145V57.1909V56.9328H149.153ZM137.478 50.7181L142.859 53.8354L131.859 60.189L126.478 57.0718L137.478 50.7181ZM137.24 76.51L126.24 70.1564V57.4689L137.24 63.8225V76.51ZM142.124 60.7251L137.458 63.4254L132.077 60.3082L143.077 53.9545L148.458 57.0718L142.124 60.7251Z" fill="#350B00"/>
<path d="M149.93 79.1712L142.861 75.1009V66.9602L149.93 71.0305V79.1712Z" fill="#E59636"/>
<path d="M156.978 66.9608L149.93 71.0312L142.861 66.9608L149.93 62.8905L156.978 66.9608Z" fill="#E59636"/>
<path d="M156.977 67.7746L150.623 71.3882L143.574 67.3179L149.928 63.7042L156.977 67.7746Z" fill="white"/>
<path d="M149.909 62.6516L142.861 66.7219L142.662 66.8411V75.22L149.711 79.2903L149.909 79.4094L150.108 79.2903L157.156 75.22V66.8411L149.889 62.6516H149.909ZM149.909 63.1281L156.541 66.9602L153.205 68.8862L149.889 70.7923L148.857 70.1966L143.258 66.9602L149.889 63.1281H149.909ZM143.059 74.9817V67.3176L149.691 71.1497V78.8138L143.059 74.9817Z" fill="#350B00"/>
<path d="M84.7782 192.771L81.2136 190.61L80.9609 185.978L84.7782 185.726V192.771Z" fill="#E59636"/>
<path d="M89.2687 183.479L84.2165 180.279L83.8516 187.016L88.8196 186.511L89.2687 183.479Z" fill="#E59636"/>
<path d="M89.1008 184.322L84.0765 181.151L83.6836 187.887L88.6797 187.354L89.1008 184.322Z" fill="white"/>
<path d="M89.5504 183.337C89.5504 183.337 89.4943 183.281 89.4662 183.281C89.4662 183.281 89.4382 183.281 89.4101 183.281L83.993 179.857L83.6842 185.555L80.709 185.751L80.9897 190.803L84.8069 193.133L89.0452 190.607L89.9995 188.137V184.151C89.9995 183.814 89.8592 183.534 89.6066 183.337H89.5504ZM84.4982 192.319L81.4668 190.466L81.2423 186.228L83.6281 186.06L83.5439 187.323L84.4701 187.239V192.347L84.4982 192.319ZM84.4982 186.705H84.1333L84.1614 186.032H84.4982V186.705ZM84.6947 185.47H84.2175L84.4701 180.755L88.4558 183.281L84.7227 185.47H84.6947Z" fill="#350B00"/>
<path d="M45.623 209.107L51.2086 205.43L49.3 204.813L45.623 202.68V209.107Z" fill="#E59636"/>
<path d="M45.3699 209.584V202.23L49.4397 204.559L51.7975 205.317L45.3418 209.584H45.3699ZM45.9032 203.128V208.601L50.6186 205.486L49.2433 205.037L45.9032 203.128Z" fill="#350B00"/>
<path d="M55.6415 199.589L49.3262 204.81L52.4698 206.662L53.0592 206.325C54.1539 205.68 55.1644 205.848 55.6135 206.747L56.5958 208.487C56.9046 209.104 56.8765 208.122 57.6344 207.673L59.6553 208.01H61.5358L62.2937 206.494L64.2023 205.399L75.0366 199.14C75.8787 198.663 76.6365 197.624 76.9453 196.558C77.1979 195.688 78.6574 194.705 79.3311 194.312L79.696 194.088C80.5941 193.583 81.3239 192.319 81.3239 191.281V188.053L55.7257 199.561L55.6415 199.589Z" fill="#E59636"/>
<path d="M56.7361 208.936C56.5115 208.936 56.3992 208.711 56.3431 208.599L55.3607 206.887C55.1923 206.55 54.9677 206.353 54.659 206.269C54.238 206.157 53.7047 206.269 53.1714 206.578L52.4697 206.999L48.877 204.866L55.5572 199.364L81.5202 187.688V191.337C81.5202 192.46 80.7624 193.807 79.78 194.368L79.4151 194.593C78.6292 195.042 77.3662 195.996 77.1697 196.698C76.8329 197.849 76.047 198.915 75.1488 199.449L62.49 206.746L61.7041 208.318H59.6832L57.7184 208.037C57.4658 208.206 57.3536 208.458 57.2413 208.627C57.129 208.823 57.0448 209.02 56.8203 209.02L56.7361 208.936ZM54.266 205.68C54.4344 205.68 54.6029 205.68 54.7713 205.764C55.2204 205.904 55.5572 206.185 55.7817 206.634L56.708 208.234C56.8483 207.981 57.0448 207.673 57.4378 207.448L57.522 207.392L59.6271 207.729H61.2831L62.0129 206.297L63.9776 205.146L74.812 198.887C75.5979 198.438 76.2996 197.456 76.6083 196.445C76.9451 195.323 78.8819 194.172 79.1064 194.031L79.4713 193.807C80.2853 193.33 80.9589 192.151 80.9589 191.225V188.418L55.7537 199.729L49.7471 204.697L52.4416 206.297L52.8907 206.045C53.3679 205.764 53.845 205.624 54.266 205.624V205.68Z" fill="#350B00"/>
<path d="M54.5779 202.481C53.7639 201.975 52.6412 202.003 51.3781 202.733C48.9362 204.137 46.9434 207.589 46.9434 210.424C46.9434 211.715 47.3644 212.641 48.038 213.146H48.0661C48.1784 213.231 48.2906 213.287 48.431 213.343L51.715 215.252L54.3533 212.22L57.8338 206.522V204.277L54.606 202.424L54.5779 202.481Z" fill="#E59636"/>
<path d="M50.787 209.946L48.0363 208.374C47.9521 208.543 47.896 208.711 47.8398 208.88L50.366 210.339L54.4359 213.651L54.1832 214.072L53.7622 214.549L53.6219 214.802L54.6043 213.679L54.8569 213.258L50.787 209.946Z" fill="white"/>
<path d="M55.7821 211.743L58.0837 207.982V205.736L54.8558 203.884C54.0419 203.379 52.9192 203.407 51.6561 204.137C50.4211 204.866 49.2984 206.101 48.4844 207.505L55.7821 211.715V211.743Z" fill="white"/>
<path d="M51.5447 215.504L48.2608 213.595C48.2608 213.595 48.0081 213.455 47.8678 213.37H47.8117V213.342L47.7275 213.286C47.0258 212.697 46.6328 211.686 46.6328 210.423C46.6328 207.504 48.6818 203.968 51.2079 202.508C52.4991 201.778 53.706 201.666 54.6323 202.227H54.6884L58.0285 204.192V206.662L54.52 212.416L51.5447 215.532V215.504ZM48.1766 212.949C48.1766 212.949 48.373 213.09 48.4853 213.146L51.6009 214.942L54.0989 212.079L57.4952 206.494V204.501L54.5761 202.817L54.4077 202.705C53.6499 202.227 52.6113 202.312 51.4605 202.957C49.1028 204.332 47.1661 207.673 47.1661 210.395C47.1661 211.546 47.5029 212.416 48.1485 212.893L48.1766 212.949Z" fill="#350B00"/>
<path d="M59.0688 207.196C59.0688 210.031 57.0759 213.455 54.634 214.887C52.1921 216.29 50.1992 215.167 50.1992 212.333C50.1992 209.498 52.1921 206.073 54.634 204.642C57.0759 203.239 59.0688 204.361 59.0688 207.196Z" fill="#350B00"/>
<path d="M52.6679 215.757C52.1908 215.757 51.7697 215.644 51.3768 215.42C50.4505 214.886 49.9453 213.792 49.9453 212.332C49.9453 209.413 51.9943 205.877 54.5204 204.417C55.7835 203.687 56.9904 203.575 57.9167 204.108C58.8429 204.642 59.3482 205.736 59.3482 207.196C59.3482 210.115 57.2992 213.651 54.773 215.111C54.0433 215.532 53.3135 215.757 52.6679 215.757ZM56.6255 204.305C56.0642 204.305 55.4467 204.501 54.773 204.866C52.4153 206.241 50.4786 209.582 50.4786 212.304C50.4786 213.567 50.8996 214.522 51.6575 214.943C52.4153 215.364 53.4258 215.279 54.5204 214.634C56.9062 213.259 58.8149 209.918 58.8149 207.196C58.8149 205.933 58.3938 204.978 57.636 204.557C57.3272 204.389 56.9904 204.305 56.6255 204.305Z" fill="#350B00"/>
<path d="M53.3134 213.818C53.0047 213.818 52.6959 213.733 52.4433 213.593C51.8258 213.228 51.4609 212.47 51.4609 211.488C51.4609 209.523 52.8363 207.137 54.5484 206.155C55.4186 205.65 56.2325 205.594 56.8781 205.959C57.4956 206.323 57.8605 207.081 57.8605 208.064C57.8605 210.028 56.4851 212.414 54.773 213.397C54.2677 213.677 53.7906 213.846 53.3415 213.846L53.3134 213.818ZM55.9519 206.155C55.587 206.155 55.1659 206.267 54.7449 206.52C53.1731 207.418 51.882 209.635 51.882 211.46C51.882 212.302 52.1626 212.919 52.6398 213.2C53.117 213.481 53.7906 213.397 54.5204 213.004C56.0922 212.105 57.3833 209.888 57.3833 208.064C57.3833 207.222 57.1026 206.604 56.6255 206.323C56.429 206.211 56.2045 206.155 55.9519 206.155Z" fill="#E59636"/>
<path d="M53.3136 213.818C52.7522 213.818 52.247 213.594 51.9102 213.117V212.752H52.1066C52.4996 212.752 52.9487 212.64 53.4258 212.387C54.9976 211.489 56.2888 209.271 56.2888 207.447C56.2888 206.886 56.1485 206.408 55.9239 206.072L56.1204 205.735C57.187 205.819 57.8325 206.689 57.8325 208.065C57.8325 210.029 56.4572 212.415 54.745 213.397C54.2398 213.678 53.7627 213.818 53.3136 213.818ZM52.5838 213.173C53.0609 213.51 53.7627 213.454 54.5205 213.005C56.0923 212.106 57.3834 209.889 57.3834 208.065C57.3834 207.166 57.0747 206.521 56.5133 206.268C56.6537 206.605 56.7098 206.998 56.7098 207.447C56.7098 209.412 55.3345 211.798 53.6223 212.78C53.2574 212.976 52.9206 213.117 52.5838 213.173Z" fill="#E59636"/>
<path d="M53.2854 212.556L51.4609 211.49V211.349C51.5171 209.553 52.6398 207.476 54.1555 206.381L54.2677 206.297L56.0361 207.336C56.0361 207.336 56.1764 207.448 56.2045 207.532C56.2045 207.616 56.2045 207.701 56.1764 207.785L53.3134 212.528L53.2854 212.556ZM51.91 211.237L53.145 211.967L55.7273 207.672L54.2958 206.83C53.0047 207.813 51.9942 209.665 51.91 211.237Z" fill="#E59636"/>
<path d="M56.4847 208.796C56.4847 210.031 55.6146 211.518 54.548 212.136C53.4814 212.753 52.6113 212.248 52.6113 211.013C52.6113 209.778 53.4814 208.291 54.548 207.673C55.6146 207.056 56.4847 207.561 56.4847 208.796Z" fill="#350B00"/>
<path d="M53.7052 212.613C53.4807 212.613 53.2842 212.557 53.0877 212.444C52.6667 212.192 52.4141 211.687 52.4141 211.013C52.4141 209.722 53.3403 208.122 54.463 207.476C55.0525 207.139 55.6138 207.083 56.0349 207.336C56.4559 207.589 56.7085 208.094 56.7085 208.767C56.7085 210.059 55.7822 211.658 54.6595 212.304C54.3227 212.501 53.9859 212.585 53.6771 212.585L53.7052 212.613ZM55.4174 207.645C55.1928 207.645 54.9402 207.729 54.6595 207.869C53.649 208.459 52.8351 209.862 52.8351 211.013C52.8351 211.518 53.0035 211.911 53.2842 212.079C53.5649 212.248 53.9859 212.192 54.435 211.939C55.4454 211.35 56.2594 209.946 56.2594 208.795C56.2594 208.29 56.091 207.897 55.8103 207.729C55.698 207.673 55.5577 207.617 55.4174 207.617V207.645Z" fill="#E59636"/>
<path d="M38.242 193.136C37.428 192.63 36.3053 192.659 35.0422 193.388C32.6003 194.792 30.6074 198.244 30.6074 201.079C30.6074 202.37 31.0284 203.296 31.7021 203.802H31.7301C31.8424 203.886 31.9547 203.942 32.095 203.998L35.379 205.907L38.0174 202.875L41.4979 197.178V194.932L38.27 193.08L38.242 193.136Z" fill="#E59636"/>
<path d="M34.4804 200.601L31.7297 199.029C31.6455 199.198 31.5893 199.366 31.5332 199.535L34.0593 200.994L38.1292 204.306L37.8766 204.727L37.4556 205.204L37.3153 205.457L38.2976 204.334L38.5502 203.913L34.4804 200.601Z" fill="white"/>
<path d="M39.4481 202.398L41.7497 198.637V196.391L38.5219 194.539C37.7079 194.034 36.5852 194.062 35.3221 194.791C34.0871 195.521 32.9644 196.756 32.1504 198.16L39.4481 202.37V202.398Z" fill="white"/>
<path d="M35.182 206.13L31.9541 204.25C31.9541 204.25 31.7015 204.109 31.5612 204.025H31.505V203.997L31.4208 203.941C30.7191 203.352 30.3262 202.341 30.3262 201.078C30.3262 198.159 32.3752 194.622 34.9013 193.163C36.1924 192.433 37.3994 192.321 38.3256 192.882H38.3817L41.7219 194.847V197.317L38.2133 203.071L35.182 206.158V206.13ZM31.8699 203.604C31.8699 203.604 32.0664 203.745 32.1787 203.801L35.2942 205.597L37.7923 202.734L41.1886 197.149V195.156L38.2695 193.472L38.1011 193.359C37.3432 192.882 36.3047 192.966 35.1539 193.612C32.7962 194.987 30.8595 198.327 30.8595 201.05C30.8595 202.201 31.1963 203.071 31.8419 203.548L31.8699 203.604Z" fill="#350B00"/>
<path d="M42.7621 197.85C42.7621 200.685 40.7693 204.109 38.3274 205.541C35.8854 206.944 33.8926 205.821 33.8926 202.987C33.8926 200.152 35.8854 196.727 38.3274 195.296C40.7693 193.892 42.7621 195.015 42.7621 197.85Z" fill="#350B00"/>
<path d="M36.3339 206.41C35.8568 206.41 35.4358 206.298 35.0428 206.073C34.1166 205.54 33.6113 204.445 33.6113 202.986C33.6113 200.066 35.6603 196.53 38.1864 195.07C39.4495 194.341 40.6564 194.228 41.5827 194.762C42.5089 195.295 43.0142 196.39 43.0142 197.849C43.0142 200.768 40.9652 204.305 38.439 205.764C37.7093 206.185 36.9795 206.41 36.3339 206.41ZM40.2916 194.958C39.7302 194.958 39.1127 195.155 38.439 195.519C36.0813 196.895 34.1446 200.235 34.1446 202.958C34.1446 204.221 34.5656 205.175 35.3235 205.596C36.0813 206.017 37.0918 205.933 38.1864 205.287C40.5722 203.912 42.4809 200.572 42.4809 197.849C42.4809 196.586 42.0598 195.632 41.302 195.211C40.9933 195.042 40.6564 194.958 40.2916 194.958Z" fill="#350B00"/>
<path d="M37.0068 204.471C36.698 204.471 36.3893 204.387 36.1367 204.247C35.5192 203.882 35.1543 203.124 35.1543 202.142C35.1543 200.177 36.5296 197.791 38.2418 196.809C39.1119 196.303 39.9259 196.247 40.5715 196.612C41.189 196.977 41.5538 197.735 41.5538 198.717C41.5538 200.682 40.1785 203.068 38.4663 204.05C37.9611 204.331 37.484 204.499 37.0349 204.499L37.0068 204.471ZM39.6452 196.809C39.2803 196.809 38.8593 196.921 38.4383 197.174C36.8665 198.072 35.5753 200.289 35.5753 202.113C35.5753 202.956 35.856 203.573 36.3332 203.854C36.8103 204.134 37.484 204.05 38.2137 203.657C39.7855 202.759 41.0767 200.542 41.0767 198.717C41.0767 197.875 40.796 197.258 40.3188 196.977C40.1224 196.865 39.8978 196.809 39.6452 196.809Z" fill="#E59636"/>
<path d="M37.0069 204.472C36.4456 204.472 35.9403 204.248 35.6035 203.771V203.406H35.8C36.1929 203.406 36.642 203.293 37.1192 203.041C38.691 202.143 39.9822 199.925 39.9822 198.101C39.9822 197.539 39.8418 197.062 39.6173 196.725L39.8137 196.389C40.8803 196.473 41.5259 197.343 41.5259 198.718C41.5259 200.683 40.1506 203.069 38.4384 204.051C37.9332 204.332 37.456 204.472 37.0069 204.472ZM36.2772 203.827C36.7543 204.164 37.456 204.107 38.2139 203.658C39.7857 202.76 41.0768 200.543 41.0768 198.718C41.0768 197.82 40.7681 197.175 40.2067 196.922C40.347 197.259 40.4032 197.652 40.4032 198.101C40.4032 200.066 39.0278 202.451 37.3157 203.434C36.9508 203.63 36.614 203.771 36.2772 203.827Z" fill="#E59636"/>
<path d="M36.9494 203.21L35.125 202.143V202.003C35.1811 200.207 36.3039 198.13 37.8195 197.035L37.9318 196.951L39.7001 197.989C39.7001 197.989 39.8405 198.101 39.8685 198.186C39.8685 198.27 39.8685 198.354 39.8404 198.438L36.9775 203.182L36.9494 203.21ZM35.5741 201.891L36.8091 202.62L39.3914 198.326L37.9599 197.484C36.6687 198.466 35.6583 200.319 35.5741 201.891Z" fill="#E59636"/>
<path d="M40.1801 199.451C40.1801 200.686 39.3099 202.174 38.2433 202.791C37.1768 203.409 36.3066 202.904 36.3066 201.669C36.3066 200.434 37.1768 198.946 38.2433 198.329C39.3099 197.711 40.1801 198.216 40.1801 199.451Z" fill="#350B00"/>
<path d="M37.4005 203.268C37.176 203.268 36.9795 203.212 36.783 203.1C36.362 202.847 36.1094 202.342 36.1094 201.668C36.1094 200.377 37.0356 198.777 38.1584 198.132C38.7478 197.795 39.3092 197.739 39.7302 197.991C40.1512 198.244 40.4038 198.749 40.4038 199.423C40.4038 200.714 39.4776 202.314 38.3548 202.959C38.018 203.156 37.6812 203.24 37.3724 203.24L37.4005 203.268ZM39.1127 198.3C38.8881 198.3 38.6355 198.384 38.3548 198.525C37.3444 199.114 36.5304 200.517 36.5304 201.668C36.5304 202.173 36.6988 202.566 36.9795 202.735C37.2602 202.903 37.6812 202.847 38.1303 202.594C39.1407 202.005 39.9547 200.602 39.9547 199.451C39.9547 198.946 39.7863 198.553 39.5056 198.384C39.3934 198.328 39.253 198.272 39.1127 198.272V198.3Z" fill="#E59636"/>
<path d="M77.9035 153.474L59.8275 143.116L59.6872 143.032H59.6311C59.3223 142.892 58.9574 142.92 58.5083 143.144L48.1512 148.646C46.9723 149.263 45.8496 150.554 45.1479 152.07L41.3306 160.294C37.1484 169.304 34.1451 178.51 32.4891 187.408L31.1699 194.397L49.302 204.81L61.5678 180.672L61.8204 180.531C62.5221 180.11 63.1115 179.128 63.1115 178.314V177.668L69.09 165.88L77.9035 153.474Z" fill="#E59636"/>
<path d="M77.8742 154.849L59.7982 144.492L59.6579 144.408H59.6018C59.293 144.268 58.9281 144.296 58.479 144.52L48.7394 149.769C47.5605 150.387 46.4378 151.678 45.7361 153.193L41.9188 161.417C37.7366 170.427 34.7333 179.634 33.0773 188.531L31.1406 195.801L47.9815 204.053L49.3007 204.811L61.5104 182.076L61.763 181.935C62.4647 181.514 63.0542 180.532 63.0542 179.718V179.072L69.0327 167.284L77.8461 154.877L77.8742 154.849Z" fill="white"/>
<path d="M49.3282 205.092L30.8594 194.538L32.2066 187.352C33.8907 178.399 36.866 169.248 41.0762 160.182L44.8935 151.958C45.6232 150.387 46.774 149.067 48.009 148.422L58.3662 142.92C58.9556 142.612 59.4328 142.668 59.6854 142.752H59.7696C59.7696 142.752 59.8819 142.864 59.938 142.892L78.2385 153.39L69.2567 166.021L63.3062 177.725V178.314C63.3062 179.241 62.6887 180.307 61.8747 180.784L61.7063 180.897L49.2721 205.12L49.3282 205.092ZM31.4488 194.257L49.1879 204.418L61.3695 180.476L61.6782 180.307C62.2957 179.942 62.829 179.016 62.829 178.314V177.557L68.8356 165.768L77.5087 153.558L59.6854 143.341L59.5451 143.257C59.2644 143.173 58.9556 143.201 58.6188 143.37L48.2616 148.871C47.1108 149.488 46.0443 150.723 45.3706 152.155L41.5533 160.379C37.3712 169.417 34.396 178.511 32.7399 187.409L31.4769 194.229L31.4488 194.257Z" fill="#350B00"/>
<path d="M85.6449 170.233L72.7896 162.823C72.7896 162.823 72.7054 162.767 72.6493 162.738C72.2002 162.514 71.6388 162.57 70.9933 162.935L70.6564 163.131C70.067 163.468 69.5898 164.31 69.5898 164.984V180.59C69.5898 180.955 69.7302 181.179 69.9267 181.292L82.7819 188.702C82.7819 188.702 83.0064 188.702 83.0345 188.589C83.3433 186.849 85.4203 175.509 85.4203 175.201C85.4203 174.864 84.4941 171.973 84.4941 171.973L85.6729 170.205L85.6449 170.233Z" fill="#E59636"/>
<path d="M85.7038 171.551L72.8486 164.141C72.8486 164.141 72.7644 164.085 72.7083 164.057C72.2592 163.833 71.6978 163.889 71.0522 164.254L70.7154 164.45C70.126 164.787 70.6312 164.899 70.6312 164.899C70.6312 164.899 84.946 173.516 84.946 173.207C84.946 172.87 85.6758 171.551 85.6758 171.551H85.7038Z" fill="white"/>
<path d="M82.8401 188.982C82.8401 188.982 82.6998 188.982 82.6156 188.926L69.7604 181.544C69.4797 181.376 69.2832 181.039 69.2832 180.618V165.012C69.2832 164.226 69.8165 163.3 70.4901 162.907L70.8269 162.71C71.5286 162.317 72.2023 162.233 72.7356 162.486C72.7917 162.514 72.8478 162.542 72.904 162.598L85.9838 170.148L84.7207 172.029C84.9733 172.815 85.6189 174.864 85.6189 175.201C85.6189 175.51 83.9348 184.688 83.2331 188.617C83.2331 188.758 83.1208 188.87 82.9805 188.926C82.9243 188.926 82.8682 188.954 82.8121 188.954L82.8401 188.982ZM72.0619 162.879C71.7813 162.879 71.4444 162.991 71.1076 163.188L70.7708 163.384C70.2656 163.693 69.8165 164.423 69.8165 165.012V180.618C69.8165 180.842 69.9007 181.011 70.013 181.095L82.7559 188.421C83.9067 182.078 85.0856 175.566 85.1137 175.229C85.1137 175.032 84.6365 173.461 84.1874 172.085V171.973L85.2259 170.345L72.6233 163.075C72.6233 163.075 72.5391 163.019 72.511 162.991C72.3707 162.935 72.2304 162.879 72.0619 162.879Z" fill="#350B00"/>
<path d="M82.5332 172.477V188.083C82.5332 188.756 83.0104 189.037 83.5998 188.7L85.312 187.718C85.9014 187.381 86.3786 186.539 86.3786 185.865V171.859C86.3786 170.288 85.2839 169.67 83.9366 170.456L83.5998 170.653C83.0104 170.989 82.5332 171.831 82.5332 172.505V172.477Z" fill="#350B00"/>
<path d="M83.1221 189.122C82.9817 189.122 82.8414 189.093 82.7011 189.009C82.4204 188.841 82.252 188.504 82.252 188.083V172.477C82.252 171.691 82.7852 170.765 83.4589 170.372L83.7957 170.176C84.5255 169.755 85.2553 169.698 85.7886 170.007C86.3499 170.316 86.6306 170.961 86.6306 171.832V185.838C86.6306 186.623 86.0973 187.55 85.4237 187.943L83.7115 188.925C83.487 189.037 83.2905 189.122 83.094 189.122H83.1221ZM85.0307 170.344C84.75 170.344 84.4132 170.456 84.0764 170.653L83.7396 170.849C83.2343 171.158 82.7853 171.888 82.7853 172.477V188.083C82.7853 188.308 82.8414 188.476 82.9817 188.56C83.094 188.616 83.2905 188.588 83.487 188.476L85.1991 187.494C85.7043 187.185 86.1534 186.455 86.1534 185.866V171.86C86.1534 171.214 85.957 170.709 85.564 170.512C85.4237 170.428 85.2552 170.372 85.0588 170.372L85.0307 170.344Z" fill="#350B00"/>
<path d="M78.5503 193.106C77.9047 192.713 77.0065 192.741 76.0241 193.302C74.0874 194.425 72.5156 197.148 72.5156 199.365C72.5156 200.375 72.8525 201.105 73.3858 201.526H73.4138C73.498 201.582 73.6103 201.639 73.6945 201.695L76.2768 203.182L78.3538 200.796L81.1045 196.306V194.537L78.5503 193.078V193.106Z" fill="#E59636"/>
<path d="M73.4684 197.318L78.8856 200.49L80.7381 197.43V195.662L78.1839 194.202C77.5383 193.81 76.6401 193.838 75.6577 194.399C74.6473 194.988 73.7491 195.999 73.1035 197.15C73.2158 197.206 73.3281 197.234 73.4403 197.318H73.4684Z" fill="white"/>
<path d="M76.3043 203.549L73.5255 201.949C73.5255 201.949 73.329 201.837 73.2168 201.78H73.1887L73.0764 201.696C72.5151 201.219 72.2344 200.405 72.2344 199.423C72.2344 197.121 73.8623 194.286 75.8832 193.135C76.8376 192.574 77.7919 192.49 78.5216 192.827L78.5778 192.855L78.662 192.911L81.3285 194.455V196.448L78.5497 200.995L76.3043 203.577V203.549ZM73.5536 201.359C73.5536 201.359 73.722 201.444 73.7781 201.472L76.192 202.875L78.1287 200.658L80.8232 196.251V194.707L78.5778 193.416L78.4094 193.304C77.82 192.939 77.034 192.995 76.1359 193.5C74.2834 194.567 72.7677 197.205 72.7677 199.339C72.7677 200.237 73.0483 200.91 73.5255 201.275H73.5817L73.5536 201.359Z" fill="#350B00"/>
<path d="M82.0874 196.841C82.0874 199.086 80.5155 201.781 78.5788 202.904C76.6421 204.026 75.0703 203.128 75.0703 200.883C75.0703 198.637 76.6421 195.943 78.5788 194.82C80.5155 193.697 82.0874 194.595 82.0874 196.841Z" fill="#350B00"/>
<path d="M77.035 203.633C76.6701 203.633 76.3053 203.549 75.9965 203.352C75.2387 202.931 74.8457 202.033 74.8457 200.854C74.8457 198.553 76.4737 195.718 78.4946 194.567C79.505 193.978 80.4874 193.893 81.2452 194.314C82.0031 194.735 82.3961 195.634 82.3961 196.812C82.3961 199.114 80.7681 201.949 78.7472 203.1C78.1577 203.437 77.5683 203.605 77.0631 203.605L77.035 203.633ZM80.1787 194.567C79.7576 194.567 79.2524 194.707 78.7472 195.016C76.8947 196.083 75.379 198.721 75.379 200.854C75.379 201.837 75.6878 202.566 76.2772 202.903C76.8666 203.24 77.6525 203.156 78.4946 202.651C80.3471 201.584 81.8627 198.946 81.8627 196.812C81.8627 195.83 81.554 195.1 80.9646 194.764C80.74 194.623 80.4593 194.567 80.1787 194.567Z" fill="#350B00"/>
<path d="M77.5411 202.088C77.2885 202.088 77.0358 202.032 76.8113 201.892C76.3061 201.583 76.0254 200.993 76.0254 200.18C76.0254 198.608 77.1201 196.699 78.4673 195.913C79.169 195.52 79.8427 195.464 80.3479 195.745C80.8531 196.054 81.1338 196.643 81.1338 197.457C81.1338 199.029 80.0392 200.937 78.6919 201.723C78.2989 201.948 77.906 202.06 77.5411 202.06V202.088ZM79.6462 196.025C79.3655 196.025 79.0568 196.11 78.7199 196.306C77.4849 197.008 76.4745 198.748 76.4745 200.18C76.4745 200.825 76.671 201.302 77.0639 201.499C77.4288 201.723 77.934 201.667 78.4954 201.33C79.7304 200.629 80.7408 198.888 80.7408 197.457C80.7408 196.811 80.5444 196.334 80.1514 196.138C80.0111 196.054 79.8427 195.997 79.6462 195.997V196.025Z" fill="#E59636"/>
<path d="M77.5397 202.089C77.0625 202.089 76.6696 201.893 76.3889 201.528L76.3047 201.163H76.5854C76.8941 201.191 77.2309 201.107 77.5958 200.882C78.8308 200.18 79.8413 198.44 79.8413 197.009C79.8413 196.56 79.729 196.195 79.5606 195.942L79.3641 195.689L79.7571 195.605C80.6272 195.661 81.1605 196.391 81.1605 197.486C81.1605 199.058 80.0658 200.966 78.7185 201.752C78.3256 201.977 77.9326 202.089 77.5677 202.089H77.5397ZM77.0906 201.556C77.4555 201.724 77.9326 201.668 78.4659 201.359C79.7009 200.658 80.7114 198.917 80.7114 197.486C80.7114 196.84 80.5149 196.391 80.15 196.167C80.2342 196.419 80.2623 196.7 80.2623 197.009C80.2623 198.58 79.1676 200.489 77.8204 201.275C77.5677 201.415 77.3432 201.528 77.0906 201.584V201.556Z" fill="#E59636"/>
<path d="M77.5411 201.134L76.0254 200.264V200.123C76.0535 198.692 76.9516 197.036 78.1586 196.166L78.2709 196.082L79.6743 196.924C79.6743 196.924 79.7865 197.036 79.8146 197.12C79.8146 197.204 79.8146 197.288 79.7865 197.373L77.513 201.162L77.5411 201.134ZM76.4745 200.011L77.3727 200.544L79.3655 197.232L78.2989 196.615C77.3165 197.401 76.5306 198.804 76.4464 200.011H76.4745Z" fill="#E59636"/>
<path d="M80.0665 198.075C80.0665 199.058 79.3929 200.237 78.5508 200.714C77.7088 201.191 77.0352 200.798 77.0352 199.844C77.0352 198.889 77.7088 197.682 78.5508 197.205C79.3929 196.728 80.0665 197.121 80.0665 198.075Z" fill="#350B00"/>
<path d="M77.8478 201.162C77.6514 201.162 77.4829 201.106 77.3426 201.022C76.9777 200.825 76.7812 200.404 76.7812 199.843C76.7812 198.776 77.511 197.541 78.4092 197.008C78.8864 196.727 79.3355 196.699 79.7003 196.896C80.0652 197.092 80.2617 197.513 80.2617 198.074C80.2617 199.141 79.5319 200.376 78.6337 200.909C78.3531 201.078 78.1004 201.162 77.8478 201.162ZM79.1951 197.232C79.0267 197.232 78.8302 197.289 78.6337 197.401C77.8478 197.85 77.2303 198.945 77.2303 199.843C77.2303 200.236 77.3426 200.516 77.5672 200.629C77.7917 200.741 78.1004 200.713 78.4373 200.516C79.2232 200.067 79.8407 198.973 79.8407 198.074C79.8407 197.681 79.7284 197.401 79.5039 197.289C79.4197 197.232 79.3354 197.204 79.2232 197.204L79.1951 197.232Z" fill="#E59636"/>
<path d="M49.3008 204.81L50.62 197.821C52.276 188.923 55.2793 179.717 59.4615 170.707L63.2787 162.483C63.9804 160.967 65.1032 159.704 66.282 159.059L76.6392 153.557C77.6496 153.024 78.4355 153.529 78.4355 154.68V171.858C78.4355 172.391 78.6601 172.784 79.025 172.924L80.5968 173.458C80.9898 173.598 81.2424 174.019 81.2424 174.609V188.727C81.2424 189.541 80.6529 190.551 79.9512 190.944L77.0602 192.628C76.162 193.134 75.3761 194.256 75.0954 195.379L73.9446 199.982C73.7482 200.796 73.1868 201.582 72.5412 201.947L62.3525 207.813C61.6789 208.206 61.1175 208.01 60.921 207.392L60.1632 204.698C59.8825 203.715 59.4334 202.957 58.8159 202.424C57.4125 201.217 55.2232 201.386 52.9777 202.677L49.3288 204.81H49.3008Z" fill="#350B00"/>
<path d="M61.6783 208.264C61.6783 208.264 61.3976 208.264 61.2853 208.179C60.9766 208.067 60.7801 207.786 60.6678 207.45L59.91 204.755C59.6574 203.857 59.2364 203.127 58.6469 202.622C57.3839 201.527 55.3068 201.64 53.1175 202.903L49.3564 205.092L49.0195 204.952L50.3668 197.766C52.0509 188.812 55.0261 179.662 59.2364 170.596L63.0536 162.372C63.7834 160.8 64.9342 159.481 66.1692 158.836L76.5264 153.334C77.0877 153.025 77.621 152.997 78.042 153.25C78.4631 153.503 78.7157 154.008 78.7157 154.681V171.859C78.7157 172.28 78.856 172.589 79.1086 172.673L80.6805 173.206C81.1857 173.375 81.4944 173.908 81.4944 174.61V188.728C81.4944 189.654 80.8769 190.721 80.0629 191.198L77.1719 192.882C76.3299 193.359 75.6001 194.398 75.3475 195.465L74.1967 200.068C73.9722 200.938 73.3547 201.808 72.681 202.201L62.4923 208.067C62.2116 208.236 61.959 208.292 61.7064 208.292L61.6783 208.264ZM56.4576 201.331C57.44 201.331 58.3101 201.611 58.9837 202.201C59.6574 202.79 60.1345 203.576 60.4152 204.587L61.173 207.281C61.2011 207.422 61.2853 207.618 61.4818 207.674C61.6783 207.758 61.9309 207.702 62.2116 207.534L72.4003 201.668C72.9898 201.331 73.495 200.601 73.6915 199.871L74.8423 195.268C75.151 194.061 75.9931 192.91 76.9193 192.349L79.8103 190.665C80.4278 190.3 80.9611 189.402 80.9611 188.672V174.554C80.9611 174.077 80.7927 173.74 80.512 173.656L78.9402 173.122C78.4631 172.954 78.1824 172.477 78.1824 171.803V154.625C78.1824 154.148 78.042 153.811 77.7894 153.643C77.5368 153.503 77.1719 153.531 76.807 153.727L66.4499 159.229C65.2991 159.846 64.2325 161.053 63.5589 162.512L59.7416 170.736C55.5594 179.774 52.5842 188.868 50.9282 197.766L49.7212 204.194L52.8649 202.369C54.1279 201.64 55.391 201.247 56.4857 201.247L56.4576 201.331Z" fill="#350B00"/>
<path d="M75.8808 157.713C75.8808 156.955 75.3756 156.646 74.73 156.983L67.4042 160.885C66.2534 161.502 64.8781 163.383 64.2044 164.842L61.5941 170.428C57.5523 179.129 54.6332 188.055 53.0333 196.672L52.5 199.479L54.4086 198.356C56.3453 197.317 57.9733 197.205 59.4048 197.598C60.6117 197.935 61.4257 198.777 61.538 199.001C61.7064 199.31 62.0713 199.338 62.4642 199.114L67.6568 196.11C68.1901 195.802 68.6673 195.1 68.7796 194.426L70.4356 184.209C70.5198 183.62 70.8566 182.974 71.3057 182.525L74.9826 178.792C75.544 178.231 75.9089 177.389 75.9089 176.687V157.713H75.8808Z" fill="#E59636"/>
<path d="M52.1074 199.984L52.753 196.615C54.3809 187.942 57.272 179.073 61.3419 170.315L63.9522 164.73C64.6539 163.242 66.0854 161.306 67.2923 160.66L74.6181 156.759C75.0111 156.534 75.404 156.534 75.6847 156.702C75.9935 156.899 76.1619 157.236 76.1619 157.713V176.687C76.1619 177.445 75.7689 178.343 75.1514 178.989L71.4745 182.722C71.0535 183.143 70.7728 183.732 70.6605 184.265L69.0045 194.482C68.8922 195.24 68.3589 195.998 67.7695 196.363L62.5768 199.366C62.0435 199.675 61.5383 199.591 61.2857 199.142C61.1734 198.945 60.4156 198.159 59.2929 197.878C57.7491 197.457 56.1773 197.71 54.4932 198.608L52.1074 200.012V199.984ZM57.8053 197.121C58.3386 197.121 58.8999 197.205 59.4332 197.345C60.6963 197.682 61.5664 198.58 61.7348 198.861C61.8752 199.113 62.1839 198.945 62.2962 198.861L67.4888 195.858C67.9659 195.577 68.387 194.959 68.4712 194.342L70.1272 184.125C70.2395 183.479 70.5763 182.778 71.0815 182.301L74.7584 178.568C75.2637 178.034 75.6286 177.276 75.6286 176.659V157.685C75.6286 157.404 75.5443 157.208 75.404 157.123C75.2637 157.039 75.0672 157.067 74.8426 157.18L67.5169 161.081C66.4222 161.671 65.0749 163.523 64.4294 164.898L61.819 170.484C57.7772 179.213 54.8862 188.027 53.2863 196.672L52.8653 198.889L54.2687 198.075C55.5037 197.401 56.6825 197.064 57.8333 197.064L57.8053 197.121Z" fill="#350B00"/>
<path d="M74.7004 156.982L74.0268 157.347V176.012C74.0268 176.714 73.6619 177.556 73.1005 178.117L69.4236 181.85C68.9745 182.299 68.6377 182.945 68.5535 183.534L66.8974 193.751C66.7852 194.425 66.3361 195.127 65.7747 195.435L60.8066 198.298C61.1996 198.579 61.4241 198.86 61.5083 198.972C61.6768 199.281 62.0416 199.309 62.4346 199.084L67.6272 196.081C68.1605 195.772 68.6377 195.07 68.7499 194.397L70.406 184.18C70.4902 183.591 70.827 182.945 71.2761 182.496L74.953 178.763C75.5144 178.202 75.8793 177.359 75.8793 176.658V157.684C75.8793 156.926 75.374 156.617 74.7285 156.954L74.7004 156.982Z" fill="#E59636"/>
<path d="M74.8136 158.61L74.1399 158.975V176.827C74.1399 177.528 73.775 178.37 73.2137 178.932L69.5368 182.665C69.0877 183.114 68.7509 183.759 68.6666 184.349L67.0106 194.566C66.8983 195.239 66.4492 195.941 65.8879 196.25L61.4531 198.804C61.8461 199.085 61.9583 199.225 62.0426 199.337C62.211 199.646 62.4074 199.113 62.8004 198.888L67.4316 196.418C67.9649 196.109 68.6666 195.071 68.7508 194.397L70.2946 186.173C70.3788 185.584 70.7156 184.938 71.1647 184.489L75.0662 180.476C75.6276 179.914 75.9924 179.072 75.9924 178.37V159.34C75.9924 158.582 75.4872 158.274 74.8416 158.61H74.8136Z" fill="white"/>
<path d="M61.958 199.535C61.6774 199.535 61.4247 199.395 61.2563 199.142C61.2002 199.058 61.0037 198.833 60.6388 198.553L60.3301 198.3L65.635 195.24C66.1121 194.96 66.5331 194.342 66.6173 193.725L68.2734 183.508C68.3857 182.862 68.7225 182.161 69.2277 181.684L72.9046 177.95C73.4098 177.417 73.7747 176.659 73.7747 176.014V157.18L74.5887 156.731C74.9817 156.534 75.3746 156.506 75.6553 156.675C75.9641 156.871 76.1325 157.208 76.1325 157.685V176.659C76.1325 177.417 75.7395 178.315 75.122 178.961L71.4451 182.694C71.0241 183.115 70.7434 183.704 70.6311 184.238L68.9751 194.455C68.8628 195.212 68.3295 195.97 67.7401 196.335L62.5475 199.338C62.351 199.451 62.1264 199.507 61.958 199.507V199.535ZM61.2563 198.384C61.4809 198.581 61.6493 198.777 61.7054 198.889C61.8458 199.114 62.1545 198.974 62.2668 198.889L67.4594 195.886C67.9366 195.605 68.3576 194.988 68.4418 194.37L70.0978 184.154C70.2101 183.508 70.5469 182.806 71.0521 182.329L74.7291 178.596C75.2343 178.063 75.5992 177.305 75.5992 176.687V157.713C75.5992 157.433 75.515 157.236 75.3746 157.152C75.2343 157.068 75.0378 157.096 74.8133 157.208L74.28 157.489V176.014C74.28 176.772 73.887 177.698 73.2695 178.315L69.5926 182.048C69.1715 182.469 68.8909 183.059 68.7786 183.592L67.1226 193.809C67.0103 194.567 66.477 195.325 65.8876 195.69L61.2563 198.356V198.384Z" fill="#350B00"/>
<path d="M55.2763 197.933C55.2763 197.933 55.5008 197.849 55.6412 197.793C55.7535 197.765 55.8657 197.709 55.9499 197.681C56.0341 197.681 56.1183 197.625 56.2025 197.596C56.3148 197.568 56.4551 197.54 56.5674 197.512H56.5955C57.606 197.316 58.5041 197.372 59.3462 197.596L57.4937 196.923C56.1464 196.558 54.6027 196.642 52.8063 197.512L52.4414 199.449L54.35 198.326C54.5746 198.214 54.7711 198.102 54.9956 198.018C55.0798 197.989 55.164 197.933 55.2482 197.905L55.2763 197.933Z" fill="#E59636"/>
<path d="M56.4842 197.54C57.4947 197.344 56.9895 197.316 57.8315 197.54L57.4947 197.428C56.1474 197.063 54.6037 197.147 52.8073 198.017L52.5547 199.393L54.2107 198.494C54.4353 198.382 56.4842 197.512 56.4842 197.512V197.54Z" fill="white"/>
<path d="M52.1062 199.982L52.6114 197.372L52.7237 197.315C54.4078 196.473 56.0077 196.277 57.5795 196.698L59.4601 197.372L59.2916 197.877C58.4496 197.652 57.5514 197.624 56.6533 197.793C56.5129 197.821 56.4006 197.849 56.2603 197.877C56.1761 197.877 56.0919 197.933 56.0077 197.933C55.8954 197.961 55.8112 197.989 55.6989 198.045C55.5867 198.073 55.4744 198.129 55.3621 198.157L55.2779 198.214C55.2218 198.214 55.1656 198.27 55.1095 198.27C54.913 198.354 54.6885 198.466 54.492 198.579L52.0781 199.982H52.1062ZM53.0886 197.708L52.864 198.943L54.2674 198.129C54.492 197.989 54.7165 197.905 54.9411 197.793C54.9972 197.793 55.0534 197.736 55.1095 197.708H55.1937V197.652C55.306 197.596 55.4182 197.568 55.5305 197.512C55.6428 197.484 55.7551 197.428 55.8673 197.4C55.9515 197.4 56.0357 197.344 56.12 197.315C56.2603 197.287 56.3726 197.259 56.5129 197.231C56.7655 197.175 57.0462 197.147 57.2988 197.119C55.9515 196.782 54.5481 196.979 53.0605 197.68L53.0886 197.708Z" fill="#350B00"/>
<path d="M75.9929 187.466C75.9929 187.466 75.7122 187.354 75.5718 187.354C75.4034 187.354 75.235 187.41 75.0666 187.494L72.3721 189.038C72.3721 189.038 72.2317 189.178 72.1475 189.262C71.7826 189.599 71.5019 190.076 71.4458 190.553C71.3897 190.974 71.5019 191.311 71.7546 191.508C71.8668 191.592 71.9791 191.62 72.1194 191.62C72.2878 191.62 72.4563 191.564 72.6247 191.48L75.3192 189.936C75.7964 189.655 76.2174 189.01 76.3016 188.42C76.3577 187.999 76.2455 187.662 75.9929 187.466ZM72.6247 189.431L75.3192 187.859C75.3192 187.859 75.4876 187.803 75.5718 187.775C75.628 187.775 75.656 187.775 75.6841 187.775C75.7683 187.831 75.8244 187.971 75.8244 188.167C75.7683 188.224 75.7122 188.252 75.656 188.308L72.9615 189.852C72.7931 189.936 72.6527 189.964 72.5405 189.908C72.4563 189.852 72.4001 189.711 72.4001 189.543C72.4563 189.487 72.5405 189.431 72.6247 189.374V189.431ZM75.0947 189.543L72.4001 191.087C72.2317 191.199 72.0914 191.199 71.9791 191.143C71.8668 191.058 71.8107 190.862 71.8388 190.609C71.8388 190.413 71.951 190.216 72.0352 190.02C72.0914 190.132 72.1756 190.245 72.2598 190.301C72.3721 190.357 72.4843 190.413 72.6247 190.413C72.7931 190.413 72.9615 190.357 73.1299 190.273L75.656 188.813C75.5157 189.122 75.2911 189.374 75.0385 189.515L75.0947 189.543Z" fill="#E59636"/>
<path d="M71.361 153.281L71.4452 153.225L58.3935 145.591L50.3099 149.885C49.131 150.503 48.0083 151.794 47.3066 153.309L43.4893 161.533C39.3633 170.403 35.7986 182.248 34.1426 191.005L48.2889 199.425C49.945 190.584 53.5377 178.655 57.6918 169.729L61.5091 161.505C62.2108 159.99 63.3335 158.726 64.5124 158.081L72.4276 153.871L71.361 153.253V153.281Z" fill="#E59636"/>
<path d="M48.065 196.448L34.4238 188.393V188.196C36.136 179.355 39.1112 170.345 43.2372 161.419L47.0545 153.195C47.7843 151.624 48.9351 150.304 50.1701 149.659L58.3941 145.28L58.5344 145.364L71.9791 153.223L63.6428 157.658C62.5201 158.276 61.4254 159.483 60.7518 160.942L56.9345 169.166C52.7804 178.12 49.8333 187.186 48.1492 196.055L48.093 196.42L48.065 196.448ZM34.9852 188.14L47.672 195.606C49.3561 186.821 52.3033 177.839 56.4293 168.97L60.2466 160.746C60.9763 159.174 62.1271 157.855 63.3621 157.209L70.8563 153.223L58.3379 145.898L50.3665 150.136C49.2158 150.753 48.1492 151.96 47.4755 153.42L43.6583 161.644C39.5603 170.457 36.6412 179.355 34.9571 188.112L34.9852 188.14Z" fill="#350B00"/>
<path d="M37.0347 187.019C38.7188 178.234 41.1888 171.47 45.3148 162.6L49.1321 154.376C49.8338 152.86 50.9566 151.597 52.1354 150.952L58.0578 147.724L69.3412 154.32L71.4183 153.225L58.3665 145.591L50.2829 149.885C49.1041 150.503 47.9813 151.794 47.2796 153.31L43.4623 161.534C39.3363 170.403 36.3892 179.469 34.7051 188.254L47.8691 196.001C48.0094 195.215 48.1778 194.458 48.3462 193.672L37.0067 186.991L37.0347 187.019Z" fill="#E59636"/>
<path d="M36.7808 187.945L34.4512 189.208L47.6151 196.955C47.7555 196.169 47.9239 195.411 48.0923 194.625L36.7528 187.945H36.7808Z" fill="white"/>
<path d="M48.065 196.449L34.4238 188.393V188.197C36.136 179.355 39.1112 170.345 43.2372 161.42L47.0545 153.196C47.7843 151.624 48.9351 150.305 50.1701 149.659L58.3941 145.28L58.5344 145.365L71.9791 153.224L69.3406 154.627L58.0572 148.031L52.2752 151.203C51.1244 151.82 50.0578 153.055 49.3842 154.515L45.5669 162.739C41.8058 170.851 39.1112 177.727 37.3429 186.906L48.6825 193.586L48.5702 194.063C48.4298 194.737 48.2895 195.41 48.1492 196.084L48.093 196.449H48.065ZM34.9852 188.141L47.672 195.607C47.7843 195.045 47.8966 194.484 48.0088 193.923V193.81L36.6973 187.13V186.934C38.5218 177.615 41.2163 170.654 45.0336 162.458L48.8509 154.234C49.5806 152.662 50.7314 151.343 51.9664 150.698L58.0011 147.386L69.2845 153.982L70.8283 153.168L58.3099 145.842L50.3385 150.08C49.1877 150.698 48.1211 151.905 47.4475 153.364L43.6302 161.588C39.5322 170.401 36.6131 179.299 34.929 188.056L34.9852 188.141Z" fill="#350B00"/>
<path d="M35.0138 188.142L36.7541 187.159L37.6242 184.212L40.6275 173.827L46.7744 159.484L49.5532 153.618L50.5355 152.27L52.4722 150.811L58.0578 147.751L58.3946 145.618L49.6654 150.334L48.4585 151.485L45.2587 157.098L40.7678 167.989L37.961 175.679L34.7051 187.805L35.0138 188.142Z" fill="#350B00"/>
<path d="M70.5784 169.763L62.2578 180.359L62.6773 180.688L70.9978 170.092L70.5784 169.763Z" fill="#350B00"/>
<path d="M66.3209 180.524L61.5996 186.631L62.0215 186.957L66.7428 180.85L66.3209 180.524Z" fill="#350B00"/>
<path d="M57.9152 186.708L57.4941 186.371L61.143 181.74L61.564 182.049L57.9152 186.708Z" fill="#350B00"/>
<path d="M69.5899 165.824L67.9062 167.999L68.328 168.326L70.0116 166.15L69.5899 165.824Z" fill="#350B00"/>
<path d="M34.2832 196.195V202.398L45.6228 209.107V202.679L34.2832 196.195Z" fill="#E59636"/>
<path d="M34.1992 197.599V202.258L45.5388 208.938V204.082L34.1992 197.599Z" fill="white"/>
<path d="M45.8748 209.555L34.002 202.538V195.718L45.8748 202.51V209.527V209.555ZM34.5352 202.258L45.3415 208.629V202.847L34.5352 196.644V202.258Z" fill="#350B00"/>
<path d="M46.7725 212.615L43.4324 214.552L43.4043 147.441L46.7444 145.532L46.7725 212.615Z" fill="#350B00"/>
<path d="M41.916 146.541L43.4036 147.439L46.7437 145.531L45.2561 144.605L41.916 146.541Z" fill="#E59636"/>
<path d="M41.916 147.243L43.4036 148.169V147.44L46.1543 145.868L45.2561 145.307L41.916 147.243Z" fill="white"/>
<path d="M41.916 213.624L43.4317 214.55L43.4036 147.439L41.916 146.541V213.624Z" fill="#E59636"/>
<path d="M47.0239 145.363L45.2556 144.269L41.6348 146.346V213.737L43.4311 214.832L47.0519 212.755V145.363H47.0239ZM45.2556 144.886L46.2379 145.504L45.4801 145.953L43.4031 147.16L42.4207 146.542L45.2556 144.914V144.886ZM42.1961 213.457V146.991L43.1504 147.581V161.138V214.046L42.1681 213.457H42.1961ZM43.6837 161.166V147.609L45.8169 146.374L46.5186 145.981V212.446L43.7118 214.074V161.166H43.6837Z" fill="#350B00"/>
<path d="M59.7413 158.021L52.3594 153.53L52.5839 153.165L59.9658 157.656L59.7413 158.021Z" fill="#350B00"/>
<path d="M55.7297 153.84L53.793 152.661L54.0175 152.268L55.9542 153.447L55.7297 153.84Z" fill="#350B00"/>
<path d="M56.7824 153.902L56.5449 154.283L57.4979 154.877L57.7353 154.496L56.7824 153.902Z" fill="#350B00"/>
<path d="M53.7626 172.393L49.1875 169.502L49.4121 169.137L53.9872 172L53.7626 172.393Z" fill="#350B00"/>
<path d="M52.2296 172.961L51.9922 173.342L52.9452 173.936L53.1826 173.554L52.2296 172.961Z" fill="#350B00"/>
<path d="M86.1242 185.108V185.726C86.1242 186.315 85.7032 187.073 85.1699 187.354L84.9453 187.494V188.112L85.4505 187.831C86.1242 187.438 86.6575 186.512 86.6575 185.726V184.8L86.1242 185.108Z" fill="#E59636"/>
<path d="M34.7334 205.318L31.3933 207.255L31.3652 140.172L34.7334 138.235V205.318Z" fill="#350B00"/>
<path d="M29.877 139.245L31.3646 140.172L34.7327 138.235L33.2171 137.309L29.877 139.245Z" fill="#E59636"/>
<path d="M29.877 139.947L31.3646 140.873V140.171L34.1433 138.599L33.2171 138.038L29.877 139.947Z" fill="white"/>
<path d="M29.905 206.327L31.3926 207.254L31.3646 140.171L29.877 139.245L29.905 206.327Z" fill="#E59636"/>
<path d="M34.9848 138.095L33.2165 137L29.5957 139.077V206.469L31.3921 207.563L35.0129 205.486V138.095H34.9848ZM33.2165 137.618L34.1989 138.235L33.441 138.684L31.364 139.891L30.3816 139.274L33.2165 137.646V137.618ZM30.1571 206.188V139.723L31.1114 140.312V153.869V206.778L30.129 206.188H30.1571ZM31.6447 153.897V140.34L33.7779 139.105L34.4796 138.712V205.178L31.6727 206.806V153.897H31.6447Z" fill="#350B00"/>
<path d="M64.2309 205.149L63.1362 205.794C62.9117 205.934 62.6871 205.963 62.5187 205.906C62.3503 205.85 62.2942 205.682 62.2661 205.57L61.7609 203.745L61.3398 203.914L61.8451 205.682C61.9293 205.991 62.1257 206.215 62.3784 206.299C62.4906 206.355 62.6029 206.355 62.7152 206.355C62.9397 206.355 63.1643 206.299 63.3888 206.159L64.2589 205.654V205.149H64.2309Z" fill="#E59636"/>
<path d="M34.5938 205.259L34.9867 205.54H35.0148V203.687L34.5938 203.435V205.259Z" fill="#E59636"/>
<path d="M34.5938 187.521L34.9867 187.802L35.0148 186.118L34.5938 185.865V187.521Z" fill="#E59636"/>
<path d="M46.6328 158.469L47.0258 158.75L46.9977 154.147L46.6328 153.894V158.469Z" fill="#E59636"/>
<path d="M15.7031 198.016V199.56L43.5748 215.615V214.127L15.7031 198.016Z" fill="#E59636"/>
<path d="M43.5748 214.128L15.7031 198.017L19.0152 196.108L46.9149 212.191L43.5748 214.128Z" fill="#E59636"/>
<path d="M43.5747 214.127L16.2363 198.353L19.0151 196.725L46.4377 212.556L43.5747 214.127Z" fill="white"/>
<path d="M47.1114 212.304V212.079L46.9149 211.967L19.1274 195.94L19.0151 195.884L15.675 197.821L15.4785 197.933V199.701L43.3502 215.756L43.5467 215.869L43.7432 215.756L47.0833 213.848V212.332L47.1114 212.304ZM46.4939 212.192L45.6799 212.641L43.5467 213.876L33.6386 208.15L16.0679 198.017L18.987 196.333L46.4658 212.192H46.4939ZM15.8995 199.449V198.382L43.3783 214.241V215.279L15.8995 199.477V199.449Z" fill="#350B00"/>
<path d="M11.1562 200.46V202.003L39.028 218.058V216.571L11.1562 200.46Z" fill="#E59636"/>
<path d="M39.028 216.572L11.1562 200.46L14.4683 198.552L42.34 214.635L39.028 216.572Z" fill="#E59636"/>
<path d="M39.0279 216.571L11.6895 200.797L14.4682 199.169L41.8627 214.999L39.0279 216.571Z" fill="white"/>
<path d="M42.5645 214.747V214.523L42.368 214.41L14.5805 198.383L14.4682 198.327L11.1281 200.264L10.9316 200.376V202.145L38.8034 218.2L38.9998 218.312L39.1963 218.2L42.5364 216.291V214.775L42.5645 214.747ZM41.947 214.635L41.133 215.084L38.9998 216.319L29.0918 210.593L11.5211 200.461L14.4402 198.776L41.9189 214.635H41.947ZM11.3527 201.892V200.825L38.8314 216.684V217.722L11.3527 201.92V201.892Z" fill="#350B00"/>
<path d="M6.58203 203.095V204.639L34.4818 220.694V219.178L6.58203 203.095Z" fill="#E59636"/>
<path d="M34.4838 219.179L6.58398 203.096L9.92409 201.159L37.7958 217.27L34.4838 219.179Z" fill="#E59636"/>
<path d="M34.4829 219.178L7.14453 203.404L9.92328 201.804L37.3178 217.634L34.4829 219.178Z" fill="white"/>
<path d="M38.0196 217.382V217.158L37.8231 217.045L10.0356 201.018L9.92331 200.962L6.5832 202.899L6.38672 203.011V204.779L34.2584 220.834L34.4549 220.947L34.6514 220.834L37.9915 218.926V217.41L38.0196 217.382ZM37.4021 217.27L36.5881 217.719L34.4549 218.954L24.5468 213.228L6.97615 203.095L9.89524 201.411L37.374 217.27H37.4021ZM6.80775 204.527V203.46L34.2865 219.319V220.357L6.80775 204.555V204.527Z" fill="#350B00"/>
<path d="M2.03516 205.736V207.279L29.9069 223.334V221.819L2.03516 205.736Z" fill="#E59636"/>
<path d="M29.9069 221.82L2.03516 205.737L5.37527 203.801L33.247 219.912L29.9069 221.82Z" fill="#E59636"/>
<path d="M29.906 221.819L2.5957 206.045L5.37445 204.445L32.769 220.275L29.906 221.819Z" fill="white"/>
<path d="M33.4434 220.024V219.799L33.2469 219.687L5.45941 203.66L5.34714 203.604L2.00702 205.54L1.81055 205.653V207.421L29.6823 223.476L29.8787 223.588L30.0752 223.476L33.4153 221.567V220.052L33.4434 220.024ZM32.8259 219.911L32.0119 220.36L29.8787 221.595L19.9707 215.869L2.39999 205.737L5.31907 204.053L32.7978 219.911H32.8259ZM2.23157 207.168V206.102L29.7103 221.96V222.999L2.23157 207.196V207.168Z" fill="#350B00"/>
<path d="M15.7031 193.159V194.703L43.5748 210.758V209.271L15.7031 193.159Z" fill="#E59636"/>
<path d="M43.5748 209.271L15.7031 193.16L19.0152 191.252L46.9149 207.335L43.5748 209.271Z" fill="#E59636"/>
<path d="M43.5747 209.271L16.2363 193.497L19.0151 191.869L46.4377 207.699L43.5747 209.271Z" fill="white"/>
<path d="M47.1114 207.447V207.223L46.9149 207.11L19.1274 191.083L19.0151 191.027L15.675 192.964L15.4785 193.076V194.844L43.3502 210.9L43.5467 211.012L43.7432 210.9L47.0833 208.991V207.475L47.1114 207.447ZM46.4939 207.335L45.6799 207.812L43.5467 209.047L33.6386 203.321L16.0679 193.188L18.987 191.504L46.4658 207.363L46.4939 207.335ZM15.8995 194.592V193.525L43.3783 209.384V210.422L15.8995 194.62V194.592Z" fill="#350B00"/>
<path d="M11.1562 195.601V197.145L39.028 213.2V211.713L11.1562 195.601Z" fill="#E59636"/>
<path d="M39.028 211.714L11.1562 195.603L14.4683 193.694L42.34 209.778L39.028 211.714Z" fill="#E59636"/>
<path d="M39.0279 211.713L11.6895 195.938L14.4682 194.31L41.8627 210.141L39.0279 211.713Z" fill="white"/>
<path d="M42.5645 209.889V209.665L42.368 209.552L14.5805 193.525L14.4682 193.469L11.1281 195.406L10.9316 195.518V197.287L38.8034 213.342L38.9998 213.454L39.1963 213.342L42.5364 211.433V209.917L42.5645 209.889ZM41.947 209.777L41.133 210.226L38.9998 211.461L29.0918 205.735L11.5211 195.602L14.4402 193.918L41.9189 209.777H41.947ZM11.3527 197.034V195.967L38.8314 211.826V212.864L11.3527 197.062V197.034Z" fill="#350B00"/>
<path d="M6.58203 198.24V199.783L34.4818 215.838V214.323L6.58203 198.24Z" fill="#E59636"/>
<path d="M34.4838 214.324L6.58398 198.241L9.92409 196.304L37.7958 212.415L34.4838 214.324Z" fill="#E59636"/>
<path d="M34.4829 214.323L7.14453 198.549L9.92328 196.949L37.3178 212.779L34.4829 214.323Z" fill="white"/>
<path d="M38.0196 212.527V212.303L37.8231 212.19L10.0356 196.164L9.92331 196.107L6.5832 198.044L6.38672 198.156V199.925L34.2584 215.98L34.4549 216.092L34.6514 215.98L37.9915 214.071V212.555L38.0196 212.527ZM37.4021 212.415L36.5881 212.864L34.4549 214.099L24.5468 208.373L6.97615 198.241L9.89524 196.557L37.374 212.415H37.4021ZM6.80775 199.672V198.605L34.2865 214.464V215.503L6.80775 199.7V199.672Z" fill="#350B00"/>
<path d="M2.03516 200.879V202.422L29.9069 218.477V216.962L2.03516 200.879Z" fill="#E59636"/>
<path d="M29.9069 216.963L2.03516 200.88L5.37527 198.943L33.247 215.054L29.9069 216.963Z" fill="#E59636"/>
<path d="M29.906 216.962L2.5957 201.188L5.37445 199.588L32.769 215.418L29.906 216.962Z" fill="white"/>
<path d="M33.4434 215.166V214.942L33.2469 214.829L5.45941 198.802L5.34714 198.746L2.00702 200.683L1.81055 200.795V202.563L29.6823 218.618L29.8787 218.731L30.0752 218.618L33.4153 216.71V215.194L33.4434 215.166ZM32.8259 215.054L32.0119 215.503L29.8787 216.738L19.9707 211.012L2.39999 200.879L5.31907 199.195L32.7978 215.054H32.8259ZM2.23157 202.311V201.244L29.7103 217.103V218.141L2.23157 202.339V202.311Z" fill="#350B00"/>
<path d="M22.3828 217.497V214.128L26.593 216.57V219.91L22.3828 217.497Z" fill="#E59636"/>
<path d="M29.5121 218.225L26.7895 216.653V216.428L22.1582 213.762V217.607L26.7895 220.245V219.768L29.5121 218.196V218.225ZM26.3965 219.544L22.5792 217.354V214.435L26.3965 216.653V219.544Z" fill="#350B00"/>
<path d="M5.00781 207.419V204.135L9.21804 206.605V209.889L5.00781 207.419Z" fill="#E59636"/>
<path d="M12.1371 208.205L9.41446 206.633V206.464L4.7832 203.77V207.531L9.41446 210.226V209.748L12.1371 208.177V208.205ZM9.02149 209.524L5.20423 207.307V204.472L9.02149 206.689V209.496V209.524Z" fill="#350B00"/>
<path d="M13.4863 212.304V209.02L17.6966 211.49V214.774L13.4863 212.304Z" fill="#E59636"/>
<path d="M20.6136 213.089L17.891 211.517V211.349L13.2598 208.654V212.415L17.891 215.11V214.633L20.6136 213.061V213.089ZM17.4981 214.408L13.6808 212.191V209.356L17.4981 211.573V214.38V214.408Z" fill="#350B00"/>
<path d="M49.8131 193.616C49.8131 181.17 41.065 166.033 30.2741 159.81C25.2451 156.909 20.6557 156.461 17.1931 158.062H17.184C16.7443 158.273 16.3137 158.511 15.9107 158.785L9.68164 162.318L11.4496 165.448C10.9916 167.104 10.7351 168.98 10.7351 171.067C10.7351 183.513 19.4832 198.65 30.2741 204.873C31.8405 205.779 33.3611 206.438 34.8268 206.877L36.8054 210.373L43.749 206.419C43.9505 206.31 44.152 206.2 44.3536 206.081L44.4635 206.017C47.7795 203.884 49.8223 199.611 49.8223 193.607L49.8131 193.616Z" fill="#E59636"/>
<path d="M36.7148 210.721L34.672 207.097C33.188 206.639 31.6674 205.971 30.1651 205.102C19.3284 198.851 10.507 183.595 10.507 171.085C10.507 169.072 10.7451 167.187 11.2032 165.493L9.37109 162.236L15.8017 158.584C16.2047 158.309 16.6444 158.062 17.0933 157.852L17.2032 157.788H17.2215C20.8673 156.159 25.5483 156.799 30.4124 159.609C41.2491 165.86 50.0705 181.115 50.0705 193.625C50.0705 199.418 48.1835 203.848 44.7484 206.136L44.4827 206.3C44.2904 206.419 44.0888 206.538 43.8781 206.648L36.7331 210.721H36.7148ZM10.0215 162.419L11.7161 165.429L11.6887 165.53C11.2215 167.205 10.9833 169.072 10.9833 171.085C10.9833 183.431 19.6948 198.503 30.3941 204.681C31.8964 205.55 33.417 206.218 34.8918 206.666L34.9834 206.694L36.8888 210.071L43.6217 206.236C43.8323 206.127 44.0247 206.017 44.2171 205.898L44.3178 205.834C47.698 203.665 49.5667 199.336 49.5667 193.635C49.5667 181.289 40.8552 166.216 30.1559 160.039C25.3834 157.285 20.8124 156.671 17.2948 158.3L17.1849 158.346C16.7818 158.538 16.4063 158.758 16.0398 159.005L10.0123 162.428L10.0215 162.419Z" fill="#350B00"/>
<path d="M46.9001 193.012C46.9001 180.566 40.0298 168.733 29.239 162.51C26.6557 161.018 24.1916 160.177 21.929 159.929L15.4801 163.599L15.3793 163.398C14.619 163.169 13.8312 162.876 13.0434 162.519L8.64648 165.009L10.4144 168.138C9.95641 169.795 9.69992 171.671 9.69992 173.757C9.69992 186.204 18.4481 201.34 29.239 207.563C30.8054 208.469 32.326 209.128 33.7916 209.568L33.8924 209.769L40.836 205.815C41.0375 205.706 41.239 205.596 41.4405 205.477L41.5505 205.413C44.8665 203.281 46.9093 199.007 46.9093 193.003L46.9001 193.012Z" fill="white"/>
<path d="M44.4557 206.026C47.7717 203.894 49.8145 199.62 49.8145 193.616C49.8145 187.851 47.9366 181.5 44.8404 175.734L37.6404 179.898C37.6404 179.898 33.6465 189.397 33.6465 190.212C33.6465 190.761 34.2236 200.306 34.5992 206.813C34.6724 206.84 34.7457 206.868 34.819 206.886L36.7976 210.382L43.7412 206.429C43.9427 206.319 44.1442 206.209 44.3458 206.09L44.4557 206.026Z" fill="#350B00"/>
<path d="M43.1816 197.414C43.1816 209.86 34.4334 214.903 23.6426 208.68C12.8517 202.457 4.10352 187.32 4.10352 174.874C4.10352 162.428 12.8517 157.385 23.6426 163.608C34.4334 169.831 43.1816 184.968 43.1816 197.414Z" fill="#E59636"/>
<path d="M32.3722 211.59C29.6516 211.59 26.647 210.684 23.5233 208.881C12.6867 202.631 3.86523 187.375 3.86523 174.865C3.86523 168.752 5.93547 164.194 9.70954 162.025C13.4744 159.856 18.4668 160.341 23.7615 163.389C34.5982 169.639 43.4196 184.895 43.4196 197.405C43.4196 203.518 41.3494 208.076 37.5753 210.245C36.0272 211.142 34.2684 211.581 32.3631 211.581L32.3722 211.59ZM14.9218 161.174C13.108 161.174 11.4317 161.595 9.94771 162.446C6.33853 164.533 4.35073 168.944 4.35073 174.874C4.35073 187.219 13.0622 202.292 23.7615 208.469C28.9005 211.435 33.7188 211.92 37.3372 209.833C40.9463 207.746 42.9341 203.335 42.9341 197.405C42.9341 185.06 34.2226 169.987 23.5233 163.81C20.4821 162.053 17.5508 161.174 14.9218 161.174Z" fill="#350B00"/>
<path d="M35.4803 206.602C42.0128 202.834 42.0138 190.617 35.4825 179.316C28.9512 168.014 18.3608 161.907 11.8283 165.675C5.29569 169.443 5.29469 181.659 11.826 192.961C18.3573 204.262 28.9477 210.37 35.4803 206.602Z" fill="white"/>
<path d="M35.6131 208.422C42.1457 204.654 42.1467 192.437 35.6153 181.136C29.084 169.834 18.4936 163.726 11.9611 167.494C5.4285 171.262 5.4275 183.479 11.9588 194.781C18.4902 206.082 29.0805 212.19 35.6131 208.422Z" fill="white"/>
<path d="M31.1176 207.966C28.7817 207.966 26.1984 207.188 23.5236 205.642C14.235 200.288 6.67773 187.21 6.67773 176.494C6.67773 171.25 8.464 167.333 11.6976 165.466C14.9312 163.599 19.2183 164.011 23.7618 166.638C33.0504 172 40.6077 185.069 40.6077 195.785C40.6077 201.029 38.8214 204.946 35.5878 206.813C34.2504 207.582 32.7481 207.966 31.1084 207.966H31.1176ZM16.177 164.798C14.6289 164.798 13.1999 165.155 11.9358 165.887C8.8579 167.663 7.15407 171.433 7.15407 176.494C7.15407 187.055 14.6014 199.949 23.7618 205.23C28.1496 207.765 32.2626 208.177 35.3496 206.401C38.4275 204.626 40.1313 200.855 40.1313 195.795C40.1313 185.234 32.684 172.339 23.5236 167.059C20.9221 165.558 18.4213 164.798 16.177 164.798Z" fill="#350B00"/>
<path d="M24.9645 204.626C15.7308 199.299 8.23767 186.341 8.23767 175.688C8.23767 171.158 9.48348 167.726 11.7552 165.74C11.7552 165.74 11.7552 165.722 11.7461 165.722C8.70484 167.461 6.92773 171.25 6.92773 176.594C6.92773 187.247 14.4117 200.205 23.6545 205.532C28.8759 208.542 33.6485 208.268 36.7172 205.715C36.7264 205.715 36.7172 205.687 36.708 205.696C33.6943 207.316 29.4805 207.225 24.9645 204.616V204.626Z" fill="#350B00"/>
<path d="M30.9455 207.957C28.6187 207.957 26.0722 207.225 23.5256 205.751C14.237 200.398 6.67969 187.32 6.67969 176.603C6.67969 171.277 8.43847 167.342 11.6171 165.521L11.8095 165.411L12.0751 165.768L11.9194 165.924C9.66596 167.891 8.48428 171.268 8.48428 175.688C8.48428 186.249 15.9316 199.144 25.092 204.424C29.2325 206.813 33.4279 207.206 36.5974 205.495L36.7898 205.394L37.0463 205.751L36.8814 205.907C35.2325 207.28 33.1989 207.957 30.9546 207.957H30.9455ZM9.97741 167.452C8.14534 169.483 7.15602 172.641 7.15602 176.594C7.15602 187.155 14.6034 200.05 23.7637 205.33C27.6569 207.582 31.5317 208.057 34.5546 206.758C31.6325 207.435 28.2065 206.776 24.8355 204.827C15.5469 199.473 7.98962 186.396 7.98962 175.679C7.98962 172.302 8.66748 169.511 9.97741 167.452Z" fill="#350B00"/>
<path d="M14.6747 160.945L21.3251 157.156L18.3388 157.632L16.7266 158.31L11.1113 161.476L13.3648 160.945H14.6747Z" fill="#350B00"/>
<path d="M37.4296 178.123L37.1914 177.711L43.7594 173.831L44.0067 174.242L37.4296 178.123Z" fill="#350B00"/>
<path d="M39.8114 168.125L33.2031 171.937L33.4459 172.357L40.0541 168.545L39.8114 168.125Z" fill="#350B00"/>
<path d="M23.1729 157.057L16.3848 160.83L16.6208 161.253L23.4089 157.48L23.1729 157.057Z" fill="#350B00"/>
<path d="M25.2272 185.178L25.1814 185.114C23.963 183.797 22.1035 181.802 22.0027 181.673C21.9203 181.554 21.8378 181.435 19.6119 181.802L19.4928 181.82L18.2012 185.178L19.8592 190.669L24.3752 191.758L26.9951 189.443L25.2272 185.178Z" fill="#350B00"/>
<path d="M20.5756 189.086L24.881 186.643L26.0627 191.694L21.9588 192.317L20.0352 190.486L20.5756 189.086Z" fill="#E59636"/>
<path d="M21.8842 192.555L19.7773 190.55L20.4094 188.94L25.0262 186.313L26.327 191.868L21.8842 192.545V192.555ZM20.2903 190.431L22.0308 192.088L25.7957 191.511L24.7331 186.981L20.7575 189.242L20.2903 190.431Z" fill="#350B00"/>
<path d="M23.0381 192.875L20.803 191.365L20.3633 193.891V201.249L20.5831 201.368L23.0473 199.913L23.0381 192.875Z" fill="#350B00"/>
<path d="M32.1079 189.526C32.1079 187.311 31.5124 185.252 30.3124 183.357C29.1124 181.463 27.3262 179.825 24.9353 178.452L18.3948 174.682L15.4727 176.384L22.0131 180.154C24.404 181.527 26.1903 183.165 27.3903 185.06C28.5903 186.954 29.1857 189.004 29.1857 191.228C29.1857 193.452 28.6178 195.007 27.5002 195.675L30.404 194.001C31.5308 193.323 32.0987 191.85 32.0987 189.526H32.1079Z" fill="#E59636"/>
<path d="M24.1999 187.714L22.1113 188.986C22.1113 188.986 23.3663 189.773 24.3281 189.315C25.2808 188.857 24.832 187.897 24.832 187.897L24.1907 187.714H24.1999Z" fill="white"/>
<path d="M29.1857 191.219C29.1857 193.653 28.5628 195.172 27.317 195.785C26.0712 196.398 24.3032 196.042 22.0131 194.715L20.575 193.891V201.121L15.4727 198.174V176.375L22.0131 180.145C24.404 181.518 26.1903 183.156 27.3903 185.05C28.5903 186.945 29.1857 188.995 29.1857 191.219ZM20.575 189.086L21.5093 189.626C22.2788 190.066 22.8834 190.175 23.3414 189.937C23.7903 189.699 24.0193 189.15 24.0193 188.272C24.0193 186.798 23.3139 185.654 21.9032 184.84L20.5841 184.08V189.086H20.575Z" fill="#E59636"/>
<path d="M26.2703 185.682L29.1924 183.989C27.8092 182.406 27.1772 181.335 24.8962 180.017L18.3557 176.247L15.4336 177.949L21.9741 181.719C24.0168 183.037 24.9329 184.263 26.2703 185.691V185.682Z" fill="white"/>
<path d="M22.0024 184.648L20.3535 183.696V189.205L21.3886 189.8C21.9199 190.111 22.3963 190.258 22.7993 190.258C23.0283 190.258 23.239 190.212 23.4222 190.111C23.9535 189.837 24.2192 189.214 24.2192 188.254C24.2192 186.707 23.468 185.49 21.9932 184.639L22.0024 184.648ZM23.2299 189.736C22.8543 189.937 22.3047 189.828 21.6085 189.434L20.7841 188.958V184.456L21.7734 185.023C23.1291 185.801 23.7795 186.862 23.7795 188.263C23.7795 189.05 23.5871 189.544 23.2207 189.736H23.2299Z" fill="#350B00"/>
<path d="M32.3268 189.526C32.3268 187.274 31.7131 185.169 30.4948 183.248C29.2856 181.335 27.4444 179.66 25.0444 178.269L18.394 174.435L15.252 176.265V198.311L20.5741 201.386L20.794 201.258V194.284L21.9024 194.925C24.2016 196.252 26.0245 196.618 27.3345 196.032L30.5314 194.202L30.6688 194.11C31.7772 193.36 32.336 191.832 32.336 189.544L32.3268 189.526ZM18.4031 174.938L24.8337 178.644C27.1787 179.999 28.965 181.619 30.1375 183.476C30.6139 184.227 30.9894 185.014 31.2734 185.819L28.7085 187.21C28.4245 186.423 28.049 185.664 27.5818 184.941C26.3726 183.028 24.5314 181.353 22.1314 179.962L15.9115 176.375L18.4031 174.929V174.938ZM27.765 195.218C27.6551 195.318 27.5268 195.41 27.3986 195.492C27.3436 195.529 27.2886 195.566 27.2337 195.602C26.0612 196.17 24.3482 195.813 22.1314 194.541L20.3726 193.525V200.755L15.7008 198.064V176.768L21.9115 180.356C24.2566 181.71 26.0428 183.33 27.2154 185.188C28.3879 187.036 28.9742 189.068 28.9742 191.237C28.9742 191.521 28.965 191.786 28.9467 192.042C28.9467 192.17 28.9192 192.28 28.91 192.408C28.9009 192.527 28.8917 192.655 28.8734 192.774C28.8551 192.93 28.8184 193.067 28.791 193.214C28.7726 193.287 28.7635 193.36 28.7451 193.424C28.7085 193.58 28.6627 193.726 28.6077 193.873C28.5986 193.909 28.5803 193.955 28.5711 193.992C28.5161 194.147 28.452 194.284 28.3787 194.422C28.3696 194.44 28.3604 194.458 28.3513 194.486C28.278 194.623 28.1955 194.76 28.1039 194.879C28.1039 194.879 28.0948 194.898 28.0856 194.907C27.994 195.035 27.8841 195.145 27.7742 195.245L27.765 195.218Z" fill="#350B00"/>
<path d="M20.0895 175.761L15.4727 173.098V169.447L29.2132 177.125V180.777L25.1918 178.699" fill="#E59636"/>
<path d="M15.4727 169.447L18.0925 168.001L31.833 175.679L29.2132 177.125L15.4727 169.447Z" fill="#E59636"/>
<path d="M15.4727 171.012L18.0925 169.566L31.833 177.244L29.2132 178.69L15.4727 171.012Z" fill="white"/>
<path d="M29.2484 180.978L32.0423 179.468V175.56L31.8224 175.432L18.0819 167.754L15.462 169.2L15.2422 169.328V173.236L19.859 175.899M18.0819 168.266L31.3827 175.697L29.1934 176.896L15.8926 169.465L18.0727 168.266H18.0819ZM20.2895 175.652L15.6727 172.989V169.84L28.9736 177.272V180.255" fill="#350B00"/>
<path d="M44.416 210.507L44.4441 210.029L46.5211 208.823L46.4931 209.328L44.416 210.507Z" fill="#E59636"/>
</svg>
