<svg width="10" height="8" viewBox="0 0 10 8" fill="none" xmlns="http://www.w3.org/2000/svg">
<path d="M0.500287 7.5003H9.50029C9.59141 7.50001 9.68073 7.47488 9.75863 7.42761C9.83652 7.38034 9.90006 7.31272 9.94238 7.23202C9.98471 7.15133 10.0042 7.06062 9.99884 6.96966C9.99345 6.8787 9.96335 6.79093 9.91179 6.7158L5.41179 0.215797C5.22529 -0.0537031 4.77629 -0.0537031 4.58929 0.215797L0.0892869 6.7158C0.0371993 6.79077 0.00665394 6.87858 0.000969462 6.9697C-0.00471502 7.06081 0.0146788 7.15174 0.0570438 7.2326C0.0994089 7.31347 0.163125 7.38118 0.241269 7.42837C0.319413 7.47557 0.408997 7.50044 0.500287 7.5003Z" fill="white"/>
</svg>
