<svg width="305" height="255" viewBox="0 0 305 255" fill="none" xmlns="http://www.w3.org/2000/svg">
<g opacity="0.3" filter="url(#filter0_f_2691_8577)">
<path d="M253.605 181.077L221.643 162.997C219.21 161.625 219.514 159.226 222.327 157.631L252.921 140.311C255.719 138.731 259.962 138.552 262.395 139.923L294.357 158.003C296.79 159.375 296.486 161.774 293.673 163.369L263.079 180.689C260.281 182.269 256.038 182.448 253.605 181.077Z" fill="#0B0244"/>
</g>
<path d="M295.762 148.519V142.419H280.031L261.432 131.673C258.952 130.245 254.618 130.421 251.75 132.074L233.839 142.407H218.096V148.857H218.108C218.033 149.822 218.584 150.761 219.774 151.45L252.451 170.312C254.931 171.74 259.265 171.565 262.133 169.912L293.42 151.851C295.074 150.899 295.875 149.659 295.775 148.507L295.762 148.519Z" fill="#312A91"/>
<path opacity="0.5" d="M295.762 148.519V142.419H280.031L261.432 131.673C258.952 130.245 254.618 130.421 251.75 132.074L233.839 142.407H218.096V148.857H218.108C218.033 149.822 218.584 150.761 219.774 151.45L252.451 170.312C254.931 171.74 259.265 171.565 262.133 169.912L293.42 151.851C295.074 150.899 295.875 149.659 295.775 148.507L295.762 148.519Z" fill="url(#paint0_linear_2691_8577)"/>
<path d="M261.42 131.685C260.23 130.996 258.602 130.683 256.924 130.721V171.289C258.74 171.251 260.631 170.788 262.122 169.924L293.409 151.863C295.062 150.911 295.864 149.671 295.763 148.519V142.419H280.032L261.433 131.673L261.42 131.685Z" fill="url(#paint1_linear_2691_8577)"/>
<path d="M252.428 163.887L219.751 145.025C217.271 143.597 217.584 141.092 220.452 139.439L251.74 121.378C254.608 119.725 258.941 119.537 261.421 120.977L294.099 139.839C296.579 141.267 296.265 143.772 293.397 145.426L262.11 163.486C259.242 165.14 254.908 165.328 252.428 163.887Z" fill="#312A91"/>
<path opacity="0.5" d="M252.428 163.887L219.751 145.025C217.271 143.597 217.584 141.092 220.452 139.439L251.74 121.378C254.608 119.725 258.941 119.537 261.421 120.977L294.099 139.839C296.579 141.267 296.265 143.772 293.397 145.426L262.11 163.486C259.242 165.14 254.908 165.328 252.428 163.887Z" fill="url(#paint2_linear_2691_8577)"/>
<path d="M253.307 159.716L226.98 144.524C224.976 143.371 225.226 141.355 227.544 140.015L252.744 125.461C255.048 124.133 258.543 123.983 260.547 125.135L286.874 140.328C288.878 141.48 288.627 143.497 286.31 144.837L261.11 159.391C258.806 160.718 255.311 160.869 253.307 159.716Z" fill="#FF5C5C"/>
<path d="M227.541 141.982L252.741 127.428C255.046 126.101 258.54 125.95 260.544 127.103L286.871 142.295C287.36 142.584 287.723 142.922 287.948 143.285C288.525 142.22 288.199 141.081 286.871 140.329L260.544 125.136C258.54 123.984 255.046 124.122 252.741 125.462L227.541 140.016C225.8 141.018 225.236 142.408 225.913 143.535C226.213 142.984 226.752 142.446 227.541 141.995V141.982Z" fill="#E84242"/>
<path opacity="0.5" d="M253.531 163.887L220.853 145.025C218.373 143.597 217.772 141.48 221.555 139.426L252.842 121.365C254.257 120.551 256.011 120.1 257.739 120.013C255.685 119.925 253.455 120.376 251.74 121.365L220.452 139.426C217.584 141.079 217.271 143.584 219.751 145.025L252.428 163.887C253.693 164.614 255.434 164.927 257.213 164.839C255.823 164.777 254.52 164.463 253.518 163.887H253.531Z" fill="url(#paint3_linear_2691_8577)"/>
<path opacity="0.8" d="M293.397 148.143L262.11 166.204C259.242 167.857 254.908 168.045 252.428 166.605L219.751 147.742C218.561 147.053 218.022 146.114 218.085 145.15H218.072V146.49H218.085C218.01 147.454 218.561 148.393 219.751 149.082L252.428 167.945C254.908 169.373 259.242 169.197 262.11 167.544L293.397 149.483C295.05 148.531 295.852 147.291 295.751 146.139V144.799C295.839 145.951 295.05 147.191 293.397 148.143Z" fill="url(#paint4_linear_2691_8577)"/>
<path d="M287.723 146.365C288.074 146.566 288.074 146.904 287.723 147.117C287.372 147.317 286.784 147.317 286.433 147.117C286.082 146.916 286.082 146.578 286.433 146.365C286.784 146.165 287.372 146.165 287.723 146.365Z" fill="#FCCC6B"/>
<path d="M289.739 145.2C290.089 145.401 290.089 145.739 289.739 145.952C289.388 146.152 288.799 146.152 288.449 145.952C288.098 145.751 288.098 145.413 288.449 145.2C288.799 145 289.388 145 289.739 145.2Z" fill="#FCCC6B"/>
<path d="M291.744 144.048C292.095 144.248 292.095 144.586 291.744 144.799C291.394 145.012 290.805 145 290.454 144.799C290.104 144.599 290.104 144.261 290.454 144.048C290.805 143.847 291.394 143.847 291.744 144.048Z" fill="#FCCC6B"/>
<path opacity="0.1" d="M255.232 150.495L242.932 143.393C241.993 142.855 242.118 141.916 243.195 141.289L254.981 134.488C256.059 133.862 257.699 133.799 258.626 134.338L270.926 141.44C271.865 141.978 271.74 142.917 270.663 143.544L258.877 150.345C257.799 150.971 256.159 151.034 255.232 150.495Z" fill="#0B0244"/>
<path d="M295.762 88.0329V81.9333H280.031L261.432 71.1995C258.952 69.7716 254.618 69.947 251.75 71.6003L233.839 81.9333H218.096V88.3836H218.108C218.033 89.348 218.584 90.2874 219.774 90.9763L252.451 109.839C254.931 111.267 259.265 111.091 262.133 109.438L293.42 91.3771C295.074 90.4252 295.875 89.1852 295.775 88.0329H295.762Z" fill="#312A91"/>
<path opacity="0.5" d="M295.762 88.0329V81.9333H280.031L261.432 71.1995C258.952 69.7716 254.618 69.947 251.75 71.6003L233.839 81.9333H218.096V88.3836H218.108C218.033 89.348 218.584 90.2874 219.774 90.9763L252.451 109.839C254.931 111.267 259.265 111.091 262.133 109.438L293.42 91.3771C295.074 90.4252 295.875 89.1852 295.775 88.0329H295.762Z" fill="url(#paint5_linear_2691_8577)"/>
<path d="M261.42 71.1881C260.23 70.4993 258.602 70.1861 256.924 70.2237V110.792C258.74 110.754 260.631 110.291 262.122 109.427L293.409 91.3657C295.062 90.4138 295.864 89.1738 295.763 88.0216V81.922H280.032L261.433 71.1881H261.42Z" fill="url(#paint6_linear_2691_8577)"/>
<path d="M252.428 103.389L219.751 84.5267C217.271 83.0989 217.584 80.5939 220.452 78.9406L251.74 60.8798C254.608 59.2265 258.941 59.0386 261.421 60.479L294.099 79.3414C296.579 80.7693 296.265 83.2743 293.397 84.9275L262.11 102.988C259.242 104.642 254.908 104.817 252.428 103.389Z" fill="#312A91"/>
<path opacity="0.5" d="M252.428 103.389L219.751 84.5267C217.271 83.0989 217.584 80.5939 220.452 78.9406L251.74 60.8798C254.608 59.2265 258.941 59.0386 261.421 60.479L294.099 79.3414C296.579 80.7693 296.265 83.2743 293.397 84.9275L262.11 102.988C259.242 104.642 254.908 104.817 252.428 103.389Z" fill="url(#paint7_linear_2691_8577)"/>
<path d="M253.307 99.2182L226.98 84.0255C224.976 82.8732 225.226 80.8567 227.544 79.5166L252.744 64.9627C255.048 63.635 258.543 63.4847 260.547 64.637L286.874 79.8297C288.878 80.982 288.627 82.9985 286.31 84.3386L261.11 98.8925C258.806 100.22 255.311 100.37 253.307 99.2182Z" fill="#FF5C5C"/>
<path d="M227.541 81.4952L252.741 66.9413C255.046 65.6136 258.54 65.4633 260.544 66.6156L286.871 81.8208C287.36 82.1089 287.723 82.4471 287.948 82.8103C288.525 81.7457 288.199 80.6059 286.871 79.8544L260.544 64.6618C258.54 63.5095 255.046 63.6472 252.741 64.9874L227.541 79.5413C225.8 80.5433 225.236 81.9335 225.913 83.0608C226.213 82.5097 226.752 81.9711 227.541 81.5202V81.4952Z" fill="#E84242"/>
<path opacity="0.5" d="M253.531 103.389L220.853 84.5269C218.373 83.0991 217.772 80.9824 221.555 78.9409L252.842 60.88C254.257 60.0659 256.011 59.615 257.739 59.5273C255.685 59.4396 253.455 59.8905 251.74 60.88L220.452 78.9409C217.584 80.5941 217.271 83.0991 219.751 84.5269L252.428 103.389C253.693 104.116 255.434 104.429 257.213 104.341C255.823 104.279 254.52 103.966 253.518 103.389H253.531Z" fill="url(#paint8_linear_2691_8577)"/>
<path opacity="0.8" d="M293.397 87.6586L262.11 105.719C259.242 107.373 254.908 107.548 252.428 106.12L219.751 87.2578C218.561 86.5689 218.022 85.6296 218.085 84.6651H218.072V86.0053H218.085C218.01 86.9697 218.561 87.9091 219.751 88.598L252.428 107.46C254.908 108.888 259.242 108.713 262.11 107.06L293.397 88.9988C295.05 88.0469 295.852 86.8069 295.751 85.6546V84.3145C295.839 85.4667 295.05 86.7067 293.397 87.6586Z" fill="white"/>
<path d="M287.723 85.8808C288.074 86.0812 288.074 86.4193 287.723 86.6323C287.372 86.8452 286.784 86.8327 286.433 86.6323C286.082 86.4319 286.082 86.0937 286.433 85.8808C286.784 85.6804 287.372 85.6804 287.723 85.8808Z" fill="#FCCC6B"/>
<path d="M289.739 84.7148C290.089 84.9151 290.089 85.2533 289.739 85.4662C289.388 85.6792 288.799 85.6666 288.449 85.4662C288.098 85.2658 288.098 84.9277 288.449 84.7148C288.799 84.5144 289.388 84.5144 289.739 84.7148Z" fill="#FCCC6B"/>
<path d="M291.744 83.5507C292.095 83.7511 292.095 84.0893 291.744 84.3022C291.394 84.5151 290.805 84.5026 290.454 84.3022C290.104 84.1018 290.104 83.7636 290.454 83.5507C290.805 83.3503 291.394 83.3503 291.744 83.5507Z" fill="#FCCC6B"/>
<path opacity="0.5" d="M295.764 88.0594C295.827 89.1866 295.025 90.4015 293.409 91.3409L262.122 109.402C259.254 111.055 254.92 111.243 252.428 109.803L219.751 90.9401C218.561 90.2512 218.022 89.3119 218.085 88.3475H218.072V142.568H218.097C218.085 143.494 218.598 144.384 219.751 145.035L252.428 163.897C254.908 165.325 259.254 165.15 262.122 163.497L293.409 145.436C295 144.522 295.764 143.344 295.751 142.229H295.777V88.0469H295.764V88.0594Z" fill="#FF5C5C"/>
<g style="mix-blend-mode:lighten" opacity="0.7">
<path d="M293.409 91.3401L262.122 109.401C260.631 110.265 258.74 110.716 256.924 110.754V164.861C258.74 164.824 260.631 164.36 262.122 163.508L293.409 145.448C294.999 144.533 295.763 143.356 295.751 142.241H295.776V88.0586H295.763C295.826 89.1858 295.024 90.4007 293.409 91.3401Z" fill="#FFADAD"/>
</g>
<g opacity="0.3" filter="url(#filter1_f_2691_8577)">
<path d="M42.6055 181.055L10.6426 162.555C8.20962 161.152 8.51374 158.696 11.3268 157.064L41.9212 139.341C44.7191 137.724 48.9616 137.541 51.3945 138.945L83.3574 157.445C85.7904 158.848 85.4863 161.304 82.6732 162.936L52.0788 180.659C49.2809 182.276 45.0384 182.459 42.6055 181.055Z" fill="#0B0244"/>
</g>
<path d="M88.4187 149.055V142.956H72.6874L54.088 132.209C51.6081 130.781 47.2745 130.957 44.4063 132.61L26.4957 142.943H10.752V149.393H10.7645C10.6893 150.358 11.2404 151.297 12.4303 151.986L45.1077 170.848C47.5876 172.276 51.9212 172.101 54.7894 170.448L86.0765 152.387C87.7298 151.435 88.5314 150.195 88.4312 149.043L88.4187 149.055Z" fill="#312A91"/>
<path opacity="0.5" d="M88.4187 149.055V142.956H72.6874L54.088 132.209C51.6081 130.781 47.2745 130.957 44.4063 132.61L26.4957 142.943H10.752V149.393H10.7645C10.6893 150.358 11.2404 151.297 12.4303 151.986L45.1077 170.848C47.5876 172.276 51.9212 172.101 54.7894 170.448L86.0765 152.387C87.7298 151.435 88.5314 150.195 88.4312 149.043L88.4187 149.055Z" fill="url(#paint9_linear_2691_8577)"/>
<path d="M54.0765 132.221C52.8866 131.532 51.2584 131.219 49.5801 131.257V171.825C51.3962 171.787 53.2874 171.324 54.7779 170.46L86.065 152.399C87.7183 151.447 88.5199 150.207 88.4197 149.055V142.955H72.6885L54.089 132.209L54.0765 132.221Z" fill="url(#paint10_linear_2691_8577)"/>
<path d="M45.0983 164.41L12.4209 145.548C9.94099 144.12 10.2541 141.615 13.1223 139.962L44.4094 121.901C47.2776 120.248 51.6112 120.072 54.0912 121.5L86.7685 140.363C89.2485 141.791 88.9353 144.296 86.0672 145.949L54.78 164.01C51.9118 165.663 47.5782 165.851 45.0983 164.41Z" fill="#312A91"/>
<path opacity="0.5" d="M45.0983 164.41L12.4209 145.548C9.94099 144.12 10.2541 141.615 13.1223 139.962L44.4094 121.901C47.2776 120.248 51.6112 120.072 54.0912 121.5L86.7685 140.363C89.2485 141.791 88.9353 144.296 86.0672 145.949L54.78 164.01C51.9118 165.663 47.5782 165.851 45.0983 164.41Z" fill="url(#paint11_linear_2691_8577)"/>
<path d="M45.9615 160.24L19.6342 145.047C17.6302 143.895 17.8807 141.878 20.1978 140.538L45.3979 125.984C47.7024 124.657 51.1969 124.506 53.2009 125.659L79.5281 140.851C81.5321 142.003 81.2816 144.02 78.9645 145.36L53.7645 159.914C51.4599 161.242 47.9655 161.392 45.9615 160.24Z" fill="#FF5C5C"/>
<path d="M20.1972 142.516L45.3973 127.963C47.7018 126.635 51.1963 126.485 53.2003 127.637L79.5275 142.83C80.016 143.118 80.3792 143.456 80.6047 143.819C81.1808 142.754 80.8552 141.615 79.5275 140.863L53.2003 125.671C51.1963 124.518 47.7018 124.656 45.3973 125.996L20.1972 140.55C18.4563 141.552 17.8926 142.942 18.569 144.07C18.8696 143.518 19.4082 142.98 20.1972 142.529V142.516Z" fill="#E84242"/>
<path opacity="0.5" d="M46.1849 164.411L13.5075 145.548C11.0275 144.12 10.4264 142.004 14.2089 139.95L45.496 121.889C46.9113 121.075 48.6648 120.624 50.3932 120.536C48.3391 120.448 46.1097 120.899 44.3938 121.889L13.1067 139.95C10.2385 141.603 9.92536 144.108 12.4053 145.548L45.0827 164.411C46.3477 165.137 48.0886 165.45 49.8672 165.363C48.4769 165.3 47.1743 164.987 46.1849 164.411Z" fill="url(#paint12_linear_2691_8577)"/>
<path opacity="0.8" d="M86.0629 148.678L54.7757 166.739C51.9075 168.392 47.5739 168.568 45.094 167.14L12.4166 148.277C11.2267 147.588 10.6882 146.649 10.7508 145.685H10.7383V147.025H10.7508C10.6757 147.989 11.2267 148.929 12.4166 149.617L45.094 168.48C47.5739 169.908 51.9075 169.732 54.7757 168.079L86.0629 150.018C87.7161 149.066 88.5177 147.826 88.4175 146.674V145.334C88.5052 146.486 87.7161 147.726 86.0629 148.678Z" fill="white"/>
<path d="M80.389 146.902C80.7397 147.103 80.7397 147.441 80.389 147.654C80.0383 147.854 79.4497 147.854 79.099 147.654C78.7483 147.453 78.7483 147.115 79.099 146.902C79.4497 146.702 80.0383 146.702 80.389 146.902Z" fill="#FCCC6B"/>
<path d="M82.3949 145.736C82.7456 145.937 82.7456 146.275 82.3949 146.488C82.0442 146.688 81.4555 146.688 81.1048 146.488C80.7541 146.287 80.7541 145.949 81.1048 145.736C81.4555 145.536 82.0442 145.536 82.3949 145.736Z" fill="#FCCC6B"/>
<path d="M84.4105 144.572C84.7612 144.773 84.7612 145.111 84.4105 145.324C84.0598 145.537 83.4711 145.524 83.1204 145.324C82.7697 145.123 82.7697 144.785 83.1204 144.572C83.4711 144.372 84.0598 144.372 84.4105 144.572Z" fill="#FCCC6B"/>
<path opacity="0.1" d="M47.8862 151.035L35.5867 143.933C34.6474 143.395 34.7726 142.456 35.8498 141.829L47.6357 135.028C48.7128 134.402 50.3536 134.339 51.2804 134.878L63.5798 141.98C64.5192 142.518 64.394 143.458 63.3168 144.084L51.5309 150.885C50.4538 151.511 48.813 151.574 47.8862 151.035Z" fill="#0B0244"/>
<path d="M88.4187 88.5738V82.4741H72.6874L54.088 71.7278C51.6081 70.3 47.2745 70.4753 44.4063 72.1286L26.4957 82.4616H10.752V88.9119H10.7645C10.6893 89.8763 11.2404 90.8157 12.4303 91.5046L45.1077 110.367C47.5876 111.795 51.9212 111.62 54.7894 109.966L86.0765 91.9054C87.7298 90.9535 88.5314 89.7135 88.4312 88.5612L88.4187 88.5738Z" fill="#312A91"/>
<path opacity="0.5" d="M88.4187 88.5738V82.4741H72.6874L54.088 71.7278C51.6081 70.3 47.2745 70.4753 44.4063 72.1286L26.4957 82.4616H10.752V88.9119H10.7645C10.6893 89.8763 11.2404 90.8157 12.4303 91.5046L45.1077 110.367C47.5876 111.795 51.9212 111.62 54.7894 109.966L86.0765 91.9054C87.7298 90.9535 88.5314 89.7135 88.4312 88.5612L88.4187 88.5738Z" fill="url(#paint13_linear_2691_8577)"/>
<path d="M54.0765 71.7282C52.8866 71.0393 51.2584 70.7262 49.5801 70.7638V111.332C51.3962 111.294 53.2874 110.831 54.7779 109.967L86.065 91.9057C87.7183 90.9538 88.5199 89.7139 88.4197 88.5616V82.462H72.6885L54.089 71.7156L54.0765 71.7282Z" fill="url(#paint14_linear_2691_8577)"/>
<path d="M45.0983 103.929L12.4209 85.0668C9.94099 83.6389 10.2541 81.134 13.1223 79.4807L44.4094 61.4198C47.2776 59.7665 51.6112 59.5787 54.0912 61.019L86.7685 79.8815C89.2485 81.3093 88.9353 83.8143 86.0672 85.4676L54.78 103.528C51.9118 105.182 47.5782 105.37 45.0983 103.929Z" fill="#312A91"/>
<path opacity="0.5" d="M45.0983 103.929L12.4209 85.0668C9.94099 83.6389 10.2541 81.134 13.1223 79.4807L44.4094 61.4198C47.2776 59.7665 51.6112 59.5787 54.0912 61.019L86.7685 79.8815C89.2485 81.3093 88.9353 83.8143 86.0672 85.4676L54.78 103.528C51.9118 105.182 47.5782 105.37 45.0983 103.929Z" fill="url(#paint15_linear_2691_8577)"/>
<path d="M45.9615 99.7582L19.6342 84.5656C17.6302 83.4133 17.8807 81.3968 20.1978 80.0566L45.3979 65.5027C47.7024 64.1751 51.1969 64.0248 53.2009 65.1771L79.5281 80.3697C81.5321 81.522 81.2816 83.5385 78.9645 84.8787L53.7645 99.4326C51.4599 100.76 47.9655 100.911 45.9615 99.7582Z" fill="#FF5C5C"/>
<path d="M20.1972 82.0233L45.3973 67.4694C47.7018 66.1418 51.1963 65.9915 53.2003 67.1438L79.5275 82.3364C80.016 82.6245 80.3792 82.9627 80.6047 83.3259C81.1808 82.2613 80.8552 81.1215 79.5275 80.37L53.2003 65.1774C51.1963 64.0251 47.7018 64.1629 45.3973 65.503L20.1972 80.0569C18.4563 81.0589 17.8926 82.4492 18.569 83.5764C18.8696 83.0253 19.4082 82.4867 20.1972 82.0359V82.0233Z" fill="#E84242"/>
<path opacity="0.5" d="M46.1849 103.929L13.5075 85.067C11.0275 83.6392 10.4264 81.5224 14.2089 79.4809L45.496 61.42C46.9113 60.6059 48.6648 60.155 50.3932 60.0673C48.3391 59.9797 46.1097 60.4306 44.3938 61.42L13.1067 79.4809C10.2385 81.1342 9.92536 83.6392 12.4053 85.067L45.0827 103.929C46.3477 104.656 48.0886 104.969 49.8672 104.881C48.4769 104.819 47.1743 104.506 46.1849 103.929Z" fill="url(#paint16_linear_2691_8577)"/>
<path opacity="0.8" d="M86.0629 88.1986L54.7757 106.259C51.9075 107.913 47.5739 108.101 45.094 106.66L12.4166 87.7978C11.2267 87.109 10.6882 86.1696 10.7508 85.2052H10.7383V86.5453H10.7508C10.6757 87.5098 11.2267 88.4491 12.4166 89.138L45.094 108C47.5739 109.428 51.9075 109.253 54.7757 107.6L86.0629 89.5388C87.7161 88.5869 88.5177 87.3469 88.4175 86.1947V84.8545C88.5052 86.0068 87.7161 87.2467 86.0629 88.1986Z" fill="white"/>
<path d="M80.389 86.4208C80.7397 86.6212 80.7397 86.9594 80.389 87.1723C80.0383 87.3727 79.4497 87.3727 79.099 87.1723C78.7483 86.9719 78.7483 86.6337 79.099 86.4208C79.4497 86.2204 80.0383 86.2204 80.389 86.4208Z" fill="#FCCC6B"/>
<path d="M82.3949 85.2548C82.7456 85.4552 82.7456 85.7934 82.3949 86.0063C82.0442 86.2192 81.4555 86.2067 81.1048 86.0063C80.7541 85.8059 80.7541 85.4677 81.1048 85.2548C81.4555 85.0544 82.0442 85.0544 82.3949 85.2548Z" fill="#FCCC6B"/>
<path d="M84.4105 84.0907C84.7612 84.2911 84.7612 84.6293 84.4105 84.8422C84.0598 85.0551 83.4711 85.0426 83.1204 84.8422C82.7697 84.6418 82.7697 84.3037 83.1204 84.0907C83.4711 83.8903 84.0598 83.8903 84.4105 84.0907Z" fill="#FCCC6B"/>
<path opacity="0.5" d="M88.4222 88.5994C88.4849 89.7267 87.6833 90.9416 86.0676 91.881L54.7804 109.942C51.9122 111.595 47.5786 111.783 45.0862 110.343L12.4088 91.4802C11.2189 90.7913 10.6804 89.8519 10.743 88.8875H10.7305V143.108H10.7555C10.743 144.035 11.2565 144.924 12.4088 145.575L45.0862 164.438C47.5661 165.865 51.9122 165.69 54.7804 164.037L86.0676 145.976C87.6582 145.062 88.4222 143.884 88.4097 142.769H88.4348V88.5869H88.4222V88.5994Z" fill="#FF5C5C"/>
<g style="mix-blend-mode:lighten" opacity="0.7">
<path d="M86.067 91.8684L54.7798 109.929C53.2894 110.794 51.3981 111.244 49.582 111.282V165.389C51.3981 165.352 53.2894 164.888 54.7798 164.037L86.067 145.976C87.6576 145.062 88.4216 143.884 88.4091 142.77H88.4342V88.5869H88.4216C88.4843 89.7142 87.6827 90.9291 86.067 91.8684Z" fill="#F29292"/>
</g>
<g opacity="0.3" filter="url(#filter2_f_2691_8577)">
<path d="M155.163 120.055L123.621 101.555C121.22 100.152 121.52 97.696 124.296 96.064L154.488 78.3412C157.249 76.7244 161.436 76.5414 163.837 77.9446L195.379 96.4453C197.78 97.8485 197.48 100.304 194.704 101.936L164.512 119.659C161.751 121.276 157.564 121.459 155.163 120.055Z" fill="#0B0244"/>
</g>
<path d="M192.311 89.0122V82.9126H176.58L157.981 72.1663C155.501 70.7384 151.167 70.9138 148.299 72.5671L130.388 82.9001H114.645V89.3504H114.657C114.582 90.3148 115.133 91.2542 116.323 91.9431L149 110.806C151.48 112.233 155.814 112.058 158.682 110.405L189.969 92.3439C191.622 91.392 192.424 90.152 192.324 88.9997L192.311 89.0122Z" fill="#312A91"/>
<path opacity="0.5" d="M192.311 89.0122V82.9126H176.58L157.981 72.1663C155.501 70.7384 151.167 70.9138 148.299 72.5671L130.388 82.9001H114.645V89.3504H114.657C114.582 90.3148 115.133 91.2542 116.323 91.9431L149 110.806C151.48 112.233 155.814 112.058 158.682 110.405L189.969 92.3439C191.622 91.392 192.424 90.152 192.324 88.9997L192.311 89.0122Z" fill="url(#paint17_linear_2691_8577)"/>
<path d="M157.969 72.1657C156.779 71.4768 155.151 71.1637 153.473 71.2013V111.769C155.289 111.732 157.18 111.268 158.67 110.404L189.958 92.3432C191.611 91.3914 192.412 90.1514 192.312 88.9991V82.8995H176.581L157.982 72.1532L157.969 72.1657Z" fill="url(#paint18_linear_2691_8577)"/>
<path d="M148.991 104.367L116.313 85.5049C113.834 84.077 114.147 81.5721 117.015 79.9063L148.302 61.8454C151.17 60.1921 155.504 60.0168 157.984 61.4446L190.661 80.3071C193.141 81.7349 192.828 84.2399 189.96 85.8931L158.673 103.954C155.804 105.607 151.471 105.795 148.991 104.355V104.367Z" fill="#312A91"/>
<path opacity="0.5" d="M148.991 104.367L116.313 85.5049C113.834 84.077 114.147 81.5721 117.015 79.9063L148.302 61.8454C151.17 60.1921 155.504 60.0168 157.984 61.4446L190.661 80.3071C193.141 81.7349 192.828 84.2399 189.96 85.8931L158.673 103.954C155.804 105.607 151.471 105.795 148.991 104.355V104.367Z" fill="url(#paint19_linear_2691_8577)"/>
<path d="M149.856 100.196L123.529 85.0031C121.525 83.8508 121.775 81.8343 124.092 80.4941L149.292 65.9402C151.597 64.6126 155.091 64.4623 157.095 65.6146L183.423 80.8072C185.427 81.9595 185.176 83.976 182.859 85.3162L157.659 99.8701C155.354 101.198 151.86 101.348 149.856 100.196Z" fill="#FF5C5C"/>
<path d="M124.09 82.4618L149.29 67.9079C151.594 66.5803 155.089 66.43 157.093 67.5823L183.42 82.7749C183.909 83.063 184.272 83.4012 184.497 83.7644C185.073 82.6998 184.748 81.56 183.42 80.8085L157.093 65.6159C155.089 64.4636 151.594 64.6013 149.29 65.9415L124.09 80.4954C122.349 81.4974 121.785 82.8876 122.462 84.0149C122.762 83.4638 123.301 82.9252 124.09 82.4743V82.4618Z" fill="#E84242"/>
<path opacity="0.5" d="M150.079 104.368L117.402 85.5053C114.922 84.0775 114.321 81.9608 118.103 79.9067L149.391 61.8458C150.806 61.0317 152.559 60.5808 154.288 60.4931C152.234 60.4055 150.004 60.8563 148.288 61.8458L117.001 79.9067C114.133 81.56 113.82 84.0649 116.3 85.5053L148.977 104.368C150.242 105.094 151.983 105.407 153.762 105.32C152.371 105.257 151.069 104.944 150.079 104.368Z" fill="url(#paint20_linear_2691_8577)"/>
<path opacity="0.8" d="M189.946 88.6361L158.659 106.697C155.79 108.35 151.457 108.538 148.977 107.098L116.299 88.2353C115.11 87.5465 114.571 86.6071 114.634 85.6427H114.621V86.9828H114.634C114.558 87.9473 115.11 88.8866 116.299 89.5755L148.977 108.438C151.457 109.866 155.79 109.69 158.659 108.037L189.946 89.9763C191.599 89.0244 192.401 87.7844 192.3 86.6322V85.292C192.388 86.4443 191.599 87.6842 189.946 88.6361Z" fill="white"/>
<path d="M184.272 86.8582C184.623 87.0586 184.623 87.3967 184.272 87.6096C183.921 87.81 183.332 87.81 182.982 87.6096C182.631 87.4092 182.631 87.0711 182.982 86.8582C183.332 86.6452 183.921 86.6578 184.272 86.8582Z" fill="#FCCC6B"/>
<path d="M186.287 85.6941C186.638 85.8945 186.638 86.2327 186.287 86.4456C185.937 86.646 185.348 86.646 184.997 86.4456C184.647 86.2452 184.647 85.907 184.997 85.6941C185.348 85.4812 185.937 85.4937 186.287 85.6941Z" fill="#FCCC6B"/>
<path d="M188.305 84.5292C188.656 84.7296 188.656 85.0678 188.305 85.2807C187.954 85.4811 187.366 85.4811 187.015 85.2807C186.664 85.0803 186.664 84.7421 187.015 84.5292C187.366 84.3288 187.954 84.3288 188.305 84.5292Z" fill="#FCCC6B"/>
<path opacity="0.1" d="M151.781 90.9911L139.481 83.8895C138.542 83.351 138.667 82.4116 139.744 81.7854L151.53 74.9843C152.607 74.3581 154.248 74.2955 155.175 74.8341L167.474 81.9357C168.414 82.4742 168.288 83.4136 167.211 84.0398L155.425 90.8408C154.348 91.4671 152.708 91.5297 151.781 90.9911Z" fill="#0B0244"/>
<path d="M192.311 28.5298V22.4302H176.58L157.981 11.6839C155.501 10.256 151.167 10.4314 148.299 12.0847L130.388 22.4177H114.645V28.868H114.657C114.582 29.8324 115.133 30.7718 116.323 31.4606L149 50.3231C151.48 51.7509 155.814 51.5756 158.682 49.9223L189.969 31.8614C191.622 30.9095 192.424 29.6696 192.324 28.5173L192.311 28.5298Z" fill="#312A91"/>
<path opacity="0.5" d="M192.311 28.5298V22.4302H176.58L157.981 11.6839C155.501 10.256 151.167 10.4314 148.299 12.0847L130.388 22.4177H114.645V28.868H114.657C114.582 29.8324 115.133 30.7718 116.323 31.4606L149 50.3231C151.48 51.7509 155.814 51.5756 158.682 49.9223L189.969 31.8614C191.622 30.9095 192.424 29.6696 192.324 28.5173L192.311 28.5298Z" fill="url(#paint21_linear_2691_8577)"/>
<path d="M157.969 11.6833C156.779 10.9944 155.151 10.6813 153.473 10.7188V51.2869C155.289 51.2493 157.18 50.7859 158.67 49.9217L189.958 31.8608C191.611 30.9089 192.412 29.669 192.312 28.5167V22.4171H176.581L157.982 11.6707L157.969 11.6833Z" fill="url(#paint22_linear_2691_8577)"/>
<path d="M148.991 43.8853L116.313 25.0228C113.834 23.595 114.147 21.09 117.015 19.4367L148.302 1.37588C151.17 -0.277402 155.504 -0.465275 157.984 0.975085L190.661 19.8375C193.141 21.2654 192.828 23.7703 189.96 25.4236L158.673 43.4845C155.804 45.1378 151.471 45.3257 148.991 43.8853Z" fill="#312A91"/>
<path opacity="0.5" d="M148.991 43.8853L116.313 25.0228C113.834 23.595 114.147 21.09 117.015 19.4367L148.302 1.37588C151.17 -0.277402 155.504 -0.465275 157.984 0.975085L190.661 19.8375C193.141 21.2654 192.828 23.7703 189.96 25.4236L158.673 43.4845C155.804 45.1378 151.471 45.3257 148.991 43.8853Z" fill="url(#paint23_linear_2691_8577)"/>
<path d="M149.856 39.7143L123.529 24.5216C121.525 23.3693 121.775 21.3528 124.092 20.0127L149.292 5.45877C151.597 4.13113 155.091 3.98083 157.095 5.13312L183.423 20.3258C185.427 21.4781 185.176 23.4946 182.859 24.8347L157.659 39.3886C155.354 40.7163 151.86 40.8666 149.856 39.7143Z" fill="#FF5C5C"/>
<path d="M124.09 21.9804L149.29 7.42646C151.594 6.09882 155.089 5.94852 157.093 7.10081L183.42 22.2935C183.909 22.5816 184.272 22.9197 184.497 23.2829C185.073 22.2183 184.748 21.0786 183.42 20.3271L157.093 5.13441C155.089 3.98212 151.594 4.11989 149.29 5.46005L124.09 20.014C122.349 21.0159 121.785 22.4062 122.462 23.5334C122.762 22.9823 123.301 22.4438 124.09 21.9929V21.9804Z" fill="#E84242"/>
<path opacity="0.5" d="M150.079 43.8853L117.402 25.0229C114.922 23.595 114.321 21.4783 118.103 19.4243L149.391 1.36339C150.806 0.549274 152.559 0.0983785 154.288 0.0107044C152.234 -0.0769697 150.004 0.373926 148.288 1.36339L117.001 19.4243C114.133 21.0775 113.82 23.5825 116.3 25.0229L148.977 43.8853C150.242 44.6118 151.983 44.9249 153.762 44.8372C152.371 44.7746 151.069 44.4615 150.079 43.8853Z" fill="url(#paint24_linear_2691_8577)"/>
<path opacity="0.8" d="M189.946 28.141L158.659 46.2019C155.79 47.8552 151.457 48.0305 148.977 46.6027L116.299 27.7402C115.11 27.0514 114.571 26.112 114.634 25.1476H114.621V26.4877H114.634C114.558 27.4521 115.11 28.3915 116.299 29.0804L148.977 47.9428C151.457 49.3707 155.79 49.1953 158.659 47.542L189.946 29.4812C191.599 28.5293 192.401 27.2893 192.3 26.137V24.7969C192.388 25.9492 191.599 27.1891 189.946 28.141Z" fill="white"/>
<path d="M184.27 26.3642C184.621 26.5646 184.621 26.9027 184.27 27.1157C183.919 27.3161 183.331 27.3161 182.98 27.1157C182.629 26.9153 182.629 26.5771 182.98 26.3642C183.331 26.1638 183.919 26.1638 184.27 26.3642Z" fill="#FCCC6B"/>
<path d="M186.286 25.2108C186.636 25.4112 186.636 25.7494 186.286 25.9623C185.935 26.1627 185.346 26.1627 184.995 25.9623C184.645 25.7619 184.645 25.4238 184.995 25.2108C185.346 25.0104 185.935 25.0104 186.286 25.2108Z" fill="#FCCC6B"/>
<path d="M188.303 24.0468C188.654 24.2472 188.654 24.5854 188.303 24.7983C187.952 25.0112 187.364 24.9987 187.013 24.7983C186.662 24.5979 186.662 24.2597 187.013 24.0468C187.364 23.8464 187.952 23.8464 188.303 24.0468Z" fill="#FCCC6B"/>
<path opacity="0.5" d="M192.313 28.5537C192.375 29.6809 191.574 30.8959 189.958 31.8352L158.671 49.8961C155.803 51.5494 151.469 51.7372 148.977 50.2969L116.299 31.4344C115.11 30.7456 114.571 29.8062 114.634 28.8418H114.621V83.0619H114.646C114.634 83.9888 115.147 84.8781 116.299 85.5293L148.977 104.392C151.457 105.82 155.803 105.644 158.671 103.991L189.958 85.9301C191.549 85.0158 192.313 83.8385 192.3 82.7238H192.325V28.5537H192.313Z" fill="#FF5C5C"/>
<g style="mix-blend-mode:lighten" opacity="0.7">
<path d="M189.958 31.8227L158.67 49.8836C157.18 50.7478 155.289 51.1987 153.473 51.2363V105.344C155.289 105.306 157.18 104.843 158.67 103.991L189.958 85.9301C191.548 85.0158 192.312 83.8385 192.3 82.7238H192.325V28.5537H192.312C192.375 29.6809 191.573 30.8959 189.958 31.8352V31.8227Z" fill="#FFADAD"/>
</g>
<g opacity="0.3" filter="url(#filter3_f_2691_8577)">
<path d="M145.605 245.055L113.643 226.555C111.21 225.152 111.514 222.696 114.327 221.064L144.921 203.341C147.719 201.724 151.962 201.541 154.395 202.945L186.357 221.445C188.79 222.848 188.486 225.304 185.673 226.936L155.079 244.659C152.281 246.276 148.038 246.459 145.605 245.055Z" fill="#0B0244"/>
</g>
<path d="M191.874 208.565V202.465H176.143L157.543 191.719C155.063 190.291 150.73 190.467 147.861 192.12L129.951 202.453H114.207V208.903H114.22C114.144 209.868 114.696 210.807 115.885 211.496L148.563 230.358C151.043 231.786 155.376 231.611 158.244 229.957L189.532 211.897C191.185 210.945 191.986 209.705 191.886 208.552L191.874 208.565Z" fill="#312A91"/>
<path opacity="0.5" d="M191.874 208.565V202.465H176.143L157.543 191.719C155.063 190.291 150.73 190.467 147.861 192.12L129.951 202.453H114.207V208.903H114.22C114.144 209.868 114.696 210.807 115.885 211.496L148.563 230.358C151.043 231.786 155.376 231.611 158.244 229.957L189.532 211.897C191.185 210.945 191.986 209.705 191.886 208.552L191.874 208.565Z" fill="url(#paint25_linear_2691_8577)"/>
<path d="M157.532 191.731C156.342 191.042 154.713 190.729 153.035 190.767V231.335C154.851 231.297 156.743 230.834 158.233 229.97L189.52 211.909C191.173 210.957 191.975 209.717 191.875 208.565V202.465H176.144L157.544 191.719L157.532 191.731Z" fill="url(#paint26_linear_2691_8577)"/>
<path d="M148.54 223.932L115.862 205.07C113.382 203.642 113.696 201.137 116.564 199.484L147.851 181.423C150.719 179.769 155.053 179.582 157.533 181.022L190.21 199.884C192.69 201.312 192.377 203.817 189.509 205.471L158.221 223.531C155.353 225.185 151.02 225.36 148.54 223.932Z" fill="#312A91"/>
<path opacity="0.5" d="M148.54 223.932L115.862 205.07C113.382 203.642 113.696 201.137 116.564 199.484L147.851 181.423C150.719 179.769 155.053 179.582 157.533 181.022L190.21 199.884C192.69 201.312 192.377 203.817 189.509 205.471L158.221 223.531C155.353 225.185 151.02 225.36 148.54 223.932Z" fill="url(#paint27_linear_2691_8577)"/>
<path d="M149.419 219.761L123.091 204.568C121.087 203.416 121.338 201.4 123.655 200.06L148.855 185.506C151.159 184.178 154.654 184.028 156.658 185.18L182.985 200.373C184.989 201.525 184.739 203.541 182.422 204.882L157.222 219.436C154.917 220.763 151.422 220.913 149.419 219.761Z" fill="#FF5C5C"/>
<path d="M123.652 202.025L148.852 187.472C151.157 186.144 154.651 185.994 156.655 187.146L182.983 202.351C183.471 202.639 183.834 202.977 184.06 203.341C184.636 202.276 184.31 201.136 182.983 200.385L156.655 185.192C154.651 184.04 151.157 184.178 148.852 185.518L123.652 200.072C121.911 201.074 121.348 202.464 122.024 203.591C122.325 203.04 122.863 202.501 123.652 202.051V202.025Z" fill="#E84242"/>
<path opacity="0.5" d="M149.642 223.933L116.965 205.071C114.485 203.643 113.883 201.526 117.666 199.485L148.953 181.424C150.368 180.61 152.122 180.159 153.85 180.071C151.796 179.984 149.567 180.434 147.851 181.424L116.564 199.485C113.696 201.138 113.382 203.643 115.862 205.071L148.54 223.933C149.805 224.66 151.546 224.973 153.324 224.885C151.934 224.823 150.631 224.509 149.629 223.933H149.642Z" fill="url(#paint28_linear_2691_8577)"/>
<path opacity="0.8" d="M189.508 208.188L158.221 226.249C155.353 227.902 151.019 228.09 148.539 226.65L115.862 207.787C114.672 207.098 114.133 206.159 114.196 205.194H114.184V206.535H114.196C114.121 207.499 114.672 208.438 115.862 209.127L148.539 227.99C151.019 229.418 155.353 229.242 158.221 227.589L189.508 209.528C191.161 208.576 191.963 207.336 191.863 206.184V204.844C191.95 205.996 191.161 207.236 189.508 208.188Z" fill="white"/>
<path d="M183.834 206.409C184.185 206.609 184.185 206.948 183.834 207.161C183.484 207.373 182.895 207.361 182.544 207.161C182.194 206.96 182.194 206.622 182.544 206.409C182.895 206.209 183.484 206.209 183.834 206.409Z" fill="#FCCC6B"/>
<path d="M185.85 205.256C186.201 205.456 186.201 205.794 185.85 206.007C185.499 206.22 184.911 206.208 184.56 206.007C184.209 205.807 184.209 205.469 184.56 205.256C184.911 205.055 185.499 205.055 185.85 205.256Z" fill="#FCCC6B"/>
<path d="M187.856 204.092C188.207 204.292 188.207 204.63 187.856 204.843C187.505 205.056 186.916 205.044 186.566 204.843C186.215 204.643 186.215 204.305 186.566 204.092C186.916 203.891 187.505 203.891 187.856 204.092Z" fill="#FCCC6B"/>
<path opacity="0.1" d="M151.343 210.554L139.044 203.452C138.104 202.913 138.23 201.974 139.307 201.348L151.093 194.547C152.17 193.921 153.811 193.858 154.737 194.397L167.037 201.498C167.976 202.037 167.851 202.976 166.774 203.602L154.988 210.403C153.911 211.03 152.27 211.092 151.343 210.554Z" fill="#0B0244"/>
<path d="M191.874 148.08V141.98H176.143L157.543 131.234C155.063 129.806 150.73 129.981 147.861 131.634L129.951 141.967H114.207V148.418H114.22C114.144 149.382 114.696 150.322 115.885 151.01L148.563 169.873C151.043 171.301 155.376 171.125 158.244 169.472L189.532 151.411C191.185 150.459 191.986 149.219 191.886 148.067L191.874 148.08Z" fill="#312A91"/>
<path opacity="0.5" d="M191.874 148.08V141.98H176.143L157.543 131.234C155.063 129.806 150.73 129.981 147.861 131.634L129.951 141.967H114.207V148.418H114.22C114.144 149.382 114.696 150.322 115.885 151.01L148.563 169.873C151.043 171.301 155.376 171.125 158.244 169.472L189.532 151.411C191.185 150.459 191.986 149.219 191.886 148.067L191.874 148.08Z" fill="url(#paint29_linear_2691_8577)"/>
<path d="M157.532 131.247C156.342 130.558 154.713 130.245 153.035 130.282V170.85C154.851 170.813 156.743 170.349 158.233 169.485L189.52 151.424C191.173 150.472 191.975 149.232 191.875 148.08V141.981H176.144L157.544 131.234L157.532 131.247Z" fill="url(#paint30_linear_2691_8577)"/>
<path d="M148.54 163.449L115.862 144.586C113.382 143.158 113.696 140.653 116.564 139L147.851 120.939C150.719 119.286 155.053 119.111 157.533 120.538L190.21 139.401C192.69 140.829 192.377 143.334 189.509 144.999L158.221 163.06C155.353 164.714 151.02 164.901 148.54 163.461V163.449Z" fill="#312A91"/>
<path opacity="0.5" d="M148.54 163.449L115.862 144.586C113.382 143.158 113.696 140.653 116.564 139L147.851 120.939C150.719 119.286 155.053 119.111 157.533 120.538L190.21 139.401C192.69 140.829 192.377 143.334 189.509 144.999L158.221 163.06C155.353 164.714 151.02 164.901 148.54 163.461V163.449Z" fill="url(#paint31_linear_2691_8577)"/>
<path d="M149.419 159.278L123.091 144.085C121.087 142.933 121.338 140.916 123.655 139.576L148.855 125.022C151.159 123.695 154.654 123.544 156.658 124.697L182.985 139.889C184.989 141.042 184.739 143.058 182.422 144.398L157.222 158.952C154.917 160.28 151.422 160.43 149.419 159.278Z" fill="#FF5C5C"/>
<path d="M123.652 141.542L148.852 126.988C151.157 125.66 154.651 125.51 156.655 126.662L182.983 141.855C183.471 142.143 183.834 142.481 184.06 142.844C184.636 141.78 184.31 140.64 182.983 139.889L156.655 124.696C154.651 123.544 151.157 123.681 148.852 125.022L123.652 139.575C121.911 140.577 121.348 141.968 122.024 143.095C122.325 142.544 122.863 142.005 123.652 141.554V141.542Z" fill="#E84242"/>
<path opacity="0.5" d="M149.642 163.449L116.965 144.587C114.485 143.159 113.883 141.042 117.666 139L148.953 120.94C150.368 120.125 152.122 119.675 153.85 119.587C151.796 119.499 149.567 119.95 147.851 120.94L116.564 139C113.696 140.654 113.382 143.159 115.862 144.587L148.54 163.449C149.805 164.175 151.546 164.489 153.324 164.401C151.934 164.338 150.631 164.025 149.629 163.449H149.642Z" fill="url(#paint32_linear_2691_8577)"/>
<path opacity="0.8" d="M189.508 147.704L158.221 165.765C155.353 167.419 151.019 167.607 148.539 166.166L115.862 147.304C114.672 146.615 114.133 145.675 114.196 144.711H114.184V146.051H114.196C114.121 147.016 114.672 147.955 115.862 148.644L148.539 167.506C151.019 168.934 155.353 168.759 158.221 167.106L189.508 149.045C191.161 148.093 191.963 146.853 191.863 145.701V144.36C191.95 145.513 191.161 146.753 189.508 147.704Z" fill="white"/>
<path d="M183.834 145.927C184.185 146.127 184.185 146.465 183.834 146.678C183.484 146.891 182.895 146.879 182.544 146.678C182.194 146.478 182.194 146.14 182.544 145.927C182.895 145.726 183.484 145.726 183.834 145.927Z" fill="#FCCC6B"/>
<path d="M185.85 144.762C186.201 144.962 186.201 145.3 185.85 145.513C185.499 145.714 184.911 145.714 184.56 145.513C184.209 145.313 184.209 144.975 184.56 144.762C184.911 144.561 185.499 144.561 185.85 144.762Z" fill="#FCCC6B"/>
<path d="M187.856 143.609C188.207 143.81 188.207 144.148 187.856 144.361C187.505 144.561 186.916 144.561 186.566 144.361C186.215 144.16 186.215 143.822 186.566 143.609C186.916 143.396 187.505 143.409 187.856 143.609Z" fill="#FCCC6B"/>
<path opacity="0.5" d="M191.875 148.104C191.938 149.232 191.136 150.446 189.521 151.386L158.234 169.447C155.365 171.1 151.032 171.288 148.539 169.848L115.862 150.985C114.672 150.296 114.133 149.357 114.196 148.392H114.184V202.613H114.209C114.196 203.539 114.71 204.429 115.862 205.08L148.539 223.942C151.019 225.37 155.365 225.195 158.234 223.542L189.521 205.481C191.111 204.566 191.875 203.389 191.863 202.274H191.888V148.092H191.875V148.104Z" fill="#FF5C5C"/>
<g style="mix-blend-mode:lighten" opacity="0.7">
<path d="M189.52 151.385L158.233 169.446C156.743 170.31 154.851 170.761 153.035 170.799V224.906C154.851 224.868 156.743 224.405 158.233 223.553L189.52 205.492C191.111 204.578 191.875 203.401 191.862 202.286H191.887V148.104H191.875C191.937 149.231 191.136 150.446 189.52 151.385Z" fill="#FFADAD"/>
</g>
<defs>
<filter id="filter0_f_2691_8577" x="211.3" y="130.3" width="93.4" height="60.4" filterUnits="userSpaceOnUse" color-interpolation-filters="sRGB">
<feFlood flood-opacity="0" result="BackgroundImageFix"/>
<feBlend mode="normal" in="SourceGraphic" in2="BackgroundImageFix" result="shape"/>
<feGaussianBlur stdDeviation="4.35" result="effect1_foregroundBlur_2691_8577"/>
</filter>
<filter id="filter1_f_2691_8577" x="0.3" y="129.3" width="93.4" height="61.4" filterUnits="userSpaceOnUse" color-interpolation-filters="sRGB">
<feFlood flood-opacity="0" result="BackgroundImageFix"/>
<feBlend mode="normal" in="SourceGraphic" in2="BackgroundImageFix" result="shape"/>
<feGaussianBlur stdDeviation="4.35" result="effect1_foregroundBlur_2691_8577"/>
</filter>
<filter id="filter2_f_2691_8577" x="113.3" y="68.3" width="92.4" height="61.4" filterUnits="userSpaceOnUse" color-interpolation-filters="sRGB">
<feFlood flood-opacity="0" result="BackgroundImageFix"/>
<feBlend mode="normal" in="SourceGraphic" in2="BackgroundImageFix" result="shape"/>
<feGaussianBlur stdDeviation="4.35" result="effect1_foregroundBlur_2691_8577"/>
</filter>
<filter id="filter3_f_2691_8577" x="103.3" y="193.3" width="93.4" height="61.4" filterUnits="userSpaceOnUse" color-interpolation-filters="sRGB">
<feFlood flood-opacity="0" result="BackgroundImageFix"/>
<feBlend mode="normal" in="SourceGraphic" in2="BackgroundImageFix" result="shape"/>
<feGaussianBlur stdDeviation="4.35" result="effect1_foregroundBlur_2691_8577"/>
</filter>
<linearGradient id="paint0_linear_2691_8577" x1="200.912" y1="150.999" x2="278.591" y2="150.999" gradientUnits="userSpaceOnUse">
<stop stop-color="white"/>
<stop offset="0.1" stop-color="#3CC9CD"/>
<stop offset="0.34" stop-color="#2F87A5"/>
<stop offset="0.56" stop-color="#255285"/>
<stop offset="0.75" stop-color="#1E2C6E"/>
<stop offset="0.91" stop-color="#191560"/>
<stop offset="1" stop-color="#180D5B"/>
</linearGradient>
<linearGradient id="paint1_linear_2691_8577" x1="256.924" y1="150.999" x2="295.763" y2="150.999" gradientUnits="userSpaceOnUse">
<stop stop-color="#2B237C"/>
<stop offset="1" stop-color="#180D5B"/>
</linearGradient>
<linearGradient id="paint2_linear_2691_8577" x1="218.085" y1="142.42" x2="295.777" y2="142.42" gradientUnits="userSpaceOnUse">
<stop stop-color="#42E8E0"/>
<stop offset="0.1" stop-color="#3CC9CD"/>
<stop offset="0.34" stop-color="#2F87A5"/>
<stop offset="0.56" stop-color="#255285"/>
<stop offset="0.75" stop-color="#1E2C6E"/>
<stop offset="0.91" stop-color="#191560"/>
<stop offset="1" stop-color="#180D5B"/>
</linearGradient>
<linearGradient id="paint3_linear_2691_8577" x1="218.085" y1="142.42" x2="257.739" y2="142.42" gradientUnits="userSpaceOnUse">
<stop stop-color="#42E8E0"/>
<stop offset="0.1" stop-color="#3CC9CD"/>
<stop offset="0.34" stop-color="#2F87A5"/>
<stop offset="0.56" stop-color="#255285"/>
<stop offset="0.75" stop-color="#1E2C6E"/>
<stop offset="0.91" stop-color="#191560"/>
<stop offset="1" stop-color="#180D5B"/>
</linearGradient>
<linearGradient id="paint4_linear_2691_8577" x1="228.643" y1="165.026" x2="293.672" y2="122.53" gradientUnits="userSpaceOnUse">
<stop stop-color="#42E8E0"/>
<stop offset="0.1" stop-color="#3CC9CD"/>
<stop offset="0.34" stop-color="#2F87A5"/>
<stop offset="0.56" stop-color="#255285"/>
<stop offset="0.75" stop-color="#1E2C6E"/>
<stop offset="0.91" stop-color="#191560"/>
<stop offset="1" stop-color="#180D5B"/>
</linearGradient>
<linearGradient id="paint5_linear_2691_8577" x1="200.912" y1="90.5128" x2="278.591" y2="90.5128" gradientUnits="userSpaceOnUse">
<stop stop-color="#42E8E0"/>
<stop offset="0.1" stop-color="#3CC9CD"/>
<stop offset="0.34" stop-color="#2F87A5"/>
<stop offset="0.56" stop-color="#255285"/>
<stop offset="0.75" stop-color="#1E2C6E"/>
<stop offset="0.91" stop-color="#191560"/>
<stop offset="1" stop-color="#180D5B"/>
</linearGradient>
<linearGradient id="paint6_linear_2691_8577" x1="256.924" y1="90.514" x2="295.763" y2="90.514" gradientUnits="userSpaceOnUse">
<stop stop-color="#2B237C"/>
<stop offset="1" stop-color="#180D5B"/>
</linearGradient>
<linearGradient id="paint7_linear_2691_8577" x1="218.085" y1="81.9341" x2="295.777" y2="81.9341" gradientUnits="userSpaceOnUse">
<stop stop-color="#42E8E0"/>
<stop offset="0.1" stop-color="#3CC9CD"/>
<stop offset="0.34" stop-color="#2F87A5"/>
<stop offset="0.56" stop-color="#255285"/>
<stop offset="0.75" stop-color="#1E2C6E"/>
<stop offset="0.91" stop-color="#191560"/>
<stop offset="1" stop-color="#180D5B"/>
</linearGradient>
<linearGradient id="paint8_linear_2691_8577" x1="218.085" y1="81.9343" x2="257.739" y2="81.9343" gradientUnits="userSpaceOnUse">
<stop stop-color="#42E8E0"/>
<stop offset="0.1" stop-color="#3CC9CD"/>
<stop offset="0.34" stop-color="#2F87A5"/>
<stop offset="0.56" stop-color="#255285"/>
<stop offset="0.75" stop-color="#1E2C6E"/>
<stop offset="0.91" stop-color="#191560"/>
<stop offset="1" stop-color="#180D5B"/>
</linearGradient>
<linearGradient id="paint9_linear_2691_8577" x1="-6.43217" y1="151.535" x2="71.2471" y2="151.535" gradientUnits="userSpaceOnUse">
<stop stop-color="white"/>
<stop offset="0.1" stop-color="#3CC9CD"/>
<stop offset="0.34" stop-color="#2F87A5"/>
<stop offset="0.56" stop-color="#255285"/>
<stop offset="0.75" stop-color="#1E2C6E"/>
<stop offset="0.91" stop-color="#191560"/>
<stop offset="1" stop-color="#180D5B"/>
</linearGradient>
<linearGradient id="paint10_linear_2691_8577" x1="49.5801" y1="151.535" x2="88.4197" y2="151.535" gradientUnits="userSpaceOnUse">
<stop stop-color="#2B237C"/>
<stop offset="1" stop-color="#180D5B"/>
</linearGradient>
<linearGradient id="paint11_linear_2691_8577" x1="10.7426" y1="142.955" x2="88.4344" y2="142.955" gradientUnits="userSpaceOnUse">
<stop stop-color="#42E8E0"/>
<stop offset="0.1" stop-color="#3CC9CD"/>
<stop offset="0.34" stop-color="#2F87A5"/>
<stop offset="0.56" stop-color="#255285"/>
<stop offset="0.75" stop-color="#1E2C6E"/>
<stop offset="0.91" stop-color="#191560"/>
<stop offset="1" stop-color="#180D5B"/>
</linearGradient>
<linearGradient id="paint12_linear_2691_8577" x1="10.7395" y1="142.956" x2="50.3932" y2="142.956" gradientUnits="userSpaceOnUse">
<stop stop-color="#42E8E0"/>
<stop offset="0.1" stop-color="#3CC9CD"/>
<stop offset="0.34" stop-color="#2F87A5"/>
<stop offset="0.56" stop-color="#255285"/>
<stop offset="0.75" stop-color="#1E2C6E"/>
<stop offset="0.91" stop-color="#191560"/>
<stop offset="1" stop-color="#180D5B"/>
</linearGradient>
<linearGradient id="paint13_linear_2691_8577" x1="-6.43217" y1="91.0537" x2="71.2471" y2="91.0537" gradientUnits="userSpaceOnUse">
<stop stop-color="white"/>
<stop offset="0.1" stop-color="#3CC9CD"/>
<stop offset="0.34" stop-color="#2F87A5"/>
<stop offset="0.56" stop-color="#255285"/>
<stop offset="0.75" stop-color="#1E2C6E"/>
<stop offset="0.91" stop-color="#191560"/>
<stop offset="1" stop-color="#180D5B"/>
</linearGradient>
<linearGradient id="paint14_linear_2691_8577" x1="49.5801" y1="91.054" x2="88.4197" y2="91.054" gradientUnits="userSpaceOnUse">
<stop stop-color="#2B237C"/>
<stop offset="1" stop-color="#180D5B"/>
</linearGradient>
<linearGradient id="paint15_linear_2691_8577" x1="10.7426" y1="82.4741" x2="88.4344" y2="82.4741" gradientUnits="userSpaceOnUse">
<stop stop-color="#42E8E0"/>
<stop offset="0.1" stop-color="#3CC9CD"/>
<stop offset="0.34" stop-color="#2F87A5"/>
<stop offset="0.56" stop-color="#255285"/>
<stop offset="0.75" stop-color="#1E2C6E"/>
<stop offset="0.91" stop-color="#191560"/>
<stop offset="1" stop-color="#180D5B"/>
</linearGradient>
<linearGradient id="paint16_linear_2691_8577" x1="10.7395" y1="82.4743" x2="50.3932" y2="82.4743" gradientUnits="userSpaceOnUse">
<stop stop-color="#42E8E0"/>
<stop offset="0.1" stop-color="#3CC9CD"/>
<stop offset="0.34" stop-color="#2F87A5"/>
<stop offset="0.56" stop-color="#255285"/>
<stop offset="0.75" stop-color="#1E2C6E"/>
<stop offset="0.91" stop-color="#191560"/>
<stop offset="1" stop-color="#180D5B"/>
</linearGradient>
<linearGradient id="paint17_linear_2691_8577" x1="97.4604" y1="91.4922" x2="175.14" y2="91.4922" gradientUnits="userSpaceOnUse">
<stop stop-color="white"/>
<stop offset="0.1" stop-color="#3CC9CD"/>
<stop offset="0.34" stop-color="#2F87A5"/>
<stop offset="0.56" stop-color="#255285"/>
<stop offset="0.75" stop-color="#1E2C6E"/>
<stop offset="0.91" stop-color="#191560"/>
<stop offset="1" stop-color="#180D5B"/>
</linearGradient>
<linearGradient id="paint18_linear_2691_8577" x1="153.473" y1="91.4915" x2="192.312" y2="91.4915" gradientUnits="userSpaceOnUse">
<stop stop-color="#2B237C"/>
<stop offset="1" stop-color="#180D5B"/>
</linearGradient>
<linearGradient id="paint19_linear_2691_8577" x1="114.635" y1="82.9122" x2="192.327" y2="82.9122" gradientUnits="userSpaceOnUse">
<stop stop-color="#42E8E0"/>
<stop offset="0.1" stop-color="#3CC9CD"/>
<stop offset="0.34" stop-color="#2F87A5"/>
<stop offset="0.56" stop-color="#255285"/>
<stop offset="0.75" stop-color="#1E2C6E"/>
<stop offset="0.91" stop-color="#191560"/>
<stop offset="1" stop-color="#180D5B"/>
</linearGradient>
<linearGradient id="paint20_linear_2691_8577" x1="114.634" y1="82.9126" x2="154.288" y2="82.9126" gradientUnits="userSpaceOnUse">
<stop stop-color="#42E8E0"/>
<stop offset="0.1" stop-color="#3CC9CD"/>
<stop offset="0.34" stop-color="#2F87A5"/>
<stop offset="0.56" stop-color="#255285"/>
<stop offset="0.75" stop-color="#1E2C6E"/>
<stop offset="0.91" stop-color="#191560"/>
<stop offset="1" stop-color="#180D5B"/>
</linearGradient>
<linearGradient id="paint21_linear_2691_8577" x1="97.4604" y1="31.0097" x2="175.14" y2="31.0097" gradientUnits="userSpaceOnUse">
<stop stop-color="white"/>
<stop offset="0.1" stop-color="#3CC9CD"/>
<stop offset="0.34" stop-color="#2F87A5"/>
<stop offset="0.56" stop-color="#255285"/>
<stop offset="0.75" stop-color="#1E2C6E"/>
<stop offset="0.91" stop-color="#191560"/>
<stop offset="1" stop-color="#180D5B"/>
</linearGradient>
<linearGradient id="paint22_linear_2691_8577" x1="153.473" y1="31.0091" x2="192.312" y2="31.0091" gradientUnits="userSpaceOnUse">
<stop stop-color="#2B237C"/>
<stop offset="1" stop-color="#180D5B"/>
</linearGradient>
<linearGradient id="paint23_linear_2691_8577" x1="114.635" y1="22.4302" x2="192.327" y2="22.4302" gradientUnits="userSpaceOnUse">
<stop stop-color="#42E8E0"/>
<stop offset="0.1" stop-color="#3CC9CD"/>
<stop offset="0.34" stop-color="#2F87A5"/>
<stop offset="0.56" stop-color="#255285"/>
<stop offset="0.75" stop-color="#1E2C6E"/>
<stop offset="0.91" stop-color="#191560"/>
<stop offset="1" stop-color="#180D5B"/>
</linearGradient>
<linearGradient id="paint24_linear_2691_8577" x1="114.634" y1="22.4302" x2="154.288" y2="22.4302" gradientUnits="userSpaceOnUse">
<stop stop-color="#42E8E0"/>
<stop offset="0.1" stop-color="#3CC9CD"/>
<stop offset="0.34" stop-color="#2F87A5"/>
<stop offset="0.56" stop-color="#255285"/>
<stop offset="0.75" stop-color="#1E2C6E"/>
<stop offset="0.91" stop-color="#191560"/>
<stop offset="1" stop-color="#180D5B"/>
</linearGradient>
<linearGradient id="paint25_linear_2691_8577" x1="97.0229" y1="211.057" x2="174.702" y2="211.057" gradientUnits="userSpaceOnUse">
<stop stop-color="#42E8E0"/>
<stop offset="0.1" stop-color="#3CC9CD"/>
<stop offset="0.34" stop-color="#2F87A5"/>
<stop offset="0.56" stop-color="#255285"/>
<stop offset="0.75" stop-color="#1E2C6E"/>
<stop offset="0.91" stop-color="#191560"/>
<stop offset="1" stop-color="#180D5B"/>
</linearGradient>
<linearGradient id="paint26_linear_2691_8577" x1="153.035" y1="211.044" x2="191.875" y2="211.044" gradientUnits="userSpaceOnUse">
<stop stop-color="#2B237C"/>
<stop offset="1" stop-color="#180D5B"/>
</linearGradient>
<linearGradient id="paint27_linear_2691_8577" x1="114.197" y1="202.465" x2="191.888" y2="202.465" gradientUnits="userSpaceOnUse">
<stop stop-color="#42E8E0"/>
<stop offset="0.1" stop-color="#3CC9CD"/>
<stop offset="0.34" stop-color="#2F87A5"/>
<stop offset="0.56" stop-color="#255285"/>
<stop offset="0.75" stop-color="#1E2C6E"/>
<stop offset="0.91" stop-color="#191560"/>
<stop offset="1" stop-color="#180D5B"/>
</linearGradient>
<linearGradient id="paint28_linear_2691_8577" x1="114.197" y1="202.478" x2="153.85" y2="202.478" gradientUnits="userSpaceOnUse">
<stop stop-color="#42E8E0"/>
<stop offset="0.1" stop-color="#3CC9CD"/>
<stop offset="0.34" stop-color="#2F87A5"/>
<stop offset="0.56" stop-color="#255285"/>
<stop offset="0.75" stop-color="#1E2C6E"/>
<stop offset="0.91" stop-color="#191560"/>
<stop offset="1" stop-color="#180D5B"/>
</linearGradient>
<linearGradient id="paint29_linear_2691_8577" x1="97.0229" y1="150.56" x2="174.702" y2="150.56" gradientUnits="userSpaceOnUse">
<stop stop-color="white"/>
<stop offset="0.1" stop-color="#3CC9CD"/>
<stop offset="0.34" stop-color="#2F87A5"/>
<stop offset="0.56" stop-color="#255285"/>
<stop offset="0.75" stop-color="#1E2C6E"/>
<stop offset="0.91" stop-color="#191560"/>
<stop offset="1" stop-color="#180D5B"/>
</linearGradient>
<linearGradient id="paint30_linear_2691_8577" x1="153.035" y1="150.56" x2="191.875" y2="150.56" gradientUnits="userSpaceOnUse">
<stop stop-color="#2B237C"/>
<stop offset="1" stop-color="#180D5B"/>
</linearGradient>
<linearGradient id="paint31_linear_2691_8577" x1="114.197" y1="141.981" x2="191.888" y2="141.981" gradientUnits="userSpaceOnUse">
<stop stop-color="#42E8E0"/>
<stop offset="0.1" stop-color="#3CC9CD"/>
<stop offset="0.34" stop-color="#2F87A5"/>
<stop offset="0.56" stop-color="#255285"/>
<stop offset="0.75" stop-color="#1E2C6E"/>
<stop offset="0.91" stop-color="#191560"/>
<stop offset="1" stop-color="#180D5B"/>
</linearGradient>
<linearGradient id="paint32_linear_2691_8577" x1="114.197" y1="141.981" x2="153.85" y2="141.981" gradientUnits="userSpaceOnUse">
<stop stop-color="#42E8E0"/>
<stop offset="0.1" stop-color="#3CC9CD"/>
<stop offset="0.34" stop-color="#2F87A5"/>
<stop offset="0.56" stop-color="#255285"/>
<stop offset="0.75" stop-color="#1E2C6E"/>
<stop offset="0.91" stop-color="#191560"/>
<stop offset="1" stop-color="#180D5B"/>
</linearGradient>
</defs>
</svg>
