<svg width="56" height="56" viewBox="0 0 56 56" fill="none" xmlns="http://www.w3.org/2000/svg">
<path d="M3.21875 21.5246L4.15968 12.5802C4.28046 11.4321 4.82122 10.3692 5.67796 9.59602L5.67796 9.59602C6.10675 9.20903 6.79242 9.49193 6.82398 10.0689L7.45074 21.5246H3.21875Z" fill="white"/>
<g opacity="0.35">
<path d="M6.79839 9.56555C6.7587 8.84011 5.67991 8.86963 5.67991 9.59616V9.59618C5.61769 9.65233 5.55766 9.71044 5.49881 9.76958L5.85441 16.2692C5.92795 17.6133 4.85855 18.7436 3.51329 18.7436H3.51328L3.2207 21.5248H7.45269L6.79839 9.56555Z" fill="#1F1E1C"/>
</g>
<path d="M7.45385 22.1111H3.22186C3.05605 22.1111 2.89789 22.0407 2.78699 21.9173C2.67595 21.794 2.62251 21.6293 2.63997 21.4643L3.58102 12.5199C3.71703 11.2261 4.32363 10.0337 5.28925 9.16217C5.6566 8.83074 6.16908 8.742 6.62611 8.93062C7.08341 9.11931 7.3843 9.54351 7.41142 10.0378L8.03816 21.4936C8.04689 21.6542 7.98929 21.8113 7.87879 21.9282C7.76829 22.045 7.61456 22.1111 7.45385 22.1111ZM3.87183 20.94H6.83583L6.24279 10.1018C6.24198 10.0859 6.2393 10.0377 6.17995 10.0133C6.12074 9.9888 6.0849 10.0211 6.07308 10.0317C5.32228 10.7094 4.85061 11.6365 4.74481 12.6425L3.87183 20.94Z" fill="#1F1E1C"/>
<path d="M8.2846 35.7958C7.49812 35.9154 6.72299 35.9598 5.9997 35.9583C3.65456 35.9535 1.72279 34.126 1.53284 31.7871C1.26625 28.5044 1.36295 25.721 1.53273 23.7272C1.71295 21.6109 3.34282 19.9071 5.44751 19.6313C6.05969 19.5511 6.62525 19.4995 7.09936 19.4664C7.87791 19.412 8.5526 19.9992 8.6095 20.7781L9.5872 34.1612C9.64573 34.9625 9.07836 35.6751 8.2846 35.7958Z" fill="white"/>
<g opacity="0.35">
<path d="M9.58864 34.1607L9.29964 30.2047C9.2856 30.9463 8.73973 31.5831 7.99346 31.6966C7.20699 31.8161 6.43186 31.8605 5.70857 31.859C3.63263 31.8548 1.88164 30.4219 1.375 28.4707C1.39068 29.5037 1.43894 30.6125 1.53429 31.7865C1.72424 34.1254 3.656 35.9529 6.00115 35.9577C6.72444 35.9592 7.49957 35.9148 8.28604 35.7952C9.0798 35.6746 9.64718 34.9619 9.58864 34.1607Z" fill="#1F1E1C"/>
</g>
<path d="M6.03252 36.5441H5.9968C3.37974 36.5388 1.16198 34.4702 0.947965 31.8348C0.723074 29.0654 0.723074 26.321 0.947965 23.6778C1.1499 21.3061 3.00958 19.3603 5.36993 19.051C5.91893 18.9791 6.4866 18.9225 7.05708 18.8826C8.15428 18.8081 9.11118 19.6372 9.19147 20.7357L10.1692 34.1189C10.2495 35.2185 9.45959 36.2095 8.37071 36.375C7.6328 36.4872 6.84615 36.5441 6.03252 36.5441ZM7.19658 20.0488C7.17738 20.0488 7.15805 20.0494 7.13858 20.0508C6.59145 20.089 6.04755 20.1433 5.52191 20.2122C3.70291 20.4505 2.26965 21.9498 2.11418 23.7772C1.89466 26.356 1.89479 29.0351 2.11445 31.74C2.27959 33.7731 3.98594 35.3689 5.99922 35.3731C6.01023 35.3731 6.02151 35.3731 6.03265 35.3731C6.78761 35.3731 7.51492 35.3207 8.19496 35.2172C8.68355 35.143 9.038 34.698 9.00189 34.2043L8.02418 20.8211C7.99223 20.3841 7.62689 20.0488 7.19658 20.0488Z" fill="#1F1E1C"/>
<path d="M52.8066 22.219L51.8657 13.2746C51.7449 12.1265 51.2042 11.0636 50.3474 10.2904L50.3474 10.2904C49.9186 9.90336 49.233 10.1863 49.2014 10.7632L48.5747 22.219H52.8066Z" fill="white"/>
<g opacity="0.35">
<path d="M49.2289 10.2599C49.2686 9.53444 50.3474 9.56397 50.3474 10.2905V10.2905C50.4097 10.3467 50.4697 10.4048 50.5285 10.4639L50.1729 16.9636C50.0994 18.3077 51.1688 19.4379 52.5141 19.4379H52.5141L52.8066 22.2191H48.5746L49.2289 10.2599Z" fill="#1F1E1C"/>
</g>
<path d="M48.5715 22.8055H52.8035C52.9693 22.8055 53.1275 22.735 53.2384 22.6117C53.3494 22.4883 53.4029 22.3236 53.3854 22.1586L52.4444 13.2142C52.3084 11.9205 51.7018 10.728 50.7361 9.8565C50.3688 9.52507 49.8563 9.43634 49.3993 9.62496C48.942 9.81365 48.6411 10.2378 48.614 10.7322L47.9872 22.188C47.9785 22.3485 48.0361 22.5057 48.1466 22.6225C48.2571 22.7393 48.4108 22.8055 48.5715 22.8055ZM52.1536 21.6344H49.1896L49.7826 10.7961C49.7834 10.7803 49.7861 10.732 49.8454 10.7076C49.9046 10.6831 49.9405 10.7154 49.9523 10.7261C50.7031 11.4037 51.1748 12.3308 51.2806 13.3368L52.1536 21.6344Z" fill="#1F1E1C"/>
<path d="M47.7369 36.4902C48.5234 36.6097 49.2985 36.6541 50.0218 36.6526C52.3669 36.6478 54.2987 34.8203 54.4886 32.4814C54.7552 29.1987 54.6585 26.4153 54.4888 24.4216C54.3085 22.3053 52.6787 20.6014 50.574 20.3256C49.9618 20.2454 49.3962 20.1939 48.9221 20.1607C48.1436 20.1063 47.4689 20.6936 47.412 21.4724L46.4343 34.8556C46.3757 35.6568 46.9431 36.3695 47.7369 36.4902Z" fill="white"/>
<g opacity="0.35">
<path d="M46.4348 34.855L46.7238 30.899C46.7378 31.6407 47.2837 32.2774 48.03 32.3909C48.8165 32.5105 49.5916 32.5548 50.3149 32.5534C52.3908 32.5491 54.1418 31.1162 54.6484 29.165C54.6328 30.1981 54.5845 31.3068 54.4891 32.4809C54.2992 34.8198 52.3674 36.6472 50.0223 36.652C49.299 36.6535 48.5239 36.6092 47.7374 36.4896C46.9436 36.3689 46.3763 35.6562 46.4348 34.855Z" fill="#1F1E1C"/>
</g>
<path d="M49.9909 37.2385H50.0266C52.6437 37.2331 54.8615 35.1646 55.0755 32.5292C55.3004 29.7598 55.3004 27.0153 55.0755 24.3721C54.8735 22.0005 53.0139 20.0546 50.6535 19.7454C50.1045 19.6734 49.5368 19.6168 48.9664 19.5769C47.8692 19.5024 46.9123 20.3315 46.832 21.43L45.8543 34.8133C45.774 35.9128 46.5638 36.9038 47.6527 37.0693C48.3906 37.1816 49.1773 37.2385 49.9909 37.2385ZM48.8269 20.7431C48.8461 20.7431 48.8654 20.7438 48.8849 20.7451C49.432 20.7833 49.9759 20.8376 50.5015 20.9065C52.3205 21.1449 53.7538 22.6442 53.9093 24.4716C54.1288 27.0503 54.1286 29.7294 53.909 32.4343C53.7438 34.4675 52.0375 36.0633 50.0242 36.0674C50.0132 36.0675 50.0019 36.0674 49.9908 36.0674C49.2358 36.0674 48.5085 36.0151 47.8285 35.9115C47.3399 35.8373 46.9854 35.3924 47.0216 34.8986L47.9993 21.5154C48.0312 21.0784 48.3965 20.7431 48.8269 20.7431Z" fill="#1F1E1C"/>
<path fill-rule="evenodd" clip-rule="evenodd" d="M25.9423 14.3439C25.8199 14.3544 25.2524 14.3974 24.6812 14.4394C23.4546 14.5296 21.3734 14.7269 20.502 14.8356C16.3737 15.3507 12.4175 16.6316 9.68059 18.3393C8.54583 19.0473 8.15294 19.3353 7.71722 19.7785C7.02204 20.4856 6.75285 21.1038 6.41367 22.772C5.4487 27.5185 5.43085 31.2908 6.3562 34.9185C6.46258 35.3355 6.65334 35.9396 6.7801 36.261C6.90691 36.5824 7.07462 37.0319 7.15281 37.2599C7.34386 37.8173 7.69862 38.4709 8.31036 39.3929C9.3328 40.9339 10.343 42.07 11.7233 43.2312C14.5935 45.6459 18.6289 47.3022 23.692 48.1438C26.8797 48.6736 29.2604 48.6749 32.3983 48.1488C35.2262 47.6747 37.7536 46.8756 40.2108 45.6789C42.1605 44.7293 43.5476 43.8157 44.9053 42.587C45.6161 41.9436 46.2143 41.2347 47.5041 39.5067C47.7768 39.1414 48.4268 37.9337 48.5733 37.5202C48.6469 37.3122 48.8069 36.9086 48.9289 36.6233C49.7147 34.7845 50.0584 32.8738 50.1124 30.0434C50.162 27.4478 49.9085 24.8904 49.3547 22.401C48.9416 20.5438 48.7263 20.1943 47.3651 19.1718C45.4589 17.7398 43.0947 16.6141 40.3874 15.8495C37.1228 14.9274 32.5902 14.368 28.1432 14.3381C27.0551 14.3308 26.0647 14.3334 25.9423 14.3439Z" fill="#1F1E1C"/>
<path d="M31.6442 16.2504C30.4136 16.1617 29.209 16.0887 28.9674 16.0884C27.1864 16.0858 27.9379 16.0872 26.8099 16.0881C25.8353 16.089 21.9474 16.4221 20.2764 16.6481C16.5836 17.1474 12.9129 18.3426 10.6016 19.7983C8.42544 21.1689 8.42975 21.1631 7.99267 23.3054C7.45699 25.9304 7.21152 28.7201 7.34033 30.717C7.46082 32.5848 7.9059 34.8286 8.35816 35.8469C8.52276 36.2176 8.70415 36.7066 8.7612 36.9335C8.81825 37.1604 9.27115 37.9475 9.76768 38.6826C12.4275 42.6209 16.5128 45.0507 22.535 46.276C25.9521 46.9714 28.1931 47.0822 31.1166 46.7006C37.1285 45.9159 42.7323 43.2045 45.1673 39.9021C45.6357 39.2669 46.0609 38.7114 46.1124 38.6677C46.2645 38.5383 47.0835 37.144 47.0835 36.9909C47.0835 36.9134 47.2082 36.4528 47.3822 36.082C48.6455 33.3908 48.8405 28.3278 47.8697 23.4264C47.6916 22.528 47.4751 21.661 47.3885 21.4999C47.1318 21.0226 45.3272 19.7579 43.8696 19.0338C40.7887 17.5034 36.9722 16.6344 31.6442 16.2504Z" fill="white"/>
<path d="M10.5192 30.9052C10.2569 29.3886 10.3597 23.5493 10.3597 23.5493C10.3597 23.5493 10.2933 21.011 10.7379 19.5179C10.7601 19.5038 10.8421 19.4594 10.8648 19.4449C13.1722 17.9757 16.7994 16.9238 20.4862 16.4199C22.1543 16.1919 26.0357 15.8556 27.0088 15.8547C27.3742 15.8544 27.5421 15.8541 27.6628 15.8538C27.9142 15.8533 27.9616 15.8532 29.1626 15.855C29.4038 15.8553 30.6065 15.929 31.835 16.0185C37.1541 16.4061 40.9642 17.2832 44.04 18.8277C44.3965 19.0067 44.7737 19.3379 45.1438 19.5627C45.6184 21.5109 45.9174 23.6577 45.9174 27.1054C45.917 29.8587 45.6854 30.8589 45.377 32.1176C43.9015 38.1415 40.1221 41.6871 33.1071 43.6289C30.6373 44.3125 27.2812 44.4246 24.5964 43.9133C20.0133 43.0403 16.2325 41.1626 14.0384 38.6697C12.1691 36.546 11.0781 34.1392 10.5192 30.9052Z" fill="#1F1E1C"/>
<rect x="39.2129" y="33.6318" width="7.90153" height="10.1558" rx="3.95077" transform="rotate(180 39.2129 33.6318)" fill="white"/>
<rect x="24.5645" y="33.6318" width="7.90153" height="10.1558" rx="3.95077" transform="rotate(180 24.5645 33.6318)" fill="white"/>
<path d="M11.9883 20.2537C16.7607 17.1572 32.1284 13.5901 44.0357 20.2537C34.5301 17.5363 26.3586 16.8082 11.9883 20.2537Z" fill="#767676" fill-opacity="0.76"/>
<path d="M43.8999 35.7455C34.9375 49.8764 14.9758 43.6265 11.9883 35.7453C18.8999 39.8966 23.8842 41.5982 28.8268 41.0505C33.4522 41.0631 37.8229 39.3263 43.8999 35.7455Z" fill="#262626"/>
<path d="M48.4858 30.0704C48.4706 31.1471 48.381 32.7431 48.0136 34.6706C47.9719 34.8889 47.8944 35.2956 47.8049 35.6611C47.0731 38.6483 45.052 40.8737 44.3014 41.6369C43.8375 42.1085 42.3718 43.5337 39.3481 44.9605C37.2174 45.966 33.4016 47.4023 28.1018 47.5027C23.222 47.5028 19.6193 46.245 17.5803 45.3457C15.8762 44.5942 13.9333 43.715 11.99 41.769C11.338 41.116 9.11047 38.7652 8.05819 35.0448C7.18755 31.9665 7.35739 29.1685 7.36753 29.168C7.37401 29.1676 7.46484 30.2994 7.69027 31.8147C7.74147 32.1589 8.16363 34.8908 9.2663 37.1138C10.8677 40.342 13.682 42.0487 15.4166 43.1006C20.3834 46.1125 25.4519 46.3855 28.1347 46.3141C33.2449 46.1665 36.9658 44.8521 39.1175 43.893C42.0088 42.6043 43.4204 41.3538 43.9719 40.8335C44.8026 40.0499 46.5618 38.3537 47.5084 35.6611C48.397 33.1331 48.4548 30.0527 48.4842 30.0565C48.4856 30.0567 48.4858 30.0642 48.4858 30.0704Z" fill="#B1B0B0"/>
</svg>
