<svg width="230" height="291" viewBox="0 0 230 291" fill="none" xmlns="http://www.w3.org/2000/svg">
<path d="M135.401 179.143C135.401 169.309 127.431 161.328 117.597 161.328C107.763 161.328 99.7812 169.298 99.7812 179.143C99.7812 186.915 104.768 193.51 111.713 195.934L108.765 233.056H126.114L123.434 195.957C130.402 193.545 135.412 186.939 135.412 179.143H135.401Z" fill="#520000"/>
<path d="M11.5058 122.912C11.1912 123.087 10.9698 123.413 10.9698 123.797C10.9698 124.357 11.4242 124.811 11.9835 124.811C12.5427 124.811 12.9971 124.357 12.9971 123.797C12.9971 123.378 12.7525 123.028 12.3913 122.865V119.16H2.54559C2.77862 113.229 7.68398 108.464 13.673 108.464H39.1204V84.892C39.1204 84.4376 39.1203 83.9832 39.132 83.5405C39.5747 83.4239 39.901 83.0511 39.901 82.5734C39.901 82.4102 39.8544 82.2588 39.7844 82.1189L50.9934 70.9099C51.3779 70.8866 51.6809 70.5837 51.6809 70.1875C51.6809 69.7914 51.3546 69.4651 50.9585 69.4651C50.5623 69.4651 50.2361 69.7914 50.2361 70.1875C50.2361 70.2458 50.2593 70.304 50.271 70.3623L39.0504 81.5829C38.9921 81.5829 38.9339 81.548 38.8756 81.548C38.3164 81.548 37.862 82.0024 37.862 82.5617C37.862 82.8763 38.0134 83.1443 38.2348 83.3307C38.2348 83.8434 38.2232 84.3677 38.2232 84.892V107.578H13.6613C7.03147 107.578 1.63672 112.973 1.63672 119.603V120.045H11.4824V122.912H11.5058Z" fill="#FF2B2B"/>
<path d="M130.329 137.302C130.329 136.906 130.003 136.58 129.606 136.58C129.373 136.58 129.187 136.696 129.047 136.859H115.461L110.369 134.319C110.416 134.133 110.451 133.946 110.451 133.748C110.451 132.525 109.449 131.523 108.226 131.523C107.002 131.523 106 132.525 106 133.748C106 134.972 107.002 135.974 108.226 135.974C108.936 135.974 109.565 135.636 109.973 135.111L115.251 137.745H129.047C129.047 137.745 129.117 137.826 129.152 137.861V147.439C128.989 147.567 128.872 147.765 128.872 147.998C128.872 148.394 129.199 148.721 129.595 148.721C129.991 148.721 130.317 148.394 130.317 147.998C130.317 147.765 130.201 147.579 130.038 147.439V137.861C130.201 137.733 130.317 137.535 130.317 137.302H130.329ZM109.554 133.911L108.925 133.597C108.855 133.27 108.575 133.026 108.226 133.026C107.829 133.026 107.503 133.352 107.503 133.748C107.503 134.144 107.829 134.471 108.226 134.471C108.342 134.471 108.435 134.447 108.528 134.401L109.146 134.715C108.901 134.948 108.575 135.088 108.226 135.088C107.491 135.088 106.886 134.494 106.886 133.748C106.886 133.002 107.48 132.408 108.226 132.408C108.971 132.408 109.565 133.002 109.565 133.748C109.565 133.806 109.565 133.853 109.554 133.911Z" fill="#FF2B2B"/>
<path d="M222.962 114.511C222.962 114.115 222.636 113.788 222.24 113.788C221.844 113.788 221.518 114.115 221.518 114.511C221.518 114.907 221.844 115.233 222.24 115.233C222.636 115.233 222.962 114.907 222.962 114.511Z" fill="#FF2B2B"/>
<path d="M219.398 114.511C219.398 114.115 219.072 113.788 218.676 113.788C218.279 113.788 217.953 114.115 217.953 114.511C217.953 114.907 218.279 115.233 218.676 115.233C219.072 115.233 219.398 114.907 219.398 114.511Z" fill="#FF2B2B"/>
<path d="M215.996 114.511C215.996 114.115 215.669 113.788 215.273 113.788C214.877 113.788 214.551 114.115 214.551 114.511C214.551 114.907 214.877 115.233 215.273 115.233C215.669 115.233 215.996 114.907 215.996 114.511Z" fill="#FF2B2B"/>
<path d="M157.84 208.331V280.315H161.86L169.165 273.126V205.896H214.164C214.292 206.059 214.491 206.175 214.724 206.175C215.12 206.175 215.446 205.849 215.446 205.453C215.446 205.057 215.12 204.73 214.724 204.73C214.491 204.73 214.304 204.847 214.164 205.01H168.28V272.765L161.499 279.442H158.737V208.715L165.332 202.12H221.68C221.808 202.284 222.006 202.4 222.239 202.4C222.635 202.4 222.961 202.074 222.961 201.678C222.961 201.282 222.635 200.955 222.239 200.955C222.006 200.955 221.808 201.072 221.68 201.235H164.959L157.84 208.354V208.331Z" fill="#FF2B2B"/>
<path d="M223.884 190.783H222.998V193.685H223.884V190.783Z" fill="#FF2B2B"/>
<path d="M218.721 190.783H217.836V193.685H218.721V190.783Z" fill="#FF2B2B"/>
<path d="M213.559 190.783H212.674V193.685H213.559V190.783Z" fill="#FF2B2B"/>
<path d="M208.384 190.783H207.498V193.685H208.384V190.783Z" fill="#FF2B2B"/>
<path d="M203.223 190.783H202.338V193.685H203.223V190.783Z" fill="#FF2B2B"/>
<path d="M198.061 190.783H197.176V193.685H198.061V190.783Z" fill="#FF2B2B"/>
<path d="M192.901 190.783H192.016V193.685H192.901V190.783Z" fill="#FF2B2B"/>
<path d="M187.737 190.783H186.852V193.685H187.737V190.783Z" fill="#FF2B2B"/>
<path d="M182.567 190.783H181.682V193.685H182.567V190.783Z" fill="#FF2B2B"/>
<path d="M177.403 190.783H176.518V193.685H177.403V190.783Z" fill="#FF2B2B"/>
<path d="M172.241 190.783H171.355V193.685H172.241V190.783Z" fill="#FF2B2B"/>
<path d="M167.079 190.783H166.193V193.685H167.079V190.783Z" fill="#FF2B2B"/>
<path d="M16.1685 133.293C16.0403 133.13 15.8422 133.014 15.6091 133.014C15.213 133.014 14.8867 133.34 14.8867 133.736C14.8867 134.132 15.213 134.459 15.6091 134.459C15.8422 134.459 16.0286 134.342 16.1685 134.179H75.7321V168.808C75.5689 168.936 75.4524 169.134 75.4524 169.367C75.4524 169.763 75.7787 170.09 76.1748 170.09C76.571 170.09 76.8972 169.763 76.8972 169.367C76.8972 169.134 76.7807 168.948 76.6176 168.808V133.293H16.1685Z" fill="#FF2B2B"/>
<path d="M120.392 6.88339C120.392 5.65996 119.39 4.65791 118.167 4.65791C116.943 4.65791 115.941 5.65996 115.941 6.88339C115.941 8.10683 116.943 9.10888 118.167 9.10888C119.39 9.10888 120.392 8.10683 120.392 6.88339ZM116.839 6.88339C116.839 6.14933 117.433 5.54344 118.179 5.54344C118.924 5.54344 119.518 6.13768 119.518 6.88339C119.518 7.62911 118.924 8.22335 118.179 8.22335C117.433 8.22335 116.839 7.62911 116.839 6.88339Z" fill="#FF2B2B"/>
<path d="M136.426 6.88339C136.426 5.65996 135.424 4.65791 134.2 4.65791C132.977 4.65791 131.975 5.65996 131.975 6.88339C131.975 8.10683 132.977 9.10888 134.2 9.10888C135.424 9.10888 136.426 8.10683 136.426 6.88339ZM132.872 6.88339C132.872 6.14933 133.466 5.54344 134.212 5.54344C134.958 5.54344 135.552 6.13768 135.552 6.88339C135.552 7.62911 134.958 8.22335 134.212 8.22335C133.466 8.22335 132.872 7.62911 132.872 6.88339Z" fill="#FF2B2B"/>
<path d="M125.742 6.88339C125.742 5.65996 124.74 4.65791 123.517 4.65791C122.293 4.65791 121.291 5.65996 121.291 6.88339C121.291 8.10683 122.293 9.10888 123.517 9.10888C124.74 9.10888 125.742 8.10683 125.742 6.88339ZM122.177 6.88339C122.177 6.14933 122.771 5.54344 123.517 5.54344C124.262 5.54344 124.856 6.13768 124.856 6.88339C124.856 7.62911 124.262 8.22335 123.517 8.22335C122.771 8.22335 122.177 7.62911 122.177 6.88339Z" fill="#FF2B2B"/>
<path d="M131.09 6.88339C131.09 5.65996 130.088 4.65791 128.864 4.65791C127.641 4.65791 126.639 5.65996 126.639 6.88339C126.639 8.10683 127.641 9.10888 128.864 9.10888C130.088 9.10888 131.09 8.10683 131.09 6.88339ZM127.524 6.88339C127.524 6.14933 128.118 5.54344 128.864 5.54344C129.61 5.54344 130.204 6.13768 130.204 6.88339C130.204 7.62911 129.61 8.22335 128.864 8.22335C128.118 8.22335 127.524 7.62911 127.524 6.88339Z" fill="#FF2B2B"/>
<path d="M163.458 243.741C162.234 243.741 161.232 244.743 161.232 245.966C161.232 247.19 162.234 248.192 163.458 248.192C164.681 248.192 165.683 247.19 165.683 245.966C165.683 244.743 164.681 243.741 163.458 243.741ZM163.458 247.306C162.724 247.306 162.118 246.712 162.118 245.966C162.118 245.221 162.712 244.626 163.458 244.626C164.204 244.626 164.798 245.232 164.798 245.966C164.798 246.7 164.204 247.306 163.458 247.306Z" fill="#FF2B2B"/>
<path d="M163.458 259.773C162.234 259.773 161.232 260.775 161.232 261.999C161.232 263.222 162.234 264.224 163.458 264.224C164.681 264.224 165.683 263.222 165.683 261.999C165.683 260.775 164.681 259.773 163.458 259.773ZM163.458 263.327C162.724 263.327 162.118 262.733 162.118 261.987C162.118 261.241 162.712 260.659 163.458 260.659C164.204 260.659 164.798 261.253 164.798 261.987C164.798 262.721 164.204 263.327 163.458 263.327Z" fill="#FF2B2B"/>
<path d="M163.458 249.077C162.234 249.077 161.232 250.079 161.232 251.302C161.232 252.526 162.234 253.528 163.458 253.528C164.681 253.528 165.683 252.526 165.683 251.302C165.683 250.079 164.681 249.077 163.458 249.077ZM163.458 252.642C162.724 252.642 162.118 252.048 162.118 251.314C162.118 250.58 162.712 249.974 163.458 249.974C164.204 249.974 164.798 250.568 164.798 251.314C164.798 252.06 164.204 252.642 163.458 252.642Z" fill="#FF2B2B"/>
<path d="M163.458 254.425C162.234 254.425 161.232 255.427 161.232 256.651C161.232 257.874 162.234 258.876 163.458 258.876C164.681 258.876 165.683 257.874 165.683 256.651C165.683 255.427 164.681 254.425 163.458 254.425ZM163.458 257.991C162.724 257.991 162.118 257.397 162.118 256.663C162.118 255.928 162.712 255.323 163.458 255.323C164.204 255.323 164.798 255.928 164.798 256.663C164.798 257.397 164.204 257.991 163.458 257.991Z" fill="#FF2B2B"/>
<path d="M134.214 276.016L138.048 272.183V247.621C138.211 247.493 138.327 247.295 138.327 247.062C138.327 246.665 138.001 246.339 137.605 246.339C137.209 246.339 136.883 246.665 136.883 247.062C136.883 247.295 136.999 247.481 137.162 247.621V267.58L134.366 264.784V259.68C135.345 259.447 136.079 258.573 136.079 257.513C136.079 256.29 135.077 255.288 133.853 255.288C132.63 255.288 131.628 256.29 131.628 257.513C131.628 258.608 132.432 259.517 133.469 259.704V265.145L137.151 268.839V271.81L133.842 275.131H120.174V252.806C121.188 252.596 121.957 251.699 121.957 250.627C121.957 249.404 120.955 248.402 119.731 248.402C118.508 248.402 117.506 249.404 117.506 250.627C117.506 251.699 118.275 252.596 119.289 252.806V276.016H134.214ZM133.48 258.131V258.807C132.933 258.643 132.525 258.142 132.525 257.536C132.525 256.802 133.131 256.197 133.865 256.197C134.599 256.197 135.205 256.791 135.205 257.536C135.205 258.096 134.867 258.573 134.378 258.772V258.049C134.506 257.921 134.587 257.735 134.587 257.536C134.587 257.14 134.261 256.814 133.865 256.814C133.469 256.814 133.142 257.14 133.142 257.536C133.142 257.793 133.282 258.014 133.48 258.142V258.131ZM118.403 250.627C118.403 249.893 118.997 249.287 119.743 249.287C120.489 249.287 121.083 249.881 121.083 250.627C121.083 251.21 120.71 251.699 120.197 251.885V251.186C120.361 251.058 120.477 250.86 120.477 250.627C120.477 250.231 120.151 249.905 119.755 249.905C119.358 249.905 119.032 250.231 119.032 250.627C119.032 250.86 119.137 251.058 119.312 251.186V251.885C118.788 251.699 118.426 251.21 118.426 250.627H118.403Z" fill="#FF2B2B"/>
<path d="M125.484 257.525C125.484 256.301 124.482 255.299 123.259 255.299C122.035 255.299 121.033 256.301 121.033 257.525C121.033 258.597 121.791 259.494 122.816 259.704V272.439H129.923C130.052 272.602 130.25 272.719 130.483 272.719C130.879 272.719 131.205 272.392 131.205 271.996C131.205 271.6 130.879 271.274 130.483 271.274C130.261 271.274 130.063 271.39 129.923 271.553H123.69V259.704C124.715 259.494 125.484 258.597 125.484 257.525ZM123.259 256.802C122.862 256.802 122.536 257.129 122.536 257.525C122.536 257.758 122.653 257.944 122.816 258.084V258.783C122.303 258.597 121.93 258.107 121.93 257.525C121.93 256.791 122.525 256.185 123.27 256.185C124.016 256.185 124.61 256.779 124.61 257.525C124.61 258.107 124.237 258.597 123.713 258.783V258.084C123.876 257.956 123.993 257.758 123.993 257.525C123.993 257.129 123.666 256.802 123.27 256.802H123.259Z" fill="#FF2B2B"/>
<path d="M19.0897 138.024C19.3227 138.024 19.5091 137.908 19.6489 137.745H72.1632V174.972C71.1495 175.182 70.3805 176.079 70.3805 177.151C70.3805 178.374 71.3826 179.376 72.606 179.376C73.8294 179.376 74.8315 178.374 74.8315 177.151C74.8315 176.079 74.0625 175.17 73.0488 174.972V136.859H19.6489C19.5208 136.696 19.3227 136.579 19.0897 136.579C18.6935 136.579 18.3672 136.906 18.3672 137.302C18.3672 137.698 18.6935 138.024 19.0897 138.024ZM73.0488 176.603V175.904C73.5615 176.09 73.9343 176.58 73.9343 177.162C73.9343 177.896 73.3401 178.502 72.5944 178.502C71.8486 178.502 71.2544 177.908 71.2544 177.162C71.2544 176.58 71.6272 176.09 72.1399 175.904V176.603C71.9768 176.731 71.8603 176.929 71.8603 177.162C71.8603 177.559 72.1865 177.885 72.5827 177.885C72.9788 177.885 73.3051 177.559 73.3051 177.162C73.3051 176.929 73.1886 176.743 73.0255 176.603H73.0488Z" fill="#FF2B2B"/>
<path d="M9.37299 208.785C9.37299 209.182 9.69923 209.508 10.0954 209.508C10.3284 209.508 10.5148 209.391 10.6547 209.228H35.0301V214.437C34.0164 214.646 33.2474 215.543 33.2474 216.615C33.2474 217.839 34.2494 218.841 35.4729 218.841C36.6963 218.841 37.6983 217.839 37.6983 216.615C37.6983 215.543 36.9294 214.646 35.9157 214.437V208.343H10.6431C10.5149 208.18 10.3168 208.063 10.0837 208.063C9.68757 208.063 9.36133 208.389 9.36133 208.785H9.37299ZM35.4729 217.338C35.869 217.338 36.1953 217.012 36.1953 216.615C36.1953 216.359 36.0554 216.149 35.8573 216.021H35.9157V215.357C36.4283 215.543 36.8011 216.033 36.8011 216.615C36.8011 217.349 36.2069 217.955 35.4612 217.955C34.7155 217.955 34.1212 217.361 34.1212 216.615C34.1212 216.033 34.4941 215.543 35.0068 215.357V216.021H35.065C34.8669 216.149 34.7272 216.359 34.7272 216.615C34.7272 217.012 35.0534 217.338 35.4496 217.338H35.4729Z" fill="#FF2B2B"/>
<path d="M226.249 134.191V133.562L225.992 133.305L218.862 126.174H182.869L180.714 128.33C180.364 128.097 179.945 127.957 179.49 127.957C178.418 127.957 177.521 128.726 177.312 129.74H169.377C169.249 129.577 169.051 129.46 168.817 129.46C168.783 129.46 168.759 129.472 168.724 129.483L165.415 126.174H111.899L106.819 123.634C106.865 123.448 106.9 123.261 106.9 123.075C106.9 121.852 105.898 120.849 104.675 120.849C103.451 120.849 102.449 121.852 102.449 123.075C102.449 124.298 103.451 125.3 104.675 125.3C105.385 125.3 106.015 124.951 106.422 124.438L111.689 127.072H165.042L168.095 130.124C168.095 130.124 168.083 130.171 168.083 130.183C168.083 130.579 168.41 130.905 168.806 130.905C169.039 130.905 169.225 130.788 169.365 130.625H177.3C177.51 131.639 178.407 132.408 179.479 132.408C180.714 132.408 181.704 131.406 181.704 130.183C181.704 129.728 181.564 129.309 181.331 128.959L183.219 127.072H203.33L200.86 129.542C200.522 129.344 200.137 129.215 199.718 129.215C198.494 129.215 197.492 130.218 197.492 131.441C197.492 132.664 198.494 133.666 199.718 133.666C200.941 133.666 201.943 132.664 201.943 131.441C201.943 130.952 201.78 130.509 201.512 130.148L204.588 127.072H214.014L211.521 129.565C211.183 129.344 210.775 129.215 210.344 129.215C209.121 129.215 208.119 130.218 208.119 131.441C208.119 132.664 209.121 133.666 210.344 133.666C211.568 133.666 212.57 132.664 212.57 131.441C212.57 130.975 212.418 130.532 212.173 130.171L215.273 127.072H218.465L221.576 130.194L216.368 135.403C216.03 135.204 215.657 135.088 215.25 135.088C214.014 135.088 213.024 136.09 213.024 137.313C213.024 138.537 214.026 139.539 215.25 139.539C216.473 139.539 217.475 138.537 217.475 137.313C217.475 136.824 217.312 136.37 217.032 135.997L222.217 130.823L225.328 133.934V151.121H201.233C201.023 150.107 200.126 149.338 199.054 149.338C197.83 149.338 196.828 150.34 196.828 151.564C196.828 152.787 197.83 153.789 199.054 153.789C200.126 153.789 201.023 153.02 201.233 152.006H226.179L226.214 134.191H226.249ZM104.675 124.403C103.941 124.403 103.335 123.809 103.335 123.063C103.335 122.318 103.929 121.723 104.675 121.723C105.42 121.723 106.015 122.318 106.015 123.063C106.015 123.809 105.42 124.403 104.675 124.403ZM179.49 128.843C179.7 128.843 179.887 128.889 180.061 128.982L179.572 129.472C179.572 129.472 179.525 129.46 179.49 129.46C179.257 129.46 179.071 129.577 178.931 129.74H178.232C178.418 129.227 178.908 128.854 179.49 128.854V128.843ZM179.49 131.511C178.908 131.511 178.418 131.138 178.232 130.625H178.931C179.059 130.788 179.257 130.905 179.49 130.905C179.887 130.905 180.213 130.579 180.213 130.183C180.213 130.159 180.213 130.136 180.201 130.101L180.691 129.612C180.772 129.786 180.819 129.973 180.819 130.183C180.819 130.917 180.224 131.522 179.479 131.522L179.49 131.511ZM199.729 132.769C198.995 132.769 198.389 132.175 198.389 131.429C198.389 130.684 198.995 130.089 199.729 130.089C200.464 130.089 201.069 130.684 201.069 131.429C201.069 132.175 200.475 132.769 199.729 132.769ZM210.367 132.769C209.633 132.769 209.028 132.175 209.028 131.429C209.028 130.684 209.622 130.089 210.367 130.089C211.113 130.089 211.707 130.684 211.707 131.429C211.707 132.175 211.113 132.769 210.367 132.769ZM215.273 138.642C214.539 138.642 213.933 138.047 213.933 137.302C213.933 136.556 214.527 135.962 215.273 135.962C215.436 135.962 215.587 135.997 215.727 136.043L215.18 136.591C214.818 136.638 214.539 136.929 214.539 137.302C214.539 137.698 214.865 138.024 215.261 138.024C215.657 138.024 215.984 137.698 215.984 137.302C215.984 137.232 215.96 137.162 215.937 137.092L216.403 136.626C216.52 136.824 216.59 137.057 216.59 137.302C216.59 138.036 215.995 138.642 215.25 138.642H215.273ZM199.077 152.892C198.343 152.892 197.737 152.298 197.737 151.552C197.737 150.806 198.343 150.212 199.077 150.212C199.811 150.212 200.417 150.818 200.417 151.552C200.417 152.286 199.823 152.892 199.077 152.892Z" fill="#FF2B2B"/>
<path d="M90.3769 178.526C90.0623 178.642 89.8293 178.899 89.7477 179.237H86.0774C85.9027 178.945 85.588 178.736 85.2268 178.736C84.6675 178.736 84.2131 179.19 84.2131 179.749C84.2131 180.169 84.4578 180.518 84.819 180.682V210.032L91.9499 217.152V238.16L88.3845 241.725V252.643H88.3611L88.3845 252.678V281.621H82.0925V270.54L85.8211 266.811V238.672L89.2933 235.2V220.367L87.1028 218.177C87.3242 217.827 87.4523 217.42 87.4523 216.977C87.4523 215.753 86.4502 214.751 85.2268 214.751C84.0034 214.751 83.0014 215.753 83.0014 216.977C83.0014 218.2 84.0034 219.202 85.2268 219.202C85.6929 219.202 86.124 219.062 86.4852 218.818L88.4078 220.74V234.839L84.9355 238.311V266.45L81.207 270.179V282.518H89.2817V253.575L95.5036 259.797V269.258C95.3289 269.386 95.2007 269.596 95.2007 269.829C95.2007 270.225 95.527 270.552 95.9232 270.552C96.3193 270.552 96.6456 270.225 96.6456 269.829C96.6456 269.608 96.5407 269.421 96.3892 269.293V259.436L89.2817 252.328V242.121L92.8471 238.556V216.814L85.7162 209.694V180.682C85.926 180.565 86.1007 180.39 86.1823 180.169H89.9691C90.1555 180.39 90.4235 180.542 90.7381 180.542C91.2974 180.542 91.7518 180.087 91.7518 179.528C91.7518 179.178 91.5654 178.876 91.2857 178.689C91.3789 170.976 94.7696 163.821 100.677 158.858L101.563 158.182V133.352H98.1136C97.9738 133.189 97.7874 133.072 97.5544 133.072C97.1582 133.072 96.832 133.399 96.832 133.795C96.832 134.191 97.1582 134.517 97.5544 134.517C97.7874 134.517 97.9738 134.401 98.1136 134.238H100.677V157.704C94.2453 162.819 90.5167 170.405 90.4002 178.584L90.3769 178.526ZM86.427 217.513L85.926 217.012C85.926 217.012 85.926 216.988 85.926 216.977C85.926 216.581 85.5997 216.254 85.2036 216.254C84.8074 216.254 84.4812 216.581 84.4812 216.977C84.4812 217.373 84.8074 217.699 85.2036 217.699C85.2502 217.699 85.2851 217.688 85.3201 217.676L85.8094 218.165C85.623 218.258 85.4249 218.317 85.2036 218.317C84.4695 218.317 83.8636 217.711 83.8636 216.977C83.8636 216.243 84.4579 215.648 85.2036 215.648C85.9493 215.648 86.5435 216.243 86.5435 216.977C86.5435 217.175 86.4969 217.35 86.427 217.524V217.513Z" fill="#FF2B2B"/>
<path d="M136.738 155.898C136.505 155.898 136.318 156.015 136.178 156.178H118.479V159.056C117.675 159.219 117.035 159.86 116.871 160.664C107.107 161.048 99.2773 169.088 99.2773 178.945C99.2773 186.484 104.02 193.3 111.104 196.003L108.506 233.056H126.706L124.107 196.003C131.191 193.3 135.91 186.484 135.91 178.945C135.91 174.273 134.151 169.845 131.005 166.478C131.168 166.187 131.261 165.849 131.261 165.499C131.261 164.357 130.341 163.437 129.199 163.437C128.057 163.437 127.137 164.357 127.137 165.499C127.137 166.641 128.057 167.561 129.199 167.561C129.653 167.561 130.073 167.41 130.411 167.165C133.359 170.358 135.013 174.541 135.013 178.957C135.013 186.239 130.376 192.811 123.478 195.293L123.163 195.409L125.75 232.17H109.461L112.048 195.409L111.733 195.293C104.824 192.799 100.175 186.239 100.175 178.957C100.175 169.589 107.62 161.945 116.906 161.572C117.128 162.481 117.932 163.145 118.899 163.145C120.029 163.145 120.961 162.225 120.961 161.083C120.961 160.116 120.285 159.3 119.377 159.079V157.075H136.19C136.318 157.238 136.516 157.355 136.749 157.355C136.773 157.355 136.796 157.343 136.831 157.343L140.128 162.703H157.676V165.499L149.356 168.272C148.972 167.608 148.261 167.154 147.434 167.154C146.211 167.154 145.208 168.156 145.208 169.379C145.208 170.603 146.211 171.605 147.434 171.605C148.657 171.605 149.659 170.603 149.659 169.379C149.659 169.286 149.648 169.204 149.636 169.111L158.573 166.128V162.691H163.071C163.28 163.705 164.178 164.474 165.249 164.474C166.473 164.474 167.475 163.472 167.475 162.248C167.475 161.025 166.473 160.023 165.249 160.023C164.178 160.023 163.28 160.792 163.071 161.806H140.501L137.46 156.714C137.46 156.714 137.472 156.667 137.472 156.632C137.472 156.236 137.145 155.91 136.749 155.91L136.738 155.898ZM128.045 165.499C128.045 164.858 128.57 164.334 129.211 164.334C129.851 164.334 130.376 164.858 130.376 165.499C130.376 165.604 130.341 165.686 130.318 165.779C130.178 165.651 130.05 165.522 129.91 165.394C129.863 165.045 129.572 164.777 129.211 164.777C128.814 164.777 128.488 165.103 128.488 165.499C128.488 165.895 128.814 166.222 129.211 166.222C129.292 166.222 129.374 166.198 129.455 166.175C129.572 166.28 129.677 166.396 129.782 166.501C129.607 166.594 129.42 166.676 129.211 166.676C128.57 166.676 128.045 166.152 128.045 165.511V165.499ZM118.479 159.999V160.512C118.421 160.559 118.363 160.605 118.328 160.664C118.165 160.664 117.99 160.652 117.827 160.64C117.943 160.337 118.188 160.116 118.491 159.999H118.479ZM120.064 161.083C120.064 161.724 119.54 162.248 118.899 162.248C118.41 162.248 118.002 161.957 117.827 161.538C118.002 161.538 118.188 161.538 118.363 161.561C118.491 161.712 118.689 161.817 118.899 161.817C119.295 161.817 119.621 161.491 119.621 161.095C119.621 160.873 119.516 160.687 119.365 160.559V160.034C119.773 160.221 120.064 160.629 120.064 161.095V161.083ZM147.422 170.707C146.688 170.707 146.082 170.113 146.082 169.367C146.082 168.622 146.677 168.028 147.422 168.028C147.853 168.028 148.226 168.237 148.471 168.552L147.807 168.773C147.69 168.703 147.562 168.645 147.422 168.645C147.026 168.645 146.7 168.971 146.7 169.367C146.7 169.764 147.026 170.09 147.422 170.09C147.737 170.09 147.993 169.892 148.098 169.612L148.751 169.391C148.739 170.113 148.145 170.696 147.422 170.696V170.707ZM165.238 160.908C165.972 160.908 166.578 161.514 166.578 162.248C166.578 162.982 165.972 163.588 165.238 163.588C164.504 163.588 163.898 162.994 163.898 162.248C163.898 161.503 164.492 160.908 165.238 160.908Z" fill="#FF2B2B"/>
<path d="M33.527 165.359H14.4531V166.245H33.527C33.6552 166.408 33.8533 166.524 34.0863 166.524C34.4825 166.524 34.8087 166.198 34.8087 165.802C34.8087 165.406 34.4825 165.08 34.0863 165.08C33.8533 165.08 33.6668 165.196 33.527 165.359Z" fill="#FF2B2B"/>
<path d="M41.0687 162.971C41.4648 162.971 41.7911 162.644 41.7911 162.248C41.7911 161.852 41.4648 161.526 41.0687 161.526C40.8356 161.526 40.6492 161.642 40.5093 161.806H10.9023V162.691H40.5093C40.6375 162.854 40.8356 162.971 41.0687 162.971Z" fill="#FF2B2B"/>
<path d="M58.7667 180.215L61.9592 176.999H65.4547L69.2765 173.119V140.425H23.4503C23.3221 140.261 23.124 140.145 22.891 140.145C22.4948 140.145 22.1686 140.471 22.1686 140.867C22.1686 141.263 22.4948 141.59 22.891 141.59C23.124 141.59 23.3105 141.473 23.4503 141.31H68.391V161.165L65.7227 158.496V153.906C66.7364 153.696 67.5054 152.799 67.5054 151.727C67.5054 150.503 66.5034 149.501 65.2799 149.501C64.0565 149.501 63.0545 150.503 63.0545 151.727C63.0545 152.799 63.8235 153.708 64.8372 153.906V158.858L68.4026 162.423V172.747L65.0935 176.102H47.6043L43.4563 180.308V229.467L8.61759 229.374L5.29688 230.458C5.22697 230.399 5.14539 230.341 5.06383 230.295V222.721H28.9732C29.113 223.105 29.4859 223.385 29.917 223.385C30.4763 223.385 30.9307 222.931 30.9307 222.371C30.9307 221.812 30.4763 221.358 29.917 221.358C29.5558 221.358 29.2528 221.556 29.078 221.835H4.1667V230.295C3.8288 230.458 3.5957 230.796 3.5957 231.203C3.5957 231.763 4.05011 232.217 4.6094 232.217C5.16868 232.217 5.57654 231.798 5.6115 231.262L8.6875 230.248L44.3535 230.341V180.646L47.9888 176.964H60.7241L58.4171 179.295H47.2431V186.263C47.08 186.391 46.9635 186.589 46.9635 186.822C46.9635 187.218 47.2897 187.544 47.6859 187.544C48.082 187.544 48.4083 187.218 48.4083 186.822C48.4083 186.589 48.2917 186.391 48.1286 186.263V180.18H58.7783L58.7667 180.215ZM64.8139 152.985C64.3012 152.799 63.9284 152.309 63.9284 151.727C63.9284 150.993 64.5225 150.387 65.2683 150.387C66.014 150.387 66.6082 150.981 66.6082 151.727C66.6082 152.309 66.2354 152.799 65.7227 152.985V151.564H64.8372V152.985H64.8139Z" fill="#FF2B2B"/>
<path d="M183.148 133.293H147.82C147.611 132.28 146.713 131.511 145.642 131.511C144.418 131.511 143.416 132.513 143.416 133.736C143.416 134.96 144.418 135.962 145.642 135.962C146.713 135.962 147.611 135.193 147.82 134.179H182.939L189.72 137.57V150.468L183.23 143.978H165.414L158.295 136.859H151.386C151.176 135.845 150.279 135.076 149.207 135.076C147.984 135.076 146.981 136.078 146.981 137.302C146.981 138.525 147.984 139.527 149.207 139.527C150.279 139.527 151.188 138.758 151.386 137.744H157.922L165.042 144.875H182.857L189.72 151.738V157.599L188.462 156.341C188.695 155.991 188.834 155.572 188.834 155.117C188.834 153.894 187.832 152.892 186.609 152.892C185.386 152.892 184.384 153.894 184.384 155.117C184.384 156.341 185.386 157.343 186.609 157.343C187.063 157.343 187.483 157.203 187.832 156.97L189.72 158.857V162.423L193.542 166.245H208.165L211.73 162.679H221.681C221.855 162.982 222.17 163.192 222.543 163.192C223.102 163.192 223.557 162.737 223.557 162.178C223.557 161.619 223.102 161.164 222.543 161.164C222.112 161.164 221.762 161.421 221.599 161.794H211.357L207.792 165.359H193.915L190.617 162.062V137.034L183.148 133.305V133.293ZM145.642 135.076C144.907 135.076 144.302 134.482 144.302 133.736C144.302 132.991 144.896 132.396 145.642 132.396C146.387 132.396 146.981 132.991 146.981 133.736C146.981 134.482 146.387 135.076 145.642 135.076ZM149.207 138.642C148.473 138.642 147.867 138.047 147.867 137.302C147.867 136.556 148.461 135.962 149.207 135.962C149.953 135.962 150.547 136.556 150.547 137.302C150.547 138.047 149.953 138.642 149.207 138.642ZM187.809 155.688L187.32 155.199C187.32 155.199 187.331 155.152 187.331 155.117C187.331 154.721 187.005 154.395 186.609 154.395C186.213 154.395 185.887 154.721 185.887 155.117C185.887 155.513 186.213 155.84 186.609 155.84C186.632 155.84 186.656 155.828 186.691 155.828L187.18 156.317C187.005 156.399 186.819 156.445 186.609 156.445C185.875 156.445 185.269 155.851 185.269 155.106C185.269 154.36 185.863 153.766 186.609 153.766C187.355 153.766 187.949 154.36 187.949 155.106C187.949 155.315 187.902 155.502 187.809 155.676V155.688Z" fill="#FF2B2B"/>
<path d="M75.0789 251.874H75.0905L80.6833 246.292C81.0329 246.525 81.4523 246.665 81.9068 246.665C83.1302 246.665 84.1322 245.663 84.1322 244.44C84.1322 243.216 83.1302 242.214 81.9068 242.214C80.6833 242.214 79.6813 243.216 79.6813 244.44C79.6813 244.894 79.8211 245.314 80.0541 245.663L75.0789 250.65V241.201L78.5627 237.717V226.613L81.697 223.478C81.697 223.478 81.7437 223.49 81.7786 223.49C82.1748 223.49 82.501 223.164 82.501 222.768C82.501 222.371 82.1748 222.045 81.7786 222.045C81.3825 222.045 81.0562 222.371 81.0562 222.768C81.0562 222.791 81.0679 222.814 81.0679 222.849L78.5627 225.354V218.491C79.5764 218.282 80.3454 217.384 80.3454 216.312C80.3454 215.089 79.3434 214.087 78.12 214.087C76.8965 214.087 75.8945 215.089 75.8945 216.312C75.8945 217.384 76.6635 218.282 77.6772 218.491V237.344L74.1933 240.828V258.655L71.4319 261.813L68.2626 258.643V241.201L75.207 234.268V224.923C76.1625 224.678 76.8732 223.816 76.8732 222.779C76.8732 221.556 75.8712 220.554 74.6478 220.554C73.4243 220.554 72.4222 221.556 72.4222 222.779C72.4222 223.898 73.2495 224.807 74.3098 224.97V233.895L68.2626 239.942V219.051H64.5573V216.534H71.6882V212.188H61.0036V209.624H75.1021V205.103H56.9954V202.47H78.819V198.136H61.0036V195.048H75.2536V190.772H64.1262V187.952H71.6998V183.583H69.2647C69.0899 182.627 68.2509 181.893 67.2372 181.893C66.0953 181.893 65.1749 182.814 65.1749 183.956C65.1749 185.097 66.0953 186.018 67.2372 186.018C68.1927 186.018 68.985 185.365 69.218 184.48H70.791V187.067H63.2174V191.669H74.3565V194.162H60.1064V199.033H77.9219V201.596H56.0982V206.012H74.205V208.762H60.1064V213.108H70.791V215.672H63.6602V219.983H67.3654V232.94L64.8603 230.434C64.8603 230.434 64.8719 230.388 64.8719 230.353C64.8719 229.957 64.5457 229.63 64.1495 229.63C63.7534 229.63 63.4271 229.957 63.4271 230.353C63.4271 230.749 63.7534 231.075 64.1495 231.075C64.1845 231.075 64.1962 231.064 64.2311 231.064L67.3654 234.198V259.051L74.1933 265.879V271.891L68.449 266.147C68.4956 266.054 68.5306 265.949 68.5306 265.832C68.5306 265.436 68.2044 265.11 67.8082 265.11C67.412 265.11 67.0858 265.436 67.0858 265.832C67.0858 266.135 67.2722 266.392 67.5402 266.508L74.1817 273.15V279.127L64.3826 269.514V248.483L60.5026 244.603V237.519L60.5491 237.472L60.5026 237.425V229.362C61.5163 229.153 62.2852 228.256 62.2852 227.184C62.2852 225.96 61.2832 224.958 60.0598 224.958C58.8364 224.958 57.8343 225.96 57.8343 227.184C57.8343 228.256 58.6033 229.153 59.617 229.362V236.54L57.1585 234.081C57.1585 234.081 57.1702 234.035 57.1702 234C57.1702 233.604 56.8439 233.277 56.4478 233.277C56.0516 233.277 55.7254 233.604 55.7254 234C55.7254 234.396 56.0516 234.722 56.4478 234.722C56.4711 234.722 56.4943 234.711 56.5293 234.711L59.617 237.798V244.964L63.4971 248.844V261.416L57.2284 255.148C57.2284 255.148 57.2401 255.101 57.2401 255.066C57.2401 254.67 56.9138 254.344 56.5177 254.344C56.1215 254.344 55.7953 254.67 55.7953 255.066C55.7953 255.462 56.1215 255.789 56.5177 255.789C56.541 255.789 56.5643 255.789 56.5993 255.777L63.4971 262.675V269.876L70.6279 276.878L67.8082 279.558L53.6979 265.634V191.401L60.1879 184.934C60.2578 184.946 60.3161 184.969 60.3744 184.969C60.9337 184.969 61.3881 184.515 61.3881 183.956C61.3881 183.396 60.9337 182.942 60.3744 182.942C59.8151 182.942 59.3607 183.396 59.3607 183.956C59.3607 184.119 59.4073 184.258 59.4655 184.398L52.8008 191.028V266.007L67.7849 280.793L71.2571 277.496L74.1817 280.362V284.662C73.8438 284.825 73.6107 285.163 73.6107 285.571C73.6107 286.13 74.0652 286.584 74.6244 286.584C75.1837 286.584 75.6381 286.13 75.6381 285.571C75.6381 285.174 75.4051 284.825 75.0672 284.662V272.8H75.0789L75.0672 272.765V265.483L72.0378 262.453L75.0672 259.004V251.885L75.0789 251.874ZM81.9184 243.1C82.6525 243.1 83.2583 243.694 83.2583 244.44C83.2583 245.186 82.6641 245.78 81.9184 245.78C81.7087 245.78 81.5223 245.733 81.3475 245.64L81.8369 245.151C81.8369 245.151 81.8835 245.162 81.9184 245.162C82.3146 245.162 82.6408 244.836 82.6408 244.44C82.6408 244.044 82.3146 243.717 81.9184 243.717C81.5223 243.717 81.196 244.044 81.196 244.44C81.196 244.463 81.2077 244.486 81.2077 244.521L80.7183 245.011C80.6367 244.836 80.5784 244.638 80.5784 244.44C80.5784 243.706 81.1727 243.1 81.9184 243.1ZM76.78 216.312C76.78 215.578 77.3742 214.973 78.12 214.973C78.8657 214.973 79.4599 215.567 79.4599 216.312C79.4599 216.895 79.0871 217.384 78.5744 217.571V216.872C78.7375 216.744 78.854 216.546 78.854 216.312C78.854 215.916 78.5278 215.59 78.1316 215.59C77.7355 215.59 77.4092 215.916 77.4092 216.312C77.4092 216.546 77.5257 216.732 77.6888 216.872V217.571C77.1762 217.384 76.8033 216.895 76.8033 216.312H76.78ZM73.2961 222.768C73.2961 222.033 73.902 221.428 74.6361 221.428C75.3702 221.428 75.976 222.033 75.976 222.768C75.976 223.304 75.6498 223.77 75.1954 223.979V223.21C75.3002 223.094 75.3702 222.942 75.3702 222.768C75.3702 222.371 75.0439 222.045 74.6478 222.045C74.2516 222.045 73.9254 222.371 73.9254 222.768C73.9254 223.047 74.0884 223.28 74.3098 223.397V224.061C73.7389 223.909 73.3078 223.397 73.3078 222.768H73.2961ZM67.214 185.097C66.5731 185.097 66.0488 184.573 66.0488 183.932C66.0488 183.291 66.5731 182.767 67.214 182.767C67.7266 182.767 68.1461 183.105 68.3092 183.559H67.8198C67.6916 183.35 67.4703 183.21 67.214 183.21C66.8178 183.21 66.4916 183.536 66.4916 183.932C66.4916 184.328 66.8178 184.655 67.214 184.655C67.412 184.655 67.5868 184.573 67.715 184.445H68.251C68.0529 184.829 67.6684 185.097 67.214 185.097ZM59.617 227.708V228.407C59.1043 228.221 58.7315 227.731 58.7315 227.149C58.7315 226.415 59.3257 225.809 60.0714 225.809C60.8172 225.809 61.4114 226.403 61.4114 227.149C61.4114 227.731 61.0386 228.221 60.5259 228.407V227.708C60.689 227.58 60.8055 227.382 60.8055 227.149C60.8055 226.752 60.4793 226.426 60.0831 226.426C59.6869 226.426 59.3607 226.752 59.3607 227.149C59.3607 227.382 59.4772 227.568 59.6403 227.708H59.617Z" fill="#FF2B2B"/>
<path d="M7.6942 181.159C6.6805 181.369 5.91152 182.266 5.91152 183.338C5.91152 184.573 6.91354 185.563 8.13697 185.563C9.3604 185.563 10.3624 184.561 10.3624 183.338C10.3624 182.266 9.59344 181.369 8.57974 181.159V176.358H14.8716V177.384C13.8579 177.593 13.089 178.491 13.089 179.563C13.089 180.786 14.091 181.788 15.3144 181.788C16.5378 181.788 17.5399 180.786 17.5399 179.563C17.5399 178.491 16.7709 177.593 15.7572 177.384V176.358H21.9326V180.716C20.9189 180.926 20.1499 181.823 20.1499 182.895C20.1499 184.118 21.1519 185.12 22.3753 185.12C23.5988 185.12 24.6009 184.118 24.6009 182.895C24.6009 181.823 23.8318 180.926 22.8181 180.716V176.358H29.145V177.384C28.1313 177.593 27.3623 178.491 27.3623 179.563C27.3623 180.786 28.3643 181.788 29.5878 181.788C30.8112 181.788 31.8133 180.786 31.8133 179.563C31.8133 178.491 31.0442 177.593 30.0305 177.384V176.358H32.7221C32.8502 176.521 33.0484 176.638 33.2814 176.638C33.6776 176.638 34.0038 176.312 34.0038 175.916C34.0038 175.519 33.6776 175.193 33.2814 175.193C33.0484 175.193 32.8619 175.31 32.7221 175.473H8.30011L1.63529 169.227L6.35422 164.334L11.4927 169.693H38.0003C38.2101 170.696 39.1073 171.453 40.1792 171.453C41.4026 171.453 42.4047 170.451 42.4047 169.227C42.4047 168.004 41.4026 167.002 40.1792 167.002C39.0956 167.002 38.1984 167.783 38.0003 168.796H11.8772L3.35979 159.929C3.46466 159.766 3.54619 159.58 3.54619 159.37C3.54619 158.811 3.09178 158.356 2.53249 158.356V155.548H17.773C17.9011 156.655 18.8332 157.517 19.9751 157.517C21.1985 157.517 22.2006 156.515 22.2006 155.292C22.2006 154.068 21.1985 153.066 19.9751 153.066C18.973 153.066 18.1225 153.742 17.8545 154.663H1.69353V155.292H1.65861V158.904C1.5887 159.044 1.53046 159.195 1.53046 159.37C1.53046 159.929 1.98487 160.384 2.54416 160.384C2.55581 160.384 2.56742 160.384 2.57907 160.384L5.74838 163.693L0.376953 169.262L7.6942 176.114V181.17V181.159ZM30.0539 178.292C30.5665 178.479 30.9394 178.968 30.9394 179.551C30.9394 180.285 30.3451 180.891 29.5994 180.891C28.8537 180.891 28.2595 180.297 28.2595 179.551C28.2595 178.968 28.6323 178.479 29.145 178.292V179.458H30.0305V178.292H30.0539ZM22.8414 181.637C23.3541 181.823 23.727 182.312 23.727 182.895C23.727 183.629 23.1327 184.235 22.387 184.235C21.6413 184.235 21.0471 183.629 21.0471 182.895C21.0471 182.312 21.42 181.823 21.9326 181.637V183.023H22.8181V181.637H22.8414ZM15.7688 178.292C16.2815 178.479 16.6544 178.968 16.6544 179.551C16.6544 180.285 16.0601 180.891 15.3144 180.891C14.5687 180.891 13.9745 180.297 13.9745 179.551C13.9745 178.968 14.3474 178.479 14.86 178.292V179.458H15.7455V178.292H15.7688ZM40.2141 167.864C40.9482 167.864 41.5541 168.458 41.5541 169.204C41.5541 169.95 40.9598 170.544 40.2141 170.544C39.6432 170.544 39.1539 170.183 38.9675 169.67H40.6569V168.773H38.9558C39.1306 168.249 39.6315 167.864 40.2141 167.864ZM18.8099 154.639C19.0313 154.22 19.4741 153.94 19.9751 153.94C20.7091 153.94 21.3151 154.535 21.3151 155.28C21.3151 156.026 20.7208 156.62 19.9751 156.62C19.3226 156.62 18.7866 156.154 18.6701 155.548H19.9751V154.663H18.8099V154.639ZM8.5914 183.023V182.079C9.10408 182.266 9.47695 182.755 9.47695 183.338C9.47695 184.072 8.88268 184.678 8.13697 184.678C7.39126 184.678 6.79699 184.072 6.79699 183.338C6.79699 182.755 7.16986 182.266 7.68254 182.079V183.023H8.56808H8.5914Z" fill="#FF2B2B"/>
<path d="M95.9467 277.752C95.5505 277.752 95.2243 278.078 95.2243 278.474C95.2243 278.707 95.3408 278.894 95.5039 279.034V287.703H13.6855C9.98029 287.703 7.59167 286.025 6.39155 284.207C6.47311 284.102 6.53134 283.986 6.57794 283.846H48.3494V274.047H6.43813L12.3456 269.805H16.9946C17.2043 270.819 18.1015 271.588 19.1735 271.588C20.3969 271.588 21.399 270.586 21.399 269.363C21.399 268.139 20.3969 267.137 19.1735 267.137C18.1015 267.137 17.2043 267.906 16.9946 268.92H12.0543L4.91175 274.058H2.90769C2.81448 273.942 2.69798 273.849 2.55815 273.779V266.298C2.75623 266.205 2.91932 266.042 3.02418 265.844L47.2541 265.89C47.3823 266.03 47.5688 266.124 47.7785 266.124C48.1746 266.124 48.5009 265.797 48.5009 265.401C48.5009 265.005 48.1746 264.679 47.7785 264.679C47.5338 264.679 47.3241 264.807 47.1959 265.005L3.04751 264.958C2.88438 264.609 2.53486 264.364 2.12705 264.364C1.56776 264.364 1.11328 264.819 1.11328 265.378C1.11328 265.774 1.34636 266.1 1.67261 266.275V273.802C1.34636 273.965 1.11328 274.303 1.11328 274.699C1.11328 275.258 1.56776 275.713 2.12705 275.713C2.60477 275.713 2.97757 275.387 3.09409 274.944H47.4522V282.96H6.40321C6.21678 282.716 5.93715 282.552 5.6109 282.552C5.05162 282.552 4.59721 283.007 4.59721 283.566C4.59721 284.125 5.02828 284.557 5.57591 284.58C6.89256 286.654 9.56083 288.588 13.6855 288.588H96.4011V279.034C96.5642 278.905 96.6807 278.707 96.6807 278.474C96.6807 278.078 96.3545 277.752 95.9583 277.752H95.9467ZM19.1735 268.629C18.9404 268.629 18.754 268.745 18.6142 268.908H17.9151C18.1015 268.396 18.5909 268.011 19.1735 268.011C19.9075 268.011 20.5134 268.617 20.5134 269.351C20.5134 270.085 19.9075 270.691 19.1735 270.691C18.5909 270.691 18.1015 270.318 17.9151 269.805H18.6142C18.7424 269.969 18.9404 270.085 19.1735 270.085C19.5696 270.085 19.8959 269.759 19.8959 269.363C19.8959 268.967 19.5696 268.64 19.1735 268.64V268.629Z" fill="#FF2B2B"/>
<path d="M202.675 286.701C202.442 286.701 202.256 286.817 202.116 286.98H165.856L164.143 285.396L167.021 282.506H217.38V260.927C217.636 260.811 217.811 260.566 217.811 260.275C217.811 259.879 217.485 259.552 217.088 259.552C216.692 259.552 216.366 259.879 216.366 260.275C216.366 260.414 216.424 260.543 216.494 260.659V281.621H209.55V267.697C209.713 267.569 209.829 267.371 209.829 267.138C209.829 266.741 209.503 266.415 209.107 266.415C208.711 266.415 208.384 266.741 208.384 267.138C208.384 267.371 208.501 267.557 208.664 267.697V281.621H166.66L163.316 284.965H152.421V246.619H144.44L140.618 250.441V278.463H116.569V245.861C116.732 245.733 116.849 245.535 116.849 245.302C116.849 244.906 116.522 244.58 116.126 244.58C115.73 244.58 115.404 244.906 115.404 245.302C115.404 245.535 115.52 245.722 115.683 245.861V256.453L113.108 253.878V245.85C113.272 245.722 113.388 245.524 113.388 245.29C113.388 244.894 113.062 244.568 112.666 244.568C112.269 244.568 111.943 244.894 111.943 245.29C111.943 245.524 112.06 245.71 112.223 245.85V254.239L115.683 257.7V267.569L109.345 261.23V245.838C109.508 245.71 109.624 245.512 109.624 245.279C109.624 244.883 109.298 244.556 108.902 244.556C108.506 244.556 108.18 244.883 108.18 245.279C108.18 245.512 108.296 245.698 108.459 245.838V261.591L115.695 268.827V279.325H141.527V250.79L144.824 247.493H151.547V284.953H105.605V256.814L99.907 251.116V241.958H136.295L134.571 217.385H142.133L144.638 222.942V234.827C144.475 234.967 144.358 235.153 144.358 235.386C144.358 235.783 144.684 236.109 145.081 236.109C145.477 236.109 145.803 235.783 145.803 235.386C145.803 235.153 145.687 234.967 145.523 234.827V222.838L142.692 216.487H134.513L134.105 210.661H147.085L150.336 217.769V238.602C150.172 238.742 150.056 238.929 150.056 239.162C150.056 239.558 150.382 239.884 150.778 239.884C151.175 239.884 151.501 239.558 151.501 239.162C151.501 238.929 151.384 238.742 151.221 238.602V222.138L153.889 224.341V231.25C153.726 231.39 153.61 231.576 153.61 231.809C153.61 232.206 153.936 232.532 154.332 232.532C154.728 232.532 155.055 232.206 155.055 231.809C155.055 231.576 154.938 231.39 154.775 231.25V223.921L151.209 220.985V217.664L147.632 209.764H134.012L133.417 201.27H151.268V192.776C152.188 192.566 152.887 191.751 152.887 190.772C152.887 189.642 151.967 188.71 150.825 188.71C149.683 188.71 148.763 189.63 148.763 190.772C148.763 191.751 149.45 192.578 150.382 192.776V200.373H132.474L135.328 241.049H99.0098V251.466L104.707 257.164V266.194L101.142 269.771V286.118C100.222 286.328 99.5341 287.144 99.5341 288.122C99.5341 289.264 100.455 290.185 101.596 290.185C102.738 290.185 103.659 289.264 103.659 288.122C103.659 287.144 102.971 286.316 102.039 286.118V270.144L104.719 267.464V285.839H163.362L165.541 287.854H202.151C202.279 288.017 202.477 288.134 202.71 288.134C203.106 288.134 203.433 287.808 203.433 287.412C203.433 287.015 203.106 286.689 202.71 286.689L202.675 286.701ZM149.637 190.784C149.637 190.143 150.161 189.618 150.802 189.618C151.443 189.618 151.967 190.143 151.967 190.784C151.967 191.273 151.664 191.692 151.244 191.867V191.343C151.408 191.215 151.524 191.017 151.524 190.784C151.524 190.387 151.198 190.061 150.802 190.061C150.406 190.061 150.079 190.387 150.079 190.784C150.079 191.017 150.196 191.203 150.359 191.343V191.867C149.939 191.692 149.637 191.273 149.637 190.784ZM102.727 288.146C102.727 288.786 102.202 289.311 101.561 289.311C100.921 289.311 100.396 288.786 100.396 288.146C100.396 287.656 100.699 287.248 101.119 287.062V287.586C100.956 287.715 100.839 287.913 100.839 288.146C100.839 288.542 101.165 288.868 101.561 288.868C101.958 288.868 102.284 288.542 102.284 288.146C102.284 287.913 102.167 287.715 102.004 287.586V287.062C102.424 287.237 102.727 287.656 102.727 288.146Z" fill="#FF2B2B"/>
<path d="M21.9236 203.472C22.3225 203.472 22.646 203.149 22.646 202.75C22.646 202.351 22.3225 202.027 21.9236 202.027C21.5246 202.027 21.2012 202.351 21.2012 202.75C21.2012 203.149 21.5246 203.472 21.9236 203.472Z" fill="#FF2B2B"/>
<path d="M19.0914 202.75C19.0914 202.353 18.765 202.027 18.3689 202.027C17.9727 202.027 17.6465 202.353 17.6465 202.75C17.6465 203.146 17.9727 203.472 18.3689 203.472C18.765 203.472 19.0914 203.146 19.0914 202.75Z" fill="#FF2B2B"/>
<path d="M15.525 202.75C15.525 202.353 15.1986 202.027 14.8025 202.027C14.4063 202.027 14.0801 202.353 14.0801 202.75C14.0801 203.146 14.4063 203.472 14.8025 203.472C15.1986 203.472 15.525 203.146 15.525 202.75Z" fill="#FF2B2B"/>
<path d="M11.24 203.472C11.6361 203.472 11.9624 203.146 11.9624 202.75C11.9624 202.353 11.6361 202.027 11.24 202.027C10.8438 202.027 10.5176 202.353 10.5176 202.75C10.5176 203.146 10.8438 203.472 11.24 203.472Z" fill="#FF2B2B"/>
<path d="M7.83764 203.472C8.23661 203.472 8.56004 203.149 8.56004 202.75C8.56004 202.351 8.23661 202.027 7.83764 202.027C7.43866 202.027 7.11523 202.351 7.11523 202.75C7.11523 203.149 7.43866 203.472 7.83764 203.472Z" fill="#FF2B2B"/>
<path d="M169.223 90.4266C169.223 90.8228 169.549 91.1491 169.945 91.1491C170.341 91.1491 170.668 90.8228 170.668 90.4266C170.668 90.2169 170.574 90.0305 170.423 89.8907V40.7436L160.705 31.026C160.962 30.6648 161.113 30.222 161.113 29.7443C161.113 28.5209 160.111 27.5188 158.888 27.5188C157.664 27.5188 156.662 28.5209 156.662 29.7443C156.662 30.9677 157.664 31.9698 158.888 31.9698C159.319 31.9698 159.715 31.8416 160.053 31.6319L169.526 41.1048V89.8324C169.339 89.9606 169.211 90.1703 169.211 90.415L169.223 90.4266ZM160.064 30.3851L159.587 29.9074C159.587 29.9074 159.622 29.8142 159.622 29.756C159.622 29.3598 159.295 29.0335 158.899 29.0335C158.503 29.0335 158.177 29.3598 158.177 29.756C158.177 30.1521 158.503 30.4784 158.899 30.4784L159.412 30.991C159.249 31.061 159.074 31.0959 158.899 31.0959C158.165 31.0959 157.559 30.5017 157.559 29.756C157.559 29.0102 158.154 28.416 158.899 28.416C159.645 28.416 160.239 29.0102 160.239 29.756C160.239 29.989 160.181 30.1987 160.076 30.3851H160.064Z" fill="#FF2B2B"/>
<path d="M176.041 104.968C176.041 105.364 176.368 105.691 176.764 105.691C177.16 105.691 177.486 105.364 177.486 104.968C177.486 104.735 177.37 104.549 177.207 104.409V33.7644L174.422 30.9797C174.655 30.6301 174.795 30.2107 174.795 29.7562C174.795 28.5328 173.793 27.5307 172.569 27.5307C171.346 27.5307 170.344 28.5328 170.344 29.7562C170.344 30.9797 171.346 31.9817 172.569 31.9817C173.024 31.9817 173.443 31.8419 173.793 31.6089L176.309 34.1256V104.397C176.146 104.526 176.03 104.724 176.03 104.957L176.041 104.968ZM173.769 30.3272L173.28 29.8378C173.28 29.8378 173.292 29.7912 173.292 29.7562C173.292 29.3601 172.965 29.0338 172.569 29.0338C172.173 29.0338 171.847 29.3601 171.847 29.7562C171.847 30.1524 172.173 30.4786 172.569 30.4786C172.593 30.4786 172.616 30.467 172.651 30.467L173.14 30.9564C172.965 31.0379 172.767 31.0845 172.569 31.0845C171.835 31.0845 171.229 30.4903 171.229 29.7446C171.229 28.9989 171.823 28.4046 172.569 28.4046C173.315 28.4046 173.909 28.9989 173.909 29.7446C173.909 29.9543 173.863 30.1407 173.769 30.3155V30.3272Z" fill="#FF2B2B"/>
<path d="M172.547 97.5229C172.547 97.919 172.873 98.2453 173.269 98.2453C173.666 98.2453 173.992 97.919 173.992 97.5229C173.992 97.2898 173.875 97.1034 173.712 96.9636V37.1901L167.502 30.9797C167.735 30.6301 167.875 30.2107 167.875 29.7562C167.875 28.5328 166.873 27.5307 165.649 27.5307C164.426 27.5307 163.424 28.5328 163.424 29.7562C163.424 30.9797 164.426 31.9817 165.649 31.9817C166.104 31.9817 166.523 31.8419 166.873 31.6089L172.815 37.5513V96.9519C172.652 97.0801 172.535 97.2782 172.535 97.5112L172.547 97.5229ZM166.861 30.3272L166.372 29.8378C166.372 29.8378 166.383 29.7912 166.383 29.7562C166.383 29.3601 166.057 29.0338 165.661 29.0338C165.265 29.0338 164.939 29.3601 164.939 29.7562C164.939 30.1524 165.265 30.4786 165.661 30.4786C165.684 30.4786 165.708 30.467 165.743 30.467L166.232 30.9564C166.057 31.0379 165.859 31.0845 165.661 31.0845C164.927 31.0845 164.321 30.4903 164.321 29.7446C164.321 28.9989 164.915 28.4046 165.661 28.4046C166.407 28.4046 167.001 28.9989 167.001 29.7446C167.001 29.9543 166.954 30.1407 166.861 30.3155V30.3272Z" fill="#FF2B2B"/>
<path d="M90.8669 200.536C90.4708 200.536 90.1445 200.862 90.1445 201.258C90.1445 201.655 90.4708 201.981 90.8669 201.981C91.2631 201.981 91.5893 201.655 91.5893 201.258C91.5893 200.862 91.2631 200.536 90.8669 200.536Z" fill="#FF2B2B"/>
<path d="M90.8669 204.101C90.4708 204.101 90.1445 204.428 90.1445 204.824C90.1445 205.22 90.4708 205.546 90.8669 205.546C91.2631 205.546 91.5893 205.22 91.5893 204.824C91.5893 204.428 91.2631 204.101 90.8669 204.101Z" fill="#FF2B2B"/>
<path d="M90.8669 207.667C90.4708 207.667 90.1445 207.993 90.1445 208.389C90.1445 208.786 90.4708 209.112 90.8669 209.112C91.2631 209.112 91.5893 208.786 91.5893 208.389C91.5893 207.993 91.2631 207.667 90.8669 207.667Z" fill="#FF2B2B"/>
<path d="M90.8669 196.97C90.4708 196.97 90.1445 197.297 90.1445 197.693C90.1445 198.089 90.4708 198.415 90.8669 198.415C91.2631 198.415 91.5893 198.089 91.5893 197.693C91.5893 197.297 91.2631 196.97 90.8669 196.97Z" fill="#FF2B2B"/>
<path d="M90.8669 193.416C90.4708 193.416 90.1445 193.743 90.1445 194.139C90.1445 194.535 90.4708 194.861 90.8669 194.861C91.2631 194.861 91.5893 194.535 91.5893 194.139C91.5893 193.743 91.2631 193.416 90.8669 193.416Z" fill="#FF2B2B"/>
<path d="M90.8669 189.851C90.4708 189.851 90.1445 190.178 90.1445 190.574C90.1445 190.97 90.4708 191.296 90.8669 191.296C91.2631 191.296 91.5893 190.97 91.5893 190.574C91.5893 190.178 91.2631 189.851 90.8669 189.851Z" fill="#FF2B2B"/>
<path d="M90.8669 186.449C90.4708 186.449 90.1445 186.775 90.1445 187.171C90.1445 187.567 90.4708 187.893 90.8669 187.893C91.2631 187.893 91.5893 187.567 91.5893 187.171C91.5893 186.775 91.2631 186.449 90.8669 186.449Z" fill="#FF2B2B"/>
<path d="M46.8918 123.518C47.0316 123.681 47.218 123.798 47.4511 123.798C47.8472 123.798 48.1735 123.471 48.1735 123.075C48.1735 122.679 47.8472 122.353 47.4511 122.353C47.218 122.353 47.0316 122.469 46.8918 122.632H16.271V114.884C16.6206 114.721 16.8653 114.371 16.8653 113.964C16.8653 113.404 16.4109 112.95 15.8516 112.95C15.2923 112.95 14.8379 113.404 14.8379 113.964C14.8379 114.36 15.0709 114.686 15.3972 114.861V123.518H46.9035H46.8918Z" fill="#FF2B2B"/>
<path d="M43.6658 101.007C43.2696 101.007 42.9434 101.333 42.9434 101.729C42.9434 102.125 43.2696 102.452 43.6658 102.452C44.0619 102.452 44.3882 102.125 44.3882 101.729C44.3882 101.333 44.0619 101.007 43.6658 101.007Z" fill="#FF2B2B"/>
<path d="M43.6658 104.56C43.2696 104.56 42.9434 104.887 42.9434 105.283C42.9434 105.679 43.2696 106.005 43.6658 106.005C44.0619 106.005 44.3882 105.679 44.3882 105.283C44.3882 104.887 44.0619 104.56 43.6658 104.56Z" fill="#FF2B2B"/>
<path d="M43.6658 108.126C43.2696 108.126 42.9434 108.452 42.9434 108.848C42.9434 109.244 43.2696 109.571 43.6658 109.571C44.0619 109.571 44.3882 109.244 44.3882 108.848C44.3882 108.452 44.0619 108.126 43.6658 108.126Z" fill="#FF2B2B"/>
<path d="M43.6658 97.4413C43.2696 97.4413 42.9434 97.7675 42.9434 98.1637C42.9434 98.5598 43.2696 98.8861 43.6658 98.8861C44.0619 98.8861 44.3882 98.5598 44.3882 98.1637C44.3882 97.7675 44.0619 97.4413 43.6658 97.4413Z" fill="#FF2B2B"/>
<path d="M43.6658 93.8758C43.2696 93.8758 42.9434 94.202 42.9434 94.5982C42.9434 94.9943 43.2696 95.3206 43.6658 95.3206C44.0619 95.3206 44.3882 94.9943 44.3882 94.5982C44.3882 94.202 44.0619 93.8758 43.6658 93.8758Z" fill="#FF2B2B"/>
<path d="M43.6658 90.3103C43.2696 90.3103 42.9434 90.6365 42.9434 91.0327C42.9434 91.4289 43.2696 91.7551 43.6658 91.7551C44.0619 91.7551 44.3882 91.4289 44.3882 91.0327C44.3882 90.6365 44.0619 90.3103 43.6658 90.3103Z" fill="#FF2B2B"/>
<path d="M43.6658 86.9081C43.2696 86.9081 42.9434 87.2343 42.9434 87.6305C42.9434 88.0266 43.2696 88.3529 43.6658 88.3529C44.0619 88.3529 44.3882 88.0266 44.3882 87.6305C44.3882 87.2343 44.0619 86.9081 43.6658 86.9081Z" fill="#FF2B2B"/>
<path d="M188.949 79.4627C189.345 79.4627 189.671 79.1365 189.671 78.7403C189.671 78.3441 189.345 78.0179 188.949 78.0179C188.553 78.0179 188.227 78.3441 188.227 78.7403C188.227 79.1365 188.553 79.4627 188.949 79.4627Z" fill="#FF2B2B"/>
<path d="M188.949 75.8972C189.345 75.8972 189.671 75.571 189.671 75.1748C189.671 74.7786 189.345 74.4524 188.949 74.4524C188.553 74.4524 188.227 74.7786 188.227 75.1748C188.227 75.571 188.553 75.8972 188.949 75.8972Z" fill="#FF2B2B"/>
<path d="M188.949 72.3317C189.345 72.3317 189.671 72.0055 189.671 71.6093C189.671 71.2131 189.345 70.8869 188.949 70.8869C188.553 70.8869 188.227 71.2131 188.227 71.6093C188.227 72.0055 188.553 72.3317 188.949 72.3317Z" fill="#FF2B2B"/>
<path d="M188.949 68.7776C189.345 68.7776 189.671 68.4513 189.671 68.0552C189.671 67.659 189.345 67.3327 188.949 67.3327C188.553 67.3327 188.227 67.659 188.227 68.0552C188.227 68.4513 188.553 68.7776 188.949 68.7776Z" fill="#FF2B2B"/>
<path d="M188.949 65.3754C189.345 65.3754 189.671 65.0491 189.671 64.6529C189.671 64.2568 189.345 63.9305 188.949 63.9305C188.553 63.9305 188.227 64.2568 188.227 64.6529C188.227 65.0491 188.553 65.3754 188.949 65.3754Z" fill="#FF2B2B"/>
<path d="M108.066 29.36C107.67 29.36 107.344 29.6863 107.344 30.0824C107.344 30.4786 107.67 30.8048 108.066 30.8048C108.288 30.8048 108.486 30.6883 108.625 30.5252H133.187L137.021 26.6918V11.7659H113.81C113.601 10.7522 112.704 9.98314 111.632 9.98314C110.408 9.98314 109.406 10.9852 109.406 12.2086C109.406 13.4321 110.408 14.4341 111.632 14.4341C112.704 14.4341 113.612 13.6651 113.81 12.6514H136.135V26.3189L132.814 29.6396H129.843L126.15 25.9577H120.708C120.522 24.909 119.625 24.1051 118.518 24.1051C117.294 24.1051 116.292 25.1071 116.292 26.3305C116.292 27.554 117.294 28.556 118.518 28.556C119.566 28.556 120.452 27.822 120.685 26.8432H125.788L128.585 29.6396H108.614C108.486 29.4765 108.288 29.36 108.054 29.36H108.066ZM111.632 12.931C111.865 12.931 112.051 12.8145 112.191 12.6514H112.89C112.704 13.1641 112.214 13.5486 111.632 13.5486C110.898 13.5486 110.292 12.9427 110.292 12.2086C110.292 11.4746 110.898 10.8687 111.632 10.8687C112.214 10.8687 112.704 11.2415 112.89 11.7542H112.191C112.063 11.5911 111.865 11.4746 111.632 11.4746C111.235 11.4746 110.909 11.8008 110.909 12.197C110.909 12.5931 111.235 12.9194 111.632 12.9194V12.931ZM118.529 27.053C118.727 27.053 118.914 26.9714 119.042 26.8432H119.764C119.566 27.321 119.089 27.6705 118.529 27.6705C117.795 27.6705 117.189 27.0763 117.189 26.3305C117.189 25.5848 117.784 24.9906 118.529 24.9906C119.135 24.9906 119.636 25.3984 119.811 25.946H119.135C119.007 25.748 118.797 25.5965 118.529 25.5965C118.133 25.5965 117.807 25.9227 117.807 26.3189C117.807 26.7151 118.133 27.0413 118.529 27.0413V27.053Z" fill="#FF2B2B"/>
<path d="M62.8684 54.8426C62.6586 54.8193 62.4373 54.8776 62.2742 55.0407C61.9945 55.3203 61.9945 55.7864 62.2742 56.066C62.5538 56.3457 63.0199 56.3457 63.2995 56.066C63.4627 55.9029 63.5209 55.6932 63.4976 55.4718L75.1377 43.8317L75.4639 47.2806L70.5702 52.1743C70.3605 52.151 70.1391 52.2093 69.976 52.3724C69.6963 52.6521 69.6963 53.1181 69.976 53.3978C70.2556 53.6774 70.7217 53.6774 71.0013 53.3978C71.1644 53.2346 71.2227 53.0249 71.1994 52.8035L76.3844 47.6185L75.9416 43.0277L78.2836 40.6857L81.3481 32.5761L73.052 24.28C73.2152 23.9887 73.3083 23.6508 73.3083 23.3013C73.3083 22.1594 72.3878 21.2389 71.246 21.2389C70.1041 21.2389 69.1836 22.1594 69.1836 23.3013C69.1836 24.4432 70.1041 25.3637 71.246 25.3637C71.7004 25.3637 72.1199 25.2122 72.4578 24.9558L80.311 32.8091L77.5845 40.1381L62.8451 54.8659L62.8684 54.8426ZM71.2693 24.4432C70.6284 24.4432 70.1041 23.9188 70.1041 23.278C70.1041 22.6371 70.6284 22.1128 71.2693 22.1128C71.9101 22.1128 72.4345 22.6371 72.4345 23.278C72.4345 23.3829 72.3995 23.4761 72.3762 23.5693L71.9684 23.1615C71.9101 22.8236 71.6305 22.5556 71.2693 22.5556C70.8731 22.5556 70.5469 22.8818 70.5469 23.278C70.5469 23.6741 70.8731 24.0004 71.2693 24.0004C71.3508 24.0004 71.4324 23.9771 71.5023 23.9538L71.8285 24.28C71.6538 24.3733 71.479 24.4432 71.2693 24.4432Z" fill="#FF2B2B"/>
<path d="M226.096 155.21C226.096 154.651 225.641 154.197 225.082 154.197C224.721 154.197 224.418 154.395 224.243 154.674H197.491L194.193 151.377V134.144C195.207 133.934 195.976 133.037 195.976 131.965C195.976 130.742 194.974 129.74 193.75 129.74C192.527 129.74 191.525 130.742 191.525 131.965C191.525 133.037 192.294 133.946 193.308 134.144V151.738L197.129 155.56H224.15C224.243 155.805 224.418 155.991 224.651 156.107V171.884C224.406 172 224.231 172.21 224.138 172.478H183.252L176.389 165.615V151.365L172.567 147.543H137.205V137.115L129.817 129.728H111.92L105.605 126.57C105.582 126.186 105.279 125.883 104.894 125.883C104.51 125.883 104.172 126.209 104.172 126.605C104.172 127.001 104.498 127.328 104.894 127.328C104.953 127.328 105.011 127.304 105.069 127.293L111.711 130.613H129.444L136.307 137.476V148.429H172.195L175.492 151.726V165.977L182.879 173.364H224.278C224.464 173.62 224.756 173.806 225.093 173.806C225.653 173.806 226.107 173.352 226.107 172.793C226.107 172.385 225.874 172.059 225.536 171.884V156.107C225.874 155.944 226.107 155.606 226.107 155.199L226.096 155.21ZM192.399 131.965C192.399 131.231 192.993 130.625 193.739 130.625C194.484 130.625 195.079 131.231 195.079 131.965C195.079 132.699 194.484 133.305 193.739 133.305C192.993 133.305 192.399 132.711 192.399 131.965Z" fill="#FF2B2B"/>
<path d="M1.66036 127.293V148.033H1.69528V148.825H14.0112V152.181H23.6588L30.7431 159.265H48.2207C48.3488 159.429 48.5469 159.545 48.7799 159.545C49.1761 159.545 49.5023 159.219 49.5023 158.823C49.5023 158.427 49.1761 158.1 48.7799 158.1C48.5469 158.1 48.3605 158.217 48.2207 158.38H31.1043L24.02 151.296H14.8967V148.825H27.2126L33.924 155.537H55.1185C55.2466 155.7 55.4447 155.817 55.6777 155.817C56.0739 155.817 56.4001 155.49 56.4001 155.094C56.4001 154.698 56.0739 154.372 55.6777 154.372C55.4447 154.372 55.2583 154.488 55.1185 154.651H34.2969L27.5854 147.94H2.5459V127.223C2.76729 127.095 2.91877 126.885 2.98868 126.629H11.2614L15.421 130.637H24.5327C24.6492 131.756 25.5814 132.641 26.7349 132.641C27.9583 132.641 28.9603 131.639 28.9603 130.416C28.9603 129.192 27.9583 128.19 26.7349 128.19C25.7445 128.19 24.9056 128.843 24.6259 129.752H15.7822L12.5547 126.641H36.0679L40.6004 130.87H49.0596C49.2576 131.895 50.1548 132.676 51.2384 132.676C52.4619 132.676 53.464 131.674 53.464 130.451C53.464 129.227 52.4619 128.225 51.2384 128.225C50.1781 128.225 49.281 128.983 49.0596 129.985H40.9499L37.3729 126.641H82.4418C82.4418 126.641 82.5117 126.722 82.5583 126.757V171.22C81.5446 171.43 80.7756 172.327 80.7756 173.399C80.7756 174.622 81.7776 175.625 83.001 175.625C84.2245 175.625 85.2265 174.622 85.2265 173.399C85.2265 172.327 84.4575 171.418 83.4438 171.22V126.757C83.6069 126.629 83.7234 126.431 83.7234 126.198C83.7234 125.802 83.3972 125.475 83.001 125.475C82.768 125.475 82.5816 125.592 82.4418 125.755H2.81387C2.62744 125.522 2.34782 125.359 2.03323 125.359C1.47394 125.359 1.01953 125.813 1.01953 126.373C1.01953 126.804 1.28751 127.165 1.66036 127.316V127.293ZM25.593 129.74C25.826 129.344 26.2571 129.076 26.7465 129.076C27.4805 129.076 28.0865 129.67 28.0865 130.416C28.0865 131.161 27.4922 131.756 26.7465 131.756C26.0823 131.756 25.5348 131.278 25.4299 130.637H26.7465V129.752H25.593V129.74ZM49.98 129.961C50.1665 129.46 50.6558 129.099 51.2268 129.099C51.9608 129.099 52.5667 129.693 52.5667 130.439C52.5667 131.185 51.9725 131.779 51.2268 131.779C50.6325 131.779 50.1432 131.394 49.9684 130.858H51.6695V129.973H49.98V129.961ZM83.7234 173.376C83.7234 173.143 83.6069 172.956 83.4438 172.816V172.117C83.9565 172.304 84.3294 172.793 84.3294 173.376C84.3294 174.11 83.7351 174.716 82.9894 174.716C82.2437 174.716 81.6495 174.121 81.6495 173.376C81.6495 172.793 82.0223 172.304 82.535 172.117V172.816C82.3718 172.945 82.2553 173.143 82.2553 173.376C82.2553 173.772 82.5816 174.098 82.9777 174.098C83.3739 174.098 83.7001 173.772 83.7001 173.376H83.7234Z" fill="#FF2B2B"/>
<path d="M20.2579 110.596C20.2579 110.037 19.8034 109.582 19.2442 109.582C18.6849 109.582 18.2305 110.037 18.2305 110.596C18.2305 111.015 18.4752 111.365 18.8364 111.528V120.162H68.263C68.3911 120.325 68.5893 120.442 68.8223 120.442C69.2185 120.442 69.5447 120.116 69.5447 119.719C69.5447 119.323 69.2185 118.997 68.8223 118.997C68.5893 118.997 68.4028 119.113 68.263 119.277H19.7219V111.482C20.0365 111.307 20.2579 110.992 20.2579 110.608V110.596Z" fill="#FF2B2B"/>
<path d="M1.66266 199.091V212.84H27.5761V218.701H1.66266V235.829C1.33642 236.004 1.1034 236.33 1.1034 236.726C1.1034 237.285 1.55782 237.74 2.1171 237.74C2.59482 237.74 2.97927 237.402 3.08414 236.959L12.1142 233.953H48.5609V196.726C49.5746 196.516 50.3435 195.619 50.3435 194.547C50.3435 193.312 49.3415 192.321 48.1181 192.321C46.8946 192.321 45.8926 193.323 45.8926 194.547C45.8926 195.619 46.6616 196.516 47.6753 196.726V233.067H12.0443L2.89774 236.097C2.80453 235.98 2.68803 235.875 2.54821 235.806V219.586H28.4616V211.954H2.54821V199.102C2.88611 198.939 3.11913 198.601 3.11913 198.194C3.11913 198.089 3.08419 197.996 3.06089 197.891L4.15615 196.795L26.6323 196.889C26.7139 197.308 26.912 197.704 27.2382 198.031C28.1121 198.904 29.522 198.904 30.3842 198.031C31.2581 197.157 31.2581 195.747 30.3842 194.885C29.5103 194.011 28.1004 194.011 27.2382 194.885C26.9236 195.199 26.7255 195.595 26.6323 196.003L3.78329 195.91L2.44331 197.25C2.33844 197.215 2.22194 197.18 2.09377 197.18C1.53449 197.18 1.08008 197.634 1.08008 198.194C1.08008 198.59 1.3131 198.928 1.651 199.102L1.66266 199.091ZM46.7781 194.535C46.7781 193.801 47.3724 193.195 48.1181 193.195C48.8638 193.195 49.4581 193.789 49.4581 194.535C49.4581 195.118 49.0852 195.607 48.5725 195.793V195.094C48.7356 194.966 48.8521 194.768 48.8521 194.535C48.8521 194.139 48.5259 193.813 48.1297 193.813C47.7336 193.813 47.4073 194.139 47.4073 194.535C47.4073 194.768 47.5238 194.954 47.687 195.094V195.793C47.1743 195.607 46.8014 195.118 46.8014 194.535H46.7781ZM29.3238 195.933C29.0442 195.654 28.5898 195.654 28.2985 195.933C28.2752 195.956 28.2752 195.98 28.2519 196.003H27.5528C27.611 195.817 27.7159 195.654 27.8557 195.502C28.38 194.978 29.219 194.978 29.7433 195.502C30.2676 196.026 30.2676 196.865 29.7433 197.39C29.219 197.914 28.38 197.914 27.8557 197.39C27.7042 197.25 27.6111 197.063 27.5412 196.889H28.2402C28.2402 196.889 28.2635 196.935 28.2868 196.959C28.5665 197.238 29.0325 197.238 29.3122 196.959C29.5918 196.679 29.5918 196.213 29.3122 195.933H29.3238Z" fill="#FF2B2B"/>
<path d="M2.11314 262.803C2.5093 262.803 2.84716 262.57 3.02193 262.232H43.9778C44.1059 262.395 44.304 262.512 44.537 262.512C44.9332 262.512 45.2594 262.185 45.2594 261.789C45.2594 261.393 44.9332 261.067 44.537 261.067C44.304 261.067 44.1176 261.183 43.9778 261.346H3.0336C2.92873 261.148 2.76564 260.973 2.55591 260.88V249.17L4.96775 251.547H43.9778C44.1059 251.71 44.304 251.827 44.537 251.827C44.9332 251.827 45.2594 251.501 45.2594 251.104C45.2594 250.708 44.9332 250.382 44.537 250.382C44.304 250.382 44.1176 250.499 43.9778 250.662H23.8436L26.7099 247.795H36.4274C36.5556 247.958 36.7537 248.075 36.9867 248.075C37.3829 248.075 37.7091 247.749 37.7091 247.353C37.7091 246.956 37.3829 246.63 36.9867 246.63C36.7537 246.63 36.5672 246.747 36.4274 246.91H26.337L22.5736 250.673H13.1823L19.381 244.475H29.7393C29.8675 244.638 30.0656 244.754 30.2987 244.754C30.6948 244.754 31.0211 244.428 31.0211 244.032C31.0211 243.636 30.6948 243.309 30.2987 243.309C30.0656 243.309 29.8791 243.426 29.7393 243.589H20.3131L22.6667 241.364C22.6667 241.364 22.725 241.387 22.76 241.387C23.1561 241.387 23.4824 241.061 23.4824 240.664C23.4824 240.268 23.1561 239.942 22.76 239.942C22.3638 239.942 22.0376 240.268 22.0376 240.664C22.0376 240.688 22.0376 240.711 22.0376 240.723L19.0081 243.589L11.9122 250.685H5.31736L2.54424 247.958V247.69L5.24745 244.498H11.5393C11.6675 244.661 11.8656 244.778 12.0987 244.778C12.4948 244.778 12.8211 244.451 12.8211 244.055C12.8211 243.659 12.4948 243.333 12.0987 243.333C11.8656 243.333 11.6792 243.449 11.5393 243.612H4.82794L2.53258 246.316V241.037L11.7957 237.868C11.9821 238.078 12.2384 238.206 12.5414 238.206C12.9725 238.206 13.3338 237.938 13.4852 237.565H36.777L43.7214 244.51H47.2052V254.379H4.74644L4.57163 254.204V255.276H48.0908V243.624H44.0826L37.1382 236.68H13.392C13.2172 236.388 12.9026 236.179 12.5298 236.179C12.0288 236.179 11.6442 236.54 11.551 237.006L1.62371 240.396V260.95C1.29746 261.125 1.06445 261.451 1.06445 261.847C1.06445 262.407 1.51886 262.861 2.07815 262.861L2.11314 262.803Z" fill="#FF2B2B"/>
<path d="M145.384 176.941H172.544L177.706 171.779L182.868 176.941H206.031L215.702 179.761H225.851C226.049 180.693 226.876 181.403 227.867 181.403C228.997 181.403 229.929 180.483 229.929 179.341C229.929 178.199 229.008 177.279 227.867 177.279C226.888 177.279 226.06 177.966 225.862 178.898H215.923L206.253 176.079L183.24 176.055L172.812 165.627V151.121H111.99L110.103 149.233C110.336 148.883 110.475 148.464 110.475 148.009C110.475 146.786 109.473 145.784 108.25 145.784C107.026 145.784 106.024 146.786 106.024 148.009C106.024 149.233 107.026 150.235 108.25 150.235C108.704 150.235 109.124 150.095 109.473 149.862L111.629 152.018H171.927V166.011L174.14 168.225L169.235 173.119H140.129C139.943 172.839 139.651 172.653 139.29 172.653C138.731 172.653 138.276 173.107 138.276 173.667C138.276 174.144 138.603 174.517 139.045 174.634C139.337 176.055 139.488 177.512 139.488 178.968C139.488 186.926 135.119 194.255 128.093 198.112L127.836 198.252L130.54 236.644H104.696L107.388 198.252L107.143 198.112C100.105 194.255 95.7359 186.926 95.7359 178.968C95.7359 171.954 99.1499 165.312 104.871 161.199L105.151 160.99V133.666L101.585 126.535V119.964H175.772L179.337 123.529H228.752V119.626C228.752 117.354 228.1 115.14 226.899 113.241C227.226 112.879 227.424 112.402 227.424 111.889C227.424 110.747 226.503 109.827 225.361 109.827C224.301 109.827 223.427 110.642 223.322 111.668H179.71L178.556 110.514L183.159 108.988H209.037C209.165 109.186 209.375 109.326 209.632 109.326C210.028 109.326 210.354 108.999 210.354 108.603C210.354 108.207 210.028 107.881 209.632 107.881C209.433 107.881 209.247 107.962 209.119 108.102H183.089L177.881 109.827L176.156 108.102H162.279C162.151 107.939 161.953 107.823 161.72 107.823C161.487 107.823 161.3 107.939 161.16 108.102H151.583C151.454 107.939 151.256 107.823 151.023 107.823C150.79 107.823 150.604 107.939 150.464 108.102H90.3179L79.6332 115.221H23.2156V108.487H22.3301V116.119H79.9129L90.5976 108.988H93.5804V111.656H90.015V165.709C89.8518 165.848 89.7353 166.035 89.7353 166.268C89.7353 166.664 90.0616 166.99 90.4577 166.99C90.8539 166.99 91.1801 166.664 91.1801 166.268C91.1801 166.035 91.0636 165.848 90.9004 165.709V112.553H93.5687V152.682C92.555 152.892 91.786 153.789 91.786 154.861C91.786 156.084 92.7881 157.086 94.0115 157.086C95.2349 157.086 96.237 156.084 96.237 154.861C96.237 153.789 95.468 152.892 94.4543 152.682V112.553H172.381L177.589 110.829L179.314 112.553H181.632C181.143 112.961 180.829 113.567 180.829 114.254C180.829 115.478 181.831 116.48 183.054 116.48C184.277 116.48 185.279 115.478 185.279 114.254C185.279 113.567 184.965 112.961 184.476 112.553H186.969C186.48 112.961 186.165 113.567 186.165 114.254C186.165 115.478 187.167 116.48 188.39 116.48C189.614 116.48 190.616 115.478 190.616 114.254C190.616 113.567 190.301 112.961 189.812 112.553H192.305C191.816 112.961 191.501 113.567 191.501 114.254C191.501 115.478 192.503 116.48 193.727 116.48C194.95 116.48 195.952 115.478 195.952 114.254C195.952 113.567 195.638 112.961 195.148 112.553H197.642C197.153 112.961 196.838 113.567 196.838 114.254C196.838 115.478 197.84 116.48 199.063 116.48C200.287 116.48 201.289 115.478 201.289 114.254C201.289 113.567 200.974 112.961 200.485 112.553H202.978C202.489 112.961 202.174 113.567 202.174 114.254C202.174 115.478 203.176 116.48 204.4 116.48C205.623 116.48 206.625 115.478 206.625 114.254C206.625 113.567 206.311 112.961 205.821 112.553H208.315C207.826 112.961 207.511 113.567 207.511 114.254C207.511 115.478 208.513 116.48 209.736 116.48C210.96 116.48 211.962 115.478 211.962 114.254C211.962 113.567 211.647 112.961 211.158 112.553H223.357C223.637 113.357 224.394 113.94 225.291 113.94C225.583 113.94 225.862 113.882 226.119 113.765C227.202 115.513 227.797 117.54 227.797 119.614V122.62H179.64L176.075 119.055H100.63V126.733L104.195 133.853V160.535C98.311 164.823 94.7921 171.698 94.7921 178.945C94.7921 187.136 99.2431 194.686 106.421 198.73L103.694 237.507H131.448L128.722 198.73C135.888 194.686 140.327 187.136 140.327 178.945C140.327 177.419 140.164 175.915 139.873 174.424C140.024 174.308 140.141 174.156 140.199 173.981H169.561L174.723 168.82L177.042 171.138L172.148 176.032H144.86C144.708 175.939 144.533 175.869 144.347 175.869C143.788 175.869 143.333 176.323 143.333 176.883C143.333 177.267 143.555 177.582 143.869 177.756C143.881 178.153 143.916 178.537 143.916 178.922C143.916 180.926 143.671 182.918 143.217 184.876C142.751 184.969 142.389 185.365 142.389 185.854C142.389 186.414 142.844 186.868 143.403 186.868C143.799 186.868 144.137 186.635 144.312 186.297H164.213L160.042 190.468V198.73C159.028 198.939 158.259 199.837 158.259 200.908C158.259 202.144 159.261 203.134 160.485 203.134C161.708 203.134 162.71 202.132 162.71 200.908C162.71 199.837 161.941 198.939 160.927 198.73V190.841L167.72 184.048H227.657V208.133L221.062 214.727H177.776V267.941C177.438 268.104 177.205 268.442 177.205 268.85C177.205 269.409 177.659 269.864 178.218 269.864C178.778 269.864 179.232 269.409 179.232 268.85C179.232 268.454 178.999 268.116 178.661 267.953V215.625H221.423L227.645 209.403V219.516L221.528 226.216H189.043L180.863 233.172V267.976C180.537 268.151 180.316 268.477 180.316 268.862C180.316 269.421 180.77 269.875 181.33 269.875C181.889 269.875 182.343 269.421 182.343 268.862C182.343 268.454 182.099 268.104 181.749 267.941V233.58L189.369 227.102H194.869L192.329 229.642C192.014 229.723 191.769 229.991 191.769 230.329C191.769 230.725 192.096 231.052 192.492 231.052C192.888 231.052 193.214 230.725 193.214 230.329C193.214 230.236 193.191 230.143 193.156 230.061L196.116 227.102H205.635L203.316 229.42C203.316 229.42 203.27 229.409 203.235 229.409C202.839 229.409 202.512 229.735 202.512 230.131C202.512 230.527 202.839 230.854 203.235 230.854C203.631 230.854 203.957 230.527 203.957 230.131C203.957 230.108 203.945 230.084 203.945 230.05L206.893 227.102H216.366L214.094 229.374C214.094 229.374 214.048 229.362 214.013 229.362C213.616 229.362 213.29 229.688 213.29 230.084C213.29 230.481 213.616 230.807 214.013 230.807C214.409 230.807 214.735 230.481 214.735 230.084C214.735 230.061 214.723 230.038 214.723 230.003L217.625 227.102H221.912L227.633 220.833V229.747L221.097 236.283H192.27L188.169 240.385V273.336C187.144 273.534 186.363 274.431 186.363 275.515C186.363 276.738 187.365 277.74 188.589 277.74C189.812 277.74 190.814 276.738 190.814 275.515C190.814 274.454 190.057 273.557 189.055 273.336V249.636L191.793 255.182V263.257C190.779 263.467 190.01 264.364 190.01 265.436C190.01 266.659 191.012 267.661 192.236 267.661C193.459 267.661 194.461 266.659 194.461 265.436C194.461 264.364 193.692 263.467 192.678 263.257V254.973L189.043 247.632V242.33L195.871 254.984V261.439C195.708 261.568 195.591 261.766 195.591 261.999C195.591 262.395 195.917 262.721 196.314 262.721C196.71 262.721 197.036 262.395 197.036 261.999C197.036 261.766 196.92 261.579 196.756 261.439V254.763L189.136 240.653L192.608 237.18H221.435L227.61 231.005V236.889L221.493 243.74H199.331V252.689C198.318 252.899 197.549 253.796 197.549 254.868C197.549 256.091 198.551 257.093 199.774 257.093C200.998 257.093 202 256.091 202 254.868C202 253.796 201.231 252.899 200.217 252.689V244.626H221.878L227.598 238.217V260.915L224.93 258.247V257.047C225.944 256.837 226.713 255.94 226.713 254.868C226.713 253.644 225.711 252.642 224.487 252.642C223.264 252.642 222.262 253.644 222.262 254.868C222.262 255.94 223.031 256.837 224.045 257.047V258.608L227.61 262.173V271.483H227.587V271.74L224.93 268.512V267.626C225.944 267.417 226.713 266.519 226.713 265.448C226.713 264.224 225.711 263.222 224.487 263.222C223.264 263.222 222.262 264.224 222.262 265.448C222.262 266.519 223.031 267.428 224.045 267.626V268.838L227.587 273.149V274.047C227.587 279.628 223.45 284.253 218.079 285.057C217.811 284.23 217.042 283.624 216.122 283.624C214.991 283.624 214.059 284.545 214.059 285.687C214.059 286.829 214.98 287.749 216.122 287.749C217.17 287.749 218.021 286.968 218.161 285.955C223.986 285.116 228.472 280.105 228.472 274.058V273.511H228.496V183.186H167.301L165.04 185.447H144.242C144.184 185.33 144.102 185.225 144.009 185.144C144.487 183.116 144.743 181.054 144.743 178.968C144.743 178.595 144.72 178.234 144.708 177.861C145.058 177.71 145.302 177.372 145.314 176.964L145.384 176.941ZM227.855 178.164C228.496 178.164 229.02 178.689 229.02 179.329C229.02 179.97 228.496 180.495 227.855 180.495C227.365 180.495 226.946 180.18 226.771 179.749H227.284C227.412 179.924 227.622 180.052 227.855 180.052C228.251 180.052 228.577 179.726 228.577 179.329C228.577 178.933 228.251 178.607 227.855 178.607C227.622 178.607 227.424 178.724 227.296 178.887H226.771C226.946 178.467 227.365 178.164 227.855 178.164ZM109.438 148.569L108.949 148.079C108.949 148.079 108.961 148.033 108.961 147.998C108.961 147.602 108.634 147.275 108.238 147.275C107.842 147.275 107.516 147.602 107.516 147.998C107.516 148.394 107.842 148.72 108.238 148.72C108.262 148.72 108.285 148.709 108.32 148.709L108.809 149.198C108.634 149.28 108.448 149.338 108.238 149.338C107.504 149.338 106.898 148.744 106.898 147.998C106.898 147.252 107.493 146.658 108.238 146.658C108.984 146.658 109.578 147.264 109.578 147.998C109.578 148.208 109.532 148.394 109.438 148.569ZM95.3165 154.837C95.3165 155.571 94.7222 156.177 93.9765 156.177C93.2308 156.177 92.6366 155.583 92.6366 154.837C92.6366 154.255 93.0094 153.765 93.5221 153.591V154.29C93.359 154.418 93.2424 154.616 93.2424 154.849C93.2424 155.245 93.5687 155.571 93.9649 155.571C94.361 155.571 94.6873 155.245 94.6873 154.849C94.6873 154.616 94.5707 154.43 94.4076 154.29V153.591C94.9319 153.777 95.2932 154.266 95.2932 154.837H95.3165ZM94.4309 111.644V108.976H150.429C150.557 109.139 150.755 109.256 150.988 109.256C151.012 109.256 151.035 109.244 151.07 109.244L153.482 111.656H94.4426L94.4309 111.644ZM154.729 111.644L152.06 108.976H161.114C161.254 109.139 161.44 109.256 161.673 109.256C161.696 109.256 161.72 109.244 161.755 109.244L164.166 111.656H154.74L154.729 111.644ZM172.288 111.644H165.413L162.745 108.976H175.737L176.89 110.13L172.288 111.656V111.644ZM183.042 115.571C182.308 115.571 181.702 114.977 181.702 114.231C181.702 113.485 182.297 112.891 183.042 112.891C183.788 112.891 184.382 113.485 184.382 114.231C184.382 114.977 183.776 115.571 183.042 115.571ZM188.39 115.571C187.656 115.571 187.05 114.977 187.05 114.231C187.05 113.485 187.645 112.891 188.39 112.891C189.136 112.891 189.73 113.485 189.73 114.231C189.73 114.977 189.136 115.571 188.39 115.571ZM193.739 115.571C193.005 115.571 192.399 114.977 192.399 114.231C192.399 113.485 192.993 112.891 193.739 112.891C194.484 112.891 195.079 113.485 195.079 114.231C195.079 114.977 194.484 115.571 193.739 115.571ZM199.075 115.571C198.341 115.571 197.735 114.977 197.735 114.231C197.735 113.485 198.341 112.891 199.075 112.891C199.809 112.891 200.415 113.485 200.415 114.231C200.415 114.977 199.821 115.571 199.075 115.571ZM204.423 115.571C203.689 115.571 203.083 114.977 203.083 114.231C203.083 113.485 203.678 112.891 204.423 112.891C205.169 112.891 205.763 113.485 205.763 114.231C205.763 114.977 205.157 115.571 204.423 115.571ZM209.771 115.571C209.037 115.571 208.431 114.977 208.431 114.231C208.431 113.485 209.026 112.891 209.771 112.891C210.517 112.891 211.111 113.485 211.111 114.231C211.111 114.977 210.517 115.571 209.771 115.571ZM225.326 110.689C225.967 110.689 226.492 111.213 226.492 111.854C226.492 112.064 226.422 112.25 226.328 112.425C226.224 112.285 226.13 112.157 226.014 112.017C226.014 111.959 226.049 111.912 226.049 111.854C226.049 111.458 225.723 111.132 225.326 111.132C225 111.132 224.744 111.353 224.651 111.644H224.208C224.313 111.108 224.767 110.689 225.338 110.689H225.326ZM225.326 113.031C224.942 113.031 224.616 112.833 224.394 112.542H225.082C225.152 112.565 225.233 112.588 225.315 112.588C225.42 112.716 225.513 112.845 225.618 112.973C225.525 112.996 225.431 113.031 225.326 113.031ZM161.836 200.932C161.836 201.666 161.242 202.272 160.496 202.272C159.751 202.272 159.156 201.677 159.156 200.932C159.156 200.349 159.529 199.86 160.042 199.673V200.372C159.879 200.501 159.762 200.699 159.762 200.932C159.762 201.328 160.088 201.654 160.485 201.654C160.881 201.654 161.207 201.328 161.207 200.932C161.207 200.699 161.09 200.512 160.927 200.372V199.673C161.44 199.86 161.813 200.349 161.813 200.932H161.836ZM189.975 275.526C189.975 276.26 189.381 276.866 188.635 276.866C187.889 276.866 187.295 276.272 187.295 275.526C187.295 274.944 187.68 274.443 188.216 274.268V275.526H189.101V274.28C189.602 274.466 189.963 274.955 189.963 275.526H189.975ZM192.737 264.888V264.189C193.249 264.376 193.622 264.865 193.622 265.448C193.622 266.182 193.028 266.788 192.282 266.788C191.536 266.788 190.942 266.193 190.942 265.448C190.942 264.865 191.315 264.376 191.828 264.189V264.888C191.665 265.016 191.548 265.214 191.548 265.448C191.548 265.844 191.874 266.17 192.27 266.17C192.667 266.17 192.993 265.844 192.993 265.448C192.993 265.226 192.876 265.028 192.713 264.888H192.737ZM201.184 254.868C201.184 255.602 200.59 256.208 199.844 256.208C199.098 256.208 198.504 255.613 198.504 254.868C198.504 254.285 198.877 253.796 199.39 253.609V254.308C199.227 254.437 199.11 254.635 199.11 254.868C199.11 255.264 199.436 255.59 199.832 255.59C200.229 255.59 200.555 255.264 200.555 254.868C200.555 254.635 200.438 254.448 200.275 254.308V253.609C200.8 253.796 201.161 254.285 201.161 254.868H201.184ZM224.115 255.427V256.126C223.602 255.94 223.229 255.45 223.229 254.868C223.229 254.134 223.835 253.528 224.569 253.528C225.303 253.528 225.909 254.134 225.909 254.868C225.909 255.45 225.536 255.94 225.012 256.126V255.427C225.175 255.299 225.291 255.101 225.291 254.868C225.291 254.472 224.965 254.145 224.569 254.145C224.173 254.145 223.847 254.472 223.847 254.868C223.847 255.101 223.963 255.299 224.126 255.427H224.115ZM224.115 266.007V266.706C223.602 266.52 223.229 266.03 223.229 265.448C223.229 264.713 223.835 264.108 224.569 264.108C225.303 264.108 225.909 264.713 225.909 265.448C225.909 266.03 225.536 266.52 225.012 266.706V266.007C225.175 265.879 225.291 265.681 225.291 265.448C225.291 265.051 224.965 264.725 224.569 264.725C224.173 264.725 223.847 265.051 223.847 265.448C223.847 265.681 223.963 265.879 224.126 266.007H224.115ZM216.203 286.852C215.562 286.852 215.038 286.328 215.038 285.687C215.038 285.046 215.562 284.521 216.203 284.521C216.658 284.521 217.042 284.789 217.228 285.162C217.065 285.174 216.891 285.186 216.716 285.186C216.588 285.046 216.401 284.953 216.191 284.953C215.795 284.953 215.469 285.279 215.469 285.675C215.469 286.071 215.795 286.397 216.191 286.397C216.448 286.397 216.658 286.258 216.786 286.059C216.949 286.059 217.124 286.048 217.287 286.036C217.135 286.502 216.704 286.84 216.191 286.84L216.203 286.852Z" fill="#FF2B2B"/>
<path d="M75.3243 13.5721C75.7205 13.5721 76.0584 13.339 76.2215 13.0011H87.2441C87.3722 13.1643 87.5703 13.2808 87.8033 13.2808C87.8383 13.2808 87.8499 13.2691 87.8849 13.2691L91.1823 18.6289H108.73V21.4253L100.41 24.1985C100.026 23.5343 99.3152 23.0799 98.4879 23.0799C97.2645 23.0799 96.2625 24.082 96.2625 25.3054C96.2625 26.5288 97.2645 27.5309 98.4879 27.5309C99.7114 27.5309 100.713 26.5288 100.713 25.3054C100.713 25.2122 100.702 25.1306 100.69 25.0374L109.627 22.0545V18.6173H114.125C114.334 19.631 115.232 20.4 116.303 20.4C117.527 20.4 118.529 19.3979 118.529 18.1745C118.529 16.9511 117.527 15.949 116.303 15.949C115.232 15.949 114.334 16.718 114.125 17.7317H91.5552L88.5141 12.6399C88.5141 12.6399 88.5257 12.5933 88.5257 12.5584C88.5257 12.1622 88.1995 11.8359 87.8033 11.8359C87.5703 11.8359 87.3839 11.9525 87.2441 12.1156H76.5361C87.1974 5.33428 99.2337 1.74553 111.48 1.74553H122.549C129.272 1.74553 135.937 2.8175 142.345 4.91481C142.415 5.14785 142.543 5.33427 142.741 5.47409V27.5542L136.24 34.0558L136.834 34.3238C139.164 35.3609 141.378 36.6309 143.487 38.1107V38.1573H143.557C156.851 47.5486 165.392 65.3408 165.392 84.8808V101.147C164.472 101.356 163.784 102.172 163.784 103.151C163.784 104.293 164.705 105.213 165.847 105.213C166.988 105.213 167.909 104.293 167.909 103.151C167.909 102.172 167.221 101.345 166.289 101.147V84.8808C166.289 77.0974 164.949 69.5937 162.514 62.7658L164.239 61.0413L164.297 45.4629C164.705 45.3814 165.101 45.1833 165.415 44.857C166.278 43.9948 166.278 42.5733 165.415 41.7111C164.542 40.8488 163.132 40.8488 162.269 41.7111C161.396 42.5849 161.396 43.9948 162.269 44.857C162.596 45.1833 162.992 45.3814 163.411 45.4629L163.353 60.6685L162.176 61.8336C158.518 52.0811 152.599 43.7851 145.083 38.1456H152.167C152.296 38.3087 152.494 38.4253 152.727 38.4253C153.123 38.4253 153.449 38.099 153.449 37.7029C153.449 37.4698 153.333 37.2834 153.169 37.1436V23.5576L155.71 18.4658C155.896 18.5124 156.082 18.5474 156.281 18.5474C157.504 18.5474 158.506 17.5453 158.506 16.3219C158.506 15.0984 157.504 14.0964 156.281 14.0964C155.057 14.0964 154.055 15.0984 154.055 16.3219C154.055 17.0326 154.393 17.6502 154.917 18.0696L152.284 23.3479V37.1436C152.284 37.1436 152.202 37.2135 152.167 37.2484H143.86C141.937 35.9085 139.91 34.7317 137.789 33.7529L143.638 27.9037V5.59061C144.046 5.45079 144.338 5.08958 144.338 4.63516C144.338 4.07588 143.883 3.62147 143.324 3.62147C142.998 3.62147 142.718 3.78459 142.531 4.02928C136.065 1.92031 129.353 0.848343 122.56 0.848343H111.491C98.9307 0.848343 86.5915 4.56526 75.6855 11.6029C75.5806 11.5563 75.4525 11.533 75.336 11.533C74.7767 11.533 74.3223 11.9874 74.3223 12.5467C74.3223 13.106 74.7767 13.5604 75.336 13.5604L75.3243 13.5721ZM98.4879 26.6453C97.7539 26.6453 97.148 26.0511 97.148 25.3054C97.148 24.5597 97.7422 23.9654 98.4879 23.9654C98.919 23.9654 99.2919 24.1752 99.5366 24.4781L98.8725 24.6995C98.7559 24.6296 98.6277 24.5713 98.4879 24.5713C98.0918 24.5713 97.7655 24.8976 97.7655 25.2937C97.7655 25.6899 98.0918 26.0161 98.4879 26.0161C98.8025 26.0161 99.0589 25.8181 99.1637 25.5384L99.8279 25.317C99.8163 26.0394 99.222 26.622 98.4996 26.622L98.4879 26.6453ZM116.303 16.8462C117.038 16.8462 117.643 17.4521 117.643 18.1862C117.643 18.9202 117.049 19.5261 116.303 19.5261C115.558 19.5261 114.963 18.9319 114.963 18.1862C114.963 17.4405 115.569 16.8462 116.303 16.8462ZM167 103.162C167 103.803 166.476 104.328 165.835 104.328C165.194 104.328 164.67 103.803 164.67 103.162C164.67 102.673 164.973 102.254 165.392 102.079V102.603C165.229 102.731 165.112 102.929 165.112 103.162C165.112 103.559 165.439 103.885 165.835 103.885C166.231 103.885 166.557 103.559 166.557 103.162C166.557 102.929 166.441 102.743 166.278 102.603V102.079C166.697 102.254 167 102.673 167 103.162ZM163.306 43.8084C163.306 43.8084 163.353 43.8317 163.376 43.855V44.5541C163.202 44.4958 163.027 44.391 162.875 44.2395C162.351 43.7152 162.351 42.8762 162.875 42.3519C163.4 41.8276 164.25 41.8276 164.763 42.3519C165.276 42.8762 165.287 43.7152 164.763 44.2395C164.623 44.3793 164.448 44.4842 164.274 44.5424V43.8433C164.274 43.8433 164.32 43.82 164.332 43.7967C164.611 43.5171 164.611 43.051 164.332 42.7714C164.052 42.4917 163.598 42.4917 163.306 42.7714C163.027 43.051 163.027 43.5171 163.306 43.7967V43.8084ZM156.269 15.0052C157.003 15.0052 157.609 15.6111 157.609 16.3452C157.609 17.0792 157.015 17.6851 156.269 17.6851C156.211 17.6851 156.164 17.6851 156.106 17.6735L156.42 17.0443C156.747 16.9744 156.991 16.6947 156.991 16.3452C156.991 15.949 156.665 15.6228 156.269 15.6228C155.873 15.6228 155.546 15.949 155.546 16.3452C155.546 16.4617 155.581 16.5549 155.616 16.6481L155.302 17.2657C155.069 17.021 154.929 16.6947 154.929 16.3452C154.929 15.6111 155.523 15.0052 156.269 15.0052Z" fill="#FF2B2B"/>
<path d="M151.258 9.10928C151.491 9.10928 151.689 9.01606 151.852 8.89955C169.877 18.1044 183.475 35.0344 190.198 55.4483H181.529V93.1184C180.527 93.3282 179.77 94.2254 179.77 95.2973C179.77 96.5208 180.772 97.5228 181.995 97.5228C183.218 97.5228 184.22 96.5208 184.22 95.2973C184.22 94.2254 183.452 93.3165 182.438 93.1184V56.3338H190.477C193.332 65.3173 194.882 74.9533 194.882 84.8923V102.65H189.266V90.7997C190.291 90.59 191.06 89.6928 191.06 88.6209C191.06 87.3974 190.058 86.3954 188.835 86.3954C187.611 86.3954 186.609 87.3974 186.609 88.6209C186.609 89.6928 187.378 90.6017 188.392 90.7997V103.535H194.882H195.767V84.8923C195.767 51.6265 178.733 21.6466 152.26 8.11888C152.26 8.11888 152.26 8.11888 152.26 8.10723C152.26 7.54794 151.805 7.09352 151.246 7.09352C150.687 7.09352 150.232 7.54794 150.232 8.10723C150.232 8.66651 150.687 9.12092 151.246 9.12092L151.258 9.10928ZM182.717 95.2973C182.717 95.0643 182.601 94.8779 182.438 94.738V94.0389C182.95 94.2254 183.323 94.7147 183.323 95.2973C183.323 96.0314 182.729 96.6373 181.983 96.6373C181.238 96.6373 180.643 96.043 180.643 95.2973C180.643 94.7147 181.016 94.2254 181.529 94.0389V94.738C181.366 94.8662 181.249 95.0643 181.249 95.2973C181.249 95.6935 181.576 96.0197 181.972 96.0197C182.368 96.0197 182.694 95.6935 182.694 95.2973H182.717ZM188.392 89.1685V89.8676C187.879 89.6812 187.506 89.1918 187.506 88.6092C187.506 87.8751 188.101 87.2693 188.846 87.2693C189.592 87.2693 190.186 87.8751 190.186 88.6092C190.186 89.1918 189.813 89.6812 189.289 89.8676V89.1685C189.452 89.0403 189.569 88.8422 189.569 88.6092C189.569 88.213 189.242 87.8868 188.846 87.8868C188.45 87.8868 188.124 88.213 188.124 88.6092C188.124 88.8422 188.24 89.0287 188.403 89.1685H188.392Z" fill="#FF2B2B"/>
<path d="M40.5196 68.1138C40.9507 68.1138 41.3119 67.8575 41.4634 67.4846L44.5745 67.4613L72.1657 39.87C72.3755 39.8933 72.5969 39.835 72.76 39.6719C73.0396 39.3923 73.0396 38.9262 72.76 38.6465C72.4803 38.3669 72.0143 38.3669 71.7346 38.6465C71.5715 38.8097 71.5132 39.0311 71.5365 39.2408L57.2981 53.4792V49.4244L64.1727 42.5499C64.3824 42.5732 64.6037 42.5149 64.7668 42.3518C65.0465 42.0722 65.0465 41.6061 64.7668 41.3265C64.4872 41.0468 64.0211 41.0468 63.7415 41.3265C63.5784 41.4896 63.5201 41.711 63.5434 41.9207L56.4126 49.0516V54.3648L49.7711 61.0063V52.2325L57.1001 44.9035C57.3098 44.9268 57.5312 44.8686 57.6826 44.7055C57.9623 44.4258 57.9623 43.9597 57.6826 43.6801C57.403 43.4005 56.9486 43.4005 56.6573 43.6801C56.4942 43.8432 56.4359 44.0646 56.4592 44.2743L49.7944 50.9392L49.8876 47.7116C49.8876 47.7116 49.9459 47.6767 49.9692 47.6534C50.2489 47.3737 50.2489 46.9076 49.9692 46.628C49.6896 46.3484 49.2235 46.3484 48.9439 46.628C48.6642 46.9076 48.6642 47.3737 48.9439 47.6534C48.9555 47.665 48.9788 47.6767 48.9904 47.6883L48.8739 51.8596V61.8918L44.2133 66.5525L41.4052 66.5758C41.3119 66.4127 41.1838 66.2845 41.009 66.1913C44.7958 47.3155 54.257 30.5369 67.7497 18.722C67.8895 18.792 68.041 18.8386 68.2041 18.8386C68.6469 18.8386 69.0081 18.5589 69.1479 18.1628H84.9826L90.389 27.6356V36.3978C89.9696 36.5259 89.6666 36.8988 89.6666 37.3532C89.6666 37.4464 89.6899 37.5163 89.7132 37.5979C82.9669 42.445 77.5022 49.3312 73.7154 57.4292L62.0753 68.9761L59.6518 66.5991C59.8848 66.2612 60.0362 65.8534 60.0362 65.4106C60.0362 64.2688 59.1158 63.3483 57.9739 63.3483C56.8321 63.3483 55.9116 64.2688 55.9116 65.4106C55.9116 66.5525 56.8321 67.473 57.9739 67.473C58.3468 67.473 58.6847 67.3681 58.9876 67.1934L61.4345 69.6053L50.7964 80.0685V85.1953C49.7827 85.4051 49.0138 86.3022 49.0138 87.3742C49.0138 88.5976 50.0158 89.5997 51.2392 89.5997C52.4626 89.5997 53.4647 88.5976 53.4647 87.3742C53.4647 86.3022 52.6957 85.3934 51.682 85.1953V80.4414L72.7367 59.643C71.5249 62.521 70.5228 65.5272 69.7422 68.6498L54.3619 83.634V92.5476C53.3482 92.7573 52.5792 93.6545 52.5792 94.7265C52.5792 95.9499 53.5812 96.9519 54.8046 96.9519C56.0281 96.9519 57.0302 95.9499 57.0302 94.7265C57.0302 93.6545 56.2611 92.7457 55.2474 92.5476V84.0068L69.3576 70.2694C68.8449 72.5415 68.4604 74.8719 68.1925 77.2255L57.6942 87.1878V99.8882C56.6805 100.098 55.9116 100.995 55.9116 102.067C55.9116 103.29 56.9136 104.293 58.137 104.293C59.3604 104.293 60.3625 103.29 60.3625 102.067C60.3625 100.995 59.5935 100.086 58.5798 99.8882V87.5606L68.0526 78.5771C67.8546 80.6511 67.7613 82.7368 67.7613 84.8574V88.3296L62.1219 93.9807C62.1219 93.9807 62.0753 93.9691 62.0404 93.9691C61.6442 93.9691 61.318 94.2953 61.318 94.6915C61.318 95.0877 61.6442 95.4139 62.0404 95.4139C62.4365 95.4139 62.7628 95.0877 62.7628 94.6915C62.7628 94.6682 62.7511 94.6449 62.7511 94.6099L67.7613 89.588V95.6819L65.932 97.5112C65.932 97.5112 65.8854 97.4996 65.8504 97.4996C65.4543 97.4996 65.128 97.8258 65.128 98.222C65.128 98.6181 65.4543 98.9444 65.8504 98.9444C66.2466 98.9444 66.5729 98.6181 66.5729 98.222C66.5729 98.1987 66.5613 98.1754 66.5613 98.1404L67.7613 96.9403V105.714C66.8409 105.924 66.1417 106.739 66.1417 107.718C66.1417 108.848 67.0622 109.781 68.2041 109.781C69.346 109.781 70.2665 108.86 70.2665 107.718C70.2665 106.739 69.579 105.912 68.6469 105.714V84.8574C68.6469 65.5854 76.9196 47.8514 90.2841 38.2737C90.4007 38.3203 90.5405 38.3553 90.6803 38.3553C91.2396 38.3553 91.694 37.9008 91.694 37.3415C91.694 37.0036 91.5192 36.724 91.2745 36.5376V27.3793L85.4953 17.2539H69.0314C68.845 16.9743 68.5537 16.7762 68.1925 16.7762C67.6332 16.7762 67.1788 17.2306 67.1788 17.7899C67.1788 17.8482 67.2021 17.9064 67.2137 17.9647C53.4997 29.9427 43.9103 46.9892 40.1002 66.133C39.7623 66.2962 39.5176 66.6341 39.5176 67.0419C39.5176 67.6012 39.972 68.0556 40.5313 68.0556L40.5196 68.1138ZM57.9506 66.5991C57.3098 66.5991 56.7854 66.0748 56.7854 65.4339C56.7854 64.7931 57.3098 64.2688 57.9506 64.2688C58.5915 64.2688 59.1158 64.7931 59.1158 65.4339C59.1158 65.632 59.0575 65.8068 58.9643 65.9699L58.6264 65.632C58.6497 65.5621 58.673 65.5039 58.673 65.4223C58.673 65.0261 58.3468 64.6999 57.9506 64.6999C57.5545 64.6999 57.2282 65.0261 57.2282 65.4223C57.2282 65.7951 57.5078 66.0864 57.869 66.133L58.2768 66.5292C58.172 66.5642 58.0671 66.5991 57.9506 66.5991ZM52.5559 87.4092C52.5559 88.1432 51.9499 88.7491 51.2159 88.7491C50.4818 88.7491 49.876 88.1549 49.876 87.4092C49.876 86.8266 50.2488 86.3372 50.7615 86.1508V86.8499C50.5984 86.978 50.4819 87.1761 50.4819 87.4092C50.4819 87.8053 50.8081 88.1316 51.2043 88.1316C51.6004 88.1316 51.9267 87.8053 51.9267 87.4092C51.9267 87.1761 51.8102 86.9897 51.6471 86.8499V86.1508C52.1597 86.3372 52.5442 86.8266 52.5442 87.4092H52.5559ZM56.1213 94.7498C56.1213 95.4838 55.527 96.0897 54.7813 96.0897C54.0356 96.0897 53.4414 95.4955 53.4414 94.7498C53.4414 94.1672 53.8143 93.6778 54.3269 93.4914V94.1905C54.1638 94.3187 54.0473 94.5167 54.0473 94.7498C54.0473 95.1459 54.3736 95.4722 54.7697 95.4722C55.1659 95.4722 55.4921 95.1459 55.4921 94.7498C55.4921 94.5167 55.3756 94.3303 55.2125 94.1905V93.4914C55.7252 93.6778 56.098 94.1672 56.098 94.7498H56.1213ZM59.4537 102.102C59.4537 102.836 58.8595 103.442 58.1138 103.442C57.368 103.442 56.7738 102.848 56.7738 102.102C56.7738 101.519 57.1466 101.03 57.6593 100.844V101.543C57.4962 101.671 57.3797 101.869 57.3797 102.102C57.3797 102.498 57.7059 102.824 58.1021 102.824C58.4982 102.824 58.8245 102.498 58.8245 102.102C58.8245 101.869 58.708 101.683 58.5449 101.543V100.844C59.0575 101.03 59.4304 101.519 59.4304 102.102H59.4537ZM69.3576 107.753C69.3576 108.394 68.8333 108.918 68.1925 108.918C67.5516 108.918 67.0273 108.394 67.0273 107.753C67.0273 107.264 67.3302 106.844 67.7497 106.67V107.194C67.5866 107.322 67.4701 107.52 67.4701 107.753C67.4701 108.149 67.7963 108.476 68.1925 108.476C68.5886 108.476 68.9149 108.149 68.9149 107.753C68.9149 107.52 68.7983 107.334 68.6352 107.194V106.67C69.0547 106.844 69.3576 107.264 69.3576 107.753Z" fill="#FF2B2B"/>
</svg>
