<svg width="318" height="294" viewBox="0 0 318 294" fill="none" xmlns="http://www.w3.org/2000/svg">
<g clip-path="url(#clip0_2578_6452)">
<path d="M198 396C307.352 396 396 311.31 396 206.839C396 102.369 307.352 17.6787 198 17.6787C88.6476 17.6787 0 102.369 0 206.839C0 311.31 88.6476 396 198 396Z" fill="#CFCFCF"/>
<path d="M198 378.321C307.352 378.321 396 293.631 396 189.161C396 84.6901 307.352 0 198 0C88.6476 0 0 84.6901 0 189.161C0 293.631 88.6476 378.321 198 378.321Z" fill="white"/>
<path opacity="0.5" d="M197.486 240.429C296.932 240.429 383.972 189.717 383.972 128.207C361.822 64.5458 297.217 0.884189 197.486 0C154.258 0 122.784 11.4945 91.4047 29.1782C54.4877 53.9355 29.5687 81.3454 13.8789 120.25C13.8789 181.759 98.0397 240.429 197.486 240.429Z" fill="#6D595A" fill-opacity="0.15"/>
<path d="M358.065 190.049C358.065 105.106 285.987 36.2454 197.075 36.2454C108.162 36.2454 36.084 105.106 36.084 190.049C36.084 274.992 108.162 343.853 197.075 343.853C285.987 343.853 358.065 274.992 358.065 190.049Z" fill="white" stroke="#CFCFCF" stroke-width="4.84785" stroke-miterlimit="10"/>
<path d="M251.658 189.04C251.721 195.443 250.051 201.755 246.807 207.372C243.328 213.058 238.181 217.666 231.992 220.635C225.313 224.026 217.011 225.716 207.085 225.704H188.77V266.947H159.141V152.061H207.011C215.475 151.813 223.883 153.441 231.566 156.815C237.859 159.638 243.101 164.2 246.603 169.902C250.033 175.75 251.776 182.351 251.658 189.04ZM204.807 203.443C210.449 203.443 214.653 202.191 217.418 199.689C220.095 196.724 221.566 192.951 221.566 189.049C221.566 185.148 220.095 181.374 217.418 178.41C214.665 175.895 210.461 174.638 204.807 174.638H188.733V203.443H204.807Z" fill="#0A0A0A"/>
<path d="M251.664 120.214H159.141V137.892H251.664V120.214Z" fill="#E50913"/>
</g>
<defs>
<clipPath id="clip0_2578_6452">
<rect width="396" height="396" fill="white"/>
</clipPath>
</defs>
</svg>
