<svg width="630" height="508" viewBox="0 0 630 508" fill="none" xmlns="http://www.w3.org/2000/svg">
<g style="mix-blend-mode:multiply" filter="url(#filter0_f_2779_35383)">
<path d="M229.021 328.245C159.558 258.782 159.558 146.161 229.021 76.6985C298.484 7.23587 411.106 7.23584 480.57 76.6985C550.033 146.161 550.033 258.782 480.57 328.245C411.106 397.708 298.484 397.708 229.021 328.245Z" fill="url(#paint0_radial_2779_35383)" style="mix-blend-mode:color-dodge"/>
</g>
<path style="mix-blend-mode:screen" d="M370.623 471.658C373.729 471.658 376.835 470.857 379.614 469.255L599.775 342.142C605.414 338.889 608.766 333.069 608.766 326.563C608.766 320.057 605.382 314.238 599.742 311.001L347.737 166.38C342.179 163.193 335.281 163.209 329.739 166.446L111.572 293.69C105.982 296.959 102.647 302.779 102.663 309.252C102.663 315.725 106.031 321.528 111.638 324.782L361.648 469.271C364.427 470.873 367.533 471.674 370.639 471.674L370.623 471.658ZM338.779 165.579C341.591 165.579 344.419 166.299 346.936 167.754L598.941 312.374C604.09 315.333 607.164 320.629 607.18 326.563C607.18 332.497 604.123 337.81 598.99 340.785L378.829 467.898C373.778 470.808 367.484 470.808 362.433 467.898L112.422 323.408C107.306 320.45 104.249 315.153 104.232 309.252C104.232 303.351 107.257 298.038 112.357 295.063L330.524 167.819C333.074 166.331 335.918 165.596 338.779 165.596V165.579Z" fill="url(#paint1_linear_2779_35383)"/>
<path style="mix-blend-mode:color-dodge" d="M361.118 446.843L147.137 323.179C137.361 317.523 137.328 303.432 147.087 297.743L333.819 188.824C338.363 186.175 343.987 186.159 348.548 188.775L564.246 312.553C574.071 318.193 574.103 332.365 564.279 338.038L375.831 446.826C371.286 449.458 365.679 449.458 361.118 446.826V446.843Z" fill="url(#paint2_linear_2779_35383)"/>
<g style="mix-blend-mode:screen">
<path d="M175.183 182.579L102.112 140.388C101.294 140.649 100.232 140.584 99.5453 140.192C98.6953 139.701 98.6953 138.916 99.5453 138.426C100.395 137.936 101.752 137.936 102.602 138.426C103.305 138.835 103.403 139.44 102.946 139.914L174.022 180.961V169.076L119.145 137.396C118.328 137.658 117.265 137.592 116.579 137.2C115.729 136.71 115.729 135.925 116.579 135.435C117.429 134.944 118.786 134.944 119.636 135.435C120.339 135.843 120.437 136.448 119.979 136.922L175.199 168.799V182.595L175.183 182.579ZM85.2581 148.937L152.15 187.565C152.967 187.303 154.03 187.369 154.716 187.761C155.566 188.251 155.566 189.036 154.716 189.526C153.866 190.017 152.51 190.017 151.66 189.526C150.957 189.118 150.859 188.513 151.316 188.039L86.4187 150.572V163.126L126.877 186.486C127.695 186.224 128.757 186.29 129.444 186.682C130.294 187.172 130.294 187.957 129.444 188.447C128.594 188.938 127.237 188.938 126.387 188.447C125.684 188.039 125.586 187.434 126.044 186.96L85.2417 163.404V148.937H85.2581ZM54.3459 161.377C55.196 160.887 56.5528 160.887 57.4028 161.377C58.1057 161.786 58.2039 162.391 57.7461 162.865L122.676 200.348H161.925L190.402 216.793C191.17 216.629 192.069 216.711 192.69 217.071C193.54 217.561 193.54 218.346 192.69 218.836C191.84 219.327 190.484 219.327 189.634 218.836C188.865 218.395 188.8 217.692 189.454 217.202L161.419 201.018H122.17L56.8961 163.339C56.0787 163.6 55.0161 163.535 54.3296 163.143C53.4795 162.652 53.4795 161.867 54.3296 161.377H54.3459ZM206.046 207.688C206.863 207.426 207.926 207.492 208.629 207.884C209.479 208.374 209.479 209.159 208.629 209.649C207.779 210.14 206.422 210.14 205.572 209.649C204.869 209.241 204.771 208.636 205.229 208.162L85.3071 138.933C84.4898 139.194 83.4272 139.129 82.7406 138.737C81.8906 138.246 81.8906 137.462 82.7406 136.971C83.5907 136.481 84.9475 136.481 85.7975 136.971C86.5004 137.38 86.5986 137.985 86.1408 138.459L206.062 207.688H206.046ZM141.851 189.314L101.115 165.791C100.265 166.232 98.9569 166.232 98.1395 165.758C97.2895 165.268 97.2895 164.483 98.1395 163.993C98.9896 163.502 100.346 163.502 101.196 163.993C101.752 164.32 101.932 164.777 101.752 165.186L142.701 188.823L141.884 189.297L141.851 189.314ZM165.309 169.501L164.492 169.975L90.7343 127.392C89.917 127.653 88.8544 127.588 88.1678 127.196C87.3178 126.705 87.3178 125.921 88.1678 125.43C89.0179 124.94 90.3747 124.94 91.2247 125.43C91.9276 125.839 92.0257 126.444 91.568 126.918L165.326 169.501H165.309ZM167.336 194.463H125.848L92.0584 174.961C91.2411 175.223 90.1785 175.157 89.4919 174.765C88.6419 174.275 88.6419 173.49 89.4919 173C90.342 172.509 91.6988 172.509 92.5488 173C93.2517 173.408 93.3499 174.013 92.8922 174.487L126.338 193.793H167.827L215.511 221.321C216.328 221.059 217.391 221.125 218.077 221.517C218.927 222.008 218.927 222.792 218.077 223.283C217.227 223.773 215.87 223.773 215.02 223.283C214.318 222.874 214.219 222.269 214.677 221.795L167.336 194.463ZM215.282 205.252C214.432 205.742 213.075 205.742 212.225 205.252C211.522 204.843 211.424 204.239 211.882 203.764L184.811 188.137V166.788L118.639 128.585C117.821 128.847 116.759 128.781 116.072 128.389C115.222 127.899 115.222 127.114 116.072 126.624C116.922 126.133 118.279 126.133 119.129 126.624C119.832 127.032 119.93 127.637 119.472 128.111L185.988 166.51V187.859L212.716 203.29C213.533 203.029 214.595 203.094 215.282 203.487C216.132 203.977 216.132 204.762 215.282 205.252Z" fill="url(#paint3_linear_2779_35383)"/>
</g>
<g style="mix-blend-mode:screen">
<path d="M561.016 390.087H521.767L493.29 373.642C492.522 373.805 491.623 373.724 491.002 373.364C490.152 372.874 490.152 372.089 491.002 371.599C491.852 371.108 493.208 371.108 494.059 371.599C494.827 372.04 494.892 372.743 494.238 373.233L522.273 389.417H561.522L626.796 427.096C627.613 426.835 628.676 426.9 629.362 427.292C630.213 427.783 630.213 428.567 629.362 429.058C628.512 429.548 627.156 429.548 626.306 429.058C625.603 428.649 625.505 428.044 625.962 427.57L561.032 390.087H561.016ZM477.63 382.763C476.812 383.025 475.75 382.96 475.047 382.567C474.197 382.077 474.197 381.292 475.047 380.802C475.897 380.311 477.254 380.311 478.104 380.802C478.807 381.211 478.905 381.815 478.447 382.289L598.369 451.518C599.186 451.257 600.248 451.322 600.935 451.715C601.785 452.205 601.785 452.99 600.935 453.48C600.085 453.97 598.728 453.97 597.878 453.48C597.175 453.071 597.077 452.466 597.535 451.992L477.613 382.763H477.63ZM598.418 441.514L531.526 402.886C530.708 403.148 529.646 403.083 528.959 402.69C528.109 402.2 528.109 401.415 528.959 400.925C529.809 400.434 531.166 400.434 532.016 400.925C532.719 401.334 532.817 401.938 532.359 402.412L597.257 439.879V427.325L556.798 403.965C555.981 404.227 554.918 404.162 554.232 403.769C553.382 403.279 553.382 402.494 554.232 402.004C555.082 401.513 556.439 401.513 557.289 402.004C557.992 402.412 558.09 403.017 557.632 403.491L598.434 427.047V441.514H598.418ZM541.824 401.121L582.561 424.644C583.411 424.203 584.719 424.203 585.536 424.677C586.386 425.167 586.386 425.952 585.536 426.442C584.686 426.933 583.329 426.933 582.479 426.442C581.924 426.115 581.744 425.658 581.924 425.249L540.974 401.611L541.792 401.137L541.824 401.121ZM465.598 367.169C466.448 366.678 467.805 366.678 468.655 367.169C469.358 367.577 469.456 368.182 468.999 368.656L516.339 395.988H557.828L591.617 415.49C592.435 415.228 593.497 415.294 594.184 415.686C595.034 416.176 595.034 416.961 594.184 417.451C593.334 417.942 591.977 417.942 591.127 417.451C590.424 417.043 590.326 416.438 590.784 415.964L557.338 396.658H515.849L468.165 369.13C467.348 369.392 466.285 369.326 465.598 368.934C464.748 368.444 464.748 367.659 465.598 367.169ZM468.394 385.199C469.244 384.709 470.601 384.709 471.451 385.199C472.154 385.608 472.252 386.213 471.794 386.687L498.865 402.314V423.663L565.037 461.866C565.854 461.604 566.917 461.67 567.604 462.062C568.454 462.552 568.454 463.337 567.604 463.828C566.754 464.318 565.397 464.318 564.547 463.828C563.844 463.419 563.746 462.814 564.203 462.34L497.688 423.941V402.592L470.96 387.161C470.143 387.422 469.08 387.357 468.394 386.965C467.544 386.474 467.544 385.69 468.394 385.199ZM518.366 420.933L519.184 420.459L592.941 463.043C593.759 462.781 594.821 462.847 595.508 463.239C596.358 463.729 596.358 464.514 595.508 465.005C594.658 465.495 593.301 465.495 592.451 465.005C591.748 464.596 591.65 463.991 592.108 463.517L518.35 420.933H518.366ZM508.493 407.872L581.564 450.063C582.381 449.802 583.444 449.867 584.13 450.26C584.98 450.75 584.98 451.535 584.13 452.025C583.28 452.515 581.924 452.515 581.073 452.025C580.371 451.616 580.272 451.012 580.73 450.538L509.654 409.491V421.375L564.53 453.055C565.348 452.793 566.41 452.859 567.097 453.251C567.947 453.742 567.947 454.526 567.097 455.017C566.247 455.507 564.89 455.507 564.04 455.017C563.337 454.608 563.239 454.003 563.697 453.529L508.477 421.653V407.856L508.493 407.872Z" fill="url(#paint4_linear_2779_35383)"/>
</g>
<path style="mix-blend-mode:color-dodge" d="M221.692 418.336C224.897 416.489 230.079 416.489 233.266 418.336C236.47 420.183 236.47 423.175 233.266 425.022C230.062 426.869 224.88 426.869 221.692 425.022C218.488 423.175 218.488 420.183 221.692 418.336ZM248.305 433.702C251.509 431.855 256.691 431.855 259.879 433.702C263.083 435.549 263.083 438.541 259.879 440.388C256.675 442.235 251.493 442.235 248.305 440.388C245.101 438.541 245.101 435.549 248.305 433.702ZM274.918 449.068C278.122 447.221 283.304 447.221 286.492 449.068C289.696 450.915 289.696 453.907 286.492 455.754C283.288 457.601 278.106 457.601 274.918 455.754C271.714 453.907 271.714 450.915 274.918 449.068ZM301.531 464.434C304.735 462.587 309.917 462.587 313.105 464.434C316.309 466.281 316.309 469.273 313.105 471.12C309.901 472.967 304.719 472.967 301.531 471.12C298.327 469.273 298.327 466.281 301.531 464.434ZM115.241 356.872C118.445 355.025 123.627 355.025 126.815 356.872C130.019 358.719 130.019 361.71 126.815 363.558C123.611 365.405 118.429 365.405 115.241 363.558C112.037 361.71 112.037 358.719 115.241 356.872ZM141.854 372.238C145.058 370.391 150.24 370.391 153.428 372.238C156.632 374.085 156.632 377.076 153.428 378.924C150.223 380.771 145.042 380.771 141.854 378.924C138.666 377.076 138.65 374.085 141.854 372.238ZM168.467 387.604C171.671 385.757 176.853 385.757 180.04 387.604C183.244 389.451 183.244 392.442 180.04 394.29C176.836 396.137 171.654 396.137 168.467 394.29C165.279 392.442 165.263 389.451 168.467 387.604ZM195.08 402.97C198.284 401.123 203.466 401.123 206.653 402.97C209.857 404.817 209.857 407.808 206.653 409.656C203.449 411.503 198.267 411.503 195.08 409.656C191.876 407.808 191.876 404.817 195.08 402.97Z" fill="url(#paint5_linear_2779_35383)"/>
<path d="M204.275 235.526L312.23 173.212L459.696 196.016L499.207 281.167L391.252 343.481L243.785 320.677L204.275 235.526Z" fill="white"/>
<path d="M204.273 235.526L243.783 320.677V363.391L204.273 278.257V235.526Z" fill="#D6D6D6"/>
<path d="M499.207 281.168V323.882L391.252 386.213V343.482L499.207 281.168Z" fill="#F0EEEE"/>
<path d="M391.248 343.483L243.782 320.679V363.393L391.248 386.213V343.483Z" fill="#D6D6D6"/>
<path style="mix-blend-mode:overlay" d="M205.207 237.537V276.394L244.717 361.544L392.183 384.348L499.207 322.557V323.881L391.252 386.212L243.785 363.391L204.275 278.257V235.526L205.207 237.537Z" fill="url(#paint6_linear_2779_35383)"/>
<g filter="url(#filter1_f_2779_35383)">
<path d="M475.256 273.647L387.637 324.241L256.419 303.938L228.221 243.177L193 58H500.5L475.256 273.647Z" fill="url(#paint7_radial_2779_35383)" fill-opacity="0.7" style="mix-blend-mode:color-dodge"/>
</g>
<path d="M469.582 276.852L447.056 228.318L315.839 208.016L233.891 255.323L256.401 303.906L387.602 324.242L469.582 276.852Z" fill="url(#paint8_linear_2779_35383)"/>
<path style="mix-blend-mode:overlay" d="M304.788 214.439L441.285 293.248L439.225 294.441L302.728 215.633L304.788 214.439ZM309.283 211.84L445.781 290.648L443.721 291.842L307.224 213.034L309.283 211.84ZM313.795 209.241L450.292 288.049L448.233 289.243L311.735 210.434L313.795 209.241ZM322.524 209.094L454.788 285.45L452.728 286.643L316.901 208.228L322.524 209.094ZM334.834 210.99L459.299 282.851L457.24 284.044L329.21 210.124L334.834 210.99ZM286.773 224.836L423.271 303.644L421.211 304.838L284.714 226.029L286.773 224.836ZM291.285 222.237L427.783 301.045L425.723 302.238L289.226 223.43L291.285 222.237ZM295.781 219.638L432.278 298.446L430.218 299.639L293.721 220.831L295.781 219.638ZM300.276 217.038L436.773 295.847L434.714 297.04L298.216 218.232L300.276 217.038ZM420.933 224.313L454.068 243.439L455.572 246.692L415.31 223.446L420.933 224.313ZM396.331 220.504L460.656 257.644L462.16 260.897L390.708 219.638L396.331 220.504ZM433.226 226.209L450.766 236.328L452.27 239.581L427.603 225.343L433.226 226.209ZM445.535 228.122L447.481 229.25L448.985 232.503L439.912 227.255L445.535 228.122ZM371.729 216.695L467.244 271.849L468.748 275.103L366.089 215.829L371.712 216.695H371.729ZM359.436 214.799L468.307 277.653L466.247 278.846L353.812 213.933L359.436 214.799ZM347.127 212.903L463.795 280.252L461.735 281.445L341.503 212.036L347.127 212.903ZM384.022 218.608L463.942 264.755L465.446 268.008L378.382 217.741L384.005 218.608H384.022ZM408.624 222.417L457.354 250.55L458.858 253.803L403 221.55L408.624 222.417ZM282.556 307.96L249.421 288.834L247.917 285.581L288.179 308.826L282.556 307.96ZM270.263 306.064L252.723 295.945L251.219 292.692L275.886 306.93L270.263 306.064ZM257.954 304.151L256.008 303.023L254.505 299.77L263.577 305.001L257.954 304.135V304.151ZM237.258 253.427L349.693 318.34L344.07 317.474L235.199 254.62L237.258 253.427ZM337.384 316.444L331.76 315.577L236.245 260.423L234.741 257.17L337.4 316.427L337.384 316.444ZM319.467 313.665L239.547 267.518L238.043 264.265L325.091 314.531L319.467 313.665ZM282.278 227.435L418.775 306.243L416.716 307.437L280.218 228.628L282.278 227.435ZM307.158 311.769L242.833 274.628L241.329 271.375L312.781 312.635L307.158 311.769ZM294.865 309.856L246.135 281.723L244.631 278.47L300.489 310.722L294.865 309.856ZM241.754 250.827L361.986 320.236L356.363 319.37L239.694 252.021L241.754 250.827ZM273.271 232.633L409.768 311.442L407.708 312.635L271.211 233.827L273.271 232.633ZM264.264 237.832L400.761 316.64L398.701 317.833L262.204 239.025L264.264 237.832ZM268.775 235.233L405.273 314.041L403.213 315.234L266.716 236.426L268.775 235.233ZM277.766 230.034L414.264 308.842L412.204 310.036L275.707 231.228L277.766 230.034ZM250.761 245.629L386.588 324.045L380.965 323.179L248.701 246.822L250.761 245.629ZM246.249 248.228L374.279 322.149L368.655 321.282L244.19 249.422L246.249 248.228ZM259.768 240.431L396.266 319.239L394.206 320.432L257.709 241.624L259.768 240.431ZM255.256 243.03L391.754 321.838L389.694 323.032L253.197 244.223L255.256 243.03Z" fill="url(#paint9_linear_2779_35383)"/>
<path style="mix-blend-mode:multiply" opacity="0.5" d="M385.926 253.063L421.326 272.429L408.721 279.325L355.152 250.02L365.05 244.604L385.926 253.063Z" fill="#3D3D3D"/>
<path d="M365.278 217.687L355.381 223.1V239.992L408.95 269.297L421.554 262.4V245.508L365.278 217.687Z" fill="#B80000"/>
<path d="M421.554 245.509L408.95 252.405L355.381 223.1L367.77 216.078L421.554 245.509Z" fill="#C64B4B"/>
<path style="mix-blend-mode:multiply" opacity="0.5" d="M389.566 288.314C390.419 293.51 386.812 298.44 378.751 303.101C371.094 307.526 362.899 309.741 354.164 309.741C353.334 309.741 352.5 309.719 351.66 309.68C341.979 309.218 332.312 306.194 322.65 300.604L315.563 296.505L293.08 309.506L269.096 305.776L349.237 257.935L374.116 272.323C383.565 277.786 388.712 283.12 389.566 288.314ZM361.49 293.798C365.362 291.56 367.162 289.295 366.9 287.005C366.629 284.714 364.243 282.262 359.734 279.657L352.222 275.313L329.102 288.683L334.535 291.826C339.612 294.761 344.418 296.381 348.946 296.68C349.481 296.714 350.011 296.732 350.536 296.732C354.458 296.732 358.109 295.753 361.493 293.798H361.49Z" fill="#3D3D3D"/>
<path d="M389.933 259.053C389.933 258.547 389.897 258.037 389.813 257.523C388.96 252.326 383.812 246.995 374.363 241.532L349.484 227.146L271.594 272.191V291.512L288.109 301.06L315.812 285.041L322.899 289.139C332.562 294.726 342.226 297.751 351.91 298.215C352.75 298.255 353.584 298.276 354.414 298.276C363.149 298.276 371.344 296.065 379.001 291.639C384.077 288.704 389.939 284.207 389.939 278.338V259.014C389.939 259.03 389.939 259.043 389.939 259.059L389.933 259.053ZM350.781 265.944C350.256 265.944 349.723 265.926 349.19 265.891C349.114 265.886 349.038 265.878 348.964 265.873L352.469 263.846L355.301 265.485C353.836 265.791 352.332 265.944 350.784 265.944H350.781Z" fill="#ABABAB"/>
<path d="M352.471 244.522V263.843L355.304 265.482C354.868 265.572 354.427 265.646 353.986 265.709L358.887 271.75L376.457 267.459L377.712 255.092L359.388 241.337L352.469 244.522H352.471Z" fill="#DDDADA"/>
<path d="M315.81 265.711V285.143L288.025 301.051V281.617L315.81 265.711Z" fill="#DDDADA"/>
<path d="M389.813 257.525C390.666 262.722 387.059 267.652 378.998 272.312C371.342 276.738 363.147 278.952 354.411 278.952C353.582 278.952 352.747 278.931 351.907 278.892C342.226 278.43 332.559 275.405 322.897 269.816L315.81 265.717L288.107 281.737L271.594 272.191L349.484 227.146L374.363 241.535C383.812 246.998 388.96 252.332 389.813 257.525ZM361.737 263.007C365.609 260.769 367.409 258.505 367.147 256.214C366.877 253.923 364.491 251.471 359.981 248.866L352.469 244.522L329.349 257.892L334.782 261.035C339.859 263.97 344.665 265.591 349.193 265.889C349.728 265.923 350.259 265.942 350.784 265.942C354.705 265.942 358.356 264.962 361.74 263.007H361.737Z" fill="white"/>
<path d="M408.906 252.447V269.365L421.556 262.724V245.464L408.906 252.447Z" fill="#A12626"/>
<path d="M447.059 228.316L315.842 208.013L233.895 255.321L228.222 243.11L315.842 192.517L447.059 212.819L475.258 273.581L469.585 276.85L447.059 228.316Z" fill="#C6C3C3"/>
<defs>
<filter id="filter0_f_2779_35383" x="145.932" y="-6.3905" width="417.726" height="417.724" filterUnits="userSpaceOnUse" color-interpolation-filters="sRGB">
<feFlood flood-opacity="0" result="BackgroundImageFix"/>
<feBlend mode="normal" in="SourceGraphic" in2="BackgroundImageFix" result="shape"/>
<feGaussianBlur stdDeviation="15.496" result="effect1_foregroundBlur_2779_35383"/>
</filter>
<filter id="filter1_f_2779_35383" x="190.448" y="55.4479" width="312.604" height="271.345" filterUnits="userSpaceOnUse" color-interpolation-filters="sRGB">
<feFlood flood-opacity="0" result="BackgroundImageFix"/>
<feBlend mode="normal" in="SourceGraphic" in2="BackgroundImageFix" result="shape"/>
<feGaussianBlur stdDeviation="1.27606" result="effect1_foregroundBlur_2779_35383"/>
</filter>
<radialGradient id="paint0_radial_2779_35383" cx="0" cy="0" r="1" gradientUnits="userSpaceOnUse" gradientTransform="translate(352.224 227.992) rotate(180) scale(227.681 227.679)">
<stop offset="0.02" stop-color="#FCA999"/>
<stop offset="0.96" stop-color="#F43510" stop-opacity="0"/>
</radialGradient>
<linearGradient id="paint1_linear_2779_35383" x1="45.138" y1="295.7" x2="1127.78" y2="373.12" gradientUnits="userSpaceOnUse">
<stop stop-color="#FF5555"/>
<stop offset="0.11" stop-color="#DF4A4A" stop-opacity="0.88"/>
<stop offset="0.56" stop-color="#682323" stop-opacity="0.41"/>
<stop offset="0.86" stop-color="#1D0A0A" stop-opacity="0.12"/>
<stop offset="1" stop-color="#040000" stop-opacity="0"/>
</linearGradient>
<linearGradient id="paint2_linear_2779_35383" x1="159.838" y1="426.605" x2="629.093" y2="164.873" gradientUnits="userSpaceOnUse">
<stop stop-color="#FF5555"/>
<stop offset="0.11" stop-color="#DF4A4A" stop-opacity="0.88"/>
<stop offset="0.56" stop-color="#682323" stop-opacity="0.41"/>
<stop offset="0.86" stop-color="#1D0A0A" stop-opacity="0.12"/>
<stop offset="1" stop-color="#040000" stop-opacity="0"/>
</linearGradient>
<linearGradient id="paint3_linear_2779_35383" x1="204.869" y1="211.121" x2="49.9491" y2="124.252" gradientUnits="userSpaceOnUse">
<stop stop-color="#FF5555"/>
<stop offset="0.11" stop-color="#DF4A4A" stop-opacity="0.88"/>
<stop offset="0.56" stop-color="#682323" stop-opacity="0.41"/>
<stop offset="0.86" stop-color="#1D0A0A" stop-opacity="0.12"/>
<stop offset="1" stop-color="#040000" stop-opacity="0"/>
</linearGradient>
<linearGradient id="paint4_linear_2779_35383" x1="450.216" y1="359.11" x2="636.979" y2="469.142" gradientUnits="userSpaceOnUse">
<stop stop-color="#FF5555"/>
<stop offset="0.11" stop-color="#DF4A4A" stop-opacity="0.88"/>
<stop offset="0.56" stop-color="#682323" stop-opacity="0.41"/>
<stop offset="0.86" stop-color="#1D0A0A" stop-opacity="0.12"/>
<stop offset="1" stop-color="#040000" stop-opacity="0"/>
</linearGradient>
<linearGradient id="paint5_linear_2779_35383" x1="91.9629" y1="346.001" x2="458.624" y2="549.979" gradientUnits="userSpaceOnUse">
<stop stop-color="#FF5555"/>
<stop offset="0.11" stop-color="#DF4A4A" stop-opacity="0.88"/>
<stop offset="0.56" stop-color="#682323" stop-opacity="0.41"/>
<stop offset="0.86" stop-color="#1D0A0A" stop-opacity="0.12"/>
<stop offset="1" stop-color="#040000" stop-opacity="0"/>
</linearGradient>
<linearGradient id="paint6_linear_2779_35383" x1="194.434" y1="265.801" x2="483.219" y2="391.673" gradientUnits="userSpaceOnUse">
<stop stop-color="#CB9AF3"/>
<stop offset="1" stop-color="white" stop-opacity="0"/>
</linearGradient>
<radialGradient id="paint7_radial_2779_35383" cx="0" cy="0" r="1" gradientUnits="userSpaceOnUse" gradientTransform="translate(349.663 262.515) rotate(-97.2453) scale(282.773 282.771)">
<stop stop-color="#959595"/>
<stop offset="1" stop-opacity="0"/>
</radialGradient>
<linearGradient id="paint8_linear_2779_35383" x1="193.874" y1="268.94" x2="597.955" y2="261.748" gradientUnits="userSpaceOnUse">
<stop stop-color="#CA3A3A"/>
<stop offset="1" stop-color="#0E2332"/>
</linearGradient>
<linearGradient id="paint9_linear_2779_35383" x1="233.106" y1="249.258" x2="515.598" y2="289.456" gradientUnits="userSpaceOnUse">
<stop stop-color="#FEFEFF"/>
<stop offset="1" stop-color="#15061E"/>
</linearGradient>
</defs>
</svg>
