<svg width="630" height="500" viewBox="0 0 630 500" fill="none" xmlns="http://www.w3.org/2000/svg">
<g filter="url(#filter0_f_2779_35383)">
<path d="M475.256 265.647L387.637 316.241L256.419 295.938L228.221 235.177L193 50C193 50 283.551 3.6688 346 3.49998C409.009 3.32964 500.5 50 500.5 50L475.256 265.647Z" fill="url(#paint0_radial_2779_35383)" style="mix-blend-mode:color-dodge"/>
</g>
<path style="mix-blend-mode:screen" d="M370.623 463.658C373.729 463.658 376.835 462.857 379.614 461.255L599.775 334.142C605.414 330.889 608.766 325.069 608.766 318.563C608.766 312.057 605.382 306.238 599.742 303.001L347.737 158.38C342.179 155.193 335.281 155.209 329.739 158.446L111.572 285.69C105.982 288.959 102.647 294.779 102.663 301.252C102.663 307.725 106.031 313.528 111.638 316.782L361.648 461.271C364.427 462.873 367.533 463.674 370.639 463.674L370.623 463.658ZM338.779 157.579C341.591 157.579 344.419 158.299 346.936 159.754L598.941 304.374C604.09 307.333 607.164 312.629 607.18 318.563C607.18 324.497 604.123 329.81 598.99 332.785L378.829 459.898C373.778 462.808 367.484 462.808 362.433 459.898L112.422 315.408C107.306 312.45 104.249 307.153 104.232 301.252C104.232 295.351 107.257 290.038 112.357 287.063L330.524 159.819C333.074 158.331 335.918 157.596 338.779 157.596V157.579Z" fill="url(#paint1_linear_2779_35383)"/>
<path style="mix-blend-mode:color-dodge" d="M361.118 438.843L147.137 315.179C137.361 309.523 137.328 295.432 147.087 289.743L333.819 180.824C338.363 178.175 343.987 178.159 348.548 180.775L564.246 304.553C574.071 310.193 574.103 324.365 564.279 330.038L375.831 438.826C371.286 441.458 365.679 441.458 361.118 438.826V438.843Z" fill="url(#paint2_linear_2779_35383)"/>
<g style="mix-blend-mode:screen">
<path d="M175.183 174.579L102.112 132.388C101.294 132.649 100.232 132.584 99.5453 132.192C98.6953 131.701 98.6953 130.916 99.5453 130.426C100.395 129.936 101.752 129.936 102.602 130.426C103.305 130.835 103.403 131.44 102.946 131.914L174.022 172.961V161.076L119.145 129.396C118.328 129.658 117.265 129.592 116.579 129.2C115.729 128.71 115.729 127.925 116.579 127.435C117.429 126.944 118.786 126.944 119.636 127.435C120.339 127.843 120.437 128.448 119.979 128.922L175.199 160.799V174.595L175.183 174.579ZM85.2581 140.937L152.15 179.565C152.967 179.303 154.03 179.369 154.716 179.761C155.566 180.251 155.566 181.036 154.716 181.526C153.866 182.017 152.51 182.017 151.66 181.526C150.957 181.118 150.859 180.513 151.316 180.039L86.4187 142.572V155.126L126.877 178.486C127.695 178.224 128.757 178.29 129.444 178.682C130.294 179.172 130.294 179.957 129.444 180.447C128.594 180.938 127.237 180.938 126.387 180.447C125.684 180.039 125.586 179.434 126.044 178.96L85.2417 155.404V140.937H85.2581ZM54.3459 153.377C55.196 152.887 56.5528 152.887 57.4028 153.377C58.1057 153.786 58.2039 154.391 57.7461 154.865L122.676 192.348H161.925L190.402 208.793C191.17 208.629 192.069 208.711 192.69 209.071C193.54 209.561 193.54 210.346 192.69 210.836C191.84 211.327 190.484 211.327 189.634 210.836C188.865 210.395 188.8 209.692 189.454 209.202L161.419 193.018H122.17L56.8961 155.339C56.0787 155.6 55.0161 155.535 54.3296 155.143C53.4795 154.652 53.4795 153.867 54.3296 153.377H54.3459ZM206.046 199.688C206.863 199.426 207.926 199.492 208.629 199.884C209.479 200.374 209.479 201.159 208.629 201.649C207.779 202.14 206.422 202.14 205.572 201.649C204.869 201.241 204.771 200.636 205.229 200.162L85.3071 130.933C84.4898 131.194 83.4272 131.129 82.7406 130.737C81.8906 130.246 81.8906 129.462 82.7406 128.971C83.5907 128.481 84.9475 128.481 85.7975 128.971C86.5004 129.38 86.5986 129.985 86.1408 130.459L206.062 199.688H206.046ZM141.851 181.314L101.115 157.791C100.265 158.232 98.9569 158.232 98.1395 157.758C97.2895 157.268 97.2895 156.483 98.1395 155.993C98.9896 155.502 100.346 155.502 101.196 155.993C101.752 156.32 101.932 156.777 101.752 157.186L142.701 180.823L141.884 181.297L141.851 181.314ZM165.309 161.501L164.492 161.975L90.7343 119.392C89.917 119.653 88.8544 119.588 88.1678 119.196C87.3178 118.705 87.3178 117.921 88.1678 117.43C89.0179 116.94 90.3747 116.94 91.2247 117.43C91.9276 117.839 92.0257 118.444 91.568 118.918L165.326 161.501H165.309ZM167.336 186.463H125.848L92.0584 166.961C91.2411 167.223 90.1785 167.157 89.4919 166.765C88.6419 166.275 88.6419 165.49 89.4919 165C90.342 164.509 91.6988 164.509 92.5488 165C93.2517 165.408 93.3499 166.013 92.8922 166.487L126.338 185.793H167.827L215.511 213.321C216.328 213.059 217.391 213.125 218.077 213.517C218.927 214.008 218.927 214.792 218.077 215.283C217.227 215.773 215.87 215.773 215.02 215.283C214.318 214.874 214.219 214.269 214.677 213.795L167.336 186.463ZM215.282 197.252C214.432 197.742 213.075 197.742 212.225 197.252C211.522 196.843 211.424 196.239 211.882 195.764L184.811 180.137V158.788L118.639 120.585C117.821 120.847 116.759 120.781 116.072 120.389C115.222 119.899 115.222 119.114 116.072 118.624C116.922 118.133 118.279 118.133 119.129 118.624C119.832 119.032 119.93 119.637 119.472 120.111L185.988 158.51V179.859L212.716 195.29C213.533 195.029 214.595 195.094 215.282 195.487C216.132 195.977 216.132 196.762 215.282 197.252Z" fill="url(#paint3_linear_2779_35383)"/>
</g>
<g style="mix-blend-mode:screen">
<path d="M561.016 382.087H521.767L493.29 365.642C492.522 365.805 491.623 365.724 491.002 365.364C490.152 364.874 490.152 364.089 491.002 363.599C491.852 363.108 493.208 363.108 494.059 363.599C494.827 364.04 494.892 364.743 494.238 365.233L522.273 381.417H561.522L626.796 419.096C627.613 418.835 628.676 418.9 629.362 419.292C630.213 419.783 630.213 420.567 629.362 421.058C628.512 421.548 627.156 421.548 626.306 421.058C625.603 420.649 625.505 420.044 625.962 419.57L561.032 382.087H561.016ZM477.63 374.763C476.812 375.025 475.75 374.96 475.047 374.567C474.197 374.077 474.197 373.292 475.047 372.802C475.897 372.311 477.254 372.311 478.104 372.802C478.807 373.211 478.905 373.815 478.447 374.289L598.369 443.518C599.186 443.257 600.248 443.322 600.935 443.715C601.785 444.205 601.785 444.99 600.935 445.48C600.085 445.97 598.728 445.97 597.878 445.48C597.175 445.071 597.077 444.466 597.535 443.992L477.613 374.763H477.63ZM598.418 433.514L531.526 394.886C530.708 395.148 529.646 395.083 528.959 394.69C528.109 394.2 528.109 393.415 528.959 392.925C529.809 392.434 531.166 392.434 532.016 392.925C532.719 393.334 532.817 393.938 532.359 394.412L597.257 431.879V419.325L556.798 395.965C555.981 396.227 554.918 396.162 554.232 395.769C553.382 395.279 553.382 394.494 554.232 394.004C555.082 393.513 556.439 393.513 557.289 394.004C557.992 394.412 558.09 395.017 557.632 395.491L598.434 419.047V433.514H598.418ZM541.824 393.121L582.561 416.644C583.411 416.203 584.719 416.203 585.536 416.677C586.386 417.167 586.386 417.952 585.536 418.442C584.686 418.933 583.329 418.933 582.479 418.442C581.924 418.115 581.744 417.658 581.924 417.249L540.974 393.611L541.792 393.137L541.824 393.121ZM465.598 359.169C466.448 358.678 467.805 358.678 468.655 359.169C469.358 359.577 469.456 360.182 468.999 360.656L516.339 387.988H557.828L591.617 407.49C592.435 407.228 593.497 407.294 594.184 407.686C595.034 408.176 595.034 408.961 594.184 409.451C593.334 409.942 591.977 409.942 591.127 409.451C590.424 409.043 590.326 408.438 590.784 407.964L557.338 388.658H515.849L468.165 361.13C467.348 361.392 466.285 361.326 465.598 360.934C464.748 360.444 464.748 359.659 465.598 359.169ZM468.394 377.199C469.244 376.709 470.601 376.709 471.451 377.199C472.154 377.608 472.252 378.213 471.794 378.687L498.865 394.314V415.663L565.037 453.866C565.854 453.604 566.917 453.67 567.604 454.062C568.454 454.552 568.454 455.337 567.604 455.828C566.754 456.318 565.397 456.318 564.547 455.828C563.844 455.419 563.746 454.814 564.203 454.34L497.688 415.941V394.592L470.96 379.161C470.143 379.422 469.08 379.357 468.394 378.965C467.544 378.474 467.544 377.69 468.394 377.199ZM518.366 412.933L519.184 412.459L592.941 455.043C593.759 454.781 594.821 454.847 595.508 455.239C596.358 455.729 596.358 456.514 595.508 457.005C594.658 457.495 593.301 457.495 592.451 457.005C591.748 456.596 591.65 455.991 592.108 455.517L518.35 412.933H518.366ZM508.493 399.872L581.564 442.063C582.381 441.802 583.444 441.867 584.13 442.26C584.98 442.75 584.98 443.535 584.13 444.025C583.28 444.515 581.924 444.515 581.073 444.025C580.371 443.616 580.272 443.012 580.73 442.538L509.654 401.491V413.375L564.53 445.055C565.348 444.793 566.41 444.859 567.097 445.251C567.947 445.742 567.947 446.526 567.097 447.017C566.247 447.507 564.89 447.507 564.04 447.017C563.337 446.608 563.239 446.003 563.697 445.529L508.477 413.653V399.856L508.493 399.872Z" fill="url(#paint4_linear_2779_35383)"/>
</g>
<path style="mix-blend-mode:color-dodge" d="M221.692 410.336C224.897 408.489 230.079 408.489 233.266 410.336C236.47 412.183 236.47 415.175 233.266 417.022C230.062 418.869 224.88 418.869 221.692 417.022C218.488 415.175 218.488 412.183 221.692 410.336ZM248.305 425.702C251.509 423.855 256.691 423.855 259.879 425.702C263.083 427.549 263.083 430.541 259.879 432.388C256.675 434.235 251.493 434.235 248.305 432.388C245.101 430.541 245.101 427.549 248.305 425.702ZM274.918 441.068C278.122 439.221 283.304 439.221 286.492 441.068C289.696 442.915 289.696 445.907 286.492 447.754C283.288 449.601 278.106 449.601 274.918 447.754C271.714 445.907 271.714 442.915 274.918 441.068ZM301.531 456.434C304.735 454.587 309.917 454.587 313.105 456.434C316.309 458.281 316.309 461.273 313.105 463.12C309.901 464.967 304.719 464.967 301.531 463.12C298.327 461.273 298.327 458.281 301.531 456.434ZM115.241 348.872C118.445 347.025 123.627 347.025 126.815 348.872C130.019 350.719 130.019 353.711 126.815 355.558C123.611 357.405 118.429 357.405 115.241 355.558C112.037 353.711 112.037 350.719 115.241 348.872ZM141.854 364.238C145.058 362.391 150.24 362.391 153.428 364.238C156.632 366.085 156.632 369.077 153.428 370.924C150.223 372.771 145.042 372.771 141.854 370.924C138.666 369.077 138.65 366.085 141.854 364.238ZM168.467 379.604C171.671 377.757 176.853 377.757 180.04 379.604C183.244 381.451 183.244 384.443 180.04 386.29C176.836 388.137 171.654 388.137 168.467 386.29C165.279 384.443 165.263 381.451 168.467 379.604ZM195.08 394.97C198.284 393.123 203.466 393.123 206.653 394.97C209.857 396.817 209.857 399.809 206.653 401.656C203.449 403.503 198.267 403.503 195.08 401.656C191.876 399.809 191.876 396.817 195.08 394.97Z" fill="url(#paint5_linear_2779_35383)"/>
<path d="M204.275 227.526L312.23 165.212L459.696 188.016L499.207 273.167L391.252 335.481L243.785 312.677L204.275 227.526Z" fill="white"/>
<path d="M204.273 227.526L243.783 312.677V355.391L204.273 270.257V227.526Z" fill="#D6D6D6"/>
<path d="M499.207 273.168V315.882L391.252 378.213V335.482L499.207 273.168Z" fill="#F0EEEE"/>
<path d="M391.248 335.483L243.782 312.679V355.393L391.248 378.213V335.483Z" fill="#D6D6D6"/>
<path style="mix-blend-mode:overlay" d="M205.207 229.537V268.394L244.717 353.544L392.183 376.348L499.207 314.557V315.881L391.252 378.212L243.785 355.391L204.275 270.257V227.526L205.207 229.537Z" fill="url(#paint6_linear_2779_35383)"/>
<path d="M469.582 268.852L447.056 220.318L315.839 200.016L233.891 247.323L256.401 295.906L387.602 316.242L469.582 268.852Z" fill="url(#paint7_linear_2779_35383)"/>
<path style="mix-blend-mode:overlay" d="M304.788 206.439L441.285 285.248L439.225 286.441L302.728 207.633L304.788 206.439ZM309.283 203.84L445.781 282.648L443.721 283.842L307.224 205.034L309.283 203.84ZM313.795 201.241L450.292 280.049L448.233 281.243L311.735 202.434L313.795 201.241ZM322.524 201.094L454.788 277.45L452.728 278.643L316.901 200.228L322.524 201.094ZM334.834 202.99L459.299 274.851L457.24 276.044L329.21 202.124L334.834 202.99ZM286.773 216.836L423.271 295.644L421.211 296.838L284.714 218.029L286.773 216.836ZM291.285 214.237L427.783 293.045L425.723 294.238L289.226 215.43L291.285 214.237ZM295.781 211.638L432.278 290.446L430.218 291.639L293.721 212.831L295.781 211.638ZM300.276 209.038L436.773 287.847L434.714 289.04L298.216 210.232L300.276 209.038ZM420.933 216.313L454.068 235.439L455.572 238.692L415.31 215.446L420.933 216.313ZM396.331 212.504L460.656 249.644L462.16 252.897L390.708 211.638L396.331 212.504ZM433.226 218.209L450.766 228.328L452.27 231.581L427.603 217.343L433.226 218.209ZM445.535 220.122L447.481 221.25L448.985 224.503L439.912 219.255L445.535 220.122ZM371.729 208.695L467.244 263.849L468.748 267.103L366.089 207.829L371.712 208.695H371.729ZM359.436 206.799L468.307 269.653L466.247 270.846L353.812 205.933L359.436 206.799ZM347.127 204.903L463.795 272.252L461.735 273.445L341.503 204.036L347.127 204.903ZM384.022 210.608L463.942 256.755L465.446 260.008L378.382 209.741L384.005 210.608H384.022ZM408.624 214.417L457.354 242.55L458.858 245.803L403 213.55L408.624 214.417ZM282.556 299.96L249.421 280.834L247.917 277.581L288.179 300.826L282.556 299.96ZM270.263 298.064L252.723 287.945L251.219 284.692L275.886 298.93L270.263 298.064ZM257.954 296.151L256.008 295.023L254.505 291.77L263.577 297.001L257.954 296.135V296.151ZM237.258 245.427L349.693 310.34L344.07 309.474L235.199 246.62L237.258 245.427ZM337.384 308.444L331.76 307.577L236.245 252.423L234.741 249.17L337.4 308.427L337.384 308.444ZM319.467 305.665L239.547 259.518L238.043 256.265L325.091 306.531L319.467 305.665ZM282.278 219.435L418.775 298.243L416.716 299.437L280.218 220.628L282.278 219.435ZM307.158 303.769L242.833 266.628L241.329 263.375L312.781 304.635L307.158 303.769ZM294.865 301.856L246.135 273.723L244.631 270.47L300.489 302.722L294.865 301.856ZM241.754 242.827L361.986 312.236L356.363 311.37L239.694 244.021L241.754 242.827ZM273.271 224.633L409.768 303.442L407.708 304.635L271.211 225.827L273.271 224.633ZM264.264 229.832L400.761 308.64L398.701 309.833L262.204 231.025L264.264 229.832ZM268.775 227.233L405.273 306.041L403.213 307.234L266.716 228.426L268.775 227.233ZM277.766 222.034L414.264 300.842L412.204 302.036L275.707 223.228L277.766 222.034ZM250.761 237.629L386.588 316.045L380.965 315.179L248.701 238.822L250.761 237.629ZM246.249 240.228L374.279 314.149L368.655 313.282L244.19 241.422L246.249 240.228ZM259.768 232.431L396.266 311.239L394.206 312.432L257.709 233.624L259.768 232.431ZM255.256 235.03L391.754 313.838L389.694 315.032L253.197 236.223L255.256 235.03Z" fill="url(#paint8_linear_2779_35383)"/>
<path style="mix-blend-mode:multiply" opacity="0.5" d="M385.926 245.063L421.326 264.429L408.721 271.325L355.152 242.02L365.05 236.604L385.926 245.063Z" fill="#3D3D3D"/>
<path d="M365.278 209.687L355.381 215.1V231.992L408.95 261.297L421.554 254.4V237.508L365.278 209.687Z" fill="#B80000"/>
<path d="M421.554 237.509L408.95 244.405L355.381 215.1L367.77 208.078L421.554 237.509Z" fill="#C64B4B"/>
<path style="mix-blend-mode:multiply" opacity="0.5" d="M389.566 280.314C390.419 285.51 386.812 290.44 378.751 295.101C371.094 299.526 362.899 301.741 354.164 301.741C353.334 301.741 352.5 301.719 351.66 301.68C341.979 301.218 332.312 298.194 322.65 292.604L315.563 288.505L293.08 301.506L269.096 297.776L349.237 249.935L374.116 264.323C383.565 269.786 388.712 275.12 389.566 280.314ZM361.49 285.798C365.362 283.56 367.162 281.295 366.9 279.005C366.629 276.714 364.243 274.262 359.734 271.657L352.222 267.313L329.102 280.683L334.535 283.826C339.612 286.761 344.418 288.381 348.946 288.68C349.481 288.714 350.011 288.732 350.536 288.732C354.458 288.732 358.109 287.753 361.493 285.798H361.49Z" fill="#3D3D3D"/>
<path d="M389.933 251.053C389.933 250.547 389.897 250.037 389.813 249.523C388.96 244.326 383.812 238.995 374.363 233.532L349.484 219.146L271.594 264.191V283.512L288.109 293.06L315.812 277.041L322.899 281.139C332.562 286.726 342.226 289.751 351.91 290.215C352.75 290.255 353.584 290.276 354.414 290.276C363.149 290.276 371.344 288.065 379.001 283.639C384.077 280.704 389.939 276.207 389.939 270.338V251.014C389.939 251.03 389.939 251.043 389.939 251.059L389.933 251.053ZM350.781 257.944C350.256 257.944 349.723 257.926 349.19 257.891C349.114 257.886 349.038 257.878 348.964 257.873L352.469 255.846L355.301 257.485C353.836 257.791 352.332 257.944 350.784 257.944H350.781Z" fill="#ABABAB"/>
<path d="M352.471 236.522V255.843L355.304 257.482C354.868 257.572 354.427 257.646 353.986 257.709L358.887 263.75L376.457 259.459L377.712 247.092L359.388 233.337L352.469 236.522H352.471Z" fill="#DDDADA"/>
<path d="M315.81 257.711V277.143L288.025 293.051V273.617L315.81 257.711Z" fill="#DDDADA"/>
<path d="M389.813 249.525C390.666 254.722 387.059 259.652 378.998 264.312C371.342 268.738 363.147 270.952 354.411 270.952C353.582 270.952 352.747 270.931 351.907 270.892C342.226 270.43 332.559 267.405 322.897 261.816L315.81 257.717L288.107 273.737L271.594 264.191L349.484 219.146L374.363 233.535C383.812 238.998 388.96 244.332 389.813 249.525ZM361.737 255.007C365.609 252.769 367.409 250.505 367.147 248.214C366.877 245.923 364.491 243.471 359.981 240.866L352.469 236.522L329.349 249.892L334.782 253.035C339.859 255.97 344.665 257.591 349.193 257.889C349.728 257.923 350.259 257.942 350.784 257.942C354.705 257.942 358.356 256.962 361.74 255.007H361.737Z" fill="white"/>
<path d="M408.906 244.447V261.365L421.556 254.724V237.464L408.906 244.447Z" fill="#A12626"/>
<path d="M447.059 220.316L315.842 200.013L233.895 247.321L228.222 235.11L315.842 184.517L447.059 204.819L475.258 265.581L469.585 268.85L447.059 220.316Z" fill="#C6C3C3"/>
<defs>
<filter id="filter0_f_2779_35383" x="190.448" y="0.947391" width="312.604" height="317.845" filterUnits="userSpaceOnUse" color-interpolation-filters="sRGB">
<feFlood flood-opacity="0" result="BackgroundImageFix"/>
<feBlend mode="normal" in="SourceGraphic" in2="BackgroundImageFix" result="shape"/>
<feGaussianBlur stdDeviation="1.27606" result="effect1_foregroundBlur_2779_35383"/>
</filter>
<radialGradient id="paint0_radial_2779_35383" cx="0" cy="0" r="1" gradientUnits="userSpaceOnUse" gradientTransform="translate(349.663 254.515) rotate(-97.2453) scale(282.773 282.771)">
<stop stop-color="#D8D7D7"/>
<stop offset="0.79" stop-opacity="0"/>
</radialGradient>
<linearGradient id="paint1_linear_2779_35383" x1="45.138" y1="287.7" x2="1127.78" y2="365.12" gradientUnits="userSpaceOnUse">
<stop stop-color="#FF5555"/>
<stop offset="0.11" stop-color="#DF4A4A" stop-opacity="0.88"/>
<stop offset="0.56" stop-color="#682323" stop-opacity="0.41"/>
<stop offset="0.86" stop-color="#1D0A0A" stop-opacity="0.12"/>
<stop offset="1" stop-color="#040000" stop-opacity="0"/>
</linearGradient>
<linearGradient id="paint2_linear_2779_35383" x1="159.838" y1="418.605" x2="629.093" y2="156.873" gradientUnits="userSpaceOnUse">
<stop stop-color="#FF5555"/>
<stop offset="0.11" stop-color="#DF4A4A" stop-opacity="0.88"/>
<stop offset="0.56" stop-color="#682323" stop-opacity="0.41"/>
<stop offset="0.86" stop-color="#1D0A0A" stop-opacity="0.12"/>
<stop offset="1" stop-color="#040000" stop-opacity="0"/>
</linearGradient>
<linearGradient id="paint3_linear_2779_35383" x1="204.869" y1="203.121" x2="49.9491" y2="116.252" gradientUnits="userSpaceOnUse">
<stop stop-color="#FF5555"/>
<stop offset="0.11" stop-color="#DF4A4A" stop-opacity="0.88"/>
<stop offset="0.56" stop-color="#682323" stop-opacity="0.41"/>
<stop offset="0.86" stop-color="#1D0A0A" stop-opacity="0.12"/>
<stop offset="1" stop-color="#040000" stop-opacity="0"/>
</linearGradient>
<linearGradient id="paint4_linear_2779_35383" x1="450.216" y1="351.11" x2="636.979" y2="461.142" gradientUnits="userSpaceOnUse">
<stop stop-color="#FF5555"/>
<stop offset="0.11" stop-color="#DF4A4A" stop-opacity="0.88"/>
<stop offset="0.56" stop-color="#682323" stop-opacity="0.41"/>
<stop offset="0.86" stop-color="#1D0A0A" stop-opacity="0.12"/>
<stop offset="1" stop-color="#040000" stop-opacity="0"/>
</linearGradient>
<linearGradient id="paint5_linear_2779_35383" x1="91.9629" y1="338.001" x2="458.624" y2="541.98" gradientUnits="userSpaceOnUse">
<stop stop-color="#FF5555"/>
<stop offset="0.11" stop-color="#DF4A4A" stop-opacity="0.88"/>
<stop offset="0.56" stop-color="#682323" stop-opacity="0.41"/>
<stop offset="0.86" stop-color="#1D0A0A" stop-opacity="0.12"/>
<stop offset="1" stop-color="#040000" stop-opacity="0"/>
</linearGradient>
<linearGradient id="paint6_linear_2779_35383" x1="194.434" y1="257.801" x2="483.219" y2="383.673" gradientUnits="userSpaceOnUse">
<stop stop-color="#CB9AF3"/>
<stop offset="1" stop-color="white" stop-opacity="0"/>
</linearGradient>
<linearGradient id="paint7_linear_2779_35383" x1="193.874" y1="260.94" x2="597.955" y2="253.748" gradientUnits="userSpaceOnUse">
<stop stop-color="#CA3A3A"/>
<stop offset="1" stop-color="#0E2332"/>
</linearGradient>
<linearGradient id="paint8_linear_2779_35383" x1="233.106" y1="241.258" x2="515.598" y2="281.456" gradientUnits="userSpaceOnUse">
<stop stop-color="#FEFEFF"/>
<stop offset="1" stop-color="#15061E"/>
</linearGradient>
</defs>
</svg>
