<svg width="577" height="789" viewBox="0 0 577 789" fill="none" xmlns="http://www.w3.org/2000/svg">
<path style="mix-blend-mode:screen" d="M576.041 169.995H450.812V789.955H576.041V169.995Z" fill="url(#paint0_linear_2789_35527)"/>
<path style="mix-blend-mode:screen" d="M450.815 299.985H325.586V789.956H450.815V299.985Z" fill="url(#paint1_linear_2789_35527)"/>
<path style="mix-blend-mode:screen" d="M325.584 429.975H200.355V789.956H325.584V429.975Z" fill="url(#paint2_linear_2789_35527)"/>
<path style="mix-blend-mode:screen" d="M200.366 559.972H0V789.956H200.366V559.972Z" fill="url(#paint3_linear_2789_35527)"/>
<path style="mix-blend-mode:screen" opacity="0.1" d="M250.447 169.996L350.63 209.994L450.814 169.996L350.63 129.998L250.447 169.996Z" fill="url(#paint4_linear_2789_35527)"/>
<path style="mix-blend-mode:screen" opacity="0.1" d="M0 429.974L100.183 469.971L200.356 429.974L100.183 389.976L0 429.974Z" fill="url(#paint5_linear_2789_35527)"/>
<path style="mix-blend-mode:screen" opacity="0.1" d="M125.229 299.984L225.401 339.982L325.585 299.984L225.401 259.986L125.229 299.984Z" fill="url(#paint6_linear_2789_35527)"/>
<path style="mix-blend-mode:screen" opacity="0.1" d="M375.676 39.998L475.859 79.9959L576.042 39.998L475.859 0L375.676 39.998Z" fill="url(#paint7_linear_2789_35527)"/>
<path d="M576.045 39.998L475.861 79.996V789.956H576.045V39.998Z" fill="#CC2E35"/>
<path d="M375.678 39.998L475.861 79.996V789.956H375.678V39.998Z" fill="#E13C43"/>
<path d="M375.678 39.998L475.861 79.9959L576.044 39.998L475.861 0L375.678 39.998Z" fill="#D1484D"/>
<path d="M450.814 169.995L350.631 209.993V789.955H450.814V169.995Z" fill="#181818"/>
<path d="M250.447 169.995L350.63 209.993V789.955H250.447V169.995Z" fill="#212121"/>
<path d="M250.447 169.995L350.63 209.993L450.814 169.995L350.63 129.997L250.447 169.995Z" fill="#2E2E2E"/>
<path d="M325.173 299.983L224.99 339.981V789.954H325.173V299.983Z" fill="#C3CBD5"/>
<path d="M125.227 299.983L225.399 339.981V789.954H125.227V299.983Z" fill="white"/>
<path d="M125.227 299.983L225.399 339.981L325.583 299.983L225.399 259.985L125.227 299.983Z" fill="#E1E5EA"/>
<path d="M200.356 429.973L100.184 469.971V789.954H200.356V429.973Z" fill="#181818"/>
<path d="M0 429.531L100.183 469.529V789.513H0V429.531Z" fill="#212121"/>
<path d="M0 429.973L100.183 469.97L200.356 429.973L100.183 389.975L0 429.973Z" fill="#2E2E2E"/>
<g filter="url(#filter0_i_2789_35527)">
<path d="M543.065 104.698C543.065 107.343 542.486 109.983 541.328 112.618C540.209 115.197 538.492 117.592 536.177 119.804C533.9 121.959 531.102 123.674 527.784 124.948L522.169 127.103V141.859L510.824 146.214V102.504L527.784 95.9936C531.064 94.7345 533.842 94.288 536.119 94.6541C538.434 95.0054 540.171 96.0541 541.328 97.8004C542.486 99.5467 543.065 101.846 543.065 104.698ZM526.684 115.698C529.887 114.468 531.488 112.283 531.488 109.142C531.488 105.959 529.887 104.982 526.684 106.212L522.169 107.945V117.431L526.684 115.698ZM524.713 167.906V175.036L537.736 170.037V179.275L524.713 184.274V192.148L539.473 186.483V196.217L513.368 206.237V162.527L539.473 152.507V162.241L524.713 167.906ZM530.754 260.564L522.65 247.554L521.435 248.021V264.141L510.09 268.496V224.786L527.975 217.92C531.255 216.661 534.034 216.215 536.31 216.581C538.587 216.905 540.304 217.92 541.462 219.625C542.619 221.289 543.198 223.443 543.198 226.089C543.198 229.065 542.426 231.986 540.883 234.851C539.378 237.661 537.159 240.104 534.226 242.181L543.43 255.698L530.754 260.564ZM521.435 239.713L527.049 237.558C528.593 236.965 529.75 236.128 530.522 235.047C531.294 233.965 531.68 232.68 531.68 231.192C531.68 229.787 531.274 228.847 530.464 228.373C529.692 227.842 528.554 227.866 527.049 228.444L521.435 230.599V239.713ZM526.673 323.564C521.927 325.386 518.03 325.683 514.981 324.456C511.933 323.188 510.293 320.345 510.061 315.929L522.158 311.285C522.274 312.77 522.699 313.723 523.432 314.144C524.165 314.565 525.11 314.554 526.268 314.109C527.31 313.71 528.159 313.115 528.815 312.326C529.51 311.481 529.857 310.562 529.857 309.57C529.857 308.289 529.297 307.511 528.178 307.238C527.059 306.965 525.246 306.876 522.737 306.971C520.075 307.042 517.914 306.962 516.255 306.731C514.634 306.444 513.206 305.69 511.971 304.47C510.775 303.193 510.177 301.17 510.177 298.4C510.177 295.59 510.833 292.94 512.145 290.453C513.457 287.924 515.271 285.698 517.586 283.776C519.901 281.854 522.525 280.33 525.458 279.205C530.204 277.383 533.986 277.13 536.803 278.446C539.658 279.706 541.182 282.448 541.375 286.672L529.046 291.405C529.008 290.097 528.622 289.253 527.889 288.873C527.194 288.479 526.287 288.496 525.168 288.926C524.319 289.252 523.625 289.787 523.085 290.532C522.544 291.276 522.274 292.145 522.274 293.137C522.274 293.963 522.564 294.575 523.142 294.973C523.76 295.315 524.512 295.543 525.4 295.657C526.287 295.729 527.599 295.763 529.336 295.758C531.921 295.716 534.044 295.852 535.703 296.166C537.401 296.423 538.848 297.17 540.044 298.405C541.279 299.585 541.896 301.456 541.896 304.018C541.896 306.622 541.279 309.195 540.044 311.735C538.848 314.261 537.092 316.568 534.777 318.655C532.5 320.728 529.799 322.364 526.673 323.564ZM531.666 338.504V382.214L520.321 386.568V342.858L531.666 338.504ZM526.673 445.564C521.927 447.386 518.03 447.683 514.981 446.456C511.933 445.188 510.293 442.345 510.061 437.929L522.158 433.285C522.274 434.77 522.699 435.723 523.432 436.144C524.165 436.565 525.11 436.554 526.268 436.109C527.31 435.71 528.159 435.115 528.815 434.326C529.51 433.481 529.857 432.562 529.857 431.57C529.857 430.289 529.297 429.511 528.178 429.238C527.059 428.965 525.246 428.876 522.737 428.971C520.075 429.042 517.914 428.962 516.255 428.731C514.634 428.444 513.206 427.69 511.971 426.47C510.775 425.193 510.177 423.17 510.177 420.4C510.177 417.59 510.833 414.94 512.145 412.453C513.457 409.924 515.271 407.698 517.586 405.776C519.901 403.854 522.525 402.33 525.458 401.205C530.204 399.383 533.986 399.13 536.803 400.446C539.658 401.706 541.182 404.448 541.375 408.672L529.046 413.405C529.008 412.097 528.622 411.253 527.889 410.873C527.194 410.479 526.287 410.496 525.168 410.926C524.319 411.252 523.625 411.787 523.085 412.532C522.544 413.276 522.274 414.145 522.274 415.137C522.274 415.963 522.564 416.575 523.142 416.973C523.76 417.315 524.512 417.543 525.4 417.657C526.287 417.729 527.599 417.763 529.336 417.758C531.921 417.716 534.044 417.852 535.703 418.166C537.401 418.423 538.848 419.17 540.044 420.405C541.279 421.585 541.896 423.456 541.896 426.018C541.896 428.622 541.279 431.195 540.044 433.735C538.848 436.261 537.092 438.568 534.777 440.655C532.5 442.728 529.799 444.364 526.673 445.564ZM542.492 456.348V466.02L531.611 470.197V504.235L520.266 508.59V474.552L509.5 478.684V469.012L542.492 456.348ZM524.713 533.906V541.036L537.736 536.037V545.275L524.713 550.274V558.148L539.473 552.483V562.217L513.368 572.237V528.527L539.473 518.507V528.241L524.713 533.906ZM544.891 621.137L533.546 625.492L518.439 606.863V631.291L507.094 635.646V591.936L518.439 587.581L533.546 606.52V581.782L544.891 577.427V621.137ZM505.902 675.155C505.902 670.856 506.732 666.715 508.391 662.73C510.089 658.689 512.482 655.146 515.569 652.101C518.656 649.014 522.206 646.701 526.219 645.16C531.313 643.205 535.596 643.028 539.069 644.63C542.542 646.19 544.78 649.278 545.783 653.894L533.57 658.583C532.837 657.211 531.814 656.342 530.502 655.978C529.229 655.599 527.743 655.735 526.045 656.387C523.421 657.394 521.318 659.214 519.736 661.847C518.193 664.423 517.421 667.386 517.421 670.734C517.421 674.123 518.193 676.534 519.736 677.967C521.318 679.343 523.421 679.528 526.045 678.521C527.743 677.869 529.229 676.865 530.502 675.508C531.814 674.136 532.837 672.483 533.57 670.549L545.783 665.86C544.78 671.247 542.542 676.074 539.069 680.342C535.596 684.568 531.313 687.659 526.219 689.614C522.206 691.155 518.656 691.588 515.569 690.913C512.482 690.196 510.089 688.49 508.391 685.794C506.732 683.041 505.902 679.495 505.902 675.155ZM524.713 716.906V724.036L537.736 719.037V728.275L524.713 733.274V741.148L539.473 735.483V745.217L513.368 755.237V711.527L539.473 701.507V711.241L524.713 716.906Z" fill="#E1E5EA"/>
</g>
<g opacity="0.4" filter="url(#filter1_i_2789_35527)">
<path d="M284.277 347.565V381.405L275.494 384.776V350.936L284.277 347.565ZM294.516 424.474L285.733 427.846L274.037 413.424V432.336L265.254 435.707V401.867L274.037 398.496L285.733 413.158V394.006L294.516 390.634V424.474ZM292.659 438.347V445.835L284.234 449.069V475.421L275.451 478.793V452.441L267.116 455.64V448.152L292.659 438.347ZM278.894 498.167V503.687L288.977 499.817V506.969L278.894 510.839V516.935L290.321 512.549V520.085L270.111 527.843V494.003L290.321 486.245V493.781L278.894 498.167ZM285.594 546.195C285.086 545.494 284.384 545.076 283.488 544.94C282.621 544.792 281.591 544.948 280.396 545.407C278.185 546.255 276.437 547.694 275.153 549.723C273.898 551.741 273.271 554.046 273.271 556.638C273.271 559.55 273.943 561.516 275.287 562.536C276.661 563.512 278.648 563.501 281.247 562.504C284.324 561.323 286.52 558.992 287.834 555.511L279.007 558.9V552.132L295.408 545.836V554.956C294.721 557.012 293.705 559.082 292.36 561.166C291.046 563.238 289.373 565.177 287.342 566.98C285.31 568.752 282.995 570.137 280.396 571.135C277.229 572.35 274.421 572.708 271.971 572.209C269.551 571.665 267.669 570.356 266.325 568.28C265.01 566.16 264.353 563.421 264.353 560.061C264.353 556.733 265.01 553.52 266.325 550.424C267.669 547.284 269.551 544.529 271.971 542.161C274.391 539.76 277.184 537.951 280.351 536.736C284.324 535.211 287.61 534.973 290.21 536.023C292.809 537.074 294.422 539.254 295.049 542.566L285.594 546.195ZM283.571 616.676L277.297 606.604L276.356 606.965V619.445L267.573 622.817V588.977L281.42 583.662C283.959 582.687 286.11 582.341 287.873 582.624C289.635 582.876 290.965 583.662 291.861 584.982C292.757 586.269 293.205 587.937 293.205 589.985C293.205 592.289 292.608 594.551 291.413 596.77C290.248 598.945 288.53 600.836 286.259 602.444L293.385 612.909L283.571 616.676ZM276.356 600.533L280.703 598.865C281.898 598.406 282.794 597.758 283.391 596.921C283.989 596.083 284.288 595.089 284.288 593.937C284.288 592.849 283.974 592.121 283.347 591.754C282.749 591.343 281.868 591.361 280.703 591.809L276.356 593.477V600.533ZM284.277 629.565V663.405L275.494 666.776V632.936L284.277 629.565ZM292.659 673.347V680.835L284.234 684.069V710.421L275.451 713.793V687.441L267.116 690.64V683.152L292.659 673.347ZM295.4 719.295L284.287 746.649V757.401L275.459 760.79V750.038L264.346 731.216L274.383 727.363L279.94 738.285L285.497 723.096L295.4 719.295Z" fill="#2E2E2E"/>
</g>
<g opacity="0.4" filter="url(#filter2_i_2789_35527)">
<path d="M164.945 479.048V505.838L157.992 508.507V497.753L149.513 501.008V511.762L142.56 514.431V487.641L149.513 484.972V495.042L157.992 491.787V481.717L164.945 479.048ZM149.926 521.814V537.356C149.926 538.8 150.233 539.796 150.848 540.345C151.487 540.886 152.445 540.911 153.722 540.42C154.999 539.93 155.957 539.17 156.595 538.139C157.257 537.074 157.589 535.833 157.589 534.414V518.872L164.542 516.203V531.745C164.542 534.202 164.057 536.491 163.087 538.611C162.118 540.706 160.793 542.519 159.114 544.05C157.458 545.547 155.614 546.686 153.58 547.467C151.546 548.248 149.725 548.516 148.116 548.272C146.532 547.994 145.278 547.17 144.356 545.802C143.457 544.424 143.008 542.494 143.008 540.011V524.469L149.926 521.814ZM168.362 551.737V578.527L161.408 581.196V566.414L156.69 583.007L150.872 585.24L146.118 572.169V587.065L139.165 589.734V562.944L147.573 559.717L153.852 574.71L159.989 554.95L168.362 551.737ZM157.239 593.006V619.796L150.286 622.465V595.675L157.239 593.006ZM153.982 652.346L161.752 649.364V655.064L147.029 660.715V633.925L153.982 631.256V652.346ZM157.239 667.006V693.796L150.286 696.465V669.675L157.239 667.006ZM163.875 701.459V707.387L157.205 709.947V730.809L150.252 733.478V712.616L143.654 715.149V709.221L163.875 701.459ZM166.045 737.626L157.247 759.281V767.793L150.258 770.476V761.964L141.46 747.063L149.407 744.013L153.806 752.66L158.205 740.635L166.045 737.626Z" fill="#E1E5EA"/>
</g>
<defs>
<filter id="filter0_i_2789_35527" x="505.902" y="89.0845" width="39.8809" height="671.019" filterUnits="userSpaceOnUse" color-interpolation-filters="sRGB">
<feFlood flood-opacity="0" result="BackgroundImageFix"/>
<feBlend mode="normal" in="SourceGraphic" in2="BackgroundImageFix" result="shape"/>
<feColorMatrix in="SourceAlpha" type="matrix" values="0 0 0 0 0 0 0 0 0 0 0 0 0 0 0 0 0 0 127 0" result="hardAlpha"/>
<feOffset dy="4"/>
<feGaussianBlur stdDeviation="1"/>
<feComposite in2="hardAlpha" operator="arithmetic" k2="-1" k3="1"/>
<feColorMatrix type="matrix" values="0 0 0 0 0 0 0 0 0 0 0 0 0 0 0 0 0 0 0.25 0"/>
<feBlend mode="normal" in2="shape" result="effect1_innerShadow_2789_35527"/>
</filter>
<filter id="filter1_i_2789_35527" x="264.346" y="343.292" width="31.0625" height="425.764" filterUnits="userSpaceOnUse" color-interpolation-filters="sRGB">
<feFlood flood-opacity="0" result="BackgroundImageFix"/>
<feBlend mode="normal" in="SourceGraphic" in2="BackgroundImageFix" result="shape"/>
<feColorMatrix in="SourceAlpha" type="matrix" values="0 0 0 0 0 0 0 0 0 0 0 0 0 0 0 0 0 0 127 0" result="hardAlpha"/>
<feOffset dy="4"/>
<feGaussianBlur stdDeviation="2"/>
<feComposite in2="hardAlpha" operator="arithmetic" k2="-1" k3="1"/>
<feColorMatrix type="matrix" values="0 0 0 0 0 0 0 0 0 0 0 0 0 0 0 0 0 0 0.25 0"/>
<feBlend mode="normal" in2="shape" result="effect1_innerShadow_2789_35527"/>
</filter>
<filter id="filter2_i_2789_35527" x="139.164" y="477.737" width="29.1973" height="298.998" filterUnits="userSpaceOnUse" color-interpolation-filters="sRGB">
<feFlood flood-opacity="0" result="BackgroundImageFix"/>
<feBlend mode="normal" in="SourceGraphic" in2="BackgroundImageFix" result="shape"/>
<feColorMatrix in="SourceAlpha" type="matrix" values="0 0 0 0 0 0 0 0 0 0 0 0 0 0 0 0 0 0 127 0" result="hardAlpha"/>
<feOffset dy="4"/>
<feGaussianBlur stdDeviation="1"/>
<feComposite in2="hardAlpha" operator="arithmetic" k2="-1" k3="1"/>
<feColorMatrix type="matrix" values="0 0 0 0 0 0 0 0 0 0 0 0 0 0 0 0 0 0 0.25 0"/>
<feBlend mode="normal" in2="shape" result="effect1_innerShadow_2789_35527"/>
</filter>
<linearGradient id="paint0_linear_2789_35527" x1="513.432" y1="919.944" x2="513.432" y2="169.987" gradientUnits="userSpaceOnUse">
<stop stop-color="#00B0B5"/>
<stop offset="0.03" stop-color="#00A1A6"/>
<stop offset="0.15" stop-color="#00777A"/>
<stop offset="0.27" stop-color="#005254"/>
<stop offset="0.39" stop-color="#003435"/>
<stop offset="0.52" stop-color="#001D1E"/>
<stop offset="0.66" stop-color="#000C0D"/>
<stop offset="0.81" stop-color="#000303"/>
<stop offset="1"/>
</linearGradient>
<linearGradient id="paint1_linear_2789_35527" x1="388.206" y1="1049.94" x2="388.206" y2="299.985" gradientUnits="userSpaceOnUse">
<stop stop-color="#00B0B5"/>
<stop offset="0.03" stop-color="#00A1A6"/>
<stop offset="0.15" stop-color="#00777A"/>
<stop offset="0.27" stop-color="#005254"/>
<stop offset="0.39" stop-color="#003435"/>
<stop offset="0.52" stop-color="#001D1E"/>
<stop offset="0.66" stop-color="#000C0D"/>
<stop offset="0.81" stop-color="#000303"/>
<stop offset="1"/>
</linearGradient>
<linearGradient id="paint2_linear_2789_35527" x1="262.975" y1="1179.93" x2="262.975" y2="429.975" gradientUnits="userSpaceOnUse">
<stop stop-color="#00B0B5"/>
<stop offset="0.03" stop-color="#00A1A6"/>
<stop offset="0.15" stop-color="#00777A"/>
<stop offset="0.27" stop-color="#005254"/>
<stop offset="0.39" stop-color="#003435"/>
<stop offset="0.52" stop-color="#001D1E"/>
<stop offset="0.66" stop-color="#000C0D"/>
<stop offset="0.81" stop-color="#000303"/>
<stop offset="1"/>
</linearGradient>
<linearGradient id="paint3_linear_2789_35527" x1="100.183" y1="1309.92" x2="100.183" y2="559.972" gradientUnits="userSpaceOnUse">
<stop stop-color="#00B0B5"/>
<stop offset="0.03" stop-color="#00A1A6"/>
<stop offset="0.15" stop-color="#00777A"/>
<stop offset="0.27" stop-color="#005254"/>
<stop offset="0.39" stop-color="#003435"/>
<stop offset="0.52" stop-color="#001D1E"/>
<stop offset="0.66" stop-color="#000C0D"/>
<stop offset="0.81" stop-color="#000303"/>
<stop offset="1"/>
</linearGradient>
<linearGradient id="paint4_linear_2789_35527" x1="250.846" y1="169.996" x2="450.425" y2="169.996" gradientUnits="userSpaceOnUse">
<stop/>
<stop offset="0.16" stop-color="#030303"/>
<stop offset="0.29" stop-color="#0D0D0D"/>
<stop offset="0.41" stop-color="#1E1E1E"/>
<stop offset="0.52" stop-color="#353535"/>
<stop offset="0.63" stop-color="#545454"/>
<stop offset="0.74" stop-color="#7A7A7A"/>
<stop offset="0.84" stop-color="#A7A7A7"/>
<stop offset="0.94" stop-color="#DADADA"/>
<stop offset="1" stop-color="white"/>
</linearGradient>
<linearGradient id="paint5_linear_2789_35527" x1="0.388624" y1="429.974" x2="199.967" y2="429.974" gradientUnits="userSpaceOnUse">
<stop/>
<stop offset="0.16" stop-color="#030303"/>
<stop offset="0.29" stop-color="#0D0D0D"/>
<stop offset="0.41" stop-color="#1E1E1E"/>
<stop offset="0.52" stop-color="#353535"/>
<stop offset="0.63" stop-color="#545454"/>
<stop offset="0.74" stop-color="#7A7A7A"/>
<stop offset="0.84" stop-color="#A7A7A7"/>
<stop offset="0.94" stop-color="#DADADA"/>
<stop offset="1" stop-color="white"/>
</linearGradient>
<linearGradient id="paint6_linear_2789_35527" x1="125.617" y1="299.984" x2="325.196" y2="299.984" gradientUnits="userSpaceOnUse">
<stop/>
<stop offset="0.16" stop-color="#030303"/>
<stop offset="0.29" stop-color="#0D0D0D"/>
<stop offset="0.41" stop-color="#1E1E1E"/>
<stop offset="0.52" stop-color="#353535"/>
<stop offset="0.63" stop-color="#545454"/>
<stop offset="0.74" stop-color="#7A7A7A"/>
<stop offset="0.84" stop-color="#A7A7A7"/>
<stop offset="0.94" stop-color="#DADADA"/>
<stop offset="1" stop-color="white"/>
</linearGradient>
<linearGradient id="paint7_linear_2789_35527" x1="376.075" y1="39.9979" x2="575.654" y2="39.9979" gradientUnits="userSpaceOnUse">
<stop/>
<stop offset="0.16" stop-color="#030303"/>
<stop offset="0.29" stop-color="#0D0D0D"/>
<stop offset="0.41" stop-color="#1E1E1E"/>
<stop offset="0.52" stop-color="#353535"/>
<stop offset="0.63" stop-color="#545454"/>
<stop offset="0.74" stop-color="#7A7A7A"/>
<stop offset="0.84" stop-color="#A7A7A7"/>
<stop offset="0.94" stop-color="#DADADA"/>
<stop offset="1" stop-color="white"/>
</linearGradient>
</defs>
</svg>
