<svg width="129" height="204" viewBox="0 0 129 204" fill="none" xmlns="http://www.w3.org/2000/svg">
<path d="M128.231 95.9172C128.306 104.766 125.999 113.491 121.531 121.261C116.74 129.125 109.659 135.501 101.148 139.615C91.9626 144.314 80.5494 146.664 66.9081 146.666L41.7378 146.698L41.6656 203.695L0.945196 203.748L1.14644 44.9749L66.9353 44.8903C78.5683 44.5328 90.1213 46.7677 100.674 51.4169C109.317 55.3073 116.514 61.6035 121.317 69.4762C126.02 77.5528 128.405 86.6722 128.231 95.9172ZM63.8168 115.904C71.5706 115.894 77.35 114.157 81.1549 110.694C84.8396 106.592 86.8682 101.375 86.875 95.9826C86.8819 90.5906 84.8665 85.3786 81.1922 81.2861C77.413 77.816 71.638 76.0859 63.8672 76.0959L41.7764 76.1244L41.7259 115.933L63.8168 115.904Z" fill="#0A0A0A"/>
<path d="M128.36 0.801234L1.20312 0.964844L1.17216 25.3966L128.329 25.233L128.36 0.801234Z" fill="#E50913"/>
</svg>
