<svg width="56" height="57" viewBox="0 0 56 57" fill="none" xmlns="http://www.w3.org/2000/svg">
<g id="Logo">
<rect id="Rectangle 58" y="0.898926" width="56" height="56" rx="5.6" fill="black"/>
<path id="P" d="M43.6795 30.3187C43.6795 32.5895 43.1519 34.6742 42.0968 36.5728C41.0417 38.4342 39.4214 39.9419 37.2358 41.0959C35.0502 42.2499 32.3371 42.8269 29.0964 42.8269H23.1049V56.8987H13.4395V17.6987H29.0964C32.2617 17.6987 34.9372 18.2385 37.1227 19.3181C39.3083 20.3977 40.9475 21.8868 42.0403 23.7853C43.1331 25.6839 43.6795 27.8617 43.6795 30.3187ZM28.3616 35.2326C30.2081 35.2326 31.5835 34.8045 32.4878 33.9483C33.3922 33.0921 33.8444 31.8822 33.8444 30.3187C33.8444 28.7551 33.3922 27.5453 32.4878 26.689C31.5835 25.8328 30.2081 25.4047 28.3616 25.4047H23.1049V35.2326H28.3616Z" fill="white"/>
<path id="Vector" d="M43.6795 7.61914H13.4395V14.3391H43.6795V7.61914Z" fill="#E50913"/>
</g>
</svg>
