<svg width="252" height="33" viewBox="0 0 252 33" fill="none" xmlns="http://www.w3.org/2000/svg">
<path d="M44.4091 14.907V19.3862H50.9145V23.55H44.4091V28.4077H52.7824V32.7292H38.8809V10.5855H52.7824V14.907H44.4091Z" fill="black"/>
<path d="M71.2822 32.5954L67.0112 24.2363H64.7877V32.5954H59.2594V10.4517H68.5379C70.3267 10.4517 71.8462 10.7566 73.0963 11.3664C74.3679 11.9763 75.3162 12.8174 75.9412 13.8899C76.5662 14.9414 76.8788 16.119 76.8788 17.4228C76.8788 18.8949 76.4477 20.2092 75.5856 21.3658C74.745 22.5224 73.495 23.3426 71.8354 23.8262L77.0727 32.5954H71.2822ZM64.7877 20.4195H68.2146C69.2275 20.4195 69.9819 20.1777 70.4776 19.694C70.9949 19.2103 71.2535 18.5269 71.2535 17.6436C71.2535 16.8025 70.9949 16.1401 70.4776 15.6564C69.9819 15.1727 69.2275 14.9309 68.2146 14.9309H64.7877V20.4195Z" fill="black"/>
<path d="M90.8453 32.95C89.1858 32.95 87.6986 32.6872 86.3839 32.1614C85.0692 31.6357 84.0131 30.8576 83.2157 29.8272C82.4398 28.7968 82.0303 27.556 81.9871 26.105H87.871C87.9573 26.9251 88.2482 27.556 88.7439 27.9976C89.2396 28.4182 89.8862 28.6285 90.6837 28.6285C91.5027 28.6285 92.1493 28.4498 92.6234 28.0923C93.0976 27.7137 93.3347 27.1985 93.3347 26.5466C93.3347 25.9999 93.1407 25.5477 92.7527 25.1902C92.3863 24.8327 91.923 24.5383 91.3626 24.307C90.8238 24.0757 90.0479 23.8128 89.0349 23.5184C87.5693 23.0768 86.3731 22.6352 85.4464 22.1936C84.5196 21.752 83.7221 21.1001 83.054 20.2379C82.3859 19.3757 82.0518 18.2506 82.0518 16.8627C82.0518 14.8018 82.8169 13.1931 84.3472 12.0365C85.8774 10.8588 87.871 10.27 90.3281 10.27C92.8282 10.27 94.8433 10.8588 96.3736 12.0365C97.9038 13.1931 98.7228 14.8123 98.8306 16.8942H92.8497C92.8066 16.1792 92.5372 15.622 92.0415 15.2224C91.5458 14.8018 90.91 14.5915 90.1341 14.5915C89.4659 14.5915 88.9271 14.7703 88.5176 15.1278C88.1081 15.4642 87.9034 15.9584 87.9034 16.6103C87.9034 17.3253 88.2482 17.8826 88.9379 18.2821C89.6276 18.6817 90.7052 19.1128 92.1708 19.5754C93.6364 20.0591 94.8218 20.5218 95.727 20.9634C96.6538 21.405 97.4512 22.0464 98.1194 22.8875C98.7875 23.7287 99.1216 24.8117 99.1216 26.1366C99.1216 27.3983 98.7875 28.5444 98.1194 29.5748C97.4728 30.6053 96.5245 31.4254 95.2744 32.0352C94.0243 32.6451 92.548 32.95 90.8453 32.95Z" fill="black"/>
<path d="M110.638 10.5855V32.7292H105.11V10.5855H110.638Z" fill="black"/>
<path d="M125.442 32.95C123.783 32.95 122.296 32.6872 120.981 32.1614C119.666 31.6357 118.61 30.8576 117.813 29.8272C117.037 28.7968 116.627 27.556 116.584 26.105H122.468C122.554 26.9251 122.845 27.556 123.341 27.9976C123.837 28.4182 124.483 28.6285 125.281 28.6285C126.1 28.6285 126.746 28.4498 127.221 28.0923C127.695 27.7137 127.932 27.1985 127.932 26.5466C127.932 25.9999 127.738 25.5477 127.35 25.1902C126.984 24.8327 126.52 24.5383 125.96 24.307C125.421 24.0757 124.645 23.8128 123.632 23.5184C122.166 23.0768 120.97 22.6352 120.044 22.1936C119.117 21.752 118.319 21.1001 117.651 20.2379C116.983 19.3757 116.649 18.2506 116.649 16.8627C116.649 14.8018 117.414 13.1931 118.944 12.0365C120.475 10.8588 122.468 10.27 124.925 10.27C127.425 10.27 129.441 10.8588 130.971 12.0365C132.501 13.1931 133.32 14.8123 133.428 16.8942H127.447C127.404 16.1792 127.134 15.622 126.639 15.2224C126.143 14.8018 125.507 14.5915 124.731 14.5915C124.063 14.5915 123.524 14.7703 123.115 15.1278C122.705 15.4642 122.501 15.9584 122.501 16.6103C122.501 17.3253 122.845 17.8826 123.535 18.2821C124.225 18.6817 125.302 19.1128 126.768 19.5754C128.234 20.0591 129.419 20.5218 130.324 20.9634C131.251 21.405 132.048 22.0464 132.717 22.8875C133.385 23.7287 133.719 24.8117 133.719 26.1366C133.719 27.3983 133.385 28.5444 132.717 29.5748C132.07 30.6053 131.122 31.4254 129.872 32.0352C128.622 32.6451 127.145 32.95 125.442 32.95Z" fill="black"/>
<path d="M156.033 10.5855V14.907H150.02V32.7292H144.492V14.907H138.479V10.5855H156.033Z" fill="black"/>
<path d="M166.922 14.907V19.3862H173.428V23.55H166.922V28.4077H175.296V32.7292H161.394V10.5855H175.296V14.907H166.922Z" fill="black"/>
<path d="M201.774 32.7292H196.245L186.999 19.0707V32.7292H181.471V10.5855H186.999L196.245 24.307V10.5855H201.774V32.7292Z" fill="black"/>
<path d="M207.43 21.6258C207.43 19.4388 207.915 17.4936 208.885 15.7902C209.854 14.0658 211.202 12.7304 212.926 11.7841C214.672 10.8168 216.644 10.3331 218.842 10.3331C221.536 10.3331 223.842 11.0271 225.76 12.415C227.679 13.8029 228.961 15.6956 229.608 18.0929H223.53C223.077 17.1676 222.43 16.4631 221.59 15.9794C220.771 15.4958 219.833 15.2539 218.777 15.2539C217.075 15.2539 215.695 15.8322 214.639 16.9889C213.583 18.1455 213.055 19.6911 213.055 21.6258C213.055 23.5605 213.583 25.1061 214.639 26.2627C215.695 27.4193 217.075 27.9976 218.777 27.9976C219.833 27.9976 220.771 27.7558 221.59 27.2721C222.43 26.7885 223.077 26.084 223.53 25.1587H229.608C228.961 27.556 227.679 29.4487 225.76 30.8366C223.842 32.2035 221.536 32.8869 218.842 32.8869C216.644 32.8869 214.672 32.4138 212.926 31.4675C211.202 30.5001 209.854 29.1648 208.885 27.4614C207.915 25.758 207.43 23.8128 207.43 21.6258Z" fill="black"/>
<path d="M241.108 14.907V19.3862H247.613V23.55H241.108V28.4077H249.481V32.7292H235.579V10.5855H249.481V14.907H241.108Z" fill="black"/>
<rect y="0.549805" width="32.4" height="32.4" rx="4.05" fill="black"/>
<path d="M25.2714 17.5716C25.2714 18.8854 24.9662 20.0916 24.3557 21.19C23.7453 22.2669 22.8078 23.1393 21.5433 23.8069C20.2788 24.4746 18.709 24.8085 16.8341 24.8085H13.3676V32.95H7.77539V10.27H16.8341C18.6654 10.27 20.2134 10.5823 21.4779 11.2069C22.7424 11.8316 23.6908 12.6931 24.323 13.7916C24.9553 14.89 25.2714 16.15 25.2714 17.5716ZM16.4089 20.4146C17.4772 20.4146 18.273 20.1669 18.7962 19.6716C19.3195 19.1762 19.5811 18.4762 19.5811 17.5716C19.5811 16.6669 19.3195 15.9669 18.7962 15.4716C18.273 14.9762 17.4772 14.7285 16.4089 14.7285H13.3676V20.4146H16.4089Z" fill="white"/>
<path d="M25.2714 4.43799H7.77539V8.32599H25.2714V4.43799Z" fill="#E50913"/>
</svg>
