<?xml version="1.0" encoding="utf-8"?>
<!-- Generator: Adobe Illustrator 27.9.0, SVG Export Plug-In . SVG Version: 6.00 Build 0)  -->
<svg version="1.1" id="Layer_1" xmlns="http://www.w3.org/2000/svg" xmlns:xlink="http://www.w3.org/1999/xlink" x="0px" y="0px"
	 viewBox="0 0 640.5 84.4" style="enable-background:new 0 0 640.5 84.4;" xml:space="preserve">
<style type="text/css">
	.st0{fill:#FFFFFF;}
	.st1{fill:#E59636;}
</style>
<g>
	<path d="M5,0h74.3c2.8,0,5,2.2,5,5v74.3c0,2.8-2.2,5-5,5H5c-2.8,0-5-2.2-5-5V5C0,2.2,2.3,0,5,0z"/>
	<path d="M118,37.2v11.7h16.6v10.9H118v12.7h21.3v11.3h-35.4V25.9h35.4v11.3H118z"/>
	<path d="M186.5,83.4l-10.9-21.8h-5.7v21.8h-14.1V25.6h23.6c4.6,0,8.4,0.8,11.6,2.4c3.2,1.6,5.7,3.8,7.2,6.6
		c1.6,2.7,2.4,5.8,2.4,9.2c0,3.8-1.1,7.3-3.3,10.3c-2.1,3-5.3,5.2-9.6,6.4L201,83.4H186.5z M169.9,51.6h8.7c2.6,0,4.5-0.6,5.8-1.9
		c1.3-1.3,2-3,2-5.4c0-2.2-0.7-3.9-2-5.2s-3.2-1.9-5.8-1.9h-8.7V51.6z"/>
	<path d="M236.3,84.3c-4.2,0-8-0.7-11.4-2.1c-3.3-1.4-6-3.4-8.1-6.1c-2-2.7-3-5.9-3.1-9.7h15c0.2,2.1,1,3.8,2.2,4.9
		c1.3,1.1,2.9,1.6,4.9,1.6c2.1,0,3.7-0.5,4.9-1.4c1.2-1,1.8-2.3,1.8-4c0-1.4-0.5-2.6-1.5-3.5c-0.9-0.9-2.1-1.7-3.5-2.3
		s-3.4-1.3-5.9-2.1c-3.7-1.2-6.8-2.3-9.1-3.5c-2.4-1.2-4.4-2.9-6.1-5.1c-1.7-2.3-2.6-5.2-2.6-8.8c0-5.4,2-9.6,5.8-12.6
		c3.9-3.1,9-4.6,15.2-4.6c6.4,0,11.5,1.5,15.4,4.6c3.9,3,6,7.2,6.3,12.7h-15.2c-0.1-1.9-0.8-3.3-2.1-4.4c-1.3-1.1-2.9-1.6-4.9-1.6
		c-1.7,0-3.1,0.5-4.1,1.4s-1.6,2.2-1.6,3.9c0,1.9,0.9,3.3,2.6,4.4c1.8,1,4.5,2.2,8.2,3.4c3.7,1.3,6.8,2.5,9.1,3.6
		c2.4,1.2,4.4,2.8,6.1,5s2.6,5,2.6,8.5c0,3.3-0.9,6.3-2.6,9c-1.6,2.7-4.1,4.8-7.2,6.4C244.4,83.5,240.7,84.3,236.3,84.3z"/>
	<path d="M286.8,25.9v57.8h-14.1V25.9H286.8z"/>
	<path d="M324.5,84.3c-4.2,0-8-0.7-11.4-2.1s-6-3.4-8.1-6.1c-2-2.7-3-5.9-3.1-9.7h15c0.2,2.1,1,3.8,2.2,4.9c1.3,1.1,2.9,1.6,4.9,1.6
		c2.1,0,3.7-0.5,4.9-1.4c1.2-1,1.8-2.3,1.8-4c0-1.4-0.5-2.6-1.5-3.5c-0.9-0.9-2.1-1.7-3.5-2.3s-3.4-1.3-5.9-2.1
		c-3.7-1.2-6.8-2.3-9.1-3.5c-2.4-1.2-4.4-2.9-6.1-5.1c-1.7-2.3-2.6-5.2-2.6-8.8c0-5.4,2-9.6,5.8-12.6c3.9-3.1,9-4.6,15.2-4.6
		c6.4,0,11.5,1.5,15.4,4.6c3.9,3,6,7.2,6.3,12.7h-15.2c-0.1-1.9-0.8-3.3-2.1-4.4c-1.3-1.1-2.9-1.6-4.9-1.6c-1.7,0-3.1,0.5-4.1,1.4
		s-1.6,2.2-1.6,3.9c0,1.9,0.9,3.3,2.6,4.4c1.8,1,4.5,2.2,8.2,3.4c3.7,1.3,6.8,2.5,9.1,3.6c2.4,1.2,4.4,2.8,6.1,5s2.6,5,2.6,8.5
		c0,3.3-0.9,6.3-2.6,9c-1.6,2.7-4.1,4.8-7.2,6.4C332.6,83.5,328.8,84.3,324.5,84.3z"/>
	<path d="M402.4,25.9v11.3h-15.3v46.5H373V37.2h-15.3V25.9H402.4z"/>
	<path d="M430.2,37.2v11.7h16.6v10.9h-16.6v12.7h21.3v11.3h-35.4V25.9h35.4v11.3H430.2z"/>
	<path d="M519,83.8h-14.1l-23.6-35.7v35.7h-14.1V25.9h14.1l23.6,35.8V25.9H519V83.8z"/>
	<path d="M533.4,54.8c0-5.7,1.2-10.8,3.7-15.2c2.5-4.5,5.9-8,10.3-10.5c4.4-2.5,9.5-3.8,15.1-3.8c6.9,0,12.7,1.8,17.6,5.4
		c4.9,3.6,8.2,8.6,9.8,14.8h-15.5c-1.2-2.4-2.8-4.3-4.9-5.5c-2.1-1.3-4.5-1.9-7.2-1.9c-4.3,0-7.9,1.5-10.5,4.5c-2.7,3-4,7.1-4,12.1
		c0,5.1,1.3,9.1,4,12.1s6.2,4.5,10.5,4.5c2.7,0,5.1-0.6,7.2-1.9c2.1-1.3,3.8-3.1,4.9-5.5h15.5c-1.6,6.3-4.9,11.2-9.8,14.8
		c-4.9,3.6-10.8,5.4-17.6,5.4c-5.6,0-10.6-1.2-15.1-3.7c-4.4-2.5-7.8-6-10.3-10.5C534.6,65.5,533.4,60.5,533.4,54.8z"/>
	<path d="M619.2,37.2v11.7h16.6v10.9h-16.6v12.7h21.3v11.3h-35.4V25.9h35.4v11.3H619.2z"/>
	<path class="st0" d="M64.4,44.8c0,3.4-0.8,6.5-2.3,9.3c-1.6,2.8-3.9,5-7.2,6.7c-3.2,1.7-7.2,2.6-12,2.6h-8.8v21H19.9V26h23
		c4.7,0,8.6,0.8,11.8,2.4c3.2,1.6,5.6,3.8,7.2,6.7C63.6,37.9,64.4,41.1,64.4,44.8z M41.9,52.1c2.7,0,4.7-0.6,6.1-1.9
		c1.3-1.3,2-3.1,2-5.4c0-2.3-0.7-4.1-2-5.4c-1.3-1.3-3.4-1.9-6.1-1.9h-7.7v14.6C34.2,52.1,41.9,52.1,41.9,52.1z"/>
	<path class="st1" d="M64.4,11.2H19.9v9.4h44.5V11.2z"/>
</g>
</svg>
