<svg width="252" height="34" viewBox="0 0 252 34" fill="none" xmlns="http://www.w3.org/2000/svg">
<path d="M44.581 14.9685V19.4477H51.1116V23.6115H44.581V28.4692H52.9868V32.7907H39.0312V10.647H52.9868V14.9685H44.581Z" fill="white"/>
<path d="M71.5585 32.6569L67.2709 24.2978H65.0387V32.6569H59.489V10.5132H68.8035C70.5993 10.5132 72.1247 10.8181 73.3796 11.428C74.6562 12.0378 75.6082 12.879 76.2356 13.9515C76.8631 15.0029 77.1768 16.1805 77.1768 17.4844C77.1768 18.9564 76.7441 20.2707 75.8786 21.4273C75.0348 22.5839 73.7799 23.4041 72.1139 23.8877L77.3715 32.6569H71.5585ZM65.0387 20.481H68.4789C69.4959 20.481 70.2531 20.2392 70.7508 19.7555C71.2701 19.2718 71.5297 18.5884 71.5297 17.7052C71.5297 16.864 71.2701 16.2016 70.7508 15.7179C70.2531 15.2342 69.4959 14.9924 68.4789 14.9924H65.0387V20.481Z" fill="white"/>
<path d="M91.1976 33.0115C89.5316 33.0115 88.0387 32.7486 86.7189 32.2229C85.3991 31.6972 84.3389 30.9191 83.5383 29.8887C82.7594 28.8582 82.3483 27.6175 82.305 26.1665H88.2118C88.2983 26.9866 88.5904 27.6175 89.0881 28.0591C89.5857 28.4797 90.2348 28.69 91.0354 28.69C91.8576 28.69 92.5066 28.5113 92.9826 28.1538C93.4586 27.7752 93.6967 27.26 93.6967 26.6081C93.6967 26.0614 93.5019 25.6092 93.1125 25.2517C92.7446 24.8942 92.2795 24.5998 91.7169 24.3685C91.176 24.1372 90.3971 23.8743 89.3802 23.5799C87.9089 23.1383 86.7081 22.6967 85.7777 22.2551C84.8473 21.8135 84.0468 21.1616 83.3761 20.2994C82.7053 19.4372 82.37 18.3121 82.37 16.9242C82.37 14.8633 83.1381 13.2546 84.6742 12.098C86.2104 10.9204 88.2118 10.3315 90.6784 10.3315C93.1882 10.3315 95.2112 10.9204 96.7474 12.098C98.2836 13.2546 99.1058 14.8738 99.2139 16.9557H93.2098C93.1666 16.2407 92.8961 15.6835 92.3985 15.2839C91.9008 14.8633 91.2626 14.653 90.4836 14.653C89.8129 14.653 89.272 14.8318 88.8609 15.1893C88.4498 15.5257 88.2443 16.0199 88.2443 16.6718C88.2443 17.3868 88.5904 17.9441 89.2828 18.3437C89.9752 18.7432 91.057 19.1743 92.5283 19.637C93.9996 20.1206 95.1896 20.5833 96.0983 21.0249C97.0287 21.4665 97.8292 22.1079 98.4999 22.949C99.1707 23.7902 99.506 24.8732 99.506 26.1981C99.506 27.4598 99.1707 28.6059 98.4999 29.6363C97.8508 30.6668 96.8988 31.4869 95.6439 32.0967C94.389 32.7066 92.9069 33.0115 91.1976 33.0115Z" fill="white"/>
<path d="M111.068 10.647V32.7907H105.518V10.647H111.068Z" fill="white"/>
<path d="M125.929 33.0115C124.263 33.0115 122.77 32.7486 121.45 32.2229C120.131 31.6972 119.07 30.9191 118.27 29.8887C117.491 28.8582 117.08 27.6175 117.037 26.1665H122.943C123.03 26.9866 123.322 27.6175 123.82 28.0591C124.317 28.4797 124.966 28.69 125.767 28.69C126.589 28.69 127.238 28.5113 127.714 28.1538C128.19 27.7752 128.428 27.26 128.428 26.6081C128.428 26.0614 128.234 25.6092 127.844 25.2517C127.476 24.8942 127.011 24.5998 126.449 24.3685C125.908 24.1372 125.129 23.8743 124.112 23.5799C122.641 23.1383 121.44 22.6967 120.509 22.2551C119.579 21.8135 118.778 21.1616 118.108 20.2994C117.437 19.4372 117.102 18.3121 117.102 16.9242C117.102 14.8633 117.87 13.2546 119.406 12.098C120.942 10.9204 122.943 10.3315 125.41 10.3315C127.92 10.3315 129.943 10.9204 131.479 12.098C133.015 13.2546 133.837 14.8738 133.946 16.9557H127.941C127.898 16.2407 127.628 15.6835 127.13 15.2839C126.632 14.8633 125.994 14.653 125.215 14.653C124.545 14.653 124.004 14.8318 123.593 15.1893C123.181 15.5257 122.976 16.0199 122.976 16.6718C122.976 17.3868 123.322 17.9441 124.014 18.3437C124.707 18.7432 125.789 19.1743 127.26 19.637C128.731 20.1206 129.921 20.5833 130.83 21.0249C131.76 21.4665 132.561 22.1079 133.232 22.949C133.902 23.7902 134.238 24.8732 134.238 26.1981C134.238 27.4598 133.902 28.6059 133.232 29.6363C132.582 30.6668 131.63 31.4869 130.376 32.0967C129.121 32.7066 127.639 33.0115 125.929 33.0115Z" fill="white"/>
<path d="M156.639 10.647V14.9685H150.602V32.7907H145.053V14.9685H139.016V10.647H156.639Z" fill="white"/>
<path d="M167.57 14.9685V19.4477H174.101V23.6115H167.57V28.4692H175.976V32.7907H162.021V10.647H175.976V14.9685H167.57Z" fill="white"/>
<path d="M202.557 32.7907H197.007L187.725 19.1323V32.7907H182.176V10.647H187.725L197.007 24.3685V10.647H202.557V32.7907Z" fill="white"/>
<path d="M208.235 21.6873C208.235 19.5003 208.722 17.5551 209.696 15.8517C210.669 14.1273 212.022 12.792 213.752 11.8456C215.505 10.8783 217.485 10.3946 219.692 10.3946C222.396 10.3946 224.711 11.0886 226.637 12.4765C228.563 13.8644 229.85 15.7571 230.499 18.1544H224.398C223.943 17.2291 223.294 16.5246 222.45 16.041C221.628 15.5573 220.687 15.3155 219.627 15.3155C217.917 15.3155 216.533 15.8938 215.473 17.0504C214.412 18.207 213.882 19.7526 213.882 21.6873C213.882 23.622 214.412 25.1676 215.473 26.3242C216.533 27.4808 217.917 28.0591 219.627 28.0591C220.687 28.0591 221.628 27.8173 222.45 27.3336C223.294 26.85 223.943 26.1455 224.398 25.2202H230.499C229.85 27.6175 228.563 29.5102 226.637 30.8981C224.711 32.265 222.396 32.9484 219.692 32.9484C217.485 32.9484 215.505 32.4753 213.752 31.529C212.022 30.5616 210.669 29.2263 209.696 27.5229C208.722 25.8195 208.235 23.8743 208.235 21.6873Z" fill="white"/>
<path d="M242.044 14.9685V19.4477H248.574V23.6115H242.044V28.4692H250.45V32.7907H236.494V10.647H250.45V14.9685H242.044Z" fill="white"/>
<rect y="0.611572" width="32.5259" height="32.3999" rx="4.05" fill="white"/>
<path d="M25.3706 17.6331C25.3706 18.9469 25.0642 20.1531 24.4514 21.2515C23.8386 22.3284 22.8974 23.2008 21.628 23.8684C20.3586 24.5361 18.7828 24.87 16.9005 24.87H13.4206V33.0115H7.80664V10.3315H16.9005C18.739 10.3315 20.2929 10.6439 21.5624 11.2685C22.8318 11.8931 23.7839 12.7546 24.4186 13.8531C25.0533 14.9515 25.3706 16.2115 25.3706 17.6331ZM16.4737 20.4761C17.5462 20.4761 18.345 20.2284 18.8703 19.7331C19.3956 19.2377 19.6582 18.5377 19.6582 17.6331C19.6582 16.7285 19.3956 16.0285 18.8703 15.5331C18.345 15.0377 17.5462 14.79 16.4737 14.79H13.4206V20.4761H16.4737Z" fill="black"/>
<path d="M25.3706 4.49951H7.80664V8.38751H25.3706V4.49951Z" fill="#E50913"/>
</svg>
