<svg width="56" height="56" viewBox="0 0 56 56" fill="none" xmlns="http://www.w3.org/2000/svg">
<path d="M28 56C43.464 56 56 43.464 56 28C56 12.536 43.464 0 28 0C12.536 0 0 12.536 0 28C0 43.464 12.536 56 28 56Z" fill="black"/>
<path d="M37.3327 14.5693H18.666V18.6668H37.3327V14.5693Z" fill="#E50913"/>
<path d="M28.081 45.984C26.3171 45.984 24.7365 45.6937 23.3391 45.1133C21.9417 44.5328 20.8193 43.6738 19.9717 42.5361C19.1471 41.3984 18.7119 40.0286 18.666 38.4265H24.9198C25.0114 39.332 25.3206 40.0286 25.8474 40.5161C26.3744 40.9804 27.0615 41.2126 27.9092 41.2126C28.7796 41.2126 29.4668 41.0153 29.9708 40.6205C30.4748 40.2027 30.7268 39.6338 30.7268 38.9141C30.7268 38.3104 30.5205 37.8113 30.1082 37.4165C29.7189 37.0218 29.2263 36.6967 28.6307 36.4414C28.0581 36.186 27.2334 35.8957 26.1567 35.5707C24.5991 35.0831 23.3277 34.5955 22.3427 34.1079C21.3576 33.6203 20.5101 32.9006 19.7999 31.9486C19.0898 30.9967 18.7348 29.7546 18.7348 28.2222C18.7348 25.9468 19.5479 24.1706 21.1743 22.8936C22.8008 21.5934 24.9198 20.9434 27.5312 20.9434C30.1885 20.9434 32.3302 21.5934 33.9567 22.8936C35.5831 24.1706 36.4536 25.9584 36.5681 28.257H30.2113C30.1656 27.4675 29.8792 26.8523 29.3523 26.4112C28.8255 25.9468 28.1497 25.7146 27.3251 25.7146C26.6148 25.7146 26.0422 25.912 25.607 26.3067C25.1717 26.6782 24.9541 27.2238 24.9541 27.9436C24.9541 28.7329 25.3206 29.3483 26.0536 29.7894C26.7867 30.2305 27.9321 30.7065 29.4897 31.2173C31.0475 31.7513 32.3074 32.2621 33.2695 32.7496C34.2545 33.2373 35.1021 33.9454 35.8122 34.8742C36.5224 35.8029 36.8774 36.9986 36.8774 38.4613C36.8774 39.8544 36.5224 41.1197 35.8122 42.2574C35.125 43.3951 34.1171 44.3006 32.7884 44.974C31.4598 45.6473 29.8907 45.984 28.081 45.984Z" fill="white"/>
</svg>
