<svg width="42" height="17" viewBox="0 0 42 17" fill="none" xmlns="http://www.w3.org/2000/svg">
<path d="M38.0338 16.745C38.4257 14.413 41.1692 13.2764 41.6591 13.1001C41.6787 13.1001 41.6787 13.0609 41.6591 13.0413C41.1692 12.8649 38.4453 11.7479 38.0338 9.39634C38.0338 9.35715 37.9946 9.35715 37.975 9.39634C37.5831 11.7283 34.82 12.8453 34.3301 13.0413C34.3105 13.0413 34.3105 13.0805 34.3301 13.1001C34.82 13.2764 37.5831 14.413 37.975 16.745C37.975 16.7842 38.0142 16.7842 38.0338 16.745Z" fill="#DE5656"/>
<path d="M26.7564 16.745C27.1484 14.413 29.8919 13.2764 30.3818 13.1001C30.4014 13.1001 30.4014 13.0609 30.3818 13.0413C29.8919 12.8649 27.168 11.7479 26.7564 9.39634C26.7564 9.35715 26.7172 9.35715 26.6976 9.39634C26.3057 11.7283 23.5426 12.8453 23.0527 13.0413C23.0331 13.0413 23.0331 13.0805 23.0527 13.1001C23.5426 13.2764 26.3057 14.413 26.6976 16.745C26.6976 16.7842 26.7368 16.7842 26.7564 16.745Z" fill="#DE5656"/>
<path d="M15.4791 16.745C15.871 14.413 18.6145 13.2764 19.1044 13.1001C19.124 13.1001 19.124 13.0609 19.1044 13.0413C18.6145 12.8649 15.8906 11.7479 15.4791 9.39634C15.4791 9.35715 15.4203 9.35715 15.4203 9.39634C15.0284 11.7283 12.2653 12.8453 11.7754 13.0413C11.7558 13.0413 11.7558 13.0805 11.7754 13.1001C12.2653 13.2764 15.0284 14.413 15.4203 16.745C15.4203 16.7842 15.4595 16.7842 15.4791 16.745Z" fill="#DE5656"/>
<path d="M4.2194 16.745C4.61133 14.413 7.35483 13.2764 7.82515 13.1001C7.84474 13.1001 7.84474 13.0609 7.82515 13.0413C7.33523 12.8649 4.61133 11.7479 4.2194 9.39634C4.2194 9.35715 4.18021 9.35715 4.16062 9.39634C3.76869 11.7283 1.00555 12.8453 0.515641 13.0413C0.496044 13.0413 0.496044 13.0805 0.515641 13.1001C1.00555 13.2764 3.76869 14.413 4.16062 16.745C4.16062 16.7842 4.19981 16.7842 4.2194 16.745Z" fill="#DE5656"/>
<path d="M26.776 7.37783C27.168 5.04585 29.9115 3.90925 30.3818 3.73289C30.4014 3.73289 30.4014 3.69369 30.3818 3.6741C29.8919 3.49773 27.168 2.38073 26.776 0.0291535C26.776 -0.0100396 26.7369 -0.0100396 26.7173 0.0291535C26.3253 2.36113 23.5622 3.47813 23.0723 3.6741C23.0527 3.6741 23.0527 3.71329 23.0723 3.73289C23.5622 3.90925 26.3253 5.04585 26.7173 7.37783C26.7173 7.41702 26.7564 7.41702 26.776 7.37783Z" fill="#DE5656"/>
<path d="M38.2194 7.37783C38.6113 5.04585 41.3548 3.90925 41.8251 3.73289C41.8447 3.73289 41.8447 3.69369 41.8251 3.6741C41.3352 3.49773 38.6113 2.38073 38.2194 0.0291535C38.2194 -0.0100396 38.1802 -0.0100396 38.1606 0.0291535C37.7687 2.36113 35.0056 3.47813 34.5156 3.6741C34.496 3.6741 34.496 3.71329 34.5156 3.73289C35.0056 3.90925 37.7687 5.04585 38.1606 7.37783C38.1606 7.41702 38.1998 7.41702 38.2194 7.37783Z" fill="#DE5656"/>
<path d="M15.5163 7.37783C15.9082 5.04585 18.6517 3.90925 19.122 3.73289C19.1416 3.73289 19.1416 3.69369 19.122 3.6741C18.6321 3.49773 15.9082 2.38073 15.5163 0.0291535C15.5163 -0.0100396 15.4771 -0.0100396 15.4575 0.0291535C15.0656 2.36113 12.3024 3.47813 11.8125 3.6741C11.7929 3.6741 11.7929 3.71329 11.8125 3.73289C12.3024 3.90925 15.0656 5.04585 15.4575 7.37783C15.4575 7.41702 15.4967 7.41702 15.5163 7.37783Z" fill="#DE5656"/>
<path d="M4.25846 7.37783C4.65039 5.04585 7.39389 3.90925 7.86421 3.73289C7.88381 3.73289 7.88381 3.69369 7.86421 3.6741C7.3743 3.49773 4.65039 2.38073 4.25847 0.0291535C4.25847 -0.0100396 4.21927 -0.0100396 4.19968 0.0291535C3.80775 2.36113 1.04461 3.47813 0.554703 3.6741C0.535107 3.6741 0.535107 3.71329 0.554703 3.73289C1.04461 3.90925 3.80775 5.04585 4.19968 7.37783C4.19968 7.41702 4.23887 7.41702 4.25846 7.37783Z" fill="#DE5656"/>
</svg>
