<svg width="48" height="48" viewBox="0 0 48 48" fill="none" xmlns="http://www.w3.org/2000/svg">
<path d="M24.0001 42.9475C34.4644 42.9475 42.9475 34.4644 42.9475 24.0001C42.9475 13.5358 34.4644 5.05273 24.0001 5.05273C13.5358 5.05273 5.05273 13.5358 5.05273 24.0001C5.05273 34.4644 13.5358 42.9475 24.0001 42.9475Z" fill="#2E3148"/>
<path d="M23.9552 34.7229C30.0012 34.7229 34.9025 29.8216 34.9025 23.7755C34.9025 17.7294 30.0012 12.8281 23.9552 12.8281C17.9091 12.8281 13.0078 17.7294 13.0078 23.7755C13.0078 29.8216 17.9091 34.7229 23.9552 34.7229Z" fill="#1B1E36"/>
<path d="M48 24C48 27.1517 47.3792 30.2726 46.1731 33.1844C44.967 36.0962 43.1992 38.742 40.9706 40.9706C38.742 43.1992 36.0962 44.967 33.1844 46.1731C30.2726 47.3792 27.1517 48 24 48C20.8483 48 17.7274 47.3792 14.8156 46.1731C11.9038 44.967 9.25804 43.1992 7.02944 40.9706C4.80083 38.742 3.033 36.0962 1.82689 33.1844C0.620778 30.2726 -2.75532e-07 27.1517 0 24H5.75219C5.75219 26.3963 6.22419 28.7692 7.14122 30.9831C8.05826 33.1971 9.40239 35.2087 11.0969 36.9031C12.7913 38.5976 14.8029 39.9417 17.0169 40.8588C19.2308 41.7758 21.6037 42.2478 24 42.2478C26.3963 42.2478 28.7692 41.7758 30.9831 40.8588C33.1971 39.9417 35.2087 38.5976 36.9031 36.9031C38.5976 35.2087 39.9417 33.1971 40.8588 30.9831C41.7758 28.7692 42.2478 26.3963 42.2478 24H48Z" fill="#C73238"/>
<path d="M42.9475 24.0001C42.9475 26.4883 42.4574 28.9521 41.5052 31.2509C40.553 33.5497 39.1573 35.6385 37.3979 37.3979C35.6385 39.1573 33.5497 40.553 31.2509 41.5052C28.9521 42.4574 26.4883 42.9475 24.0001 42.9475C21.5119 42.9475 19.0481 42.4574 16.7493 41.5052C14.4505 40.553 12.3617 39.1573 10.6023 37.3979C8.84286 35.6385 7.44721 33.5497 6.49502 31.2509C5.54282 28.9521 5.05273 26.4883 5.05273 24.0001L24.0001 24.0001H42.9475Z" fill="#070B09"/>
<path d="M23.6157 7.41699C21.6158 7.41699 19.9941 14.6704 19.9941 23.618C19.9941 32.5657 21.6158 39.8191 23.6157 39.8191C25.6155 39.8191 27.2372 32.5657 27.2372 23.618C27.2372 14.6704 25.6155 7.41699 23.6157 7.41699ZM23.8657 38.9048C23.637 39.2098 23.4083 38.9809 23.4083 38.9809C22.4873 37.9138 22.0268 35.9314 22.0268 35.9314C20.4158 30.7471 20.7993 19.6161 20.7993 19.6161C21.5563 10.7791 22.9336 8.6916 23.4022 8.22815C23.4501 8.18085 23.5131 8.15194 23.5802 8.14652C23.6472 8.1411 23.7141 8.15951 23.7689 8.19851C24.4489 8.68034 25.0193 10.6954 25.0193 10.6954C26.7034 16.9471 26.5509 22.8175 26.5509 22.8175C26.7034 27.9256 25.707 33.6436 25.707 33.6436C24.94 37.9891 23.8657 38.9048 23.8657 38.9048Z" fill="white"/>
<path d="M37.6678 15.5548C36.6721 13.8195 29.5741 16.0228 21.8092 20.4754C14.0443 24.9279 8.56706 29.9444 9.562 31.6789C10.5569 33.4134 17.6556 31.2108 25.4205 26.7583C33.1854 22.3058 38.6627 17.2893 37.6678 15.5548ZM10.4806 31.4409C10.0994 31.3928 10.1855 31.0795 10.1855 31.0795C10.6531 29.7499 12.1412 28.3639 12.1412 28.3639C15.838 24.3865 25.6845 19.18 25.6845 19.18C33.7255 15.4389 36.2231 15.5967 36.8567 15.7712C36.9218 15.7893 36.9783 15.8299 37.0163 15.8857C37.0542 15.9416 37.0712 16.009 37.0642 16.0762C36.9881 16.9062 35.5203 18.4031 35.5203 18.4031C30.9388 22.9767 25.7706 25.7663 25.7706 25.7663C21.4157 28.4415 15.9601 30.4215 15.9601 30.4215C11.8089 31.9174 10.4808 31.4409 10.4808 31.4409H10.4806Z" fill="white"/>
<path d="M37.6337 31.7359C38.6371 30.0053 33.1737 24.9659 25.4361 20.4799C17.6986 15.994 10.6016 13.7635 9.59908 15.497C8.5966 17.2306 14.0591 22.267 21.8011 26.753C29.5431 31.239 36.6312 33.4697 37.6337 31.7359ZM10.2639 16.1658C10.1157 15.8144 10.4286 15.7297 10.4286 15.7297C11.8138 15.4681 13.7595 16.0642 13.7595 16.0642C19.0527 17.2696 28.4914 23.1819 28.4914 23.1819C35.7586 28.2671 36.8731 30.507 37.0401 31.1428C37.0571 31.208 37.0505 31.2771 37.0215 31.3379C36.9925 31.3988 36.9429 31.4474 36.8816 31.4752C36.1238 31.8222 34.0942 31.3052 34.0942 31.3052C27.8387 29.6279 22.8359 26.5548 22.8359 26.5548C18.3409 24.1305 13.8961 20.4001 13.8961 20.4001C10.5187 17.5564 10.265 16.1696 10.265 16.1696L10.2639 16.1658Z" fill="white"/>
<path d="M23.5779 25.4829C24.6305 25.4829 25.4838 24.6295 25.4838 23.5769C25.4838 22.5242 24.6305 21.6709 23.5779 21.6709C22.5252 21.6709 21.6719 22.5242 21.6719 23.5769C21.6719 24.6295 22.5252 25.4829 23.5779 25.4829Z" fill="white"/>
<path d="M31.3944 17.4034C32.0049 17.4034 32.4998 16.8914 32.4998 16.2598C32.4998 15.6282 32.0049 15.1162 31.3944 15.1162C30.7839 15.1162 30.2891 15.6282 30.2891 16.2598C30.2891 16.8914 30.7839 17.4034 31.3944 17.4034Z" fill="white"/>
<path d="M13.2462 21.2911C13.8567 21.2911 14.3517 20.7791 14.3517 20.1475C14.3517 19.5159 13.8567 19.0039 13.2462 19.0039C12.6356 19.0039 12.1406 19.5159 12.1406 20.1475C12.1406 20.7791 12.6356 21.2911 13.2462 21.2911Z" fill="white"/>
<path d="M21.3302 35.3184C21.9408 35.3184 22.4358 34.8064 22.4358 34.1748C22.4358 33.5433 21.9408 33.0312 21.3302 33.0312C20.7196 33.0312 20.2246 33.5433 20.2246 34.1748C20.2246 34.8064 20.7196 35.3184 21.3302 35.3184Z" fill="white"/>
</svg>
