<svg width="114" height="114" viewBox="0 0 114 114" fill="none" xmlns="http://www.w3.org/2000/svg">
<circle cx="57" cy="57" r="45" fill="url(#paint0_linear_1780_2402)"/>
<path d="M114 57C114 64.4853 112.526 71.8974 109.661 78.813C106.797 85.7285 102.598 92.0121 97.3051 97.3051C92.0121 102.598 85.7285 106.797 78.813 109.661C71.8974 112.526 64.4853 114 57 114C49.5147 114 42.1026 112.526 35.187 109.661C28.2715 106.797 21.9879 102.598 16.6949 97.3051C11.402 92.0121 7.20338 85.7285 4.33886 78.813C1.47435 71.8974 -6.5439e-07 64.4853 0 57L13.6615 57C13.6615 62.6913 14.7824 68.3269 16.9604 73.5849C19.1384 78.843 22.3307 83.6206 26.355 87.645C30.3794 91.6693 35.157 94.8616 40.4151 97.0396C45.6731 99.2176 51.3087 100.339 57 100.339C62.6913 100.339 68.3269 99.2176 73.5849 97.0396C78.843 94.8616 83.6206 91.6693 87.645 87.645C91.6693 83.6206 94.8616 78.843 97.0396 73.5849C99.2176 68.3269 100.339 62.6913 100.339 57L114 57Z" fill="#C73238"/>
<path d="M102 57C102 62.9095 100.836 68.7611 98.5743 74.2208C96.3129 79.6804 92.9982 84.6412 88.8196 88.8198C84.6409 92.9984 79.6802 96.3131 74.2205 98.5746C68.7609 100.836 62.9092 102 56.9998 102C51.0903 102 45.2387 100.836 39.779 98.5746C34.3193 96.3131 29.3586 92.9984 25.1799 88.8198C21.0013 84.6412 17.6866 79.6804 15.4252 74.2208C13.1637 68.7611 11.9998 62.9095 11.9998 57L56.9998 57H102Z" fill="#070B09"/>
<g clip-path="url(#clip0_1780_2402)">
<path d="M57 90C48.1834 90 39.9 86.5667 33.6667 80.3333C27.4333 74.0999 24 65.8166 24 57C24 48.1834 27.4333 39.9 33.6667 33.6667C39.9 27.4333 48.1834 24 57 24C65.8166 24 74.0999 27.4333 80.3333 33.6667C86.5667 39.9 90 48.1834 90 57C90 65.8166 86.5667 74.0999 80.3333 80.3333C74.0999 86.5667 65.8166 90 57 90ZM57 26.6833C40.2833 26.6833 26.6833 40.2833 26.6833 57C26.6833 73.7166 40.2833 87.3166 57 87.3166C73.7166 87.3166 87.3166 73.7166 87.3166 57C87.3166 40.2833 73.7166 26.6833 57 26.6833ZM53.0667 47.3333L33.8 42.5666L46.6001 57.7499L36.1 74.6167L54.4999 67.1333L67.3 82.3166L65.8666 62.5166L84.2667 55.0334L65 50.2667L63.5667 30.4667L53.0667 47.3333Z" fill="white"/>
</g>
<defs>
<linearGradient id="paint0_linear_1780_2402" x1="26.5385" y1="23.7692" x2="93" y2="88.1538" gradientUnits="userSpaceOnUse">
<stop stop-color="#A96A74"/>
<stop offset="0.255172" stop-color="#E3B94D"/>
<stop offset="0.498212" stop-color="#B8E287"/>
<stop offset="0.677083" stop-color="#86DABB"/>
<stop offset="1" stop-color="#003896"/>
</linearGradient>
<clipPath id="clip0_1780_2402">
<rect width="66" height="66" fill="white" transform="translate(24 24)"/>
</clipPath>
</defs>
</svg>
