<svg width="48" height="48" viewBox="0 0 48 48" fill="none" xmlns="http://www.w3.org/2000/svg">
<path d="M24.0001 42.9475C34.4644 42.9475 42.9475 34.4644 42.9475 24.0001C42.9475 13.5358 34.4644 5.05273 24.0001 5.05273C13.5358 5.05273 5.05273 13.5358 5.05273 24.0001C5.05273 34.4644 13.5358 42.9475 24.0001 42.9475Z" fill="#C73238"/>
<path d="M48 24C48 27.1517 47.3792 30.2726 46.1731 33.1844C44.967 36.0962 43.1992 38.742 40.9706 40.9706C38.742 43.1992 36.0962 44.967 33.1844 46.1731C30.2726 47.3792 27.1517 48 24 48C20.8483 48 17.7274 47.3792 14.8156 46.1731C11.9038 44.967 9.25804 43.1992 7.02944 40.9706C4.80083 38.742 3.033 36.0962 1.82689 33.1844C0.620778 30.2726 -2.75532e-07 27.1517 0 24H5.75219C5.75219 26.3963 6.22419 28.7692 7.14122 30.9831C8.05826 33.1971 9.40239 35.2087 11.0969 36.9031C12.7913 38.5976 14.8029 39.9417 17.0169 40.8588C19.2308 41.7758 21.6037 42.2478 24 42.2478C26.3963 42.2478 28.7692 41.7758 30.9831 40.8588C33.1971 39.9417 35.2087 38.5976 36.9031 36.9031C38.5976 35.2087 39.9417 33.1971 40.8588 30.9831C41.7758 28.7692 42.2478 26.3963 42.2478 24H48Z" fill="#C73238"/>
<path d="M42.9475 24.0001C42.9475 26.4883 42.4574 28.9521 41.5052 31.2509C40.553 33.5497 39.1573 35.6385 37.3979 37.3979C35.6385 39.1573 33.5497 40.553 31.2509 41.5052C28.9521 42.4574 26.4883 42.9475 24.0001 42.9475C21.5119 42.9475 19.0481 42.4574 16.7493 41.5052C14.4505 40.553 12.3617 39.1573 10.6023 37.3979C8.84286 35.6385 7.44721 33.5497 6.49502 31.2509C5.54282 28.9521 5.05273 26.4883 5.05273 24.0001L24.0001 24.0001H42.9475Z" fill="#070B09"/>
<path d="M30.0345 13.8945H17.6836V16.6057H30.0345V13.8945Z" fill="white"/>
<path d="M30.27 23.4958C30.27 24.4514 30.0507 25.3286 29.6121 26.1275C29.1735 26.9107 28.4999 27.5451 27.5914 28.0307C26.6828 28.5163 25.555 28.7591 24.2078 28.7591H21.7172V34.6803H17.6992V18.1855H24.2078C25.5236 18.1855 26.6358 18.4127 27.5444 18.867C28.4529 19.3212 29.1343 19.9478 29.5886 20.7467C30.0429 21.5456 30.27 22.462 30.27 23.4958ZM23.9024 25.5635C24.6699 25.5635 25.2417 25.3834 25.6176 25.0231C25.9936 24.6628 26.1816 24.1537 26.1816 23.4958C26.1816 22.8379 25.9936 22.3288 25.6176 21.9685C25.2417 21.6082 24.6699 21.4281 23.9024 21.4281H21.7172V25.5635H23.9024Z" fill="white"/>
</svg>
