<svg width="1440" height="334" viewBox="0 0 1440 334" fill="none" xmlns="http://www.w3.org/2000/svg">
<g clip-path="url(#clip0_166_12636)">
<rect width="1440" height="334" fill="#E59636"/>
<g opacity="0.1">
<path d="M1796.27 -38.998H1778.23C1789.53 -25.6752 1798.3 -11.2271 1800.58 6.59933C1803.42 28.7975 1798.48 49.2786 1781.9 64.392C1752.46 91.2234 1733.85 127.554 1700.9 150.982C1676.23 168.516 1649.69 163.961 1624.72 152.686C1595.05 139.285 1566.92 141.754 1538.43 154.543C1536.65 155.341 1534.59 155.528 1532.66 156.001C1533.18 154.06 1533.42 151.997 1534.25 150.193C1544.17 128.727 1583.09 120.31 1612.82 132.721C1642.61 145.156 1672.42 161.358 1703.8 136.168C1725.21 118.986 1737.69 94.9515 1754.32 74.0925C1766.96 58.236 1784.51 44.8722 1785.43 22.8813C1786.66 -6.34333 1770.56 -25.3361 1746.64 -38.9959H1626.56C1637.9 -35.1835 1649.21 -31.2307 1660.73 -28.0383C1682.56 -21.9903 1704.25 -31.4208 1726.06 -29.5157C1747.36 -27.6559 1763.1 -16.6206 1773.33 1.31599C1779.62 12.3319 1779.42 23.7626 1771.8 34.6425C1768.8 38.9128 1764.9 41.5458 1759.82 40.8028C1753.74 39.915 1751.24 34.9729 1749.91 29.7134C1740.9 -5.92213 1730.38 -13.4281 1694.04 -3.62822C1670.31 2.77182 1652.72 -9.27875 1633.59 -16.856C1592.03 -33.3238 1550.97 -7.53565 1550.77 35.8909C1550.73 46.3669 1550.03 56.8688 1549.02 67.3037C1548.32 74.572 1546.86 82.9247 1536.61 81.5186C1527.23 80.2334 1523.78 71.8008 1524.06 64.1868C1525.66 22.0843 1533.96 -26.8373 1584.74 -38.9937H1547.02C1520.8 -6.72781 1509.58 30.2966 1513.69 71.2586C1515.23 86.5686 1523.89 100.894 1542.48 98.239C1562.59 95.3641 1559.94 76.6629 1562.07 62.6035C1565.93 37.1459 1562.2 8.37483 1591.79 -5.89405C1611.33 -15.3181 1629.99 -8.8446 1645.86 2.9835C1659.54 13.1851 1672.7 16.9867 1690.43 15.1745C1729.62 11.1699 1743.66 30.1151 1734.16 70.2261C1725.49 106.853 1694.93 138.359 1667.96 137.795C1647.84 137.374 1633.06 123.597 1615.49 116.761C1581.24 103.429 1553.65 117.86 1527.68 137.931C1488.22 168.417 1445.97 192.968 1394.28 197.352C1389.48 197.758 1383.78 197.067 1382.68 191.9C1381.46 186.12 1387.4 184.511 1391.78 183.003C1415.88 174.713 1441.13 169.525 1463.64 156.993C1497.36 138.225 1501.13 109.611 1495.44 75.382C1488.74 35.0075 1498.14 -3.39495 1518.99 -38.9894H1499.16C1483.18 -0.18952 1485.54 40.9388 1483.54 81.5553C1482.38 105.203 1477.13 127.915 1459.46 145.558C1422.93 182.042 1368.01 180.509 1327.42 142.977C1321.9 137.873 1314.64 127.565 1306.54 134.162C1298.35 140.834 1306.53 149.325 1311.51 156.027C1314.92 160.604 1318.28 165.274 1322.22 169.4C1343.12 191.309 1361.84 216.978 1398.24 213.548C1420.33 211.466 1437.58 198.156 1456.63 189.155C1497.88 169.672 1539.5 194.804 1539.5 239.539C1539.5 294.861 1481.25 333.87 1422.53 321.921C1381.9 313.653 1345.91 293.372 1305.58 285.154C1282.87 280.527 1255.54 295.623 1249.88 317.703C1245.15 336.196 1258.38 351.85 1282.71 358.239C1317.22 367.302 1349.4 380.038 1372.13 409.476C1396.03 440.429 1404.56 441.487 1438.34 418.609C1466.4 399.605 1495.24 390.963 1529.08 402.972C1560.02 413.956 1572.87 405.886 1573.17 373.897C1573.54 332.838 1592.99 306.466 1631.51 291.921C1664.65 279.41 1682 248.978 1673.68 216.045C1669.24 198.475 1654.76 191.596 1637.86 195.346C1622.78 198.691 1628.31 211.824 1630.43 221.443C1636.17 247.555 1634.16 270.885 1609.52 287.83C1593.93 298.552 1579.18 310.115 1571.78 328.202C1566.15 341.983 1560.14 355.703 1549.45 366.585C1525.86 390.6 1493.97 386.561 1464.35 389.464C1401.24 395.648 1349.07 366.581 1296.74 338.7C1286.55 333.27 1274.37 325.494 1282.53 312.393C1290.27 299.973 1303.76 304.138 1314.36 310.331C1349.7 330.969 1384.03 352.703 1425.84 360.652C1461.57 367.443 1497.74 358.865 1514.32 336.851C1546.23 294.491 1554.5 246.559 1552.78 195.527C1551.72 164.222 1570.22 150.094 1600.74 160.049C1649.62 175.996 1694.2 174.893 1731.14 135.123C1750.27 114.534 1765.22 90.2125 1788.61 73.438C1809.05 58.7803 1818.57 40.064 1814.59 14.9563C1811.57 -4.12934 1803.43 -21.3682 1796.26 -38.9937L1796.27 -38.998Z" fill="white"/>
<path d="M1792.25 248.775C1791.8 246.55 1787.55 244.014 1784.66 243.461C1760.37 238.817 1735.09 239.638 1711.68 229.901C1703.34 226.434 1699.13 232.374 1698.47 239.649C1695.22 274.984 1679.13 300.226 1643.08 312.337C1622.02 319.408 1601.1 329.705 1596.15 353.376C1592.68 369.931 1594 387.483 1593.68 404.598C1593.27 426.455 1581.57 436.86 1559.92 432.797C1540.77 429.201 1522.01 421.9 1502.79 420.699C1461.46 418.118 1436.3 445.373 1413.22 473.288C1402.29 486.512 1404.17 501.398 1418.02 512.946C1427.16 520.573 1436.95 517.795 1445.64 511.758C1456.02 504.552 1464.79 494.141 1476.14 489.456C1535.13 465.098 1592.42 476.757 1645.05 505.841C1691.92 531.742 1702.14 566.993 1680.79 601.769C1661.03 633.959 1627.07 643.236 1593.8 654.101C1549.32 668.625 1510.32 688.896 1498.28 738.826C1491.79 765.759 1477.85 788.42 1446.95 793.105C1419.03 797.341 1401.34 779.318 1383.84 761.554C1369.05 746.538 1355.34 729.614 1334.41 722.147C1297.89 709.114 1270.78 726.897 1245 748.192V779.205C1252.64 768.345 1259.68 757.001 1271.19 749.274C1305.3 726.37 1334.45 731.8 1360.19 764.317C1377.65 786.366 1396.4 807.447 1418.81 825.006H1502.62C1490.2 774.173 1513.58 734.928 1549.2 700.701C1571.95 678.841 1603.48 670.804 1631.04 656.483C1667.58 637.495 1698.4 613.109 1706.56 570.628C1712.54 539.477 1689.84 524.314 1668.28 508.595C1652.68 497.219 1632.75 489.298 1629.32 467.178C1628.77 463.661 1630.74 459.775 1631.54 456.06C1633.34 456.9 1635.61 457.326 1636.85 458.661C1639.68 461.711 1641.86 465.32 1644.56 468.502C1661.58 488.57 1683.34 503.401 1703.89 519.59C1731.99 541.721 1731.12 568.481 1708.69 606.935C1679.32 657.261 1630.46 682.3 1581.71 708.269C1545.86 727.363 1512.5 781.218 1532.21 825.006H1560.02C1534.95 774.227 1562.84 720.765 1614.35 703.742C1637.01 696.251 1661.96 692.501 1677.49 671.476C1695.56 646.995 1705.31 617.465 1727.03 595.103C1737.32 584.515 1748.31 573.199 1746.53 556.942C1744.17 535.464 1724.83 526.776 1710.47 514.63C1683.9 492.164 1651.58 473.56 1640.44 439.081C1625.42 392.608 1650.85 357.122 1680.92 324.681C1709.33 294.02 1749.46 280.84 1784.64 260.272C1788.93 257.76 1793.34 254.134 1792.25 248.783V248.775ZM1647.86 349.797C1633.33 375.391 1628.18 403.281 1623.8 431.821C1618.6 465.651 1592.78 481.425 1558.52 467.733C1513.13 449.589 1475.37 454.6 1441.62 489.328C1437.8 493.257 1429.85 498.994 1426.55 493.303C1420.84 483.468 1429.7 475.129 1436.02 468.029C1468.22 431.823 1506.15 425.859 1551.23 444.66C1568.54 451.881 1592.7 461.94 1603.28 434.162C1608.69 419.971 1608.14 403.629 1610.28 388.26C1611.19 369.872 1610.01 350.586 1625.24 336.392C1631.69 330.379 1640.39 324.551 1648.71 329.781C1656.87 334.911 1651.45 343.488 1647.86 349.797Z" fill="white"/>
<path d="M1508.82 211.442C1497.64 195.596 1474.2 193.648 1453.8 207.733C1437.15 219.22 1423.25 235.122 1400.82 236.541C1365.64 238.766 1343.16 217.643 1320.89 195.808C1290.63 166.123 1281.79 164.356 1245 182.654V211.561C1279.89 194.715 1305.82 216.324 1333.63 232.109C1383 260.137 1414.82 256.802 1463 220.6C1469.73 215.544 1478.88 208.476 1485.8 216.146C1494.17 225.432 1487.02 235.99 1479.6 243.084C1446.34 274.915 1405.93 275.734 1363.33 267.816C1334.74 262.502 1311.9 243.768 1284.02 237.133C1269.71 233.727 1257.19 238.468 1245 244.684V271.237C1258.61 260.452 1273.79 251.67 1291.64 256.996C1320.15 265.507 1347.28 278.594 1375.96 286.35C1415.72 297.103 1456.3 305.352 1494.29 279.082C1515.63 264.323 1523 231.539 1508.82 211.44L1508.82 211.442Z" fill="white"/>
<path d="M1426.26 -38.9978H1388.86C1381.69 -25.8673 1373.72 -13.0564 1367.96 0.63796C1358.17 23.9313 1365.6 42.5828 1387.1 56.4521C1395.32 61.7505 1405.41 66.3816 1405.61 77.9375C1405.66 80.8103 1402.27 85.5731 1399.53 86.3463C1386.86 89.9276 1376.55 83.7587 1368.13 75.717C1334.09 43.2308 1328.54 3.01179 1351.81 -37.4232C1352.1 -37.9286 1352.35 -38.4578 1352.57 -38.9978H1335.71C1318.81 -3.7209 1327 53.3741 1354.15 81.7261C1367.55 95.7185 1383.4 106.985 1404.23 98.4682C1422.08 91.1696 1423.05 74.1683 1422.31 58.3745C1420.78 25.7478 1418.52 -6.81616 1426.26 -39V-38.9978Z" fill="white"/>
<path d="M1473.14 -38.998H1455.7C1454.77 -36.3758 1453.82 -33.7622 1453.12 -31.0838C1443.52 5.90165 1451.34 44.0384 1445.31 81.2961C1441.18 106.749 1421.24 130.874 1397.43 134.933C1375.85 138.611 1357.49 129.835 1345.76 112.484C1314.67 66.4893 1299.74 16.2934 1307.81 -38.998H1289.41C1288.78 -35.8833 1288 -32.7578 1288.23 -29.7058C1292.42 25.4863 1309.5 78.0215 1339.18 123.815C1363.21 160.902 1406.85 172.057 1441.93 130.529C1464.96 103.27 1467.81 70.9411 1468.09 37.5541C1468.3 11.9777 1464.72 -13.9681 1473.14 -38.998Z" fill="white"/>
<path d="M1293.05 61.9188C1284.76 28.2575 1264.64 -2.73615 1267.78 -38.998H1254.53C1250.99 -13.9011 1262.54 8.1826 1270.42 30.9294C1283.7 69.2433 1275.08 102.52 1245 127.524V153.619C1277.54 146.787 1302.14 98.8525 1293.05 61.9188H1293.05Z" fill="white"/>
</g>
</g>
<defs>
<clipPath id="clip0_166_12636">
<rect width="1440" height="334" fill="white"/>
</clipPath>
</defs>
</svg>
