<svg aria-hidden="true" style="position: absolute; width: 0; height: 0; overflow: hidden;" version="1.1"
     xmlns="http://www.w3.org/2000/svg" xmlns:xlink="http://www.w3.org/1999/xlink">
    <defs>
        <symbol viewBox="0 0 26 18" id="icon-download">
            <g clip-path="url(#clip0_2343_6550)">
                <path d="M4.05273 16.5734V4.18656C4.05273 3.66909 4.4757 3.21631 5.02881 3.21631H9.77905L11.3082 5.31852H20.223" stroke-width="1.7" stroke-miterlimit="10" stroke-linecap="round" stroke-linejoin="round"></path>
                <path d="M19.9953 16.5734H4.05273L7.79436 7.87354H23.7369L19.9953 16.5734Z" stroke-width="1.7" stroke-miterlimit="10" stroke-linecap="round" stroke-linejoin="round"></path>
            </g>
            <defs>
                <clipPath id="clip0_2343_6550">
                    <rect width="25.0526" height="17"  transform="translate(0.474609 0.5)"></rect>
                </clipPath>
            </defs>
        </symbol>
        <symbol  viewBox="0 0 23 23" id="icon-wallet">
            <path d="M18.648 6.49707H4.35491C3.17082 6.49707 2.21094 7.45696 2.21094 8.64104V17.2169C2.21094 18.401 3.17082 19.3609 4.35491 19.3609H18.648C19.8321 19.3609 20.792 18.401 20.792 17.2169V8.64104C20.792 7.45696 19.8321 6.49707 18.648 6.49707Z" stroke-linejoin="round"></path>
            <path d="M18.4408 6.49737V5.15739C18.4407 4.82874 18.368 4.50416 18.228 4.20682C18.0881 3.90947 17.8842 3.64669 17.6309 3.43722C17.3777 3.22775 17.0813 3.07675 16.763 2.995C16.4447 2.91325 16.1122 2.90276 15.7894 2.96429L4.02616 4.97202C3.51533 5.06937 3.05448 5.34194 2.7231 5.74271C2.39172 6.14348 2.21059 6.64733 2.21094 7.16736V9.35599" stroke-linejoin="round"></path>
            <path d="M16.5035 14.3587C16.2208 14.3587 15.9445 14.2749 15.7094 14.1178C15.4744 13.9607 15.2912 13.7375 15.183 13.4763C15.0748 13.2152 15.0465 12.9278 15.1017 12.6505C15.1568 12.3733 15.293 12.1186 15.4929 11.9187C15.6927 11.7188 15.9474 11.5827 16.2247 11.5275C16.5019 11.4724 16.7893 11.5007 17.0505 11.6089C17.3117 11.717 17.5349 11.9002 17.692 12.1353C17.849 12.3703 17.9328 12.6467 17.9328 12.9294C17.9328 13.3085 17.7823 13.672 17.5142 13.9401C17.2462 14.2081 16.8826 14.3587 16.5035 14.3587Z"></path>
        </symbol>
        <symbol viewBox="0 0 26 21" id="icon-community">
            <path d="M12.5014 9.78418H4.83984" stroke-width="1.2" stroke-miterlimit="10" stroke-linejoin="round"></path>
            <path d="M9.08216 13.0254H4.83984" stroke-width="1.2" stroke-miterlimit="10" stroke-linejoin="round"></path>
            <path d="M16.619 11.3471H18.4869L21.6845 15.1145V11.3471H22.571C23.5524 11.3471 24.3755 10.5556 24.3755 9.54255V3.27405C24.3755 2.29262 23.5524 1.46948 22.571 1.46948H13.1365C12.1551 1.46948 11.332 2.29262 11.332 3.27405V4.66705" stroke-width="1.2" stroke-miterlimit="10" stroke-linejoin="round"></path>
            <path d="M21.75 6.125H16.5" stroke-width="1.2" stroke-miterlimit="10" stroke-linejoin="round"></path>
            <path d="M7.94595 15.9372L4.84336 19.7046V15.9372H3.95691C2.97547 15.9372 2.15234 15.1141 2.15234 14.1326V7.86414C2.15234 6.88271 2.97547 6.05957 3.95691 6.05957H13.3913C14.3727 6.05957 15.1959 6.88271 15.1959 7.86414V14.1643C15.1959 15.1458 14.3727 15.9689 13.3913 15.9689H9.68715" stroke-width="1.2" stroke-miterlimit="10" stroke-linecap="round" stroke-linejoin="round"></path>
        </symbol>
        <symbol viewBox="0 0 20 19" id="icon-career">
            <g clip-path="url(#clip0_2941_1336)">
                <path d="M7.29922 8.15038C8.97678 8.15038 10.3367 6.79044 10.3367 5.11288C10.3367 3.43531 8.97678 2.07538 7.29922 2.07538C5.62165 2.07538 4.26172 3.43531 4.26172 5.11288C4.26172 6.79044 5.62165 8.15038 7.29922 8.15038Z" stroke-width="1.08" stroke-linecap="round" stroke-linejoin="round"></path>
                <path d="M13.3727 18.2758H1.22266V16.9258C1.22266 15.3146 1.8627 13.7694 3.00198 12.6301C4.14127 11.4908 5.68647 10.8508 7.29766 10.8508C8.90885 10.8508 10.454 11.4908 11.5933 12.6301C12.7326 13.7694 13.3727 15.3146 13.3727 16.9258V18.2758Z" stroke-width="1.08" stroke-linecap="round" stroke-linejoin="round"></path>
                <path d="M12.6992 2.07538C13.5048 2.07538 14.2774 2.3954 14.8471 2.96504C15.4167 3.53468 15.7367 4.30728 15.7367 5.11288C15.7367 5.91847 15.4167 6.69107 14.8471 7.26071C14.2774 7.83036 13.5048 8.15038 12.6992 8.15038" stroke-width="1.08" stroke-linecap="round" stroke-linejoin="round"></path>
                <path d="M14.8555 11.1066C16.0054 11.5441 16.9955 12.3204 17.6946 13.3329C18.3937 14.3454 18.7688 15.5463 18.7705 16.7766V18.2751H16.7455" stroke-width="1.08" stroke-linecap="round" stroke-linejoin="round"></path>
            </g>
            <defs>
                <clipPath id="clip0_2941_1336">
                    <rect width="18.9" height="18.9" transform="translate(0.550781 0.0499878)"></rect>
                </clipPath>
            </defs>
        </symbol>
        <symbol viewBox="0 0 28 28" id="icon-faq">
            <path d="M13.9987 25.6663C20.442 25.6663 25.6654 20.443 25.6654 13.9997C25.6654 7.55635 20.442 2.33301 13.9987 2.33301C7.55538 2.33301 2.33203 7.55635 2.33203 13.9997C2.33203 20.443 7.55538 25.6663 13.9987 25.6663Z" stroke-width="1.5" stroke-linecap="round" stroke-linejoin="round"></path>
            <path d="M10.6055 10.4997C10.8798 9.71997 11.4211 9.06248 12.1337 8.64368C12.8464 8.22487 13.6842 8.07178 14.4988 8.21152C15.3135 8.35125 16.0524 8.7748 16.5847 9.40714C17.117 10.0395 17.4084 10.8398 17.4071 11.6664C17.4071 13.9997 13.9071 15.1664 13.9071 15.1664" stroke-width="1.5" stroke-linecap="round" stroke-linejoin="round"></path>
            <path d="M14 19.833H14.0088" stroke-width="1.5" stroke-linecap="round" stroke-linejoin="round"></path>
        </symbol>
        <symbol viewBox="0 0 22 23" id="icon-blog">
            <g clip-path="url(#clip0_4772_2918)">
                <mask id="mask0_4772_2918" maskUnits="userSpaceOnUse" x="0" y="0" width="22" height="23">
                    <path d="M22 0.5H0V22.5H22V0.5Z" fill="white"></path>
                </mask>
                <g mask="url(#mask0_4772_2918)">
                    <path d="M10.2848 1.8469C10.3914 1.44906 10.8004 1.21297 11.1982 1.31952L20.6589 3.85324C21.057 3.95983 21.2932 4.36894 21.1865 4.76692L17.5561 18.3083C17.4496 18.7061 17.0406 18.9423 16.6428 18.8357L7.18203 16.3019C6.78404 16.1953 6.54784 15.7863 6.65454 15.3883L10.2848 1.8469Z" stroke-width="1.43" stroke-linecap="round" stroke-linejoin="round"></path>
                    <path d="M9.59762 4.48242L1.33811 6.69666C0.940273 6.80331 0.70418 7.21225 0.810733 7.6101L4.43755 21.1524C4.54414 21.5504 4.95325 21.7866 5.35123 21.6799L10.0813 20.4119" stroke-width="1.43" stroke-linecap="round" stroke-linejoin="round"></path>
                </g>
            </g>

        </symbol>
        <symbol viewBox="0 0 22 23" id="icon-book">
            <g clip-path="url(#clip0_2941_641)">
                <path d="M10.9995 21.7145C8.6977 19.1804 5.57615 17.5389 2.18376 17.0788C1.79763 17.0361 1.44101 16.8518 1.18273 16.5616C0.924456 16.2714 0.782828 15.8959 0.785185 15.5074V2.85737C0.78517 2.63039 0.834326 2.40611 0.929271 2.19994C1.02422 1.99377 1.1627 1.81062 1.33519 1.66309C1.50464 1.51823 1.70297 1.41109 1.917 1.34878C2.13104 1.28646 2.35589 1.2704 2.57661 1.30166C5.8205 1.84004 8.78803 3.45668 10.9995 5.89023V21.7145Z" stroke-width="1.42857" stroke-linecap="round" stroke-linejoin="round"></path>
                <path d="M11 21.7145C13.3018 19.1804 16.4233 17.5389 19.8157 17.0788C20.2018 17.0361 20.5585 16.8518 20.8167 16.5616C21.075 16.2714 21.2166 15.8959 21.2143 15.5074V2.85737C21.2143 2.63039 21.1651 2.40611 21.0702 2.19994C20.9753 1.99377 20.8368 1.81062 20.6643 1.66309C20.4948 1.51823 20.2965 1.41109 20.0825 1.34878C19.8684 1.28646 19.6436 1.2704 19.4229 1.30166C16.179 1.84004 13.2114 3.45668 11 5.89023V21.7145Z" stroke-width="1.42857" stroke-linecap="round" stroke-linejoin="round"></path>
            </g>
            <defs>
                <clipPath id="clip0_2941_641">
                    <rect width="22" height="22" transform="translate(0 0.5)"></rect>
                </clipPath>
            </defs>
        </symbol>
        <symbol viewBox="0 0 24 24" id="icon-trade">
            <g clip-path="url(#clip0_2343_6574)">
                <path d="M12 0.5C9.72552 0.5 7.50211 1.17446 5.61095 2.4381C3.71978 3.70174 2.2458 5.49779 1.37539 7.59914C0.504983 9.70049 0.277244 12.0128 0.720974 14.2435C1.1647 16.4743 2.25997 18.5234 3.86828 20.1317C5.47658 21.74 7.52568 22.8353 9.75647 23.279C11.9872 23.7228 14.2995 23.495 16.4009 22.6246C18.5022 21.7542 20.2983 20.2802 21.5619 18.3891C22.8255 16.4979 23.5 14.2745 23.5 12C23.4966 8.95105 22.2839 6.02795 20.128 3.87201C17.9721 1.71608 15.049 0.503388 12 0.5ZM12 22.5C9.9233 22.5 7.89323 21.8842 6.16652 20.7304C4.4398 19.5767 3.09399 17.9368 2.29927 16.0182C1.50455 14.0996 1.29661 11.9884 1.70176 9.95155C2.1069 7.91475 3.10693 6.04383 4.57538 4.57538C6.04384 3.10693 7.91476 2.1069 9.95156 1.70175C11.9884 1.29661 14.0996 1.50454 16.0182 2.29926C17.9368 3.09399 19.5767 4.4398 20.7304 6.16651C21.8842 7.89323 22.5 9.9233 22.5 12C22.4968 14.7838 21.3896 17.4527 19.4211 19.4211C17.4527 21.3896 14.7838 22.4968 12 22.5Z" ></path>
                <path d="M15.75 14H7C6.86739 14 6.74021 14.0527 6.64645 14.1464C6.55268 14.2402 6.5 14.3674 6.5 14.5C6.5 14.6326 6.55268 14.7598 6.64645 14.8536C6.74021 14.9473 6.86739 15 7 15H15.75C15.8826 15 16.0098 14.9473 16.1036 14.8536C16.1973 14.7598 16.25 14.6326 16.25 14.5C16.25 14.3674 16.1973 14.2402 16.1036 14.1464C16.0098 14.0527 15.8826 14 15.75 14Z"></path>
                <path d="M9.85339 11.6465C9.75963 11.5528 9.63248 11.5001 9.49989 11.5001C9.36731 11.5001 9.24016 11.5528 9.14639 11.6465L6.64639 14.1465C6.55266 14.2403 6.5 14.3674 6.5 14.5C6.5 14.6326 6.55266 14.7598 6.64639 14.8535L9.14639 17.3535C9.24069 17.4446 9.367 17.495 9.49809 17.4939C9.62919 17.4927 9.7546 17.4401 9.8473 17.3474C9.94001 17.2547 9.99259 17.1293 9.99373 16.9982C9.99487 16.8671 9.94447 16.7408 9.85339 16.6465L7.70689 14.5L9.85339 12.3535C9.94713 12.2598 9.99979 12.1326 9.99979 12C9.99979 11.8674 9.94713 11.7403 9.85339 11.6465Z" ></path>
                <path d="M17 9H8.25C8.11739 9 7.99021 9.05268 7.89645 9.14645C7.80268 9.24021 7.75 9.36739 7.75 9.5C7.75 9.63261 7.80268 9.75979 7.89645 9.85355C7.99021 9.94732 8.11739 10 8.25 10H17C17.1326 10 17.2598 9.94732 17.3536 9.85355C17.4473 9.75979 17.5 9.63261 17.5 9.5C17.5 9.36739 17.4473 9.24021 17.3536 9.14645C17.2598 9.05268 17.1326 9 17 9Z" ></path>
                <path d="M14.8518 6.64622C14.7575 6.55514 14.6312 6.50474 14.5001 6.50588C14.369 6.50702 14.2436 6.5596 14.1509 6.65231C14.0582 6.74501 14.0056 6.87042 14.0045 7.00151C14.0034 7.13261 14.0538 7.25891 14.1448 7.35322L16.2913 9.49972L14.1448 11.6462C14.0971 11.6923 14.059 11.7475 14.0328 11.8085C14.0066 11.8695 13.9928 11.9351 13.9922 12.0015C13.9916 12.0679 14.0043 12.1337 14.0294 12.1952C14.0546 12.2566 14.0917 12.3125 14.1386 12.3594C14.1856 12.4064 14.2414 12.4435 14.3029 12.4686C14.3643 12.4938 14.4301 12.5064 14.4965 12.5058C14.5629 12.5053 14.6285 12.4915 14.6895 12.4653C14.7505 12.4391 14.8057 12.401 14.8518 12.3532L17.3518 9.85322C17.4456 9.75945 17.4982 9.6323 17.4982 9.49972C17.4982 9.36713 17.4456 9.23998 17.3518 9.14621L14.8518 6.64622Z" ></path>
            </g>
            <defs>
                <clipPath id="clip0_2343_6574">
                    <rect width="24" height="24"></rect>
                </clipPath>
            </defs>
        </symbol>
        <symbol  viewBox="0 0 16 12" id="icon-discord">
            <path d="M3.66828 9.09047C7.06944 10.4178 9.96383 10.6763 13.2438 8.61031C13.2197 8.64637 12.5709 9.60758 10.8648 10.1002C11.2252 10.5928 11.7178 11.1575 11.7178 11.1575C12.8112 11.1575 13.8806 10.8451 14.8057 10.2444C15.5267 9.76374 15.9352 8.93469 15.8511 8.06962C15.7069 6.59173 15.3584 5.1499 14.8178 3.76818C14.1329 1.9659 12.4868 0.716304 10.5764 0.536063C10.4082 0.524042 10.288 0.524042 10.216 0.524042L10.0237 0.716269C12.2225 1.34107 13.3159 2.3143 13.3399 2.35036C9.96362 0.644179 5.97458 0.620173 2.57424 2.27827C2.57424 2.27827 3.65562 1.20891 6.04663 0.644179L5.90246 0.5C5.65012 0.5 5.40981 0.524042 5.15752 0.560069C3.39127 0.860448 1.91342 2.07399 1.27659 3.7441C0.723884 5.18593 0.363436 6.69985 0.231278 8.2378C0.159188 9.05483 0.543678 9.85987 1.21653 10.3285C2.10564 10.9172 3.16298 11.2296 4.23234 11.2296C4.23234 11.2296 4.66488 10.6649 5.09745 10.1603C3.47538 9.67963 2.81455 8.71843 2.80253 8.68236L3.1078 8.83824C3.29029 8.93148 3.47738 9.01595 3.66828 9.09047ZM5.55403 8.04558C4.77303 8.02154 4.16025 7.36071 4.18429 6.56769C4.20833 5.82275 4.80909 5.22199 5.55403 5.19795C6.33503 5.22199 6.94781 5.88282 6.92377 6.67584C6.8877 7.42081 6.29897 8.02157 5.55403 8.04558ZM10.4562 8.04558C9.67523 8.02154 9.06245 7.36071 9.08649 6.56769C9.11053 5.82275 9.71129 5.22199 10.4562 5.19795C11.2372 5.22199 11.85 5.88282 11.826 6.67584C11.802 7.42081 11.2012 8.02157 10.4562 8.04558Z"></path>
        </symbol>
        <symbol viewBox="0 0 17 10" id="icon-medium">
            <path d="M9.1753 5.07805C9.1753 7.56321 7.18952 9.57782 4.74007 9.57782C2.29062 9.57782 0.304688 7.56321 0.304688 5.07805C0.304688 2.59289 2.29047 0.578125 4.74007 0.578125C7.18967 0.578125 9.1753 2.59289 9.1753 5.07805Z"></path>
            <path d="M14.0408 5.07617C14.0408 7.41542 13.048 9.31251 11.8232 9.31251C10.5984 9.31251 9.60547 7.41542 9.60547 5.07617C9.60547 2.73693 10.5982 0.839844 11.823 0.839844C13.0478 0.839844 14.0407 2.73632 14.0407 5.07617"></path>
            <path d="M16.0324 5.07633C16.0324 7.17172 15.6833 8.87142 15.2525 8.87142C14.8217 8.87142 14.4727 7.17218 14.4727 5.07633C14.4727 2.98049 14.8218 1.28125 15.2525 1.28125C15.6831 1.28125 16.0324 2.98034 16.0324 5.07633Z"></path>
        </symbol>
        <symbol viewBox="0 0 12 11" id="icon-telegram">
            <path d="M0.778217 4.72355L10.7643 0.886802C11.2278 0.719949 11.6326 0.99947 11.4824 1.69784L11.4832 1.69698L9.78294 9.67924C9.65693 10.2452 9.31945 10.3828 8.84734 10.1162L6.25804 8.21455L5.00913 9.41348C4.87104 9.55109 4.75452 9.6672 4.48696 9.6672L4.6708 7.04142L9.46963 2.72132C9.6785 2.53813 9.42303 2.43492 9.1477 2.61725L3.21734 6.33789L0.660835 5.54319C0.105862 5.36774 0.0937783 4.99017 0.778217 4.72355Z"></path>
        </symbol>
         <symbol viewBox="0 0 12 10" id="icon-twitter">
            <path d="M4.03085 0.472656H0.738281L4.62392 5.65352L0.949923 9.87996H2.19641L5.20127 6.42328L7.79379 9.88001H11.0864L7.0373 4.48127L10.522 0.472656H9.2755L6.45997 3.7115L4.03085 0.472656ZM8.26416 8.93927L2.61975 1.41339H3.56049L9.2049 8.93927H8.26416Z"></path>
        </symbol>
        <symbol  viewBox="0 0 20 21" id="icon-docs">
            <g clip-path="url(#clip0_4772_3111)">
                <path d="M3.63717 19.6928L0.808594 16.8642L3.63717 14.0356"  stroke-width="1.5" stroke-linecap="round" stroke-linejoin="round"></path>
                <path d="M7.88281 19.6928L10.7114 16.8642L7.88281 14.0356"  stroke-width="1.5" stroke-linecap="round" stroke-linejoin="round"></path>
                <path d="M3.63672 11.9995V2.72141C3.63672 2.34632 3.78572 1.98659 4.05095 1.72136C4.31618 1.45613 4.67591 1.30713 5.051 1.30713H12.1224L19.1939 8.37856V18.2786C19.1939 18.6537 19.0449 19.0134 18.7796 19.2786C18.5144 19.5438 18.1547 19.6928 17.7796 19.6928H12.002" stroke-width="1.5" stroke-linecap="round" stroke-linejoin="round"></path>
                <path d="M12.125 1.30713V8.37856H19.1964" stroke-width="1.5" stroke-linecap="round" stroke-linejoin="round"></path>
            </g>
            <defs>
                <clipPath id="clip0_4772_3111">
                    <rect width="19.8" height="19.8" fill="white" transform="translate(0.101562 0.600098)"></rect>
                </clipPath>
            </defs>
        </symbol>
        <symbol viewBox="0 0 24 25" id="icon-values">
            <g clip-path="url(#clip0_4772_2087)">
                <path d="M4.74918 12.1186C3.21384 12.1186 1.96484 10.881 1.96484 9.36019C1.96484 7.83921 3.21384 6.60156 4.74918 6.60156C6.28434 6.60156 7.53314 7.83902 7.53314 9.36019C7.53314 10.8812 6.28434 12.1186 4.74918 12.1186ZM4.74918 7.37576C3.64063 7.37576 2.73904 8.266 2.73904 9.36019C2.73904 10.4542 3.64063 11.3444 4.74918 11.3444C5.85736 11.3444 6.75895 10.4542 6.75895 9.36019C6.75895 8.266 5.85736 7.37576 4.74918 7.37576Z" ></path>
                <path d="M5.8675 19.7568H1.01178C0.453818 19.7568 0 19.3059 0 18.7515V17.4853C0 14.8932 2.1296 12.7842 4.74742 12.7842C5.77697 12.7842 6.75699 13.1055 7.58071 13.7132C7.75271 13.8402 7.78938 14.0825 7.66236 14.2547C7.53535 14.4265 7.29322 14.4632 7.12103 14.3363C6.43133 13.8275 5.61064 13.5584 4.74742 13.5584C2.55658 13.5584 0.774194 15.3202 0.774194 17.4853V18.7515C0.774194 18.8789 0.880796 18.9826 1.01178 18.9826H5.86769C6.08128 18.9826 6.25479 19.156 6.25479 19.3697C6.25479 19.5833 6.08128 19.7568 5.8675 19.7568Z" ></path>
                <path d="M22.9908 19.4637H18.1351C17.9215 19.4637 17.748 19.2904 17.748 19.0766C17.748 18.863 17.9215 18.6895 18.1351 18.6895H22.991C23.122 18.6895 23.2286 18.5859 23.2286 18.4585V17.1923C23.2286 15.0268 21.4462 13.2654 19.2553 13.2654C18.3403 13.2654 17.4471 13.5805 16.74 14.1528C16.574 14.2872 16.3304 14.2617 16.1956 14.0955C16.0612 13.9294 16.0866 13.6856 16.2531 13.551C17.0974 12.8677 18.1636 12.4912 19.2553 12.4912C21.873 12.4912 24.0026 14.6 24.0026 17.1923V18.4585C24.0026 19.0127 23.5488 19.4637 22.9908 19.4637Z" ></path>
                <path d="M19.2527 11.9272C17.7176 11.9272 16.4688 10.6898 16.4688 9.16879C16.4688 7.64781 17.7176 6.41016 19.2527 6.41016C20.7881 6.41016 22.037 7.64762 22.037 9.16879C22.037 10.69 20.7879 11.9272 19.2527 11.9272ZM19.2527 7.18435C18.1445 7.18435 17.2429 8.0746 17.2429 9.16879C17.2429 10.263 18.1445 11.153 19.2527 11.153C20.3613 11.153 21.2629 10.263 21.2629 9.16879C21.2629 8.0746 20.3611 7.18435 19.2527 7.18435Z" ></path>
                <path d="M17.2538 21.0164H6.74628C6.04826 21.0164 5.48047 20.4528 5.48047 19.7599V17.979C5.48047 14.4199 8.40486 11.5244 12.0001 11.5244C15.5953 11.5244 18.5197 14.4199 18.5197 17.979V19.7599C18.5197 20.4528 17.9519 21.0164 17.2538 21.0164ZM12.0001 12.2988C8.83203 12.2988 6.25466 14.8471 6.25466 17.9792V19.76C6.25466 20.026 6.47524 20.2424 6.74628 20.2424H17.2537C17.5247 20.2424 17.7453 20.026 17.7453 19.76V17.9792C17.7455 14.8471 15.1681 12.2988 12.0001 12.2988Z" ></path>
                <path d="M11.8667 11.0723C9.89415 11.0723 8.28906 9.48255 8.28906 7.52816C8.28906 5.57397 9.89396 3.98438 11.8667 3.98438C13.8396 3.98438 15.4445 5.57416 15.4445 7.52835C15.4445 9.48274 13.8394 11.0723 11.8667 11.0723ZM11.8667 4.75857C10.3209 4.75857 9.06326 6.00113 9.06326 7.52835C9.06326 9.05576 10.3209 10.2983 11.8667 10.2983C13.4126 10.2983 14.6703 9.05576 14.6703 7.52835C14.6703 6.00113 13.4126 4.75857 11.8667 4.75857Z" ></path>
            </g>
            <defs>
                <clipPath id="clip0_4772_2087">
                    <rect width="24" height="24" fill="white" transform="translate(0 0.5)"></rect>
                </clipPath>
            </defs>
        </symbol>
        <symbol fill="none" xmlns="http://www.w3.org/2000/svg" viewBox="0 0 11 9" id="icon-telegram">
            <path d="M0.965627 3.71554L9.834 0.0449245C10.2456 -0.114703 10.6051 0.152714 10.4717 0.820846L10.4725 0.820023L8.96249 8.45664C8.85058 8.99806 8.55089 9.12971 8.13161 8.87463L5.83212 7.05537L4.723 8.20239C4.60036 8.33404 4.49688 8.44512 4.25927 8.44512L4.42253 5.93304L8.68425 1.8C8.86975 1.62474 8.64286 1.52601 8.39835 1.70044L3.13175 5.25997L0.861383 4.49969C0.368525 4.33183 0.357794 3.97061 0.965627 3.71554Z" fill="white"></path>
        </symbol>
        <symbol fill="none" xmlns="http://www.w3.org/2000/svg" viewBox="0 0 11 11" id="icon-linkedin">
            <path d="M2.38185 10.5H0V3.34091H2.38185V10.5ZM1.1914 2.38636C0.532582 2.38636 0 1.85134 0 1.1927C0 0.534068 0.533535 0 1.1914 0C1.84784 0 2.38185 0.535023 2.38185 1.1927C2.38185 1.85134 1.84784 2.38636 1.1914 2.38636ZM10.9565 10.5H8.66661V7.01591C8.66661 6.18498 8.65089 5.11636 7.47616 5.11636C6.2838 5.11636 6.1004 6.02127 6.1004 6.95577V10.5H3.81096V3.33566H6.00894V4.31455H6.0399C6.34573 3.75136 7.09316 3.15764 8.20786 3.15764C10.5278 3.15764 10.9565 4.64148 10.9565 6.57061V10.5Z" fill="white"></path>
        </symbol>
        <symbol fill="none" xmlns="http://www.w3.org/2000/svg" viewBox="0 0 10 10" id="icon-x">
            <g clip-path="url(#clip0_2763_29137)">
                <path d="M3.40156 0.999023H0.601562L3.90591 5.40482L0.781542 8.99898H1.84155L4.39688 6.05942L6.60156 8.99902H9.40156L5.95824 4.40794L8.9216 0.999023H7.8616L5.46728 3.75334L3.40156 0.999023ZM7.00156 8.19902L2.20156 1.79902H3.00156L7.80156 8.19902H7.00156Z" fill="white"></path>
            </g>
            <defs>
                <clipPath id="clip0_2763_29137">
                    <rect width="9.6" height="9.6" fill="white" transform="translate(0.201172 0.199219)"></rect>
                </clipPath>
            </defs>
        </symbol>
        <symbol viewBox="0 0 24 24" id="icon-mintscan">
            <path d="M8.66928 17.7486L4.77027 10.995C4.57267 10.6527 4.57267 10.2293 4.77027 9.88703L8.66928 3.13698C8.86687 2.79472 9.23384 2.58301 9.62903 2.58301H17.427C17.8222 2.58301 18.1892 2.79472 18.3868 3.13698L22.2858 9.89056L20.3698 10.9985L16.7849 4.79891H10.2642L7.00382 10.4445L10.5817 16.6441L8.66575 17.7521L8.66928 17.7486Z" ></path>
            <path d="M14.3676 21.4171H6.57312C6.17793 21.4171 5.81096 21.2054 5.61336 20.8631L1.71436 14.1096L3.63034 13.0016L7.20825 19.2012H13.7254L16.9858 13.5556L13.4078 7.356L15.3238 6.24805L19.2228 13.0016C19.4204 13.3439 19.4204 13.7673 19.2228 14.1096L15.3238 20.8631C15.1262 21.2054 14.7593 21.4171 14.3641 21.4171H14.3676Z"></path>
        </symbol>
        <symbol viewBox="0 0 24 25" id="icon-github">
            <g clip-path="url(#clip0_4763_321)">
                <path d="M12 0.0842285C18.63 0.0842285 24 5.59006 24 12.3878C23.9994 14.9657 23.2103 17.4784 21.7438 19.5724C20.2773 21.6664 18.2072 23.2362 15.825 24.0607C15.225 24.1838 15 23.7993 15 23.4763C15 23.0611 15.015 21.7384 15.015 20.0928C15.015 18.9394 14.64 18.2012 14.205 17.8167C16.875 17.5091 19.68 16.4633 19.68 11.7418C19.68 10.3884 19.215 9.29649 18.45 8.43525C18.57 8.12766 18.99 6.86655 18.33 5.17481C18.33 5.17481 17.325 4.83647 15.03 6.43592C14.07 6.15909 13.05 6.02068 12.03 6.02068C11.01 6.02068 9.99 6.15909 9.03 6.43592C6.735 4.85185 5.73 5.17481 5.73 5.17481C5.07 6.86655 5.49 8.12766 5.61 8.43525C4.845 9.29649 4.38 10.4038 4.38 11.7418C4.38 16.4479 7.17 17.5091 9.84 17.8167C9.495 18.1243 9.18 18.6626 9.075 19.4623C8.385 19.7852 6.66 20.3081 5.58 18.4472C5.355 18.0781 4.68 17.1707 3.735 17.1861C2.73 17.2015 3.33 17.7705 3.75 18.0012C4.26 18.2934 4.845 19.3854 4.98 19.7391C5.22 20.4312 6 21.7538 9.015 21.1848C9.015 22.2152 9.03 23.1841 9.03 23.4763C9.03 23.7993 8.805 24.1684 8.205 24.0607C5.81496 23.2451 3.7361 21.6785 2.26334 19.5832C0.79057 17.488 -0.00132072 14.9704 1.65347e-06 12.3878C1.65347e-06 5.59006 5.37 0.0842285 12 0.0842285Z"></path>
            </g>
            <defs>
                <clipPath id="clip0_4763_321">
                    <rect width="24" height="24" fill="white" transform="translate(0 0.0842285)"></rect>
                </clipPath>
            </defs>
        </symbol>
        <symbol viewBox="0 0 22 22" id="icon-about">
            <g clip-path="url(#clip0_5007_1999)">
                <mask id="mask0_5007_1999" maskUnits="userSpaceOnUse" x="0" y="-1" width="22" height="23">
                    <path d="M22 -0.000976562H0V21.999H22V-0.000976562Z" fill="white"></path>
                </mask>
                <g mask="url(#mask0_5007_1999)">
                    <path fill-rule="evenodd" clip-rule="evenodd" d="M8.08221 7.85181C7.80154 8.14674 7.69931 8.41298 7.69931 8.64291C7.69931 8.87283 7.80154 9.13908 8.08221 9.43401C8.36596 9.73216 8.80618 10.0292 9.39813 10.2923C10.5804 10.8178 12.2577 11.1588 14.1437 11.1588C16.0298 11.1588 17.707 10.8178 18.8893 10.2923C19.4813 10.0292 19.9216 9.73216 20.2052 9.43401C20.486 9.13908 20.5882 8.87283 20.5882 8.64291C20.5882 8.41298 20.486 8.14674 20.2052 7.85181C19.9216 7.55365 19.4813 7.25661 18.8893 6.99353C17.707 6.46806 16.0298 6.12705 14.1437 6.12705C12.2577 6.12705 10.5804 6.46806 9.39813 6.99353C8.80618 7.25661 8.36596 7.55365 8.08221 7.85181ZM8.88883 5.84761C10.2659 5.2356 12.1243 4.87305 14.1437 4.87305C16.1632 4.87305 18.0216 5.2356 19.3986 5.84761C20.0863 6.15327 20.6818 6.53346 21.1136 6.98732C21.5487 7.44441 21.8422 8.00496 21.8422 8.64291C21.8422 9.28086 21.5487 9.84141 21.1136 10.2985C20.6818 10.7523 20.0863 11.1325 19.3986 11.4382C18.0216 12.0502 16.1632 12.4128 14.1437 12.4128C12.1243 12.4128 10.2659 12.0502 8.88883 11.4382C8.20111 11.1325 7.60574 10.7523 7.17382 10.2985C6.73883 9.84141 6.44531 9.28086 6.44531 8.64291C6.44531 8.00496 6.73883 7.44441 7.17382 6.98732C7.60574 6.53346 8.20111 6.15327 8.88883 5.84761Z" ></path>
                    <path fill-rule="evenodd" clip-rule="evenodd" d="M7.07231 8.01562C7.41859 8.01562 7.69931 8.29635 7.69931 8.64263V18.0712C7.69931 18.3001 7.80081 18.5658 8.07986 18.8603C8.36194 19.1578 8.80001 19.4549 9.39028 19.7183C10.5693 20.2443 12.2462 20.587 14.1437 20.587C16.0413 20.587 17.7183 20.2443 18.8972 19.7183C19.4875 19.4549 19.9255 19.1578 20.2077 18.8603C20.4866 18.5658 20.5882 18.3001 20.5882 18.0712V8.64263C20.5882 8.29635 20.8689 8.01562 21.2152 8.01562C21.5614 8.01562 21.8422 8.29635 21.8422 8.64263V18.0712C21.8422 18.7066 21.5508 19.2659 21.1178 19.7228C20.6878 20.1765 20.0947 20.5571 19.4082 20.8635C18.0335 21.4767 16.1747 21.841 14.1437 21.841C12.1128 21.841 10.2539 21.4767 8.87934 20.8635C8.19282 20.5571 7.59964 20.1765 7.16967 19.7228C6.73666 19.2659 6.44531 18.7066 6.44531 18.0712V8.64263C6.44531 8.29635 6.72602 8.01562 7.07231 8.01562Z" ></path>
                    <path fill-rule="evenodd" clip-rule="evenodd" d="M7.07231 12.7295C7.41859 12.7295 7.69931 13.0102 7.69931 13.3565C7.69931 13.5855 7.80081 13.8512 8.07986 14.1455C8.36194 14.4432 8.80001 14.7403 9.39028 15.0036C10.5693 15.5297 12.2462 15.8724 14.1437 15.8724C16.0413 15.8724 17.7183 15.5297 18.8972 15.0036C19.4875 14.7403 19.9255 14.4432 20.2077 14.1455C20.4866 13.8512 20.5882 13.5855 20.5882 13.3565C20.5882 13.0102 20.8689 12.7295 21.2152 12.7295C21.5614 12.7295 21.8422 13.0102 21.8422 13.3565C21.8422 13.9919 21.5508 14.5512 21.1178 15.0081C20.6878 15.4619 20.0947 15.8425 19.4082 16.1487C18.0335 16.7621 16.1747 17.1264 14.1437 17.1264C12.1128 17.1264 10.2539 16.7621 8.87934 16.1487C8.19282 15.8425 7.59964 15.4619 7.16967 15.0081C6.73666 14.5512 6.44531 13.9919 6.44531 13.3565C6.44531 13.0102 6.72602 12.7295 7.07231 12.7295Z" ></path>
                    <path fill-rule="evenodd" clip-rule="evenodd" d="M7.83879 0.15833C10.1153 0.0455656 12.3726 0.626005 14.3125 1.82318C14.6072 2.00503 14.6987 2.39135 14.5169 2.68603C14.3349 2.98072 13.9486 3.07219 13.6539 2.89032C11.9259 1.82392 9.91453 1.30816 7.88659 1.41151C7.87597 1.41206 7.86532 1.41232 7.85468 1.41232C5.96529 1.41232 4.28814 1.75503 3.10678 2.28128C2.5153 2.54476 2.0756 2.842 1.79227 3.13995C1.51186 3.43481 1.41025 3.70023 1.41025 3.92817C1.41025 4.17097 1.52697 4.45909 1.85761 4.78179C2.1902 5.10637 2.70198 5.42586 3.37976 5.70581C3.69982 5.83801 3.8521 6.20464 3.7199 6.52469C3.5877 6.84475 3.22108 6.99703 2.90103 6.86483C2.13309 6.54764 1.46631 6.15212 0.981748 5.67922C0.495245 5.20441 0.15625 4.61253 0.15625 3.92817C0.15625 3.29185 0.449463 2.73227 0.883563 2.27579C1.31474 1.82239 1.90924 1.44195 2.5965 1.13579C3.96905 0.524371 5.82148 0.160233 7.83879 0.15833Z" ></path>
                    <path fill-rule="evenodd" clip-rule="evenodd" d="M0.78325 3.30078C1.12953 3.30078 1.41025 3.5815 1.41025 3.92778V13.3563C1.41025 13.5992 1.52697 13.8873 1.85761 14.21C2.1902 14.5345 2.70198 14.8541 3.37976 15.134C3.69982 15.2662 3.8521 15.6327 3.7199 15.9528C3.5877 16.2729 3.22108 16.4252 2.90103 16.293C2.13309 15.9758 1.46631 15.5803 0.981748 15.1074C0.495245 14.6326 0.15625 14.0407 0.15625 13.3563V3.92778C0.15625 3.5815 0.436968 3.30078 0.78325 3.30078Z"></path>
                    <path fill-rule="evenodd" clip-rule="evenodd" d="M0.78325 8.01562C1.12953 8.01562 1.41025 8.29635 1.41025 8.64263C1.41025 8.88542 1.52697 9.17354 1.85761 9.49622C2.1902 9.82082 2.70198 10.1403 3.37976 10.4203C3.69982 10.5525 3.8521 10.9191 3.7199 11.2391C3.5877 11.5592 3.22108 11.7115 2.90103 11.5793C2.13309 11.2621 1.46631 10.8666 0.981748 10.3937C0.495245 9.91886 0.15625 9.32698 0.15625 8.64263C0.15625 8.29635 0.436968 8.01562 0.78325 8.01562Z"></path>
                </g>
            </g>
        </symbol>
        <symbol id="icon-header-telegram" viewBox="0 0 32 32">
            <path d="M27.919 6.162l-4.225 19.925c-0.319 1.406-1.15 1.756-2.331 1.094l-6.438-4.744-3.106 2.988c-0.344 0.344-0.631 0.631-1.294 0.631l0.463-6.556 11.931-10.781c0.519-0.463-0.113-0.719-0.806-0.256l-14.75 9.287-6.35-1.988c-1.381-0.431-1.406-1.381 0.288-2.044l24.837-9.569c1.15-0.431 2.156 0.256 1.781 2.013z"></path>
        </symbol>
        <symbol  viewBox="0 0 27 19" id="icon-header-discord">
            <path d="M6.68946 14.6083C12.3484 16.8168 17.1641 17.2469 22.6214 13.8094C22.5814 13.8694 21.5019 15.4687 18.6631 16.2883C19.2628 17.108 20.0825 18.0475 20.0825 18.0475C21.9017 18.0475 23.681 17.5278 25.2202 16.5282C26.4197 15.7285 27.0994 14.3492 26.9595 12.9098C26.7196 10.4509 26.1398 8.05193 25.2402 5.75298C24.1007 2.75431 21.362 0.6752 18.1834 0.37531C17.9035 0.355309 17.7036 0.355309 17.5836 0.355309L17.2638 0.675141C20.9222 1.7147 22.7414 3.33398 22.7814 3.39398C17.1638 0.555196 10.5267 0.515254 4.86917 3.27403C4.86917 3.27403 6.66839 1.49481 10.6466 0.555196L10.4067 0.315308C9.98689 0.315308 9.58706 0.355309 9.16728 0.415251C6.22856 0.915029 3.76967 2.93414 2.71011 5.71292C1.7905 8.11187 1.19078 10.6308 0.970887 13.1897C0.850943 14.549 1.49067 15.8885 2.61017 16.6682C4.0895 17.6477 5.84872 18.1675 7.62795 18.1675C7.62795 18.1675 8.34761 17.2279 9.06734 16.3883C6.3685 15.5886 5.269 13.9893 5.249 13.9293L5.75691 14.1887C6.06054 14.3438 6.37183 14.4844 6.68946 14.6083ZM9.82701 12.8698C8.52756 12.8298 7.508 11.7303 7.548 10.4109C7.58801 9.17143 8.58756 8.17187 9.82701 8.13187C11.1265 8.17187 12.146 9.27137 12.106 10.5908C12.046 11.8303 11.0665 12.8299 9.82701 12.8698ZM17.9834 12.8698C16.684 12.8298 15.6644 11.7303 15.7044 10.4109C15.7444 9.17143 16.744 8.17187 17.9834 8.13187C19.2828 8.17187 20.3024 9.27137 20.2624 10.5908C20.2225 11.8303 19.2228 12.8299 17.9834 12.8698Z"></path>
        </symbol>
        <symbol viewBox="0 0 15 14" id="icon-header-twitter">
            <path d="M5.14583 1.16675H1.0625L5.88134 7.59187L1.32497 12.8334H2.87082L6.59734 8.5465L9.8125 12.8334H13.8958L8.87432 6.13809L13.1959 1.16675H11.6501L8.15834 5.18345L5.14583 1.16675ZM10.3958 11.6667L3.39583 2.33341H4.5625L11.5625 11.6667H10.3958Z"></path>
        </symbol>
        <symbol viewBox="0 0 22 23" id="icon-staking">
            <path d="M11.5652 21.6037C11.2011 21.7442 10.7978 21.7442 10.4337 21.6037C7.59053 20.4889 5.14922 18.5432 3.42812 16.0204C1.70702 13.4977 0.785998 10.5148 0.785156 7.46087V2.85658C0.785156 2.43982 0.950717 2.04012 1.24542 1.74542C1.54012 1.45072 1.93982 1.28516 2.35658 1.28516H19.6423C20.0591 1.28516 20.4588 1.45072 20.7535 1.74542C21.0482 2.04012 21.2137 2.43982 21.2137 2.85658V7.44516C21.216 10.5018 20.2965 13.4881 18.5752 16.014C16.8539 18.5398 14.4108 20.4879 11.5652 21.6037Z" stroke-linecap="round" stroke-linejoin="round"></path>
            <path d="M13.356 9.14258H8.64174C7.77386 9.14258 7.07031 9.84613 7.07031 10.714V13.8569C7.07031 14.7247 7.77386 15.4283 8.64174 15.4283H13.356C14.2239 15.4283 14.9275 14.7247 14.9275 13.8569V10.714C14.9275 9.84613 14.2239 9.14258 13.356 9.14258Z" stroke-linecap="round" stroke-linejoin="round"></path>
            <path d="M13.3549 9.14244V7.57101C13.3549 7.26147 13.2939 6.95495 13.1755 6.66897C13.057 6.38299 12.8834 6.12314 12.6645 5.90426C12.4456 5.68538 12.1858 5.51175 11.8998 5.39329C11.6138 5.27484 11.3073 5.21387 10.9978 5.21387C10.6882 5.21387 10.3817 5.27484 10.0957 5.39329C9.80975 5.51175 9.5499 5.68538 9.33102 5.90426C9.11213 6.12314 8.93851 6.38299 8.82005 6.66897C8.70159 6.95495 8.64062 7.26147 8.64062 7.57101V9.14244" stroke-linecap="round" stroke-linejoin="round"></path>
        </symbol>
        <symbol id="icon-chevroncolorchange" viewBox="0 0 266 438">
            <path d="M258.476 235.971L64.132 430.314c-9.373 9.373-24.569 9.373-33.941 0L7.524 407.647c-9.357-9.357-9.375-24.522-.04-33.901L161.505 219 7.484 64.255c-9.335-9.379-9.317-24.544.04-33.901L30.191 7.687c9.373-9.373 24.569-9.373 33.941 0L258.475 202.03c9.373 9.372 9.373 24.568.001 33.941z"/>
        </symbol>
        <symbol fill="none" viewBox="0 0 40 40" id="icon-persistence">
            <g clip-path="url(#clip0_5092_17392)">
                <path d="M19.9609 40C31.0282 40 40 31.0282 40 19.9609C40 8.89367 31.0282 -0.078125 19.9609 -0.078125C8.89367 -0.078125 -0.078125 8.89367 -0.078125 19.9609C-0.078125 31.0282 8.89367 40 19.9609 40Z" fill="black"></path>
                <path d="M26.9668 10.3486H13.6074V13.2811H26.9668V10.3486Z" fill="#E50913"></path>
                <path d="M27.2223 20.7339C27.2223 21.7674 26.9851 22.7162 26.5106 23.5804C26.0363 24.4276 25.3077 25.1138 24.3249 25.6391C23.3422 26.1643 22.1223 26.4269 20.6651 26.4269H17.9711V32.8316H13.625V14.99H20.6651C22.0884 14.99 23.2913 15.2357 24.2741 15.727C25.2568 16.2184 25.9938 16.8962 26.4852 17.7603C26.9766 18.6244 27.2223 19.6156 27.2223 20.7339ZM20.3347 22.9705C21.1649 22.9705 21.7834 22.7756 22.19 22.3859C22.5966 21.9962 22.8 21.4455 22.8 20.7339C22.8 20.0223 22.5966 19.4716 22.19 19.0819C21.7834 18.6922 21.1649 18.4973 20.3347 18.4973H17.9711V22.9705H20.3347Z" fill="white"></path>
            </g>
            <defs>
                <clipPath id="clip0_5092_17392">
                    <rect width="40" height="40" fill="white"></rect>
                </clipPath>
            </defs>
        </symbol>
        <symbol viewBox="0 0 582 379" id="icon-sort-up">
            <path d="M20.1 333.1L276.9 21.6C284.2 12.7 297.8 12.7 305.2 21.6L562 333.1C571.8 345 563.4 363.1 547.9 363.1H34.2C18.7 363.1 10.2 345.1 20.1 333.1Z"></path>
            <path d="M30.7 343.7C37 336.1 43.3 328.5 49.5 320.8C65.2 301.7 80.9 282.7 96.7 263.6C117.1 238.9 137.4 214.2 157.8 189.5C178.4 164.6 198.9 139.6 219.5 114.7C235.5 95.3 251.4 76 267.4 56.6C274.1 48.5 280.6 40.2 287.5 32.3C287.8 31.9 290.1 29.8 288.9 30.7C287.5 31.8 292 29.4 290 30.1C288.7 30.6 293.9 30.1 290.4 30.1C293.4 30.1 288.4 30 291.4 30.1C291.6 30.1 293.7 30.8 292 30.2C290.1 29.5 292.6 30.5 292.5 30.5C292.7 30.5 294.5 31.9 293.1 30.8C291.8 29.8 293.5 31.2 293.6 31.4C293.9 31.7 294.2 32.1 294.5 32.4C295 33 295.5 33.6 296 34.2C299.4 38.3 302.8 42.4 306.1 46.5C320.1 63.5 334.1 80.5 348.1 97.5C367.8 121.4 387.5 145.3 407.2 169.2C428.1 194.6 449.1 220 470 245.4C487.4 266.5 504.8 287.6 522.2 308.7C531.4 319.8 540.5 331 549.7 342.1C550.1 342.6 550.6 343.3 551.1 343.8C551.2 343.8 548.6 340.5 549.9 342.3C550.2 342.8 550.5 343.4 550.9 343.9C550.7 343.7 550.3 341.5 550.6 343C550.7 343.5 550.9 344.1 551.1 344.7C551.8 347 551.5 342.8 551 345.2C550.9 345.6 550.6 347.4 551 345.4C551.6 343.1 550.8 345.9 550.7 346.1C549.8 347.4 551.1 345.3 551.2 345.1C550.9 345.6 550.7 346.1 550.4 346.6C550.1 347.1 549.8 347.5 549.5 348C549.8 347.5 550.3 346 550.1 347.1C550 347.4 549.1 348 548.9 348.3C549.3 347.9 550.2 346.6 549.7 347.6C549.5 347.9 548.5 348.2 548.2 348.4C549.1 347.8 550.2 347.6 548.5 348.1C546 348.9 550.4 348.3 547.6 348.2C547.5 348.2 547.5 348.2 547.4 348.2C547 348.2 546.7 348.2 546.3 348.2C544.9 348.2 543.4 348.2 542 348.2C527.4 348.2 512.7 348.2 498.1 348.2C472.9 348.2 447.6 348.2 422.4 348.2C390.8 348.2 359.3 348.2 327.7 348.2C294.5 348.2 261.2 348.2 228 348.2C197.6 348.2 167.3 348.2 136.9 348.2C114 348.2 91 348.2 68.1 348.2C57.1 348.2 46.2 348.3 35.2 348.2C34.9 348.2 34.6 348.2 34.3 348.2C34.2 348.2 34.2 348.2 34.1 348.2C33.9 348.2 34.1 348.1 33.4 348.2C31.8 348.4 33.9 348.3 34.3 348.4C34 348.3 32.7 348.2 32.6 348C32.3 347.4 32.6 347.9 33.5 348.5C33.2 348.3 32.2 348 32 347.7C31.5 346.7 32.4 348 32.8 348.4C32.6 348.1 31.7 347.6 31.6 347.2C31.4 346.1 31.9 347.6 32.2 348.1C31.9 347.6 31.6 347.2 31.3 346.7C31 346.2 30.8 345.7 30.5 345.2C30.6 345.4 31.9 347.5 31 346.2C30.7 345.8 30.8 345.1 30.6 344.6C30.6 344.6 30.9 347.6 30.8 345.8C30.8 345.3 30.9 344.6 30.8 344.1C30.9 344.4 30 346.8 30.6 345.3C30.8 344.7 31.9 341.7 31.1 343.2C30.3 344.8 32.6 341.2 32.9 340.8C37.9 334.4 33.9 324 27.5 320.3C19.8 315.8 11.9 319.2 7.00001 325.7C-1.19999 336.4 -1.19999 352.7 6.60001 363.6C13.2 372.8 22.9 377.9 34.3 378.2C37.1 378.3 39.8 378.2 42.6 378.2C59.2 378.2 75.8 378.2 92.3 378.2C119.4 378.2 146.5 378.2 173.5 378.2C206.3 378.2 239.1 378.2 271.9 378.2C305.8 378.2 339.6 378.2 373.5 378.2C403.2 378.2 433 378.2 462.7 378.2C483.7 378.2 504.6 378.2 525.6 378.2C535.6 378.2 548.6 379.9 558.3 376.5C571.8 371.7 581.6 358.7 581.1 344.1C580.8 335.6 577.4 328.7 572.2 322.3C569.7 319.2 567.1 316.1 564.5 313C551.3 297 538.2 281 525 265.1C505.1 241 485.2 216.8 465.3 192.7C443.9 166.7 422.4 140.7 401 114.7C382.9 92.8 364.8 70.8 346.7 48.9C336.9 37 327.1 25.1 317.3 13.3C307.9 1.9 292.4 -3 278.4 2.8C271.5 5.7 267 10.3 262.5 15.8C251.3 29.4 240.1 43 228.9 56.6C210.1 79.4 191.2 102.3 172.4 125.1C150.8 151.3 129.2 177.5 107.6 203.7C88.4 227 69.2 250.2 50.1 273.5C38.2 287.9 26.3 302.3 14.5 316.7C12.8 318.7 11.2 320.7 9.50001 322.7C4.40001 328.9 3.40001 337.8 9.50001 343.9C14.8 349 25.5 350 30.7 343.7Z"></path>
        </symbol>
        <symbol viewBox="0 0 582 379" id="icon-sort-down">
            <path d="M20.1 45.8L276.9 357.3C284.2 366.2 297.8 366.2 305.2 357.3L562 45.8C571.8 33.9 563.4 15.8 547.9 15.8H34.2C18.7 15.8 10.2 33.8 20.1 45.8Z"></path>
            <path d="M9.5 56.4C16 64.3 22.5 72.1999 29.1 80.0999C45.4 99.8999 61.8 119.7 78.1 139.5C99.1 165 120.1 190.4 141.1 215.9C161.9 241.1 182.6 266.3 203.4 291.4C219 310.3 234.6 329.2 250.2 348.2C258.9 358.8 267.7 373.1 281.5 377.4C295.1 381.6 309 376 317.7 365.5C321.3 361.1 324.9 356.8 328.5 352.4C343.2 334.5 358 316.6 372.7 298.8C393.1 274 413.6 249.2 434 224.4C455.2 198.7 476.4 172.9 497.6 147.2C514.7 126.5 531.8 105.8 548.9 85C556.7 75.5 564.6 66.1999 572.3 56.5999C577.8 49.7999 581.5 42.1 581.1 33.2C580.5 18.6 570.4 5.29996 556.1 1.79996C551.5 0.699959 547.1 0.799959 542.4 0.799959C527.4 0.799959 512.4 0.799959 497.3 0.799959C471.2 0.799959 445.1 0.799959 419 0.799959C386.6 0.799959 354.2 0.799959 321.9 0.799959C288.1 0.799959 254.2 0.799959 220.4 0.799959C189.8 0.799959 159.2 0.799959 128.6 0.799959C106.4 0.799959 84.1 0.799959 61.9 0.799959C52.7 0.799959 43.5 0.499959 34.3 0.799959C22.8 1.09996 12.9 6.4 6.39999 15.9C-1.10001 26.8 -1.00001 42.8 7.19999 53.4C12.1 59.8 20.1 63.2 27.7 58.8C34 55.1 38.1 44.7 33.1 38.3C32.4 37.3 31.8 36.1 31 35.2C31.2 35.4 31.6 37.5999 31.3 36.0999C31.2 35.5999 31 35 30.8 34.4C30.1 32.1 30.4 36.3 30.9 33.9C31 33.5 31.3 31.7 30.9 33.7C30.3 36 31.1 33.2 31.2 33C32.1 31.7 30.8 33.8 30.7 34C31 33.5 31.2 33 31.5 32.5C31.8 32 32.1 31.5999 32.4 31.0999C32.1 31.5999 31.6 33.1 31.8 32C31.9 31.7 32.8 31.1 33 30.8C32.6 31.2 31.7 32.5 32.2 31.5C32.4 31.2 33.4 30.9 33.7 30.7C32.8 31.3 31.7 31.5 33.4 31C35.9 30.2 31.5 30.8 34.3 30.9C34.4 30.9 34.4 30.9 34.5 30.9C34.8 30.9 35.2 30.9 35.5 30.9C39.3 30.9 43.2 30.9 47 30.9C64.7 30.9 82.5 30.9 100.2 30.9C127.4 30.9 154.6 30.9 181.8 30.9C214.2 30.9 246.6 30.9 279 30.9C312 30.9 344.9 30.9 377.9 30.9C406.8 30.9 435.8 30.9 464.7 30.9C485.1 30.9 505.5 30.9 525.9 30.9C531.4 30.9 537 30.9 542.5 30.9C543.9 30.9 545.3 30.9 546.6 30.9C546.9 30.9 547.2 30.9 547.6 30.9C547.7 30.9 547.7 30.9 547.8 30.9C548.2 30.9 548.7 31 549.1 30.9C545.7 31 550.6 31.6 549.1 31C546.8 30.1 551.8 32.8 549.7 31.3C547.6 29.8 551.9 33.7 550.2 31.7C548.9 30.2 550.8 33 551.1 33.4C552 34.6 550.7 32.7 550.7 32.4C550.8 33 551 34 551.3 34.5C551.3 34.5 551 31.5 551.1 33.3C551.1 33.8 551 34.5 551.1 35C551 34.7 551.9 32.3 551.3 33.8C551.1 34.3 551 35 550.9 35.5C550.8 35.9 550 37.4 550.8 35.9C551.7 34.2 550.5 36 550.5 36.2C550.5 36.8 548.5 38.3 550.6 36.2C556.1 30.8 551.6 35 551.4 35.2C550.8 35.7 550.4 36.4999 549.9 37.0999C546.6 41.0999 543.2 45.2 539.9 49.2C525.9 66.1 512 83.1 498 100C478.2 124 458.4 148 438.6 172.1C417.7 197.5 396.7 222.9 375.8 248.3C358.4 269.4 341 290.5 323.6 311.6C314.4 322.7 305.3 333.9 296.1 345C295.6 345.6 295.2 346.1 294.7 346.7C294.1 347.4 293.5 348 292.8 348.7C294.5 347.1 292.5 348.8 291.5 349.3C293.8 348.2 291.4 349.1 290.3 349.3C290.5 349.3 292.9 349 291.2 349C288.9 349 293.7 349.2 291.4 349.2C290.8 349.2 290.1 348.9 289.6 348.7C289.8 348.7 291.9 349.7 290.2 349C289.6 348.7 289.1 348.4 288.5 348C288.8 348.2 290.1 349.5 289 348.3C288.5 347.8 288 347.3 287.6 346.7C285.6 344.4 283.7 341.9 281.7 339.5C269.7 324.9 257.6 310.3 245.6 295.7C226.7 272.8 207.8 249.8 188.9 226.9C167.8 201.3 146.7 175.7 125.6 150.1C107 127.5 88.4 105 69.8 82.4C58.4 68.5 47 54.7 35.5 40.8C33.9 38.9 32.4 36.9999 30.8 35.0999C25.6 28.7999 14.9 29.7999 9.6 35.0999C3.3 41.2999 4.3 50.1 9.5 56.4Z"></path>
        </symbol>
        <symbol id="icon-close" viewBox="0 0 32 32">
            <path d="M18.434 16L31.42 2.956c.695-.695.695-1.797 0-2.434-.696-.696-1.797-.696-2.435 0L16 13.565 2.956.522C2.261-.174 1.16-.174.522.522c-.696.695-.696 1.797 0 2.434L13.507 16 .522 29.044c-.696.695-.696 1.797 0 2.434.347.348.811.522 1.217.522s.87-.174 1.218-.522L16 18.435l13.043 13.043c.348.348.812.522 1.218.522.406 0 .87-.174 1.217-.522.696-.695.696-1.797 0-2.434L18.434 16z"/>
        </symbol>
        <symbol id="icon-right-arrow-bold" viewBox="0 0 28 23">
            <path d="M27.833 11.617L17.143.927l-2.04 2.053 7.188 7.188H.654v2.9h21.637l-7.187 7.186 2.038 2.054 10.69-10.69z"/>
        </symbol>
        <symbol viewBox="0 0 12 6" id="icon-arrow-filled">
            <path d="M10.5 5.25L6 0.75L1.5 5.25" stroke-width="1.5" stroke-linecap="round" stroke-linejoin="round"></path>
        </symbol>
        <symbol  viewBox="0 0 16 16" id="icon-language">
            <path d="M4.545 6.714L4.11 8H3L4.862 3H6.146L8 8H6.833L6.398 6.714H4.545ZM6.179 5.978L5.5 3.956H5.451L4.772 5.978H6.179Z"></path>
            <path d="M0 2C0 1.46957 0.210714 0.960859 0.585786 0.585786C0.960859 0.210714 1.46957 0 2 0L9 0C9.53043 0 10.0391 0.210714 10.4142 0.585786C10.7893 0.960859 11 1.46957 11 2V5H14C14.5304 5 15.0391 5.21071 15.4142 5.58579C15.7893 5.96086 16 6.46957 16 7V14C16 14.5304 15.7893 15.0391 15.4142 15.4142C15.0391 15.7893 14.5304 16 14 16H7C6.46957 16 5.96086 15.7893 5.58579 15.4142C5.21071 15.0391 5 14.5304 5 14V11H2C1.46957 11 0.960859 10.7893 0.585786 10.4142C0.210714 10.0391 0 9.53043 0 9V2ZM2 1C1.73478 1 1.48043 1.10536 1.29289 1.29289C1.10536 1.48043 1 1.73478 1 2V9C1 9.26522 1.10536 9.51957 1.29289 9.70711C1.48043 9.89464 1.73478 10 2 10H9C9.26522 10 9.51957 9.89464 9.70711 9.70711C9.89464 9.51957 10 9.26522 10 9V2C10 1.73478 9.89464 1.48043 9.70711 1.29289C9.51957 1.10536 9.26522 1 9 1H2ZM9.138 10.995C9.33067 11.2957 9.54067 11.5777 9.768 11.841C9.02 12.416 8.095 12.842 7 13.133C7.178 13.35 7.451 13.768 7.555 14C8.68 13.641 9.635 13.156 10.441 12.506C11.218 13.171 12.18 13.671 13.371 13.978C13.504 13.724 13.785 13.305 14 13.088C12.875 12.835 11.943 12.394 11.18 11.804C11.861 11.057 12.402 10.153 12.801 9.047H14V8H11V9.047H11.765C11.447 9.891 11.025 10.593 10.493 11.177C10.346 11.0205 10.2074 10.8563 10.078 10.685C9.79559 10.8655 9.47236 10.9721 9.138 10.995Z"></path>
        </symbol>
    </defs>
</svg>