<svg aria-hidden="true" style="position: absolute; width: 0; height: 0; overflow: hidden;" version="1.1"
     xmlns="http://www.w3.org/2000/svg" xmlns:xlink="http://www.w3.org/1999/xlink">
    <defs>
        <symbol fill="none" viewBox="0 0 11 11" id="icon-external_redirect">
            <path d="M1.332 9.86011L9.66501 1.53003" stroke="#FCFCFC" stroke-width="1.5" stroke-linecap="round" stroke-linejoin="round"></path>
            <path d="M1.332 1.53003H9.66501V9.86011" stroke="#FCFCFC" stroke-width="1.5" stroke-linecap="round" stroke-linejoin="round"></path>
        </symbol>
        <symbol viewBox="0 0 9 15" id="icon-right_chevron">
            <path d="M1.5 1.19922L7.5 7.19922L1.5 13.1992" stroke-width="2" stroke-linecap="round" stroke-linejoin="round"></path>
        </symbol>
        <symbol viewBox="0 0 8 15" id="icon-left_chevron">
            <path d="M7 13.5625L1 7.5625L7 1.5625" stroke-width="2" stroke-linecap="round" stroke-linejoin="round"></path>
        </symbol>
        <symbol viewBox="0 0 8 15" id="icon-right_chevron">
            <path d="M1 1.5625L7 7.5625L1 13.5625" stroke-width="2" stroke-linecap="round" stroke-linejoin="round"></path>
        </symbol>
        <symbol viewBox="0 0 22 22" id="icon-announcement">
            <g clip-path="url(#clip0_2343_6536)">
                <path d="M12.7493 0.682015C12.3733 0.0307412 11.5376 -0.193211 10.8864 0.18285C10.5709 0.364993 10.3452 0.65907 10.251 1.01094C10.1853 1.25607 10.1891 1.50877 10.2589 1.74622L8.29765 3.94143C8.13953 4.11842 8.15482 4.39002 8.33181 4.54815C8.5088 4.70627 8.78044 4.69089 8.93848 4.51399L10.6841 2.56004L13.3592 7.19346L16.0343 11.8269L6.81872 13.7483L4.89476 10.4159L4.41231 9.58036L6.36235 7.39765C6.52047 7.22066 6.50517 6.94906 6.32819 6.79093C6.1512 6.63281 5.87955 6.64819 5.72152 6.82509L3.61022 9.18823L1.57484 10.3634C0.846868 10.7837 0.326133 11.4623 0.108583 12.2742C-0.108966 13.0862 0.00266598 13.9342 0.422941 14.6622C0.843216 15.3902 1.52186 15.9109 2.33379 16.1285C2.60497 16.2011 2.88005 16.237 3.15342 16.237C3.61374 16.237 4.06886 16.1347 4.49124 15.9345L5.03449 16.8755C5.25634 17.2597 5.6602 17.4748 6.07489 17.4748C6.27499 17.4748 6.4775 17.4244 6.66339 17.3192L9.12325 21.5797C9.27866 21.849 9.56161 21.9996 9.85221 21.9996C9.9946 21.9996 10.1389 21.9634 10.2708 21.8872L11.9174 20.9366C12.1704 20.7905 12.3273 20.5289 12.337 20.2369C12.3467 19.9448 12.2074 19.6734 11.9646 19.5109L11.4771 19.1846L9.46592 15.7011C10.0317 15.3681 10.2249 14.6381 9.89608 14.0686L9.85272 13.9934L16.5275 12.6018C16.7879 12.8738 17.1472 13.0227 17.5145 13.0227C17.7457 13.0227 17.9799 12.9639 18.1941 12.8403C18.8453 12.4643 19.0692 11.6286 18.6932 10.9774L12.7493 0.682015ZM2.55624 15.2984C1.96603 15.1402 1.4727 14.7617 1.1672 14.2325C0.861692 13.7034 0.780525 13.0868 0.938692 12.4967C1.09686 11.9065 1.47537 11.4132 2.00457 11.1076L3.72752 10.1129L4.87134 12.094L6.01516 14.0751L4.29213 15.0698C3.76288 15.3754 3.14641 15.4565 2.55624 15.2984ZM10.9161 19.8432L11.4609 20.2078L9.85792 21.1334L7.40786 16.8898L8.72192 16.1311L10.783 19.701C10.8159 19.7579 10.8614 19.8066 10.9161 19.8432ZM9.15191 14.4983C9.24558 14.6605 9.1898 14.8686 9.0276 14.9623L8.66443 15.1719C8.66438 15.172 8.66434 15.172 8.6643 15.172C8.66426 15.1721 8.66421 15.1721 8.66417 15.1721L6.60624 16.3603C6.60615 16.3603 6.60607 16.3604 6.60598 16.3604C6.60589 16.3604 6.60585 16.3605 6.60576 16.3605L6.24272 16.5701C6.08056 16.6638 5.87242 16.608 5.77871 16.4458L5.24091 15.5143L6.7571 14.6389L8.96701 14.1782L9.15191 14.4983ZM17.7645 12.0961C17.6478 12.1635 17.5117 12.1813 17.3817 12.1464C17.2516 12.1116 17.1428 12.0281 17.0755 11.9114L11.1314 1.61611C11.0641 1.49945 11.0462 1.3635 11.081 1.23339C11.1159 1.10328 11.1994 0.994482 11.316 0.92715C11.3952 0.881432 11.4818 0.85969 11.5674 0.85969C11.7418 0.85969 11.9117 0.950138 12.0051 1.11179L17.9491 11.4071C18.0881 11.6479 18.0053 11.957 17.7645 12.0961Z" ></path>
                <path d="M17.087 5.04084C17.1666 5.17868 17.3109 5.25573 17.4595 5.25573C17.5324 5.25573 17.6063 5.23717 17.6739 5.19811L20.45 3.59533C20.6555 3.47669 20.7259 3.2139 20.6073 3.00838C20.4886 2.80286 20.2258 2.73243 20.0203 2.85111L17.2442 4.45389C17.0387 4.57252 16.9683 4.83532 17.087 5.04084Z" ></path>
                <path d="M16.2208 3.60207C16.2885 3.64113 16.3623 3.65969 16.4352 3.65969C16.5837 3.65969 16.7282 3.58265 16.8077 3.44481L18.1304 1.15388C18.2491 0.948364 18.1786 0.685567 17.9731 0.566931C17.7676 0.448251 17.5048 0.518677 17.3862 0.724196L16.0635 3.01512C15.9448 3.22059 16.0153 3.48343 16.2208 3.60207Z" ></path>
                <path d="M20.6974 6.08203H18.6055C18.3682 6.08203 18.1758 6.2744 18.1758 6.51172C18.1758 6.74904 18.3682 6.94141 18.6055 6.94141H20.6974C20.9347 6.94141 21.1271 6.74904 21.1271 6.51172C21.1271 6.2744 20.9347 6.08203 20.6974 6.08203Z" ></path>
                <path d="M21.8745 2.14885C21.7942 2.06893 21.6838 2.02295 21.5708 2.02295C21.4573 2.02295 21.3469 2.06893 21.2666 2.14885C21.1866 2.22877 21.1406 2.33963 21.1406 2.45264C21.1406 2.56564 21.1866 2.6765 21.2666 2.75643C21.3469 2.83635 21.4573 2.88232 21.5708 2.88232C21.6838 2.88232 21.7942 2.83635 21.8745 2.75643C21.9545 2.6765 22 2.56564 22 2.45264C22 2.33963 21.9545 2.22877 21.8745 2.14885Z" ></path>
                <path d="M7.33008 6.09894C7.44313 6.09894 7.55352 6.05339 7.63387 5.97347C7.71379 5.89355 7.75934 5.78269 7.75934 5.66968C7.75934 5.55624 7.71379 5.44581 7.63387 5.36546C7.55399 5.28554 7.44313 5.23999 7.33008 5.23999C7.21664 5.23999 7.10621 5.28554 7.02633 5.36546C6.94598 5.44581 6.90039 5.55624 6.90039 5.66968C6.90039 5.78269 6.94598 5.89355 7.02633 5.97347C7.10621 6.05339 7.21707 6.09894 7.33008 6.09894Z" ></path>
            </g>
            <defs>
                <clipPath id="clip0_2343_6536">
                    <rect width="22" height="22"></rect>
                </clipPath>
            </defs>
        </symbol>
        <symbol viewBox="0 0 26 18" id="icon-tech">
            <g clip-path="url(#clip0_2343_6459)">
                <path d="M3.40625 12.9206V2.3695C3.40625 1.57569 4.02438 0.947266 4.80518 0.947266H21.2345C22.0153 0.947266 22.6334 1.57569 22.6334 2.3695V12.9206" stroke-width="1.35" stroke-miterlimit="10" stroke-linejoin="round"></path>
                <path d="M9.68565 6.63184L8.73828 7.5792L9.68565 8.52657" stroke-width="1.35" stroke-linecap="round" stroke-linejoin="round"></path>
                <path d="M16.3164 6.63184L17.2638 7.5792L16.3164 8.52657"  stroke-width="1.35" stroke-linecap="round" stroke-linejoin="round"></path>
                <path d="M14.4241 3.79004L11.582 11.369"  stroke-width="1.35" stroke-linecap="round" stroke-linejoin="round"></path>
                <path d="M1.15625 14.5078C1.15625 14.5078 1.57918 16.3931 2.91305 16.3931H23.0837C24.45 16.3931 24.8405 14.5078 24.8405 14.5078H1.15625Z" stroke-width="1.35" stroke-miterlimit="10" stroke-linejoin="round"></path>
            </g>
            <defs>
                <clipPath id="clip0_2343_6459">
                    <rect width="25.5789" height="18" fill="white" transform="translate(0.210938)"></rect>
                </clipPath>
            </defs>
        </symbol>
        <symbol viewBox="0 0 22 22" id="icon-doc">
            <path d="M6.875 5.5C6.69266 5.5 6.5178 5.57243 6.38886 5.70136C6.25993 5.8303 6.1875 6.00516 6.1875 6.1875C6.1875 6.36984 6.25993 6.5447 6.38886 6.67364C6.5178 6.80257 6.69266 6.875 6.875 6.875H15.125C15.3073 6.875 15.4822 6.80257 15.6111 6.67364C15.7401 6.5447 15.8125 6.36984 15.8125 6.1875C15.8125 6.00516 15.7401 5.8303 15.6111 5.70136C15.4822 5.57243 15.3073 5.5 15.125 5.5H6.875ZM6.1875 8.9375C6.1875 8.75516 6.25993 8.5803 6.38886 8.45136C6.5178 8.32243 6.69266 8.25 6.875 8.25H15.125C15.3073 8.25 15.4822 8.32243 15.6111 8.45136C15.7401 8.5803 15.8125 8.75516 15.8125 8.9375C15.8125 9.11984 15.7401 9.2947 15.6111 9.42364C15.4822 9.55257 15.3073 9.625 15.125 9.625H6.875C6.69266 9.625 6.5178 9.55257 6.38886 9.42364C6.25993 9.2947 6.1875 9.11984 6.1875 8.9375ZM6.875 11C6.69266 11 6.5178 11.0724 6.38886 11.2014C6.25993 11.3303 6.1875 11.5052 6.1875 11.6875C6.1875 11.8698 6.25993 12.0447 6.38886 12.1736C6.5178 12.3026 6.69266 12.375 6.875 12.375H15.125C15.3073 12.375 15.4822 12.3026 15.6111 12.1736C15.7401 12.0447 15.8125 11.8698 15.8125 11.6875C15.8125 11.5052 15.7401 11.3303 15.6111 11.2014C15.4822 11.0724 15.3073 11 15.125 11H6.875ZM6.875 13.75C6.69266 13.75 6.5178 13.8224 6.38886 13.9514C6.25993 14.0803 6.1875 14.2552 6.1875 14.4375C6.1875 14.6198 6.25993 14.7947 6.38886 14.9236C6.5178 15.0526 6.69266 15.125 6.875 15.125H11C11.1823 15.125 11.3572 15.0526 11.4861 14.9236C11.6151 14.7947 11.6875 14.6198 11.6875 14.4375C11.6875 14.2552 11.6151 14.0803 11.4861 13.9514C11.3572 13.8224 11.1823 13.75 11 13.75H6.875Z"></path>
            <path d="M2.75 2.75C2.75 2.02065 3.03973 1.32118 3.55546 0.805456C4.07118 0.289731 4.77065 0 5.5 0L16.5 0C17.2293 0 17.9288 0.289731 18.4445 0.805456C18.9603 1.32118 19.25 2.02065 19.25 2.75V19.25C19.25 19.9793 18.9603 20.6788 18.4445 21.1945C17.9288 21.7103 17.2293 22 16.5 22H5.5C4.77065 22 4.07118 21.7103 3.55546 21.1945C3.03973 20.6788 2.75 19.9793 2.75 19.25V2.75ZM16.5 1.375H5.5C5.13533 1.375 4.78559 1.51987 4.52773 1.77773C4.26987 2.03559 4.125 2.38533 4.125 2.75V19.25C4.125 19.6147 4.26987 19.9644 4.52773 20.2223C4.78559 20.4801 5.13533 20.625 5.5 20.625H16.5C16.8647 20.625 17.2144 20.4801 17.4723 20.2223C17.7301 19.9644 17.875 19.6147 17.875 19.25V2.75C17.875 2.38533 17.7301 2.03559 17.4723 1.77773C17.2144 1.51987 16.8647 1.375 16.5 1.375Z"></path>
        </symbol>
        <symbol viewBox="0 0 26 18" id="icon-download">
            <g clip-path="url(#clip0_2343_6550)">
                <path d="M4.05273 16.5734V4.18656C4.05273 3.66909 4.4757 3.21631 5.02881 3.21631H9.77905L11.3082 5.31852H20.223" stroke-width="1.7" stroke-miterlimit="10" stroke-linecap="round" stroke-linejoin="round"></path>
                <path d="M19.9953 16.5734H4.05273L7.79436 7.87354H23.7369L19.9953 16.5734Z" stroke-width="1.7" stroke-miterlimit="10" stroke-linecap="round" stroke-linejoin="round"></path>
            </g>
            <defs>
                <clipPath id="clip0_2343_6550">
                    <rect width="25.0526" height="17"  transform="translate(0.474609 0.5)"></rect>
                </clipPath>
            </defs>
        </symbol>
        <symbol viewBox="0 0 28 28" id="icon-faq">
            <path d="M13.9987 25.6663C20.442 25.6663 25.6654 20.443 25.6654 13.9997C25.6654 7.55635 20.442 2.33301 13.9987 2.33301C7.55538 2.33301 2.33203 7.55635 2.33203 13.9997C2.33203 20.443 7.55538 25.6663 13.9987 25.6663Z" stroke-width="1.5" stroke-linecap="round" stroke-linejoin="round"></path>
            <path d="M10.6055 10.4997C10.8798 9.71997 11.4211 9.06248 12.1337 8.64368C12.8464 8.22487 13.6842 8.07178 14.4988 8.21152C15.3135 8.35125 16.0524 8.7748 16.5847 9.40714C17.117 10.0395 17.4084 10.8398 17.4071 11.6664C17.4071 13.9997 13.9071 15.1664 13.9071 15.1664" stroke-width="1.5" stroke-linecap="round" stroke-linejoin="round"></path>
            <path d="M14 19.833H14.0088" stroke-width="1.5" stroke-linecap="round" stroke-linejoin="round"></path>
        </symbol>
        <symbol viewBox="0 0 24 24" id="icon-liquidstake">
            <path d="M18.75 14.9996C18.75 19.142 16.1423 21.7496 12 21.7496C7.85766 21.7496 5.25 19.142 5.25 14.9996C5.25 10.5545 10.0889 4.55352 11.573 2.81774C11.6258 2.75607 11.6913 2.70656 11.7651 2.67261C11.8388 2.63867 11.919 2.62109 12.0002 2.62109C12.0814 2.62109 12.1617 2.63867 12.2354 2.67261C12.3092 2.70656 12.3747 2.75607 12.4275 2.81774C13.9111 4.55352 18.75 10.5545 18.75 14.9996Z" stroke-width="1.5" stroke-miterlimit="10"></path>
            <path d="M16.125 15.375C16.125 16.2701 15.7694 17.1285 15.1365 17.7615C14.5035 18.3944 13.6451 18.75 12.75 18.75" stroke-width="1.5" stroke-linecap="round" stroke-linejoin="round"></path>
        </symbol>
        <symbol viewBox="0 0 24 24" id="icon-people">
            <g clip-path="url(#clip0_2343_6497)">
                <path d="M4.74723 11.619C3.21188 11.619 1.96289 10.3814 1.96289 8.86056C1.96289 7.33958 3.21188 6.10193 4.74723 6.10193C6.28238 6.10193 7.53119 7.33939 7.53119 8.86056C7.53119 10.3815 6.28238 11.619 4.74723 11.619ZM4.74723 6.87612C3.63867 6.87612 2.73708 7.76637 2.73708 8.86056C2.73708 9.95456 3.63867 10.8448 4.74723 10.8448C5.85541 10.8448 6.75699 9.95456 6.75699 8.86056C6.75699 7.76637 5.85541 6.87612 4.74723 6.87612Z"></path>
                <path d="M5.8675 19.2566H1.01178C0.453818 19.2566 0 18.8056 0 18.2512V16.985C0 14.3929 2.1296 12.2839 4.74742 12.2839C5.77697 12.2839 6.75699 12.6053 7.58071 13.2129C7.75271 13.3399 7.78938 13.5823 7.66236 13.7544C7.53535 13.9263 7.29322 13.9629 7.12103 13.8361C6.43133 13.3273 5.61064 13.0581 4.74742 13.0581C2.55658 13.0581 0.774194 14.8199 0.774194 16.985V18.2512C0.774194 18.3786 0.880796 18.4824 1.01178 18.4824H5.86769C6.08128 18.4824 6.25479 18.6557 6.25479 18.8695C6.25479 19.0831 6.08128 19.2566 5.8675 19.2566Z" ></path>
                <path d="M22.9888 18.9637H18.1331C17.9195 18.9637 17.746 18.7904 17.746 18.5766C17.746 18.363 17.9195 18.1895 18.1331 18.1895H22.989C23.12 18.1895 23.2266 18.0859 23.2266 17.9585V16.6923C23.2266 14.5268 21.4442 12.7654 19.2534 12.7654C18.3384 12.7654 17.4451 13.0805 16.738 13.6528C16.5721 13.7872 16.3284 13.7617 16.1937 13.5955C16.0593 13.4294 16.0846 13.1856 16.2511 13.051C17.0954 12.3677 18.1617 11.9912 19.2534 11.9912C21.871 11.9912 24.0006 14.1 24.0006 16.6923V17.9585C24.0006 18.5127 23.5468 18.9637 22.9888 18.9637Z" ></path>
                <path d="M19.2527 11.4277C17.7176 11.4277 16.4688 10.1903 16.4688 8.66928C16.4688 7.1483 17.7176 5.91064 19.2527 5.91064C20.7881 5.91064 22.037 7.14811 22.037 8.66928C22.037 10.1904 20.7879 11.4277 19.2527 11.4277ZM19.2527 6.68484C18.1445 6.68484 17.2429 7.57509 17.2429 8.66928C17.2429 9.76347 18.1445 10.6535 19.2527 10.6535C20.3613 10.6535 21.2629 9.76347 21.2629 8.66928C21.2629 7.57509 20.3611 6.68484 19.2527 6.68484Z" ></path>
                <path d="M17.2538 20.5162H6.74628C6.04826 20.5162 5.48047 19.9525 5.48047 19.2596V17.4787C5.48047 13.9196 8.40486 11.0242 12.0001 11.0242C15.5953 11.0242 18.5197 13.9196 18.5197 17.4787V19.2596C18.5197 19.9525 17.9519 20.5162 17.2538 20.5162ZM12.0001 11.7986C8.83203 11.7986 6.25466 14.3468 6.25466 17.4789V19.2598C6.25466 19.5257 6.47524 19.7422 6.74628 19.7422H17.2537C17.5247 19.7422 17.7453 19.5257 17.7453 19.2598V17.4789C17.7455 14.3468 15.1681 11.7986 12.0001 11.7986Z" ></path>
                <path d="M11.8647 10.5718C9.8922 10.5718 8.28711 8.98206 8.28711 7.02767C8.28711 5.07348 9.89201 3.48389 11.8647 3.48389C13.8376 3.48389 15.4425 5.07367 15.4425 7.02786C15.4425 8.98225 13.8375 10.5718 11.8647 10.5718ZM11.8647 4.25808C10.319 4.25808 9.0613 5.50065 9.0613 7.02786C9.0613 8.55527 10.319 9.79784 11.8647 9.79784C13.4107 9.79784 14.6683 8.55527 14.6683 7.02786C14.6683 5.50065 13.4107 4.25808 11.8647 4.25808Z" ></path>
            </g>
            <defs>
                <clipPath id="clip0_2343_6497">
                    <rect width="24" height="24"></rect>
                </clipPath>
            </defs>
        </symbol>
        <symbol viewBox="0 0 22 18" id="icon-road">
            <path d="M1.66797 17.1663L6.33463 0.833008M15.668 0.833008L20.3346 17.1663M11.0013 4.33301V1.99967M11.0013 10.1663V7.83301M11.0013 15.9997V13.6663" stroke-width="1.5" stroke-linecap="round" stroke-linejoin="round"></path>
        </symbol>
        <symbol viewBox="0 0 24 24" id="icon-stake">
            <path d="M23.1902 6.03208C23.1902 6.02508 23.1902 6.01908 23.1902 6.01108V6.00208V5.98708C23.178 5.95429 23.1608 5.92359 23.1392 5.89608L23.1212 5.88008C23.1008 5.85557 23.0764 5.83462 23.0492 5.81808L23.0182 5.80208C22.9817 5.78538 22.9429 5.77425 22.9032 5.76908C22.8972 5.76908 22.8932 5.76908 22.8852 5.76908C19.0532 5.61308 13.3572 7.19108 14.8562 11.8261C14.0924 12.9298 13.4671 14.123 12.9942 15.3791H12.8692C12.6046 13.9247 12.1897 12.5017 11.6312 11.1331C15.0032 4.38808 6.57116 0.18708 1.10916 0.86808H1.10316C1.0653 0.873227 1.02851 0.884366 0.994157 0.90108C0.954612 0.921654 0.918785 0.948693 0.888157 0.98108L0.880157 0.98808C0.861154 1.01175 0.845041 1.0376 0.832157 1.06508C0.828369 1.07509 0.825687 1.08549 0.824157 1.09608L0.818157 1.10508V1.11908C0.806241 1.15722 0.801163 1.19717 0.803157 1.23708V1.24308C0.813416 1.29738 0.833768 1.34928 0.863157 1.39608C3.38416 5.54708 4.25016 13.6361 11.0692 11.5701C11.5555 12.799 11.9239 14.0714 12.1692 15.3701H7.26916C6.96731 15.3742 6.67717 15.4875 6.45249 15.6891C6.22781 15.8907 6.08382 16.1669 6.0472 16.4666C6.01058 16.7662 6.08382 17.069 6.25334 17.3188C6.42286 17.5686 6.67717 17.7484 6.96916 17.8251L8.10316 22.9381C8.11999 23.0136 8.16206 23.0811 8.22241 23.1294C8.28277 23.1778 8.35781 23.2041 8.43516 23.2041H17.1042C17.1816 23.2045 17.2568 23.1783 17.3173 23.1299C17.3777 23.0814 17.4197 23.0137 17.4362 22.9381L18.5772 17.8311C18.8691 17.7544 19.1235 17.5746 19.293 17.3248C19.4625 17.075 19.5357 16.7722 19.4991 16.4726C19.4625 16.1729 19.3185 15.8967 19.0938 15.6951C18.8691 15.4935 18.579 15.3802 18.2772 15.3761H13.7122C14.1225 14.3355 14.6425 13.3416 15.2632 12.4111C19.5832 14.7381 20.9512 8.58508 23.1632 6.27108V6.25708C23.185 6.21648 23.1986 6.17196 23.2032 6.12608C23.2028 6.09432 23.1985 6.06273 23.1902 6.03208ZM3.15216 4.67508C2.80034 3.72792 2.3981 2.80026 1.94716 1.89608C5.90077 3.73543 9.04902 6.95193 10.8032 10.9441C6.13616 12.2441 4.62116 8.39608 3.15216 4.67508ZM2.68116 1.49608C7.28116 1.60408 13.4612 4.94408 11.2492 10.2871C9.46655 6.47416 6.44702 3.37605 2.68116 1.49608ZM16.8372 22.5251H8.71016L7.67116 17.8731H17.8782L16.8372 22.5251ZM18.8492 16.6251C18.8489 16.7763 18.7886 16.9213 18.6816 17.0282C18.5745 17.1351 18.4294 17.1951 18.2782 17.1951H7.26916C7.19236 17.1983 7.11571 17.186 7.04381 17.1588C6.97191 17.1316 6.90624 17.0902 6.85077 17.037C6.79529 16.9838 6.75114 16.9199 6.72099 16.8492C6.69083 16.7785 6.67529 16.7024 6.67529 16.6256C6.67529 16.5487 6.69083 16.4726 6.72099 16.4019C6.75114 16.3312 6.79529 16.2674 6.85077 16.2142C6.90624 16.161 6.97191 16.1195 7.04381 16.0924C7.11571 16.0652 7.19236 16.0529 7.26916 16.0561H18.2782C18.4292 16.0558 18.5741 16.1155 18.6811 16.222C18.7882 16.3285 18.8486 16.4731 18.8492 16.6241V16.6251ZM15.7922 8.76708C16.7842 7.38008 19.0462 6.72408 21.0072 6.51508C18.8088 7.61652 16.8811 9.19042 15.3622 11.1241C15.2609 10.7233 15.2468 10.3055 15.321 9.89885C15.3952 9.49221 15.5559 9.10624 15.7922 8.76708ZM20.8212 8.52208C19.2822 11.2921 18.0752 13.0281 15.6612 11.8491C17.2554 9.71234 19.3598 8.00942 21.7822 6.89608C21.4542 7.38408 21.1442 7.94408 20.8212 8.52208Z"></path>
            <rect x="11.541" y="18.5333" width="3.025" height="3.0247" rx="0.241988" ></rect>
            <path d="M13.9011 20.1241C13.9011 20.2468 13.8726 20.3594 13.8156 20.4619C13.7586 20.5625 13.6711 20.6439 13.553 20.7062C13.4349 20.7686 13.2884 20.7997 13.1133 20.7997H12.7897V21.5598H12.2676V19.4425H13.1133C13.2843 19.4425 13.4288 19.4717 13.5469 19.53C13.665 19.5883 13.7535 19.6687 13.8125 19.7713C13.8716 19.8738 13.9011 19.9914 13.9011 20.1241ZM13.0736 20.3896C13.1734 20.3896 13.2477 20.3664 13.2965 20.3202C13.3454 20.2739 13.3698 20.2086 13.3698 20.1241C13.3698 20.0397 13.3454 19.9743 13.2965 19.9281C13.2477 19.8818 13.1734 19.8587 13.0736 19.8587H12.7897V20.3896H13.0736Z"></path>
            <path d="M13.9011 18.8966H12.2676V19.2596H13.9011V18.8966Z"></path>
        </symbol>
        <symbol viewBox="0 0 22 22" id="icon-stats">
            <path d="M21.4844 19.4599H18.9353V2.02344C18.9353 1.73868 18.7044 1.50781 18.4197 1.50781H13.4732C13.1885 1.50781 12.9576 1.73868 12.9576 2.02344V6.19841H8.52676C8.24201 6.19841 8.01114 6.42928 8.01114 6.71404V10.2493H3.58033C3.29557 10.2493 3.0647 10.4802 3.0647 10.765V19.4599H0.515625C0.230871 19.4599 0 19.6908 0 19.9755C0 20.2603 0.230871 20.4911 0.515625 20.4911H21.4844C21.7691 20.4911 22 20.2603 22 19.9755C22 19.6908 21.7691 19.4599 21.4844 19.4599ZM13.9889 2.53906H17.904V19.4599H13.9889V6.71404V2.53906ZM9.04239 7.22966H12.9576V19.4599H9.04239V10.765V7.22966ZM4.09595 11.2806H8.01114V19.4599H4.09595V11.2806Z"></path>
        </symbol>
        <symbol viewBox="0 0 24 24" id="icon-trade">
            <g clip-path="url(#clip0_2343_6574)">
                <path d="M12 0.5C9.72552 0.5 7.50211 1.17446 5.61095 2.4381C3.71978 3.70174 2.2458 5.49779 1.37539 7.59914C0.504983 9.70049 0.277244 12.0128 0.720974 14.2435C1.1647 16.4743 2.25997 18.5234 3.86828 20.1317C5.47658 21.74 7.52568 22.8353 9.75647 23.279C11.9872 23.7228 14.2995 23.495 16.4009 22.6246C18.5022 21.7542 20.2983 20.2802 21.5619 18.3891C22.8255 16.4979 23.5 14.2745 23.5 12C23.4966 8.95105 22.2839 6.02795 20.128 3.87201C17.9721 1.71608 15.049 0.503388 12 0.5ZM12 22.5C9.9233 22.5 7.89323 21.8842 6.16652 20.7304C4.4398 19.5767 3.09399 17.9368 2.29927 16.0182C1.50455 14.0996 1.29661 11.9884 1.70176 9.95155C2.1069 7.91475 3.10693 6.04383 4.57538 4.57538C6.04384 3.10693 7.91476 2.1069 9.95156 1.70175C11.9884 1.29661 14.0996 1.50454 16.0182 2.29926C17.9368 3.09399 19.5767 4.4398 20.7304 6.16651C21.8842 7.89323 22.5 9.9233 22.5 12C22.4968 14.7838 21.3896 17.4527 19.4211 19.4211C17.4527 21.3896 14.7838 22.4968 12 22.5Z" ></path>
                <path d="M15.75 14H7C6.86739 14 6.74021 14.0527 6.64645 14.1464C6.55268 14.2402 6.5 14.3674 6.5 14.5C6.5 14.6326 6.55268 14.7598 6.64645 14.8536C6.74021 14.9473 6.86739 15 7 15H15.75C15.8826 15 16.0098 14.9473 16.1036 14.8536C16.1973 14.7598 16.25 14.6326 16.25 14.5C16.25 14.3674 16.1973 14.2402 16.1036 14.1464C16.0098 14.0527 15.8826 14 15.75 14Z"></path>
                <path d="M9.85339 11.6465C9.75963 11.5528 9.63248 11.5001 9.49989 11.5001C9.36731 11.5001 9.24016 11.5528 9.14639 11.6465L6.64639 14.1465C6.55266 14.2403 6.5 14.3674 6.5 14.5C6.5 14.6326 6.55266 14.7598 6.64639 14.8535L9.14639 17.3535C9.24069 17.4446 9.367 17.495 9.49809 17.4939C9.62919 17.4927 9.7546 17.4401 9.8473 17.3474C9.94001 17.2547 9.99259 17.1293 9.99373 16.9982C9.99487 16.8671 9.94447 16.7408 9.85339 16.6465L7.70689 14.5L9.85339 12.3535C9.94713 12.2598 9.99979 12.1326 9.99979 12C9.99979 11.8674 9.94713 11.7403 9.85339 11.6465Z" ></path>
                <path d="M17 9H8.25C8.11739 9 7.99021 9.05268 7.89645 9.14645C7.80268 9.24021 7.75 9.36739 7.75 9.5C7.75 9.63261 7.80268 9.75979 7.89645 9.85355C7.99021 9.94732 8.11739 10 8.25 10H17C17.1326 10 17.2598 9.94732 17.3536 9.85355C17.4473 9.75979 17.5 9.63261 17.5 9.5C17.5 9.36739 17.4473 9.24021 17.3536 9.14645C17.2598 9.05268 17.1326 9 17 9Z" ></path>
                <path d="M14.8518 6.64622C14.7575 6.55514 14.6312 6.50474 14.5001 6.50588C14.369 6.50702 14.2436 6.5596 14.1509 6.65231C14.0582 6.74501 14.0056 6.87042 14.0045 7.00151C14.0034 7.13261 14.0538 7.25891 14.1448 7.35322L16.2913 9.49972L14.1448 11.6462C14.0971 11.6923 14.059 11.7475 14.0328 11.8085C14.0066 11.8695 13.9928 11.9351 13.9922 12.0015C13.9916 12.0679 14.0043 12.1337 14.0294 12.1952C14.0546 12.2566 14.0917 12.3125 14.1386 12.3594C14.1856 12.4064 14.2414 12.4435 14.3029 12.4686C14.3643 12.4938 14.4301 12.5064 14.4965 12.5058C14.5629 12.5053 14.6285 12.4915 14.6895 12.4653C14.7505 12.4391 14.8057 12.401 14.8518 12.3532L17.3518 9.85322C17.4456 9.75945 17.4982 9.6323 17.4982 9.49972C17.4982 9.36713 17.4456 9.23998 17.3518 9.14621L14.8518 6.64622Z" ></path>
            </g>
            <defs>
                <clipPath id="clip0_2343_6574">
                    <rect width="24" height="24"></rect>
                </clipPath>
            </defs>
        </symbol>
        <symbol viewBox="0 0 22 22" id="icon-plogo">
            <path d="M17.1593 11.5566C17.1593 12.4487 16.952 13.2677 16.5375 14.0136C16.123 14.7448 15.4865 15.3371 14.6279 15.7905C13.7692 16.2439 12.7034 16.4705 11.4302 16.4705H9.07646V21.9987H5.2793V6.59875H11.4302C12.6738 6.59875 13.7248 6.81082 14.5834 7.23494C15.4421 7.65906 16.086 8.24405 16.5153 8.98992C16.9446 9.73579 17.1593 10.5913 17.1593 11.5566ZM11.1416 13.4871C11.867 13.4871 12.4073 13.3189 12.7626 12.9825C13.1179 12.6461 13.2955 12.1708 13.2955 11.5566C13.2955 10.9423 13.1179 10.467 12.7626 10.1307C12.4073 9.79429 11.867 9.6261 11.1416 9.6261H9.07646V13.4871H11.1416Z"></path>
            <path d="M17.1593 2.63953H5.2793V5.27953H17.1593V2.63953Z"></path>
        </symbol>
        <symbol viewBox="0 0 22 22" id="icon-ecosystem">
            <path d="M15.2863 8.50069L11.1613 6.53644C11.1109 6.51245 11.0558 6.5 11 6.5C10.9442 6.5 10.8891 6.51245 10.8388 6.53644L6.71375 8.50069C6.64994 8.53108 6.59601 8.57889 6.55819 8.63861C6.52037 8.69832 6.5002 8.76751 6.5 8.83819V12.7678C6.49987 12.8338 6.51714 12.8986 6.55006 12.9557C6.58298 13.0129 6.63038 13.0603 6.6875 13.0933L10.8125 15.4506C10.8691 15.4829 10.9333 15.4999 10.9985 15.4999C11.0637 15.4999 11.1279 15.4829 11.1845 15.4506L15.3095 13.0933C15.3666 13.0603 15.414 13.0129 15.4469 12.9557C15.4799 12.8986 15.4971 12.8338 15.497 12.7678V8.83931C15.4973 8.76876 15.4777 8.69956 15.4404 8.63966C15.4031 8.57976 15.3497 8.53159 15.2863 8.50069ZM11 7.29019L14.2528 8.83931L11 10.3884L7.74763 8.83931L11 7.29019ZM7.25 9.43331L10.625 11.0406V14.4789L7.25 12.5503V9.43331ZM11.375 14.4789V11.0406L14.75 9.43369V12.5503L11.375 14.4789Z"></path>
            <path d="M21.4984 11.0003C21.4969 10.5349 21.322 10.0868 21.0079 9.74347C20.6938 9.4001 20.263 9.18612 19.7996 9.14331C19.4385 7.43784 18.5902 5.87385 17.3575 4.64116C16.1248 3.40848 14.5608 2.56013 12.8554 2.19906C12.8117 1.73695 12.5973 1.30772 12.254 0.995312C11.9107 0.682899 11.4633 0.509766 10.9991 0.509766C10.5349 0.509766 10.0875 0.682899 9.74418 0.995312C9.40089 1.30772 9.18648 1.73695 9.14286 2.19906C7.43719 2.56004 5.87297 3.40834 4.64003 4.64102C3.4071 5.87368 2.55846 7.43772 2.19711 9.14331C1.735 9.18693 1.30577 9.40134 0.993359 9.74463C0.680946 10.0879 0.507812 10.5354 0.507812 10.9996C0.507812 11.4637 0.680946 11.9112 0.993359 12.2545C1.30577 12.5978 1.735 12.8122 2.19711 12.8558C2.55809 14.5615 3.40639 16.1257 4.63906 17.3586C5.87173 18.5916 7.43577 19.4402 9.14136 19.8016C9.18498 20.2637 9.39939 20.6929 9.74268 21.0053C10.086 21.3177 10.5334 21.4909 10.9976 21.4909C11.4618 21.4909 11.9092 21.3177 12.2525 21.0053C12.5958 20.6929 12.8102 20.2637 12.8539 19.8016C14.5595 19.4406 16.1237 18.5923 17.3567 17.3596C18.5896 16.1269 19.4383 14.5629 19.7996 12.8573C20.263 12.8145 20.6938 12.6005 21.0079 12.2572C21.322 11.9138 21.4969 11.4657 21.4984 11.0003ZM10.9984 1.25031C11.2209 1.25031 11.4384 1.31629 11.6234 1.43991C11.8084 1.56353 11.9526 1.73923 12.0377 1.94479C12.1229 2.15036 12.1452 2.37656 12.1017 2.59479C12.0583 2.81302 11.9512 3.01347 11.7939 3.17081C11.6365 3.32814 11.4361 3.43529 11.2178 3.4787C10.9996 3.5221 10.7734 3.49983 10.5678 3.41468C10.3623 3.32953 10.1866 3.18533 10.063 3.00033C9.93934 2.81532 9.87336 2.59782 9.87336 2.37531C9.87336 2.07694 9.99189 1.7908 10.2029 1.57982C10.4138 1.36884 10.7 1.25031 10.9984 1.25031ZM1.24836 11.0003C1.24836 10.7778 1.31434 10.5603 1.43796 10.3753C1.56157 10.1903 1.73727 10.0461 1.94284 9.96095C2.14841 9.8758 2.37461 9.85352 2.59284 9.89693C2.81106 9.94034 3.01152 10.0475 3.16885 10.2048C3.32619 10.3622 3.43333 10.5626 3.47674 10.7808C3.52015 10.9991 3.49787 11.2253 3.41272 11.4308C3.32758 11.6364 3.18338 11.8121 2.99838 11.9357C2.81337 12.0593 2.59586 12.1253 2.37336 12.1253C2.07499 12.1253 1.78884 12.0068 1.57786 11.7958C1.36689 11.5848 1.24836 11.2987 1.24836 11.0003ZM10.9984 20.7503C10.7759 20.7503 10.5583 20.6843 10.3733 20.5607C10.1883 20.4371 10.0441 20.2614 9.95899 20.0558C9.87385 19.8503 9.85157 19.6241 9.89498 19.4058C9.93838 19.1876 10.0455 18.9872 10.2029 18.8298C10.3602 18.6725 10.5607 18.5653 10.7789 18.5219C10.9971 18.4785 11.2233 18.5008 11.4289 18.5859C11.6344 18.6711 11.8101 18.8153 11.9338 19.0003C12.0574 19.1853 12.1234 19.4028 12.1234 19.6253C12.1234 19.9237 12.0048 20.2098 11.7939 20.4208C11.5829 20.6318 11.2967 20.7503 10.9984 20.7503ZM12.7744 19.0523C12.6552 18.6746 12.4188 18.3448 12.0994 18.1106C11.7801 17.8765 11.3944 17.7502 10.9984 17.7502C10.6023 17.7502 10.2166 17.8765 9.89727 18.1106C9.5779 18.3448 9.34148 18.6746 9.22236 19.0523C7.68712 18.7126 6.28085 17.9415 5.16901 16.8297C4.05718 15.7178 3.28605 14.3116 2.94636 12.7763C3.32403 12.6572 3.65389 12.4208 3.88804 12.1014C4.12219 11.782 4.24843 11.3963 4.24843 11.0003C4.24843 10.6043 4.12219 10.2186 3.88804 9.89923C3.65389 9.57985 3.32403 9.34344 2.94636 9.22431C3.28605 7.68907 4.05718 6.2828 5.16901 5.17097C6.28085 4.05913 7.68712 3.288 9.22236 2.94831C9.34148 3.32598 9.5779 3.65585 9.89727 3.88999C10.2166 4.12414 10.6023 4.25038 10.9984 4.25038C11.3944 4.25038 11.7801 4.12414 12.0994 3.88999C12.4188 3.65585 12.6552 3.32598 12.7744 2.94831C14.3096 3.28796 15.7159 4.05908 16.8278 5.17092C17.9396 6.28276 18.7107 7.68905 19.0504 9.22431C18.6727 9.34344 18.3428 9.57985 18.1087 9.89923C17.8745 10.2186 17.7483 10.6043 17.7483 11.0003C17.7483 11.3963 17.8745 11.782 18.1087 12.1014C18.3428 12.4208 18.6727 12.6572 19.0504 12.7763C18.7107 14.3116 17.9395 15.7178 16.8277 16.8297C15.7159 17.9415 14.3096 18.7126 12.7744 19.0523ZM19.6234 12.1253C19.4009 12.1253 19.1833 12.0593 18.9983 11.9357C18.8133 11.8121 18.6691 11.6364 18.584 11.4308C18.4988 11.2253 18.4766 10.9991 18.52 10.7808C18.5634 10.5626 18.6705 10.3622 18.8279 10.2048C18.9852 10.0475 19.1857 9.94034 19.4039 9.89693C19.6221 9.85352 19.8483 9.8758 20.0539 9.96095C20.2594 10.0461 20.4351 10.1903 20.5588 10.3753C20.6824 10.5603 20.7484 10.7778 20.7484 11.0003C20.7484 11.2987 20.6298 11.5848 20.4189 11.7958C20.2079 12.0068 19.9217 12.1253 19.6234 12.1253Z"></path>
        </symbol>
        <symbol  viewBox="0 0 16 12" id="icon-discord">
            <path d="M3.66828 9.09047C7.06944 10.4178 9.96383 10.6763 13.2438 8.61031C13.2197 8.64637 12.5709 9.60758 10.8648 10.1002C11.2252 10.5928 11.7178 11.1575 11.7178 11.1575C12.8112 11.1575 13.8806 10.8451 14.8057 10.2444C15.5267 9.76374 15.9352 8.93469 15.8511 8.06962C15.7069 6.59173 15.3584 5.1499 14.8178 3.76818C14.1329 1.9659 12.4868 0.716304 10.5764 0.536063C10.4082 0.524042 10.288 0.524042 10.216 0.524042L10.0237 0.716269C12.2225 1.34107 13.3159 2.3143 13.3399 2.35036C9.96362 0.644179 5.97458 0.620173 2.57424 2.27827C2.57424 2.27827 3.65562 1.20891 6.04663 0.644179L5.90246 0.5C5.65012 0.5 5.40981 0.524042 5.15752 0.560069C3.39127 0.860448 1.91342 2.07399 1.27659 3.7441C0.723884 5.18593 0.363436 6.69985 0.231278 8.2378C0.159188 9.05483 0.543678 9.85987 1.21653 10.3285C2.10564 10.9172 3.16298 11.2296 4.23234 11.2296C4.23234 11.2296 4.66488 10.6649 5.09745 10.1603C3.47538 9.67963 2.81455 8.71843 2.80253 8.68236L3.1078 8.83824C3.29029 8.93148 3.47738 9.01595 3.66828 9.09047ZM5.55403 8.04558C4.77303 8.02154 4.16025 7.36071 4.18429 6.56769C4.20833 5.82275 4.80909 5.22199 5.55403 5.19795C6.33503 5.22199 6.94781 5.88282 6.92377 6.67584C6.8877 7.42081 6.29897 8.02157 5.55403 8.04558ZM10.4562 8.04558C9.67523 8.02154 9.06245 7.36071 9.08649 6.56769C9.11053 5.82275 9.71129 5.22199 10.4562 5.19795C11.2372 5.22199 11.85 5.88282 11.826 6.67584C11.802 7.42081 11.2012 8.02157 10.4562 8.04558Z"></path>
        </symbol>
        <symbol viewBox="0 0 17 10" id="icon-medium">
            <path d="M9.1753 5.07805C9.1753 7.56321 7.18952 9.57782 4.74007 9.57782C2.29062 9.57782 0.304688 7.56321 0.304688 5.07805C0.304688 2.59289 2.29047 0.578125 4.74007 0.578125C7.18967 0.578125 9.1753 2.59289 9.1753 5.07805Z"></path>
            <path d="M14.0408 5.07617C14.0408 7.41542 13.048 9.31251 11.8232 9.31251C10.5984 9.31251 9.60547 7.41542 9.60547 5.07617C9.60547 2.73693 10.5982 0.839844 11.823 0.839844C13.0478 0.839844 14.0407 2.73632 14.0407 5.07617"></path>
            <path d="M16.0324 5.07633C16.0324 7.17172 15.6833 8.87142 15.2525 8.87142C14.8217 8.87142 14.4727 7.17218 14.4727 5.07633C14.4727 2.98049 14.8218 1.28125 15.2525 1.28125C15.6831 1.28125 16.0324 2.98034 16.0324 5.07633Z"></path>
        </symbol>
        <symbol viewBox="0 0 12 11" id="icon-telegram">
            <path d="M0.778217 4.72355L10.7643 0.886802C11.2278 0.719949 11.6326 0.99947 11.4824 1.69784L11.4832 1.69698L9.78294 9.67924C9.65693 10.2452 9.31945 10.3828 8.84734 10.1162L6.25804 8.21455L5.00913 9.41348C4.87104 9.55109 4.75452 9.6672 4.48696 9.6672L4.6708 7.04142L9.46963 2.72132C9.6785 2.53813 9.42303 2.43492 9.1477 2.61725L3.21734 6.33789L0.660835 5.54319C0.105862 5.36774 0.0937783 4.99017 0.778217 4.72355Z"></path>
        </symbol>
         <symbol viewBox="0 0 12 10" id="icon-twitter">
            <path d="M4.03085 0.472656H0.738281L4.62392 5.65352L0.949923 9.87996H2.19641L5.20127 6.42328L7.79379 9.88001H11.0864L7.0373 4.48127L10.522 0.472656H9.2755L6.45997 3.7115L4.03085 0.472656ZM8.26416 8.93927L2.61975 1.41339H3.56049L9.2049 8.93927H8.26416Z"></path>
        </symbol>

    </defs>
</svg>