<svg aria-hidden="true" style="position: absolute; width: 0; height: 0; overflow: hidden;" version="1.1"
     xmlns="http://www.w3.org/2000/svg" xmlns:xlink="http://www.w3.org/1999/xlink">
    <defs>
        <symbol fill="none" viewBox="0 0 11 11" id="icon-external_redirect">
            <path d="M1.332 9.86011L9.66501 1.53003" stroke="#FCFCFC" stroke-width="1.5" stroke-linecap="round" stroke-linejoin="round"></path>
            <path d="M1.332 1.53003H9.66501V9.86011" stroke="#FCFCFC" stroke-width="1.5" stroke-linecap="round" stroke-linejoin="round"></path>
        </symbol>
        <symbol viewBox="0 0 9 15" id="icon-right_chevron">
            <path d="M1.5 1.19922L7.5 7.19922L1.5 13.1992" stroke-width="2" stroke-linecap="round" stroke-linejoin="round"></path>
        </symbol>
        <symbol viewBox="0 0 9 13"  id="icon-left_chevron">
            <g clip-path="url(#clip0_30_22)">
                <path d="M6.50806 1.01221L1.54931 6.05313L6.59023 11.0119"  stroke-width="1.67" stroke-linecap="round" stroke-linejoin="round"></path>
            </g>
            <defs>
                <clipPath id="clip0_30_22">
                    <rect width="12" height="8" transform="translate(7.99976) rotate(89.5291)"></rect>
                </clipPath>
            </defs>
        </symbol>
        <symbol viewBox="0 0 9 13" id="icon-right_chevron">
            <g clip-path="url(#clip0_30_20)">
                <path d="M1.50269 11.0042L6.51641 6.01791L1.53017 1.00419" stroke-width="1.67" stroke-linecap="round" stroke-linejoin="round"></path>
            </g>
            <defs>
                <clipPath id="clip0_30_20">
                    <rect width="12" height="8" transform="translate(0 12) rotate(-89.8425)"></rect>
                </clipPath>
            </defs>
        </symbol>
        <symbol viewBox="0 0 22 22" id="icon-announcement">
            <g clip-path="url(#clip0_2343_6536)">
                <path d="M12.7493 0.682015C12.3733 0.0307412 11.5376 -0.193211 10.8864 0.18285C10.5709 0.364993 10.3452 0.65907 10.251 1.01094C10.1853 1.25607 10.1891 1.50877 10.2589 1.74622L8.29765 3.94143C8.13953 4.11842 8.15482 4.39002 8.33181 4.54815C8.5088 4.70627 8.78044 4.69089 8.93848 4.51399L10.6841 2.56004L13.3592 7.19346L16.0343 11.8269L6.81872 13.7483L4.89476 10.4159L4.41231 9.58036L6.36235 7.39765C6.52047 7.22066 6.50517 6.94906 6.32819 6.79093C6.1512 6.63281 5.87955 6.64819 5.72152 6.82509L3.61022 9.18823L1.57484 10.3634C0.846868 10.7837 0.326133 11.4623 0.108583 12.2742C-0.108966 13.0862 0.00266598 13.9342 0.422941 14.6622C0.843216 15.3902 1.52186 15.9109 2.33379 16.1285C2.60497 16.2011 2.88005 16.237 3.15342 16.237C3.61374 16.237 4.06886 16.1347 4.49124 15.9345L5.03449 16.8755C5.25634 17.2597 5.6602 17.4748 6.07489 17.4748C6.27499 17.4748 6.4775 17.4244 6.66339 17.3192L9.12325 21.5797C9.27866 21.849 9.56161 21.9996 9.85221 21.9996C9.9946 21.9996 10.1389 21.9634 10.2708 21.8872L11.9174 20.9366C12.1704 20.7905 12.3273 20.5289 12.337 20.2369C12.3467 19.9448 12.2074 19.6734 11.9646 19.5109L11.4771 19.1846L9.46592 15.7011C10.0317 15.3681 10.2249 14.6381 9.89608 14.0686L9.85272 13.9934L16.5275 12.6018C16.7879 12.8738 17.1472 13.0227 17.5145 13.0227C17.7457 13.0227 17.9799 12.9639 18.1941 12.8403C18.8453 12.4643 19.0692 11.6286 18.6932 10.9774L12.7493 0.682015ZM2.55624 15.2984C1.96603 15.1402 1.4727 14.7617 1.1672 14.2325C0.861692 13.7034 0.780525 13.0868 0.938692 12.4967C1.09686 11.9065 1.47537 11.4132 2.00457 11.1076L3.72752 10.1129L4.87134 12.094L6.01516 14.0751L4.29213 15.0698C3.76288 15.3754 3.14641 15.4565 2.55624 15.2984ZM10.9161 19.8432L11.4609 20.2078L9.85792 21.1334L7.40786 16.8898L8.72192 16.1311L10.783 19.701C10.8159 19.7579 10.8614 19.8066 10.9161 19.8432ZM9.15191 14.4983C9.24558 14.6605 9.1898 14.8686 9.0276 14.9623L8.66443 15.1719C8.66438 15.172 8.66434 15.172 8.6643 15.172C8.66426 15.1721 8.66421 15.1721 8.66417 15.1721L6.60624 16.3603C6.60615 16.3603 6.60607 16.3604 6.60598 16.3604C6.60589 16.3604 6.60585 16.3605 6.60576 16.3605L6.24272 16.5701C6.08056 16.6638 5.87242 16.608 5.77871 16.4458L5.24091 15.5143L6.7571 14.6389L8.96701 14.1782L9.15191 14.4983ZM17.7645 12.0961C17.6478 12.1635 17.5117 12.1813 17.3817 12.1464C17.2516 12.1116 17.1428 12.0281 17.0755 11.9114L11.1314 1.61611C11.0641 1.49945 11.0462 1.3635 11.081 1.23339C11.1159 1.10328 11.1994 0.994482 11.316 0.92715C11.3952 0.881432 11.4818 0.85969 11.5674 0.85969C11.7418 0.85969 11.9117 0.950138 12.0051 1.11179L17.9491 11.4071C18.0881 11.6479 18.0053 11.957 17.7645 12.0961Z" ></path>
                <path d="M17.087 5.04084C17.1666 5.17868 17.3109 5.25573 17.4595 5.25573C17.5324 5.25573 17.6063 5.23717 17.6739 5.19811L20.45 3.59533C20.6555 3.47669 20.7259 3.2139 20.6073 3.00838C20.4886 2.80286 20.2258 2.73243 20.0203 2.85111L17.2442 4.45389C17.0387 4.57252 16.9683 4.83532 17.087 5.04084Z" ></path>
                <path d="M16.2208 3.60207C16.2885 3.64113 16.3623 3.65969 16.4352 3.65969C16.5837 3.65969 16.7282 3.58265 16.8077 3.44481L18.1304 1.15388C18.2491 0.948364 18.1786 0.685567 17.9731 0.566931C17.7676 0.448251 17.5048 0.518677 17.3862 0.724196L16.0635 3.01512C15.9448 3.22059 16.0153 3.48343 16.2208 3.60207Z" ></path>
                <path d="M20.6974 6.08203H18.6055C18.3682 6.08203 18.1758 6.2744 18.1758 6.51172C18.1758 6.74904 18.3682 6.94141 18.6055 6.94141H20.6974C20.9347 6.94141 21.1271 6.74904 21.1271 6.51172C21.1271 6.2744 20.9347 6.08203 20.6974 6.08203Z" ></path>
                <path d="M21.8745 2.14885C21.7942 2.06893 21.6838 2.02295 21.5708 2.02295C21.4573 2.02295 21.3469 2.06893 21.2666 2.14885C21.1866 2.22877 21.1406 2.33963 21.1406 2.45264C21.1406 2.56564 21.1866 2.6765 21.2666 2.75643C21.3469 2.83635 21.4573 2.88232 21.5708 2.88232C21.6838 2.88232 21.7942 2.83635 21.8745 2.75643C21.9545 2.6765 22 2.56564 22 2.45264C22 2.33963 21.9545 2.22877 21.8745 2.14885Z" ></path>
                <path d="M7.33008 6.09894C7.44313 6.09894 7.55352 6.05339 7.63387 5.97347C7.71379 5.89355 7.75934 5.78269 7.75934 5.66968C7.75934 5.55624 7.71379 5.44581 7.63387 5.36546C7.55399 5.28554 7.44313 5.23999 7.33008 5.23999C7.21664 5.23999 7.10621 5.28554 7.02633 5.36546C6.94598 5.44581 6.90039 5.55624 6.90039 5.66968C6.90039 5.78269 6.94598 5.89355 7.02633 5.97347C7.10621 6.05339 7.21707 6.09894 7.33008 6.09894Z" ></path>
            </g>
            <defs>
                <clipPath id="clip0_2343_6536">
                    <rect width="22" height="22"></rect>
                </clipPath>
            </defs>
        </symbol>
        <symbol viewBox="0 0 26 18" id="icon-tech">
            <g clip-path="url(#clip0_2343_6459)">
                <path d="M3.40625 12.9206V2.3695C3.40625 1.57569 4.02438 0.947266 4.80518 0.947266H21.2345C22.0153 0.947266 22.6334 1.57569 22.6334 2.3695V12.9206" stroke-width="1.35" stroke-miterlimit="10" stroke-linejoin="round"></path>
                <path d="M9.68565 6.63184L8.73828 7.5792L9.68565 8.52657" stroke-width="1.35" stroke-linecap="round" stroke-linejoin="round"></path>
                <path d="M16.3164 6.63184L17.2638 7.5792L16.3164 8.52657"  stroke-width="1.35" stroke-linecap="round" stroke-linejoin="round"></path>
                <path d="M14.4241 3.79004L11.582 11.369"  stroke-width="1.35" stroke-linecap="round" stroke-linejoin="round"></path>
                <path d="M1.15625 14.5078C1.15625 14.5078 1.57918 16.3931 2.91305 16.3931H23.0837C24.45 16.3931 24.8405 14.5078 24.8405 14.5078H1.15625Z" stroke-width="1.35" stroke-miterlimit="10" stroke-linejoin="round"></path>
            </g>
            <defs>
                <clipPath id="clip0_2343_6459">
                    <rect width="25.5789" height="18" fill="white" transform="translate(0.210938)"></rect>
                </clipPath>
            </defs>
        </symbol>
        <symbol viewBox="0 0 20 21" id="icon-code">
            <path d="M17.7761 1.30798H2.21897C1.43788 1.30798 0.804688 1.94118 0.804688 2.72227V18.2794C0.804688 19.0605 1.43788 19.6937 2.21897 19.6937H17.7761C18.5572 19.6937 19.1904 19.0605 19.1904 18.2794V2.72227C19.1904 1.94118 18.5572 1.30798 17.7761 1.30798Z" troke-width="1.28571" stroke-linecap="round" stroke-linejoin="round"></path>
            <path d="M0.804688 6.25818H19.1904" stroke-width="1.28571" stroke-linecap="round" stroke-linejoin="round"></path>
            <path d="M6.46127 10.5004L4.33984 12.6218L6.46127 14.7432" stroke-width="1.28571" stroke-linecap="round" stroke-linejoin="round"></path>
            <path d="M14.2383 10.5004L16.3597 12.6218L14.2383 14.7432"  stroke-width="1.28571" stroke-linecap="round" stroke-linejoin="round"></path>
            <path d="M9.28906 15.4506L11.4105 9.0863"  stroke-width="1.28571" stroke-linecap="round" stroke-linejoin="round"></path>
        </symbol>
        <symbol viewBox="0 0 22 22" id="icon-doc">
            <path d="M6.875 5.5C6.69266 5.5 6.5178 5.57243 6.38886 5.70136C6.25993 5.8303 6.1875 6.00516 6.1875 6.1875C6.1875 6.36984 6.25993 6.5447 6.38886 6.67364C6.5178 6.80257 6.69266 6.875 6.875 6.875H15.125C15.3073 6.875 15.4822 6.80257 15.6111 6.67364C15.7401 6.5447 15.8125 6.36984 15.8125 6.1875C15.8125 6.00516 15.7401 5.8303 15.6111 5.70136C15.4822 5.57243 15.3073 5.5 15.125 5.5H6.875ZM6.1875 8.9375C6.1875 8.75516 6.25993 8.5803 6.38886 8.45136C6.5178 8.32243 6.69266 8.25 6.875 8.25H15.125C15.3073 8.25 15.4822 8.32243 15.6111 8.45136C15.7401 8.5803 15.8125 8.75516 15.8125 8.9375C15.8125 9.11984 15.7401 9.2947 15.6111 9.42364C15.4822 9.55257 15.3073 9.625 15.125 9.625H6.875C6.69266 9.625 6.5178 9.55257 6.38886 9.42364C6.25993 9.2947 6.1875 9.11984 6.1875 8.9375ZM6.875 11C6.69266 11 6.5178 11.0724 6.38886 11.2014C6.25993 11.3303 6.1875 11.5052 6.1875 11.6875C6.1875 11.8698 6.25993 12.0447 6.38886 12.1736C6.5178 12.3026 6.69266 12.375 6.875 12.375H15.125C15.3073 12.375 15.4822 12.3026 15.6111 12.1736C15.7401 12.0447 15.8125 11.8698 15.8125 11.6875C15.8125 11.5052 15.7401 11.3303 15.6111 11.2014C15.4822 11.0724 15.3073 11 15.125 11H6.875ZM6.875 13.75C6.69266 13.75 6.5178 13.8224 6.38886 13.9514C6.25993 14.0803 6.1875 14.2552 6.1875 14.4375C6.1875 14.6198 6.25993 14.7947 6.38886 14.9236C6.5178 15.0526 6.69266 15.125 6.875 15.125H11C11.1823 15.125 11.3572 15.0526 11.4861 14.9236C11.6151 14.7947 11.6875 14.6198 11.6875 14.4375C11.6875 14.2552 11.6151 14.0803 11.4861 13.9514C11.3572 13.8224 11.1823 13.75 11 13.75H6.875Z"></path>
            <path d="M2.75 2.75C2.75 2.02065 3.03973 1.32118 3.55546 0.805456C4.07118 0.289731 4.77065 0 5.5 0L16.5 0C17.2293 0 17.9288 0.289731 18.4445 0.805456C18.9603 1.32118 19.25 2.02065 19.25 2.75V19.25C19.25 19.9793 18.9603 20.6788 18.4445 21.1945C17.9288 21.7103 17.2293 22 16.5 22H5.5C4.77065 22 4.07118 21.7103 3.55546 21.1945C3.03973 20.6788 2.75 19.9793 2.75 19.25V2.75ZM16.5 1.375H5.5C5.13533 1.375 4.78559 1.51987 4.52773 1.77773C4.26987 2.03559 4.125 2.38533 4.125 2.75V19.25C4.125 19.6147 4.26987 19.9644 4.52773 20.2223C4.78559 20.4801 5.13533 20.625 5.5 20.625H16.5C16.8647 20.625 17.2144 20.4801 17.4723 20.2223C17.7301 19.9644 17.875 19.6147 17.875 19.25V2.75C17.875 2.38533 17.7301 2.03559 17.4723 1.77773C17.2144 1.51987 16.8647 1.375 16.5 1.375Z"></path>
        </symbol>
        <symbol viewBox="0 0 26 18" id="icon-download">
            <g clip-path="url(#clip0_2343_6550)">
                <path d="M4.05273 16.5734V4.18656C4.05273 3.66909 4.4757 3.21631 5.02881 3.21631H9.77905L11.3082 5.31852H20.223" stroke-width="1.7" stroke-miterlimit="10" stroke-linecap="round" stroke-linejoin="round"></path>
                <path d="M19.9953 16.5734H4.05273L7.79436 7.87354H23.7369L19.9953 16.5734Z" stroke-width="1.7" stroke-miterlimit="10" stroke-linecap="round" stroke-linejoin="round"></path>
            </g>
            <defs>
                <clipPath id="clip0_2343_6550">
                    <rect width="25.0526" height="17"  transform="translate(0.474609 0.5)"></rect>
                </clipPath>
            </defs>
        </symbol>
        <symbol  viewBox="0 0 23 23" id="icon-wallet">
            <path d="M18.648 6.49707H4.35491C3.17082 6.49707 2.21094 7.45696 2.21094 8.64104V17.2169C2.21094 18.401 3.17082 19.3609 4.35491 19.3609H18.648C19.8321 19.3609 20.792 18.401 20.792 17.2169V8.64104C20.792 7.45696 19.8321 6.49707 18.648 6.49707Z" stroke-linejoin="round"></path>
            <path d="M18.4408 6.49737V5.15739C18.4407 4.82874 18.368 4.50416 18.228 4.20682C18.0881 3.90947 17.8842 3.64669 17.6309 3.43722C17.3777 3.22775 17.0813 3.07675 16.763 2.995C16.4447 2.91325 16.1122 2.90276 15.7894 2.96429L4.02616 4.97202C3.51533 5.06937 3.05448 5.34194 2.7231 5.74271C2.39172 6.14348 2.21059 6.64733 2.21094 7.16736V9.35599" stroke-linejoin="round"></path>
            <path d="M16.5035 14.3587C16.2208 14.3587 15.9445 14.2749 15.7094 14.1178C15.4744 13.9607 15.2912 13.7375 15.183 13.4763C15.0748 13.2152 15.0465 12.9278 15.1017 12.6505C15.1568 12.3733 15.293 12.1186 15.4929 11.9187C15.6927 11.7188 15.9474 11.5827 16.2247 11.5275C16.5019 11.4724 16.7893 11.5007 17.0505 11.6089C17.3117 11.717 17.5349 11.9002 17.692 12.1353C17.849 12.3703 17.9328 12.6467 17.9328 12.9294C17.9328 13.3085 17.7823 13.672 17.5142 13.9401C17.2462 14.2081 16.8826 14.3587 16.5035 14.3587Z"></path>
        </symbol>
        <symbol viewBox="0 0 30 15" id="icon-bridge">
            <g clip-path="url(#clip0_2941_1856)">
                <path d="M6.90234 11.5505V1.02054H9.33234V11.5505"  stroke-width="1.08" stroke-miterlimit="10" stroke-linejoin="round"></path>
                <path d="M20.6719 11.5505V1.02054H23.1019V11.5505" stroke-width="1.08" stroke-miterlimit="10" stroke-linejoin="round"></path>
                <path d="M1.63672 13.3369H28.7717"  stroke-width="1.08" stroke-miterlimit="10" stroke-linejoin="round"></path>
                <path d="M20.6759 1.02054C20.6759 4.16251 18.1559 6.69054 15.0059 6.69054C11.8559 6.69054 9.33594 4.16251 9.33594 1.02054" stroke-width="1.08" stroke-miterlimit="10" stroke-linejoin="round"></path>
                <path d="M28.6989 7.81942C25.7041 7.16991 22.7812 3.81413 22.7812 0.674835"  stroke-width="1.08" stroke-miterlimit="10" stroke-linejoin="round"></path>
                <path d="M1.23438 8.16512C4.22933 7.51561 7.15212 4.15982 7.15212 1.02054"  stroke-width="1.08" stroke-miterlimit="10" stroke-linejoin="round"></path>
                <path d="M13.3828 6.69046V11.5505"  stroke-width="1.08" stroke-miterlimit="10" stroke-linejoin="round"></path>
                <path d="M17.4336 5.87991V11.5499" stroke-width="1.08" stroke-miterlimit="10" stroke-linejoin="round"></path>
            </g>
            <defs>
                <clipPath id="clip0_2941_1856">
                    <rect width="29.16" height="14.58" transform="translate(0.421875 0.209991)"></rect>
                </clipPath>
            </defs>
        </symbol>
        <symbol viewBox="0 0 26 21" id="icon-community">
            <path d="M12.5014 9.78418H4.83984" stroke-width="1.2" stroke-miterlimit="10" stroke-linejoin="round"></path>
            <path d="M9.08216 13.0254H4.83984" stroke-width="1.2" stroke-miterlimit="10" stroke-linejoin="round"></path>
            <path d="M16.619 11.3471H18.4869L21.6845 15.1145V11.3471H22.571C23.5524 11.3471 24.3755 10.5556 24.3755 9.54255V3.27405C24.3755 2.29262 23.5524 1.46948 22.571 1.46948H13.1365C12.1551 1.46948 11.332 2.29262 11.332 3.27405V4.66705" stroke-width="1.2" stroke-miterlimit="10" stroke-linejoin="round"></path>
            <path d="M21.75 6.125H16.5" stroke-width="1.2" stroke-miterlimit="10" stroke-linejoin="round"></path>
            <path d="M7.94595 15.9372L4.84336 19.7046V15.9372H3.95691C2.97547 15.9372 2.15234 15.1141 2.15234 14.1326V7.86414C2.15234 6.88271 2.97547 6.05957 3.95691 6.05957H13.3913C14.3727 6.05957 15.1959 6.88271 15.1959 7.86414V14.1643C15.1959 15.1458 14.3727 15.9689 13.3913 15.9689H9.68715" stroke-width="1.2" stroke-miterlimit="10" stroke-linecap="round" stroke-linejoin="round"></path>
        </symbol>
        <symbol viewBox="0 0 20 19" id="icon-career">
            <g clip-path="url(#clip0_2941_1336)">
                <path d="M7.29922 8.15038C8.97678 8.15038 10.3367 6.79044 10.3367 5.11288C10.3367 3.43531 8.97678 2.07538 7.29922 2.07538C5.62165 2.07538 4.26172 3.43531 4.26172 5.11288C4.26172 6.79044 5.62165 8.15038 7.29922 8.15038Z" stroke-width="1.08" stroke-linecap="round" stroke-linejoin="round"></path>
                <path d="M13.3727 18.2758H1.22266V16.9258C1.22266 15.3146 1.8627 13.7694 3.00198 12.6301C4.14127 11.4908 5.68647 10.8508 7.29766 10.8508C8.90885 10.8508 10.454 11.4908 11.5933 12.6301C12.7326 13.7694 13.3727 15.3146 13.3727 16.9258V18.2758Z" stroke-width="1.08" stroke-linecap="round" stroke-linejoin="round"></path>
                <path d="M12.6992 2.07538C13.5048 2.07538 14.2774 2.3954 14.8471 2.96504C15.4167 3.53468 15.7367 4.30728 15.7367 5.11288C15.7367 5.91847 15.4167 6.69107 14.8471 7.26071C14.2774 7.83036 13.5048 8.15038 12.6992 8.15038" stroke-width="1.08" stroke-linecap="round" stroke-linejoin="round"></path>
                <path d="M14.8555 11.1066C16.0054 11.5441 16.9955 12.3204 17.6946 13.3329C18.3937 14.3454 18.7688 15.5463 18.7705 16.7766V18.2751H16.7455" stroke-width="1.08" stroke-linecap="round" stroke-linejoin="round"></path>
            </g>
            <defs>
                <clipPath id="clip0_2941_1336">
                    <rect width="18.9" height="18.9" transform="translate(0.550781 0.0499878)"></rect>
                </clipPath>
            </defs>
        </symbol>
        <symbol viewBox="0 0 28 28" id="icon-faq">
            <path d="M13.9987 25.6663C20.442 25.6663 25.6654 20.443 25.6654 13.9997C25.6654 7.55635 20.442 2.33301 13.9987 2.33301C7.55538 2.33301 2.33203 7.55635 2.33203 13.9997C2.33203 20.443 7.55538 25.6663 13.9987 25.6663Z" stroke-width="1.5" stroke-linecap="round" stroke-linejoin="round"></path>
            <path d="M10.6055 10.4997C10.8798 9.71997 11.4211 9.06248 12.1337 8.64368C12.8464 8.22487 13.6842 8.07178 14.4988 8.21152C15.3135 8.35125 16.0524 8.7748 16.5847 9.40714C17.117 10.0395 17.4084 10.8398 17.4071 11.6664C17.4071 13.9997 13.9071 15.1664 13.9071 15.1664" stroke-width="1.5" stroke-linecap="round" stroke-linejoin="round"></path>
            <path d="M14 19.833H14.0088" stroke-width="1.5" stroke-linecap="round" stroke-linejoin="round"></path>
        </symbol>
        <symbol viewBox="0 0 24 24" id="icon-liquidstake">
            <path d="M18.75 14.9996C18.75 19.142 16.1423 21.7496 12 21.7496C7.85766 21.7496 5.25 19.142 5.25 14.9996C5.25 10.5545 10.0889 4.55352 11.573 2.81774C11.6258 2.75607 11.6913 2.70656 11.7651 2.67261C11.8388 2.63867 11.919 2.62109 12.0002 2.62109C12.0814 2.62109 12.1617 2.63867 12.2354 2.67261C12.3092 2.70656 12.3747 2.75607 12.4275 2.81774C13.9111 4.55352 18.75 10.5545 18.75 14.9996Z" stroke-width="1.5" stroke-miterlimit="10"></path>
            <path d="M16.125 15.375C16.125 16.2701 15.7694 17.1285 15.1365 17.7615C14.5035 18.3944 13.6451 18.75 12.75 18.75" stroke-width="1.5" stroke-linecap="round" stroke-linejoin="round"></path>
        </symbol>
        <symbol viewBox="0 0 22 23" id="icon-blog">
            <g clip-path="url(#clip0_4772_2918)">
                <mask id="mask0_4772_2918" maskUnits="userSpaceOnUse" x="0" y="0" width="22" height="23">
                    <path d="M22 0.5H0V22.5H22V0.5Z" fill="white"></path>
                </mask>
                <g mask="url(#mask0_4772_2918)">
                    <path d="M10.2848 1.8469C10.3914 1.44906 10.8004 1.21297 11.1982 1.31952L20.6589 3.85324C21.057 3.95983 21.2932 4.36894 21.1865 4.76692L17.5561 18.3083C17.4496 18.7061 17.0406 18.9423 16.6428 18.8357L7.18203 16.3019C6.78404 16.1953 6.54784 15.7863 6.65454 15.3883L10.2848 1.8469Z" stroke-width="1.43" stroke-linecap="round" stroke-linejoin="round"></path>
                    <path d="M9.59762 4.48242L1.33811 6.69666C0.940273 6.80331 0.70418 7.21225 0.810733 7.6101L4.43755 21.1524C4.54414 21.5504 4.95325 21.7866 5.35123 21.6799L10.0813 20.4119" stroke-width="1.43" stroke-linecap="round" stroke-linejoin="round"></path>
                </g>
            </g>

        </symbol>
        <symbol viewBox="0 0 22 23" id="icon-book">
            <g clip-path="url(#clip0_2941_641)">
                <path d="M10.9995 21.7145C8.6977 19.1804 5.57615 17.5389 2.18376 17.0788C1.79763 17.0361 1.44101 16.8518 1.18273 16.5616C0.924456 16.2714 0.782828 15.8959 0.785185 15.5074V2.85737C0.78517 2.63039 0.834326 2.40611 0.929271 2.19994C1.02422 1.99377 1.1627 1.81062 1.33519 1.66309C1.50464 1.51823 1.70297 1.41109 1.917 1.34878C2.13104 1.28646 2.35589 1.2704 2.57661 1.30166C5.8205 1.84004 8.78803 3.45668 10.9995 5.89023V21.7145Z" stroke-width="1.42857" stroke-linecap="round" stroke-linejoin="round"></path>
                <path d="M11 21.7145C13.3018 19.1804 16.4233 17.5389 19.8157 17.0788C20.2018 17.0361 20.5585 16.8518 20.8167 16.5616C21.075 16.2714 21.2166 15.8959 21.2143 15.5074V2.85737C21.2143 2.63039 21.1651 2.40611 21.0702 2.19994C20.9753 1.99377 20.8368 1.81062 20.6643 1.66309C20.4948 1.51823 20.2965 1.41109 20.0825 1.34878C19.8684 1.28646 19.6436 1.2704 19.4229 1.30166C16.179 1.84004 13.2114 3.45668 11 5.89023V21.7145Z" stroke-width="1.42857" stroke-linecap="round" stroke-linejoin="round"></path>
            </g>
            <defs>
                <clipPath id="clip0_2941_641">
                    <rect width="22" height="22" transform="translate(0 0.5)"></rect>
                </clipPath>
            </defs>
        </symbol>
        <symbol viewBox="0 0 22 23" id="icon-xprt-nav">
            <g clip-path="url(#clip0_2941_1766)">
                <mask id="mask0_2941_1766" maskUnits="userSpaceOnUse" x="0" y="0" width="22" height="23">
                    <path d="M22 0.499023H0V22.499H22V0.499023Z" ></path>
                </mask>
                <g mask="url(#mask0_2941_1766)">
                    <path fill-rule="evenodd" clip-rule="evenodd" d="M8.08221 8.35181C7.80154 8.64674 7.69931 8.91298 7.69931 9.14291C7.69931 9.37283 7.80154 9.63908 8.08221 9.93401C8.36596 10.2322 8.80618 10.5292 9.39813 10.7923C10.5804 11.3178 12.2577 11.6588 14.1437 11.6588C16.0298 11.6588 17.707 11.3178 18.8893 10.7923C19.4813 10.5292 19.9216 10.2322 20.2052 9.93401C20.486 9.63908 20.5882 9.37283 20.5882 9.14291C20.5882 8.91298 20.486 8.64674 20.2052 8.35181C19.9216 8.05365 19.4813 7.75661 18.8893 7.49353C17.707 6.96806 16.0298 6.62705 14.1437 6.62705C12.2577 6.62705 10.5804 6.96806 9.39813 7.49353C8.80618 7.75661 8.36596 8.05365 8.08221 8.35181ZM8.88883 6.34761C10.2659 5.7356 12.1243 5.37305 14.1437 5.37305C16.1632 5.37305 18.0216 5.7356 19.3986 6.34761C20.0863 6.65327 20.6818 7.03346 21.1136 7.48732C21.5487 7.94441 21.8422 8.50496 21.8422 9.14291C21.8422 9.78086 21.5487 10.3414 21.1136 10.7985C20.6818 11.2523 20.0863 11.6325 19.3986 11.9382C18.0216 12.5502 16.1632 12.9128 14.1437 12.9128C12.1243 12.9128 10.2659 12.5502 8.88883 11.9382C8.20111 11.6325 7.60574 11.2523 7.17382 10.7985C6.73883 10.3414 6.44531 9.78086 6.44531 9.14291C6.44531 8.50496 6.73883 7.94441 7.17382 7.48732C7.60574 7.03346 8.20111 6.65327 8.88883 6.34761Z"></path>
                    <path fill-rule="evenodd" clip-rule="evenodd" d="M7.07231 8.51562C7.41859 8.51562 7.69931 8.79635 7.69931 9.14263V18.5712C7.69931 18.8001 7.80081 19.0658 8.07986 19.3603C8.36194 19.6578 8.80001 19.9549 9.39028 20.2183C10.5693 20.7443 12.2462 21.087 14.1437 21.087C16.0413 21.087 17.7183 20.7443 18.8972 20.2183C19.4875 19.9549 19.9255 19.6578 20.2077 19.3603C20.4866 19.0658 20.5882 18.8001 20.5882 18.5712V9.14263C20.5882 8.79635 20.8689 8.51562 21.2152 8.51562C21.5614 8.51562 21.8422 8.79635 21.8422 9.14263V18.5712C21.8422 19.2066 21.5508 19.7659 21.1178 20.2228C20.6878 20.6765 20.0947 21.0571 19.4082 21.3635C18.0335 21.9767 16.1747 22.341 14.1437 22.341C12.1128 22.341 10.2539 21.9767 8.87934 21.3635C8.19282 21.0571 7.59964 20.6765 7.16967 20.2228C6.73666 19.7659 6.44531 19.2066 6.44531 18.5712V9.14263C6.44531 8.79635 6.72602 8.51562 7.07231 8.51562Z"></path>
                    <path fill-rule="evenodd" clip-rule="evenodd" d="M7.07231 13.2295C7.41859 13.2295 7.69931 13.5102 7.69931 13.8565C7.69931 14.0855 7.80081 14.3512 8.07986 14.6455C8.36194 14.9432 8.80001 15.2403 9.39028 15.5036C10.5693 16.0297 12.2462 16.3724 14.1437 16.3724C16.0413 16.3724 17.7183 16.0297 18.8972 15.5036C19.4875 15.2403 19.9255 14.9432 20.2077 14.6455C20.4866 14.3512 20.5882 14.0855 20.5882 13.8565C20.5882 13.5102 20.8689 13.2295 21.2152 13.2295C21.5614 13.2295 21.8422 13.5102 21.8422 13.8565C21.8422 14.4919 21.5508 15.0512 21.1178 15.5081C20.6878 15.9619 20.0947 16.3425 19.4082 16.6487C18.0335 17.2621 16.1747 17.6264 14.1437 17.6264C12.1128 17.6264 10.2539 17.2621 8.87934 16.6487C8.19282 16.3425 7.59964 15.9619 7.16967 15.5081C6.73666 15.0512 6.44531 14.4919 6.44531 13.8565C6.44531 13.5102 6.72602 13.2295 7.07231 13.2295Z" ></path>
                    <path fill-rule="evenodd" clip-rule="evenodd" d="M7.83879 0.65833C10.1153 0.545566 12.3726 1.12601 14.3125 2.32318C14.6072 2.50503 14.6987 2.89135 14.5169 3.18603C14.3349 3.48072 13.9486 3.57219 13.6539 3.39032C11.9259 2.32392 9.91453 1.80816 7.88659 1.91151C7.87597 1.91206 7.86532 1.91232 7.85468 1.91232C5.96529 1.91232 4.28814 2.25503 3.10678 2.78128C2.5153 3.04476 2.0756 3.342 1.79227 3.63995C1.51186 3.93481 1.41025 4.20023 1.41025 4.42817C1.41025 4.67097 1.52697 4.95909 1.85761 5.28179C2.1902 5.60637 2.70198 5.92586 3.37976 6.20581C3.69982 6.33801 3.8521 6.70464 3.7199 7.02469C3.5877 7.34475 3.22108 7.49703 2.90103 7.36483C2.13309 7.04764 1.46631 6.65212 0.981748 6.17922C0.495245 5.70441 0.15625 5.11253 0.15625 4.42817C0.15625 3.79185 0.449463 3.23227 0.883563 2.77579C1.31474 2.32239 1.90924 1.94195 2.5965 1.63579C3.96905 1.02437 5.82148 0.660233 7.83879 0.65833Z" ></path>
                    <path fill-rule="evenodd" clip-rule="evenodd" d="M0.78325 3.80078C1.12953 3.80078 1.41025 4.0815 1.41025 4.42778V13.8563C1.41025 14.0992 1.52697 14.3873 1.85761 14.71C2.1902 15.0345 2.70198 15.3541 3.37976 15.634C3.69982 15.7662 3.8521 16.1327 3.7199 16.4528C3.5877 16.7729 3.22108 16.9252 2.90103 16.793C2.13309 16.4758 1.46631 16.0803 0.981748 15.6074C0.495245 15.1326 0.15625 14.5407 0.15625 13.8563V4.42778C0.15625 4.0815 0.436968 3.80078 0.78325 3.80078Z"></path>
                    <path fill-rule="evenodd" clip-rule="evenodd" d="M0.78325 8.51562C1.12953 8.51562 1.41025 8.79635 1.41025 9.14263C1.41025 9.38542 1.52697 9.67354 1.85761 9.99622C2.1902 10.3208 2.70198 10.6403 3.37976 10.9203C3.69982 11.0525 3.8521 11.4191 3.7199 11.7391C3.5877 12.0592 3.22108 12.2115 2.90103 12.0793C2.13309 11.7621 1.46631 11.3666 0.981748 10.8937C0.495245 10.4189 0.15625 9.82698 0.15625 9.14263C0.15625 8.79635 0.436968 8.51562 0.78325 8.51562Z" ></path>
                </g>
            </g>
            <defs>
                <clipPath id="clip0_2941_1766">
                    <rect width="22" height="22" transform="translate(0 0.5)"></rect>
                </clipPath>
            </defs>
        </symbol>
        <symbol viewBox="0 0 24 24" id="icon-people">
            <g clip-path="url(#clip0_2343_6497)">
                <path d="M4.74723 11.619C3.21188 11.619 1.96289 10.3814 1.96289 8.86056C1.96289 7.33958 3.21188 6.10193 4.74723 6.10193C6.28238 6.10193 7.53119 7.33939 7.53119 8.86056C7.53119 10.3815 6.28238 11.619 4.74723 11.619ZM4.74723 6.87612C3.63867 6.87612 2.73708 7.76637 2.73708 8.86056C2.73708 9.95456 3.63867 10.8448 4.74723 10.8448C5.85541 10.8448 6.75699 9.95456 6.75699 8.86056C6.75699 7.76637 5.85541 6.87612 4.74723 6.87612Z"></path>
                <path d="M5.8675 19.2566H1.01178C0.453818 19.2566 0 18.8056 0 18.2512V16.985C0 14.3929 2.1296 12.2839 4.74742 12.2839C5.77697 12.2839 6.75699 12.6053 7.58071 13.2129C7.75271 13.3399 7.78938 13.5823 7.66236 13.7544C7.53535 13.9263 7.29322 13.9629 7.12103 13.8361C6.43133 13.3273 5.61064 13.0581 4.74742 13.0581C2.55658 13.0581 0.774194 14.8199 0.774194 16.985V18.2512C0.774194 18.3786 0.880796 18.4824 1.01178 18.4824H5.86769C6.08128 18.4824 6.25479 18.6557 6.25479 18.8695C6.25479 19.0831 6.08128 19.2566 5.8675 19.2566Z" ></path>
                <path d="M22.9888 18.9637H18.1331C17.9195 18.9637 17.746 18.7904 17.746 18.5766C17.746 18.363 17.9195 18.1895 18.1331 18.1895H22.989C23.12 18.1895 23.2266 18.0859 23.2266 17.9585V16.6923C23.2266 14.5268 21.4442 12.7654 19.2534 12.7654C18.3384 12.7654 17.4451 13.0805 16.738 13.6528C16.5721 13.7872 16.3284 13.7617 16.1937 13.5955C16.0593 13.4294 16.0846 13.1856 16.2511 13.051C17.0954 12.3677 18.1617 11.9912 19.2534 11.9912C21.871 11.9912 24.0006 14.1 24.0006 16.6923V17.9585C24.0006 18.5127 23.5468 18.9637 22.9888 18.9637Z" ></path>
                <path d="M19.2527 11.4277C17.7176 11.4277 16.4688 10.1903 16.4688 8.66928C16.4688 7.1483 17.7176 5.91064 19.2527 5.91064C20.7881 5.91064 22.037 7.14811 22.037 8.66928C22.037 10.1904 20.7879 11.4277 19.2527 11.4277ZM19.2527 6.68484C18.1445 6.68484 17.2429 7.57509 17.2429 8.66928C17.2429 9.76347 18.1445 10.6535 19.2527 10.6535C20.3613 10.6535 21.2629 9.76347 21.2629 8.66928C21.2629 7.57509 20.3611 6.68484 19.2527 6.68484Z" ></path>
                <path d="M17.2538 20.5162H6.74628C6.04826 20.5162 5.48047 19.9525 5.48047 19.2596V17.4787C5.48047 13.9196 8.40486 11.0242 12.0001 11.0242C15.5953 11.0242 18.5197 13.9196 18.5197 17.4787V19.2596C18.5197 19.9525 17.9519 20.5162 17.2538 20.5162ZM12.0001 11.7986C8.83203 11.7986 6.25466 14.3468 6.25466 17.4789V19.2598C6.25466 19.5257 6.47524 19.7422 6.74628 19.7422H17.2537C17.5247 19.7422 17.7453 19.5257 17.7453 19.2598V17.4789C17.7455 14.3468 15.1681 11.7986 12.0001 11.7986Z" ></path>
                <path d="M11.8647 10.5718C9.8922 10.5718 8.28711 8.98206 8.28711 7.02767C8.28711 5.07348 9.89201 3.48389 11.8647 3.48389C13.8376 3.48389 15.4425 5.07367 15.4425 7.02786C15.4425 8.98225 13.8375 10.5718 11.8647 10.5718ZM11.8647 4.25808C10.319 4.25808 9.0613 5.50065 9.0613 7.02786C9.0613 8.55527 10.319 9.79784 11.8647 9.79784C13.4107 9.79784 14.6683 8.55527 14.6683 7.02786C14.6683 5.50065 13.4107 4.25808 11.8647 4.25808Z" ></path>
            </g>
            <defs>
                <clipPath id="clip0_2343_6497">
                    <rect width="24" height="24"></rect>
                </clipPath>
            </defs>
        </symbol>
        <symbol viewBox="0 0 22 18" id="icon-road">
            <path d="M1.66797 17.1663L6.33463 0.833008M15.668 0.833008L20.3346 17.1663M11.0013 4.33301V1.99967M11.0013 10.1663V7.83301M11.0013 15.9997V13.6663" stroke-width="1.5" stroke-linecap="round" stroke-linejoin="round"></path>
        </symbol>
        <symbol viewBox="0 0 24 24" id="icon-stake">
            <path d="M23.1902 6.03208C23.1902 6.02508 23.1902 6.01908 23.1902 6.01108V6.00208V5.98708C23.178 5.95429 23.1608 5.92359 23.1392 5.89608L23.1212 5.88008C23.1008 5.85557 23.0764 5.83462 23.0492 5.81808L23.0182 5.80208C22.9817 5.78538 22.9429 5.77425 22.9032 5.76908C22.8972 5.76908 22.8932 5.76908 22.8852 5.76908C19.0532 5.61308 13.3572 7.19108 14.8562 11.8261C14.0924 12.9298 13.4671 14.123 12.9942 15.3791H12.8692C12.6046 13.9247 12.1897 12.5017 11.6312 11.1331C15.0032 4.38808 6.57116 0.18708 1.10916 0.86808H1.10316C1.0653 0.873227 1.02851 0.884366 0.994157 0.90108C0.954612 0.921654 0.918785 0.948693 0.888157 0.98108L0.880157 0.98808C0.861154 1.01175 0.845041 1.0376 0.832157 1.06508C0.828369 1.07509 0.825687 1.08549 0.824157 1.09608L0.818157 1.10508V1.11908C0.806241 1.15722 0.801163 1.19717 0.803157 1.23708V1.24308C0.813416 1.29738 0.833768 1.34928 0.863157 1.39608C3.38416 5.54708 4.25016 13.6361 11.0692 11.5701C11.5555 12.799 11.9239 14.0714 12.1692 15.3701H7.26916C6.96731 15.3742 6.67717 15.4875 6.45249 15.6891C6.22781 15.8907 6.08382 16.1669 6.0472 16.4666C6.01058 16.7662 6.08382 17.069 6.25334 17.3188C6.42286 17.5686 6.67717 17.7484 6.96916 17.8251L8.10316 22.9381C8.11999 23.0136 8.16206 23.0811 8.22241 23.1294C8.28277 23.1778 8.35781 23.2041 8.43516 23.2041H17.1042C17.1816 23.2045 17.2568 23.1783 17.3173 23.1299C17.3777 23.0814 17.4197 23.0137 17.4362 22.9381L18.5772 17.8311C18.8691 17.7544 19.1235 17.5746 19.293 17.3248C19.4625 17.075 19.5357 16.7722 19.4991 16.4726C19.4625 16.1729 19.3185 15.8967 19.0938 15.6951C18.8691 15.4935 18.579 15.3802 18.2772 15.3761H13.7122C14.1225 14.3355 14.6425 13.3416 15.2632 12.4111C19.5832 14.7381 20.9512 8.58508 23.1632 6.27108V6.25708C23.185 6.21648 23.1986 6.17196 23.2032 6.12608C23.2028 6.09432 23.1985 6.06273 23.1902 6.03208ZM3.15216 4.67508C2.80034 3.72792 2.3981 2.80026 1.94716 1.89608C5.90077 3.73543 9.04902 6.95193 10.8032 10.9441C6.13616 12.2441 4.62116 8.39608 3.15216 4.67508ZM2.68116 1.49608C7.28116 1.60408 13.4612 4.94408 11.2492 10.2871C9.46655 6.47416 6.44702 3.37605 2.68116 1.49608ZM16.8372 22.5251H8.71016L7.67116 17.8731H17.8782L16.8372 22.5251ZM18.8492 16.6251C18.8489 16.7763 18.7886 16.9213 18.6816 17.0282C18.5745 17.1351 18.4294 17.1951 18.2782 17.1951H7.26916C7.19236 17.1983 7.11571 17.186 7.04381 17.1588C6.97191 17.1316 6.90624 17.0902 6.85077 17.037C6.79529 16.9838 6.75114 16.9199 6.72099 16.8492C6.69083 16.7785 6.67529 16.7024 6.67529 16.6256C6.67529 16.5487 6.69083 16.4726 6.72099 16.4019C6.75114 16.3312 6.79529 16.2674 6.85077 16.2142C6.90624 16.161 6.97191 16.1195 7.04381 16.0924C7.11571 16.0652 7.19236 16.0529 7.26916 16.0561H18.2782C18.4292 16.0558 18.5741 16.1155 18.6811 16.222C18.7882 16.3285 18.8486 16.4731 18.8492 16.6241V16.6251ZM15.7922 8.76708C16.7842 7.38008 19.0462 6.72408 21.0072 6.51508C18.8088 7.61652 16.8811 9.19042 15.3622 11.1241C15.2609 10.7233 15.2468 10.3055 15.321 9.89885C15.3952 9.49221 15.5559 9.10624 15.7922 8.76708ZM20.8212 8.52208C19.2822 11.2921 18.0752 13.0281 15.6612 11.8491C17.2554 9.71234 19.3598 8.00942 21.7822 6.89608C21.4542 7.38408 21.1442 7.94408 20.8212 8.52208Z"></path>
            <rect x="11.541" y="18.5333" width="3.025" height="3.0247" rx="0.241988" ></rect>
            <path d="M13.9011 20.1241C13.9011 20.2468 13.8726 20.3594 13.8156 20.4619C13.7586 20.5625 13.6711 20.6439 13.553 20.7062C13.4349 20.7686 13.2884 20.7997 13.1133 20.7997H12.7897V21.5598H12.2676V19.4425H13.1133C13.2843 19.4425 13.4288 19.4717 13.5469 19.53C13.665 19.5883 13.7535 19.6687 13.8125 19.7713C13.8716 19.8738 13.9011 19.9914 13.9011 20.1241ZM13.0736 20.3896C13.1734 20.3896 13.2477 20.3664 13.2965 20.3202C13.3454 20.2739 13.3698 20.2086 13.3698 20.1241C13.3698 20.0397 13.3454 19.9743 13.2965 19.9281C13.2477 19.8818 13.1734 19.8587 13.0736 19.8587H12.7897V20.3896H13.0736Z"></path>
            <path d="M13.9011 18.8966H12.2676V19.2596H13.9011V18.8966Z"></path>
        </symbol>
        <symbol viewBox="0 0 22 22" id="icon-stats">
            <path d="M21.4844 19.4599H18.9353V2.02344C18.9353 1.73868 18.7044 1.50781 18.4197 1.50781H13.4732C13.1885 1.50781 12.9576 1.73868 12.9576 2.02344V6.19841H8.52676C8.24201 6.19841 8.01114 6.42928 8.01114 6.71404V10.2493H3.58033C3.29557 10.2493 3.0647 10.4802 3.0647 10.765V19.4599H0.515625C0.230871 19.4599 0 19.6908 0 19.9755C0 20.2603 0.230871 20.4911 0.515625 20.4911H21.4844C21.7691 20.4911 22 20.2603 22 19.9755C22 19.6908 21.7691 19.4599 21.4844 19.4599ZM13.9889 2.53906H17.904V19.4599H13.9889V6.71404V2.53906ZM9.04239 7.22966H12.9576V19.4599H9.04239V10.765V7.22966ZM4.09595 11.2806H8.01114V19.4599H4.09595V11.2806Z"></path>
        </symbol>
        <symbol viewBox="0 0 24 24" id="icon-trade">
            <g clip-path="url(#clip0_2343_6574)">
                <path d="M12 0.5C9.72552 0.5 7.50211 1.17446 5.61095 2.4381C3.71978 3.70174 2.2458 5.49779 1.37539 7.59914C0.504983 9.70049 0.277244 12.0128 0.720974 14.2435C1.1647 16.4743 2.25997 18.5234 3.86828 20.1317C5.47658 21.74 7.52568 22.8353 9.75647 23.279C11.9872 23.7228 14.2995 23.495 16.4009 22.6246C18.5022 21.7542 20.2983 20.2802 21.5619 18.3891C22.8255 16.4979 23.5 14.2745 23.5 12C23.4966 8.95105 22.2839 6.02795 20.128 3.87201C17.9721 1.71608 15.049 0.503388 12 0.5ZM12 22.5C9.9233 22.5 7.89323 21.8842 6.16652 20.7304C4.4398 19.5767 3.09399 17.9368 2.29927 16.0182C1.50455 14.0996 1.29661 11.9884 1.70176 9.95155C2.1069 7.91475 3.10693 6.04383 4.57538 4.57538C6.04384 3.10693 7.91476 2.1069 9.95156 1.70175C11.9884 1.29661 14.0996 1.50454 16.0182 2.29926C17.9368 3.09399 19.5767 4.4398 20.7304 6.16651C21.8842 7.89323 22.5 9.9233 22.5 12C22.4968 14.7838 21.3896 17.4527 19.4211 19.4211C17.4527 21.3896 14.7838 22.4968 12 22.5Z" ></path>
                <path d="M15.75 14H7C6.86739 14 6.74021 14.0527 6.64645 14.1464C6.55268 14.2402 6.5 14.3674 6.5 14.5C6.5 14.6326 6.55268 14.7598 6.64645 14.8536C6.74021 14.9473 6.86739 15 7 15H15.75C15.8826 15 16.0098 14.9473 16.1036 14.8536C16.1973 14.7598 16.25 14.6326 16.25 14.5C16.25 14.3674 16.1973 14.2402 16.1036 14.1464C16.0098 14.0527 15.8826 14 15.75 14Z"></path>
                <path d="M9.85339 11.6465C9.75963 11.5528 9.63248 11.5001 9.49989 11.5001C9.36731 11.5001 9.24016 11.5528 9.14639 11.6465L6.64639 14.1465C6.55266 14.2403 6.5 14.3674 6.5 14.5C6.5 14.6326 6.55266 14.7598 6.64639 14.8535L9.14639 17.3535C9.24069 17.4446 9.367 17.495 9.49809 17.4939C9.62919 17.4927 9.7546 17.4401 9.8473 17.3474C9.94001 17.2547 9.99259 17.1293 9.99373 16.9982C9.99487 16.8671 9.94447 16.7408 9.85339 16.6465L7.70689 14.5L9.85339 12.3535C9.94713 12.2598 9.99979 12.1326 9.99979 12C9.99979 11.8674 9.94713 11.7403 9.85339 11.6465Z" ></path>
                <path d="M17 9H8.25C8.11739 9 7.99021 9.05268 7.89645 9.14645C7.80268 9.24021 7.75 9.36739 7.75 9.5C7.75 9.63261 7.80268 9.75979 7.89645 9.85355C7.99021 9.94732 8.11739 10 8.25 10H17C17.1326 10 17.2598 9.94732 17.3536 9.85355C17.4473 9.75979 17.5 9.63261 17.5 9.5C17.5 9.36739 17.4473 9.24021 17.3536 9.14645C17.2598 9.05268 17.1326 9 17 9Z" ></path>
                <path d="M14.8518 6.64622C14.7575 6.55514 14.6312 6.50474 14.5001 6.50588C14.369 6.50702 14.2436 6.5596 14.1509 6.65231C14.0582 6.74501 14.0056 6.87042 14.0045 7.00151C14.0034 7.13261 14.0538 7.25891 14.1448 7.35322L16.2913 9.49972L14.1448 11.6462C14.0971 11.6923 14.059 11.7475 14.0328 11.8085C14.0066 11.8695 13.9928 11.9351 13.9922 12.0015C13.9916 12.0679 14.0043 12.1337 14.0294 12.1952C14.0546 12.2566 14.0917 12.3125 14.1386 12.3594C14.1856 12.4064 14.2414 12.4435 14.3029 12.4686C14.3643 12.4938 14.4301 12.5064 14.4965 12.5058C14.5629 12.5053 14.6285 12.4915 14.6895 12.4653C14.7505 12.4391 14.8057 12.401 14.8518 12.3532L17.3518 9.85322C17.4456 9.75945 17.4982 9.6323 17.4982 9.49972C17.4982 9.36713 17.4456 9.23998 17.3518 9.14621L14.8518 6.64622Z" ></path>
            </g>
            <defs>
                <clipPath id="clip0_2343_6574">
                    <rect width="24" height="24"></rect>
                </clipPath>
            </defs>
        </symbol>
        <symbol viewBox="0 0 22 22" id="icon-plogo">
            <path d="M17.1593 11.5566C17.1593 12.4487 16.952 13.2677 16.5375 14.0136C16.123 14.7448 15.4865 15.3371 14.6279 15.7905C13.7692 16.2439 12.7034 16.4705 11.4302 16.4705H9.07646V21.9987H5.2793V6.59875H11.4302C12.6738 6.59875 13.7248 6.81082 14.5834 7.23494C15.4421 7.65906 16.086 8.24405 16.5153 8.98992C16.9446 9.73579 17.1593 10.5913 17.1593 11.5566ZM11.1416 13.4871C11.867 13.4871 12.4073 13.3189 12.7626 12.9825C13.1179 12.6461 13.2955 12.1708 13.2955 11.5566C13.2955 10.9423 13.1179 10.467 12.7626 10.1307C12.4073 9.79429 11.867 9.6261 11.1416 9.6261H9.07646V13.4871H11.1416Z"></path>
            <path d="M17.1593 2.63953H5.2793V5.27953H17.1593V2.63953Z"></path>
        </symbol>
        <symbol viewBox="0 0 22 22" id="icon-ecosystem">
            <path d="M15.2863 8.50069L11.1613 6.53644C11.1109 6.51245 11.0558 6.5 11 6.5C10.9442 6.5 10.8891 6.51245 10.8388 6.53644L6.71375 8.50069C6.64994 8.53108 6.59601 8.57889 6.55819 8.63861C6.52037 8.69832 6.5002 8.76751 6.5 8.83819V12.7678C6.49987 12.8338 6.51714 12.8986 6.55006 12.9557C6.58298 13.0129 6.63038 13.0603 6.6875 13.0933L10.8125 15.4506C10.8691 15.4829 10.9333 15.4999 10.9985 15.4999C11.0637 15.4999 11.1279 15.4829 11.1845 15.4506L15.3095 13.0933C15.3666 13.0603 15.414 13.0129 15.4469 12.9557C15.4799 12.8986 15.4971 12.8338 15.497 12.7678V8.83931C15.4973 8.76876 15.4777 8.69956 15.4404 8.63966C15.4031 8.57976 15.3497 8.53159 15.2863 8.50069ZM11 7.29019L14.2528 8.83931L11 10.3884L7.74763 8.83931L11 7.29019ZM7.25 9.43331L10.625 11.0406V14.4789L7.25 12.5503V9.43331ZM11.375 14.4789V11.0406L14.75 9.43369V12.5503L11.375 14.4789Z"></path>
            <path d="M21.4984 11.0003C21.4969 10.5349 21.322 10.0868 21.0079 9.74347C20.6938 9.4001 20.263 9.18612 19.7996 9.14331C19.4385 7.43784 18.5902 5.87385 17.3575 4.64116C16.1248 3.40848 14.5608 2.56013 12.8554 2.19906C12.8117 1.73695 12.5973 1.30772 12.254 0.995312C11.9107 0.682899 11.4633 0.509766 10.9991 0.509766C10.5349 0.509766 10.0875 0.682899 9.74418 0.995312C9.40089 1.30772 9.18648 1.73695 9.14286 2.19906C7.43719 2.56004 5.87297 3.40834 4.64003 4.64102C3.4071 5.87368 2.55846 7.43772 2.19711 9.14331C1.735 9.18693 1.30577 9.40134 0.993359 9.74463C0.680946 10.0879 0.507812 10.5354 0.507812 10.9996C0.507812 11.4637 0.680946 11.9112 0.993359 12.2545C1.30577 12.5978 1.735 12.8122 2.19711 12.8558C2.55809 14.5615 3.40639 16.1257 4.63906 17.3586C5.87173 18.5916 7.43577 19.4402 9.14136 19.8016C9.18498 20.2637 9.39939 20.6929 9.74268 21.0053C10.086 21.3177 10.5334 21.4909 10.9976 21.4909C11.4618 21.4909 11.9092 21.3177 12.2525 21.0053C12.5958 20.6929 12.8102 20.2637 12.8539 19.8016C14.5595 19.4406 16.1237 18.5923 17.3567 17.3596C18.5896 16.1269 19.4383 14.5629 19.7996 12.8573C20.263 12.8145 20.6938 12.6005 21.0079 12.2572C21.322 11.9138 21.4969 11.4657 21.4984 11.0003ZM10.9984 1.25031C11.2209 1.25031 11.4384 1.31629 11.6234 1.43991C11.8084 1.56353 11.9526 1.73923 12.0377 1.94479C12.1229 2.15036 12.1452 2.37656 12.1017 2.59479C12.0583 2.81302 11.9512 3.01347 11.7939 3.17081C11.6365 3.32814 11.4361 3.43529 11.2178 3.4787C10.9996 3.5221 10.7734 3.49983 10.5678 3.41468C10.3623 3.32953 10.1866 3.18533 10.063 3.00033C9.93934 2.81532 9.87336 2.59782 9.87336 2.37531C9.87336 2.07694 9.99189 1.7908 10.2029 1.57982C10.4138 1.36884 10.7 1.25031 10.9984 1.25031ZM1.24836 11.0003C1.24836 10.7778 1.31434 10.5603 1.43796 10.3753C1.56157 10.1903 1.73727 10.0461 1.94284 9.96095C2.14841 9.8758 2.37461 9.85352 2.59284 9.89693C2.81106 9.94034 3.01152 10.0475 3.16885 10.2048C3.32619 10.3622 3.43333 10.5626 3.47674 10.7808C3.52015 10.9991 3.49787 11.2253 3.41272 11.4308C3.32758 11.6364 3.18338 11.8121 2.99838 11.9357C2.81337 12.0593 2.59586 12.1253 2.37336 12.1253C2.07499 12.1253 1.78884 12.0068 1.57786 11.7958C1.36689 11.5848 1.24836 11.2987 1.24836 11.0003ZM10.9984 20.7503C10.7759 20.7503 10.5583 20.6843 10.3733 20.5607C10.1883 20.4371 10.0441 20.2614 9.95899 20.0558C9.87385 19.8503 9.85157 19.6241 9.89498 19.4058C9.93838 19.1876 10.0455 18.9872 10.2029 18.8298C10.3602 18.6725 10.5607 18.5653 10.7789 18.5219C10.9971 18.4785 11.2233 18.5008 11.4289 18.5859C11.6344 18.6711 11.8101 18.8153 11.9338 19.0003C12.0574 19.1853 12.1234 19.4028 12.1234 19.6253C12.1234 19.9237 12.0048 20.2098 11.7939 20.4208C11.5829 20.6318 11.2967 20.7503 10.9984 20.7503ZM12.7744 19.0523C12.6552 18.6746 12.4188 18.3448 12.0994 18.1106C11.7801 17.8765 11.3944 17.7502 10.9984 17.7502C10.6023 17.7502 10.2166 17.8765 9.89727 18.1106C9.5779 18.3448 9.34148 18.6746 9.22236 19.0523C7.68712 18.7126 6.28085 17.9415 5.16901 16.8297C4.05718 15.7178 3.28605 14.3116 2.94636 12.7763C3.32403 12.6572 3.65389 12.4208 3.88804 12.1014C4.12219 11.782 4.24843 11.3963 4.24843 11.0003C4.24843 10.6043 4.12219 10.2186 3.88804 9.89923C3.65389 9.57985 3.32403 9.34344 2.94636 9.22431C3.28605 7.68907 4.05718 6.2828 5.16901 5.17097C6.28085 4.05913 7.68712 3.288 9.22236 2.94831C9.34148 3.32598 9.5779 3.65585 9.89727 3.88999C10.2166 4.12414 10.6023 4.25038 10.9984 4.25038C11.3944 4.25038 11.7801 4.12414 12.0994 3.88999C12.4188 3.65585 12.6552 3.32598 12.7744 2.94831C14.3096 3.28796 15.7159 4.05908 16.8278 5.17092C17.9396 6.28276 18.7107 7.68905 19.0504 9.22431C18.6727 9.34344 18.3428 9.57985 18.1087 9.89923C17.8745 10.2186 17.7483 10.6043 17.7483 11.0003C17.7483 11.3963 17.8745 11.782 18.1087 12.1014C18.3428 12.4208 18.6727 12.6572 19.0504 12.7763C18.7107 14.3116 17.9395 15.7178 16.8277 16.8297C15.7159 17.9415 14.3096 18.7126 12.7744 19.0523ZM19.6234 12.1253C19.4009 12.1253 19.1833 12.0593 18.9983 11.9357C18.8133 11.8121 18.6691 11.6364 18.584 11.4308C18.4988 11.2253 18.4766 10.9991 18.52 10.7808C18.5634 10.5626 18.6705 10.3622 18.8279 10.2048C18.9852 10.0475 19.1857 9.94034 19.4039 9.89693C19.6221 9.85352 19.8483 9.8758 20.0539 9.96095C20.2594 10.0461 20.4351 10.1903 20.5588 10.3753C20.6824 10.5603 20.7484 10.7778 20.7484 11.0003C20.7484 11.2987 20.6298 11.5848 20.4189 11.7958C20.2079 12.0068 19.9217 12.1253 19.6234 12.1253Z"></path>
        </symbol>
        <symbol  viewBox="0 0 16 12" id="icon-discord">
            <path d="M3.66828 9.09047C7.06944 10.4178 9.96383 10.6763 13.2438 8.61031C13.2197 8.64637 12.5709 9.60758 10.8648 10.1002C11.2252 10.5928 11.7178 11.1575 11.7178 11.1575C12.8112 11.1575 13.8806 10.8451 14.8057 10.2444C15.5267 9.76374 15.9352 8.93469 15.8511 8.06962C15.7069 6.59173 15.3584 5.1499 14.8178 3.76818C14.1329 1.9659 12.4868 0.716304 10.5764 0.536063C10.4082 0.524042 10.288 0.524042 10.216 0.524042L10.0237 0.716269C12.2225 1.34107 13.3159 2.3143 13.3399 2.35036C9.96362 0.644179 5.97458 0.620173 2.57424 2.27827C2.57424 2.27827 3.65562 1.20891 6.04663 0.644179L5.90246 0.5C5.65012 0.5 5.40981 0.524042 5.15752 0.560069C3.39127 0.860448 1.91342 2.07399 1.27659 3.7441C0.723884 5.18593 0.363436 6.69985 0.231278 8.2378C0.159188 9.05483 0.543678 9.85987 1.21653 10.3285C2.10564 10.9172 3.16298 11.2296 4.23234 11.2296C4.23234 11.2296 4.66488 10.6649 5.09745 10.1603C3.47538 9.67963 2.81455 8.71843 2.80253 8.68236L3.1078 8.83824C3.29029 8.93148 3.47738 9.01595 3.66828 9.09047ZM5.55403 8.04558C4.77303 8.02154 4.16025 7.36071 4.18429 6.56769C4.20833 5.82275 4.80909 5.22199 5.55403 5.19795C6.33503 5.22199 6.94781 5.88282 6.92377 6.67584C6.8877 7.42081 6.29897 8.02157 5.55403 8.04558ZM10.4562 8.04558C9.67523 8.02154 9.06245 7.36071 9.08649 6.56769C9.11053 5.82275 9.71129 5.22199 10.4562 5.19795C11.2372 5.22199 11.85 5.88282 11.826 6.67584C11.802 7.42081 11.2012 8.02157 10.4562 8.04558Z"></path>
        </symbol>
        <symbol viewBox="0 0 17 10" id="icon-medium">
            <path d="M9.1753 5.07805C9.1753 7.56321 7.18952 9.57782 4.74007 9.57782C2.29062 9.57782 0.304688 7.56321 0.304688 5.07805C0.304688 2.59289 2.29047 0.578125 4.74007 0.578125C7.18967 0.578125 9.1753 2.59289 9.1753 5.07805Z"></path>
            <path d="M14.0408 5.07617C14.0408 7.41542 13.048 9.31251 11.8232 9.31251C10.5984 9.31251 9.60547 7.41542 9.60547 5.07617C9.60547 2.73693 10.5982 0.839844 11.823 0.839844C13.0478 0.839844 14.0407 2.73632 14.0407 5.07617"></path>
            <path d="M16.0324 5.07633C16.0324 7.17172 15.6833 8.87142 15.2525 8.87142C14.8217 8.87142 14.4727 7.17218 14.4727 5.07633C14.4727 2.98049 14.8218 1.28125 15.2525 1.28125C15.6831 1.28125 16.0324 2.98034 16.0324 5.07633Z"></path>
        </symbol>
        <symbol viewBox="0 0 12 11" id="icon-telegram">
            <path d="M0.778217 4.72355L10.7643 0.886802C11.2278 0.719949 11.6326 0.99947 11.4824 1.69784L11.4832 1.69698L9.78294 9.67924C9.65693 10.2452 9.31945 10.3828 8.84734 10.1162L6.25804 8.21455L5.00913 9.41348C4.87104 9.55109 4.75452 9.6672 4.48696 9.6672L4.6708 7.04142L9.46963 2.72132C9.6785 2.53813 9.42303 2.43492 9.1477 2.61725L3.21734 6.33789L0.660835 5.54319C0.105862 5.36774 0.0937783 4.99017 0.778217 4.72355Z"></path>
        </symbol>
         <symbol viewBox="0 0 12 10" id="icon-twitter">
            <path d="M4.03085 0.472656H0.738281L4.62392 5.65352L0.949923 9.87996H2.19641L5.20127 6.42328L7.79379 9.88001H11.0864L7.0373 4.48127L10.522 0.472656H9.2755L6.45997 3.7115L4.03085 0.472656ZM8.26416 8.93927L2.61975 1.41339H3.56049L9.2049 8.93927H8.26416Z"></path>
        </symbol>
        <symbol viewBox="0 0 22 23" id="icon-fuel">
            <g clip-path="url(#clip0_2808_2029)">
                <mask id="mask0_2808_2029" maskUnits="userSpaceOnUse" x="0" y="0" width="22" height="23">
                    <path d="M22 0.499023H0V22.499H22V0.499023Z" fill="white"></path>
                </mask>
                <g mask="url(#mask0_2808_2029)">
                    <path fill-rule="evenodd" clip-rule="evenodd" d="M8.08221 8.35133C7.80154 8.64625 7.69931 8.91249 7.69931 9.14242C7.69931 9.37235 7.80154 9.63859 8.08221 9.93352C8.36596 10.2317 8.80618 10.5287 9.39813 10.7918C10.5804 11.3173 12.2577 11.6583 14.1437 11.6583C16.0298 11.6583 17.707 11.3173 18.8893 10.7918C19.4813 10.5287 19.9216 10.2317 20.2052 9.93352C20.486 9.63859 20.5882 9.37235 20.5882 9.14242C20.5882 8.91249 20.486 8.64625 20.2052 8.35133C19.9216 8.05316 19.4813 7.75613 18.8893 7.49304C17.707 6.96757 16.0298 6.62656 14.1437 6.62656C12.2577 6.62656 10.5804 6.96757 9.39813 7.49304C8.80618 7.75613 8.36596 8.05316 8.08221 8.35133ZM8.88883 6.34713C10.2659 5.73511 12.1243 5.37256 14.1437 5.37256C16.1632 5.37256 18.0216 5.73511 19.3986 6.34713C20.0863 6.65278 20.6818 7.03298 21.1136 7.48684C21.5487 7.94392 21.8422 8.50447 21.8422 9.14242C21.8422 9.78037 21.5487 10.3409 21.1136 10.798C20.6818 11.2519 20.0863 11.632 19.3986 11.9377C18.0216 12.5497 16.1632 12.9123 14.1437 12.9123C12.1243 12.9123 10.2659 12.5497 8.88883 11.9377C8.20111 11.632 7.60574 11.2519 7.17382 10.798C6.73883 10.3409 6.44531 9.78037 6.44531 9.14242C6.44531 8.50447 6.73883 7.94392 7.17382 7.48684C7.60574 7.03298 8.20111 6.65278 8.88883 6.34713Z"></path>
                    <path fill-rule="evenodd" clip-rule="evenodd" d="M7.07231 8.51514C7.41859 8.51514 7.69931 8.79586 7.69931 9.14214V18.5707C7.69931 18.7997 7.80081 19.0653 8.07986 19.3598C8.36194 19.6573 8.80001 19.9544 9.39028 20.2178C10.5693 20.7438 12.2462 21.0866 14.1437 21.0866C16.0413 21.0866 17.7183 20.7438 18.8972 20.2178C19.4875 19.9544 19.9255 19.6573 20.2077 19.3598C20.4866 19.0653 20.5882 18.7997 20.5882 18.5707V9.14214C20.5882 8.79586 20.8689 8.51514 21.2152 8.51514C21.5614 8.51514 21.8422 8.79586 21.8422 9.14214V18.5707C21.8422 19.2061 21.5508 19.7655 21.1178 20.2223C20.6878 20.676 20.0947 21.0566 19.4082 21.363C18.0335 21.9762 16.1747 22.3406 14.1437 22.3406C12.1128 22.3406 10.2539 21.9762 8.87934 21.363C8.19282 21.0566 7.59964 20.676 7.16967 20.2223C6.73666 19.7655 6.44531 19.2061 6.44531 18.5707V9.14214C6.44531 8.79586 6.72602 8.51514 7.07231 8.51514Z"></path>
                    <path fill-rule="evenodd" clip-rule="evenodd" d="M7.07231 13.2295C7.41859 13.2295 7.69931 13.5102 7.69931 13.8565C7.69931 14.0855 7.80081 14.3512 8.07986 14.6455C8.36194 14.9432 8.80001 15.2403 9.39028 15.5036C10.5693 16.0297 12.2462 16.3724 14.1437 16.3724C16.0413 16.3724 17.7183 16.0297 18.8972 15.5036C19.4875 15.2403 19.9255 14.9432 20.2077 14.6455C20.4866 14.3512 20.5882 14.0855 20.5882 13.8565C20.5882 13.5102 20.8689 13.2295 21.2152 13.2295C21.5614 13.2295 21.8422 13.5102 21.8422 13.8565C21.8422 14.4919 21.5508 15.0512 21.1178 15.5081C20.6878 15.9619 20.0947 16.3425 19.4082 16.6487C18.0335 17.2621 16.1747 17.6264 14.1437 17.6264C12.1128 17.6264 10.2539 17.2621 8.87934 16.6487C8.19282 16.3425 7.59964 15.9619 7.16967 15.5081C6.73666 15.0512 6.44531 14.4919 6.44531 13.8565C6.44531 13.5102 6.72602 13.2295 7.07231 13.2295Z" ></path>
                    <path fill-rule="evenodd" clip-rule="evenodd" d="M7.83879 0.65833C10.1153 0.545566 12.3726 1.12601 14.3125 2.32318C14.6072 2.50503 14.6987 2.89135 14.5169 3.18603C14.3349 3.48072 13.9486 3.57219 13.6539 3.39032C11.9259 2.32392 9.91453 1.80816 7.88659 1.91151C7.87597 1.91206 7.86532 1.91232 7.85468 1.91232C5.96529 1.91232 4.28814 2.25503 3.10678 2.78128C2.5153 3.04476 2.0756 3.342 1.79227 3.63995C1.51186 3.93481 1.41025 4.20023 1.41025 4.42817C1.41025 4.67097 1.52697 4.95909 1.85761 5.28179C2.1902 5.60637 2.70198 5.92586 3.37976 6.20581C3.69982 6.33801 3.8521 6.70464 3.7199 7.02469C3.5877 7.34475 3.22108 7.49703 2.90103 7.36483C2.13309 7.04764 1.46631 6.65212 0.981748 6.17922C0.495245 5.70441 0.15625 5.11253 0.15625 4.42817C0.15625 3.79185 0.449463 3.23227 0.883563 2.77579C1.31474 2.32239 1.90924 1.94195 2.5965 1.63579C3.96905 1.02437 5.82148 0.660233 7.83879 0.65833Z" ></path>
                    <path fill-rule="evenodd" clip-rule="evenodd" d="M0.78325 3.80127C1.12953 3.80127 1.41025 4.08199 1.41025 4.42827V13.8568C1.41025 14.0997 1.52697 14.3878 1.85761 14.7105C2.1902 15.035 2.70198 15.3545 3.37976 15.6345C3.69982 15.7667 3.8521 16.1332 3.7199 16.4533C3.5877 16.7734 3.22108 16.9257 2.90103 16.7935C2.13309 16.4763 1.46631 16.0808 0.981748 15.6079C0.495245 15.1331 0.15625 14.5412 0.15625 13.8568V4.42827C0.15625 4.08199 0.436968 3.80127 0.78325 3.80127Z" ></path>
                    <path fill-rule="evenodd" clip-rule="evenodd" d="M0.78325 8.51514C1.12953 8.51514 1.41025 8.79586 1.41025 9.14214C1.41025 9.38493 1.52697 9.67305 1.85761 9.99574C2.1902 10.3203 2.70198 10.6398 3.37976 10.9198C3.69982 11.052 3.8521 11.4186 3.7199 11.7386C3.5877 12.0587 3.22108 12.211 2.90103 12.0788C2.13309 11.7616 1.46631 11.3661 0.981748 10.8932C0.495245 10.4184 0.15625 9.82649 0.15625 9.14214C0.15625 8.79586 0.436968 8.51514 0.78325 8.51514Z"></path>
                </g>
            </g>
            <defs>
                <clipPath id="clip0_2808_2029">
                    <rect width="22" height="22" transform="translate(0 0.5)"></rect>
                </clipPath>
            </defs>
        </symbol>
        <symbol  viewBox="0 0 20 21" id="icon-docs">
            <g clip-path="url(#clip0_4772_3111)">
                <path d="M3.63717 19.6928L0.808594 16.8642L3.63717 14.0356"  stroke-width="1.5" stroke-linecap="round" stroke-linejoin="round"></path>
                <path d="M7.88281 19.6928L10.7114 16.8642L7.88281 14.0356"  stroke-width="1.5" stroke-linecap="round" stroke-linejoin="round"></path>
                <path d="M3.63672 11.9995V2.72141C3.63672 2.34632 3.78572 1.98659 4.05095 1.72136C4.31618 1.45613 4.67591 1.30713 5.051 1.30713H12.1224L19.1939 8.37856V18.2786C19.1939 18.6537 19.0449 19.0134 18.7796 19.2786C18.5144 19.5438 18.1547 19.6928 17.7796 19.6928H12.002" stroke-width="1.5" stroke-linecap="round" stroke-linejoin="round"></path>
                <path d="M12.125 1.30713V8.37856H19.1964" stroke-width="1.5" stroke-linecap="round" stroke-linejoin="round"></path>
            </g>
            <defs>
                <clipPath id="clip0_4772_3111">
                    <rect width="19.8" height="19.8" fill="white" transform="translate(0.101562 0.600098)"></rect>
                </clipPath>
            </defs>
        </symbol>
        <symbol viewBox="0 0 24 25" id="icon-values">
            <g clip-path="url(#clip0_4772_2087)">
                <path d="M4.74918 12.1186C3.21384 12.1186 1.96484 10.881 1.96484 9.36019C1.96484 7.83921 3.21384 6.60156 4.74918 6.60156C6.28434 6.60156 7.53314 7.83902 7.53314 9.36019C7.53314 10.8812 6.28434 12.1186 4.74918 12.1186ZM4.74918 7.37576C3.64063 7.37576 2.73904 8.266 2.73904 9.36019C2.73904 10.4542 3.64063 11.3444 4.74918 11.3444C5.85736 11.3444 6.75895 10.4542 6.75895 9.36019C6.75895 8.266 5.85736 7.37576 4.74918 7.37576Z" ></path>
                <path d="M5.8675 19.7568H1.01178C0.453818 19.7568 0 19.3059 0 18.7515V17.4853C0 14.8932 2.1296 12.7842 4.74742 12.7842C5.77697 12.7842 6.75699 13.1055 7.58071 13.7132C7.75271 13.8402 7.78938 14.0825 7.66236 14.2547C7.53535 14.4265 7.29322 14.4632 7.12103 14.3363C6.43133 13.8275 5.61064 13.5584 4.74742 13.5584C2.55658 13.5584 0.774194 15.3202 0.774194 17.4853V18.7515C0.774194 18.8789 0.880796 18.9826 1.01178 18.9826H5.86769C6.08128 18.9826 6.25479 19.156 6.25479 19.3697C6.25479 19.5833 6.08128 19.7568 5.8675 19.7568Z" ></path>
                <path d="M22.9908 19.4637H18.1351C17.9215 19.4637 17.748 19.2904 17.748 19.0766C17.748 18.863 17.9215 18.6895 18.1351 18.6895H22.991C23.122 18.6895 23.2286 18.5859 23.2286 18.4585V17.1923C23.2286 15.0268 21.4462 13.2654 19.2553 13.2654C18.3403 13.2654 17.4471 13.5805 16.74 14.1528C16.574 14.2872 16.3304 14.2617 16.1956 14.0955C16.0612 13.9294 16.0866 13.6856 16.2531 13.551C17.0974 12.8677 18.1636 12.4912 19.2553 12.4912C21.873 12.4912 24.0026 14.6 24.0026 17.1923V18.4585C24.0026 19.0127 23.5488 19.4637 22.9908 19.4637Z" ></path>
                <path d="M19.2527 11.9272C17.7176 11.9272 16.4688 10.6898 16.4688 9.16879C16.4688 7.64781 17.7176 6.41016 19.2527 6.41016C20.7881 6.41016 22.037 7.64762 22.037 9.16879C22.037 10.69 20.7879 11.9272 19.2527 11.9272ZM19.2527 7.18435C18.1445 7.18435 17.2429 8.0746 17.2429 9.16879C17.2429 10.263 18.1445 11.153 19.2527 11.153C20.3613 11.153 21.2629 10.263 21.2629 9.16879C21.2629 8.0746 20.3611 7.18435 19.2527 7.18435Z" ></path>
                <path d="M17.2538 21.0164H6.74628C6.04826 21.0164 5.48047 20.4528 5.48047 19.7599V17.979C5.48047 14.4199 8.40486 11.5244 12.0001 11.5244C15.5953 11.5244 18.5197 14.4199 18.5197 17.979V19.7599C18.5197 20.4528 17.9519 21.0164 17.2538 21.0164ZM12.0001 12.2988C8.83203 12.2988 6.25466 14.8471 6.25466 17.9792V19.76C6.25466 20.026 6.47524 20.2424 6.74628 20.2424H17.2537C17.5247 20.2424 17.7453 20.026 17.7453 19.76V17.9792C17.7455 14.8471 15.1681 12.2988 12.0001 12.2988Z" ></path>
                <path d="M11.8667 11.0723C9.89415 11.0723 8.28906 9.48255 8.28906 7.52816C8.28906 5.57397 9.89396 3.98438 11.8667 3.98438C13.8396 3.98438 15.4445 5.57416 15.4445 7.52835C15.4445 9.48274 13.8394 11.0723 11.8667 11.0723ZM11.8667 4.75857C10.3209 4.75857 9.06326 6.00113 9.06326 7.52835C9.06326 9.05576 10.3209 10.2983 11.8667 10.2983C13.4126 10.2983 14.6703 9.05576 14.6703 7.52835C14.6703 6.00113 13.4126 4.75857 11.8667 4.75857Z" ></path>
            </g>
            <defs>
                <clipPath id="clip0_4772_2087">
                    <rect width="24" height="24" fill="white" transform="translate(0 0.5)"></rect>
                </clipPath>
            </defs>
        </symbol>
        <symbol viewBox="0 0 20 21" id="icon-doc1">
            <g clip-path="url(#clip0_2808_2045)">
                <path d="M3.63717 19.6923L0.808594 16.8637L3.63717 14.0352"  stroke-linecap="round" stroke-linejoin="round"></path>
                <path d="M7.88281 19.6923L10.7114 16.8637L7.88281 14.0352"  stroke-linecap="round" stroke-linejoin="round"></path>
                <path d="M3.63672 11.999V2.72093C3.63672 2.34583 3.78572 1.98611 4.05095 1.72088C4.31618 1.45565 4.67591 1.30664 5.051 1.30664H12.1224L19.1939 8.37807V18.2781C19.1939 18.6532 19.0449 19.0129 18.7796 19.2781C18.5144 19.5434 18.1547 19.6924 17.7796 19.6924H12.002" stroke-linecap="round" stroke-linejoin="round"></path>
                <path d="M12.125 1.30664V8.37807H19.1964" stroke-linecap="round" stroke-linejoin="round"></path>
            </g>
            <defs>
                <clipPath id="clip0_2808_2045">
                    <rect width="19.8" height="19.8" transform="translate(0.101562 0.599609)"></rect>
                </clipPath>
            </defs>
        </symbol>
        <symbol  viewBox="0 0 20 20" id="icon-stats1">
            <path d="M2.5346 18.8213L17.4632 18.8213C18.2127 18.8213 18.8203 18.2137 18.8203 17.4641L18.8203 2.53558C18.8203 1.78605 18.2127 1.17843 17.4632 1.17843L2.5346 1.17843C1.78507 1.17843 1.17746 1.78605 1.17746 2.53558L1.17746 17.4641C1.17746 18.2137 1.78507 18.8213 2.5346 18.8213Z" stroke-linecap="round" stroke-linejoin="round"></path>
            <path d="M4.57031 4.57129H7.2846" stroke-linecap="round" stroke-linejoin="round"></path>
            <path d="M4.57031 7.96387H10.6775"  stroke-linecap="round" stroke-linejoin="round"></path>
            <path d="M16.106 7.96387L12.0346 14.7496L7.2846 12.0353L4.57031 16.1067"  stroke-linecap="round" stroke-linejoin="round"></path>
        </symbol>
        <symbol viewBox="0 0 22 22" id="icon-secure">
            <path d="M11.5652 21.1037C11.2011 21.2442 10.7978 21.2442 10.4337 21.1037C7.59053 19.9889 5.14922 18.0432 3.42812 15.5204C1.70702 12.9977 0.785998 10.0148 0.785156 6.96087V2.35658C0.785156 1.93982 0.950717 1.54012 1.24542 1.24542C1.54012 0.950717 1.93982 0.785156 2.35658 0.785156H19.6423C20.0591 0.785156 20.4588 0.950717 20.7535 1.24542C21.0482 1.54012 21.2137 1.93982 21.2137 2.35658V6.94516C21.216 10.0018 20.2965 12.9881 18.5752 15.514C16.8539 18.0398 14.4108 19.9879 11.5652 21.1037Z" stroke-linecap="round" stroke-linejoin="round"></path>
            <path d="M13.356 8.64258H8.64174C7.77386 8.64258 7.07031 9.34613 7.07031 10.214V13.3569C7.07031 14.2247 7.77386 14.9283 8.64174 14.9283H13.356C14.2239 14.9283 14.9275 14.2247 14.9275 13.3569V10.214C14.9275 9.34613 14.2239 8.64258 13.356 8.64258Z"  stroke-linecap="round" stroke-linejoin="round"></path>
            <path d="M13.3549 8.64244V7.07101C13.3549 6.76147 13.2939 6.45495 13.1755 6.16897C13.057 5.88299 12.8834 5.62314 12.6645 5.40426C12.4456 5.18538 12.1858 5.01175 11.8998 4.89329C11.6138 4.77484 11.3073 4.71387 10.9978 4.71387C10.6882 4.71387 10.3817 4.77484 10.0957 4.89329C9.80975 5.01175 9.5499 5.18538 9.33102 5.40426C9.11213 5.62314 8.93851 5.88299 8.82005 6.16897C8.70159 6.45495 8.64062 6.76147 8.64062 7.07101V8.64244" stroke-linecap="round" stroke-linejoin="round"></path>
        </symbol>
        <symbol fill="none" xmlns="http://www.w3.org/2000/svg" viewBox="0 0 11 9" id="icon-telegram">
            <path d="M0.965627 3.71554L9.834 0.0449245C10.2456 -0.114703 10.6051 0.152714 10.4717 0.820846L10.4725 0.820023L8.96249 8.45664C8.85058 8.99806 8.55089 9.12971 8.13161 8.87463L5.83212 7.05537L4.723 8.20239C4.60036 8.33404 4.49688 8.44512 4.25927 8.44512L4.42253 5.93304L8.68425 1.8C8.86975 1.62474 8.64286 1.52601 8.39835 1.70044L3.13175 5.25997L0.861383 4.49969C0.368525 4.33183 0.357794 3.97061 0.965627 3.71554Z" fill="white"></path>
        </symbol>
        <symbol fill="none" xmlns="http://www.w3.org/2000/svg" viewBox="0 0 11 11" id="icon-linkedin">
            <path d="M2.38185 10.5H0V3.34091H2.38185V10.5ZM1.1914 2.38636C0.532582 2.38636 0 1.85134 0 1.1927C0 0.534068 0.533535 0 1.1914 0C1.84784 0 2.38185 0.535023 2.38185 1.1927C2.38185 1.85134 1.84784 2.38636 1.1914 2.38636ZM10.9565 10.5H8.66661V7.01591C8.66661 6.18498 8.65089 5.11636 7.47616 5.11636C6.2838 5.11636 6.1004 6.02127 6.1004 6.95577V10.5H3.81096V3.33566H6.00894V4.31455H6.0399C6.34573 3.75136 7.09316 3.15764 8.20786 3.15764C10.5278 3.15764 10.9565 4.64148 10.9565 6.57061V10.5Z" fill="white"></path>
        </symbol>
        <symbol fill="none" xmlns="http://www.w3.org/2000/svg" viewBox="0 0 10 10" id="icon-x">
            <g clip-path="url(#clip0_2763_29137)">
                <path d="M3.40156 0.999023H0.601562L3.90591 5.40482L0.781542 8.99898H1.84155L4.39688 6.05942L6.60156 8.99902H9.40156L5.95824 4.40794L8.9216 0.999023H7.8616L5.46728 3.75334L3.40156 0.999023ZM7.00156 8.19902L2.20156 1.79902H3.00156L7.80156 8.19902H7.00156Z" fill="white"></path>
            </g>
            <defs>
                <clipPath id="clip0_2763_29137">
                    <rect width="9.6" height="9.6" fill="white" transform="translate(0.201172 0.199219)"></rect>
                </clipPath>
            </defs>
        </symbol>
        <symbol viewBox="0 0 24 24" id="icon-mintscan">
            <path d="M8.66928 17.7486L4.77027 10.995C4.57267 10.6527 4.57267 10.2293 4.77027 9.88703L8.66928 3.13698C8.86687 2.79472 9.23384 2.58301 9.62903 2.58301H17.427C17.8222 2.58301 18.1892 2.79472 18.3868 3.13698L22.2858 9.89056L20.3698 10.9985L16.7849 4.79891H10.2642L7.00382 10.4445L10.5817 16.6441L8.66575 17.7521L8.66928 17.7486Z" ></path>
            <path d="M14.3676 21.4171H6.57312C6.17793 21.4171 5.81096 21.2054 5.61336 20.8631L1.71436 14.1096L3.63034 13.0016L7.20825 19.2012H13.7254L16.9858 13.5556L13.4078 7.356L15.3238 6.24805L19.2228 13.0016C19.4204 13.3439 19.4204 13.7673 19.2228 14.1096L15.3238 20.8631C15.1262 21.2054 14.7593 21.4171 14.3641 21.4171H14.3676Z"></path>
        </symbol>
        <symbol viewBox="0 0 24 25" id="icon-github">
            <g clip-path="url(#clip0_4763_321)">
                <path d="M12 0.0842285C18.63 0.0842285 24 5.59006 24 12.3878C23.9994 14.9657 23.2103 17.4784 21.7438 19.5724C20.2773 21.6664 18.2072 23.2362 15.825 24.0607C15.225 24.1838 15 23.7993 15 23.4763C15 23.0611 15.015 21.7384 15.015 20.0928C15.015 18.9394 14.64 18.2012 14.205 17.8167C16.875 17.5091 19.68 16.4633 19.68 11.7418C19.68 10.3884 19.215 9.29649 18.45 8.43525C18.57 8.12766 18.99 6.86655 18.33 5.17481C18.33 5.17481 17.325 4.83647 15.03 6.43592C14.07 6.15909 13.05 6.02068 12.03 6.02068C11.01 6.02068 9.99 6.15909 9.03 6.43592C6.735 4.85185 5.73 5.17481 5.73 5.17481C5.07 6.86655 5.49 8.12766 5.61 8.43525C4.845 9.29649 4.38 10.4038 4.38 11.7418C4.38 16.4479 7.17 17.5091 9.84 17.8167C9.495 18.1243 9.18 18.6626 9.075 19.4623C8.385 19.7852 6.66 20.3081 5.58 18.4472C5.355 18.0781 4.68 17.1707 3.735 17.1861C2.73 17.2015 3.33 17.7705 3.75 18.0012C4.26 18.2934 4.845 19.3854 4.98 19.7391C5.22 20.4312 6 21.7538 9.015 21.1848C9.015 22.2152 9.03 23.1841 9.03 23.4763C9.03 23.7993 8.805 24.1684 8.205 24.0607C5.81496 23.2451 3.7361 21.6785 2.26334 19.5832C0.79057 17.488 -0.00132072 14.9704 1.65347e-06 12.3878C1.65347e-06 5.59006 5.37 0.0842285 12 0.0842285Z"></path>
            </g>
            <defs>
                <clipPath id="clip0_4763_321">
                    <rect width="24" height="24" fill="white" transform="translate(0 0.0842285)"></rect>
                </clipPath>
            </defs>
        </symbol>
        <symbol viewBox="0 0 22 22" id="icon-about">
            <g clip-path="url(#clip0_5007_1999)">
                <mask id="mask0_5007_1999" maskUnits="userSpaceOnUse" x="0" y="-1" width="22" height="23">
                    <path d="M22 -0.000976562H0V21.999H22V-0.000976562Z" fill="white"></path>
                </mask>
                <g mask="url(#mask0_5007_1999)">
                    <path fill-rule="evenodd" clip-rule="evenodd" d="M8.08221 7.85181C7.80154 8.14674 7.69931 8.41298 7.69931 8.64291C7.69931 8.87283 7.80154 9.13908 8.08221 9.43401C8.36596 9.73216 8.80618 10.0292 9.39813 10.2923C10.5804 10.8178 12.2577 11.1588 14.1437 11.1588C16.0298 11.1588 17.707 10.8178 18.8893 10.2923C19.4813 10.0292 19.9216 9.73216 20.2052 9.43401C20.486 9.13908 20.5882 8.87283 20.5882 8.64291C20.5882 8.41298 20.486 8.14674 20.2052 7.85181C19.9216 7.55365 19.4813 7.25661 18.8893 6.99353C17.707 6.46806 16.0298 6.12705 14.1437 6.12705C12.2577 6.12705 10.5804 6.46806 9.39813 6.99353C8.80618 7.25661 8.36596 7.55365 8.08221 7.85181ZM8.88883 5.84761C10.2659 5.2356 12.1243 4.87305 14.1437 4.87305C16.1632 4.87305 18.0216 5.2356 19.3986 5.84761C20.0863 6.15327 20.6818 6.53346 21.1136 6.98732C21.5487 7.44441 21.8422 8.00496 21.8422 8.64291C21.8422 9.28086 21.5487 9.84141 21.1136 10.2985C20.6818 10.7523 20.0863 11.1325 19.3986 11.4382C18.0216 12.0502 16.1632 12.4128 14.1437 12.4128C12.1243 12.4128 10.2659 12.0502 8.88883 11.4382C8.20111 11.1325 7.60574 10.7523 7.17382 10.2985C6.73883 9.84141 6.44531 9.28086 6.44531 8.64291C6.44531 8.00496 6.73883 7.44441 7.17382 6.98732C7.60574 6.53346 8.20111 6.15327 8.88883 5.84761Z" ></path>
                    <path fill-rule="evenodd" clip-rule="evenodd" d="M7.07231 8.01562C7.41859 8.01562 7.69931 8.29635 7.69931 8.64263V18.0712C7.69931 18.3001 7.80081 18.5658 8.07986 18.8603C8.36194 19.1578 8.80001 19.4549 9.39028 19.7183C10.5693 20.2443 12.2462 20.587 14.1437 20.587C16.0413 20.587 17.7183 20.2443 18.8972 19.7183C19.4875 19.4549 19.9255 19.1578 20.2077 18.8603C20.4866 18.5658 20.5882 18.3001 20.5882 18.0712V8.64263C20.5882 8.29635 20.8689 8.01562 21.2152 8.01562C21.5614 8.01562 21.8422 8.29635 21.8422 8.64263V18.0712C21.8422 18.7066 21.5508 19.2659 21.1178 19.7228C20.6878 20.1765 20.0947 20.5571 19.4082 20.8635C18.0335 21.4767 16.1747 21.841 14.1437 21.841C12.1128 21.841 10.2539 21.4767 8.87934 20.8635C8.19282 20.5571 7.59964 20.1765 7.16967 19.7228C6.73666 19.2659 6.44531 18.7066 6.44531 18.0712V8.64263C6.44531 8.29635 6.72602 8.01562 7.07231 8.01562Z" ></path>
                    <path fill-rule="evenodd" clip-rule="evenodd" d="M7.07231 12.7295C7.41859 12.7295 7.69931 13.0102 7.69931 13.3565C7.69931 13.5855 7.80081 13.8512 8.07986 14.1455C8.36194 14.4432 8.80001 14.7403 9.39028 15.0036C10.5693 15.5297 12.2462 15.8724 14.1437 15.8724C16.0413 15.8724 17.7183 15.5297 18.8972 15.0036C19.4875 14.7403 19.9255 14.4432 20.2077 14.1455C20.4866 13.8512 20.5882 13.5855 20.5882 13.3565C20.5882 13.0102 20.8689 12.7295 21.2152 12.7295C21.5614 12.7295 21.8422 13.0102 21.8422 13.3565C21.8422 13.9919 21.5508 14.5512 21.1178 15.0081C20.6878 15.4619 20.0947 15.8425 19.4082 16.1487C18.0335 16.7621 16.1747 17.1264 14.1437 17.1264C12.1128 17.1264 10.2539 16.7621 8.87934 16.1487C8.19282 15.8425 7.59964 15.4619 7.16967 15.0081C6.73666 14.5512 6.44531 13.9919 6.44531 13.3565C6.44531 13.0102 6.72602 12.7295 7.07231 12.7295Z" ></path>
                    <path fill-rule="evenodd" clip-rule="evenodd" d="M7.83879 0.15833C10.1153 0.0455656 12.3726 0.626005 14.3125 1.82318C14.6072 2.00503 14.6987 2.39135 14.5169 2.68603C14.3349 2.98072 13.9486 3.07219 13.6539 2.89032C11.9259 1.82392 9.91453 1.30816 7.88659 1.41151C7.87597 1.41206 7.86532 1.41232 7.85468 1.41232C5.96529 1.41232 4.28814 1.75503 3.10678 2.28128C2.5153 2.54476 2.0756 2.842 1.79227 3.13995C1.51186 3.43481 1.41025 3.70023 1.41025 3.92817C1.41025 4.17097 1.52697 4.45909 1.85761 4.78179C2.1902 5.10637 2.70198 5.42586 3.37976 5.70581C3.69982 5.83801 3.8521 6.20464 3.7199 6.52469C3.5877 6.84475 3.22108 6.99703 2.90103 6.86483C2.13309 6.54764 1.46631 6.15212 0.981748 5.67922C0.495245 5.20441 0.15625 4.61253 0.15625 3.92817C0.15625 3.29185 0.449463 2.73227 0.883563 2.27579C1.31474 1.82239 1.90924 1.44195 2.5965 1.13579C3.96905 0.524371 5.82148 0.160233 7.83879 0.15833Z" ></path>
                    <path fill-rule="evenodd" clip-rule="evenodd" d="M0.78325 3.30078C1.12953 3.30078 1.41025 3.5815 1.41025 3.92778V13.3563C1.41025 13.5992 1.52697 13.8873 1.85761 14.21C2.1902 14.5345 2.70198 14.8541 3.37976 15.134C3.69982 15.2662 3.8521 15.6327 3.7199 15.9528C3.5877 16.2729 3.22108 16.4252 2.90103 16.293C2.13309 15.9758 1.46631 15.5803 0.981748 15.1074C0.495245 14.6326 0.15625 14.0407 0.15625 13.3563V3.92778C0.15625 3.5815 0.436968 3.30078 0.78325 3.30078Z"></path>
                    <path fill-rule="evenodd" clip-rule="evenodd" d="M0.78325 8.01562C1.12953 8.01562 1.41025 8.29635 1.41025 8.64263C1.41025 8.88542 1.52697 9.17354 1.85761 9.49622C2.1902 9.82082 2.70198 10.1403 3.37976 10.4203C3.69982 10.5525 3.8521 10.9191 3.7199 11.2391C3.5877 11.5592 3.22108 11.7115 2.90103 11.5793C2.13309 11.2621 1.46631 10.8666 0.981748 10.3937C0.495245 9.91886 0.15625 9.32698 0.15625 8.64263C0.15625 8.29635 0.436968 8.01562 0.78325 8.01562Z"></path>
                </g>
            </g>
        </symbol>
        <symbol id="icon-header-telegram" viewBox="0 0 32 32">
            <path d="M27.919 6.162l-4.225 19.925c-0.319 1.406-1.15 1.756-2.331 1.094l-6.438-4.744-3.106 2.988c-0.344 0.344-0.631 0.631-1.294 0.631l0.463-6.556 11.931-10.781c0.519-0.463-0.113-0.719-0.806-0.256l-14.75 9.287-6.35-1.988c-1.381-0.431-1.406-1.381 0.288-2.044l24.837-9.569c1.15-0.431 2.156 0.256 1.781 2.013z"></path>
        </symbol>
        <symbol  viewBox="0 0 27 19" id="icon-header-discord">
            <path d="M6.68946 14.6083C12.3484 16.8168 17.1641 17.2469 22.6214 13.8094C22.5814 13.8694 21.5019 15.4687 18.6631 16.2883C19.2628 17.108 20.0825 18.0475 20.0825 18.0475C21.9017 18.0475 23.681 17.5278 25.2202 16.5282C26.4197 15.7285 27.0994 14.3492 26.9595 12.9098C26.7196 10.4509 26.1398 8.05193 25.2402 5.75298C24.1007 2.75431 21.362 0.6752 18.1834 0.37531C17.9035 0.355309 17.7036 0.355309 17.5836 0.355309L17.2638 0.675141C20.9222 1.7147 22.7414 3.33398 22.7814 3.39398C17.1638 0.555196 10.5267 0.515254 4.86917 3.27403C4.86917 3.27403 6.66839 1.49481 10.6466 0.555196L10.4067 0.315308C9.98689 0.315308 9.58706 0.355309 9.16728 0.415251C6.22856 0.915029 3.76967 2.93414 2.71011 5.71292C1.7905 8.11187 1.19078 10.6308 0.970887 13.1897C0.850943 14.549 1.49067 15.8885 2.61017 16.6682C4.0895 17.6477 5.84872 18.1675 7.62795 18.1675C7.62795 18.1675 8.34761 17.2279 9.06734 16.3883C6.3685 15.5886 5.269 13.9893 5.249 13.9293L5.75691 14.1887C6.06054 14.3438 6.37183 14.4844 6.68946 14.6083ZM9.82701 12.8698C8.52756 12.8298 7.508 11.7303 7.548 10.4109C7.58801 9.17143 8.58756 8.17187 9.82701 8.13187C11.1265 8.17187 12.146 9.27137 12.106 10.5908C12.046 11.8303 11.0665 12.8299 9.82701 12.8698ZM17.9834 12.8698C16.684 12.8298 15.6644 11.7303 15.7044 10.4109C15.7444 9.17143 16.744 8.17187 17.9834 8.13187C19.2828 8.17187 20.3024 9.27137 20.2624 10.5908C20.2225 11.8303 19.2228 12.8299 17.9834 12.8698Z"></path>
        </symbol>
        <symbol viewBox="0 0 15 14" id="icon-header-twitter">
            <path d="M5.14583 1.16675H1.0625L5.88134 7.59187L1.32497 12.8334H2.87082L6.59734 8.5465L9.8125 12.8334H13.8958L8.87432 6.13809L13.1959 1.16675H11.6501L8.15834 5.18345L5.14583 1.16675ZM10.3958 11.6667L3.39583 2.33341H4.5625L11.5625 11.6667H10.3958Z"></path>
        </symbol>
        <symbol viewBox="0 0 22 22" id="icon-explorer">
            <path d="M2.78493 20.7043L19.2064 20.7043C20.0308 20.7043 20.6992 20.036 20.6992 19.2115L20.6992 2.79006C20.6992 1.96558 20.0308 1.2972 19.2064 1.2972L2.78493 1.2972C1.96045 1.2972 1.29208 1.96558 1.29208 2.79006L1.29208 19.2115C1.29208 20.036 1.96045 20.7043 2.78493 20.7043Z" stroke-width="1.5" stroke-linecap="round" stroke-linejoin="round"></path>
            <path d="M5.02344 5.02954H8.00915"  stroke-width="1.5" stroke-linecap="round" stroke-linejoin="round"></path>
            <path d="M5.02344 8.76099H11.7413" stroke-width="1.5" stroke-linecap="round" stroke-linejoin="round"></path>
            <path d="M17.7127 8.76099L13.2342 16.2253L8.00915 13.2396L5.02344 17.7181" stroke-width="1.5" stroke-linecap="round" stroke-linejoin="round"></path>
        </symbol>
        <symbol viewBox="0 0 22 23" id="icon-staking">
            <path d="M11.5652 21.6037C11.2011 21.7442 10.7978 21.7442 10.4337 21.6037C7.59053 20.4889 5.14922 18.5432 3.42812 16.0204C1.70702 13.4977 0.785998 10.5148 0.785156 7.46087V2.85658C0.785156 2.43982 0.950717 2.04012 1.24542 1.74542C1.54012 1.45072 1.93982 1.28516 2.35658 1.28516H19.6423C20.0591 1.28516 20.4588 1.45072 20.7535 1.74542C21.0482 2.04012 21.2137 2.43982 21.2137 2.85658V7.44516C21.216 10.5018 20.2965 13.4881 18.5752 16.014C16.8539 18.5398 14.4108 20.4879 11.5652 21.6037Z" stroke-linecap="round" stroke-linejoin="round"></path>
            <path d="M13.356 9.14258H8.64174C7.77386 9.14258 7.07031 9.84613 7.07031 10.714V13.8569C7.07031 14.7247 7.77386 15.4283 8.64174 15.4283H13.356C14.2239 15.4283 14.9275 14.7247 14.9275 13.8569V10.714C14.9275 9.84613 14.2239 9.14258 13.356 9.14258Z" stroke-linecap="round" stroke-linejoin="round"></path>
            <path d="M13.3549 9.14244V7.57101C13.3549 7.26147 13.2939 6.95495 13.1755 6.66897C13.057 6.38299 12.8834 6.12314 12.6645 5.90426C12.4456 5.68538 12.1858 5.51175 11.8998 5.39329C11.6138 5.27484 11.3073 5.21387 10.9978 5.21387C10.6882 5.21387 10.3817 5.27484 10.0957 5.39329C9.80975 5.51175 9.5499 5.68538 9.33102 5.90426C9.11213 6.12314 8.93851 6.38299 8.82005 6.66897C8.70159 6.95495 8.64062 7.26147 8.64062 7.57101V9.14244" stroke-linecap="round" stroke-linejoin="round"></path>
        </symbol>
        <symbol viewBox="0 0 23 24" id="icon-wallet">
            <path d="M18.648 6.99707H4.35491C3.17082 6.99707 2.21094 7.95696 2.21094 9.14104V17.7169C2.21094 18.901 3.17082 19.8609 4.35491 19.8609H18.648C19.8321 19.8609 20.792 18.901 20.792 17.7169V9.14104C20.792 7.95696 19.8321 6.99707 18.648 6.99707Z" stroke-linejoin="round"></path>
            <path d="M18.4408 6.99737V5.65739C18.4407 5.32874 18.368 5.00416 18.228 4.70682C18.0881 4.40947 17.8842 4.14669 17.6309 3.93722C17.3777 3.72775 17.0813 3.57675 16.763 3.495C16.4447 3.41325 16.1122 3.40276 15.7894 3.46429L4.02616 5.47202C3.51533 5.56937 3.05448 5.84194 2.7231 6.24271C2.39172 6.64348 2.21059 7.14733 2.21094 7.66736V9.85599" stroke-linejoin="round"></path>
            <path d="M16.5035 14.8586C16.2208 14.8586 15.9445 14.7748 15.7094 14.6177C15.4744 14.4607 15.2912 14.2375 15.183 13.9763C15.0748 13.7151 15.0465 13.4277 15.1017 13.1505C15.1568 12.8732 15.293 12.6185 15.4929 12.4186C15.6927 12.2187 15.9474 12.0826 16.2247 12.0275C16.5019 11.9723 16.7893 12.0006 17.0505 12.1088C17.3117 12.217 17.5349 12.4002 17.692 12.6352C17.849 12.8703 17.9328 13.1466 17.9328 13.4293C17.9328 13.8084 17.7823 14.1719 17.5142 14.44C17.2462 14.708 16.8826 14.8586 16.5035 14.8586Z"></path>
        </symbol>
    </defs>
</svg>