<svg width="356" height="111" viewBox="0 0 356 111" fill="none" xmlns="http://www.w3.org/2000/svg">
    <path d="M90.0947 42.9353L83.8998 52.658L90.222 62.2984L80.4994 56.1035L70.859 62.4257L77.0539 52.703L70.7317 43.0627L80.4543 49.2576L90.0947 42.9353Z"
          fill="white"/>
    <path d="M80.4002 52.4806L80.4694 49.6619L89.3289 43.638L80.4002 52.4806Z" fill="white"/>
    <path d="M80.4001 52.4806L83.615 52.7265L89.6389 61.586L80.4001 52.4806Z" fill="white"/>
    <path d="M80.4001 52.4805L80.3524 55.7837L71.4929 61.8077L80.4001 52.4805Z" fill="white"/>
    <path d="M80.4002 52.4806L77.2951 52.5211L71.4692 43.7499L80.4002 52.4806Z" fill="white"/>
    <path d="M19.553 108.812C19.0397 109.149 18.387 109.465 17.595 109.758C16.8177 110.037 15.967 110.176 15.043 110.176C13.415 110.176 11.9777 109.817 10.731 109.098C9.49901 108.379 8.54567 107.411 7.87101 106.194C7.21101 104.977 6.88101 103.635 6.88101 102.168C6.88101 100.599 7.21834 99.1907 7.89301 97.944C8.56767 96.6827 9.49901 95.7 10.687 94.996C11.8897 94.2773 13.2463 93.918 14.757 93.918C15.6517 93.918 16.4877 94.0353 17.265 94.27C18.0423 94.5047 18.739 94.8127 19.355 95.194L18.497 97.196C17.2797 96.3747 16.055 95.964 14.823 95.964C13.7963 95.964 12.843 96.2353 11.963 96.778C11.0977 97.3207 10.401 98.0613 9.87301 99C9.35967 99.924 9.10301 100.943 9.10301 102.058C9.10301 103.202 9.33767 104.236 9.80701 105.16C10.291 106.084 10.973 106.81 11.853 107.338C12.7477 107.851 13.7743 108.108 14.933 108.108C16.3557 108.108 17.595 107.705 18.651 106.898L19.553 108.812ZM22.1564 102.058C22.1564 100.606 22.5231 99.2567 23.2564 98.01C23.9897 96.7633 24.9724 95.7733 26.2044 95.04C27.4511 94.292 28.8077 93.918 30.2744 93.918C31.7264 93.918 33.0757 94.292 34.3224 95.04C35.5691 95.7733 36.5591 96.7633 37.2924 98.01C38.0404 99.2567 38.4144 100.606 38.4144 102.058C38.4144 103.525 38.0477 104.881 37.3144 106.128C36.5811 107.375 35.5837 108.365 34.3224 109.098C33.0757 109.817 31.7264 110.176 30.2744 110.176C28.8077 110.176 27.4511 109.817 26.2044 109.098C24.9577 108.379 23.9677 107.404 23.2344 106.172C22.5157 104.925 22.1564 103.554 22.1564 102.058ZM24.3564 102.08C24.3564 103.165 24.6204 104.17 25.1484 105.094C25.6764 106.018 26.3951 106.751 27.3044 107.294C28.2284 107.837 29.2331 108.108 30.3184 108.108C31.4037 108.108 32.3937 107.844 33.2884 107.316C34.1977 106.773 34.9091 106.04 35.4224 105.116C35.9504 104.177 36.2144 103.158 36.2144 102.058C36.2144 100.958 35.9504 99.9387 35.4224 99C34.8944 98.0613 34.1757 97.3207 33.2664 96.778C32.3571 96.2353 31.3597 95.964 30.2744 95.964C29.1891 95.964 28.1917 96.2427 27.2824 96.8C26.3731 97.3427 25.6544 98.0833 25.1264 99.022C24.6131 99.9607 24.3564 100.98 24.3564 102.08ZM50.2377 96.932C49.6657 96.624 49.057 96.3747 48.4117 96.184C47.7663 95.9933 47.1577 95.898 46.5857 95.898C45.7203 95.898 45.031 96.096 44.5177 96.492C44.019 96.8733 43.7697 97.4013 43.7697 98.076C43.7697 98.736 44.063 99.2787 44.6497 99.704C45.251 100.115 46.1017 100.525 47.2017 100.936C48.023 101.229 48.7123 101.552 49.2697 101.904C49.8417 102.241 50.311 102.718 50.6777 103.334C51.059 103.935 51.2497 104.705 51.2497 105.644C51.2497 106.495 51.037 107.265 50.6117 107.954C50.1863 108.643 49.5777 109.186 48.7857 109.582C48.0083 109.978 47.0917 110.176 46.0357 110.176C45.053 110.176 44.107 110.022 43.1977 109.714C42.2883 109.391 41.489 108.988 40.7997 108.504L41.7457 106.81C42.2883 107.221 42.941 107.573 43.7037 107.866C44.4663 108.145 45.1777 108.284 45.8377 108.284C46.6883 108.284 47.429 108.064 48.0597 107.624C48.705 107.184 49.0277 106.531 49.0277 105.666C49.0277 104.933 48.7563 104.353 48.2137 103.928C47.6857 103.488 46.9377 103.077 45.9697 102.696C45.075 102.359 44.327 102.029 43.7257 101.706C43.139 101.383 42.633 100.943 42.2077 100.386C41.7823 99.814 41.5697 99.1027 41.5697 98.252C41.5697 97.0053 42.0023 96.0007 42.8677 95.238C43.7477 94.4607 44.8843 94.05 46.2777 94.006C47.9937 94.006 49.585 94.4313 51.0517 95.282L50.2377 96.932ZM70.6324 93.588V110H68.5204V99.704L62.6684 107.998H62.6244L56.8824 99.99V110H54.8144V93.588H54.8364L62.6684 104.676L70.6104 93.588H70.6324ZM74.213 102.058C74.213 100.606 74.5797 99.2567 75.313 98.01C76.0464 96.7633 77.029 95.7733 78.261 95.04C79.5077 94.292 80.8644 93.918 82.331 93.918C83.783 93.918 85.1324 94.292 86.379 95.04C87.6257 95.7733 88.6157 96.7633 89.349 98.01C90.097 99.2567 90.471 100.606 90.471 102.058C90.471 103.525 90.1044 104.881 89.371 106.128C88.6377 107.375 87.6404 108.365 86.379 109.098C85.1324 109.817 83.783 110.176 82.331 110.176C80.8644 110.176 79.5077 109.817 78.261 109.098C77.0144 108.379 76.0244 107.404 75.291 106.172C74.5724 104.925 74.213 103.554 74.213 102.058ZM76.413 102.08C76.413 103.165 76.677 104.17 77.205 105.094C77.733 106.018 78.4517 106.751 79.361 107.294C80.285 107.837 81.2897 108.108 82.375 108.108C83.4604 108.108 84.4504 107.844 85.345 107.316C86.2544 106.773 86.9657 106.04 87.479 105.116C88.007 104.177 88.271 103.158 88.271 102.058C88.271 100.958 88.007 99.9387 87.479 99C86.951 98.0613 86.2324 97.3207 85.323 96.778C84.4137 96.2353 83.4164 95.964 82.331 95.964C81.2457 95.964 80.2484 96.2427 79.339 96.8C78.4297 97.3427 77.711 98.0833 77.183 99.022C76.6697 99.9607 76.413 100.98 76.413 102.08ZM102.294 96.932C101.722 96.624 101.114 96.3747 100.468 96.184C99.823 95.9933 99.2143 95.898 98.6423 95.898C97.777 95.898 97.0877 96.096 96.5743 96.492C96.0757 96.8733 95.8263 97.4013 95.8263 98.076C95.8263 98.736 96.1197 99.2787 96.7063 99.704C97.3077 100.115 98.1583 100.525 99.2583 100.936C100.08 101.229 100.769 101.552 101.326 101.904C101.898 102.241 102.368 102.718 102.734 103.334C103.116 103.935 103.306 104.705 103.306 105.644C103.306 106.495 103.094 107.265 102.668 107.954C102.243 108.643 101.634 109.186 100.842 109.582C100.065 109.978 99.1483 110.176 98.0923 110.176C97.1097 110.176 96.1637 110.022 95.2543 109.714C94.345 109.391 93.5457 108.988 92.8563 108.504L93.8023 106.81C94.345 107.221 94.9977 107.573 95.7603 107.866C96.523 108.145 97.2343 108.284 97.8943 108.284C98.745 108.284 99.4857 108.064 100.116 107.624C100.762 107.184 101.084 106.531 101.084 105.666C101.084 104.933 100.813 104.353 100.27 103.928C99.7423 103.488 98.9943 103.077 98.0263 102.696C97.1317 102.359 96.3837 102.029 95.7823 101.706C95.1957 101.383 94.6897 100.943 94.2643 100.386C93.839 99.814 93.6263 99.1027 93.6263 98.252C93.6263 97.0053 94.059 96.0007 94.9243 95.238C95.8043 94.4607 96.941 94.05 98.3343 94.006C100.05 94.006 101.642 94.4313 103.108 95.282L102.294 96.932ZM127.692 94.094V110.528H127.626L115.944 98.67L115.988 110H113.832V93.61H113.942L125.602 105.6L125.558 94.094H127.692ZM142.606 94.094V96.14H134.4V100.98H141.726V103.026H134.4V107.932H142.914V110H132.266V94.094H142.606ZM156.033 94.094V96.14H151.765V110H149.631V96.14H145.473V94.094H156.033ZM172.181 110.704L168.463 101.2L164.393 110.748L158.057 94.16H160.543L164.657 105.732L167.407 98.516L165.713 94.16H167.825L172.247 105.49L176.163 94.16H178.451L172.181 110.704ZM179.465 102.058C179.465 100.606 179.832 99.2567 180.565 98.01C181.298 96.7633 182.281 95.7733 183.513 95.04C184.76 94.292 186.116 93.918 187.583 93.918C189.035 93.918 190.384 94.292 191.631 95.04C192.878 95.7733 193.868 96.7633 194.601 98.01C195.349 99.2567 195.723 100.606 195.723 102.058C195.723 103.525 195.356 104.881 194.623 106.128C193.89 107.375 192.892 108.365 191.631 109.098C190.384 109.817 189.035 110.176 187.583 110.176C186.116 110.176 184.76 109.817 183.513 109.098C182.266 108.379 181.276 107.404 180.543 106.172C179.824 104.925 179.465 103.554 179.465 102.058ZM181.665 102.08C181.665 103.165 181.929 104.17 182.457 105.094C182.985 106.018 183.704 106.751 184.613 107.294C185.537 107.837 186.542 108.108 187.627 108.108C188.712 108.108 189.702 107.844 190.597 107.316C191.506 106.773 192.218 106.04 192.731 105.116C193.259 104.177 193.523 103.158 193.523 102.058C193.523 100.958 193.259 99.9387 192.731 99C192.203 98.0613 191.484 97.3207 190.575 96.778C189.666 96.2353 188.668 95.964 187.583 95.964C186.498 95.964 185.5 96.2427 184.591 96.8C183.682 97.3427 182.963 98.0833 182.435 99.022C181.922 99.9607 181.665 100.98 181.665 102.08ZM208.074 110L204.334 104.126C204.217 104.141 204.041 104.148 203.806 104.148H201.452V110H199.318V94.094H203.564C204.65 94.094 205.618 94.2847 206.468 94.666C207.319 95.0473 207.986 95.612 208.47 96.36C208.954 97.0933 209.196 97.9807 209.196 99.022C209.196 100.005 208.976 100.907 208.536 101.728C208.111 102.549 207.451 103.173 206.556 103.598L210.56 110H208.074ZM203.762 102.08C204.906 102.08 205.728 101.779 206.226 101.178C206.74 100.577 206.996 99.8873 206.996 99.11C206.996 98.6407 206.886 98.1787 206.666 97.724C206.461 97.2693 206.124 96.8953 205.654 96.602C205.2 96.294 204.62 96.14 203.916 96.14H201.452V102.08H203.762ZM215.954 101.288L216.218 100.87L222.73 94.094H225.48L218.902 100.914L225.854 110H223.148L217.34 102.278L215.998 103.576L216.02 110H213.842V94.094H216.02V100.496L215.954 101.288ZM246.096 94.094V96.14H237.89V100.98H245.216V103.026H237.89V107.932H246.404V110H235.756V94.094H246.096ZM259.149 110L255.013 103.642L251.229 110H248.589L253.825 101.794L248.809 94.094H251.515L255.475 100.166L259.083 94.094H261.657L256.619 101.948L261.877 110H259.149ZM269.2 94.094C270.93 94.094 272.28 94.5267 273.248 95.392C274.23 96.2573 274.722 97.4673 274.722 99.022C274.722 99.9167 274.538 100.753 274.172 101.53C273.82 102.307 273.24 102.938 272.434 103.422C271.642 103.906 270.637 104.148 269.42 104.148H267.066V110H264.932V94.094H269.2ZM269.42 102.08C270.182 102.08 270.798 101.919 271.268 101.596C271.752 101.273 272.096 100.885 272.302 100.43C272.507 99.9607 272.61 99.506 272.61 99.066C272.61 98.3033 272.36 97.6287 271.862 97.042C271.363 96.4407 270.586 96.14 269.53 96.14H267.066V102.08H269.42ZM280.15 94.094V107.932H288.246V110H278.016V94.094H280.15ZM290.432 102.058C290.432 100.606 290.798 99.2567 291.532 98.01C292.265 96.7633 293.248 95.7733 294.48 95.04C295.726 94.292 297.083 93.918 298.55 93.918C300.002 93.918 301.351 94.292 302.598 95.04C303.844 95.7733 304.834 96.7633 305.568 98.01C306.316 99.2567 306.69 100.606 306.69 102.058C306.69 103.525 306.323 104.881 305.59 106.128C304.856 107.375 303.859 108.365 302.598 109.098C301.351 109.817 300.002 110.176 298.55 110.176C297.083 110.176 295.726 109.817 294.48 109.098C293.233 108.379 292.243 107.404 291.51 106.172C290.791 104.925 290.432 103.554 290.432 102.058ZM292.632 102.08C292.632 103.165 292.896 104.17 293.424 105.094C293.952 106.018 294.67 106.751 295.58 107.294C296.504 107.837 297.508 108.108 298.594 108.108C299.679 108.108 300.669 107.844 301.564 107.316C302.473 106.773 303.184 106.04 303.698 105.116C304.226 104.177 304.49 103.158 304.49 102.058C304.49 100.958 304.226 99.9387 303.698 99C303.17 98.0613 302.451 97.3207 301.542 96.778C300.632 96.2353 299.635 95.964 298.55 95.964C297.464 95.964 296.467 96.2427 295.558 96.8C294.648 97.3427 293.93 98.0833 293.402 99.022C292.888 99.9607 292.632 100.98 292.632 102.08ZM319.041 110L315.301 104.126C315.184 104.141 315.008 104.148 314.773 104.148H312.419V110H310.285V94.094H314.531C315.616 94.094 316.584 94.2847 317.435 94.666C318.286 95.0473 318.953 95.612 319.437 96.36C319.921 97.0933 320.163 97.9807 320.163 99.022C320.163 100.005 319.943 100.907 319.503 101.728C319.078 102.549 318.418 103.173 317.523 103.598L321.527 110H319.041ZM314.729 102.08C315.873 102.08 316.694 101.779 317.193 101.178C317.706 100.577 317.963 99.8873 317.963 99.11C317.963 98.6407 317.853 98.1787 317.633 97.724C317.428 97.2693 317.09 96.8953 316.621 96.602C316.166 96.294 315.587 96.14 314.883 96.14H312.419V102.08H314.729ZM335.149 94.094V96.14H326.943V100.98H334.269V103.026H326.943V107.932H335.457V110H324.809V94.094H335.149ZM347.938 110L344.198 104.126C344.08 104.141 343.904 104.148 343.67 104.148H341.316V110H339.182V94.094H343.428C344.513 94.094 345.481 94.2847 346.332 94.666C347.182 95.0473 347.85 95.612 348.334 96.36C348.818 97.0933 349.06 97.9807 349.06 99.022C349.06 100.005 348.84 100.907 348.4 101.728C347.974 102.549 347.314 103.173 346.42 103.598L350.424 110H347.938ZM343.626 102.08C344.77 102.08 345.591 101.779 346.09 101.178C346.603 100.577 346.86 99.8873 346.86 99.11C346.86 98.6407 346.75 98.1787 346.53 97.724C346.324 97.2693 345.987 96.8953 345.518 96.602C345.063 96.294 344.484 96.14 343.78 96.14H341.316V102.08H343.626Z"
          fill="white"/>
    <path d="M44.676 68.2136C43.3727 69.1503 41.5604 70.0463 39.2389 70.9016C36.9582 71.7569 34.4535 72.1845 31.7247 72.1845C27.1226 72.1845 23.0906 71.1867 19.6287 69.1911C16.2076 67.1547 13.5604 64.4463 11.6869 61.066C9.85418 57.6449 8.93782 53.898 8.93782 49.8252C8.93782 45.386 9.85418 41.4151 11.6869 37.9125C13.5604 34.41 16.1466 31.6812 19.4455 29.7263C22.7851 27.7307 26.5727 26.7329 30.8084 26.7329C33.4149 26.7329 35.8178 27.0791 38.0171 27.7714C40.2571 28.4638 42.2324 29.3394 43.9429 30.3983L41.1327 37.0572C37.8338 34.7358 34.4738 33.5751 31.0527 33.5751C28.4462 33.5751 26.0026 34.2878 23.7218 35.7132C21.4818 37.098 19.6898 39.0122 18.3458 41.4558C17.0018 43.8587 16.3298 46.506 16.3298 49.3976C16.3298 52.4522 16.9407 55.2013 18.1626 57.6449C19.4251 60.0478 21.1967 61.9416 23.4775 63.3263C25.7989 64.6703 28.4666 65.3423 31.4804 65.3423C33.6389 65.3423 35.5735 65.0165 37.284 64.3649C39.0353 63.7133 40.5015 62.8783 41.6826 61.8602L44.676 68.2136ZM60.1046 52.1693C60.1046 48.5994 61.0061 45.2819 62.8091 42.2167C64.6121 39.1516 67.0281 36.7176 70.0572 34.9146C73.1223 33.0755 76.4578 32.156 80.0638 32.156C83.6337 32.156 86.9513 33.0755 90.0164 34.9146C93.0815 36.7176 95.5155 39.1516 97.3185 42.2167C99.1576 45.2819 100.077 48.5994 100.077 52.1693C100.077 55.7753 99.1756 59.1109 97.3726 62.176C95.5696 65.2411 93.1175 67.6751 90.0164 69.4781C86.9513 71.2451 83.6337 72.1285 80.0638 72.1285C76.4578 72.1285 73.1223 71.2451 70.0572 69.4781C66.9921 67.7112 64.558 65.3132 62.755 62.2841C60.9881 59.219 60.1046 55.8474 60.1046 52.1693ZM65.5136 52.2234C65.5136 54.8918 66.1627 57.362 67.4608 59.6337C68.759 61.9055 70.5259 63.7085 72.7617 65.0427C75.0334 66.377 77.5035 67.0441 80.172 67.0441C82.8404 67.0441 85.2745 66.395 87.4741 65.0968C89.7099 63.7626 91.4588 61.9596 92.7209 59.6878C94.019 57.38 94.6681 54.8738 94.6681 52.1693C94.6681 49.4648 94.019 46.9586 92.7209 44.6508C91.4227 42.343 89.6558 40.5219 87.42 39.1877C85.1843 37.8535 82.7323 37.1864 80.0638 37.1864C77.3954 37.1864 74.9433 37.8715 72.7076 39.2418C70.4718 40.576 68.7049 42.397 67.4067 44.7049C66.1446 47.0127 65.5136 49.5189 65.5136 52.2234ZM162.145 25.6332V71.6958H155.059V45.9765L139.48 68.0914H139.358L124.147 47.0151V71.6958H117.243V25.6332H117.304L139.48 57.034L162.023 25.6332H162.145ZM195.78 27.2216C200.83 27.2216 204.781 28.4842 207.632 31.0092C210.483 33.5343 211.908 37.0369 211.908 41.5169C211.908 44.0827 211.399 46.4856 210.381 48.7256C209.363 50.9249 207.713 52.7372 205.432 54.1627C203.192 55.5474 200.301 56.2398 196.758 56.2398H190.343V71.6958H183.195V27.2216H195.78ZM196.758 49.3976C198.712 49.3976 200.28 48.9903 201.462 48.1758C202.683 47.3205 203.539 46.3023 204.027 45.1212C204.557 43.8994 204.822 42.7387 204.822 41.6391C204.822 39.7656 204.211 38.0347 202.989 36.4463C201.808 34.858 199.792 34.0638 196.941 34.0638H190.343V49.3976H196.758ZM247.833 61.2493H231.644L227.368 71.6958H220.342L240.014 25.3889H240.441L260.113 71.6958H251.926L247.833 61.2493ZM245.451 55.1402L239.892 41.0892L234.149 55.1402H245.451ZM299.896 36.2631C296.068 34.2674 292.667 33.2696 289.694 33.2696C287.495 33.2696 285.743 33.7583 284.44 34.7358C283.178 35.7132 282.546 37.0572 282.546 38.7678C282.546 40.4376 283.341 41.8427 284.929 42.9831C286.558 44.0827 288.818 45.1823 291.71 46.282C293.909 47.0558 295.783 47.9518 297.33 48.97C298.919 49.9474 300.222 51.2914 301.24 53.002C302.258 54.7125 302.767 56.8711 302.767 59.4776C302.767 61.8398 302.177 63.978 300.996 65.8922C299.815 67.8063 298.104 69.3336 295.864 70.474C293.624 71.6143 290.977 72.1845 287.922 72.1845C285.234 72.1845 282.587 71.7773 279.981 70.9627C277.374 70.1074 275.053 68.9467 273.016 67.4805L276.193 61.9213C277.7 63.0616 279.471 64.0187 281.508 64.7925C283.585 65.5256 285.499 65.8922 287.25 65.8922C289.409 65.8922 291.303 65.3831 292.932 64.3649C294.561 63.306 295.375 61.6973 295.375 59.5387C295.375 57.8282 294.683 56.4027 293.298 55.2623C291.954 54.122 290.061 53.0834 287.617 52.1467C285.092 51.21 282.994 50.2936 281.325 49.3976C279.655 48.4609 278.209 47.178 276.987 45.5489C275.806 43.8791 275.215 41.802 275.215 39.3176C275.215 35.6929 276.437 32.7809 278.881 30.5816C281.365 28.3416 284.623 27.1402 288.655 26.9772C291.588 26.9772 294.154 27.3234 296.353 28.0158C298.593 28.6674 300.67 29.6042 302.584 30.826L299.896 36.2631ZM344.311 36.2631C340.483 34.2674 337.082 33.2696 334.109 33.2696C331.91 33.2696 330.158 33.7583 328.855 34.7358C327.593 35.7132 326.961 37.0572 326.961 38.7678C326.961 40.4376 327.756 41.8427 329.344 42.9831C330.973 44.0827 333.233 45.1823 336.125 46.282C338.324 47.0558 340.198 47.9518 341.745 48.97C343.334 49.9474 344.637 51.2914 345.655 53.002C346.673 54.7125 347.182 56.8711 347.182 59.4776C347.182 61.8398 346.592 63.978 345.411 65.8922C344.23 67.8063 342.519 69.3336 340.279 70.474C338.039 71.6143 335.392 72.1845 332.337 72.1845C329.649 72.1845 327.002 71.7773 324.396 70.9627C321.789 70.1074 319.468 68.9467 317.431 67.4805L320.608 61.9213C322.115 63.0616 323.886 64.0187 325.923 64.7925C328 65.5256 329.914 65.8922 331.665 65.8922C333.824 65.8922 335.718 65.3831 337.347 64.3649C338.976 63.306 339.79 61.6973 339.79 59.5387C339.79 57.8282 339.098 56.4027 337.713 55.2623C336.369 54.122 334.476 53.0834 332.032 52.1467C329.507 51.21 327.409 50.2936 325.74 49.3976C324.07 48.4609 322.624 47.178 321.402 45.5489C320.221 43.8791 319.63 41.802 319.63 39.3176C319.63 35.6929 320.852 32.7809 323.296 30.5816C325.78 28.3416 329.038 27.1402 333.07 26.9772C336.003 26.9772 338.569 27.3234 340.768 28.0158C343.008 28.6674 345.085 29.6042 346.999 30.826L344.311 36.2631Z"
          fill="white"/>
    <path d="M80.357 20.782L85.9304 46.7682L111.914 52.3546L85.9275 57.928L80.3411 83.9114L74.7677 57.9252L48.7843 52.3387L74.7705 46.7654L80.357 20.782Z"
          fill="white"/>
    <path d="M79.8995 52.1424L75.4498 47.4043L80.2378 23.1746L79.8995 52.1424Z" fill="#31313D"/>
    <path d="M79.8995 52.1426L85.5739 47.3413L109.804 52.1292L79.8995 52.1426Z" fill="#31313D"/>
    <path d="M79.8995 52.1425L85.1688 57.6411L80.3809 81.8707L79.8995 52.1425Z" fill="#31313D"/>
    <path d="M79.8995 52.1425L74.869 57.2361L51.1075 52.2724L79.8995 52.1425Z" fill="#31313D"/>
</svg>
