<svg width="9" height="9" viewBox="0 0 9 9" fill="none" xmlns="http://www.w3.org/2000/svg">
    <path fill-rule="evenodd" clip-rule="evenodd"
          d="M0 1.14604C0.382085 0.76417 0.76417 0.381866 1.14604 0C2.26406 1.11802 3.38209 2.23605 4.50011 3.35407C5.61813 2.23605 6.73616 1.11802 7.85418 0C8.23605 0.381866 8.61813 0.76417 9.00022 1.14604C7.88219 2.26406 6.76417 3.38208 5.64615 4.50011C6.76417 5.61813 7.88198 6.73594 9 7.85396C8.61813 8.23583 8.23583 8.61792 7.85397 9C6.73594 7.88198 5.61813 6.76417 4.50011 5.64615C3.38209 6.76417 2.26428 7.88198 1.14625 9C0.764389 8.61792 0.382085 8.23583 0.000219132 7.85396C1.11824 6.73594 2.23605 5.61813 3.35407 4.50011C2.23605 3.38208 1.11802 2.26406 0 1.14604Z"
          fill="#FF3A3A"/>
</svg>
