<svg aria-hidden="true" style="position: absolute; width: 0; height: 0; overflow: hidden;" version="1.1"
     xmlns="http://www.w3.org/2000/svg">
    <defs>
        <symbol id="icon-voting" viewBox="0 0 30 32">
            <title>Voting</title>
            <path d="M14.862 21.028l-8.447-8.946 2.084-1.881 6.756 7.154 12.916-8.97c-2.572-4.525-7.453-7.632-13.111-7.632-8.306 0.003-15.060 6.607-15.060 14.727 0 8.118 6.754 14.722 15.056 14.722s15.054-6.604 15.054-14.722c0-1.579-0.322-3.073-0.792-4.496l-14.456 10.044z"></path>
        </symbol>
        <symbol id="icon-validator" viewBox="0 0 31 32">
            <title>Validator</title>
            <path d="M19.222 15.521h-8.513c-5.629 0-10.193 4.472-10.193 9.989v6.49h28.898v-6.49c0-5.517-4.563-9.989-10.193-9.989zM15.832 29.473l-2.062-4.902-5.002-2.021 10.68-3.544-3.616 10.467z"></path>
            <path d="M14.966 15.085c4.25 0 7.696-3.377 7.696-7.542s-3.446-7.542-7.696-7.542c-4.251 0-7.696 3.377-7.696 7.542s3.446 7.542 7.696 7.542z"></path>
        </symbol>
        <symbol id="icon-transactions" viewBox="0 0 29 32">
            <title>Transactions</title>
            <path d="M10.162 0l-10.162 12.063h6.833v5.965h6.728v-5.965h6.768l-10.167-12.063zM15.842 13.883v6.051h-6.838l10.171 12.066 10.158-12.066h-6.768v-6.051h-6.724z"></path>
        </symbol>
        <symbol id="icon-faucet" viewBox="0 0 32 32">
            <title>Faucet</title>
            <path d="M9.432 31.157h-9.432c0-7.112 0.64-11.858 3.909-15.069 3.898-3.83 9.453-3.732 19.54-3.552 2.508 0.044 5.353 0.095 8.551 0.095v9.431c-3.282 0-6.171-0.051-8.719-0.097-6.012-0.108-11.686-0.207-12.762 0.851-0.496 0.487-1.087 2.329-1.087 8.341z"></path>
            <path d="M31.664 0h-15.158v5.39h5.052v5.726h5.39v-5.726h4.716v-5.39z"></path>
        </symbol>
        <symbol id="icon-dashboard" viewBox="0 0 32 32">
            <title>Dashboard</title>
            <path d="M0 0v32h32v-32h-32zM2 10h14v20h-14v-20zM30 20v10h-12v-10h12z"></path>
        </symbol>
        <symbol id="icon-blocks" viewBox="0 0 30 32">
            <title>Blocks</title>
            <path d="M14.715 0.753c0.072-0 0.146 0.010 0.214 0.031l14.042 4.35c0.078 0.023 0.149 0.066 0.214 0.115s0.117 0.11 0.16 0.178c0.043 0.068 0.080 0.141 0.096 0.22s0.013 0.161 0 0.24v19.303c0 0.141-0.043 0.273-0.128 0.387s-0.205 0.208-0.342 0.251l-13.956 4.319c-0.076 0.034-0.152 0.047-0.235 0.052s-0.166 0.004-0.246-0.021c-0.001 0-0.010-0.010-0.011-0.010l-14.042-4.34c-0.137-0.043-0.257-0.137-0.342-0.251s-0.139-0.246-0.139-0.387v-19.418c0-0.006 0.010-0.014 0.011-0.021 0-0.003 0-0.007 0-0.010 0.002-0.077 0.014-0.148 0.043-0.22s0.076-0.141 0.128-0.199c0.053-0.058 0.112-0.109 0.182-0.146s0.146-0.062 0.225-0.073l13.935-4.319c0.065-0.020 0.124-0.031 0.192-0.031zM14.726 2.123l-11.774 3.649 11.774 3.649 11.774-3.649-11.774-3.649zM28.073 6.692l-12.662 3.921v18.006l12.662-3.921v-18.006z"></path>
        </symbol>
        <symbol id="icon-diamond" viewBox="0 0 32 32">
            <title>Diamond</title>
            <path fill="#3a89ff"
                  style="fill: var(--color1, #3a89ff)"
                  d="M16 1.858l14.142 14.142-14.142 14.142-14.142-14.142 14.142-14.142z"></path>
        </symbol>
        <symbol id="icon-done" viewBox="0 0 29 32">
            <title>Done</title>
            <path fill="#21e56f"
                  style="fill: var(--color1, #21e56f)"
                  d="M14.545 2.901c2.942 0 5.679 0.868 7.968 2.361l4.188-5.261 1.912 1.606-14.062 17.666-0.015-0.020-0.067 0.084-5.211-6.547-1.963 1.541 7.174 9.014 11.693-14.689c1.838 2.42 2.929 5.432 2.929 8.698 0 7.982-6.512 14.453-14.545 14.453s-14.545-6.471-14.545-14.453c0-7.982 6.512-14.453 14.545-14.453v0z"></path>
        </symbol>
        <symbol id="icon-warning" viewBox="0 0 32 32">
            <title>Warning</title>
            <path d="M1.333 28h29.333l-14.667-25.333-14.667 25.333zM17.333 24h-2.667v-2.667h2.667v2.667zM17.333 18.667h-2.667v-5.333h2.667v5.333z"></path>
        </symbol>
        <symbol id="icon-circle-left" viewBox="0 0 32 32">
        <title>Circle-left</title>
        <path d="M16 32c8.837 0 16-7.163 16-16s-7.163-16-16-16-16 7.163-16 16 7.163 16 16 16zM16 3c7.18 0 13 5.82 13 13s-5.82 13-13 13-13-5.82-13-13 5.82-13 13-13z"></path>
        <path d="M20.914 9.914l-2.829-2.829-8.914 8.914 8.914 8.914 2.828-2.828-6.086-6.086z"></path>
        <symbol id="icon-export" viewBox="0 0 29 32">
            <title>Export</title>
            <path fill="#70707f"
                  style="fill: var(--color1, #70707f)"
                  d="M18.725 5.325c1.040 0 2.081 0 3.118 0 1.663 0 3.325 0 4.988 0 0.381 0 0.758 0 1.139 0-0.452-0.454-0.908-0.91-1.36-1.364 0 1.043 0 2.087 0 3.127 0 1.667 0 3.335 0 5.002 0 0.382 0 0.76 0 1.142 0 0.713 0.626 1.398 1.36 1.364 0.738-0.034 1.36-0.6 1.36-1.364 0-1.043 0-2.087 0-3.127 0-1.667 0-3.335 0-5.002 0-0.382 0-0.76 0-1.142 0-0.736-0.622-1.364-1.36-1.364-1.041 0-2.081 0-3.118 0-1.663 0-3.325 0-4.988 0-0.381 0-0.758 0-1.139 0-0.711 0-1.394 0.627-1.36 1.364 0.031 0.737 0.595 1.364 1.36 1.364z"></path>
            <path fill="#70707f" style="fill: var(--color1, #70707f)"
                  d="M13.591 20.311c0.51-0.511 1.017-1.020 1.527-1.531 1.221-1.224 2.441-2.448 3.665-3.676 1.479-1.483 2.955-2.963 4.434-4.446 1.278-1.282 2.554-2.561 3.832-3.843 0.622-0.624 1.251-1.238 1.863-1.869 0.010-0.010 0.017-0.017 0.027-0.027 0.503-0.505 0.541-1.432 0-1.93-0.544-0.501-1.387-0.539-1.925 0-0.51 0.511-1.017 1.020-1.527 1.531-1.221 1.224-2.441 2.448-3.665 3.676-1.479 1.483-2.958 2.966-4.434 4.45-1.278 1.282-2.554 2.561-3.832 3.843-0.622 0.624-1.251 1.238-1.863 1.869-0.010 0.010-0.017 0.017-0.027 0.027-0.503 0.505-0.541 1.432 0 1.93 0.544 0.494 1.387 0.535 1.925-0.003z"></path>
            <path fill="#70707f" style="fill: var(--color1, #70707f)"
                  d="M26.613 19.373c0 1.037 0 2.070 0 3.106 0 1.606 0 3.212 0 4.822 0 0.426 0.034 0.873-0.024 1.299 0.017-0.119 0.034-0.242 0.048-0.361-0.031 0.198-0.082 0.385-0.156 0.573 0.044-0.109 0.092-0.218 0.136-0.327-0.082 0.194-0.187 0.372-0.313 0.542 0.071-0.092 0.143-0.184 0.214-0.276-0.129 0.164-0.275 0.31-0.439 0.44 0.092-0.071 0.184-0.143 0.275-0.215-0.167 0.126-0.347 0.232-0.541 0.314 0.109-0.044 0.218-0.092 0.326-0.136-0.184 0.075-0.374 0.126-0.571 0.157 0.119-0.017 0.241-0.034 0.36-0.048-0.279 0.038-0.568 0.024-0.85 0.024-0.527 0-1.051 0-1.578 0-1.755 0-3.509 0-5.264 0-2.132 0-4.267 0-6.399 0-1.836 0-3.672 0-5.508 0-0.864 0-1.727 0.007-2.588 0-0.116 0-0.231-0.007-0.347-0.024 0.119 0.017 0.241 0.034 0.36 0.048-0.197-0.031-0.384-0.082-0.571-0.157 0.109 0.044 0.218 0.092 0.326 0.136-0.194-0.082-0.371-0.187-0.541-0.314 0.092 0.071 0.184 0.143 0.275 0.215-0.163-0.13-0.309-0.276-0.439-0.44 0.071 0.092 0.143 0.184 0.214 0.276-0.126-0.167-0.231-0.348-0.313-0.542 0.044 0.109 0.092 0.218 0.136 0.327-0.075-0.184-0.126-0.375-0.156-0.573 0.017 0.119 0.034 0.242 0.048 0.361-0.037-0.279-0.024-0.569-0.024-0.852 0-0.529 0-1.054 0-1.582 0-1.759 0-3.519 0-5.278 0-2.138 0-4.279 0-6.417 0-1.841 0-3.683 0-5.524 0-0.866-0.007-1.732 0-2.595 0-0.116 0.007-0.232 0.024-0.348-0.017 0.119-0.034 0.242-0.048 0.361 0.031-0.198 0.082-0.385 0.156-0.573-0.044 0.109-0.092 0.218-0.136 0.327 0.082-0.194 0.187-0.372 0.313-0.542-0.071 0.092-0.143 0.184-0.214 0.276 0.129-0.164 0.275-0.31 0.439-0.44-0.092 0.072-0.184 0.143-0.275 0.215 0.167-0.126 0.347-0.232 0.541-0.314-0.109 0.044-0.218 0.092-0.326 0.136 0.184-0.075 0.374-0.126 0.571-0.157-0.119 0.017-0.241 0.034-0.36 0.048 0.36-0.048 0.734-0.024 1.095-0.024 0.7 0 1.401 0 2.105 0 1.625 0 3.247 0 4.872 0 0.377 0 0.751 0 1.129 0 0.711 0 1.394-0.627 1.36-1.364-0.034-0.74-0.598-1.364-1.36-1.364-0.925 0-1.85 0-2.775 0-1.544 0-3.091 0-4.634 0-0.445 0-0.891 0-1.333 0-1.044 0-2.057 0.365-2.792 1.129-0.69 0.719-1.061 1.671-1.061 2.666 0 0.208 0 0.416 0 0.621 0 0.968 0 1.933 0 2.902 0 1.453 0 2.905 0 4.358 0 1.637 0 3.277 0 4.913 0 1.524 0 3.045 0 4.569 0 1.108 0 2.216 0 3.328 0 0.644-0.027 1.289 0.078 1.926 0.119 0.719 0.527 1.432 1.047 1.933 0.265 0.256 0.578 0.494 0.915 0.655 0.473 0.222 0.887 0.338 1.404 0.392 0.194 0.020 0.384 0.017 0.578 0.017 0.799 0 1.601 0 2.401 0 1.357 0 2.717 0 4.073 0 1.615 0 3.23 0 4.845 0 1.571 0 3.138 0 4.709 0 1.238 0 2.479 0 3.716 0 0.595 0 1.19 0 1.785 0 1.020-0.003 2.043-0.402 2.744-1.159 0.245-0.266 0.479-0.573 0.632-0.903 0.218-0.474 0.326-0.873 0.384-1.388 0.017-0.146 0.017-0.293 0.017-0.44 0-1.204 0-2.407 0-3.611 0-1.459 0-2.919 0-4.378 0-0.249 0-0.501 0-0.75 0-0.713-0.626-1.398-1.36-1.364-0.738 0.034-1.36 0.6-1.36 1.367z"></path>
        </symbol>
        <symbol id="icon-arrowUp" viewBox="0 0 32 32">
            <title>Ascending</title>
            <path d="M27.414 12.586l-10-10c-0.781-0.781-2.047-0.781-2.828 0l-10 10c-0.781 0.781-0.781 2.047 0 2.828s2.047 0.781 2.828 0l6.586-6.586v19.172c0 1.105 0.895 2 2 2s2-0.895 2-2v-19.172l6.586 6.586c0.39 0.39 0.902 0.586 1.414 0.586s1.024-0.195 1.414-0.586c0.781-0.781 0.781-2.047 0-2.828z"></path>
        </symbol>
        <symbol id="icon-arrowDown" viewBox="0 0 32 32">
            <title>Descending</title>
            <path d="M27.414 19.414l-10 10c-0.781 0.781-2.047 0.781-2.828 0l-10-10c-0.781-0.781-0.781-2.047 0-2.828s2.047-0.781 2.828 0l6.586 6.586v-19.172c0-1.105 0.895-2 2-2s2 0.895 2 2v19.172l6.586-6.586c0.39-0.39 0.902-0.586 1.414-0.586s1.024 0.195 1.414 0.586c0.781 0.781 0.781 2.047 0 2.828z"></path>
        </symbol>
        <symbol id="icon-proposals" viewBox="0 0 17 32">
            <title>Proposals</title>
            <path d="M14.363 0.416c-1.662 1.164-8.173 0.069-11.221-0.416-3.532 0.831-2.727 3.247-2.727 3.532 0 1.039-0.832 4.364 4.597 19.532 0.157 0.438 0.208 4.987-0.416 5.61s-1.247-0.416-2.909-0.208c-1.662 0.208-1.662 4.364 0 3.325s9.558 0.623 12.675 0c2.494-0.499 2.84-6.442 2.701-9.351-1.247-6.442-7.647-17.33-4.156-17.662 4.364-0.416 3.741-1.87 3.741-1.87 0-0.416-0.208-3.948-2.286-2.494z"></path>
        </symbol>
        <symbol id="icon-cosmos_hub" viewBox="0 0 32 32">
            <title>Cosmos Hub</title>
            <path fill="#fff" style="fill: var(--color1, #fff)" d="M30.328 15.998c0 7.913-6.415 14.328-14.328 14.328s-14.328-6.415-14.328-14.328c0-7.913 6.415-14.328 14.328-14.328s14.328 6.415 14.328 14.328z"></path>
            <path fill="#000" style="fill: var(--color17, #000)" d="M16 31.922c-8.793-0-15.92-7.128-15.92-15.92 0-4.396 1.782-8.376 4.663-11.257v0c2.899-2.999 6.958-4.86 11.451-4.86 8.793 0 15.92 7.128 15.92 15.92 0 4.494-1.862 8.552-4.856 11.447l-0.004 0.004c-2.865 2.882-6.832 4.666-11.216 4.666-0.013 0-0.026-0-0.040-0h0.002zM16 2.358c-0 0-0.001 0-0.002 0-7.535 0-13.644 6.109-13.644 13.644s6.109 13.644 13.644 13.644c7.535 0 13.644-6.109 13.644-13.644v0c-0.007-7.532-6.11-13.637-13.641-13.647h-0.001z"></path>
            <path fill="#fff" opacity="0.41" style="fill: var(--color1, #fff)" d="M14.86 31.879v-2.283q0.564 0.048 1.138 0.048t1.137-0.048v2.281q-0.565 0.045-1.135 0.045t-1.14-0.043zM24.804 26.414c0.585-0.497 1.111-1.023 1.592-1.588l0.016-0.020 1.617 1.617q-0.371 0.428-0.775 0.833t-0.831 0.775zM4.744 27.257q-0.404-0.406-0.775-0.833l1.616-1.619c0.497 0.584 1.023 1.11 1.588 1.59l0.020 0.016-1.619 1.619q-0.427-0.371-0.831-0.775zM29.598 17.138c0.032-0.376 0.048-0.755 0.048-1.138s-0.016-0.761-0.046-1.137h2.283q0.038 0.562 0.038 1.138t-0.040 1.138zM0.123 17.138q-0.043-0.567-0.043-1.137t0.040-1.137h2.281q-0.046 0.564-0.046 1.137c0 0.384 0.016 0.763 0.048 1.138zM3.966 5.577q0.371-0.428 0.777-0.831t0.833-0.777l1.616 1.616c-0.585 0.497-1.111 1.023-1.592 1.588l-0.016 0.019zM24.804 5.586l1.617-1.617q0.428 0.373 0.833 0.777t0.775 0.831l-1.617 1.616c-0.497-0.584-1.023-1.11-1.588-1.59l-0.020-0.016zM14.86 0.121q0.565-0.040 1.14-0.040t1.137 0.040v2.28q-0.562-0.046-1.137-0.048c-0.384 0-0.763 0.018-1.138 0.048z"></path>
            <path fill="#dedede" style="fill: var(--color18, #dedede)" d="M22.933 16c0 3.768-3.054 6.822-6.822 6.822s-6.822-3.054-6.822-6.822c0-3.768 3.054-6.822 6.822-6.822s6.822 3.054 6.822 6.822z"></path>
            <path fill="#1d1d1d" stroke="#1d1d1d" stroke-width="0.3184" stroke-miterlimit="4" stroke-linecap="butt" stroke-linejoin="miter" style="fill: var(--color19, #1d1d1d); stroke: var(--color19, #1d1d1d)" d="M24.936 22.023c-1.875 0-6.085-1.869-10.014-4.139-2.497-1.419-4.645-2.898-6.656-4.538l0.086 0.068c-1.769-1.492-2.499-2.536-2.17-3.106 0.718-1.245 6.050 0.955 10.933 3.781 2.497 1.419 4.644 2.898 6.654 4.538l-0.086-0.068c1.769 1.492 2.5 2.536 2.17 3.106-0.14 0.247-0.459 0.358-0.917 0.358zM7.054 10.337c-0.282 0-0.462 0.057-0.527 0.17-0.159 0.263 0.303 1.103 2.081 2.603 1.908 1.558 4.038 3.024 6.283 4.309l0.23 0.121c5.881 3.396 10.012 4.576 10.388 3.926 0.159-0.263-0.302-1.103-2.081-2.603-1.908-1.558-4.038-3.024-6.283-4.309l-0.23-0.121c-4.857-2.804-8.521-4.096-9.855-4.096z"></path>
            <path fill="#1d1d1d" stroke="#1d1d1d" stroke-width="0.3184" stroke-miterlimit="4" stroke-linecap="butt" stroke-linejoin="miter" style="fill: var(--color19, #1d1d1d); stroke: var(--color19, #1d1d1d)" d="M7.101 22.021c-0.458 0-0.777-0.111-0.919-0.357-0.33-0.57 0.401-1.616 2.17-3.106 1.925-1.572 4.073-3.051 6.338-4.348l0.232-0.122c4.888-2.823 10.211-5.026 10.933-3.781 0.33 0.57-0.401 1.614-2.17 3.106-1.925 1.572-4.072 3.051-6.337 4.348l-0.232 0.122c-3.929 2.269-8.145 4.138-10.016 4.138zM24.982 10.336c-1.339 0-5.004 1.293-9.861 4.096-2.475 1.407-4.605 2.872-6.598 4.498l0.085-0.067c-1.78 1.5-2.229 2.339-2.081 2.603 0.376 0.65 4.507-0.532 10.388-3.926 2.475-1.407 4.605-2.872 6.598-4.498l-0.085 0.067c1.78-1.5 2.229-2.339 2.081-2.603-0.065-0.111-0.244-0.169-0.527-0.169z"></path>
            <path fill="#1d1d1d" stroke="#1d1d1d" stroke-width="0.3184" stroke-miterlimit="4" stroke-linecap="butt" stroke-linejoin="miter" style="fill: var(--color19, #1d1d1d); stroke: var(--color19, #1d1d1d)" d="M17.213 15.987c0 0.66-0.535 1.196-1.196 1.196s-1.196-0.535-1.196-1.196c0-0.66 0.535-1.196 1.196-1.196s1.196 0.535 1.196 1.196z"></path>
            <path fill="#1d1d1d" stroke="#1d1d1d" stroke-width="0.3184" stroke-miterlimit="4" stroke-linecap="butt" stroke-linejoin="miter" style="fill: var(--color19, #1d1d1d); stroke: var(--color19, #1d1d1d)" d="M22.047 11.057c0 0.441-0.357 0.798-0.798 0.798s-0.798-0.357-0.798-0.798c0-0.441 0.357-0.798 0.798-0.798s0.798 0.357 0.798 0.798z"></path>
            <path fill="#1d1d1d" stroke="#1d1d1d" stroke-width="0.3184" stroke-miterlimit="4" stroke-linecap="butt" stroke-linejoin="miter" style="fill: var(--color19, #1d1d1d); stroke: var(--color19, #1d1d1d)" d="M9.294 13.446c0 0.441-0.357 0.798-0.798 0.798s-0.798-0.357-0.798-0.798c0-0.441 0.357-0.798 0.798-0.798s0.798 0.357 0.798 0.798z"></path>
            <path fill="#1d1d1d" stroke="#1d1d1d" stroke-width="0.3184" stroke-miterlimit="4" stroke-linecap="butt" stroke-linejoin="miter" style="fill: var(--color19, #1d1d1d); stroke: var(--color19, #1d1d1d)" d="M15.272 23.409c0 0.441-0.357 0.798-0.798 0.798s-0.798-0.357-0.798-0.798c0-0.441 0.357-0.798 0.798-0.798s0.798 0.357 0.798 0.798z"></path>
            <path fill="#1d1d1d" stroke="#1d1d1d" stroke-width="0.3184" stroke-miterlimit="4" stroke-linecap="butt" stroke-linejoin="miter" style="fill: var(--color19, #1d1d1d); stroke: var(--color19, #1d1d1d)" d="M16.019 27.345c-1.433 0-2.192-5.714-2.192-11.358s0.753-11.358 2.192-11.358 2.192 5.714 2.192 11.358-0.755 11.358-2.192 11.358zM16.019 5.029c-0.748 0-1.793 4.17-1.793 10.96s1.044 10.96 1.793 10.96 1.793-4.17 1.793-10.96-1.044-10.961-1.793-10.961z"></path>
        </symbol>
    </defs>
</svg>
