<svg fill="none" height="80" viewBox="0 0 260 259" width="80" xmlns="http://www.w3.org/2000/svg">
    <g>
        <path
                d="M185.82 76L149.725 132.65L186.562 188.82L129.912 152.725L73.7421 189.562L109.837 132.912L73 76.742L129.65 112.837L185.82 76Z"
                fill="white"/>
        <path d="M129.334 131.616L129.738 115.193L181.358 80.0938L129.334 131.616Z" fill="black"/>
        <path d="M129.334 131.616L148.065 133.048L183.164 184.668L129.334 131.616Z" fill="black"/>
        <path d="M129.333 131.615L129.055 150.862L77.4346 185.96L129.333 131.615Z" fill="black"/>
        <path d="M129.333 131.616L111.241 131.852L77.2969 80.7461L129.333 131.616Z" fill="black"/>
        <animateTransform
                attributeName="transform"
                dur="5s"
                from="360 130 129"
                repeatCount="indefinite"
                to="0 130 129"
                type="rotate"/>
    </g>
    <g>
        <path
                d="M6 133.171C6 110.664 11.6833 89.7497 23.0501 70.4263C34.4168 51.1028 49.6482 35.7578 68.7443 24.3911C88.0677 12.797 109.096 7 131.83 7C154.336 7 175.25 12.797 194.574 24.3911C213.897 35.7578 229.243 51.1028 240.609 70.4263C252.203 89.7497 258 110.664 258 133.171C258 155.904 252.316 176.932 240.95 196.256C229.583 215.579 214.125 230.924 194.574 242.291C175.25 253.43 154.336 259 131.83 259C109.096 259 88.0677 253.43 68.7443 242.291C49.4208 231.152 34.0757 216.034 22.709 196.938C11.5697 177.614 6 156.359 6 133.171ZM40.1002 133.512C40.1002 150.334 44.1922 165.907 52.3762 180.229C60.5602 194.551 71.6996 205.917 85.7943 214.329C100.116 222.74 115.689 226.946 132.511 226.946C149.334 226.946 164.679 222.854 178.547 214.67C192.641 206.258 203.667 194.892 211.624 180.57C219.807 166.02 223.9 150.221 223.9 133.171C223.9 116.12 219.807 100.321 211.624 85.7713C203.439 71.2219 192.301 59.7415 178.206 51.3302C164.111 42.9188 148.652 38.7131 131.83 38.7131C115.007 38.7131 99.5481 43.0325 85.4534 51.6712C71.3586 60.0825 60.2192 71.5629 52.0351 86.1123C44.0785 100.662 40.1002 116.461 40.1002 133.512Z"
                fill="#ffffff"/>
    </g>
    <g>
        <path
                d="M130.033 0L152.987 106.613L260 129.532L152.975 152.399L129.967 259L107.013 152.387L0 129.468L107.025 106.601L130.033 0Z"
                fill="white"/>
        <path d="M127.658 128L110 108.699L129 10L127.658 128Z" fill="#31313D"/>
        <path d="M128 128L151.34 109L251 127.948L128 128Z" fill="#31313D"/>
        <path d="M128 128L150 150.565L130.01 250L128 128Z" fill="#31313D"/>
        <path d="M128 128L107.384 149L10 128.535L128 128Z" fill="#31313D"/>
        <animateTransform
                attributeName="transform"
                dur="5s"
                from="0 130 129"
                repeatCount="indefinite"
                to="360 130 129"
                type="rotate"/>
    </g>
</svg>
