<svg width="47" height="47" viewBox="0 0 47 47" fill="none" xmlns="http://www.w3.org/2000/svg">
    <path d="M46.5 11.481H0.5C0.223633 11.481 0 11.2573 0 10.981V0.5C0 0.223633 0.223633 0 0.5 0H46.5C46.7764 0 47 0.223633 47 0.5V10.981C47 11.2573 46.7764 11.481 46.5 11.481ZM1 10.481H46V1H1V10.481Z"
          fill="#B6B5B5"/>
    <path d="M46.5 47H0.5C0.223633 47 0 46.7764 0 46.5V10.981C0 10.7046 0.223633 10.481 0.5 10.481H46.5C46.7764 10.481 47 10.7046 47 10.981V46.5C47 46.7764 46.7764 47 46.5 47ZM1 46H46V11.481H1V46Z"
          fill="#B6B5B5"/>
    <path d="M17.6253 30.4072V21.8715H15.8812L11.1758 30.4191V32.666H15.6129V35.3764H17.6253V32.666H18.9766V30.4072H17.6253ZM15.6129 30.4072H13.1212L15.6129 25.8064V30.4072Z"
          fill="#B6B5B5"/>
    <path d="M25.9437 23.2743C25.3495 22.3351 24.5254 21.8715 23.4808 21.8715C22.4266 21.8715 21.6121 22.3351 21.0274 23.2505C20.3087 24.368 19.9541 26.1869 19.9541 28.7191C19.9541 31.2988 20.28 33.0939 20.922 34.0926C21.5737 35.103 22.4266 35.6023 23.4808 35.6023C24.5254 35.6023 25.3495 35.1505 25.9341 34.2352C26.6433 33.1177 26.9979 31.2869 26.9979 28.7429C26.9979 26.1988 26.6433 24.368 25.9437 23.2743ZM24.6116 32.1072C24.4966 32.6184 24.3433 32.9751 24.1516 33.1771C23.9503 33.3673 23.7299 33.4743 23.4808 33.4743C23.2221 33.4743 23.0016 33.3673 22.81 33.1771C22.6183 32.9751 22.4553 32.5827 22.3212 32.0002C22.1966 31.4058 22.1295 30.3239 22.1295 28.7429C22.1295 27.1617 22.2062 26.0442 22.3499 25.3785C22.4553 24.8673 22.6087 24.5107 22.8004 24.3085C23.0016 24.1064 23.2221 24.0113 23.4808 24.0113C23.7299 24.0113 23.9503 24.1064 24.1516 24.3085C24.3433 24.5107 24.5062 24.9029 24.6308 25.4973C24.7554 26.0799 24.8225 27.1617 24.8225 28.7429C24.8225 30.3239 24.7554 31.4414 24.6116 32.1072Z"
          fill="#B6B5B5"/>
    <path d="M34.4728 30.4072V21.8715H32.7286L28.0232 30.4191V32.666H32.4603V35.3764H34.4728V32.666H35.824V30.4072H34.4728ZM32.4603 30.4072H29.9686L32.4603 25.8064V30.4072Z"
          fill="#B6B5B5"/>
    <path d="M6.54346 6.24072C6.47363 6.24072 6.41357 6.23047 6.35352 6.20068C6.29346 6.18066 6.2334 6.14063 6.19385 6.09082C6.14355 6.05078 6.10352 5.99072 6.0835 5.93066C6.05371 5.87061 6.04346 5.81055 6.04346 5.74072C6.04346 5.61084 6.09375 5.48047 6.19385 5.39062C6.37354 5.20068 6.70361 5.20068 6.89355 5.39062C6.99365 5.48047 7.04346 5.61084 7.04346 5.74072C7.04346 5.81055 7.03369 5.87061 7.00342 5.93066C6.9834 5.99072 6.94385 6.05078 6.89355 6.09082C6.80371 6.19092 6.67383 6.24072 6.54346 6.24072Z"
          fill="#B6B5B5"/>
    <path d="M14.7935 6.24072C14.6636 6.24072 14.5337 6.19092 14.4438 6.09082C14.3535 6.00049 14.2935 5.87061 14.2935 5.74072C14.2935 5.61084 14.3535 5.48047 14.4438 5.39062C14.6338 5.20068 14.9639 5.20068 15.1538 5.39062C15.2437 5.48047 15.2935 5.61084 15.2935 5.74072C15.2935 5.87061 15.2437 6.00049 15.1538 6.09082C15.0537 6.19092 14.9238 6.24072 14.7935 6.24072Z"
          fill="#B6B5B5"/>
    <path d="M23.0435 6.24073C22.9136 6.24073 22.7837 6.19093 22.6938 6.09083C22.6035 6.0005 22.5435 5.87061 22.5435 5.74073C22.5435 5.61085 22.6035 5.48048 22.6938 5.39063C22.8335 5.2505 23.0537 5.20069 23.2437 5.28077C23.3037 5.30079 23.3535 5.34083 23.4038 5.39063C23.4937 5.48048 23.5537 5.61085 23.5537 5.74073C23.5537 5.80079 23.5337 5.87061 23.5137 5.93067C23.4834 5.99073 23.4438 6.05079 23.4038 6.09083C23.3535 6.14063 23.3037 6.18067 23.2437 6.20069C23.1738 6.23048 23.1138 6.24073 23.0435 6.24073Z"
          fill="#B6B5B5"/>
    <path d="M40.4565 6.24072H34.1201C33.8438 6.24072 33.6201 6.01709 33.6201 5.74072C33.6201 5.46436 33.8438 5.24072 34.1201 5.24072H40.4565C40.7329 5.24072 40.9565 5.46436 40.9565 5.74072C40.9565 6.01709 40.7329 6.24072 40.4565 6.24072Z"
          fill="#B6B5B5"/>
</svg>
