<svg width="17" height="17" viewBox="0 0 17 17" fill="none" xmlns="http://www.w3.org/2000/svg">
    <path d="M16.6936 15.1907L12.8825 11.393C13.7592 10.2107 14.2781 8.74183 14.2781 7.14752C14.2781 3.20653 11.0754 0 7.13905 0C3.20273 0 0 3.20653 0 7.14752C0 11.0885 3.20273 14.295 7.13905 14.295C8.73146 14.295 10.1807 13.7756 11.3795 12.8978L15.1727 16.6955C15.3874 16.9104 15.6558 17 15.9242 17C16.1926 17 16.4788 16.8925 16.6757 16.6955C17.1051 16.2835 17.1051 15.6027 16.6936 15.1907ZM2.12919 7.14752C2.12919 4.38883 4.38362 2.13172 7.13905 2.13172C9.89447 2.13172 12.1489 4.38883 12.1489 7.14752C12.1489 9.90622 9.89447 12.1633 7.13905 12.1633C4.38362 12.1633 2.12919 9.92413 2.12919 7.14752Z"
          fill="white"/>
</svg>
