<svg width="46" height="47" viewBox="0 0 46 47" fill="none" xmlns="http://www.w3.org/2000/svg">
<circle cx="23" cy="24" r="23" fill="#767EF0"/>
<path d="M14.5929 29.437C21.1006 31.9767 26.6387 32.4714 32.9146 28.5182C32.8686 28.5872 31.6272 30.4264 28.3626 31.369C29.0522 32.3116 29.9949 33.3921 29.9949 33.3921C32.087 33.3921 34.1331 32.7943 35.9033 31.6448C37.2827 30.7252 38.0643 29.1389 37.9034 27.4837C37.6275 24.6559 36.9607 21.8971 35.9263 19.2533C34.6158 15.8049 31.4662 13.4139 27.8108 13.069C27.489 13.046 27.2591 13.046 27.1211 13.046L26.7533 13.4138C30.9605 14.6093 33.0526 16.4715 33.0985 16.5405C26.6383 13.2759 19.0057 13.2299 12.4995 16.4025C12.4995 16.4025 14.5686 14.3564 19.1436 13.2759L18.8677 13C18.3849 13 17.9251 13.046 17.4424 13.1149C14.0628 13.6897 11.2351 16.0117 10.0166 19.2073C8.95905 21.966 8.26937 24.8628 8.0165 27.8055C7.87856 29.3688 8.61424 30.9092 9.90167 31.8058C11.6029 32.9323 13.626 33.53 15.6721 33.53C15.6721 33.53 16.4997 32.4495 17.3274 31.4839C14.2238 30.5643 12.9593 28.7251 12.9363 28.6561L13.5204 28.9544C13.8696 29.1328 14.2276 29.2944 14.5929 29.437ZM18.201 27.4377C16.7067 27.3917 15.5342 26.1273 15.5802 24.6099C15.6262 23.1845 16.7757 22.035 18.201 21.989C19.6954 22.035 20.8679 23.2995 20.8219 24.8168C20.7529 26.2423 19.6264 27.3918 18.201 27.4377ZM27.5809 27.4377C26.0865 27.3917 24.914 26.1273 24.96 24.6099C25.006 23.1845 26.1555 22.035 27.5809 21.989C29.0753 22.035 30.2477 23.2995 30.2017 24.8168C30.1558 26.2423 29.0062 27.3918 27.5809 27.4377Z" fill="white"/>
</svg>
