<svg width="46" height="47" viewBox="0 0 46 47" fill="none" xmlns="http://www.w3.org/2000/svg">
<circle cx="23" cy="23.5625" r="23" fill="#C73238"/>
<g clip-path="url(#clip0_2387_10549)">
<path d="M33.5938 15.6719H12.4062C11.6296 15.6719 11 16.3015 11 17.0781V17.7812C11 18.1696 11.3148 18.4844 11.7031 18.4844H34.2969C34.6852 18.4844 35 18.1696 35 17.7812V17.0781C35 16.3015 34.3704 15.6719 33.5938 15.6719Z" fill="white"/>
<path d="M33.5938 31.1875V30.4844C33.5938 29.3194 32.6494 28.375 31.4844 28.375H14.5156C13.3506 28.375 12.4062 29.3194 12.4062 30.4844V31.1875C11.6296 31.1875 11 31.8171 11 32.5938V33.2969C11 33.6852 11.3148 34 11.7031 34H34.25C34.6383 34 35 33.6852 35 33.2969V32.5938C35 31.8171 34.3704 31.1875 33.5938 31.1875Z" fill="white"/>
<path d="M23.3479 10.0927C23.1323 9.9691 22.8659 9.9691 22.6503 10.0927L15.3828 14.2656H30.6154L23.3479 10.0927Z" fill="white"/>
<path d="M25.1094 19.8906H20.8906V26.9688H25.1094V19.8906Z" fill="white"/>
<path d="M32.1875 19.8906H27.9219V26.9688H32.1875V19.8906Z" fill="white"/>
<path d="M18.0312 19.8906H13.8125V26.9688H18.0312V19.8906Z" fill="white"/>
</g>
<defs>
<clipPath id="clip0_2387_10549">
<rect width="24" height="24" fill="white" transform="translate(11 10)"/>
</clipPath>
</defs>
</svg>
