<svg width="46" height="47" viewBox="0 0 46 47" fill="none" xmlns="http://www.w3.org/2000/svg">
<g clip-path="url(#clip0_2387_10543)">
<path d="M23 0.5625C35.7075 0.5625 46 11.1153 46 24.1443C45.9988 29.0852 44.4863 33.9014 41.6755 37.9149C38.8648 41.9284 34.8972 44.9371 30.3313 46.5175C29.1813 46.7533 28.75 46.0163 28.75 45.3973C28.75 44.6014 28.7788 42.0664 28.7788 38.9123C28.7788 36.7015 28.06 35.2866 27.2263 34.5497C32.3438 33.9602 37.72 31.9557 37.72 22.9062C37.72 20.3122 36.8288 18.2193 35.3625 16.5686C35.5925 15.9791 36.3975 13.5619 35.1325 10.3195C35.1325 10.3195 33.2063 9.67095 28.8075 12.7366C26.9675 12.206 25.0125 11.9407 23.0575 11.9407C21.1025 11.9407 19.1475 12.206 17.3075 12.7366C12.9088 9.70043 10.9825 10.3195 10.9825 10.3195C9.7175 13.5619 10.5225 15.9791 10.7525 16.5686C9.28625 18.2193 8.395 20.3417 8.395 22.9062C8.395 31.9262 13.7425 33.9602 18.86 34.5497C18.1988 35.1393 17.595 36.171 17.3938 37.7038C16.0713 38.3228 12.765 39.325 10.695 35.7583C10.2638 35.0508 8.97 33.3117 7.15875 33.3411C5.2325 33.3706 6.3825 34.4613 7.1875 34.9034C8.165 35.4635 9.28625 37.5564 9.545 38.2344C10.005 39.5608 11.5 42.0959 17.2788 41.0052C17.2788 42.9802 17.3075 44.8373 17.3075 45.3973C17.3075 46.0163 16.8763 46.7238 15.7263 46.5175C11.1453 44.9541 7.16086 41.9515 4.33806 37.9356C1.51526 33.9197 -0.00253138 29.0944 3.16915e-06 24.1443C3.16915e-06 11.1153 10.2925 0.5625 23 0.5625Z" fill="black"/>
</g>
<defs>
<clipPath id="clip0_2387_10543">
<rect width="46" height="46" fill="white" transform="translate(0 0.5625)"/>
</clipPath>
</defs>
</svg>
