<svg width="24" height="24" viewBox="0 0 24 24" fill="none" xmlns="http://www.w3.org/2000/svg">
<circle cx="12" cy="12" r="12" fill="#0A66C2"/>
<path d="M9.38185 16.5H7V9.34091H9.38185V16.5ZM8.1914 8.38636C7.53258 8.38636 7 7.85134 7 7.1927C7 6.53407 7.53353 6 8.1914 6C8.84784 6 9.38185 6.53502 9.38185 7.1927C9.38185 7.85134 8.84784 8.38636 8.1914 8.38636ZM17.9565 16.5H15.6666V13.0159C15.6666 12.185 15.6509 11.1164 14.4762 11.1164C13.2838 11.1164 13.1004 12.0213 13.1004 12.9558V16.5H10.811V9.33566H13.0089V10.3145H13.0399C13.3457 9.75136 14.0932 9.15764 15.2079 9.15764C17.5278 9.15764 17.9565 10.6415 17.9565 12.5706V16.5Z" fill="white"/>
</svg>
