<svg width="46" height="47" viewBox="0 0 46 47" fill="none" xmlns="http://www.w3.org/2000/svg">
<circle cx="23" cy="23.5625" r="23" fill="black"/>
<path d="M24.973 23.6726C24.973 28.4278 21.1734 32.2825 16.4866 32.2825C11.7999 32.2825 8 28.4278 8 23.6726C8 18.9175 11.7996 15.0625 16.4866 15.0625C21.1737 15.0625 24.973 18.9175 24.973 23.6726Z" fill="white"/>
<path d="M34.2816 23.6727C34.2816 28.1486 32.3818 31.7785 30.0382 31.7785C27.6947 31.7785 25.7949 28.1486 25.7949 23.6727C25.7949 19.1968 27.6944 15.5669 30.038 15.5669C32.3815 15.5669 34.2813 19.1956 34.2813 23.6727" fill="white"/>
<path d="M38.0919 23.6722C38.0919 27.6815 37.4238 30.9337 36.5995 30.9337C35.7752 30.9337 35.1074 27.6823 35.1074 23.6722C35.1074 19.662 35.7755 16.4106 36.5995 16.4106C37.4236 16.4106 38.0919 19.6617 38.0919 23.6722Z" fill="white"/>
</svg>
