<svg width="328" height="227" viewBox="0 0 328 227" fill="none" xmlns="http://www.w3.org/2000/svg">
<path d="M1.1292 1.16211L131.043 190.215L212.978 142.572L110.879 64.9253L244.481 124.279L326.437 76.6567L1.1292 1.16211Z" fill="white"/>
<path d="M110.889 64.9238L212.988 142.571L232.355 225.999L244.492 124.277L110.889 64.9238Z" fill="#350B00"/>
<path d="M171.421 166.751L232.354 225.998L212.986 142.57L171.421 166.751Z" fill="#350B00"/>
<path d="M244.481 124.279L110.879 64.9253L212.978 142.572L131.043 190.215L1.1292 1.16211L326.437 76.6567L244.481 124.279Z" stroke="#350B00" stroke-width="1.64344" stroke-linecap="round" stroke-linejoin="round"/>
<path d="M244.492 124.281L232.355 226.003L212.988 142.575" stroke="#350B00" stroke-width="1.64344" stroke-linecap="round" stroke-linejoin="round"/>
<path d="M232.354 226L171.421 166.752" stroke="#350B00" stroke-width="1.64344" stroke-linecap="round" stroke-linejoin="round"/>
<path d="M324.595 146.365L282.662 122.151" stroke="#350B00" stroke-width="1.64344" stroke-linecap="round" stroke-linejoin="round"/>
<path d="M324.989 117.551L307.8 107.624" stroke="#350B00" stroke-width="1.64344" stroke-linecap="round" stroke-linejoin="round"/>
<path d="M154.159 214.088L139.699 200.491" stroke="#350B00" stroke-width="1.64344" stroke-linecap="round" stroke-linejoin="round"/>
<path d="M202.759 225.291L167.482 192.122" stroke="#350B00" stroke-width="1.64344" stroke-linecap="round" stroke-linejoin="round"/>
</svg>
