<svg width="447" height="334" viewBox="0 0 447 334" fill="none" xmlns="http://www.w3.org/2000/svg">
<g opacity="0.1">
<path d="M803.273 -38.998H785.232C796.526 -25.6752 805.298 -11.2271 807.581 6.59933C810.422 28.7975 805.48 49.2785 788.9 64.392C759.463 91.2234 740.847 127.554 707.898 150.982C683.234 168.516 656.692 163.961 631.722 152.686C602.047 139.285 573.924 141.754 545.428 154.543C543.652 155.34 541.588 155.528 539.658 156.001C540.176 154.06 540.42 151.997 541.252 150.193C551.172 128.727 590.087 120.31 619.824 132.721C649.609 145.156 679.422 161.358 710.802 136.168C732.206 118.986 744.692 94.9515 761.321 74.0925C773.961 58.236 791.507 44.8722 792.432 22.8813C793.665 -6.34333 777.555 -25.3361 753.637 -38.9959H633.56C644.903 -35.1835 656.206 -31.2307 667.73 -28.0383C689.559 -21.9903 711.254 -31.4208 733.056 -29.5157C754.357 -27.6559 770.104 -16.6206 780.335 1.31599C786.62 12.3319 786.42 23.7626 778.796 34.6425C775.803 38.9128 771.9 41.5458 766.816 40.8028C760.735 39.915 758.244 34.9729 756.914 29.7134C747.9 -5.92213 737.379 -13.4281 701.04 -3.62822C677.308 2.77182 659.718 -9.27876 640.593 -16.856C599.03 -33.3238 557.966 -7.53565 557.775 35.8909C557.728 46.3669 557.031 56.8688 556.023 67.3037C555.319 74.572 553.863 82.9247 543.608 81.5186C534.234 80.2334 530.778 71.8008 531.064 64.1868C532.656 22.0843 540.957 -26.8373 591.743 -38.9937H554.016C527.798 -6.72781 516.58 30.2966 520.691 71.2586C522.23 86.5686 530.893 100.894 549.476 98.239C569.595 95.3641 566.94 76.6629 569.069 62.6035C572.925 37.1459 569.195 8.37484 598.79 -5.89405C618.334 -15.3181 636.992 -8.8446 652.855 2.9835C666.538 13.1851 679.699 16.9867 697.43 15.1745C736.615 11.1699 750.66 30.1151 741.16 70.2261C732.486 106.853 701.928 138.359 674.964 137.795C654.836 137.374 640.061 123.597 622.495 116.761C588.244 103.429 560.65 117.86 534.676 137.931C495.222 168.417 452.965 192.967 401.28 197.352C396.482 197.758 390.779 197.067 389.684 191.9C388.461 186.12 394.398 184.511 398.776 183.003C422.876 174.713 448.13 169.525 470.642 156.993C504.358 138.225 508.125 109.611 502.442 75.382C495.737 35.0075 505.144 -3.39495 525.991 -38.9894H506.156C490.18 -0.189522 492.538 40.9388 490.542 81.5553C489.38 105.203 484.132 127.915 466.464 145.558C429.927 182.042 375.007 180.509 334.422 142.977C328.903 137.873 321.643 127.565 313.542 134.162C305.349 140.834 313.526 149.325 318.512 156.027C321.916 160.604 325.282 165.274 329.218 169.4C350.123 191.309 368.837 216.978 405.236 213.548C427.329 211.466 444.578 198.156 463.633 189.155C504.882 169.672 546.499 194.804 546.499 239.539C546.499 294.861 488.25 333.87 429.532 321.921C388.9 313.653 352.909 293.372 312.578 285.154C289.875 280.527 262.54 295.623 256.883 317.703C252.145 336.196 265.375 351.85 289.708 358.239C324.223 367.302 356.397 380.038 379.127 409.476C403.025 440.429 411.562 441.487 445.341 418.609C473.402 399.605 502.244 390.963 536.077 402.972C567.02 413.956 579.87 405.886 580.165 373.897C580.545 332.838 599.991 306.466 638.513 291.921C671.649 279.41 689 248.978 680.681 216.045C676.243 198.475 661.765 191.596 644.861 195.346C629.779 198.691 635.309 211.824 637.425 221.443C643.169 247.555 641.16 270.885 616.518 287.83C600.926 298.552 586.179 310.115 578.782 328.202C573.147 341.983 567.144 355.703 556.452 366.585C532.856 390.6 500.972 386.561 471.355 389.464C408.238 395.648 356.069 366.581 303.742 338.7C293.549 333.27 281.369 325.494 289.53 312.393C297.27 299.973 310.76 304.138 321.361 310.331C356.701 330.969 391.027 352.703 432.844 360.652C468.569 367.443 504.744 358.865 521.324 336.851C553.226 294.491 561.505 246.559 559.78 195.527C558.721 164.222 577.217 150.094 607.739 160.049C656.621 175.996 701.197 174.893 738.143 135.123C757.272 114.534 772.222 90.2125 795.609 73.438C816.046 58.7803 825.568 40.064 821.59 14.9563C818.566 -4.12934 810.433 -21.3682 803.265 -38.9937L803.273 -38.998Z" fill="white"/>
<path d="M799.254 248.775C798.803 246.55 794.552 244.014 791.659 243.461C767.37 238.817 742.094 239.638 718.676 229.901C710.341 226.434 706.134 232.374 705.468 239.649C702.224 274.984 686.133 300.226 650.079 312.337C629.023 319.408 608.098 329.705 603.147 353.376C599.684 369.931 601.005 387.483 600.683 404.598C600.274 426.455 588.568 436.86 566.917 432.797C547.765 429.201 529.012 421.9 509.79 420.699C468.463 418.118 443.296 445.373 420.219 473.288C409.287 486.512 411.17 501.398 425.019 512.946C434.164 520.573 443.953 517.795 452.643 511.758C463.015 504.552 471.787 494.141 483.137 489.456C542.133 465.098 599.417 476.757 652.049 505.841C698.918 531.742 709.136 566.993 687.789 601.769C668.029 633.959 634.068 643.236 600.798 654.101C556.322 668.625 517.316 688.896 505.28 738.826C498.789 765.759 484.848 788.42 453.952 793.105C426.025 797.341 408.337 779.318 390.844 761.554C376.054 746.538 362.335 729.614 341.413 722.147C304.893 709.114 277.781 726.897 252 748.192V779.205C259.644 768.345 266.682 757.001 278.191 749.274C312.304 726.37 341.446 731.8 367.193 764.317C384.652 786.366 403.404 807.447 425.81 825.006H509.621C497.203 774.173 520.584 734.928 556.202 700.701C578.945 678.841 610.483 670.804 638.039 656.483C674.581 637.495 705.401 613.109 713.558 570.628C719.541 539.477 696.836 524.314 675.28 508.595C659.679 497.219 639.753 489.298 636.317 467.178C635.77 463.661 637.735 459.775 638.539 456.06C640.339 456.9 642.611 457.326 643.85 458.661C646.68 461.711 648.865 465.32 651.562 468.502C668.575 488.57 690.344 503.401 710.894 519.59C738.988 541.721 738.124 568.481 715.685 606.935C686.319 657.261 637.458 682.3 588.705 708.269C552.863 727.363 519.503 781.218 539.207 825.006H567.021C541.953 774.227 569.838 720.765 621.346 703.742C644.014 696.251 668.964 692.501 684.487 671.476C702.564 646.995 712.315 617.465 734.035 595.103C744.318 584.515 755.308 573.199 753.528 556.942C751.174 535.464 731.835 526.776 717.47 514.63C690.901 492.164 658.583 473.56 647.437 439.081C632.416 392.608 657.848 357.122 687.915 324.681C716.333 294.02 756.458 280.84 791.637 260.272C795.933 257.76 800.34 254.134 799.254 248.783V248.775ZM654.864 349.797C640.331 375.391 635.184 403.281 630.797 431.821C625.595 465.65 599.779 481.425 565.524 467.733C520.129 449.589 482.366 454.6 448.617 489.328C444.799 493.257 436.853 498.994 433.549 493.303C427.841 483.468 436.7 475.129 443.016 468.029C475.224 431.823 513.146 425.859 558.229 444.66C575.544 451.881 599.699 461.94 610.281 434.162C615.687 419.971 615.136 403.629 617.279 388.26C618.193 369.872 617.006 350.586 632.24 336.392C638.694 330.379 647.393 324.551 655.707 329.781C663.866 334.911 658.447 343.488 654.864 349.797Z" fill="white"/>
<path d="M515.815 211.442C504.637 195.596 481.203 193.648 460.797 207.733C444.155 219.22 430.254 235.122 407.824 236.541C372.641 238.766 350.158 217.643 327.894 195.808C297.627 166.123 288.786 164.356 252 182.654V211.561C286.89 194.715 312.821 216.324 340.627 232.109C389.996 260.137 421.816 256.802 470.002 220.6C476.731 215.544 485.881 208.476 492.796 216.146C501.166 225.432 494.018 235.99 486.604 243.084C453.344 274.915 412.931 275.734 370.328 267.816C341.737 262.502 318.898 243.768 291.022 237.133C276.713 233.727 264.186 238.468 252.002 244.684V271.237C265.61 260.452 280.791 251.67 298.639 256.996C327.15 265.507 354.278 278.594 382.958 286.35C422.717 297.103 463.302 305.352 501.291 279.082C522.633 264.323 529.997 231.539 515.817 211.44L515.815 211.442Z" fill="white"/>
<path d="M433.263 -38.9978H395.86C388.689 -25.8673 380.721 -13.0564 374.962 0.637959C365.169 23.9313 372.595 42.5828 394.104 56.4521C402.323 61.7505 412.409 66.3816 412.611 77.9375C412.662 80.8103 409.268 85.5731 406.528 86.3463C393.862 89.9276 383.552 83.7587 375.126 75.717C341.086 43.2308 335.538 3.01179 358.812 -37.4232C359.103 -37.9286 359.345 -38.4578 359.569 -38.9978H342.714C325.807 -3.72089 333.998 53.3741 361.152 81.7261C374.553 95.7185 390.398 106.985 411.226 98.4682C429.078 91.1696 430.046 74.1683 429.307 58.3745C427.779 25.7478 425.519 -6.81616 433.263 -39V-38.9978Z" fill="white"/>
<path d="M480.145 -38.998H462.703C461.773 -36.3758 460.816 -33.7622 460.119 -31.0838C450.523 5.90165 458.345 44.0384 452.308 81.2961C448.183 106.749 428.237 130.874 404.433 134.933C382.848 138.611 364.488 129.835 352.756 112.484C321.665 66.4893 306.743 16.2934 314.807 -38.998H296.406C295.778 -35.8833 294.997 -32.7578 295.23 -29.7058C299.419 25.4863 316.501 78.0215 346.176 123.815C370.209 160.902 413.846 172.057 448.931 130.529C471.963 103.27 474.807 70.9411 475.089 37.5541C475.305 11.9777 471.721 -13.9681 480.145 -38.998Z" fill="white"/>
<path d="M300.049 61.9188C291.763 28.2575 271.637 -2.73615 274.779 -38.998H261.531C257.994 -13.9011 269.539 8.18259 277.421 30.9294C290.697 69.2433 282.083 102.52 252 127.524V153.619C284.536 146.787 309.136 98.8525 300.046 61.9188H300.049Z" fill="white"/>
</g>
<path d="M24.8287 54.8269L154.742 243.88L236.677 196.237L134.578 118.59L268.181 177.943L350.137 130.321L24.8287 54.8269Z" fill="white"/>
<path d="M134.589 118.588L236.688 196.235L256.055 279.663L268.191 177.941L134.589 118.588Z" fill="#350B00"/>
<path d="M195.122 220.416L256.055 279.664L236.687 196.236L195.122 220.416Z" fill="#350B00"/>
<path d="M268.181 177.943L134.578 118.59L236.677 196.237L154.742 243.88L24.8287 54.8269L350.137 130.321L268.181 177.943Z" stroke="#350B00" stroke-width="1.64344" stroke-linecap="round" stroke-linejoin="round"/>
<path d="M268.191 177.945L256.055 279.667L236.688 196.238" stroke="#350B00" stroke-width="1.64344" stroke-linecap="round" stroke-linejoin="round"/>
<path d="M256.055 279.665L195.122 220.417" stroke="#350B00" stroke-width="1.64344" stroke-linecap="round" stroke-linejoin="round"/>
<path d="M348.293 200.028L306.361 175.814" stroke="#350B00" stroke-width="1.64344" stroke-linecap="round" stroke-linejoin="round"/>
<path d="M348.688 171.213L331.499 161.287" stroke="#350B00" stroke-width="1.64344" stroke-linecap="round" stroke-linejoin="round"/>
<path d="M177.859 267.751L163.399 254.154" stroke="#350B00" stroke-width="1.64344" stroke-linecap="round" stroke-linejoin="round"/>
<path d="M226.461 278.955L191.184 245.787" stroke="#350B00" stroke-width="1.64344" stroke-linecap="round" stroke-linejoin="round"/>
</svg>
