<svg width="153" height="15" viewBox="0 0 153 15" fill="none" xmlns="http://www.w3.org/2000/svg">
<path d="M0.576 14L6.264 0.446H6.372L12.06 14H10.044L8.694 10.58H3.69L2.304 14H0.576ZM4.302 9.068H8.1L6.246 4.334L4.302 9.068ZM14.4931 14V0.571999H14.5111L20.9191 9.662L27.4171 0.571999H27.4351V14H25.7071V5.594L20.9191 12.362H20.8831L16.1851 5.828V14H14.4931ZM34.6667 0.985999C36.0707 0.985999 37.1747 1.34 37.9787 2.048C38.7827 2.756 39.1847 3.746 39.1847 5.018C39.1847 5.534 39.1067 6.044 38.9507 6.548C38.7947 7.04 38.5427 7.49 38.1947 7.898C37.8587 8.294 37.4147 8.618 36.8627 8.87C36.3107 9.11 35.6387 9.23 34.8467 9.23H32.9207V14H31.1747V0.985999H34.6667ZM34.8467 7.52C35.3507 7.52 35.7707 7.442 36.1067 7.286C36.4427 7.118 36.7067 6.902 36.8987 6.638C37.1027 6.374 37.2467 6.104 37.3307 5.828C37.4147 5.54 37.4567 5.282 37.4567 5.054C37.4567 4.706 37.3727 4.346 37.2047 3.974C37.0487 3.602 36.7847 3.29 36.4127 3.038C36.0527 2.786 35.5607 2.66 34.9367 2.66H32.9207V7.52H34.8467ZM41.8798 0.985999H43.6258V12.308H50.2498V14H41.8798V0.985999ZM53.0771 0.985999H54.8231V14H53.0771V0.985999ZM58.5615 0.985999H66.2835V2.66H60.3075V6.8H65.5455V8.474H60.3075V14H58.5615V0.985999ZM69.1611 0.985999H70.9071V14H69.1611V0.985999Z" fill="#27AAE1"/>
<path d="M89.8988 13.028C89.6828 13.172 89.3888 13.334 89.0168 13.514C88.6448 13.694 88.2068 13.85 87.7028 13.982C87.2108 14.102 86.6708 14.156 86.0828 14.144C85.0628 14.132 84.1508 13.952 83.3468 13.604C82.5428 13.256 81.8528 12.782 81.2768 12.182C80.7128 11.57 80.2808 10.874 79.9808 10.094C79.6808 9.314 79.5308 8.48 79.5308 7.592C79.5308 6.62 79.6868 5.726 79.9988 4.91C80.3228 4.082 80.7728 3.368 81.3488 2.768C81.9248 2.156 82.6028 1.682 83.3828 1.346C84.1748 1.01 85.0388 0.842 85.9748 0.842C86.7548 0.842 87.4628 0.95 88.0988 1.166C88.7348 1.37 89.2808 1.61 89.7368 1.886L89.0348 3.524C88.6748 3.284 88.2368 3.056 87.7207 2.84C87.2048 2.624 86.6408 2.516 86.0288 2.516C85.3928 2.516 84.7928 2.648 84.2288 2.912C83.6648 3.164 83.1668 3.518 82.7348 3.974C82.3028 4.418 81.9608 4.946 81.7088 5.558C81.4688 6.158 81.3488 6.806 81.3488 7.502C81.3488 8.438 81.5408 9.284 81.9248 10.04C82.3208 10.784 82.8728 11.372 83.5808 11.804C84.3008 12.236 85.1408 12.452 86.1008 12.452C86.7728 12.452 87.3608 12.356 87.8648 12.164C88.3808 11.96 88.8068 11.726 89.1428 11.462L89.8988 13.028ZM91.5428 14L97.2308 0.446H97.3388L103.027 14H101.011L99.6608 10.58H94.6568L93.2708 14H91.5428ZM95.2688 9.068H99.0668L97.2128 4.334L95.2688 9.068ZM108.952 0.985999C110.356 0.985999 111.46 1.34 112.264 2.048C113.068 2.756 113.47 3.746 113.47 5.018C113.47 5.534 113.392 6.044 113.236 6.548C113.08 7.04 112.828 7.49 112.48 7.898C112.144 8.294 111.7 8.618 111.148 8.87C110.596 9.11 109.924 9.23 109.132 9.23H107.206V14H105.46V0.985999H108.952ZM109.132 7.52C109.636 7.52 110.056 7.442 110.392 7.286C110.728 7.118 110.992 6.902 111.184 6.638C111.388 6.374 111.532 6.104 111.616 5.828C111.7 5.54 111.742 5.282 111.742 5.054C111.742 4.706 111.658 4.346 111.49 3.974C111.334 3.602 111.07 3.29 110.698 3.038C110.338 2.786 109.846 2.66 109.222 2.66H107.206V7.52H109.132ZM116.165 0.985999H117.911V14H116.165V0.985999ZM120.695 0.985999H129.335V2.66H125.843V14H124.097V2.66H120.695V0.985999ZM129.828 14L135.516 0.446H135.624L141.312 14H139.296L137.946 10.58H132.942L131.556 14H129.828ZM133.554 9.068H137.352L135.498 4.334L133.554 9.068ZM143.745 0.985999H145.491V12.308H152.115V14H143.745V0.985999Z" fill="#939598"/>
</svg>
