<svg width="134" height="27" viewBox="0 0 134 27" fill="none" xmlns="http://www.w3.org/2000/svg">
<path d="M37.5418 9.1398C37.5888 9.07402 37.6452 9.04113 37.711 9.04113H38.007C38.101 9.04113 38.148 9.08812 38.148 9.18209V18.7672C38.148 18.8612 38.101 18.9082 38.007 18.9082H37.7392C37.6452 18.9082 37.5982 18.8612 37.5982 18.7672V10.1406C37.5982 10.1124 37.5888 10.0983 37.57 10.0983C37.5512 10.0889 37.5371 10.0983 37.5277 10.1265L34.8918 14.2284C34.8448 14.2942 34.7885 14.3271 34.7227 14.3271H34.5817C34.5159 14.3271 34.4596 14.2942 34.4126 14.2284L31.7485 10.1406C31.7391 10.1124 31.725 10.103 31.7062 10.1124C31.6874 10.1218 31.678 10.1406 31.678 10.1688V18.7672C31.678 18.8612 31.631 18.9082 31.537 18.9082H31.2692C31.1752 18.9082 31.1282 18.8612 31.1282 18.7672V9.18209C31.1282 9.08812 31.1752 9.04113 31.2692 9.04113H31.5652C31.631 9.04113 31.6874 9.07402 31.7344 9.1398L34.6099 13.5659C34.6193 13.5753 34.6334 13.58 34.6522 13.58C34.671 13.58 34.6851 13.5753 34.6945 13.5659L37.5418 9.1398ZM43.4314 19.021C42.7829 19.021 42.2332 18.8518 41.7821 18.5135C41.3311 18.1658 41.0257 17.7054 40.8659 17.1321C40.8095 16.916 40.7719 16.6764 40.7531 16.4132C40.7438 16.1407 40.7391 15.7883 40.7391 15.3561C40.7391 14.9144 40.7438 14.562 40.7531 14.2989C40.7719 14.0358 40.8095 13.8008 40.8659 13.5941C41.0163 13.0302 41.317 12.5792 41.768 12.2409C42.2285 11.8932 42.7876 11.7193 43.4454 11.7193C44.1033 11.7193 44.6624 11.8932 45.1228 12.2409C45.5927 12.5792 45.8934 13.0302 46.025 13.5941C46.072 13.8008 46.1002 14.0311 46.1096 14.2848C46.1284 14.5385 46.1377 14.8956 46.1377 15.3561C46.1377 15.8353 46.1284 16.2018 46.1096 16.4555C46.1002 16.6999 46.072 16.9254 46.025 17.1321C45.884 17.7054 45.5786 18.1658 45.1088 18.5135C44.6483 18.8518 44.0892 19.021 43.4314 19.021ZM43.4314 18.5276C43.9764 18.5276 44.4322 18.382 44.7986 18.0906C45.1745 17.7899 45.4142 17.4 45.5175 16.9207C45.5457 16.7797 45.5645 16.5683 45.5739 16.2864C45.5833 15.9951 45.588 15.6897 45.588 15.3702C45.588 15.0225 45.5833 14.7123 45.5739 14.4398C45.5645 14.1579 45.5457 13.9512 45.5175 13.8196C45.4142 13.3404 45.1745 12.9551 44.7986 12.6638C44.4322 12.363 43.9764 12.2127 43.4314 12.2127C42.8957 12.2127 42.4446 12.363 42.0782 12.6638C41.7117 12.9551 41.4767 13.3404 41.3734 13.8196C41.317 14.0639 41.2888 14.5808 41.2888 15.3702C41.2888 16.1689 41.317 16.6858 41.3734 16.9207C41.4673 17.4093 41.6976 17.7993 42.0641 18.0906C42.4305 18.382 42.8863 18.5276 43.4314 18.5276ZM50.9473 19.021C50.2989 19.021 49.7491 18.8518 49.2981 18.5135C48.847 18.1658 48.5416 17.7054 48.3818 17.1321C48.3255 16.916 48.2879 16.6764 48.2691 16.4132C48.2597 16.1407 48.255 15.7883 48.255 15.3561C48.255 14.9144 48.2597 14.562 48.2691 14.2989C48.2879 14.0358 48.3255 13.8008 48.3818 13.5941C48.5322 13.0302 48.8329 12.5792 49.284 12.2409C49.7444 11.8932 50.3036 11.7193 50.9614 11.7193C51.6192 11.7193 52.1783 11.8932 52.6388 12.2409C53.1086 12.5792 53.4094 13.0302 53.5409 13.5941C53.5879 13.8008 53.6161 14.0311 53.6255 14.2848C53.6443 14.5385 53.6537 14.8956 53.6537 15.3561C53.6537 15.8353 53.6443 16.2018 53.6255 16.4555C53.6161 16.6999 53.5879 16.9254 53.5409 17.1321C53.4 17.7054 53.0945 18.1658 52.6247 18.5135C52.1642 18.8518 51.6051 19.021 50.9473 19.021ZM50.9473 18.5276C51.4923 18.5276 51.9481 18.382 52.3146 18.0906C52.6905 17.7899 52.9301 17.4 53.0335 16.9207C53.0617 16.7797 53.0805 16.5683 53.0898 16.2864C53.0992 15.9951 53.1039 15.6897 53.1039 15.3702C53.1039 15.0225 53.0992 14.7123 53.0898 14.4398C53.0805 14.1579 53.0617 13.9512 53.0335 13.8196C52.9301 13.3404 52.6905 12.9551 52.3146 12.6638C51.9481 12.363 51.4923 12.2127 50.9473 12.2127C50.4116 12.2127 49.9606 12.363 49.5941 12.6638C49.2276 12.9551 48.9927 13.3404 48.8893 13.8196C48.8329 14.0639 48.8047 14.5808 48.8047 15.3702C48.8047 16.1689 48.8329 16.6858 48.8893 16.9207C48.9833 17.4093 49.2135 17.7993 49.58 18.0906C49.9465 18.382 50.4022 18.5276 50.9473 18.5276ZM58.6887 11.7334C59.3935 11.7334 59.9668 11.9543 60.4084 12.3959C60.8501 12.8282 61.0709 13.4014 61.0709 14.1156V18.7672C61.0709 18.8612 61.024 18.9082 60.93 18.9082H60.6622C60.5682 18.9082 60.5212 18.8612 60.5212 18.7672V14.2143C60.5212 13.6317 60.3427 13.1571 59.9856 12.7906C59.6285 12.4147 59.1633 12.2268 58.5901 12.2268C57.9793 12.2268 57.4859 12.41 57.11 12.7765C56.7435 13.1336 56.5603 13.6035 56.5603 14.1861V18.7672C56.5603 18.8612 56.5133 18.9082 56.4193 18.9082H56.1515C56.0575 18.9082 56.0105 18.8612 56.0105 18.7672V11.9731C56.0105 11.8791 56.0575 11.8321 56.1515 11.8321H56.4193C56.5133 11.8321 56.5603 11.8791 56.5603 11.9731V12.7342C56.5603 12.7624 56.565 12.7812 56.5744 12.7906C56.5932 12.7906 56.6073 12.7812 56.6167 12.7624C56.8234 12.4335 57.1006 12.1798 57.4483 12.0013C57.8054 11.8227 58.2189 11.7334 58.6887 11.7334ZM66.105 11.7757C66.4339 11.7757 66.7111 11.8274 66.9367 11.9308C67.0118 11.959 67.0353 12.02 67.0072 12.114L66.9085 12.3959C66.8803 12.4899 66.8239 12.5134 66.7393 12.4664C66.5326 12.3912 66.2977 12.3583 66.0345 12.3677C65.668 12.3677 65.3391 12.4664 65.0478 12.6638C64.7565 12.8611 64.5263 13.1242 64.3571 13.4531C64.1974 13.782 64.1175 14.1438 64.1175 14.5385V18.7672C64.1175 18.8612 64.0705 18.9082 63.9766 18.9082H63.7087C63.6148 18.9082 63.5678 18.8612 63.5678 18.7672V11.9731C63.5678 11.8791 63.6148 11.8321 63.7087 11.8321H63.9766C64.0705 11.8321 64.1175 11.8791 64.1175 11.9731V13.0302C64.1175 13.0584 64.1222 13.0772 64.1316 13.0866C64.1504 13.0866 64.1645 13.0725 64.1739 13.0443C64.3712 12.6497 64.6344 12.3396 64.9633 12.114C65.2922 11.8885 65.6727 11.7757 66.105 11.7757ZM71.0173 19.021C70.3689 19.021 69.8192 18.8518 69.3681 18.5135C68.917 18.1658 68.6116 17.7054 68.4519 17.1321C68.3955 16.916 68.3579 16.6764 68.3391 16.4132C68.3297 16.1407 68.325 15.7883 68.325 15.3561C68.325 14.9144 68.3297 14.562 68.3391 14.2989C68.3579 14.0358 68.3955 13.8008 68.4519 13.5941C68.6022 13.0302 68.9029 12.5792 69.354 12.2409C69.8145 11.8932 70.3736 11.7193 71.0314 11.7193C71.6892 11.7193 72.2483 11.8932 72.7088 12.2409C73.1787 12.5792 73.4794 13.0302 73.6109 13.5941C73.6579 13.8008 73.6861 14.0311 73.6955 14.2848C73.7143 14.5385 73.7237 14.8956 73.7237 15.3561C73.7237 15.8353 73.7143 16.2018 73.6955 16.4555C73.6861 16.6999 73.6579 16.9254 73.6109 17.1321C73.47 17.7054 73.1646 18.1658 72.6947 18.5135C72.2342 18.8518 71.6751 19.021 71.0173 19.021ZM71.0173 18.5276C71.5623 18.5276 72.0181 18.382 72.3846 18.0906C72.7605 17.7899 73.0001 17.4 73.1035 16.9207C73.1317 16.7797 73.1505 16.5683 73.1599 16.2864C73.1693 15.9951 73.174 15.6897 73.174 15.3702C73.174 15.0225 73.1693 14.7123 73.1599 14.4398C73.1505 14.1579 73.1317 13.9512 73.1035 13.8196C73.0001 13.3404 72.7605 12.9551 72.3846 12.6638C72.0181 12.363 71.5623 12.2127 71.0173 12.2127C70.4817 12.2127 70.0306 12.363 69.6641 12.6638C69.2976 12.9551 69.0627 13.3404 68.9593 13.8196C68.9029 14.0639 68.8747 14.5808 68.8747 15.3702C68.8747 16.1689 68.9029 16.6858 68.9593 16.9207C69.0533 17.4093 69.2835 17.7993 69.65 18.0906C70.0165 18.382 70.4723 18.5276 71.0173 18.5276ZM78.5755 19.021C77.9177 19.021 77.3633 18.8518 76.9122 18.5135C76.4611 18.1658 76.1604 17.7054 76.0101 17.1321C75.8973 16.7187 75.8409 16.1266 75.8409 15.3561C75.8409 14.6325 75.8973 14.0451 76.0101 13.5941C76.151 13.0302 76.4471 12.5792 76.8981 12.2409C77.3586 11.8932 77.9177 11.7193 78.5755 11.7193C79.2239 11.7193 79.7831 11.8885 80.2529 12.2268C80.7228 12.5557 81.0235 12.9692 81.1551 13.4672C81.1832 13.5424 81.2067 13.6646 81.2255 13.8337V13.8619C81.2255 13.9277 81.1832 13.97 81.0987 13.9888L80.8449 14.017H80.8168C80.751 14.017 80.7087 13.9747 80.6899 13.8901L80.6476 13.6928C80.563 13.2699 80.3281 12.9175 79.9428 12.6356C79.5669 12.3536 79.1065 12.2127 78.5614 12.2127C78.0164 12.2127 77.5606 12.3583 77.1941 12.6497C76.8276 12.941 76.6021 13.3263 76.5175 13.8055C76.433 14.1814 76.3907 14.703 76.3907 15.3702C76.3907 16.0092 76.4283 16.526 76.5034 16.9207C76.6068 17.4 76.837 17.7899 77.1941 18.0906C77.5606 18.382 78.0164 18.5276 78.5614 18.5276C79.1065 18.5276 79.5716 18.3867 79.9569 18.1047C80.3422 17.8134 80.5724 17.4563 80.6476 17.0335L80.6617 16.963C80.6711 16.869 80.7275 16.8314 80.8308 16.8502L81.0705 16.8925C81.1644 16.9113 81.2067 16.963 81.1973 17.0476C81.1879 17.0664 81.1832 17.0945 81.1832 17.1321C81.1832 17.1697 81.1738 17.2167 81.1551 17.2731C81.0423 17.7805 80.7463 18.1987 80.267 18.5276C79.7972 18.8565 79.2333 19.021 78.5755 19.021ZM83.4346 18.9082C83.3406 18.9082 83.2936 18.8612 83.2936 18.7672V9.18209C83.2936 9.08812 83.3406 9.04113 83.4346 9.04113H83.7024C83.7964 9.04113 83.8434 9.08812 83.8434 9.18209V15.3842C83.8434 15.403 83.8481 15.4171 83.8575 15.4265C83.8763 15.4359 83.8951 15.4312 83.9139 15.4124L87.3814 11.9026C87.4284 11.8556 87.4848 11.8321 87.5506 11.8321H87.903C87.9594 11.8321 87.9923 11.8509 88.0017 11.8885C88.0204 11.9167 88.011 11.9543 87.9735 12.0013L86.1974 13.8478C86.1786 13.8666 86.1739 13.8901 86.1833 13.9183L88.3399 18.7391L88.354 18.7954C88.354 18.8706 88.3118 18.9082 88.2272 18.9082H87.9453C87.8701 18.9082 87.8184 18.8706 87.7902 18.7954L85.8027 14.313C85.7839 14.2754 85.7604 14.2707 85.7322 14.2989L83.8716 16.1595C83.8528 16.1783 83.8434 16.2018 83.8434 16.23V18.7672C83.8434 18.8612 83.7964 18.9082 83.7024 18.9082H83.4346ZM96.0155 19.0351C95.3858 19.0351 94.8314 18.9129 94.3521 18.6686C93.8823 18.4148 93.5158 18.0625 93.2527 17.6114C92.9896 17.1603 92.858 16.6388 92.858 16.0468V11.8885C92.858 11.3059 92.9896 10.789 93.2527 10.3379C93.5158 9.88688 93.8823 9.53919 94.3521 9.29486C94.8314 9.05053 95.3858 8.92837 96.0155 8.92837C96.6357 8.92837 97.1807 9.05053 97.6506 9.29486C98.1298 9.53919 98.501 9.88688 98.7641 10.3379C99.0273 10.7796 99.1588 11.2918 99.1588 11.8744V11.8885C99.1588 11.9825 99.1118 12.0294 99.0179 12.0294L98.75 12.0435C98.6561 12.0435 98.6091 12.0013 98.6091 11.9167V11.8744C98.6091 11.1414 98.3695 10.5494 97.8902 10.0983C97.4109 9.64725 96.786 9.42172 96.0155 9.42172C95.2261 9.42172 94.5918 9.64725 94.1125 10.0983C93.6427 10.5494 93.4077 11.1414 93.4077 11.8744V16.0749C93.4077 16.8079 93.6427 17.4046 94.1125 17.8651C94.5918 18.3162 95.2261 18.5417 96.0155 18.5417C96.786 18.5417 97.4109 18.3162 97.8902 17.8651C98.3695 17.4046 98.6091 16.8079 98.6091 16.0749V16.0468C98.6091 15.9622 98.6561 15.9199 98.75 15.9199L99.0179 15.934C99.1118 15.934 99.1588 15.9763 99.1588 16.0608C99.1588 16.6435 99.0273 17.1603 98.7641 17.6114C98.501 18.0625 98.1298 18.4148 97.6506 18.6686C97.1807 18.9129 96.6357 19.0351 96.0155 19.0351ZM103.665 11.7193C104.473 11.7193 105.079 11.9308 105.483 12.3536C105.896 12.7671 106.103 13.3404 106.103 14.0733V18.7672C106.103 18.8612 106.056 18.9082 105.962 18.9082H105.694C105.6 18.9082 105.553 18.8612 105.553 18.7672V18.0625C105.553 18.0437 105.544 18.0343 105.525 18.0343C105.516 18.0249 105.502 18.0296 105.483 18.0484C105.248 18.3679 104.924 18.6122 104.51 18.7813C104.106 18.9411 103.665 19.021 103.185 19.021C102.537 19.021 101.987 18.8659 101.536 18.5558C101.094 18.2363 100.874 17.7383 100.874 17.0617C100.874 16.3663 101.127 15.8259 101.635 15.4406C102.152 15.046 102.861 14.8486 103.763 14.8486H105.497C105.535 14.8486 105.553 14.8298 105.553 14.7922V14.0592C105.553 13.4954 105.398 13.049 105.088 12.7201C104.778 12.3818 104.294 12.2127 103.636 12.2127C103.129 12.2127 102.711 12.3208 102.382 12.5369C102.053 12.7436 101.851 13.0256 101.776 13.3826C101.748 13.4766 101.691 13.5189 101.607 13.5095L101.311 13.4672C101.273 13.4578 101.24 13.4437 101.212 13.4249C101.184 13.3967 101.174 13.3685 101.184 13.3404C101.278 12.8517 101.546 12.4617 101.987 12.1704C102.438 11.8697 102.997 11.7193 103.665 11.7193ZM103.242 18.5276C103.862 18.5276 104.402 18.3773 104.863 18.0766C105.323 17.7758 105.553 17.353 105.553 16.8079V15.3702C105.553 15.3326 105.535 15.3138 105.497 15.3138H103.791C103.087 15.3138 102.513 15.4688 102.072 15.7789C101.64 16.0796 101.423 16.4978 101.423 17.0335C101.423 17.5221 101.593 17.8933 101.931 18.147C102.269 18.4008 102.706 18.5276 103.242 18.5276ZM113.672 13.58C113.728 13.7961 113.761 14.0358 113.771 14.2989C113.789 14.562 113.799 14.9144 113.799 15.3561C113.799 15.7883 113.789 16.1407 113.771 16.4132C113.761 16.6858 113.728 16.9301 113.672 17.1462C113.54 17.7101 113.254 18.1658 112.812 18.5135C112.37 18.8518 111.83 19.021 111.191 19.021C110.759 19.021 110.374 18.9317 110.035 18.7531C109.697 18.5652 109.424 18.3115 109.218 17.992C109.199 17.9732 109.18 17.9638 109.161 17.9638C109.152 17.9638 109.147 17.9779 109.147 18.0061V21.5582C109.147 21.6522 109.1 21.6992 109.006 21.6992H108.738C108.644 21.6992 108.598 21.6522 108.598 21.5582V11.9731C108.598 11.8791 108.644 11.8321 108.738 11.8321H109.006C109.1 11.8321 109.147 11.8791 109.147 11.9731V12.7483C109.147 12.7765 109.152 12.7906 109.161 12.7906C109.18 12.7906 109.199 12.7812 109.218 12.7624C109.424 12.4335 109.697 12.1798 110.035 12.0013C110.383 11.8133 110.768 11.7193 111.191 11.7193C111.83 11.7193 112.366 11.8885 112.798 12.2268C113.24 12.5651 113.531 13.0162 113.672 13.58ZM113.094 17.0476C113.15 16.8784 113.188 16.6905 113.207 16.4837C113.226 16.277 113.235 15.9105 113.235 15.3842C113.235 14.8486 113.226 14.4821 113.207 14.2848C113.197 14.078 113.169 13.8901 113.122 13.7209C113.038 13.2793 112.812 12.9175 112.446 12.6356C112.079 12.3536 111.642 12.2127 111.135 12.2127C110.637 12.2127 110.223 12.3583 109.894 12.6497C109.575 12.9316 109.368 13.2887 109.274 13.7209C109.227 13.8901 109.194 14.078 109.175 14.2848C109.157 14.4821 109.147 14.8392 109.147 15.3561C109.147 15.8823 109.157 16.2488 109.175 16.4555C109.194 16.6529 109.227 16.8455 109.274 17.0335C109.359 17.4657 109.565 17.8228 109.894 18.1047C110.223 18.3867 110.637 18.5276 111.135 18.5276C111.633 18.5276 112.056 18.3914 112.403 18.1188C112.76 17.8369 112.991 17.4798 113.094 17.0476ZM116.659 10.3098C116.471 10.3098 116.316 10.2487 116.194 10.1265C116.072 10.0043 116.011 9.85399 116.011 9.67545C116.011 9.4875 116.072 9.33245 116.194 9.21028C116.316 9.08812 116.471 9.02704 116.659 9.02704C116.847 9.02704 117.002 9.08812 117.124 9.21028C117.247 9.33245 117.308 9.4875 117.308 9.67545C117.308 9.85399 117.247 10.0043 117.124 10.1265C117.002 10.2487 116.847 10.3098 116.659 10.3098ZM116.49 18.8941C116.396 18.8941 116.349 18.8471 116.349 18.7531V11.959C116.349 11.865 116.396 11.818 116.49 11.818H116.758C116.852 11.818 116.899 11.865 116.899 11.959V18.7531C116.899 18.8471 116.852 18.8941 116.758 18.8941H116.49ZM122.549 12.1704C122.549 12.2644 122.502 12.3114 122.408 12.3114H120.703C120.665 12.3114 120.646 12.3302 120.646 12.3677V17.0476C120.646 17.555 120.764 17.9121 120.999 18.1188C121.234 18.3162 121.6 18.4148 122.098 18.4148H122.408C122.502 18.4148 122.549 18.4618 122.549 18.5558V18.7672C122.549 18.8612 122.502 18.9082 122.408 18.9082H122.056C121.426 18.9082 120.942 18.7813 120.604 18.5276C120.275 18.2739 120.111 17.8134 120.111 17.1462V12.3677C120.111 12.3302 120.092 12.3114 120.054 12.3114H119.194C119.101 12.3114 119.054 12.2644 119.054 12.1704V11.9731C119.054 11.8791 119.101 11.8321 119.194 11.8321H120.054C120.092 11.8321 120.111 11.8133 120.111 11.7757V10.1829C120.111 10.0889 120.158 10.0419 120.252 10.0419H120.505C120.599 10.0419 120.646 10.0889 120.646 10.1829V11.7757C120.646 11.8133 120.665 11.8321 120.703 11.8321H122.408C122.502 11.8321 122.549 11.8791 122.549 11.9731V12.1704ZM127.052 11.7193C127.86 11.7193 128.466 11.9308 128.87 12.3536C129.284 12.7671 129.491 13.3404 129.491 14.0733V18.7672C129.491 18.8612 129.444 18.9082 129.35 18.9082H129.082C128.988 18.9082 128.941 18.8612 128.941 18.7672V18.0625C128.941 18.0437 128.932 18.0343 128.913 18.0343C128.903 18.0249 128.889 18.0296 128.87 18.0484C128.636 18.3679 128.311 18.6122 127.898 18.7813C127.494 18.9411 127.052 19.021 126.573 19.021C125.924 19.021 125.375 18.8659 124.924 18.5558C124.482 18.2363 124.261 17.7383 124.261 17.0617C124.261 16.3663 124.515 15.8259 125.022 15.4406C125.539 15.046 126.249 14.8486 127.151 14.8486H128.885C128.922 14.8486 128.941 14.8298 128.941 14.7922V14.0592C128.941 13.4954 128.786 13.049 128.476 12.7201C128.166 12.3818 127.682 12.2127 127.024 12.2127C126.516 12.2127 126.098 12.3208 125.769 12.5369C125.44 12.7436 125.238 13.0256 125.163 13.3826C125.135 13.4766 125.079 13.5189 124.994 13.5095L124.698 13.4672C124.661 13.4578 124.628 13.4437 124.599 13.4249C124.571 13.3967 124.562 13.3685 124.571 13.3404C124.665 12.8517 124.933 12.4617 125.375 12.1704C125.826 11.8697 126.385 11.7193 127.052 11.7193ZM126.629 18.5276C127.249 18.5276 127.79 18.3773 128.25 18.0766C128.711 17.7758 128.941 17.353 128.941 16.8079V15.3702C128.941 15.3326 128.922 15.3138 128.885 15.3138H127.179C126.474 15.3138 125.901 15.4688 125.459 15.7789C125.027 16.0796 124.811 16.4978 124.811 17.0335C124.811 17.5221 124.98 17.8933 125.318 18.147C125.657 18.4008 126.094 18.5276 126.629 18.5276ZM131.999 18.9082C131.905 18.9082 131.858 18.8612 131.858 18.7672V9.18209C131.858 9.08812 131.905 9.04113 131.999 9.04113H132.267C132.361 9.04113 132.408 9.08812 132.408 9.18209V18.7672C132.408 18.8612 132.361 18.9082 132.267 18.9082H131.999Z" fill="white"/>
<g clip-path="url(#clip0)">
<path d="M19.4599 6.08695C19.3339 6.16202 19.224 6.26119 19.1364 6.37877C19.0487 6.49636 18.9851 6.63006 18.9492 6.77224C18.9133 6.91442 18.9057 7.06229 18.9269 7.20739C18.9482 7.35249 18.9978 7.49199 19.073 7.6179C20.1126 9.36723 20.6601 11.365 20.6575 13.4C20.6575 19.5573 15.7381 24.5667 9.69188 24.5667C9.07939 24.5667 8.47527 24.5164 7.88176 24.4165C11.3954 21.9481 13.555 17.8661 13.555 13.4C13.555 8.93389 11.3954 4.85136 7.88176 2.38353C8.4799 2.28314 9.08538 2.2329 9.69188 2.23333C12.2446 2.23333 14.6393 3.1021 16.6163 4.74472C16.8441 4.93396 17.1377 5.02498 17.4325 4.99776C17.7274 4.97054 17.9994 4.8273 18.1886 4.59955C18.3778 4.3718 18.4689 4.07821 18.4416 3.78335C18.4144 3.48849 18.2712 3.21653 18.0434 3.02728C15.6605 1.04688 12.7722 0 9.69188 0C7.91973 0 6.2023 0.349516 4.58592 1.0385C4.38494 1.1248 4.2137 1.26817 4.09341 1.45085C3.97311 1.63352 3.90906 1.84748 3.90918 2.0662C3.9093 2.28493 3.97359 2.49881 4.09408 2.68135C4.21457 2.8639 4.38596 3.00708 4.58704 3.09317C8.67795 4.83461 11.3217 8.87973 11.3217 13.4C11.3217 17.9197 8.67795 21.9654 4.58704 23.7068C4.38596 23.7929 4.21457 23.9361 4.09408 24.1186C3.97359 24.3012 3.9093 24.5151 3.90918 24.7338C3.90906 24.9525 3.97311 25.1665 4.09341 25.3492C4.2137 25.5318 4.38494 25.6752 4.58592 25.7615C6.19993 26.4502 7.9371 26.8035 9.69188 26.8C16.9698 26.8 22.8909 20.7884 22.8909 13.4C22.8909 10.9534 22.2343 8.55813 20.9914 6.47443C20.9163 6.34839 20.8172 6.23838 20.6996 6.15068C20.5819 6.06299 20.4482 5.99933 20.306 5.96335C20.1637 5.92736 20.0158 5.91976 19.8706 5.94096C19.7255 5.96217 19.5859 6.01178 19.4599 6.08695Z" fill="#D96614"/>
</g>
<defs>
<clipPath id="clip0">
<rect width="26.8" height="26.8" fill="white"/>
</clipPath>
</defs>
</svg>
