<svg width="350" height="492" viewBox="0 0 350 492" fill="none" xmlns="http://www.w3.org/2000/svg">
<g clip-path="url(#clip0_5005_1999)">
<rect x="0.0585938" y="0.451172" width="349" height="491" rx="22" fill="#E59636"/>
<g opacity="0.1">
<path d="M350.478 658.449C343.098 655.783 335.081 655.315 327.417 654.433C296.45 650.869 265.905 642.666 234.394 644.88C215.827 646.184 197.38 649.068 178.819 650.55C170.585 651.206 166.033 645.696 162.963 638.609C159.815 631.343 157.364 621.517 146.734 623.258C133.297 625.459 129.514 636.374 128.151 648.137C127.953 649.839 127.627 651.526 127.36 653.22C125.855 652.222 124.155 651.418 122.878 650.193C102.917 631.08 104.666 604.659 132.134 593.306C173.737 576.112 196.716 543.801 219.621 509.608C228.875 495.795 241.679 484.2 260.157 492.788C279.239 501.657 275.676 520.013 272.157 535.072C262.739 575.393 274.415 615.465 300.959 626.442C324.899 636.341 350.953 637.758 375.816 643.949C387.69 646.904 398.982 651.133 408.642 658.451H455.398C441.704 651.224 428.095 643.824 414.085 637.236C391.34 626.539 366.35 623.485 341.975 618.148C304.942 610.039 288.08 573.531 295.469 533.349C305.171 480.585 343.784 452.073 383.056 422.783C417.458 397.127 448.129 368.803 447.514 322.033C447.126 292.553 433.891 268.098 412.955 247.595C381.425 216.718 385.443 182.763 401.495 146.605C417.471 110.622 429.276 73.919 414.672 34.1148C408.868 18.2993 395.678 10.5082 383.085 1.49243C361.148 -14.2085 360.537 -29.3134 384.551 -41.703C414.003 -56.8986 427.46 -79.5655 433.434 -110.535C440.887 -149.184 474.147 -161.459 512.978 -143.283C540.277 -130.505 562.379 -109.272 590.939 -98.7095C608.518 -92.2079 625.929 -92.2878 643.175 -98.7095V-123.919C591.825 -100.027 555.936 -130.924 519.561 -159.751C497.481 -177.249 473.484 -185.042 444.575 -178.852C434.828 -176.765 417.271 -173.756 417.169 -189.34C417.069 -204.821 432.213 -203.728 444.049 -205.547H381.418C383.061 -179.158 395.29 -155.12 399.674 -129.321C405.76 -93.5061 386.926 -69.4416 360.211 -49.1269C351.113 -42.2085 341.837 -35.3527 331.924 -29.6503C321.367 -23.5764 307.538 -16.766 300.164 -30.8491C292.558 -45.375 307.646 -51.7643 318.103 -57.2571C338.28 -67.8583 363.479 -71.6146 370.093 -98.7829C376.751 -126.144 366.452 -151.266 361.09 -177.128C359.141 -186.526 357.878 -196.058 356.383 -205.547H332.399C335.743 -195.661 339.155 -185.794 342.359 -175.864C350.84 -149.582 362.249 -122.681 339.805 -97.9362C324.782 -81.3734 302.751 -71.7723 289.43 -53.3583C271.18 -28.1297 252.193 -4.12355 221.344 7.85144C214.195 10.627 204.023 13.4242 204.595 22.6085C205.217 32.5639 215.432 36.683 223.565 41.0224C248.579 54.3646 276.995 50.3103 303.592 55.5937C317.213 58.298 331.367 61.7799 336.351 76.4548C340.152 87.6457 332.916 96.8171 324.269 102.522C307.216 113.771 289.483 124.219 271.26 133.576C227.21 156.197 188.137 183.834 166.202 229.166C160.325 241.31 155.619 254.691 163.516 267.743C167.847 274.902 175.882 277.606 184.399 276.502C200.06 274.472 212.688 265.78 225.576 257.786C252.327 241.193 278.4 221.267 311.046 219.366C345.911 217.338 371.789 241.003 399.603 257.119C423.168 270.774 437.49 291.979 433.023 319.868C424.795 371.25 391.926 406.503 349.059 433.933C335.498 442.612 319.833 450.608 303.486 442.186C288.411 434.421 290.538 418.921 293.457 405.935C299.705 378.162 289.166 361.643 264.513 346.505C232.865 327.074 232.254 310.749 258.015 288.797C276.697 272.878 298.419 256.274 324.244 260.691C363.843 267.465 384.435 297.489 384.961 339.2C385.03 344.568 383.809 351.748 391.029 354.124C393.314 354.875 397.765 352.78 399.659 350.661C407.212 342.207 410.193 331.809 410.957 320.799C413.089 290.089 391.053 276.278 367.855 264.307C349.685 254.93 333.212 238.856 310.544 242.498C280.585 247.312 260.091 270.77 233.451 282.596C210.237 292.901 206.904 307.142 223.045 326.517C230.323 335.252 239.33 343.065 248.819 349.532C285.671 374.648 289.996 392.219 265.754 424.349C253.195 440.994 236.905 455.917 228.356 474.29C208.756 516.414 181.65 547.451 135.113 563.854C85.435 581.365 71.2193 625.833 100.554 658.447H350.48L350.478 658.449ZM206.412 248.04C199.906 254.282 188.87 263.112 181.706 254.002C171.411 240.912 185.065 230.261 193.384 221.537C228.793 184.405 273.793 159.252 315.661 130.146C332.21 118.642 347.603 104.774 352.489 84.5094C356.972 65.9249 341.289 59.905 328.178 52.9261C324.271 50.846 317.624 50.2175 318.314 45.0832C318.565 43.2169 326.784 41.3032 331.395 41.2341C356.503 40.8582 372.564 55.598 372.564 85.2374C370.335 113.771 347.199 136.738 320.026 154.858C278.835 182.331 241.808 214.076 206.409 248.04H206.412ZM276.322 213.368C275.061 213.75 273.705 213.839 272.392 214.063C272.859 212.703 273.047 211.163 273.836 210.011C290.627 185.435 318.321 173.788 341.519 157.031C376.201 131.977 396.906 83.9781 382.124 55.6304C371.054 34.402 352.358 25.6022 325.059 25.6454C311.294 25.4899 295.262 31.0367 278.982 35.5533C272.071 37.4714 262.806 41.4997 258.932 33.6611C255.155 26.0169 263.863 21.4442 270.017 18.2561C318.052 -6.63994 391.646 -0.0368433 406.77 60.7064C415.762 96.8192 398.937 127.04 376.411 153.873C350.402 184.854 314.793 201.678 276.324 213.37L276.322 213.368Z" fill="white"/>
<path d="M306.379 -205.547H288.338C299.632 -192.224 308.404 -177.776 310.686 -159.95C313.528 -137.751 308.586 -117.27 292.006 -102.157C262.569 -75.3254 243.952 -38.9944 211.003 -15.5672C186.339 1.9676 159.797 -2.58781 134.827 -13.863C105.152 -27.2635 77.0297 -24.7947 48.5339 -12.0054C46.7578 -11.2083 44.693 -11.0204 42.7637 -10.5474C43.281 -12.4892 43.5252 -14.552 44.3578 -16.3556C54.2775 -37.8216 93.1924 -46.239 122.929 -33.8277C152.715 -21.3927 182.527 -5.19059 213.907 -30.3804C235.312 -47.5631 247.798 -71.5973 264.427 -92.4563C277.066 -108.313 294.612 -121.677 295.538 -143.668C296.77 -172.892 280.661 -191.885 256.743 -205.545H136.665C148.008 -201.732 159.311 -197.78 170.836 -194.587C192.665 -188.539 214.36 -197.97 236.162 -196.065C257.462 -194.205 273.21 -183.169 283.44 -165.233C289.726 -154.217 289.526 -142.786 281.902 -131.906C278.909 -127.636 275.006 -125.003 269.922 -125.746C263.841 -126.634 261.35 -131.576 260.02 -136.835C251.006 -172.471 240.485 -179.977 204.145 -170.177C180.414 -163.777 162.823 -175.828 143.699 -183.405C102.135 -199.873 61.0712 -174.084 60.8802 -130.658C60.8336 -120.182 60.1365 -109.68 59.1285 -99.2452C58.4247 -91.9768 56.9683 -83.6241 46.7134 -85.0303C37.3399 -86.3155 33.8831 -94.7481 34.1695 -102.362C35.7613 -144.465 44.0625 -193.386 94.8487 -205.543H57.1215C30.9036 -173.277 19.6851 -136.252 23.7969 -95.2902C25.3354 -79.9802 33.9985 -65.6552 52.5813 -68.3098C72.7004 -71.1848 70.045 -89.8859 72.1742 -103.945C76.0306 -129.403 72.3007 -158.174 101.895 -172.443C121.44 -181.867 140.098 -175.393 155.961 -163.565C169.644 -153.364 182.805 -149.562 200.535 -151.374C239.721 -155.379 253.766 -136.434 244.266 -96.3227C235.591 -59.6958 205.033 -28.1902 178.069 -28.7539C157.941 -29.1751 143.166 -42.9515 125.6 -49.7879C91.3497 -63.1194 63.7553 -48.6885 37.7817 -28.6178C-1.67282 1.86824 -43.9291 26.4187 -95.6145 30.8035C-100.412 31.2095 -106.116 30.5183 -107.21 25.3516C-108.434 19.5715 -102.497 17.9623 -98.1188 16.4547C-74.019 8.16462 -48.7646 2.97632 -26.2522 -9.55594C7.46316 -28.3241 11.2308 -56.9375 5.54716 -91.1668C-1.15773 -131.541 8.24908 -169.944 29.0964 -205.538H9.26148C-6.7148 -166.738 -4.35698 -125.61 -6.3529 -84.9936C-7.51404 -61.346 -12.7625 -38.6337 -30.4305 -20.9909C-66.9677 15.4935 -121.888 13.9599 -162.472 -23.5721C-167.992 -28.6762 -175.252 -38.9836 -183.353 -32.387C-191.545 -25.7148 -183.369 -17.2239 -178.382 -10.5214C-174.979 -5.94443 -171.613 -1.27454 -167.676 2.85104C-146.771 24.7598 -128.058 50.4291 -91.6581 46.999C-69.5653 44.9168 -52.3169 31.607 -33.2613 22.6063C7.98711 3.1232 49.604 28.2547 49.604 72.9902C49.604 128.312 -8.64411 167.321 -67.3629 155.372C-107.994 147.104 -143.985 126.824 -184.317 118.605C-207.02 113.978 -234.355 129.074 -240.012 151.154C-244.749 169.648 -231.519 185.301 -207.186 191.69C-172.672 200.754 -140.497 213.489 -117.767 242.927C-93.8694 273.88 -85.3329 274.938 -51.5532 252.06C-23.4925 233.056 5.34956 224.414 39.1826 236.424C70.125 247.407 82.9753 239.337 83.2705 207.348C83.6502 166.289 103.097 139.917 141.619 125.372C174.754 112.861 192.105 82.4294 183.786 49.496C179.348 31.9267 164.87 25.0471 147.966 28.7968C132.884 32.1427 138.415 45.2754 140.531 54.8938C146.274 81.0059 144.265 104.336 119.623 121.281C104.031 132.003 89.285 143.566 81.8874 161.653C76.2526 175.434 70.2493 189.154 59.557 200.036C35.9611 224.051 4.0774 220.012 -25.5395 222.915C-88.6565 229.099 -140.826 200.032 -193.153 172.151C-203.346 166.721 -215.525 158.945 -207.364 145.844C-199.625 133.425 -186.135 137.589 -175.534 143.782C-140.193 164.42 -105.867 186.154 -64.0504 194.103C-28.3258 200.894 7.84947 192.317 24.4296 170.302C56.3311 127.943 64.6101 80.0102 62.885 28.9783C61.826 -2.32645 80.3222 -16.4549 110.845 -6.49955C159.726 9.44765 204.303 8.34389 241.248 -31.4258C260.377 -52.0148 275.328 -76.3363 298.715 -93.1108C319.152 -107.768 328.674 -126.485 324.695 -151.593C321.671 -170.678 313.539 -187.917 306.37 -205.543L306.379 -205.547Z" fill="white"/>
<path d="M368.628 589.132C411.141 603.416 446.324 631.01 486.634 649.169C493.814 652.403 501.091 655.427 508.371 658.451H538.403C536.856 658.226 535.333 657.947 533.874 657.669C497.608 650.724 468.879 631.535 443.549 605.807C402.927 564.545 411.745 474.005 459.723 441.387C486.376 423.267 512.287 404.047 537.713 384.32C545.206 378.505 552.173 366.818 543.374 359.631C534.252 352.184 530.433 365.303 525.002 370.712C515.107 380.568 506.095 391.763 494.679 399.582C450.607 429.764 410.897 462.691 399.994 517.954C398.069 527.711 393.698 537.854 380.936 534.545C371.054 531.981 370.486 522.183 372.271 513.744C382.035 467.564 413.59 436.479 449.488 408.289C469.962 392.213 494.853 379.875 504.639 353.892C512.709 332.465 501.233 311.613 500.212 290.354C499.368 272.772 502.843 253.334 491.056 238.467C482.271 227.384 466.914 221.137 458.544 209.873C436.072 179.629 443.749 145.529 452.192 113.233C461.488 77.675 469.778 42.992 461.022 5.94822C452.843 -28.6483 453.333 -63.3291 469.685 -96.2733C472.529 -102.004 476.965 -107.332 484.378 -105.805C492.04 -104.226 493.036 -97.6081 493.003 -91.1023C492.87 -64.3724 484.631 -38.3251 487.455 -11.1762C490.106 14.316 507.603 33.0734 527.549 28.4618C562.21 20.4461 600.463 38.0133 612.812 70.2641C625.065 102.269 618.222 137.235 625.673 170.209C629.183 185.75 631.543 201.74 643.17 213.81V163.062C636.725 146.006 635.173 127.886 634.796 110.077C633.613 53.9972 607.521 17.8174 551.833 0.792325C516.188 -10.1048 504.075 -33.4197 506.295 -80.3952C507.083 -97.1005 512.738 -116.806 489.595 -121.457C468.206 -125.755 462.487 -106.434 456.162 -91.6358C447.226 -70.7271 433.66 -53.445 417.864 -36.9729C401.843 -20.2654 418.737 -8.11548 427.615 4.07766C457.054 44.4997 452.658 88.3216 433.365 128.638C411.079 175.209 420.69 209.802 455.294 245.608C490.332 281.865 494.717 338.686 468.217 373.388C447.525 400.483 415.258 415.979 391.129 439.886C362.393 468.359 328.569 494.402 323.307 537.459C319.549 568.226 343.622 580.732 368.628 589.132Z" fill="white"/>
<path d="M302.36 82.2258C301.909 80.001 297.657 77.4652 294.764 76.9122C270.476 72.2683 245.199 73.0891 221.781 63.3518C213.447 59.8851 209.239 65.825 208.573 73.0999C205.33 108.435 189.238 133.677 153.185 145.788C132.129 152.86 111.204 163.156 106.253 186.828C102.789 203.382 104.11 220.934 103.788 238.05C103.38 259.907 91.673 270.311 70.022 266.248C50.8709 262.652 32.1172 255.351 12.895 254.15C-28.4311 251.569 -53.5988 278.824 -76.6752 306.739C-87.6072 319.963 -85.7245 334.85 -71.8752 346.397C-62.7303 354.024 -52.9416 351.246 -44.2519 345.209C-33.8793 338.003 -25.1075 327.592 -13.758 322.907C45.2383 298.549 102.523 310.208 155.154 339.293C202.024 365.193 212.241 400.444 190.894 435.22C171.135 467.41 137.173 476.687 103.904 487.552C59.4274 502.076 20.4214 522.347 8.38586 572.278C1.89411 599.211 -12.0463 621.871 -42.942 626.556C-70.8694 630.792 -88.5575 612.769 -106.05 595.005C-120.841 579.989 -134.559 563.065 -155.482 555.598C-192.001 542.565 -219.114 560.348 -244.895 581.643V612.656C-237.251 601.796 -230.213 590.452 -218.703 582.725C-184.591 559.821 -155.449 565.251 -129.701 597.768C-112.242 619.817 -93.4907 640.898 -71.0848 658.457H12.7263C0.308925 607.624 23.6895 568.379 59.3075 534.152C82.0508 512.293 113.588 504.255 141.145 489.935C177.686 470.946 208.507 446.56 216.664 404.079C222.647 372.928 199.941 357.765 178.386 342.047C162.785 330.67 142.859 322.749 139.422 300.629C138.876 297.112 140.841 293.226 141.644 289.511C143.445 290.352 145.716 290.777 146.955 292.112C149.786 295.162 151.97 298.771 154.668 301.953C171.681 322.021 193.45 336.852 213.999 353.041C242.093 375.172 241.23 401.932 218.791 440.387C189.424 490.712 140.563 515.751 91.8106 541.72C55.9684 560.815 22.6082 614.67 42.3122 658.457H70.1263C45.0585 607.678 72.9437 554.216 124.451 537.193C147.119 529.702 172.069 525.952 187.593 504.927C205.669 480.446 215.42 450.916 237.14 428.554C247.424 417.966 258.414 406.65 256.633 390.394C254.28 368.915 234.94 360.227 220.576 348.082C194.007 325.616 161.688 307.012 150.543 272.532C135.521 226.06 160.953 190.573 191.021 158.132C219.439 127.471 259.564 114.291 294.742 93.7234C299.038 91.2114 303.445 87.5847 302.36 82.2344V82.2258ZM157.969 183.249C143.436 208.842 138.29 236.732 133.903 265.272C128.701 299.102 102.885 314.876 68.6299 301.184C23.2343 283.04 -14.5284 288.051 -48.2771 322.779C-52.0958 326.708 -60.0417 332.445 -63.3453 326.754C-69.0533 316.919 -60.1949 308.58 -53.8785 301.48C-21.6707 265.274 16.2519 259.31 61.3345 278.111C78.6495 285.332 102.805 295.391 113.386 267.613C118.792 253.422 118.242 237.08 120.384 221.711C121.299 203.323 120.111 184.037 135.346 169.844C141.8 163.83 150.498 158.003 158.813 163.232C166.972 168.362 161.553 176.939 157.969 183.249Z" fill="white"/>
<path d="M171.295 401.906C165.333 396.32 157.581 411.351 151.371 417.814C138.012 431.72 122.544 439.764 103.26 431.992C85.1812 424.707 67.622 420.415 48.4642 427.614C9.03191 442.432 -24.7478 469.058 -68.0254 476.514C-105.031 482.888 -147.501 463.083 -159.014 428.294C-168.041 401.022 -160.688 371.919 -167.713 344.277C-178.945 300.084 -200.056 263.381 -244.895 244.369V264.891C-211.004 281.07 -195.603 311.072 -187.082 344.422C-175.554 389.531 -168.914 435.833 -183.96 481.216C-193.191 509.061 -217.467 523.52 -244.895 532.624V550.319C-181.909 504.581 -132.261 519.608 -85.6047 571.929C-60.9698 599.556 -35.298 599.657 -21.4687 565.756C-0.781195 515.037 31.2779 478.186 86.6665 462.748C113.186 455.357 143.003 454.882 163.093 432.379C170.968 423.56 180.759 410.779 171.297 401.91L171.295 401.906ZM71.2741 452.864C34.8679 471.477 6.57864 501.263 -28.6264 521.433C-41.1903 528.63 -55.053 532.175 -71.4867 532.259C-95.1713 531.376 -117.983 522.556 -138.866 508.914C-143.331 505.998 -149.519 501.613 -145.904 494.952C-141.129 486.15 -132.268 487.128 -124.715 490.144C-68.5094 512.588 -24.3593 486.692 19.369 457.238C34.1064 447.313 49.3856 437.312 68.9763 438.891C73.1257 439.226 76.8956 441.071 76.8689 444.332C76.8445 447.257 74.0427 451.454 71.2719 452.869L71.2741 452.864Z" fill="white"/>
<path d="M131.301 351.352C88.82 333.716 43.9262 340.086 -0.217297 343.423C-9.20451 344.101 -18.6468 352.195 -16.884 362.746C-15.7162 369.731 -6.00746 368.654 -0.308304 367.31C31.6731 359.767 63.8566 355.076 96.6617 360.128C106.386 361.625 121.356 360.51 121.323 373.984C121.288 388.011 107.096 386.947 96.917 386.07C66.816 383.48 37.148 380.281 7.35789 390.323C-55.1108 411.38 -91.8455 395.828 -107.364 333.303C-125.696 259.445 -172.135 220.982 -244.895 207.285V219.066C-244.399 219.141 -243.909 219.236 -243.436 219.383C-182.108 238.393 -133.147 308.876 -130.037 381.281C-129.042 404.432 -124.564 427.574 -101.645 440.333C-75.4252 454.93 -50.8569 443.901 -28.7286 430.222C12.2667 404.877 52.0564 380.855 104.248 401.596C118.393 407.216 136.638 400.708 144.28 384.633C150.858 370.79 144.437 356.804 131.301 351.35V351.352Z" fill="white"/>
<path d="M18.9205 44.8932C7.74201 29.0475 -15.6918 27.0992 -36.0973 41.1845C-52.7396 52.6713 -66.64 68.5732 -89.0703 69.9923C-124.253 72.2171 -146.737 51.0945 -169.001 29.2592C-199.268 -0.425553 -208.109 -2.1924 -244.895 16.1049V45.012C-210.005 28.1662 -184.073 49.7748 -156.268 65.56C-106.898 93.588 -75.0789 90.253 -26.8925 54.0515C-20.1632 48.995 -11.0139 41.9275 -4.09812 49.5976C4.27189 58.8834 -2.87703 69.4415 -10.2901 76.5349C-43.5504 108.367 -83.964 109.185 -126.567 101.267C-155.158 95.9532 -177.997 77.2196 -205.873 70.5841C-220.182 67.1778 -232.708 71.919 -244.892 78.1354V104.688C-231.285 93.9034 -216.103 85.1208 -198.256 90.4474C-169.744 98.9577 -142.616 112.045 -113.936 119.802C-74.1775 130.554 -33.593 138.803 4.39622 112.533C25.7386 97.774 33.1029 64.9897 18.9227 44.891L18.9205 44.8932Z" fill="white"/>
<path d="M359.473 344.713C357.404 360.911 358.725 382.785 335.551 391.544C320.663 397.171 324.011 383.44 322.865 375.992C319.808 356.09 307.746 342.339 291.732 330.976C285.846 326.798 276.228 323.625 277.889 315.327C280.169 303.935 291.319 299.036 301.425 295.468C337.256 282.817 359.473 300.66 359.473 344.713Z" fill="white"/>
<path d="M119.453 73.4404C120.148 91.081 114.842 105.041 95.3646 110.013C83.3247 113.087 81.0601 104.693 81.2488 96.6127C81.7949 72.9695 83.0871 49.3306 84.7145 25.7305C85.1141 19.9331 86.9257 12.736 94.6541 12.3667C105.73 11.8375 108.359 21.4386 111.319 28.9403C116.929 43.1595 119.629 58.0958 119.453 73.4404Z" fill="white"/>
</g>
</g>
<defs>
<clipPath id="clip0_5005_1999">
<rect x="0.0585938" y="0.451172" width="349" height="491" rx="22" fill="white"/>
</clipPath>
</defs>
</svg>
