<svg width="350" height="491" viewBox="0 0 350 491" fill="none" xmlns="http://www.w3.org/2000/svg">
<g clip-path="url(#clip0_101_7202)">
<rect x="0.0585938" width="349" height="491" rx="22" fill="#E59636"/>
<g style="mix-blend-mode:exclusion" opacity="0.1">
<path d="M350.478 657.998C343.098 655.332 335.081 654.864 327.417 653.982C296.45 650.418 265.905 642.215 234.394 644.429C215.827 645.733 197.38 648.617 178.819 650.099C170.585 650.755 166.033 645.245 162.963 638.158C159.815 630.892 157.364 621.066 146.734 622.807C133.297 625.008 129.514 635.923 128.151 647.686C127.953 649.388 127.627 651.075 127.36 652.768C125.855 651.77 124.155 650.967 122.878 649.742C102.917 630.628 104.666 604.207 132.134 592.855C173.737 575.661 196.716 543.35 219.621 509.157C228.875 495.344 241.679 483.749 260.157 492.337C279.239 501.206 275.676 519.562 272.157 534.621C262.739 574.942 274.415 615.014 300.959 625.991C324.899 635.89 350.953 637.307 375.816 643.498C387.69 646.453 398.982 650.682 408.642 658H455.398C441.704 650.773 428.095 643.372 414.085 636.784C391.34 626.088 366.35 623.034 341.975 617.697C304.942 609.588 288.08 573.08 295.469 532.898C305.171 480.133 343.784 451.621 383.056 422.332C417.458 396.676 448.129 368.352 447.514 321.582C447.126 292.102 433.891 267.647 412.955 247.144C381.425 216.267 385.443 182.312 401.495 146.154C417.471 110.17 429.276 73.4679 414.672 33.6636C408.868 17.8481 395.678 10.0571 383.085 1.04125C361.148 -14.6597 360.537 -29.7645 384.551 -42.1542C414.003 -57.3497 427.46 -80.0167 433.434 -110.987C440.887 -149.635 474.147 -161.911 512.978 -143.734C540.277 -130.956 562.379 -109.723 590.939 -99.1607C608.518 -92.6591 625.929 -92.739 643.175 -99.1607V-124.37C591.825 -100.478 555.936 -131.375 519.561 -160.202C497.481 -177.7 473.484 -185.493 444.575 -179.303C434.828 -177.216 417.271 -174.207 417.169 -189.792C417.069 -205.272 432.213 -204.179 444.049 -205.998H381.418C383.061 -179.609 395.29 -155.571 399.674 -129.772C405.76 -93.9572 386.926 -69.8928 360.211 -49.5781C351.113 -42.6597 341.837 -35.8038 331.924 -30.1015C321.367 -24.0276 307.538 -17.2171 300.164 -31.3003C292.558 -45.8262 307.646 -52.2154 318.103 -57.7083C338.28 -68.3095 363.479 -72.0657 370.093 -99.2341C376.751 -126.595 366.452 -151.718 361.09 -177.579C359.141 -186.977 357.878 -196.509 356.383 -205.998H332.399C335.743 -196.112 339.155 -186.245 342.359 -176.315C350.84 -150.033 362.249 -123.132 339.805 -98.3874C324.782 -81.8246 302.751 -72.2234 289.43 -53.8095C271.18 -28.5808 252.193 -4.57472 221.344 7.40026C214.195 10.1758 204.023 12.973 204.595 22.1573C205.217 32.1127 215.432 36.2318 223.565 40.5712C248.579 53.9135 276.995 49.8592 303.592 55.1425C317.213 57.8468 331.367 61.3287 336.351 76.0037C340.152 87.1946 332.916 96.3659 324.269 102.07C307.216 113.32 289.483 123.768 271.26 133.125C227.21 155.746 188.137 183.383 166.202 228.715C160.325 240.858 155.619 254.24 163.516 267.292C167.847 274.451 175.882 277.155 184.399 276.051C200.06 274.021 212.688 265.329 225.576 257.335C252.327 240.742 278.4 220.816 311.046 218.915C345.911 216.887 371.789 240.552 399.603 256.667C423.168 270.323 437.49 291.527 433.023 319.417C424.795 370.799 391.926 406.052 349.059 433.482C335.498 442.161 319.833 450.157 303.486 441.735C288.411 433.97 290.538 418.47 293.457 405.484C299.705 377.711 289.166 361.191 264.513 346.054C232.865 326.623 232.254 310.298 258.015 288.346C276.697 272.427 298.419 255.823 324.244 260.24C363.843 267.014 384.435 297.038 384.961 338.749C385.03 344.117 383.809 351.296 391.029 353.672C393.314 354.424 397.765 352.329 399.659 350.21C407.212 341.756 410.193 331.358 410.957 320.348C413.089 289.637 391.053 275.826 367.855 263.856C349.685 254.479 333.212 238.405 310.544 242.046C280.585 246.861 260.091 270.318 233.451 282.144C210.237 292.45 206.904 306.691 223.045 326.066C230.323 334.801 239.33 342.613 248.819 349.08C285.671 374.197 289.996 391.768 265.754 423.898C253.195 440.543 236.905 455.466 228.356 473.839C208.756 515.963 181.65 547 135.113 563.403C85.435 580.914 71.2193 625.382 100.554 657.996H350.48L350.478 657.998ZM206.412 247.589C199.906 253.831 188.87 262.661 181.706 253.55C171.411 240.461 185.065 229.81 193.384 221.086C228.793 183.953 273.793 158.8 315.661 129.695C332.21 118.19 347.603 104.323 352.489 84.0583C356.972 65.4737 341.289 59.4538 328.178 52.4749C324.271 50.3948 317.624 49.7663 318.314 44.632C318.565 42.7658 326.784 40.852 331.395 40.7829C356.503 40.4071 372.564 55.1468 372.564 84.7862C370.335 113.32 347.199 136.287 320.026 154.407C278.835 181.88 241.808 213.625 206.409 247.589H206.412ZM276.322 212.917C275.061 213.299 273.705 213.388 272.392 213.612C272.859 212.251 273.047 210.711 273.836 209.56C290.627 184.984 318.321 173.337 341.519 156.58C376.201 131.526 396.906 83.5269 382.124 55.1792C371.054 33.9509 352.358 25.151 325.059 25.1942C311.294 25.0387 295.262 30.5856 278.982 35.1021C272.071 37.0202 262.806 41.0486 258.932 33.21C255.155 25.5658 263.863 20.9931 270.017 17.8049C318.052 -7.09111 391.646 -0.488015 406.77 60.2552C415.762 96.3681 398.937 126.588 376.411 153.422C350.402 184.403 314.793 201.227 276.324 212.919L276.322 212.917Z" fill="white"/>
<path d="M306.379 -205.998H288.338C299.632 -192.675 308.404 -178.227 310.686 -160.401C313.528 -138.202 308.586 -117.721 292.006 -102.608C262.569 -75.7766 243.952 -39.4456 211.003 -16.0184C186.339 1.51643 159.797 -3.03899 134.827 -14.3141C105.152 -27.7147 77.0297 -25.2458 48.5339 -12.4565C46.7578 -11.6595 44.693 -11.4716 42.7637 -10.9985C43.281 -12.9404 43.5252 -15.0032 44.3578 -16.8068C54.2775 -38.2727 93.1924 -46.6902 122.929 -34.2789C152.715 -21.8438 182.527 -5.64177 213.907 -30.8316C235.312 -48.0143 247.798 -72.0485 264.427 -92.9075C277.066 -108.764 294.612 -122.128 295.538 -144.119C296.77 -173.343 280.661 -192.336 256.743 -205.996H136.665C148.008 -202.184 159.311 -198.231 170.836 -195.038C192.665 -188.99 214.36 -198.421 236.162 -196.516C257.462 -194.656 273.21 -183.621 283.44 -165.684C289.726 -154.668 289.526 -143.237 281.902 -132.358C278.909 -128.087 275.006 -125.454 269.922 -126.197C263.841 -127.085 261.35 -132.027 260.02 -137.287C251.006 -172.922 240.485 -180.428 204.145 -170.628C180.414 -164.228 162.823 -176.279 143.699 -183.856C102.135 -200.324 61.0712 -174.536 60.8802 -131.109C60.8336 -120.633 60.1365 -110.131 59.1285 -99.6963C58.4247 -92.428 56.9683 -84.0753 46.7134 -85.4814C37.3399 -86.7666 33.8831 -95.1992 34.1695 -102.813C35.7613 -144.916 44.0625 -193.837 94.8487 -205.994H57.1215C30.9036 -173.728 19.6851 -136.703 23.7969 -95.7414C25.3354 -80.4314 33.9985 -66.1064 52.5813 -68.761C72.7004 -71.6359 70.045 -90.3371 72.1742 -104.396C76.0306 -129.854 72.3007 -158.625 101.895 -172.894C121.44 -182.318 140.098 -175.845 155.961 -164.016C169.644 -153.815 182.805 -150.013 200.535 -151.826C239.721 -155.83 253.766 -136.885 244.266 -96.7739C235.591 -60.1469 205.033 -28.6413 178.069 -29.2051C157.941 -29.6263 143.166 -43.4027 125.6 -50.2391C91.3497 -63.5705 63.7553 -49.1396 37.7817 -29.069C-1.67282 1.41707 -43.9291 25.9675 -95.6145 30.3523C-100.412 30.7584 -106.116 30.0672 -107.21 24.9005C-108.434 19.1203 -102.497 17.5112 -98.1188 16.0035C-74.019 7.71345 -48.7646 2.52515 -26.2522 -10.0071C7.46316 -28.7753 11.2308 -57.3886 5.54716 -91.618C-1.15773 -131.993 8.24908 -170.395 29.0964 -205.989H9.26148C-6.7148 -167.19 -4.35698 -126.061 -6.3529 -85.4447C-7.51404 -61.7972 -12.7625 -39.0849 -30.4305 -21.4421C-66.9677 15.0423 -121.888 13.5087 -162.472 -24.0233C-167.992 -29.1273 -175.252 -39.4348 -183.353 -32.8382C-191.545 -26.166 -183.369 -17.6751 -178.382 -10.9726C-174.979 -6.3956 -171.613 -1.72571 -167.676 2.39987C-146.771 24.3086 -128.058 49.9779 -91.6581 46.5479C-69.5653 44.4656 -52.3169 31.1558 -33.2613 22.1551C7.98711 2.67203 49.604 27.8035 49.604 72.539C49.604 127.861 -8.64411 166.87 -67.3629 154.921C-107.994 146.653 -143.985 126.372 -184.317 118.154C-207.02 113.527 -234.355 128.623 -240.012 150.703C-244.749 169.196 -231.519 184.85 -207.186 191.239C-172.672 200.302 -140.497 213.038 -117.767 242.476C-93.8694 273.429 -85.3329 274.487 -51.5532 251.609C-23.4925 232.605 5.34956 223.963 39.1826 235.972C70.125 246.956 82.9753 238.886 83.2705 206.897C83.6502 165.838 103.097 139.466 141.619 124.921C174.754 112.41 192.105 81.9782 183.786 49.0448C179.348 31.4755 164.87 24.5959 147.966 28.3457C132.884 31.6915 138.415 44.8242 140.531 54.4426C146.274 80.5548 144.265 103.885 119.623 120.83C104.031 131.552 89.285 143.115 81.8874 161.202C76.2526 174.983 70.2493 188.703 59.557 199.585C35.9611 223.6 4.0774 219.561 -25.5395 222.464C-88.6565 228.648 -140.826 199.581 -193.153 171.7C-203.346 166.27 -215.525 158.494 -207.364 145.393C-199.625 132.973 -186.135 137.138 -175.534 143.331C-140.193 163.969 -105.867 185.703 -64.0504 193.652C-28.3258 200.443 7.84947 191.865 24.4296 169.851C56.3311 127.491 64.6101 79.559 62.885 28.5271C61.826 -2.77762 80.3222 -16.9061 110.845 -6.95072C159.726 8.99648 204.303 7.89272 241.248 -31.877C260.377 -52.466 275.328 -76.7875 298.715 -93.562C319.152 -108.22 328.674 -126.936 324.695 -152.044C321.671 -171.129 313.539 -188.368 306.37 -205.994L306.379 -205.998Z" fill="white"/>
<path d="M368.628 588.681C411.141 602.965 446.324 630.559 486.634 648.718C493.814 651.952 501.091 654.976 508.371 658H538.403C536.856 657.775 535.333 657.496 533.874 657.218C497.608 650.273 468.879 631.084 443.549 605.356C402.927 564.094 411.745 473.554 459.723 440.936C486.376 422.816 512.287 403.596 537.713 383.869C545.206 378.054 552.173 366.366 543.374 359.18C534.252 351.733 530.433 364.852 525.002 370.261C515.107 380.117 506.095 391.312 494.679 399.131C450.607 429.313 410.897 462.24 399.994 517.503C398.069 527.26 393.698 537.403 380.936 534.094C371.054 531.53 370.486 521.732 372.271 513.293C382.035 467.113 413.59 436.028 449.488 407.838C469.962 391.761 494.853 379.424 504.639 353.441C512.709 332.014 501.233 311.161 500.212 289.903C499.368 272.321 502.843 252.883 491.056 238.016C482.271 226.933 466.914 220.686 458.544 209.422C436.072 179.177 443.749 145.078 452.192 112.782C461.488 77.2238 469.778 42.5409 461.022 5.49705C452.843 -29.0995 453.333 -63.7803 469.685 -96.7244C472.529 -102.455 476.965 -107.784 484.378 -106.256C492.04 -104.678 493.036 -98.0593 493.003 -91.5534C492.87 -64.8236 484.631 -38.7763 487.455 -11.6274C490.106 13.8648 507.603 32.6222 527.549 28.0106C562.21 19.9949 600.463 37.5621 612.812 69.8129C625.065 101.817 618.222 136.783 625.673 169.758C629.183 185.299 631.543 201.289 643.17 213.359V162.61C636.725 145.555 635.173 127.435 634.796 109.626C633.613 53.546 607.521 17.3662 551.833 0.341154C516.188 -10.556 504.075 -33.8709 506.295 -80.8464C507.083 -97.5517 512.738 -117.257 489.595 -121.908C468.206 -126.206 462.487 -106.885 456.162 -92.087C447.226 -71.1783 433.66 -53.8962 417.864 -37.4241C401.843 -20.7166 418.737 -8.56665 427.615 3.62649C457.054 44.0485 452.658 87.8704 433.365 128.187C411.079 174.758 420.69 209.35 455.294 245.156C490.332 281.414 494.717 338.235 468.217 372.937C447.525 400.032 415.258 415.528 391.129 439.435C362.393 467.908 328.569 493.951 323.307 537.008C319.549 567.775 343.622 580.281 368.628 588.681Z" fill="white"/>
<path d="M302.36 81.7747C301.909 79.5499 297.657 77.014 294.764 76.4611C270.476 71.8171 245.199 72.6379 221.781 62.9007C213.447 59.4339 209.239 65.3739 208.573 72.6487C205.33 107.984 189.238 133.226 153.185 145.337C132.129 152.408 111.204 162.705 106.253 186.376C102.789 202.931 104.11 220.483 103.788 237.598C103.38 259.455 91.673 269.86 70.022 265.797C50.8709 262.201 32.1172 254.9 12.895 253.699C-28.4311 251.118 -53.5988 278.373 -76.6752 306.288C-87.6072 319.512 -85.7245 334.398 -71.8752 345.946C-62.7303 353.573 -52.9416 350.795 -44.2519 344.758C-33.8793 337.552 -25.1075 327.141 -13.758 322.456C45.2383 298.098 102.523 309.757 155.154 338.841C202.024 364.742 212.241 399.993 190.894 434.769C171.135 466.959 137.173 476.236 103.904 487.101C59.4274 501.625 20.4214 521.896 8.38586 571.826C1.89411 598.759 -12.0463 621.42 -42.942 626.105C-70.8694 630.341 -88.5575 612.318 -106.05 594.554C-120.841 579.538 -134.559 562.614 -155.482 555.147C-192.001 542.114 -219.114 559.897 -244.895 581.192V612.205C-237.251 601.345 -230.213 590.001 -218.703 582.274C-184.591 559.37 -155.449 564.8 -129.701 597.317C-112.242 619.366 -93.4907 640.447 -71.0848 658.006H12.7263C0.308928 607.173 23.6895 567.928 59.3075 533.701C82.0508 511.841 113.588 503.804 141.145 489.483C177.686 470.495 208.507 446.109 216.664 403.628C222.647 372.477 199.941 357.314 178.386 341.595C162.785 330.219 142.859 322.298 139.422 300.178C138.876 296.661 140.841 292.775 141.644 289.06C143.445 289.9 145.716 290.326 146.955 291.661C149.786 294.711 151.97 298.32 154.668 301.502C171.681 321.57 193.45 336.401 213.999 352.59C242.093 374.721 241.23 401.481 218.791 439.935C189.424 490.261 140.563 515.3 91.8106 541.269C55.9684 560.363 22.6082 614.218 42.3122 658.006H70.1263C45.0585 607.227 72.9437 553.765 124.451 536.742C147.119 529.251 172.069 525.501 187.593 504.476C205.669 479.995 215.42 450.465 237.14 428.103C247.424 417.515 258.414 406.199 256.633 389.942C254.28 368.464 234.94 359.776 220.576 347.63C194.007 325.164 161.688 306.56 150.543 272.081C135.521 225.608 160.953 190.122 191.021 157.681C219.439 127.02 259.564 113.84 294.742 93.2723C299.038 90.7602 303.445 87.1336 302.36 81.7833V81.7747ZM157.969 182.797C143.436 208.391 138.29 236.281 133.903 264.821C128.701 298.651 102.885 314.425 68.6299 300.733C23.2343 282.589 -14.5284 287.6 -48.2771 322.328C-52.0958 326.257 -60.0417 331.994 -63.3453 326.303C-69.0533 316.468 -60.1949 308.129 -53.8785 301.029C-21.6707 264.823 16.2519 258.859 61.3345 277.66C78.6495 284.881 102.805 294.94 113.386 267.162C118.792 252.971 118.242 236.629 120.384 221.26C121.299 202.872 120.111 183.586 135.346 169.392C141.8 163.379 150.498 157.551 158.813 162.781C166.972 167.911 161.553 176.488 157.969 182.797Z" fill="white"/>
<path d="M171.295 401.455C165.333 395.869 157.581 410.9 151.371 417.363C138.012 431.269 122.544 439.313 103.26 431.541C85.1812 424.256 67.622 419.964 48.4642 427.163C9.03191 441.98 -24.7478 468.607 -68.0254 476.063C-105.031 482.437 -147.501 462.632 -159.014 427.843C-168.041 400.571 -160.688 371.468 -167.713 343.826C-178.945 299.633 -200.056 262.93 -244.895 243.918V264.44C-211.004 280.618 -195.603 310.621 -187.082 343.971C-175.554 389.08 -168.914 435.382 -183.96 480.765C-193.191 508.61 -217.467 523.069 -244.895 532.173V549.867C-181.909 504.13 -132.261 519.157 -85.6047 571.478C-60.9698 599.104 -35.298 599.206 -21.4687 565.305C-0.781195 514.586 31.2779 477.735 86.6665 462.297C113.186 454.906 143.003 454.431 163.093 431.928C170.968 423.109 180.759 410.328 171.297 401.459L171.295 401.455ZM71.2741 452.413C34.8679 471.026 6.57864 500.812 -28.6264 520.982C-41.1903 528.179 -55.053 531.724 -71.4867 531.808C-95.1713 530.924 -117.983 522.105 -138.866 508.463C-143.331 505.547 -149.519 501.162 -145.904 494.501C-141.129 485.699 -132.268 486.677 -124.715 489.692C-68.5094 512.137 -24.3593 486.241 19.369 456.787C34.1064 446.862 49.3856 436.861 68.9763 438.44C73.1257 438.775 76.8956 440.62 76.8689 443.881C76.8445 446.806 74.0427 451.003 71.2719 452.417L71.2741 452.413Z" fill="white"/>
<path d="M131.301 350.901C88.82 333.265 43.9262 339.634 -0.217297 342.972C-9.20451 343.65 -18.6468 351.743 -16.884 362.295C-15.7162 369.28 -6.00746 368.202 -0.308304 366.859C31.6731 359.316 63.8566 354.625 96.6617 359.677C106.386 361.174 121.356 360.059 121.323 373.533C121.288 387.56 107.096 386.495 96.917 385.618C66.816 383.029 37.148 379.83 7.35789 389.871C-55.1108 410.929 -91.8455 395.377 -107.364 332.852C-125.696 258.993 -172.135 220.53 -244.895 206.834V218.615C-244.399 218.69 -243.909 218.785 -243.436 218.932C-182.108 237.942 -133.147 308.425 -130.037 380.83C-129.042 403.981 -124.564 427.123 -101.645 439.882C-75.4252 454.479 -50.8569 443.45 -28.7286 429.771C12.2667 404.425 52.0564 380.404 104.248 401.144C118.393 406.765 136.638 400.257 144.28 384.182C150.858 370.339 144.437 356.353 131.301 350.899V350.901Z" fill="white"/>
<path d="M18.9205 44.442C7.74201 28.5963 -15.6918 26.648 -36.0973 40.7333C-52.7396 52.2201 -66.64 68.122 -89.0703 69.5411C-124.253 71.7659 -146.737 50.6433 -169.001 28.808C-199.268 -0.876725 -208.109 -2.64358 -244.895 15.6537V44.5608C-210.005 27.7151 -184.073 49.3236 -156.268 65.1088C-106.898 93.1368 -75.0789 89.8018 -26.8925 53.6004C-20.1632 48.5438 -11.0139 41.4764 -4.09812 49.1465C4.27189 58.4323 -2.87703 68.9903 -10.2901 76.0837C-43.5504 107.915 -83.964 108.734 -126.567 100.816C-155.158 95.502 -177.997 76.7684 -205.873 70.1329C-220.182 66.7266 -232.708 71.4678 -244.892 77.6842V104.237C-231.285 93.4522 -216.103 84.6697 -198.256 89.9962C-169.744 98.5065 -142.616 111.594 -113.936 119.35C-74.1775 130.103 -33.593 138.352 4.39622 112.082C25.7386 97.3229 33.1029 64.5385 18.9227 44.4398L18.9205 44.442Z" fill="white"/>
<path d="M359.473 344.262C357.404 360.46 358.725 382.334 335.551 391.093C320.663 396.72 324.011 382.988 322.865 375.541C319.808 355.639 307.746 341.888 291.732 330.524C285.846 326.347 276.228 323.174 277.889 314.875C280.169 303.484 291.319 298.585 301.425 295.016C337.256 282.365 359.473 300.209 359.473 344.262Z" fill="white"/>
<path d="M119.453 72.9892C120.148 90.6298 114.842 104.59 95.3646 109.562C83.3247 112.636 81.0601 104.242 81.2488 96.1616C81.7949 72.5183 83.0871 48.8794 84.7145 25.2793C85.1141 19.4819 86.9257 12.2848 94.6541 11.9155C105.73 11.3863 108.359 20.9874 111.319 28.4891C116.929 42.7083 119.629 57.6446 119.453 72.9892Z" fill="white"/>
</g>
</g>
<defs>
<clipPath id="clip0_101_7202">
<rect x="0.0585938" width="349" height="491" rx="22" fill="white"/>
</clipPath>
</defs>
</svg>
