<svg width="316" height="500" viewBox="0 0 316 500" fill="none" xmlns="http://www.w3.org/2000/svg">
<path d="M312.582 393.406L312.743 363.953H302.334C295.071 353.275 284.016 343.269 269.061 334.635C210.854 301.012 116.47 301.012 58.2366 334.635C43.2815 343.269 32.2534 353.275 24.9641 363.953H14.5547L14.743 393.352C14.6892 394.886 14.7699 400.023 14.7699 400.023L15.0658 401.314C16.9217 421.81 31.0968 440.692 58.2097 456.347C116.416 489.969 210.827 489.969 269.034 456.347C296.147 440.692 310.457 420.519 312.313 400.023C312.313 400.023 312.582 394.886 312.528 393.406H312.582Z" fill="#EE8167"/>
<path d="M163.677 484.698C124.918 484.698 86.1581 476.171 56.6513 459.145C29.4845 443.464 14.0184 423.64 11.9203 401.853L11.5707 400.105C11.5707 400.105 11.4631 394.806 11.5438 393.246L11.3555 360.726H23.325C31.1253 349.833 42.3148 340.123 56.6513 331.838C115.665 297.786 211.69 297.786 270.704 331.838C285.04 340.123 296.256 349.833 304.057 360.726H315.999L315.811 393.353C315.865 395.048 315.623 399.674 315.596 400.185C313.552 422.699 297.601 443.598 270.704 459.145C241.197 476.171 202.437 484.698 163.677 484.698ZM18.0261 399.621L18.322 401.019C20.151 421.004 34.111 438.676 59.8521 453.551C117.09 486.608 210.21 486.608 267.449 453.551C292.491 439.106 307.284 419.982 309.14 399.755C309.248 397.953 309.382 394.537 309.329 393.569V393.407L309.49 367.209H300.641L299.672 365.81C292.41 355.159 281.57 345.61 267.449 337.46C210.21 304.403 117.09 304.403 59.8521 337.46C45.7308 345.61 34.891 355.159 27.6286 365.81L26.6603 367.209H17.8109L17.9723 393.38C17.9185 394.752 17.9723 398.491 17.9992 399.647L18.0261 399.621Z" fill="#350B00"/>
<path d="M302.333 363.954C295.07 353.276 284.015 343.27 269.06 334.636C244.691 320.568 213.974 312.472 182.234 310.186V480.825C213.974 478.539 244.691 470.442 269.06 456.375C296.173 440.72 310.483 420.547 312.339 400.051C312.339 400.051 312.608 394.913 312.554 393.434L312.715 363.981H302.306L302.333 363.954Z" fill="#350B00"/>
<path d="M269.089 303.115C327.323 336.737 327.323 391.232 269.089 424.827C210.882 458.45 116.498 458.45 58.2644 424.827C0.0576963 391.232 0.0576963 336.737 58.2644 303.115C116.471 269.493 210.882 269.493 269.089 303.115Z" fill="white"/>
<path d="M163.674 453.171C124.914 453.171 86.1546 444.644 56.6478 427.618C27.4638 410.753 11.3789 388.159 11.3789 363.951C11.3789 339.743 27.4638 317.149 56.6478 300.284C115.661 266.205 211.686 266.205 270.7 300.284C299.911 317.149 315.996 339.743 315.996 363.924C315.996 388.105 299.911 410.726 270.7 427.591C241.193 444.617 202.434 453.144 163.674 453.144V453.171ZM163.674 281.106C126.071 281.106 88.4947 289.364 59.8755 305.879C32.7626 321.533 17.8344 342.164 17.8344 363.951C17.8344 385.738 32.7626 406.369 59.8755 421.996C117.114 455.054 210.234 455.054 267.472 421.996C294.585 406.342 309.513 385.711 309.513 363.924C309.513 342.137 294.585 321.533 267.472 305.879C238.853 289.364 201.25 281.106 163.674 281.106Z" fill="#350B00"/>
<path d="M47.5058 416.211H42.9062V447.816H47.5058V416.211Z" fill="#350B00"/>
<path d="M155.177 450.021H150.551V481.626H155.177V450.021Z" fill="#350B00"/>
<path d="M273.419 424.984H271.105V452.635H273.419V424.984Z" fill="#EE8167"/>
<path d="M291.844 409.361H289.531V437.012H291.844V409.361Z" fill="#EE8167"/>
<path d="M241.166 319.221C283.987 343.94 283.987 384.018 241.166 408.737C198.371 433.456 128.948 433.456 86.127 408.737C43.3327 384.018 43.3327 343.94 86.127 319.248C128.948 294.529 198.344 294.529 241.166 319.248V319.221Z" fill="#EE8167"/>
<path d="M163.675 430.416C135.002 430.416 106.356 424.122 84.5423 411.507C62.782 398.946 50.8125 382.054 50.8125 363.952C50.8125 345.85 62.782 328.958 84.5423 316.397C128.17 291.193 199.18 291.193 242.809 316.397C264.542 328.958 276.538 345.85 276.538 363.952C276.538 382.054 264.569 398.946 242.809 411.507C220.994 424.095 192.348 430.416 163.675 430.416ZM163.675 303.889C136.186 303.889 108.696 309.941 87.77 322.018C68.1078 333.369 57.2949 348.27 57.2949 363.979C57.2949 379.687 68.1347 394.588 87.77 405.939C129.623 430.093 197.728 430.12 239.581 405.939C259.243 394.588 270.083 379.687 270.083 363.979C270.083 348.27 259.243 333.369 239.581 322.018C218.654 309.941 191.165 303.889 163.675 303.889Z" fill="#350B00"/>
<path d="M241.168 344.297C198.373 319.578 128.95 319.578 86.1291 344.297C70.2863 353.442 60.3341 364.712 56.2188 376.521C60.3341 388.329 70.2863 399.572 86.1291 408.717C128.95 433.436 198.346 433.436 241.168 408.717C257.01 399.572 266.963 388.302 271.078 376.521C266.963 364.712 257.01 353.469 241.168 344.297Z" fill="white"/>
<path d="M163.674 430.421C135.001 430.421 106.355 424.127 84.5406 411.512C68.5633 402.286 57.7235 390.559 53.1778 377.567L52.8281 376.518L53.1778 375.442C57.6966 362.451 68.5633 350.723 84.5406 341.497C128.169 316.321 199.179 316.321 242.807 341.497C258.784 350.723 269.624 362.451 274.143 375.442L274.519 376.518L274.143 377.567C269.624 390.559 258.784 402.286 242.807 411.512C220.993 424.1 192.32 430.394 163.674 430.421ZM59.6871 376.518C63.9369 387.6 73.5932 397.741 87.7683 405.944C129.621 430.125 197.726 430.099 239.579 405.944C253.754 397.768 263.437 387.6 267.66 376.518C263.411 365.436 253.754 355.269 239.579 347.092C197.726 322.938 129.648 322.938 87.7683 347.092C73.5932 355.269 63.91 365.436 59.6871 376.518Z" fill="#350B00"/>
<path d="M190.279 302.252H185.68V327.321H190.279V302.252Z" fill="#350B00"/>
<path d="M214.083 309.43H209.457V334.498H214.083V309.43Z" fill="#350B00"/>
<path d="M143.017 302.252V325.761L108.023 334.502L69.0749 357.096L56.2447 372.052L54.0391 356.666L69.0749 331.974L89.7055 317.261L116.065 306.959L143.017 302.252Z" fill="#350B00"/>
<path d="M185.117 378.448V374.279L182.534 369.761C181.512 368.254 181.082 371.347 178.957 370.137C170.699 365.376 157.331 365.376 149.101 370.137C146.976 371.347 146.653 370.567 145.604 372.074L142.914 374.279V378.448C142.914 378.664 142.941 379.39 142.941 379.39L142.995 379.578C143.264 382.483 145.254 385.146 149.101 387.379C157.358 392.139 170.726 392.139 178.957 387.379C182.803 385.173 184.821 382.295 185.09 379.39C185.09 379.39 185.117 378.664 185.117 378.448Z" fill="#EE8167"/>
<path d="M164.002 394.183C158.058 394.183 152.086 392.838 147.433 390.176C141.704 386.867 140.09 382.94 139.74 380.143L139.633 379.47C139.633 379.47 139.633 378.583 139.633 378.341V372.8L143.183 369.868C144.232 368.496 145.281 368.119 146.277 367.85C146.626 367.77 146.895 367.689 147.406 367.366C156.417 362.175 170.35 362.014 179.657 366.909C180.302 366.452 181.217 366.048 182.373 366.183C183.153 366.29 184.256 366.667 185.144 367.985L188.318 373.472V378.529C188.291 378.905 188.264 379.605 188.264 379.605C187.887 383.855 185.117 387.566 180.517 390.229C175.891 392.919 169.92 394.237 163.975 394.237L164.002 394.183ZM146.142 379.067L146.196 379.282C146.411 381.622 148.751 383.451 150.715 384.581C157.95 388.75 170.135 388.75 177.37 384.581C180.114 382.994 181.728 381.057 181.916 379.121V378.556V378.448V375.14L180.975 373.499C179.522 373.849 178.285 373.445 177.37 372.934C170.135 368.765 157.95 368.765 150.715 372.934C149.585 373.58 148.751 373.849 148.213 373.983L147.648 374.575L146.142 375.812V379.067Z" fill="#350B00"/>
<path d="M178.929 365.651C187.186 370.412 187.186 378.131 178.929 382.892C170.671 387.653 157.303 387.653 149.072 382.892C140.815 378.131 140.815 370.412 149.072 365.651C157.33 360.89 170.698 360.89 178.929 365.651Z" fill="#EE8167"/>
<path d="M164.002 389.725C158.058 389.725 152.086 388.38 147.433 385.69C142.403 382.785 139.633 378.724 139.633 374.259C139.633 369.794 142.403 365.732 147.433 362.827C156.713 357.474 171.265 357.474 180.544 362.827C185.574 365.732 188.345 369.794 188.345 374.259C188.345 378.724 185.574 382.785 180.544 385.69C175.918 388.353 169.947 389.725 164.002 389.725ZM164.002 365.328C159.134 365.328 154.292 366.378 150.688 368.449C147.783 370.116 146.115 372.241 146.115 374.285C146.115 376.33 147.783 378.455 150.688 380.122C157.923 384.291 170.108 384.291 177.343 380.122C180.248 378.455 181.916 376.33 181.916 374.285C181.916 372.241 180.248 370.143 177.343 368.449C173.739 366.351 168.871 365.328 164.029 365.328H164.002Z" fill="#350B00"/>
<path d="M147.27 499.972C102.754 496.314 65.1243 484.318 35.4023 464.306L37.9845 460.486C67.0341 480.068 103.938 491.795 147.647 495.4L147.27 499.999V499.972Z" fill="#350B00"/>
<path d="M28.6217 457.91C8.58291 441.26 1.18605 426.628 0.863281 426.009L5.00552 423.965C5.08621 424.099 12.3486 438.409 31.5536 454.359L28.5948 457.91H28.6217Z" fill="#350B00"/>
<path d="M300.18 306.231C290.659 298.484 280.061 291.706 268.656 286.138L270.674 281.996C282.401 287.725 293.321 294.692 303.112 302.654L300.207 306.231H300.18Z" fill="#350B00"/>
<path d="M259.673 282.048C206.899 259.803 153.749 267.173 153.212 267.254L152.539 262.681C153.077 262.601 207.518 255.042 261.448 277.771L259.646 282.021L259.673 282.048Z" fill="#350B00"/>
<path d="M160.903 277.482C160.85 277.67 160.769 277.805 160.607 277.913C158.483 279.257 143.366 289.613 154.502 304.622C161.952 314.655 160.554 319.604 158.456 321.89C157.972 322.428 158.456 323.289 159.155 323.101C164.319 321.702 172.846 317.129 168.139 302.201C162.087 283.104 176.558 290.043 176.02 298.516C175.966 299.189 176.8 299.592 177.257 299.081C180.431 295.638 185.945 287.273 176.02 277.778C164.185 266.427 161.28 275.734 160.876 277.509L160.903 277.482Z" fill="white"/>
<path d="M158.969 324.094C158.378 324.094 157.84 323.798 157.517 323.287C157.113 322.641 157.194 321.808 157.732 321.243C160.529 318.203 159.104 312.501 153.697 305.239C150.174 300.505 148.829 295.717 149.69 291.036C151.142 283.263 158.297 278.233 159.965 277.157C160.287 275.92 161.444 272.45 164.645 271.482C167.819 270.54 171.88 272.423 176.722 277.05C187.373 287.244 181.16 296.308 177.986 299.724C177.502 300.262 176.749 300.424 176.076 300.128C175.404 299.832 175 299.16 175.054 298.433C175.242 295.367 173.144 292.408 170.993 291.332C170.428 291.036 169.325 290.633 168.572 291.279C168.034 291.736 166.528 293.834 169.056 301.903C171.02 308.143 170.966 313.308 168.814 317.208C166.528 321.377 162.439 323.206 159.4 324.04C159.265 324.067 159.104 324.094 158.969 324.094ZM166.312 273.203C165.909 273.203 165.559 273.257 165.21 273.365C162.896 274.037 162.063 276.888 161.847 277.722C161.74 278.152 161.498 278.502 161.121 278.744C159.776 279.605 152.971 284.231 151.626 291.386C150.846 295.502 152.084 299.778 155.284 304.055C162.439 313.684 161.82 319.037 159.696 321.915C162.251 321.108 165.344 319.494 167.092 316.267C168.975 312.851 169.002 308.197 167.2 302.468C164.591 294.264 165.828 291.036 167.281 289.772C168.464 288.777 170.105 288.696 171.853 289.557C174.382 290.821 176.937 294.103 177.018 297.842C180.353 293.968 184.011 286.706 175.35 278.421C171.719 274.952 168.626 273.149 166.312 273.149V273.203Z" fill="#350B00"/>
<path d="M176.237 286.916C174.623 283.419 175.026 281.483 175.806 280.434C176.425 279.573 176.263 278.417 175.403 277.798C172.229 275.565 167.307 272.203 166.123 272.203C168.302 282.209 160.986 283.177 159.802 289.471C158.511 296.223 168.194 303.835 168.49 303.969C168.329 303.378 168.194 302.786 167.979 302.167C163.11 286.755 171.583 288.315 174.757 293.91C175.591 292.054 177.823 290.332 176.237 286.889V286.916Z" fill="#350B00"/>
<path d="M169.971 305.854L168.034 304.858C168.034 304.858 157.383 296.897 158.835 289.312C159.346 286.649 160.799 284.9 162.224 283.179C164.376 280.597 166.421 278.149 165.156 272.42L164.887 271.236H166.098C167.093 271.236 169.03 272.205 175.942 276.992C176.561 277.423 176.964 278.068 177.099 278.821C177.233 279.575 177.045 280.355 176.561 281C175.754 282.103 175.942 284.013 177.099 286.487C178.551 289.607 177.233 291.652 176.292 293.158C176.05 293.561 175.808 293.938 175.62 294.341L174.84 296.09L173.898 294.422C172.446 291.867 169.971 290.522 168.734 291.06C167.416 291.625 166.663 294.826 168.895 301.873C169.057 302.384 169.191 302.895 169.326 303.379L169.971 305.854ZM167.362 273.738C168.034 279.225 165.775 281.969 163.731 284.416C162.413 286.003 161.175 287.509 160.745 289.661C159.965 293.723 163.892 298.457 166.636 301.12C164.161 292.432 166.367 289.957 167.954 289.258C169.944 288.397 172.741 289.634 174.678 292.082C175.566 290.683 176.346 289.473 175.351 287.321C173.844 284.093 173.737 281.592 175.028 279.87C175.189 279.655 175.243 279.413 175.189 279.171C175.189 279.01 175.082 278.795 174.84 278.606C170.832 275.809 168.599 274.41 167.362 273.738Z" fill="#350B00"/>
<path d="M116.715 73.8598C116.715 73.8598 94.6584 65.2794 85.9704 81.2836C77.3093 97.2609 96.5143 111.086 96.5143 111.086C99.3386 113.453 103.615 113.507 108.376 110.575C116.58 105.545 123.009 93.6566 122.767 84.0541C122.632 78.4862 120.265 74.9357 116.715 73.8598Z" fill="#EE8167"/>
<path d="M101.487 113.807C99.4697 113.807 97.6138 113.189 96.0806 111.951L95.973 111.871C95.7847 111.736 76.1494 97.3459 85.1332 80.8037C94.117 64.2616 116.846 72.842 117.088 72.9227L117.249 72.9765C117.518 73.0572 117.787 73.1648 118.029 73.2724L118.137 73.3262C121.58 74.94 123.597 78.7595 123.758 84.0046C124.027 93.9029 117.357 106.195 108.911 111.386C106.302 112.973 103.773 113.78 101.487 113.78V113.807ZM96.2958 109.584L97.1834 110.337C99.7925 112.543 103.693 112.328 107.889 109.773C115.797 104.904 122.037 93.3919 121.795 84.1122C121.66 79.1899 119.697 75.8008 116.415 74.8324L115.232 74.4828V74.429C110.794 73.0034 93.9288 68.7267 86.8278 81.7721C79.6999 94.9251 92.7184 106.76 96.242 109.665H96.2689L96.2958 109.584Z" fill="#350B00"/>
<path d="M187.052 266.931C187.052 266.931 184.201 244.66 166.96 244.633C149.691 244.633 146.867 266.931 146.867 266.931C146.168 270.374 148.077 273.951 152.65 276.587C160.558 281.16 173.388 281.16 181.296 276.587C185.869 273.951 187.778 270.347 187.079 266.931H187.052Z" fill="#EE8167"/>
<path d="M166.986 280.979C161.633 280.979 156.254 279.795 152.165 277.428C147.458 274.711 145.172 270.892 145.898 266.911V266.777C145.952 266.535 149.072 243.645 166.959 243.645C184.873 243.645 187.993 266.561 188.02 266.777V266.965C188.074 267.207 188.127 267.476 188.127 267.745V267.906C188.343 271.511 186.056 274.954 181.726 277.428C177.637 279.795 172.285 280.979 166.932 280.979H166.986ZM148.023 265.97H148.077L147.835 267.153C147.189 270.3 149.126 273.447 153.133 275.787C160.746 280.199 173.172 280.199 180.784 275.787C184.819 273.474 186.756 270.327 186.083 267.153L185.841 265.97H185.895C185.034 261.585 181 245.635 166.959 245.635C152.918 245.635 148.884 261.585 148.023 265.97Z" fill="#350B00"/>
<path d="M157.704 211.385V245.626C157.677 247.025 158.564 248.424 160.42 249.473C164.025 251.571 169.915 251.571 173.52 249.473C175.322 248.424 176.236 247.052 176.236 245.707V211.305L157.704 211.412V211.385Z" fill="#350B00"/>
<path d="M166.984 252.03C164.456 252.03 161.927 251.466 159.937 250.309C157.839 249.099 156.682 247.404 156.736 245.575V210.393L177.232 210.285V245.683C177.232 247.485 176.103 249.126 174.031 250.309C172.068 251.439 169.513 252.03 166.984 252.03ZM158.7 212.356V245.602C158.673 246.705 159.453 247.781 160.905 248.614C164.268 250.551 169.701 250.551 173.036 248.614C174.462 247.781 175.269 246.732 175.269 245.683V212.276L158.7 212.356Z" fill="#350B00"/>
<path d="M119.296 189.249C119.296 189.249 126.128 242.13 167.093 242.076C208.059 242.022 214.702 189.087 214.702 189.087C216.37 180.91 211.824 172.411 200.957 166.17C182.156 155.358 151.735 155.411 132.987 166.305C122.147 172.599 117.628 181.126 119.323 189.276L119.296 189.249Z" fill="white"/>
<path d="M167.009 243.054C125.694 243.054 118.351 189.931 118.298 189.393L118.244 188.963C116.657 180.167 121.794 171.614 132.473 165.427C151.463 154.426 182.395 154.372 201.412 165.32C212.144 171.479 217.335 180.086 215.694 188.936V189.205C215.614 189.743 208.432 243 167.09 243.054H167.036H167.009ZM120.396 190.173C121.633 197.489 130.563 241.117 167.009 241.117H167.063C203.456 241.064 212.278 197.597 213.543 190.092H213.489L213.704 188.909C215.372 180.813 210.53 172.824 200.443 167.041C181.965 156.416 151.893 156.47 133.441 167.149C123.354 172.985 118.567 180.974 120.261 189.07L120.476 190.173H120.396Z" fill="#350B00"/>
<path d="M200.958 166.227C219.732 177.067 219.732 194.632 200.958 205.471C182.183 216.311 151.762 216.311 132.987 205.471C114.213 194.632 114.213 177.067 132.987 166.227C151.762 155.388 182.183 155.388 200.958 166.227Z" fill="#350B00"/>
<path d="M166.96 214.542C154.479 214.542 141.999 211.799 132.477 206.312C123.09 200.878 117.898 193.616 117.898 185.842C117.898 178.069 123.063 170.807 132.477 165.373C151.494 154.399 182.426 154.399 201.443 165.373C210.83 170.807 215.994 178.069 215.994 185.842C215.994 193.616 210.83 200.878 201.443 206.312C191.921 211.799 179.441 214.542 166.96 214.542ZM166.96 159.079C154.829 159.079 142.698 161.742 133.472 167.068C124.704 172.125 119.889 178.795 119.889 185.842C119.889 192.89 124.704 199.56 133.472 204.617C151.951 215.269 181.996 215.269 200.475 204.617C209.243 199.56 214.058 192.89 214.058 185.842C214.058 178.795 209.243 172.125 200.475 167.068C191.249 161.742 179.118 159.079 166.96 159.079Z" fill="#350B00"/>
<path d="M245.391 158.508C245.391 156.545 245.149 154.581 244.719 152.645C242.809 138.55 235.95 101.136 214.055 64.5547L166.931 68.5356L119.806 64.5547C97.9379 101.163 91.0789 138.55 89.1692 152.645C86.1566 166.094 93.5535 180.188 111.467 190.517C142.104 208.189 191.757 208.189 222.394 190.517C237.725 181.667 245.364 170.075 245.364 158.508H245.391Z" fill="white"/>
<path d="M166.96 204.717C146.706 204.717 126.425 200.279 111.012 191.349C93.2869 181.101 85.0024 166.926 88.257 152.401C90.1936 138.091 97.1332 100.65 119.028 64.015L119.351 63.5039L167.067 67.5117L214.623 63.5039L214.945 64.015C236.84 100.677 243.753 138.091 245.716 152.482C246.174 154.472 246.416 156.516 246.416 158.48C246.416 170.933 238.077 182.607 222.961 191.349C207.522 200.252 187.268 204.717 167.014 204.717H166.96ZM120.373 65.575C98.9085 101.752 92.1034 138.575 90.1667 152.777C87.1004 166.495 95.0352 179.89 111.981 189.681C142.295 207.192 191.625 207.192 221.939 189.681C236.437 181.316 244.425 170.234 244.425 158.507C244.425 156.678 244.21 154.795 243.78 152.858C241.843 138.575 235.038 101.752 213.574 65.575L167.067 69.5021L120.4 65.575H120.373Z" fill="#350B00"/>
<path d="M200.958 50.4091C219.732 61.2489 219.732 78.8131 200.958 89.6529C182.183 100.493 151.762 100.493 132.987 89.6529C114.213 78.8131 114.213 61.2489 132.987 50.4091C151.762 39.5693 182.183 39.5693 200.958 50.4091Z" fill="#EE8167"/>
<path d="M166.96 98.7123C154.479 98.7123 141.999 95.9687 132.477 90.4816C123.09 85.0482 117.898 77.7858 117.898 70.0124C117.898 62.2389 123.063 54.9766 132.477 49.5432C151.494 38.5689 182.426 38.5689 201.443 49.5432C210.83 54.9766 215.994 62.2389 215.994 70.0124C215.994 77.7858 210.83 85.0482 201.443 90.4816C191.921 95.9687 179.441 98.7123 166.96 98.7123ZM166.96 43.2491C154.829 43.2491 142.698 45.912 133.472 51.2378C124.704 56.2945 119.889 62.9652 119.889 70.0124C119.889 77.0596 124.704 83.7302 133.472 88.787C151.951 99.4385 181.996 99.4385 200.475 88.787C209.243 83.7302 214.058 77.0596 214.058 70.0124C214.058 62.9652 209.243 56.2945 200.475 51.2378C191.249 45.912 179.118 43.2491 166.96 43.2491Z" fill="#350B00"/>
<path d="M214.648 59.2008C214.648 59.2008 207.923 6.31987 166.931 6.29297C125.966 6.29297 119.241 59.2008 119.241 59.2008H119.268C117.574 67.3777 122.092 75.8774 132.959 82.1446C151.734 92.9844 182.155 92.9844 200.93 82.1446C211.796 75.8774 216.315 67.3508 214.621 59.2008H214.648Z" fill="white"/>
<path d="M166.957 91.2375C154.476 91.2375 141.996 88.494 132.474 83.0069C121.742 76.8204 116.577 68.2131 118.245 59.3637V59.0948C118.353 58.5568 125.588 5.32617 166.93 5.32617C208.272 5.32617 215.534 58.5568 215.615 59.0948L215.669 59.4982C217.256 68.3207 212.091 76.8473 201.413 83.0069C191.891 88.494 179.411 91.2375 166.93 91.2375H166.957ZM120.397 58.234H120.451L120.236 59.4175C118.541 67.5137 123.383 75.5024 133.442 81.3123C151.921 91.9638 181.966 91.9638 200.445 81.3123C210.531 75.4755 215.346 67.5137 213.651 59.4175L213.409 58.234H213.49C212.226 50.7027 203.296 7.28971 166.93 7.28971C130.564 7.28971 121.661 50.7296 120.397 58.234Z" fill="#350B00"/>
<path d="M173.199 11.7057C176.642 13.6961 176.642 16.9239 173.199 18.9143C169.757 20.9047 164.162 20.9047 160.719 18.9143C157.276 16.9239 157.276 13.6961 160.719 11.7057C164.162 9.71528 169.757 9.71528 173.199 11.7057Z" fill="#EE8167"/>
<path d="M166.986 21.3874C164.565 21.3874 162.144 20.8494 160.261 19.7466C158.271 18.59 157.168 17.03 157.168 15.3085C157.168 13.587 158.271 12.0001 160.261 10.8704C164.027 8.69165 169.944 8.69165 173.71 10.8704C175.7 12.027 176.776 13.587 176.776 15.3085C176.776 17.03 175.674 18.6169 173.71 19.7466C171.827 20.8225 169.406 21.3874 166.986 21.3874ZM166.986 11.1931C164.888 11.1931 162.79 11.6504 161.23 12.538C159.885 13.3181 159.132 14.2864 159.132 15.2816C159.132 16.2768 159.885 17.2451 161.23 18.0252C164.35 19.8273 169.595 19.8273 172.715 18.0252C174.06 17.2451 174.813 16.2768 174.813 15.2816C174.813 14.2864 174.087 13.3181 172.715 12.538C171.155 11.6235 169.057 11.1931 166.959 11.1931H166.986Z" fill="#350B00"/>
<path d="M230.868 130.993C230.868 130.993 256.259 125.479 254.511 105.575C252.762 85.6703 226.779 84.6751 226.779 84.6751C222.744 84.2179 218.791 86.7731 216.235 92.3141C211.77 101.89 213.088 116.683 219.14 125.318C222.637 130.321 226.967 132.15 230.868 130.993Z" fill="#EE8167"/>
<path d="M228.526 132.306C224.895 132.306 221.291 130.073 218.332 125.877C212.092 116.974 210.747 101.75 215.347 91.9055C217.983 86.257 222.098 83.2444 226.67 83.7017H226.832C227.101 83.7017 253.703 84.9928 255.505 105.489C257.307 126.012 231.351 131.902 231.082 131.956H230.893C230.571 132.064 230.275 132.145 229.979 132.198H229.871C229.414 132.279 228.957 132.306 228.5 132.306H228.526ZM225.864 85.6114C222.421 85.6114 219.274 88.1667 217.122 92.7393C212.818 102.019 214.082 116.382 219.946 124.775C223.066 129.24 226.939 131.149 230.598 130.073L231.862 129.697V129.751C236.757 128.352 254.994 122.058 253.568 105.677C252.116 89.0812 232.507 86.2032 227.8 85.7459V85.7997L226.724 85.6921C226.428 85.6652 226.159 85.6383 225.89 85.6383L225.864 85.6114Z" fill="#350B00"/>
<path d="M142.855 42.473C134.598 37.7121 131.424 30.9607 133.334 24.6935C133.441 24.3708 133.038 24.1556 132.823 24.4246C127.389 31.929 124.027 40.4018 122.01 47.0994C120.261 54.819 124.673 63.0766 134.974 69.021C143.555 73.9702 154.744 76.4986 165.987 76.5793C170.399 76.6331 174.46 74.2392 176.612 70.3928L176.72 70.2045C179.732 64.7981 179.517 58.2081 176.155 53.0438C174.245 50.085 170.964 48.1753 167.413 48.2022C158.537 48.2829 149.634 46.3462 142.882 42.4461L142.855 42.473Z" fill="#EE8167"/>
<path d="M166.067 77.5462H165.933C154.044 77.4386 142.855 74.695 134.463 69.8534C124.134 63.8821 119.131 55.3018 121.041 46.8828C122.897 40.7232 126.286 31.7931 132.015 23.8583C132.365 23.3472 133.037 23.1859 133.602 23.4548C134.167 23.7238 134.436 24.3694 134.247 24.9611C132.391 31.04 135.781 37.2534 143.312 41.6108C149.606 45.242 157.944 47.2324 166.901 47.2324C167.09 47.2324 167.251 47.2324 167.439 47.2324C171.259 47.2324 174.782 49.196 176.934 52.5044C180.485 57.9915 180.7 64.9311 177.526 70.6604L177.418 70.8487C175.132 74.9909 170.775 77.5462 166.067 77.5462ZM131.827 27.624C127.308 34.6174 124.537 42.095 122.95 47.3669C121.256 54.8445 125.909 62.6448 135.458 68.1589C143.581 72.8391 154.421 75.502 165.987 75.6096C170.129 75.6365 173.787 73.4577 175.751 69.9072L175.858 69.7189C178.682 64.6353 178.494 58.4488 175.32 53.5803C173.572 50.8636 170.586 49.196 167.466 49.196C167.278 49.196 167.116 49.196 166.928 49.196C157.648 49.196 148.96 47.1248 142.37 43.3054C135.269 39.2169 131.504 33.5146 131.827 27.624Z" fill="#350B00"/>
<path d="M166.579 72.0605C155.336 71.9529 148.585 71.0115 139.359 66.0892C128.869 60.4944 123.543 53.8776 126.394 44.1675C127.793 39.5142 129.864 34.0271 132.823 28.5937C132.796 27.2757 132.93 25.9846 133.334 24.6935C133.441 24.3708 133.038 24.1556 132.823 24.4246C127.389 31.929 124.027 40.4018 122.01 47.0994C120.261 54.819 124.673 63.0766 134.974 69.021C143.555 73.9702 154.744 76.5793 165.987 76.5793C170.426 76.5793 173.734 73.3785 175.993 71.0115C176.128 70.8501 175.993 70.608 175.751 70.6887C172.039 71.9798 168.005 72.0605 166.579 72.0605Z" fill="#350B00"/>
<path d="M165.96 77.5462C154.259 77.5462 143.07 74.8026 134.463 69.8534C124.134 63.8821 119.131 55.3018 121.041 46.8828C122.897 40.7232 126.286 31.7931 132.015 23.8583C132.365 23.3472 133.037 23.1859 133.602 23.4548C134.167 23.7238 134.436 24.3694 134.247 24.9611C133.898 26.1177 133.736 27.3281 133.763 28.5385V28.8075L133.629 29.0496C131.127 33.7029 128.922 39.0286 127.281 44.4351C124.806 52.8541 128.653 59.2826 139.761 65.2001C148.88 70.0686 155.658 70.9562 166.525 71.0638C168.031 71.0907 171.85 70.9831 175.374 69.7727C175.912 69.5845 176.477 69.7727 176.773 70.2569C177.069 70.7142 177.015 71.3059 176.638 71.7094C173.733 74.7488 170.425 77.5731 165.933 77.5731L165.96 77.5462ZM131.853 27.5971C127.335 34.6174 124.537 42.095 122.95 47.3669C121.256 54.8445 125.909 62.6448 135.458 68.1589C143.769 72.9467 154.609 75.6096 165.96 75.6096C168.73 75.6096 171.043 74.2378 173.142 72.4356C170.344 73.0005 167.735 73.0543 166.578 73.0543C155.389 72.9467 148.369 72.0053 138.928 66.9485C126.985 60.6006 122.735 53.2575 125.479 43.8971C127.119 38.4369 129.325 33.0573 131.853 28.3502C131.853 28.1081 131.853 27.8392 131.853 27.5971Z" fill="#350B00"/>
<path d="M136.133 48.2035C135.864 51.6195 134.304 54.2554 132.663 54.121C131.023 53.9865 129.92 51.1353 130.189 47.7193C130.458 44.3033 131.991 41.6673 133.632 41.8018C135.272 41.9363 136.375 44.7874 136.106 48.2035H136.133Z" fill="white"/>
<path d="M132.798 55.1191C132.798 55.1191 132.663 55.1191 132.609 55.1191C130.35 54.9308 128.897 51.73 129.247 47.6685C129.57 43.6069 131.507 40.675 133.739 40.8364C135.972 41.0247 137.424 44.2255 137.101 48.2871C136.967 50.0624 136.483 51.7569 135.756 52.9942C134.95 54.366 133.9 55.1191 132.798 55.1191ZM133.524 42.8C132.717 42.8 131.399 44.7635 131.157 47.8298C130.915 50.95 131.937 53.1018 132.744 53.1825C133.094 53.1825 133.631 52.779 134.062 52.0259C134.627 51.0307 135.03 49.632 135.138 48.1526C135.38 45.0325 134.358 42.8807 133.551 42.8H133.524Z" fill="#350B00"/>
<path d="M166.339 59.982C166.339 63.8822 163.165 67.0024 159.291 66.9755C155.418 66.9755 152.325 63.7746 152.352 59.8744C152.352 55.9743 155.526 52.8541 159.399 52.881C163.245 52.9079 166.365 56.0819 166.339 59.982Z" fill="white"/>
<path d="M159.345 67.9451H159.318C154.907 67.9182 151.356 64.287 151.383 59.8758C151.383 57.724 152.244 55.7335 153.75 54.2273C155.256 52.721 157.22 51.9141 159.399 51.9141C163.783 51.941 167.333 55.5722 167.333 59.9834C167.333 62.1352 166.473 64.1256 164.966 65.6319C163.46 67.1113 161.47 67.9451 159.372 67.9451H159.345ZM159.345 53.8507C157.758 53.8507 156.251 54.4693 155.122 55.5991C153.965 56.7288 153.347 58.2619 153.32 59.8758C153.32 63.238 155.956 65.9547 159.291 65.9816C160.985 65.9816 162.411 65.3629 163.541 64.2332C164.697 63.1035 165.316 61.5704 165.343 59.9565C165.343 56.6212 162.68 53.8776 159.372 53.8507H159.345Z" fill="#350B00"/>
<path d="M178.336 145.333L173.548 130.566C172.956 128.791 171.262 127.607 169.406 127.661C144.391 128.064 126.665 118.865 119.887 114.669C118.085 113.567 115.771 113.889 114.4 115.503L108.563 122.281C104.824 126.639 102.054 131.749 100.601 137.29C92.4511 168.492 99.6597 181.591 99.7673 181.806C102.968 184.846 106.841 187.724 111.387 190.36C129.409 200.769 154.047 205.046 177.502 203.19C183.15 187.508 182.236 168.519 181.106 158.217C180.622 153.859 179.68 149.556 178.336 145.36V145.333Z" fill="#EE8167"/>
<path d="M166.661 204.559C145.815 204.559 125.938 199.852 110.902 191.164C106.383 188.555 102.429 185.65 99.0938 182.476L98.9056 182.234C98.6097 181.696 91.4818 168.301 99.6318 136.992C101.084 131.424 103.909 126.098 107.809 121.579L113.646 114.801C115.34 112.838 118.164 112.407 120.397 113.779C126.825 117.787 144.39 127.013 169.378 126.636C171.664 126.636 173.762 128.035 174.461 130.241L179.249 145.007C180.648 149.338 181.589 153.722 182.073 158.053C183.176 168.166 184.171 187.506 178.415 203.456L178.2 204.048L177.555 204.102C173.896 204.398 170.238 204.532 166.634 204.532L166.661 204.559ZM100.546 181.185C103.72 184.197 107.54 186.968 111.843 189.469C129.004 199.368 152.647 204.021 176.775 202.219C182.154 186.753 181.186 168.086 180.11 158.295C179.653 154.099 178.711 149.822 177.366 145.626L172.578 130.859C172.148 129.514 170.884 128.627 169.431 128.627H169.378C143.905 129.003 125.938 119.562 119.348 115.474C117.949 114.613 116.174 114.882 115.098 116.092L109.261 122.871C105.549 127.147 102.86 132.204 101.488 137.503C93.9295 166.526 99.8201 179.786 100.493 181.185H100.546Z" fill="#350B00"/>
<path d="M107.217 175.97C107.217 177.691 106.248 179.09 105.038 179.09C103.828 179.09 102.859 177.691 102.859 175.97C102.859 174.248 103.828 172.85 105.038 172.85C106.248 172.85 107.217 174.248 107.217 175.97Z" fill="white"/>
<path d="M105.038 180.081C103.262 180.081 101.891 178.279 101.891 175.993C101.891 173.706 103.289 171.904 105.038 171.904C106.786 171.904 108.185 173.706 108.185 175.993C108.185 178.279 106.813 180.081 105.038 180.081ZM105.038 173.841C104.473 173.841 103.827 174.755 103.827 175.993C103.827 177.23 104.473 178.145 105.038 178.145C105.603 178.145 106.248 177.23 106.248 175.993C106.248 174.755 105.629 173.841 105.038 173.841Z" fill="#350B00"/>
<path d="M119 124.724C118.193 126.257 116.686 127.037 115.637 126.472C114.588 125.907 114.4 124.24 115.207 122.706C116.014 121.2 117.52 120.393 118.569 120.958C119.618 121.523 119.807 123.191 119 124.724Z" fill="white"/>
<path d="M116.362 127.629C115.932 127.629 115.529 127.521 115.152 127.333C114.372 126.929 113.861 126.095 113.726 125.073C113.619 124.159 113.834 123.164 114.318 122.276C114.802 121.361 115.502 120.635 116.309 120.205C117.223 119.721 118.191 119.694 118.971 120.124C120.505 120.958 120.881 123.19 119.805 125.208C119.321 126.122 118.622 126.849 117.788 127.279C117.304 127.521 116.793 127.655 116.309 127.655L116.362 127.629ZM117.842 121.738C117.6 121.738 117.384 121.846 117.25 121.899C116.793 122.141 116.362 122.599 116.066 123.137C115.771 123.701 115.636 124.293 115.69 124.804C115.69 124.993 115.771 125.423 116.093 125.557C116.389 125.719 116.793 125.557 116.954 125.45C117.411 125.208 117.842 124.751 118.138 124.213C118.702 123.137 118.595 122.034 118.138 121.765C118.057 121.711 117.949 121.711 117.869 121.711L117.842 121.738Z" fill="#350B00"/>
<path d="M172.822 194.44C172.822 196.162 171.424 197.561 169.702 197.561C167.981 197.561 166.582 196.162 166.582 194.44C166.582 192.719 167.981 191.32 169.702 191.32C171.424 191.32 172.822 192.719 172.822 194.44Z" fill="white"/>
<path d="M169.702 198.53C167.442 198.53 165.613 196.701 165.613 194.442C165.613 192.183 167.442 190.354 169.702 190.354C171.961 190.354 173.817 192.183 173.817 194.442C173.817 196.701 171.988 198.53 169.702 198.53ZM169.702 192.29C168.518 192.29 167.55 193.258 167.55 194.442C167.55 195.625 168.518 196.594 169.702 196.594C170.885 196.594 171.854 195.625 171.854 194.442C171.854 193.258 170.885 192.29 169.702 192.29Z" fill="#350B00"/>
<path d="M168.975 137.935C168.975 139.656 167.576 141.055 165.855 141.055C164.133 141.055 162.734 139.656 162.734 137.935C162.734 136.213 164.133 134.814 165.855 134.814C167.576 134.814 168.975 136.213 168.975 137.935Z" fill="white"/>
<path d="M165.854 142.025C163.594 142.025 161.738 140.196 161.738 137.936C161.738 135.677 163.594 133.848 165.854 133.848C168.113 133.848 169.942 135.677 169.942 137.936C169.942 140.196 168.113 142.025 165.854 142.025ZM165.854 135.784C164.67 135.784 163.702 136.753 163.702 137.936C163.702 139.12 164.67 140.088 165.854 140.088C167.037 140.088 168.005 139.12 168.005 137.936C168.005 136.753 167.037 135.784 165.854 135.784Z" fill="#350B00"/>
<path d="M232.833 131.232C219.868 124.831 219.922 106.218 219.922 105.438H221.885C221.885 105.626 221.885 123.647 233.694 129.484L232.833 131.232Z" fill="#350B00"/>
<path d="M221.885 101.275L219.922 101.141C219.922 100.872 220.487 94.2547 223.849 89.709L225.409 90.8656C222.37 94.954 221.859 101.221 221.859 101.275H221.885Z" fill="#350B00"/>
<path d="M87.5833 92.3713C87.5026 91.9678 85.9156 82.5267 96.1906 75.7754L97.2665 77.4162C88.0675 83.4681 89.493 91.9409 89.493 92.0485L87.5833 92.3982V92.3713Z" fill="#350B00"/>
<path d="M167.466 26.0883C155.282 26.0883 152.35 18.1803 152.242 17.8037L154.071 17.1582C154.206 17.481 157.111 25.2275 170.156 24.0171L170.344 25.9538C169.322 26.0345 168.381 26.0883 167.466 26.0883Z" fill="#350B00"/>
<path d="M186.324 196.627L186.082 194.69C186.27 194.69 205.717 192.161 220.942 182.936L221.964 184.603C206.39 194.044 186.539 196.6 186.351 196.627H186.324Z" fill="#350B00"/>
<path d="M237.133 169.531L235.949 167.971C235.949 167.971 239.123 165.497 240.468 159.768L242.378 160.225C240.845 166.68 237.267 169.424 237.133 169.531Z" fill="#350B00"/>
<path d="M164.806 237.858C145.709 237.401 138.769 225.324 138.5 224.813L140.195 223.871C140.195 223.871 146.919 235.491 164.833 235.921L164.779 237.885L164.806 237.858Z" fill="#350B00"/>
<path d="M165.881 276.506C155.607 276.506 150.254 269.943 150.012 269.621L151.545 268.41C151.787 268.706 157.489 275.646 168.491 274.408L168.706 276.345C167.737 276.453 166.796 276.506 165.908 276.506H165.881Z" fill="#350B00"/>
<path d="M134.708 14.9595L133.336 13.5877C133.793 13.1304 145.036 1.99479 163.569 0.03125L163.784 1.96789C145.924 3.87762 134.842 14.8519 134.735 14.9595H134.708Z" fill="#350B00"/>
<path d="M191.355 242.698L190.359 241.03C190.359 241.03 203.486 233.096 209.134 220.131L210.936 220.911C205.019 234.467 191.92 242.402 191.355 242.725V242.698Z" fill="#350B00"/>
<path d="M163.405 341.229C162.921 341.229 162.41 341.148 161.872 340.987C159.639 340.261 157.891 338.082 157.676 335.715C157.514 334.101 157.945 331.008 162.437 328.533C171.447 323.557 174.487 315.299 174.514 315.219L176.343 315.891C176.208 316.268 173.007 324.929 163.351 330.255C160.742 331.707 159.397 333.563 159.585 335.527C159.747 337.114 160.93 338.647 162.437 339.131C163.19 339.373 164.319 339.454 165.261 338.351L166.74 339.642C165.826 340.691 164.615 341.229 163.351 341.229H163.405Z" fill="#350B00"/>
<path d="M170.131 339.853C169.593 338.239 168.759 337.163 167.683 336.652C166.177 335.926 164.59 336.491 164.563 336.491L163.891 334.662C163.891 334.662 166.258 333.801 168.544 334.904C170.131 335.657 171.314 337.136 172.014 339.261L170.158 339.88L170.131 339.853Z" fill="#350B00"/>
<path d="M83.6007 156.576L81.6641 156.28C81.6641 156.065 84.9725 135.084 89.0341 123.088L90.89 123.707C86.9091 135.568 83.6276 156.387 83.6007 156.576Z" fill="#350B00"/>
<path d="M181.618 3.5774C177.825 2.17872 169.03 1.96353 168.949 1.96353L169.003 0C169.38 0 178.175 0.21518 182.29 1.72145L181.618 3.5505V3.5774Z" fill="#350B00"/>
<path d="M180.839 246.568L180.328 244.685C180.328 244.685 183.986 243.689 187.967 241.807L188.801 243.582C184.632 245.545 180.974 246.541 180.812 246.568H180.839Z" fill="#350B00"/>
<path d="M148.411 166.23L149.055 165.858L149.659 165.51L149.633 165.484L150.25 165.169C150.93 164.821 151.805 163.746 151.805 160.474C151.805 157.476 150.433 154.775 148.892 152.722C147.345 150.662 145.682 149.325 145.211 149.053L145.211 149.052C144.879 148.861 144.107 148.421 143.065 147.829L142.812 147.685V147.394V145.676L140.808 144.518V145.688V146.547L140.061 146.123C138.952 145.494 137.749 144.813 136.534 144.124L136.281 143.981V143.689V141.905L134.276 140.747V141.987V142.845L133.53 142.422C131.65 141.358 129.911 140.374 128.642 139.655L127.32 138.907V143.801L129.296 144.942L129.609 145.123L129.535 145.477L128.695 149.506L130.216 150.368V149.19V148.324L130.966 148.757L133.97 150.492L134.22 150.637V150.925V152.641C135.134 153.16 135.812 153.547 136.119 153.725C136.738 154.083 138.496 155.524 140.099 157.66C141.708 159.803 143.213 162.714 143.213 166.013C143.213 166.357 143.201 166.674 143.183 166.975C143.103 168.366 142.847 169.392 142.472 170.141M148.411 166.23L142.025 169.918M148.411 166.23L148.999 166.686M148.411 166.23L148.999 166.686M142.472 170.141L142.025 169.918M142.472 170.141C142.472 170.141 142.472 170.141 142.472 170.141L142.025 169.918M142.472 170.141C142.308 170.469 142.05 170.685 141.819 170.842C141.703 170.921 141.583 170.992 141.477 171.054L141.462 171.063C141.363 171.121 141.276 171.172 141.194 171.226M142.025 169.918C141.859 170.25 141.533 170.441 141.205 170.634C141.104 170.693 141.003 170.752 140.907 170.816M141.194 171.226C141.198 171.222 141.203 171.219 141.207 171.216L140.907 170.816M141.194 171.226C141.19 171.228 141.186 171.231 141.182 171.234L140.907 170.816M141.194 171.226L140.907 170.816M130.716 149.19L131.216 149.479V149.19H130.716ZM130.716 149.19L130.465 149.623L130.716 149.768V149.19ZM149.305 166.291L149.612 165.896C149.665 165.938 149.719 165.98 149.771 166.022L149.305 166.291ZM149.305 166.291L149.555 166.724L149.717 166.631C149.584 166.514 149.447 166.401 149.305 166.291ZM148.999 166.686C151.214 168.405 152.287 171.013 152.8 173.245C153.055 174.355 153.168 175.355 153.217 176.078C153.24 176.413 153.248 176.687 153.251 176.884L148.999 166.686ZM139.829 171.294C139.448 171.36 139.059 171.322 138.705 171.152C139.056 171.355 139.383 171.577 139.689 171.816C139.903 171.798 140.114 171.752 140.318 171.684C140.161 171.55 139.998 171.42 139.829 171.294ZM130.716 151.226V150.651L130.216 150.943L130.716 151.226ZM150.902 165.33L150.829 165.258L150.828 165.258L150.478 165.614L150.902 165.33ZM142.138 188.118L143.706 187.212C143.798 187.048 143.882 186.87 143.958 186.678C143.988 186.601 144.017 186.521 144.045 186.439L143.333 186.851C143.032 187.439 142.63 187.831 142.138 188.118ZM144.469 183.083L144.469 183.077C144.469 183.073 144.469 183.069 144.469 183.065H143.969C144.468 183.092 144.468 183.092 144.468 183.092L144.468 183.091L144.468 183.089L144.469 183.083ZM150.969 182.44L151.13 182.84L151.131 182.843L151.595 182.656L151.593 182.653L151.345 182.223L150.969 182.44Z" fill="#EE8167" stroke="#350B00"/>
<path d="M128.059 176.59C128.059 176.59 131.34 178.485 131.379 178.507C133.29 179.61 134.839 178.716 134.839 176.509C134.839 174.303 133.29 171.62 131.379 170.517C131.34 170.494 128.059 168.6 128.059 168.6L128.059 176.59Z" fill="#EE8167"/>
<path d="M133.532 162.685C133.532 160.645 132.099 158.164 130.332 157.144L128.148 155.883V163.272L130.332 164.533C132.099 165.553 133.532 164.726 133.532 162.685Z" fill="#EE8167"/>
<path d="M141.984 188.125L141.985 188.126L142.007 188.113C142 188.118 141.992 188.12 141.984 188.125Z" fill="#EE8167"/>
<path d="M124.124 146.899L118.179 143.534L126.766 138.576L132.712 141.942L124.124 146.899Z" fill="#EE8167" stroke="#350B00"/>
<path d="M127.134 146.527L125.129 145.369L133.721 140.408L135.725 141.566L127.134 146.527Z" fill="#EE8167" stroke="#350B00"/>
<path d="M136.224 143.351L127.633 148.311V147.392L136.224 142.432V143.351Z" fill="#EE8167" stroke="#350B00"/>
<path d="M130.659 151.176L140.252 145.639L136.724 143.64L127.133 149.177L130.659 151.176Z" fill="#EE8167"/>
<path d="M142.257 145.337L133.665 150.297L131.66 149.139L140.252 144.179L142.257 145.337Z" fill="#EE8167" stroke="#350B00"/>
<path d="M142.756 146.204V147.056L134.164 152.017V151.164L142.756 146.204Z" fill="#EE8167" stroke="#350B00"/>
<path d="M117.172 170.267L126.763 164.729L128.99 166.014L119.398 171.552L117.172 170.267Z" fill="#EE8167"/>
<path d="M127.133 183.92L128.747 182.988L127.133 182.057V183.92Z" fill="#EE8167"/>
<path d="M133.664 187.691L135.239 186.781L133.664 185.827V187.691Z" fill="#EE8167"/>
<path d="M138.416 171.544L138.862 170.649C138.888 170.662 138.914 170.674 138.94 170.686C138.959 170.695 138.983 170.705 139.011 170.716C139.105 170.753 139.241 170.801 139.405 170.838C139.737 170.913 140.155 170.941 140.566 170.794C141.328 170.523 142.395 169.513 142.547 165.906C142.544 162.923 141.085 160.241 139.448 158.199C137.809 156.153 136.046 154.819 135.563 154.54C135.23 154.349 134.458 153.909 133.417 153.316L133.164 153.172V152.882V151.163L131.159 150.006V151.176V152.034L130.413 151.611C129.304 150.982 128.101 150.3 126.886 149.612L126.632 149.468V149.177V147.392L124.627 146.235V147.476V148.333L123.881 147.911C122.002 146.846 120.263 145.862 118.994 145.144L117.672 144.395V149.289L119.648 150.43L119.898 150.574V150.863V171.552V172.418L119.148 171.985L117.672 171.133V176.018L124.377 179.89L124.627 180.034V180.323V181.897L126.632 183.055V182.057V181.191L127.382 181.624L130.909 183.66L131.159 183.805V184.093V185.668L133.164 186.826V185.829V184.962L133.914 185.396L135.451 186.283L135.466 186.292L138.416 171.544ZM138.416 171.544L138.65 171.102C138.416 171.544 138.417 171.544 138.417 171.544L138.418 171.545L138.419 171.546L138.424 171.548L138.438 171.555C138.45 171.561 138.465 171.569 138.484 171.578C138.495 171.582 138.506 171.588 138.519 171.594C141.225 172.902 142.512 175.599 143.114 178.077C143.416 179.319 143.539 180.481 143.586 181.333C143.61 181.759 143.614 182.105 143.613 182.344C143.612 182.463 143.61 182.555 143.608 182.617C143.608 182.63 143.607 182.642 143.607 182.652C143.606 182.666 143.606 182.677 143.605 182.686L143.605 182.702L143.605 182.706L143.605 182.706M138.416 171.544L143.605 182.706M143.605 182.706L143.605 182.706L143.605 182.706L143.604 182.719V182.733C143.604 185.181 143.058 186.524 142.357 187.232C141.671 187.926 140.737 188.105 139.71 187.986C138.678 187.867 137.625 187.453 136.812 187.054C136.409 186.857 136.074 186.667 135.84 186.527C135.723 186.457 135.632 186.4 135.57 186.36C135.54 186.341 135.517 186.326 135.502 186.316L135.485 186.305L135.482 186.302L135.481 186.302L135.481 186.302L143.605 182.706ZM128.398 155.45L127.648 155.017V155.883V163.273V163.561L127.898 163.706L130.082 164.967C131.056 165.529 132.056 165.646 132.844 165.191C133.632 164.736 134.031 163.812 134.031 162.686C134.031 161.558 133.638 160.342 133.027 159.283C132.416 158.224 131.559 157.276 130.582 156.711L130.582 156.711L128.398 155.45ZM131.129 178.941L131.129 178.941C132.175 179.545 133.24 179.666 134.076 179.184C134.911 178.701 135.339 177.719 135.339 176.511C135.339 175.299 134.917 173.991 134.259 172.85C133.601 171.71 132.679 170.691 131.63 170.085L131.627 170.083L131.625 170.082L131.616 170.077L131.585 170.059L131.475 169.996L131.094 169.776L129.954 169.118L128.822 168.464L128.45 168.249L128.346 168.189L128.318 168.173L128.311 168.169L128.309 168.168L128.309 168.168L128.309 168.168L128.059 168.601L128.309 168.168L127.559 167.735V168.601V176.591V176.88L127.809 177.024L128.059 176.591L127.809 177.024L127.809 177.024L127.809 177.024L127.811 177.025L127.818 177.029L127.846 177.045L127.95 177.105L128.322 177.32L129.454 177.974L131.129 178.941Z" fill="#EE8167" stroke="#350B00"/>
<path d="M130.332 157.144L128.148 155.883V163.272L133.043 160.446C132.477 159.077 131.476 157.804 130.332 157.144Z" fill="#350B00"/>
<path d="M131.379 170.518C131.34 170.495 128.059 168.601 128.059 168.601V176.591L133.892 173.223C133.261 172.088 132.37 171.09 131.379 170.518Z" fill="#350B00"/>
<path d="M127.133 183.92L128.747 182.988L127.133 182.057V183.92Z" fill="#EE8167"/>
<path d="M133.664 187.691L135.239 186.781L133.664 185.827V187.691Z" fill="#EE8167"/>
<path d="M148.246 165.563C148.246 165.563 148.283 165.581 148.35 165.607L148.246 165.563Z" fill="#EE8167"/>
<path d="M153.696 177.353L144.106 182.732C144.106 185.824 143.258 187.385 142.086 188.068L151.543 182.606L151.542 182.602C152.762 181.972 153.665 180.453 153.696 177.353Z" fill="#350B00"/>
<path d="M150.423 165.564C151.213 165.16 151.963 164.149 152.184 161.862L142.588 167.431C142.482 168.501 142.26 169.29 141.971 169.867C141.963 169.884 141.954 169.901 141.945 169.918C141.914 169.979 141.881 170.039 141.848 170.095C141.838 170.111 141.829 170.126 141.819 170.14C141.757 170.242 141.693 170.335 141.627 170.421C141.614 170.438 141.601 170.457 141.587 170.473C141.559 170.508 141.53 170.54 141.501 170.573C141.478 170.6 141.454 170.625 141.43 170.65C141.403 170.678 141.376 170.705 141.349 170.731C141.321 170.757 141.293 170.782 141.264 170.806C141.24 170.827 141.215 170.849 141.19 170.869C141.141 170.908 141.092 170.944 141.042 170.977L141.039 170.979L149.25 166.24L150.423 165.564Z" fill="#350B00"/>
<path d="M127.134 149.177L127.119 147.104L127.126 147.116L124.109 145.403L124.168 145.369L124.182 147.475L124.183 147.567L124.102 147.522L117.127 143.62L117.267 143.538L117.282 149.577L117.227 149.483L119.456 150.762L119.514 150.795V150.862L119.563 171.551L119.564 171.837L119.315 171.694L117.086 170.415L117.344 170.266L117.329 176.306L117.25 176.169L124.196 180.202L124.266 180.242V180.322L124.261 182.185L124.194 182.069L127.194 183.811L127.007 183.919L127.011 182.056L127.012 181.847L127.192 181.952L130.714 183.997L130.77 184.029V184.093L130.765 185.956L130.712 185.864L133.713 187.606L133.566 187.691L133.57 185.828L133.571 185.666L133.71 185.747L135.244 186.637L135.246 186.638L135.25 186.64C136.172 187.234 137.167 187.737 138.21 188.083C138.733 188.254 139.271 188.383 139.817 188.435C140.089 188.462 140.365 188.469 140.637 188.445C140.91 188.426 141.182 188.381 141.441 188.295C141.572 188.257 141.701 188.213 141.822 188.149C141.948 188.096 142.069 188.032 142.18 187.952C142.299 187.882 142.409 187.803 142.509 187.708C142.614 187.62 142.717 187.53 142.802 187.421C142.992 187.223 143.138 186.987 143.28 186.753C143.407 186.508 143.53 186.262 143.615 185.998C143.809 185.481 143.911 184.934 143.994 184.387C144.062 183.837 144.091 183.284 144.103 182.73C144.099 183.284 144.078 183.838 144.018 184.39C143.942 184.939 143.848 185.49 143.66 186.014C143.578 186.281 143.457 186.532 143.332 186.782C143.191 187.021 143.046 187.263 142.855 187.468C142.77 187.58 142.665 187.675 142.559 187.766C142.458 187.865 142.346 187.948 142.226 188.021C142.112 188.105 141.989 188.172 141.859 188.229C141.735 188.296 141.603 188.344 141.469 188.385C141.204 188.477 140.924 188.527 140.646 188.551C140.367 188.579 140.085 188.575 139.806 188.552C139.247 188.506 138.699 188.383 138.166 188.218C137.101 187.879 136.091 187.393 135.149 186.787L135.155 186.79L133.616 185.907L133.756 185.826L133.76 187.689L133.761 187.859L133.614 187.774L130.605 186.047L130.552 186.016V185.954L130.548 184.091L130.603 184.187L127.071 182.159L127.252 182.055L127.256 183.918L127.257 184.134L127.069 184.026L124.06 182.299L123.993 182.261V182.184L123.989 180.32L124.058 180.44L117.092 176.441L117.014 176.396V176.305L117.001 170.265L117 169.967L117.258 170.116L119.48 171.407L119.233 171.55L119.283 150.86L119.341 150.959L117.118 149.669L117.064 149.637V149.575L117.078 143.535L117.079 143.373L117.219 143.453L124.155 147.426L124.074 147.472L124.089 145.366L124.09 145.298L124.148 145.332L127.14 147.088L127.148 147.092V147.101L127.134 149.177Z" fill="#350B00"/>
<path d="M142.658 165.962L142.569 164.925C142.529 164.581 142.443 164.246 142.384 163.907C142.33 163.568 142.195 163.244 142.113 162.911C142.033 162.576 141.888 162.261 141.771 161.938C141.659 161.613 141.502 161.306 141.355 160.995C141.216 160.681 141.046 160.382 140.874 160.084C140.714 159.78 140.533 159.488 140.345 159.2C140.167 158.906 139.968 158.626 139.764 158.348C139.367 157.787 138.926 157.257 138.47 156.744C138.008 156.235 137.533 155.736 137.025 155.274C136.774 155.04 136.512 154.818 136.245 154.606C135.977 154.389 135.706 154.218 135.396 154.045L133.6 152.997L133.533 152.957L133.534 152.883L133.568 150.876L133.616 150.96C132.624 150.366 131.646 149.746 130.66 149.141C131.677 149.692 132.703 150.229 133.713 150.791L133.761 150.818L133.762 150.875L133.797 152.882L133.73 152.768L135.548 153.781C135.846 153.941 136.165 154.137 136.439 154.355C136.717 154.571 136.986 154.795 137.245 155.031C137.768 155.497 138.263 155.993 138.721 156.521C139.179 157.048 139.621 157.591 140.018 158.166C140.222 158.451 140.421 158.738 140.599 159.04C140.786 159.335 140.969 159.633 141.126 159.946C141.29 160.255 141.452 160.565 141.583 160.889C141.722 161.21 141.87 161.527 141.973 161.862C142.081 162.194 142.217 162.517 142.288 162.861C142.364 163.202 142.471 163.535 142.507 163.884C142.548 164.231 142.613 164.576 142.632 164.922L142.658 165.962Z" fill="#350B00"/>
<path d="M130.333 164.532C129.577 164.159 128.83 163.772 128.092 163.37L128.037 163.34L128.034 163.271C127.985 162.04 127.995 160.809 127.977 159.577C127.995 158.345 127.985 157.114 128.034 155.883L128.042 155.684L128.206 155.784C128.923 156.223 129.632 156.676 130.333 157.144C129.577 156.771 128.83 156.383 128.092 155.982L128.263 155.883C128.313 157.114 128.302 158.345 128.321 159.577C128.302 160.809 128.312 162.04 128.263 163.271L128.206 163.173C128.923 163.612 129.632 164.064 130.333 164.532Z" fill="#350B00"/>
<path d="M131.379 178.508C130.238 177.928 129.114 177.319 127.994 176.703L127.931 176.668L127.929 176.59C127.898 175.258 127.902 173.926 127.887 172.595C127.901 171.263 127.898 169.931 127.928 168.6L127.933 168.372L128.124 168.487C129.217 169.15 130.307 169.817 131.379 170.517C130.237 169.938 129.113 169.328 127.993 168.713L128.189 168.6C128.219 169.931 128.216 171.263 128.23 172.595C128.215 173.926 128.219 175.258 128.188 176.59L128.123 176.478C129.216 177.141 130.307 177.809 131.379 178.508Z" fill="#350B00"/>
<path d="M133.578 150.727L143.256 145.338L133.75 151.025L133.578 150.727Z" fill="#350B00"/>
<path d="M127.047 146.955L136.725 141.565L127.219 147.253L127.047 146.955Z" fill="#350B00"/>
<path d="M128.062 163.123L131.215 161.502L128.235 163.421L128.062 163.123Z" fill="#350B00"/>
<path d="M128.062 176.441L131.215 174.82L128.235 176.739L128.062 176.441Z" fill="#350B00"/>
</svg>
