<svg width="283" height="283" viewBox="0 0 283 283" fill="none" xmlns="http://www.w3.org/2000/svg">
<g clip-path="url(#clip0_101_7026)">
<path d="M206.169 149.179V149.229C206.144 149.336 206.061 149.428 205.929 149.511C205.862 149.544 205.771 149.585 205.664 149.618L200.963 150.704C200.971 146.916 199.993 143.118 197.986 139.437L205.664 137.663C205.771 137.638 205.862 137.597 205.929 137.555C206.061 137.472 206.144 137.381 206.169 137.273V149.179Z" fill="#350B00"/>
<path d="M188.56 156.621C190.193 151.788 189.845 146.722 187.358 141.897L181.181 143.331C180.899 143.398 180.584 143.373 180.36 143.265C180.211 143.199 180.112 143.091 180.07 143V142.817L184.904 129.337C184.953 129.187 185.152 129.063 185.401 129.005C185.65 128.947 185.94 128.964 186.172 129.047L205.821 136.84C206.037 136.914 206.153 137.064 206.169 137.229V137.279C206.144 137.387 206.061 137.478 205.929 137.561C205.862 137.603 205.771 137.644 205.663 137.669L197.986 139.443C199.993 143.124 200.971 146.921 200.963 150.71H200.954V151.547C200.556 160.974 194.032 170.202 182.06 177.116C161.996 188.698 130.566 191.351 105.611 183.566L111.033 177.788C131.57 184.196 157.461 181.999 174.001 172.465C181.612 168.071 186.537 162.516 188.551 156.638L188.56 156.621Z" fill="white"/>
<path d="M200.947 150.703H200.956C200.956 150.985 200.947 151.267 200.947 151.541V150.703Z" fill="white"/>
<path d="M200.954 151.541V162.584C200.954 172.309 194.413 181.926 182.06 189.065C161.996 200.647 130.566 203.308 105.611 195.523V183.56C130.566 191.345 161.996 188.692 182.06 177.11C194.023 170.195 200.548 160.968 200.954 151.541Z" fill="#350B00"/>
<path d="M187.352 141.897C189.839 146.73 190.187 151.796 188.554 156.621C188.231 155.676 187.833 154.781 187.352 153.86L181.175 155.295C180.894 155.344 180.57 155.32 180.355 155.212C180.164 155.121 180.064 154.988 180.064 154.855V142.991C180.098 143.091 180.205 143.19 180.355 143.257C180.578 143.356 180.894 143.389 181.175 143.323L187.352 141.889V141.897Z" fill="#350B00"/>
<path d="M180.073 142.811V142.993C180.065 142.927 180.04 142.877 180.073 142.811Z" fill="white"/>
<path d="M170.213 118.9V130.856L164.244 136.444V124.488L170.213 118.9Z" fill="#350B00"/>
<path d="M71.7285 151.591C71.3554 141.626 77.8387 131.677 90.623 124.306C111.905 112.019 144.62 109.798 170.214 118.901L164.253 124.497C143.169 117.002 116.208 118.834 98.6732 128.957C85.8973 136.344 80.7405 146.849 84.1148 156.723C84.6785 158.348 85.4579 159.94 86.4693 161.507L93.8812 159.774C94.1631 159.708 94.4864 159.741 94.7103 159.857C94.9507 159.965 95.0585 160.13 94.9922 160.304L90.1504 173.777C90.1172 173.868 90.0426 173.951 89.9266 174.017C89.8602 174.059 89.769 174.092 89.6613 174.125C89.4125 174.175 89.1224 174.158 88.9068 174.075L69.2413 166.29C69.0174 166.207 68.8848 166.066 68.8848 165.917C68.8848 165.917 68.8931 165.884 68.8931 165.851C68.9262 165.677 69.1169 165.536 69.3905 165.47L75.8821 163.952C73.2623 159.948 71.8777 155.769 71.7285 151.591Z" fill="#E59636"/>
<path d="M164.239 124.488V136.443C143.155 128.949 116.194 130.789 98.6591 140.912C91.0151 145.331 86.0987 150.878 84.1007 156.723C80.7346 146.848 85.8832 136.344 98.6591 128.957C116.194 118.834 143.147 117.002 164.239 124.497V124.488Z" fill="#350B00"/>
<path d="M68.8848 177.864V165.917C68.8848 166.067 69.0174 166.208 69.2413 166.291L88.8902 174.076C89.1058 174.167 89.396 174.183 89.6447 174.125C89.7525 174.092 89.8436 174.059 89.91 174.017C90.026 173.951 90.109 173.868 90.1338 173.777L94.9756 160.305V172.169C94.9756 172.169 94.9839 172.235 94.9673 172.268L90.1338 185.741C90.1007 185.84 90.026 185.915 89.91 185.981C89.8436 186.022 89.7525 186.064 89.6447 186.089C89.396 186.147 89.1058 186.13 88.8902 186.039L69.2413 178.246C69.0174 178.171 68.8848 178.005 68.8848 177.864Z" fill="#350B00"/>
<path d="M75.8826 163.953L71.8285 164.898C71.7456 164.185 71.7207 163.447 71.7207 162.718V151.592C71.8782 155.77 73.2628 159.949 75.8743 163.953H75.8826Z" fill="white"/>
<path d="M206.177 137.222C206.168 137.064 206.044 136.915 205.828 136.832L186.179 129.039C185.956 128.956 185.665 128.939 185.408 128.997C185.151 129.055 184.969 129.18 184.911 129.329L180.077 142.81C180.044 142.876 180.069 142.926 180.077 142.992C180.111 143.091 180.218 143.191 180.368 143.257C180.591 143.357 180.906 143.39 181.188 143.324L187.365 141.889C189.852 146.723 190.209 151.788 188.567 156.614C186.569 162.492 181.628 168.038 174.017 172.441C157.477 181.975 131.585 184.172 111.049 177.763L105.627 183.542C130.582 191.327 162.012 188.674 182.075 177.092C194.039 170.177 200.763 160.958 200.97 151.523C200.97 151.249 200.978 150.968 200.978 150.686C200.978 146.897 200.008 143.1 198.002 139.419L205.679 137.644C205.787 137.62 205.878 137.578 205.944 137.537C206.077 137.454 206.16 137.363 206.185 137.255V137.205L206.177 137.222Z" stroke="#350B00" stroke-width="0.82907" stroke-linecap="round" stroke-linejoin="round"/>
<path d="M68.8848 165.909C68.8848 166.058 69.0174 166.199 69.2413 166.282L88.8902 174.067C89.1058 174.158 89.396 174.175 89.6447 174.116C89.7525 174.083 89.8436 174.05 89.91 174.009C90.026 173.942 90.109 173.859 90.1338 173.768L94.9756 160.296C95.0419 160.122 94.9341 159.956 94.6937 159.848C94.4699 159.732 94.1465 159.699 93.8646 159.765L86.4528 161.498C85.4413 159.931 84.6537 158.339 84.0982 156.714C80.7073 146.848 85.8807 136.336 98.6567 128.949C116.191 118.826 143.145 116.994 164.236 124.488L170.197 118.892C144.62 109.797 111.905 112.019 90.623 124.306C77.8387 131.676 71.3554 141.625 71.7285 151.591C71.886 155.769 73.2705 159.948 75.8821 163.952L69.3905 165.469C69.1252 165.536 68.9262 165.677 68.8931 165.851C68.8931 165.884 68.8848 165.892 68.8848 165.9V165.909Z" stroke="#350B00" stroke-width="0.82907" stroke-linecap="round" stroke-linejoin="round"/>
<path d="M71.7207 150.752V162.715C71.7207 163.445 71.7456 164.175 71.8285 164.896" stroke="#350B00" stroke-width="0.82907" stroke-linecap="round" stroke-linejoin="round"/>
<path d="M84.1035 156.721C86.1016 150.876 91.018 145.338 98.662 140.911C116.197 130.788 143.15 128.947 164.241 136.442L170.202 130.854V118.891" stroke="#350B00" stroke-width="0.82907" stroke-linecap="round" stroke-linejoin="round"/>
<path d="M68.8931 177.806C68.8931 177.806 68.8848 177.839 68.8848 177.856V165.893" stroke="#350B00" stroke-width="0.82907" stroke-linecap="round" stroke-linejoin="round"/>
<path d="M94.9839 160.305V172.169C94.9839 172.169 94.9922 172.235 94.9756 172.268L90.1421 185.741C90.109 185.84 90.0343 185.915 89.9183 185.981C89.8519 186.022 89.7607 186.064 89.653 186.089C89.4042 186.147 89.1141 186.13 88.8985 186.039L69.2413 178.246C69.0174 178.171 68.8848 178.005 68.8848 177.864" stroke="#350B00" stroke-width="0.82907" stroke-linecap="round" stroke-linejoin="round"/>
<path d="M164.244 124.486V136.442" stroke="#350B00" stroke-width="0.82907" stroke-linecap="round" stroke-linejoin="round"/>
<path d="M206.162 137.225V149.23C206.137 149.337 206.054 149.429 205.922 149.511C205.855 149.545 205.764 149.586 205.656 149.619L200.956 150.705H200.947" stroke="#350B00" stroke-width="0.82907" stroke-linecap="round" stroke-linejoin="round"/>
<path d="M188.554 156.641V156.625C188.231 155.68 187.833 154.784 187.352 153.864L181.175 155.298C180.894 155.348 180.57 155.323 180.355 155.215C180.164 155.124 180.064 154.992 180.064 154.859V142.812" stroke="#350B00" stroke-width="0.82907" stroke-linecap="round" stroke-linejoin="round"/>
<path d="M200.954 150.621V162.576C200.954 172.301 194.413 181.918 182.06 189.057C161.996 200.639 130.566 203.3 105.611 195.515V183.552" stroke="#350B00" stroke-width="0.82907" stroke-linecap="round" stroke-linejoin="round"/>
</g>
<g clip-path="url(#clip1_101_7026)">
<path d="M133.752 58.4982C133.155 58.1237 132.559 57.7538 131.962 57.3977C131.879 57.3469 131.796 57.2914 131.713 57.2498C131.315 57.0093 130.908 56.7781 130.501 56.5469C128.975 55.6777 127.426 54.8962 125.868 54.1842C125.595 54.0593 125.323 53.9345 125.054 53.8189C124.874 53.7449 124.708 53.6709 124.532 53.5969C124.153 53.4305 123.769 53.2733 123.39 53.1253C122.941 52.9496 122.488 52.7693 122.04 52.6121C120.333 51.974 118.673 51.4607 117.051 51.0631C116.338 50.8874 115.65 50.7394 114.956 50.6146C114.161 50.4666 113.375 50.3418 112.602 50.2585C111.312 50.0967 110.069 50.0135 108.852 49.9996C108.039 49.9904 107.243 50.0227 106.467 50.0828C105.338 50.1753 104.238 50.3233 103.184 50.5545C100.169 51.1833 97.4409 52.3531 95.0642 54.0177L95.055 54.0085L82.9082 62.6596C85.3773 60.8379 88.2441 59.5755 91.4345 58.9143C92.3038 58.7248 93.2008 58.5814 94.1348 58.5074C94.3244 58.4843 94.5233 58.4658 94.7221 58.4566C95.9474 58.3502 97.2004 58.341 98.4997 58.4057H98.509C100.026 58.4797 101.593 58.6693 103.216 58.9791C103.905 59.1039 104.599 59.2519 105.297 59.4276C106.374 59.6911 107.484 60.0009 108.594 60.3801C109.454 60.6529 110.309 60.9534 111.178 61.3002C111.335 61.3511 111.483 61.4158 111.641 61.4759C112.186 61.6979 112.741 61.9245 113.305 62.1788C113.578 62.2944 113.86 62.4192 114.133 62.544C115.64 63.233 117.134 64.0005 118.609 64.8236C118.66 64.8467 118.715 64.8745 118.766 64.9068C119.256 65.1796 119.751 65.4617 120.232 65.7437C120.389 65.8362 120.546 65.9333 120.703 66.035C121.707 66.6361 122.696 67.2835 123.681 67.9493L136.679 60.4448C135.712 59.7605 134.732 59.1178 133.756 58.4936L133.752 58.4982Z" fill="#350B00"/>
<path d="M176.55 125.816C176.55 125.765 176.54 125.724 176.54 125.668C176.54 125.617 176.531 125.576 176.531 125.52C176.466 124.859 176.383 124.202 176.3 123.541C176.124 122.223 175.911 120.896 175.653 119.565C175.56 119.019 175.444 118.478 175.32 117.933C175.213 117.452 175.112 116.971 174.996 116.49C174.83 115.787 174.649 115.089 174.464 114.386C174.289 113.706 174.09 113.017 173.891 112.338C173.798 112.037 173.706 111.741 173.613 111.445L161.444 118.474C161.518 118.7 161.596 118.922 161.67 119.149C161.827 119.662 161.985 120.184 162.142 120.698C162.216 120.929 162.276 121.16 162.341 121.387C162.539 122.075 162.738 122.778 162.905 123.467C163.154 124.411 163.376 125.349 163.584 126.292C163.7 126.838 163.816 127.393 163.908 127.934C164.074 128.771 164.222 129.608 164.347 130.445C164.463 131.198 164.569 131.943 164.652 132.683C164.703 133.08 164.745 133.478 164.787 133.875C164.787 133.917 164.796 133.968 164.796 134.01C164.847 134.583 164.888 135.152 164.93 135.702C165.036 137.269 165.078 138.786 165.036 140.266C165.013 140.945 164.985 141.607 164.944 142.263C164.935 142.43 164.921 142.596 164.911 142.753C164.879 143.266 164.828 143.757 164.777 144.251C164.486 146.887 163.964 149.324 163.219 151.552C163.159 151.728 163.103 151.899 163.043 152.066C162.729 152.977 162.373 153.846 161.989 154.669C161.98 154.701 161.957 154.729 161.948 154.761C160.241 158.382 157.879 161.299 154.961 163.454L166.918 154.951L166.895 154.928C169.114 153.254 170.996 151.141 172.513 148.598C172.929 147.909 173.318 147.174 173.683 146.411C173.872 146.013 174.048 145.606 174.215 145.185C174.423 144.704 174.612 144.214 174.788 143.701C175.606 141.366 176.189 138.828 176.513 136.053C176.522 136.002 176.522 135.938 176.536 135.887C176.596 135.24 176.661 134.569 176.702 133.889C176.711 133.765 176.711 133.64 176.725 133.515C176.841 131.559 176.832 129.497 176.674 127.342C176.642 126.838 176.61 126.316 176.559 125.802L176.55 125.816Z" fill="#350B00"/>
<path d="M173.401 110.794C173.077 109.791 172.74 108.787 172.375 107.779C172.134 107.109 171.884 106.452 171.621 105.791C171.602 105.717 171.57 105.634 171.538 105.56C171.348 105.056 171.14 104.557 170.932 104.053C170.312 102.536 169.647 101.029 168.944 99.5351C168.87 99.3779 168.796 99.2207 168.722 99.0635C168.491 98.6011 168.259 98.1341 168.019 97.6717C168.019 97.6625 168.01 97.6625 168.01 97.6486C167.214 96.0395 166.368 94.435 165.467 92.8676C165.245 92.4699 165.027 92.0815 164.787 91.6977C164.764 91.6469 164.736 91.5914 164.704 91.5405C164.38 90.9857 164.056 90.4401 163.719 89.8991C163.122 88.9142 162.507 87.9524 161.879 86.9907C161.587 86.5514 161.305 86.1122 161 85.6821C160.676 85.2013 160.339 84.7204 159.997 84.2395C159.599 83.6615 159.201 83.0974 158.771 82.5333C158.489 82.1264 158.184 81.7149 157.884 81.3173C157.578 80.9104 157.278 80.4988 156.963 80.1058C156.191 79.1024 155.396 78.1176 154.568 77.1466C154.254 76.7489 153.907 76.3513 153.574 75.9536C153.449 75.8057 153.324 75.6623 153.2 75.5236C152.978 75.26 152.76 75.0104 152.529 74.7607C151.327 73.4013 150.102 72.0927 148.849 70.8166C148.724 70.6917 148.599 70.5669 148.469 70.442C148.22 70.1923 147.965 69.938 147.716 69.6883C147.452 69.4248 147.184 69.1751 146.92 68.9254C145.866 67.9082 144.798 66.9279 143.698 65.9754C143.309 65.6286 142.902 65.2865 142.505 64.9489C142.2 64.6992 141.899 64.4357 141.594 64.186C141.007 63.7144 140.424 63.2427 139.837 62.7942C139.273 62.3457 138.709 61.9249 138.131 61.5088C137.682 61.162 137.229 60.8383 136.78 60.5239C136.743 60.4962 136.706 60.4731 136.669 60.4453L123.672 67.9498C124.125 68.2596 124.583 68.5601 125.036 68.8792C125.484 69.1936 125.947 69.5173 126.395 69.8502C126.576 69.975 126.751 70.1137 126.918 70.2386C127.524 70.6871 128.111 71.1495 128.707 71.6303C129.396 72.1621 130.076 72.7308 130.756 73.3042C131.162 73.6371 131.56 73.9839 131.958 74.3307C132.688 74.9687 133.424 75.63 134.136 76.2958C134.667 76.7859 135.19 77.2899 135.717 77.8032C135.8 77.8771 135.883 77.9604 135.967 78.0436C136.341 78.4181 136.72 78.7973 137.095 79.1718C138.265 80.3555 139.407 81.5762 140.526 82.8339C140.609 82.9263 140.692 83.0234 140.775 83.1159C141.131 83.5136 141.478 83.9112 141.82 84.3089C141.853 84.3505 141.894 84.3921 141.927 84.4337C143.055 85.7423 144.146 87.0785 145.21 88.4611C145.524 88.8587 145.825 89.2656 146.139 89.6725C146.162 89.7049 146.19 89.7465 146.213 89.7789C146.643 90.3337 147.059 90.8978 147.457 91.4758C148.072 92.322 148.668 93.182 149.246 94.0374C149.551 94.4674 149.843 94.9067 150.125 95.3459C150.504 95.9193 150.878 96.5065 151.244 97.0937C151.618 97.681 151.988 98.2774 152.33 98.8832C152.552 99.2161 152.746 99.5536 152.945 99.8958C153.209 100.335 153.459 100.774 153.708 101.223C154.379 102.393 155.017 103.576 155.632 104.779C155.854 105.185 156.062 105.606 156.27 106.022C156.376 106.23 156.478 106.438 156.584 106.651C156.709 106.901 156.834 107.155 156.959 107.414C157.745 109.065 158.485 110.729 159.178 112.403C159.243 112.551 159.303 112.708 159.354 112.852C159.502 113.208 159.645 113.555 159.784 113.911C159.9 114.216 160.015 114.516 160.131 114.821C160.588 116.033 161.014 117.249 161.421 118.465L173.591 111.437C173.521 111.22 173.457 110.998 173.387 110.78L173.401 110.794Z" fill="#350B00"/>
<g style="mix-blend-mode:multiply" opacity="0.3">
<path d="M141.599 64.1867L128.712 71.6357C128.116 71.1548 127.529 70.6924 126.923 70.2439L139.842 62.7949C140.429 63.2434 141.012 63.7151 141.599 64.1867Z" fill="#FFA200"/>
<path d="M148.475 70.4424L135.723 77.8081C135.2 77.2949 134.678 76.7909 134.142 76.3008L146.926 68.9258C147.19 69.1755 147.458 69.4298 147.722 69.6887C147.971 69.9384 148.226 70.1927 148.475 70.4424Z" fill="#FFA200"/>
<path d="M112.598 50.2636L98.505 58.4015H98.4958C97.2011 58.3368 95.9434 58.3506 94.7181 58.4524C94.5193 58.4616 94.3204 58.4847 94.1309 58.5032L108.853 50C110.065 50.0092 111.313 50.0925 112.598 50.2636Z" fill="#FFA200"/>
<path d="M124.528 53.6021L111.179 61.3007C110.31 60.9539 109.455 60.6534 108.595 60.3806L122.036 52.6172C122.485 52.7744 122.938 52.9501 123.386 53.1304C123.761 53.2784 124.149 53.4356 124.528 53.6021Z" fill="#FFA200"/>
<path d="M133.752 58.4977L120.694 66.0392C120.537 65.9328 120.38 65.8403 120.223 65.7479C119.742 65.4658 119.252 65.1838 118.757 64.911C118.706 64.8786 118.65 64.8462 118.6 64.8277L131.708 57.2539C131.791 57.2955 131.875 57.3464 131.958 57.4019C132.554 57.7579 133.151 58.1232 133.747 58.5023L133.752 58.4977Z" fill="#FFA200"/>
<path d="M172.376 107.783L160.146 114.835C160.03 114.529 159.915 114.229 159.799 113.924C159.665 113.568 159.517 113.221 159.369 112.865L171.618 105.795C171.881 106.456 172.131 107.113 172.371 107.783H172.376Z" fill="#FFA200"/>
<path d="M176.55 125.816L164.644 132.692C164.561 131.948 164.454 131.208 164.339 130.454L176.296 123.551C176.379 124.212 176.463 124.869 176.527 125.53C176.527 125.581 176.537 125.622 176.537 125.678C176.537 125.729 176.546 125.77 176.546 125.826L176.55 125.816Z" fill="#FFA200"/>
<path d="M154.574 77.1503L141.937 84.4421C141.905 84.4005 141.863 84.3588 141.831 84.3172C141.484 83.9196 141.142 83.5219 140.786 83.1243C140.703 83.0318 140.619 82.9347 140.536 82.8422L153.205 75.5273C153.33 75.6614 153.455 75.8094 153.58 75.9574C153.913 76.355 154.26 76.7527 154.574 77.1503Z" fill="#FFA200"/>
<path d="M160.002 84.2433L147.466 91.4842C147.069 90.9109 146.653 90.3421 146.223 89.7873L158.776 82.5371C159.206 83.1012 159.604 83.6653 160.002 84.2433Z" fill="#FFA200"/>
<path d="M164.792 91.7017L152.344 98.8872C151.998 98.2814 151.632 97.685 151.258 97.0977L163.728 89.8984C164.061 90.444 164.389 90.985 164.713 91.5399C164.746 91.5908 164.778 91.6462 164.796 91.6971L164.792 91.7017Z" fill="#FFA200"/>
<path d="M168.945 99.5401L156.599 106.665C156.493 106.457 156.391 106.249 156.285 106.037C156.077 105.616 155.868 105.2 155.646 104.793L168.011 97.6582C168.011 97.6582 168.02 97.6675 168.02 97.6813C168.26 98.1437 168.491 98.6107 168.723 99.0731C168.797 99.2303 168.871 99.3875 168.945 99.5447V99.5401Z" fill="#FFA200"/>
<path d="M176.716 133.529C176.707 133.654 176.707 133.779 176.693 133.904C176.651 134.584 176.587 135.254 176.527 135.901C176.517 135.952 176.517 136.017 176.504 136.068L164.902 142.763C164.912 142.606 164.925 142.439 164.935 142.273C164.976 141.612 165.009 140.955 165.027 140.275L176.712 133.529H176.716Z" fill="#FFA200"/>
<path d="M174.207 145.205C174.04 145.621 173.86 146.033 173.675 146.43C173.31 147.193 172.921 147.929 172.505 148.617L161.981 154.684C162.37 153.856 162.726 152.987 163.036 152.081C163.1 151.914 163.151 151.748 163.211 151.567L174.207 145.205Z" fill="#FFA200"/>
<path d="M174.992 116.494L162.896 123.472C162.73 122.783 162.531 122.08 162.332 121.391L174.456 114.391C174.645 115.093 174.821 115.792 174.987 116.494H174.992Z" fill="#FFA200"/>
</g>
<path d="M154.583 163.726C170.74 152.359 167.876 120.458 148.187 92.4738C128.497 64.4898 99.4384 51.0197 83.2817 62.3875C67.125 73.7553 69.9887 105.656 89.6781 133.64C109.367 161.624 138.426 175.094 154.583 163.726Z" fill="#E59636" stroke="#350B00" stroke-width="0.462382" stroke-miterlimit="10"/>
<path d="M140.943 162.538C136.37 162.538 131.316 161.289 125.915 158.82C102.144 147.954 80.7728 117.798 78.2759 91.6036C77.3511 81.8659 79.27 73.8297 83.6858 68.9746C86.9363 65.4004 91.3891 63.5879 96.9238 63.5879C101.497 63.5879 106.551 64.8363 111.951 67.3054C135.727 78.1714 157.098 108.323 159.59 134.522C160.515 144.26 158.596 152.296 154.181 157.151C150.93 160.725 146.477 162.538 140.943 162.538Z" fill="white" stroke="#350B00" stroke-width="0.462382" stroke-miterlimit="10"/>
<path d="M130.469 156.556C125.244 154.165 120.139 150.845 115.326 146.846L111.03 149.324C115.77 153.231 120.791 156.482 125.924 158.826C131.324 161.286 136.373 162.539 140.946 162.539C145.182 162.539 148.793 161.485 151.711 159.372C149.829 159.977 147.757 160.273 145.506 160.273C140.923 160.273 135.869 159.029 130.473 156.56L130.469 156.556Z" fill="#350B00"/>
<path d="M82.8341 89.3387C81.9047 79.6009 83.8282 71.5647 88.244 66.7097C89.0069 65.8728 89.8346 65.1283 90.7224 64.4902C87.9712 65.3595 85.6177 66.853 83.6803 68.98C79.2645 73.835 77.3503 81.8666 78.2704 91.609C78.4507 93.5001 78.742 95.4144 79.1119 97.3425L83.6063 94.7485C83.2641 92.9314 83.0006 91.1281 82.8295 89.3433L82.8341 89.3387Z" fill="#350B00"/>
<path d="M83.6106 94.7441L79.1162 97.3381C82.7737 116.31 95.3828 136.428 111.025 149.319L115.321 146.841C99.7107 133.866 87.1617 113.706 83.6106 94.7441Z" fill="#350B00"/>
<path d="M134.622 116.082C134.622 116.082 135.857 115.393 136.398 114.885C137.341 114.001 138.197 112.156 138.109 108.337C138.021 99.8571 129.24 93.6889 126.702 92.0798L126.73 81.7594L121.518 78.7539L117.436 81.1121L121.486 89.0558L117.75 86.9057L117.782 76.6039L112.562 73.5938L108.479 75.9519L112.525 83.9003L102.621 78.1991L98.5381 80.5572L102.607 84.0528C102.607 84.0528 104.151 84.9406 106.463 86.2723C108.771 87.5993 108.951 90.0499 108.951 90.0499C108.951 90.0499 108.886 115.125 108.845 116.406C108.798 117.687 107.786 117.155 107.786 117.155L103.398 114.644L99.3149 117.002L102.066 121.353L112.359 127.235L113.492 142.419L117.574 140.061L117.607 130.231L121.357 132.372L122.485 147.543L126.568 145.184L126.591 135.354C126.868 135.502 127.442 135.817 128.644 136.469C131.756 138.045 131.529 140.699 133.471 140.473C133.471 140.473 138.451 137.814 139.228 136.996C140.624 135.534 141.304 133.042 141.308 129.639C141.318 121.358 134.618 116.077 134.618 116.077L134.622 116.082ZM117.732 93.4253L122.813 96.3476C122.813 96.3476 129.217 100.375 129.203 105.752C129.189 111.135 122.36 107.565 122.36 107.565L117.695 104.888L117.732 93.4253ZM123.262 126.444L117.63 123.221L117.671 110.584L123.807 114.103C123.807 114.103 131.529 118.912 131.515 124.844C131.501 130.781 123.257 126.449 123.257 126.449L123.262 126.444Z" fill="#350B00" stroke="#350B00" stroke-width="0.462382" stroke-linecap="round" stroke-linejoin="round"/>
<path d="M130.039 117.996C130.039 117.996 134.21 118.907 134.025 110.695C133.937 102.214 125.157 96.0463 122.618 94.4372L122.646 84.1168L117.435 81.1114L117.403 91.4132L113.666 89.2632L113.699 78.9613L108.479 75.9512L108.442 86.2577L98.5373 80.5565L98.5234 86.4103C98.5234 86.4103 100.068 87.298 102.38 88.6297C104.687 89.9567 104.867 92.4074 104.867 92.4074C104.867 92.4074 104.803 117.482 104.761 118.763C104.715 120.044 103.702 119.512 103.702 119.512L99.3141 117.001L99.3927 124.515L108.28 129.592L108.243 139.422L113.491 142.419L113.523 132.588L117.273 134.729L117.245 144.555L122.489 147.546L122.512 137.716C122.789 137.864 123.363 138.179 124.565 138.831C133.197 143.205 137.22 140.296 137.234 132.001C137.243 123.72 130.044 117.996 130.044 117.996H130.039ZM113.643 95.7828L118.725 98.705C118.725 98.705 125.129 102.732 125.115 108.11C125.101 113.492 118.272 109.922 118.272 109.922L113.606 107.245L113.643 95.7828ZM119.173 128.801L113.542 125.579L113.583 112.942L119.719 116.46C119.719 116.46 127.441 121.269 127.427 127.202C127.413 133.139 119.169 128.806 119.169 128.806L119.173 128.801Z" fill="#E59636" stroke="#350B00" stroke-width="0.462382" stroke-linecap="round" stroke-linejoin="round"/>
</g>
<defs>
<clipPath id="clip0_101_7026">
<rect width="139.773" height="89.1084" fill="white" transform="translate(67.6504 112.084)"/>
</clipPath>
<clipPath id="clip1_101_7026">
<rect width="104.212" height="118" fill="white" transform="translate(72.584 50)"/>
</clipPath>
</defs>
</svg>
