<svg width="307" height="340" viewBox="0 0 307 340" fill="none" xmlns="http://www.w3.org/2000/svg">
<g clip-path="url(#clip0_4379_2011)">
<path d="M61.6219 220.244C62.1808 219.297 62.5239 218.229 62.5239 217.267C62.5239 215.343 61.1464 214.559 59.4453 215.526C57.7441 216.488 56.3666 218.83 56.3666 220.754C56.3666 222.678 57.7441 223.462 59.4453 222.495C60.2934 222.014 61.0679 221.187 61.6219 220.244ZM71.9708 214.381C72.5297 213.434 72.8729 212.366 72.8729 211.404C72.8729 209.48 71.4953 208.701 69.7942 209.663C68.093 210.625 66.7155 212.967 66.7155 214.891C66.7155 216.815 68.093 217.599 69.7942 216.637C70.6472 216.156 71.412 215.329 71.9708 214.381ZM82.3198 208.518C82.8786 207.575 83.2218 206.508 83.2218 205.541C83.2218 203.617 81.8442 202.838 80.1431 203.8C78.442 204.762 77.0644 207.104 77.0644 209.028C77.0644 210.952 78.442 211.736 80.1431 210.774C80.9912 210.293 81.7658 209.466 82.3198 208.518ZM93.3942 219.35V220.244L43.0664 248.747V214.829L67.696 200.875V177.784L93.3942 163.225V219.35Z" fill="#DAE0E5"/>
<path d="M93.3949 163.224L67.6966 177.783V172.969L43.0671 159.016L18.4326 172.969V177.783L-7.26562 163.224L43.0671 134.722L93.3949 163.224Z" fill="white"/>
<path d="M82.3218 208.518C81.7678 209.466 80.9932 210.293 80.1451 210.774C78.444 211.736 77.0664 210.957 77.0664 209.028C77.0664 207.099 78.444 204.762 80.1451 203.8C81.8462 202.838 83.2238 203.617 83.2238 205.541C83.2238 206.508 82.8806 207.576 82.3218 208.518Z" fill="#350B00"/>
<path d="M71.9702 214.381C71.4113 215.328 70.6466 216.155 69.7935 216.636C68.0924 217.598 66.7148 216.814 66.7148 214.89C66.7148 212.966 68.0924 210.624 69.7935 209.662C71.4947 208.7 72.8722 209.479 72.8722 211.403C72.8722 212.365 72.5291 213.433 71.9702 214.381Z" fill="#350B00"/>
<path d="M67.696 177.783V200.875L43.0664 214.828V191.736L67.696 177.783Z" fill="#350B00"/>
<path d="M67.696 172.969V177.783L43.0664 191.736V186.927L67.696 172.969Z" fill="#350B00"/>
<path d="M67.6976 172.969L43.068 186.927L18.4336 172.969L43.068 159.016L67.6976 172.969Z" fill="#EE8167"/>
<path d="M61.6225 220.244C61.0686 221.187 60.294 222.014 59.4459 222.495C57.7448 223.462 56.3672 222.678 56.3672 220.754C56.3672 218.83 57.7448 216.488 59.4459 215.526C61.147 214.559 62.5246 215.343 62.5246 217.267C62.5246 218.229 62.1814 219.296 61.6225 220.244Z" fill="#350B00"/>
<path d="M43.0671 214.829V248.747L-7.26562 220.244V163.225L18.4326 177.784V200.875L43.0671 214.829Z" fill="white"/>
<path d="M43.068 191.736V214.828L18.4336 200.875V177.783L43.068 191.736Z" fill="#969A9E"/>
<path d="M43.068 186.927V191.736L18.4336 177.783V172.969L43.068 186.927Z" fill="#969A9E"/>
<path d="M18.4336 172.969L43.068 159.016L67.6976 172.969L43.068 186.927L18.4336 172.969Z" stroke="#350B00" stroke-linecap="round" stroke-linejoin="round"/>
<path d="M43.0664 186.927V191.737" stroke="#350B00" stroke-linecap="round" stroke-linejoin="round"/>
<path d="M18.4336 172.969V200.875L43.068 214.828L67.6976 200.875V172.969" stroke="#350B00" stroke-linecap="round" stroke-linejoin="round"/>
<path d="M-7.26562 163.224L43.0671 134.722L93.3949 163.224L43.0671 191.737L-7.26562 163.224Z" stroke="#350B00" stroke-linecap="round" stroke-linejoin="round"/>
<path d="M43.0664 191.736V248.746" stroke="#350B00" stroke-linecap="round" stroke-linejoin="round"/>
<path d="M-7.26562 163.225V220.244L43.0671 248.747L93.3949 220.244V163.225" stroke="#350B00" stroke-linecap="round" stroke-linejoin="round"/>
</g>
<g clip-path="url(#clip1_4379_2011)">
<path d="M276.622 223.244C277.181 222.297 277.524 221.229 277.524 220.267C277.524 218.343 276.146 217.559 274.445 218.526C272.744 219.488 271.367 221.83 271.367 223.754C271.367 225.678 272.744 226.462 274.445 225.495C275.293 225.014 276.068 224.187 276.622 223.244ZM286.971 217.381C287.53 216.434 287.873 215.366 287.873 214.404C287.873 212.48 286.495 211.701 284.794 212.663C283.093 213.625 281.715 215.967 281.715 217.891C281.715 219.815 283.093 220.599 284.794 219.637C285.647 219.156 286.412 218.329 286.971 217.381ZM297.32 211.518C297.879 210.575 298.222 209.508 298.222 208.541C298.222 206.617 296.844 205.838 295.143 206.8C293.442 207.762 292.064 210.104 292.064 212.028C292.064 213.952 293.442 214.736 295.143 213.774C295.991 213.293 296.766 212.466 297.32 211.518ZM308.394 222.35V223.244L258.066 251.747V217.829L282.696 203.875V180.784L308.394 166.225V222.35Z" fill="#DAE0E5"/>
<path d="M308.395 166.224L282.697 180.783V175.969L258.067 162.016L233.433 175.969V180.783L207.734 166.224L258.067 137.722L308.395 166.224Z" fill="white"/>
<path d="M297.322 211.518C296.768 212.466 295.993 213.293 295.145 213.774C293.444 214.736 292.066 213.957 292.066 212.028C292.066 210.099 293.444 207.762 295.145 206.8C296.846 205.838 298.224 206.617 298.224 208.541C298.224 209.508 297.881 210.576 297.322 211.518Z" fill="#350B00"/>
<path d="M286.97 217.381C286.411 218.328 285.647 219.155 284.794 219.636C283.092 220.598 281.715 219.814 281.715 217.89C281.715 215.966 283.092 213.624 284.794 212.662C286.495 211.7 287.872 212.479 287.872 214.403C287.872 215.365 287.529 216.433 286.97 217.381Z" fill="#350B00"/>
<path d="M282.696 180.783V203.875L258.066 217.828V194.736L282.696 180.783Z" fill="#350B00"/>
<path d="M282.696 175.969V180.783L258.066 194.736V189.927L282.696 175.969Z" fill="#350B00"/>
<path d="M282.698 175.969L258.068 189.927L233.434 175.969L258.068 162.016L282.698 175.969Z" fill="#EE8167"/>
<path d="M276.623 223.244C276.069 224.187 275.294 225.014 274.446 225.495C272.745 226.462 271.367 225.678 271.367 223.754C271.367 221.83 272.745 219.488 274.446 218.526C276.147 217.559 277.525 218.343 277.525 220.267C277.525 221.229 277.181 222.296 276.623 223.244Z" fill="#350B00"/>
<path d="M258.067 217.829V251.747L207.734 223.244V166.225L233.433 180.784V203.875L258.067 217.829Z" fill="white"/>
<path d="M258.068 194.736V217.828L233.434 203.875V180.783L258.068 194.736Z" fill="#969A9E"/>
<path d="M258.068 189.927V194.736L233.434 180.783V175.969L258.068 189.927Z" fill="#969A9E"/>
<path d="M233.434 175.969L258.068 162.016L282.698 175.969L258.068 189.927L233.434 175.969Z" stroke="#350B00" stroke-linecap="round" stroke-linejoin="round"/>
<path d="M258.066 189.927V194.737" stroke="#350B00" stroke-linecap="round" stroke-linejoin="round"/>
<path d="M233.434 175.969V203.875L258.068 217.828L282.698 203.875V175.969" stroke="#350B00" stroke-linecap="round" stroke-linejoin="round"/>
<path d="M207.734 166.224L258.067 137.722L308.395 166.224L258.067 194.737L207.734 166.224Z" stroke="#350B00" stroke-linecap="round" stroke-linejoin="round"/>
<path d="M258.066 194.736V251.746" stroke="#350B00" stroke-linecap="round" stroke-linejoin="round"/>
<path d="M207.734 166.225V223.244L258.067 251.747L308.395 223.244V166.225" stroke="#350B00" stroke-linecap="round" stroke-linejoin="round"/>
</g>
<g clip-path="url(#clip2_4379_2011)">
<path d="M166.622 170.244C167.181 169.297 167.524 168.229 167.524 167.267C167.524 165.343 166.146 164.559 164.445 165.526C162.744 166.488 161.367 168.83 161.367 170.754C161.367 172.678 162.744 173.462 164.445 172.495C165.293 172.014 166.068 171.187 166.622 170.244ZM176.971 164.381C177.53 163.434 177.873 162.366 177.873 161.404C177.873 159.48 176.495 158.701 174.794 159.663C173.093 160.625 171.715 162.967 171.715 164.891C171.715 166.815 173.093 167.599 174.794 166.637C175.647 166.156 176.412 165.329 176.971 164.381ZM187.32 158.518C187.879 157.575 188.222 156.508 188.222 155.541C188.222 153.617 186.844 152.838 185.143 153.8C183.442 154.762 182.064 157.104 182.064 159.028C182.064 160.952 183.442 161.736 185.143 160.774C185.991 160.293 186.766 159.466 187.32 158.518ZM198.394 169.35V170.244L148.066 198.747V164.829L172.696 150.875V127.784L198.394 113.225V169.35Z" fill="#DAE0E5"/>
<path d="M198.395 113.224L172.697 127.783V122.969L148.067 109.016L123.433 122.969V127.783L97.7344 113.224L148.067 84.7217L198.395 113.224Z" fill="white"/>
<path d="M187.322 158.518C186.768 159.466 185.993 160.293 185.145 160.774C183.444 161.736 182.066 160.957 182.066 159.028C182.066 157.099 183.444 154.762 185.145 153.8C186.846 152.838 188.224 153.617 188.224 155.541C188.224 156.508 187.881 157.576 187.322 158.518Z" fill="#350B00"/>
<path d="M176.97 164.381C176.411 165.328 175.647 166.155 174.794 166.636C173.092 167.598 171.715 166.814 171.715 164.89C171.715 162.966 173.092 160.624 174.794 159.662C176.495 158.7 177.872 159.479 177.872 161.403C177.872 162.365 177.529 163.433 176.97 164.381Z" fill="#350B00"/>
<path d="M172.696 127.783V150.875L148.066 164.828V141.736L172.696 127.783Z" fill="#350B00"/>
<path d="M172.696 122.969V127.783L148.066 141.736V136.927L172.696 122.969Z" fill="#350B00"/>
<path d="M172.698 122.969L148.068 136.927L123.434 122.969L148.068 109.016L172.698 122.969Z" fill="#EE8167"/>
<path d="M166.623 170.244C166.069 171.187 165.294 172.014 164.446 172.495C162.745 173.462 161.367 172.678 161.367 170.754C161.367 168.83 162.745 166.488 164.446 165.526C166.147 164.559 167.525 165.343 167.525 167.267C167.525 168.229 167.181 169.296 166.623 170.244Z" fill="#350B00"/>
<path d="M148.067 164.829V198.747L97.7344 170.244V113.225L123.433 127.784V150.875L148.067 164.829Z" fill="white"/>
<path d="M148.068 141.736V164.828L123.434 150.875V127.783L148.068 141.736Z" fill="#969A9E"/>
<path d="M148.068 136.927V141.736L123.434 127.783V122.969L148.068 136.927Z" fill="#969A9E"/>
<path d="M123.434 122.969L148.068 109.016L172.698 122.969L148.068 136.927L123.434 122.969Z" stroke="#350B00" stroke-linecap="round" stroke-linejoin="round"/>
<path d="M148.066 136.927V141.737" stroke="#350B00" stroke-linecap="round" stroke-linejoin="round"/>
<path d="M123.434 122.969V150.875L148.068 164.828L172.698 150.875V122.969" stroke="#350B00" stroke-linecap="round" stroke-linejoin="round"/>
<path d="M97.7344 113.224L148.067 84.7217L198.395 113.224L148.067 141.737L97.7344 113.224Z" stroke="#350B00" stroke-linecap="round" stroke-linejoin="round"/>
<path d="M148.066 141.736V198.746" stroke="#350B00" stroke-linecap="round" stroke-linejoin="round"/>
<path d="M97.7344 113.225V170.244L148.067 198.747L198.395 170.244V113.225" stroke="#350B00" stroke-linecap="round" stroke-linejoin="round"/>
</g>
<g clip-path="url(#clip3_4379_2011)">
<path d="M166.622 272.244C167.181 271.297 167.524 270.229 167.524 269.267C167.524 267.343 166.146 266.559 164.445 267.526C162.744 268.488 161.367 270.83 161.367 272.754C161.367 274.678 162.744 275.462 164.445 274.495C165.293 274.014 166.068 273.187 166.622 272.244ZM176.971 266.381C177.53 265.434 177.873 264.366 177.873 263.404C177.873 261.48 176.495 260.701 174.794 261.663C173.093 262.625 171.715 264.967 171.715 266.891C171.715 268.815 173.093 269.599 174.794 268.637C175.647 268.156 176.412 267.329 176.971 266.381ZM187.32 260.518C187.879 259.575 188.222 258.508 188.222 257.541C188.222 255.617 186.844 254.838 185.143 255.8C183.442 256.762 182.064 259.104 182.064 261.028C182.064 262.952 183.442 263.736 185.143 262.774C185.991 262.293 186.766 261.466 187.32 260.518ZM198.394 271.35V272.244L148.066 300.747V266.829L172.696 252.875V229.784L198.394 215.225V271.35Z" fill="#DAE0E5"/>
<path d="M198.395 215.224L172.697 229.783V224.969L148.067 211.016L123.433 224.969V229.783L97.7344 215.224L148.067 186.722L198.395 215.224Z" fill="white"/>
<path d="M187.322 260.518C186.768 261.466 185.993 262.293 185.145 262.774C183.444 263.736 182.066 262.957 182.066 261.028C182.066 259.099 183.444 256.762 185.145 255.8C186.846 254.838 188.224 255.617 188.224 257.541C188.224 258.508 187.881 259.576 187.322 260.518Z" fill="#350B00"/>
<path d="M176.97 266.381C176.411 267.328 175.647 268.155 174.794 268.636C173.092 269.598 171.715 268.814 171.715 266.89C171.715 264.966 173.092 262.624 174.794 261.662C176.495 260.7 177.872 261.479 177.872 263.403C177.872 264.365 177.529 265.433 176.97 266.381Z" fill="#350B00"/>
<path d="M172.696 229.783V252.875L148.066 266.828V243.736L172.696 229.783Z" fill="#350B00"/>
<path d="M172.696 224.969V229.783L148.066 243.736V238.927L172.696 224.969Z" fill="#350B00"/>
<path d="M172.698 224.969L148.068 238.927L123.434 224.969L148.068 211.016L172.698 224.969Z" fill="#EE8167"/>
<path d="M166.623 272.244C166.069 273.187 165.294 274.014 164.446 274.495C162.745 275.462 161.367 274.678 161.367 272.754C161.367 270.83 162.745 268.488 164.446 267.526C166.147 266.559 167.525 267.343 167.525 269.267C167.525 270.229 167.181 271.296 166.623 272.244Z" fill="#350B00"/>
<path d="M148.067 266.829V300.747L97.7344 272.244V215.225L123.433 229.784V252.875L148.067 266.829Z" fill="white"/>
<path d="M148.068 243.736V266.828L123.434 252.875V229.783L148.068 243.736Z" fill="#969A9E"/>
<path d="M148.068 238.927V243.736L123.434 229.783V224.969L148.068 238.927Z" fill="#969A9E"/>
<path d="M123.434 224.969L148.068 211.016L172.698 224.969L148.068 238.927L123.434 224.969Z" stroke="#350B00" stroke-linecap="round" stroke-linejoin="round"/>
<path d="M148.066 238.927V243.737" stroke="#350B00" stroke-linecap="round" stroke-linejoin="round"/>
<path d="M123.434 224.969V252.875L148.068 266.828L172.698 252.875V224.969" stroke="#350B00" stroke-linecap="round" stroke-linejoin="round"/>
<path d="M97.7344 215.224L148.067 186.722L198.395 215.224L148.067 243.737L97.7344 215.224Z" stroke="#350B00" stroke-linecap="round" stroke-linejoin="round"/>
<path d="M148.066 243.736V300.746" stroke="#350B00" stroke-linecap="round" stroke-linejoin="round"/>
<path d="M97.7344 215.225V272.244L148.067 300.747L198.395 272.244V215.225" stroke="#350B00" stroke-linecap="round" stroke-linejoin="round"/>
</g>
<defs>
<clipPath id="clip0_4379_2011">
<rect width="94" height="116" fill="white" transform="translate(0 134)"/>
</clipPath>
<clipPath id="clip1_4379_2011">
<rect width="100" height="116" fill="white" transform="translate(207 137)"/>
</clipPath>
<clipPath id="clip2_4379_2011">
<rect width="102" height="116" fill="white" transform="translate(97 84)"/>
</clipPath>
<clipPath id="clip3_4379_2011">
<rect width="102" height="116" fill="white" transform="translate(97 186)"/>
</clipPath>
</defs>
</svg>
