<svg width="283" height="282" viewBox="0 0 283 282" fill="none" xmlns="http://www.w3.org/2000/svg">
<g clip-path="url(#clip0_101_7121)">
<path d="M58.0146 185.396C58.5249 184.53 58.8382 183.556 58.8382 182.677C58.8382 180.921 57.5805 180.205 56.0273 181.088C54.4742 181.966 53.2164 184.105 53.2164 185.861C53.2164 187.618 54.4742 188.333 56.0273 187.451C56.8016 187.012 57.5088 186.256 58.0146 185.396ZM67.4633 180.042C67.9736 179.177 68.2869 178.203 68.2869 177.324C68.2869 175.568 67.0291 174.856 65.476 175.735C63.9228 176.613 62.6651 178.751 62.6651 180.508C62.6651 182.265 63.9228 182.98 65.476 182.102C66.2548 181.663 66.953 180.908 67.4633 180.042ZM76.912 174.689C77.4222 173.829 77.7355 172.854 77.7355 171.971C77.7355 170.215 76.4778 169.503 74.9247 170.381C73.3715 171.26 72.1138 173.398 72.1138 175.155C72.1138 176.911 73.3715 177.627 74.9247 176.749C75.699 176.31 76.4062 175.555 76.912 174.689ZM87.0231 184.579V185.396L41.0732 211.419V180.451L63.5603 167.712V146.629L87.0231 133.336V184.579Z" fill="#DAE0E5"/>
<path d="M87.0165 133.338L63.5537 146.63V142.235L41.0666 129.495L18.5751 142.235V146.63L-4.8877 133.338L41.0666 107.314L87.0165 133.338Z" fill="white"/>
<path d="M76.9027 174.692C76.3969 175.557 75.6897 176.312 74.9154 176.752C73.3622 177.63 72.1045 176.918 72.1045 175.158C72.1045 173.397 73.3622 171.262 74.9154 170.384C76.4685 169.506 77.7263 170.217 77.7263 171.974C77.7263 172.856 77.4129 173.831 76.9027 174.692Z" fill="#350B00"/>
<path d="M67.4496 180.044C66.9393 180.909 66.2411 181.664 65.4622 182.103C63.9091 182.981 62.6514 182.266 62.6514 180.509C62.6514 178.753 63.9091 176.614 65.4622 175.736C67.0154 174.857 68.2731 175.569 68.2731 177.325C68.2731 178.204 67.9598 179.179 67.4496 180.044Z" fill="#350B00"/>
<path d="M63.5603 146.631V167.714L41.0732 180.453V159.37L63.5603 146.631Z" fill="#350B00"/>
<path d="M63.5603 142.234V146.63L41.0732 159.369V154.978L63.5603 142.234Z" fill="#350B00"/>
<path d="M63.5518 142.237L41.0648 154.981L18.5732 142.237L41.0648 129.498L63.5518 142.237Z" fill="#E59636"/>
<path d="M58.0121 185.397C57.5063 186.258 56.7991 187.013 56.0247 187.452C54.4716 188.335 53.2139 187.619 53.2139 185.863C53.2139 184.106 54.4716 181.967 56.0247 181.089C57.5779 180.207 58.8356 180.922 58.8356 182.679C58.8356 183.557 58.5223 184.532 58.0121 185.397Z" fill="#350B00"/>
<path d="M41.0666 180.451V211.419L-4.8877 185.396V133.336L18.5751 146.629V167.712L41.0666 180.451Z" fill="white"/>
<path d="M41.0648 159.37V180.453L18.5732 167.714V146.631L41.0648 159.37Z" fill="#969A9E"/>
<path d="M41.0648 154.978V159.369L18.5732 146.63V142.234L41.0648 154.978Z" fill="#969A9E"/>
<path d="M18.5732 142.237L41.0648 129.498L63.5518 142.237L41.0648 154.981L18.5732 142.237Z" stroke="#350B00" stroke-width="0.913011" stroke-linecap="round" stroke-linejoin="round"/>
<path d="M41.0732 154.977V159.368" stroke="#350B00" stroke-width="0.913011" stroke-linecap="round" stroke-linejoin="round"/>
<path d="M18.5732 142.234V167.713L41.0648 180.452L63.5518 167.713V142.234" stroke="#350B00" stroke-width="0.913011" stroke-linecap="round" stroke-linejoin="round"/>
<path d="M-4.8877 133.338L41.0666 107.314L87.0165 133.338L41.0666 159.37L-4.8877 133.338Z" stroke="#350B00" stroke-width="0.913011" stroke-linecap="round" stroke-linejoin="round"/>
<path d="M41.0732 159.369V211.42" stroke="#350B00" stroke-width="0.913011" stroke-linecap="round" stroke-linejoin="round"/>
<path d="M-4.8877 133.336V185.396L41.0666 211.419L87.0165 185.396V133.336" stroke="#350B00" stroke-width="0.913011" stroke-linecap="round" stroke-linejoin="round"/>
</g>
<g clip-path="url(#clip1_101_7121)">
<path d="M254.319 188.138C254.83 187.273 255.143 186.298 255.143 185.419C255.143 183.663 253.885 182.947 252.332 183.83C250.779 184.708 249.521 186.847 249.521 188.603C249.521 190.36 250.779 191.076 252.332 190.193C253.106 189.754 253.814 188.998 254.319 188.138ZM263.768 182.785C264.278 181.92 264.592 180.945 264.592 180.066C264.592 178.31 263.334 177.598 261.781 178.477C260.228 179.355 258.97 181.494 258.97 183.25C258.97 185.007 260.228 185.723 261.781 184.844C262.559 184.405 263.258 183.65 263.768 182.785ZM273.217 177.432C273.727 176.571 274.04 175.596 274.04 174.713C274.04 172.957 272.782 172.245 271.229 173.124C269.676 174.002 268.418 176.141 268.418 177.897C268.418 179.654 269.676 180.369 271.229 179.491C272.004 179.052 272.711 178.297 273.217 177.432ZM283.328 187.321V188.138L237.378 214.161V183.193L259.865 170.454V149.371L283.328 136.078V187.321Z" fill="#DAE0E5"/>
<path d="M283.321 136.08L259.858 149.373V144.977L237.371 132.237L214.88 144.977V149.373L191.417 136.08L237.371 110.057L283.321 136.08Z" fill="white"/>
<path d="M273.207 177.434C272.702 178.299 271.994 179.055 271.22 179.494C269.667 180.372 268.409 179.661 268.409 177.9C268.409 176.139 269.667 174.005 271.22 173.126C272.773 172.248 274.031 172.959 274.031 174.716C274.031 175.599 273.718 176.574 273.207 177.434Z" fill="#350B00"/>
<path d="M263.754 182.786C263.244 183.651 262.546 184.406 261.767 184.845C260.214 185.724 258.956 185.008 258.956 183.251C258.956 181.495 260.214 179.356 261.767 178.478C263.32 177.6 264.578 178.311 264.578 180.068C264.578 180.946 264.265 181.921 263.754 182.786Z" fill="#350B00"/>
<path d="M259.865 149.373V170.456L237.378 183.195V162.112L259.865 149.373Z" fill="#350B00"/>
<path d="M259.865 144.977V149.372L237.378 162.112V157.72L259.865 144.977Z" fill="#350B00"/>
<path d="M259.857 144.98L237.369 157.723L214.878 144.98L237.369 132.24L259.857 144.98Z" fill="#E59636"/>
<path d="M254.317 188.139C253.811 189 253.104 189.755 252.329 190.194C250.776 191.077 249.519 190.361 249.519 188.605C249.519 186.848 250.776 184.71 252.329 183.831C253.883 182.949 255.14 183.664 255.14 185.421C255.14 186.299 254.827 187.274 254.317 188.139Z" fill="#350B00"/>
<path d="M237.371 183.193V214.161L191.417 188.138V136.078L214.88 149.371V170.454L237.371 183.193Z" fill="white"/>
<path d="M237.369 162.112V183.195L214.878 170.456V149.373L237.369 162.112Z" fill="#969A9E"/>
<path d="M237.369 157.72V162.112L214.878 149.372V144.977L237.369 157.72Z" fill="#969A9E"/>
<path d="M214.878 144.98L237.369 132.24L259.857 144.98L237.369 157.723L214.878 144.98Z" stroke="#350B00" stroke-width="0.913011" stroke-linecap="round" stroke-linejoin="round"/>
<path d="M237.378 157.719V162.11" stroke="#350B00" stroke-width="0.913011" stroke-linecap="round" stroke-linejoin="round"/>
<path d="M214.878 144.977V170.455L237.369 183.195L259.857 170.455V144.977" stroke="#350B00" stroke-width="0.913011" stroke-linecap="round" stroke-linejoin="round"/>
<path d="M191.417 136.08L237.371 110.057L283.321 136.08L237.371 162.112L191.417 136.08Z" stroke="#350B00" stroke-width="0.913011" stroke-linecap="round" stroke-linejoin="round"/>
<path d="M237.378 162.111V214.162" stroke="#350B00" stroke-width="0.913011" stroke-linecap="round" stroke-linejoin="round"/>
<path d="M191.417 136.078V188.138L237.371 214.161L283.321 188.138V136.078" stroke="#350B00" stroke-width="0.913011" stroke-linecap="round" stroke-linejoin="round"/>
</g>
<g clip-path="url(#clip2_101_7121)">
<path d="M153.897 139.747C154.408 138.882 154.721 137.907 154.721 137.029C154.721 135.272 153.463 134.557 151.91 135.439C150.357 136.317 149.099 138.456 149.099 140.213C149.099 141.969 150.357 142.685 151.91 141.802C152.684 141.363 153.392 140.608 153.897 139.747ZM163.346 134.394C163.856 133.529 164.17 132.554 164.17 131.676C164.17 129.919 162.912 129.208 161.359 130.086C159.806 130.964 158.548 133.103 158.548 134.86C158.548 136.616 159.806 137.332 161.359 136.454C162.138 136.014 162.836 135.259 163.346 134.394ZM172.795 129.041C173.305 128.18 173.618 127.205 173.618 126.323C173.618 124.566 172.361 123.855 170.807 124.733C169.254 125.611 167.997 127.75 167.997 129.506C167.997 131.263 169.254 131.979 170.807 131.101C171.582 130.661 172.289 129.906 172.795 129.041ZM182.906 138.93V139.747L136.956 165.77V134.802L159.443 122.063V100.98L182.906 87.6875V138.93Z" fill="#DAE0E5"/>
<path d="M182.899 87.6892L159.436 100.982V96.5861L136.949 83.8468L114.458 96.5861V100.982L90.9951 87.6892L136.949 61.666L182.899 87.6892Z" fill="white"/>
<path d="M172.785 129.044C172.28 129.909 171.573 130.664 170.798 131.103C169.245 131.981 167.987 131.27 167.987 129.509C167.987 127.748 169.245 125.614 170.798 124.736C172.351 123.857 173.609 124.569 173.609 126.325C173.609 127.208 173.296 128.183 172.785 129.044Z" fill="#350B00"/>
<path d="M163.332 134.395C162.822 135.26 162.124 136.016 161.345 136.455C159.792 137.333 158.534 136.617 158.534 134.861C158.534 133.104 159.792 130.966 161.345 130.087C162.898 129.209 164.156 129.92 164.156 131.677C164.156 132.555 163.843 133.53 163.332 134.395Z" fill="#350B00"/>
<path d="M159.443 100.982V122.065L136.956 134.805V113.722L159.443 100.982Z" fill="#350B00"/>
<path d="M159.443 96.5859V100.982L136.956 113.721V109.33L159.443 96.5859Z" fill="#350B00"/>
<path d="M159.435 96.589L136.948 109.333L114.456 96.589L136.948 83.8496L159.435 96.589Z" fill="#E59636"/>
<path d="M153.895 139.749C153.389 140.609 152.682 141.365 151.908 141.804C150.354 142.686 149.097 141.971 149.097 140.214C149.097 138.458 150.354 136.319 151.908 135.441C153.461 134.558 154.718 135.274 154.718 137.03C154.718 137.909 154.405 138.884 153.895 139.749Z" fill="#350B00"/>
<path d="M136.949 134.802V165.77L90.9951 139.747V87.6875L114.458 100.98V122.063L136.949 134.802Z" fill="white"/>
<path d="M136.948 113.722V134.805L114.456 122.065V100.982L136.948 113.722Z" fill="#969A9E"/>
<path d="M136.948 109.33V113.721L114.456 100.982V96.5859L136.948 109.33Z" fill="#969A9E"/>
<path d="M114.456 96.589L136.948 83.8496L159.435 96.589L136.948 109.333L114.456 96.589Z" stroke="#350B00" stroke-width="0.913011" stroke-linecap="round" stroke-linejoin="round"/>
<path d="M136.956 109.328V113.719" stroke="#350B00" stroke-width="0.913011" stroke-linecap="round" stroke-linejoin="round"/>
<path d="M114.456 96.5859V122.065L136.948 134.804L159.435 122.065V96.5859" stroke="#350B00" stroke-width="0.913011" stroke-linecap="round" stroke-linejoin="round"/>
<path d="M90.9951 87.6892L136.949 61.666L182.899 87.6892L136.949 113.721L90.9951 87.6892Z" stroke="#350B00" stroke-width="0.913011" stroke-linecap="round" stroke-linejoin="round"/>
<path d="M136.956 113.721V165.772" stroke="#350B00" stroke-width="0.913011" stroke-linecap="round" stroke-linejoin="round"/>
<path d="M90.9951 87.6875V139.747L136.949 165.77L182.899 139.747V87.6875" stroke="#350B00" stroke-width="0.913011" stroke-linecap="round" stroke-linejoin="round"/>
</g>
<g clip-path="url(#clip3_101_7121)">
<path d="M153.897 232.876C154.408 232.011 154.721 231.036 154.721 230.158C154.721 228.401 153.463 227.685 151.91 228.568C150.357 229.446 149.099 231.585 149.099 233.342C149.099 235.098 150.357 235.814 151.91 234.931C152.684 234.492 153.392 233.737 153.897 232.876ZM163.346 227.523C163.856 226.658 164.17 225.683 164.17 224.805C164.17 223.048 162.912 222.337 161.359 223.215C159.806 224.093 158.548 226.232 158.548 227.988C158.548 229.745 159.806 230.461 161.359 229.583C162.138 229.143 162.836 228.388 163.346 227.523ZM172.795 222.17C173.305 221.309 173.618 220.334 173.618 219.452C173.618 217.695 172.361 216.984 170.807 217.862C169.254 218.74 167.997 220.879 167.997 222.635C167.997 224.392 169.254 225.108 170.807 224.229C171.582 223.79 172.289 223.035 172.795 222.17ZM182.906 232.059V232.876L136.956 258.899V227.931L159.443 215.192V194.109L182.906 180.816V232.059Z" fill="#DAE0E5"/>
<path d="M182.899 180.818L159.436 194.111V189.715L136.949 176.976L114.458 189.715V194.111L90.9951 180.818L136.949 154.795L182.899 180.818Z" fill="white"/>
<path d="M172.785 222.173C172.28 223.038 171.573 223.793 170.798 224.232C169.245 225.11 167.987 224.399 167.987 222.638C167.987 220.877 169.245 218.743 170.798 217.865C172.351 216.986 173.609 217.698 173.609 219.454C173.609 220.337 173.296 221.312 172.785 222.173Z" fill="#350B00"/>
<path d="M163.332 227.524C162.822 228.389 162.124 229.144 161.345 229.584C159.792 230.462 158.534 229.746 158.534 227.99C158.534 226.233 159.792 224.094 161.345 223.216C162.898 222.338 164.156 223.049 164.156 224.806C164.156 225.684 163.843 226.659 163.332 227.524Z" fill="#350B00"/>
<path d="M159.443 194.111V215.194L136.956 227.934V206.851L159.443 194.111Z" fill="#350B00"/>
<path d="M159.443 189.715V194.111L136.956 206.85V202.459L159.443 189.715Z" fill="#350B00"/>
<path d="M159.435 189.718L136.948 202.462L114.456 189.718L136.948 176.979L159.435 189.718Z" fill="#E59636"/>
<path d="M153.895 232.878C153.389 233.738 152.682 234.494 151.908 234.933C150.354 235.815 149.097 235.1 149.097 233.343C149.097 231.587 150.354 229.448 151.908 228.57C153.461 227.687 154.718 228.403 154.718 230.159C154.718 231.038 154.405 232.012 153.895 232.878Z" fill="#350B00"/>
<path d="M136.949 227.931V258.899L90.9951 232.876V180.816L114.458 194.109V215.192L136.949 227.931Z" fill="white"/>
<path d="M136.948 206.851V227.934L114.456 215.194V194.111L136.948 206.851Z" fill="#969A9E"/>
<path d="M136.948 202.459V206.85L114.456 194.111V189.715L136.948 202.459Z" fill="#969A9E"/>
<path d="M114.456 189.718L136.948 176.979L159.435 189.718L136.948 202.462L114.456 189.718Z" stroke="#350B00" stroke-width="0.913011" stroke-linecap="round" stroke-linejoin="round"/>
<path d="M136.956 202.457V206.848" stroke="#350B00" stroke-width="0.913011" stroke-linecap="round" stroke-linejoin="round"/>
<path d="M114.456 189.715V215.194L136.948 227.933L159.435 215.194V189.715" stroke="#350B00" stroke-width="0.913011" stroke-linecap="round" stroke-linejoin="round"/>
<path d="M90.9951 180.818L136.949 154.795L182.899 180.818L136.949 206.85L90.9951 180.818Z" stroke="#350B00" stroke-width="0.913011" stroke-linecap="round" stroke-linejoin="round"/>
<path d="M136.956 206.85V258.9" stroke="#350B00" stroke-width="0.913011" stroke-linecap="round" stroke-linejoin="round"/>
<path d="M90.9951 180.816V232.876L136.949 258.899L182.899 232.876V180.816" stroke="#350B00" stroke-width="0.913011" stroke-linecap="round" stroke-linejoin="round"/>
</g>
<defs>
<clipPath id="clip0_101_7121">
<rect width="85.823" height="105.909" fill="white" transform="translate(1.75293 106.66)"/>
</clipPath>
<clipPath id="clip1_101_7121">
<rect width="91.3011" height="105.909" fill="white" transform="translate(190.745 109.398)"/>
</clipPath>
<clipPath id="clip2_101_7121">
<rect width="93.1271" height="105.909" fill="white" transform="translate(90.3232 61.0098)"/>
</clipPath>
<clipPath id="clip3_101_7121">
<rect width="93.1271" height="105.909" fill="white" transform="translate(90.3232 154.135)"/>
</clipPath>
</defs>
</svg>
