<svg width="283" height="283" viewBox="0 0 283 283" fill="none" xmlns="http://www.w3.org/2000/svg">
<g style="mix-blend-mode:multiply">
<path d="M225.416 145.345C219.375 144.349 214.908 146.844 209.907 149.515C205.488 151.875 140.974 185.354 126.137 193.121C126.399 192.107 125.097 191.185 124.119 192.029C121.282 194.476 117.095 194.214 113.847 196.036C109.946 198.226 106.969 201.889 108.349 206.36C110.023 211.771 115.88 214.97 121.902 214.94C128.335 214.909 134.226 211.526 139.691 208.86C160.65 198.641 181.271 187.522 201.059 175.538C206.732 172.103 212.376 168.637 217.952 165.07C220.687 163.322 223.679 161.652 226.128 159.576C229.003 157.137 229.903 154.445 230.175 151.001C230.358 148.641 228.04 145.782 225.407 145.345H225.416Z" fill="#D7DCE0"/>
</g>
<g style="mix-blend-mode:multiply">
<path d="M113.139 148.44C112.795 146.303 111.135 144.961 108.826 144.524C105.278 143.851 102.509 145.363 99.5805 146.928C91.1193 151.442 82.8565 156.224 74.6035 161.041C65.3387 166.443 55.7303 171.377 46.5237 176.862C45.3958 177.531 46.1655 178.864 47.3901 178.716C57.0905 177.536 66.3456 174.428 75.2957 170.958C84.2845 167.474 93.0894 163.602 101.555 159.166C105.883 156.897 114.044 154.061 113.139 148.44Z" fill="#D7DCE0"/>
</g>
<path d="M223.344 131.504V135.993C223.344 141.355 219.733 147.588 215.28 149.909L123.422 197.794C121.35 198.874 119.462 198.918 118.039 198.118C116.393 197.2 115.357 195.159 115.357 192.292V187.798L223.344 131.504Z" fill="#E59636"/>
<path d="M223.344 72.9939V131.504L115.357 187.799V129.288C115.357 123.926 118.968 117.693 123.422 115.372L215.28 67.4868C217.245 66.4641 219.046 66.3723 220.445 67.0498C222.217 67.9064 223.344 69.9956 223.344 72.9939ZM214.777 98.4357V82.8498C214.777 81.9364 214.065 81.5692 213.189 82.0238C212.313 82.4827 211.601 83.5929 211.601 84.5063V100.092C211.601 101.006 212.313 101.373 213.189 100.918C214.065 100.459 214.777 99.3492 214.777 98.4357ZM206.804 109.432V96.8448C206.804 95.9313 206.098 95.5598 205.221 96.0188C204.341 96.4733 203.634 97.5835 203.634 98.5013V111.089C203.634 112.002 204.341 112.374 205.221 111.915C206.098 111.456 206.804 110.346 206.804 109.432ZM198.837 121.526V106.749C198.837 105.831 198.125 105.464 197.249 105.918C196.373 106.377 195.661 107.487 195.661 108.401V123.178C195.661 124.092 196.373 124.463 197.249 124.009C198.125 123.55 198.837 122.44 198.837 121.526ZM190.865 115.827V107.072C190.865 106.159 190.153 105.787 189.277 106.242C188.401 106.701 187.689 107.811 187.689 108.724V117.483C187.689 118.397 188.401 118.768 189.277 118.309C190.153 117.855 190.865 116.74 190.865 115.827ZM182.892 114.236V99.4716C182.892 98.5581 182.186 98.1866 181.309 98.6455C180.428 99.1045 179.722 100.215 179.722 101.128V115.892C179.722 116.806 180.428 117.177 181.309 116.718C182.186 116.259 182.892 115.149 182.892 114.236ZM174.925 133.445V114.835C174.925 113.921 174.213 113.55 173.337 114.009C172.461 114.463 171.749 115.573 171.749 116.487V135.097C171.749 136.011 172.461 136.382 173.337 135.928C174.213 135.469 174.925 134.359 174.925 133.445ZM166.952 134.035V127.199C166.952 126.286 166.241 125.914 165.365 126.373C164.489 126.828 163.777 127.938 163.777 128.856V135.692C163.777 136.605 164.489 136.977 165.365 136.518C166.241 136.063 166.952 134.953 166.952 134.035ZM158.98 144.49V132.178C158.98 131.26 158.273 130.893 157.392 131.347C156.516 131.806 155.81 132.916 155.81 133.83V146.146C155.81 147.06 156.516 147.431 157.392 146.972C158.273 146.518 158.98 145.403 158.98 144.49ZM151.013 142.348V126.478C151.013 125.565 150.301 125.193 149.425 125.652C148.549 126.107 147.837 127.221 147.837 128.135V144.005C147.837 144.918 148.549 145.285 149.425 144.831C150.301 144.372 151.013 143.262 151.013 142.348ZM143.04 139.665V117.496C143.04 116.583 142.329 116.216 141.453 116.67C140.576 117.129 139.865 118.239 139.865 119.153V141.321C139.865 142.234 140.576 142.606 141.453 142.147C142.329 141.688 143.04 140.578 143.04 139.665ZM135.068 145.189V136.706C135.068 135.792 134.356 135.421 133.48 135.879C132.604 136.334 131.893 137.444 131.893 138.362V146.846C131.893 147.759 132.604 148.126 133.48 147.672C134.356 147.213 135.068 146.103 135.068 145.189ZM133.108 166.776V164.193C133.108 162.261 131.81 161.374 130.203 162.213L126.829 163.97C125.222 164.809 123.925 167.051 123.925 168.979V171.566C123.925 173.494 125.222 174.381 126.829 173.546L130.203 171.785C131.81 170.95 133.108 168.708 133.108 166.776ZM127.1 148.524V141.955C127.1 141.041 126.389 140.67 125.513 141.129C124.637 141.583 123.925 142.698 123.925 143.611V150.176C123.925 151.09 124.637 151.461 125.513 151.006C126.389 150.548 127.1 149.437 127.1 148.524Z" fill="white"/>
<path d="M220.459 67.0456H220.454C219.055 66.3725 217.254 66.4642 215.289 67.487L123.431 115.372C118.977 117.693 115.366 123.926 115.366 129.289V192.292C115.366 195.159 116.402 197.201 118.048 198.118H118.043L107.442 192.594C105.734 191.707 104.654 189.639 104.654 186.706V123.703C104.654 118.34 108.265 112.112 112.719 109.791L204.577 61.9012C206.595 60.8523 208.44 60.7823 209.853 61.5166L220.459 67.0456Z" fill="#350B00"/>
<path d="M190.853 107.073V115.828C190.853 116.741 190.142 117.856 189.265 118.31C188.389 118.769 187.678 118.398 187.678 117.484V108.725C187.678 107.812 188.389 106.702 189.265 106.243C190.142 105.788 190.853 106.16 190.853 107.073Z" fill="#350B00"/>
<path d="M182.887 99.472V114.236C182.887 115.15 182.181 116.26 181.304 116.719C180.424 117.178 179.717 116.806 179.717 115.893V101.129C179.717 100.215 180.424 99.1049 181.304 98.646C182.181 98.1871 182.887 98.5586 182.887 99.472Z" fill="#350B00"/>
<path d="M174.908 114.833V133.444C174.908 134.357 174.196 135.467 173.32 135.926C172.444 136.381 171.732 136.009 171.732 135.096V116.486C171.732 115.572 172.444 114.462 173.32 114.007C174.196 113.548 174.908 113.92 174.908 114.833Z" fill="#350B00"/>
<path d="M166.955 127.199V134.034C166.955 134.952 166.243 136.062 165.367 136.517C164.491 136.976 163.779 136.604 163.779 135.691V128.855C163.779 127.937 164.491 126.827 165.367 126.373C166.243 125.914 166.955 126.285 166.955 127.199Z" fill="#350B00"/>
<path d="M158.965 132.178V144.49C158.965 145.403 158.259 146.518 157.378 146.972C156.502 147.431 155.795 147.06 155.795 146.146V133.83C155.795 132.916 156.502 131.806 157.378 131.347C158.259 130.893 158.965 131.26 158.965 132.178Z" fill="#350B00"/>
<path d="M150.994 126.478V142.348C150.994 143.261 150.282 144.372 149.406 144.83C148.53 145.285 147.818 144.918 147.818 144.004V128.134C147.818 127.221 148.53 126.106 149.406 125.652C150.282 125.193 150.994 125.564 150.994 126.478Z" fill="#350B00"/>
<path d="M143.041 117.499V139.668C143.041 140.581 142.329 141.691 141.453 142.15C140.577 142.609 139.865 142.238 139.865 141.324V119.156C139.865 118.242 140.577 117.132 141.453 116.673C142.329 116.219 143.041 116.586 143.041 117.499Z" fill="#350B00"/>
<path d="M135.064 136.704V145.188C135.064 146.102 134.352 147.212 133.476 147.671C132.6 148.125 131.889 147.758 131.889 146.845V138.361C131.889 137.443 132.6 136.333 133.476 135.878C134.352 135.419 135.064 135.791 135.064 136.704Z" fill="#350B00"/>
<path d="M134.971 98.1721L112.69 109.789C108.237 112.11 104.626 118.338 104.626 123.701V146.809L40.8184 180.07L52.7793 151.071L58.5976 151.586L61.0226 147.364L72.1703 148.649L77.5046 124.877L86.232 128.605L88.1682 123.749L93.9865 124.855L103.682 100.287L115.803 106.389L125.987 96.0566L134.971 98.1721Z" fill="#E59636"/>
<path d="M133.11 164.195V166.778C133.11 168.71 131.813 170.952 130.206 171.787L126.832 173.548C125.225 174.383 123.928 173.496 123.928 171.568V168.981C123.928 167.053 125.225 164.811 126.832 163.972L130.206 162.215C131.813 161.376 133.11 162.263 133.11 164.195Z" fill="#350B00"/>
<path d="M127.103 141.954V148.524C127.103 149.437 126.392 150.547 125.515 151.006C124.639 151.461 123.928 151.089 123.928 150.176V143.611C123.928 142.697 124.639 141.583 125.515 141.128C126.392 140.669 127.103 141.041 127.103 141.954Z" fill="#350B00"/>
<path d="M223.344 131.504V135.993C223.344 141.356 219.733 147.589 215.28 149.909L123.422 197.795C121.35 198.874 119.462 198.914 118.039 198.118C116.393 197.196 115.357 195.159 115.357 192.292V129.289C115.357 123.926 118.968 117.693 123.422 115.372L215.28 67.4868C217.245 66.4641 219.046 66.3723 220.445 67.0498C222.217 67.9064 223.344 69.9956 223.344 72.9939V131.504Z" stroke="#350B00" stroke-width="0.82907" stroke-linecap="round" stroke-linejoin="round"/>
<path d="M115.357 187.798L223.344 131.504" stroke="#350B00" stroke-width="0.82907" stroke-linecap="round" stroke-linejoin="round"/>
<path d="M125.515 151.006C124.639 151.461 123.928 151.089 123.928 150.176V143.611C123.928 142.697 124.639 141.583 125.515 141.128C126.392 140.669 127.103 141.041 127.103 141.954V148.524C127.103 149.437 126.392 150.547 125.515 151.006Z" stroke="#350B00" stroke-width="0.82907" stroke-linecap="round" stroke-linejoin="round"/>
<path d="M133.476 147.671C132.6 148.125 131.889 147.758 131.889 146.845V138.361C131.889 137.443 132.6 136.333 133.476 135.878C134.352 135.419 135.064 135.791 135.064 136.704V145.188C135.064 146.102 134.352 147.212 133.476 147.671Z" stroke="#350B00" stroke-width="0.82907" stroke-linecap="round" stroke-linejoin="round"/>
<path d="M141.453 142.15C140.577 142.609 139.865 142.238 139.865 141.324V119.156C139.865 118.242 140.577 117.132 141.453 116.673C142.329 116.219 143.041 116.586 143.041 117.499V139.668C143.041 140.581 142.329 141.691 141.453 142.15Z" stroke="#350B00" stroke-width="0.82907" stroke-linecap="round" stroke-linejoin="round"/>
<path d="M149.406 144.83C148.53 145.285 147.818 144.918 147.818 144.004V128.134C147.818 127.221 148.53 126.106 149.406 125.652C150.282 125.193 150.994 125.564 150.994 126.478V142.348C150.994 143.261 150.282 144.372 149.406 144.83Z" stroke="#350B00" stroke-width="0.82907" stroke-linecap="round" stroke-linejoin="round"/>
<path d="M157.378 146.972C156.502 147.431 155.795 147.06 155.795 146.146V133.83C155.795 132.916 156.502 131.806 157.378 131.347C158.259 130.893 158.965 131.26 158.965 132.178V144.49C158.965 145.403 158.259 146.518 157.378 146.972Z" stroke="#350B00" stroke-width="0.82907" stroke-linecap="round" stroke-linejoin="round"/>
<path d="M165.367 136.517C164.491 136.976 163.779 136.604 163.779 135.691V128.855C163.779 127.937 164.491 126.827 165.367 126.373C166.243 125.914 166.955 126.285 166.955 127.199V134.034C166.955 134.952 166.243 136.062 165.367 136.517Z" stroke="#350B00" stroke-width="0.82907" stroke-linecap="round" stroke-linejoin="round"/>
<path d="M173.32 135.926C172.444 136.381 171.732 136.009 171.732 135.096V116.486C171.732 115.572 172.444 114.462 173.32 114.007C174.196 113.548 174.908 113.92 174.908 114.833V133.444C174.908 134.357 174.196 135.467 173.32 135.926Z" stroke="#350B00" stroke-width="0.82907" stroke-linecap="round" stroke-linejoin="round"/>
<path d="M181.304 116.719C180.424 117.178 179.717 116.806 179.717 115.893V101.129C179.717 100.215 180.424 99.1049 181.304 98.646C182.181 98.1871 182.887 98.5586 182.887 99.472V114.236C182.887 115.15 182.181 116.26 181.304 116.719Z" stroke="#350B00" stroke-width="0.82907" stroke-linecap="round" stroke-linejoin="round"/>
<path d="M189.265 118.31C188.389 118.769 187.678 118.398 187.678 117.484V108.725C187.678 107.812 188.389 106.702 189.265 106.243C190.142 105.788 190.853 106.16 190.853 107.073V115.828C190.853 116.741 190.142 117.856 189.265 118.31Z" stroke="#350B00" stroke-width="0.82907" stroke-linecap="round" stroke-linejoin="round"/>
<path d="M130.206 171.787L126.832 173.548C125.225 174.383 123.928 173.496 123.928 171.568V168.981C123.928 167.053 125.225 164.811 126.832 163.972L130.206 162.215C131.813 161.376 133.11 162.263 133.11 164.195V166.778C133.11 168.71 131.813 170.952 130.206 171.787Z" stroke="#350B00" stroke-width="0.82907" stroke-linecap="round" stroke-linejoin="round"/>
<path d="M220.565 67.1024L209.853 61.5166C208.44 60.7823 206.595 60.8523 204.577 61.9012L112.719 109.791C108.265 112.112 104.654 118.34 104.654 123.703V186.706C104.654 189.639 105.734 191.707 107.442 192.594L118.154 198.18" stroke="#350B00" stroke-width="0.82907" stroke-linecap="round" stroke-linejoin="round"/>
<path d="M193.637 202.868L173.413 192.326L157.101 200.831L137.342 190.529" stroke="#350B00" stroke-width="0.82907" stroke-linecap="round" stroke-linejoin="round"/>
<path d="M104.632 184.838L87.0996 194.3" stroke="#350B00" stroke-width="0.82907" stroke-linecap="round" stroke-linejoin="round"/>
<path d="M104.626 146.809L40.8184 180.07L52.7793 151.071L58.5976 151.586L61.0226 147.364L72.1703 148.649L77.5046 124.877L86.232 128.605L88.1682 123.749L93.9865 124.855L103.682 100.287L115.803 106.389L125.987 96.0566L134.971 98.1721" stroke="#350B00" stroke-width="0.82907" stroke-linecap="round" stroke-linejoin="round"/>
</svg>
