<svg width="307" height="340" viewBox="0 0 307 340" fill="none" xmlns="http://www.w3.org/2000/svg">
<g style="mix-blend-mode:multiply">
<path d="M244.587 174.701C238.008 173.499 233.142 176.509 227.696 179.73C222.883 182.577 152.62 222.959 136.462 232.327C136.747 231.104 135.329 229.992 134.264 231.009C131.174 233.961 126.614 233.645 123.077 235.843C118.828 238.484 115.586 242.902 117.088 248.295C118.912 254.822 125.291 258.681 131.849 258.644C138.855 258.607 145.271 254.527 151.223 251.311C174.05 238.985 196.508 225.574 218.059 211.119C224.238 206.975 230.385 202.794 236.458 198.493C239.436 196.384 242.694 194.37 245.362 191.866C248.493 188.924 249.474 185.677 249.769 181.523C249.969 178.676 247.444 175.228 244.576 174.701H244.587Z" fill="#D7DCE0"/>
</g>
<g style="mix-blend-mode:multiply">
<path d="M122.313 178.433C121.938 175.856 120.13 174.237 117.615 173.71C113.751 172.898 110.736 174.722 107.546 176.609C98.3312 182.055 89.3322 187.823 80.3438 193.632C70.2536 200.148 59.789 206.1 49.762 212.716C48.5337 213.523 49.3719 215.13 50.7057 214.951C61.2704 213.528 71.3501 209.78 81.0977 205.594C90.8874 201.392 100.477 196.721 109.697 191.37C114.41 188.634 123.298 185.213 122.313 178.433Z" fill="#D7DCE0"/>
</g>
<path d="M242.335 158.006V163.42C242.335 169.888 238.403 177.406 233.552 180.205L133.509 237.963C131.253 239.265 129.197 239.318 127.647 238.353C125.855 237.246 124.727 234.784 124.727 231.326V225.907L242.335 158.006Z" fill="#EE8167"/>
<path d="M242.335 87.4321V158.006L124.727 225.907V155.333C124.727 148.864 128.659 141.347 133.509 138.548L233.552 80.7896C235.693 79.556 237.654 79.4453 239.178 80.2624C241.107 81.2957 242.335 83.8156 242.335 87.4321ZM233.004 118.119V99.32C233.004 98.2182 232.229 97.7754 231.275 98.3236C230.321 98.8772 229.546 100.216 229.546 101.318V120.117C229.546 121.219 230.321 121.662 231.275 121.114C232.229 120.56 233.004 119.221 233.004 118.119ZM224.322 131.383V116.2C224.322 115.099 223.552 114.65 222.598 115.204C221.638 115.752 220.869 117.091 220.869 118.198V133.381C220.869 134.483 221.638 134.931 222.598 134.378C223.552 133.824 224.322 132.485 224.322 131.383ZM215.644 145.97V128.146C215.644 127.039 214.869 126.596 213.915 127.145C212.961 127.698 212.186 129.037 212.186 130.139V147.963C212.186 149.065 212.961 149.513 213.915 148.965C214.869 148.411 215.644 147.072 215.644 145.97ZM206.961 139.096V128.536C206.961 127.435 206.187 126.986 205.232 127.535C204.278 128.088 203.503 129.427 203.503 130.529V141.094C203.503 142.196 204.278 142.644 205.232 142.09C206.187 141.542 206.961 140.198 206.961 139.096ZM198.279 137.177V119.369C198.279 118.267 197.509 117.819 196.555 118.372C195.595 118.926 194.826 120.265 194.826 121.367V139.175C194.826 140.277 195.595 140.725 196.555 140.171C197.509 139.618 198.279 138.279 198.279 137.177ZM189.601 160.346V137.899C189.601 136.797 188.826 136.349 187.872 136.903C186.918 137.451 186.143 138.79 186.143 139.892V162.339C186.143 163.441 186.918 163.889 187.872 163.341C188.826 162.787 189.601 161.448 189.601 160.346ZM180.919 161.058V152.813C180.919 151.711 180.144 151.263 179.19 151.817C178.235 152.365 177.46 153.704 177.46 154.811V163.056C177.46 164.158 178.235 164.606 179.19 164.053C180.144 163.504 180.919 162.165 180.919 161.058ZM172.236 173.668V158.818C172.236 157.711 171.466 157.268 170.507 157.816C169.553 158.369 168.783 159.709 168.783 160.81V175.666C168.783 176.768 169.553 177.216 170.507 176.663C171.466 176.114 172.236 174.77 172.236 173.668ZM163.559 171.085V151.943C163.559 150.841 162.784 150.393 161.83 150.947C160.875 151.495 160.1 152.839 160.1 153.941V173.083C160.1 174.185 160.875 174.628 161.83 174.08C162.784 173.526 163.559 172.187 163.559 171.085ZM154.876 167.848V141.11C154.876 140.008 154.101 139.565 153.147 140.113C152.193 140.667 151.418 142.006 151.418 143.108V169.846C151.418 170.948 152.193 171.396 153.147 170.843C154.101 170.289 154.876 168.95 154.876 167.848ZM146.193 174.512V164.279C146.193 163.177 145.418 162.729 144.464 163.283C143.51 163.831 142.735 165.17 142.735 166.277V176.51C142.735 177.612 143.51 178.054 144.464 177.506C145.418 176.953 146.193 175.614 146.193 174.512ZM144.058 200.549V197.434C144.058 195.103 142.645 194.033 140.895 195.045L137.221 197.165C135.471 198.177 134.058 200.881 134.058 203.206V206.327C134.058 208.652 135.471 209.722 137.221 208.715L140.895 206.591C142.645 205.584 144.058 202.879 144.058 200.549ZM137.516 178.534V170.611C137.516 169.509 136.741 169.061 135.787 169.614C134.833 170.163 134.058 171.507 134.058 172.609V180.527C134.058 181.629 134.833 182.077 135.787 181.529C136.741 180.975 137.516 179.636 137.516 178.534Z" fill="white"/>
<path d="M239.185 80.2566H239.18C237.656 79.4448 235.695 79.5555 233.555 80.7891L133.512 138.547C128.662 141.346 124.729 148.864 124.729 155.332V231.326C124.729 234.784 125.857 237.246 127.65 238.353H127.644L116.099 231.689C114.238 230.619 113.062 228.126 113.062 224.588V148.595C113.062 142.127 116.995 134.614 121.845 131.815L221.888 74.0517C224.087 72.7865 226.095 72.7021 227.635 73.5878L239.185 80.2566Z" fill="#350B00"/>
<path d="M206.962 128.535V139.095C206.962 140.197 206.187 141.541 205.233 142.089C204.279 142.643 203.504 142.195 203.504 141.093V130.528C203.504 129.426 204.279 128.087 205.233 127.534C206.187 126.986 206.962 127.434 206.962 128.535Z" fill="#350B00"/>
<path d="M198.281 119.368V137.177C198.281 138.278 197.511 139.617 196.557 140.171C195.598 140.725 194.828 140.276 194.828 139.175V121.367C194.828 120.265 195.598 118.926 196.557 118.372C197.511 117.819 198.281 118.267 198.281 119.368Z" fill="#350B00"/>
<path d="M189.603 137.899V160.346C189.603 161.448 188.828 162.787 187.874 163.341C186.919 163.889 186.145 163.441 186.145 162.339V139.891C186.145 138.79 186.919 137.451 187.874 136.902C188.828 136.349 189.603 136.797 189.603 137.899Z" fill="#350B00"/>
<path d="M180.919 152.812V161.057C180.919 162.164 180.144 163.503 179.19 164.051C178.236 164.605 177.461 164.157 177.461 163.055V154.81C177.461 153.703 178.236 152.364 179.19 151.815C180.144 151.262 180.919 151.71 180.919 152.812Z" fill="#350B00"/>
<path d="M172.238 158.817V173.667C172.238 174.769 171.469 176.113 170.509 176.662C169.555 177.215 168.785 176.767 168.785 175.665V160.809C168.785 159.708 169.555 158.369 170.509 157.815C171.469 157.267 172.238 157.71 172.238 158.817Z" fill="#350B00"/>
<path d="M163.56 151.943V171.085C163.56 172.186 162.785 173.525 161.831 174.079C160.877 174.627 160.102 174.184 160.102 173.083V153.941C160.102 152.839 160.877 151.495 161.831 150.946C162.785 150.393 163.56 150.841 163.56 151.943Z" fill="#350B00"/>
<path d="M154.876 141.109V167.848C154.876 168.95 154.101 170.289 153.147 170.842C152.193 171.396 151.418 170.948 151.418 169.846V143.107C151.418 142.006 152.193 140.667 153.147 140.113C154.101 139.565 154.876 140.008 154.876 141.109Z" fill="#350B00"/>
<path d="M146.193 164.279V174.511C146.193 175.613 145.418 176.952 144.464 177.506C143.509 178.054 142.734 177.611 142.734 176.509V166.277C142.734 165.17 143.509 163.831 144.464 163.282C145.418 162.729 146.193 163.177 146.193 164.279Z" fill="#350B00"/>
<path d="M146.108 117.803L121.842 131.815C116.992 134.614 113.059 142.127 113.059 148.595V176.467L43.5664 216.586L56.593 181.607L62.9298 182.229L65.5709 177.137L77.7119 178.687L83.5214 150.013L93.0265 154.51L95.1352 148.653L101.472 149.987L112.031 120.354L125.232 127.714L136.324 115.251L146.108 117.803Z" fill="#EE8167"/>
<path d="M144.059 197.433V200.549C144.059 202.879 142.646 205.583 140.896 206.59L137.222 208.715C135.471 209.722 134.059 208.651 134.059 206.327V203.206C134.059 200.881 135.471 198.176 137.222 197.164L140.896 195.045C142.646 194.033 144.059 195.103 144.059 197.433Z" fill="#350B00"/>
<path d="M137.517 170.611V178.534C137.517 179.636 136.742 180.975 135.788 181.529C134.834 182.077 134.059 181.629 134.059 180.527V172.609C134.059 171.507 134.834 170.163 135.788 169.614C136.742 169.061 137.517 169.509 137.517 170.611Z" fill="#350B00"/>
<path d="M242.335 158.006V163.42C242.335 169.888 238.403 177.406 233.552 180.205L133.509 237.963C131.253 239.265 129.197 239.313 127.647 238.353C125.855 237.241 124.727 234.784 124.727 231.326V155.333C124.727 148.864 128.659 141.347 133.509 138.548L233.552 80.7896C235.693 79.556 237.654 79.4453 239.178 80.2624C241.107 81.2957 242.335 83.8156 242.335 87.4321V158.006Z" stroke="#350B00" stroke-linecap="round" stroke-linejoin="round"/>
<path d="M124.727 225.907L242.335 158.006" stroke="#350B00" stroke-linecap="round" stroke-linejoin="round"/>
<path d="M135.788 181.529C134.834 182.077 134.059 181.629 134.059 180.527V172.609C134.059 171.507 134.834 170.163 135.788 169.614C136.742 169.061 137.517 169.509 137.517 170.611V178.534C137.517 179.636 136.742 180.975 135.788 181.529Z" stroke="#350B00" stroke-linecap="round" stroke-linejoin="round"/>
<path d="M144.464 177.506C143.509 178.054 142.734 177.611 142.734 176.509V166.277C142.734 165.17 143.509 163.831 144.464 163.282C145.418 162.729 146.193 163.177 146.193 164.279V174.511C146.193 175.613 145.418 176.952 144.464 177.506Z" stroke="#350B00" stroke-linecap="round" stroke-linejoin="round"/>
<path d="M153.147 170.842C152.193 171.396 151.418 170.948 151.418 169.846V143.107C151.418 142.006 152.193 140.667 153.147 140.113C154.101 139.565 154.876 140.008 154.876 141.109V167.848C154.876 168.95 154.101 170.289 153.147 170.842Z" stroke="#350B00" stroke-linecap="round" stroke-linejoin="round"/>
<path d="M161.831 174.079C160.877 174.627 160.102 174.184 160.102 173.083V153.941C160.102 152.839 160.877 151.495 161.831 150.946C162.785 150.393 163.56 150.841 163.56 151.943V171.085C163.56 172.186 162.785 173.525 161.831 174.079Z" stroke="#350B00" stroke-linecap="round" stroke-linejoin="round"/>
<path d="M170.509 176.662C169.555 177.215 168.785 176.767 168.785 175.665V160.809C168.785 159.708 169.555 158.369 170.509 157.815C171.469 157.267 172.238 157.71 172.238 158.817V173.667C172.238 174.769 171.469 176.113 170.509 176.662Z" stroke="#350B00" stroke-linecap="round" stroke-linejoin="round"/>
<path d="M179.19 164.051C178.236 164.605 177.461 164.157 177.461 163.055V154.81C177.461 153.703 178.236 152.364 179.19 151.815C180.144 151.262 180.919 151.71 180.919 152.812V161.057C180.919 162.164 180.144 163.503 179.19 164.051Z" stroke="#350B00" stroke-linecap="round" stroke-linejoin="round"/>
<path d="M187.874 163.341C186.919 163.889 186.145 163.441 186.145 162.339V139.891C186.145 138.79 186.919 137.451 187.874 136.902C188.828 136.349 189.603 136.797 189.603 137.899V160.346C189.603 161.448 188.828 162.787 187.874 163.341Z" stroke="#350B00" stroke-linecap="round" stroke-linejoin="round"/>
<path d="M196.557 140.171C195.598 140.725 194.828 140.276 194.828 139.175V121.367C194.828 120.265 195.598 118.926 196.557 118.372C197.511 117.819 198.281 118.267 198.281 119.368V137.177C198.281 138.278 197.511 139.617 196.557 140.171Z" stroke="#350B00" stroke-linecap="round" stroke-linejoin="round"/>
<path d="M205.233 142.089C204.279 142.643 203.504 142.195 203.504 141.093V130.528C203.504 129.426 204.279 128.087 205.233 127.534C206.187 126.986 206.962 127.434 206.962 128.535V139.095C206.962 140.197 206.187 141.541 205.233 142.089Z" stroke="#350B00" stroke-linecap="round" stroke-linejoin="round"/>
<path d="M140.896 206.59L137.222 208.715C135.471 209.722 134.059 208.651 134.059 206.327V203.206C134.059 200.881 135.471 198.176 137.222 197.164L140.896 195.045C142.646 194.033 144.059 195.103 144.059 197.433V200.549C144.059 202.879 142.646 205.583 140.896 206.59Z" stroke="#350B00" stroke-linecap="round" stroke-linejoin="round"/>
<path d="M239.301 80.3252L227.635 73.5878C226.095 72.7021 224.087 72.7865 221.888 74.0517L121.845 131.815C116.995 134.614 113.062 142.127 113.062 148.595V224.588C113.062 228.126 114.238 230.619 116.099 231.689L127.766 238.427" stroke="#350B00" stroke-linecap="round" stroke-linejoin="round"/>
<path d="M210.003 244.083L187.977 231.368L170.211 241.627L148.691 229.201" stroke="#350B00" stroke-linecap="round" stroke-linejoin="round"/>
<path d="M113.059 222.337L93.9648 233.75" stroke="#350B00" stroke-linecap="round" stroke-linejoin="round"/>
<path d="M113.059 176.467L43.5664 216.586L56.593 181.607L62.9298 182.229L65.5709 177.137L77.7119 178.687L83.5214 150.013L93.0265 154.51L95.1352 148.653L101.472 149.987L112.031 120.354L125.232 127.714L136.324 115.251L146.108 117.803" stroke="#350B00" stroke-linecap="round" stroke-linejoin="round"/>
</svg>
