<svg width="307" height="340" viewBox="0 0 307 340" fill="none" xmlns="http://www.w3.org/2000/svg">
<path d="M236.292 170V170.06C236.262 170.19 236.162 170.3 236.002 170.4C235.922 170.44 235.812 170.49 235.682 170.53L230.012 171.84C230.022 167.27 228.842 162.69 226.422 158.25L235.682 156.11C235.812 156.08 235.922 156.03 236.002 155.98C236.162 155.88 236.262 155.77 236.292 155.64V170Z" fill="#350B00"/>
<path d="M215.054 178.979C217.024 173.149 216.604 167.039 213.604 161.219L206.154 162.949C205.814 163.029 205.434 162.999 205.164 162.869C204.984 162.789 204.864 162.659 204.814 162.549V162.329L210.644 146.069C210.704 145.889 210.944 145.739 211.244 145.669C211.544 145.599 211.894 145.619 212.174 145.719L235.874 155.119C236.134 155.209 236.274 155.389 236.294 155.589V155.649C236.264 155.779 236.164 155.889 236.004 155.989C235.924 156.039 235.814 156.089 235.684 156.119L226.424 158.259C228.844 162.699 230.024 167.279 230.014 171.849H230.004V172.859C229.524 184.229 221.654 195.359 207.214 203.699C183.014 217.669 145.104 220.869 115.004 211.479L121.544 204.509C146.314 212.239 177.544 209.589 197.494 198.089C206.674 192.789 212.614 186.089 215.044 178.999L215.054 178.979Z" fill="white"/>
<path d="M230.004 171.839H230.014C230.014 172.179 230.004 172.519 230.004 172.849V171.839Z" fill="white"/>
<path d="M230.004 172.85V186.17C230.004 197.9 222.114 209.5 207.214 218.11C183.014 232.08 145.104 235.29 115.004 225.9V211.47C145.104 220.86 183.014 217.66 207.214 203.69C221.644 195.35 229.514 184.22 230.004 172.85Z" fill="#350B00"/>
<path d="M213.602 161.219C216.602 167.049 217.023 173.159 215.053 178.979C214.663 177.839 214.182 176.759 213.602 175.649L206.152 177.379C205.812 177.439 205.423 177.409 205.163 177.279C204.933 177.169 204.812 177.009 204.812 176.849V162.539C204.852 162.659 204.983 162.779 205.163 162.859C205.433 162.979 205.812 163.019 206.152 162.939L213.602 161.209V161.219Z" fill="#350B00"/>
<path d="M204.825 162.319V162.539C204.815 162.459 204.785 162.399 204.825 162.319Z" fill="white"/>
<path d="M192.923 133.479V147.899L185.723 154.639V140.219L192.923 133.479Z" fill="#350B00"/>
<path d="M74.1331 172.909C73.6831 160.889 81.5031 148.889 96.9231 139.999C122.593 125.179 162.053 122.499 192.923 133.479L185.733 140.229C160.303 131.189 127.783 133.399 106.633 145.609C91.2231 154.519 85.0031 167.189 89.0731 179.099C89.7531 181.059 90.6931 182.979 91.9131 184.869L100.853 182.779C101.193 182.699 101.583 182.739 101.853 182.879C102.143 183.009 102.273 183.209 102.193 183.419L96.3531 199.669C96.3131 199.779 96.2231 199.879 96.0831 199.959C96.0031 200.009 95.8931 200.049 95.7631 200.089C95.4631 200.149 95.1131 200.129 94.8531 200.029L71.1331 190.639C70.8631 190.539 70.7031 190.369 70.7031 190.189C70.7031 190.189 70.7131 190.149 70.7131 190.109C70.7531 189.899 70.9831 189.729 71.3131 189.649L79.1431 187.819C75.9831 182.989 74.3131 177.949 74.1331 172.909Z" fill="#EE8167"/>
<path d="M185.724 140.219V154.639C160.294 145.599 127.774 147.819 106.624 160.029C97.4037 165.359 91.4737 172.049 89.0637 179.099C85.0037 167.189 91.2137 154.519 106.624 145.609C127.774 133.399 160.284 131.189 185.724 140.229V140.219Z" fill="#350B00"/>
<path d="M70.7031 204.599V190.189C70.7031 190.369 70.8631 190.539 71.1331 190.639L94.8331 200.029C95.0931 200.139 95.4431 200.159 95.7431 200.089C95.8731 200.049 95.9831 200.009 96.0631 199.959C96.2031 199.879 96.3031 199.779 96.3331 199.669L102.173 183.419V197.729C102.173 197.729 102.183 197.809 102.163 197.849L96.3331 214.099C96.2931 214.219 96.2031 214.309 96.0631 214.389C95.9831 214.439 95.8731 214.489 95.7431 214.519C95.4431 214.589 95.0931 214.569 94.8331 214.459L71.1331 205.059C70.8631 204.969 70.7031 204.769 70.7031 204.599Z" fill="#350B00"/>
<path d="M79.1528 187.819L74.2628 188.959C74.1628 188.099 74.1328 187.209 74.1328 186.329V172.909C74.3228 177.949 75.9928 182.989 79.1428 187.819H79.1528Z" fill="white"/>
<path d="M236.292 155.58C236.282 155.39 236.132 155.21 235.872 155.11L212.172 145.71C211.902 145.61 211.552 145.59 211.242 145.66C210.932 145.73 210.712 145.88 210.642 146.06L204.812 162.32C204.772 162.4 204.802 162.46 204.812 162.54C204.852 162.66 204.982 162.78 205.162 162.86C205.432 162.98 205.812 163.02 206.152 162.94L213.602 161.21C216.602 167.04 217.032 173.15 215.052 178.97C212.642 186.06 206.682 192.75 197.502 198.06C177.552 209.56 146.322 212.21 121.552 204.48L115.012 211.45C145.112 220.84 183.022 217.64 207.222 203.67C221.652 195.33 229.762 184.21 230.012 172.83C230.012 172.5 230.022 172.16 230.022 171.82C230.022 167.25 228.852 162.67 226.432 158.23L235.692 156.09C235.822 156.06 235.932 156.01 236.012 155.96C236.172 155.86 236.272 155.75 236.302 155.62V155.56L236.292 155.58Z" stroke="#350B00" stroke-linecap="round" stroke-linejoin="round"/>
<path d="M70.7031 190.179C70.7031 190.359 70.8631 190.529 71.1331 190.629L94.8331 200.019C95.0931 200.129 95.4431 200.149 95.7431 200.079C95.8731 200.039 95.9831 199.999 96.0631 199.949C96.2031 199.869 96.3031 199.769 96.3331 199.659L102.173 183.409C102.253 183.199 102.123 182.999 101.833 182.869C101.563 182.729 101.173 182.689 100.833 182.769L91.8931 184.859C90.6731 182.969 89.7231 181.049 89.0531 179.089C84.9631 167.189 91.2031 154.509 106.613 145.599C127.763 133.389 160.273 131.179 185.713 140.219L192.903 133.469C162.053 122.499 122.593 125.179 96.9231 139.999C81.5031 148.889 73.6831 160.889 74.1331 172.909C74.3231 177.949 75.9931 182.989 79.1431 187.819L71.3131 189.649C70.9931 189.729 70.7531 189.899 70.7131 190.109C70.7131 190.149 70.7031 190.159 70.7031 190.169V190.179Z" stroke="#350B00" stroke-linecap="round" stroke-linejoin="round"/>
<path d="M74.1328 171.899V186.329C74.1328 187.209 74.1628 188.089 74.2628 188.959" stroke="#350B00" stroke-linecap="round" stroke-linejoin="round"/>
<path d="M89.0625 179.1C91.4725 172.05 97.4025 165.37 106.622 160.03C127.772 147.82 160.282 145.6 185.722 154.64L192.912 147.9V133.47" stroke="#350B00" stroke-linecap="round" stroke-linejoin="round"/>
<path d="M70.7131 204.529C70.7131 204.529 70.7031 204.569 70.7031 204.589V190.159" stroke="#350B00" stroke-linecap="round" stroke-linejoin="round"/>
<path d="M102.183 183.419V197.729C102.183 197.729 102.193 197.809 102.173 197.849L96.3431 214.099C96.3031 214.219 96.2131 214.309 96.0731 214.389C95.9931 214.439 95.8831 214.489 95.7531 214.519C95.4531 214.589 95.1031 214.569 94.8431 214.459L71.1331 205.059C70.8631 204.969 70.7031 204.769 70.7031 204.599" stroke="#350B00" stroke-linecap="round" stroke-linejoin="round"/>
<path d="M185.723 140.22V154.64" stroke="#350B00" stroke-linecap="round" stroke-linejoin="round"/>
<path d="M236.294 155.579V170.059C236.264 170.189 236.164 170.299 236.004 170.399C235.924 170.439 235.814 170.489 235.684 170.529L230.014 171.839H230.004" stroke="#350B00" stroke-linecap="round" stroke-linejoin="round"/>
<path d="M215.053 178.999V178.979C214.663 177.839 214.182 176.759 213.602 175.649L206.152 177.379C205.812 177.439 205.423 177.409 205.163 177.279C204.933 177.169 204.812 177.009 204.812 176.849V162.319" stroke="#350B00" stroke-linecap="round" stroke-linejoin="round"/>
<path d="M230.004 171.739V186.159C230.004 197.889 222.114 209.489 207.214 218.099C183.014 232.069 145.104 235.279 115.004 225.889V211.459" stroke="#350B00" stroke-linecap="round" stroke-linejoin="round"/>
<g clip-path="url(#clip0_4379_1949)">
<path d="M126.071 72.8397C153.141 57.1197 199.901 106.53 199.861 150.73C199.841 173.98 184.661 180.18 174.641 185.94C176.041 184.89 177.361 183.63 178.601 182.15C197.361 159.78 176.451 103.79 142.371 84.0997C130.431 77.2097 119.621 76.5497 111.801 81.0697L126.071 72.8297V72.8397Z" fill="#EE8167"/>
<path d="M174.611 185.969C149.301 204.849 99.1506 155.579 99.1406 109.069C99.1406 95.2893 103.971 85.5993 111.801 81.0793C119.621 76.5593 130.431 77.2193 142.371 84.1093C176.451 103.799 197.361 159.789 178.601 182.159C177.361 183.639 176.041 184.899 174.641 185.949C174.641 185.949 174.621 185.969 174.611 185.969ZM145.451 156.809C156.291 161.119 157.031 149.029 153.491 141.509C149.151 132.289 138.741 127.629 138.741 122.109C138.741 119.929 140.381 120.179 142.031 121.129C144.631 122.619 148.871 127.059 152.191 131.489C152.211 131.469 152.211 131.459 152.221 131.439L155.301 124.589C152.381 120.399 148.711 116.739 145.451 114.399V105.649C141.101 103.139 139.851 102.409 139.551 102.239C139.551 102.239 139.551 102.239 139.531 102.239C139.531 102.219 139.521 102.219 139.511 102.239L139.491 102.219C139.491 102.219 139.491 102.219 139.471 102.219C139.451 102.219 139.451 102.219 139.451 102.219C139.451 105.479 139.451 107.759 139.451 111.039C133.871 109.029 130.101 111.319 130.101 118.169C130.101 133.049 146.701 138.309 146.701 145.459C146.701 151.259 137.161 143.709 131.311 133.619L128.131 140.369C131.141 145.399 135.221 150.109 139.461 153.329V162.569L145.441 166.009V156.839L145.451 156.809Z" fill="white"/>
<ellipse cx="142.281" cy="135.198" rx="34.241" ry="60.6505" transform="rotate(-30.9186 142.281 135.198)" fill="white"/>
<path d="M174.611 185.969C149.301 204.849 99.1506 155.579 99.1406 109.069C99.1406 95.2893 103.981 85.5993 111.801 81.0793C119.631 76.5593 130.431 77.2193 142.371 84.1093C176.451 103.799 197.361 159.789 178.601 182.159C177.361 183.639 176.041 184.899 174.641 185.949L174.611 185.969Z" stroke="#350B00" stroke-linecap="round" stroke-linejoin="round"/>
<path d="M172.96 186.939C173.49 186.609 174.04 186.289 174.6 185.969C174.6 185.969 174.62 185.949 174.63 185.949C184.66 180.189 199.84 173.989 199.85 150.739C199.89 106.539 153.18 57.2193 126.06 72.8493C125.9 72.9393 125.75 73.0293 125.59 73.1293" stroke="#350B00" stroke-linecap="round" stroke-linejoin="round"/>
<path d="M111.801 81.0789L126.071 72.8389" stroke="#350B00" stroke-linecap="round" stroke-linejoin="round"/>
</g>
<defs>
<clipPath id="clip0_4379_1949">
<rect width="103.72" height="123.22" fill="white" transform="translate(97.6406 68.3896)"/>
</clipPath>
</defs>
</svg>
