<svg width="224" height="191" viewBox="0 0 224 191" fill="none" xmlns="http://www.w3.org/2000/svg">
<path d="M2.80197 2.33984L90.0326 129.28L145.048 97.2897L76.4934 45.1537L166.201 85.0066L221.23 53.0308L2.80197 2.33984Z" fill="white"/>
<path d="M76.4993 45.1523L145.054 97.2884L158.058 153.306L166.207 85.0052L76.4993 45.1523Z" fill="#350B00"/>
<path d="M117.145 113.525L158.059 153.307L145.054 97.2891L117.145 113.525Z" fill="#350B00"/>
<path d="M166.201 85.0066L76.4934 45.1537L145.048 97.2897L90.0326 129.28L2.80197 2.33984L221.23 53.0308L166.201 85.0066Z" stroke="#350B00" stroke-width="1.10349" stroke-linecap="round" stroke-linejoin="round"/>
<path d="M166.207 85.0078L158.058 153.309L145.054 97.2909" stroke="#350B00" stroke-width="1.10349" stroke-linecap="round" stroke-linejoin="round"/>
<path d="M158.059 153.307L117.145 113.525" stroke="#350B00" stroke-width="1.10349" stroke-linecap="round" stroke-linejoin="round"/>
<path d="M219.996 99.8359L191.841 83.5773" stroke="#350B00" stroke-width="1.10349" stroke-linecap="round" stroke-linejoin="round"/>
<path d="M220.262 80.4883L208.72 73.8231" stroke="#350B00" stroke-width="1.10349" stroke-linecap="round" stroke-linejoin="round"/>
<path d="M105.559 145.309L95.8489 136.179" stroke="#350B00" stroke-width="1.10349" stroke-linecap="round" stroke-linejoin="round"/>
<path d="M138.191 152.832L114.504 130.561" stroke="#350B00" stroke-width="1.10349" stroke-linecap="round" stroke-linejoin="round"/>
</svg>
