<svg width="36" height="36" viewBox="0 0 36 36" fill="none" xmlns="http://www.w3.org/2000/svg">
<path d="M18.2044 35.9978C27.992 35.9978 35.9263 28.1836 35.9263 18.5444C35.9263 8.90509 27.992 1.09091 18.2044 1.09091C8.41681 1.09091 0.482422 8.90509 0.482422 18.5444C0.482422 28.1836 8.41681 35.9978 18.2044 35.9978Z" fill="#2E3148"/>
<path d="M18.205 28.6714C23.8842 28.6714 28.4881 24.1372 28.4881 18.544C28.4881 12.9509 23.8842 8.41675 18.205 8.41675C12.5258 8.41675 7.92188 12.9509 7.92188 18.544C7.92188 24.1372 12.5258 28.6714 18.205 28.6714Z" fill="#1B1E36"/>
<path d="M18.2395 3.31641C16.3265 3.31641 14.7754 10.1498 14.7754 18.5793C14.7754 27.0087 16.3265 33.8421 18.2395 33.8421C20.1525 33.8421 21.7037 27.0087 21.7037 18.5793C21.7037 10.1498 20.1525 3.31641 18.2395 3.31641ZM18.4787 32.9807C18.26 33.2681 18.0412 33.0525 18.0412 33.0525C17.1602 32.0471 16.7197 30.1795 16.7197 30.1795C15.1788 25.2955 15.5455 14.809 15.5455 14.809C16.2697 6.48386 17.5871 4.5172 18.0354 4.08059C18.0812 4.03602 18.1414 4.0088 18.2056 4.00368C18.2698 3.99858 18.3337 4.01592 18.3861 4.05266C19.0366 4.50659 19.5822 6.40497 19.5822 6.40497C21.1931 12.2946 21.0473 17.8251 21.0473 17.8251C21.1931 22.6374 20.24 28.0242 20.24 28.0242C19.5063 32.1181 18.4787 32.9807 18.4787 32.9807Z" fill="#B7B9C8"/>
<path d="M31.6846 10.9861C30.7322 9.35132 23.9424 11.4271 16.5146 15.6217C9.08682 19.8164 3.84738 24.5424 4.79912 26.1765C5.75084 27.8105 12.5414 25.7355 19.9691 21.5408C27.3969 17.3461 32.6364 12.6201 31.6846 10.9861ZM5.67784 25.9522C5.3132 25.907 5.39557 25.6118 5.39557 25.6118C5.84289 24.3592 7.26633 23.0534 7.26633 23.0534C10.8026 19.3064 20.2216 14.4014 20.2216 14.4014C27.9135 10.8769 30.3027 11.0256 30.9089 11.1899C30.9711 11.207 31.0251 11.2453 31.0614 11.2979C31.0978 11.3505 31.114 11.414 31.1073 11.4773C31.0345 12.2592 29.6305 13.6695 29.6305 13.6695C25.2479 17.9782 20.304 20.6063 20.304 20.6063C16.1382 23.1266 10.9194 24.9919 10.9194 24.9919C6.94842 26.4011 5.67784 25.9522 5.67784 25.9522Z" fill="#B7B9C8"/>
<path d="M31.65 26.2295C32.6098 24.5991 27.3835 19.8514 19.9818 15.6252C12.5801 11.399 5.79119 9.29755 4.83221 10.9308C3.87325 12.564 9.0987 17.3089 16.5046 21.5351C23.9105 25.7613 30.691 27.8629 31.65 26.2295ZM5.46822 11.5608C5.32644 11.2297 5.62575 11.15 5.62575 11.15C6.95078 10.9035 8.81203 11.4651 8.81203 11.4651C13.8755 12.6007 22.9045 18.1708 22.9045 18.1708C29.8562 22.9615 30.9223 25.0717 31.0821 25.6707C31.0984 25.7322 31.0921 25.7973 31.0644 25.8546C31.0365 25.9119 30.9891 25.9577 30.9304 25.9839C30.2056 26.3108 28.264 25.8237 28.264 25.8237C22.2801 24.2436 17.4945 21.3484 17.4945 21.3484C13.1946 19.0644 8.94274 15.5499 8.94274 15.5499C5.71193 12.8709 5.46921 11.5644 5.46921 11.5644L5.46822 11.5608Z" fill="#B7B9C8"/>
<path d="M18.2041 20.3395C19.211 20.3395 20.0273 19.5355 20.0273 18.5438C20.0273 17.5521 19.211 16.7482 18.2041 16.7482C17.1972 16.7482 16.3809 17.5521 16.3809 18.5438C16.3809 19.5355 17.1972 20.3395 18.2041 20.3395Z" fill="#B7B9C8"/>
<path d="M25.6805 12.7256C26.2646 12.7256 26.738 12.2432 26.738 11.6482C26.738 11.0532 26.2646 10.5709 25.6805 10.5709C25.0965 10.5709 24.623 11.0532 24.623 11.6482C24.623 12.2432 25.0965 12.7256 25.6805 12.7256Z" fill="#B7B9C8"/>
<path d="M8.25087 16.4655C8.8349 16.4655 9.30839 15.9831 9.30839 15.3881C9.30839 14.7931 8.8349 14.3107 8.25087 14.3107C7.66684 14.3107 7.19336 14.7931 7.19336 15.3881C7.19336 15.9831 7.66684 16.4655 8.25087 16.4655Z" fill="#B7B9C8"/>
<path d="M16.3036 29.6832C16.8877 29.6832 17.3611 29.2008 17.3611 28.6058C17.3611 28.0108 16.8877 27.5284 16.3036 27.5284C15.7196 27.5284 15.2461 28.0108 15.2461 28.6058C15.2461 29.2008 15.7196 29.6832 16.3036 29.6832Z" fill="#B7B9C8"/>
</svg>
