<svg width="36" height="36" viewBox="0 0 36 36" fill="none" xmlns="http://www.w3.org/2000/svg">
<rect width="36" height="36" rx="18" fill="#F6931A"/>
<path d="M24.596 18.6466C24.9327 18.8249 25.2534 19.032 25.5544 19.2656C26.6052 20.0988 27.0495 21.1824 26.8804 22.5106C26.7684 23.4956 26.4203 24.439 25.8656 25.2606C25.1835 26.2517 24.2149 26.7872 23.0468 26.9879C22.0783 27.1548 21.1109 27.1007 20.1446 26.971C19.7928 26.9248 19.4433 26.865 19.0949 26.8008C18.9822 26.7793 18.9472 26.8154 18.9213 26.9225C18.6552 28.0072 18.3789 29.0896 18.1151 30.1754C18.0779 30.3287 18.0328 30.3558 17.8783 30.3141C17.2683 30.1495 16.6527 29.9995 16.0382 29.8518C15.9255 29.827 15.9131 29.7954 15.939 29.6894C16.2119 28.6115 16.4768 27.5314 16.7508 26.4535C16.7813 26.3317 16.77 26.281 16.6381 26.2494C16.1623 26.1322 15.6879 26.0081 15.2151 25.8773C15.0945 25.8435 15.0595 25.8773 15.0314 25.9901C14.7653 27.0747 14.4902 28.1583 14.2252 29.2429C14.1948 29.3647 14.1598 29.385 14.0392 29.3557C13.4183 29.1948 12.7948 29.0396 12.1686 28.89C12.0559 28.863 12.0401 28.8156 12.066 28.7085C12.3411 27.6205 12.6072 26.5302 12.8846 25.4387C12.9207 25.2978 12.8913 25.2516 12.7538 25.2132C11.4008 24.875 10.0579 24.5367 8.70942 24.1985C8.61358 24.1748 8.58427 24.1511 8.62937 24.0496C8.9586 23.298 9.28369 22.5463 9.60466 21.7946C9.64525 21.6988 9.69599 21.701 9.78168 21.7247C10.2462 21.8465 10.7096 21.9728 11.1775 22.0765C11.7616 22.2062 12.1066 21.9773 12.2509 21.4C12.6952 19.6178 13.1402 17.8359 13.5859 16.0545C13.9241 14.7015 14.2624 13.3485 14.6007 11.9954C14.7371 11.4475 14.4496 10.9198 13.8869 10.7033C13.4487 10.554 13.0013 10.4331 12.5475 10.3414C12.4144 10.3087 12.2825 10.2737 12.1483 10.2489C12.075 10.2354 12.0649 10.2072 12.0818 10.1362C12.2588 9.43374 12.4358 8.7313 12.6061 8.02661C12.6354 7.90033 12.7109 7.94092 12.7797 7.95783C13.3142 8.08975 13.8463 8.22731 14.3819 8.3581C15.1915 8.55428 15.9943 8.78091 16.8083 8.96244C16.9425 8.99288 16.9932 8.97597 17.0282 8.8339C17.2875 7.7639 17.5581 6.69164 17.8174 5.62727C17.8501 5.4931 17.8907 5.45476 18.0317 5.49197C18.6428 5.65433 19.2573 5.80654 19.8718 5.95312C20.0014 5.98469 20.0138 6.0343 19.9845 6.15495C19.7162 7.21142 19.4557 8.27015 19.1885 9.32663C19.1603 9.43938 19.1716 9.47207 19.2911 9.49914C19.7692 9.60399 20.2472 9.71674 20.7219 9.83739C20.8583 9.87347 20.8967 9.82949 20.9271 9.70772C21.1797 8.67492 21.439 7.64438 21.6904 6.61159C21.7254 6.46952 21.7648 6.41878 21.9272 6.46275C22.5316 6.62624 23.1415 6.77507 23.7504 6.92052C23.8699 6.94871 23.8936 6.98817 23.8631 7.10881C23.5903 8.18671 23.3276 9.26687 23.0513 10.3436C23.0164 10.4812 23.0513 10.5218 23.1731 10.5691C24.0192 10.8447 24.8246 11.2323 25.5679 11.7215C26.2659 12.1984 26.8443 12.7802 27.1577 13.5841C27.496 14.4647 27.4294 15.3509 27.1656 16.2326C26.7935 17.4811 25.9753 18.2704 24.711 18.6004C24.6682 18.6071 24.64 18.6229 24.596 18.6466ZM19.6959 23.9685H19.8424C20.3701 23.9515 20.8888 23.894 21.3702 23.6606C22.5868 23.0698 22.8472 21.4507 21.8866 20.4653C21.3229 19.8903 20.6215 19.5633 19.8875 19.2904C18.9855 18.9522 18.035 18.7582 17.097 18.5316C16.9605 18.4989 16.9346 18.5418 16.9064 18.6568C16.5403 20.1443 16.1698 21.6304 15.7947 23.1149C15.7642 23.2344 15.8014 23.2638 15.9074 23.2886C16.31 23.3855 16.7091 23.4949 17.1116 23.593C17.956 23.8109 18.822 23.935 19.6936 23.9628L19.6959 23.9685ZM20.6678 16.9102C20.9575 16.9154 21.2469 16.8904 21.5315 16.8358C22.2835 16.678 22.827 16.2721 23.0457 15.5133C23.2644 14.7544 23.0852 14.0701 22.4819 13.5221C22.1621 13.2402 21.7989 13.0118 21.4063 12.8456C20.5302 12.4543 19.5955 12.2581 18.6642 12.0484C18.5514 12.0225 18.5424 12.0924 18.5233 12.1702C18.388 12.7144 18.2515 13.259 18.114 13.804C17.9167 14.5932 17.7205 15.3904 17.5175 16.1819C17.4882 16.2946 17.5074 16.3442 17.6303 16.3713C17.8648 16.4209 18.0937 16.4919 18.3271 16.5495C19.096 16.7299 19.8684 16.9012 20.6655 16.9046L20.6678 16.9102Z" fill="white"/>
</svg>
