<svg width="160" height="160" viewBox="0 0 160 160" fill="none" xmlns="http://www.w3.org/2000/svg">
<circle cx="80" cy="80" r="80" fill="white"/>
<path d="M138.551 82.1899C138.551 115.041 109.051 136.644 86.6419 139.919C84.4299 140.245 82.7967 140.306 82.1352 140.326C57.6999 141.079 20.3648 119.537 20.3648 82.1899C20.3441 50.7826 46.7433 24.0538 79.4477 24.0538C112.09 24.0538 138.551 50.091 138.551 82.1899Z" fill="#F0A841"/>
<path d="M139.895 78.7115C139.895 111.563 110.395 133.166 87.9855 136.441C85.7735 136.766 84.1403 136.827 83.4788 136.848C59.0642 137.6 21.7497 116.059 21.729 78.7115C21.7083 47.3042 48.0869 20.5551 80.812 20.5551C113.434 20.5551 139.895 46.5922 139.895 78.7115Z" fill="#FED62E"/>
<path d="M123.233 77.3079C123.688 95.7169 110.064 111.787 93.7536 116.242C69.0082 122.995 39.4047 102.633 39.6114 77.3079C39.7975 57.3732 58.4237 38.2521 81.4119 38.2521C103.594 38.2725 122.716 56.0713 123.233 77.3079Z" fill="#F0A841"/>
<path d="M94.8691 48.8908C95.386 50.274 96.8951 50.8029 98.0114 51.6369C106.384 58.0241 112.648 65.7336 116.906 74.7856C117.981 77.0841 118.478 79.5658 119.801 81.783C119.821 81.7627 119.863 81.7424 119.883 81.7424C119.925 81.722 119.925 81.7017 119.925 81.6813C120.049 81.5186 129.103 73.382 134.189 62.4789C135.243 60.221 137.373 55.5628 138.117 49.1756C139.171 40.1643 136.38 37.2351 136.628 30.6648C136.649 30.319 136.69 29.4443 136.132 28.6917C134.871 26.9423 131.46 27.2677 128.731 27.7153C120.545 29.0781 112.606 30.4003 104.523 37.1537C101.939 39.3303 98.1148 43.0935 94.8691 48.8908Z" fill="#373636"/>
<path d="M63.5915 50.091C63.0747 51.4742 61.5656 52.0031 60.4493 52.8371C52.0768 59.2243 45.8129 66.9338 41.5543 75.9857C40.4793 78.2843 39.9831 80.766 38.6601 82.9832C38.6394 82.9629 38.5981 82.9426 38.5774 82.9426C38.536 82.9222 38.536 82.9019 38.536 82.8815C38.412 82.7188 29.3573 74.5822 24.2718 63.6791C23.2175 61.4212 21.0882 56.763 20.3439 50.3758C19.2896 41.3645 22.0805 38.4353 21.8324 31.865C21.8117 31.5192 21.7704 30.6445 22.3285 29.8918C23.5896 28.1425 27.0006 28.4679 29.7294 28.9155C37.9159 30.2783 45.8542 31.6005 53.9373 38.3539C56.5214 40.5508 60.3666 44.2936 63.5915 50.091Z" fill="#373636"/>
<path d="M61.752 52.715C61.3386 53.8948 60.1602 54.3423 59.292 55.0542C52.6973 60.4854 47.7565 67.0557 44.4075 74.7652C43.5599 76.718 43.1672 78.8335 42.1335 80.7253C42.0922 80.7049 42.0302 80.6642 42.0302 80.6439C41.596 77.3486 39.6528 74.8466 37.6889 72.2225C33.6577 66.832 31.8591 60.5058 30.5567 54.0778C29.4197 48.5043 29.0269 42.8697 28.8822 37.1944C28.8409 35.384 29.337 35.0178 31.1562 35.384C43.3739 37.8657 53.5863 43.6223 61.752 52.715Z" fill="#FED62E"/>
<path d="M99.6865 51.9218C100.079 53.1016 101.278 53.5491 102.147 54.2814C108.7 59.7533 113.599 66.3439 116.907 74.0737C117.755 76.0468 118.127 78.142 119.14 80.0338C119.181 80.0134 119.243 79.9727 119.243 79.9524C119.698 76.6571 121.641 74.1754 123.626 71.5514C127.678 66.1812 129.517 59.8753 130.861 53.4474C132.04 47.8942 132.474 42.2392 132.639 36.5843C132.701 34.7739 132.205 34.3874 130.365 34.7535C118.147 37.1742 107.914 42.8698 99.6865 51.9218Z" fill="#FED62E"/>
<path d="M98.1978 54.8508C98.5699 55.8882 99.6862 56.2747 100.492 56.9053C106.612 61.6652 111.201 67.3812 114.323 74.1142C115.108 75.8229 115.48 77.674 116.431 79.3216C116.473 79.3013 116.535 79.281 116.535 79.2403C116.948 76.3721 118.747 74.1752 120.566 71.8766C124.308 67.1574 125.982 61.6448 127.202 56.0306C128.256 51.169 128.628 46.226 128.773 41.283C128.814 39.6963 128.359 39.3709 126.664 39.6963C115.253 41.8729 105.785 46.9176 98.1978 54.8508Z" fill="white"/>
<path d="M63.7984 56.1527C63.4263 57.1901 62.3099 57.5766 61.5037 58.2072C55.3845 62.9671 50.7952 68.6831 47.6736 75.4161C46.888 77.1248 46.5159 78.9759 45.5649 80.6236C45.5236 80.6032 45.4616 80.5829 45.4616 80.5422C45.0481 77.6741 43.2496 75.4772 41.4304 73.1786C37.6886 68.4593 36.0141 62.9468 34.7944 57.3325C33.7401 52.4709 33.3679 47.5279 33.2232 42.5849C33.1819 40.9983 33.6367 40.6728 35.3319 40.9983C46.7433 43.1545 56.2321 48.1992 63.7984 56.1527Z" fill="white"/>
<path d="M80.3781 119.476C103.464 119.476 122.179 101.99 122.179 80.4201C122.179 58.8502 103.464 41.3644 80.3781 41.3644C57.2924 41.3644 38.5776 58.8502 38.5776 80.4201C38.5776 101.99 57.2924 119.476 80.3781 119.476Z" fill="#373636"/>
<path d="M57.5343 102.247C65.7205 102.247 72.3568 95.7167 72.3568 87.6617C72.3568 79.6067 65.7205 73.0768 57.5343 73.0768C49.3481 73.0768 42.7119 79.6067 42.7119 87.6617C42.7119 95.7167 49.3481 102.247 57.5343 102.247Z" fill="#FED62E"/>
<path d="M57.8857 98.1783C64.3708 98.1783 69.6279 93.0054 69.6279 86.6243C69.6279 80.2432 64.3708 75.0703 57.8857 75.0703C51.4007 75.0703 46.1436 80.2432 46.1436 86.6243C46.1436 93.0054 51.4007 98.1783 57.8857 98.1783Z" fill="#373636"/>
<path d="M110.064 101.494C118.25 101.494 124.886 94.9641 124.886 86.9091C124.886 78.8541 118.25 72.3242 110.064 72.3242C101.877 72.3242 95.2412 78.8541 95.2412 86.9091C95.2412 94.9641 101.877 101.494 110.064 101.494Z" fill="#FED62E"/>
<path d="M110.416 97.4255C116.901 97.4255 122.158 92.2526 122.158 85.8716C122.158 79.4905 116.901 74.3176 110.416 74.3176C103.931 74.3176 98.6738 79.4905 98.6738 85.8716C98.6738 92.2526 103.931 97.4255 110.416 97.4255Z" fill="#373636"/>
<path d="M113.537 83.9189C115.478 83.9189 117.051 82.3706 117.051 80.4608C117.051 78.551 115.478 77.0027 113.537 77.0027C111.596 77.0027 110.022 78.551 110.022 80.4608C110.022 82.3706 111.596 83.9189 113.537 83.9189Z" fill="#FFFEDF"/>
<path d="M105.265 95.0026C105.446 93.9048 104.689 92.8703 103.573 92.6922C102.457 92.514 101.406 93.2595 101.225 94.3574C101.044 95.4552 101.801 96.4897 102.917 96.6678C104.033 96.846 105.084 96.1005 105.265 95.0026Z" fill="#FFFEDF"/>
<path d="M78.4342 122.08C79.1991 123.341 81.6385 127.348 86.0625 127.348C89.2255 127.348 92.223 125.253 93.6701 122.1C93.9802 121.042 94.9312 117.503 93.0706 114.777C89.6596 109.793 79.0958 110.688 76.9665 114.899C75.6227 117.523 77.7934 121.042 78.4342 122.08Z" fill="#FA7F5B"/>
<path d="M102.519 107.535C103.181 111.563 101.568 115.713 98.7773 118.418C96.5239 120.615 94.0432 121.327 91.8932 121.917C89.9913 122.446 80.3371 125.09 72.8742 119.293C71.7579 118.439 67.0651 114.777 66.8377 109.183C66.7137 106.173 67.9541 103.833 68.719 102.389C71.4064 97.4257 74.4453 97.4054 76.9468 94.2117C82.9212 86.5633 76.7814 72.2429 80.6885 66.9744C81.04 66.4862 82.0529 65.1437 83.438 65.1234C84.7818 65.103 85.8154 66.3642 86.1875 66.8117C90.4048 71.9581 85.7534 86.8481 92.5341 94.2931C94.6014 96.5714 97.2475 97.6088 100.1 102.084C101.217 103.793 102.147 105.318 102.519 107.535Z" fill="white"/>
<path d="M85.0089 111.014C83.0863 110.587 81.5151 109.549 81.4118 109.468C80.0267 108.552 78.3522 107.434 78.4762 106.05C78.5382 105.379 78.9931 104.871 79.0964 104.769C79.6132 104.24 80.3161 104.057 81.5151 103.772C81.6805 103.732 81.9079 103.671 82.218 103.63C85.2569 103.081 88.5852 103.467 88.5852 103.467C89.2468 103.548 89.9497 103.65 90.6939 103.813C91.2727 103.935 91.8309 104.077 92.327 104.22C92.9265 104.362 93.402 104.769 93.5674 105.318C93.7535 105.949 93.4434 106.478 93.402 106.579C92.6371 107.942 91.7482 108.858 91.128 109.386C90.3838 110.037 89.5155 110.79 88.2131 111.075C87.4069 111.258 86.6007 111.217 86.4146 111.217C86.2079 111.197 85.6911 111.156 85.0089 111.014Z" fill="#373636"/>
<path d="M60.9866 84.6716C62.9275 84.6716 64.5009 83.1234 64.5009 81.2136C64.5009 79.3037 62.9275 77.7555 60.9866 77.7555C59.0456 77.7555 57.4722 79.3037 57.4722 81.2136C57.4722 83.1234 59.0456 84.6716 60.9866 84.6716Z" fill="#FFFEDF"/>
<path d="M52.3869 97.4461C53.5173 97.4461 54.4336 96.5445 54.4336 95.4323C54.4336 94.3201 53.5173 93.4185 52.3869 93.4185C51.2566 93.4185 50.3403 94.3201 50.3403 95.4323C50.3403 96.5445 51.2566 97.4461 52.3869 97.4461Z" fill="#FFFEDF"/>
</svg>
