<svg width="48" height="49" viewBox="0 0 48 49" fill="none" xmlns="http://www.w3.org/2000/svg">
<path d="M24.0312 0.890869C10.7653 0.890869 0.03125 11.6249 0.03125 24.8909C0.03125 38.1569 10.7653 48.8909 24.0312 48.8909C37.2972 48.8909 48.0312 38.1569 48.0312 24.8909C48.0312 11.6249 37.2972 0.890869 24.0312 0.890869ZM6.17925 20.0669C7.62725 20.0669 8.89325 20.7889 9.61725 21.9349C10.3413 20.8489 11.6672 20.0669 13.0553 20.0669C15.3453 20.0669 17.2153 21.9349 17.2153 24.2269V29.6549H15.8273V24.2869C15.8273 22.7789 14.6233 21.5729 13.0553 21.5729C11.5472 21.5729 10.3393 22.7789 10.2793 24.2869V29.5949H8.95325V24.2869C8.95325 22.7789 7.74725 21.5129 6.17925 21.5129C4.67325 21.5129 3.46725 22.7189 3.40725 24.2269V29.5329H2.01925V24.2269C2.01925 21.9349 3.88925 20.0669 6.17925 20.0669ZM24.0293 20.1269C24.6715 20.1237 25.308 20.2478 25.902 20.4922C26.496 20.7365 27.0357 21.0961 27.4898 21.5503C27.944 22.0044 28.3036 22.5441 28.548 23.1381C28.7923 23.7321 28.9164 24.3686 28.9132 25.0109C28.9164 25.6531 28.7923 26.2897 28.548 26.8836C28.3036 27.4776 27.944 28.0173 27.4898 28.4715C27.0357 28.9256 26.496 29.2853 25.902 29.5296C25.308 29.7739 24.6715 29.898 24.0293 29.8949C23.387 29.898 22.7505 29.7739 22.1565 29.5296C21.5625 29.2853 21.0228 28.9256 20.5687 28.4715C20.1145 28.0173 19.7549 27.4776 19.5105 26.8836C19.2662 26.2897 19.1421 25.6531 19.1453 25.0109C19.1421 24.3686 19.2662 23.7321 19.5105 23.1381C19.7549 22.5441 20.1145 22.0044 20.5687 21.5503C21.0228 21.0961 21.5625 20.7365 22.1565 20.4922C22.7505 20.2478 23.387 20.1237 24.0293 20.1269ZM34.9432 20.1269H35.0632V21.5729H34.9432C33.4352 21.5729 32.2292 22.7789 32.2292 24.2869V29.5949H30.7812V24.2869C30.7812 21.9949 32.6532 20.1869 34.9432 20.1269ZM41.1532 20.1269C41.7955 20.1237 42.432 20.2478 43.026 20.4922C43.62 20.7365 44.1597 21.0961 44.6138 21.5503C45.068 22.0044 45.4276 22.5441 45.672 23.1381C45.9163 23.7321 46.0404 24.3686 46.0372 25.0109V25.3109H37.7192C37.8392 27.1209 39.3472 28.5089 41.1552 28.5089C42.4832 28.5089 43.6892 27.7249 44.2312 26.5789L45.4972 27.2429C45.0876 28.0412 44.4657 28.7111 43.7001 29.179C42.9344 29.6468 42.0546 29.8946 41.1572 29.8949C40.5148 29.8983 39.8781 29.7744 39.2839 29.5302C38.6896 29.286 38.1497 28.9264 37.6954 28.4722C37.241 28.018 36.8812 27.4782 36.6367 26.8841C36.3923 26.29 36.2681 25.6533 36.2712 25.0109C36.2681 24.3686 36.3922 23.7321 36.6365 23.1381C36.8809 22.5441 37.2405 22.0044 37.6946 21.5503C38.1488 21.0961 38.6885 20.7365 39.2825 20.4922C39.8765 20.2478 40.511 20.1237 41.1532 20.1269ZM41.1552 21.5729C39.5872 21.5729 38.3192 22.5989 37.8372 23.9849H44.4112C44.1936 23.2896 43.7608 22.6815 43.1753 22.248C42.5898 21.8145 41.8837 21.5781 41.1552 21.5729Z" fill="black"/>
</svg>
