<svg width="36" height="36" viewBox="0 0 36 36" fill="none" xmlns="http://www.w3.org/2000/svg">
<path d="M36 18C36 27.9411 27.9411 36 18 36C8.05887 36 0 27.9411 0 18C0 8.05887 8.05887 0 18 0C27.9411 0 36 8.05887 36 18Z" fill="white"/>
<path d="M30.5902 9.24376C30.3084 8.17683 29.4025 7.10989 27.7719 5.92217C26.4634 4.97602 25.0744 4.43249 23.9672 4.43249C23.7458 4.43249 23.5444 4.45262 23.3431 4.49288C22.8399 4.59354 22.397 4.95589 22.1152 5.49943C21.7729 6.14361 21.6924 7.00924 21.9138 7.53264C21.9944 7.69369 22.095 7.895 22.2158 8.07617C21.1489 8.72036 20.545 8.90154 20.4644 8.92167C23.2425 9.84769 25.5575 11.7803 27.007 14.2966L27.0271 14.055C27.0875 13.3907 27.2888 12.6257 27.5706 11.8406C27.8524 11.9212 28.1343 11.9614 28.4161 11.9614C29.161 11.9614 29.8051 11.6595 30.2078 11.1159C30.6104 10.5724 30.7714 9.84769 30.5902 9.24376Z" fill="#5E12A0"/>
<path d="M27.6925 11.2576C29.5244 11.7609 30.2692 10.3517 30.0277 9.40556C29.766 8.45941 28.9205 7.49313 27.4308 6.40606C25.9411 5.319 24.4313 4.87612 23.465 5.07743C22.4987 5.27874 22.2169 6.74829 22.4585 7.31195C22.5591 7.53339 22.7806 7.85548 23.0825 8.21784C22.7 8.47954 22.3377 8.68085 22.0357 8.86203C23.8877 9.68739 25.4982 10.9758 26.7061 12.5862C26.847 12.0427 27.0483 11.5596 27.2295 11.1368C27.3704 11.1569 27.5314 11.1972 27.6925 11.2576Z" fill="url(#paint0_radial_2387_11333)"/>
<path d="M17.2074 30.9865C23.4224 30.9865 28.4606 25.9483 28.4606 19.7333C28.4606 13.5183 23.4224 8.48017 17.2074 8.48017C10.9924 8.48017 5.95429 13.5183 5.95429 19.7333C5.95429 25.9483 10.9924 30.9865 17.2074 30.9865Z" fill="url(#paint1_radial_2387_11333)"/>
<path d="M29.1023 8.47894C27.5724 6.86848 26.284 6.44573 24.7339 6.1035C23.5261 5.82167 23.8481 5.13722 25.3177 5.27814C24.6131 5.03657 23.9488 4.97618 23.4657 5.07683C22.4994 5.27814 22.2175 6.74769 22.4591 7.31135C22.5598 7.53279 22.7812 7.85489 23.0832 8.21724C22.5396 8.5796 22.0766 8.8413 21.6941 9.04261C21.8753 9.12313 22.0968 9.22379 22.3585 9.3647C23.0429 9.72706 23.7878 10.331 23.7878 10.331C22.6604 9.3647 22.902 8.92182 24.4521 7.83476C24.9352 7.49253 25.821 7.53279 26.6463 7.95554C27.4717 8.37829 28.438 9.44522 28.438 9.44522L27.512 11.2167C27.5724 11.2369 27.6327 11.257 27.6931 11.2771C28.2769 11.4382 28.7399 11.3979 29.1023 11.257C29.525 10.9953 30.6322 10.1095 29.1023 8.47894Z" fill="#A082A5"/>
<path d="M24.7148 7.07056C25.1174 7.2316 25.6408 7.51343 26.285 7.93618C27.05 8.43945 27.7143 9.00312 28.137 9.446C27.4324 10.372 26.9694 11.6403 26.6876 12.526C26.8285 12.7273 26.9896 12.9286 27.1305 13.1299C27.2714 12.6267 27.513 11.8818 27.8351 11.137C27.9156 11.1571 28.0162 11.1571 28.1169 11.1571C28.3585 11.1571 28.6403 11.1169 28.8617 10.9357C29.0228 10.8149 29.204 10.5935 29.1838 10.1908C29.1838 9.80835 28.8819 9.32521 28.2578 8.74142C27.8149 8.31867 27.211 7.85566 26.6071 7.43291C24.8758 6.28545 23.668 5.96336 23.1244 6.50689C22.7621 6.86925 22.8024 7.31213 22.9231 7.63422C22.279 8.05697 21.7354 8.35893 21.3731 8.56024C21.6146 8.64076 21.8361 8.74142 22.0776 8.84207C22.7218 8.49985 23.6479 7.91605 24.7148 7.07056ZM28.5195 9.94927C28.5799 10.0499 28.6 10.1506 28.6 10.211C28.6 10.3921 28.5396 10.4525 28.4994 10.4928C28.4189 10.5532 28.2578 10.5935 28.1169 10.5935C28.2377 10.3519 28.3786 10.1506 28.5195 9.94927ZM23.5472 6.94977C23.6076 6.88938 23.7686 6.84912 24.0303 6.88938C23.829 7.05043 23.6277 7.19134 23.4264 7.33226C23.4063 7.19134 23.4264 7.05042 23.5472 6.94977Z" fill="#5E12A0"/>
<path d="M17.2092 7.81579C10.6264 7.81579 5.29169 13.1505 5.29169 19.7333C5.29169 26.316 10.6264 31.6507 17.2092 31.6507C23.7919 31.6507 29.1266 26.316 29.1266 19.7333C29.1266 13.1505 23.7718 7.81579 17.2092 7.81579ZM17.2092 30.9864C10.9887 30.9864 5.95601 25.9537 5.95601 19.7333C5.95601 13.5128 10.9887 8.48011 17.2092 8.48011C23.4296 8.48011 28.4623 13.5128 28.4623 19.7333C28.4623 25.9537 23.4095 30.9864 17.2092 30.9864Z" fill="#5E12A0"/>
<path d="M17.2074 30.9865C23.4224 30.9865 28.4606 25.9483 28.4606 19.7333C28.4606 13.5183 23.4224 8.48017 17.2074 8.48017C10.9924 8.48017 5.95429 13.5183 5.95429 19.7333C5.95429 25.9483 10.9924 30.9865 17.2074 30.9865Z" fill="url(#paint2_linear_2387_11333)"/>
<path d="M17.1238 29.6162C10.9838 28.6298 6.81676 22.8522 7.82331 16.7123C8.26618 13.9946 9.63508 11.6796 11.5676 10.0087C8.74932 11.6393 6.65572 14.4778 6.09205 17.9403C5.10564 24.0802 9.27273 29.8577 15.3925 30.8441C18.8148 31.4078 22.1162 30.3409 24.552 28.2473C22.398 29.4954 19.781 30.0389 17.1238 29.6162Z" fill="#8D7291"/>
<path d="M18.9983 8.64041C16.1598 8.1774 13.4019 8.82159 11.1472 10.2509C11.107 10.2911 11.0667 10.3314 11.0667 10.3314C11.9323 9.808 13.2006 9.34499 13.2006 9.34499C9.93937 11.2373 8.93283 13.3913 8.93283 13.3913C10.2011 10.9353 13.9253 9.20407 16.8443 9.08329C19.7632 8.9625 21.6757 9.82813 24.0108 11.7003C26.346 13.5926 27.7552 17.4577 27.6143 20.5176C27.4935 23.5775 25.883 26.0536 25.883 26.0536C26.9902 24.6243 27.6545 23.5775 28.0773 22.5106C28.1578 22.1885 28.2383 21.8664 28.2786 21.5242C29.2851 15.4044 25.1382 9.62682 18.9983 8.64041Z" fill="url(#paint3_linear_2387_11333)"/>
<path d="M27.8931 19.6326C27.8931 25.531 23.102 30.3221 17.2036 30.3221C11.3053 30.3221 6.49403 25.531 6.49403 19.6326H27.8931Z" fill="url(#paint4_linear_2387_11333)"/>
<path d="M27.049 19.6326C27.049 25.39 22.4994 30.1007 16.7823 30.3221H17.205C23.1033 30.3221 27.8945 25.531 27.8945 19.6326H27.049Z" fill="url(#paint5_linear_2387_11333)"/>
<path d="M8.00384 19.6326H6.49403C6.49403 25.531 11.2852 30.3221 17.1835 30.3221C17.4452 30.3221 17.6868 30.3221 17.9283 30.302C12.3924 29.8993 8.00384 25.2693 8.00384 19.6326Z" fill="url(#paint6_linear_2387_11333)"/>
<path d="M27.873 19.7325C27.873 18.5045 25.7391 17.7999 22.9007 17.5583C20.8473 17.3973 18.7738 17.5986 16.3984 18.3233C14.3451 18.9272 12.493 18.8266 11.1443 18.6655C8.14476 18.3233 6.49403 18.283 6.49403 19.7325C6.49403 21.8261 10.7618 24.4431 17.1634 23.5372C20.4044 23.0742 22.0753 22.128 23.9877 21.4839C26.0612 20.7994 27.873 20.8195 27.873 19.7325Z" fill="url(#paint7_linear_2387_11333)"/>
<path d="M20.7118 14.6604C21.7125 14.6604 22.5236 13.8493 22.5236 12.8486C22.5236 11.8479 21.7125 11.0369 20.7118 11.0369C19.7111 11.0369 18.9001 11.8479 18.9001 12.8486C18.9001 13.8493 19.7111 14.6604 20.7118 14.6604Z" fill="white"/>
<path d="M23.6683 16.0082C24.0908 16.0082 24.4333 15.6657 24.4333 15.2432C24.4333 14.8206 24.0908 14.4782 23.6683 14.4782C23.2457 14.4782 22.9033 14.8206 22.9033 15.2432C22.9033 15.6657 23.2457 16.0082 23.6683 16.0082Z" fill="white"/>
<path d="M26.4069 11.3976H26.3667C26.2459 11.3775 26.1654 11.2567 26.1855 11.1158C26.3667 10.1897 27.1316 9.30399 27.1719 9.26373C27.2524 9.16307 27.4135 9.16307 27.494 9.2436C27.5946 9.32412 27.5946 9.48517 27.5141 9.56569C27.494 9.58582 26.7894 10.4112 26.6284 11.2164C26.6082 11.3372 26.5076 11.3976 26.4069 11.3976Z" fill="url(#paint8_linear_2387_11333)"/>
<path d="M23.973 4.43313C25.1003 4.43313 26.4894 4.97667 27.7777 5.92282C29.4083 7.11054 30.3142 8.15734 30.5961 9.24441C30.7571 9.86846 30.6162 10.573 30.2136 11.0964C29.7908 11.64 29.1668 11.9419 28.4219 11.9419C28.1602 11.9419 27.8784 11.9017 27.5764 11.8212C27.3952 12.2842 27.2543 12.7472 27.1537 13.1901C28.3817 15.0622 29.1064 17.3169 29.1064 19.7326C29.1064 26.3154 23.7717 31.65 17.1889 31.65C10.6061 31.65 5.29158 26.3154 5.29158 19.7326C5.29158 13.1498 10.6263 7.81512 17.209 7.81512C18.6585 7.81512 20.0475 8.07682 21.3359 8.55996C21.5774 8.43917 21.8794 8.27813 22.2216 8.07682C22.1008 7.89564 21.9801 7.71446 21.9197 7.53328C21.6982 6.98975 21.7787 6.14426 22.121 5.50007C22.4028 4.97667 22.8255 4.61431 23.3489 4.49353C23.5301 4.45326 23.7516 4.43313 23.973 4.43313ZM23.973 4.09091C23.7314 4.09091 23.4899 4.11104 23.2684 4.17143C22.6645 4.31235 22.1411 4.71497 21.7989 5.35915C21.4164 6.10399 21.3157 7.07027 21.5774 7.69433C21.6177 7.77485 21.658 7.87551 21.7184 7.97616C21.5774 8.05669 21.4365 8.13721 21.2956 8.1976C19.967 7.73459 18.5981 7.49302 17.1889 7.49302C15.5382 7.49302 13.9277 7.81512 12.4179 8.4593C10.9483 9.08336 9.63984 9.96912 8.51251 11.0964C7.38519 12.2238 6.49943 13.5323 5.87537 15.0018C5.23118 16.5116 4.90909 18.1221 4.90909 19.7728C4.90909 21.4236 5.23118 23.034 5.87537 24.5439C6.49943 26.0134 7.38519 27.3219 8.51251 28.4492C9.63984 29.5766 10.9483 30.4623 12.4179 31.0864C13.9277 31.7306 15.5382 32.0527 17.1889 32.0527C18.8396 32.0527 20.4501 31.7306 21.9599 31.0864C23.4295 30.4623 24.738 29.5766 25.8653 28.4492C26.9926 27.3219 27.8784 26.0134 28.5024 24.5439C29.1466 23.034 29.4687 21.4236 29.4687 19.7728C29.4687 17.4175 28.8044 15.1427 27.5362 13.1699C27.5966 12.868 27.6972 12.566 27.7979 12.264C27.9992 12.3043 28.2206 12.3244 28.4219 12.3244C29.2674 12.3244 30.0123 11.9822 30.4954 11.338C30.9584 10.7341 31.1396 9.88859 30.9383 9.18401C30.6162 8.01642 29.6902 6.90923 27.979 5.68125C26.6303 4.65457 25.1607 4.09091 23.973 4.09091Z" fill="white"/>
<path d="M16.4647 28.1277C16.7759 28.1277 17.0283 27.8753 17.0283 27.5641C17.0283 27.2528 16.7759 27.0004 16.4647 27.0004C16.1534 27.0004 15.901 27.2528 15.901 27.5641C15.901 27.8753 16.1534 28.1277 16.4647 28.1277Z" fill="#9534E1"/>
<path d="M16.1408 27.9251C15.9193 27.7036 15.9193 27.3413 16.1408 27.1198C16.181 27.0796 16.2213 27.0594 16.2616 27.0192C16.181 27.0393 16.1206 27.0796 16.0603 27.1399C15.8388 27.3614 15.8388 27.7237 16.0603 27.9452C16.2414 28.1264 16.5233 28.1666 16.7447 28.0458C16.5434 28.1264 16.3018 28.0861 16.1408 27.9251Z" fill="url(#paint9_linear_2387_11333)"/>
<path d="M16.664 27.4025C16.7306 27.4025 16.7847 27.3484 16.7847 27.2817C16.7847 27.2151 16.7306 27.1609 16.664 27.1609C16.5973 27.1609 16.5432 27.2151 16.5432 27.2817C16.5432 27.3484 16.5973 27.4025 16.664 27.4025Z" fill="#BBBBBB"/>
<path d="M19.4022 27.8459C19.7134 27.8459 19.9659 27.5935 19.9659 27.2822C19.9659 26.971 19.7134 26.7186 19.4022 26.7186C19.091 26.7186 18.8385 26.971 18.8385 27.2822C18.8385 27.5935 19.091 27.8459 19.4022 27.8459Z" fill="#B134DD"/>
<path d="M19.0783 27.6433C18.8569 27.4218 18.8569 27.0595 19.0783 26.838C19.1186 26.7978 19.1588 26.7776 19.1991 26.7374C19.1186 26.7575 19.0582 26.7978 18.9978 26.8582C18.7763 27.0796 18.7763 27.442 18.9978 27.6634C19.179 27.8446 19.4608 27.8848 19.6822 27.764C19.4809 27.8446 19.2394 27.8043 19.0783 27.6433Z" fill="url(#paint10_linear_2387_11333)"/>
<path d="M19.6015 27.1207C19.6681 27.1207 19.7223 27.0665 19.7223 26.9999C19.7223 26.9333 19.6681 26.8791 19.6015 26.8791C19.5349 26.8791 19.4807 26.9333 19.4807 26.9999C19.4807 27.0665 19.5349 27.1207 19.6015 27.1207Z" fill="#BBBBBB"/>
<path d="M17.9496 29.1541C18.1832 29.1541 18.3724 28.9649 18.3724 28.7314C18.3724 28.4978 18.1832 28.3086 17.9496 28.3086C17.7161 28.3086 17.5269 28.4978 17.5269 28.7314C17.5269 28.9649 17.7161 29.1541 17.9496 29.1541Z" fill="#A034DF"/>
<path d="M17.7081 28.9934C17.547 28.8324 17.547 28.5506 17.7081 28.3895C17.7282 28.3694 17.7685 28.3492 17.7886 28.3291C17.7282 28.3492 17.6879 28.3895 17.6477 28.4298C17.4866 28.5908 17.4866 28.8727 17.6477 29.0337C17.7886 29.1746 17.9899 29.1947 18.1711 29.0941C18.01 29.1545 17.8289 29.1142 17.7081 28.9934Z" fill="url(#paint11_linear_2387_11333)"/>
<path d="M18.0925 28.5909C18.137 28.5909 18.173 28.5549 18.173 28.5104C18.173 28.4659 18.137 28.4299 18.0925 28.4299C18.048 28.4299 18.012 28.4659 18.012 28.5104C18.012 28.5549 18.048 28.5909 18.0925 28.5909Z" fill="#BBBBBB"/>
<path d="M20.5456 28.8518C20.7791 28.8518 20.9684 28.6626 20.9684 28.4291C20.9684 28.1956 20.7791 28.0063 20.5456 28.0063C20.3121 28.0063 20.1229 28.1956 20.1229 28.4291C20.1229 28.6626 20.3121 28.8518 20.5456 28.8518Z" fill="#B934DC"/>
<path d="M20.304 28.6911C20.143 28.5301 20.143 28.2483 20.304 28.0872C20.3242 28.0671 20.3644 28.047 20.3846 28.0268C20.3242 28.047 20.2839 28.0872 20.2437 28.1275C20.0826 28.2885 20.0826 28.5704 20.2437 28.7314C20.3846 28.8723 20.5859 28.8925 20.7671 28.7918C20.606 28.8522 20.4248 28.8119 20.304 28.6911Z" fill="url(#paint12_linear_2387_11333)"/>
<path d="M20.6885 28.2886C20.733 28.2886 20.769 28.2526 20.769 28.2081C20.769 28.1636 20.733 28.1276 20.6885 28.1276C20.644 28.1276 20.6079 28.1636 20.6079 28.2081C20.6079 28.2526 20.644 28.2886 20.6885 28.2886Z" fill="#BBBBBB"/>
<path d="M14.0671 27.9251C14.5786 27.9251 14.9931 27.5106 14.9931 26.999C14.9931 26.4877 14.5786 26.073 14.0671 26.073C13.5557 26.073 13.141 26.4877 13.141 26.999C13.141 27.5106 13.5557 27.9251 14.0671 27.9251Z" fill="#7734E5"/>
<path d="M13.5404 27.5839C13.1781 27.2216 13.1781 26.6378 13.5404 26.2754C13.6008 26.215 13.6612 26.1748 13.7417 26.1345C13.6209 26.1748 13.5203 26.2553 13.4196 26.3358C13.0573 26.6982 13.0573 27.282 13.4196 27.6443C13.7216 27.9463 14.1846 28.0067 14.547 27.7852C14.2047 27.9261 13.8021 27.8658 13.5404 27.5839Z" fill="url(#paint13_linear_2387_11333)"/>
<path d="M14.3876 26.7181C14.4987 26.7181 14.5889 26.628 14.5889 26.5168C14.5889 26.4057 14.4987 26.3155 14.3876 26.3155C14.2765 26.3155 14.1863 26.4057 14.1863 26.5168C14.1863 26.628 14.2765 26.7181 14.3876 26.7181Z" fill="#BBBBBB"/>
<path d="M22.34 25.6519C22.8516 25.6519 23.2661 25.2374 23.2661 24.7258C23.2661 24.2145 22.8516 23.7998 22.34 23.7998C21.8287 23.7998 21.414 24.2145 21.414 24.7258C21.414 25.2374 21.8287 25.6519 22.34 25.6519Z" fill="#CE34D9"/>
<path d="M21.7929 25.309C21.4306 24.9467 21.4306 24.3629 21.7929 24.0005C21.8533 23.9401 21.9137 23.8999 21.9942 23.8596C21.8734 23.8999 21.7728 23.9804 21.6721 24.0609C21.3098 24.4233 21.3098 25.0071 21.6721 25.3694C21.9741 25.6714 22.4371 25.7318 22.7995 25.5103C22.4572 25.6512 22.0748 25.5909 21.7929 25.309Z" fill="url(#paint14_linear_2387_11333)"/>
<defs>
<radialGradient id="paint0_radial_2387_11333" cx="0" cy="0" r="1" gradientUnits="userSpaceOnUse" gradientTransform="translate(34.1571 14.8033) scale(40.3061 42.8673)">
<stop stop-color="#FAEDFC" stop-opacity="0.6"/>
<stop offset="0.68" stop-color="#A087C9"/>
<stop offset="1" stop-color="#10002F"/>
</radialGradient>
<radialGradient id="paint1_radial_2387_11333" cx="0" cy="0" r="1" gradientUnits="userSpaceOnUse" gradientTransform="translate(29.9175 5.59043) scale(35.2114)">
<stop stop-color="#FAEDFC" stop-opacity="0.6"/>
<stop offset="0.68" stop-color="#A087C9"/>
<stop offset="1" stop-color="#10002F"/>
</radialGradient>
<linearGradient id="paint2_linear_2387_11333" x1="15.1127" y1="35.7446" x2="20.87" y2="0.225402" gradientUnits="userSpaceOnUse">
<stop stop-color="#81FFFF" stop-opacity="0.6"/>
<stop offset="0.62" stop-color="white" stop-opacity="0"/>
<stop offset="1" stop-color="white" stop-opacity="0"/>
</linearGradient>
<linearGradient id="paint3_linear_2387_11333" x1="29.9214" y1="7.37578" x2="11.118" y2="22.9164" gradientUnits="userSpaceOnUse">
<stop stop-color="white" stop-opacity="0.6"/>
<stop offset="0.29" stop-color="white" stop-opacity="0.6"/>
<stop offset="0.78" stop-color="white" stop-opacity="0"/>
<stop offset="1" stop-color="white" stop-opacity="0"/>
</linearGradient>
<linearGradient id="paint4_linear_2387_11333" x1="0.0152467" y1="17.979" x2="35.9912" y2="17.979" gradientUnits="userSpaceOnUse">
<stop stop-color="#0002E9"/>
<stop offset="1" stop-color="#FF00C7"/>
</linearGradient>
<linearGradient id="paint5_linear_2387_11333" x1="39.2628" y1="3.15898" x2="0.177621" y2="38.6915" gradientUnits="userSpaceOnUse">
<stop stop-color="white" stop-opacity="0.6"/>
<stop offset="0.29" stop-color="white" stop-opacity="0.6"/>
<stop offset="0.78" stop-color="white" stop-opacity="0"/>
<stop offset="1" stop-color="white" stop-opacity="0"/>
</linearGradient>
<linearGradient id="paint6_linear_2387_11333" x1="0.0285338" y1="17.979" x2="36.0489" y2="17.979" gradientUnits="userSpaceOnUse">
<stop stop-color="#000292" stop-opacity="0.7"/>
<stop offset="1" stop-color="#7D00C7" stop-opacity="0.7"/>
</linearGradient>
<linearGradient id="paint7_linear_2387_11333" x1="0.0394305" y1="18.0378" x2="36.0011" y2="18.0378" gradientUnits="userSpaceOnUse">
<stop stop-color="#000292"/>
<stop offset="1" stop-color="#BE00C7"/>
</linearGradient>
<linearGradient id="paint8_linear_2387_11333" x1="34.8187" y1="-0.322555" x2="15.9973" y2="48.3618" gradientUnits="userSpaceOnUse">
<stop stop-color="white" stop-opacity="0.6"/>
<stop offset="0.29" stop-color="white" stop-opacity="0.6"/>
<stop offset="0.78" stop-color="white" stop-opacity="0"/>
<stop offset="1" stop-color="white" stop-opacity="0"/>
</linearGradient>
<linearGradient id="paint9_linear_2387_11333" x1="-0.023858" y1="18.4267" x2="36.0264" y2="18.4267" gradientUnits="userSpaceOnUse">
<stop stop-color="white" stop-opacity="0.6"/>
<stop offset="0.29" stop-color="white" stop-opacity="0.6"/>
<stop offset="0.78" stop-color="white" stop-opacity="0"/>
<stop offset="1" stop-color="white" stop-opacity="0"/>
</linearGradient>
<linearGradient id="paint10_linear_2387_11333" x1="-0.110769" y1="18.301" x2="35.9395" y2="18.301" gradientUnits="userSpaceOnUse">
<stop stop-color="white" stop-opacity="0.6"/>
<stop offset="0.29" stop-color="white" stop-opacity="0.6"/>
<stop offset="0.78" stop-color="white" stop-opacity="0"/>
<stop offset="1" stop-color="white" stop-opacity="0"/>
</linearGradient>
<linearGradient id="paint11_linear_2387_11333" x1="-0.147375" y1="17.7177" x2="35.586" y2="17.7177" gradientUnits="userSpaceOnUse">
<stop stop-color="white" stop-opacity="0.6"/>
<stop offset="0.29" stop-color="white" stop-opacity="0.6"/>
<stop offset="0.78" stop-color="white" stop-opacity="0"/>
<stop offset="1" stop-color="white" stop-opacity="0"/>
</linearGradient>
<linearGradient id="paint12_linear_2387_11333" x1="-0.633375" y1="17.6827" x2="35.1" y2="17.6827" gradientUnits="userSpaceOnUse">
<stop stop-color="white" stop-opacity="0.6"/>
<stop offset="0.29" stop-color="white" stop-opacity="0.6"/>
<stop offset="0.78" stop-color="white" stop-opacity="0"/>
<stop offset="1" stop-color="white" stop-opacity="0"/>
</linearGradient>
<linearGradient id="paint13_linear_2387_11333" x1="-0.237755" y1="17.9454" x2="35.5519" y2="17.9454" gradientUnits="userSpaceOnUse">
<stop stop-color="white" stop-opacity="0.6"/>
<stop offset="0.29" stop-color="white" stop-opacity="0.6"/>
<stop offset="0.78" stop-color="white" stop-opacity="0"/>
<stop offset="1" stop-color="white" stop-opacity="0"/>
</linearGradient>
<linearGradient id="paint14_linear_2387_11333" x1="-0.0393669" y1="17.9332" x2="35.7503" y2="17.9332" gradientUnits="userSpaceOnUse">
<stop stop-color="white" stop-opacity="0.6"/>
<stop offset="0.29" stop-color="white" stop-opacity="0.6"/>
<stop offset="0.78" stop-color="white" stop-opacity="0"/>
<stop offset="1" stop-color="white" stop-opacity="0"/>
</linearGradient>
</defs>
</svg>
