<svg width="450" height="450" viewBox="0 0 450 450" fill="none" xmlns="http://www.w3.org/2000/svg">
<path d="M225 450C349.264 450 450 349.264 450 225C450 100.736 349.264 0 225 0C100.736 0 0 100.736 0 225C0 349.264 100.736 450 225 450Z" fill="#111111"/>
<path d="M225.309 347.63C167.789 348.06 119.439 300.72 119.649 241.62C119.859 183.94 167.259 136.81 225.389 136.92C283.139 137.03 329.849 183.87 330.369 241.29C330.899 300.63 282.499 347.84 225.319 347.63H225.309ZM224.829 164.53C182.219 164.69 147.349 199.34 147.299 242.11C147.249 284.95 182.059 320 224.789 320.05C267.689 320.11 302.529 285.34 302.759 242.55C302.999 198.68 266.999 164.46 224.819 164.52L224.829 164.53Z" fill="white"/>
<path d="M246.959 242.46C246.829 254.67 236.949 264.36 224.759 264.23C212.469 264.09 202.869 254.16 203.059 241.77C203.239 229.74 213.149 220.22 225.349 220.33C237.409 220.44 247.079 230.35 246.959 242.46Z" fill="white"/>
<path d="M118.789 128.19L331.219 128.19V102.36L118.789 102.36V128.19Z" fill="#FF6700"/>
</svg>
