<svg width="36" height="36" viewBox="0 0 36 36" fill="none" xmlns="http://www.w3.org/2000/svg">
<path d="M18 36C27.9411 36 36 27.9411 36 18C36 8.05887 27.9411 0 18 0C8.05887 0 0 8.05887 0 18C0 27.9411 8.05887 36 18 36Z" fill="black"/>
<path d="M24 9.36591H12V12H24V9.36591Z" fill="#E50913"/>
<path d="M18.0525 29.561C16.9185 29.561 15.9025 29.3744 15.0041 29.0013C14.1058 28.6281 13.3843 28.0759 12.8394 27.3445C12.3093 26.6131 12.0295 25.7325 12 24.7026H16.0203C16.0792 25.2847 16.278 25.7325 16.6166 26.0459C16.9554 26.3444 17.3971 26.4937 17.942 26.4937C18.5016 26.4937 18.9434 26.3668 19.2674 26.1131C19.5914 25.8444 19.7533 25.4787 19.7533 25.0161C19.7533 24.6279 19.6208 24.3071 19.3557 24.0533C19.1054 23.7996 18.7888 23.5906 18.4059 23.4265C18.0378 23.2622 17.5076 23.0757 16.8154 22.8667C15.8141 22.5533 14.9968 22.2398 14.3636 21.9264C13.7303 21.6129 13.1855 21.1502 12.7289 20.5382C12.2724 19.9263 12.0442 19.1278 12.0442 18.1427C12.0442 16.6799 12.5669 15.5381 13.6125 14.7172C14.6581 13.8813 16.0203 13.4634 17.699 13.4634C19.4073 13.4634 20.7841 13.8813 21.8298 14.7172C22.8753 15.5381 23.4349 16.6874 23.5085 18.1651H19.422C19.3926 17.6575 19.2085 17.262 18.8698 16.9785C18.5311 16.6799 18.0966 16.5307 17.5665 16.5307C17.11 16.5307 16.7418 16.6575 16.462 16.9113C16.1822 17.1501 16.0423 17.5008 16.0423 17.9636C16.0423 18.471 16.278 18.8666 16.7492 19.1502C17.2204 19.4338 17.9568 19.7397 18.9581 20.0681C19.9595 20.4114 20.7695 20.7398 21.3879 21.0532C22.0212 21.3667 22.566 21.8219 23.0225 22.419C23.4791 23.016 23.7073 23.7846 23.7073 24.725C23.7073 25.6206 23.4791 26.434 23.0225 27.1653C22.5808 27.8967 21.9328 28.4788 21.0787 28.9117C20.2246 29.3446 19.2159 29.561 18.0525 29.561Z" fill="white"/>
</svg>
