<svg width="114" height="114" viewBox="0 0 114 114" fill="none" xmlns="http://www.w3.org/2000/svg">
<g clip-path="url(#clip0_1780_2409)">
<path d="M56.911 110.759C86.4446 110.759 110.386 86.8171 110.386 57.2836C110.386 27.75 86.4446 3.80835 56.911 3.80835C27.3775 3.80835 3.43579 27.75 3.43579 57.2836C3.43579 86.8171 27.3775 110.759 56.911 110.759Z" fill="black"/>
<path fill-rule="evenodd" clip-rule="evenodd" d="M57 108.933C85.6817 108.933 108.933 85.6817 108.933 57C108.933 28.3183 85.6817 5.06667 57 5.06667C28.3183 5.06667 5.06667 28.3183 5.06667 57C5.06667 85.6817 28.3183 108.933 57 108.933ZM114 57C114 88.4804 88.4804 114 57 114C25.5196 114 0 88.4804 0 57C0 25.5196 25.5196 0 57 0C88.4804 0 114 25.5196 114 57Z" fill="url(#paint0_linear_1780_2409)"/>
<path d="M67.5706 14.2313L69.8698 46.158L100.941 53.834L71.2885 65.8864L73.5876 97.8131L52.9667 73.3343L23.3141 85.3927L40.2179 58.2104L19.5901 33.7316L50.6614 41.4137L67.5714 14.2313H67.5706Z" fill="url(#paint1_linear_1780_2409)"/>
<path opacity="0.5" d="M65.1197 18.3249C65.8897 17.0926 67.7868 17.5656 67.8881 19.0151L69.7124 45.1042C69.7578 45.7525 70.2154 46.2978 70.8459 46.455L96.2218 52.782C97.6318 53.1335 97.7681 55.0838 96.4209 55.6282L72.1724 65.4252C71.5699 65.6686 71.1927 66.2723 71.238 66.9206L73.0623 93.0097C73.1637 94.4592 71.3509 95.1916 70.4169 94.0785L53.6062 74.0443C53.1885 73.5465 52.4978 73.3743 51.8952 73.6177L27.6468 83.4147C26.2995 83.959 25.0428 82.4613 25.8128 81.2291L39.6717 59.0502C40.0161 58.4991 39.9664 57.789 39.5487 57.2912L22.738 37.257C21.804 36.1438 22.84 34.4858 24.2499 34.8374L49.6259 41.1643C50.2564 41.3215 50.9165 41.0548 51.2608 40.5037L65.1197 18.3249Z" fill="white"/>
</g>
<defs>
<linearGradient id="paint0_linear_1780_2409" x1="0" y1="57" x2="114" y2="57" gradientUnits="userSpaceOnUse">
<stop stop-color="#FCF29F"/>
<stop offset="0.64" stop-color="#91CEC7"/>
<stop offset="1" stop-color="#6F98D0"/>
</linearGradient>
<linearGradient id="paint1_linear_1780_2409" x1="19.5893" y1="56.0214" x2="100.941" y2="56.0214" gradientUnits="userSpaceOnUse">
<stop stop-color="#FCF29F"/>
<stop offset="0.64" stop-color="#91CEC7"/>
<stop offset="1" stop-color="#6F98D0"/>
</linearGradient>
<clipPath id="clip0_1780_2409">
<rect width="114" height="114" fill="white"/>
</clipPath>
</defs>
</svg>
