<svg width="48" height="48" viewBox="0 0 48 48" fill="none" xmlns="http://www.w3.org/2000/svg">
<circle cx="24.0001" cy="24.0001" r="18.9474" fill="#F0B90B"/>
<path d="M48 24C48 27.1517 47.3792 30.2726 46.1731 33.1844C44.967 36.0962 43.1992 38.742 40.9706 40.9706C38.742 43.1992 36.0962 44.967 33.1844 46.1731C30.2726 47.3792 27.1517 48 24 48C20.8483 48 17.7274 47.3792 14.8156 46.1731C11.9038 44.967 9.25804 43.1992 7.02944 40.9706C4.80083 38.742 3.033 36.0962 1.82689 33.1844C0.620778 30.2726 -2.75532e-07 27.1517 0 24H5.75219C5.75219 26.3963 6.22419 28.7692 7.14122 30.9831C8.05826 33.1971 9.40239 35.2087 11.0969 36.9031C12.7913 38.5976 14.8029 39.9417 17.0169 40.8588C19.2308 41.7758 21.6037 42.2478 24 42.2478C26.3963 42.2478 28.7692 41.7758 30.9831 40.8588C33.1971 39.9417 35.2087 38.5976 36.9031 36.9031C38.5976 35.2087 39.9417 33.1971 40.8588 30.9831C41.7758 28.7692 42.2478 26.3963 42.2478 24H48Z" fill="#C73238"/>
<path d="M42.9475 24.0001C42.9475 26.4883 42.4574 28.9521 41.5052 31.2509C40.553 33.5497 39.1573 35.6385 37.3979 37.3979C35.6385 39.1573 33.5497 40.553 31.2509 41.5052C28.9521 42.4574 26.4883 42.9475 24.0001 42.9475C21.5119 42.9475 19.0481 42.4574 16.7493 41.5052C14.4505 40.553 12.3617 39.1573 10.6023 37.3979C8.84286 35.6385 7.44721 33.5497 6.49502 31.2509C5.54282 28.9521 5.05273 26.4883 5.05273 24.0001L24.0001 24.0001H42.9475Z" fill="#070B09"/>
<path d="M15.532 24.3203L15.5456 29.3304L19.8027 31.8354V34.7686L13.0543 30.8106V22.8552L15.532 24.3203ZM15.532 19.3101V22.2297L13.0527 20.7631V17.8436L15.532 16.377L18.0234 17.8436L15.532 19.3101ZM21.5806 17.8436L24.0598 16.377L26.5512 17.8436L24.0598 19.3101L21.5806 17.8436Z" fill="white"/>
<path d="M17.3242 28.2919V25.3587L19.8035 26.8253V29.7449L17.3242 28.2919ZM21.5813 32.886L24.0605 34.3526L26.5519 32.886V35.8056L24.0605 37.2722L21.5813 35.8056V32.886ZM30.1076 17.8436L32.5868 16.377L35.0782 17.8436V20.7631L32.5868 22.2297V19.3101L30.1076 17.8436ZM32.5868 29.3304L32.6005 24.3203L35.0797 22.8537V30.8091L28.3313 34.7671V31.8339L32.5868 29.3304Z" fill="white"/>
<path d="M30.8074 28.2916L28.3281 29.7445V26.825L30.8074 25.3584V28.2916Z" fill="white"/>
<path d="M30.809 20.3484L30.8227 23.2816L26.5535 25.7867V30.8089L24.0742 32.2619L21.595 30.8089V25.7867L17.3257 23.2816V20.3484L19.8156 18.8818L24.059 21.399L28.3283 18.8818L30.8197 20.3484H30.809ZM17.3242 15.3398L24.0606 11.3682L30.809 15.3398L28.3298 16.8064L24.0606 14.2892L19.8035 16.8064L17.3242 15.3398Z" fill="white"/>
</svg>
