<svg width="49" height="49" viewBox="0 0 49 49" fill="none" xmlns="http://www.w3.org/2000/svg">
<path d="M24.7869 43.3277C35.3439 43.3277 43.902 34.7697 43.902 24.2127C43.902 13.6558 35.3439 5.09766 24.7869 5.09766C14.23 5.09766 5.67188 13.6558 5.67188 24.2127C5.67188 34.7697 14.23 43.3277 24.7869 43.3277Z" fill="url(#paint0_linear_2343_6164)"/>
<path d="M49.0009 24.2124C49.0009 27.392 48.3747 30.5405 47.1579 33.4781C45.9411 36.4157 44.1576 39.0848 41.9093 41.3331C39.661 43.5815 36.9918 45.3649 34.0542 46.5817C31.1167 47.7985 27.9682 48.4248 24.7886 48.4248C21.6089 48.4248 18.4605 47.7985 15.5229 46.5817C12.5853 45.3649 9.91614 43.5815 7.66782 41.3331C5.41949 39.0848 3.63602 36.4156 2.41923 33.4781C1.20244 30.5405 0.576172 27.392 0.576172 24.2124H6.37927C6.37927 26.6299 6.85544 29.0238 7.78059 31.2573C8.70575 33.4908 10.0618 35.5203 11.7712 37.2297C13.4807 38.9392 15.5101 40.2952 17.7436 41.2204C19.9771 42.1455 22.371 42.6217 24.7886 42.6217C27.2061 42.6217 29.6 42.1455 31.8335 41.2204C34.067 40.2952 36.0964 38.9392 37.8059 37.2297C39.5154 35.5203 40.8714 33.4908 41.7965 31.2573C42.7217 29.0238 43.1979 26.6299 43.1979 24.2124H49.0009Z" fill="#C73238"/>
<path d="M43.9039 24.2127C43.9039 26.7229 43.4095 29.2086 42.4489 31.5277C41.4883 33.8469 40.0802 35.9541 38.3053 37.7291C36.5303 39.5041 34.423 40.9121 32.1039 41.8727C29.7847 42.8333 27.2991 43.3277 24.7889 43.3277C22.2786 43.3277 19.793 42.8333 17.4739 41.8727C15.1547 40.9121 13.0475 39.5041 11.2725 37.7291C9.4975 35.9541 8.08949 33.8469 7.12887 31.5277C6.16825 29.2086 5.67383 26.7229 5.67383 24.2127L24.7889 24.2127H43.9039Z" fill="#070B09"/>
<path d="M24.416 35.1464C29.7317 35.1464 34.041 30.8059 34.041 25.4516C34.041 20.0973 29.7317 15.7568 24.416 15.7568C19.1003 15.7568 14.791 20.0973 14.791 25.4516C14.791 30.8059 19.1003 35.1464 24.416 35.1464Z" fill="white"/>
<path d="M35.771 16.4483C35.5352 15.5325 34.777 14.6166 33.4124 13.5971C32.3173 12.7849 31.1548 12.3184 30.2282 12.3184C30.0429 12.3184 29.8745 12.3356 29.706 12.3702C29.2848 12.4566 28.9142 12.7676 28.6783 13.2342C28.3919 13.7871 28.3245 14.5302 28.5098 14.9795C28.5772 15.1177 28.6615 15.2905 28.7626 15.4461C27.8697 15.999 27.3642 16.1545 27.2969 16.1719C29.6218 16.9667 31.5592 18.6256 32.7722 20.7857L32.789 20.5783C32.8396 20.008 33.008 19.3514 33.2439 18.6774C33.4798 18.7466 33.7156 18.7811 33.9515 18.7811C34.5748 18.7811 35.1139 18.5219 35.4509 18.0553C35.7879 17.5888 35.9226 16.9667 35.771 16.4483Z" fill="white"/>
<path d="M24.5674 15.2217C19.0583 15.2217 14.5938 19.801 14.5938 25.4516C14.5938 31.1023 19.0583 35.6815 24.5674 35.6815C30.0764 35.6815 34.5409 31.1023 34.5409 25.4516C34.5409 19.801 30.0595 15.2217 24.5674 15.2217ZM24.5674 35.1112C19.3615 35.1112 15.1497 30.7912 15.1497 25.4516C15.1497 20.112 19.3615 15.7919 24.5674 15.7919C29.7731 15.7919 33.9849 20.112 33.9849 25.4516C33.9849 30.7912 29.7563 35.1112 24.5674 35.1112Z" fill="white"/>
<path d="M33.514 25.3652C33.514 30.4283 29.5044 34.5411 24.5682 34.5411C19.632 34.5411 15.6055 30.4283 15.6055 25.3652H33.514Z" fill="#070B09"/>
<path d="M33.4972 25.4509C33.4972 24.3969 31.7114 23.7921 29.3359 23.5847C27.6175 23.4464 25.8823 23.6192 23.8943 24.2414C22.1758 24.7597 20.6259 24.6733 19.4971 24.5351C16.9869 24.2414 15.6055 24.2068 15.6055 25.4509C15.6055 27.2481 19.177 29.4946 24.5345 28.7169C27.2469 28.3195 28.6452 27.5074 30.2457 26.9544C31.981 26.3668 33.4972 26.3841 33.4972 25.4509Z" fill="#070B09"/>
<path d="M27.4987 21.0968C28.336 21.0968 29.0149 20.4005 29.0149 19.5416C29.0149 18.6826 28.336 17.9863 27.4987 17.9863C26.6613 17.9863 25.9824 18.6826 25.9824 19.5416C25.9824 20.4005 26.6613 21.0968 27.4987 21.0968Z" fill="#070B09"/>
<path d="M29.9761 22.2547C30.3297 22.2547 30.6163 21.9607 30.6163 21.598C30.6163 21.2354 30.3297 20.9414 29.9761 20.9414C29.6226 20.9414 29.3359 21.2354 29.3359 21.598C29.3359 21.9607 29.6226 22.2547 29.9761 22.2547Z" fill="#070B09"/>
<defs>
<linearGradient id="paint0_linear_2343_6164" x1="5.70218" y1="24.1904" x2="43.9539" y2="24.1904" gradientUnits="userSpaceOnUse">
<stop stop-color="#000292" stop-opacity="0.7"/>
<stop offset="1" stop-color="#7D00C7" stop-opacity="0.7"/>
</linearGradient>
</defs>
</svg>
