<svg width="48" height="49" viewBox="0 0 48 49" fill="none" xmlns="http://www.w3.org/2000/svg">
<path d="M24.0001 43.8464C34.4644 43.8464 42.9475 35.3634 42.9475 24.899C42.9475 14.4347 34.4644 5.95166 24.0001 5.95166C13.5358 5.95166 5.05273 14.4347 5.05273 24.899C5.05273 35.3634 13.5358 43.8464 24.0001 43.8464Z" fill="#C73238"/>
<path d="M48 24.8989C48 28.0507 47.3792 31.1715 46.1731 34.0833C44.967 36.9951 43.1992 39.6409 40.9706 41.8695C38.742 44.0981 36.0962 45.8659 33.1844 47.072C30.2726 48.2781 27.1517 48.8989 24 48.8989C20.8483 48.8989 17.7274 48.2781 14.8156 47.072C11.9038 45.8659 9.25804 44.0981 7.02944 41.8695C4.80083 39.6409 3.033 36.9951 1.82689 34.0833C0.620778 31.1715 -2.75532e-07 28.0506 0 24.8989H5.75219C5.75219 27.2953 6.22419 29.6681 7.14122 31.8821C8.05826 34.096 9.40239 36.1076 11.0969 37.8021C12.7913 39.4965 14.8029 40.8407 17.0169 41.7577C19.2308 42.6747 21.6037 43.1467 24 43.1467C26.3963 43.1467 28.7692 42.6747 30.9831 41.7577C33.1971 40.8407 35.2087 39.4965 36.9031 37.8021C38.5976 36.1076 39.9417 34.096 40.8588 31.8821C41.7758 29.6681 42.2478 27.2953 42.2478 24.8989H48Z" fill="#C73238"/>
<path d="M42.9475 24.899C42.9475 27.3872 42.4574 29.8511 41.5052 32.1499C40.553 34.4487 39.1573 36.5374 37.3979 38.2968C35.6385 40.0563 33.5497 41.4519 31.2509 42.4041C28.9521 43.3563 26.4883 43.8464 24.0001 43.8464C21.5119 43.8464 19.0481 43.3563 16.7493 42.4041C14.4505 41.4519 12.3617 40.0563 10.6023 38.2968C8.84286 36.5374 7.44721 34.4487 6.49502 32.1499C5.54282 29.8511 5.05273 27.3872 5.05273 24.899L24.0001 24.899H42.9475Z" fill="#070B09"/>
<path d="M30.0345 14.7937H17.6836V17.5049H30.0345V14.7937Z" fill="white"/>
<path d="M30.27 24.395C30.27 25.3505 30.0507 26.2277 29.6121 27.0266C29.1735 27.8099 28.4999 28.4443 27.5914 28.9299C26.6828 29.4155 25.555 29.6583 24.2078 29.6583H21.7172V35.5795H17.6992V19.0847H24.2078C25.5236 19.0847 26.6358 19.3119 27.5444 19.7661C28.4529 20.2204 29.1343 20.847 29.5886 21.6459C30.0429 22.4448 30.27 23.3611 30.27 24.395ZM23.9024 26.4627C24.6699 26.4627 25.2417 26.2826 25.6176 25.9223C25.9936 25.562 26.1816 25.0529 26.1816 24.395C26.1816 23.7371 25.9936 23.228 25.6176 22.8677C25.2417 22.5074 24.6699 22.3273 23.9024 22.3273H21.7172V26.4627H23.9024Z" fill="white"/>
</svg>
