<svg width="48" height="48" viewBox="0 0 48 48" fill="none" xmlns="http://www.w3.org/2000/svg">
<g clip-path="url(#clip0_2578_4326)">
<path d="M24 48C37.3001 48 48 37.3001 48 24C48 10.6999 37.3001 0 24 0C10.6999 0 0 10.6999 0 24C0 37.3001 10.6999 48 24 48Z" fill="#2775CA"/>
<path d="M30.5991 27.8002C30.5991 24.3003 28.4991 23.1003 24.2991 22.6004C21.2991 22.2003 20.6991 21.4004 20.6991 20.0002C20.6991 18.6 21.6992 17.7003 23.6991 17.7003C25.4991 17.7003 26.4992 18.3003 26.9991 19.8003C27.0992 20.1003 27.3992 20.3002 27.6992 20.3002H29.2991C29.6991 20.3002 29.9991 20.0002 29.9991 19.6004V19.5003C29.5991 17.3002 27.7991 15.6003 25.4991 15.4004V13.0004C25.4991 12.6003 25.1991 12.3003 24.6992 12.2002H23.1992C22.7991 12.2002 22.4991 12.5002 22.3991 13.0004V15.3003C19.3991 15.7004 17.4992 17.7003 17.4992 20.2004C17.4992 23.5004 19.4991 24.8002 23.6991 25.3004C26.4992 25.8003 27.3992 26.4003 27.3992 28.0004C27.3992 29.6004 25.9991 30.7004 24.0992 30.7004C21.4991 30.7004 20.5991 29.6002 20.2991 28.1002C20.1992 27.7004 19.8992 27.5002 19.5992 27.5002H17.8991C17.4992 27.5002 17.1992 27.8002 17.1992 28.2003V28.3004C17.5991 30.8002 19.1991 32.6002 22.4991 33.1004V35.5004C22.4991 35.9002 22.7991 36.2002 23.2991 36.3003H24.7991C25.1991 36.3003 25.4991 36.0003 25.5992 35.5004V33.1004C28.5992 32.6002 30.5991 30.5002 30.5991 27.8002Z" fill="white"/>
<path d="M18.9 38.2998C11.1 35.5 7.09992 26.8 10.0001 19.0998C11.5001 14.8998 14.8001 11.6999 18.9 10.1999C19.3001 10 19.5 9.7 19.5 9.19984V7.79992C19.5 7.39984 19.3001 7.09984 18.9 7C18.7999 7 18.6 7 18.4999 7.09984C9 10.0998 3.79992 20.2 6.79992 29.6999C8.59992 35.2998 12.9 39.5999 18.4999 41.3999C18.9 41.5998 19.3001 41.3999 19.3999 40.9998C19.5 40.9 19.5 40.7999 19.5 40.6V39.1998C19.5 38.8998 19.2 38.5 18.9 38.2998ZM29.5001 7.09984C29.1 6.89992 28.6999 7.09984 28.6001 7.49992C28.5 7.6 28.5 7.69984 28.5 7.9V9.29992C28.5 9.7 28.8 10.0998 29.1 10.3C36.9 13.0998 40.9001 21.7998 37.9999 29.5C36.4999 33.7 33.1999 36.8999 29.1 38.3999C28.6999 38.5998 28.5 38.8998 28.5 39.4V40.7999C28.5 41.2 28.6999 41.5 29.1 41.5998C29.2001 41.5998 29.4 41.5998 29.5001 41.5C39 38.5 44.2001 28.3998 41.2001 18.8999C39.4001 13.1999 34.9999 8.89984 29.5001 7.09984Z" fill="white"/>
</g>
<defs>
<clipPath id="clip0_2578_4326">
<rect width="48" height="48" fill="white"/>
</clipPath>
</defs>
</svg>
