<svg width="36" height="36" viewBox="0 0 36 36" fill="none" xmlns="http://www.w3.org/2000/svg">
<g clip-path="url(#clip0_2387_11362)">
<path d="M18 0C27.9407 0 36 8.05932 36 18C36 27.9407 27.9403 36 18 36C8.05968 36 0 27.9428 0 18C0 8.05716 8.05824 0 18 0Z" fill="#53AE94"/>
<path d="M20.2219 15.6017V12.924H26.3452V8.84412H9.67141V12.924H15.7954V15.5995C10.8184 15.8281 7.07617 16.8138 7.07617 17.9946C7.07617 19.1754 10.8202 20.1611 15.7954 20.3911V28.9681H20.2234V20.3904C25.1914 20.1611 28.926 19.1761 28.926 17.9964C28.926 16.8167 25.1914 15.8317 20.2234 15.6024M20.2234 19.6639V19.6618C20.0985 19.6697 19.4566 19.7082 18.0274 19.7082C16.8847 19.7082 16.0809 19.6758 15.7975 19.661V19.6646C11.4005 19.4699 8.11837 18.7042 8.11837 17.788C8.11837 16.8718 11.4009 16.1071 15.7975 15.912V18.9018C16.0855 18.9216 16.9092 18.9702 18.0461 18.9702C19.4116 18.9702 20.0981 18.9133 20.2241 18.9018V15.912C24.6125 16.1075 27.8871 16.8739 27.8871 17.7869C27.8871 18.6998 24.6111 19.4666 20.2241 19.6621" fill="white"/>
</g>
<defs>
<clipPath id="clip0_2387_11362">
<rect width="36" height="36" fill="white"/>
</clipPath>
</defs>
</svg>
