<svg width="48" height="49" viewBox="0 0 48 49" fill="none" xmlns="http://www.w3.org/2000/svg">
<g id="Layer 2">
<g id="Layer 1-2">
<g id="Page-1">
<g id="wbtc colour">
<circle id="Ellipse 2955" cx="24" cy="24.8989" r="24" fill="white"/>
<path id="Shape" d="M39.1392 10.9723L37.8223 12.2892C40.9668 15.7286 42.7106 20.22 42.7106 24.8802C42.7106 29.5404 40.9668 34.0319 37.8223 37.4712L39.1392 38.7881C42.6348 34.9947 44.5754 30.025 44.5754 24.8666C44.5754 19.7081 42.6348 14.7385 39.1392 10.9451V10.9723Z" fill="#5A5564"/>
<path id="Shape-2" d="M11.4221 11.0869C14.8612 7.94196 19.3528 6.1979 24.013 6.1979C28.6733 6.1979 33.1649 7.94196 36.604 11.0869L37.9209 9.77001C34.1273 6.27256 29.1564 4.33081 23.9966 4.33081C18.8368 4.33081 13.8659 6.27256 10.0723 9.77001L11.4221 11.0869Z" fill="#5A5564"/>
<path id="Shape-3" d="M10.1877 37.4898C7.04631 34.0516 5.30442 29.5627 5.30442 24.9054C5.30442 20.2482 7.04631 15.7593 10.1877 12.321L8.87084 11.0042C5.37339 14.7978 3.43164 19.7686 3.43164 24.9285C3.43164 30.0883 5.37339 35.0592 8.87084 38.8528L10.1877 37.4898Z" fill="#5A5564"/>
<path id="Shape-4" d="M36.5906 38.7024C33.1515 41.8473 28.6599 43.5914 23.9997 43.5914C19.3394 43.5914 14.8478 41.8473 11.4087 38.7024L10.0918 40.0193C13.8854 43.5167 18.8563 45.4585 24.0161 45.4585C29.1759 45.4585 34.1468 43.5167 37.9404 40.0193L36.5906 38.7024Z" fill="#5A5564"/>
<path id="Shape-5" d="M32.3198 20.501C32.0564 17.7515 29.686 16.8325 26.6834 16.5503V12.7605H24.3619V16.477H22.5098V12.7605H20.2081V16.5739H15.5048V19.0534C15.5048 19.0534 17.2178 19.0223 17.1914 19.0534C17.5001 19.0197 17.8098 19.107 18.0554 19.297C18.301 19.487 18.4634 19.7649 18.5083 20.0721V30.5132C18.4938 30.7318 18.3931 30.9356 18.2284 31.0799C18.0636 31.2242 17.8483 31.2971 17.6298 31.2827C17.6608 31.309 15.9432 31.2827 15.9432 31.2827L15.5039 34.0547H20.1648V37.9292H22.4806V34.1112H24.3346V37.9114H26.659V34.0811C30.5777 33.8431 33.3102 32.8771 33.6526 29.2086C33.9292 26.2568 32.5408 24.938 30.3228 24.4113C31.6745 23.7434 32.5088 22.5131 32.3198 20.501ZM29.0651 28.7514C29.0651 31.6335 24.1277 31.3043 22.555 31.3043V26.191C24.1315 26.1947 29.0651 25.7423 29.0651 28.7514ZM27.9928 21.547C27.9928 24.1808 23.8719 23.8619 22.5625 23.8619V19.2142C23.8719 19.2142 27.9928 18.8013 27.9928 21.547Z" fill="#F09242"/>
<path id="Shape-6" d="M23.9958 48.8989C10.7412 48.8961 0 38.1483 0 24.8947C0 11.6411 10.7497 0.898926 24.0042 0.898926C37.2588 0.898926 47.9972 11.6429 48 24.8947C48.0028 38.1465 37.2588 48.8961 24.0042 48.8989H23.9958ZM23.9958 2.7708C11.7815 2.78021 1.89069 12.6889 1.89821 24.9032C1.90574 37.1174 11.8163 47.0082 24.0306 47.0007C36.2448 46.9932 46.1234 37.0976 46.1281 24.8956C46.1328 12.6936 36.2354 2.78021 24.0221 2.7708H23.9958Z" fill="#282138"/>
</g>
</g>
</g>
</g>
</svg>
