<svg width="36" height="36" viewBox="0 0 36 36" fill="none" xmlns="http://www.w3.org/2000/svg">
<g clip-path="url(#clip0_2387_11305)">
<path d="M17.9648 36C27.9254 36 36 27.9254 36 17.9648C36 8.0043 27.9254 -0.0703125 17.9648 -0.0703125C8.0043 -0.0703125 -0.0703125 8.0043 -0.0703125 17.9648C-0.0703125 27.9254 8.0043 36 17.9648 36Z" fill="black"/>
<path d="M24.2695 9.31387H12.2461V11.9531H24.2695V9.31387Z" fill="#E50913"/>
<path d="M24.4993 18.6605C24.4993 19.5907 24.2858 20.4446 23.8588 21.2224C23.4318 21.9848 22.7761 22.6024 21.8916 23.0752C21.0072 23.5479 19.9093 23.7843 18.5978 23.7843H16.1732V29.5485H12.2617V13.491H18.5978C19.8787 13.491 20.9614 13.7121 21.8459 14.1543C22.7303 14.5966 23.3937 15.2066 23.8359 15.9843C24.2781 16.7619 24.4993 17.6541 24.4993 18.6605ZM18.3004 20.6734C19.0476 20.6734 19.6042 20.4981 19.9702 20.1473C20.3362 19.7966 20.5192 19.301 20.5192 18.6605C20.5192 18.02 20.3362 17.5244 19.9702 17.1737C19.6042 16.823 19.0476 16.6476 18.3004 16.6476H16.1732V20.6734H18.3004Z" fill="white"/>
</g>
<defs>
<clipPath id="clip0_2387_11305">
<rect width="36" height="36" fill="white"/>
</clipPath>
</defs>
</svg>
