<svg width="181" height="47" viewBox="0 0 181 47" fill="none" xmlns="http://www.w3.org/2000/svg">
<path d="M92.4338 30.9084C91.4167 30.5065 90.5339 29.9037 89.7199 29.0989C88.9726 28.294 88.3619 27.4221 87.8866 26.4163C87.4802 25.4105 87.2093 24.2708 87.2093 23.1311C87.2093 21.9913 87.4125 20.9185 87.8866 19.8457C88.2953 18.8399 88.9049 17.9681 89.7199 17.1644C90.4661 16.4265 91.4167 15.8237 92.4338 15.3549C93.452 14.9519 94.6058 14.6828 95.7595 14.6828C96.9132 14.6828 97.9992 14.8849 99.0852 15.3537C100.104 15.7556 100.985 16.3595 101.731 17.1632C102.479 17.9023 103.089 18.8399 103.497 19.8457C103.971 20.9185 104.174 21.9913 104.174 23.1311C104.174 24.2708 103.971 25.3436 103.497 26.4163C103.088 27.4221 102.479 28.294 101.664 29.0989C100.85 29.8356 99.9669 30.4395 98.9498 30.9084C97.9315 31.3114 96.7778 31.5793 95.624 31.5793C94.538 31.5793 93.452 31.3784 92.4338 30.9095V30.9084ZM91.2123 12.6724C89.8554 13.2751 88.5662 14.08 87.5479 15.1528C86.4619 16.2256 85.648 17.4323 85.0373 18.773C84.4266 20.1818 84.1545 21.6564 84.1545 23.198C84.1545 24.7408 84.4266 26.2154 85.0361 27.6231C85.648 28.9649 86.4619 30.2386 87.5468 31.2444C88.6328 32.3172 89.8554 33.1209 91.2135 33.7248C92.6381 34.3276 94.1305 34.5967 95.6918 34.5967C97.253 34.5967 98.7454 34.3276 100.171 33.7248C101.528 33.1209 102.817 32.3172 103.836 31.2444C104.922 30.1716 105.736 28.9649 106.346 27.6231C106.958 26.2154 107.229 24.7408 107.229 23.198C107.229 21.6564 106.958 20.1818 106.347 18.773C105.736 17.4335 104.922 16.1586 103.837 15.1528C102.751 14.08 101.528 13.2751 100.17 12.6724C98.7454 12.0684 97.253 11.8005 95.6918 11.8005C94.1305 11.8005 92.6381 12.0684 91.2123 12.6724ZM66.5776 12.6724C65.2196 13.2751 63.9304 14.08 62.9121 15.1528C61.7584 16.1586 60.9444 17.4323 60.4014 18.773C59.7907 20.1818 59.5186 21.7234 59.5186 23.198C59.5186 24.7408 59.8573 26.2154 60.4014 27.69C60.9444 29.0319 61.8261 30.2386 62.9121 31.3114C63.9981 32.3842 65.2196 33.189 66.5776 33.7918C68.0023 34.3958 69.5636 34.6637 71.0559 34.6637C72.6172 34.6637 74.1107 34.3276 75.5354 33.7918C76.96 33.1879 78.1827 32.3842 79.1998 31.3784C80.2858 30.3056 81.1008 29.0989 81.7104 27.69C81.847 27.4221 81.9825 27.0873 82.0502 26.7524H78.6568C78.2504 27.6231 77.7074 28.4279 76.96 29.1658C76.2138 29.9037 75.2645 30.5065 74.2462 30.9753C73.2279 31.3784 72.0742 31.6463 70.9205 31.6463C69.7667 31.6463 68.6807 31.4454 67.6625 30.9765C66.6454 30.5735 65.7626 29.9695 64.9486 29.1658C64.2013 28.361 63.5906 27.4891 63.1153 26.4833C62.7089 25.4775 62.438 24.3378 62.438 23.198C62.438 22.0583 62.6412 20.9855 63.1153 19.9127C63.524 18.9069 64.1336 18.0362 64.9486 17.2314C65.6948 16.4935 66.6454 15.8907 67.6625 15.4219C68.6807 15.0188 69.8345 14.7509 70.9882 14.7509C72.1419 14.7509 73.2279 14.9507 74.3139 15.4207C75.3322 15.8237 76.2138 16.4265 77.0289 17.2302C77.7062 17.9023 78.2504 18.706 78.7257 19.6448H82.1191C82.0502 19.3099 81.9148 19.0409 81.7793 18.706C81.1686 17.3653 80.3547 16.0916 79.2687 15.0858C78.2504 14.08 76.96 13.2082 75.6031 12.6054C74.1785 12.0014 72.6849 11.7336 71.1237 11.7336C69.4958 11.8005 67.9346 12.0684 66.5776 12.6724ZM110.826 34.6625H113.948V11.8005H110.826V34.6625ZM149.442 19.8457C149.442 16.8283 151.954 14.3467 155.007 14.3467C158.061 14.3467 160.504 16.8272 160.504 19.8457C160.504 22.795 158.061 25.2754 155.007 25.2754C151.886 25.2754 149.442 22.862 149.442 19.8446V19.8457ZM146.659 19.9115C146.659 24.4036 150.392 27.8898 155.143 27.8898H157.043L153.378 34.7964H156.501L162.269 23.9347C163.083 22.4601 163.423 21.1183 163.423 19.8457C163.423 15.3525 159.758 11.7993 155.075 11.7993C150.325 11.7324 146.659 15.3525 146.659 19.9115ZM168.784 27.8898C168.784 25.2754 170.956 23.1968 173.602 23.1968C176.317 23.1968 178.489 25.2766 178.489 27.891C178.489 30.5053 176.317 32.6509 173.602 32.6509C170.887 32.6509 168.784 30.5053 168.784 27.891V27.8898ZM170.346 17.4323C170.346 15.6874 171.77 14.2128 173.535 14.2128C175.299 14.2128 176.793 15.6874 176.793 17.4323C176.793 19.1748 175.299 20.6494 173.535 20.6494C171.838 20.6494 170.346 19.1748 170.346 17.4311V17.4323ZM167.766 17.4323C167.766 18.7048 168.174 19.9115 168.92 20.9173L169.53 21.7892L168.717 22.459C167.088 23.8008 166.137 25.8124 166.137 27.891C166.137 31.913 169.463 35.1995 173.535 35.1995C177.674 35.1995 181 31.913 181 27.891C181 25.7454 180.049 23.8008 178.422 22.392L177.607 21.7222L178.285 20.8504C179.032 19.9116 179.439 18.7048 179.439 17.4311C179.439 14.2798 176.86 11.7993 173.602 11.7993C170.277 11.7324 167.766 14.2128 167.766 17.4311V17.4323ZM139.126 11.7993V29.5665C139.126 30.5723 138.583 31.1763 137.634 31.2432C136.683 31.2432 136.14 30.5054 135.937 30.1035L128.81 14.8837C128.404 13.9437 127.793 13.207 126.91 12.6042C126.096 12.0673 125.146 11.7993 124.127 11.7993C122.906 11.7993 121.82 12.2012 120.938 12.8721C120.871 12.8721 120.871 12.9391 120.803 12.9391C119.785 13.8109 119.309 14.8837 119.309 16.1574V34.6625H122.635V16.6262C122.635 15.6874 123.314 15.0165 124.195 15.0165C124.875 15.0165 125.486 15.4195 125.892 16.2244L125.961 16.3583C127.656 20.0455 131.39 28.0919 133.629 32.383C134.376 33.7906 135.665 34.4616 137.701 34.4616C138.923 34.4616 140.076 34.1255 140.959 33.3888C141.976 32.5839 142.519 31.913 142.519 30.3044V11.7982H139.126V11.7993ZM38.887 0H8.688C3.86873 0 0 3.8211 0 8.5822V38.4178C0 43.1789 3.86873 47 8.688 47H38.8858C43.6373 47 47.5738 43.1789 47.5738 38.4178V8.5822C47.5738 3.8211 43.7051 0 38.8858 0H38.887ZM31.5582 11.7336C35.0871 11.7336 37.9376 14.5489 37.9376 18.0362C37.9376 19.1078 37.6655 20.1136 37.1902 21.0525C36.3763 20.4497 35.4947 19.9127 34.5441 19.5779C34.8151 19.1078 34.9517 18.5721 34.9517 18.0362C34.9517 16.2256 33.4581 14.7509 31.626 14.7509C29.7926 14.7509 28.3002 16.2256 28.3002 18.0362C28.3002 18.5721 28.4357 19.1078 28.7078 19.5779C27.7572 19.9127 26.8067 20.3827 26.0605 21.0525C25.5175 20.1136 25.3131 19.1078 25.3131 18.0351C25.1789 14.5488 28.0293 11.7336 31.5582 11.7336ZM16.0156 35.2664C12.4878 35.2664 9.63737 32.4511 9.63737 28.9649H12.691C12.691 30.7744 14.1846 32.2502 16.0167 32.2502C17.8489 32.2502 19.3425 30.7744 19.3425 28.9649H22.3961C22.3961 32.4511 19.5457 35.2664 16.0167 35.2664H16.0156ZM16.0156 26.4163C11.9448 26.4163 8.6191 23.131 8.6191 19.1078C8.6191 15.0858 11.9448 11.7336 16.0167 11.7336C20.0887 11.7336 23.4821 15.0188 23.4821 19.1078C23.4144 23.131 20.0887 26.4163 16.0167 26.4163H16.0156ZM31.5582 35.2664C27.4863 35.2664 24.0929 31.9811 24.0929 27.9579C24.0929 23.8689 27.4186 20.5836 31.5582 20.5836C35.6301 20.5836 38.9559 23.8689 38.9559 27.9591C38.9559 31.9811 35.6301 35.2676 31.5582 35.2676V35.2664ZM35.9688 27.8921C35.9688 30.3056 34.0011 32.1821 31.5582 32.1821C29.1153 32.1821 27.1465 30.2386 27.1465 27.8921C27.1465 25.4775 29.1153 23.5329 31.5582 23.5329C34.0011 23.601 35.9688 25.5445 35.9688 27.8921ZM20.3596 19.1078C20.3596 21.5225 18.3919 23.4671 15.949 23.4671C13.5049 23.4671 11.5373 21.5225 11.5373 19.1078C11.5373 16.6944 13.5049 14.7498 15.949 14.7498C18.4597 14.7498 20.3596 16.6944 20.3596 19.109V19.1078Z" fill="white"/>
</svg>
