<svg width="136" height="42" viewBox="0 0 136 42" fill="none" xmlns="http://www.w3.org/2000/svg">
<path d="M31.28 0H7.82C3.50115 0 0 3.51622 0 7.85366V31.4146C0 35.7522 3.50115 39.2683 7.82 39.2683H31.28C35.599 39.2683 39.1 35.7522 39.1 31.4146V7.85366C39.1 3.51622 35.599 0 31.28 0Z" fill="url(#paint0_radial_1961_3300)"/>
<path d="M31.28 0H7.82C3.50115 0 0 3.51622 0 7.85366V31.4146C0 35.7522 3.50115 39.2683 7.82 39.2683H31.28C35.599 39.2683 39.1 35.7522 39.1 31.4146V7.85366C39.1 3.51622 35.599 0 31.28 0Z" fill="url(#paint1_radial_1961_3300)" fill-opacity="0.68"/>
<path style="mix-blend-mode:overlay" d="M31.28 0H7.82C3.50115 0 0 3.51622 0 7.85366V31.4146C0 35.7522 3.50115 39.2683 7.82 39.2683H31.28C35.599 39.2683 39.1 35.7522 39.1 31.4146V7.85366C39.1 3.51622 35.599 0 31.28 0Z" fill="url(#paint2_radial_1961_3300)" fill-opacity="0.2"/>
<path d="M31.28 0H7.82C3.50115 0 0 3.51622 0 7.85366V31.4146C0 35.7522 3.50115 39.2683 7.82 39.2683H31.28C35.599 39.2683 39.1 35.7522 39.1 31.4146V7.85366C39.1 3.51622 35.599 0 31.28 0Z" fill="url(#paint3_linear_1961_3300)" fill-opacity="0.03"/>
<path d="M13.7632 33.3781V21.2049L25.2195 33.3781H31.5928V33.0639L18.4161 19.2022L30.5762 6.04733V5.89026H24.1638L13.7632 17.5137V5.89026H8.60199V33.3781H13.7632Z" fill="white"/>
<path d="M31.28 0H7.82C3.50115 0 0 3.51622 0 7.85366V31.4146C0 35.7522 3.50115 39.2683 7.82 39.2683H31.28C35.599 39.2683 39.1 35.7522 39.1 31.4146V7.85366C39.1 3.51622 35.599 0 31.28 0Z" fill="url(#paint4_radial_1961_3300)"/>
<path d="M31.28 0H7.82C3.50115 0 0 3.51622 0 7.85366V31.4146C0 35.7522 3.50115 39.2683 7.82 39.2683H31.28C35.599 39.2683 39.1 35.7522 39.1 31.4146V7.85366C39.1 3.51622 35.599 0 31.28 0Z" fill="url(#paint5_radial_1961_3300)" fill-opacity="0.57"/>
<path d="M31.28 0H7.82C3.50115 0 0 3.51622 0 7.85366V31.4146C0 35.7522 3.50115 39.2683 7.82 39.2683H31.28C35.599 39.2683 39.1 35.7522 39.1 31.4146V7.85366C39.1 3.51622 35.599 0 31.28 0Z" fill="url(#paint6_radial_1961_3300)" fill-opacity="0.68"/>
<path d="M31.28 0H7.82C3.50115 0 0 3.51622 0 7.85366V31.4146C0 35.7522 3.50115 39.2683 7.82 39.2683H31.28C35.599 39.2683 39.1 35.7522 39.1 31.4146V7.85366C39.1 3.51622 35.599 0 31.28 0Z" fill="url(#paint7_radial_1961_3300)" fill-opacity="0.08"/>
<path d="M31.28 0H7.82C3.50115 0 0 3.51622 0 7.85366V31.4146C0 35.7522 3.50115 39.2683 7.82 39.2683H31.28C35.599 39.2683 39.1 35.7522 39.1 31.4146V7.85366C39.1 3.51622 35.599 0 31.28 0Z" fill="url(#paint8_linear_1961_3300)" fill-opacity="0.03"/>
<path d="M13.7632 33.3781V21.2049L25.2195 33.3781H31.5928V33.0639L18.4161 19.2022L30.5762 6.04733V5.89026H24.1638L13.7632 17.5137V5.89026H8.60199V33.3781H13.7632Z" fill="white"/>
<path d="M51.7035 33.1662V21.049L63.0761 33.1662H69.4029V32.8535L56.3224 19.0556L68.3937 5.96123V5.80487H62.0283L51.7035 17.3748V5.80487H46.58V33.1662H51.7035ZM78.1922 33.7525C81.142 33.7525 84.3639 32.6971 86.4209 30.6255L83.3935 27.6157C82.2678 28.7493 80.0166 29.4138 78.2701 29.4138C74.8932 29.4138 72.8746 27.6939 72.5642 25.3096H87.5079C87.5466 24.6842 87.5854 24.0979 87.5854 23.5116C87.5854 16.7885 83.7039 13.3879 77.843 13.3879C71.6326 13.3879 67.6736 17.6093 67.6736 23.4725C67.6736 29.6092 71.5938 33.7525 78.1922 33.7525ZM82.9665 21.3617H72.6417C73.3792 18.8601 75.3977 17.6093 77.9981 17.6093C80.7541 17.6093 82.6561 18.8601 82.9665 21.3617ZM94.3565 42V30.8991C95.7535 33.0489 98.6646 33.7134 100.722 33.7134C106.855 33.7134 110.387 29.1793 110.387 23.5507C110.387 17.8829 106.467 13.466 100.567 13.466C98.393 13.466 95.8702 14.3651 94.3565 16.554L94.0457 13.896H89.621V42H94.3565ZM100.217 29.062C96.9568 29.062 94.7832 26.5604 94.7832 23.5507C94.7832 20.5409 96.8018 18.0784 100.217 18.0784C103.633 18.0784 105.651 20.5409 105.651 23.5507C105.651 26.5604 103.478 29.062 100.217 29.062ZM117.43 33.1662V5.84397H112.733V33.1662H117.43ZM125.675 33.1662V23.0034C125.675 19.4074 127.965 18.1175 130.45 18.1175C132.002 18.1175 132.895 18.6256 133.865 19.3683L136 15.225C134.952 14.2478 133.05 13.4269 131.071 13.4269C129.169 13.4269 127.073 13.7787 125.675 16.124L125.326 13.896H120.94V33.1662H125.675Z" fill="white"/>
<defs>
<radialGradient id="paint0_radial_1961_3300" cx="0" cy="0" r="1" gradientUnits="userSpaceOnUse" gradientTransform="translate(-29.7704 18.6838) rotate(140.051) scale(67.3481 81.3328)">
<stop stop-color="#1973C8"/>
<stop offset="1" stop-color="#0D25D1"/>
</radialGradient>
<radialGradient id="paint1_radial_1961_3300" cx="0" cy="0" r="1" gradientUnits="userSpaceOnUse" gradientTransform="translate(-37.5234 -18.2647) rotate(178.307) scale(42.0435 31.0977)">
<stop stop-color="#5CA6EB"/>
<stop offset="1" stop-color="#5CA6EB" stop-opacity="0.0841893"/>
</radialGradient>
<radialGradient id="paint2_radial_1961_3300" cx="0" cy="0" r="1" gradientUnits="userSpaceOnUse" gradientTransform="translate(-34.4712 2.54068) rotate(119.832) scale(22.536 33.7128)">
<stop stop-color="white"/>
<stop offset="0.999604" stop-color="white" stop-opacity="0.329873"/>
</radialGradient>
<linearGradient id="paint3_linear_1961_3300" x1="36.8468" y1="23.155" x2="-0.0888868" y2="0.142667" gradientUnits="userSpaceOnUse">
<stop stop-color="white" stop-opacity="0.184878"/>
<stop offset="1" stop-color="white"/>
</linearGradient>
<radialGradient id="paint4_radial_1961_3300" cx="0" cy="0" r="1" gradientUnits="userSpaceOnUse" gradientTransform="translate(35.529 4.30322) scale(67.2523 67.5418)">
<stop stop-color="#2F80F2"/>
<stop offset="0.999657" stop-color="#A942B5"/>
</radialGradient>
<radialGradient id="paint5_radial_1961_3300" cx="0" cy="0" r="1" gradientUnits="userSpaceOnUse" gradientTransform="translate(-7.41615e-06 0.843527) scale(62.2112 62.4789)">
<stop stop-color="#45F9DE"/>
<stop offset="1" stop-color="#A942B5" stop-opacity="0"/>
</radialGradient>
<radialGradient id="paint6_radial_1961_3300" cx="0" cy="0" r="1" gradientUnits="userSpaceOnUse" gradientTransform="translate(39.1 39.2683) scale(37.553 37.7146)">
<stop stop-color="#E957C5"/>
<stop offset="1" stop-color="#A942B5" stop-opacity="0"/>
</radialGradient>
<radialGradient id="paint7_radial_1961_3300" cx="0" cy="0" r="1" gradientUnits="userSpaceOnUse" gradientTransform="translate(19.55 19.6341) scale(22.5419 22.6389)">
<stop stop-opacity="0.184878"/>
<stop offset="1" stop-color="#101010"/>
</radialGradient>
<linearGradient id="paint8_linear_1961_3300" x1="36.8468" y1="23.155" x2="-0.0888868" y2="0.142667" gradientUnits="userSpaceOnUse">
<stop stop-color="white" stop-opacity="0.184878"/>
<stop offset="1" stop-color="white"/>
</linearGradient>
</defs>
</svg>
