<svg width="190" height="46" viewBox="0 0 190 46" fill="none" xmlns="http://www.w3.org/2000/svg">
<path d="M32.8162 0H14.9147V23.7738H39.0847V6.15139C39.0847 2.77586 36.2629 0 32.8359 0C32.83 0 32.8221 0 32.8162 0V0Z" fill="white"/>
<path d="M9.33395 0H6.24884C2.8218 0 0 2.7778 0 6.15139V9.18839H9.33395V0Z" fill="white"/>
<path d="M0 14.6821H9.33395V23.8705H0V14.6821Z" fill="white"/>
<path d="M29.8293 38.4752H32.9145C36.3435 38.4752 39.1633 35.6974 39.1633 32.3238C39.1633 32.318 39.1633 32.3102 39.1633 32.3044V29.3641H29.8293V38.4752Z" fill="white"/>
<path d="M14.9147 29.3641H24.2486V38.5525H14.9147V29.3641Z" fill="white"/>
<path d="M0 29.3641V32.4011C0 35.7747 2.8218 38.5525 6.24884 38.5525H9.33395V29.3641H0Z" fill="white"/>
<path d="M62.9404 2.45667H59.2854V36.0958H78.6411V32.8847H62.9404V2.45667Z" fill="white"/>
<path d="M90.392 11.3743C83.2786 11.3743 78.2677 16.5778 78.2677 24.0639V24.9151C78.5074 31.4553 84.0194 36.7168 90.6671 36.7536H91.1387C94.4675 36.7478 97.6862 35.5755 100.217 33.4458V33.349L98.5666 30.6989L98.3897 30.7956C96.4247 32.5985 93.8446 33.614 91.1584 33.6392C91.0916 33.6411 91.0247 33.6411 90.9579 33.6411C85.9982 33.6411 81.9187 29.6253 81.9187 24.7429C81.9187 24.6462 81.9187 24.5475 81.9227 24.4508H100.394V24.2574V22.5551C100.571 15.7267 96.5426 11.3743 90.392 11.3743ZM82.1192 21.4138C82.6065 17.4135 86.1023 14.3726 90.1955 14.3919C93.2806 14.3919 96.6605 16.2103 96.9356 21.4138H82.1192Z" fill="white"/>
<path d="M121.833 14.2178V15.4752C120.27 12.914 117.458 11.3356 114.424 11.3162H113.972C107.429 11.3162 102.909 16.423 102.909 23.9091C102.909 31.3953 107.232 36.6181 113.678 36.6181C117.018 36.7748 120.182 35.0861 121.872 32.2464V35.9411H125.33V2.45667H121.833V14.2178ZM114.326 33.4457C109.807 33.4457 106.82 29.5769 106.82 23.9672C106.82 18.3574 109.983 14.5853 114.424 14.5853C118.099 14.5853 121.833 17.5256 121.833 23.9672C121.833 30.9504 117.903 33.4457 114.248 33.4457H114.326Z" fill="white"/>
<path d="M146.494 14.6821V14.8755C145.806 13.7342 143.704 11.2775 138.634 11.2775C132.188 11.2775 127.944 16.1135 127.944 23.5029C127.944 30.8923 132.385 35.9024 138.929 35.9024C141.996 36.1268 144.944 34.6276 146.533 32.0336V35.3608C146.533 40.0033 143.546 42.6535 138.241 42.6535C135.953 42.667 133.698 42.1447 131.658 41.1253L131.481 41.0286L130.125 43.9689L130.322 44.0656C132.796 45.2997 135.525 45.9632 138.3 46C143.979 46 150.09 43.1564 150.09 35.2834V12.0706H146.494V14.6821ZM139.361 32.8848C134.645 32.8848 131.501 29.2868 131.501 23.6964C131.501 18.106 134.193 14.7788 138.811 14.7788C143.9 14.7788 146.317 17.7191 146.317 23.6964C146.317 29.6737 143.979 32.8848 139.361 32.8848Z" fill="white"/>
<path d="M164.592 11.3743C157.459 11.3743 152.546 16.5778 152.546 23.9672V24.8183C152.757 31.432 158.343 36.7574 165.064 36.7536H165.555C168.872 36.7342 172.077 35.5543 174.594 33.4264L172.924 30.6022H172.727C170.77 32.405 168.196 33.4206 165.516 33.4458C165.449 33.4477 165.382 33.4477 165.315 33.4477C160.346 33.4477 156.256 29.4222 156.256 24.5301C156.256 24.4392 156.258 24.3483 156.26 24.2574H174.889V24.0639V22.3617C174.889 15.7267 170.841 11.3743 164.592 11.3743ZM156.398 21.4138C156.893 17.4096 160.397 14.3726 164.494 14.3919C167.559 14.3919 170.939 16.2103 171.214 21.4138H156.398Z" fill="white"/>
<path d="M189.902 11.8385C189.41 11.8385 189.037 11.8385 188.546 11.6451C185.076 11.7437 182.022 13.9876 180.941 17.2355V11.8385H177.384V35.9992H181.039V25.8629C181.051 24.3057 181.311 22.7582 181.806 21.2784C182.965 17.5837 185.559 15.2237 188.644 15.2237C189.029 15.185 189.418 15.185 189.803 15.2237H190V11.8385H189.902Z" fill="white"/>
</svg>
