<svg width="283" height="283" viewBox="0 0 283 283" fill="none" xmlns="http://www.w3.org/2000/svg">
<g clip-path="url(#clip0_4502_6621)">
<path d="M58.0136 185.848C58.5239 184.983 58.8372 184.008 58.8372 183.13C58.8372 181.374 57.5795 180.658 56.0263 181.541C54.4732 182.419 53.2155 184.557 53.2155 186.314C53.2155 188.07 54.4732 188.786 56.0263 187.904C56.8007 187.464 57.5079 186.709 58.0136 185.848ZM67.4623 180.495C67.9726 179.63 68.2859 178.655 68.2859 177.777C68.2859 176.021 67.0282 175.309 65.475 176.187C63.9219 177.066 62.6641 179.204 62.6641 180.961C62.6641 182.717 63.9219 183.433 65.475 182.555C66.2538 182.116 66.9521 181.36 67.4623 180.495ZM76.911 175.142C77.4213 174.282 77.7346 173.307 77.7346 172.424C77.7346 170.668 76.4768 169.956 74.9237 170.834C73.3705 171.713 72.1128 173.851 72.1128 175.608C72.1128 177.364 73.3705 178.08 74.9237 177.202C75.698 176.763 76.4052 176.007 76.911 175.142ZM87.0221 185.032V185.848L41.0723 211.872V180.904L63.5593 168.164V147.081L87.0221 133.789V185.032Z" fill="#DAE0E5"/>
<path d="M87.0155 133.791L63.5527 147.083V142.687L41.0657 129.948L18.5741 142.687V147.083L-4.88867 133.791L41.0657 107.767L87.0155 133.791Z" fill="white"/>
<path d="M76.9017 175.145C76.3959 176.01 75.6887 176.765 74.9144 177.204C73.3612 178.083 72.1035 177.371 72.1035 175.61C72.1035 173.849 73.3612 171.715 74.9144 170.837C76.4675 169.959 77.7253 170.67 77.7253 172.427C77.7253 173.309 77.412 174.284 76.9017 175.145Z" fill="#350B00"/>
<path d="M67.4486 180.496C66.9383 181.362 66.2401 182.117 65.4613 182.556C63.9081 183.434 62.6504 182.719 62.6504 180.962C62.6504 179.205 63.9081 177.067 65.4613 176.189C67.0144 175.31 68.2722 176.022 68.2722 177.778C68.2722 178.657 67.9588 179.631 67.4486 180.496Z" fill="#350B00"/>
<path d="M63.5593 147.084V168.167L41.0723 180.906V159.823L63.5593 147.084Z" fill="#350B00"/>
<path d="M63.5593 142.687V147.083L41.0723 159.822V155.431L63.5593 142.687Z" fill="#350B00"/>
<path d="M63.5508 142.69L41.0638 155.434L18.5723 142.69L41.0638 129.951L63.5508 142.69Z" fill="#E59636"/>
<path d="M58.0111 185.85C57.5053 186.711 56.7981 187.466 56.0238 187.905C54.4706 188.788 53.2129 188.072 53.2129 186.315C53.2129 184.559 54.4706 182.42 56.0238 181.542C57.5769 180.659 58.8347 181.375 58.8347 183.132C58.8347 184.01 58.5213 184.985 58.0111 185.85Z" fill="#350B00"/>
<path d="M41.0656 180.904V211.872L-4.88867 185.848V133.789L18.5741 147.081V168.164L41.0656 180.904Z" fill="white"/>
<path d="M41.0638 159.823V180.906L18.5723 168.167V147.084L41.0638 159.823Z" fill="#969A9E"/>
<path d="M41.0638 155.431V159.822L18.5723 147.083V142.687L41.0638 155.431Z" fill="#969A9E"/>
<path d="M18.5723 142.69L41.0638 129.951L63.5508 142.69L41.0638 155.434L18.5723 142.69Z" stroke="#350B00" stroke-width="0.913011" stroke-linecap="round" stroke-linejoin="round"/>
<path d="M41.0723 155.43V159.821" stroke="#350B00" stroke-width="0.913011" stroke-linecap="round" stroke-linejoin="round"/>
<path d="M18.5723 142.687V168.166L41.0638 180.905L63.5508 168.166V142.687" stroke="#350B00" stroke-width="0.913011" stroke-linecap="round" stroke-linejoin="round"/>
<path d="M-4.88867 133.791L41.0657 107.767L87.0155 133.791L41.0657 159.823L-4.88867 133.791Z" stroke="#350B00" stroke-width="0.913011" stroke-linecap="round" stroke-linejoin="round"/>
<path d="M41.0723 159.822V211.873" stroke="#350B00" stroke-width="0.913011" stroke-linecap="round" stroke-linejoin="round"/>
<path d="M-4.88867 133.789V185.848L41.0657 211.872L87.0155 185.848V133.789" stroke="#350B00" stroke-width="0.913011" stroke-linecap="round" stroke-linejoin="round"/>
</g>
<g clip-path="url(#clip1_4502_6621)">
<path d="M254.318 188.591C254.829 187.726 255.142 186.751 255.142 185.872C255.142 184.116 253.884 183.4 252.331 184.283C250.778 185.161 249.52 187.3 249.52 189.056C249.52 190.813 250.778 191.528 252.331 190.646C253.105 190.207 253.813 189.451 254.318 188.591ZM263.767 183.238C264.277 182.372 264.591 181.398 264.591 180.519C264.591 178.763 263.333 178.051 261.78 178.93C260.227 179.808 258.969 181.946 258.969 183.703C258.969 185.46 260.227 186.175 261.78 185.297C262.559 184.858 263.257 184.103 263.767 183.238ZM273.216 177.884C273.726 177.024 274.039 176.049 274.039 175.166C274.039 173.41 272.782 172.698 271.228 173.577C269.675 174.455 268.417 176.593 268.417 178.35C268.417 180.107 269.675 180.822 271.228 179.944C272.003 179.505 272.71 178.75 273.216 177.884ZM283.327 187.774V188.591L237.377 214.614V183.646L259.864 170.907V149.824L283.327 136.531V187.774Z" fill="#DAE0E5"/>
<path d="M283.32 136.533L259.857 149.825V145.43L237.37 132.69L214.879 145.43V149.825L191.416 136.533L237.37 110.51L283.32 136.533Z" fill="white"/>
<path d="M273.206 177.887C272.701 178.752 271.993 179.508 271.219 179.947C269.666 180.825 268.408 180.114 268.408 178.353C268.408 176.592 269.666 174.457 271.219 173.579C272.772 172.701 274.03 173.412 274.03 175.169C274.03 176.052 273.717 177.026 273.206 177.887Z" fill="#350B00"/>
<path d="M263.753 183.239C263.243 184.104 262.545 184.859 261.766 185.298C260.213 186.176 258.955 185.461 258.955 183.704C258.955 181.948 260.213 179.809 261.766 178.931C263.319 178.052 264.577 178.764 264.577 180.52C264.577 181.399 264.264 182.374 263.753 183.239Z" fill="#350B00"/>
<path d="M259.864 149.826V170.909L237.377 183.648V162.565L259.864 149.826Z" fill="#350B00"/>
<path d="M259.864 145.429V149.825L237.377 162.564V158.173L259.864 145.429Z" fill="#350B00"/>
<path d="M259.856 145.432L237.368 158.176L214.877 145.432L237.368 132.693L259.856 145.432Z" fill="#E59636"/>
<path d="M254.316 188.592C253.81 189.453 253.103 190.208 252.328 190.647C250.775 191.53 249.518 190.814 249.518 189.058C249.518 187.301 250.775 185.163 252.328 184.284C253.882 183.402 255.139 184.117 255.139 185.874C255.139 186.752 254.826 187.727 254.316 188.592Z" fill="#350B00"/>
<path d="M237.37 183.646V214.614L191.416 188.591V136.531L214.879 149.824V170.907L237.37 183.646Z" fill="white"/>
<path d="M237.368 162.565V183.648L214.877 170.909V149.826L237.368 162.565Z" fill="#969A9E"/>
<path d="M237.368 158.173V162.565L214.877 149.825V145.429L237.368 158.173Z" fill="#969A9E"/>
<path d="M214.877 145.432L237.368 132.693L259.856 145.432L237.368 158.176L214.877 145.432Z" stroke="#350B00" stroke-width="0.913011" stroke-linecap="round" stroke-linejoin="round"/>
<path d="M237.377 158.172V162.563" stroke="#350B00" stroke-width="0.913011" stroke-linecap="round" stroke-linejoin="round"/>
<path d="M214.877 145.429V170.908L237.368 183.647L259.856 170.908V145.429" stroke="#350B00" stroke-width="0.913011" stroke-linecap="round" stroke-linejoin="round"/>
<path d="M191.416 136.533L237.37 110.51L283.32 136.533L237.37 162.565L191.416 136.533Z" stroke="#350B00" stroke-width="0.913011" stroke-linecap="round" stroke-linejoin="round"/>
<path d="M237.377 162.564V214.615" stroke="#350B00" stroke-width="0.913011" stroke-linecap="round" stroke-linejoin="round"/>
<path d="M191.416 136.531V188.591L237.37 214.614L283.32 188.591V136.531" stroke="#350B00" stroke-width="0.913011" stroke-linecap="round" stroke-linejoin="round"/>
</g>
<g clip-path="url(#clip2_4502_6621)">
<path d="M153.896 140.2C154.407 139.335 154.72 138.36 154.72 137.482C154.72 135.725 153.462 135.009 151.909 135.892C150.356 136.77 149.098 138.909 149.098 140.665C149.098 142.422 150.356 143.138 151.909 142.255C152.683 141.816 153.391 141.061 153.896 140.2ZM163.345 134.847C163.855 133.982 164.169 133.007 164.169 132.129C164.169 130.372 162.911 129.661 161.358 130.539C159.805 131.417 158.547 133.556 158.547 135.312C158.547 137.069 159.805 137.785 161.358 136.906C162.137 136.467 162.835 135.712 163.345 134.847ZM172.794 129.494C173.304 128.633 173.617 127.658 173.617 126.776C173.617 125.019 172.36 124.308 170.806 125.186C169.253 126.064 167.996 128.203 167.996 129.959C167.996 131.716 169.253 132.432 170.806 131.553C171.581 131.114 172.288 130.359 172.794 129.494ZM182.905 139.383V140.2L136.955 166.223V135.255L159.442 122.516V101.433L182.905 88.1404V139.383Z" fill="#DAE0E5"/>
<path d="M182.898 88.1421L159.436 101.435V97.039L136.948 84.2997L114.457 97.039V101.435L90.9941 88.1421L136.948 62.1189L182.898 88.1421Z" fill="white"/>
<path d="M172.785 129.496C172.279 130.362 171.572 131.117 170.797 131.556C169.244 132.434 167.986 131.723 167.986 129.962C167.986 128.201 169.244 126.067 170.797 125.189C172.35 124.31 173.608 125.022 173.608 126.778C173.608 127.661 173.295 128.636 172.785 129.496Z" fill="#350B00"/>
<path d="M163.331 134.848C162.821 135.713 162.123 136.468 161.344 136.908C159.791 137.786 158.533 137.07 158.533 135.314C158.533 133.557 159.791 131.418 161.344 130.54C162.897 129.662 164.155 130.373 164.155 132.13C164.155 133.008 163.842 133.983 163.331 134.848Z" fill="#350B00"/>
<path d="M159.442 101.435V122.518L136.955 135.258V114.175L159.442 101.435Z" fill="#350B00"/>
<path d="M159.442 97.0386V101.434L136.955 114.174V109.782L159.442 97.0386Z" fill="#350B00"/>
<path d="M159.434 97.0418L136.947 109.786L114.455 97.0418L136.947 84.3025L159.434 97.0418Z" fill="#E59636"/>
<path d="M153.894 140.202C153.388 141.062 152.681 141.818 151.907 142.257C150.353 143.139 149.096 142.424 149.096 140.667C149.096 138.91 150.353 136.772 151.907 135.894C153.46 135.011 154.717 135.727 154.717 137.483C154.717 138.362 154.404 139.336 153.894 140.202Z" fill="#350B00"/>
<path d="M136.948 135.255V166.223L90.9941 140.2V88.1404L114.457 101.433V122.516L136.948 135.255Z" fill="white"/>
<path d="M136.947 114.175V135.258L114.455 122.518V101.435L136.947 114.175Z" fill="#969A9E"/>
<path d="M136.947 109.783V114.174L114.455 101.435V97.0388L136.947 109.783Z" fill="#969A9E"/>
<path d="M114.455 97.0418L136.947 84.3025L159.434 97.0418L136.947 109.786L114.455 97.0418Z" stroke="#350B00" stroke-width="0.913011" stroke-linecap="round" stroke-linejoin="round"/>
<path d="M136.955 109.781V114.173" stroke="#350B00" stroke-width="0.913011" stroke-linecap="round" stroke-linejoin="round"/>
<path d="M114.455 97.0388V122.518L136.947 135.257L159.434 122.518V97.0388" stroke="#350B00" stroke-width="0.913011" stroke-linecap="round" stroke-linejoin="round"/>
<path d="M90.9941 88.1421L136.948 62.1189L182.898 88.1421L136.948 114.174L90.9941 88.1421Z" stroke="#350B00" stroke-width="0.913011" stroke-linecap="round" stroke-linejoin="round"/>
<path d="M136.955 114.174V166.224" stroke="#350B00" stroke-width="0.913011" stroke-linecap="round" stroke-linejoin="round"/>
<path d="M90.9941 88.1404V140.2L136.948 166.223L182.898 140.2V88.1404" stroke="#350B00" stroke-width="0.913011" stroke-linecap="round" stroke-linejoin="round"/>
</g>
<g clip-path="url(#clip3_4502_6621)">
<path d="M153.896 233.329C154.407 232.464 154.72 231.489 154.72 230.611C154.72 228.854 153.462 228.138 151.909 229.021C150.356 229.899 149.098 232.038 149.098 233.794C149.098 235.551 150.356 236.267 151.909 235.384C152.683 234.945 153.391 234.19 153.896 233.329ZM163.345 227.976C163.855 227.111 164.169 226.136 164.169 225.258C164.169 223.501 162.911 222.79 161.358 223.668C159.805 224.546 158.547 226.685 158.547 228.441C158.547 230.198 159.805 230.914 161.358 230.035C162.137 229.596 162.835 228.841 163.345 227.976ZM172.794 222.623C173.304 221.762 173.617 220.787 173.617 219.905C173.617 218.148 172.36 217.437 170.806 218.315C169.253 219.193 167.996 221.332 167.996 223.088C167.996 224.845 169.253 225.561 170.806 224.682C171.581 224.243 172.288 223.488 172.794 222.623ZM182.905 232.512V233.329L136.955 259.352V228.384L159.442 215.645V194.562L182.905 181.269V232.512Z" fill="#DAE0E5"/>
<path d="M182.898 181.271L159.436 194.564V190.168L136.948 177.429L114.457 190.168V194.564L90.9941 181.271L136.948 155.248L182.898 181.271Z" fill="white"/>
<path d="M172.785 222.625C172.279 223.49 171.572 224.246 170.797 224.685C169.244 225.563 167.986 224.852 167.986 223.091C167.986 221.33 169.244 219.196 170.797 218.317C172.35 217.439 173.608 218.151 173.608 219.907C173.608 220.79 173.295 221.765 172.785 222.625Z" fill="#350B00"/>
<path d="M163.331 227.977C162.821 228.842 162.123 229.597 161.344 230.037C159.791 230.915 158.533 230.199 158.533 228.442C158.533 226.686 159.791 224.547 161.344 223.669C162.897 222.791 164.155 223.502 164.155 225.259C164.155 226.137 163.842 227.112 163.331 227.977Z" fill="#350B00"/>
<path d="M159.442 194.564V215.647L136.955 228.386V207.304L159.442 194.564Z" fill="#350B00"/>
<path d="M159.442 190.168V194.563L136.955 207.303V202.911L159.442 190.168Z" fill="#350B00"/>
<path d="M159.434 190.171L136.947 202.914L114.455 190.171L136.947 177.431L159.434 190.171Z" fill="#E59636"/>
<path d="M153.894 233.33C153.388 234.191 152.681 234.946 151.907 235.386C150.353 236.268 149.096 235.552 149.096 233.796C149.096 232.039 150.353 229.901 151.907 229.023C153.46 228.14 154.717 228.856 154.717 230.612C154.717 231.49 154.404 232.465 153.894 233.33Z" fill="#350B00"/>
<path d="M136.948 228.384V259.352L90.9941 233.329V181.269L114.457 194.562V215.645L136.948 228.384Z" fill="white"/>
<path d="M136.947 207.304V228.386L114.455 215.647V194.564L136.947 207.304Z" fill="#969A9E"/>
<path d="M136.947 202.911V207.303L114.455 194.563V190.168L136.947 202.911Z" fill="#969A9E"/>
<path d="M114.455 190.171L136.947 177.431L159.434 190.171L136.947 202.914L114.455 190.171Z" stroke="#350B00" stroke-width="0.913011" stroke-linecap="round" stroke-linejoin="round"/>
<path d="M136.955 202.91V207.302" stroke="#350B00" stroke-width="0.913011" stroke-linecap="round" stroke-linejoin="round"/>
<path d="M114.455 190.168V215.646L136.947 228.386L159.434 215.646V190.168" stroke="#350B00" stroke-width="0.913011" stroke-linecap="round" stroke-linejoin="round"/>
<path d="M90.9941 181.271L136.948 155.248L182.898 181.271L136.948 207.303L90.9941 181.271Z" stroke="#350B00" stroke-width="0.913011" stroke-linecap="round" stroke-linejoin="round"/>
<path d="M136.955 207.302V259.353" stroke="#350B00" stroke-width="0.913011" stroke-linecap="round" stroke-linejoin="round"/>
<path d="M90.9941 181.269V233.329L136.948 259.352L182.898 233.329V181.269" stroke="#350B00" stroke-width="0.913011" stroke-linecap="round" stroke-linejoin="round"/>
</g>
<defs>
<clipPath id="clip0_4502_6621">
<rect width="85.823" height="105.909" fill="white" transform="translate(1.75195 107.113)"/>
</clipPath>
<clipPath id="clip1_4502_6621">
<rect width="91.3011" height="105.909" fill="white" transform="translate(190.744 109.851)"/>
</clipPath>
<clipPath id="clip2_4502_6621">
<rect width="93.1271" height="105.909" fill="white" transform="translate(90.3223 61.4626)"/>
</clipPath>
<clipPath id="clip3_4502_6621">
<rect width="93.1271" height="105.909" fill="white" transform="translate(90.3223 154.588)"/>
</clipPath>
</defs>
</svg>
