<svg width="283" height="283" viewBox="0 0 283 283" fill="none" xmlns="http://www.w3.org/2000/svg">
<path d="M206.169 149.631V149.68C206.144 149.788 206.061 149.879 205.929 149.962C205.862 149.995 205.771 150.037 205.664 150.07L200.963 151.156C200.971 147.367 199.993 143.57 197.986 139.889L205.664 138.115C205.771 138.09 205.862 138.049 205.929 138.007C206.061 137.924 206.144 137.833 206.169 137.725V149.631Z" fill="#350B00"/>
<path d="M188.56 157.073C190.193 152.24 189.845 147.174 187.358 142.349L181.181 143.783C180.899 143.849 180.584 143.825 180.36 143.717C180.211 143.651 180.112 143.543 180.07 143.452V143.269L184.904 129.788C184.953 129.639 185.152 129.515 185.401 129.457C185.65 129.399 185.94 129.415 186.172 129.498L205.821 137.292C206.037 137.366 206.153 137.515 206.169 137.681V137.731C206.144 137.839 206.061 137.93 205.929 138.013C205.862 138.054 205.771 138.096 205.663 138.121L197.986 139.895C199.993 143.576 200.971 147.373 200.963 151.162H200.954V151.999C200.556 161.426 194.032 170.653 182.06 177.568C161.996 189.15 130.566 191.803 105.611 184.018L111.033 178.239C131.57 184.648 157.461 182.451 174.001 172.917C181.612 168.523 186.537 162.968 188.551 157.09L188.56 157.073Z" fill="white"/>
<path d="M200.947 151.155H200.956C200.956 151.437 200.947 151.719 200.947 151.993V151.155Z" fill="white"/>
<path d="M200.954 151.993V163.036C200.954 172.761 194.413 182.378 182.06 189.516C161.996 201.099 130.566 203.76 105.611 195.975V184.011C130.566 191.796 161.996 189.143 182.06 177.561C194.023 170.647 200.548 161.419 200.954 151.993Z" fill="#350B00"/>
<path d="M187.352 142.349C189.839 147.182 190.187 152.248 188.554 157.073C188.231 156.128 187.833 155.232 187.352 154.312L181.175 155.747C180.894 155.796 180.57 155.771 180.355 155.664C180.164 155.572 180.064 155.44 180.064 155.307V143.443C180.098 143.543 180.205 143.642 180.355 143.708C180.578 143.808 180.894 143.841 181.175 143.775L187.352 142.34V142.349Z" fill="#350B00"/>
<path d="M180.073 143.262V143.445C180.065 143.379 180.04 143.329 180.073 143.262Z" fill="white"/>
<path d="M170.213 119.352V131.307L164.244 136.895V124.94L170.213 119.352Z" fill="#350B00"/>
<path d="M71.7285 152.043C71.3554 142.077 77.8387 132.128 90.623 124.758C111.905 112.471 144.62 110.249 170.214 119.352L164.253 124.949C143.169 117.454 116.208 119.286 98.6732 129.409C85.8973 136.796 80.7405 147.3 84.1148 157.175C84.6785 158.8 85.4579 160.391 86.4693 161.958L93.8812 160.226C94.1631 160.159 94.4864 160.192 94.7103 160.309C94.9507 160.416 95.0585 160.582 94.9922 160.756L90.1504 174.229C90.1172 174.32 90.0426 174.403 89.9266 174.469C89.8602 174.51 89.769 174.544 89.6613 174.577C89.4125 174.627 89.1224 174.61 88.9068 174.527L69.2413 166.742C69.0174 166.659 68.8848 166.518 68.8848 166.369C68.8848 166.369 68.8931 166.336 68.8931 166.303C68.9262 166.129 69.1169 165.988 69.3905 165.921L75.8821 164.404C73.2623 160.4 71.8777 156.221 71.7285 152.043Z" fill="#E59636"/>
<path d="M164.239 124.94V136.895C143.155 129.4 116.194 131.241 98.6591 141.364C91.0151 145.783 86.0987 151.329 84.1007 157.174C80.7346 147.3 85.8832 136.796 98.6591 129.409C116.194 119.286 143.147 117.454 164.239 124.948V124.94Z" fill="#350B00"/>
<path d="M68.8848 178.316V166.369C68.8848 166.519 69.0174 166.659 69.2413 166.742L88.8902 174.527C89.1058 174.619 89.396 174.635 89.6447 174.577C89.7525 174.544 89.8436 174.511 89.91 174.469C90.026 174.403 90.1089 174.32 90.1338 174.229L94.9756 160.756V172.62C94.9756 172.62 94.9839 172.687 94.9673 172.72L90.1338 186.192C90.1007 186.292 90.026 186.366 89.91 186.433C89.8436 186.474 89.7525 186.516 89.6447 186.541C89.396 186.599 89.1058 186.582 88.8902 186.491L69.2413 178.698C69.0174 178.623 68.8848 178.457 68.8848 178.316Z" fill="#350B00"/>
<path d="M75.8826 164.405L71.8285 165.35C71.7456 164.637 71.7207 163.899 71.7207 163.17V152.044C71.8782 156.222 73.2628 160.401 75.8743 164.405H75.8826Z" fill="white"/>
<path d="M206.177 137.674C206.168 137.516 206.044 137.367 205.828 137.284L186.179 129.491C185.956 129.408 185.665 129.391 185.408 129.449C185.151 129.507 184.969 129.632 184.911 129.781L180.077 143.261C180.044 143.328 180.069 143.378 180.077 143.444C180.111 143.543 180.218 143.643 180.368 143.709C180.591 143.809 180.906 143.842 181.188 143.775L187.365 142.341C189.852 147.175 190.209 152.24 188.567 157.065C186.569 162.944 181.628 168.49 174.017 172.892C157.477 182.427 131.585 184.624 111.049 178.215L105.627 183.994C130.582 191.779 162.012 189.126 182.075 177.543C194.039 170.629 200.763 161.41 200.97 151.975C200.97 151.701 200.978 151.42 200.978 151.138C200.978 147.349 200.008 143.552 198.002 139.871L205.679 138.096C205.787 138.071 205.878 138.03 205.944 137.989C206.077 137.906 206.16 137.814 206.185 137.707V137.657L206.177 137.674Z" stroke="#350B00" stroke-width="0.82907" stroke-linecap="round" stroke-linejoin="round"/>
<path d="M68.8848 166.361C68.8848 166.51 69.0174 166.651 69.2413 166.734L88.8902 174.519C89.1058 174.61 89.396 174.626 89.6447 174.568C89.7525 174.535 89.8436 174.502 89.91 174.461C90.026 174.394 90.109 174.311 90.1338 174.22L94.9756 160.748C95.0419 160.574 94.9341 160.408 94.6937 160.3C94.4699 160.184 94.1465 160.151 93.8646 160.217L86.4528 161.95C85.4413 160.383 84.6537 158.791 84.0982 157.166C80.7073 147.3 85.8807 136.788 98.6567 129.401C116.191 119.278 143.145 117.445 164.236 124.94L170.197 119.344C144.62 110.249 111.905 112.471 90.623 124.758C77.8387 132.128 71.3554 142.077 71.7285 152.043C71.886 156.221 73.2705 160.4 75.8821 164.404L69.3905 165.921C69.1252 165.988 68.9262 166.128 68.8931 166.303C68.8931 166.336 68.8848 166.344 68.8848 166.352V166.361Z" stroke="#350B00" stroke-width="0.82907" stroke-linecap="round" stroke-linejoin="round"/>
<path d="M71.7207 151.204V163.167C71.7207 163.897 71.7456 164.626 71.8285 165.348" stroke="#350B00" stroke-width="0.82907" stroke-linecap="round" stroke-linejoin="round"/>
<path d="M84.1035 157.173C86.1016 151.328 91.018 145.79 98.662 141.363C116.197 131.24 143.15 129.399 164.241 136.894L170.202 131.306V119.343" stroke="#350B00" stroke-width="0.82907" stroke-linecap="round" stroke-linejoin="round"/>
<path d="M68.8931 178.258C68.8931 178.258 68.8848 178.291 68.8848 178.308V166.344" stroke="#350B00" stroke-width="0.82907" stroke-linecap="round" stroke-linejoin="round"/>
<path d="M94.9839 160.757V172.621C94.9839 172.621 94.9922 172.687 94.9756 172.72L90.1421 186.192C90.109 186.292 90.0343 186.367 89.9183 186.433C89.8519 186.474 89.7607 186.516 89.653 186.541C89.4042 186.599 89.1141 186.582 88.8985 186.491L69.2413 178.698C69.0174 178.623 68.8848 178.457 68.8848 178.316" stroke="#350B00" stroke-width="0.82907" stroke-linecap="round" stroke-linejoin="round"/>
<path d="M164.244 124.938V136.893" stroke="#350B00" stroke-width="0.82907" stroke-linecap="round" stroke-linejoin="round"/>
<path d="M206.162 137.677V149.681C206.137 149.789 206.054 149.88 205.922 149.963C205.855 149.996 205.764 150.038 205.656 150.071L200.956 151.157H200.947" stroke="#350B00" stroke-width="0.82907" stroke-linecap="round" stroke-linejoin="round"/>
<path d="M188.554 157.093V157.077C188.231 156.132 187.833 155.236 187.352 154.316L181.175 155.75C180.894 155.8 180.57 155.775 180.355 155.667C180.164 155.576 180.064 155.443 180.064 155.311V143.264" stroke="#350B00" stroke-width="0.82907" stroke-linecap="round" stroke-linejoin="round"/>
<path d="M200.954 151.073V163.028C200.954 172.753 194.413 182.37 182.06 189.509C161.996 201.091 130.566 203.752 105.611 195.967V184.004" stroke="#350B00" stroke-width="0.82907" stroke-linecap="round" stroke-linejoin="round"/>
<g clip-path="url(#clip0_4502_6549)">
<path d="M133.752 58.9501C133.155 58.5756 132.559 58.2057 131.962 57.8496C131.879 57.7988 131.796 57.7433 131.713 57.7017C131.315 57.4612 130.908 57.23 130.501 56.9988C128.975 56.1296 127.426 55.3481 125.868 54.6361C125.595 54.5112 125.323 54.3864 125.054 54.2708C124.874 54.1968 124.708 54.1228 124.532 54.0488C124.153 53.8824 123.769 53.7252 123.39 53.5772C122.941 53.4015 122.488 53.2212 122.04 53.064C120.333 52.4259 118.673 51.9126 117.051 51.515C116.338 51.3393 115.65 51.1913 114.956 51.0665C114.161 50.9185 113.375 50.7937 112.602 50.7104C111.312 50.5486 110.069 50.4654 108.852 50.4515C108.039 50.4423 107.243 50.4746 106.467 50.5347C105.338 50.6272 104.238 50.7752 103.184 51.0064C100.169 51.6352 97.4409 52.805 95.0642 54.4696L95.055 54.4604L82.9082 63.1115C85.3773 61.2898 88.2441 60.0275 91.4345 59.3662C92.3038 59.1767 93.2008 59.0333 94.1348 58.9593C94.3244 58.9362 94.5233 58.9177 94.7221 58.9085C95.9474 58.8021 97.2004 58.7929 98.4997 58.8576H98.509C100.026 58.9316 101.593 59.1212 103.216 59.431C103.905 59.5558 104.599 59.7038 105.297 59.8795C106.374 60.143 107.484 60.4528 108.594 60.832C109.454 61.1048 110.309 61.4054 111.178 61.7521C111.335 61.803 111.483 61.8677 111.641 61.9278C112.186 62.1498 112.741 62.3764 113.305 62.6307C113.578 62.7463 113.86 62.8711 114.133 62.9959C115.64 63.6849 117.134 64.4525 118.609 65.2755C118.66 65.2986 118.715 65.3264 118.766 65.3587C119.256 65.6315 119.751 65.9136 120.232 66.1956C120.389 66.2881 120.546 66.3852 120.703 66.4869C121.707 67.088 122.696 67.7354 123.681 68.4012L136.679 60.8967C135.712 60.2124 134.732 59.5697 133.756 58.9455L133.752 58.9501Z" fill="#350B00"/>
<path d="M176.55 126.268C176.55 126.217 176.54 126.176 176.54 126.12C176.54 126.069 176.531 126.028 176.531 125.972C176.466 125.311 176.383 124.655 176.3 123.993C176.124 122.676 175.911 121.349 175.653 120.017C175.56 119.471 175.444 118.93 175.32 118.385C175.213 117.904 175.112 117.423 174.996 116.942C174.83 116.239 174.649 115.541 174.464 114.838C174.289 114.159 174.09 113.47 173.891 112.79C173.798 112.489 173.706 112.193 173.613 111.897L161.444 118.926C161.518 119.152 161.596 119.374 161.67 119.601C161.827 120.114 161.985 120.636 162.142 121.15C162.216 121.381 162.276 121.612 162.341 121.839C162.539 122.528 162.738 123.23 162.905 123.919C163.154 124.863 163.376 125.801 163.584 126.745C163.7 127.29 163.816 127.845 163.908 128.386C164.074 129.223 164.222 130.06 164.347 130.897C164.463 131.65 164.569 132.395 164.652 133.135C164.703 133.532 164.745 133.93 164.787 134.328C164.787 134.369 164.796 134.42 164.796 134.462C164.847 135.035 164.888 135.604 164.93 136.154C165.036 137.722 165.078 139.238 165.036 140.718C165.013 141.397 164.985 142.059 164.944 142.715C164.935 142.882 164.921 143.048 164.911 143.205C164.879 143.719 164.828 144.209 164.777 144.703C164.486 147.339 163.964 149.776 163.219 152.005C163.159 152.18 163.103 152.351 163.043 152.518C162.729 153.429 162.373 154.298 161.989 155.121C161.98 155.153 161.957 155.181 161.948 155.213C160.241 158.834 157.879 161.752 154.961 163.906L166.918 155.403L166.895 155.38C169.114 153.706 170.996 151.593 172.513 149.05C172.929 148.361 173.318 147.626 173.683 146.863C173.872 146.465 174.048 146.058 174.215 145.638C174.423 145.157 174.612 144.667 174.788 144.153C175.606 141.818 176.189 139.28 176.513 136.505C176.522 136.455 176.522 136.39 176.536 136.339C176.596 135.692 176.661 135.021 176.702 134.342C176.711 134.217 176.711 134.092 176.725 133.967C176.841 132.011 176.832 129.949 176.674 127.794C176.642 127.29 176.61 126.768 176.559 126.254L176.55 126.268Z" fill="#350B00"/>
<path d="M173.401 111.246C173.077 110.242 172.74 109.239 172.375 108.231C172.134 107.56 171.884 106.904 171.621 106.243C171.602 106.169 171.57 106.085 171.538 106.011C171.348 105.507 171.14 105.008 170.932 104.504C170.312 102.987 169.647 101.48 168.944 99.9865C168.87 99.8293 168.796 99.6721 168.722 99.5149C168.491 99.0525 168.259 98.5855 168.019 98.1231C168.019 98.1139 168.01 98.1139 168.01 98.1C167.214 96.4909 166.368 94.8865 165.467 93.319C165.245 92.9213 165.027 92.5329 164.787 92.1492C164.764 92.0983 164.736 92.0428 164.704 91.9919C164.38 91.4371 164.056 90.8915 163.719 90.3505C163.122 89.3656 162.507 88.4039 161.879 87.4421C161.587 87.0028 161.305 86.5636 161 86.1336C160.676 85.6527 160.339 85.1718 159.997 84.6909C159.599 84.113 159.201 83.5488 158.771 82.9847C158.489 82.5778 158.184 82.1663 157.884 81.7687C157.578 81.3618 157.278 80.9503 156.963 80.5572C156.191 79.5539 155.396 78.569 154.568 77.598C154.254 77.2003 153.907 76.8027 153.574 76.405C153.449 76.2571 153.324 76.1137 153.2 75.975C152.978 75.7115 152.76 75.4618 152.529 75.2121C151.327 73.8527 150.102 72.5441 148.849 71.268C148.724 71.1431 148.599 71.0183 148.469 70.8934C148.22 70.6438 147.965 70.3894 147.716 70.1398C147.452 69.8762 147.184 69.6265 146.92 69.3768C145.866 68.3596 144.798 67.3793 143.698 66.4268C143.309 66.08 142.902 65.7379 142.505 65.4003C142.2 65.1506 141.899 64.8871 141.594 64.6374C141.007 64.1658 140.424 63.6941 139.837 63.2456C139.273 62.7971 138.709 62.3764 138.131 61.9602C137.682 61.6134 137.229 61.2898 136.78 60.9753C136.743 60.9476 136.706 60.9245 136.669 60.8967L123.672 68.4012C124.125 68.711 124.583 69.0115 125.036 69.3306C125.484 69.645 125.947 69.9687 126.395 70.3016C126.576 70.4264 126.751 70.5651 126.918 70.69C127.524 71.1385 128.111 71.6009 128.707 72.0818C129.396 72.6135 130.076 73.1822 130.756 73.7556C131.162 74.0885 131.56 74.4353 131.958 74.7821C132.688 75.4202 133.424 76.0814 134.136 76.7472C134.667 77.2373 135.19 77.7413 135.717 78.2546C135.8 78.3285 135.883 78.4118 135.967 78.495C136.341 78.8695 136.72 79.2487 137.095 79.6232C138.265 80.8069 139.407 82.0276 140.526 83.2853C140.609 83.3778 140.692 83.4749 140.775 83.5673C141.131 83.965 141.478 84.3626 141.82 84.7603C141.853 84.8019 141.894 84.8435 141.927 84.8851C143.055 86.1937 144.146 87.53 145.21 88.9125C145.524 89.3101 145.825 89.717 146.139 90.1239C146.162 90.1563 146.19 90.1979 146.213 90.2303C146.643 90.7851 147.059 91.3492 147.457 91.9272C148.072 92.7734 148.668 93.6334 149.246 94.4888C149.551 94.9188 149.843 95.3581 150.125 95.7974C150.504 96.3707 150.878 96.9579 151.244 97.5452C151.618 98.1324 151.988 98.7289 152.33 99.3346C152.552 99.6675 152.746 100.005 152.945 100.347C153.209 100.786 153.459 101.226 153.708 101.674C154.379 102.844 155.017 104.028 155.632 105.23C155.854 105.637 156.062 106.058 156.27 106.474C156.376 106.682 156.478 106.89 156.584 107.103C156.709 107.352 156.834 107.607 156.959 107.866C157.745 109.516 158.485 111.181 159.178 112.855C159.243 113.003 159.303 113.16 159.354 113.303C159.502 113.659 159.645 114.006 159.784 114.362C159.9 114.667 160.015 114.968 160.131 115.273C160.588 116.484 161.014 117.7 161.421 118.916L173.591 111.888C173.521 111.671 173.457 111.449 173.387 111.232L173.401 111.246Z" fill="#350B00"/>
<g style="mix-blend-mode:multiply" opacity="0.3">
<path d="M141.6 64.6376L128.713 72.0866C128.117 71.6057 127.53 71.1433 126.924 70.6948L139.843 63.2458C140.43 63.6944 141.013 64.166 141.6 64.6376Z" fill="#FFA200"/>
<path d="M148.474 70.8938L135.722 78.2596C135.199 77.7463 134.677 77.2423 134.141 76.7522L146.925 69.3772C147.189 69.6269 147.457 69.8812 147.721 70.1401C147.97 70.3898 148.225 70.6441 148.474 70.8938Z" fill="#FFA200"/>
<path d="M112.598 50.7152L98.505 58.8531H98.4958C97.2011 58.7884 95.9434 58.8023 94.7181 58.904C94.5193 58.9133 94.3204 58.9364 94.1309 58.9549L108.853 50.4517C110.065 50.4609 111.313 50.5441 112.598 50.7152Z" fill="#FFA200"/>
<path d="M124.527 54.0537L111.178 61.7524C110.309 61.4056 109.454 61.1051 108.594 60.8322L122.035 53.0688C122.484 53.2261 122.937 53.4018 123.385 53.5821C123.76 53.7301 124.148 53.8873 124.527 54.0537Z" fill="#FFA200"/>
<path d="M133.752 58.9504L120.694 66.4918C120.537 66.3855 120.38 66.293 120.223 66.2005C119.742 65.9185 119.252 65.6364 118.757 65.3636C118.706 65.3312 118.65 65.2989 118.6 65.2804L131.708 57.7065C131.791 57.7482 131.875 57.799 131.958 57.8545C132.554 58.2105 133.151 58.5758 133.747 58.955L133.752 58.9504Z" fill="#FFA200"/>
<path d="M172.376 108.236L160.146 115.287C160.03 114.982 159.915 114.681 159.799 114.376C159.665 114.02 159.517 113.673 159.369 113.317L171.618 106.247C171.881 106.909 172.131 107.565 172.371 108.236H172.376Z" fill="#FFA200"/>
<path d="M176.551 126.269L164.645 133.144C164.562 132.4 164.455 131.66 164.34 130.906L176.297 124.003C176.38 124.664 176.464 125.321 176.528 125.982C176.528 126.033 176.537 126.074 176.537 126.13C176.537 126.181 176.547 126.222 176.547 126.278L176.551 126.269Z" fill="#FFA200"/>
<path d="M154.573 77.6027L141.936 84.8945C141.904 84.8529 141.862 84.8112 141.83 84.7696C141.483 84.372 141.141 83.9743 140.785 83.5767C140.702 83.4842 140.618 83.3871 140.535 83.2946L153.204 75.9797C153.329 76.1138 153.454 76.2618 153.579 76.4098C153.912 76.8074 154.259 77.2051 154.573 77.6027Z" fill="#FFA200"/>
<path d="M160.002 84.6957L147.466 91.9366C147.069 91.3632 146.653 90.7945 146.223 90.2397L158.776 82.9895C159.206 83.5536 159.604 84.1177 160.002 84.6957Z" fill="#FFA200"/>
<path d="M164.792 92.154L152.344 99.3394C151.998 98.7337 151.632 98.1372 151.258 97.55L163.728 90.3507C164.061 90.8963 164.389 91.4373 164.713 91.9922C164.746 92.043 164.778 92.0985 164.796 92.1494L164.792 92.154Z" fill="#FFA200"/>
<path d="M168.945 99.9913L156.599 107.117C156.493 106.909 156.391 106.7 156.285 106.488C156.077 106.067 155.868 105.651 155.646 105.244L168.011 98.1094C168.011 98.1094 168.02 98.1186 168.02 98.1325C168.26 98.5949 168.491 99.0619 168.723 99.5243C168.797 99.6815 168.871 99.8387 168.945 99.9959V99.9913Z" fill="#FFA200"/>
<path d="M176.716 133.981C176.707 134.106 176.707 134.231 176.693 134.356C176.651 135.035 176.587 135.706 176.527 136.353C176.517 136.404 176.517 136.469 176.504 136.52L164.902 143.215C164.912 143.058 164.925 142.891 164.935 142.725C164.976 142.064 165.009 141.407 165.027 140.727L176.712 133.981H176.716Z" fill="#FFA200"/>
<path d="M174.206 145.656C174.039 146.072 173.859 146.484 173.674 146.882C173.309 147.644 172.92 148.38 172.504 149.069L161.98 155.135C162.369 154.307 162.725 153.438 163.035 152.532C163.099 152.365 163.15 152.199 163.21 152.019L174.206 145.656Z" fill="#FFA200"/>
<path d="M174.992 116.947L162.896 123.924C162.73 123.235 162.531 122.532 162.332 121.843L174.456 114.843C174.645 115.546 174.821 116.244 174.987 116.947H174.992Z" fill="#FFA200"/>
</g>
<path d="M154.583 164.179C170.74 152.812 167.876 120.911 148.187 92.9267C128.497 64.9427 99.4384 51.4726 83.2817 62.8404C67.125 74.2082 69.9887 106.109 89.6781 134.093C109.367 162.077 138.426 175.547 154.583 164.179Z" fill="#E59636" stroke="#350B00" stroke-width="0.462382" stroke-miterlimit="10"/>
<path d="M140.943 162.991C136.37 162.991 131.316 161.742 125.915 159.273C102.144 148.407 80.7728 118.251 78.2759 92.0568C77.3511 82.319 79.27 74.2828 83.6858 69.4278C86.9363 65.8536 91.3891 64.041 96.9238 64.041C101.497 64.041 106.551 65.2894 111.951 67.7586C135.727 78.6246 157.098 108.777 159.59 134.975C160.515 144.713 158.596 152.749 154.181 157.604C150.93 161.178 146.477 162.991 140.943 162.991Z" fill="white" stroke="#350B00" stroke-width="0.462382" stroke-miterlimit="10"/>
<path d="M130.468 157.008C125.243 154.617 120.138 151.297 115.325 147.298L111.029 149.776C115.769 153.683 120.79 156.934 125.923 159.278C131.323 161.738 136.372 162.991 140.945 162.991C145.181 162.991 148.792 161.937 151.71 159.824C149.828 160.429 147.756 160.725 145.505 160.725C140.922 160.725 135.868 159.481 130.472 157.012L130.468 157.008Z" fill="#350B00"/>
<path d="M82.8341 89.7911C81.9047 80.0533 83.8282 72.0171 88.244 67.1621C89.0069 66.3252 89.8346 65.5807 90.7224 64.9426C87.9712 65.8119 85.6177 67.3054 83.6803 69.4324C79.2645 74.2874 77.3503 82.319 78.2704 92.0614C78.4507 93.9525 78.742 95.8668 79.1119 97.7949L83.6063 95.2009C83.2641 93.3838 83.0006 91.5805 82.8295 89.7957L82.8341 89.7911Z" fill="#350B00"/>
<path d="M83.6115 95.1964L79.1172 97.7904C82.7746 116.762 95.3838 136.88 111.026 149.771L115.322 147.293C99.7117 134.319 87.1626 114.159 83.6115 95.1964Z" fill="#350B00"/>
<path d="M134.621 116.535C134.621 116.535 135.856 115.846 136.397 115.338C137.34 114.454 138.196 112.61 138.108 108.79C138.02 100.31 129.239 94.142 126.701 92.5329L126.729 82.2126L121.518 79.2071L117.435 81.5652L121.485 89.5089L117.749 87.3589L117.781 77.057L112.561 74.0469L108.478 76.405L112.524 84.3534L102.62 78.6522L98.5371 81.0104L102.606 84.506C102.606 84.506 104.15 85.3937 106.462 86.7254C108.77 88.0524 108.95 90.5031 108.95 90.5031C108.95 90.5031 108.885 115.578 108.844 116.859C108.797 118.14 107.785 117.608 107.785 117.608L103.397 115.097L99.3139 117.455L102.065 121.806L112.358 127.688L113.491 142.872L117.573 140.514L117.606 130.684L121.356 132.825L122.484 147.996L126.567 145.638L126.59 135.807C126.867 135.955 127.441 136.27 128.643 136.922C131.755 138.498 131.528 141.152 133.47 140.926C133.47 140.926 138.45 138.267 139.227 137.449C140.623 135.988 141.303 133.495 141.307 130.092C141.317 121.811 134.617 116.531 134.617 116.531L134.621 116.535ZM117.731 93.8785L122.812 96.8007C122.812 96.8007 129.216 100.828 129.202 106.206C129.188 111.588 122.359 108.018 122.359 108.018L117.694 105.341L117.731 93.8785ZM123.261 126.897L117.629 123.674L117.67 111.037L123.806 114.556C123.806 114.556 131.528 119.365 131.514 125.297C131.5 131.234 123.256 126.902 123.256 126.902L123.261 126.897Z" fill="#350B00" stroke="#350B00" stroke-width="0.462382" stroke-linecap="round" stroke-linejoin="round"/>
<path d="M130.039 118.449C130.039 118.449 134.21 119.36 134.025 111.148C133.937 102.668 125.157 96.4999 122.618 94.8908L122.646 84.5705L117.435 81.565L117.403 91.8669L113.666 89.7168L113.699 79.4149L108.479 76.4048L108.442 86.7113L98.5373 81.0101L98.5234 86.8639C98.5234 86.8639 100.068 87.7517 102.38 89.0833C104.687 90.4104 104.867 92.861 104.867 92.861C104.867 92.861 104.803 117.936 104.761 119.217C104.715 120.498 103.702 119.966 103.702 119.966L99.3141 117.455L99.3927 124.969L108.28 130.046L108.243 139.876L113.491 142.872L113.523 133.042L117.273 135.183L117.245 145.008L122.489 148L122.512 138.17C122.789 138.318 123.363 138.632 124.565 139.284C133.197 143.658 137.22 140.75 137.234 132.455C137.243 124.174 130.044 118.449 130.044 118.449H130.039ZM113.643 96.2364L118.725 99.1586C118.725 99.1586 125.129 103.186 125.115 108.563C125.101 113.946 118.272 110.376 118.272 110.376L113.606 107.699L113.643 96.2364ZM119.173 129.255L113.542 126.032L113.583 113.395L119.719 116.914C119.719 116.914 127.441 121.723 127.427 127.655C127.413 133.592 119.169 129.26 119.169 129.26L119.173 129.255Z" fill="#E59636" stroke="#350B00" stroke-width="0.462382" stroke-linecap="round" stroke-linejoin="round"/>
</g>
<defs>
<clipPath id="clip0_4502_6549">
<rect width="104.212" height="118" fill="white" transform="translate(72.584 50.4517)"/>
</clipPath>
</defs>
</svg>
