<svg width="90" height="24" viewBox="0 0 90 24" fill="none" xmlns="http://www.w3.org/2000/svg">
<path d="M9.71724 11.8144L9.51377 11.6105C9.36022 11.4571 9.09537 11.5645 9.09537 11.783V14.6963C9.09537 14.83 9.20583 14.9403 9.34139 14.9403H12.2592C12.4765 14.9403 12.5864 14.6772 12.4315 14.5237C12.3364 14.4287 12.3364 14.2744 12.4315 14.1789L15.5352 11.0711C15.6305 10.976 15.6305 10.8217 15.5352 10.7261L15.2525 10.4448C15.0988 10.2916 15.2083 10.0284 15.4253 10.0284H18.3415C18.4763 10.0284 18.5866 10.1377 18.5866 10.2724V13.1858C18.5866 13.4029 18.3218 13.5119 18.1682 13.3584L17.9713 13.1622C17.8747 13.0642 17.7211 13.0642 17.6264 13.1622L12.3942 18.3851C12.2991 18.4798 12.1446 18.4798 12.0482 18.3851L5.64787 11.992C5.625 11.9694 5.60685 11.9424 5.59446 11.9127C5.58208 11.883 5.5757 11.8512 5.5757 11.819C5.5757 11.7868 5.58208 11.755 5.59446 11.7253C5.60685 11.6956 5.625 11.6686 5.64787 11.646L14.5098 2.7963C14.6046 2.70103 14.6046 2.5456 14.5098 2.45071L12.426 0.36993C12.38 0.324364 12.3178 0.298798 12.253 0.298798C12.1882 0.298798 12.126 0.324364 12.08 0.36993L0.608649 11.827C0.513588 11.9222 0.513588 12.0777 0.608649 12.1725L12.08 23.6283C12.1751 23.7231 12.3312 23.7231 12.426 23.6283L23.8969 12.1725C23.9917 12.0773 23.9917 11.9227 23.8969 11.8277L17.1481 5.08805C17.0537 4.9932 16.8985 4.9932 16.8029 5.08805L10.0643 11.8145C10.0416 11.8374 10.0147 11.8555 9.98492 11.8679C9.9552 11.8802 9.92331 11.8866 9.89111 11.8866C9.85891 11.8866 9.82702 11.8802 9.79729 11.8679C9.76757 11.8555 9.74059 11.8374 9.71791 11.8145L9.71783 11.8144H9.71724Z" fill="white"/>
<path d="M71.5308 15.8424C71.1678 15.8424 70.8551 15.9767 70.5942 16.2467C70.3354 16.5174 70.2046 16.8377 70.2046 17.2081C70.2046 17.7736 70.4784 18.2118 71.0288 18.5271C71.6283 18.6954 72.1119 18.5851 72.4757 18.1984C72.6019 18.0714 72.7017 17.9188 72.769 17.7502C72.8362 17.5816 72.8695 17.4004 72.8667 17.218C72.8667 16.8362 72.7372 16.5111 72.4784 16.2495C72.3565 16.1193 72.2102 16.0164 72.0486 15.9471C71.8869 15.8778 71.7132 15.8436 71.5383 15.8466L71.5308 15.8424ZM50.1892 5.36633H49.1995C48.7724 5.36633 48.4256 5.72472 48.4256 6.16865V6.74122C47.3766 5.60526 46.1777 5.03763 44.8494 5.03763C43.3099 5.03763 42.0293 5.63 41.0007 6.81474C39.9789 8.00018 39.468 9.48111 39.468 11.2582C39.468 13.0678 39.9789 14.5785 41.0075 15.7865C42.0429 16.9727 43.3508 17.565 44.9312 17.565C46.1832 17.565 47.3528 17.0377 48.4393 15.9816V17.1155C48.4393 17.6647 48.8711 18.1122 49.3997 18.1122H51.0918V6.28599C51.0918 5.77844 50.6947 5.36562 50.2049 5.36562L50.1892 5.36633ZM47.6872 14.0695C47.0851 14.7679 46.2956 15.1157 45.3167 15.1157C44.4019 15.1157 43.643 14.7552 43.0415 14.0342C42.4544 13.3202 42.1614 12.3942 42.1614 11.2575C42.1614 10.1901 42.4612 9.29944 43.0647 8.57842C43.6778 7.86446 44.4339 7.50395 45.3467 7.50395C46.3072 7.50395 47.0905 7.85739 47.6968 8.56428C48.3017 9.2853 48.6028 10.2043 48.6028 11.3141C48.6028 12.4239 48.303 13.3428 47.7002 14.0638L47.6872 14.0695ZM39.4633 7.36823V6.1948C39.4634 6.08607 39.443 5.97837 39.403 5.87786C39.363 5.77736 39.3043 5.68602 39.2303 5.60907C39.1563 5.53212 39.0684 5.47107 38.9716 5.42942C38.8748 5.38777 38.771 5.36633 38.6663 5.36633H37.6213C37.41 5.36633 37.2072 5.45347 37.0578 5.60857C36.9083 5.76367 36.8243 5.97404 36.8243 6.19339V6.70588C35.8707 5.59324 34.6731 5.03763 33.2345 5.03763C31.5928 5.03763 30.27 5.67877 29.27 6.96036C28.3381 8.16913 27.8735 9.63945 27.8735 11.3685C27.8735 13.1456 28.3742 14.6272 29.3756 15.812C30.3687 16.9819 31.6439 17.565 33.1997 17.565C34.5621 17.565 35.7746 17.0094 36.8237 15.8982V17.5537C36.8237 20.0137 35.8564 21.2437 33.9218 21.2437C32.8728 21.2437 32.0758 20.8733 31.524 20.1339C31.3705 19.9229 31.253 19.6862 31.1766 19.434C31.1127 19.2434 30.993 19.0782 30.8343 18.9616C30.6755 18.845 30.4856 18.7828 30.2911 18.7837H29.304C28.7979 18.7837 28.4233 19.2785 28.5513 19.7854C28.8238 20.8669 29.3517 21.7449 30.1385 22.4221C31.1228 23.2738 32.3775 23.6994 33.902 23.6994C35.7086 23.6994 37.1281 23.0823 38.1595 21.8495C38.7078 21.2076 39.075 20.4414 39.263 19.5479C39.3257 19.2227 39.3747 18.848 39.4094 18.4211C39.4449 17.9955 39.4619 17.5021 39.4619 16.9423V15.2245C38.7221 14.1218 38.3516 12.7999 38.3516 11.266C38.3516 9.76033 38.7221 8.45966 39.4619 7.37813L39.4633 7.36823ZM36.1207 13.9734C35.5349 14.7368 34.7365 15.1185 33.727 15.1185C32.7188 15.1185 31.9286 14.7439 31.3564 13.9875C30.8333 13.3018 30.571 12.4182 30.571 11.3367C30.571 10.241 30.8333 9.35033 31.3571 8.65759C31.9361 7.88708 32.7263 7.50536 33.7277 7.50536C34.6657 7.50536 35.4354 7.85881 36.0382 8.56569C36.6322 9.25844 36.9306 10.1774 36.9306 11.3296C36.9306 12.4111 36.6595 13.2948 36.12 13.9875L36.1207 13.9734ZM61.405 5.37693V5.36562H55.9317V1.88916C55.9317 1.4417 55.5829 1.07907 55.1517 1.07907H54.0822C53.6463 1.07907 53.292 1.44665 53.292 1.89906V5.36562H52.166V7.92172H53.292V18.1108H54.7988C55.4242 18.1108 55.9317 17.5848 55.9317 16.9345V7.92172H58.6394C58.851 7.50012 59.1128 7.10779 59.4187 6.75395C59.9772 6.11775 60.638 5.65827 61.4009 5.37552L61.405 5.37693ZM74.8755 1.07907C74.4055 1.07907 74.0036 1.25367 73.6677 1.60217C73.3312 1.95137 73.1623 2.3656 73.1623 2.84416C73.1623 3.34747 73.3312 3.77301 73.6677 4.12221C74.0029 4.47141 74.4102 4.64531 74.8871 4.64531C75.3639 4.64531 75.7672 4.47071 76.0955 4.12221C76.4361 3.77301 76.5996 3.35171 76.5996 2.85689C76.5996 2.36207 76.4354 1.94147 76.0948 1.60217C75.9368 1.43315 75.7471 1.29954 75.5373 1.20957C75.3276 1.1196 75.1024 1.07519 74.8755 1.07907V1.07907ZM75.4089 6.708H74.4531C73.96 6.708 73.5608 7.12153 73.5608 7.6326V16.3344C73.7617 16.5818 73.8605 16.8716 73.8605 17.2038C73.8605 17.5361 73.7611 17.833 73.5608 18.0804V18.5681H75.2583C75.7787 18.5681 76.2004 18.1369 76.2004 17.5926V7.53293C76.2004 7.07841 75.8462 6.71083 75.4089 6.71083V6.708ZM87.8133 8.38826C86.6246 7.17949 85.1771 6.5751 83.4741 6.5751C81.7766 6.5751 80.3372 7.17596 79.1554 8.37766C77.9756 9.57795 77.3843 11.0355 77.3843 12.7462C77.3843 14.5657 77.9633 16.0756 79.1213 17.2773C80.2793 18.4932 81.7139 19.1025 83.4264 19.1025C85.1539 19.1025 86.6123 18.5059 87.8017 17.3141C88.9829 16.1124 89.5741 14.6223 89.5741 12.8466C89.5741 11.0836 88.9883 9.59845 87.814 8.38897L87.8133 8.38826ZM85.9489 15.6218C85.3303 16.311 84.5068 16.6539 83.4741 16.6539C82.4482 16.6539 81.6233 16.3075 80.998 15.6077C80.3876 14.9192 80.0825 13.9818 80.0825 12.7971C80.0825 11.693 80.3958 10.7924 81.0225 10.0947C81.6492 9.39699 82.4639 9.04849 83.4748 9.04849C84.4966 9.04849 85.3235 9.39699 85.9489 10.0947C86.566 10.7846 86.8753 11.7064 86.8753 12.8572C86.8753 14.0094 86.566 14.9298 85.9489 15.6211V15.6218Z" fill="white"/>
<path d="M62.3867 15.144C61.8465 14.5686 61.542 13.7939 61.4712 12.8184H69.0378C69.2037 12.8184 69.363 12.7509 69.4815 12.6303C69.5999 12.5098 69.6681 12.3458 69.6713 12.1737C69.6713 10.2177 69.1877 8.68875 68.217 7.58388C67.2388 6.47195 65.9098 5.91563 64.2286 5.91563C62.5631 5.91563 61.2259 6.48821 60.2164 7.63337C59.2151 8.79266 58.7151 10.311 58.7151 12.1857C58.7151 14.0759 59.2314 15.595 60.2634 16.738C60.9787 17.5319 61.8642 18.0472 62.9132 18.2861C63.3567 18.3989 63.8123 18.4521 64.2688 18.4445C66.1489 18.4848 67.7837 18.5243 69.657 18.5646V18.2791C69.4254 18.0196 69.3096 17.7065 69.3096 17.3417C69.3096 16.9883 69.4274 16.6815 69.6638 16.4192V16.0729C68.1809 16.0375 64.589 16.0022 64.448 16.0022C63.6033 16.0022 62.9112 15.7194 62.3724 15.1539L62.3867 15.144ZM62.0223 9.66566C62.1926 9.39846 62.3901 9.16943 62.6149 8.97857C63.0912 8.58728 63.6832 8.37877 64.2906 8.38832C65.7007 8.38832 66.5862 9.11853 66.9541 10.5797H61.6476C61.7362 10.2382 61.8588 9.93428 62.0223 9.66637V9.66566Z" fill="white"/>
</svg>
