<svg width="170" height="40" viewBox="0 0 170 40" fill="none" xmlns="http://www.w3.org/2000/svg">
<g clip-path="url(#clip0_1617_262)">
<path d="M50 36H52.9858V21.6H68.2551V36H71.2409V4H68.2551V18.2171H52.9858V4H50V36Z" fill="white"/>
<path d="M81.0778 36H100.391V32.7086H84.0636V21.5086H98.5013V18.2171H84.0636V7.29143H100.202V4H81.0778V36Z" fill="white"/>
<path d="M108.76 36H126.637V32.6629H111.746V4H108.76V36Z" fill="white"/>
<path d="M134.787 36H137.773V4H134.787V36Z" fill="white"/>
<path d="M165.95 4L157.862 17.1657L149.774 4H146.258L156.01 19.68L145.88 36H149.32L157.786 22.1943L166.253 36H169.805L159.676 19.68L169.427 4H165.95Z" fill="white"/>
</g>
<path fill-rule="evenodd" clip-rule="evenodd" d="M31.8 8.4799C31.8 9.18683 32.2477 9.7599 32.8 9.7599C33.3522 9.7599 33.8 9.18683 33.8 8.4799V2.3359C33.8 1.62899 33.3522 1.05591 32.8 1.05591C32.2477 1.05591 31.8 1.62899 31.8 2.3359V8.4799ZM23 15.1359C23 15.8428 23.4478 16.4159 24 16.4159C24.5523 16.4159 25 15.8428 25 15.1359V10.5279C25 9.82099 24.5523 9.2479 24 9.2479C23.4478 9.2479 23 9.82099 23 10.5279V15.1359ZM11.8 34.0799C11.8 34.7868 12.2477 35.3599 12.8 35.3599C13.3522 35.3599 13.8 34.7868 13.8 34.0799V27.9359C13.8 27.229 13.3522 26.6559 12.8 26.6559C12.2477 26.6559 11.8 27.229 11.8 27.9359V34.0799ZM3.20001 37.9199C2.64772 37.9199 2.20001 37.3468 2.20001 36.6399V33.0559C2.20001 32.349 2.64772 31.7759 3.20001 31.7759C3.7523 31.7759 4.20001 32.349 4.20001 33.0559V36.6399C4.20001 37.3468 3.7523 37.9199 3.20001 37.9199ZM8.40001 38.9439C7.84772 38.9439 7.40001 38.3708 7.40001 37.6639V33.0559C7.40001 32.349 7.84772 31.7759 8.40001 31.7759C8.9523 31.7759 9.40001 32.349 9.40001 33.0559V37.6639C9.40001 38.3708 8.9523 38.9439 8.40001 38.9439ZM16.2 29.4719C16.2 30.1788 16.6478 30.7519 17.2 30.7519C17.7523 30.7519 18.2 30.1788 18.2 29.4719V25.8879C18.2 25.181 17.7523 24.6079 17.2 24.6079C16.6478 24.6079 16.2 25.181 16.2 25.8879V29.4719ZM28.4 12.3199C27.8477 12.3199 27.4 11.7468 27.4 11.0399V6.4319C27.4 5.72499 27.8477 5.1519 28.4 5.1519C28.9522 5.1519 29.4 5.72499 29.4 6.4319V11.0399C29.4 11.7468 28.9522 12.3199 28.4 12.3199ZM36.2 5.4079C36.2 6.11483 36.6478 6.6879 37.2 6.6879C37.7523 6.6879 38.2 6.11483 38.2 5.4079V2.3359C38.2 1.62899 37.7523 1.05591 37.2 1.05591C36.6478 1.05591 36.2 1.62899 36.2 2.3359V5.4079Z" fill="url(#paint0_linear_1617_262)"/>
<path fill-rule="evenodd" clip-rule="evenodd" d="M0.00435994 5.0912C0.0766355 6.50202 1.02874 7.57072 2.13094 7.47821C5.58579 7.18822 14.0201 9.43974 18.3891 21.3703L18.4255 21.4694L18.4683 21.5642C20.4234 25.8962 22.6264 29.8132 25.6891 32.7378C28.787 35.6959 32.6202 37.5041 37.6647 37.9418C38.7669 38.0375 39.7207 36.9716 39.7955 35.5609C39.8702 34.1503 39.0374 32.9292 37.9354 32.8337C33.5399 32.4522 30.4731 30.9182 28.081 28.634C25.672 26.3337 23.805 23.1393 21.9735 19.0953C16.7314 4.89926 6.53656 1.97742 1.86921 2.36918C0.767005 2.4617 -0.0679158 3.68038 0.00435994 5.0912Z" fill="#5BB1E9"/>
<defs>
<linearGradient id="paint0_linear_1617_262" x1="-1.59896" y1="-5.8561" x2="38.4902" y2="7.06856" gradientUnits="userSpaceOnUse">
<stop offset="0.015625" stop-color="#6EE5B3"/>
<stop offset="0.430034" stop-color="#68D8E2"/>
<stop offset="1" stop-color="#4475F6"/>
</linearGradient>
<clipPath id="clip0_1617_262">
<rect width="120" height="32" fill="white" transform="translate(50 4)"/>
</clipPath>
</defs>
</svg>
