<svg width="125" height="20" viewBox="0 0 125 20" fill="none" xmlns="http://www.w3.org/2000/svg">
<g clip-path="url(#clip0_687_2362)">
<path fill-rule="evenodd" clip-rule="evenodd" d="M22.8966 5.54039V10.8155H17.671V6.21898C17.671 5.8442 17.3658 5.54039 16.9893 5.54039H15.2256V18.1111C15.2256 18.486 15.5307 18.7898 15.9073 18.7898H17.671V12.943H22.8966V18.1111C22.8966 18.486 23.2017 18.7898 23.5783 18.7898H25.342V6.21898C25.342 5.8442 25.0368 5.54039 24.6602 5.54039H22.8966Z" fill="white"/>
<path fill-rule="evenodd" clip-rule="evenodd" d="M33.1544 8.66407V14.9426C33.1544 15.5131 32.8622 16.054 32.3661 16.3393C30.9814 17.136 29.5484 16.1408 29.5484 14.8288V9.34267C29.5484 8.96787 29.2433 8.66407 28.8667 8.66407H27.0959V15.0525C27.0959 17.1081 28.7851 18.7898 30.8496 18.7898H31.8533C33.9179 18.7898 35.6069 17.1081 35.6069 15.0525V9.34267C35.6069 8.96787 35.3018 8.66407 34.9254 8.66407H33.1544Z" fill="white"/>
<path fill-rule="evenodd" clip-rule="evenodd" d="M60.3547 18.7898H62.1184V9.89871C62.1184 9.52375 61.8131 9.21994 61.4368 9.21994H59.6731V18.1111C59.6731 18.486 59.9783 18.7898 60.3547 18.7898Z" fill="#2483FF"/>
<path fill-rule="evenodd" clip-rule="evenodd" d="M60.8961 8.2565C61.6498 8.2565 62.2608 7.6481 62.2608 6.89764C62.2608 6.14716 61.6498 5.53891 60.8961 5.53891C60.1423 5.53891 59.5314 6.14716 59.5314 6.89764C59.5314 7.6481 60.1423 8.2565 60.8961 8.2565Z" fill="#2483FF"/>
<path fill-rule="evenodd" clip-rule="evenodd" d="M44.2129 14.5858C44.2129 15.7937 43.2205 16.5978 42.0072 16.5978C40.794 16.5978 39.8014 15.7937 39.8014 14.5858V12.862C39.8014 11.654 40.794 10.8499 42.0072 10.8499C43.2205 10.8499 44.2129 11.654 44.2129 12.862V14.5858ZM42.0072 8.65787C39.4421 8.65787 37.3434 10.4848 37.3434 13.0386V14.42C37.3434 16.9738 39.4421 18.7899 42.0072 18.7899C44.5722 18.7899 46.671 16.9738 46.671 14.42V13.0386C46.671 10.4848 44.5722 8.65787 42.0072 8.65787Z" fill="white"/>
<path fill-rule="evenodd" clip-rule="evenodd" d="M55.3121 14.5857C55.3121 15.7937 54.3195 16.5978 53.1062 16.5978C51.8931 16.5978 50.9004 15.7937 50.9004 14.5857V12.862C50.9004 11.654 51.8931 10.8499 53.1062 10.8499C54.3195 10.8499 55.3121 11.654 55.3121 12.862V14.5857ZM53.1062 8.65789C52.3045 8.65789 51.5486 8.83637 50.8879 9.1597V6.20771C50.8879 5.83278 50.5826 5.52897 50.2062 5.52897H48.4424V14.42C48.4424 16.9739 50.5412 18.7899 53.1062 18.7899C55.6713 18.7899 57.77 16.9739 57.77 14.42V13.0386C57.77 10.4848 55.6713 8.65789 53.1062 8.65789Z" fill="#2483FF"/>
<path fill-rule="evenodd" clip-rule="evenodd" d="M104.073 14.6278C104.073 15.8232 103.091 16.6191 101.89 16.6191C100.689 16.6191 99.7067 15.8232 99.7067 14.6278V12.9217C99.7067 11.7263 100.689 10.9305 101.89 10.9305C103.091 10.9305 104.073 11.7263 104.073 12.9217V14.6278ZM101.89 8.76098C101.097 8.76098 100.348 8.93745 99.6948 9.25733V6.20994C99.6948 5.83904 99.3928 5.53833 99.0195 5.53833H97.2744V14.4637C97.2744 16.9913 99.3512 18.7885 101.89 18.7885C104.429 18.7885 106.506 16.9913 106.506 14.4637V13.0964C106.506 10.5689 104.429 8.76098 101.89 8.76098Z" fill="white"/>
<path fill-rule="evenodd" clip-rule="evenodd" d="M123.669 18.743V17.2142C123.669 16.8523 123.375 16.5593 123.012 16.5606C122.643 16.5618 122.182 16.563 121.793 16.563C120.799 16.563 120.845 16.0685 120.845 14.7863V6.20301C120.845 5.84187 120.551 5.54921 120.189 5.54921H118.398V15.0794C118.398 17.3874 118.996 18.743 121.498 18.743C122.465 18.743 123.166 18.7157 123.669 18.7432V18.743Z" fill="white"/>
<path fill-rule="evenodd" clip-rule="evenodd" d="M76.8009 10.8711H72.069V12.1549C72.069 12.5408 72.3831 12.8536 72.7706 12.8536H75.0183V13.9886C75.0183 14.826 74.8083 15.444 74.3742 15.8795C73.8415 16.4273 73.1041 16.7167 72.2423 16.7167C71.4657 16.7167 70.7264 16.449 70.2652 16.0008C69.624 15.375 69.4858 14.6955 69.4858 12.1732C69.4858 9.66522 69.624 8.98877 70.2649 8.36364C70.738 7.90397 71.6608 7.55616 72.4258 7.55616C75.0126 7.55616 75.8813 8.47024 76.5294 9.30252H76.6142V7.44136C76.6142 7.16621 76.4823 6.90903 76.2664 6.73721C75.1828 5.87365 74.1026 5.55806 72.2423 5.55806C70.7399 5.55806 69.4552 6.02811 68.4244 6.95504C67.0007 8.2349 67.0009 9.67899 67.0012 12.0714V12.2749C67.0009 14.6673 67.0007 16.1113 68.4244 17.3911C69.441 18.3054 70.7613 18.7884 72.2423 18.7884C73.7979 18.7884 75.1672 18.2671 76.2021 17.281L76.2025 17.2807C77.126 16.3976 77.5027 14.7064 77.5027 12.9479V11.5697C77.5027 11.184 77.1885 10.8711 76.8009 10.8711Z" fill="white"/>
<path fill-rule="evenodd" clip-rule="evenodd" d="M84.5116 18.743V17.2142C84.5116 16.8523 84.2173 16.5593 83.8539 16.5606C83.4861 16.5618 83.0248 16.563 82.6349 16.563C81.6413 16.563 81.6877 16.0685 81.6877 14.7863V6.20301C81.6877 5.84187 81.3939 5.54921 81.0314 5.54921H79.241V15.0794C79.241 17.3874 79.8385 18.743 82.3406 18.743C83.3074 18.743 84.0087 18.7157 84.5115 18.7432L84.5116 18.743Z" fill="white"/>
<path fill-rule="evenodd" clip-rule="evenodd" d="M93.0754 14.6277C93.0754 15.8231 92.093 16.619 90.8926 16.619C89.6921 16.619 88.7097 15.8231 88.7097 14.6277V12.9217C88.7097 11.7262 89.6921 10.9304 90.8926 10.9304C92.093 10.9304 93.0754 11.7262 93.0754 12.9217V14.6277ZM90.8926 8.76091C88.3543 8.76091 86.2766 10.5689 86.2766 13.0964V14.4637C86.2766 16.9913 88.3543 18.7884 90.8926 18.7884C93.4318 18.7884 95.5086 16.9913 95.5086 14.4637V13.0964C95.5086 10.5689 93.4318 8.76091 90.8926 8.76091Z" fill="white"/>
<path fill-rule="evenodd" clip-rule="evenodd" d="M114.228 14.2494V16.7654C114.039 16.8018 113.831 16.8308 113.605 16.8514C113.051 16.9033 112.555 16.9127 111.979 16.8605C111.753 16.8402 111.544 16.7829 111.359 16.6915C111.18 16.6028 111.033 16.4766 110.912 16.3056C110.797 16.1436 110.738 15.9042 110.738 15.5942C110.738 15.1112 110.91 14.7654 111.267 14.5366C111.646 14.2929 112.22 14.1692 112.974 14.1692C113.176 14.1692 113.424 14.1807 113.717 14.2038C113.908 14.219 114.079 14.2342 114.228 14.2494ZM115.537 9.61302C114.811 9.03623 113.751 8.74388 112.384 8.74388C111.877 8.74388 111.342 8.78075 110.797 8.85325C110.36 8.91135 109.741 8.99455 109.311 9.09308C109.137 9.13305 109.105 9.26925 109.105 9.43235V10.733C109.105 10.9648 109.108 11.1756 109.355 11.1158C109.814 11.0042 110.706 10.8075 110.949 10.7677C111.331 10.7049 111.749 10.6733 112.188 10.6733C112.873 10.6733 113.394 10.7953 113.739 11.0349C114.063 11.2608 114.228 11.6908 114.228 12.3127V12.3879C114.105 12.3768 113.972 12.3661 113.826 12.3563C113.553 12.338 113.204 12.3287 112.777 12.3287C112.195 12.3287 111.631 12.3945 111.101 12.5241C110.563 12.6561 110.08 12.86 109.664 13.1307C109.241 13.4068 108.902 13.757 108.656 14.1729C108.407 14.5916 108.281 15.0821 108.281 15.6299C108.281 16.1864 108.389 16.6709 108.601 17.0695C108.815 17.4717 109.123 17.8072 109.516 18.066C109.902 18.3216 110.376 18.5085 110.924 18.6222C111.457 18.7325 112.061 18.7884 112.718 18.7884C113.197 18.7884 116.645 18.7401 116.645 17.1064C116.645 15.2133 116.645 12.3837 116.645 12.3837C116.645 11.1305 116.272 10.1983 115.537 9.61302Z" fill="white"/>
<path fill-rule="evenodd" clip-rule="evenodd" d="M7.90387 6.46007C7.90387 3.82165 6.61297 1.55273 5.6311 0.813882C5.62705 0.811558 5.55594 0.771741 5.56201 0.877247L5.56061 0.880501C5.47907 5.97468 2.86521 7.35539 1.4282 9.2153C-1.88807 13.5074 1.19603 18.2132 4.33661 19.0829C6.09387 19.5696 3.93079 18.2219 3.65227 15.3752C3.31538 11.9346 7.90387 9.30829 7.90387 6.46007Z" fill="white"/>
<path fill-rule="evenodd" clip-rule="evenodd" d="M9.41054 8.19437C9.39044 8.18074 9.36176 8.17145 9.34208 8.20398C9.28804 8.84523 8.63013 10.217 7.79626 11.4765C4.96797 15.749 6.57973 17.8086 7.48597 18.9147C8.01224 19.5569 7.48597 18.9147 8.80133 18.2585C8.90432 18.2071 11.3677 16.8316 11.6345 13.6978C11.8927 10.663 10.062 8.7501 9.41054 8.19437Z" fill="#2483FF"/>
</g>
<defs>
<clipPath id="clip0_687_2362">
<rect width="124.162" height="18.376" fill="white" transform="translate(0 0.804611)"/>
</clipPath>
</defs>
</svg>
