<svg width="113" height="24" viewBox="0 0 113 24" fill="none" xmlns="http://www.w3.org/2000/svg">
<g clip-path="url(#clip0_687_2385)">
<path d="M31.9187 17.8678V8.28254C31.9187 7.29795 32.7179 6.49982 33.7035 6.49982H33.8343V17.8678H31.9187Z" fill="white"/>
<path d="M36.6111 17.8678V6.49982H38.6266L43.2408 14.7498V6.49982H43.2883C44.274 6.49982 45.0731 7.29795 45.0731 8.28254V17.8678H43.0575L38.4434 9.61781V17.8678H36.6111Z" fill="white"/>
<path d="M51.11 18.1439C49.9216 18.1439 48.9944 17.7813 48.328 17.0559C47.6617 16.3304 47.3286 15.3669 47.3286 14.1651H49.2443C49.2443 14.8688 49.3998 15.4319 49.7106 15.8541C50.0328 16.2654 50.4992 16.4712 51.11 16.4712C51.7207 16.4712 52.1871 16.2654 52.5091 15.8541C52.8424 15.4319 53.0089 14.8742 53.0089 14.1814V8.28254C53.0089 7.29795 53.8081 6.49982 54.7937 6.49982H54.9245V14.1814C54.9245 15.383 54.5858 16.3468 53.9084 17.0721C53.2422 17.7866 52.3092 18.1439 51.11 18.1439Z" fill="white"/>
<path d="M57.5264 6.49982H64.2561C64.2561 7.42359 63.5064 8.17255 62.5816 8.17255H59.442V11.388H64.2561V13.0607H59.442V16.1951H64.2561V17.8678H57.5264V11.388V8.17255V6.49982Z" fill="white"/>
<path d="M106.15 6.49982H112.88C112.88 7.42359 112.13 8.17255 111.206 8.17255H108.066V11.388H112.88V13.0607H108.066V16.1951H112.88V17.8678H106.15V11.388V8.17255V6.49982Z" fill="white"/>
<path d="M72.088 18.1436C70.4262 18.1436 69.1107 17.5915 68.1412 16.487C67.1719 15.3827 66.6873 13.9482 66.6873 12.1834C66.6873 10.4187 67.1719 8.98423 68.1412 7.87973C69.1107 6.77542 70.4262 6.22334 72.088 6.22334C73.4826 6.22334 74.6301 6.61311 75.5303 7.39265C76.4304 8.16124 76.9595 9.16286 77.1178 10.397H76.6896C75.8486 10.397 75.178 9.76238 74.6795 9.08606C74.5358 8.89109 74.3693 8.71627 74.18 8.56196C73.646 8.11797 72.9534 7.89607 72.1028 7.89607C70.9653 7.89607 70.0751 8.28584 69.4322 9.06538C68.7991 9.83397 68.4825 10.8735 68.4825 12.1834C68.4825 13.4934 68.7991 14.5383 69.4322 15.3179C70.0751 16.0865 70.9653 16.4708 72.1028 16.4708C72.9534 16.4708 73.646 16.2489 74.18 15.8049C74.3693 15.6506 74.5358 15.4758 74.6795 15.2808C75.178 14.6045 75.8486 13.9699 76.6896 13.9699H77.1178C76.9595 15.204 76.4304 16.211 75.5303 16.9906C74.6301 17.7592 73.4826 18.1436 72.088 18.1436Z" fill="white"/>
<path d="M82.0638 17.8678V8.2537H78.6824C78.6824 7.28509 79.4685 6.49982 80.4381 6.49982H87.3777V8.2537H83.9794V17.8678H82.0638Z" fill="white"/>
<path d="M89.8088 17.8678V8.28254C89.8088 7.29795 90.6078 6.49982 91.5937 6.49982H91.7245V17.8678H89.8088Z" fill="white"/>
<path d="M98.0197 17.8678L94.155 6.49982H94.9342C95.7104 6.49982 96.3977 7.00098 96.6341 7.73951L98.9358 14.9284L101.237 7.73951C101.474 7.00098 102.161 6.49982 102.937 6.49982H103.717L99.852 17.8678H98.0197Z" fill="white"/>
<path d="M3.45818 4.39718C3.60258 4.21576 3.75561 4.04129 3.90866 3.86683C3.91553 3.85814 3.93105 3.8564 3.93794 3.84771C3.95168 3.83051 3.97409 3.82008 3.98785 3.80288L4.00159 3.7855C4.10828 3.68697 4.22182 3.57975 4.35269 3.48644C4.81577 3.13525 5.29637 2.86851 5.80313 2.69282C7.42849 2.12285 9.23786 2.47422 10.6567 3.81226C12.6379 5.66727 12.4605 8.65563 10.879 10.6418C8.88037 13.6029 5.44606 17.7342 10.2012 21.4348C11.0563 22.1002 11.6905 22.6488 14.3837 23.4262C12.6222 23.7505 10.9891 23.6495 9.17123 23.1857C7.88533 22.4607 5.86366 20.9084 5.17585 18.8117C4.13627 15.6322 7.00605 10.8792 8.39294 9.04853C10.2973 6.51511 7.21602 3.77247 4.94761 6.83432C3.76184 8.43007 1.68741 12.9454 2.4083 16.2946C2.8298 18.194 3.39164 19.5784 5.61927 21.4802C5.20617 21.2367 4.80504 20.9604 4.41589 20.6514C-0.75986 15.8355 -0.15937 8.38889 3.45818 4.39718Z" fill="url(#paint0_linear_687_2385)"/>
<path d="M21.0773 19.5996C20.9329 19.781 20.7798 19.9555 20.6267 20.13C20.6199 20.1386 20.6043 20.1404 20.5975 20.1489C20.5838 20.1663 20.5613 20.1767 20.5476 20.1939L20.5338 20.2113C20.4272 20.3098 20.3136 20.4169 20.1828 20.5103C19.7195 20.8615 19.2391 21.1283 18.7323 21.3038C17.1068 21.8739 15.2977 21.5226 13.8787 20.1845C11.8976 18.3295 12.0751 15.3412 13.6565 13.3548C15.655 10.3939 19.0893 6.26263 14.3341 2.56198C13.4791 1.89661 12.8448 1.34784 10.1516 0.570474C11.9131 0.24632 13.5462 0.347141 15.3641 0.810956C16.65 1.53604 18.6718 3.08834 19.3596 5.18507C20.3992 8.36457 17.5294 13.1176 16.1424 14.9481C14.2383 17.4817 17.3194 20.2241 19.5878 17.1625C20.7735 15.5667 22.848 11.0514 22.1271 7.70215C21.7056 5.80283 21.1437 4.41839 18.9162 2.51663C19.3292 2.76008 19.7303 3.03621 20.1195 3.34535C25.2953 8.16126 24.6948 15.6079 21.0773 19.5996Z" fill="url(#paint1_linear_687_2385)"/>
</g>
<defs>
<linearGradient id="paint0_linear_687_2385" x1="0.638179" y1="11.9983" x2="23.897" y2="11.9983" gradientUnits="userSpaceOnUse">
<stop stop-color="#0082FA"/>
<stop offset="1" stop-color="#00F2FE"/>
</linearGradient>
<linearGradient id="paint1_linear_687_2385" x1="0.638298" y1="11.9983" x2="23.8972" y2="11.9983" gradientUnits="userSpaceOnUse">
<stop stop-color="#0082FA"/>
<stop offset="1" stop-color="#00F2FE"/>
</linearGradient>
<clipPath id="clip0_687_2385">
<rect width="112.323" height="23.4006" fill="white" transform="translate(0.57373 0.298752)"/>
</clipPath>
</defs>
</svg>
