<svg width="108" height="28" viewBox="0 0 108 28" fill="none" xmlns="http://www.w3.org/2000/svg">
<g clip-path="url(#clip0_687_2437)">
<path fill-rule="evenodd" clip-rule="evenodd" d="M13.1894 4.76895C13.6914 4.90748 14.0766 5.22586 14.3596 5.58805C14.9349 6.32418 15.0253 7.25163 14.9312 8.05072C14.8346 8.87066 14.5287 9.72446 14.0988 10.5063C13.3839 11.8065 12.1957 13.1306 10.6946 13.7703C10.6846 14.7135 10.7726 15.6577 10.9811 16.5503C11.2268 17.6014 11.6353 18.5633 12.2322 19.3734C13.0368 20.4653 13.7726 20.9908 14.3717 21.2271C14.9587 21.4587 15.5042 21.4486 16.0116 21.3069C16.6864 21.1183 17.2805 20.6973 17.6969 20.3153C16.3303 18.2109 15.5734 15.3926 15.4273 12.8699C15.3434 11.4213 15.4552 9.99091 15.8163 8.77712C16.1705 7.58617 16.819 6.43389 17.9399 5.82427C18.5997 5.46538 19.351 5.34019 20.0828 5.63183C20.7659 5.90407 21.2229 6.45884 21.5253 7.0063C22.1229 8.08829 22.3992 9.64978 22.4658 11.2453C22.5339 12.8794 22.3876 14.7081 22.0234 16.4234C21.7344 17.7847 21.2964 19.1303 20.6803 20.264C20.9961 20.5866 21.3168 20.8545 21.6305 21.0379C22.1066 21.3163 22.4516 21.3416 22.7525 21.2239C23.1355 21.0742 23.5142 20.7407 23.8603 20.201C23.4159 19.0182 23.1241 17.6334 22.9436 16.2566C22.6942 14.3542 22.6423 12.3443 22.7489 10.6561C22.8023 9.81222 22.8965 9.0275 23.0328 8.36441C23.1614 7.73947 23.3526 7.08878 23.6708 6.61484C23.852 6.34511 24.1491 5.99541 24.6104 5.82718C25.1647 5.62507 25.6904 5.77422 26.0612 6.04742C26.3798 6.28217 26.5866 6.60193 26.7218 6.85984C26.8664 7.13569 26.9846 7.44948 27.0831 7.77409C27.4706 9.05044 27.6933 10.9701 27.6956 12.9749C27.698 14.9899 27.4782 17.2107 26.9099 19.0896C26.7905 19.4846 26.6506 19.8808 26.4864 20.2662C26.7546 20.7437 27.0093 21.002 27.2107 21.1231C27.3737 21.2211 27.5452 21.2603 27.8106 21.1862C27.8103 21.1863 27.81 21.1864 27.81 21.1863C27.81 21.1863 27.8439 21.1753 27.9061 21.129C27.9713 21.0806 28.0536 21.0037 28.1425 20.8913C28.3216 20.665 28.4968 20.3337 28.606 19.9187C28.82 19.1051 28.7693 18.0108 28.0407 16.8619C27.6904 16.3096 27.8542 15.578 28.4065 15.2277C28.9587 14.8774 29.6903 15.0412 30.0406 15.5935C31.1344 17.3182 31.2718 19.0935 30.8964 20.5211C30.7107 21.2269 30.3968 21.859 29.9995 22.361C29.6144 22.8476 29.0876 23.2885 28.4474 23.4672C27.5644 23.7137 26.7201 23.5914 25.9905 23.1528C25.6604 22.9543 25.371 22.7018 25.1169 22.4168C24.6933 22.8504 24.1969 23.202 23.6149 23.4295C22.4291 23.8932 21.3113 23.5946 20.4352 23.0824C19.99 22.8221 19.5797 22.4928 19.2096 22.1397C18.573 22.7068 17.6977 23.2946 16.6488 23.5878C15.7107 23.8498 14.6302 23.8749 13.5027 23.4301C12.3874 22.9902 11.3203 22.1281 10.3257 20.7783C9.50335 19.6623 8.97911 18.3903 8.67508 17.0892C8.44919 16.1225 8.34241 15.13 8.32747 14.1541C6.61185 13.9928 5.24907 12.8597 4.60203 11.37C3.76754 9.44879 4.10426 6.96859 6.04815 5.06141C6.51496 4.60342 7.26466 4.61057 7.72266 5.07738C8.18065 5.54419 8.1735 6.29389 7.70669 6.75189C6.44282 7.99189 6.34157 9.43051 6.7742 10.4265C7.09436 11.1636 7.69657 11.6773 8.46452 11.783C8.72045 9.80204 9.30866 7.9718 10.0454 6.69764C10.4631 5.97529 11.0327 5.24778 11.778 4.90242C12.1853 4.71369 12.6759 4.62729 13.1894 4.76895ZM11.0696 10.6589C11.4309 10.2892 11.758 9.84815 12.0236 9.36521C12.3412 8.78758 12.526 8.22618 12.5792 7.77374C12.6094 7.51764 12.5938 7.34094 12.5666 7.22444C12.4456 7.35182 12.2828 7.55934 12.0956 7.88306C11.701 8.56548 11.3305 9.53437 11.0696 10.6589ZM25.2177 15.3214C25.2931 14.5464 25.3283 13.7536 25.3274 12.9778C25.3262 11.9628 25.2635 11.0115 25.1599 10.1984C25.1416 10.3927 25.1257 10.5953 25.1125 10.8054C25.0268 12.1619 25.0534 13.7645 25.2177 15.3214ZM19.1108 18.0034C19.3479 17.377 19.5484 16.6777 19.7069 15.9316C20.0298 14.4102 20.1594 12.7798 20.0996 11.3439C20.0381 9.86931 19.7828 8.74979 19.4522 8.15126C19.3394 7.947 19.2536 7.86803 19.2195 7.84189C19.1929 7.84806 19.1455 7.86437 19.0714 7.9047C18.7324 8.08909 18.3544 8.55057 18.0862 9.45223C17.8248 10.331 17.7185 11.4721 17.7915 12.7329C17.897 14.5544 18.3649 16.4622 19.1108 18.0034Z" fill="url(#paint0_linear_687_2437)"/>
<path fill-rule="evenodd" clip-rule="evenodd" d="M13.1894 4.76895C13.6914 4.90748 14.0766 5.22586 14.3596 5.58805C14.9349 6.32418 15.0253 7.25163 14.9312 8.05072C14.8346 8.87066 14.5287 9.72446 14.0988 10.5063C13.3079 11.9445 11.9381 13.412 10.2062 13.95C9.99627 14.0933 9.73885 14.1702 9.46556 14.1532C9.42077 14.1504 9.37672 14.1451 9.33353 14.1375C7.15143 14.4076 5.37111 13.1406 4.60203 11.37C3.76754 9.44879 4.10426 6.96859 6.04815 5.06141C6.51496 4.60342 7.26466 4.61057 7.72266 5.07738C8.18065 5.54419 8.1735 6.29389 7.70669 6.75189C6.44282 7.99189 6.34157 9.43051 6.7742 10.4265C7.09436 11.1636 7.69657 11.6773 8.46451 11.783C8.72045 9.80204 9.30866 7.9718 10.0454 6.69764C10.4631 5.97529 11.0327 5.24778 11.778 4.90242C12.1853 4.71369 12.6759 4.62729 13.1894 4.76895ZM11.0696 10.6589C11.4309 10.2892 11.758 9.84815 12.0236 9.36521C12.3412 8.78758 12.526 8.22618 12.5792 7.77374C12.6094 7.51764 12.5938 7.34094 12.5666 7.22444C12.4456 7.35182 12.2828 7.55934 12.0956 7.88306C11.701 8.56548 11.3305 9.53437 11.0696 10.6589ZM22.0234 16.4234C21.6624 18.1242 21.0688 19.8005 20.1858 21.0694C19.7371 21.7141 18.4486 23.0848 16.6488 23.5878C15.7107 23.8498 14.6302 23.8749 13.5027 23.4301C12.3874 22.9902 11.3203 22.1281 10.3257 20.7783C9.50335 19.6623 8.97911 18.3903 8.67508 17.0892C8.52627 16.4524 8.92187 15.8155 9.55868 15.6667C10.1955 15.5179 10.8324 15.9135 10.9811 16.5503C11.2268 17.6014 11.6353 18.5633 12.2322 19.3734C13.0368 20.4653 13.7726 20.9908 14.3717 21.2271C14.9587 21.4587 15.5042 21.4486 16.0116 21.3069C16.6864 21.1183 17.2805 20.6973 17.6969 20.3153C16.3303 18.2109 15.5734 15.3926 15.4273 12.8699C15.3434 11.4213 15.4552 9.99091 15.8163 8.77712C16.1705 7.58617 16.819 6.43389 17.9399 5.82427C18.5997 5.46538 19.351 5.34019 20.0828 5.63183C20.7659 5.90407 21.2229 6.45884 21.5253 7.0063C22.1228 8.08829 22.3992 9.64978 22.4658 11.2453C22.5339 12.8794 22.3876 14.7081 22.0234 16.4234ZM19.2194 7.84189C19.1929 7.84806 19.1455 7.86437 19.0714 7.9047C18.7324 8.08909 18.3544 8.55057 18.0862 9.45223C17.8248 10.331 17.7185 11.4721 17.7915 12.7329C17.897 14.5544 18.3649 16.4622 19.1108 18.0034C19.3479 17.377 19.5484 16.6777 19.7069 15.9316C20.0298 14.4102 20.1594 12.7798 20.0996 11.3439C20.0381 9.86931 19.7828 8.74979 19.4522 8.15126C19.3394 7.947 19.2536 7.86803 19.2194 7.84189ZM25.9456 21.3313C25.3835 22.2598 24.6292 23.0329 23.6149 23.4295C22.8821 23.716 22.154 23.715 21.4871 23.533C20.8562 23.3608 20.4844 22.7097 20.6566 22.0788C20.8288 21.4479 21.4799 21.0761 22.1107 21.2483C22.3428 21.3117 22.5452 21.3049 22.7525 21.2239C23.1355 21.0742 23.5142 20.7407 23.8603 20.201C23.0915 18.1533 22.756 15.4342 22.7039 13.0475C22.6743 11.6937 22.7348 10.3929 22.8765 9.31031C22.9473 8.76952 23.0407 8.26537 23.16 7.82728C23.2742 7.40776 23.4328 6.96933 23.6708 6.61484C23.852 6.34511 24.1491 5.99541 24.6104 5.82718C25.1647 5.62507 25.6904 5.77422 26.0612 6.04742C26.3798 6.28217 26.5866 6.60193 26.7218 6.85984C26.8664 7.13569 26.9846 7.44948 27.0831 7.77409C27.4706 9.05044 27.6933 10.9701 27.6956 12.9749C27.698 14.9899 27.4782 17.2107 26.91 19.0896C26.7714 19.5477 26.6053 20.0075 26.4058 20.4502C26.389 20.7919 26.2241 21.1172 25.9456 21.3313ZM25.2177 15.3212C25.2931 14.5463 25.3283 13.7536 25.3274 12.9778C25.3262 11.9628 25.2635 11.0115 25.1599 10.1984C25.0823 11.0239 25.0494 11.9833 25.0715 12.9959C25.0884 13.7702 25.137 14.556 25.2177 15.3212ZM28.4065 15.2277C28.9587 14.8774 29.6903 15.0412 30.0406 15.5935C31.1344 17.3182 31.2718 19.0935 30.8964 20.5211C30.7107 21.2269 30.3968 21.859 29.9995 22.361C29.6144 22.8476 29.0876 23.2885 28.4474 23.4672C27.8175 23.6431 27.1643 23.275 26.9885 22.6451C26.8126 22.0153 27.1807 21.3621 27.8106 21.1862C27.8106 21.1862 27.8439 21.1753 27.9061 21.129C27.9713 21.0806 28.0536 21.0037 28.1425 20.8913C28.3216 20.665 28.4968 20.3337 28.606 19.9187C28.82 19.1051 28.7693 18.0108 28.0407 16.8619C27.6904 16.3096 27.8542 15.578 28.4065 15.2277Z" fill="url(#paint1_radial_687_2437)"/>
<path opacity="0.6" fill-rule="evenodd" clip-rule="evenodd" d="M28.4063 15.2276C28.9585 14.8773 29.6902 15.0411 30.0404 15.5933C31.1343 17.3181 31.2716 19.0934 30.8961 20.521C30.7105 21.2267 30.3966 21.8589 29.9993 22.3609C29.6142 22.8474 29.0874 23.2884 28.4472 23.4671C27.8173 23.6429 27.1642 23.2749 26.9882 22.645C26.8124 22.0151 27.1805 21.362 27.8104 21.1861C27.81 21.1862 27.8104 21.1861 27.8104 21.1861C27.8104 21.186 27.8437 21.1752 27.9059 21.1289C27.9711 21.0804 28.0534 21.0035 28.1423 20.8911C28.3214 20.6649 28.4967 20.3336 28.6058 19.9186C28.8198 19.105 28.7691 18.0106 28.0405 16.8617C27.6903 16.3095 27.854 15.5779 28.4063 15.2276Z" fill="url(#paint2_linear_687_2437)"/>
<path opacity="0.6" fill-rule="evenodd" clip-rule="evenodd" d="M7.72266 5.07705C8.18065 5.54385 8.1735 6.29356 7.70669 6.75156C6.44282 7.99155 6.34157 9.43018 6.7742 10.4262C7.20805 11.425 8.15986 12.0136 9.34016 11.7329C10.3349 11.4963 11.3672 10.5585 12.0236 9.36488C12.3412 8.78725 12.526 8.22585 12.5792 7.77341C12.635 7.3001 12.5343 7.09798 12.4936 7.04592C12.091 6.53063 12.1823 5.78647 12.6975 5.3838C13.2128 4.98113 13.957 5.07242 14.3596 5.58772C14.9349 6.32385 15.0253 7.2513 14.9312 8.05039C14.8346 8.87033 14.5287 9.72413 14.0988 10.5059C13.2601 12.0312 11.7702 13.5893 9.88807 14.0369C7.45573 14.6153 5.43531 13.2882 4.60203 11.3697C3.76754 9.44846 4.10425 6.96826 6.04815 5.06108C6.51496 4.60309 7.26466 4.61023 7.72266 5.07705Z" fill="url(#paint3_linear_687_2437)"/>
<path opacity="0.6" fill-rule="evenodd" clip-rule="evenodd" d="M22.0234 16.4232C21.6623 18.1241 21.0687 19.8003 20.1857 21.0693C19.7371 21.7141 18.4486 23.0848 16.6488 23.5876C15.7107 23.8498 14.6302 23.8748 13.5027 23.43C12.3873 22.99 11.3203 22.1279 10.3256 20.7782C9.93771 20.2517 10.05 19.5104 10.5765 19.1225C11.103 18.7346 11.8442 18.8468 12.2322 19.3733C13.0367 20.4651 13.7726 20.9907 14.3717 21.227C14.9586 21.4585 15.5042 21.4485 16.0114 21.3067C17.1024 21.0019 17.9822 20.0896 18.2418 19.7166C18.8759 18.8053 19.3807 17.4673 19.7067 15.9315C20.0298 14.41 20.1594 12.7797 20.0995 11.3438C20.0381 9.86919 19.7828 8.74967 19.4522 8.15115C19.3394 7.94689 19.2535 7.86791 19.2193 7.84177C19.1928 7.84794 19.1455 7.86426 19.0713 7.90458C18.4968 8.21704 17.7778 8.00461 17.4654 7.43012C17.1529 6.85562 17.3653 6.13661 17.9398 5.82415C18.5997 5.46526 19.351 5.34008 20.0828 5.63171C20.7659 5.90395 21.2229 6.45872 21.5252 7.00618C22.1228 8.08817 22.3992 9.64966 22.4657 11.2451C22.5338 12.8793 22.3875 14.7081 22.0234 16.4232Z" fill="url(#paint4_linear_687_2437)"/>
<path opacity="0.6" fill-rule="evenodd" clip-rule="evenodd" d="M26.9098 19.0894C26.3623 20.8995 25.3845 22.7373 23.6147 23.4293C23.0056 23.6675 22.3188 23.3668 22.0806 22.7577C21.8425 22.1486 22.1432 21.4619 22.7523 21.2237C23.4551 20.9489 24.1434 20.0554 24.6429 18.4039C25.1215 16.8213 25.3293 14.8503 25.3272 12.9776C25.325 11.0946 25.111 9.43071 24.8168 8.46183C24.8155 8.45725 24.8141 8.45269 24.8127 8.44815C24.5355 8.48582 24.244 8.426 23.9935 8.25779C23.4506 7.89321 23.3061 7.15755 23.6706 6.61464C23.8518 6.3449 24.1489 5.99521 24.6102 5.82697C25.1644 5.62487 25.6902 5.77402 26.061 6.04721C26.3796 6.28196 26.5863 6.60172 26.7216 6.85964C26.8662 7.13548 26.9844 7.44928 27.0829 7.77389C27.4704 9.05023 27.693 10.9699 27.6955 12.9747C27.6978 14.9897 27.478 17.2105 26.9098 19.0894Z" fill="url(#paint5_linear_687_2437)"/>
</g>
<g clip-path="url(#clip1_687_2437)">
<path d="M41.8782 8.14507V14.9388C41.8782 15.5061 41.7277 16.0368 41.4267 16.5309C41.135 17.0158 40.7352 17.4001 40.2273 17.6838C39.7287 17.9674 39.1878 18.1092 38.6046 18.1092C38.0496 18.1092 37.5228 17.9766 37.0242 17.7112C36.5256 17.4367 36.1258 17.0615 35.8248 16.5858C35.5238 16.11 35.3733 15.5793 35.3733 14.9937V14.1153H37.2218V14.9937C37.2312 15.4237 37.3629 15.7668 37.6168 16.0231C37.8802 16.2793 38.2142 16.4074 38.6187 16.4074C39.0232 16.4074 39.3571 16.2793 39.6205 16.0231C39.8839 15.7577 40.0156 15.3963 40.0156 14.9388V8.14507H41.8782Z" fill="white"/>
<path d="M50.1854 18.0268H48.3228H46.2345H43.6946V10.9448H45.5572V16.421H46.94H47.7584C47.8901 16.421 48.0077 16.4256 48.1112 16.4347C48.2146 16.4347 48.2852 16.4301 48.3228 16.421V10.9448H50.1854V18.0268Z" fill="white"/>
<path d="M58.6214 10.9448V18.0268H56.7588V13.6623L53.9931 18.0268H52.1306V10.9448H53.9931V15.3779C54.059 15.2865 54.9621 13.8087 56.7024 10.9448H58.6214Z" fill="white"/>
<path d="M63.6433 18.1091C62.9848 18.1091 62.378 17.949 61.823 17.6287C61.2774 17.2994 60.84 16.8602 60.5107 16.3112C60.1909 15.7531 60.031 15.1446 60.031 14.4858C60.031 13.827 60.1909 13.2231 60.5107 12.6741C60.84 12.116 61.2774 11.6768 61.823 11.3566C62.378 11.0272 62.9848 10.8625 63.6433 10.8625H63.6574C64.3158 10.8625 64.9179 11.0272 65.4635 11.3566C66.0185 11.6768 66.4559 12.116 66.7758 12.6741C67.0956 13.2323 67.2555 13.8362 67.2555 14.4858C67.2555 15.1354 67.0956 15.7393 66.7758 16.2975C66.4559 16.8556 66.0185 17.2994 65.4635 17.6287C64.9179 17.949 64.3158 18.1091 63.6574 18.1091H63.6433ZM63.6574 16.2975C64.1465 16.2975 64.5557 16.1236 64.885 15.7759C65.2236 15.4191 65.3929 14.989 65.3929 14.4858C65.3929 14.1656 65.313 13.8682 65.1531 13.5937C65.0026 13.31 64.7909 13.0859 64.5181 12.9212C64.2547 12.7565 63.9678 12.6741 63.6574 12.6741H63.6433C63.1541 12.6741 62.7402 12.8526 62.4015 13.2094C62.0629 13.5571 61.8936 13.9826 61.8936 14.4858C61.8936 14.989 62.0629 15.4191 62.4015 15.7759C62.7402 16.1236 63.1541 16.2975 63.6433 16.2975H63.6574Z" fill="white"/>
<path d="M68.5647 15.6662C68.6023 15.7028 68.7152 15.7851 68.9033 15.9132C69.0914 16.0322 69.2984 16.142 69.5242 16.2426C70.0698 16.5262 70.5824 16.6681 71.0622 16.6681C71.382 16.6681 71.6266 16.604 71.7959 16.476C71.9747 16.3479 72.064 16.1832 72.064 15.9818C72.064 15.6342 71.8007 15.3962 71.2738 15.2681L70.3567 15.0623C69.6794 14.9067 69.1714 14.6689 68.8328 14.3486C68.5035 14.0284 68.3389 13.6166 68.3389 13.1134C68.3389 12.7016 68.4565 12.3173 68.6917 11.9605C68.9362 11.6037 69.2702 11.32 69.6935 11.1096C70.1262 10.8991 70.6201 10.7939 71.1751 10.7939C71.5608 10.7939 71.9276 10.8442 72.2757 10.9449C72.6237 11.0364 72.906 11.1416 73.1223 11.2605C73.3481 11.3703 73.4939 11.4481 73.5598 11.4939V13.2644C73.5221 13.2186 73.3904 13.1271 73.1646 12.9899C72.9389 12.8435 72.6943 12.7154 72.4309 12.6056C71.9699 12.4226 71.5796 12.3265 71.2597 12.3174C70.9869 12.3174 70.7565 12.3768 70.5683 12.4958C70.3896 12.6056 70.3002 12.752 70.3002 12.935C70.3002 13.0631 70.352 13.182 70.4555 13.2918C70.5589 13.3925 70.7 13.4611 70.8787 13.4977L71.81 13.7035C72.5155 13.8682 73.0565 14.1382 73.4327 14.5133C73.8184 14.8793 74.0113 15.3185 74.0113 15.8309C74.0113 16.2426 73.889 16.6315 73.6444 16.9975C73.3998 17.3543 73.0565 17.6426 72.6144 17.8621C72.1816 18.0726 71.6877 18.1778 71.1327 18.1778C70.6624 18.1778 70.2344 18.1275 69.8487 18.0268C69.4725 17.9171 69.1714 17.8026 68.9456 17.6837C68.7199 17.5648 68.5835 17.4824 68.5364 17.4367L68.5647 15.6662Z" fill="white"/>
<path d="M83.4215 18.0268H81.6718L80.1479 13.5114L78.6098 18.0268H76.8602L74.4473 10.9448H76.3099L77.7491 15.3917L79.273 10.9448H81.0086L82.5325 15.4054L83.9859 10.9448H85.8484L83.4215 18.0268Z" fill="white"/>
<path d="M93.3521 10.9448V12.4134V14.129V16.5582V16.5857V18.0267H91.4895V17.1072C91.2073 17.4275 90.8781 17.6745 90.5018 17.8484C90.1349 18.0222 89.7398 18.1091 89.3165 18.1091H89.3024C88.738 18.1091 88.2206 17.949 87.7503 17.6287C87.2799 17.2994 86.9083 16.8602 86.6355 16.3112C86.3627 15.7531 86.2263 15.1446 86.2263 14.4858C86.2263 13.827 86.3627 13.2231 86.6355 12.6741C86.9083 12.116 87.2799 11.6768 87.7503 11.3566C88.2206 11.0272 88.738 10.8625 89.3024 10.8625H89.3165C89.7398 10.8625 90.1349 10.9494 90.5018 11.1232C90.8781 11.2971 91.2073 11.5441 91.4895 11.8644V10.9448H93.3521ZM89.8104 16.2975C90.1114 16.2975 90.3889 16.2197 90.6429 16.0642C90.9063 15.8995 91.1132 15.6798 91.2638 15.4053C91.4142 15.1217 91.4895 14.8152 91.4895 14.4858C91.4895 14.1564 91.4142 13.8545 91.2638 13.58C91.1132 13.2963 90.9063 13.0767 90.6429 12.9212C90.3889 12.7565 90.1114 12.6741 89.8104 12.6741H89.7962C89.3071 12.6741 88.8979 12.848 88.5686 13.1957C88.2488 13.5434 88.0889 13.9734 88.0889 14.4858C88.0889 14.9982 88.2488 15.4282 88.5686 15.7759C88.8979 16.1236 89.3071 16.2975 89.7962 16.2975H89.8104Z" fill="white"/>
<path d="M99.2958 10.8625C99.8602 10.8625 100.378 11.0272 100.848 11.3566C101.328 11.6768 101.704 12.116 101.977 12.6741C102.259 13.2231 102.4 13.827 102.4 14.4858C102.4 15.1446 102.259 15.7531 101.977 16.3112C101.704 16.8602 101.328 17.2994 100.848 17.6287C100.378 17.949 99.8602 18.1091 99.2958 18.1091C98.8819 18.1091 98.4869 18.0222 98.1106 17.8484C97.7438 17.6654 97.4192 17.4183 97.137 17.1072V20.9364H95.2744V10.9448H97.137V11.8644C97.4192 11.5533 97.7438 11.3108 98.1106 11.137C98.4869 10.954 98.8819 10.8625 99.2958 10.8625ZM98.8161 16.2975C99.2958 16.2975 99.7006 16.1236 100.029 15.7759C100.359 15.4191 100.523 14.989 100.523 14.4858C100.523 13.9826 100.359 13.5571 100.029 13.2094C99.7006 12.8526 99.2958 12.6741 98.8161 12.6741C98.3364 12.6741 97.9366 12.8526 97.6167 13.2094C97.2969 13.5571 97.137 13.9826 97.137 14.4858C97.137 14.989 97.2969 15.4191 97.6167 15.7759C97.9366 16.1236 98.3364 16.2975 98.8161 16.2975Z" fill="white"/>
</g>
<defs>
<linearGradient id="paint0_linear_687_2437" x1="8.27626" y1="14.2864" x2="15.1193" y2="8.9294" gradientUnits="userSpaceOnUse">
<stop stop-color="#B00017"/>
<stop offset="0.615809" stop-color="#3F00C7"/>
<stop offset="1" stop-color="#003C56"/>
</linearGradient>
<radialGradient id="paint1_radial_687_2437" cx="0" cy="0" r="1" gradientUnits="userSpaceOnUse" gradientTransform="translate(5.31598 9.15438) rotate(14.5889) scale(27.9125 39.3727)">
<stop stop-color="#F99974"/>
<stop offset="0.166667" stop-color="#FE4366"/>
<stop offset="0.402254" stop-color="#F43D88"/>
<stop offset="0.552743" stop-color="#D72DE5"/>
<stop offset="0.6875" stop-color="#3B7BEA"/>
<stop offset="0.828125" stop-color="#30B1CD"/>
<stop offset="0.927083" stop-color="#40CAD7"/>
<stop offset="1" stop-color="#09ACA2"/>
</radialGradient>
<linearGradient id="paint2_linear_687_2437" x1="26.2683" y1="7.67421" x2="22.2682" y2="18.0077" gradientUnits="userSpaceOnUse">
<stop stop-color="white" stop-opacity="0"/>
<stop offset="0.270833" stop-color="white" stop-opacity="0.5"/>
<stop offset="0.515625" stop-color="white" stop-opacity="0.8"/>
<stop offset="0.802083" stop-color="white" stop-opacity="0.5"/>
<stop offset="1" stop-color="white" stop-opacity="0"/>
</linearGradient>
<linearGradient id="paint3_linear_687_2437" x1="17.5271" y1="8.08678" x2="13.9851" y2="17.2371" gradientUnits="userSpaceOnUse">
<stop stop-color="white" stop-opacity="0"/>
<stop offset="0.270833" stop-color="white" stop-opacity="0.5"/>
<stop offset="0.515625" stop-color="white" stop-opacity="0.8"/>
<stop offset="0.802083" stop-color="white" stop-opacity="0.5"/>
<stop offset="1" stop-color="white" stop-opacity="0"/>
</linearGradient>
<linearGradient id="paint4_linear_687_2437" x1="16.8556" y1="7.67425" x2="12.7289" y2="18.3349" gradientUnits="userSpaceOnUse">
<stop stop-color="white" stop-opacity="0"/>
<stop offset="0.270833" stop-color="white" stop-opacity="0.5"/>
<stop offset="0.515625" stop-color="white" stop-opacity="0.8"/>
<stop offset="0.802083" stop-color="white" stop-opacity="0.5"/>
<stop offset="1" stop-color="white" stop-opacity="0"/>
</linearGradient>
<linearGradient id="paint5_linear_687_2437" x1="24.0957" y1="7.67411" x2="20.1745" y2="17.8038" gradientUnits="userSpaceOnUse">
<stop stop-color="white" stop-opacity="0"/>
<stop offset="0.270833" stop-color="white" stop-opacity="0.5"/>
<stop offset="0.515625" stop-color="white" stop-opacity="0.8"/>
<stop offset="0.802083" stop-color="white" stop-opacity="0.5"/>
<stop offset="1" stop-color="white" stop-opacity="0"/>
</linearGradient>
<clipPath id="clip0_687_2437">
<rect width="27.3826" height="19.9819" fill="white" transform="translate(4.17407 4.32856)"/>
</clipPath>
<clipPath id="clip1_687_2437">
<rect width="67.0271" height="12.7914" fill="white" transform="translate(35.3733 8.14507)"/>
</clipPath>
</defs>
</svg>
