<svg width="99" height="24" viewBox="0 0 99 24" fill="none" xmlns="http://www.w3.org/2000/svg">
<path d="M77.585 11.9965C77.585 11.4166 77.585 10.871 77.5662 10.3672C77.5534 9.89193 77.5064 9.41818 77.4254 8.94967C77.3497 8.52185 77.216 8.10635 77.028 7.71465C76.8295 7.31079 76.5643 6.94333 76.2436 6.62776C75.7886 6.16163 75.2473 5.78856 74.6497 5.52939C74.0033 5.26753 73.311 5.13773 72.6136 5.14762C71.9136 5.13857 71.2187 5.26833 70.5692 5.52939C69.9682 5.78502 69.4234 6.15647 68.966 6.62254C68.6458 6.93793 68.3816 7.30547 68.1847 7.70944C67.9983 8.10122 67.8667 8.51679 67.7935 8.94445C67.7144 9.41311 67.6691 9.88685 67.6579 10.362C67.6454 10.8658 67.6391 11.4114 67.6423 11.9913C67.6454 12.5713 67.6423 13.1126 67.6579 13.6196C67.6691 14.0947 67.7144 14.5685 67.7935 15.0371C67.8667 15.4648 67.9983 15.8803 68.1847 16.2721C68.3824 16.6756 68.6465 17.0431 68.966 17.359C69.4227 17.8255 69.9677 18.1964 70.5692 18.4501C71.2183 18.7129 71.9134 18.8434 72.6136 18.834C73.3112 18.8442 74.0038 18.7137 74.6497 18.4501C75.2474 18.1944 75.7889 17.8237 76.2436 17.359C76.5636 17.0428 76.8287 16.6755 77.028 16.2721C77.216 15.8804 77.3497 15.4649 77.4254 15.0371C77.5055 14.5699 77.5518 14.0976 77.5641 13.6237C77.5798 13.1168 77.5871 12.5744 77.5829 11.9955L77.585 11.9965ZM74.9564 11.9965C74.9564 12.6391 74.947 13.1742 74.9251 13.5997C74.9128 13.9493 74.878 14.2977 74.8208 14.6428C74.7817 14.8727 74.7115 15.0963 74.6122 15.3073C74.5315 15.4773 74.4261 15.6345 74.2993 15.7735C74.1035 15.9977 73.8605 16.1758 73.5879 16.2951C73.281 16.4264 72.9505 16.4931 72.6168 16.4912C72.2814 16.4927 71.9492 16.4259 71.6404 16.2951C71.3611 16.178 71.1116 15.9998 70.9103 15.7735C70.7826 15.6351 70.6771 15.4778 70.5973 15.3073C70.5008 15.0961 70.4341 14.8724 70.3992 14.6428C70.3435 14.2975 70.3086 13.9492 70.2948 13.5997C70.2761 13.1742 70.2667 12.6398 70.2667 11.9965C70.2667 11.354 70.2761 10.8178 70.2948 10.3923C70.3087 10.0428 70.3435 9.69446 70.3992 9.34917C70.4341 9.11957 70.5008 8.89594 70.5973 8.68472C70.6773 8.5143 70.7829 8.35707 70.9103 8.21846C71.1119 7.99253 71.3613 7.81437 71.6404 7.69692C71.9488 7.56458 72.2812 7.49779 72.6168 7.50082C72.9506 7.49735 73.2815 7.56417 73.5879 7.69692C73.8603 7.81658 74.1032 7.99462 74.2993 8.21846C74.4259 8.3577 74.5313 8.5148 74.6122 8.68472C74.7115 8.89572 74.7817 9.11925 74.8208 9.34917C74.8779 9.69427 74.9127 10.0427 74.9251 10.3923C74.9481 10.8168 74.9564 11.3529 74.9564 11.9965Z" fill="#23AF91"/>
<path d="M98.5302 5.49612C98.5291 5.36928 98.4266 5.26673 98.2997 5.2656H96.1311C96.0041 5.26617 95.9012 5.36904 95.9006 5.49612V13.507L90.6122 5.33027C90.5767 5.27498 90.5454 5.2656 90.4672 5.2656H88.4561C88.3295 5.26728 88.2273 5.36951 88.2256 5.49612V18.4951C88.2273 18.6215 88.3297 18.7234 88.4561 18.7245H90.6236C90.7501 18.724 90.8525 18.6216 90.8531 18.4951V10.4633L96.1426 18.6588C96.1791 18.7141 96.2083 18.7235 96.2876 18.7235H98.2976C98.4243 18.7229 98.527 18.6207 98.5281 18.494L98.5302 5.49612Z" fill="#23AF91"/>
<path d="M83.9937 5.49612C83.9932 5.36904 83.8903 5.26617 83.7632 5.2656H81.5967C81.4697 5.26617 81.3668 5.36904 81.3662 5.49612V18.494C81.3668 18.6211 81.4697 18.724 81.5967 18.7245H83.7632C83.8903 18.724 83.9932 18.6211 83.9937 18.494V5.49612Z" fill="#23AF91"/>
<path d="M58.0583 11.9966C58.0583 11.3499 58.0656 10.8117 58.0844 10.383C58.0971 10.0334 58.132 9.68503 58.1887 9.33987C58.389 8.18205 59.2756 7.49883 60.4073 7.49883C61.1458 7.50509 61.8155 7.77837 62.2432 8.40005C62.4368 8.69029 62.5781 9.01228 62.6604 9.35135C62.6667 9.38707 62.6994 9.41199 62.7355 9.40872H65.2858C65.3224 9.40872 65.3359 9.38368 65.3296 9.34822C65.0511 7.77003 64.2094 6.35247 62.7219 5.65048C61.9909 5.31201 61.193 5.14266 60.3875 5.15501C58.9515 5.15501 57.7419 5.64665 56.7586 6.62994C56.1972 7.17706 55.814 7.88089 55.6592 8.64935C55.509 9.40594 55.4332 10.5213 55.4318 11.9956C55.4304 13.4698 55.5062 14.5849 55.6592 15.3408C55.8128 16.1102 56.1948 16.8154 56.7555 17.3643C57.7381 18.3469 58.9477 18.8382 60.3844 18.8382C61.1897 18.8504 61.9875 18.6814 62.7188 18.3438C64.2062 17.6418 65.048 16.2242 65.3265 14.6461C65.3328 14.6095 65.3192 14.5856 65.2827 14.5856H62.7313C62.695 14.5818 62.6621 14.6069 62.6562 14.6429C62.5737 14.9816 62.4325 15.3032 62.239 15.5932C61.8113 16.219 61.1417 16.4892 60.4032 16.4944C59.2714 16.4944 58.3848 15.8122 58.1845 14.6544C58.1278 14.3092 58.093 13.9609 58.0802 13.6113C58.0656 13.1805 58.0583 12.6412 58.0583 11.9966Z" fill="#23AF91"/>
<path d="M31.1217 5.49612C31.1211 5.36904 31.0182 5.26617 30.8912 5.2656H28.7247C28.5976 5.26617 28.4947 5.36904 28.4941 5.49612V18.4951C28.4953 18.6217 28.598 18.724 28.7247 18.7247H30.8912C31.0178 18.724 31.1205 18.6217 31.1217 18.4951V14.6795L32.8605 12.6006L36.432 18.6557C36.4595 18.7003 36.509 18.7267 36.5614 18.7247H39.1941C39.3151 18.7247 39.337 18.6494 39.2765 18.5462L34.6004 10.6187L38.8906 5.47213C38.9772 5.36782 38.9407 5.26873 38.805 5.26873H35.9272C35.8922 5.26667 35.8585 5.28234 35.8375 5.31045L31.1217 10.9661V5.49612Z" fill="#23AF91"/>
<path d="M46.9057 16.4944C45.6863 16.4944 44.5807 15.3658 44.5807 14.0181V5.49612C44.5801 5.36904 44.4772 5.26617 44.3501 5.2656H42.1836C42.0566 5.26617 41.9537 5.36904 41.9531 5.49612V13.9848C41.9531 16.9523 44.1728 18.8382 46.9057 18.8382C49.6386 18.8382 51.8583 16.9523 51.8583 13.9848V5.49612C51.8571 5.36928 51.7546 5.26673 51.6278 5.2656H49.4602C49.3336 5.26674 49.2313 5.36945 49.2307 5.49612V14.0181C49.2307 15.3648 48.124 16.4944 46.9057 16.4944Z" fill="#23AF91"/>
<path fill-rule="evenodd" clip-rule="evenodd" d="M6.71662 11.9965L13.4424 18.7234L17.6878 14.478C18.4469 13.7945 19.6083 13.8249 20.3306 14.5472C21.053 15.2695 21.0834 16.4309 20.3998 17.1901L14.7974 22.7935C14.0449 23.5336 12.8379 23.5336 12.0854 22.7935L4.00251 14.7086V19.5141C4.00251 20.5746 3.14275 21.4344 2.08219 21.4344C1.02162 21.4344 0.161865 20.5746 0.161865 19.5141V4.47274C0.161865 3.41218 1.02162 2.55242 2.08219 2.55242C3.14275 2.55242 4.00251 3.41218 4.00251 4.47274V9.27824L12.0843 1.19536C12.8367 0.454715 14.0441 0.454715 14.7964 1.19536L20.403 6.79778C21.0865 7.55691 21.0561 8.71829 20.3338 9.44061C19.6114 10.1629 18.4501 10.1933 17.6909 9.50981L13.4456 5.26445L6.71662 11.9965ZM13.4456 10.0741C12.6679 10.0737 11.9666 10.5418 11.6688 11.2601C11.3709 11.9785 11.5351 12.8055 12.0848 13.3555C12.6345 13.9055 13.4615 14.0702 14.18 13.7727C14.8984 13.4752 15.3669 12.7742 15.3669 11.9965C15.3672 11.4867 15.1649 10.9976 14.8046 10.6369C14.4443 10.2762 13.9554 10.0734 13.4456 10.0731V10.0741Z" fill="#23AF91"/>
</svg>
