<svg width="96" height="24" viewBox="0 0 96 24" fill="none" xmlns="http://www.w3.org/2000/svg">
<g clip-path="url(#clip0_687_2386)">
<path d="M26.2468 13.5492C26.2468 10.3925 28.5591 8.12042 31.7359 8.12042C34.9127 8.12042 37.225 10.3925 37.225 13.5492C37.225 16.7059 34.9127 18.9779 31.7359 18.9779C28.5792 18.9779 26.2468 16.7059 26.2468 13.5492ZM34.9328 13.5492C34.9328 11.5788 33.6661 10.0909 31.7359 10.0909C29.8057 10.0909 28.5591 11.5788 28.5591 13.5492C28.5591 15.4995 29.8057 17.0075 31.7359 17.0075C33.6661 16.9874 34.9328 15.4995 34.9328 13.5492Z" fill="white"/>
<path d="M38.0896 17.3077L39.2959 15.5987C40.0399 16.3628 41.186 17.0062 42.6336 17.0062C43.8601 17.0062 44.4633 16.4432 44.4633 15.84C44.4633 13.9902 38.4113 15.2569 38.4113 11.2959C38.4113 9.54665 39.9193 8.09899 42.3924 8.09899C44.0612 8.09899 45.4485 8.60166 46.4941 9.56674L45.2475 11.1954C44.403 10.4113 43.2569 10.0493 42.1913 10.0493C41.2262 10.0493 40.7034 10.4716 40.7034 11.0948C40.7034 12.7637 46.7354 11.6377 46.7354 15.5585C46.7354 17.4887 45.3682 18.9364 42.5331 18.9364C40.5225 18.9766 39.0748 18.293 38.0896 17.3077Z" fill="white"/>
<path d="M57.3914 18.7953V11.4363L54.4361 18.7953H53.4508L50.495 11.4363V18.7953H48.2632V8.27961H51.3998L53.9534 14.6333L56.507 8.27961H59.6637V18.7752H57.3914V18.7953Z" fill="white"/>
<path d="M61.2124 13.548C61.2124 10.3913 63.5247 8.11928 66.7013 8.11928C69.8784 8.11928 72.1907 10.3913 72.1907 13.548C72.1907 16.7047 69.8784 18.9768 66.7013 18.9768C63.5247 18.9768 61.2124 16.7047 61.2124 13.548ZM69.8984 13.548C69.8984 11.5776 68.6319 10.0897 66.7013 10.0897C64.7712 10.0897 63.5247 11.5776 63.5247 13.548C63.5247 15.4984 64.7712 17.0063 66.7013 17.0063C68.6319 16.9862 69.8984 15.4984 69.8984 13.548Z" fill="white"/>
<path d="M73.0547 17.3077L74.2613 15.5987C75.0047 16.3628 76.1509 17.0062 77.5988 17.0062C78.8254 17.0062 79.4284 16.4432 79.4284 15.84C79.4284 13.9902 73.3764 15.2569 73.3764 11.2959C73.3764 9.54665 74.8843 8.09899 77.3575 8.09899C79.0262 8.09899 80.4137 8.60166 81.4594 9.56674L80.2123 11.1954C79.368 10.4113 78.2218 10.0493 77.1566 10.0493C76.1913 10.0493 75.6687 10.4716 75.6687 11.0948C75.6687 12.7637 81.7002 11.6377 81.7002 15.5585C81.7002 17.4887 80.3332 18.9364 77.4984 18.9364C75.4874 18.9766 74.0399 18.293 73.0547 17.3077Z" fill="white"/>
<path d="M83.2092 18.7953V8.27961H85.461V18.7752H83.2092V18.7953Z" fill="white"/>
<path d="M86.8279 17.3077L88.034 15.5987C88.7779 16.3628 89.9241 17.0062 91.3715 17.0062C92.5981 17.0062 93.2016 16.4432 93.2016 15.84C93.2016 13.9902 87.1491 15.2569 87.1491 11.2959C87.1491 9.54665 88.6575 8.09899 91.1307 8.09899C92.7994 8.09899 94.1864 8.60166 95.2321 9.56674L93.9855 11.1954C93.1412 10.4113 91.995 10.0493 90.9293 10.0493C89.964 10.0493 89.4414 10.4716 89.4414 11.0948C89.4414 12.7637 95.4734 11.6377 95.4734 15.5585C95.4734 17.4887 94.1064 18.9364 91.2711 18.9364C89.2406 18.9766 87.7927 18.293 86.8279 17.3077Z" fill="white"/>
<path d="M22.2842 4.43545C22.046 3.51812 21.2803 2.60079 19.9021 1.57961C18.7961 0.76613 17.6221 0.298811 16.6862 0.298811C16.499 0.298811 16.3289 0.316118 16.1588 0.350734C15.7334 0.437275 15.359 0.748821 15.1208 1.21614C14.8316 1.77 14.7635 2.51425 14.9507 2.96426C15.0188 3.10273 15.1038 3.27581 15.2059 3.43158C14.3041 3.98544 13.7936 4.14121 13.7256 4.15852C16.0737 4.95469 18.0304 6.61628 19.2555 8.77976L19.2725 8.57208C19.3236 8.00091 19.4937 7.34321 19.7319 6.6682C19.9701 6.73743 20.2084 6.77204 20.4466 6.77204C21.0761 6.77204 21.6206 6.51244 21.9609 6.04511C22.3012 5.57779 22.4373 4.9547 22.2842 4.43545Z" fill="#5E12A0"/>
<path d="M19.834 6.16622C21.3824 6.59889 22.0119 5.38732 21.8077 4.57385C21.5866 3.76037 20.8719 2.92958 19.6128 1.99494C18.3537 1.0603 17.0776 0.679521 16.2608 0.8526C15.4441 1.02568 15.2059 2.28918 15.4101 2.7738C15.4952 2.96419 15.6823 3.24112 15.9375 3.55267C15.6143 3.77767 15.3079 3.95075 15.0527 4.10653C16.6181 4.81616 17.9794 5.92388 19.0003 7.30851C19.1194 6.84123 19.2895 6.42582 19.4426 6.06233C19.5617 6.07964 19.6979 6.11425 19.834 6.16622Z" fill="url(#paint0_radial_687_2386)"/>
<path d="M10.9693 23.128C16.2223 23.128 20.4807 18.7963 20.4807 13.4528C20.4807 8.10933 16.2223 3.77757 10.9693 3.77757C5.7162 3.77757 1.45776 8.10933 1.45776 13.4528C1.45776 18.7963 5.7162 23.128 10.9693 23.128Z" fill="url(#paint1_radial_687_2386)"/>
<path opacity="0.6" d="M21.0252 3.77762C19.7321 2.39297 18.6431 2.0295 17.333 1.73526C16.3121 1.49295 16.5843 0.904473 17.8264 1.02563C17.2309 0.81793 16.6694 0.766006 16.261 0.852548C15.4443 1.02563 15.206 2.28912 15.4103 2.77375C15.4953 2.96414 15.6825 3.24107 15.9377 3.55261C15.4783 3.86416 15.0869 4.08916 14.7637 4.26225C14.9168 4.33148 15.104 4.41802 15.3252 4.53918C15.9037 4.85072 16.5332 5.36995 16.5332 5.36995C15.5804 4.53918 15.7846 4.1584 17.0948 3.22376C17.5031 2.92952 18.2518 2.96414 18.9494 3.32761C19.647 3.69108 20.4638 4.60841 20.4638 4.60841L19.6811 6.13154C19.7321 6.14884 19.7831 6.16615 19.8342 6.18346C20.3276 6.32191 20.719 6.2873 21.0252 6.16615C21.3826 5.94112 22.3184 5.17957 21.0252 3.77762Z" fill="#A98698"/>
<path d="M17.3162 2.56614C17.6565 2.7046 18.0989 2.94692 18.6434 3.31039C19.29 3.74309 19.8515 4.22772 20.2088 4.6085C19.6133 5.40465 19.2219 6.49507 18.9837 7.25666C19.1028 7.42973 19.2389 7.60279 19.358 7.77586C19.4771 7.34319 19.6813 6.7028 19.9535 6.06235C20.0216 6.07971 20.1067 6.07971 20.1918 6.07971C20.396 6.07971 20.6342 6.04505 20.8213 5.88929C20.9574 5.78545 21.1106 5.59507 21.0936 5.24889C21.0936 4.92004 20.8383 4.50465 20.3109 4.00271C19.9365 3.63924 19.4261 3.24116 18.9156 2.87769C17.4523 1.89112 16.4314 1.61419 15.972 2.08151C15.6657 2.39306 15.6998 2.77384 15.8018 3.05077C15.2574 3.41424 14.798 3.67386 14.4917 3.84694C14.6959 3.91617 14.883 4.00271 15.0872 4.08926C15.6317 3.79502 16.4144 3.29308 17.3162 2.56614ZM20.5321 5.0412C20.5831 5.12774 20.6001 5.21428 20.6001 5.2662C20.6001 5.42196 20.5491 5.47393 20.5151 5.50854C20.447 5.56046 20.3109 5.59507 20.1918 5.59507C20.2939 5.38734 20.413 5.21428 20.5321 5.0412ZM16.3293 2.46229C16.3804 2.41037 16.5165 2.37575 16.7377 2.41037C16.5675 2.54883 16.3974 2.66999 16.2272 2.79114C16.2102 2.66999 16.2272 2.54883 16.3293 2.46229Z" fill="#5E12A0"/>
<path d="M10.9692 3.20655C5.40525 3.20655 0.89624 7.79318 0.89624 13.453C0.89624 19.1127 5.40525 23.6994 10.9692 23.6994C16.5332 23.6994 21.0422 19.1127 21.0422 13.453C21.0422 7.79318 16.5162 3.20655 10.9692 3.20655ZM10.9692 23.1282C5.71153 23.1282 1.45774 18.8012 1.45774 13.453C1.45774 8.10475 5.71153 3.77772 10.9692 3.77772C16.2269 3.77772 20.4807 8.10475 20.4807 13.453C20.4807 18.8012 16.2099 23.1282 10.9692 23.1282Z" fill="#5E12A0"/>
<path opacity="0.6" d="M10.9693 23.1283C16.2223 23.1283 20.4807 18.7966 20.4807 13.4531C20.4807 8.10962 16.2223 3.77785 10.9693 3.77785C5.7162 3.77785 1.45776 8.10962 1.45776 13.4531C1.45776 18.7966 5.7162 23.1283 10.9693 23.1283Z" fill="url(#paint2_linear_687_2386)"/>
<path opacity="0.6" d="M10.9011 21.9513C5.71144 21.1033 2.18931 16.1359 3.04006 10.8569C3.4144 8.52028 4.57143 6.52982 6.20488 5.09325C3.82276 6.49521 2.05319 8.93564 1.57676 11.9126C0.743018 17.1916 4.26516 22.1591 9.43777 23.0071C12.3303 23.4918 15.1208 22.5745 17.1797 20.7744C15.359 21.8475 13.1471 22.3148 10.9011 21.9513Z" fill="#A98698"/>
<path opacity="0.6" d="M12.4834 3.91632C10.0842 3.51823 7.75321 4.07209 5.84748 5.30098C5.81345 5.33559 5.77942 5.3702 5.77942 5.3702C6.51108 4.92019 7.58302 4.5221 7.58302 4.5221C4.82659 6.14905 3.97583 8.00101 3.97583 8.00101C5.04779 5.88945 8.19558 4.40094 10.6628 4.2971C13.13 4.19325 14.7464 4.9375 16.7202 6.54716C18.694 8.17413 19.885 11.4973 19.7659 14.1281C19.6638 16.7589 18.3026 18.8878 18.3026 18.8878C19.2384 17.659 19.7999 16.7589 20.1572 15.8416C20.2253 15.5647 20.2934 15.2878 20.3274 14.9935C21.1782 9.73183 17.673 4.76442 12.4834 3.91632Z" fill="url(#paint3_linear_687_2386)"/>
<path d="M20.0041 13.3664C20.0041 18.4377 15.9545 22.557 10.9691 22.557C5.98361 22.557 1.91699 18.4377 1.91699 13.3664H20.0041Z" fill="url(#paint4_linear_687_2386)"/>
<g opacity="0.6">
<path opacity="0.6" d="M19.2893 13.3664C19.2893 18.3165 15.4439 22.3666 10.6116 22.557C10.7307 22.557 10.8498 22.557 10.9689 22.557C15.9543 22.557 20.0039 18.4377 20.0039 13.3664H19.2893Z" fill="url(#paint5_linear_687_2386)"/>
</g>
<g opacity="0.7">
<path opacity="0.7" d="M3.19313 13.3664H1.91699C1.91699 18.4377 5.9666 22.557 10.952 22.557C11.1732 22.557 11.3774 22.557 11.5816 22.5397C6.90243 22.1935 3.19313 18.2127 3.19313 13.3664Z" fill="url(#paint6_linear_687_2386)"/>
</g>
<path d="M19.9871 13.4529C19.9871 12.3971 18.1835 11.7914 15.7844 11.5836C14.0488 11.4452 12.2962 11.6182 10.2884 12.2413C8.5529 12.7606 6.9875 12.674 5.8475 12.5356C3.31223 12.2413 1.91699 12.2067 1.91699 13.4529C1.91699 15.2529 5.5242 17.503 10.935 16.7241C13.6745 16.326 15.0867 15.5126 16.7032 14.9587C18.4557 14.3702 19.9871 14.3876 19.9871 13.4529Z" fill="url(#paint7_linear_687_2386)"/>
<path d="M13.9298 9.09133C14.7755 9.09133 15.4612 8.3939 15.4612 7.53358C15.4612 6.67327 14.7755 5.97584 13.9298 5.97584C13.0841 5.97584 12.3984 6.67327 12.3984 7.53358C12.3984 8.3939 13.0841 9.09133 13.9298 9.09133Z" fill="white"/>
<path d="M16.431 10.2509C16.7881 10.2509 17.0776 9.95643 17.0776 9.59318C17.0776 9.22994 16.7881 8.93548 16.431 8.93548C16.0739 8.93548 15.7844 9.22994 15.7844 9.59318C15.7844 9.95643 16.0739 10.2509 16.431 10.2509Z" fill="white"/>
<g opacity="0.6">
<path opacity="0.6" d="M18.7452 6.28744C18.7282 6.28744 18.7112 6.28744 18.7112 6.28744C18.6091 6.27013 18.541 6.16629 18.558 6.0451C18.7112 5.24894 19.3577 4.48738 19.3918 4.45276C19.4599 4.36622 19.596 4.36622 19.664 4.43546C19.7491 4.50469 19.7491 4.64315 19.6811 4.71238C19.664 4.72969 19.0685 5.43931 18.9324 6.13163C18.9154 6.23552 18.8303 6.28744 18.7452 6.28744Z" fill="url(#paint8_linear_687_2386)"/>
</g>
<path opacity="0.2" d="M10.3405 20.6705C10.6036 20.6705 10.8169 20.4535 10.8169 20.1858C10.8169 19.9182 10.6036 19.7012 10.3405 19.7012C10.0773 19.7012 9.86401 19.9182 9.86401 20.1858C9.86401 20.4535 10.0773 20.6705 10.3405 20.6705Z" fill="white"/>
<g opacity="0.4">
<path opacity="0.6" d="M10.0676 20.4979C9.8804 20.3075 9.8804 19.996 10.0676 19.8056C10.1016 19.771 10.1356 19.7537 10.1696 19.719C10.1016 19.7364 10.0505 19.771 9.9995 19.8229C9.81234 20.0133 9.81234 20.3248 9.9995 20.5152C10.1526 20.671 10.3908 20.7056 10.578 20.6017C10.4078 20.671 10.2037 20.6364 10.0676 20.4979Z" fill="url(#paint9_linear_687_2386)"/>
</g>
<path opacity="0.3" d="M10.5097 20.0472C10.566 20.0472 10.6117 20.0008 10.6117 19.9435C10.6117 19.8862 10.566 19.8397 10.5097 19.8397C10.4533 19.8397 10.4077 19.8862 10.4077 19.9435C10.4077 20.0008 10.4533 20.0472 10.5097 20.0472Z" fill="white"/>
<path opacity="0.2" d="M12.8248 20.4281C13.0879 20.4281 13.3012 20.2112 13.3012 19.9435C13.3012 19.6758 13.0879 19.4589 12.8248 19.4589C12.5617 19.4589 12.3484 19.6758 12.3484 19.9435C12.3484 20.2112 12.5617 20.4281 12.8248 20.4281Z" fill="white"/>
<g opacity="0.4">
<path opacity="0.6" d="M12.5514 20.2553C12.3643 20.065 12.3643 19.7534 12.5514 19.563C12.5855 19.5284 12.6195 19.5111 12.6535 19.4765C12.5855 19.4938 12.5344 19.5284 12.4834 19.5803C12.2962 19.7707 12.2962 20.0823 12.4834 20.2726C12.6365 20.4285 12.8747 20.4631 13.0619 20.3592C12.8917 20.4285 12.6876 20.3938 12.5514 20.2553Z" fill="url(#paint10_linear_687_2386)"/>
</g>
<path opacity="0.3" d="M12.9938 19.8049C13.0501 19.8049 13.0958 19.7585 13.0958 19.7012C13.0958 19.6439 13.0501 19.5974 12.9938 19.5974C12.9375 19.5974 12.8918 19.6439 12.8918 19.7012C12.8918 19.7585 12.9375 19.8049 12.9938 19.8049Z" fill="white"/>
<path opacity="0.2" d="M11.599 21.5532C11.7963 21.5532 11.9563 21.3905 11.9563 21.1897C11.9563 20.9889 11.7963 20.8262 11.599 20.8262C11.4017 20.8262 11.2417 20.9889 11.2417 21.1897C11.2417 21.3905 11.4017 21.5532 11.599 21.5532Z" fill="white"/>
<g opacity="0.4">
<path opacity="0.6" d="M11.3948 21.4153C11.2587 21.2768 11.2587 21.0345 11.3948 20.896C11.4118 20.8787 11.4459 20.8614 11.4629 20.8441C11.4118 20.8614 11.3778 20.896 11.3438 20.9306C11.2077 21.0691 11.2077 21.3114 11.3438 21.4499C11.4629 21.571 11.633 21.5883 11.7862 21.5018C11.65 21.5537 11.4969 21.5191 11.3948 21.4153Z" fill="url(#paint11_linear_687_2386)"/>
</g>
<path opacity="0.3" d="M11.7176 21.0683C11.7552 21.0683 11.7856 21.0374 11.7856 20.9991C11.7856 20.9609 11.7552 20.93 11.7176 20.93C11.6801 20.93 11.6497 20.9609 11.6497 20.9991C11.6497 21.0374 11.6801 21.0683 11.7176 21.0683Z" fill="white"/>
<path opacity="0.2" d="M13.7938 21.2934C13.9912 21.2934 14.1512 21.1307 14.1512 20.9299C14.1512 20.7292 13.9912 20.5664 13.7938 20.5664C13.5965 20.5664 13.4365 20.7292 13.4365 20.9299C13.4365 21.1307 13.5965 21.2934 13.7938 21.2934Z" fill="white"/>
<g opacity="0.4">
<path opacity="0.6" d="M13.5897 21.1554C13.4535 21.017 13.4535 20.7747 13.5897 20.6362C13.6067 20.6189 13.6407 20.6016 13.6577 20.5843C13.6067 20.6016 13.5726 20.6362 13.5386 20.6709C13.4025 20.8093 13.4025 21.0516 13.5386 21.1901C13.6577 21.3113 13.8279 21.3286 13.981 21.242C13.8449 21.2939 13.6917 21.2593 13.5897 21.1554Z" fill="url(#paint12_linear_687_2386)"/>
</g>
<path opacity="0.3" d="M13.9125 20.8085C13.95 20.8085 13.9805 20.7776 13.9805 20.7394C13.9805 20.7012 13.95 20.6702 13.9125 20.6702C13.8749 20.6702 13.8445 20.7012 13.8445 20.7394C13.8445 20.7776 13.8749 20.8085 13.9125 20.8085Z" fill="white"/>
<path opacity="0.2" d="M8.31468 20.4973C8.74691 20.4973 9.09734 20.1408 9.09734 19.7011C9.09734 19.2614 8.74691 18.9049 8.31468 18.9049C7.88241 18.9049 7.53198 19.2614 7.53198 19.7011C7.53198 20.1408 7.88241 20.4973 8.31468 20.4973Z" fill="white"/>
<g opacity="0.4">
<path opacity="0.6" d="M7.87304 20.2031C7.56678 19.8915 7.56678 19.3896 7.87304 19.078C7.92408 19.0261 7.97512 18.9915 8.04318 18.9569C7.94109 18.9915 7.85602 19.0607 7.77095 19.13C7.4647 19.4415 7.4647 19.9434 7.77095 20.255C8.02616 20.5146 8.41754 20.5665 8.72379 20.3761C8.43455 20.4973 8.09422 20.4454 7.87304 20.2031Z" fill="url(#paint13_linear_687_2386)"/>
</g>
<path opacity="0.3" d="M8.58671 19.4586C8.68056 19.4586 8.75667 19.3811 8.75667 19.2856C8.75667 19.1901 8.68056 19.1128 8.58671 19.1128C8.49282 19.1128 8.41675 19.1901 8.41675 19.2856C8.41675 19.3811 8.49282 19.4586 8.58671 19.4586Z" fill="white"/>
<path opacity="0.2" d="M15.3085 18.5415C15.7408 18.5415 16.0912 18.1851 16.0912 17.7453C16.0912 17.3056 15.7408 16.9492 15.3085 16.9492C14.8763 16.9492 14.5259 17.3056 14.5259 17.7453C14.5259 18.1851 14.8763 18.5415 15.3085 18.5415Z" fill="white"/>
<g opacity="0.4">
<path opacity="0.6" d="M14.8484 18.2473C14.5421 17.9357 14.5421 17.4338 14.8484 17.1223C14.8995 17.0704 14.9505 17.0358 15.0186 17.0011C14.9165 17.0358 14.8314 17.105 14.7463 17.1742C14.44 17.4857 14.44 17.9877 14.7463 18.2992C15.0015 18.5588 15.3929 18.6108 15.6992 18.4204C15.4099 18.5415 15.0866 18.4896 14.8484 18.2473Z" fill="url(#paint14_linear_687_2386)"/>
</g>
<path opacity="0.3" d="M15.5801 17.5028C15.674 17.5028 15.7501 17.4254 15.7501 17.3299C15.7501 17.2344 15.674 17.157 15.5801 17.157C15.4863 17.157 15.4102 17.2344 15.4102 17.3299C15.4102 17.4254 15.4863 17.5028 15.5801 17.5028Z" fill="white"/>
</g>
<defs>
<radialGradient id="paint0_radial_687_2386" cx="0" cy="0" r="1" gradientUnits="userSpaceOnUse" gradientTransform="translate(21.4974 3.48342) scale(7.60479 7.73574)">
<stop stop-color="#FFEAFF" stop-opacity="0.6"/>
<stop offset="0.6807" stop-color="#A087C9"/>
<stop offset="1" stop-color="#10002F"/>
</radialGradient>
<radialGradient id="paint1_radial_687_2386" cx="0" cy="0" r="1" gradientUnits="userSpaceOnUse" gradientTransform="translate(17.2666 6.78252) scale(18.6062 18.9266)">
<stop stop-color="#FFEAFF" stop-opacity="0.6"/>
<stop offset="0.6807" stop-color="#A087C9"/>
<stop offset="1" stop-color="#10002F"/>
</radialGradient>
<linearGradient id="paint2_linear_687_2386" x1="9.44354" y1="22.9911" x2="12.5887" y2="3.91602" gradientUnits="userSpaceOnUse">
<stop stop-color="#81FFFF"/>
<stop offset="0.6202" stop-color="white" stop-opacity="0"/>
</linearGradient>
<linearGradient id="paint3_linear_687_2386" x1="17.6722" y1="6.88232" x2="9.68454" y2="14.0872" gradientUnits="userSpaceOnUse">
<stop offset="0.2888" stop-color="white"/>
<stop offset="0.7796" stop-color="white" stop-opacity="0"/>
</linearGradient>
<linearGradient id="paint4_linear_687_2386" x1="1.92465" y1="17.9563" x2="19.9997" y2="17.9563" gradientUnits="userSpaceOnUse">
<stop stop-color="#0002E9"/>
<stop offset="0.9952" stop-color="#FF00C7"/>
</linearGradient>
<linearGradient id="paint5_linear_687_2386" x1="20.8552" y1="14.1728" x2="10.8587" y2="23.4602" gradientUnits="userSpaceOnUse">
<stop offset="0.2888" stop-color="white"/>
<stop offset="0.7796" stop-color="white" stop-opacity="0"/>
</linearGradient>
<linearGradient id="paint6_linear_687_2386" x1="1.92465" y1="17.9563" x2="11.5947" y2="17.9563" gradientUnits="userSpaceOnUse">
<stop stop-color="#000292"/>
<stop offset="0.9952" stop-color="#7D00C7"/>
</linearGradient>
<linearGradient id="paint7_linear_687_2386" x1="1.93678" y1="14.2164" x2="19.9876" y2="14.2164" gradientUnits="userSpaceOnUse">
<stop stop-color="#000292"/>
<stop offset="0.9952" stop-color="#BE00C7"/>
</linearGradient>
<linearGradient id="paint8_linear_687_2386" x1="19.6916" y1="4.36847" x2="18.3619" y2="6.49268" gradientUnits="userSpaceOnUse">
<stop offset="0.2888" stop-color="white"/>
<stop offset="0.7796" stop-color="white" stop-opacity="0"/>
</linearGradient>
<linearGradient id="paint9_linear_687_2386" x1="9.85866" y1="20.2012" x2="10.5785" y2="20.2012" gradientUnits="userSpaceOnUse">
<stop offset="0.2888" stop-color="white"/>
<stop offset="0.7796" stop-color="white" stop-opacity="0"/>
</linearGradient>
<linearGradient id="paint10_linear_687_2386" x1="12.3408" y1="19.9554" x2="13.0607" y2="19.9554" gradientUnits="userSpaceOnUse">
<stop offset="0.2888" stop-color="white"/>
<stop offset="0.7796" stop-color="white" stop-opacity="0"/>
</linearGradient>
<linearGradient id="paint11_linear_687_2386" x1="11.2395" y1="21.1944" x2="11.7799" y2="21.1944" gradientUnits="userSpaceOnUse">
<stop offset="0.2888" stop-color="white"/>
<stop offset="0.7796" stop-color="white" stop-opacity="0"/>
</linearGradient>
<linearGradient id="paint12_linear_687_2386" x1="13.4269" y1="20.9339" x2="13.9674" y2="20.9339" gradientUnits="userSpaceOnUse">
<stop offset="0.2888" stop-color="white"/>
<stop offset="0.7796" stop-color="white" stop-opacity="0"/>
</linearGradient>
<linearGradient id="paint13_linear_687_2386" x1="7.53344" y1="19.7214" x2="8.70907" y2="19.7214" gradientUnits="userSpaceOnUse">
<stop offset="0.2888" stop-color="white"/>
<stop offset="0.7796" stop-color="white" stop-opacity="0"/>
</linearGradient>
<linearGradient id="paint14_linear_687_2386" x1="14.5153" y1="17.7651" x2="15.691" y2="17.7651" gradientUnits="userSpaceOnUse">
<stop offset="0.2888" stop-color="white"/>
<stop offset="0.7796" stop-color="white" stop-opacity="0"/>
</linearGradient>
<clipPath id="clip0_687_2386">
<rect width="94.5773" height="23.4006" fill="white" transform="translate(0.896484 0.298752)"/>
</clipPath>
</defs>
</svg>
