<svg width="411" height="411" viewBox="0 0 411 411" fill="none" xmlns="http://www.w3.org/2000/svg">
<g clip-path="url(#clip0_2387_11245)">
<path d="M410.285 194.482H0V214.855H410.285V194.482Z" fill="#0A0A0A"/>
<path d="M205.2 410.363C318.529 410.363 410.4 322.594 410.4 214.324C410.4 106.055 318.529 18.2848 205.2 18.2848C91.8712 18.2848 0 106.055 0 214.324C0 322.594 91.8712 410.363 205.2 410.363Z" fill="#0A0A0A"/>
<path d="M205.2 392.079C318.529 392.079 410.4 304.309 410.4 196.039C410.4 87.7698 318.529 0 205.2 0C91.8712 0 0 87.7698 0 196.039C0 304.309 91.8712 392.079 205.2 392.079Z" fill="#262626"/>
<path opacity="0.5" d="M205.144 249.098C308.464 249.098 398.895 196.558 398.895 132.83C375.882 66.8732 308.76 0.916071 205.144 0C160.232 0 127.532 11.9089 94.9306 30.2304C56.5754 55.8803 30.6857 84.2786 14.3848 124.586C14.3848 188.313 101.824 249.098 205.144 249.098Z" fill="url(#paint0_linear_2387_11245)"/>
<path d="M371.934 199.017C372.465 110.986 298.197 39.2118 206.053 38.7047C113.909 38.1977 38.7807 109.15 38.25 197.18C37.7193 285.211 111.987 356.985 204.131 357.492C296.276 357.999 371.403 287.047 371.934 199.017Z" fill="#262626" stroke="#0A0A0A" stroke-width="5.02414" stroke-miterlimit="10"/>
<path d="M205.201 53.0052C247.798 53.0709 288.761 68.6702 319.727 96.6175C350.692 124.565 369.323 162.752 371.816 203.38C371.988 200.357 372.084 197.316 372.084 194.219C372.321 173.128 368.177 152.202 359.893 132.651C351.609 113.1 339.349 95.3131 323.823 80.319C308.297 65.3249 289.813 53.4216 269.44 45.2978C249.067 37.174 227.21 32.9911 205.134 32.9911C183.058 32.9911 161.201 37.174 140.828 45.2978C120.455 53.4216 101.971 65.3249 86.4443 80.319C70.9181 95.3131 58.6582 113.1 50.3743 132.651C42.0904 152.202 37.9468 173.128 38.1834 194.219C38.1834 197.279 38.2985 200.32 38.4711 203.38C40.9599 162.731 59.6058 124.526 90.5968 96.5749C121.588 68.6238 162.583 53.0385 205.201 53.0052V53.0052Z" fill="#0A0A0A"/>
<path d="M261.696 196.882C261.761 203.569 260.031 210.161 256.671 216.028C253.069 221.967 247.739 226.778 241.329 229.879C234.413 233.421 225.815 235.186 215.535 235.174H196.569V278.248H165.885V158.261H215.459C224.224 158.002 232.932 159.702 240.888 163.226C247.405 166.174 252.834 170.939 256.46 176.893C260.012 183.002 261.818 189.896 261.696 196.882V196.882ZM213.177 211.924C219.019 211.924 223.373 210.617 226.237 208.003C229.009 204.907 230.533 200.966 230.533 196.891C230.533 192.816 229.009 188.876 226.237 185.779C223.386 183.153 219.032 181.84 213.177 181.84H196.531V211.924H213.177Z" fill="white"/>
<path d="M262.329 125.062H165.924V144.373H262.329V125.062Z" fill="#E50913"/>
</g>
<defs>
<linearGradient id="paint0_linear_2387_11245" x1="206.64" y1="0" x2="206.64" y2="249.098" gradientUnits="userSpaceOnUse">
<stop stop-color="white" stop-opacity="0.59"/>
<stop offset="0.9999" stop-color="white" stop-opacity="0"/>
</linearGradient>
<clipPath id="clip0_2387_11245">
<rect width="410.4" height="410.4" fill="white"/>
</clipPath>
</defs>
</svg>
