<svg width="217" height="267" viewBox="0 0 217 267" fill="none" xmlns="http://www.w3.org/2000/svg">
<path d="M92.7943 17.7841C92.7416 17.6699 92.7943 17.5381 92.8909 17.4766L103.267 11.1335C103.732 10.7118 104.523 10.7908 105.34 11.4761L109.197 14.7092C109.39 14.8673 128.112 30.3473 148.784 26.552C149.206 26.4729 149.645 26.4553 150.111 26.4993C152.158 26.6925 154.46 28.0367 156.507 30.2155C156.99 30.7251 157.447 31.2874 157.877 31.876C177.741 58.865 196.665 65.4014 197.456 65.6649L201.286 66.9037C202.586 67.3254 203.808 69.1879 203.79 70.7078L203.72 75.1972C202.806 133.216 186.65 155.804 173.234 164.546L160.671 172.224L159.819 169.738C157.306 170.098 155.646 169.975 155.312 169.949H155.277C154.02 169.834 152.606 169.017 151.35 167.673L151.314 167.638C149.584 165.793 112.509 125.441 104.417 43.7276L98.8211 31.4894L92.8031 17.7841H92.7943Z" fill="#150035"/>
<path d="M159.23 170.678C156.998 170.933 155.522 170.827 155.188 170.801C153.712 170.669 152.122 169.764 150.673 168.227C149.082 166.54 111.718 125.969 103.556 43.9562L98.0124 31.8323L91.9943 18.1269C91.7747 17.6261 91.9592 17.0287 92.4336 16.7388L102.748 10.4308C103.574 9.76314 104.795 9.90371 105.884 10.8174L109.732 14.0505C110.497 14.6742 128.612 29.3811 148.617 25.7088C149.126 25.6121 149.653 25.5946 150.181 25.6473C152.447 25.8669 154.916 27.2814 157.121 29.6271C157.604 30.1455 158.087 30.7253 158.553 31.3666C178.25 58.136 196.928 64.5845 197.71 64.8481L201.54 66.0868C203.192 66.6228 204.668 68.8279 204.633 70.7256L204.563 75.215C203.64 133.612 187.264 156.419 173.664 165.284L160.187 173.524L159.221 170.687L159.23 170.678ZM148.933 27.3956C128.164 31.2085 109.433 16.0184 108.634 15.3683L104.777 12.1352C104.303 11.7311 103.925 11.6784 103.828 11.775L93.7865 17.9336L99.585 31.1382L105.181 43.3764L105.252 43.6487C113.325 125.178 150.347 165.38 151.955 167.093C153.062 168.271 154.292 169 155.373 169.097C155.663 169.123 157.244 169.237 159.686 168.895L160.389 168.798L161.118 170.942L172.742 163.834C185.973 155.216 201.927 132.83 202.832 75.1886L202.902 70.6992C202.92 69.5571 201.945 68.0284 200.996 67.7209L197.156 66.4822C196.348 66.2098 177.17 59.5856 157.156 32.3857C156.726 31.8059 156.286 31.27 155.847 30.8044C153.958 28.7925 151.832 27.5362 150.005 27.3605C149.873 27.3517 149.75 27.3429 149.618 27.3429C149.381 27.3429 149.144 27.3605 148.915 27.4044L148.933 27.3956Z" fill="#150035"/>
<path d="M103.259 11.1252C103.724 10.7035 104.515 10.7825 105.332 11.4678L109.189 14.7009C109.382 14.859 128.104 30.339 148.776 26.5437C149.198 26.4646 149.637 26.447 150.103 26.491C152.15 26.6842 154.452 28.0284 156.499 30.2072C156.982 30.7168 157.439 31.2791 157.869 31.8677C177.733 58.8567 196.657 65.3931 197.448 65.6566L201.278 66.8954C201.964 67.115 202.623 67.7388 203.088 68.5031L171.917 86.1883L106.237 58.5316C105.525 53.7611 104.902 48.8237 104.401 43.7369L98.8045 31.4987L92.7865 17.7933C92.7338 17.6791 92.7865 17.5473 92.8831 17.4858L103.259 11.1427V11.1252Z" fill="white"/>
<path d="M105.463 59.138L105.393 58.6636C104.673 53.8316 104.058 48.8942 103.566 43.9655L98.0221 31.8415L92.0041 18.1274C91.7844 17.6266 91.9689 17.0292 92.4433 16.7393L102.757 10.4313C103.583 9.76363 104.805 9.9042 105.894 10.8179L109.742 14.0509C110.506 14.6747 128.622 29.3816 148.626 25.7093C149.136 25.6126 149.663 25.5951 150.19 25.6478C152.457 25.8674 154.926 27.2819 157.131 29.6276C157.614 30.1459 158.097 30.7258 158.563 31.3671C178.26 58.1365 196.938 64.585 197.72 64.8486L201.55 66.0873C202.394 66.3597 203.219 67.0801 203.826 68.0553L204.3 68.8108L171.987 87.1461L105.472 59.138H105.463ZM201.023 67.7214L197.184 66.4827C196.376 66.2103 177.197 59.5861 157.184 32.3862C156.753 31.8064 156.314 31.2705 155.875 30.8049C153.986 28.793 151.86 27.5367 150.032 27.3609C149.663 27.3258 149.294 27.3434 148.943 27.4049C128.174 31.2178 109.443 16.0277 108.644 15.3776L104.787 12.1445C104.313 11.7404 103.935 11.6877 103.838 11.7843L93.7963 17.9429L99.5947 31.1475L105.191 43.3857L105.261 43.658C105.736 48.4373 106.324 53.243 107.018 57.9344L171.864 85.2397L201.805 68.2573C201.541 67.9938 201.269 67.8093 201.014 67.7302L201.023 67.7214Z" fill="#150035"/>
<path d="M140.658 174.157C138.743 172.119 93.7878 123.184 92.2504 23.5035L92.1801 18.8999C92.1537 17.3448 93.3925 16.8968 94.6927 17.995L98.5496 21.228C98.7429 21.3862 117.465 36.8662 138.137 33.0709C138.559 32.9918 138.998 32.9742 139.464 33.0181C141.511 33.2114 143.812 34.5556 145.859 36.7256C146.343 37.2352 146.799 37.7974 147.23 38.3861C167.094 65.3751 186.018 71.9115 186.808 72.175L190.639 73.4138C191.939 73.8355 193.16 75.698 193.143 77.2179L193.073 81.7073C191.526 179.604 146.58 176.634 144.665 176.467H144.629C143.373 176.353 141.959 175.527 140.702 174.192L140.667 174.157H140.658ZM180.562 81.1538C172.146 76.4711 158.484 66.8774 144.243 48.6036C143.241 47.3121 141.985 46.5829 140.975 46.6971C126.505 48.3488 113.028 42.3132 104.717 37.3582C103.636 36.7168 102.775 37.2615 102.828 38.5442C105.842 105.859 129.369 145.156 139.78 159.406C141.493 161.752 144.638 164.783 146.351 164.396C156.692 162.059 179.446 148.002 182.477 84.5362C182.539 83.315 181.651 81.7512 180.562 81.145V81.1538Z" fill="#DE5656"/>
<path d="M144.54 177.321C143.064 177.189 141.474 176.284 140.06 174.782L140.025 174.747C138.101 172.7 92.9257 123.527 91.3794 23.5221L91.3091 18.9185C91.2916 17.8818 91.7133 17.0736 92.4688 16.7134C93.2946 16.318 94.2962 16.5464 95.2362 17.3371L99.0843 20.5702C99.8486 21.194 117.973 35.9009 137.969 32.2285C138.478 32.1319 139.005 32.1143 139.533 32.167C141.808 32.3867 144.268 33.8011 146.473 36.1468C146.965 36.6652 147.448 37.2538 147.914 37.8864C167.611 64.6557 186.289 71.1043 187.071 71.3678L190.901 72.6066C192.553 73.1425 194.029 75.3476 194.003 77.2453L193.932 81.7347C193.098 134.518 179.436 157.72 168.121 167.885C158.553 176.477 149.302 177.373 145.849 177.373C145.19 177.373 144.751 177.338 144.549 177.321H144.54ZM138.276 33.9153C117.507 37.7282 98.7768 22.5381 97.9861 21.888L94.1293 18.655C93.6724 18.2684 93.321 18.2157 93.2068 18.2684C93.1189 18.3123 93.0223 18.5232 93.0311 18.8922L93.1014 23.4958C94.6388 122.851 139.374 171.549 141.281 173.578L141.316 173.613C142.423 174.79 143.653 175.52 144.734 175.616C145.19 175.66 155.944 176.512 166.961 166.602C178.022 156.666 191.376 133.868 192.202 81.6995L192.272 77.2102C192.289 76.0681 191.305 74.5394 190.365 74.2319L186.526 72.9931C185.718 72.7208 166.539 66.0965 146.526 38.8967C146.104 38.3169 145.656 37.7897 145.217 37.3153C143.328 35.3034 141.202 34.0471 139.366 33.8714C139.234 33.8626 139.111 33.8538 138.979 33.8538C138.742 33.8538 138.505 33.8714 138.276 33.9153ZM139.085 159.917C128.929 146.027 104.997 106.396 101.966 38.5892C101.922 37.6404 102.273 36.876 102.915 36.4895C103.547 36.1117 104.364 36.1644 105.146 36.63C113.686 41.7168 126.802 47.4625 140.868 45.846C142.168 45.6967 143.706 46.5313 144.909 48.0775C158.861 65.9823 172.215 75.5409 180.965 80.3993C182.335 81.1636 183.399 83.0349 183.319 84.5812C180.086 152.431 154.345 163.466 146.526 165.232C146.368 165.267 146.201 165.285 146.034 165.285C143.653 165.285 140.499 161.849 139.076 159.908L139.085 159.917ZM181.606 84.5021C181.65 83.6148 180.93 82.3497 180.13 81.9016C171.239 76.9642 157.683 67.265 143.556 49.1318C142.634 47.9545 141.667 47.4713 141.061 47.5504C126.548 49.2109 113.036 43.3246 104.268 38.0972C103.978 37.9215 103.82 37.9391 103.793 37.9567C103.749 37.983 103.662 38.1587 103.679 38.5014C106.692 105.842 130.413 145.131 140.473 158.889C142.388 161.516 145.155 163.773 146.157 163.554C153.668 161.849 178.435 151.131 181.615 84.4933L181.606 84.5021Z" fill="#150035"/>
<path d="M104.716 37.3679C113.027 42.3229 126.504 48.3585 140.974 46.7068C141.984 46.5926 143.24 47.3218 144.242 48.6133C158.483 66.8871 172.145 76.4808 180.561 81.1635C181.651 81.7697 182.538 83.3335 182.476 84.5547C179.454 148.021 156.691 162.069 146.351 164.415C144.646 164.801 141.492 161.77 139.779 159.425C129.368 145.183 105.832 105.877 102.827 38.5627C102.766 37.28 103.636 36.7353 104.716 37.3766V37.3679Z" fill="#DE5656"/>
<path d="M104.714 37.3669C106.234 38.2718 107.938 39.2206 109.783 40.1431C113.324 105.692 136.324 144.093 146.586 158.132C147.781 159.775 149.678 161.725 151.295 162.63C149.467 163.509 147.781 164.071 146.349 164.396C144.644 164.783 141.49 161.752 139.777 159.406C129.366 145.165 105.83 105.858 102.825 38.5441C102.764 37.2615 103.634 36.7168 104.714 37.3581V37.3669Z" fill="#150035"/>
<path d="M139.083 159.916C128.936 146.026 104.996 106.404 101.965 38.5886C101.921 37.6398 102.272 36.8755 102.913 36.4889C103.546 36.1111 104.363 36.1638 105.145 36.6295C106.77 37.5959 108.457 38.5271 110.161 39.3793L110.61 39.599L110.636 40.0997C114.185 105.789 137.44 144.173 147.271 157.623C148.326 159.064 150.162 161.014 151.708 161.884L153.149 162.692L151.655 163.404C149.907 164.247 148.185 164.862 146.525 165.231C146.366 165.266 146.199 165.284 146.033 165.284C143.652 165.284 140.498 161.849 139.074 159.907L139.083 159.916ZM145.883 158.642C135.982 145.104 112.613 106.536 108.949 40.6884C107.359 39.8801 105.786 39.0103 104.266 38.1054C103.976 37.9297 103.818 37.9473 103.792 37.9649C103.748 37.9912 103.66 38.1669 103.678 38.5096C106.691 105.859 130.412 145.139 140.471 158.897C142.387 161.524 145.154 163.782 146.156 163.562C147.254 163.316 148.387 162.947 149.538 162.473C148.159 161.383 146.788 159.881 145.883 158.633V158.642Z" fill="#DE5656"/>
<path d="M202.672 67.7418L191.783 73.9199L192.633 75.4176L203.522 69.2395L202.672 67.7418Z" fill="#150035"/>
<path d="M196.043 64.6588L185.154 70.8369L186.004 72.3346L196.893 66.1565L196.043 64.6588Z" fill="#150035"/>
<path d="M151.308 26.1763L140.418 32.3525L141.267 33.8504L152.157 27.6742L151.308 26.1763Z" fill="#150035"/>
<path d="M160.214 35.1451L149.324 41.3213L150.174 42.8191L161.064 36.6429L160.214 35.1451Z" fill="#150035"/>
<path d="M108.6 13.5708L97.0918 20.4146L97.972 21.8946L109.48 15.0508L108.6 13.5708Z" fill="#150035"/>
<path d="M193.643 93.3667L202.173 88.2272L202.244 86.189L193.669 91.3636L193.643 93.3667Z" fill="#DE5656"/>
<path d="M179.418 152.501L187.94 147.37L189.469 144.418L180.885 149.602L179.418 152.501Z" fill="#DE5656"/>
<path d="M128.393 33.8445L139.551 27.6683L138.725 26.166L125.072 33.7127L128.393 33.8445Z" fill="#150035"/>
<path d="M144.948 155.015L139.43 158.436L140.337 159.899L145.855 156.479L144.948 155.015Z" fill="#DE5656"/>
<path d="M109.92 46.086L103.188 50.2993L104.101 51.759L110.833 47.5456L109.92 46.086Z" fill="#DE5656"/>
<path d="M110.889 55.6802L104.156 59.8936L105.07 61.3532L111.802 57.1399L110.889 55.6802Z" fill="#DE5656"/>
<path d="M139.083 159.916C128.936 146.026 104.996 106.403 101.965 38.5882C101.921 37.6393 102.272 36.875 102.913 36.4884C103.546 36.1106 104.363 36.1634 105.145 36.629C113.684 41.7158 126.801 47.4615 140.867 45.8537C142.167 45.7044 143.704 46.539 144.908 48.0853C158.859 65.9901 172.222 75.5487 180.964 80.407C182.334 81.1714 183.397 83.0427 183.318 84.5889C180.085 152.439 154.344 163.474 146.525 165.24C146.366 165.275 146.199 165.292 146.033 165.292C143.652 165.292 140.498 161.857 139.074 159.916H139.083ZM141.06 47.5581C126.546 49.2186 113.034 43.3323 104.266 38.105C103.976 37.9292 103.818 37.9468 103.792 37.9644C103.748 37.9907 103.66 38.1664 103.678 38.5091C106.691 105.859 130.412 145.138 140.471 158.896C142.387 161.523 145.154 163.781 146.156 163.562C153.667 161.857 178.433 151.139 181.614 84.5011C181.658 83.6137 180.937 82.3486 180.138 81.9006C171.247 76.9631 157.691 67.264 143.564 49.1307C142.703 48.0238 141.772 47.5493 141.183 47.5493C141.148 47.5493 141.104 47.5493 141.069 47.5493L141.06 47.5581Z" fill="#150035"/>
<path d="M163.209 98.1099C163.209 96.59 162.287 94.8241 161.144 94.1564L137.336 80.4072C136.897 80.1524 136.492 80.1085 136.159 80.2227C129.842 81.2066 127.443 85.4852 127.443 85.4852L135.271 99.6913V101C135.271 106.21 138.443 112.263 142.344 114.521L143.951 115.452L150.971 128.191C155.091 127.638 159.212 124.308 160.978 122.709C161.303 122.481 161.522 122.226 161.522 122.226L161.882 121.848C162.708 120.785 163.2 119.177 163.2 117.139V98.1099H163.209Z" fill="white"/>
<path d="M150.496 129.141L143.31 116.094L141.913 115.286C137.704 112.852 134.401 106.588 134.401 101.01V99.9202L126.441 85.4857L126.679 85.064C126.784 84.8707 129.349 80.434 135.956 79.3798C136.369 79.2568 137.002 79.2216 137.775 79.6609L161.583 93.4102C162.989 94.2184 164.087 96.283 164.087 98.1104V117.14C164.087 119.31 163.569 121.12 162.585 122.385L162.172 122.824C162.172 122.824 161.9 123.14 161.487 123.421C159.492 125.231 155.363 128.473 151.102 129.044L150.514 129.123L150.496 129.141ZM128.453 85.5296L136.141 99.4722V101.01C136.141 105.938 139.119 111.658 142.782 113.775L144.601 114.829L151.436 127.234C155.187 126.479 158.921 123.404 160.397 122.068C160.705 121.849 160.863 121.673 160.863 121.673L161.258 121.26C161.944 120.364 162.339 118.923 162.339 117.149V98.1192C162.339 96.9156 161.575 95.4308 160.705 94.9213L136.896 81.172C136.712 81.0666 136.545 81.0227 136.439 81.0578L136.281 81.0929C131.519 81.8309 129.174 84.5193 128.444 85.5384L128.453 85.5296Z" fill="#150035"/>
<path d="M161.066 122.736C161.391 122.517 161.61 122.253 161.61 122.253L161.971 121.875C162.796 120.812 163.288 119.204 163.288 117.166V98.1369C163.288 97.2847 162.542 95.6506 162.085 94.8862L152.122 101.071C152.122 101.071 148.502 109.742 144.83 116.929L151.05 128.218C155.171 127.665 159.291 124.335 161.057 122.736H161.066Z" fill="#150035"/>
<path d="M134.139 119.406L147.932 127.366C151.841 129.624 155.004 127.225 155.004 122.016V102.986C155.004 101.466 154.082 99.6918 152.94 99.0329L129.131 85.2836C127.989 84.6247 127.066 85.3275 127.066 86.8474V105.877C127.066 111.087 130.238 117.14 134.139 119.398V119.406Z" fill="white"/>
<path d="M150.743 129.087C149.715 129.087 148.608 128.762 147.492 128.121L133.699 120.161C129.491 117.728 126.188 111.464 126.188 105.885V86.8557C126.188 85.7399 126.609 84.8526 127.338 84.4309C127.989 84.0619 128.797 84.0971 129.561 84.5363L153.37 98.2856C154.775 99.0939 155.874 101.158 155.874 102.986V122.024C155.874 125.081 154.819 127.445 152.992 128.499C152.307 128.894 151.542 129.087 150.743 129.087ZM128.314 85.9156C128.314 85.9156 128.243 85.9156 128.217 85.942C128.085 86.0211 127.936 86.3374 127.936 86.8557V105.885C127.936 110.814 130.914 116.533 134.578 118.65L148.371 126.61C149.812 127.445 151.112 127.576 152.131 126.979C153.405 126.241 154.143 124.431 154.143 122.006V102.968C154.143 101.765 153.379 100.28 152.509 99.7703L128.7 86.0211C128.551 85.9332 128.419 85.8893 128.314 85.8893V85.9156Z" fill="#150035"/>
<path d="M143.512 115.98V106.123H141.79V113.002L140.42 112.211L139.559 113.696L143.512 115.98Z" fill="white"/>
<path d="M142.219 109.048C140.26 107.914 138.723 105.252 138.723 102.995C138.723 101.729 139.197 100.763 140.049 100.262C140.901 99.7703 141.982 99.8406 143.08 100.473C145.039 101.607 146.577 104.269 146.577 106.526C146.577 107.791 146.102 108.758 145.25 109.259C144.881 109.47 144.46 109.584 144.02 109.584C143.449 109.584 142.834 109.408 142.219 109.048ZM140.91 101.747C140.612 101.923 140.445 102.371 140.445 102.986C140.445 104.637 141.648 106.728 143.08 107.554C143.616 107.862 144.091 107.941 144.389 107.765C144.688 107.589 144.855 107.141 144.855 106.526C144.855 104.875 143.651 102.784 142.219 101.958C141.868 101.756 141.552 101.65 141.279 101.65C141.139 101.65 141.007 101.677 140.91 101.738V101.747Z" fill="white"/>
<path d="M138.125 103.091C138.125 105.05 139.496 107.422 141.191 108.406C142.887 109.381 144.257 108.59 144.257 106.631C144.257 104.672 142.887 102.3 141.191 101.316C139.496 100.341 138.125 101.131 138.125 103.091Z" fill="#DE5656"/>
<path d="M140.762 109.144C138.803 108.011 137.266 105.349 137.266 103.091C137.266 101.826 137.74 100.859 138.592 100.359C139.444 99.8665 140.525 99.9368 141.623 100.569C143.582 101.703 145.12 104.365 145.12 106.623C145.12 107.888 144.645 108.854 143.793 109.355C143.424 109.566 143.003 109.68 142.563 109.68C141.992 109.68 141.377 109.495 140.762 109.144ZM139.453 101.843C139.155 102.019 138.988 102.467 138.988 103.082C138.988 104.734 140.191 106.825 141.623 107.65C142.159 107.958 142.634 108.037 142.932 107.861C143.231 107.686 143.398 107.238 143.398 106.623C143.398 104.971 142.194 102.88 140.762 102.054C140.411 101.852 140.095 101.747 139.822 101.747C139.682 101.747 139.55 101.773 139.453 101.834V101.843Z" fill="#150035"/>
<path d="M142.053 116.076V108.379L140.331 107.334V113.097L138.961 112.307L138.1 113.791L142.053 116.076Z" fill="#150035"/>
<path d="M162.41 103.3L155.488 107.508L156.182 108.649L163.103 104.441L162.41 103.3Z" fill="#DE5656"/>
<path d="M162.415 117.311L155.494 121.52L156.188 122.661L163.109 118.452L162.415 117.311Z" fill="#DE5656"/>
<path d="M153.362 95.7028C152.026 95.7028 150.946 94.6222 150.946 93.2868V82.8496C150.946 79.9065 148.863 76.3044 146.316 74.8373L141.905 72.2895C141.071 71.8063 140.447 71.736 140.192 71.8766C139.946 72.0171 139.691 72.597 139.691 73.5634V84.0005C139.691 85.3359 138.611 86.4165 137.275 86.4165C135.94 86.4165 134.859 85.3359 134.859 84.0005V73.5634C134.859 70.9014 135.922 68.7665 137.776 67.6947C139.63 66.6228 142.02 66.7722 144.321 68.0988L148.732 70.6466C152.606 72.8869 155.778 78.369 155.778 82.8408V93.278C155.778 94.6134 154.697 95.694 153.362 95.694V95.7028Z" fill="#150035"/>
<path d="M138.039 76.1817H137.037V72.7817C137.037 71.4112 137.749 70.1724 138.935 69.4872C140.121 68.7931 141.544 68.7843 142.739 69.4608L147.36 72.0789L146.868 72.9487L142.247 70.3306C141.368 69.8298 140.314 69.8386 139.444 70.3482C138.566 70.8577 138.047 71.7626 138.047 72.7729V76.1729L138.039 76.1817Z" fill="#DE5656"/>
<path d="M153.141 83.8775C153.071 80.214 151.463 77.4026 151.445 77.3763L152.315 76.8667C152.385 76.9897 154.063 79.9153 154.142 83.8512L153.141 83.8687V83.8775Z" fill="#DE5656"/>
<path d="M168.932 199.424C167.491 195.98 165.453 195.198 160.797 192.51C147.32 184.735 125.479 184.735 112.002 192.51C107.32 195.216 103.99 198.071 102.567 201.533L101.925 201.963V207.691C102.092 209.387 102.672 211.074 103.586 212.708L97.6381 216.143L96.8035 220.914L56.1619 244.38C54.5014 245.337 53.1397 246.444 52.0679 247.665L48.457 248.289V252.831C48.457 252.831 48.9051 253.552 49.4059 253.841L52.5511 255.66C53.3593 256.126 54.4839 256.337 55.4854 256.205L63.3221 255.212C66.476 254.808 69.2874 253.929 71.4926 252.664C72.2393 252.234 72.661 251.654 72.7577 251.03V250.986C72.784 250.846 72.661 248.201 72.661 248.201C73.3639 246.945 75.5866 246.154 78.1959 246.497L78.7581 246.567C80.445 246.787 82.1054 246.532 83.2212 245.891C83.8977 245.504 84.4687 244.441 84.4687 244.441V239.899L83.4759 239.952C83.5902 239.345 84.0031 238.783 84.7323 238.361L86.7266 237.219C87.8423 236.578 89.5028 236.332 91.1896 236.552L94.9674 237.044C96.6542 237.263 98.3146 237.017 99.4304 236.376L100.985 235.489C100.985 235.489 100.994 235.497 101.003 235.506C102.751 236.517 105.598 236.517 107.346 235.506C108.075 235.084 108.488 234.549 108.602 233.995V233.96C108.646 233.767 108.602 231.122 108.602 231.122L111.528 229.444L119.865 229.005L125.813 225.57C137.735 227.784 151.317 226.167 160.779 220.703C167.421 216.863 170.777 211.856 170.865 206.822V201.673L168.915 199.442L168.932 199.424ZM160.375 212.225L126.648 192.756C136.004 190.507 147.197 191.579 154.805 195.972C162.422 200.364 164.267 206.822 160.375 212.233V212.225Z" fill="#150035"/>
<path d="M54.8701 257.057C53.8861 257.057 52.9021 256.811 52.1202 256.363L48.975 254.544C48.3249 254.175 47.8329 253.402 47.7363 253.253L47.6133 253.051V247.569L51.6282 246.875C52.744 245.653 54.1233 244.564 55.7311 243.642L96.0388 220.369L96.8735 215.598L102.461 212.374C101.688 210.819 101.231 209.273 101.082 207.762V201.506L101.89 200.971C103.322 197.694 106.414 194.768 111.58 191.79C125.259 183.892 147.522 183.883 161.21 191.79L162.844 192.721C166.34 194.698 168.291 195.805 169.652 198.985L171.726 201.357V206.813C171.62 212.383 167.886 217.558 161.21 221.414C151.95 226.765 138.473 228.68 125.98 226.431L120.129 229.813L111.791 230.253L109.463 231.588C109.489 233.846 109.463 234.013 109.445 234.101C109.314 234.724 108.927 235.541 107.776 236.2C105.896 237.29 103.023 237.36 101.011 236.42L99.8517 237.079C98.5691 237.817 96.7505 238.089 94.8704 237.852L91.0926 237.36C89.5903 237.167 88.1143 237.369 87.1567 237.922L85.2591 239.012H85.3118V244.643L85.2063 244.828C85.1361 244.959 84.4947 246.11 83.6425 246.602C82.3598 247.34 80.5413 247.63 78.6524 247.384L78.0901 247.314C75.841 247.024 74.1191 247.639 73.5041 248.421C73.6271 250.881 73.6095 250.995 73.6007 251.074L73.5656 251.25C73.4514 252.041 72.854 252.831 71.9139 253.376C69.6209 254.703 66.6866 255.616 63.4271 256.029L55.5905 257.022C55.3533 257.048 55.1161 257.066 54.8789 257.066L54.8701 257.057ZM49.2825 252.559C49.4407 252.77 49.6515 253.007 49.8097 253.104L52.9549 254.922C53.5962 255.291 54.5538 255.467 55.3709 255.361L63.2075 254.369C66.2473 253.982 68.9708 253.139 71.0705 251.926C71.4219 251.724 71.8524 251.382 71.9227 250.89C71.9315 250.635 71.8173 248.228 71.8173 248.228V247.99L71.9227 247.78C72.8276 246.154 75.4457 245.284 78.301 245.653L78.8632 245.724C80.3655 245.917 81.8415 245.706 82.7991 245.153C83.0715 244.995 83.4141 244.547 83.625 244.204V240.76L82.4565 240.821L82.6498 239.785C82.764 239.161 83.1505 238.291 84.319 237.624L86.3133 236.481C87.596 235.743 89.4234 235.471 91.2947 235.708L95.0724 236.2C96.5835 236.402 98.0507 236.192 99.0083 235.638L100.994 234.505L101.416 234.759C102.918 235.629 105.439 235.629 106.933 234.759C107.416 234.478 107.715 234.136 107.794 233.802C107.803 233.644 107.794 232.3 107.785 231.122V230.63L111.308 228.61L119.637 228.17L125.672 224.683L125.971 224.744C138.174 227.002 151.361 225.183 160.366 219.974C166.516 216.424 169.951 211.75 170.039 206.804V201.99L168.15 199.758C167.008 197.008 165.435 196.121 162.009 194.179L160.366 193.239C147.144 185.605 125.628 185.605 112.406 193.239C107.451 196.103 104.561 198.836 103.322 201.849L103.225 202.086L102.742 202.411V207.691C102.883 209.132 103.41 210.705 104.297 212.295L104.701 213.015L98.3846 216.661L97.5499 221.432L97.2161 221.625L56.5745 245.091C55.0282 245.987 53.7192 247.033 52.6913 248.201L52.498 248.421L49.2913 248.974V252.559H49.2825ZM160.603 213.332L124.407 192.44L126.437 191.948C136.32 189.576 147.618 190.867 155.209 195.251C159.514 197.737 162.202 200.927 162.958 204.476C163.564 207.287 162.896 210.134 161.034 212.717L160.595 213.332H160.603ZM128.94 193.125L160.103 211.118C161.359 209.106 161.781 206.945 161.324 204.827C160.665 201.752 158.258 198.941 154.374 196.692C147.662 192.818 137.884 191.482 128.932 193.116L128.94 193.125Z" fill="#150035"/>
<path d="M111.993 187.969C102.531 193.434 99.7459 201.27 103.568 208.158L97.6198 211.593L96.7851 216.364L56.1435 239.83C54.3337 240.875 52.8578 242.096 51.7508 243.449L48.6319 247.28C48.1136 247.912 48.4211 248.729 49.3963 249.292L52.5415 251.11C53.3497 251.576 54.4743 251.787 55.4758 251.655L63.3125 250.662C66.4665 250.258 69.2778 249.38 71.483 248.114C72.5548 247.499 73.0029 246.586 72.6954 245.646L72.5109 245.083C71.852 243.054 74.6809 241.49 78.1863 241.938L78.7486 242.009C80.4354 242.228 82.0958 241.973 83.2116 241.332C84.301 240.7 84.749 239.768 84.4064 238.811L83.5191 236.324C83.1764 235.367 83.6245 234.427 84.7227 233.794L86.717 232.652C87.8327 232.011 89.4932 231.765 91.18 231.984L94.9578 232.476C96.6446 232.696 98.305 232.45 99.4208 231.809L100.976 230.921C100.976 230.921 100.985 230.93 100.993 230.939C102.742 231.949 105.588 231.949 107.337 230.939C109.085 229.928 109.085 228.294 107.337 227.284L111.518 224.894L119.856 224.455L125.804 221.02C137.725 223.234 151.308 221.617 160.77 216.153C174.247 208.378 174.247 195.762 160.77 187.978C147.293 180.203 125.452 180.203 111.975 187.978L111.993 187.969ZM160.366 207.684L126.638 188.215C135.995 185.966 147.187 187.038 154.796 191.431C162.404 195.823 164.258 202.281 160.366 207.692V207.684Z" fill="#DE5656"/>
<path d="M54.8607 252.515C53.8855 252.515 52.8927 252.269 52.1108 251.821L48.9656 250.012C48.1837 249.563 47.6917 248.94 47.5687 248.272C47.4721 247.736 47.6127 247.2 47.9729 246.761L51.0917 242.93C52.2602 241.498 53.8152 240.216 55.7129 239.118L96.0207 215.845L96.8553 211.074L102.443 207.85C98.8232 200.461 102.25 192.634 111.562 187.266C125.241 179.359 147.512 179.359 161.191 187.266C167.974 191.184 171.716 196.446 171.716 202.069C171.716 207.692 167.982 212.963 161.191 216.873C151.931 222.223 138.455 224.138 125.962 221.889L120.11 225.272L111.773 225.711L108.812 227.398C109.252 227.907 109.48 228.487 109.48 229.102C109.48 230.104 108.865 231.009 107.749 231.65C105.869 232.73 102.996 232.81 100.984 231.87L99.8248 232.528C98.5421 233.266 96.7235 233.539 94.8434 233.302L91.0656 232.81C89.5545 232.607 88.0874 232.818 87.1297 233.372L85.1354 234.514C84.6171 234.813 84.046 235.322 84.3008 236.034L85.1882 238.52C85.6626 239.864 85.0652 241.208 83.6243 242.043C82.3417 242.781 80.5231 243.071 78.6342 242.825L78.0719 242.755C75.7965 242.456 74.1097 243.106 73.5035 243.835C73.2487 244.143 73.1784 244.459 73.3014 244.811L73.4859 245.373C73.9164 246.691 73.3014 248.008 71.8957 248.826C69.6027 250.152 66.6684 251.066 63.409 251.479L55.5723 252.471C55.3351 252.498 55.0979 252.515 54.8607 252.515ZM98.3752 212.12L97.5405 216.89L97.2067 217.084L56.5651 240.55C54.8431 241.542 53.4374 242.693 52.4008 243.976L49.2819 247.806C49.2116 247.894 49.2204 247.938 49.2292 247.965C49.2556 248.096 49.4225 248.333 49.8178 248.562L52.963 250.372C53.6132 250.741 54.562 250.925 55.379 250.811L63.2157 249.818C66.2555 249.432 68.979 248.588 71.0787 247.376C71.5882 247.086 72.1417 246.594 71.9133 245.891L71.7288 245.329C71.4389 244.424 71.6146 243.519 72.2384 242.772C73.3541 241.428 75.735 240.769 78.3091 241.103L78.8714 241.173C80.3737 241.367 81.8497 241.156 82.8073 240.602C83.3256 240.304 83.8879 239.794 83.6331 239.082L82.7458 236.596C82.2626 235.243 82.8688 233.89 84.3272 233.064L86.3215 231.922C87.6042 231.184 89.4315 230.912 91.3029 231.149L95.0806 231.641C96.5917 231.834 98.0589 231.632 99.0165 231.079L101.002 229.945L101.424 230.2C102.926 231.07 105.447 231.07 106.941 230.2C107.512 229.875 107.837 229.471 107.837 229.093C107.837 228.716 107.512 228.311 106.95 227.986L105.693 227.257L111.307 224.05L119.636 223.611L125.672 220.123L125.97 220.176C138.173 222.434 151.36 220.615 160.366 215.406C166.612 211.795 170.056 207.051 170.056 202.043C170.056 197.035 166.612 192.291 160.366 188.68C147.143 181.046 125.628 181.046 112.406 188.68C103.673 193.723 100.563 201.024 104.297 207.736L104.692 208.456L98.3752 212.102V212.12ZM160.603 208.79L124.407 187.898L126.436 187.406C136.32 185.034 147.618 186.326 155.208 190.71C159.513 193.196 162.202 196.385 162.957 199.934C163.563 202.746 162.896 205.592 161.033 208.175L160.594 208.79H160.603ZM128.94 188.583L160.102 206.576C161.358 204.564 161.78 202.403 161.323 200.286C160.664 197.211 158.257 194.399 154.374 192.15C147.67 188.276 137.892 186.941 128.931 188.583H128.94Z" fill="#150035"/>
<path d="M111.133 213.482C110.676 213.218 110.255 212.937 109.842 212.656L60.4937 241.147C59.7469 241.578 59.7469 242.28 60.4937 242.711C61.2404 243.141 62.4616 243.141 63.2084 242.711L112.556 214.22C112.064 213.982 111.59 213.736 111.133 213.473V213.482Z" fill="#150035"/>
<path d="M116.403 215.994L99.957 225.497L100.792 226.942L117.238 217.439L116.403 215.994Z" fill="#150035"/>
<path d="M126.639 188.215C123.617 188.944 120.779 190.007 118.319 191.43C108.242 197.246 108.242 206.673 118.319 212.489C128.396 218.305 144.729 218.305 154.797 212.489C157.257 211.066 159.102 209.432 160.367 207.683L126.639 188.206V188.215Z" fill="white"/>
<path d="M136.557 217.673C129.801 217.673 123.045 216.188 117.897 213.218C112.758 210.249 109.92 206.252 109.92 201.964C109.92 197.677 112.749 193.68 117.897 190.71C120.357 189.287 123.23 188.18 126.437 187.407L126.762 187.328L127.052 187.495L161.579 207.429L161.034 208.176C159.663 210.082 157.704 211.778 155.209 213.218C150.07 216.188 143.305 217.673 136.549 217.673H136.557ZM126.507 189.111C123.59 189.84 120.972 190.868 118.732 192.16C114.128 194.822 111.598 198.301 111.598 201.964C111.598 205.628 114.137 209.116 118.732 211.778C128.563 217.453 144.552 217.453 154.374 211.778C156.334 210.644 157.924 209.362 159.11 207.938L126.498 189.111H126.507Z" fill="#150035"/>
<path d="M146.301 207.34L145.879 207.586C144.324 208.482 141.601 208.368 139.8 207.331L127.245 200.083C125.444 199.047 125.251 197.474 126.806 196.578L127.228 196.332C128.783 195.436 131.506 195.541 133.307 196.587L145.862 203.835C147.663 204.872 147.856 206.444 146.301 207.34Z" fill="#150035"/>
<path d="M124.79 201.904L123.955 203.35L134.942 209.693L135.776 208.248L124.79 201.904Z" fill="#150035"/>
<path d="M55.3079 256.319L53.6387 256.223V251.531L55.3079 251.681V256.319Z" fill="#DE5656"/>
<path d="M70.9124 252.929L69.2695 253.605L69.2344 249.169L70.9124 248.413V252.929Z" fill="#DE5656"/>
<path d="M82.72 246.075L81.0508 246.541V241.999L82.72 241.568V246.075Z" fill="#DE5656"/>
<path d="M100.994 234.488L99.5879 235.287L99.5176 231.712L100.958 230.71L100.994 234.488Z" fill="#DE5656"/>
<path d="M119.637 228.154L117.994 228.242V224.534L119.663 224.446L119.637 228.154Z" fill="#DE5656"/>
<path d="M127.543 224.991L125.672 224.674L125.821 221.002L127.666 221.345L127.543 224.991Z" fill="#DE5656"/>
<path d="M161.199 220.396L159.529 221.371V216.855L161.199 216.021V220.396Z" fill="#DE5656"/>
<path d="M145.325 192.317L143.656 192.08V187.644L145.396 187.933L145.325 192.317Z" fill="#DE5656"/>
<path d="M167.782 215.177L166.262 216.767L166.191 211.61L167.703 209.958L167.782 215.177Z" fill="#DE5656"/>
<path d="M129.08 169.545L128.615 165.152L125.918 165.02L125.891 165.222C125.373 164.897 124.819 164.59 124.196 164.317C123.528 164.027 122.113 161.638 122.078 160.715C122.052 160.021 121.911 159.336 121.692 158.659L121.455 154.996L120.286 154.363L119.381 154.873C117.106 152.413 113.469 150.313 108.777 149.03L49.4224 132.839C38.4318 129.843 25.8334 132.443 21.2826 138.646L14.7549 147.554L12.5059 148.082L13.0945 153.344C13.6919 157.895 18.5591 162.244 26.3254 164.361L85.6801 180.553C96.1875 183.417 108.145 181.159 113.152 175.536C113.179 175.536 113.196 175.554 113.223 175.563C119.082 177.162 125.83 175.773 128.255 172.461C128.94 171.521 129.177 170.529 129.072 169.545H129.08ZM123.343 168.684L118.424 169.764L117.519 169.72L119.636 166.839C119.82 166.593 120.146 166.478 120.435 166.575C121.867 167.058 122.878 167.831 123.352 168.692L123.343 168.684Z" fill="#150035"/>
<path d="M95.2393 182.653C92.0063 182.653 88.6853 182.231 85.4699 181.361L26.1152 165.17C18.2522 163.026 12.9457 158.537 12.278 153.459L11.6016 147.441L14.2723 146.817L20.6155 138.154C25.3421 131.706 38.3621 128.956 49.6515 132.04L109.006 148.231C113.425 149.435 117.054 151.368 119.549 153.836L120.296 153.423L122.272 154.486L122.536 158.51C122.773 159.257 122.905 159.986 122.931 160.689C122.958 161.322 124.126 163.29 124.574 163.571C124.969 163.746 125.374 163.948 125.786 164.177L129.38 164.361L129.924 169.457C130.056 170.713 129.731 171.899 128.958 172.962C126.357 176.503 119.619 178.023 113.452 176.485C109.63 180.439 102.698 182.661 95.2569 182.661L95.2393 182.653ZM13.4289 148.732L13.9385 153.256C14.5096 157.57 19.4646 161.62 26.5632 163.562L85.9179 179.754C96.0212 182.512 107.715 180.412 112.547 174.992L112.889 174.605L113.39 174.737C118.925 176.257 125.4 174.974 127.605 171.97C128.132 171.249 128.352 170.467 128.264 169.633L127.869 165.952L126.665 165.89L126.586 166.637L125.461 165.925C124.925 165.583 124.407 165.31 123.88 165.082C122.852 164.634 121.306 161.893 121.262 160.751C121.244 160.171 121.121 159.556 120.919 158.923L120.884 158.721L120.673 155.514L120.322 155.321L119.25 155.927L118.802 155.444C116.553 153.011 112.933 151.025 108.593 149.839L49.2386 133.647C38.5642 130.739 26.3436 133.199 21.9948 139.147L15.2827 148.301L13.4553 148.732H13.4289ZM118.486 170.608L115.92 170.476L118.951 166.338C119.347 165.793 120.067 165.565 120.691 165.776C122.272 166.312 123.476 167.199 124.073 168.28L124.609 169.255L118.486 170.599V170.608ZM120.155 167.366L119.206 168.737L121.763 168.174C121.332 167.849 120.779 167.577 120.155 167.366Z" fill="#150035"/>
<path d="M121.498 158.791C121.375 158.756 121.243 158.747 121.12 158.712C123.167 153.045 117.966 146.913 108.258 144.269L48.9035 128.077C37.9128 125.081 25.3144 127.682 20.7636 133.884L14.1393 142.933C9.59722 149.136 14.8158 156.604 25.8152 159.599L85.1699 175.791C95.6773 178.655 107.634 176.397 112.642 170.775C112.668 170.775 112.686 170.792 112.712 170.801C118.572 172.4 125.32 171.012 127.744 167.7C130.169 164.387 127.375 160.399 121.507 158.8L121.498 158.791ZM115.383 167.137L119.099 162.059C119.284 161.813 119.609 161.699 119.899 161.796C122.622 162.709 123.861 164.669 122.666 166.303C121.533 167.849 118.616 168.587 115.822 168.148C115.339 168.069 115.102 167.524 115.383 167.137Z" fill="#DE5656"/>
<path d="M94.7027 177.882C91.4696 177.882 88.1487 177.461 84.942 176.591L25.5873 160.399C18.6995 158.519 13.6654 154.785 12.1367 150.41C11.1791 147.678 11.636 144.919 13.4546 142.433L20.0788 133.384C24.8054 126.935 37.8255 124.185 49.1148 127.269L108.47 143.461C114.654 145.148 119.355 148.319 121.349 152.167C122.359 154.109 122.632 156.147 122.157 158.115C125.733 159.187 128.325 161.207 129.151 163.571C129.695 165.134 129.432 166.777 128.395 168.183C125.794 171.724 119.056 173.235 112.889 171.706C109.067 175.659 102.135 177.882 94.6851 177.882H94.7027ZM39.3981 127.664C31.6844 127.664 24.5506 130.133 21.4406 134.385L14.8163 143.434C13.3404 145.455 12.9626 147.678 13.7269 149.865C15.0711 153.722 19.6747 157.061 26.0354 158.791L85.3901 174.983C95.4934 177.742 107.187 175.642 112.019 170.221L112.361 169.835L112.862 169.966C118.397 171.486 124.872 170.204 127.077 167.199C127.798 166.215 127.973 165.187 127.604 164.124C126.928 162.183 124.565 160.487 121.296 159.6L120.04 159.301L120.356 158.431C120.998 156.648 120.839 154.75 119.899 152.94C118.116 149.505 113.802 146.641 108.057 145.077L48.7019 128.886C45.6621 128.06 42.4906 127.664 39.4157 127.664H39.3981ZM117.475 169.123C116.886 169.123 116.289 169.079 115.691 168.983C115.173 168.895 114.742 168.561 114.54 168.069C114.347 167.594 114.409 167.059 114.716 166.646L118.432 161.576C118.828 161.032 119.548 160.812 120.172 161.014C122.069 161.655 123.405 162.78 123.827 164.115C124.116 165.038 123.95 165.987 123.343 166.813C122.28 168.262 120.005 169.123 117.475 169.123ZM116.245 167.375C118.678 167.682 121.103 167.041 121.99 165.82C122.28 165.424 122.359 165.029 122.228 164.616C121.973 163.808 121.006 163.052 119.636 162.595L116.245 167.375Z" fill="#150035"/>
<path d="M86.9738 171.092L30.3426 155.647C23.244 153.714 19.8616 148.891 22.8047 144.885L28.9194 136.539C31.8537 132.533 39.9979 130.855 47.0965 132.787L103.728 148.232C110.826 150.165 114.209 154.988 111.266 158.994L105.151 167.341C102.217 171.347 94.0725 173.025 86.9738 171.092Z" fill="#150035"/>
<path d="M93.1572 172.743C91.0487 172.743 88.8699 172.471 86.7526 171.891L30.1214 156.446C25.5793 155.208 22.2584 152.721 21.2305 149.804C20.5804 147.942 20.8879 146.071 22.1266 144.384L28.2413 136.038C31.4129 131.706 39.7854 129.923 47.3146 131.979L103.946 147.424C108.488 148.662 111.809 151.149 112.837 154.065C113.487 155.928 113.179 157.799 111.941 159.486L105.826 167.832C103.542 170.942 98.5691 172.743 93.1572 172.743ZM40.9363 132.796C36.0516 132.796 31.5534 134.351 29.5943 137.022L23.4796 145.368C22.5747 146.607 22.3463 147.916 22.8207 149.251C23.6553 151.649 26.5545 153.74 30.5695 154.83L87.2007 170.275C93.9831 172.128 101.741 170.582 104.482 166.839L110.596 158.493C111.501 157.255 111.73 155.945 111.255 154.61C110.421 152.212 107.521 150.121 103.507 149.031L46.8753 133.586C44.9249 133.051 42.8955 132.805 40.9363 132.805V132.796Z" fill="#150035"/>
<path d="M47.0835 134.904C39.9848 132.971 31.8407 134.649 28.9063 138.655L22.7916 147.001C22.3348 147.625 22.0536 148.257 21.8867 148.908C22.4841 151.71 25.5766 154.328 30.3735 155.637L87.0047 171.082C94.1033 173.015 102.247 171.337 105.182 167.331L111.297 158.985C111.753 158.361 112.035 157.728 112.201 157.078C111.604 154.276 108.512 151.657 103.715 150.348L47.0835 134.904Z" fill="white"/>
<path d="M93.1913 172.743C91.0828 172.743 88.904 172.47 86.7867 171.891L30.1555 156.446C25.1653 155.084 21.7741 152.334 21.0713 149.083L21.0273 148.89L21.0801 148.697C21.2821 147.915 21.6248 147.168 22.1167 146.509L28.2314 138.163C31.403 133.841 39.7756 132.048 47.3047 134.104L103.936 149.549C108.926 150.911 112.317 153.661 113.02 156.911L113.064 157.105L113.02 157.289C112.827 158.071 112.475 158.809 111.983 159.485L105.869 167.832C103.584 170.942 98.6119 172.743 93.2001 172.743H93.1913ZM22.7581 148.925C23.417 151.438 26.3953 153.687 30.6035 154.838L87.2347 170.283C94.0171 172.137 101.775 170.59 104.516 166.848L110.63 158.501C110.956 158.053 111.193 157.588 111.342 157.078C110.683 154.566 107.705 152.308 103.497 151.166L46.8654 135.721C40.083 133.867 32.3255 135.413 29.5844 139.156L23.4697 147.502C23.1446 147.95 22.9074 148.416 22.7581 148.925Z" fill="#150035"/>
<path d="M21.3795 162.454L20.3867 157.763L22.2492 158.492L23.2596 163.28L21.3795 162.454Z" fill="#DE5656"/>
<path d="M87.4098 180.658L86.4609 176.195L88.2444 176.538L89.1844 180.966L87.4098 180.658Z" fill="#DE5656"/>
<path d="M112.845 176.195L112.449 170.985L114.136 171.302L114.408 175.317L112.845 176.195Z" fill="#DE5656"/>
<path d="M120.613 162.768L118.98 163.114L119.748 166.733L121.381 166.386L120.613 162.768Z" fill="#DE5656"/>
<path d="M95.0103 181.8L94.0352 177.188H95.7395L96.7147 181.765L95.0103 181.8Z" fill="#DE5656"/>
<path d="M32.7732 136.08L32.1934 133.365L33.7747 132.75L34.337 135.421L32.7732 136.08Z" fill="#DE5656"/>
<path d="M40.4529 134.384L39.9258 131.608H41.718L42.1924 134.384H40.4529Z" fill="#DE5656"/>
<path d="M101.801 150.015L101.221 147.282L103.022 147.739L103.602 150.48L101.801 150.015Z" fill="#DE5656"/>
<path d="M138.637 191.534C133.05 187.844 128.472 183.671 125.011 179.129C124.22 178.083 123.482 177.02 122.832 175.966L125.679 174.209C126.276 175.175 126.944 176.151 127.673 177.108C130.906 181.352 135.211 185.27 140.482 188.749L138.646 191.534H138.637Z" fill="#150035"/>
<path d="M176.231 203.44C174.624 203.44 172.972 203.36 171.294 203.211L171.593 199.881C175.159 200.198 178.577 200.163 181.749 199.758C190.358 198.66 196.368 195.032 198.661 189.541C200.962 184.05 199.337 177.224 194.075 170.318C182.768 155.471 158.493 145.306 140 147.669C130.784 148.847 124.45 153.037 122.631 159.17C121.928 161.542 121.893 164.151 122.543 166.918L119.293 167.683C118.511 164.344 118.555 161.164 119.433 158.221C121.656 150.762 129.001 145.71 139.578 144.357C159.152 141.862 184.788 152.598 196.737 168.298C202.746 176.196 204.521 184.199 201.744 190.832C198.968 197.465 192.01 201.814 182.17 203.071C180.264 203.317 178.278 203.44 176.231 203.44Z" fill="#150035"/>
<path d="M119.574 166.997C119.548 166.883 118.968 164.291 119.179 162.227L121.674 162.49C121.498 164.142 122.008 166.426 122.017 166.444L119.574 166.997Z" fill="#DE5656"/>
<path d="M162.404 201.489C147.354 197.061 140.019 192.721 132.92 187.063H137.444C137.541 187.142 146.871 194.917 161.622 198.546L162.404 201.48V201.489Z" fill="#DE5656"/>
</svg>
