<svg width="733" height="638" viewBox="0 0 733 638" fill="none" xmlns="http://www.w3.org/2000/svg">
<g opacity="0.8">
<g opacity="0.6" filter="url(#filter0_d_2813_9358)">
<path d="M360.916 564.447L115.339 423.178C104.362 416.839 105.748 405.674 118.435 398.36L338.854 271.177C351.519 263.864 370.875 263.064 381.851 269.403L627.428 410.672C638.405 417.012 637.019 428.176 624.332 435.49L403.913 562.673C391.247 569.986 371.892 570.787 360.916 564.447Z" fill="white" fill-opacity="0.4" style="mix-blend-mode:multiply" shape-rendering="crispEdges"/>
</g>
</g>
<g opacity="0.7">
<path d="M142.021 578.555L211.781 538.296L283.277 530.934L339.841 563.597L389.976 561.575L433.398 536.482" stroke="#A82323" stroke-width="0.583" stroke-miterlimit="10"/>
<path d="M281.137 545.71L336.094 577.44L394.939 575.081L470.246 531.582" stroke="#A82323" stroke-width="0.583" stroke-miterlimit="10"/>
<path d="M436.698 537.881C435.116 538.788 432.576 538.788 430.995 537.881C429.413 536.974 429.413 535.496 430.995 534.589C432.576 533.681 435.116 533.681 436.698 534.589C438.279 535.496 438.279 536.974 436.698 537.881Z" fill="#A82323"/>
<path d="M473.536 532.981C471.954 533.889 469.414 533.889 467.832 532.981C466.251 532.074 466.251 530.597 467.832 529.689C469.414 528.782 471.954 528.782 473.536 529.689C475.117 530.597 475.117 532.074 473.536 532.981Z" fill="#A82323"/>
<path d="M397.995 576.586C396.413 577.493 393.873 577.493 392.291 576.586C390.71 575.678 390.71 574.201 392.291 573.293C393.873 572.386 396.413 572.386 397.995 573.293C399.576 574.201 399.576 575.678 397.995 576.586Z" fill="#A82323"/>
<path d="M392.83 563.208C391.249 564.115 388.709 564.115 387.127 563.208C385.546 562.301 385.546 560.823 387.127 559.916C388.709 559.009 391.249 559.009 392.83 559.916C394.412 560.823 394.412 562.301 392.83 563.208Z" fill="#A82323"/>
<path d="M285.959 532.8C284.378 533.708 281.838 533.708 280.256 532.8C278.675 531.893 278.675 530.415 280.256 529.508C281.838 528.601 284.378 528.601 285.959 529.508C287.541 530.415 287.541 531.893 285.959 532.8Z" fill="#A82323"/>
<path d="M283.973 547.343C282.392 548.251 279.851 548.251 278.27 547.343C276.689 546.436 276.689 544.958 278.27 544.051C279.851 543.144 282.392 543.144 283.973 544.051C285.554 544.958 285.554 546.436 283.973 547.343Z" fill="#A82323"/>
<path d="M144.879 580.214C143.298 581.121 140.758 581.121 139.176 580.214C137.595 579.307 137.595 577.829 139.176 576.922C140.758 576.014 143.298 576.014 144.879 576.922C146.461 577.829 146.461 579.307 144.879 580.214Z" fill="#A82323"/>
<path d="M586.669 635.145L516.91 594.886L445.414 587.524L388.85 620.187L338.714 618.165L295.293 593.071" stroke="#A82323" stroke-width="0.583" stroke-miterlimit="10"/>
<path d="M447.563 602.3L392.605 634.03L333.76 631.645L258.453 588.172" stroke="#A82323" stroke-width="0.583" stroke-miterlimit="10"/>
<path d="M292.002 594.471C293.584 595.378 296.124 595.378 297.706 594.471C299.287 593.563 299.287 592.086 297.706 591.179C296.124 590.271 293.584 590.271 292.002 591.179C290.421 592.086 290.421 593.563 292.002 594.471Z" fill="#A82323"/>
<path d="M255.164 589.571C256.746 590.479 259.286 590.479 260.868 589.571C262.449 588.664 262.449 587.186 260.868 586.279C259.286 585.372 256.746 585.372 255.164 586.279C253.583 587.186 253.583 588.664 255.164 589.571Z" fill="#A82323"/>
<path d="M330.707 633.175C332.289 634.082 334.829 634.082 336.411 633.175C337.992 632.268 337.992 630.79 336.411 629.883C334.829 628.975 332.289 628.975 330.707 629.883C329.126 630.79 329.126 632.268 330.707 633.175Z" fill="#A82323"/>
<path d="M335.87 619.798C337.451 620.705 339.991 620.705 341.573 619.798C343.154 618.891 343.154 617.413 341.573 616.506C339.991 615.598 337.451 615.598 335.87 616.506C334.288 617.413 334.288 618.891 335.87 619.798Z" fill="#A82323"/>
<path d="M442.743 589.39C444.324 590.298 446.864 590.298 448.446 589.39C450.027 588.483 450.027 587.005 448.446 586.098C446.864 585.191 444.324 585.191 442.743 586.098C441.161 587.005 441.161 588.483 442.743 589.39Z" fill="#A82323"/>
<path d="M444.707 603.933C446.289 604.84 448.829 604.84 450.411 603.933C451.992 603.025 451.992 601.548 450.411 600.64C448.829 599.733 446.289 599.733 444.707 600.64C443.126 601.548 443.126 603.025 444.707 603.933Z" fill="#A82323"/>
<path d="M583.821 636.804C585.402 637.711 587.942 637.711 589.524 636.804C591.105 635.896 591.105 634.419 589.524 633.512C587.942 632.604 585.402 632.604 583.821 633.512C582.239 634.419 582.239 635.896 583.821 636.804Z" fill="#A82323"/>
<path d="M336.124 537.053L266.365 496.794L194.895 489.432L138.331 522.095L88.1953 520.073L44.748 495.005" stroke="#A82323" stroke-width="0.583" stroke-miterlimit="10"/>
<path d="M197.018 504.208L142.061 535.938L83.2409 533.579L7.9082 490.08" stroke="#A82323" stroke-width="0.583" stroke-miterlimit="10"/>
<path d="M41.4575 496.378C43.0388 497.286 45.5792 497.286 47.1606 496.378C48.7419 495.471 48.7419 493.994 47.1606 493.086C45.5792 492.179 43.0388 492.179 41.4575 493.086C39.8762 493.994 39.8762 495.471 41.4575 496.378Z" fill="#A82323"/>
<path d="M4.61958 491.479C6.20089 492.386 8.74135 492.386 10.3227 491.479C11.904 490.572 11.904 489.094 10.3227 488.187C8.74135 487.28 6.20089 487.28 4.61958 488.187C3.03827 489.094 3.03827 490.572 4.61958 491.479Z" fill="#A82323"/>
<path d="M80.1625 535.083C81.7439 535.99 84.2844 535.99 85.8657 535.083C87.447 534.175 87.447 532.698 85.8657 531.79C84.2844 530.883 81.7439 530.883 80.1625 531.79C78.5812 532.698 78.5812 534.175 80.1625 535.083Z" fill="#A82323"/>
<path d="M85.3481 521.706C86.9294 522.613 89.4699 522.613 91.0512 521.706C92.6325 520.799 92.6325 519.321 91.0512 518.414C89.4699 517.507 86.9294 517.507 85.3481 518.414C83.7668 519.321 83.7668 520.799 85.3481 521.706Z" fill="#A82323"/>
<path d="M192.219 491.298C193.8 492.205 196.341 492.205 197.922 491.298C199.504 490.391 199.504 488.913 197.922 488.006C196.341 487.098 193.8 487.098 192.219 488.006C190.638 488.913 190.638 490.391 192.219 491.298Z" fill="#A82323"/>
<path d="M194.163 505.84C195.744 506.747 198.284 506.747 199.866 505.84C201.447 504.933 201.447 503.455 199.866 502.548C198.284 501.64 195.744 501.64 194.163 502.548C192.581 503.455 192.581 504.933 194.163 505.84Z" fill="#A82323"/>
<path d="M333.276 538.711C334.857 539.619 337.398 539.619 338.979 538.711C340.56 537.804 340.56 536.327 338.979 535.419C337.398 534.512 334.857 534.512 333.276 535.419C331.695 536.327 331.695 537.804 333.276 538.711Z" fill="#A82323"/>
</g>
<g opacity="0.7">
<path d="M851.159 422.679L781.4 382.394L709.93 375.032L653.34 407.695L603.204 405.673L559.783 380.606" stroke="#A82323" stroke-width="0.583" stroke-miterlimit="10"/>
<path d="M712.053 389.808L657.096 421.538L598.25 419.179L522.943 375.68" stroke="#A82323" stroke-width="0.583" stroke-miterlimit="10"/>
<path d="M556.493 382.006C558.074 382.914 560.614 382.914 562.196 382.006C563.777 381.099 563.777 379.621 562.196 378.714C560.614 377.807 558.074 377.807 556.493 378.714C554.911 379.621 554.911 381.099 556.493 382.006Z" fill="#A82323"/>
<path d="M519.655 377.08C521.236 377.987 523.777 377.987 525.358 377.08C526.939 376.173 526.939 374.695 525.358 373.788C523.777 372.881 521.236 372.881 519.655 373.788C518.073 374.695 518.073 376.173 519.655 377.08Z" fill="#A82323"/>
<path d="M595.196 420.683C596.777 421.59 599.318 421.59 600.899 420.683C602.48 419.776 602.48 418.298 600.899 417.391C599.318 416.484 596.777 416.484 595.196 417.391C593.614 418.298 593.614 419.776 595.196 420.683Z" fill="#A82323"/>
<path d="M600.362 407.333C601.943 408.24 604.483 408.24 606.065 407.333C607.646 406.425 607.646 404.948 606.065 404.04C604.483 403.133 601.943 403.133 600.362 404.04C598.78 404.948 598.78 406.425 600.362 407.333Z" fill="#A82323"/>
<path d="M707.233 376.898C708.814 377.806 711.355 377.806 712.936 376.898C714.517 375.991 714.517 374.514 712.936 373.606C711.355 372.699 708.814 372.699 707.233 373.606C705.652 374.514 705.652 375.991 707.233 376.898Z" fill="#A82323"/>
<path d="M709.198 391.468C710.779 392.376 713.32 392.376 714.901 391.468C716.482 390.561 716.482 389.083 714.901 388.176C713.32 387.269 710.779 387.269 709.198 388.176C707.616 389.083 707.616 390.561 709.198 391.468Z" fill="#A82323"/>
<path d="M510.166 483.65L579.925 443.366L651.395 436.003L707.96 468.667" stroke="#A82323" stroke-width="0.583" stroke-miterlimit="10"/>
<path d="M649.281 450.805L704.238 482.509" stroke="#A82323" stroke-width="0.583" stroke-miterlimit="10"/>
<path d="M654.063 437.869C652.482 438.777 649.941 438.777 648.36 437.869C646.779 436.962 646.779 435.484 648.36 434.577C649.941 433.67 652.482 433.67 654.063 434.577C655.644 435.484 655.644 436.962 654.063 437.869Z" fill="#A82323"/>
<path d="M652.118 452.439C650.536 453.346 647.996 453.346 646.414 452.439C644.833 451.531 644.833 450.054 646.414 449.146C647.996 448.239 650.536 448.239 652.118 449.146C653.699 450.054 653.699 451.531 652.118 452.439Z" fill="#A82323"/>
<path d="M513.024 485.283C511.443 486.19 508.902 486.19 507.321 485.283C505.739 484.375 505.739 482.898 507.321 481.991C508.902 481.083 511.443 481.083 513.024 481.991C514.605 482.898 514.605 484.375 513.024 485.283Z" fill="#A82323"/>
<path d="M518.285 523.754L588.044 483.469L659.515 476.107L716.079 508.77" stroke="#A82323" stroke-width="0.583" stroke-miterlimit="10"/>
<path d="M657.4 490.884L712.357 522.614" stroke="#A82323" stroke-width="0.583" stroke-miterlimit="10"/>
<path d="M662.182 477.973C660.601 478.881 658.06 478.881 656.479 477.973C654.898 477.066 654.898 475.588 656.479 474.681C658.06 473.774 660.601 473.774 662.182 474.681C663.763 475.588 663.763 477.066 662.182 477.973Z" fill="#A82323"/>
<path d="M660.237 492.542C658.655 493.449 656.115 493.449 654.534 492.542C652.952 491.635 652.952 490.157 654.534 489.25C656.115 488.343 658.655 488.343 660.237 489.25C661.818 490.157 661.818 491.635 660.237 492.542Z" fill="#A82323"/>
<path d="M521.143 525.387C519.562 526.295 517.021 526.295 515.44 525.387C513.859 524.48 513.859 523.002 515.44 522.095C517.021 521.188 519.562 521.188 521.143 522.095C522.724 523.002 522.724 524.48 521.143 525.387Z" fill="#A82323"/>
</g>
<g opacity="0.7">
<path d="M138.768 272.33L208.501 312.615L279.997 319.977L336.561 287.314L386.697 289.336L430.144 314.403" stroke="#A82323" stroke-width="0.583" stroke-miterlimit="10"/>
<path d="M277.883 305.2L332.814 273.47L391.66 275.829L466.992 319.328" stroke="#A82323" stroke-width="0.583" stroke-miterlimit="10"/>
<path d="M433.422 313.003C431.841 312.095 429.3 312.095 427.719 313.003C426.138 313.91 426.138 315.388 427.719 316.295C429.3 317.202 431.841 317.202 433.422 316.295C435.004 315.388 435.004 313.91 433.422 313.003Z" fill="#A82323"/>
<path d="M470.264 317.929C468.683 317.022 466.142 317.022 464.561 317.929C462.98 318.836 462.98 320.314 464.561 321.221C466.142 322.129 468.683 322.129 470.264 321.221C471.845 320.314 471.845 318.836 470.264 317.929Z" fill="#A82323"/>
<path d="M394.741 274.326C393.159 273.418 390.619 273.418 389.038 274.326C387.456 275.233 387.456 276.71 389.038 277.618C390.619 278.525 393.159 278.525 394.741 277.618C396.322 276.71 396.322 275.233 394.741 274.326Z" fill="#A82323"/>
<path d="M389.555 287.676C387.974 286.768 385.433 286.768 383.852 287.676C382.271 288.583 382.271 290.061 383.852 290.968C385.433 291.875 387.974 291.875 389.555 290.968C391.136 290.061 391.136 288.583 389.555 287.676Z" fill="#A82323"/>
<path d="M282.665 318.11C281.083 317.202 278.543 317.202 276.961 318.11C275.38 319.017 275.38 320.495 276.961 321.402C278.543 322.309 281.083 322.309 282.665 321.402C284.246 320.495 284.246 319.017 282.665 318.11Z" fill="#A82323"/>
<path d="M280.719 303.541C279.138 302.634 276.597 302.634 275.016 303.541C273.435 304.448 273.435 305.926 275.016 306.833C276.597 307.74 279.138 307.74 280.719 306.833C282.301 305.926 282.301 304.448 280.719 303.541Z" fill="#A82323"/>
<path d="M141.625 270.696C140.044 269.789 137.504 269.789 135.922 270.696C134.341 271.603 134.341 273.081 135.922 273.988C137.504 274.896 140.044 274.896 141.625 273.988C143.207 273.081 143.207 271.603 141.625 270.696Z" fill="#A82323"/>
<path d="M583.369 215.74L513.609 256.024L442.139 263.387L385.575 230.723L335.439 232.745L291.992 257.813" stroke="#A82323" stroke-width="0.583" stroke-miterlimit="10"/>
<path d="M444.262 248.61L389.305 216.88L330.485 219.239L255.152 262.738" stroke="#A82323" stroke-width="0.583" stroke-miterlimit="10"/>
<path d="M288.702 256.413C290.283 255.506 292.823 255.506 294.405 256.413C295.986 257.32 295.986 258.798 294.405 259.705C292.823 260.612 290.283 260.612 288.702 259.705C287.12 258.798 287.12 257.32 288.702 256.413Z" fill="#A82323"/>
<path d="M251.864 261.339C253.445 260.432 255.985 260.432 257.567 261.339C259.148 262.246 259.148 263.724 257.567 264.631C255.985 265.539 253.445 265.539 251.864 264.631C250.282 263.724 250.282 262.246 251.864 261.339Z" fill="#A82323"/>
<path d="M327.407 217.736C328.988 216.828 331.529 216.828 333.11 217.736C334.691 218.643 334.691 220.121 333.11 221.028C331.529 221.935 328.988 221.935 327.407 221.028C325.825 220.121 325.825 218.643 327.407 217.736Z" fill="#A82323"/>
<path d="M332.59 231.085C334.172 230.178 336.712 230.178 338.293 231.085C339.875 231.993 339.875 233.47 338.293 234.378C336.712 235.285 334.172 235.285 332.59 234.378C331.009 233.47 331.009 231.993 332.59 231.085Z" fill="#A82323"/>
<path d="M439.463 261.52C441.045 260.613 443.585 260.613 445.166 261.52C446.748 262.427 446.748 263.905 445.166 264.812C443.585 265.719 441.045 265.719 439.463 264.812C437.882 263.905 437.882 262.427 439.463 261.52Z" fill="#A82323"/>
<path d="M441.407 246.951C442.988 246.044 445.528 246.044 447.11 246.951C448.691 247.858 448.691 249.336 447.11 250.243C445.528 251.151 442.988 251.151 441.407 250.243C439.825 249.336 439.825 247.858 441.407 246.951Z" fill="#A82323"/>
<path d="M580.52 214.106C582.101 213.199 584.642 213.199 586.223 214.106C587.804 215.014 587.804 216.491 586.223 217.399C584.642 218.306 582.101 218.306 580.52 217.399C578.939 216.491 578.939 215.014 580.52 214.106Z" fill="#A82323"/>
<path d="M332.827 313.833L263.094 354.118L191.598 361.48L135.034 328.817L84.8984 330.839L41.4512 355.906" stroke="#A82323" stroke-width="0.583" stroke-miterlimit="10"/>
<path d="M193.721 346.703L138.79 314.973L79.944 317.332L4.61133 360.831" stroke="#A82323" stroke-width="0.583" stroke-miterlimit="10"/>
<path d="M38.1606 354.506C39.7419 353.598 42.2824 353.598 43.8637 354.506C45.445 355.413 45.445 356.891 43.8637 357.798C42.2824 358.705 39.7419 358.705 38.1606 357.798C36.5793 356.891 36.5793 355.413 38.1606 354.506Z" fill="#A82323"/>
<path d="M1.3227 359.432C2.90402 358.525 5.44448 358.525 7.02579 359.432C8.6071 360.339 8.6071 361.817 7.02579 362.724C5.44448 363.631 2.90402 363.631 1.3227 362.724C-0.258609 361.817 -0.258609 360.339 1.3227 359.432Z" fill="#A82323"/>
<path d="M76.8657 315.803C78.447 314.896 80.9874 314.896 82.5688 315.803C84.1501 316.71 84.1501 318.188 82.5688 319.095C80.9874 320.003 78.447 320.003 76.8657 319.095C75.2844 318.188 75.2844 316.71 76.8657 315.803Z" fill="#A82323"/>
<path d="M82.0493 329.179C83.6306 328.271 86.171 328.271 87.7524 329.179C89.3337 330.086 89.3337 331.563 87.7524 332.471C86.171 333.378 83.6306 333.378 82.0493 332.471C80.468 331.563 80.468 330.086 82.0493 329.179Z" fill="#A82323"/>
<path d="M188.922 359.614C190.504 358.706 193.044 358.706 194.625 359.614C196.207 360.521 196.207 361.999 194.625 362.906C193.044 363.813 190.504 363.813 188.922 362.906C187.341 361.999 187.341 360.521 188.922 359.614Z" fill="#A82323"/>
<path d="M190.866 345.044C192.447 344.136 194.987 344.136 196.569 345.044C198.15 345.951 198.15 347.429 196.569 348.336C194.987 349.243 192.447 349.243 190.866 348.336C189.284 347.429 189.284 345.951 190.866 345.044Z" fill="#A82323"/>
<path d="M329.979 312.199C331.56 311.292 334.101 311.292 335.682 312.199C337.263 313.106 337.263 314.584 335.682 315.491C334.101 316.399 331.56 316.399 329.979 315.491C328.398 314.584 328.398 313.106 329.979 312.199Z" fill="#A82323"/>
</g>
<path d="M321.659 148.051C321.659 184.732 347.684 214.602 379.966 214.602C412.222 214.602 438.273 184.732 438.273 148.051C438.273 111.371 412.222 81.5008 379.966 81.5008C347.71 81.5008 321.659 111.371 321.659 148.051Z" fill="url(#paint0_linear_2813_9358)" stroke="black" stroke-width="1.1"/>
<path d="M323.304 148.024C323.304 114.298 352.165 85.0874 380.732 81.0953C334.532 77.795 309.15 109.878 309.15 147.999C309.15 183.04 331.232 218.045 381.832 214.745C341.132 208.145 323.304 181.699 323.304 147.973" fill="#0A0A0A"/>
<g opacity="0.5">
<path d="M323.298 150.385H309.17C309.222 151.966 309.299 153.547 309.455 155.103H323.609C323.454 153.547 323.376 151.966 323.324 150.385" fill="#3E3D3D"/>
<path d="M323.84 138.589H309.712C309.505 140.145 309.375 141.726 309.271 143.307H323.426C323.529 141.726 323.659 140.145 323.866 138.589" fill="#3E3D3D"/>
<path d="M324.599 162.179H310.445C310.756 163.761 311.093 165.342 311.508 166.897H325.662C325.247 165.342 324.91 163.786 324.599 162.179Z" fill="#3E3D3D"/>
<path d="M327.881 173.974H313.727C314.323 175.581 314.997 177.162 315.697 178.692H329.851C329.151 177.162 328.477 175.581 327.881 173.974Z" fill="#3E3D3D"/>
<path d="M326.304 126.82H312.176C311.709 128.375 311.295 129.931 310.932 131.538H325.086C325.449 129.957 325.837 128.375 326.304 126.82Z" fill="#3E3D3D"/>
<path d="M330.992 115.025H316.838C316.06 116.555 315.334 118.136 314.66 119.743H328.814C329.488 118.136 330.214 116.555 330.992 115.025Z" fill="#3E3D3D"/>
<path d="M340.608 100.871H326.454C325.106 102.375 323.836 103.93 322.617 105.589H336.771C337.99 103.956 339.26 102.375 340.608 100.871Z" fill="#3E3D3D"/>
<path d="M355.019 89.1021H340.839C338.429 90.5019 336.121 92.0573 333.918 93.82H348.072C350.275 92.0832 352.583 90.5019 354.994 89.1021" fill="#3E3D3D"/>
<path d="M335.111 188.103H320.957C322.046 189.736 323.212 191.317 324.431 192.821H338.585C337.366 191.317 336.2 189.736 335.111 188.103Z" fill="#3E3D3D"/>
<path d="M331.145 199.897C333.037 201.608 335.033 203.189 337.107 204.615H351.287C349.213 203.189 347.191 201.608 345.299 199.897H331.17H331.145Z" fill="#3E3D3D"/>
</g>
<path opacity="0.6" d="M383.294 200.649C409.065 200.649 429.956 177.1 429.956 148.051C429.956 119.002 409.065 95.4526 383.294 95.4526C357.524 95.4526 336.633 119.002 336.633 148.051C336.633 177.1 357.524 200.649 383.294 200.649Z" stroke="#4A4A4A" stroke-width="1.188" stroke-miterlimit="10"/>
<path opacity="0.6" d="M383.654 196.009C407.062 196.009 426.038 174.619 426.038 148.233C426.038 121.847 407.062 100.457 383.654 100.457C360.246 100.457 341.27 121.847 341.27 148.233C341.27 174.619 360.246 196.009 383.654 196.009Z" fill="#1A1919" stroke="#626262" stroke-width="0.352" stroke-miterlimit="10"/>
<path d="M403.151 147.434C403.109 149.863 402.534 152.046 401.427 153.983C400.32 155.881 398.646 157.35 396.404 158.39C394.162 159.43 391.395 159.806 388.103 159.518L382.016 158.986L381.753 174.039L371.934 173.18L372.666 131.246L388.572 132.638C391.788 132.919 394.495 133.734 396.696 135.083C398.896 136.432 400.533 138.171 401.608 140.299C402.683 142.427 403.197 144.805 403.151 147.434ZM387.498 151.329C389.374 151.493 390.779 151.157 391.714 150.322C392.649 149.486 393.131 148.232 393.16 146.56C393.189 144.887 392.752 143.553 391.849 142.556C390.947 141.56 389.557 140.98 387.682 140.816L382.341 140.348L382.158 150.862L387.498 151.329Z" fill="white"/>
<path d="M403.387 122.833L372.666 120.145V126.313L403.387 129V122.833Z" fill="#E50913"/>
<path d="M272.181 83.2113C267.041 92.8893 253.913 95.9698 242.861 90.0964C231.808 84.223 227.011 71.6185 232.135 61.9442C237.275 52.2662 250.402 49.1857 261.455 55.0591C272.508 60.9325 277.304 73.537 272.181 83.2113Z" fill="#606060"/>
<path d="M265.884 80.1034C262.377 86.886 253.353 89.0082 245.727 84.8467C238.101 80.6851 234.76 71.8148 238.255 65.0347C241.761 58.2521 250.786 56.1299 258.412 60.2914C266.038 64.453 269.379 73.3233 265.884 80.1034Z" fill="#302F2F"/>
<path d="M261.453 55.0532C271.678 60.4766 276.54 71.6747 273.148 80.9795C273.617 80.3225 274.062 79.6357 274.447 78.9096C279.587 69.2317 274.79 56.6272 263.721 50.7574C252.668 44.8839 239.541 47.9645 234.401 57.6424C234.016 58.3685 233.689 59.1172 233.414 59.8719C239.22 51.8446 251.223 49.6132 261.453 55.0532Z" fill="#0A0A0A"/>
<g opacity="0.8">
<path d="M262.166 55.4428C262.64 55.7071 263.101 55.9916 263.549 56.2963L265.834 51.9969C265.389 51.7088 264.928 51.4243 264.451 51.1434L262.179 55.4226" fill="#3E3D3D"/>
<path d="M258.507 53.7093C259.017 53.8963 259.517 54.1202 260.001 54.3477L262.269 50.0518C261.769 49.8279 261.272 49.6206 260.762 49.4336L258.49 53.7128" fill="#3E3D3D"/>
<path d="M265.544 57.7341C265.983 58.0757 266.391 58.441 266.804 58.8229L269.072 54.5271C268.663 54.1618 268.254 53.7965 267.812 53.4383L265.528 57.7377" fill="#3E3D3D"/>
<path d="M268.583 60.6369C268.973 61.0759 269.349 61.5351 269.693 62.0015L271.977 57.702C271.618 57.2393 271.258 56.7765 270.868 56.3375L268.583 60.6369Z" fill="#3E3D3D"/>
<path d="M254.532 52.5533C255.078 52.6631 255.61 52.7931 256.163 52.9362L258.448 48.6367C257.912 48.4901 257.363 48.3636 256.817 48.2538L254.545 52.533" fill="#3E3D3D"/>
<path d="M250.207 52.0881C250.802 52.1005 251.383 52.133 251.988 52.1953L254.273 47.8959C253.668 47.8336 253.086 47.801 252.492 47.7886L250.207 52.0881Z" fill="#3E3D3D"/>
<path d="M244.37 52.7133C245.049 52.551 245.718 52.4255 246.424 52.3095L248.709 48.0101C248.016 48.1058 247.334 48.2515 246.671 48.4103L244.386 52.7098" fill="#3E3D3D"/>
<path d="M238.477 55.2026C239.291 54.698 240.133 54.2398 241.027 53.8577L243.311 49.5583C242.418 49.9404 241.576 50.3986 240.761 50.9032L238.477 55.2026Z" fill="#3E3D3D"/>
<path d="M271.711 65.1022C272.029 65.6957 272.313 66.2963 272.585 66.9171L274.87 62.6177C274.619 62.01 274.313 61.3963 273.995 60.8028L271.711 65.1022Z" fill="#3E3D3D"/>
<path d="M273.647 70.0891C273.865 70.9476 274.013 71.8037 274.111 72.6704L276.396 68.371C276.298 67.5042 276.134 66.6517 275.919 65.8098L273.647 70.0891Z" fill="#3E3D3D"/>
</g>
<path d="M268.22 81.1991C268.008 81.5925 267.529 81.7121 267.135 81.5002C266.742 81.2883 266.615 80.7758 266.807 80.3693C267.041 79.919 267.256 79.4555 267.437 78.9991C267.608 78.5796 268.07 78.3767 268.486 78.5316C268.902 78.6864 269.108 79.1645 268.953 79.5805C268.753 80.1105 268.516 80.6311 268.239 81.1254L268.199 81.186M265.24 84.9333C265.24 84.9333 265.135 85.0949 265.063 85.1626C264.637 85.532 264.191 85.8883 263.721 86.2149C263.357 86.4666 262.851 86.383 262.6 86.019C262.348 85.655 262.432 85.1498 262.796 84.8981C263.206 84.619 263.606 84.29 263.989 83.9646C264.325 83.6664 264.837 83.6966 265.135 84.0333C265.365 84.2974 265.39 84.6576 265.243 84.9499M269.832 74.972C269.695 75.2275 269.42 75.408 269.106 75.4054C268.652 75.3979 268.297 75.0386 268.305 74.5844C268.318 74.0768 268.298 73.5763 268.242 73.0662C268.199 72.6227 268.531 72.2211 268.975 72.1787C269.418 72.1362 269.82 72.4682 269.862 72.9117C269.913 73.4753 269.93 74.046 269.927 74.6035C269.919 74.7272 269.894 74.8544 269.832 74.972ZM259.664 88.0032C259.563 88.1815 259.405 88.3371 259.175 88.4035C258.653 88.5672 258.091 88.7046 257.538 88.8052C257.105 88.8976 256.677 88.606 256.585 88.1732C256.492 87.7404 256.784 87.3126 257.217 87.2202C257.716 87.1136 258.216 87.007 258.704 86.8505C259.13 86.7248 259.58 86.9594 259.71 87.4017C259.773 87.6146 259.749 87.8285 259.647 88.0068M268.603 68.7248C268.515 68.8828 268.386 69.0147 268.194 69.0906C267.779 69.2662 267.302 69.0721 267.126 68.657C266.94 68.192 266.721 67.7342 266.468 67.2834C266.262 66.8921 266.399 66.3929 266.807 66.184C267.199 65.9786 267.698 66.1158 267.907 66.5237C268.17 67.0244 268.417 67.5287 268.631 68.04C268.734 68.2791 268.717 68.5263 268.603 68.7248ZM253.313 88.6628C253.163 88.9384 252.871 89.1225 252.534 89.0901C251.986 89.0504 251.414 88.981 250.872 88.8879C250.437 88.8067 250.141 88.3999 250.202 87.9517C250.283 87.5167 250.69 87.221 251.138 87.282C251.643 87.3656 252.162 87.429 252.656 87.4626C253.097 87.4903 253.443 87.8866 253.399 88.3311C253.387 88.4381 253.358 88.5486 253.309 88.6461M265.129 63.3746C265.129 63.3746 265.037 63.516 264.964 63.5837C264.648 63.8949 264.12 63.8683 263.825 63.5483C263.467 63.1723 263.112 62.813 262.727 62.4774C262.402 62.1812 262.362 61.6675 262.675 61.3397C262.972 61.0153 263.485 60.9753 263.809 61.2716C264.218 61.6369 264.617 62.0391 265 62.4448C265.247 62.7053 265.275 63.0822 265.129 63.3746ZM247.113 87.0968C246.914 87.47 246.462 87.636 246.076 87.4574C245.596 87.2466 245.092 87.0061 244.621 86.7584L244.581 86.7322C244.188 86.5203 244.051 86.0447 244.263 85.6513C244.475 85.258 244.984 85.1145 245.377 85.3264C245.811 85.5645 246.275 85.7789 246.718 85.9802C247.121 86.1553 247.311 86.6369 247.136 87.0398C247.136 87.0398 247.109 87.0802 247.113 87.0968ZM260.034 59.4842C259.822 59.8775 259.33 60.0174 258.936 59.8054C258.486 59.5709 258.022 59.3565 257.559 59.1422C257.156 58.9671 256.966 58.4855 257.141 58.0826C257.316 57.6797 257.798 57.4899 258.201 57.665C258.701 57.8889 259.205 58.1294 259.692 58.3735C260.102 58.5819 260.242 59.0742 260.03 59.4675M241.727 83.6342C241.727 83.6342 241.665 83.7518 241.605 83.7993C241.309 84.1237 240.795 84.1637 240.467 83.8508C240.059 83.4855 239.66 83.0833 239.277 82.6776C238.962 82.3445 238.992 81.8333 239.313 81.5387C239.633 81.2441 240.157 81.2541 240.451 81.5741C240.793 81.9536 241.165 82.3094 241.55 82.6449C241.831 82.8984 241.899 83.3014 241.723 83.6175M253.978 57.4523C253.815 57.7482 253.487 57.9228 253.129 57.8773C252.624 57.7937 252.106 57.7302 251.611 57.6966C251.17 57.6689 250.824 57.2727 250.869 56.8281C250.896 56.3871 251.293 56.0414 251.737 56.0858C252.285 56.1254 252.857 56.1948 253.399 56.288C253.834 56.3692 254.147 56.7725 254.069 57.2242C254.053 57.3145 254.018 57.3918 253.982 57.469M237.799 78.607C237.724 78.7448 237.609 78.8565 237.469 78.9384C237.078 79.1438 236.579 79.0066 236.37 78.5987C236.107 78.098 235.86 77.5937 235.646 77.0823C235.47 76.6673 235.665 76.1907 236.083 76.0318C236.498 75.8561 236.975 76.0503 237.134 76.4689C237.32 76.9338 237.543 77.4084 237.793 77.8425C237.933 78.0911 237.906 78.3752 237.799 78.607ZM247.589 57.5281C247.479 57.7432 247.284 57.8893 247.034 57.9426C246.534 58.0491 246.035 58.1557 245.546 58.3123C245.121 58.438 244.67 58.2034 244.545 57.7777C244.419 57.352 244.653 56.9016 245.079 56.7759C245.601 56.6123 246.164 56.4748 246.716 56.3742C247.149 56.2818 247.577 56.5734 247.669 57.0063C247.709 57.1894 247.681 57.3867 247.593 57.5447M235.958 72.5079C235.834 72.7432 235.592 72.9165 235.319 72.9401C234.875 72.9825 234.474 72.6505 234.448 72.2035C234.397 71.6399 234.38 71.0693 234.383 70.5117C234.39 70.0576 234.77 69.7155 235.207 69.7266C235.661 69.7341 236.004 70.1136 235.992 70.5511C235.979 71.0587 235.999 71.5592 236.039 72.0728C236.054 72.2262 236.02 72.3903 235.945 72.5281M241.729 59.9974C241.667 60.1151 241.581 60.203 241.475 60.2778C241.069 60.5735 240.665 60.8859 240.282 61.2113C239.945 61.5094 239.434 61.4793 239.136 61.1426C238.838 60.8059 238.868 60.2947 239.205 59.9966C239.631 59.6272 240.077 59.2709 240.53 58.9479C240.894 58.6961 241.399 58.7798 241.651 59.1438C241.828 59.4019 241.846 59.7289 241.709 59.9844M236.825 66.2136C236.639 66.5665 236.207 66.7457 235.808 66.5873C235.392 66.4324 235.185 65.9543 235.34 65.5383C235.544 65.0249 235.768 64.5246 236.029 64.0338L236.021 64.0005C236.25 63.6036 236.742 63.4637 237.136 63.6757C237.529 63.8876 237.672 64.3965 237.461 64.7899C237.222 65.2236 237.021 65.6669 236.84 66.1233C236.831 66.1601 236.817 66.1803 236.804 66.2005" fill="#2E2D2D"/>
<path d="M255.885 67.6722C256.555 68.2293 257.04 68.8963 257.341 69.6733C257.631 70.4411 257.679 71.2889 257.483 72.2166C257.287 73.1443 256.791 74.0861 255.996 75.0419L254.527 76.809L258.677 80.2612L256.306 83.1119L244.744 73.4951L248.585 68.8773C249.362 67.9437 250.177 67.287 251.032 66.9073C251.886 66.5275 252.728 66.4094 253.556 66.5528C254.384 66.6963 255.16 67.0694 255.885 67.6722ZM253.576 73.3955C254.029 72.8509 254.24 72.3402 254.21 71.8635C254.179 71.3867 253.933 70.9565 253.472 70.5729C253.011 70.1893 252.543 70.0259 252.069 70.0826C251.594 70.1393 251.131 70.4399 250.678 70.9845L249.388 72.5349L252.287 74.9459L253.576 73.3955Z" fill="white"/>
<path d="M249.186 62.0967L241.768 71.0156L243.75 72.6642L251.168 63.7453L249.186 62.0967Z" fill="#E50913"/>
<path d="M452.54 59.2637C439.76 48.5315 439.345 28.0004 451.607 13.4056C463.868 -1.18911 484.166 -4.32583 496.946 6.38044C509.726 17.1126 510.141 37.6438 497.879 52.2386C485.618 66.8333 465.32 69.97 452.54 59.2637Z" fill="#606060"/>
<path d="M459.171 50.8747C450.184 43.4957 449.892 29.3793 458.515 19.3446C467.137 9.30983 481.411 7.15314 490.398 14.5143C499.385 21.8934 499.677 36.0098 491.054 46.0445C482.432 56.0793 468.158 58.2359 459.171 50.8747Z" fill="#302F2F"/>
<path d="M497.887 52.239C486.559 65.7449 468.335 69.426 455.555 61.4158C456.384 62.3231 457.266 63.2045 458.225 64.0081C471.005 74.7403 491.303 71.6036 503.564 56.9829C515.826 42.3882 515.411 21.857 502.631 11.1248C501.672 10.3212 500.661 9.59535 499.624 8.94727C509.734 20.1461 509.242 38.733 497.887 52.239Z" fill="#0A0A0A"/>
<g opacity="0.8">
<path d="M497.082 53.1724C496.538 53.7945 495.967 54.3908 495.371 54.9611L501.048 59.7309C501.619 59.1606 502.189 58.5644 502.759 57.9422L497.108 53.1983" fill="#3E3D3D"/>
<path d="M500.826 48.273C500.386 48.9729 499.893 49.6469 499.4 50.295L505.078 55.039C505.57 54.365 506.037 53.6909 506.477 52.991L500.826 48.2471" fill="#3E3D3D"/>
<path d="M492.594 57.4761C491.946 58.0205 491.272 58.5131 490.572 59.0056L496.249 63.7495C496.923 63.257 497.597 62.7645 498.271 62.2201L492.594 57.4502" fill="#3E3D3D"/>
<path d="M487.305 61.0786C486.527 61.5193 485.724 61.9341 484.92 62.297L490.597 67.0669C491.401 66.678 492.204 66.2892 492.982 65.8485L487.305 61.0786Z" fill="#3E3D3D"/>
<path d="M503.811 42.7251C503.474 43.5028 503.112 44.2546 502.723 45.0323L508.4 49.8021C508.789 49.0503 509.152 48.2726 509.489 47.495L503.837 42.751" fill="#3E3D3D"/>
<path d="M505.88 36.4268C505.673 37.3081 505.439 38.1636 505.154 39.045L510.831 43.8149C511.117 42.9335 511.35 42.078 511.557 41.1967L505.88 36.4268Z" fill="#3E3D3D"/>
<path d="M506.804 27.5347C506.83 28.5975 506.804 29.6344 506.752 30.7232L512.429 35.4931C512.507 34.4302 512.507 33.3674 512.481 32.3304L506.804 27.5606" fill="#3E3D3D"/>
<path d="M504.969 17.9688C505.461 19.3427 505.876 20.7425 506.161 22.1942L511.838 26.9641C511.553 25.5124 511.138 24.1125 510.646 22.7386L504.969 17.9688Z" fill="#3E3D3D"/>
<path d="M479.659 64.3193C478.674 64.6045 477.689 64.8378 476.678 65.0452L482.355 69.815C483.34 69.6336 484.351 69.3743 485.336 69.0892L479.659 64.3193Z" fill="#3E3D3D"/>
<path d="M471.617 65.616C470.269 65.6678 468.947 65.6159 467.625 65.4863L473.302 70.2562C474.624 70.3858 475.946 70.4117 477.268 70.3599L471.617 65.616Z" fill="#3E3D3D"/>
</g>
<path d="M456.798 54.002C456.279 53.5613 456.253 52.8096 456.694 52.2911C457.135 51.7727 457.938 51.7467 458.483 52.1615C459.079 52.654 459.701 53.1207 460.323 53.5354C460.894 53.9243 461.049 54.6761 460.686 55.2464C460.323 55.8167 459.546 55.9722 458.975 55.6093C458.249 55.1427 457.549 54.6242 456.901 54.0539L456.824 53.9761M452.183 48.3767C452.183 48.3767 451.976 48.1693 451.898 48.0397C451.483 47.288 451.095 46.5102 450.758 45.7066C450.498 45.0845 450.784 44.3586 451.406 44.0994C452.028 43.8402 452.754 44.1253 453.013 44.7475C453.298 45.4474 453.661 46.1473 454.024 46.8213C454.361 47.4176 454.154 48.1693 453.557 48.5063C453.091 48.7656 452.546 48.6878 452.157 48.3767M465.56 58.383C465.223 58.0979 465.041 57.6313 465.145 57.1647C465.3 56.4907 465.949 56.0759 466.623 56.2314C467.374 56.4129 468.126 56.5425 468.904 56.6203C469.578 56.6981 470.07 57.3202 469.993 57.9942C469.915 58.6682 469.293 59.1608 468.619 59.083C467.763 58.9793 466.908 58.8238 466.078 58.6423C465.897 58.5904 465.715 58.5127 465.56 58.383ZM449.384 39.0962C449.15 38.8888 448.969 38.6037 448.943 38.2408C448.865 37.4112 448.839 36.5298 448.865 35.6744C448.865 35.0004 449.436 34.456 450.11 34.456C450.784 34.456 451.328 35.0263 451.328 35.7003C451.328 36.478 451.328 37.2557 451.406 38.0334C451.458 38.7074 450.965 39.3036 450.265 39.3554C449.928 39.3814 449.617 39.2777 449.384 39.0703M475.255 58.5386C475.048 58.3571 474.892 58.1238 474.84 57.8127C474.711 57.1387 475.151 56.4907 475.825 56.361C476.577 56.2314 477.329 56.05 478.081 55.8167C478.729 55.6352 479.429 55.9981 479.61 56.6721C479.792 57.3202 479.429 58.0201 478.755 58.2016C477.925 58.4349 477.096 58.6423 476.266 58.7978C475.877 58.8756 475.514 58.7719 475.255 58.5386ZM450.421 29.4269C450.058 29.1158 449.876 28.6232 450.032 28.1307C450.265 27.3271 450.55 26.4976 450.861 25.7199C451.121 25.0977 451.82 24.7866 452.469 25.0199C453.091 25.2792 453.402 25.9791 453.168 26.6272C452.883 27.353 452.624 28.1048 452.417 28.8306C452.235 29.4787 451.535 29.8675 450.887 29.6602C450.732 29.6083 450.576 29.5306 450.447 29.4269M484.328 55.0649C484.328 55.0649 484.147 54.8834 484.069 54.7538C483.706 54.1835 483.913 53.4058 484.484 53.0688C485.158 52.654 485.806 52.2392 486.428 51.7726C486.972 51.3838 487.75 51.4875 488.139 52.0578C488.528 52.6022 488.424 53.3799 487.88 53.7687C487.206 54.2613 486.48 54.7279 485.754 55.1686C485.287 55.4538 484.717 55.376 484.328 55.0649ZM454.724 20.6908C454.231 20.276 454.128 19.5501 454.516 19.0317C454.983 18.3836 455.502 17.7096 456.02 17.0874L456.072 17.0356C456.513 16.5171 457.264 16.4653 457.783 16.906C458.301 17.3467 458.353 18.1503 457.912 18.6688C457.42 19.2391 456.953 19.8612 456.513 20.4575C456.124 21.0019 455.346 21.1315 454.802 20.7426C454.802 20.7426 454.75 20.6908 454.724 20.6908ZM491.742 48.7137C491.224 48.273 491.172 47.4953 491.613 46.9769C492.105 46.3806 492.572 45.7585 493.038 45.1363C493.427 44.5919 494.205 44.4623 494.749 44.8511C495.294 45.24 495.423 46.0177 495.034 46.5621C494.542 47.2361 494.023 47.9101 493.505 48.5582C493.064 49.1026 492.287 49.1544 491.768 48.7137M461.593 13.7693C461.593 13.7693 461.438 13.6396 461.386 13.5359C460.997 12.9916 461.101 12.2139 461.671 11.825C462.345 11.3325 463.071 10.8659 463.797 10.4252C464.393 10.0622 465.145 10.2696 465.482 10.8399C465.819 11.4103 465.637 12.1879 465.067 12.5249C464.393 12.9138 463.745 13.3545 463.123 13.8211C462.656 14.1581 462.034 14.1322 461.619 13.7693M496.693 40.3405C496.305 40.0035 496.149 39.4591 496.33 38.9407C496.616 38.2148 496.875 37.4631 497.082 36.7372C497.264 36.0891 497.964 35.7003 498.612 35.9077C499.26 36.0891 499.649 36.789 499.441 37.4371C499.208 38.2407 498.923 39.0703 498.612 39.848C498.352 40.4701 497.653 40.8072 497.005 40.5479C496.875 40.4961 496.771 40.4183 496.667 40.3405M470.33 9.51788C470.148 9.36234 470.018 9.15493 469.941 8.92162C469.759 8.27354 470.122 7.57362 470.796 7.39216C471.626 7.15885 472.455 6.95148 473.285 6.79594C473.959 6.66632 474.607 7.10703 474.711 7.78103C474.84 8.45503 474.4 9.10308 473.726 9.20678C472.974 9.33639 472.196 9.51787 471.47 9.75118C471.055 9.8808 470.641 9.75119 470.33 9.51788ZM498.612 30.8008C498.327 30.5675 498.171 30.2305 498.171 29.8416C498.171 29.0639 498.171 28.2862 498.093 27.5085C498.041 26.8345 498.534 26.2383 499.208 26.1865C499.882 26.1346 500.478 26.6272 500.53 27.3012C500.608 28.1307 500.634 29.0121 500.608 29.8676C500.608 30.5416 500.038 31.0859 499.364 31.0859C499.078 31.0859 498.793 30.9823 498.586 30.8008M479.999 8.71423C479.688 8.455 479.506 8.04023 479.558 7.62546C479.636 6.95146 480.258 6.45895 480.932 6.56264C481.788 6.66633 482.643 6.82187 483.473 7.00333C484.147 7.15887 484.535 7.83285 484.38 8.48093C484.224 9.15493 483.55 9.5438 482.902 9.38826C482.151 9.20679 481.399 9.07717 480.621 8.97348C480.388 8.94755 480.154 8.84386 479.973 8.68832M496.797 21.287C496.642 21.1574 496.538 21.0019 496.46 20.8204C496.149 20.1205 495.812 19.4205 495.449 18.7465C495.112 18.1503 495.32 17.3985 495.916 17.0615C496.512 16.7245 497.264 16.9319 497.601 17.5281C498.016 18.2799 498.404 19.0576 498.741 19.8353C499.001 20.4575 498.715 21.1833 498.093 21.4425C497.653 21.624 497.16 21.5462 496.823 21.2611M489.098 12.0065C488.631 11.6176 488.502 10.9177 488.865 10.3734C489.228 9.80304 490.005 9.64746 490.576 10.0104C491.276 10.477 491.95 10.9696 492.598 11.5139H492.649C493.168 11.9806 493.22 12.7583 492.779 13.2767C492.338 13.7952 491.535 13.8471 491.016 13.4064C490.446 12.9138 489.85 12.4731 489.228 12.0583C489.176 12.0324 489.15 12.0065 489.124 11.9806" fill="#2E2D2D"/>
<path d="M480.863 39.931C479.821 40.7514 478.673 41.2623 477.42 41.4638C476.184 41.6518 474.906 41.4526 473.587 40.866C472.267 40.2794 471.022 39.2422 469.851 37.7542L467.687 35.0032L461.226 40.0872L457.734 35.6492L475.732 21.4868L481.389 28.6757C482.533 30.1291 483.251 31.5525 483.545 32.9461C483.839 34.3396 483.748 35.6302 483.271 36.8179C482.794 38.0056 481.991 39.0433 480.863 39.931ZM473.073 34.6731C473.74 35.5209 474.433 35.9977 475.153 36.1037C475.873 36.2096 476.592 35.9801 477.31 35.4152C478.028 34.8503 478.42 34.2056 478.486 33.481C478.553 32.7564 478.252 31.9702 477.585 31.1224L475.686 28.7088L471.174 32.2595L473.073 34.6731Z" fill="white"/>
<path d="M491.296 31.7295L480.371 17.8447L477.286 20.2726L488.211 34.1573L491.296 31.7295Z" fill="#E50913"/>
<path d="M357.024 526.054L164.856 415.44C156.275 410.489 156.068 384.462 159.542 375.674L339.733 282.247C349.662 276.518 364.801 275.896 373.382 280.847L569.905 380.936C577.112 392.342 573.068 419.354 563.139 425.058L390.672 524.629C380.744 530.358 365.605 530.98 357.024 526.028V526.054Z" fill="url(#paint1_linear_2813_9358)"/>
<path d="M357.028 497.487L164.86 386.873C156.28 381.921 157.368 373.185 167.271 367.456L339.738 267.885C349.666 262.156 364.805 261.534 373.386 266.486L565.554 377.1C574.135 382.051 573.046 390.787 563.143 396.516L390.677 496.087C380.748 501.816 365.609 502.438 357.028 497.487Z" fill="#C73238"/>
<g filter="url(#filter1_ii_2813_9358)">
<path d="M356.765 484.655L187.098 387.028C178.518 382.077 179.607 373.341 189.509 367.612L340.045 280.691C349.974 274.962 365.113 274.34 373.693 279.291L543.36 376.918C551.941 381.869 550.852 390.605 540.949 396.334L390.414 483.255C380.485 488.984 365.346 489.606 356.765 484.655Z" fill="#FFE0E0"/>
</g>
<path d="M358.571 464.195L199.855 372.827C192.772 368.743 192.601 358.975 195.486 351.72L344.319 274.547C352.516 269.806 365.026 269.292 372.109 273.405L534.424 356.061C540.393 365.487 537.023 376.054 528.826 380.796L386.362 463.053C378.164 467.794 365.655 468.308 358.571 464.195Z" fill="url(#paint2_linear_2813_9358)"/>
<path d="M358.568 452.313L199.852 360.974C192.769 356.889 193.654 349.663 201.851 344.922L344.316 262.665C352.513 257.924 365.022 257.41 372.106 261.523L530.822 352.862C537.905 356.947 537.019 364.173 528.822 368.914L386.358 451.171C378.161 455.912 365.651 456.426 358.568 452.313Z" fill="#C73238"/>
<g filter="url(#filter2_ii_2813_9358)">
<path d="M358.345 441.716L218.194 361.087C211.11 357.003 211.996 349.777 220.193 345.036L344.521 273.261C352.718 268.52 365.228 268.006 372.311 272.118L512.462 352.747C519.545 356.832 518.66 364.058 510.463 368.799L386.135 440.574C377.938 445.315 365.428 445.829 358.345 441.716Z" fill="#FFE2E2"/>
</g>
<path d="M363.711 418.041L228.755 340.349C222.715 336.876 222.585 328.554 225.022 322.385L351.579 256.773C358.552 252.755 369.18 252.314 375.195 255.788L513.209 326.092C518.264 334.102 515.413 343.097 508.466 347.115L387.327 417.056C380.353 421.074 369.725 421.515 363.711 418.041Z" fill="url(#paint3_linear_2813_9358)"/>
<path d="M363.701 407.931L228.745 330.24C222.705 326.766 223.483 320.622 230.43 316.604L351.569 246.663C358.543 242.645 369.171 242.205 375.185 245.678L510.141 323.37C516.181 326.844 515.404 332.988 508.456 337.006L387.317 406.946C380.344 410.964 369.715 411.405 363.701 407.931Z" fill="#C73238"/>
<g filter="url(#filter3_ii_2813_9358)">
<path d="M363.508 398.91L244.339 330.344C238.299 326.87 239.077 320.726 246.024 316.708L351.739 255.659C358.712 251.641 369.341 251.2 375.355 254.674L494.524 323.241C500.564 326.714 499.786 332.858 492.839 336.876L387.124 397.925C380.151 401.943 369.522 402.384 363.508 398.91Z" fill="#FFE0E0"/>
</g>
<path d="M366.738 383.55L254.181 318.764C249.162 315.863 249.024 308.934 251.073 303.777L356.631 249.052C362.433 245.691 371.32 245.322 376.339 248.246L491.452 306.885C495.688 313.561 493.293 321.067 487.492 324.428L386.445 382.767C380.644 386.129 371.757 386.497 366.738 383.573V383.55Z" fill="url(#paint4_linear_2813_9358)"/>
<path d="M366.734 375.123L254.176 310.338C249.157 307.437 249.779 302.303 255.581 298.964L356.627 240.625C362.428 237.264 371.315 236.895 376.334 239.819L488.892 304.605C493.934 307.506 493.289 312.64 487.487 315.978L386.441 374.317C380.639 377.679 371.753 378.047 366.734 375.123Z" fill="#C73238"/>
<g filter="url(#filter4_ii_2813_9358)">
<path d="M366.571 367.594L267.182 310.406C262.163 307.505 262.785 302.371 268.586 299.033L356.763 248.129C362.565 244.768 371.451 244.4 376.47 247.324L475.859 304.512C480.901 307.413 480.256 312.547 474.455 315.885L386.278 366.788C380.476 370.149 371.59 370.518 366.571 367.594Z" fill="#FFECEC"/>
</g>
<path d="M368.513 348.396L294.502 305.805C291.184 303.886 291.106 287.892 292.454 284.496L361.851 248.514C365.661 246.311 371.494 246.078 374.812 247.97L450.508 286.518C453.282 290.899 451.726 307.308 447.915 309.512L381.474 347.878C377.664 350.081 371.831 350.315 368.513 348.422V348.396Z" fill="url(#paint5_linear_2813_9358)"/>
<path d="M368.504 331.416L294.493 288.825C291.175 286.906 291.616 283.536 295.426 281.333L361.867 242.967C365.678 240.763 371.511 240.53 374.829 242.422L448.84 285.014C452.158 286.932 451.717 290.302 447.906 292.506L381.465 330.872C377.655 333.075 371.822 333.309 368.504 331.416Z" fill="#C73238"/>
<path d="M368.414 326.465L303.062 288.877C299.743 286.958 300.184 283.588 303.995 281.385L361.985 247.918C365.796 245.715 371.628 245.481 374.946 247.374L440.299 284.962C443.617 286.881 443.176 290.251 439.366 292.454L381.375 325.921C377.565 328.124 371.732 328.358 368.414 326.465Z" fill="white"/>
<path d="M168.434 103.294L299.773 287.69L366.284 325.997C371.032 328.726 376.855 328.726 381.603 325.997L448.114 287.69L572.133 107.867C572.133 107.867 458.849 31.5326 372.084 36.805C280.993 42.3341 168.457 103.294 168.457 103.294H168.434Z" fill="url(#paint6_linear_2813_9358)"/>
<defs>
<filter id="filter0_d_2813_9358" x="85.9336" y="247.525" width="570.9" height="347.6" filterUnits="userSpaceOnUse" color-interpolation-filters="sRGB">
<feFlood flood-opacity="0" result="BackgroundImageFix"/>
<feColorMatrix in="SourceAlpha" type="matrix" values="0 0 0 0 0 0 0 0 0 0 0 0 0 0 0 0 0 0 127 0" result="hardAlpha"/>
<feOffset dy="4.4"/>
<feGaussianBlur stdDeviation="11"/>
<feComposite in2="hardAlpha" operator="out"/>
<feColorMatrix type="matrix" values="0 0 0 0 0.21167 0 0 0 0 0.21167 0 0 0 0 0.21167 0 0 0 0.55 0"/>
<feBlend mode="normal" in2="BackgroundImageFix" result="effect1_dropShadow_2813_9358"/>
<feBlend mode="normal" in="SourceGraphic" in2="effect1_dropShadow_2813_9358" result="shape"/>
</filter>
<filter id="filter1_ii_2813_9358" x="179.771" y="274.85" width="373.778" height="213.145" filterUnits="userSpaceOnUse" color-interpolation-filters="sRGB">
<feFlood flood-opacity="0" result="BackgroundImageFix"/>
<feBlend mode="normal" in="SourceGraphic" in2="BackgroundImageFix" result="shape"/>
<feColorMatrix in="SourceAlpha" type="matrix" values="0 0 0 0 0 0 0 0 0 0 0 0 0 0 0 0 0 0 127 0" result="hardAlpha"/>
<feOffset dx="-3.3" dy="-1.1"/>
<feGaussianBlur stdDeviation="0.77"/>
<feComposite in2="hardAlpha" operator="arithmetic" k2="-1" k3="1"/>
<feColorMatrix type="matrix" values="0 0 0 0 0 0 0 0 0 0 0 0 0 0 0 0 0 0 0.15 0"/>
<feBlend mode="normal" in2="shape" result="effect1_innerShadow_2813_9358"/>
<feColorMatrix in="SourceAlpha" type="matrix" values="0 0 0 0 0 0 0 0 0 0 0 0 0 0 0 0 0 0 127 0" result="hardAlpha"/>
<feOffset dx="4.4"/>
<feGaussianBlur stdDeviation="3.41"/>
<feComposite in2="hardAlpha" operator="arithmetic" k2="-1" k3="1"/>
<feColorMatrix type="matrix" values="0 0 0 0 0 0 0 0 0 0 0 0 0 0 0 0 0 0 0.25 0"/>
<feBlend mode="normal" in2="effect1_innerShadow_2813_9358" result="effect2_innerShadow_2813_9358"/>
</filter>
<filter id="filter2_ii_2813_9358" x="211.872" y="268.24" width="309.772" height="176.254" filterUnits="userSpaceOnUse" color-interpolation-filters="sRGB">
<feFlood flood-opacity="0" result="BackgroundImageFix"/>
<feBlend mode="normal" in="SourceGraphic" in2="BackgroundImageFix" result="shape"/>
<feColorMatrix in="SourceAlpha" type="matrix" values="0 0 0 0 0 0 0 0 0 0 0 0 0 0 0 0 0 0 127 0" result="hardAlpha"/>
<feOffset dx="-3.3" dy="-1.1"/>
<feGaussianBlur stdDeviation="0.77"/>
<feComposite in2="hardAlpha" operator="arithmetic" k2="-1" k3="1"/>
<feColorMatrix type="matrix" values="0 0 0 0 0 0 0 0 0 0 0 0 0 0 0 0 0 0 0.15 0"/>
<feBlend mode="normal" in2="shape" result="effect1_innerShadow_2813_9358"/>
<feColorMatrix in="SourceAlpha" type="matrix" values="0 0 0 0 0 0 0 0 0 0 0 0 0 0 0 0 0 0 127 0" result="hardAlpha"/>
<feOffset dx="4.4"/>
<feGaussianBlur stdDeviation="3.41"/>
<feComposite in2="hardAlpha" operator="arithmetic" k2="-1" k3="1"/>
<feColorMatrix type="matrix" values="0 0 0 0 0 0 0 0 0 0 0 0 0 0 0 0 0 0 0.25 0"/>
<feBlend mode="normal" in2="effect1_innerShadow_2813_9358" result="effect2_innerShadow_2813_9358"/>
</filter>
<filter id="filter3_ii_2813_9358" x="238.728" y="251.232" width="264.268" height="150.021" filterUnits="userSpaceOnUse" color-interpolation-filters="sRGB">
<feFlood flood-opacity="0" result="BackgroundImageFix"/>
<feBlend mode="normal" in="SourceGraphic" in2="BackgroundImageFix" result="shape"/>
<feColorMatrix in="SourceAlpha" type="matrix" values="0 0 0 0 0 0 0 0 0 0 0 0 0 0 0 0 0 0 127 0" result="hardAlpha"/>
<feOffset dx="-3.3" dy="-1.1"/>
<feGaussianBlur stdDeviation="0.77"/>
<feComposite in2="hardAlpha" operator="arithmetic" k2="-1" k3="1"/>
<feColorMatrix type="matrix" values="0 0 0 0 0 0 0 0 0 0 0 0 0 0 0 0 0 0 0.15 0"/>
<feBlend mode="normal" in2="shape" result="effect1_innerShadow_2813_9358"/>
<feColorMatrix in="SourceAlpha" type="matrix" values="0 0 0 0 0 0 0 0 0 0 0 0 0 0 0 0 0 0 127 0" result="hardAlpha"/>
<feOffset dx="4.4"/>
<feGaussianBlur stdDeviation="3.41"/>
<feComposite in2="hardAlpha" operator="arithmetic" k2="-1" k3="1"/>
<feColorMatrix type="matrix" values="0 0 0 0 0 0 0 0 0 0 0 0 0 0 0 0 0 0 0.25 0"/>
<feBlend mode="normal" in2="effect1_innerShadow_2813_9358" result="effect2_innerShadow_2813_9358"/>
</filter>
<filter id="filter4_ii_2813_9358" x="262.251" y="244.249" width="221.409" height="125.319" filterUnits="userSpaceOnUse" color-interpolation-filters="sRGB">
<feFlood flood-opacity="0" result="BackgroundImageFix"/>
<feBlend mode="normal" in="SourceGraphic" in2="BackgroundImageFix" result="shape"/>
<feColorMatrix in="SourceAlpha" type="matrix" values="0 0 0 0 0 0 0 0 0 0 0 0 0 0 0 0 0 0 127 0" result="hardAlpha"/>
<feOffset dx="-3.3" dy="-1.1"/>
<feGaussianBlur stdDeviation="0.77"/>
<feComposite in2="hardAlpha" operator="arithmetic" k2="-1" k3="1"/>
<feColorMatrix type="matrix" values="0 0 0 0 0 0 0 0 0 0 0 0 0 0 0 0 0 0 0.15 0"/>
<feBlend mode="normal" in2="shape" result="effect1_innerShadow_2813_9358"/>
<feColorMatrix in="SourceAlpha" type="matrix" values="0 0 0 0 0 0 0 0 0 0 0 0 0 0 0 0 0 0 127 0" result="hardAlpha"/>
<feOffset dx="4.4"/>
<feGaussianBlur stdDeviation="3.41"/>
<feComposite in2="hardAlpha" operator="arithmetic" k2="-1" k3="1"/>
<feColorMatrix type="matrix" values="0 0 0 0 0 0 0 0 0 0 0 0 0 0 0 0 0 0 0.25 0"/>
<feBlend mode="normal" in2="effect1_innerShadow_2813_9358" result="effect2_innerShadow_2813_9358"/>
</filter>
<linearGradient id="paint0_linear_2813_9358" x1="430.782" y1="98.1453" x2="379.966" y2="214.052" gradientUnits="userSpaceOnUse">
<stop stop-color="#626262"/>
<stop offset="1" stop-color="#262626"/>
</linearGradient>
<linearGradient id="paint1_linear_2813_9358" x1="423.425" y1="528.444" x2="340.456" y2="360.104" gradientUnits="userSpaceOnUse">
<stop stop-color="#530000"/>
<stop offset="0.54" stop-color="#7F0000"/>
<stop offset="1" stop-color="#D73434"/>
</linearGradient>
<linearGradient id="paint2_linear_2813_9358" x1="413.438" y1="466.251" x2="351.06" y2="332.155" gradientUnits="userSpaceOnUse">
<stop stop-color="#530000"/>
<stop offset="0.54" stop-color="#7F0000"/>
<stop offset="1" stop-color="#D73434"/>
</linearGradient>
<linearGradient id="paint3_linear_2813_9358" x1="410.336" y1="419.77" x2="357.3" y2="305.759" gradientUnits="userSpaceOnUse">
<stop stop-color="#530000"/>
<stop offset="0.54" stop-color="#7F0000"/>
<stop offset="1" stop-color="#D73434"/>
</linearGradient>
<linearGradient id="paint4_linear_2813_9358" x1="405.649" y1="385.036" x2="361.396" y2="289.923" gradientUnits="userSpaceOnUse">
<stop stop-color="#530000"/>
<stop offset="0.54" stop-color="#7F0000"/>
<stop offset="1" stop-color="#D73434"/>
</linearGradient>
<linearGradient id="paint5_linear_2813_9358" x1="394.088" y1="349.321" x2="358.933" y2="282.147" gradientUnits="userSpaceOnUse">
<stop stop-color="#530000"/>
<stop offset="0.54" stop-color="#7F0000"/>
<stop offset="1" stop-color="#D73434"/>
</linearGradient>
<linearGradient id="paint6_linear_2813_9358" x1="368.179" y1="53.8822" x2="376.831" y2="319.246" gradientUnits="userSpaceOnUse">
<stop stop-color="#F9EBEB" stop-opacity="0"/>
<stop offset="0.18" stop-color="#F9EFEF" stop-opacity="0"/>
<stop offset="0.3" stop-color="#FAF0F0" stop-opacity="0"/>
<stop offset="0.38" stop-color="#FAF1F1" stop-opacity="0.04"/>
<stop offset="0.5" stop-color="#FDECEC" stop-opacity="0.13"/>
<stop offset="0.57" stop-color="#FFE9E9" stop-opacity="0.39"/>
<stop offset="0.64" stop-color="#FFE8E8" stop-opacity="0.1"/>
<stop offset="0.79" stop-color="#D5585D" stop-opacity="0.16"/>
<stop offset="0.883469" stop-color="#D5585D" stop-opacity="0.16"/>
<stop offset="1" stop-color="#D5585D" stop-opacity="0.6"/>
</linearGradient>
</defs>
</svg>
