<svg width="158" height="26" viewBox="0 0 158 26" fill="none" xmlns="http://www.w3.org/2000/svg">
<path d="M26.6867 24.9302V18.6636L20.0146 23.7552H10.7536V14.2129H17.3165L20.7801 16.9902V9.94028L17.3165 13.0736H10.7536V3.6025H20.0146L26.6138 8.55166V2.67676H0.508383V3.17523C0.508383 3.17523 3.20643 3.28206 3.20643 5.70323V21.9037C3.20643 24.2537 0.471924 24.4317 0.471924 24.4317V24.9302H26.6867Z" fill="url(#paint0_linear)"/>
<path d="M28.3159 24.9293H35.3164L38.5613 22.4013V13.0726C39.3634 11.9688 40.8946 10.5446 43.3011 10.5446C45.9991 10.5446 46.2907 12.8946 46.2907 15.8142V21.6891C46.2907 24.0747 42.9364 24.4307 42.9364 24.4307V24.9293H56.5361L53.8015 22.152V15.921C53.8015 15.1733 53.5099 13.6067 52.9994 12.8946C53.9109 11.7552 55.588 10.6158 57.8121 10.6158C60.7654 10.6158 61.2394 12.8589 61.2394 15.8142V24.9293H71.4482V24.4307C69.6617 24.3239 68.7502 23.5049 68.7502 21.9028L68.7138 15.5294C68.6772 11.5771 64.849 8.90674 59.781 8.90674C55.2964 8.90674 53.1452 10.9363 52.3797 12.0044C51.1035 10.0461 48.1502 8.90674 45.1241 8.90674C40.8217 8.90674 38.9258 10.865 38.0508 11.9688L37.8685 11.1499L35.3527 9.08476H28.3159V9.58324C30.1026 9.69006 31.014 10.509 31.0505 12.1112V21.9028C31.0505 24.2883 28.3159 24.4307 28.3159 24.4307V24.9293Z" fill="url(#paint1_linear)"/>
<path d="M71.8419 17.2038C71.8783 21.9037 77.7848 25.1438 84.8217 25.1438C89.8531 25.1438 95.2857 23.6839 97.8014 20.6574L97.1086 20.1235C95.395 21.512 92.4053 22.0817 89.926 22.0461C84.3841 21.9393 79.936 19.3401 79.7537 16.1355C79.7172 15.4591 79.7537 14.8538 79.8995 14.2841H98.166C98.166 12.4682 94.9211 8.87207 86.5717 8.87207C78.4777 8.87207 71.769 12.2546 71.8419 17.2038ZM86.4624 9.58418C90.5823 9.58418 90.9104 13.1091 90.9104 13.1091H80.1913C81.1027 10.9372 83.2904 9.58418 86.4624 9.58418Z" fill="url(#paint2_linear)"/>
<path d="M98.4788 9.58384C100.265 9.69066 101.177 10.5096 101.177 12.1118V21.9034C101.177 24.2889 98.4788 24.3957 98.4788 24.3957V24.9299H108.688V13.8209C109.052 13.4292 109.526 13.1088 110 12.8239C112.115 10.7944 114.412 10.8656 114.412 10.8656L118.678 14.6398L120.501 9.19218C119.771 9.08536 119.006 9.01416 118.167 9.01416C114.12 9.01416 111.495 10.1535 108.287 12.3611L107.922 11.0437L105.516 9.08536H98.4788V9.58384Z" fill="url(#paint3_linear)"/>
<path d="M121.241 9.58403C123.064 9.69085 123.975 10.5454 123.975 12.112V24.93H134.221V24.4315C132.398 24.3247 131.486 23.4701 131.486 21.9035V9.08555H121.241V9.58403ZM122.335 3.88715L127.22 7.05603L132.069 3.88715L127.22 0.718262L122.335 3.88715Z" fill="url(#paint4_linear)"/>
<path d="M151.372 22.1529C151.372 23.2922 149.877 24.1824 147.398 24.1824C146.815 24.1824 146.158 24.1468 145.466 24.04L136.35 18.4143L136.314 24.8945L139.34 24.2536C141.455 24.6809 144.445 25.1794 147.325 25.1794C153.231 25.1794 157.023 23.1142 157.023 20.5862C157.023 15.281 141.491 15.3166 141.491 11.5068C141.491 10.225 144.044 9.2993 146.669 9.72657L155.857 15.5303L155.929 8.83643L152.83 9.65536C150.497 9.19249 148.163 8.87203 145.684 8.87203C141.418 8.87203 136.059 10.5455 136.059 13.6076C136.059 19.5893 151.372 19.0908 151.372 22.1529Z" fill="url(#paint5_linear)"/>
<defs>
<linearGradient id="paint0_linear" x1="-16.0393" y1="9.41357" x2="45.1108" y2="95.1537" gradientUnits="userSpaceOnUse">
<stop stop-color="#64DBFC"/>
<stop offset="0.386644" stop-color="#30FFDF"/>
<stop offset="1" stop-color="#FFFE39"/>
</linearGradient>
<linearGradient id="paint1_linear" x1="-16.0393" y1="9.41258" x2="45.1108" y2="95.1527" gradientUnits="userSpaceOnUse">
<stop stop-color="#64DBFC"/>
<stop offset="0.386644" stop-color="#30FFDF"/>
<stop offset="1" stop-color="#FFFE39"/>
</linearGradient>
<linearGradient id="paint2_linear" x1="-16.0393" y1="9.41352" x2="45.1108" y2="95.1536" gradientUnits="userSpaceOnUse">
<stop stop-color="#64DBFC"/>
<stop offset="0.386644" stop-color="#30FFDF"/>
<stop offset="1" stop-color="#FFFE39"/>
</linearGradient>
<linearGradient id="paint3_linear" x1="-16.0393" y1="9.41318" x2="45.1107" y2="95.1533" gradientUnits="userSpaceOnUse">
<stop stop-color="#64DBFC"/>
<stop offset="0.386644" stop-color="#30FFDF"/>
<stop offset="1" stop-color="#FFFE39"/>
</linearGradient>
<linearGradient id="paint4_linear" x1="-16.039" y1="9.41337" x2="45.1111" y2="95.1534" gradientUnits="userSpaceOnUse">
<stop stop-color="#64DBFC"/>
<stop offset="0.386644" stop-color="#30FFDF"/>
<stop offset="1" stop-color="#FFFE39"/>
</linearGradient>
<linearGradient id="paint5_linear" x1="-16.039" y1="9.41349" x2="45.111" y2="95.1536" gradientUnits="userSpaceOnUse">
<stop stop-color="#64DBFC"/>
<stop offset="0.386644" stop-color="#30FFDF"/>
<stop offset="1" stop-color="#FFFE39"/>
</linearGradient>
</defs>
</svg>
