<svg width="150" height="46" viewBox="0 0 150 46" fill="none" xmlns="http://www.w3.org/2000/svg">
<path d="M17.7606 22.6522L17.3702 22.2593C17.0747 21.9642 16.567 22.1732 16.567 22.5917V28.2035C16.567 28.4626 16.7796 28.6735 17.0394 28.6735H22.6526C23.0711 28.6735 23.2817 28.1666 22.9842 27.8719C22.8006 27.6884 22.8006 27.3912 22.9842 27.2081L28.9543 21.2196C29.1382 21.0371 29.1382 20.7401 28.9543 20.5557L28.4104 20.0138C28.1148 19.7186 28.3255 19.2116 28.7428 19.2116H34.3525C34.6119 19.2116 34.8242 19.4223 34.8242 19.6817V25.2929C34.8242 25.7115 34.3155 25.921 34.0193 25.6253L33.6412 25.2474C33.4565 25.0587 33.1594 25.0587 32.9786 25.2474L22.913 35.3081C22.7303 35.4913 22.4336 35.4913 22.2485 35.3081L9.93396 22.9935C9.74884 22.8084 9.74884 22.5108 9.93396 22.3269L26.9815 5.2801C27.1646 5.09659 27.1646 4.79718 26.9815 4.61448L22.9729 0.606266C22.7894 0.423562 22.4922 0.423562 22.3079 0.606266L0.23859 22.6764C0.0558866 22.8599 0.0558866 23.1593 0.23859 23.342L22.3057 45.4089C22.4892 45.5913 22.7887 45.5913 22.9714 45.4089L45.0374 23.342C45.2198 23.1585 45.2198 22.8607 45.0374 22.6778L32.0551 9.69542C31.8735 9.51271 31.5749 9.51271 31.3909 9.69542L18.4286 22.6524C18.2435 22.8375 17.9457 22.8375 17.7606 22.6524V22.6522Z" fill="#DE5959"/>
<path d="M120.603 28.2601C120.031 28.2601 119.538 28.4647 119.125 28.8765C118.717 29.2885 118.509 29.775 118.509 30.3383C118.509 31.197 118.944 31.8651 119.809 32.3423C120.758 32.6014 121.521 32.4326 122.095 31.8453C122.511 31.4307 122.714 30.9336 122.714 30.3544C122.714 29.7697 122.511 29.2808 122.095 28.8766C121.683 28.4688 121.189 28.2656 120.601 28.2656V28.2602H120.603V28.2601ZM86.9203 12.3271H85.3581C84.6832 12.3271 84.1335 12.8706 84.1335 13.547V14.4187C82.4734 12.6899 80.5901 11.8247 78.4867 11.8247C76.0602 11.8247 74.0343 12.7282 72.4177 14.5303C70.7979 16.3322 69.9926 18.586 69.9926 21.2888C69.9926 24.0382 70.7993 26.3386 72.4145 28.1776C74.0476 29.9806 76.1067 30.8803 78.601 30.8803C80.5736 30.8803 82.4188 30.075 84.1351 28.4684V30.1919C84.1351 31.029 84.8155 31.7094 85.6506 31.7094H88.3176V13.7239C88.3174 12.9544 87.6914 12.3271 86.9201 12.3271H86.9203ZM82.9714 25.5639C82.0189 26.6258 80.7749 27.1559 79.2293 27.1559C77.7842 27.1559 76.5857 26.6097 75.637 25.5095C74.7114 24.4263 74.249 23.0152 74.249 21.2864C74.249 19.6705 74.7253 18.3097 75.6737 17.2123C76.6358 16.1251 77.8336 15.5857 79.2661 15.5857C80.7849 15.5857 82.0175 16.1226 82.9676 17.2017C83.9197 18.2993 84.3961 19.6919 84.3961 21.3823C84.3961 23.0737 83.9198 24.4678 82.9676 25.5666H82.9717V25.5639H82.9714ZM69.9899 15.3716V13.5896C69.9899 12.8906 69.4265 12.3298 68.7301 12.3298H67.0831C66.3894 12.3298 65.8246 12.888 65.8246 13.5869V14.3629C64.3183 12.6726 62.4296 11.8248 60.1585 11.8248C57.5663 11.8248 55.4775 12.8042 53.8988 14.751C52.4292 16.5875 51.6949 18.8226 51.6949 21.4537C51.6949 24.1554 52.4862 26.4118 54.0677 28.2123C55.6355 29.9943 57.6468 30.878 60.1039 30.878C62.2618 30.878 64.1701 30.0357 65.8245 28.3439V30.8621C65.8245 34.6041 64.3005 36.4751 61.2524 36.4751C59.5975 36.4751 58.3404 35.9118 57.4766 34.7876C57.2562 34.5032 57.0733 34.1496 56.9278 33.7232C56.7237 33.1265 56.1563 32.7305 55.529 32.7305H53.9505C53.1545 32.7305 52.5626 33.4879 52.7637 34.2586C53.1956 35.9011 54.0294 37.2353 55.2706 38.2664C56.8262 39.5632 58.8088 40.2119 61.214 40.2119C64.0651 40.2119 66.3062 39.2737 67.9367 37.4C68.8005 36.4247 69.3785 35.258 69.6754 33.8998C69.7745 33.4108 69.8523 32.8354 69.9067 32.1855C69.9612 31.5397 69.9884 30.7902 69.9884 29.9372V27.3164C68.8222 25.6368 68.2358 23.6288 68.2358 21.2888C68.2358 18.9886 68.8209 17.0232 69.9884 15.3715H69.9898L69.9899 15.3716ZM64.7129 25.4217C63.7876 26.5791 62.5303 27.1558 60.9358 27.1558C59.3431 27.1558 58.0967 26.5843 57.1937 25.4323C56.3686 24.3852 55.9552 23.0377 55.9552 21.398C55.9552 19.7289 56.3684 18.3708 57.1937 17.3239C58.1095 16.153 59.3546 15.5672 60.9358 15.5672C62.4163 15.5672 63.6328 16.1038 64.5822 17.1762C65.5208 18.2248 65.9919 19.6256 65.9919 21.381C65.9919 23.022 65.5646 24.3667 64.7128 25.4192V25.422L64.7129 25.4217ZM104.623 12.3404V12.3271H95.9828V7.03557C95.9828 6.3552 95.4328 5.80505 94.7511 5.80505H93.064C92.3771 5.80505 91.819 6.36323 91.819 7.05149V12.3271H90.0391V16.2113H91.8165V31.7071H94.1924C95.183 31.7071 95.9804 30.9097 95.9804 29.9184V16.2141H100.253C100.59 15.5696 100.999 14.9755 101.484 14.432C102.37 13.4645 103.417 12.7683 104.621 12.3406H104.623L104.623 12.3404ZM125.882 5.80505C125.143 5.80505 124.508 6.07216 123.976 6.60517C123.448 7.13518 123.179 7.76642 123.179 8.49333C123.179 9.26025 123.445 9.90334 123.976 10.4389C124.508 10.9691 125.151 11.2336 125.903 11.2336C126.657 11.2336 127.292 10.9692 127.806 10.4362C128.338 9.90075 128.606 9.26556 128.606 8.51075C128.606 7.75881 128.34 7.12089 127.808 6.6053C127.273 6.06971 126.631 5.80273 125.879 5.80273L125.882 5.80518V5.80505ZM126.726 14.3709H125.215C124.44 14.3709 123.809 14.9955 123.809 15.7769V29.0017C124.128 29.3764 124.281 29.8189 124.281 30.3292C124.281 30.8395 124.131 31.2861 123.809 31.6622V32.4065H126.491C127.312 32.4065 127.976 31.7393 127.976 30.9179V15.6149C127.976 14.9264 127.416 14.3685 126.725 14.3685L126.726 14.3712L126.726 14.3709ZM146.306 16.9223C144.43 15.0859 142.146 14.1663 139.455 14.1663C136.776 14.1663 134.503 15.078 132.64 16.9091C130.778 18.7323 129.845 20.9489 129.845 23.5534C129.845 26.3161 130.756 28.6163 132.585 30.4435C134.413 32.2947 136.68 33.2194 139.38 33.2194C142.107 33.2194 144.409 32.3132 146.286 30.4979C148.145 28.6668 149.081 26.4065 149.081 23.7024C149.081 21.022 148.156 18.7629 146.306 16.9225V16.9223ZM143.359 27.9226C142.386 28.9738 141.084 29.4933 139.452 29.4933C137.834 29.4933 136.534 28.9657 135.545 27.9012C134.583 26.8543 134.1 25.4244 134.1 23.6251C134.1 21.9481 134.597 20.5768 135.583 19.5163C136.571 18.4532 137.86 17.9229 139.455 17.9229C141.069 17.9229 142.373 18.4532 143.359 19.5163C144.334 20.5634 144.823 21.964 144.823 23.7156C144.823 25.4723 144.332 26.8714 143.359 27.9199V27.9253V27.9226H143.359Z" fill="#DE5959"/>
<path d="M106.175 27.1947C105.317 26.3256 104.837 25.1402 104.727 23.6573H116.668C117.213 23.6573 117.662 23.2214 117.67 22.678C117.67 19.6974 116.904 17.3772 115.375 15.6973C113.829 14.0059 111.727 13.1606 109.077 13.1606C106.452 13.1606 104.339 14.031 102.747 15.7719C101.166 17.5391 100.377 19.8446 100.377 22.6977C100.377 25.572 101.194 27.8816 102.819 29.6212C103.956 30.8315 105.35 31.6142 107.005 31.9784C107.698 32.1417 108.417 32.2282 109.144 32.2176C112.11 32.2788 114.691 32.3398 117.657 32.401L117.662 31.9652C117.299 31.5706 117.117 31.0936 117.117 30.5408C117.117 30.0012 117.307 29.5375 117.678 29.1362L117.681 28.6086C115.342 28.5501 109.67 28.4943 109.445 28.4943C108.116 28.4943 107.023 28.0652 106.176 27.1975V27.1948L106.175 27.1947ZM105.596 18.8656C105.858 18.456 106.167 18.1106 106.533 17.8209C106.901 17.5259 107.299 17.3079 107.746 17.1539C108.19 16.9997 108.666 16.9226 109.176 16.9226C111.392 16.9226 112.796 18.031 113.38 20.2528H105.005C105.141 19.7344 105.338 19.2722 105.596 18.8628V18.8656H105.596Z" fill="#DE5959"/>
</svg>
