<svg width="200" height="32" viewBox="0 0 200 32" fill="none" xmlns="http://www.w3.org/2000/svg">
<path fill-rule="evenodd" clip-rule="evenodd" d="M37.0294 8.24701V17.4331H28.5784V9.4287C28.5784 8.77606 28.0848 8.24701 27.476 8.24701H24.6236V30.1377C24.6236 30.7905 25.117 31.3197 25.726 31.3197H28.5784V21.1379H37.0294V30.1377C37.0294 30.7905 37.5227 31.3197 38.1318 31.3197H40.984V9.4287C40.984 8.77606 40.4905 8.24701 39.8815 8.24701H37.0294Z" fill="white"/>
<path fill-rule="evenodd" clip-rule="evenodd" d="M53.618 13.6865V24.6201C53.618 25.6135 53.1455 26.5553 52.3432 27.0523C50.1038 28.4396 47.7864 26.7066 47.7864 24.4218V14.8682C47.7864 14.2156 47.2928 13.6865 46.684 13.6865H43.8202V24.8114C43.8202 28.391 46.5518 31.3196 49.8906 31.3196H51.5138C54.8527 31.3196 57.5842 28.391 57.5842 24.8114V14.8682C57.5842 14.2156 57.0908 13.6865 56.4821 13.6865H53.618Z" fill="white"/>
<path fill-rule="evenodd" clip-rule="evenodd" d="M97.6073 31.3196H100.46V15.8365C100.46 15.1835 99.9659 14.6545 99.3572 14.6545H96.505V30.1376C96.505 30.7905 96.9985 31.3196 97.6073 31.3196Z" fill="#2483FF"/>
<path fill-rule="evenodd" clip-rule="evenodd" d="M98.4822 12.9766C99.7012 12.9766 100.689 11.9172 100.689 10.6103C100.689 9.30341 99.7012 8.2442 98.4822 8.2442C97.2631 8.2442 96.2752 9.30341 96.2752 10.6103C96.2752 11.9172 97.2631 12.9766 98.4822 12.9766Z" fill="#2483FF"/>
<path fill-rule="evenodd" clip-rule="evenodd" d="M71.5017 23.9986C71.5017 26.1021 69.8967 27.5023 67.9347 27.5023C65.9726 27.5023 64.3673 26.1021 64.3673 23.9986V20.9968C64.3673 18.8932 65.9726 17.493 67.9347 17.493C69.8967 17.493 71.5017 18.8932 71.5017 20.9968V23.9986ZM67.9347 13.6757C63.7863 13.6757 60.3922 16.8571 60.3922 21.3044V23.7099C60.3922 28.1572 63.7863 31.3196 67.9347 31.3196C72.0828 31.3196 75.4771 28.1572 75.4771 23.7099V21.3044C75.4771 16.8571 72.0828 13.6757 67.9347 13.6757Z" fill="white"/>
<path fill-rule="evenodd" clip-rule="evenodd" d="M89.4525 23.9985C89.4525 26.1021 87.8473 27.5024 85.8852 27.5024C83.9234 27.5024 82.3179 26.1021 82.3179 23.9985V20.9969C82.3179 18.8932 83.9234 17.493 85.8852 17.493C87.8473 17.493 89.4525 18.8932 89.4525 20.9969V23.9985ZM85.8852 13.6758C84.5887 13.6758 83.3662 13.9866 82.2977 14.5496V9.40901C82.2977 8.7561 81.8039 8.22705 81.1953 8.22705H78.3428V23.7099C78.3428 28.1574 81.737 31.3197 85.8852 31.3197C90.0336 31.3197 93.4276 28.1574 93.4276 23.7099V21.3044C93.4276 16.8571 90.0336 13.6758 85.8852 13.6758Z" fill="#2483FF"/>
<path fill-rule="evenodd" clip-rule="evenodd" d="M168.31 24.0715C168.31 26.1532 166.721 27.5392 164.779 27.5392C162.837 27.5392 161.248 26.1532 161.248 24.0715V21.1005C161.248 19.0188 162.837 17.633 164.779 17.633C166.721 17.633 168.31 19.0188 168.31 21.1005V24.0715ZM164.779 13.8551C163.497 13.8551 162.285 14.1624 161.229 14.7194V9.41265C161.229 8.76677 160.74 8.2431 160.137 8.2431H157.314V23.7859C157.314 28.1874 160.673 31.3171 164.779 31.3171C168.884 31.3171 172.243 28.1874 172.243 23.7859V21.4048C172.243 17.0035 168.884 13.8551 164.779 13.8551Z" fill="white"/>
<path fill-rule="evenodd" clip-rule="evenodd" d="M200 31.2381V28.5758C200 27.9455 199.524 27.4353 198.937 27.4375C198.341 27.4398 197.595 27.4418 196.965 27.4418C195.359 27.4418 195.433 26.5806 195.433 24.3479V9.40086C195.433 8.77197 194.958 8.26233 194.372 8.26233H191.476V24.8583C191.476 28.8774 192.443 31.2381 196.489 31.2381C198.053 31.2381 199.186 31.1906 200 31.2384V31.2381Z" fill="white"/>
<path fill-rule="evenodd" clip-rule="evenodd" d="M124.204 17.5299H116.551V19.7654C116.551 20.4375 117.059 20.9823 117.686 20.9823H121.321V22.9588C121.321 24.417 120.981 25.4931 120.279 26.2516C119.418 27.2055 118.225 27.7095 116.832 27.7095C115.576 27.7095 114.38 27.2433 113.634 26.4628C112.597 25.3731 112.374 24.1898 112.374 19.7973C112.374 15.4299 112.597 14.252 113.634 13.1634C114.399 12.3629 115.891 11.7572 117.128 11.7572C121.312 11.7572 122.717 13.349 123.765 14.7983H123.902V11.5573C123.902 11.0782 123.688 10.6303 123.339 10.3311C121.587 8.82728 119.84 8.27771 116.832 8.27771C114.402 8.27771 112.324 9.09625 110.657 10.7104C108.355 12.9392 108.355 15.4539 108.356 19.62V19.9745C108.355 24.1406 108.355 26.6551 110.657 28.8838C112.301 30.476 114.436 31.3171 116.832 31.3171C119.347 31.3171 121.562 30.4093 123.235 28.6921L123.236 28.6915C124.73 27.1537 125.339 24.2087 125.339 21.1465V18.7465C125.339 18.0747 124.831 17.5299 124.204 17.5299Z" fill="white"/>
<path fill-rule="evenodd" clip-rule="evenodd" d="M136.673 31.2381V28.5758C136.673 27.9455 136.197 27.4353 135.609 27.4375C135.015 27.4398 134.269 27.4418 133.638 27.4418C132.031 27.4418 132.106 26.5806 132.106 24.3479V9.40086C132.106 8.77197 131.631 8.26233 131.045 8.26233H128.149V24.8583C128.149 28.8774 129.116 31.2381 133.162 31.2381C134.726 31.2381 135.86 31.1906 136.673 31.2384L136.673 31.2381Z" fill="white"/>
<path fill-rule="evenodd" clip-rule="evenodd" d="M150.523 24.0715C150.523 26.1533 148.934 27.5392 146.993 27.5392C145.052 27.5392 143.463 26.1533 143.463 24.0715V21.1007C143.463 19.019 145.052 17.633 146.993 17.633C148.934 17.633 150.523 19.019 150.523 21.1007V24.0715ZM146.993 13.8551C142.888 13.8551 139.528 17.0036 139.528 21.405V23.7859C139.528 28.1876 142.888 31.3171 146.993 31.3171C151.099 31.3171 154.458 28.1876 154.458 23.7859V21.405C154.458 17.0036 151.099 13.8551 146.993 13.8551Z" fill="white"/>
<path fill-rule="evenodd" clip-rule="evenodd" d="M184.731 23.4127V27.7942C184.426 27.8575 184.089 27.908 183.724 27.9439C182.828 28.0343 182.025 28.0507 181.094 27.9598C180.729 27.9245 180.391 27.8247 180.092 27.6655C179.803 27.511 179.565 27.2913 179.369 26.9934C179.183 26.7113 179.088 26.2944 179.088 25.7546C179.088 24.9136 179.367 24.3114 179.943 23.9129C180.556 23.4885 181.484 23.2731 182.703 23.2731C183.031 23.2731 183.432 23.2932 183.905 23.3334C184.214 23.3599 184.491 23.3864 184.731 23.4127ZM186.848 15.339C185.675 14.3345 183.96 13.8254 181.75 13.8254C180.929 13.8254 180.065 13.8896 179.183 14.0159C178.476 14.1171 177.475 14.262 176.78 14.4335C176.499 14.5032 176.447 14.7403 176.447 15.0243V17.2893C176.447 17.6929 176.451 18.0601 176.85 17.9559C177.594 17.7617 179.036 17.4191 179.428 17.3498C180.047 17.2404 180.722 17.1854 181.433 17.1854C182.54 17.1854 183.384 17.3977 183.941 17.8151C184.465 18.2084 184.731 18.9572 184.731 20.0401V20.1712C184.533 20.1518 184.318 20.1331 184.082 20.1162C183.64 20.0843 183.075 20.0681 182.385 20.0681C181.444 20.0681 180.531 20.1826 179.675 20.4083C178.805 20.6382 178.023 20.9933 177.351 21.4646C176.666 21.9454 176.118 22.5554 175.72 23.2795C175.318 24.0087 175.115 24.8628 175.115 25.8169C175.115 26.7859 175.289 27.6296 175.632 28.3237C175.978 29.0242 176.476 29.6083 177.111 30.059C177.735 30.5042 178.502 30.8296 179.389 31.0276C180.25 31.2197 181.227 31.3171 182.29 31.3171C183.064 31.3171 188.64 31.2329 188.64 28.388C188.64 25.0914 188.64 20.1639 188.64 20.1639C188.64 17.9815 188.038 16.3582 186.848 15.339Z" fill="white"/>
<path fill-rule="evenodd" clip-rule="evenodd" d="M12.7823 9.84845C12.7823 5.25388 10.6946 1.30278 9.10669 0.0161435C9.10015 0.0120967 8.98515 -0.0572398 8.99496 0.126489L8.99269 0.132154C8.86083 9.00319 4.63366 11.4076 2.3097 14.6464C-3.05342 22.1207 1.93424 30.3154 7.01323 31.83C9.85509 32.6775 6.35694 30.3306 5.9065 25.3734C5.36168 19.3818 12.7823 14.8084 12.7823 9.84845Z" fill="white"/>
<path fill-rule="evenodd" clip-rule="evenodd" d="M15.2191 12.8688C15.1866 12.845 15.1403 12.8288 15.1084 12.8855C15.021 14.0022 13.957 16.3909 12.6085 18.5843C8.03455 26.0244 10.6411 29.611 12.1067 31.5373C12.9578 32.6555 12.1067 31.5373 14.2339 30.3944C14.4005 30.305 18.3843 27.9097 18.8157 22.4524C19.2333 17.1676 16.2727 13.8365 15.2191 12.8688Z" fill="#2483FF"/>
</svg>
