<svg width="120" height="31" viewBox="0 0 120 31" fill="none" xmlns="http://www.w3.org/2000/svg">
<mask id="mask0" style="mask-type:alpha" maskUnits="userSpaceOnUse" x="8" y="0" width="14" height="30">
<path d="M8.09529 0.30307H21.6664V29.9079H8.09529V0.30307Z" fill="white"/>
</mask>
<g mask="url(#mask0)">
<path fill-rule="evenodd" clip-rule="evenodd" d="M14.8762 0.303009C11.1374 0.303009 8.09529 3.29877 8.09529 6.98119C8.09529 8.53028 8.64637 10.0406 9.64729 11.233L10.2365 11.9133L17.107 20.2336L17.7094 20.9348C18.2571 21.5879 18.5464 22.3812 18.5464 23.23C18.5464 25.2179 16.9042 26.8351 14.8854 26.8351C12.8667 26.8351 11.2245 25.2179 11.2245 23.23V22.7112C10.2547 23.1751 9.18452 23.4736 8.11344 23.5666C8.29221 27.093 11.2611 29.9079 14.8854 29.9079C18.6245 29.9079 21.6664 26.9121 21.6664 23.23C21.6664 21.6806 21.1153 20.1709 20.103 18.9642L19.5181 18.2833L12.6454 9.96058L12.0448 9.26695C11.5021 8.61634 11.2156 7.82604 11.2156 6.98119C11.2156 4.99331 12.8574 3.37574 14.8762 3.37574C16.895 3.37574 18.5371 4.99331 18.5371 6.98119V7.41119C19.4747 6.9524 20.5005 6.6924 21.6467 6.61877C21.455 3.10452 18.4916 0.303009 14.8762 0.303009Z" fill="#0D408C"/>
</g>
<path fill-rule="evenodd" clip-rule="evenodd" d="M34.2604 20.7657C34.6911 20.5535 34.7893 20.0714 34.7893 19.2035V13.7839V9.61809C34.7893 9.07809 34.6324 8.57658 34.2604 8.30658C34.2604 8.30658 36.4536 8.32597 38.1379 8.32597C37.6093 8.57658 37.6093 9.11658 37.6093 9.98446V18.8948C37.6093 20.4184 38.1967 20.7272 38.1967 20.7272C38.1967 20.7272 35.0047 20.8232 34.2604 20.7657Z" fill="white"/>
<path fill-rule="evenodd" clip-rule="evenodd" d="M46.9701 20.7657C47.3421 20.6111 47.4793 19.6084 47.4793 19.1457L47.499 14.6905C47.499 13.456 46.8332 13.0702 45.6384 13.0702C44.679 13.0702 44.483 13.2633 43.7781 13.8417L43.7584 18.4705C43.7584 19.4733 43.7781 20.5151 44.4049 20.7657C43.8956 20.7657 40.8015 20.862 40.8405 20.7657C41.3498 20.6111 41.3304 19.7242 41.3304 19.2996V13.2248C41.3304 12.2411 41.1541 12.0869 40.743 11.8745C41.663 11.7202 43.7781 11.5275 43.7781 11.5275L43.7584 13.0126C44.7769 12.2411 46.2458 11.4502 47.5969 11.4502C49.4378 11.4502 49.9273 12.8775 49.9273 14.5942C49.9273 15.6548 49.9076 16.6575 49.9076 17.6993C49.9076 19.3193 49.9858 20.4954 50.6125 20.7078C49.8489 20.7078 46.931 20.9005 46.9701 20.7657Z" fill="white"/>
<path fill-rule="evenodd" clip-rule="evenodd" d="M57.3301 7.63154C56.0572 7.63154 55.9593 9.25184 55.9593 11.8552H58.1329L57.8787 12.8582L55.9787 12.8197L55.9984 18.5285C55.9984 20.6691 56.3316 20.3221 57.0756 20.7658H52.9436C53.6683 20.4955 53.5113 18.6249 53.5113 18.6249L53.492 12.8391C53.492 12.8391 52.7673 12.8197 52.2972 12.8003C52.9239 12.5112 53.5113 11.6434 53.6095 11.2767L53.5898 11.0261C53.355 7.9979 55.4307 6.74457 58.0156 6.74457C58.231 6.74457 58.4464 6.76366 58.6227 6.80245L58.6618 8.24881C58.6618 8.24881 58.231 7.63154 57.3301 7.63154Z" fill="white"/>
<path fill-rule="evenodd" clip-rule="evenodd" d="M62.4417 20.9971C61.306 20.9971 60.1703 20.8235 59.0931 20.5341V17.6219C59.5045 18.7983 61.2275 19.8977 62.814 19.8977C64.4983 19.8977 65.3205 19.261 65.3205 17.7762C65.3205 14.4204 59.3672 16.7156 59.3085 11.8553C59.2888 9.25165 61.9718 8.15225 64.2629 8.15225C65.2423 8.15225 66.6715 8.36437 67.5725 8.63468C67.5725 8.63468 67.5922 10.1774 67.5922 11.0068C67.2198 10.1774 65.7315 9.0974 64.2045 9.0974C62.8725 9.0974 61.8934 9.81074 61.8934 11.0068C61.8934 13.8032 67.9642 11.7395 68.0229 17.1398C68.0426 20.0519 65.2226 20.9971 62.4417 20.9971Z" fill="white"/>
<path fill-rule="evenodd" clip-rule="evenodd" d="M74.0357 21.0359C72.0185 21.0359 70.7262 20.264 70.7262 18.4128L70.7459 13.1474L69.2182 13.0704C69.2182 13.0704 71.2551 10.9295 72.136 9.83011H73.1151V11.7977H76.1899L75.8764 13.0895H73.1545L73.1348 17.7956C73.1348 19.1459 73.409 19.9556 75.0342 19.8786C75.5434 19.8592 75.9745 19.6471 76.1899 19.3768V19.9171C75.661 20.4956 75.0151 21.0359 74.0357 21.0359Z" fill="white"/>
<path fill-rule="evenodd" clip-rule="evenodd" d="M82.3783 12.2411C80.7137 12.2026 79.95 13.7068 79.95 15.3268C79.95 17.2747 81.0269 19.9941 83.0832 20.052C84.5912 20.0908 85.4921 18.6438 85.4921 17.1204C85.4921 15.2304 84.5912 12.2989 82.3783 12.2411ZM82.3783 20.9971C78.9318 20.9971 77.3066 18.8756 77.3066 16.1753C77.3066 13.3983 79.4214 11.4117 82.8288 11.4504C86.4125 11.5083 88.038 13.4368 88.038 16.1753C88.038 18.9141 85.7663 20.9971 82.3783 20.9971Z" fill="white"/>
<path fill-rule="evenodd" clip-rule="evenodd" d="M96.146 20.7657C96.5183 20.6111 96.6553 19.6084 96.6553 19.1457L96.6749 14.6905C96.6749 13.456 96.0091 13.0702 94.8143 13.0702C93.8549 13.0702 93.6593 13.2633 92.954 13.8417L92.9343 18.4705C92.9343 19.4733 92.954 20.5151 93.5808 20.7657C93.0716 20.7657 89.9774 20.862 90.0165 20.7657C90.5257 20.6111 90.5063 19.7242 90.5063 19.2996V13.2248C90.5063 12.2411 90.33 12.0869 89.9189 11.8745C90.8393 11.7202 92.954 11.5275 92.954 11.5275L92.9343 13.0126C93.9528 12.2411 95.4217 11.4502 96.7728 11.4502C98.6137 11.4502 99.1029 12.8775 99.1029 14.5942C99.1029 15.6548 99.0836 16.6575 99.0836 17.6993C99.0836 19.3193 99.162 20.4954 99.7888 20.7078C99.0248 20.7078 96.1069 20.9005 96.146 20.7657Z" fill="white"/>
<path fill-rule="evenodd" clip-rule="evenodd" d="M107.27 12.241C105.703 12.241 104.744 13.4368 104.744 14.7868L106.33 14.7483C106.819 14.7289 108.719 14.8835 108.856 14.2856C108.876 14.1889 108.934 13.9189 108.934 13.8226C108.934 12.8968 108.406 12.241 107.27 12.241ZM104.705 15.5198C104.822 15.6356 104.685 15.6547 104.685 15.8477C104.685 18.1235 105.351 19.8401 108.19 19.8204C109.404 19.8016 110.403 19.2995 110.991 18.9719L110.873 20.2065C109.953 20.6113 108.66 21.0359 107.329 21.0359C103.764 21.0547 101.924 19.2229 101.924 16.2141C101.924 13.7068 103.647 11.3153 107.329 11.3732C110.716 11.431 111.363 13.3404 111.304 15.5198H104.705Z" fill="white"/>
<path fill-rule="evenodd" clip-rule="evenodd" d="M115.691 21.0548C114.751 21.0548 113.674 20.92 112.754 20.7075C112.754 20.7075 112.813 18.76 112.754 18.1618C113.126 19.2809 114.496 20.1678 115.593 20.1678C116.729 20.1678 117.571 19.4733 117.571 18.4127C117.571 16.2912 112.969 17.8342 112.969 14.0924C112.969 11.9518 115.202 11.4118 116.886 11.4118C117.552 11.4118 118.825 11.5851 119.451 11.7397C119.451 11.7397 119.51 13.2248 119.451 13.7645C119.098 12.8581 117.924 12.2218 116.886 12.2218C115.985 12.2218 115.319 12.7812 115.319 13.649C115.319 15.6548 119.941 14.1312 119.999 17.8918C120.038 20.2063 117.728 21.0548 115.691 21.0548Z" fill="white"/>
<mask id="mask1" style="mask-type:alpha" maskUnits="userSpaceOnUse" x="0" y="7" width="15" height="16">
<path d="M0 7.81161H14.2778V22.388H0V7.81161Z" fill="white"/>
</mask>
<g mask="url(#mask1)">
<path fill-rule="evenodd" clip-rule="evenodd" d="M7.49009 22.388C9.35317 22.3649 11.2802 21.5898 12.5384 20.3507C13.1689 19.7301 13.7402 19.0831 14.2778 18.4271L12.2615 15.9849C11.6578 16.7528 11.0332 17.4877 10.3322 18.178C9.75625 18.7453 8.62794 19.3171 7.40517 19.3171C5.0424 19.3171 3.11994 17.424 3.11994 15.0971C3.11994 12.7701 5.0424 10.8768 7.40517 10.8768C7.66825 10.8768 7.92517 10.9001 8.17502 10.9422C7.59317 9.98616 7.22794 8.91768 7.10548 7.81161C3.16086 7.96737 -6.10352e-05 11.1746 -6.10352e-05 15.0971C-6.10352e-05 19.0895 3.27502 22.3416 7.31809 22.388H7.49009Z" fill="#EEB400"/>
</g>
<path fill-rule="evenodd" clip-rule="evenodd" d="M22.6949 7.81277V7.82308H21.7595C19.9315 7.93247 18.5102 8.56702 17.2142 9.84338C16.5835 10.4643 16.0118 11.111 15.4745 11.7667L17.4909 14.2085C18.0939 13.4413 18.7189 12.707 19.4201 12.0161C20.2638 11.1855 21.057 10.8767 22.3475 10.8767C24.7102 10.8767 26.6324 12.77 26.6324 15.097C26.6324 17.424 24.7102 19.317 22.3475 19.317C22.0905 19.317 21.8293 19.291 21.5712 19.2428C22.1589 20.1997 22.529 21.2722 22.6545 22.3825C26.5958 22.2231 29.7524 19.017 29.7524 15.097C29.7524 11.1904 26.6173 7.99217 22.6949 7.81277Z" fill="#EEB400"/>
</svg>
