<svg width="395" height="380" viewBox="0 0 395 380" fill="none" xmlns="http://www.w3.org/2000/svg">
<path d="M83.4409 272.505C82.2458 273.642 81.1593 274.837 80.1648 276.099C77.6325 279.3 77.4653 283.788 79.7553 287.173C82.0452 290.566 86.2574 292.078 90.1854 290.925C102.195 287.39 112.709 284.715 123.022 282.317C122.387 282.952 121.777 283.629 121.208 284.331C118.693 287.423 118.551 291.819 120.832 295.087C123.114 298.355 127.284 299.717 131.053 298.43L156.769 289.671C164.049 287.189 171.069 284.013 177.747 280.186L245.868 241.148C262.567 231.579 275.529 216.627 282.641 198.751C283.026 197.789 283.469 196.862 283.978 195.976C289.319 186.482 301.12 180.648 310.63 175.166L321.303 168.998C320.943 156.696 316.606 143.274 309.778 131.247C302.382 118.251 292.077 106.86 280.669 100.283C278.086 98.7868 275.554 97.6084 273.114 96.7393C273.114 96.7393 242.651 115.368 240.486 116.622C228.869 123.4 218.021 128.264 203.914 127.929C176.577 127.269 167.601 127.862 154.764 131.022C142.553 134.03 131.279 137.156 112.517 136.68C106.023 136.521 101.786 143.449 104.844 149.141C112.291 162.989 130.544 165.388 145.612 160.34C153.811 157.598 163.213 157.908 174.755 158.735C175.457 158.785 176.042 159.278 176.209 159.955C176.384 160.632 176.109 161.342 175.515 161.719C121.944 195.424 106.207 206.013 90.4779 217.697C76.8803 224.851 62.7562 227.567 52.9863 235.599C46.6179 240.839 51.2563 251.185 59.4132 249.907L78.7691 246.881C68.3807 250.107 60.625 254.553 54.5742 260.763C51.8079 263.596 51.1978 267.892 53.0531 271.394C54.9085 274.887 58.8114 276.784 62.706 276.082C69.6511 274.837 76.2033 273.7 83.4325 272.505H83.4409Z" fill="white"/>
<path d="M251.921 97.4584C245.987 100.868 241.892 107.462 240.496 116.622C242.661 115.368 273.124 96.7396 273.124 96.7396C271.444 96.1295 269.814 95.6699 268.218 95.3439C262 94.0569 256.425 94.8341 251.929 97.4584H251.921Z" fill="white"/>
<path d="M321.313 168.998C321.338 169.583 321.347 170.16 321.347 170.737C321.347 171.038 321.347 171.347 321.347 171.656C321.079 184.142 316.642 192.926 309.446 197.071L333.072 183.432C340.444 179.178 344.99 170.068 344.982 157.089C344.982 144.336 340.577 130.195 333.423 117.6C326.044 104.612 315.722 93.2296 304.314 86.6356C293.082 80.1502 282.902 79.5401 275.556 83.794L251.93 97.4418V97.4585H251.946C256.443 94.8342 262.017 94.057 268.235 95.3441C269.831 95.67 271.461 96.1297 273.141 96.7397C275.581 97.6089 278.114 98.7873 280.696 100.283C292.104 106.861 302.409 118.252 309.805 131.248C316.633 143.274 320.887 156.696 321.33 168.998H321.313Z" fill="#EE8167"/>
<path d="M310.64 175.166C301.129 180.648 289.329 186.482 283.988 195.976C293.909 200.773 302.818 200.907 309.437 197.071C316.633 192.925 321.07 184.142 321.338 171.656C321.338 171.346 321.338 171.037 321.338 170.736C321.338 170.16 321.338 169.583 321.304 168.998L310.632 175.166H310.64Z" fill="#350B00"/>
<path d="M321.317 168.998L310.645 175.166C301.134 180.648 289.383 186.507 283.993 195.976C283.491 196.862 283.04 197.79 282.656 198.751C275.543 216.627 262.581 231.579 245.883 241.148L177.761 280.186C171.083 284.014 164.063 287.189 156.784 289.672L131.068 298.43C127.299 299.717 123.128 298.355 120.847 295.087C118.565 291.819 118.707 287.423 121.223 284.331C121.791 283.629 122.401 282.952 123.036 282.325C130.767 274.611 143.228 271.018 154.644 267.599L190.289 247.341" stroke="#350B00" stroke-width="0.835747" stroke-linecap="round" stroke-linejoin="round"/>
<path d="M273.129 96.7314C273.129 96.7314 242.666 115.369 240.502 116.622C228.876 123.383 218.037 128.264 203.929 127.93C176.592 127.27 167.616 127.863 154.779 131.022C142.569 134.031 131.295 137.157 112.532 136.68C106.038 136.521 101.801 143.45 104.86 149.141C112.307 162.989 130.559 165.388 145.628 160.34C153.826 157.599 163.229 157.908 174.77 158.736C175.472 158.786 176.057 159.279 176.224 159.956C176.4 160.633 176.124 161.343 175.531 161.719C121.959 195.425 106.222 206.014 90.4935 217.697C76.8959 224.851 62.7718 227.568 53.0019 235.599C46.6335 240.839 51.2719 251.186 59.4288 249.907L78.7847 246.882" stroke="#350B00" stroke-width="0.835747" stroke-linecap="round" stroke-linejoin="round"/>
<path d="M123.021 282.317C112.708 284.716 102.194 287.39 90.1847 290.926C86.2567 292.079 82.0445 290.566 79.7546 287.173C77.4646 283.788 77.6318 279.3 80.1641 276.099C81.1586 274.837 82.2451 273.642 83.4402 272.506C90.1178 266.146 99.9128 261.566 113.953 257.73C117.171 256.852 120.364 255.599 123.297 254.027C137.964 246.221 148.461 240.597 164.725 233.075" stroke="#350B00" stroke-width="0.835747" stroke-linecap="round" stroke-linejoin="round"/>
<path d="M83.4398 272.505C76.2105 273.7 69.6583 274.837 62.7132 276.082C58.8187 276.784 54.9157 274.887 53.0604 271.394C51.205 267.892 51.8151 263.596 54.5814 260.763C60.6322 254.553 68.3963 250.124 78.7763 246.881C82.1861 245.82 85.8801 244.884 89.8917 244.065C93.3768 243.354 96.7281 241.959 99.67 239.97C112.549 231.278 125.912 223.739 143.112 214.362" stroke="#350B00" stroke-width="0.835747" stroke-linecap="round" stroke-linejoin="round"/>
<path d="M240.492 116.622C241.888 107.462 245.983 100.868 251.917 97.4584C256.413 94.8341 261.988 94.0569 268.206 95.3439C269.802 95.6699 271.432 96.1379 273.111 96.7396C275.552 97.6172 278.084 98.7872 280.667 100.283C292.074 106.861 302.379 118.252 309.776 131.248C316.604 143.274 320.858 156.696 321.301 168.998C321.326 169.583 321.334 170.16 321.334 170.737C321.334 171.038 321.334 171.347 321.334 171.656C321.067 184.142 316.62 192.917 309.433 197.071C302.805 200.899 293.905 200.773 283.984 195.976" stroke="#350B00" stroke-width="0.835747" stroke-linecap="round" stroke-linejoin="round"/>
<path d="M251.91 97.4418L275.537 83.794C282.883 79.5401 293.062 80.1502 304.295 86.6356C315.703 93.2296 326.024 104.612 333.404 117.6C340.558 130.195 344.971 144.336 344.962 157.089C344.962 170.068 340.424 179.178 333.053 183.432L309.426 197.071" stroke="#350B00" stroke-width="0.835747" stroke-linecap="round" stroke-linejoin="round"/>
<path d="M236.948 200.557C236.819 207.175 233.381 213.772 226.633 219.434C224.616 221.139 222.297 222.75 219.691 224.261C218.033 225.218 216.296 226.117 214.494 226.937C210.704 228.671 206.619 230.102 202.355 231.21C198.436 232.246 194.373 233.008 190.217 233.512C186.218 234.001 182.148 234.246 178.078 234.246C174.008 234.246 169.937 234.008 165.932 233.519C161.783 233.023 157.713 232.26 153.793 231.239C149.536 230.131 145.452 228.714 141.654 226.98C139.817 226.146 138.036 225.232 136.349 224.254C133.794 222.772 131.511 221.189 129.523 219.52C122.552 213.715 119.078 206.931 119.078 200.147C119.078 191.414 124.835 182.687 136.335 176.026C159.356 162.71 196.663 162.71 219.691 176.026C231.378 182.795 237.135 191.694 236.948 200.55V200.557ZM198.852 191.521L206.167 187.292C201.975 184.867 200.762 184.169 200.475 183.997L200.446 183.982L200.432 183.968H200.417L200.396 183.946L193.031 188.205C186.649 185.68 179.262 185.73 173.541 189.04C161.13 196.226 180.727 203.399 174.769 206.852C169.923 209.65 162.429 203.348 162.393 196.845L152.149 199.212C152.3 202.485 154.288 205.902 157.72 208.636L150.003 213.103L155.774 216.434L163.434 212.002C175.501 217.103 186.678 211.477 187.841 206.844C189.255 201.183 178.114 196.025 182.715 193.363C184.531 192.313 186.706 192.888 188.286 193.802C190.798 195.255 193.224 198.579 194.33 201.643C194.366 201.643 194.387 201.629 194.416 201.622C194.43 201.622 194.438 201.614 194.452 201.614C194.466 201.614 194.488 201.607 194.495 201.607H194.524H194.538C194.552 201.607 194.567 201.607 194.567 201.607L204.602 199.197C203.877 196.356 201.616 193.565 198.852 191.521Z" fill="white"/>
<path d="M236.948 200.557V213.456C236.948 220.196 233.51 226.951 226.633 232.735V219.426C233.388 213.765 236.819 207.168 236.948 200.55V200.557Z" fill="#350B00"/>
<path d="M226.635 219.427V232.735C224.611 234.44 222.306 236.059 219.693 237.562C218.035 238.519 216.298 239.418 214.496 240.239V226.93C216.291 226.11 218.035 225.211 219.693 224.254C222.299 222.75 224.618 221.132 226.635 219.427Z" fill="#350B00"/>
<path d="M214.494 226.93V240.238C210.704 241.972 206.619 243.404 202.355 244.519V231.21C206.619 230.102 210.704 228.671 214.494 226.937V226.93Z" fill="#350B00"/>
<path d="M202.354 231.203V244.512C198.434 245.54 194.371 246.31 190.215 246.814V233.505C194.371 233.002 198.434 232.239 202.354 231.203Z" fill="#DAE0E5"/>
<path d="M194.532 201.614L194.518 201.621H194.504L194.532 201.614Z" fill="white"/>
<path d="M194.504 201.622C194.504 201.622 194.468 201.622 194.461 201.629H194.497L194.511 201.622H194.504Z" fill="white"/>
<path d="M194.45 201.629C194.45 201.629 194.428 201.629 194.414 201.636H194.428L194.45 201.629Z" fill="white"/>
<path d="M190.217 233.505V246.814C186.218 247.303 182.148 247.547 178.078 247.547V234.239C182.148 234.239 186.218 233.987 190.217 233.505Z" fill="#DAE0E5"/>
<path d="M178.076 234.238V247.547C174.005 247.547 169.935 247.31 165.93 246.82V233.512C169.935 234.001 174.005 234.238 178.076 234.238Z" fill="#DAE0E5"/>
<path d="M165.932 233.52V246.828C161.783 246.332 157.712 245.569 153.793 244.548V231.239C157.712 232.268 161.783 233.023 165.932 233.52Z" fill="#DAE0E5"/>
<path d="M153.791 231.239V244.548C149.534 243.44 145.45 242.023 141.652 240.289V226.98C145.45 228.707 149.534 230.124 153.791 231.239Z" fill="#DAE0E5"/>
<path d="M141.655 226.981V240.289C139.817 239.455 138.037 238.541 136.35 237.563C133.795 236.081 131.519 234.498 129.523 232.829V219.521C131.512 221.189 133.795 222.772 136.35 224.254C138.044 225.232 139.825 226.146 141.655 226.981Z" fill="#DAE0E5"/>
<path d="M129.523 219.52V232.828C122.56 227.023 119.078 220.232 119.078 213.455V200.146C119.078 206.93 122.552 213.714 129.523 219.52Z" fill="#DAE0E5"/>
<ellipse cx="177.934" cy="200.148" rx="59.1604" ry="33.6402" fill="#EE8167"/>
<path d="M236.944 200.557C236.808 207.175 233.37 213.758 226.629 219.434C224.612 221.131 222.293 222.75 219.687 224.261C218.029 225.218 216.285 226.117 214.49 226.937C210.7 228.671 206.615 230.095 202.351 231.21C198.432 232.239 194.369 233.008 190.213 233.512C186.214 234.001 182.144 234.246 178.074 234.246C174.004 234.246 169.934 234.008 165.928 233.519C161.779 233.016 157.709 232.26 153.789 231.239C149.532 230.124 145.448 228.714 141.65 226.98C139.813 226.146 138.033 225.232 136.346 224.254C133.79 222.772 131.507 221.189 129.519 219.52C122.556 213.7 119.074 206.931 119.074 200.147C119.074 191.414 124.831 182.687 136.331 176.026C159.353 162.71 196.659 162.71 219.687 176.026C231.374 182.795 237.124 191.694 236.944 200.55V200.557Z" stroke="#350B00" stroke-width="0.773339" stroke-linecap="round" stroke-linejoin="round"/>
<path d="M129.519 232.828C122.556 227.023 119.074 220.232 119.074 213.455V200.146" stroke="#350B00" stroke-width="0.773339" stroke-linecap="round" stroke-linejoin="round"/>
<path d="M214.495 240.231C210.705 241.965 206.62 243.389 202.356 244.511C198.437 245.54 194.374 246.31 190.217 246.813C186.219 247.303 182.149 247.547 178.079 247.547C174.008 247.547 169.938 247.31 165.933 246.821C161.783 246.317 157.713 245.562 153.794 244.54C149.537 243.425 145.452 242.015 141.655 240.281C139.817 239.447 138.037 238.533 136.35 237.555C133.795 236.073 131.519 234.49 129.523 232.821" stroke="#350B00" stroke-width="0.773339" stroke-linecap="round" stroke-linejoin="round"/>
<path d="M236.946 200.146V213.455C236.946 220.196 233.501 226.944 226.631 232.735C224.607 234.44 222.302 236.058 219.689 237.562C218.031 238.519 216.294 239.418 214.492 240.238" stroke="#350B00" stroke-width="0.773339" stroke-linecap="round" stroke-linejoin="round"/>
<path d="M226.633 219.427V232.735" stroke="#350B00" stroke-width="0.773339" stroke-linecap="round" stroke-linejoin="round"/>
<path d="M214.492 226.93V240.231" stroke="#350B00" stroke-width="0.773339" stroke-linecap="round" stroke-linejoin="round"/>
<path d="M202.355 231.203V244.512" stroke="#350B00" stroke-width="0.773339" stroke-linecap="round" stroke-linejoin="round"/>
<path d="M190.215 233.505V246.814" stroke="#350B00" stroke-width="0.773339" stroke-linecap="round" stroke-linejoin="round"/>
<path d="M178.074 234.238V247.547" stroke="#350B00" stroke-width="0.773339" stroke-linecap="round" stroke-linejoin="round"/>
<path d="M165.934 233.519V246.827" stroke="#350B00" stroke-width="0.773339" stroke-linecap="round" stroke-linejoin="round"/>
<path d="M153.793 231.239V244.548" stroke="#350B00" stroke-width="0.773339" stroke-linecap="round" stroke-linejoin="round"/>
<path d="M141.652 226.98V240.289" stroke="#350B00" stroke-width="0.773339" stroke-linecap="round" stroke-linejoin="round"/>
<path d="M129.523 219.521V232.829" stroke="#350B00" stroke-width="0.773339" stroke-linecap="round" stroke-linejoin="round"/>
<path d="M174.196 214.535C175.258 213.934 175.856 213.585 176.203 213.333V213.372C176.975 212.907 177.38 212.344 177.419 211.685C177.438 211.239 177.303 210.58 176.473 209.941L156.422 198.31C155.573 197.961 154.801 197.806 154.029 197.806C152.987 197.806 151.964 198.077 150.98 198.64C150.613 198.814 149.918 199.221 148.22 200.249L145.422 198.64L154.319 193.445L147.043 189.238L149.552 187.784L156.692 191.933C156.692 191.933 159.491 190.227 160.648 189.568L162.115 188.734L155.033 184.625L157.522 183.171L164.778 187.377L165.242 187.145C169.661 184.993 173.424 183.946 176.705 183.946C178.866 183.946 180.816 184.373 182.668 185.264C184.675 186.214 185.91 187.28 186.238 188.327C186.431 188.967 186.335 189.645 185.891 190.421L184.617 192.689L187.068 191.816C189.365 191.002 191.449 190.615 193.418 190.615C196.39 190.615 199.091 191.506 201.716 193.328C203.723 194.724 204.688 196.062 204.669 197.399C204.63 199.415 202.43 201.761 197.721 204.823L196.39 205.696L203.665 209.902L201.176 211.356L193.939 207.149L188.381 210.29L195.695 214.535L193.205 215.989L185.833 211.724L176.956 216.842L174.158 214.574L174.196 214.535ZM188.689 195.112C183.903 195.112 178.693 198.291 175.894 199.977C175.489 200.21 173.405 201.45 173.405 201.45L185.1 208.235L186.451 207.46C190.696 205.075 195.232 202.265 195.251 199.279C195.251 198.058 194.556 197.031 193.147 196.217C191.854 195.461 190.368 195.092 188.709 195.092L188.689 195.112ZM173.096 188.366C168.966 188.366 164.701 190.963 162.424 192.359C162.096 192.572 160.089 193.735 160.089 193.735L170.877 199.997L172.073 199.318C175.586 197.36 179.31 195.034 179.33 192.398C179.33 191.235 178.654 190.246 177.284 189.451C176.049 188.734 174.621 188.366 173.077 188.366H173.096Z" fill="white"/>
</svg>
