<svg width="395" height="380" viewBox="0 0 395 380" fill="none" xmlns="http://www.w3.org/2000/svg">
<path d="M83.4409 272.505C82.2458 273.641 81.1593 274.836 80.1648 276.098C77.6325 279.299 77.4653 283.787 79.7553 287.172C82.0452 290.565 86.2574 292.078 90.1854 290.924C102.195 287.389 112.709 284.715 123.022 282.316C122.387 282.951 121.777 283.628 121.208 284.33C118.693 287.423 118.551 291.819 120.832 295.086C123.114 298.354 127.284 299.717 131.053 298.429L156.769 289.671C164.049 287.189 171.069 284.013 177.747 280.185L245.868 241.147C262.567 231.578 275.529 216.627 282.641 198.75C283.026 197.789 283.469 196.861 283.978 195.975C289.319 186.481 301.12 180.648 310.63 175.165L321.303 168.997C320.943 156.695 316.606 143.273 309.778 131.247C302.382 118.251 292.077 106.86 280.669 100.282C278.086 98.7862 275.554 97.6078 273.114 96.7386C273.114 96.7386 242.651 115.367 240.486 116.621C228.869 123.399 218.021 128.263 203.914 127.929C176.577 127.268 167.601 127.862 154.764 131.021C142.553 134.03 131.279 137.155 112.517 136.679C106.023 136.52 101.786 143.449 104.844 149.14C112.291 162.988 130.544 165.387 145.612 160.339C153.811 157.598 163.213 157.907 174.755 158.734C175.457 158.785 176.042 159.278 176.209 159.955C176.384 160.632 176.109 161.342 175.515 161.718C121.944 195.424 106.207 206.013 90.4779 217.696C76.8803 224.85 62.7562 227.566 52.9863 235.598C46.6179 240.838 51.2563 251.185 59.4132 249.906L78.7691 246.881C68.3807 250.107 60.625 254.553 54.5742 260.762C51.8079 263.596 51.1978 267.891 53.0531 271.393C54.9085 274.886 58.8114 276.784 62.706 276.082C69.6511 274.836 76.2033 273.7 83.4325 272.505H83.4409Z" fill="white"/>
<path d="M251.921 97.458C245.987 100.868 241.892 107.462 240.496 116.622C242.661 115.368 273.124 96.7393 273.124 96.7393C271.444 96.1292 269.814 95.6695 268.218 95.3436C262 94.0565 256.425 94.8338 251.929 97.458H251.921Z" fill="white"/>
<path d="M321.312 168.998C321.337 169.583 321.346 170.159 321.346 170.736C321.346 171.037 321.346 171.346 321.346 171.655C321.078 184.141 316.641 192.925 309.445 197.07L333.071 183.431C340.443 179.177 344.989 170.067 344.981 157.088C344.981 144.335 340.576 130.194 333.422 117.599C326.043 104.612 315.721 93.2289 304.313 86.6348C293.081 80.1494 282.901 79.5393 275.555 83.7933L251.929 97.441V97.4578H251.945C256.442 94.8335 262.016 94.0563 268.234 95.3433C269.83 95.6693 271.46 96.1289 273.14 96.739C275.58 97.6082 278.113 98.7866 280.695 100.283C292.103 106.86 302.408 118.251 309.804 131.247C316.632 143.273 320.886 156.696 321.329 168.998H321.312Z" fill="#E59636"/>
<path d="M310.639 175.165C301.128 180.648 289.328 186.481 283.987 195.975C293.908 200.772 302.817 200.906 309.436 197.07C316.632 192.925 321.069 184.141 321.337 171.655C321.337 171.346 321.337 171.037 321.337 170.736C321.337 170.159 321.337 169.582 321.303 168.997L310.631 175.165H310.639Z" fill="#350B00"/>
<path d="M321.318 168.997L310.646 175.165C301.135 180.648 289.384 186.506 283.994 195.975C283.492 196.861 283.041 197.789 282.657 198.75C275.544 216.627 262.582 231.578 245.884 241.147L177.762 280.185C171.084 284.013 164.064 287.189 156.785 289.671L131.069 298.429C127.3 299.716 123.129 298.354 120.848 295.086C118.566 291.819 118.708 287.423 121.224 284.33C121.792 283.628 122.402 282.951 123.037 282.325C130.768 274.611 143.229 271.017 154.645 267.599L190.29 247.34" stroke="#350B00" stroke-width="0.835747" stroke-linecap="round" stroke-linejoin="round"/>
<path d="M273.13 96.7305C273.13 96.7305 242.667 115.368 240.503 116.621C228.877 123.382 218.038 128.263 203.93 127.929C176.593 127.269 167.617 127.862 154.78 131.021C142.57 134.03 131.296 137.156 112.533 136.679C106.039 136.52 101.802 143.449 104.861 149.14C112.307 162.988 130.56 165.387 145.629 160.339C153.827 157.598 163.23 157.907 174.771 158.735C175.473 158.785 176.058 159.278 176.225 159.955C176.401 160.632 176.125 161.342 175.532 161.718C121.96 195.424 106.223 206.013 90.4945 217.696C76.8969 224.85 62.7728 227.567 53.0029 235.598C46.6345 240.838 51.2729 251.185 59.4298 249.906L78.7857 246.881" stroke="#350B00" stroke-width="0.835747" stroke-linecap="round" stroke-linejoin="round"/>
<path d="M123.022 282.317C112.709 284.716 102.195 287.39 90.1857 290.925C86.2577 292.079 82.0455 290.566 79.7556 287.173C77.4656 283.788 77.6328 279.3 80.1651 276.099C81.1596 274.837 82.2461 273.642 83.4412 272.505C90.1188 266.145 99.9138 261.565 113.954 257.729C117.172 256.852 120.365 255.598 123.298 254.027C137.965 246.221 148.462 240.597 164.726 233.075" stroke="#350B00" stroke-width="0.835747" stroke-linecap="round" stroke-linejoin="round"/>
<path d="M83.4398 272.505C76.2105 273.7 69.6583 274.836 62.7132 276.082C58.8187 276.784 54.9157 274.887 53.0604 271.393C51.205 267.891 51.8151 263.596 54.5814 260.762C60.6322 254.553 68.3963 250.123 78.7763 246.881C82.1861 245.819 85.8801 244.883 89.8917 244.064C93.3768 243.354 96.7281 241.958 99.67 239.969C112.549 231.277 125.912 223.739 143.112 214.362" stroke="#350B00" stroke-width="0.835747" stroke-linecap="round" stroke-linejoin="round"/>
<path d="M240.493 116.622C241.889 107.462 245.984 100.868 251.918 97.458C256.414 94.8338 261.989 94.0565 268.207 95.3436C269.803 95.6695 271.433 96.1375 273.112 96.7393C275.553 97.6168 278.085 98.7869 280.668 100.283C292.075 106.86 302.38 118.251 309.777 131.247C316.605 143.274 320.859 156.696 321.302 168.998C321.327 169.583 321.335 170.16 321.335 170.736C321.335 171.037 321.335 171.346 321.335 171.656C321.068 184.142 316.621 192.917 309.434 197.071C302.806 200.898 293.906 200.773 283.985 195.976" stroke="#350B00" stroke-width="0.835747" stroke-linecap="round" stroke-linejoin="round"/>
<path d="M251.909 97.441L275.536 83.7933C282.882 79.5393 293.061 80.1494 304.294 86.6348C315.702 93.2289 326.023 104.612 333.403 117.599C340.557 130.194 344.97 144.335 344.961 157.088C344.961 170.067 340.423 179.177 333.052 183.431L309.425 197.07" stroke="#350B00" stroke-width="0.835747" stroke-linecap="round" stroke-linejoin="round"/>
<path d="M236.947 200.556C236.818 207.174 233.38 213.771 226.632 219.432C224.615 221.137 222.296 222.749 219.69 224.259C218.032 225.216 216.295 226.115 214.493 226.935C210.703 228.669 206.618 230.101 202.354 231.209C198.435 232.245 194.372 233.007 190.216 233.511C186.217 234 182.147 234.244 178.077 234.244C174.007 234.244 169.936 234.007 165.931 233.518C161.782 233.021 157.712 232.259 153.792 231.237C149.535 230.13 145.451 228.712 141.653 226.979C139.816 226.144 138.035 225.231 136.349 224.252C133.793 222.77 131.51 221.188 129.522 219.519C122.552 213.713 119.077 206.929 119.077 200.146C119.077 191.412 124.834 182.686 136.334 176.025C159.355 162.709 196.662 162.709 219.69 176.025C231.377 182.794 237.134 191.693 236.947 200.548V200.556ZM198.851 191.52L206.166 187.29C201.974 184.866 200.761 184.168 200.474 183.995L200.445 183.981L200.431 183.967H200.416L200.395 183.945L193.03 188.204C186.648 185.679 179.261 185.729 173.54 189.038C161.129 196.225 180.726 203.397 174.768 206.85C169.922 209.649 162.428 203.347 162.392 196.844L152.148 199.21C152.299 202.484 154.287 205.901 157.719 208.634L150.002 213.102L155.773 216.432L163.433 212.001C175.5 217.101 186.677 211.476 187.84 206.843C189.254 201.181 178.113 196.024 182.714 193.362C184.53 192.311 186.705 192.887 188.285 193.801C190.797 195.254 193.223 198.577 194.329 201.642C194.365 201.642 194.386 201.628 194.415 201.62C194.429 201.62 194.437 201.613 194.451 201.613C194.465 201.613 194.487 201.606 194.494 201.606H194.523H194.537C194.551 201.606 194.566 201.606 194.566 201.606L204.601 199.196C203.876 196.354 201.615 193.563 198.851 191.52Z" fill="white"/>
<path d="M236.947 200.556V213.454C236.947 220.195 233.509 226.95 226.632 232.734V219.425C233.387 213.764 236.818 207.167 236.947 200.549V200.556Z" fill="#350B00"/>
<path d="M226.633 219.425V232.734C224.609 234.439 222.304 236.057 219.691 237.561C218.033 238.518 216.296 239.417 214.494 240.237V226.928C216.289 226.108 218.033 225.209 219.691 224.252C222.297 222.749 224.616 221.13 226.633 219.425Z" fill="#350B00"/>
<path d="M214.492 226.928V240.237C210.702 241.971 206.618 243.402 202.354 244.517V231.209C206.618 230.101 210.702 228.669 214.492 226.936V226.928Z" fill="#350B00"/>
<path d="M202.354 231.201V244.51C198.434 245.539 194.371 246.308 190.215 246.812V233.503C194.371 233 198.434 232.237 202.354 231.201Z" fill="#DAE0E5"/>
<path d="M194.53 201.613L194.516 201.62H194.502L194.53 201.613Z" fill="white"/>
<path d="M194.503 201.62C194.503 201.62 194.467 201.62 194.46 201.628H194.496L194.51 201.62H194.503Z" fill="white"/>
<path d="M194.45 201.628C194.45 201.628 194.428 201.628 194.414 201.635H194.428L194.45 201.628Z" fill="white"/>
<path d="M190.216 233.503V246.812C186.218 247.301 182.147 247.546 178.077 247.546V234.237C182.147 234.237 186.218 233.985 190.216 233.503Z" fill="#DAE0E5"/>
<path d="M178.077 234.237V247.546C174.006 247.546 169.936 247.309 165.931 246.819V233.511C169.936 234 174.006 234.237 178.077 234.237Z" fill="#DAE0E5"/>
<path d="M165.932 233.518V246.827C161.783 246.33 157.712 245.568 153.793 244.546V231.238C157.712 232.266 161.783 233.022 165.932 233.518Z" fill="#DAE0E5"/>
<path d="M153.791 231.238V244.546C149.534 243.438 145.45 242.021 141.652 240.288V226.979C145.45 228.705 149.534 230.123 153.791 231.238Z" fill="#DAE0E5"/>
<path d="M141.655 226.979V240.288C139.817 239.453 138.037 238.539 136.35 237.561C133.795 236.079 131.519 234.497 129.523 232.828V219.519C131.512 221.188 133.795 222.771 136.35 224.252C138.044 225.231 139.825 226.144 141.655 226.979Z" fill="#DAE0E5"/>
<path d="M129.522 219.518V232.827C122.559 227.022 119.077 220.231 119.077 213.454V200.145C119.077 206.929 122.552 213.713 129.522 219.518Z" fill="#DAE0E5"/>
<ellipse cx="177.934" cy="200.147" rx="59.1604" ry="33.6402" fill="#E59636"/>
<path d="M236.945 200.556C236.809 207.174 233.371 213.756 226.63 219.432C224.613 221.13 222.294 222.749 219.688 224.259C218.03 225.216 216.286 226.115 214.491 226.936C210.701 228.669 206.616 230.094 202.352 231.209C198.433 232.237 194.37 233.007 190.214 233.511C186.215 234 182.145 234.244 178.075 234.244C174.005 234.244 169.935 234.007 165.929 233.518C161.78 233.014 157.71 232.259 153.79 231.237C149.533 230.122 145.449 228.712 141.651 226.979C139.814 226.144 138.033 225.231 136.347 224.252C133.791 222.77 131.508 221.188 129.52 219.519C122.557 213.699 119.075 206.929 119.075 200.146C119.075 191.412 124.832 182.686 136.332 176.025C159.354 162.709 196.66 162.709 219.688 176.025C231.375 182.794 237.125 191.693 236.945 200.548V200.556Z" stroke="#350B00" stroke-width="0.773339" stroke-linecap="round" stroke-linejoin="round"/>
<path d="M129.52 232.827C122.557 227.022 119.075 220.231 119.075 213.454V200.145" stroke="#350B00" stroke-width="0.773339" stroke-linecap="round" stroke-linejoin="round"/>
<path d="M214.493 240.229C210.703 241.963 206.618 243.387 202.354 244.51C198.435 245.538 194.372 246.308 190.215 246.812C186.217 247.301 182.147 247.546 178.077 247.546C174.006 247.546 169.936 247.308 165.931 246.819C161.781 246.315 157.711 245.56 153.792 244.538C149.535 243.423 145.45 242.013 141.653 240.28C139.815 239.445 138.035 238.532 136.348 237.553C133.793 236.071 131.517 234.489 129.521 232.82" stroke="#350B00" stroke-width="0.773339" stroke-linecap="round" stroke-linejoin="round"/>
<path d="M236.946 200.145V213.454C236.946 220.195 233.501 226.942 226.631 232.734C224.607 234.438 222.302 236.057 219.689 237.561C218.031 238.517 216.294 239.417 214.492 240.237" stroke="#350B00" stroke-width="0.773339" stroke-linecap="round" stroke-linejoin="round"/>
<path d="M226.633 219.425V232.734" stroke="#350B00" stroke-width="0.773339" stroke-linecap="round" stroke-linejoin="round"/>
<path d="M214.492 226.928V240.23" stroke="#350B00" stroke-width="0.773339" stroke-linecap="round" stroke-linejoin="round"/>
<path d="M202.354 231.201V244.51" stroke="#350B00" stroke-width="0.773339" stroke-linecap="round" stroke-linejoin="round"/>
<path d="M190.217 233.503V246.812" stroke="#350B00" stroke-width="0.773339" stroke-linecap="round" stroke-linejoin="round"/>
<path d="M178.076 234.237V247.546" stroke="#350B00" stroke-width="0.773339" stroke-linecap="round" stroke-linejoin="round"/>
<path d="M165.932 233.518V246.826" stroke="#350B00" stroke-width="0.773339" stroke-linecap="round" stroke-linejoin="round"/>
<path d="M153.791 231.238V244.546" stroke="#350B00" stroke-width="0.773339" stroke-linecap="round" stroke-linejoin="round"/>
<path d="M141.653 226.979V240.288" stroke="#350B00" stroke-width="0.773339" stroke-linecap="round" stroke-linejoin="round"/>
<path d="M129.521 219.519V232.828" stroke="#350B00" stroke-width="0.773339" stroke-linecap="round" stroke-linejoin="round"/>
<path d="M174.197 214.534C175.259 213.933 175.857 213.584 176.204 213.332V213.371C176.976 212.905 177.381 212.343 177.42 211.684C177.439 211.238 177.304 210.579 176.474 209.94L156.423 198.309C155.574 197.96 154.802 197.805 154.03 197.805C152.988 197.805 151.965 198.076 150.981 198.639C150.614 198.813 149.919 199.22 148.221 200.247L145.423 198.639L154.32 193.444L147.044 189.237L149.553 187.783L156.693 191.932C156.693 191.932 159.492 190.226 160.649 189.567L162.116 188.733L155.034 184.624L157.523 183.17L164.779 187.376L165.243 187.144C169.662 184.992 173.425 183.945 176.706 183.945C178.867 183.945 180.817 184.372 182.669 185.263C184.676 186.213 185.911 187.279 186.239 188.326C186.432 188.966 186.336 189.644 185.892 190.42L184.618 192.688L187.069 191.815C189.366 191.001 191.45 190.613 193.419 190.613C196.391 190.613 199.092 191.505 201.717 193.327C203.724 194.723 204.689 196.06 204.67 197.398C204.631 199.414 202.431 201.759 197.722 204.822L196.391 205.694L203.666 209.901L201.177 211.355L193.94 207.148L188.382 210.289L195.696 214.534L193.206 215.988L185.834 211.723L176.957 216.84L174.159 214.573L174.197 214.534ZM188.69 195.111C183.904 195.111 178.694 198.29 175.895 199.976C175.49 200.209 173.406 201.449 173.406 201.449L185.101 208.234L186.452 207.458C190.697 205.074 195.233 202.263 195.252 199.278C195.252 198.057 194.557 197.03 193.148 196.215C191.855 195.459 190.369 195.091 188.71 195.091L188.69 195.111ZM173.097 188.365C168.967 188.365 164.702 190.962 162.425 192.358C162.097 192.571 160.09 193.734 160.09 193.734L170.878 199.995L172.074 199.317C175.587 197.359 179.311 195.033 179.331 192.397C179.331 191.234 178.655 190.245 177.285 189.45C176.05 188.733 174.622 188.365 173.078 188.365H173.097Z" fill="white"/>
</svg>
