<svg width="312" height="162" viewBox="0 0 312 162" fill="none" xmlns="http://www.w3.org/2000/svg">
<path d="M167.518 122.885C167.518 123.441 167.182 123.973 166.496 124.367L157.983 129.283C156.467 130.158 153.82 130.048 152.072 129.039L142.135 123.303C141.178 122.751 140.688 122.044 140.688 121.372C140.688 120.817 141.024 120.286 141.71 119.891L148.04 116.237V120.508C148.04 121.304 148.598 122.271 149.287 122.669L152.663 124.617C153.029 124.828 153.357 124.846 153.594 124.71L159.082 121.543C159.363 121.38 159.516 121.001 159.454 120.464L158.906 116.819L162.559 118.929V119.032C162.559 119.739 162.988 120.065 163.521 119.758L163.758 119.619L166.071 120.957C167.027 121.509 167.518 122.216 167.518 122.886V122.885Z" fill="#DAE0E5"/>
<g clip-path="url(#clip0_4502_7077)">
<path d="M122.573 91.7326L123.674 92.3676C123.544 92.2935 123.362 92.3041 123.163 92.4184L120.234 94.1119C119.836 94.3406 119.514 94.8973 119.514 95.3567V96.5972C119.514 97.1963 119.624 97.7276 119.836 98.151L120.517 99.5079C120.545 99.5629 120.583 99.6053 120.627 99.6328L119.535 99.002C119.486 98.9744 119.446 98.93 119.416 98.8728L118.737 97.5159C118.523 97.0925 118.413 96.5612 118.413 95.9621V94.7216C118.413 94.2622 118.735 93.7055 119.133 93.4769L122.065 91.7834C122.264 91.6691 122.444 91.6585 122.573 91.7326Z" fill="#350B00"/>
<path d="M122.266 95.1301C122.266 95.4942 122.012 95.9346 121.696 96.1166C121.381 96.2987 121.127 96.1526 121.127 95.7885C121.127 95.4244 121.381 94.982 121.696 94.7999C122.012 94.6178 122.266 94.766 122.266 95.1301Z" fill="#350B00"/>
<path d="M121.109 99.5593L121.043 99.5974C120.886 99.6885 120.742 99.699 120.636 99.6377L120.63 99.6334C120.586 99.6059 120.548 99.5636 120.52 99.5085L119.838 98.1516C119.627 97.7282 119.517 97.1969 119.517 96.5978V95.3573C119.517 94.8979 119.838 94.3412 120.236 94.1126L123.166 92.4191C123.365 92.3047 123.547 92.2942 123.676 92.3704C123.805 92.4466 123.886 92.6075 123.886 92.834V94.0745C123.886 94.6757 123.776 95.3319 123.562 96.003L122.882 98.1453C122.789 98.4353 122.584 98.7062 122.36 98.8375L121.109 99.5593ZM121.701 96.1173C122.017 95.9352 122.271 95.4949 122.271 95.1308C122.271 94.7667 122.017 94.6185 121.701 94.8006C121.386 94.9826 121.132 95.425 121.132 95.7892C121.132 96.1533 121.386 96.2993 121.701 96.1173Z" fill="white"/>
<path d="M120.636 99.6377C120.742 99.699 120.886 99.6885 121.043 99.5974L122.36 98.8375C122.584 98.7062 122.789 98.4353 122.882 98.1453L123.562 96.003C123.776 95.3319 123.886 94.6757 123.886 94.0745V92.834C123.886 92.6075 123.805 92.4466 123.676 92.3704C123.547 92.2942 123.365 92.3047 123.166 92.4191L120.236 94.1126C119.838 94.3412 119.517 94.8979 119.517 95.3573V96.5978C119.517 97.1969 119.627 97.7282 119.838 98.1516L120.52 99.5085C120.548 99.5636 120.586 99.6059 120.63 99.6334L120.636 99.6377Z" stroke="#350B00" stroke-width="0.635068" stroke-linecap="round" stroke-linejoin="round"/>
<path d="M121.103 99.559V100.465C121.59 100.183 122.558 100.016 122.558 101.301C122.558 103.479 119.679 105.236 119.679 103.158" stroke="#350B00" stroke-width="0.635068" stroke-linecap="round" stroke-linejoin="round"/>
<path d="M122.266 95.1301C122.266 94.766 122.012 94.6178 121.696 94.7999C121.381 94.982 121.127 95.4244 121.127 95.7885C121.127 96.1526 121.381 96.2987 121.696 96.1166C122.012 95.9346 122.266 95.4942 122.266 95.1301Z" stroke="#350B00" stroke-width="0.635068" stroke-linecap="round" stroke-linejoin="round"/>
<path d="M120.634 99.637L119.535 99.002C119.486 98.9744 119.446 98.93 119.416 98.8728L118.737 97.5159C118.523 97.0925 118.413 96.5612 118.413 95.9621V94.7216C118.413 94.2622 118.735 93.7055 119.133 93.4769L122.065 91.7834C122.264 91.6691 122.444 91.6585 122.573 91.7326L123.674 92.3676" stroke="#350B00" stroke-width="0.635068" stroke-linecap="round" stroke-linejoin="round"/>
<path d="M121.039 92.7963V72.5101" stroke="#350B00" stroke-width="0.635068" stroke-linecap="round" stroke-linejoin="round"/>
<path d="M155.215 56.3913C154.978 56.5289 154.785 56.5331 154.648 56.4527C154.315 56.2579 154.3 55.5615 154.775 54.9307C158.862 49.7358 159.993 47.3225 162.675 45.7709L167.66 42.894C167.66 42.894 167.673 42.8855 167.69 42.8771C167.694 42.8728 167.7 42.8707 167.709 42.8665C167.713 42.8644 167.717 42.8601 167.722 42.858C167.73 42.8517 167.741 42.8474 167.751 42.8411C167.76 42.8347 167.77 42.8284 167.783 42.8241C167.787 42.8199 167.791 42.8178 167.796 42.8157C167.808 42.8072 167.823 42.7987 167.842 42.7882C167.673 42.8855 167.679 42.8898 167.916 42.7458C167.94 42.731 167.965 42.7162 167.995 42.7014L168.024 42.6823L168.071 42.6569C168.084 42.6484 168.096 42.64 168.111 42.6336L168.153 42.6082L168.45 42.4368C167.931 42.7374 167.98 42.7077 168.687 42.3013C168.695 42.2949 168.704 42.2907 168.712 42.2865C168.729 42.2759 168.744 42.2674 168.761 42.2589L168.968 42.1383C168.297 42.5257 168.342 42.5003 169.117 42.0515L169.244 41.9795C168.649 42.3224 168.799 42.2357 169.663 41.7361L170.141 41.4609C169.773 41.6747 169.995 41.5413 170.628 41.1793C170.711 41.1327 170.791 41.0862 170.871 41.0396C170.711 41.1328 170.842 41.0565 171.138 40.8851L172.438 40.1357C173.048 39.7843 173.2 39.6954 172.772 39.9409C173.568 39.4837 173.776 39.363 173.268 39.6552C174.104 39.1746 174.231 39.1005 173.615 39.4562C173.708 39.4033 173.797 39.3503 173.88 39.3038C174.657 38.8613 174.703 38.8296 174.047 39.2064C174.068 39.1937 174.089 39.1831 174.108 39.1725C174.843 38.7555 174.879 38.728 174.269 39.0794C174.297 39.0624 174.322 39.0476 174.347 39.0328C174.997 38.656 175.029 38.6391 174.496 38.946C175.103 38.5967 175.143 38.5734 174.745 38.8021L181.746 34.7588V41.0735L173.945 45.5782C173.945 45.5782 173.943 45.5803 173.939 45.5803L173.926 45.5888C173.926 45.5888 173.92 45.5888 173.92 45.593C173.918 45.5952 173.913 45.5973 173.909 45.5994H173.903C173.89 45.61 173.877 45.6163 173.867 45.6227C173.842 45.6375 173.812 45.6544 173.774 45.6777L173.763 45.682C173.746 45.6925 173.731 45.701 173.719 45.7095L155.215 56.3913Z" fill="white"/>
<path d="M175.171 38.5569L175.143 38.5738C175.069 38.6183 174.745 38.8024 174.745 38.8024L175.171 38.5569Z" fill="white"/>
<path d="M174.751 38.8034C175.149 38.5747 175.109 38.598 174.501 38.9473L174.751 38.8034Z" fill="white"/>
<path d="M174.5 38.9469C175.034 38.64 175.002 38.6569 174.352 39.0337C174.327 39.0485 174.301 39.0633 174.274 39.0803C174.883 38.7289 174.847 38.7564 174.113 39.1734C174.094 39.184 174.073 39.1946 174.051 39.2073C174.708 38.8305 174.661 38.8622 173.884 39.3047C173.802 39.3512 173.713 39.4042 173.62 39.4571C174.236 39.1014 174.109 39.1755 173.272 39.6561L174.5 38.9469Z" fill="white"/>
<path d="M173.951 45.5797C173.951 45.5797 173.949 45.5797 173.949 45.5824H173.943C173.943 45.5824 173.949 45.5797 173.951 45.5797Z" fill="white"/>
<path d="M173.949 45.5812C173.949 45.5812 173.935 45.5882 173.931 45.5905L173.945 45.5812H173.949Z" fill="white"/>
<path d="M173.915 45.6C173.915 45.6 173.899 45.6091 173.893 45.6136L173.909 45.6023H173.915V45.6Z" fill="white"/>
<path d="M173.905 45.6016L173.89 45.6124C173.89 45.6124 173.875 45.6189 173.868 45.6233C173.879 45.6168 173.892 45.6102 173.905 45.6016Z" fill="white"/>
<path d="M173.273 39.6557C173.781 39.3635 173.573 39.4842 172.777 39.9415L173.273 39.6557Z" fill="white"/>
<path d="M172.776 39.9416C173.204 39.6961 173.052 39.785 172.442 40.1364L172.019 40.3798L172.776 39.9416Z" fill="white"/>
<path d="M171.137 40.8853C170.841 41.0567 170.71 41.1329 170.87 41.0398C170.79 41.0864 170.71 41.1329 170.627 41.1795L171.137 40.8853Z" fill="white"/>
<path d="M170.146 41.4619L169.875 41.6186C169.911 41.5974 169.945 41.5783 169.979 41.5572C170.036 41.5233 170.091 41.4937 170.146 41.4619Z" fill="white"/>
<path d="M169.973 41.5575C169.939 41.5787 169.906 41.5977 169.87 41.6189L169.662 41.7374C169.762 41.6803 169.865 41.621 169.973 41.5575Z" fill="white"/>
<path d="M169.244 41.9806L169.117 42.0526C169.157 42.0293 169.2 42.0039 169.244 41.9806Z" fill="white"/>
<path d="M168.973 42.1388L168.766 42.2595C168.806 42.2362 168.844 42.2129 168.882 42.1896C168.912 42.1727 168.943 42.1557 168.973 42.1388Z" fill="white"/>
<path d="M168.881 42.1906C168.843 42.2138 168.805 42.2371 168.765 42.2604C168.748 42.2689 168.733 42.2773 168.716 42.2879C168.769 42.2562 168.824 42.2244 168.881 42.1906Z" fill="white"/>
<path d="M168.45 42.4381L168.384 42.4768C168.405 42.4639 168.427 42.451 168.45 42.4381Z" fill="white"/>
<path d="M168.319 42.5165C168.275 42.5419 168.234 42.5652 168.196 42.5885L168.158 42.6096C168.213 42.5779 168.266 42.5482 168.319 42.5165Z" fill="white"/>
<path d="M168.155 42.6089L168.113 42.6343C168.098 42.6406 168.086 42.6491 168.073 42.6576L168.026 42.683C168.069 42.6576 168.113 42.6343 168.155 42.6089Z" fill="white"/>
<path d="M168.028 42.6825L167.998 42.7015C167.969 42.7164 167.943 42.7312 167.92 42.746L168.028 42.6825Z" fill="white"/>
<path d="M167.715 42.8674C167.715 42.8674 167.699 42.8744 167.694 42.879L167.704 42.8721C167.704 42.8721 167.711 42.8674 167.715 42.8674Z" fill="white"/>
<path d="M154.777 54.9315C154.303 55.5623 154.315 56.263 154.65 56.4535L150.06 53.8074C149.726 53.6126 149.713 52.9141 150.19 52.2811L154.866 46.0807C155.825 44.8106 156.942 43.7839 158.088 43.1234L177.159 32.1093L181.748 34.7596L170.63 41.1801C169.999 41.5464 169.775 41.6755 170.143 41.4617L169.665 41.7369C168.801 42.2343 168.651 42.3233 169.246 41.9803C169.201 42.0036 169.159 42.029 169.119 42.0523C168.344 42.5011 168.3 42.5265 168.971 42.1391C168.941 42.156 168.909 42.173 168.88 42.1899C168.822 42.2238 168.767 42.2555 168.714 42.2873C168.706 42.2915 168.698 42.2957 168.689 42.3021C167.982 42.7085 167.933 42.7382 168.452 42.4376C168.429 42.4503 168.407 42.463 168.386 42.4757C168.386 42.4757 167.954 42.7255 167.918 42.7466C167.679 42.8863 167.675 42.8863 167.844 42.789C167.825 42.7996 167.811 42.808 167.798 42.8165C167.794 42.8186 167.789 42.8207 167.785 42.825C167.772 42.8292 167.762 42.8355 167.753 42.8419C167.743 42.8482 167.732 42.8525 167.724 42.8588C167.72 42.8609 167.715 42.8652 167.711 42.8673C167.707 42.8673 167.705 42.8694 167.7 42.8715L167.692 42.8779C167.675 42.8863 167.664 42.8927 167.662 42.8948L162.677 45.7717C159.995 47.3234 158.865 49.7366 154.777 54.9315Z" fill="white"/>
<path d="M172.019 40.3791L181.75 34.7588" stroke="#350B00" stroke-width="0.635068" stroke-linecap="round" stroke-linejoin="round"/>
<path d="M171.373 40.7531L171.849 40.4779" stroke="#350B00" stroke-width="0.635068" stroke-linecap="round" stroke-linejoin="round"/>
<path d="M170.627 41.1795L171.137 40.8853" stroke="#350B00" stroke-width="0.635068" stroke-linecap="round" stroke-linejoin="round"/>
<path d="M169.662 41.7374C169.762 41.6803 169.865 41.621 169.973 41.5575" stroke="#350B00" stroke-width="0.635068" stroke-linecap="round" stroke-linejoin="round"/>
<path d="M168.716 42.2879C168.769 42.2562 168.824 42.2244 168.881 42.1906" stroke="#350B00" stroke-width="0.635068" stroke-linecap="round" stroke-linejoin="round"/>
<path d="M167.694 42.879C167.694 42.879 167.706 42.8721 167.715 42.8674" stroke="#350B00" stroke-width="0.635068" stroke-linecap="round" stroke-linejoin="round"/>
<path d="M167.92 42.746C167.943 42.7312 167.969 42.7164 167.998 42.7015L168.028 42.6825" stroke="#350B00" stroke-width="0.635068" stroke-linecap="round" stroke-linejoin="round"/>
<path d="M168.026 42.683L168.073 42.6576C168.086 42.6491 168.098 42.6406 168.113 42.6343L168.155 42.6089" stroke="#350B00" stroke-width="0.635068" stroke-linecap="round" stroke-linejoin="round"/>
<path d="M168.319 42.5165C168.275 42.5419 168.234 42.5652 168.196 42.5885L168.158 42.6096" stroke="#350B00" stroke-width="0.635068" stroke-linecap="round" stroke-linejoin="round"/>
<path d="M168.45 42.4381L168.384 42.4768" stroke="#350B00" stroke-width="0.635068" stroke-linecap="round" stroke-linejoin="round"/>
<path d="M168.973 42.1388L168.766 42.2595" stroke="#350B00" stroke-width="0.635068" stroke-linecap="round" stroke-linejoin="round"/>
<path d="M169.244 41.9806L169.117 42.0526" stroke="#350B00" stroke-width="0.635068" stroke-linecap="round" stroke-linejoin="round"/>
<path d="M170.146 41.4619L169.875 41.6186" stroke="#350B00" stroke-width="0.635068" stroke-linecap="round" stroke-linejoin="round"/>
<path d="M175.283 38.4943C175.283 38.4943 175.281 38.4964 175.277 38.4985L175.256 38.5112C175.256 38.5112 175.249 38.5154 175.243 38.5175C175.243 38.5175 175.283 38.4943 175.205 38.5387L175.201 38.543L175.171 38.5578" stroke="#350B00" stroke-width="0.635068" stroke-linecap="round" stroke-linejoin="round"/>
<path d="M169.875 41.6179C169.911 41.5967 169.945 41.5777 169.979 41.5565C170.036 41.5227 170.091 41.493 170.146 41.4613C169.778 41.6751 170 41.5417 170.633 41.1797C170.715 41.1331 170.796 41.0866 170.876 41.04C170.715 41.1331 170.847 41.0569 171.143 40.8855L172.443 40.1361C173.052 39.7847 173.205 39.6958 172.777 39.9413C173.573 39.4841 173.781 39.3634 173.273 39.6556C174.109 39.175 174.236 39.1009 173.62 39.4566C173.713 39.4036 173.802 39.3507 173.884 39.3041C174.661 38.8617 174.708 38.83 174.052 39.2068C174.073 39.1941 174.094 39.1835 174.113 39.1729C174.848 38.7559 174.884 38.7284 174.274 39.0798C174.301 39.0628 174.327 39.048 174.352 39.0332C175.002 38.6564 175.034 38.6394 174.5 38.9464C175.108 38.5971 175.148 38.5738 174.75 38.8024L175.176 38.5569" stroke="#350B00" stroke-width="0.635068" stroke-linecap="round" stroke-linejoin="round"/>
<path d="M169.87 41.6187L169.662 41.7372" stroke="#350B00" stroke-width="0.635068" stroke-linecap="round" stroke-linejoin="round"/>
<path d="M168.383 42.4749C168.404 42.4622 168.426 42.4495 168.449 42.4368C167.93 42.7374 167.979 42.7077 168.686 42.3013C168.694 42.2949 168.703 42.2907 168.711 42.2865C168.728 42.2759 168.743 42.2674 168.76 42.259C168.8 42.2357 168.838 42.2124 168.877 42.1891C168.906 42.1722 168.938 42.1552 168.968 42.1383C168.296 42.5257 168.341 42.5003 169.116 42.0515C169.156 42.0282 169.198 42.0028 169.243 41.9795C168.648 42.3225 168.798 42.2357 169.662 41.7361" stroke="#350B00" stroke-width="0.635068" stroke-linecap="round" stroke-linejoin="round"/>
<path d="M168.385 42.4757L168.314 42.5166" stroke="#350B00" stroke-width="0.635068" stroke-linecap="round" stroke-linejoin="round"/>
<path d="M167.713 42.8679C167.713 42.8679 167.721 42.8615 167.726 42.8594C167.734 42.8531 167.745 42.8488 167.755 42.8425C167.764 42.8361 167.774 42.8298 167.787 42.8255C167.791 42.8213 167.795 42.8192 167.8 42.8171C167.812 42.8086 167.827 42.8001 167.846 42.7896C167.677 42.8869 167.681 42.8869 167.92 42.7472C167.956 42.7261 167.992 42.7049 168.028 42.6837C168.071 42.6583 168.115 42.635 168.157 42.6096C168.212 42.5779 168.265 42.5482 168.318 42.5165" stroke="#350B00" stroke-width="0.635068" stroke-linecap="round" stroke-linejoin="round"/>
<path d="M167.715 42.8674C167.715 42.8674 167.708 42.8697 167.704 42.8721L167.694 42.879" stroke="#350B00" stroke-width="0.635068" stroke-linecap="round" stroke-linejoin="round"/>
<path d="M154.648 56.454C154.314 56.2635 154.301 55.5628 154.776 54.932C158.863 49.7371 159.994 47.3239 162.676 45.7722L167.661 42.8954C167.661 42.8954 167.674 42.8869 167.691 42.8784" stroke="#350B00" stroke-width="0.635068" stroke-linecap="round" stroke-linejoin="round"/>
<path d="M173.915 45.6C173.915 45.6 173.899 45.6091 173.893 45.6136" stroke="#350B00" stroke-width="0.635068" stroke-linecap="round" stroke-linejoin="round"/>
<path d="M173.951 45.5797C173.951 45.5797 173.949 45.5824 173.943 45.5824H173.951V45.5797Z" stroke="#350B00" stroke-width="0.635068" stroke-linecap="round" stroke-linejoin="round"/>
<path d="M173.931 45.5905L173.945 45.5812H173.949L173.931 45.5905Z" stroke="#350B00" stroke-width="0.635068" stroke-linecap="round" stroke-linejoin="round"/>
<path d="M173.893 45.6126L173.908 45.6016" stroke="#350B00" stroke-width="0.635068" stroke-linecap="round" stroke-linejoin="round"/>
<path d="M173.891 45.6125C173.891 45.6125 173.875 45.6194 173.868 45.6239" stroke="#350B00" stroke-width="0.635068" stroke-linecap="round" stroke-linejoin="round"/>
<path d="M173.907 45.6016C173.894 45.61 173.881 45.6164 173.871 45.6227C173.845 45.6375 173.816 45.6545 173.777 45.6778L173.767 45.682C173.75 45.6926 173.735 45.7011 173.722 45.7095L155.219 56.3914C154.982 56.529 154.789 56.5353 154.651 56.4528" stroke="#350B00" stroke-width="0.635068" stroke-linecap="round" stroke-linejoin="round"/>
<path d="M173.905 45.6026L173.913 45.6" stroke="#350B00" stroke-width="0.635068" stroke-linecap="round" stroke-linejoin="round"/>
<path d="M181.748 34.7588V41.0735L173.947 45.5782C173.947 45.5782 173.945 45.5782 173.945 45.5803C173.939 45.5803 173.932 45.5867 173.928 45.5888C173.924 45.5909 173.922 45.5888 173.922 45.593C173.92 45.5952 173.915 45.5973 173.911 45.5994" stroke="#350B00" stroke-width="0.635068" stroke-linecap="round" stroke-linejoin="round"/>
<path d="M181.748 34.7596L177.159 32.1093L158.088 43.1234C156.942 43.7839 155.825 44.8106 154.866 46.0807L150.19 52.2811C149.713 52.9141 149.726 53.6126 150.06 53.8074L154.65 56.4556" stroke="#350B00" stroke-width="0.635068" stroke-linecap="round" stroke-linejoin="round"/>
<path d="M181.755 34.7571L176.287 44.2281" stroke="#350B00" stroke-width="0.635068" stroke-linecap="round" stroke-linejoin="round"/>
<path d="M175.876 44.466L170.408 41.3097" stroke="#350B00" stroke-width="0.635068" stroke-linecap="round" stroke-linejoin="round"/>
<path d="M169.945 41.5746L164.479 51.0434" stroke="#350B00" stroke-width="0.635068" stroke-linecap="round" stroke-linejoin="round"/>
<path d="M170.383 47.6376L175.851 38.1666" stroke="#350B00" stroke-width="0.635068" stroke-linecap="round" stroke-linejoin="round"/>
<path d="M176.306 37.9017L181.774 41.058" stroke="#350B00" stroke-width="0.635068" stroke-linecap="round" stroke-linejoin="round"/>
<path d="M169.972 47.8723L164.504 44.7161" stroke="#350B00" stroke-width="0.635068" stroke-linecap="round" stroke-linejoin="round"/>
<path d="M163.55 52.437V121.291L155.256 126.079V57.2275L163.55 52.437Z" fill="white"/>
<path d="M163.552 52.4371L155.258 57.2276L146.964 52.4371L155.258 47.6487L163.552 52.4371Z" fill="white"/>
<path d="M155.258 57.2275V126.079L146.964 121.291V52.437L155.258 57.2275Z" fill="#E59636"/>
<path d="M146.964 52.4371L155.258 47.6487L163.552 52.4371L155.258 57.2276L146.964 52.4371Z" stroke="#350B00" stroke-width="0.635068" stroke-linecap="round" stroke-linejoin="round"/>
<path d="M155.256 57.2269V126.079" stroke="#350B00" stroke-width="0.635068" stroke-linecap="round" stroke-linejoin="round"/>
<path d="M146.964 52.437V121.291L155.258 126.079L163.552 121.291V52.437" stroke="#350B00" stroke-width="0.635068" stroke-linecap="round" stroke-linejoin="round"/>
<path d="M155.246 60.8181L163.54 65.6065" stroke="#350B00" stroke-width="0.635068" stroke-linecap="round" stroke-linejoin="round"/>
<path d="M155.246 70.3971L163.54 56.0298" stroke="#350B00" stroke-width="0.635068" stroke-linecap="round" stroke-linejoin="round"/>
<path d="M155.246 69.9912L163.54 74.7796" stroke="#350B00" stroke-width="0.635068" stroke-linecap="round" stroke-linejoin="round"/>
<path d="M155.246 79.5702L163.54 65.2029" stroke="#350B00" stroke-width="0.635068" stroke-linecap="round" stroke-linejoin="round"/>
<path d="M155.246 79.1624L163.54 83.9508" stroke="#350B00" stroke-width="0.635068" stroke-linecap="round" stroke-linejoin="round"/>
<path d="M155.246 88.7414L163.54 74.374" stroke="#350B00" stroke-width="0.635068" stroke-linecap="round" stroke-linejoin="round"/>
<path d="M155.246 88.3353L163.54 93.1237" stroke="#350B00" stroke-width="0.635068" stroke-linecap="round" stroke-linejoin="round"/>
<path d="M155.246 97.9143L163.54 83.547" stroke="#350B00" stroke-width="0.635068" stroke-linecap="round" stroke-linejoin="round"/>
<path d="M155.246 97.5084L163.54 102.297" stroke="#350B00" stroke-width="0.635068" stroke-linecap="round" stroke-linejoin="round"/>
<path d="M155.246 107.087L163.54 92.7201" stroke="#350B00" stroke-width="0.635068" stroke-linecap="round" stroke-linejoin="round"/>
<path d="M155.246 106.68L163.54 111.468" stroke="#350B00" stroke-width="0.635068" stroke-linecap="round" stroke-linejoin="round"/>
<path d="M155.246 116.259L163.54 101.891" stroke="#350B00" stroke-width="0.635068" stroke-linecap="round" stroke-linejoin="round"/>
<path d="M155.246 115.853L163.54 120.641" stroke="#350B00" stroke-width="0.635068" stroke-linecap="round" stroke-linejoin="round"/>
<path d="M155.246 125.432L163.54 111.064" stroke="#350B00" stroke-width="0.635068" stroke-linecap="round" stroke-linejoin="round"/>
<path d="M169.373 36.829V54.1726C169.373 56.1054 168.018 58.4572 166.341 59.4225L155.414 65.733C154.574 66.2178 153.816 66.2601 153.272 65.9447L153.229 65.9193C152.649 65.5594 152.321 64.7846 152.391 63.6987L152.98 54.8712C153.443 47.9151 158.278 39.9683 164.089 36.613L166.545 35.1947C167.326 34.7438 168.035 34.7015 168.545 34.9978C169.055 35.2942 169.373 35.9272 169.373 36.829ZM166.032 47.932V40.2816C166.032 39.7651 165.67 39.5555 165.224 39.8159L164.089 40.47C160.02 42.8176 156.631 48.3851 156.307 53.256L156.293 53.4804C156.257 54.0477 156.629 54.2975 157.103 54.0245L165.224 49.3355C165.67 49.0773 166.032 48.4486 166.032 47.932Z" fill="#E59636"/>
<path d="M156.353 27.9588L168.546 34.9975C168.036 34.7011 167.327 34.7435 166.546 35.1944L164.09 36.6127C158.28 39.9679 153.445 47.9148 152.981 54.8709L152.392 63.6983C152.323 64.7843 152.651 65.5591 153.231 65.9189L141.08 58.9057C140.476 58.5564 140.127 57.771 140.201 56.6575L140.788 47.8322C141.251 40.8761 146.088 32.9272 151.899 29.5719L154.355 28.1557C155.136 27.7048 155.843 27.6603 156.353 27.9588ZM156.887 39.5425L149.198 35.0462C145.997 38.5433 143.652 43.4735 143.33 47.9084L150.758 52.2523C151.596 47.7623 153.855 43.1687 156.887 39.5425Z" fill="white"/>
<path d="M166.035 40.2814V47.9318C166.035 48.4484 165.673 49.0771 165.227 49.3353L157.106 54.0243C156.632 54.2973 156.259 54.0475 156.295 53.4802L156.31 53.2558C156.634 48.3849 160.023 42.8174 164.092 40.4698L165.227 39.8157C165.673 39.5553 166.035 39.7649 166.035 40.2814Z" fill="#350B00"/>
<path d="M149.199 35.0455L156.888 39.5418C153.856 43.168 151.598 47.7617 150.759 52.2516L143.331 47.9078C143.653 43.4729 145.998 38.5426 149.199 35.0455Z" fill="#D7DCE0"/>
<path d="M153.229 65.9193C152.649 65.5594 152.321 64.7846 152.391 63.6987L152.98 54.8712C153.443 47.9151 158.278 39.9683 164.089 36.613L166.545 35.1947C167.326 34.7438 168.035 34.7015 168.545 34.9978C169.055 35.2942 169.373 35.9272 169.373 36.829V54.1726C169.373 56.1054 168.018 58.4572 166.341 59.4225L155.414 65.733C154.574 66.2178 153.816 66.2601 153.272 65.9447" stroke="#350B00" stroke-width="0.635068" stroke-linecap="round" stroke-linejoin="round"/>
<path d="M166.035 47.9318V40.2814C166.035 39.7649 165.673 39.5553 165.227 39.8157L164.092 40.4698C160.023 42.8174 156.634 48.3849 156.31 53.2558L156.295 53.4802C156.259 54.0475 156.632 54.2973 157.106 54.0243L165.227 49.3353C165.673 49.0771 166.035 48.4484 166.035 47.9318Z" stroke="#350B00" stroke-width="0.635068" stroke-linecap="round" stroke-linejoin="round"/>
<path d="M153.273 65.9443L141.08 58.9057C140.476 58.5564 140.127 57.771 140.201 56.6575L140.788 47.8322C141.251 40.8761 146.088 32.9272 151.899 29.5719L154.355 28.1557C155.136 27.7048 155.843 27.6603 156.353 27.9588L168.546 34.9975" stroke="#350B00" stroke-width="0.635068" stroke-linecap="round" stroke-linejoin="round"/>
<path d="M143.331 47.9078L150.759 52.2516C151.598 47.7617 153.856 43.168 156.888 39.5418L149.199 35.0455C145.998 38.5426 143.653 43.4729 143.331 47.9078Z" stroke="#350B00" stroke-width="0.635068" stroke-linecap="round" stroke-linejoin="round"/>
<path d="M105.713 84.9665C105.476 85.1041 105.283 85.1083 105.146 85.0279C104.813 84.8332 104.799 84.1367 105.273 83.5059C105.273 83.5059 110.305 76.8525 110.489 76.6387C111.316 75.6734 112.235 74.888 113.173 74.3461L148.745 53.808V60.1227L105.713 84.9665Z" fill="white"/>
<path d="M148.743 53.8082L143.275 63.2792" stroke="#350B00" stroke-width="0.635068" stroke-linecap="round" stroke-linejoin="round"/>
<path d="M142.868 63.5157L137.402 60.3594" stroke="#350B00" stroke-width="0.635068" stroke-linecap="round" stroke-linejoin="round"/>
<path d="M136.939 60.6272L131.474 70.0939" stroke="#350B00" stroke-width="0.635068" stroke-linecap="round" stroke-linejoin="round"/>
<path d="M137.378 66.6882L142.846 57.2194" stroke="#350B00" stroke-width="0.635068" stroke-linecap="round" stroke-linejoin="round"/>
<path d="M143.301 56.9514L148.769 60.1077" stroke="#350B00" stroke-width="0.635068" stroke-linecap="round" stroke-linejoin="round"/>
<path d="M136.969 66.9242L131.501 63.7679" stroke="#350B00" stroke-width="0.635068" stroke-linecap="round" stroke-linejoin="round"/>
<path d="M131.065 70.3291L125.597 67.1729" stroke="#350B00" stroke-width="0.635068" stroke-linecap="round" stroke-linejoin="round"/>
<path d="M125.14 67.4392L119.674 76.9081" stroke="#350B00" stroke-width="0.635068" stroke-linecap="round" stroke-linejoin="round"/>
<path d="M125.578 73.5001L131.044 64.0312" stroke="#350B00" stroke-width="0.635068" stroke-linecap="round" stroke-linejoin="round"/>
<path d="M119.266 77.147L113.798 73.9907" stroke="#350B00" stroke-width="0.635068" stroke-linecap="round" stroke-linejoin="round"/>
<path d="M113.772 80.3185L119.24 70.8475" stroke="#350B00" stroke-width="0.635068" stroke-linecap="round" stroke-linejoin="round"/>
<path d="M119.701 70.5828L125.169 73.7391" stroke="#350B00" stroke-width="0.635068" stroke-linecap="round" stroke-linejoin="round"/>
<path d="M113.331 74.2576L107.863 83.7264" stroke="#350B00" stroke-width="0.635068" stroke-linecap="round" stroke-linejoin="round"/>
<path d="M109.299 78.2124L113.359 80.5558" stroke="#350B00" stroke-width="0.635068" stroke-linecap="round" stroke-linejoin="round"/>
<path d="M105.275 83.5067C104.801 84.1375 104.813 84.8382 105.148 85.0287L100.558 82.3826C100.224 82.1878 100.211 81.4893 100.688 80.8563L105.364 74.6559C106.323 73.3858 107.44 72.3591 108.586 71.6986L144.158 51.1584L148.747 53.8088L113.175 74.3469C112.237 74.8888 111.319 75.6742 110.491 76.6395C110.307 76.8533 110.129 77.0756 109.953 77.3042L105.275 83.5067Z" fill="white"/>
<path d="M148.745 53.808V60.1227L105.713 84.9665C105.476 85.1041 105.283 85.1083 105.146 85.0279C104.813 84.8332 104.799 84.1367 105.273 83.5059C105.273 83.5059 110.305 76.8525 110.489 76.6387C111.316 75.6734 112.235 74.888 113.173 74.3461L148.745 53.808Z" stroke="#350B00" stroke-width="0.635068" stroke-linecap="round" stroke-linejoin="round"/>
<path d="M148.747 53.8088L144.158 51.1584L108.586 71.6986C107.44 72.3591 106.323 73.3858 105.364 74.6559L100.688 80.8563C100.211 81.4893 100.224 82.1878 100.558 82.3826L105.148 85.0308" stroke="#350B00" stroke-width="0.635068" stroke-linecap="round" stroke-linejoin="round"/>
<path d="M130.246 118.061V132.67C130.246 133.193 130.066 133.555 129.786 133.699L128.046 134.554C128.321 134.406 128.497 134.044 128.497 133.527V118.919C128.497 117.994 127.934 116.918 127.24 116.518L113.078 108.343C112.79 108.178 112.525 108.152 112.313 108.245L114.026 107.405C114.244 107.291 114.521 107.31 114.824 107.483L128.986 115.659C129.68 116.059 130.244 117.134 130.244 118.059L130.246 118.061Z" fill="#350B00"/>
<path d="M128.499 118.92V133.529C128.499 134.046 128.323 134.406 128.048 134.556L128.042 134.56C127.824 134.672 127.546 134.655 127.244 134.48L113.082 126.304C112.387 125.904 111.824 124.829 111.824 123.904V109.295C111.824 108.774 112.002 108.412 112.284 108.266L112.317 108.249C112.529 108.156 112.794 108.179 113.082 108.347L127.244 116.522C127.938 116.922 128.501 117.997 128.501 118.923L128.499 118.92Z" fill="white"/>
<path d="M121.087 121.154L121.07 121.128C120.568 120.588 119.807 119.767 119.767 119.715C119.733 119.667 119.698 119.618 118.786 119.768L118.735 119.776L118.207 121.155L118.886 123.407L120.739 123.854L121.811 122.902L121.087 121.153V121.154Z" fill="#350B00"/>
<path d="M119.183 122.758L120.946 121.756L121.43 123.828L119.747 124.085L118.959 123.333L119.183 122.758Z" fill="#E59636"/>
<path d="M119.718 124.179L118.854 123.355L119.111 122.695L121.006 121.618L121.539 123.899L119.718 124.178V124.179ZM119.063 123.309L119.778 123.989L121.321 123.753L120.887 121.892L119.255 122.819L119.064 123.308L119.063 123.309Z" fill="#350B00"/>
<path d="M120.191 124.314L119.274 123.694L119.093 124.729V127.748L119.182 127.8L120.195 127.201L120.191 124.314Z" fill="#350B00"/>
<path d="M123.909 122.936C123.909 122.027 123.664 121.182 123.173 120.406C122.681 119.629 121.946 118.958 120.968 118.392L118.287 116.844L117.089 117.541L119.77 119.09C120.75 119.655 121.484 120.326 121.975 121.103C122.465 121.881 122.712 122.724 122.712 123.633C122.712 124.542 122.479 125.186 122.022 125.459V125.464L123.215 124.77V124.766C123.676 124.493 123.909 123.886 123.909 122.936Z" fill="#E59636"/>
<path d="M120.667 122.194C120.669 122.208 119.812 122.715 119.812 122.715C119.812 122.715 120.327 123.037 120.72 122.849C121.112 122.66 120.928 122.268 120.928 122.268L120.667 122.194Z" fill="white"/>
<path d="M122.711 123.634C122.711 124.633 122.455 125.258 121.944 125.508C121.434 125.758 120.709 125.611 119.769 125.069L119.182 124.729V127.697L117.089 126.489V117.543L119.77 119.092C120.75 119.657 121.484 120.328 121.975 121.105C122.465 121.883 122.712 122.726 122.712 123.635L122.711 123.634ZM119.182 122.759L119.563 122.979C119.877 123.161 120.127 123.203 120.313 123.106C120.498 123.009 120.591 122.782 120.591 122.422C120.591 121.818 120.302 121.349 119.722 121.014L119.182 120.702V122.758V122.759Z" fill="#E59636"/>
<path d="M121.516 121.36L122.716 120.663C122.15 120.014 121.891 119.573 120.955 119.034L118.273 117.485L117.074 118.182L119.756 119.731C120.592 120.273 120.97 120.774 121.516 121.36Z" fill="white"/>
<path d="M119.767 120.937L119.092 120.548V122.81L119.517 123.056C119.735 123.182 119.93 123.246 120.096 123.246C120.19 123.246 120.277 123.226 120.354 123.185C120.569 123.071 120.68 122.815 120.68 122.422C120.68 121.786 120.373 121.287 119.766 120.937H119.767ZM120.271 123.027C120.115 123.108 119.892 123.066 119.608 122.901L119.271 122.707V120.857L119.678 121.092C120.233 121.412 120.503 121.847 120.503 122.422C120.503 122.743 120.426 122.947 120.272 123.027H120.271Z" fill="#350B00"/>
<path d="M123.999 122.936C123.999 122.013 123.747 121.146 123.249 120.357C122.752 119.572 121.999 118.884 121.013 118.314L118.287 116.74L117 117.49V126.539L119.183 127.799L119.272 127.747V124.883L119.726 125.145C120.67 125.69 121.418 125.841 121.952 125.6L123.261 124.848L123.318 124.81V124.808C123.77 124.502 124 123.873 124 122.936H123.999ZM118.287 116.947L120.923 118.469C121.885 119.025 122.616 119.692 123.097 120.453C123.292 120.761 123.446 121.083 123.562 121.414L122.511 121.987C122.394 121.666 122.24 121.354 122.05 121.055C121.553 120.269 120.8 119.581 119.814 119.012L117.266 117.54L118.287 116.947ZM122.125 125.272C122.078 125.314 122.029 125.351 121.975 125.383C121.952 125.397 121.931 125.415 121.906 125.427C121.427 125.662 120.722 125.515 119.814 124.991L119.092 124.574V127.542L117.177 126.436V117.696L119.724 119.167C120.686 119.722 121.417 120.389 121.898 121.15C122.377 121.909 122.621 122.744 122.621 123.632C122.621 123.747 122.617 123.858 122.61 123.963C122.606 124.015 122.599 124.063 122.594 124.112C122.589 124.162 122.585 124.214 122.578 124.261C122.569 124.324 122.556 124.382 122.544 124.44C122.538 124.468 122.533 124.497 122.526 124.525C122.51 124.59 122.491 124.65 122.471 124.709C122.466 124.725 122.461 124.742 122.455 124.758C122.432 124.821 122.405 124.879 122.376 124.934C122.372 124.942 122.368 124.951 122.364 124.959C122.333 125.016 122.298 125.07 122.262 125.119C122.26 125.122 122.257 125.126 122.255 125.129C122.215 125.179 122.174 125.226 122.128 125.268C122.128 125.268 122.126 125.27 122.125 125.271V125.272Z" fill="#350B00"/>
<path d="M118.981 117.29L117.089 116.197V114.697L122.723 117.849V119.349L121.075 118.498" fill="#E59636"/>
<path d="M117.089 114.697L118.163 114.104L123.797 117.255L122.723 117.849L117.089 114.697Z" fill="#E59636"/>
<path d="M117.089 115.34L118.163 114.746L123.797 117.898L122.723 118.492L117.089 115.34Z" fill="white"/>
<path d="M122.739 119.428L123.886 118.807V117.204L123.797 117.152L118.163 114L117.089 114.594L117 114.646V116.249L118.892 117.341M118.163 114.207L123.619 117.255L122.723 117.746L117.269 114.697L118.164 114.207H118.163ZM119.071 117.238L117.178 116.146V114.852L122.633 117.901V119.124" fill="#350B00"/>
<path d="M112.319 108.246C112.531 108.153 112.796 108.176 113.084 108.343L127.246 116.519C127.94 116.919 128.503 117.994 128.503 118.919V133.528C128.503 134.045 128.327 134.404 128.052 134.555" stroke="#350B00" stroke-width="0.635068" stroke-linecap="round" stroke-linejoin="round"/>
<path d="M128.042 134.558C127.824 134.67 127.546 134.653 127.244 134.477L113.082 126.302C112.387 125.902 111.824 124.826 111.824 123.901V109.293C111.824 108.772 112.002 108.41 112.284 108.264" stroke="#350B00" stroke-width="0.635068" stroke-linecap="round" stroke-linejoin="round"/>
<path d="M112.282 108.262L114.029 107.405C114.247 107.291 114.524 107.31 114.827 107.483L128.989 115.659C129.683 116.059 130.246 117.134 130.246 118.059V132.668C130.246 133.191 130.066 133.553 129.787 133.697L128.04 134.556" stroke="#350B00" stroke-width="0.635068" stroke-linecap="round" stroke-linejoin="round"/>
<path d="M115.628 108.957C117.156 107.335 118.012 106.288 120.653 103.254C120.757 103.197 120.922 103.292 121.028 103.47C123.501 109.372 126.054 114.975 126.054 114.975" stroke="#350B00" stroke-width="0.635068" stroke-linecap="round" stroke-linejoin="round"/>
<path d="M146.287 119.121C147.684 119.121 148.818 120.254 148.818 121.651C148.818 123.048 147.686 124.183 146.287 124.183C144.887 124.183 143.757 123.05 143.757 121.651C143.757 120.252 144.889 119.121 146.287 119.121Z" fill="white"/>
<path d="M148.818 121.651C148.818 120.254 147.686 119.121 146.287 119.121C144.887 119.121 143.757 120.254 143.757 121.651C143.757 123.048 144.889 124.183 146.287 124.183C147.684 124.183 148.818 123.05 148.818 121.651Z" stroke="#350B00" stroke-width="0.635068" stroke-linecap="round" stroke-linejoin="round"/>
</g>
<path d="M202.82 123.077C202.82 123.8 202.383 124.49 201.492 125.002L190.435 131.387C188.465 132.523 185.027 132.382 182.756 131.07L169.849 123.62C168.606 122.903 167.969 121.984 167.969 121.112C167.969 120.391 168.406 119.701 169.296 119.187L177.519 114.441V119.99C177.519 121.024 178.244 122.28 179.139 122.797L183.525 125.326C183.999 125.6 184.425 125.625 184.733 125.447L191.862 121.334C192.227 121.122 192.426 120.629 192.345 119.933L191.633 115.198L196.378 117.938V118.072C196.378 118.99 196.936 119.414 197.627 119.015L197.935 118.835L200.94 120.572C202.182 121.29 202.82 122.208 202.82 123.079V123.077Z" fill="#DAE0E5"/>
<path d="M212.005 97.6379V101.828C212.005 102.748 211.445 103.814 210.757 104.212L197.628 111.793C196.937 112.192 196.379 111.768 196.379 110.85V106.66C196.379 105.742 196.937 104.675 197.628 104.276L210.757 96.6952C211.445 96.2989 212.005 96.7197 212.005 97.6379ZM209.658 101.162C209.658 100.817 209.501 100.609 209.278 100.609C209.203 100.609 209.116 100.634 209.03 100.684L207.671 101.469C207.324 101.67 207.044 102.209 207.044 102.673C207.044 103.02 207.2 103.225 207.422 103.225C207.499 103.225 207.583 103.203 207.671 103.15L209.03 102.364C209.377 102.164 209.658 101.627 209.658 101.162ZM204.473 104.873C204.935 104.295 205.096 103.522 204.827 103.141C204.561 102.761 203.969 102.919 203.508 103.496C203.044 104.074 202.885 104.847 203.152 105.227C203.418 105.608 204.01 105.448 204.473 104.873ZM201.342 105.964C201.342 105.618 201.185 105.411 200.962 105.411C200.885 105.411 200.799 105.435 200.712 105.488L199.355 106.27C199.008 106.471 198.726 107.009 198.726 107.474C198.726 107.82 198.882 108.027 199.104 108.027C199.182 108.027 199.267 108.002 199.355 107.95L200.712 107.167C201.06 106.967 201.342 106.427 201.342 105.964Z" fill="#E59636"/>
<path d="M209.274 100.609C209.498 100.609 209.654 100.816 209.654 101.162C209.654 101.625 209.374 102.163 209.027 102.364L207.668 103.15C207.58 103.202 207.495 103.225 207.418 103.225C207.197 103.225 207.04 103.02 207.04 102.672C207.04 102.209 207.321 101.669 207.668 101.469L209.027 100.684C209.113 100.633 209.199 100.609 209.274 100.609Z" fill="#350B00"/>
<path d="M204.827 103.139C205.097 103.52 204.937 104.294 204.474 104.871C204.01 105.447 203.418 105.605 203.152 105.225C202.885 104.845 203.043 104.072 203.508 103.494C203.97 102.917 204.562 102.76 204.827 103.139Z" fill="#350B00"/>
<path d="M202.82 115.857V120.474C202.82 121.196 202.383 121.886 201.492 122.398L190.435 128.783C188.465 129.92 185.027 129.778 182.756 128.467L169.849 121.017C168.606 120.299 167.969 119.381 167.969 118.51V113.891C167.969 114.764 168.606 115.681 169.849 116.4L182.755 123.85C185.027 125.161 188.463 125.305 190.433 124.166L201.491 117.781C202.381 117.269 202.818 116.579 202.818 115.857H202.82Z" fill="#350B00"/>
<path d="M202.82 115.857C202.82 116.58 202.383 117.269 201.492 117.782L190.435 124.167C188.465 125.303 185.027 125.161 182.756 123.85L169.849 116.4C168.606 115.683 167.969 114.764 167.969 113.892C167.969 113.171 168.406 112.481 169.296 111.967L177.519 107.221V112.77C177.519 113.804 178.244 115.06 179.139 115.577L183.525 118.106C183.999 118.38 184.425 118.405 184.733 118.227L191.862 114.114C192.227 113.902 192.426 113.409 192.345 112.713L191.633 107.978L196.378 110.718V110.852C196.378 111.77 196.936 112.194 197.627 111.794L197.935 111.615L200.94 113.352C202.182 114.07 202.82 114.988 202.82 115.859V115.857Z" fill="#E59636"/>
<path d="M202.256 101.6L199.517 103.182L197.33 101.917H197.329L196.267 101.305C196.208 101.271 196.158 101.222 196.114 101.16C195.848 100.778 196.004 100.007 196.468 99.4295C196.856 98.9468 197.334 98.7576 197.637 98.9321L202.257 101.6H202.256Z" fill="#C2C7CC"/>
<path d="M200.96 105.411C201.183 105.411 201.34 105.619 201.34 105.964C201.34 106.428 201.057 106.967 200.71 107.168L199.353 107.951C199.265 108.003 199.18 108.028 199.102 108.028C198.88 108.028 198.724 107.82 198.724 107.475C198.724 107.011 199.006 106.472 199.353 106.271L200.71 105.488C200.797 105.436 200.883 105.411 200.96 105.411Z" fill="#350B00"/>
<path d="M199.753 98.1173C199.877 98.8953 199.821 99.5639 199.626 100.081L197.639 98.9328C197.337 98.7583 196.858 98.9474 196.47 99.4302C196.008 100.008 195.852 100.779 196.116 101.161C196.158 101.223 196.209 101.272 196.269 101.306L197.331 101.917L192.48 104.718C193.193 104.263 193.541 103.22 193.32 101.831L193.218 101.192C192.859 98.9279 191.122 96.5973 189.343 95.9841L175.581 91.2658C174.932 91.0423 174.367 91.0782 173.929 91.3245L180.343 87.6223C180.783 87.3679 181.356 87.3271 182.013 87.5522L195.773 92.2737C197.553 92.8853 199.291 95.2159 199.652 97.4812L199.751 98.1189L199.753 98.1173Z" fill="#E59636"/>
<path d="M199.515 103.183L197.623 104.274C196.931 104.674 196.374 105.74 196.374 106.658V110.715L191.629 107.975L191.171 104.936C191.65 105.019 192.073 104.953 192.415 104.754L197.326 101.917H197.328L199.515 103.183Z" fill="white"/>
<path d="M177.523 100.285L176.989 100.102C175.21 99.4903 173.475 97.1597 173.114 94.8944L173.012 94.2567C172.783 92.8263 173.16 91.7662 173.912 91.3324L173.93 91.3226C174.368 91.0764 174.933 91.0405 175.582 91.2639L189.342 95.9838C191.121 96.597 192.86 98.9276 193.217 101.191L193.32 101.831C193.54 103.22 193.193 104.262 192.48 104.717L192.42 104.753C192.077 104.952 191.655 105.021 191.175 104.934C191.038 104.91 190.896 104.874 190.75 104.823L177.521 100.283L177.523 100.285ZM176.675 96.9722C177.278 97.1793 177.668 96.7259 177.544 95.961C177.423 95.1928 176.836 94.4067 176.234 94.2012C175.631 93.9941 175.241 94.4475 175.365 95.2124C175.487 95.9806 176.073 96.765 176.675 96.9722Z" fill="white"/>
<path d="M192.34 112.71C192.42 113.405 192.221 113.899 191.858 114.111L184.763 118.205C185.107 117.985 185.291 117.499 185.212 116.825L183.005 102.168L190.745 104.825C190.892 104.874 191.034 104.91 191.171 104.936L192.342 112.712L192.34 112.71Z" fill="#350B00"/>
<path d="M185.217 116.827C185.295 117.499 185.111 117.985 184.768 118.207L184.734 118.226C184.427 118.406 184.002 118.381 183.526 118.106L179.14 115.576C178.246 115.059 177.521 113.803 177.521 112.769V100.286L183.009 102.17L185.215 116.827H185.217Z" fill="white"/>
<path d="M177.541 95.9635C177.665 96.7284 177.275 97.1818 176.671 96.9747C176.07 96.7675 175.483 95.9814 175.362 95.2149C175.238 94.45 175.628 93.9966 176.231 94.2037C176.833 94.4092 177.422 95.1969 177.541 95.9635Z" fill="#350B00"/>
<path d="M177.519 107.22L169.296 111.966C168.406 112.48 167.969 113.17 167.969 113.891C167.969 114.763 168.606 115.68 169.849 116.399L182.755 123.849C185.027 125.16 188.463 125.304 190.433 124.165L201.491 117.78C202.381 117.268 202.818 116.578 202.818 115.856C202.818 114.985 202.181 114.068 200.938 113.349L197.934 111.614" stroke="#350B00" stroke-width="0.489278" stroke-linecap="round" stroke-linejoin="round"/>
<path d="M196.381 110.717L191.635 107.977" stroke="#350B00" stroke-width="0.489278" stroke-linecap="round" stroke-linejoin="round"/>
<path d="M167.969 113.892V118.511C167.969 119.382 168.606 120.298 169.849 121.017L182.755 128.469C185.027 129.779 188.463 129.922 190.433 128.785L201.491 122.4C202.381 121.888 202.818 121.198 202.818 120.476V115.859" stroke="#350B00" stroke-width="0.489278" stroke-linecap="round" stroke-linejoin="round"/>
<path d="M184.734 118.225C184.427 118.405 184.002 118.38 183.526 118.105L179.14 115.575C178.246 115.058 177.521 113.802 177.521 112.768V100.283" stroke="#350B00" stroke-width="0.489278" stroke-linecap="round" stroke-linejoin="round"/>
<path d="M183.005 102.168L185.212 116.826C185.29 117.498 185.106 117.984 184.763 118.205" stroke="#350B00" stroke-width="0.489278" stroke-linecap="round" stroke-linejoin="round"/>
<path d="M184.734 118.226L191.863 114.113C192.228 113.901 192.427 113.408 192.346 112.712L191.175 104.937" stroke="#350B00" stroke-width="0.489278" stroke-linecap="round" stroke-linejoin="round"/>
<path d="M192.48 104.718C193.193 104.263 193.541 103.221 193.32 101.831L193.218 101.192C192.859 98.928 191.122 96.5974 189.343 95.9841L175.581 91.2659C174.932 91.0424 174.367 91.0783 173.929 91.3246" stroke="#350B00" stroke-width="0.489278" stroke-linecap="round" stroke-linejoin="round"/>
<path d="M173.905 91.3351C173.152 91.7689 172.777 92.829 173.005 94.2593L173.108 94.897C173.47 97.1624 175.203 99.493 176.983 100.105L190.743 104.826C190.89 104.875 191.031 104.913 191.168 104.937C191.648 105.023 192.07 104.955 192.413 104.756" stroke="#350B00" stroke-width="0.489278" stroke-linecap="round" stroke-linejoin="round"/>
<path d="M175.362 95.2137C175.238 94.4488 175.628 93.9954 176.231 94.2025C176.833 94.408 177.422 95.1957 177.541 95.9623C177.665 96.7272 177.275 97.1806 176.671 96.9734C176.07 96.7663 175.483 95.9802 175.362 95.2137Z" stroke="#350B00" stroke-width="0.489278" stroke-linecap="round" stroke-linejoin="round"/>
<path d="M192.418 104.756L197.329 101.918" stroke="#350B00" stroke-width="0.489278" stroke-linecap="round" stroke-linejoin="round"/>
<path d="M199.625 100.083C199.821 99.566 199.874 98.8957 199.752 98.1193L199.653 97.4817C199.291 95.2163 197.554 92.8857 195.774 92.2741L182.011 87.5509C181.354 87.3259 180.781 87.3667 180.341 87.6211L173.91 91.3347" stroke="#350B00" stroke-width="0.489278" stroke-linecap="round" stroke-linejoin="round"/>
<path d="M203.152 105.226C203.418 105.607 204.01 105.448 204.473 104.872C204.935 104.295 205.096 103.522 204.827 103.14C204.561 102.76 203.969 102.918 203.508 103.495C203.044 104.073 202.885 104.846 203.152 105.226Z" stroke="#350B00" stroke-width="0.489278" stroke-linecap="round" stroke-linejoin="round"/>
<path d="M202.256 101.601L197.636 98.9325C197.334 98.7579 196.855 98.9471 196.467 99.4299C196.005 100.007 195.848 100.779 196.113 101.16C196.155 101.222 196.206 101.271 196.266 101.305L197.328 101.917H197.329L199.516 103.183" stroke="#350B00" stroke-width="0.489278" stroke-linecap="round" stroke-linejoin="round"/>
<path d="M196.379 110.717V110.85C196.379 111.769 196.937 112.193 197.628 111.793L210.757 104.213C211.445 103.815 212.005 102.748 212.005 101.828V97.6383C212.005 96.7201 211.445 96.2993 210.757 96.6956L197.628 104.276C196.937 104.676 196.379 105.742 196.379 106.661V110.717Z" stroke="#350B00" stroke-width="0.489278" stroke-linecap="round" stroke-linejoin="round"/>
<path d="M207.668 103.149L209.027 102.363C209.374 102.162 209.654 101.625 209.654 101.161C209.654 100.815 209.498 100.608 209.274 100.608C209.199 100.608 209.113 100.632 209.027 100.683L207.668 101.467C207.321 101.668 207.04 102.208 207.04 102.671C207.04 103.018 207.197 103.224 207.418 103.224C207.495 103.224 207.58 103.201 207.668 103.149Z" stroke="#350B00" stroke-width="0.489278" stroke-linecap="round" stroke-linejoin="round"/>
<path d="M199.353 107.95L200.71 107.167C201.057 106.966 201.34 106.426 201.34 105.963C201.34 105.617 201.183 105.41 200.96 105.41C200.883 105.41 200.797 105.435 200.71 105.487L199.353 106.27C199.006 106.47 198.724 107.009 198.724 107.473C198.724 107.819 198.88 108.026 199.102 108.026C199.18 108.026 199.265 108.002 199.353 107.95Z" stroke="#350B00" stroke-width="0.489278" stroke-linecap="round" stroke-linejoin="round"/>
<defs>
<clipPath id="clip0_4502_7077">
<rect width="82.0931" height="107.5" fill="white" transform="translate(100 27.4517)"/>
</clipPath>
</defs>
</svg>
