<svg width="312" height="161" viewBox="0 0 312 161" fill="none" xmlns="http://www.w3.org/2000/svg">
<path d="M157 132.458C157 133.152 156.58 133.814 155.726 134.305L145.114 140.433C143.224 141.523 139.924 141.387 137.746 140.129L125.359 132.979C124.167 132.291 123.555 131.41 123.555 130.572C123.555 129.88 123.974 129.218 124.829 128.725L132.72 124.171V129.495C132.72 130.488 133.415 131.693 134.274 132.189L138.483 134.617C138.938 134.879 139.347 134.903 139.643 134.732L146.484 130.785C146.834 130.582 147.025 130.109 146.947 129.441L146.265 124.897L150.818 127.527V127.655C150.818 128.536 151.353 128.943 152.016 128.559L152.312 128.387L155.195 130.054C156.388 130.743 157 131.624 157 132.46V132.458Z" fill="#DAE0E5"/>
<g clip-path="url(#clip0_4379_2506)">
<path d="M100.978 93.6271L102.35 94.4187C102.189 94.3264 101.962 94.3396 101.714 94.4821L98.0623 96.593C97.5662 96.878 97.1651 97.572 97.1651 98.1446V99.6909C97.1651 100.438 97.3023 101.1 97.5662 101.628L98.4159 103.319C98.4502 103.388 98.4977 103.441 98.5531 103.475L97.1915 102.689C97.1308 102.654 97.0807 102.599 97.0437 102.528L96.1967 100.836C95.9302 100.308 95.793 99.6461 95.793 98.8993V97.353C95.793 96.7804 96.1941 96.0864 96.6901 95.8014L100.345 93.6904C100.593 93.5479 100.817 93.5348 100.978 93.6271Z" fill="#350B00"/>
<path d="M100.599 97.8622C100.599 98.3161 100.283 98.8649 99.8895 99.0919C99.4963 99.3188 99.1797 99.1367 99.1797 98.6829C99.1797 98.229 99.4963 97.6775 99.8895 97.4506C100.283 97.2236 100.599 97.4083 100.599 97.8622Z" fill="#350B00"/>
<path d="M99.1484 103.382L99.0666 103.43C98.8713 103.543 98.6919 103.557 98.56 103.48L98.552 103.475C98.4966 103.44 98.4491 103.388 98.4148 103.319L97.5652 101.628C97.3013 101.1 97.1641 100.438 97.1641 99.6908V98.1445C97.1641 97.5719 97.5651 96.8779 98.0612 96.5929L101.713 94.4819C101.961 94.3394 102.188 94.3262 102.349 94.4212C102.51 94.5162 102.61 94.7168 102.61 94.9991V96.5454C102.61 97.2948 102.473 98.1128 102.207 98.9493L101.36 101.62C101.244 101.981 100.988 102.319 100.708 102.483L99.1484 103.382ZM99.8872 99.0918C100.28 98.8648 100.597 98.316 100.597 97.8621C100.597 97.4083 100.28 97.2236 99.8872 97.4505C99.4941 97.6774 99.1774 98.2289 99.1774 98.6828C99.1774 99.1366 99.4941 99.3187 99.8872 99.0918Z" fill="white"/>
<path d="M98.56 103.48C98.6919 103.557 98.8713 103.543 99.0666 103.43L100.708 102.483C100.988 102.319 101.244 101.981 101.36 101.62L102.207 98.9493C102.473 98.1128 102.61 97.2948 102.61 96.5454V94.9991C102.61 94.7168 102.51 94.5162 102.349 94.4212C102.188 94.3262 101.961 94.3394 101.713 94.4819L98.0612 96.5929C97.5651 96.8779 97.1641 97.5719 97.1641 98.1445V99.6908C97.1641 100.438 97.3013 101.1 97.5652 101.628L98.4148 103.319C98.4491 103.388 98.4966 103.44 98.552 103.475L98.56 103.48Z" stroke="#350B00" stroke-width="0.791619" stroke-linecap="round" stroke-linejoin="round"/>
<path d="M99.1509 103.383V104.512C99.7578 104.161 100.964 103.953 100.964 105.554C100.964 108.27 97.375 110.46 97.375 107.869" stroke="#350B00" stroke-width="0.791619" stroke-linecap="round" stroke-linejoin="round"/>
<path d="M100.599 97.8622C100.599 97.4083 100.283 97.2236 99.8895 97.4506C99.4963 97.6775 99.1797 98.229 99.1797 98.6829C99.1797 99.1367 99.4963 99.3188 99.8895 99.0919C100.283 98.8649 100.599 98.3161 100.599 97.8622Z" stroke="#350B00" stroke-width="0.791619" stroke-linecap="round" stroke-linejoin="round"/>
<path d="M98.561 103.48L97.1915 102.689C97.1308 102.654 97.0807 102.599 97.0437 102.528L96.1967 100.836C95.9302 100.308 95.793 99.6461 95.793 98.8993V97.353C95.793 96.7804 96.1941 96.0864 96.6901 95.8014L100.345 93.6904C100.593 93.5479 100.817 93.5348 100.978 93.6271L102.35 94.4187" stroke="#350B00" stroke-width="0.791619" stroke-linecap="round" stroke-linejoin="round"/>
<path d="M99.0703 94.952V69.665" stroke="#350B00" stroke-width="0.791619" stroke-linecap="round" stroke-linejoin="round"/>
<path d="M141.663 49.5716C141.368 49.7431 141.127 49.7484 140.956 49.6482C140.542 49.4054 140.523 48.5372 141.114 47.7509C146.21 41.2755 147.619 38.2673 150.962 36.3331L157.176 32.7471C157.176 32.7471 157.192 32.7365 157.213 32.726C157.218 32.7207 157.226 32.7181 157.237 32.7128C157.242 32.7101 157.247 32.7049 157.253 32.7022C157.263 32.6943 157.276 32.689 157.29 32.6811C157.3 32.6732 157.313 32.6653 157.329 32.66C157.335 32.6547 157.34 32.6521 157.345 32.6495C157.361 32.6389 157.379 32.6283 157.403 32.6151C157.192 32.7365 157.2 32.7418 157.495 32.5624C157.525 32.5439 157.556 32.5254 157.593 32.507L157.63 32.4832L157.688 32.4515C157.704 32.441 157.72 32.4304 157.738 32.4225L157.791 32.3909L158.16 32.1771C157.514 32.5518 157.575 32.5149 158.456 32.0082C158.467 32.0003 158.477 31.995 158.488 31.9898C158.509 31.9766 158.527 31.966 158.548 31.9555L158.807 31.8051C157.97 32.2879 158.026 32.2563 158.992 31.6969L159.15 31.6072C158.408 32.0346 158.596 31.9264 159.672 31.3037L160.269 30.9607C159.81 31.2272 160.087 31.0609 160.876 30.6097C160.979 30.5517 161.079 30.4936 161.179 30.4356C160.979 30.5517 161.142 30.4567 161.512 30.2429L163.132 29.3088C163.892 28.8708 164.082 28.76 163.549 29.0661C164.541 28.4961 164.799 28.3457 164.166 28.7098C165.208 28.1108 165.367 28.0185 164.599 28.4618C164.715 28.3958 164.826 28.3299 164.929 28.2718C165.897 27.7203 165.955 27.6807 165.137 28.1504C165.164 28.1346 165.19 28.1214 165.214 28.1082C166.129 27.5884 166.174 27.5541 165.414 27.9921C165.449 27.971 165.48 27.9525 165.512 27.934C166.322 27.4643 166.362 27.4432 165.697 27.8259C166.454 27.3905 166.504 27.3614 166.008 27.6464L174.734 22.6064V30.4778L165.011 36.093C165.011 36.093 165.008 36.0956 165.003 36.0956L164.987 36.1062C164.987 36.1062 164.979 36.1062 164.979 36.1115C164.976 36.1141 164.971 36.1167 164.966 36.1194H164.958C164.942 36.1326 164.926 36.1405 164.913 36.1484C164.881 36.1669 164.844 36.188 164.797 36.217L164.784 36.2223C164.763 36.2355 164.744 36.246 164.728 36.2566L141.663 49.5716Z" fill="white"/>
<path d="M166.538 27.3398L166.504 27.361C166.412 27.4164 166.008 27.6459 166.008 27.6459L166.538 27.3398Z" fill="white"/>
<path d="M166.007 27.6461C166.503 27.3611 166.453 27.3901 165.695 27.8255L166.007 27.6461Z" fill="white"/>
<path d="M165.695 27.826C166.359 27.4433 166.32 27.4645 165.51 27.9341C165.478 27.9526 165.446 27.9711 165.412 27.9922C166.172 27.5542 166.127 27.5885 165.212 28.1083C165.188 28.1215 165.162 28.1347 165.135 28.1505C165.953 27.6808 165.895 27.7204 164.927 28.2719C164.824 28.33 164.713 28.3959 164.597 28.4619C165.365 28.0186 165.206 28.1109 164.164 28.7099L165.695 27.826Z" fill="white"/>
<path d="M165.009 36.0928C165.009 36.0928 165.006 36.0928 165.006 36.0958H165C165 36.0958 165.006 36.0928 165.009 36.0928Z" fill="white"/>
<path d="M165.007 36.0957C165.007 36.0957 164.99 36.1041 164.984 36.1069L165.001 36.0957H165.007Z" fill="white"/>
<path d="M164.966 36.1191C164.966 36.1191 164.946 36.1305 164.938 36.1362L164.957 36.122H164.966V36.1191Z" fill="white"/>
<path d="M164.956 36.1221L164.937 36.1355C164.937 36.1355 164.918 36.1435 164.91 36.1489C164.924 36.1408 164.94 36.1328 164.956 36.1221Z" fill="white"/>
<path d="M164.164 28.7094C164.798 28.3453 164.539 28.4957 163.547 29.0657L164.164 28.7094Z" fill="white"/>
<path d="M163.546 29.0658C164.079 28.7598 163.889 28.8706 163.129 29.3086L162.602 29.6121L163.546 29.0658Z" fill="white"/>
<path d="M161.511 30.2432C161.142 30.4569 160.978 30.5519 161.178 30.4358C161.078 30.4938 160.978 30.5519 160.875 30.6099L161.511 30.2432Z" fill="white"/>
<path d="M160.267 30.9609L159.93 31.1562C159.975 31.1298 160.017 31.1061 160.059 31.0797C160.13 31.0375 160.199 31.0005 160.267 30.9609Z" fill="white"/>
<path d="M160.06 31.0791C160.018 31.1055 159.975 31.1292 159.93 31.1556L159.672 31.3034C159.796 31.2321 159.925 31.1583 160.06 31.0791Z" fill="white"/>
<path d="M159.151 31.6074L158.992 31.6971C159.042 31.6681 159.095 31.6364 159.151 31.6074Z" fill="white"/>
<path d="M158.805 31.8047L158.547 31.9551C158.597 31.9261 158.645 31.897 158.692 31.868C158.729 31.8469 158.769 31.8258 158.805 31.8047Z" fill="white"/>
<path d="M158.694 31.8682C158.647 31.8972 158.599 31.9262 158.549 31.9552C158.528 31.9658 158.509 31.9764 158.488 31.9895C158.554 31.95 158.623 31.9104 158.694 31.8682Z" fill="white"/>
<path d="M158.16 32.1768L158.078 32.2246C158.105 32.2086 158.131 32.1927 158.16 32.1768Z" fill="white"/>
<path d="M157.99 32.2744C157.934 32.3061 157.884 32.3351 157.837 32.3641L157.789 32.3905C157.858 32.3509 157.924 32.314 157.99 32.2744Z" fill="white"/>
<path d="M157.79 32.3906L157.737 32.4223C157.719 32.4302 157.703 32.4408 157.687 32.4513L157.629 32.483C157.682 32.4513 157.737 32.4223 157.79 32.3906Z" fill="white"/>
<path d="M157.631 32.4834L157.594 32.5071C157.557 32.5256 157.525 32.5441 157.496 32.5626L157.631 32.4834Z" fill="white"/>
<path d="M157.236 32.7129C157.236 32.7129 157.216 32.7212 157.211 32.7267L157.222 32.7184C157.222 32.7184 157.23 32.7129 157.236 32.7129Z" fill="white"/>
<path d="M141.113 47.7509C140.522 48.5372 140.538 49.4106 140.955 49.6481L135.234 46.3497C134.817 46.107 134.801 45.2362 135.395 44.4472L141.224 36.7184C142.419 35.1351 143.813 33.8553 145.24 33.032L169.012 19.3027L174.733 22.6064L160.875 30.6097C160.088 31.0662 159.809 31.2272 160.268 30.9606L159.671 31.3037C158.595 31.9238 158.407 32.0346 159.149 31.6071C159.093 31.6362 159.041 31.6678 158.991 31.6968C158.025 32.2563 157.969 32.2879 158.806 31.805C158.769 31.8261 158.729 31.8473 158.692 31.8684C158.621 31.9106 158.553 31.9502 158.487 31.9897C158.476 31.995 158.465 32.0003 158.455 32.0082C157.574 32.5149 157.513 32.5518 158.159 32.1771C158.13 32.1929 158.104 32.2088 158.078 32.2246C158.078 32.2246 157.539 32.536 157.494 32.5624C157.196 32.7365 157.191 32.7365 157.402 32.6151C157.378 32.6283 157.36 32.6389 157.344 32.6494C157.339 32.6521 157.333 32.6547 157.328 32.66C157.312 32.6653 157.299 32.6732 157.289 32.6811C157.275 32.689 157.262 32.6943 157.252 32.7022C157.246 32.7048 157.241 32.7101 157.236 32.7128C157.231 32.7128 157.228 32.7154 157.223 32.718L157.212 32.726C157.191 32.7365 157.178 32.7444 157.175 32.7471L150.961 36.3331C147.618 38.2673 146.209 41.2754 141.113 47.7509Z" fill="white"/>
<path d="M162.602 29.6123L174.732 22.6064" stroke="#350B00" stroke-width="0.791619" stroke-linecap="round" stroke-linejoin="round"/>
<path d="M161.797 30.0764L162.391 29.7334" stroke="#350B00" stroke-width="0.791619" stroke-linecap="round" stroke-linejoin="round"/>
<path d="M160.875 30.6099L161.511 30.2432" stroke="#350B00" stroke-width="0.791619" stroke-linecap="round" stroke-linejoin="round"/>
<path d="M159.672 31.3034C159.796 31.2321 159.925 31.1583 160.06 31.0791" stroke="#350B00" stroke-width="0.791619" stroke-linecap="round" stroke-linejoin="round"/>
<path d="M158.488 31.9895C158.554 31.95 158.623 31.9104 158.694 31.8682" stroke="#350B00" stroke-width="0.791619" stroke-linecap="round" stroke-linejoin="round"/>
<path d="M157.211 32.7267C157.211 32.7267 157.225 32.7184 157.236 32.7129" stroke="#350B00" stroke-width="0.791619" stroke-linecap="round" stroke-linejoin="round"/>
<path d="M157.496 32.5626C157.525 32.5441 157.557 32.5256 157.594 32.5071L157.631 32.4834" stroke="#350B00" stroke-width="0.791619" stroke-linecap="round" stroke-linejoin="round"/>
<path d="M157.629 32.483L157.687 32.4513C157.703 32.4408 157.719 32.4302 157.737 32.4223L157.79 32.3906" stroke="#350B00" stroke-width="0.791619" stroke-linecap="round" stroke-linejoin="round"/>
<path d="M157.99 32.2744C157.934 32.3061 157.884 32.3351 157.837 32.3641L157.789 32.3905" stroke="#350B00" stroke-width="0.791619" stroke-linecap="round" stroke-linejoin="round"/>
<path d="M158.16 32.1768L158.078 32.2246" stroke="#350B00" stroke-width="0.791619" stroke-linecap="round" stroke-linejoin="round"/>
<path d="M158.805 31.8047L158.547 31.9551" stroke="#350B00" stroke-width="0.791619" stroke-linecap="round" stroke-linejoin="round"/>
<path d="M159.151 31.6074L158.992 31.6971" stroke="#350B00" stroke-width="0.791619" stroke-linecap="round" stroke-linejoin="round"/>
<path d="M160.267 30.9609L159.93 31.1562" stroke="#350B00" stroke-width="0.791619" stroke-linecap="round" stroke-linejoin="round"/>
<path d="M166.679 27.2607C166.679 27.2607 166.676 27.2634 166.671 27.266L166.645 27.2819C166.645 27.2819 166.637 27.2871 166.629 27.2898C166.629 27.2898 166.679 27.2607 166.581 27.3162L166.576 27.3214L166.539 27.3399" stroke="#350B00" stroke-width="0.791619" stroke-linecap="round" stroke-linejoin="round"/>
<path d="M159.93 31.1554C159.975 31.1291 160.017 31.1053 160.059 31.0789C160.13 31.0367 160.199 30.9998 160.267 30.9602C159.808 31.2267 160.085 31.0605 160.874 30.6092C160.977 30.5512 161.078 30.4931 161.178 30.4351C160.977 30.5512 161.141 30.4562 161.51 30.2424L163.13 29.3083C163.89 28.8703 164.08 28.7595 163.547 29.0656C164.54 28.4956 164.798 28.3452 164.165 28.7093C165.207 28.1104 165.365 28.018 164.598 28.4613C164.714 28.3953 164.825 28.3294 164.927 28.2713C165.896 27.7198 165.954 27.6802 165.136 28.1499C165.162 28.1341 165.189 28.1209 165.212 28.1077C166.128 27.5879 166.173 27.5536 165.413 27.9916C165.447 27.9705 165.479 27.952 165.511 27.9336C166.321 27.4639 166.36 27.4428 165.695 27.8254C166.453 27.39 166.503 27.361 166.007 27.6459L166.537 27.3398" stroke="#350B00" stroke-width="0.791619" stroke-linecap="round" stroke-linejoin="round"/>
<path d="M159.93 31.1562L159.672 31.304" stroke="#350B00" stroke-width="0.791619" stroke-linecap="round" stroke-linejoin="round"/>
<path d="M158.078 32.2246C158.104 32.2088 158.131 32.193 158.16 32.1771C157.513 32.5518 157.574 32.5149 158.455 32.0083C158.466 32.0003 158.476 31.9951 158.487 31.9898C158.508 31.9766 158.526 31.966 158.547 31.9555C158.598 31.9265 158.645 31.8974 158.693 31.8684C158.73 31.8473 158.769 31.8262 158.806 31.8051C157.97 32.288 158.025 32.2563 158.991 31.6969C159.041 31.6679 159.094 31.6362 159.149 31.6072C158.408 32.0346 158.595 31.9265 159.672 31.3037" stroke="#350B00" stroke-width="0.791619" stroke-linecap="round" stroke-linejoin="round"/>
<path d="M158.08 32.2246L157.992 32.2751" stroke="#350B00" stroke-width="0.791619" stroke-linecap="round" stroke-linejoin="round"/>
<path d="M157.234 32.7124C157.234 32.7124 157.245 32.7045 157.25 32.7019C157.261 32.694 157.274 32.6887 157.287 32.6808C157.298 32.6729 157.311 32.6649 157.327 32.6597C157.332 32.6544 157.337 32.6518 157.343 32.6491C157.358 32.6386 157.377 32.628 157.401 32.6148C157.19 32.7362 157.195 32.7362 157.493 32.562C157.538 32.5356 157.583 32.5093 157.628 32.4829C157.68 32.4512 157.736 32.4222 157.789 32.3905C157.857 32.3509 157.923 32.314 157.989 32.2744" stroke="#350B00" stroke-width="0.791619" stroke-linecap="round" stroke-linejoin="round"/>
<path d="M157.236 32.7129C157.236 32.7129 157.227 32.7156 157.222 32.7184L157.211 32.7267" stroke="#350B00" stroke-width="0.791619" stroke-linecap="round" stroke-linejoin="round"/>
<path d="M140.953 49.6478C140.536 49.4103 140.52 48.5369 141.111 47.7505C146.207 41.2751 147.616 38.2669 150.959 36.3327L157.173 32.7467C157.173 32.7467 157.189 32.7361 157.21 32.7256" stroke="#350B00" stroke-width="0.791619" stroke-linecap="round" stroke-linejoin="round"/>
<path d="M164.966 36.1191C164.966 36.1191 164.946 36.1305 164.938 36.1362" stroke="#350B00" stroke-width="0.791619" stroke-linecap="round" stroke-linejoin="round"/>
<path d="M165.009 36.0928C165.009 36.0928 165.006 36.0958 165 36.0958H165.009V36.0928Z" stroke="#350B00" stroke-width="0.791619" stroke-linecap="round" stroke-linejoin="round"/>
<path d="M164.984 36.1069L165.001 36.0957H165.007L164.984 36.1069Z" stroke="#350B00" stroke-width="0.791619" stroke-linecap="round" stroke-linejoin="round"/>
<path d="M164.938 36.1357L164.957 36.1221" stroke="#350B00" stroke-width="0.791619" stroke-linecap="round" stroke-linejoin="round"/>
<path d="M164.939 36.1348C164.939 36.1348 164.919 36.1433 164.91 36.149" stroke="#350B00" stroke-width="0.791619" stroke-linecap="round" stroke-linejoin="round"/>
<path d="M164.955 36.1221C164.939 36.1326 164.923 36.1405 164.91 36.1485C164.878 36.1669 164.842 36.188 164.794 36.2171L164.781 36.2223C164.76 36.2355 164.741 36.2461 164.725 36.2566L141.66 49.5717C141.365 49.7432 141.125 49.7511 140.953 49.6482" stroke="#350B00" stroke-width="0.791619" stroke-linecap="round" stroke-linejoin="round"/>
<path d="M164.957 36.1222L164.966 36.1191" stroke="#350B00" stroke-width="0.791619" stroke-linecap="round" stroke-linejoin="round"/>
<path d="M174.733 22.6064V30.4778L165.01 36.093C165.01 36.093 165.007 36.093 165.007 36.0956C164.999 36.0956 164.991 36.1036 164.986 36.1062C164.981 36.1088 164.978 36.1062 164.978 36.1115C164.975 36.1141 164.97 36.1167 164.965 36.1194" stroke="#350B00" stroke-width="0.791619" stroke-linecap="round" stroke-linejoin="round"/>
<path d="M174.733 22.6064L169.012 19.3027L145.24 33.032C143.813 33.8553 142.419 35.1351 141.224 36.7184L135.395 44.4472C134.801 45.2362 134.817 46.107 135.234 46.3497L140.955 49.6508" stroke="#350B00" stroke-width="0.791619" stroke-linecap="round" stroke-linejoin="round"/>
<path d="M174.738 22.6064L167.922 34.4121" stroke="#350B00" stroke-width="0.791619" stroke-linecap="round" stroke-linejoin="round"/>
<path d="M167.41 34.7078L160.594 30.7734" stroke="#350B00" stroke-width="0.791619" stroke-linecap="round" stroke-linejoin="round"/>
<path d="M160.024 31.1035L153.211 42.9066" stroke="#350B00" stroke-width="0.791619" stroke-linecap="round" stroke-linejoin="round"/>
<path d="M160.562 38.6602L167.378 26.8545" stroke="#350B00" stroke-width="0.791619" stroke-linecap="round" stroke-linejoin="round"/>
<path d="M167.953 26.5254L174.769 30.4597" stroke="#350B00" stroke-width="0.791619" stroke-linecap="round" stroke-linejoin="round"/>
<path d="M160.054 38.9529L153.238 35.0186" stroke="#350B00" stroke-width="0.791619" stroke-linecap="round" stroke-linejoin="round"/>
<path d="M152.049 44.6475V130.475L141.711 136.444V50.6189L152.049 44.6475Z" fill="white"/>
<path d="M152.048 44.6475L141.71 50.619L131.371 44.6475L141.71 38.6787L152.048 44.6475Z" fill="white"/>
<path d="M141.71 50.6189V136.444L131.371 130.475V44.6475L141.71 50.6189Z" fill="#EE8167"/>
<path d="M131.371 44.6475L141.71 38.6787L152.048 44.6475L141.71 50.619L131.371 44.6475Z" stroke="#350B00" stroke-width="0.791619" stroke-linecap="round" stroke-linejoin="round"/>
<path d="M141.711 50.6191V136.444" stroke="#350B00" stroke-width="0.791619" stroke-linecap="round" stroke-linejoin="round"/>
<path d="M131.371 44.6475V130.475L141.71 136.444L152.048 130.475V44.6475" stroke="#350B00" stroke-width="0.791619" stroke-linecap="round" stroke-linejoin="round"/>
<path d="M141.707 55.0918L152.046 61.0606" stroke="#350B00" stroke-width="0.791619" stroke-linecap="round" stroke-linejoin="round"/>
<path d="M141.707 67.0321L152.046 49.123" stroke="#350B00" stroke-width="0.791619" stroke-linecap="round" stroke-linejoin="round"/>
<path d="M141.707 66.5254L152.046 72.4942" stroke="#350B00" stroke-width="0.791619" stroke-linecap="round" stroke-linejoin="round"/>
<path d="M141.707 78.4657L152.046 60.5566" stroke="#350B00" stroke-width="0.791619" stroke-linecap="round" stroke-linejoin="round"/>
<path d="M141.707 77.959L152.046 83.9278" stroke="#350B00" stroke-width="0.791619" stroke-linecap="round" stroke-linejoin="round"/>
<path d="M141.707 89.8993L152.046 71.9902" stroke="#350B00" stroke-width="0.791619" stroke-linecap="round" stroke-linejoin="round"/>
<path d="M141.707 89.3926L152.046 95.3614" stroke="#350B00" stroke-width="0.791619" stroke-linecap="round" stroke-linejoin="round"/>
<path d="M141.707 101.333L152.046 83.4238" stroke="#350B00" stroke-width="0.791619" stroke-linecap="round" stroke-linejoin="round"/>
<path d="M141.707 100.826L152.046 106.795" stroke="#350B00" stroke-width="0.791619" stroke-linecap="round" stroke-linejoin="round"/>
<path d="M141.707 112.766L152.046 94.8574" stroke="#350B00" stroke-width="0.791619" stroke-linecap="round" stroke-linejoin="round"/>
<path d="M141.707 112.26L152.046 118.229" stroke="#350B00" stroke-width="0.791619" stroke-linecap="round" stroke-linejoin="round"/>
<path d="M141.707 124.2L152.046 106.291" stroke="#350B00" stroke-width="0.791619" stroke-linecap="round" stroke-linejoin="round"/>
<path d="M141.707 123.693L152.046 129.662" stroke="#350B00" stroke-width="0.791619" stroke-linecap="round" stroke-linejoin="round"/>
<path d="M141.707 135.634L152.046 117.725" stroke="#350B00" stroke-width="0.791619" stroke-linecap="round" stroke-linejoin="round"/>
<path d="M159.32 25.189V46.8081C159.32 49.2173 157.631 52.1489 155.541 53.3522L141.92 61.2182C140.873 61.8225 139.928 61.8753 139.25 61.4821L139.197 61.4504C138.474 61.0018 138.065 60.0361 138.152 58.6824L138.886 47.6789C139.464 39.008 145.491 29.1022 152.734 24.9198L155.795 23.1519C156.768 22.5898 157.652 22.5371 158.288 22.9065C158.924 23.2759 159.32 24.0649 159.32 25.189ZM155.156 39.0291V29.4928C155.156 28.8489 154.705 28.5877 154.148 28.9122L152.734 29.7276C147.662 32.654 143.438 39.5938 143.034 45.6655L143.015 45.9452C142.971 46.6524 143.435 46.9638 144.026 46.6234L154.148 40.7786C154.705 40.4567 155.156 39.673 155.156 39.0291Z" fill="#EE8167"/>
<path d="M143.091 14.1332L158.29 22.907C157.654 22.5376 156.77 22.5903 155.797 23.1524L152.736 24.9203C145.492 29.1027 139.465 39.0085 138.888 47.6794L138.154 58.6829C138.067 60.0365 138.476 61.0023 139.199 61.4509L124.053 52.7088C123.301 52.2734 122.865 51.2944 122.958 49.9065L123.689 38.9056C124.266 30.2347 130.296 20.3263 137.539 16.1439L140.6 14.3786C141.574 13.8166 142.455 13.7611 143.091 14.1332ZM143.756 28.5723L134.172 22.9677C130.182 27.3269 127.259 33.4725 126.858 39.0006L136.117 44.4153C137.162 38.8185 139.977 33.0925 143.756 28.5723Z" fill="white"/>
<path d="M155.159 29.4935V39.0299C155.159 39.6737 154.708 40.4574 154.151 40.7793L144.029 46.6241C143.438 46.9645 142.974 46.6532 143.019 45.946L143.037 45.6663C143.441 39.5946 147.665 32.6547 152.737 29.7283L154.151 28.913C154.708 28.5884 155.159 28.8496 155.159 29.4935Z" fill="#350B00"/>
<path d="M134.174 22.9678L143.758 28.5724C139.979 33.0926 137.164 38.8186 136.119 44.4154L126.859 39.0007C127.26 33.4726 130.184 27.327 134.174 22.9678Z" fill="#D7DCE0"/>
<path d="M139.197 61.4504C138.474 61.0018 138.065 60.0361 138.152 58.6824L138.886 47.6789C139.464 39.008 145.491 29.1022 152.734 24.9198L155.795 23.1519C156.768 22.5898 157.652 22.5371 158.288 22.9065C158.924 23.2759 159.32 24.0649 159.32 25.189V46.8081C159.32 49.2173 157.631 52.1489 155.541 53.3522L141.92 61.2182C140.873 61.8225 139.928 61.8753 139.25 61.4821" stroke="#350B00" stroke-width="0.791619" stroke-linecap="round" stroke-linejoin="round"/>
<path d="M155.159 39.0299V29.4935C155.159 28.8496 154.708 28.5884 154.151 28.913L152.737 29.7283C147.665 32.6547 143.441 39.5946 143.037 45.6663L143.019 45.946C142.974 46.6532 143.438 46.9645 144.029 46.6241L154.151 40.7793C154.708 40.4574 155.159 39.6737 155.159 39.0299Z" stroke="#350B00" stroke-width="0.791619" stroke-linecap="round" stroke-linejoin="round"/>
<path d="M139.252 61.4826L124.053 52.7088C123.301 52.2734 122.865 51.2944 122.958 49.9065L123.689 38.9056C124.266 30.2347 130.296 20.3263 137.539 16.1439L140.6 14.3786C141.574 13.8166 142.455 13.7611 143.091 14.1332L158.29 22.907" stroke="#350B00" stroke-width="0.791619" stroke-linecap="round" stroke-linejoin="round"/>
<path d="M126.859 39.0007L136.119 44.4154C137.164 38.8186 139.979 33.0926 143.758 28.5724L134.174 22.9678C130.184 27.327 127.26 33.4726 126.859 39.0007Z" stroke="#350B00" stroke-width="0.791619" stroke-linecap="round" stroke-linejoin="round"/>
<path d="M79.96 85.1969C79.6644 85.3684 79.4243 85.3737 79.2528 85.2734C78.8385 85.0307 78.8201 84.1625 79.4111 83.3762C79.4111 83.3762 85.6834 75.0826 85.913 74.8161C86.9447 73.6129 88.0899 72.6339 89.2589 71.9584L133.6 46.3574V54.2288L79.96 85.1969Z" fill="white"/>
<path d="M133.601 46.3545L126.785 58.1602" stroke="#350B00" stroke-width="0.791619" stroke-linecap="round" stroke-linejoin="round"/>
<path d="M126.27 58.4558L119.457 54.5215" stroke="#350B00" stroke-width="0.791619" stroke-linecap="round" stroke-linejoin="round"/>
<path d="M118.884 54.8535L112.07 66.6539" stroke="#350B00" stroke-width="0.791619" stroke-linecap="round" stroke-linejoin="round"/>
<path d="M119.426 62.4085L126.242 50.6055" stroke="#350B00" stroke-width="0.791619" stroke-linecap="round" stroke-linejoin="round"/>
<path d="M126.816 50.2734L133.632 54.2078" stroke="#350B00" stroke-width="0.791619" stroke-linecap="round" stroke-linejoin="round"/>
<path d="M118.913 62.7039L112.098 58.7695" stroke="#350B00" stroke-width="0.791619" stroke-linecap="round" stroke-linejoin="round"/>
<path d="M111.558 66.95L104.742 63.0156" stroke="#350B00" stroke-width="0.791619" stroke-linecap="round" stroke-linejoin="round"/>
<path d="M104.169 63.3477L97.3555 75.1507" stroke="#350B00" stroke-width="0.791619" stroke-linecap="round" stroke-linejoin="round"/>
<path d="M104.711 70.9026L111.524 59.0996" stroke="#350B00" stroke-width="0.791619" stroke-linecap="round" stroke-linejoin="round"/>
<path d="M96.8432 75.4461L90.0273 71.5117" stroke="#350B00" stroke-width="0.791619" stroke-linecap="round" stroke-linejoin="round"/>
<path d="M89.9961 79.3994L96.8119 67.5938" stroke="#350B00" stroke-width="0.791619" stroke-linecap="round" stroke-linejoin="round"/>
<path d="M97.3828 67.2637L104.199 71.198" stroke="#350B00" stroke-width="0.791619" stroke-linecap="round" stroke-linejoin="round"/>
<path d="M89.4565 71.8447L82.6406 83.6478" stroke="#350B00" stroke-width="0.791619" stroke-linecap="round" stroke-linejoin="round"/>
<path d="M84.4258 76.7734L89.4869 79.6945" stroke="#350B00" stroke-width="0.791619" stroke-linecap="round" stroke-linejoin="round"/>
<path d="M79.41 83.3761C78.819 84.1625 78.8348 85.0359 79.2517 85.2734L73.5309 81.975C73.114 81.7322 73.0982 80.8614 73.6919 80.0725L79.5209 72.3436C80.7162 70.7604 82.1095 69.4806 83.537 68.6573L127.878 43.0537L133.599 46.3574L89.2578 71.9584C88.0888 72.6339 86.9436 73.6128 85.9119 74.8161C85.6823 75.0826 85.4606 75.3597 85.2416 75.6447L79.41 83.3761Z" fill="white"/>
<path d="M133.6 46.3574V54.2288L79.96 85.1969C79.6644 85.3684 79.4243 85.3737 79.2528 85.2734C78.8385 85.0307 78.8201 84.1625 79.4111 83.3762C79.4111 83.3762 85.6834 75.0826 85.913 74.8161C86.9447 73.6129 88.0899 72.6339 89.2589 71.9584L133.6 46.3574Z" stroke="#350B00" stroke-width="0.791619" stroke-linecap="round" stroke-linejoin="round"/>
<path d="M133.599 46.3574L127.878 43.0537L83.537 68.6573C82.1095 69.4806 80.7162 70.7604 79.5209 72.3436L73.6919 80.0725C73.0982 80.8614 73.114 81.7322 73.5309 81.975L79.2517 85.276" stroke="#350B00" stroke-width="0.791619" stroke-linecap="round" stroke-linejoin="round"/>
<path d="M110.552 126.451V144.661C110.552 145.313 110.328 145.764 109.979 145.943L107.81 147.009C108.153 146.825 108.372 146.374 108.372 145.73V127.52C108.372 126.367 107.67 125.026 106.805 124.527L89.1518 114.337C88.7929 114.131 88.4631 114.099 88.1992 114.215L90.334 113.168C90.6057 113.025 90.9514 113.049 91.3288 113.265L108.982 123.456C109.847 123.955 110.549 125.295 110.549 126.448L110.552 126.451Z" fill="#350B00"/>
<path d="M108.375 127.523V145.733C108.375 146.376 108.156 146.825 107.813 147.012L107.805 147.018C107.533 147.158 107.188 147.136 106.81 146.917L89.1572 136.727C88.2917 136.228 87.5898 134.887 87.5898 133.734V115.524C87.5898 114.875 87.8115 114.424 88.1624 114.242L88.2047 114.221C88.4685 114.105 88.7984 114.134 89.1572 114.342L106.81 124.533C107.676 125.032 108.378 126.372 108.378 127.525L108.375 127.523Z" fill="white"/>
<path d="M88.2031 114.215C88.467 114.099 88.7968 114.128 89.1557 114.336L106.809 124.527C107.674 125.026 108.376 126.366 108.376 127.52V145.729C108.376 146.373 108.157 146.822 107.814 147.009" stroke="#350B00" stroke-width="0.791619" stroke-linecap="round" stroke-linejoin="round"/>
<path d="M107.805 147.015C107.533 147.155 107.188 147.134 106.81 146.915L89.1572 136.724C88.2917 136.225 87.5898 134.885 87.5898 133.732V115.522C87.5898 114.873 87.8115 114.421 88.1624 114.239" stroke="#350B00" stroke-width="0.791619" stroke-linecap="round" stroke-linejoin="round"/>
<path d="M88.1641 114.236L90.341 113.168C90.6128 113.025 90.9585 113.049 91.3358 113.265L108.989 123.456C109.854 123.955 110.556 125.295 110.556 126.448V144.658C110.556 145.31 110.332 145.761 109.984 145.941L107.807 147.012" stroke="#350B00" stroke-width="0.791619" stroke-linecap="round" stroke-linejoin="round"/>
<path d="M92.3281 115.099C94.2333 113.078 95.2993 111.772 98.5925 107.99C98.7218 107.919 98.9276 108.038 99.0595 108.26C102.142 115.616 105.324 122.601 105.324 122.601" stroke="#350B00" stroke-width="0.791619" stroke-linecap="round" stroke-linejoin="round"/>
<path d="M130.536 127.768C132.278 127.768 133.692 129.179 133.692 130.921C133.692 132.662 132.28 134.077 130.536 134.077C128.792 134.077 127.383 132.665 127.383 130.921C127.383 129.177 128.795 127.768 130.536 127.768Z" fill="white"/>
<path d="M133.688 130.921C133.688 129.179 132.276 127.768 130.532 127.768C128.788 127.768 127.379 129.179 127.379 130.921C127.379 132.662 128.791 134.077 130.532 134.077C132.274 134.077 133.688 132.665 133.688 130.921Z" stroke="#350B00" stroke-width="0.791619" stroke-linecap="round" stroke-linejoin="round"/>
</g>
<path d="M200.997 132.698C200.997 133.599 200.452 134.459 199.342 135.097L185.559 143.056C183.103 144.473 178.817 144.296 175.988 142.662L159.899 133.375C158.35 132.481 157.555 131.336 157.555 130.248C157.555 129.35 158.1 128.49 159.21 127.85L169.46 121.934V128.85C169.46 130.139 170.362 131.704 171.478 132.348L176.945 135.502C177.537 135.843 178.067 135.874 178.452 135.652L187.338 130.525C187.793 130.261 188.041 129.647 187.939 128.779L187.053 122.877L192.967 126.292V126.459C192.967 127.604 193.662 128.132 194.524 127.634L194.908 127.41L198.653 129.576C200.202 130.47 200.997 131.615 200.997 132.7V132.698Z" fill="#DAE0E5"/>
<path d="M212.447 100.988V106.211C212.447 107.357 211.749 108.687 210.891 109.183L194.526 118.632C193.664 119.13 192.969 118.601 192.969 117.457V112.234C192.969 111.09 193.664 109.76 194.526 109.262L210.891 99.8128C211.749 99.3188 212.447 99.8433 212.447 100.988ZM209.521 105.381C209.521 104.95 209.326 104.692 209.047 104.692C208.954 104.692 208.846 104.722 208.738 104.785L207.045 105.763C206.612 106.013 206.262 106.686 206.262 107.264C206.262 107.697 206.457 107.953 206.734 107.953C206.83 107.953 206.935 107.924 207.045 107.859L208.738 106.879C209.171 106.629 209.521 105.96 209.521 105.381ZM203.058 110.006C203.634 109.286 203.835 108.323 203.5 107.847C203.168 107.373 202.43 107.571 201.855 108.29C201.277 109.01 201.078 109.974 201.412 110.447C201.743 110.923 202.481 110.724 203.058 110.006ZM199.155 111.366C199.155 110.935 198.96 110.677 198.681 110.677C198.586 110.677 198.478 110.707 198.37 110.773L196.679 111.748C196.246 111.998 195.894 112.669 195.894 113.249C195.894 113.68 196.089 113.938 196.366 113.938C196.463 113.938 196.569 113.907 196.679 113.842L198.37 112.866C198.803 112.616 199.155 111.944 199.155 111.366Z" fill="#EE8167"/>
<path d="M209.047 104.691C209.325 104.691 209.521 104.95 209.521 105.381C209.521 105.958 209.171 106.629 208.738 106.879L207.044 107.859C206.935 107.924 206.829 107.952 206.733 107.952C206.457 107.952 206.262 107.696 206.262 107.263C206.262 106.686 206.611 106.013 207.044 105.763L208.738 104.785C208.846 104.722 208.953 104.691 209.047 104.691Z" fill="#350B00"/>
<path d="M203.496 107.845C203.831 108.32 203.632 109.284 203.055 110.004C202.477 110.721 201.74 110.919 201.408 110.445C201.075 109.971 201.272 109.008 201.851 108.288C202.427 107.568 203.165 107.373 203.496 107.845Z" fill="#350B00"/>
<path d="M200.997 123.698V129.453C200.997 130.354 200.452 131.214 199.342 131.852L185.559 139.811C183.103 141.228 178.817 141.051 175.988 139.417L159.899 130.13C158.35 129.236 157.555 128.091 157.555 127.005V121.248C157.555 122.336 158.35 123.478 159.899 124.375L175.986 133.661C178.817 135.296 183.101 135.475 185.557 134.056L199.34 126.097C200.45 125.458 200.995 124.598 200.995 123.698H200.997Z" fill="#350B00"/>
<path d="M200.997 123.698C200.997 124.599 200.452 125.459 199.342 126.097L185.559 134.056C183.103 135.473 178.817 135.296 175.988 133.662L159.899 124.375C158.35 123.481 157.555 122.336 157.555 121.248C157.555 120.35 158.1 119.49 159.21 118.85L169.46 112.934V119.85C169.46 121.139 170.362 122.704 171.478 123.348L176.945 126.502C177.537 126.843 178.067 126.874 178.452 126.652L187.338 121.525C187.793 121.261 188.041 120.647 187.939 119.779L187.053 113.877L192.967 117.292V117.459C192.967 118.604 193.662 119.132 194.524 118.634L194.908 118.41L198.653 120.576C200.202 121.47 200.997 122.615 200.997 123.7V123.698Z" fill="#EE8167"/>
<path d="M200.294 105.928L196.881 107.9L194.154 106.322H194.152L192.829 105.56C192.756 105.517 192.693 105.456 192.638 105.379C192.306 104.903 192.502 103.942 193.079 103.222C193.563 102.62 194.158 102.384 194.537 102.602L200.296 105.928H200.294Z" fill="#C2C7CC"/>
<path d="M198.678 110.677C198.956 110.677 199.152 110.935 199.152 111.366C199.152 111.943 198.8 112.616 198.367 112.866L196.675 113.842C196.566 113.907 196.46 113.938 196.362 113.938C196.086 113.938 195.891 113.679 195.891 113.248C195.891 112.671 196.242 111.998 196.675 111.748L198.367 110.772C198.475 110.707 198.582 110.677 198.678 110.677Z" fill="#350B00"/>
<path d="M197.17 101.585C197.325 102.555 197.256 103.389 197.012 104.033L194.536 102.602C194.16 102.384 193.562 102.62 193.078 103.222C192.503 103.942 192.308 104.903 192.637 105.379C192.69 105.456 192.753 105.517 192.828 105.56L194.152 106.322L188.105 109.813C188.994 109.246 189.427 107.947 189.152 106.214L189.024 105.418C188.577 102.596 186.412 99.6907 184.194 98.9263L167.04 93.0449C166.231 92.7664 165.527 92.8111 164.98 93.1181L172.976 88.5033C173.525 88.1861 174.239 88.1353 175.058 88.4158L192.21 94.3013C194.428 95.0636 196.595 97.9687 197.044 100.793L197.168 101.587L197.17 101.585Z" fill="#EE8167"/>
<path d="M196.881 107.9L194.523 109.26C193.661 109.758 192.966 111.088 192.966 112.232V117.288L187.052 113.873L186.48 110.085C187.078 110.189 187.605 110.106 188.032 109.858L194.153 106.322H194.155L196.881 107.9Z" fill="white"/>
<path d="M169.46 104.287L168.795 104.059C166.577 103.297 164.414 100.392 163.965 97.568L163.836 96.7731C163.552 94.9902 164.021 93.6688 164.959 93.128L164.981 93.1158C165.528 92.8088 166.231 92.7641 167.04 93.0426L184.193 98.926C186.411 99.6904 188.578 102.596 189.023 105.417L189.151 106.214C189.425 107.946 188.992 109.245 188.104 109.813L188.029 109.857C187.602 110.105 187.075 110.191 186.478 110.083C186.307 110.052 186.13 110.008 185.947 109.945L169.458 104.285L169.46 104.287ZM168.403 100.158C169.155 100.416 169.641 99.851 169.486 98.8976C169.336 97.94 168.604 96.9601 167.854 96.704C167.101 96.4458 166.616 97.011 166.77 97.9644C166.923 98.9219 167.652 99.8998 168.403 100.158Z" fill="white"/>
<path d="M187.937 119.777C188.037 120.643 187.789 121.259 187.336 121.523L178.492 126.626C178.921 126.351 179.151 125.746 179.051 124.906L176.301 106.636L185.949 109.947C186.132 110.008 186.309 110.053 186.48 110.086L187.94 119.779L187.937 119.777Z" fill="#350B00"/>
<path d="M179.055 124.907C179.152 125.745 178.922 126.351 178.495 126.627L178.453 126.652C178.071 126.875 177.54 126.845 176.946 126.501L171.48 123.348C170.366 122.704 169.461 121.138 169.461 119.849V104.289L176.302 106.637L179.052 124.907H179.055Z" fill="white"/>
<path d="M169.487 98.8996C169.641 99.8531 169.156 100.418 168.403 100.16C167.653 99.9019 166.921 98.922 166.771 97.9665C166.616 97.013 167.102 96.4479 167.854 96.7061C168.605 96.9622 169.338 97.9441 169.487 98.8996Z" fill="#350B00"/>
<path d="M169.46 112.932L159.21 118.848C158.1 119.488 157.555 120.348 157.555 121.246C157.555 122.334 158.35 123.477 159.899 124.373L175.986 133.66C178.817 135.294 183.101 135.473 185.557 134.054L199.34 126.095C200.45 125.457 200.995 124.597 200.995 123.696C200.995 122.611 200.2 121.468 198.651 120.572L194.906 118.408" stroke="#350B00" stroke-width="0.60989" stroke-linecap="round" stroke-linejoin="round"/>
<path d="M192.967 117.29L187.051 113.875" stroke="#350B00" stroke-width="0.60989" stroke-linecap="round" stroke-linejoin="round"/>
<path d="M157.555 121.248V127.005C157.555 128.091 158.35 129.234 159.899 130.13L175.986 139.419C178.817 141.051 183.101 141.23 185.557 139.813L199.34 131.854C200.45 131.216 200.995 130.356 200.995 129.455V123.7" stroke="#350B00" stroke-width="0.60989" stroke-linecap="round" stroke-linejoin="round"/>
<path d="M178.449 126.65C178.067 126.873 177.536 126.843 176.942 126.499L171.476 123.346C170.362 122.702 169.457 121.136 169.457 119.848V104.285" stroke="#350B00" stroke-width="0.60989" stroke-linecap="round" stroke-linejoin="round"/>
<path d="M176.301 106.636L179.051 124.906C179.149 125.744 178.919 126.349 178.492 126.626" stroke="#350B00" stroke-width="0.60989" stroke-linecap="round" stroke-linejoin="round"/>
<path d="M178.449 126.65L187.335 121.522C187.791 121.258 188.039 120.644 187.937 119.776L186.477 110.085" stroke="#350B00" stroke-width="0.60989" stroke-linecap="round" stroke-linejoin="round"/>
<path d="M188.105 109.812C188.994 109.245 189.427 107.946 189.152 106.214L189.024 105.417C188.577 102.595 186.412 99.6903 184.194 98.9259L167.04 93.0446C166.231 92.766 165.527 92.8108 164.98 93.1177" stroke="#350B00" stroke-width="0.60989" stroke-linecap="round" stroke-linejoin="round"/>
<path d="M164.959 93.1309C164.02 93.6716 163.552 94.9931 163.837 96.776L163.965 97.5709C164.416 100.395 166.577 103.3 168.795 104.062L185.947 109.948C186.13 110.009 186.307 110.055 186.478 110.086C187.076 110.194 187.602 110.108 188.029 109.86" stroke="#350B00" stroke-width="0.60989" stroke-linecap="round" stroke-linejoin="round"/>
<path d="M166.771 97.9646C166.616 97.0111 167.102 96.4459 167.854 96.7041C168.605 96.9603 169.338 97.9422 169.487 98.8977C169.641 99.8511 169.156 100.416 168.403 100.158C167.653 99.8999 166.921 98.92 166.771 97.9646Z" stroke="#350B00" stroke-width="0.60989" stroke-linecap="round" stroke-linejoin="round"/>
<path d="M188.031 109.86L194.153 106.322" stroke="#350B00" stroke-width="0.60989" stroke-linecap="round" stroke-linejoin="round"/>
<path d="M197.011 104.035C197.255 103.391 197.322 102.555 197.169 101.588L197.045 100.793C196.594 97.9688 194.429 95.0637 192.211 94.3014L175.055 88.4139C174.235 88.1333 173.522 88.1842 172.973 88.5013L164.957 93.1304" stroke="#350B00" stroke-width="0.60989" stroke-linecap="round" stroke-linejoin="round"/>
<path d="M201.412 110.445C201.743 110.921 202.481 110.721 203.058 110.004C203.634 109.284 203.835 108.32 203.499 107.845C203.168 107.371 202.43 107.568 201.855 108.288C201.277 109.008 201.078 109.971 201.412 110.445Z" stroke="#350B00" stroke-width="0.60989" stroke-linecap="round" stroke-linejoin="round"/>
<path d="M200.295 105.928L194.535 102.602C194.159 102.384 193.561 102.62 193.078 103.222C192.502 103.942 192.307 104.903 192.636 105.379C192.689 105.456 192.752 105.517 192.828 105.56L194.151 106.322H194.153L196.879 107.9" stroke="#350B00" stroke-width="0.60989" stroke-linecap="round" stroke-linejoin="round"/>
<path d="M192.969 117.29V117.457C192.969 118.601 193.664 119.13 194.526 118.632L210.891 109.183C211.749 108.687 212.447 107.357 212.447 106.211V100.988C212.447 99.8433 211.749 99.3188 210.891 99.8128L194.526 109.262C193.664 109.76 192.969 111.09 192.969 112.234V117.29Z" stroke="#350B00" stroke-width="0.60989" stroke-linecap="round" stroke-linejoin="round"/>
<path d="M207.041 107.857L208.734 106.877C209.167 106.627 209.517 105.958 209.517 105.379C209.517 104.948 209.321 104.689 209.043 104.689C208.949 104.689 208.842 104.72 208.734 104.783L207.041 105.761C206.607 106.011 206.258 106.684 206.258 107.261C206.258 107.694 206.453 107.95 206.729 107.95C206.825 107.95 206.931 107.922 207.041 107.857Z" stroke="#350B00" stroke-width="0.60989" stroke-linecap="round" stroke-linejoin="round"/>
<path d="M196.675 113.84L198.367 112.864C198.8 112.614 199.152 111.941 199.152 111.364C199.152 110.933 198.956 110.675 198.678 110.675C198.582 110.675 198.475 110.705 198.367 110.77L196.675 111.746C196.242 111.996 195.891 112.667 195.891 113.247C195.891 113.677 196.086 113.936 196.362 113.936C196.46 113.936 196.566 113.905 196.675 113.84Z" stroke="#350B00" stroke-width="0.60989" stroke-linecap="round" stroke-linejoin="round"/>
<defs>
<clipPath id="clip0_4379_2506">
<rect width="102.33" height="134" fill="white" transform="translate(72.8359 13.5)"/>
</clipPath>
</defs>
</svg>
