<svg width="312" height="161" viewBox="0 0 312 161" fill="none" xmlns="http://www.w3.org/2000/svg">
<path d="M167.518 122.434C167.518 122.99 167.182 123.521 166.496 123.915L157.983 128.831C156.467 129.706 153.82 129.597 152.072 128.587L142.135 122.852C141.178 122.299 140.688 121.592 140.688 120.921C140.688 120.366 141.024 119.834 141.71 119.439L148.04 115.785V120.057C148.04 120.853 148.598 121.82 149.287 122.218L152.663 124.165C153.029 124.376 153.357 124.395 153.594 124.258L159.082 121.091C159.363 120.928 159.516 120.549 159.454 120.013L158.906 116.368L162.559 118.477V118.58C162.559 119.287 162.988 119.613 163.521 119.306L163.758 119.168L166.071 120.505C167.027 121.057 167.518 121.764 167.518 122.435V122.434Z" fill="#DAE0E5"/>
<g clip-path="url(#clip0_4502_7077)">
<path d="M122.573 91.2809L123.674 91.916C123.544 91.8419 123.362 91.8525 123.163 91.9668L120.234 93.6603C119.836 93.8889 119.514 94.4457 119.514 94.905V96.1455C119.514 96.7446 119.624 97.2759 119.836 97.6993L120.517 99.0562C120.545 99.1113 120.583 99.1536 120.627 99.1811L119.535 98.5503C119.486 98.5228 119.446 98.4783 119.416 98.4212L118.737 97.0642C118.523 96.6409 118.413 96.1095 118.413 95.5105V94.2699C118.413 93.8106 118.735 93.2538 119.133 93.0252L122.065 91.3317C122.264 91.2174 122.444 91.2068 122.573 91.2809Z" fill="#350B00"/>
<path d="M122.266 94.6785C122.266 95.0426 122.012 95.4829 121.696 95.6649C121.381 95.847 121.127 95.7009 121.127 95.3368C121.127 94.9727 121.381 94.5303 121.696 94.3482C122.012 94.1662 122.266 94.3144 122.266 94.6785Z" fill="#350B00"/>
<path d="M121.109 99.1077L121.043 99.1458C120.886 99.2368 120.742 99.2474 120.636 99.186L120.63 99.1818C120.586 99.1542 120.548 99.1119 120.52 99.0569L119.838 97.6999C119.627 97.2766 119.517 96.7452 119.517 96.1461V94.9056C119.517 94.4463 119.838 93.8895 120.236 93.6609L123.166 91.9674C123.365 91.8531 123.547 91.8425 123.676 91.9187C123.805 91.9949 123.886 92.1558 123.886 92.3823V93.6228C123.886 94.224 123.776 94.8802 123.562 95.5513L122.882 97.6936C122.789 97.9836 122.584 98.2546 122.36 98.3858L121.109 99.1077ZM121.701 95.6656C122.017 95.4836 122.271 95.0432 122.271 94.6791C122.271 94.315 122.017 94.1668 121.701 94.3489C121.386 94.531 121.132 94.9734 121.132 95.3375C121.132 95.7016 121.386 95.8477 121.701 95.6656Z" fill="white"/>
<path d="M120.636 99.186C120.742 99.2474 120.886 99.2368 121.043 99.1458L122.36 98.3858C122.584 98.2546 122.789 97.9836 122.882 97.6936L123.562 95.5513C123.776 94.8802 123.886 94.224 123.886 93.6228V92.3823C123.886 92.1558 123.805 91.9949 123.676 91.9187C123.547 91.8425 123.365 91.8531 123.166 91.9674L120.236 93.6609C119.838 93.8895 119.517 94.4463 119.517 94.9056V96.1461C119.517 96.7452 119.627 97.2766 119.838 97.6999L120.52 99.0569C120.548 99.1119 120.586 99.1542 120.63 99.1818L120.636 99.186Z" stroke="#350B00" stroke-width="0.635068" stroke-linecap="round" stroke-linejoin="round"/>
<path d="M121.103 99.1073V100.013C121.59 99.7318 122.558 99.5645 122.558 100.849C122.558 103.028 119.679 104.785 119.679 102.706" stroke="#350B00" stroke-width="0.635068" stroke-linecap="round" stroke-linejoin="round"/>
<path d="M122.266 94.6785C122.266 94.3144 122.012 94.1662 121.696 94.3482C121.381 94.5303 121.127 94.9727 121.127 95.3368C121.127 95.7009 121.381 95.847 121.696 95.6649C122.012 95.4829 122.266 95.0426 122.266 94.6785Z" stroke="#350B00" stroke-width="0.635068" stroke-linecap="round" stroke-linejoin="round"/>
<path d="M120.634 99.1854L119.535 98.5503C119.486 98.5228 119.446 98.4783 119.416 98.4212L118.737 97.0642C118.523 96.6409 118.413 96.1095 118.413 95.5105V94.27C118.413 93.8106 118.735 93.2538 119.133 93.0252L122.065 91.3317C122.264 91.2174 122.444 91.2068 122.573 91.2809L123.674 91.916" stroke="#350B00" stroke-width="0.635068" stroke-linecap="round" stroke-linejoin="round"/>
<path d="M121.039 92.3446V72.0585" stroke="#350B00" stroke-width="0.635068" stroke-linecap="round" stroke-linejoin="round"/>
<path d="M155.215 55.9396C154.978 56.0772 154.785 56.0815 154.648 56.001C154.315 55.8063 154.3 55.1098 154.775 54.479C158.862 49.2841 159.993 46.8709 162.675 45.3192L167.66 42.4423C167.66 42.4423 167.673 42.4339 167.69 42.4254C167.694 42.4212 167.7 42.4191 167.709 42.4148C167.713 42.4127 167.717 42.4085 167.722 42.4064C167.73 42.4 167.741 42.3958 167.751 42.3894C167.76 42.3831 167.77 42.3767 167.783 42.3725C167.787 42.3683 167.791 42.3661 167.796 42.364C167.808 42.3556 167.823 42.3471 167.842 42.3365C167.673 42.4339 167.679 42.4381 167.916 42.2942C167.94 42.2793 167.965 42.2645 167.995 42.2497L168.024 42.2307L168.071 42.2053C168.084 42.1968 168.096 42.1883 168.111 42.182L168.153 42.1566L168.45 41.9851C167.931 42.2857 167.98 42.2561 168.687 41.8496C168.695 41.8433 168.704 41.839 168.712 41.8348C168.729 41.8242 168.744 41.8157 168.761 41.8073L168.968 41.6866C168.297 42.074 168.342 42.0486 169.117 41.5998L169.244 41.5278C168.649 41.8708 168.799 41.784 169.663 41.2844L170.141 41.0092C169.773 41.223 169.995 41.0896 170.628 40.7277C170.711 40.6811 170.791 40.6345 170.871 40.5879C170.711 40.6811 170.842 40.6049 171.138 40.4334L172.438 39.684C173.048 39.3326 173.2 39.2437 172.772 39.4893C173.568 39.032 173.776 38.9114 173.268 39.2035C174.104 38.723 174.231 38.6489 173.615 39.0045C173.708 38.9516 173.797 38.8987 173.88 38.8521C174.657 38.4097 174.703 38.3779 174.047 38.7547C174.068 38.742 174.089 38.7314 174.108 38.7208C174.843 38.3038 174.879 38.2763 174.269 38.6277C174.297 38.6108 174.322 38.596 174.347 38.5811C174.997 38.2043 175.029 38.1874 174.496 38.4943C175.103 38.1451 175.143 38.1218 174.745 38.3504L181.746 34.3071V40.6218L173.945 45.1266C173.945 45.1266 173.943 45.1287 173.939 45.1287L173.926 45.1371C173.926 45.1371 173.92 45.1371 173.92 45.1414C173.918 45.1435 173.913 45.1456 173.909 45.1477H173.903C173.89 45.1583 173.877 45.1647 173.867 45.171C173.842 45.1858 173.812 45.2028 173.774 45.2261L173.763 45.2303C173.746 45.2409 173.731 45.2493 173.719 45.2578L155.215 55.9396Z" fill="white"/>
<path d="M175.171 38.1052L175.143 38.1222C175.069 38.1666 174.745 38.3508 174.745 38.3508L175.171 38.1052Z" fill="white"/>
<path d="M174.751 38.3517C175.149 38.1231 175.109 38.1464 174.501 38.4956L174.751 38.3517Z" fill="white"/>
<path d="M174.5 38.4953C175.034 38.1883 175.002 38.2052 174.352 38.582C174.327 38.5969 174.301 38.6117 174.274 38.6286C174.883 38.2772 174.847 38.3047 174.113 38.7218C174.094 38.7323 174.073 38.7429 174.051 38.7556C174.708 38.3788 174.661 38.4106 173.884 38.853C173.802 38.8996 173.713 38.9525 173.62 39.0054C174.236 38.6498 174.109 38.7239 173.272 39.2044L174.5 38.4953Z" fill="white"/>
<path d="M173.951 45.1281C173.951 45.1281 173.949 45.1281 173.949 45.1307H173.943C173.943 45.1307 173.949 45.1281 173.951 45.1281Z" fill="white"/>
<path d="M173.949 45.1295C173.949 45.1295 173.935 45.1365 173.931 45.1389L173.945 45.1295H173.949Z" fill="white"/>
<path d="M173.915 45.1483C173.915 45.1483 173.899 45.1574 173.893 45.162L173.909 45.1506H173.915V45.1483Z" fill="white"/>
<path d="M173.905 45.1499L173.89 45.1608C173.89 45.1608 173.875 45.1673 173.868 45.1716C173.879 45.1651 173.892 45.1586 173.905 45.1499Z" fill="white"/>
<path d="M173.273 39.204C173.781 38.9119 173.573 39.0325 172.777 39.4898L173.273 39.204Z" fill="white"/>
<path d="M172.776 39.49C173.204 39.2444 173.052 39.3333 172.442 39.6847L172.019 39.9282L172.776 39.49Z" fill="white"/>
<path d="M171.137 40.4336C170.841 40.6051 170.71 40.6813 170.87 40.5881C170.79 40.6347 170.71 40.6813 170.627 40.7278L171.137 40.4336Z" fill="white"/>
<path d="M170.146 41.0103L169.875 41.1669C169.911 41.1457 169.945 41.1267 169.979 41.1055C170.036 41.0716 170.091 41.042 170.146 41.0103Z" fill="white"/>
<path d="M169.973 41.1058C169.939 41.127 169.906 41.1461 169.87 41.1672L169.662 41.2858C169.762 41.2286 169.865 41.1693 169.973 41.1058Z" fill="white"/>
<path d="M169.244 41.5289L169.117 41.6009C169.157 41.5776 169.2 41.5522 169.244 41.5289Z" fill="white"/>
<path d="M168.973 41.6871L168.766 41.8078C168.806 41.7845 168.844 41.7612 168.882 41.7379C168.912 41.721 168.943 41.7041 168.973 41.6871Z" fill="white"/>
<path d="M168.881 41.7389C168.843 41.7622 168.805 41.7855 168.765 41.8087C168.748 41.8172 168.733 41.8257 168.716 41.8363C168.769 41.8045 168.824 41.7728 168.881 41.7389Z" fill="white"/>
<path d="M168.45 41.9865L168.384 42.0252C168.405 42.0123 168.427 41.9994 168.45 41.9865Z" fill="white"/>
<path d="M168.319 42.0648C168.275 42.0902 168.234 42.1135 168.196 42.1368L168.158 42.158C168.213 42.1262 168.266 42.0966 168.319 42.0648Z" fill="white"/>
<path d="M168.155 42.1572L168.113 42.1826C168.098 42.189 168.086 42.1974 168.073 42.2059L168.026 42.2313C168.069 42.2059 168.113 42.1826 168.155 42.1572Z" fill="white"/>
<path d="M168.028 42.2308L167.998 42.2499C167.969 42.2647 167.943 42.2795 167.92 42.2943L168.028 42.2308Z" fill="white"/>
<path d="M167.715 42.4158C167.715 42.4158 167.699 42.4227 167.694 42.4273L167.704 42.4204C167.704 42.4204 167.711 42.4158 167.715 42.4158Z" fill="white"/>
<path d="M154.777 54.4798C154.303 55.1106 154.315 55.8113 154.65 56.0019L150.06 53.3557C149.726 53.161 149.713 52.4624 150.19 51.8295L154.866 45.6291C155.825 44.3589 156.942 43.3323 158.088 42.6718L177.159 31.6576L181.748 34.3079L170.63 40.7285C169.999 41.0947 169.775 41.2238 170.143 41.01L169.665 41.2852C168.801 41.7827 168.651 41.8716 169.246 41.5287C169.201 41.5519 169.159 41.5773 169.119 41.6006C168.344 42.0494 168.3 42.0748 168.971 41.6874C168.941 41.7044 168.909 41.7213 168.88 41.7382C168.822 41.7721 168.767 41.8039 168.714 41.8356C168.706 41.8398 168.698 41.8441 168.689 41.8504C167.982 42.2569 167.933 42.2865 168.452 41.9859C168.429 41.9986 168.407 42.0113 168.386 42.024C168.386 42.024 167.954 42.2738 167.918 42.295C167.679 42.4347 167.675 42.4347 167.844 42.3373C167.825 42.3479 167.811 42.3564 167.798 42.3648C167.794 42.3669 167.789 42.3691 167.785 42.3733C167.772 42.3775 167.762 42.3839 167.753 42.3902C167.743 42.3966 167.732 42.4008 167.724 42.4072C167.72 42.4093 167.715 42.4135 167.711 42.4156C167.707 42.4156 167.705 42.4178 167.7 42.4199L167.692 42.4262C167.675 42.4347 167.664 42.441 167.662 42.4432L162.677 45.32C159.995 46.8717 158.865 49.285 154.777 54.4798Z" fill="white"/>
<path d="M172.019 39.9275L181.75 34.3071" stroke="#350B00" stroke-width="0.635068" stroke-linecap="round" stroke-linejoin="round"/>
<path d="M171.373 40.3014L171.849 40.0262" stroke="#350B00" stroke-width="0.635068" stroke-linecap="round" stroke-linejoin="round"/>
<path d="M170.627 40.7278L171.137 40.4336" stroke="#350B00" stroke-width="0.635068" stroke-linecap="round" stroke-linejoin="round"/>
<path d="M169.662 41.2858C169.762 41.2286 169.865 41.1693 169.973 41.1058" stroke="#350B00" stroke-width="0.635068" stroke-linecap="round" stroke-linejoin="round"/>
<path d="M168.716 41.8363C168.769 41.8045 168.824 41.7728 168.881 41.7389" stroke="#350B00" stroke-width="0.635068" stroke-linecap="round" stroke-linejoin="round"/>
<path d="M167.694 42.4273C167.694 42.4273 167.706 42.4204 167.715 42.4158" stroke="#350B00" stroke-width="0.635068" stroke-linecap="round" stroke-linejoin="round"/>
<path d="M167.92 42.2943C167.943 42.2795 167.969 42.2647 167.998 42.2499L168.028 42.2308" stroke="#350B00" stroke-width="0.635068" stroke-linecap="round" stroke-linejoin="round"/>
<path d="M168.026 42.2313L168.073 42.2059C168.086 42.1974 168.098 42.189 168.113 42.1826L168.155 42.1572" stroke="#350B00" stroke-width="0.635068" stroke-linecap="round" stroke-linejoin="round"/>
<path d="M168.319 42.0648C168.275 42.0902 168.234 42.1135 168.196 42.1368L168.158 42.158" stroke="#350B00" stroke-width="0.635068" stroke-linecap="round" stroke-linejoin="round"/>
<path d="M168.45 41.9865L168.384 42.0252" stroke="#350B00" stroke-width="0.635068" stroke-linecap="round" stroke-linejoin="round"/>
<path d="M168.973 41.6871L168.766 41.8078" stroke="#350B00" stroke-width="0.635068" stroke-linecap="round" stroke-linejoin="round"/>
<path d="M169.244 41.5289L169.117 41.6009" stroke="#350B00" stroke-width="0.635068" stroke-linecap="round" stroke-linejoin="round"/>
<path d="M170.146 41.0103L169.875 41.1669" stroke="#350B00" stroke-width="0.635068" stroke-linecap="round" stroke-linejoin="round"/>
<path d="M175.283 38.0426C175.283 38.0426 175.281 38.0447 175.277 38.0468L175.256 38.0595C175.256 38.0595 175.249 38.0638 175.243 38.0659C175.243 38.0659 175.283 38.0426 175.205 38.0871L175.201 38.0913L175.171 38.1061" stroke="#350B00" stroke-width="0.635068" stroke-linecap="round" stroke-linejoin="round"/>
<path d="M169.875 41.1663C169.911 41.1451 169.945 41.126 169.979 41.1049C170.036 41.071 170.091 41.0414 170.146 41.0096C169.778 41.2234 170 41.09 170.633 40.7281C170.715 40.6815 170.796 40.6349 170.876 40.5883C170.715 40.6815 170.847 40.6053 171.143 40.4338L172.443 39.6844C173.052 39.333 173.205 39.2441 172.777 39.4897C173.573 39.0324 173.781 38.9118 173.273 39.2039C174.109 38.7234 174.236 38.6493 173.62 39.0049C173.713 38.952 173.802 38.8991 173.884 38.8525C174.661 38.4101 174.708 38.3783 174.052 38.7551C174.073 38.7424 174.094 38.7318 174.113 38.7212C174.848 38.3042 174.884 38.2767 174.274 38.6281C174.301 38.6112 174.327 38.5963 174.352 38.5815C175.002 38.2047 175.034 38.1878 174.5 38.4947C175.108 38.1454 175.148 38.1222 174.75 38.3508L175.176 38.1052" stroke="#350B00" stroke-width="0.635068" stroke-linecap="round" stroke-linejoin="round"/>
<path d="M169.87 41.167L169.662 41.2855" stroke="#350B00" stroke-width="0.635068" stroke-linecap="round" stroke-linejoin="round"/>
<path d="M168.383 42.0232C168.404 42.0105 168.426 41.9978 168.449 41.9851C167.93 42.2857 167.979 42.2561 168.686 41.8496C168.694 41.8433 168.703 41.839 168.711 41.8348C168.728 41.8242 168.743 41.8158 168.76 41.8073C168.8 41.784 168.838 41.7607 168.877 41.7374C168.906 41.7205 168.938 41.7036 168.968 41.6866C168.296 42.074 168.341 42.0486 169.116 41.5998C169.156 41.5766 169.198 41.5512 169.243 41.5279C168.648 41.8708 168.798 41.784 169.662 41.2844" stroke="#350B00" stroke-width="0.635068" stroke-linecap="round" stroke-linejoin="round"/>
<path d="M168.385 42.024L168.314 42.0649" stroke="#350B00" stroke-width="0.635068" stroke-linecap="round" stroke-linejoin="round"/>
<path d="M167.713 42.4162C167.713 42.4162 167.721 42.4099 167.726 42.4078C167.734 42.4014 167.745 42.3972 167.755 42.3908C167.764 42.3845 167.774 42.3781 167.787 42.3739C167.791 42.3697 167.795 42.3675 167.8 42.3654C167.812 42.357 167.827 42.3485 167.846 42.3379C167.677 42.4353 167.681 42.4353 167.92 42.2956C167.956 42.2744 167.992 42.2532 168.028 42.2321C168.071 42.2067 168.115 42.1834 168.157 42.158C168.212 42.1262 168.265 42.0966 168.318 42.0648" stroke="#350B00" stroke-width="0.635068" stroke-linecap="round" stroke-linejoin="round"/>
<path d="M167.715 42.4158C167.715 42.4158 167.708 42.4181 167.704 42.4204L167.694 42.4273" stroke="#350B00" stroke-width="0.635068" stroke-linecap="round" stroke-linejoin="round"/>
<path d="M154.648 56.0024C154.314 55.8119 154.301 55.1112 154.776 54.4803C158.863 49.2855 159.994 46.8722 162.676 45.3205L167.661 42.4437C167.661 42.4437 167.674 42.4352 167.691 42.4268" stroke="#350B00" stroke-width="0.635068" stroke-linecap="round" stroke-linejoin="round"/>
<path d="M173.915 45.1483C173.915 45.1483 173.899 45.1574 173.893 45.162" stroke="#350B00" stroke-width="0.635068" stroke-linecap="round" stroke-linejoin="round"/>
<path d="M173.951 45.1281C173.951 45.1281 173.949 45.1307 173.943 45.1307H173.951V45.1281Z" stroke="#350B00" stroke-width="0.635068" stroke-linecap="round" stroke-linejoin="round"/>
<path d="M173.931 45.1389L173.945 45.1295H173.949L173.931 45.1389Z" stroke="#350B00" stroke-width="0.635068" stroke-linecap="round" stroke-linejoin="round"/>
<path d="M173.893 45.161L173.908 45.1499" stroke="#350B00" stroke-width="0.635068" stroke-linecap="round" stroke-linejoin="round"/>
<path d="M173.891 45.1609C173.891 45.1609 173.875 45.1677 173.868 45.1723" stroke="#350B00" stroke-width="0.635068" stroke-linecap="round" stroke-linejoin="round"/>
<path d="M173.907 45.1499C173.894 45.1584 173.881 45.1647 173.871 45.1711C173.845 45.1859 173.816 45.2028 173.777 45.2261L173.767 45.2303C173.75 45.2409 173.735 45.2494 173.722 45.2579L155.219 55.9397C154.982 56.0773 154.789 56.0836 154.651 56.0011" stroke="#350B00" stroke-width="0.635068" stroke-linecap="round" stroke-linejoin="round"/>
<path d="M173.905 45.151L173.913 45.1483" stroke="#350B00" stroke-width="0.635068" stroke-linecap="round" stroke-linejoin="round"/>
<path d="M181.748 34.3071V40.6218L173.947 45.1266C173.947 45.1266 173.945 45.1266 173.945 45.1287C173.939 45.1287 173.932 45.135 173.928 45.1371C173.924 45.1393 173.922 45.1371 173.922 45.1414C173.92 45.1435 173.915 45.1456 173.911 45.1477" stroke="#350B00" stroke-width="0.635068" stroke-linecap="round" stroke-linejoin="round"/>
<path d="M181.748 34.3079L177.159 31.6576L158.088 42.6718C156.942 43.3323 155.825 44.3589 154.866 45.6291L150.19 51.8295C149.713 52.4624 149.726 53.161 150.06 53.3557L154.65 56.004" stroke="#350B00" stroke-width="0.635068" stroke-linecap="round" stroke-linejoin="round"/>
<path d="M181.755 34.3054L176.287 43.7764" stroke="#350B00" stroke-width="0.635068" stroke-linecap="round" stroke-linejoin="round"/>
<path d="M175.876 44.0143L170.408 40.858" stroke="#350B00" stroke-width="0.635068" stroke-linecap="round" stroke-linejoin="round"/>
<path d="M169.945 41.1229L164.479 50.5918" stroke="#350B00" stroke-width="0.635068" stroke-linecap="round" stroke-linejoin="round"/>
<path d="M170.383 47.1859L175.851 37.715" stroke="#350B00" stroke-width="0.635068" stroke-linecap="round" stroke-linejoin="round"/>
<path d="M176.306 37.4501L181.774 40.6064" stroke="#350B00" stroke-width="0.635068" stroke-linecap="round" stroke-linejoin="round"/>
<path d="M169.972 47.4207L164.504 44.2644" stroke="#350B00" stroke-width="0.635068" stroke-linecap="round" stroke-linejoin="round"/>
<path d="M163.55 51.9854V120.839L155.256 125.628V56.7759L163.55 51.9854Z" fill="white"/>
<path d="M163.552 51.9854L155.258 56.776L146.964 51.9854L155.258 47.197L163.552 51.9854Z" fill="white"/>
<path d="M155.258 56.7759V125.628L146.964 120.839V51.9854L155.258 56.7759Z" fill="#E59636"/>
<path d="M146.964 51.9854L155.258 47.197L163.552 51.9854L155.258 56.776L146.964 51.9854Z" stroke="#350B00" stroke-width="0.635068" stroke-linecap="round" stroke-linejoin="round"/>
<path d="M155.256 56.7753V125.627" stroke="#350B00" stroke-width="0.635068" stroke-linecap="round" stroke-linejoin="round"/>
<path d="M146.964 51.9854V120.839L155.258 125.628L163.552 120.839V51.9854" stroke="#350B00" stroke-width="0.635068" stroke-linecap="round" stroke-linejoin="round"/>
<path d="M155.246 60.3665L163.54 65.1549" stroke="#350B00" stroke-width="0.635068" stroke-linecap="round" stroke-linejoin="round"/>
<path d="M155.246 69.9455L163.54 55.5781" stroke="#350B00" stroke-width="0.635068" stroke-linecap="round" stroke-linejoin="round"/>
<path d="M155.246 69.5396L163.54 74.328" stroke="#350B00" stroke-width="0.635068" stroke-linecap="round" stroke-linejoin="round"/>
<path d="M155.246 79.1186L163.54 64.7512" stroke="#350B00" stroke-width="0.635068" stroke-linecap="round" stroke-linejoin="round"/>
<path d="M155.246 78.7107L163.54 83.4991" stroke="#350B00" stroke-width="0.635068" stroke-linecap="round" stroke-linejoin="round"/>
<path d="M155.246 88.2897L163.54 73.9224" stroke="#350B00" stroke-width="0.635068" stroke-linecap="round" stroke-linejoin="round"/>
<path d="M155.246 87.8837L163.54 92.6721" stroke="#350B00" stroke-width="0.635068" stroke-linecap="round" stroke-linejoin="round"/>
<path d="M155.246 97.4627L163.54 83.0953" stroke="#350B00" stroke-width="0.635068" stroke-linecap="round" stroke-linejoin="round"/>
<path d="M155.246 97.0568L163.54 101.845" stroke="#350B00" stroke-width="0.635068" stroke-linecap="round" stroke-linejoin="round"/>
<path d="M155.246 106.636L163.54 92.2684" stroke="#350B00" stroke-width="0.635068" stroke-linecap="round" stroke-linejoin="round"/>
<path d="M155.246 106.228L163.54 111.016" stroke="#350B00" stroke-width="0.635068" stroke-linecap="round" stroke-linejoin="round"/>
<path d="M155.246 115.807L163.54 101.44" stroke="#350B00" stroke-width="0.635068" stroke-linecap="round" stroke-linejoin="round"/>
<path d="M155.246 115.401L163.54 120.189" stroke="#350B00" stroke-width="0.635068" stroke-linecap="round" stroke-linejoin="round"/>
<path d="M155.246 124.98L163.54 110.613" stroke="#350B00" stroke-width="0.635068" stroke-linecap="round" stroke-linejoin="round"/>
<path d="M169.373 36.3773V53.721C169.373 55.6537 168.018 58.0056 166.341 58.9709L155.414 65.2813C154.574 65.7661 153.816 65.8084 153.272 65.493L153.229 65.4676C152.649 65.1077 152.321 64.333 152.391 63.247L152.98 54.4196C153.443 47.4635 158.278 39.5166 164.089 36.1614L166.545 34.7431C167.326 34.2922 168.035 34.2498 168.545 34.5462C169.055 34.8425 169.373 35.4755 169.373 36.3773ZM166.032 47.4804V39.8299C166.032 39.3134 165.67 39.1038 165.224 39.3642L164.089 40.0183C160.02 42.366 156.631 47.9334 156.307 52.8044L156.293 53.0288C156.257 53.5961 156.629 53.8459 157.103 53.5728L165.224 48.8839C165.67 48.6256 166.032 47.9969 166.032 47.4804Z" fill="#E59636"/>
<path d="M156.353 27.5072L168.546 34.5458C168.036 34.2495 167.327 34.2918 166.546 34.7427L164.09 36.161C158.28 39.5163 153.445 47.4631 152.981 54.4192L152.392 63.2466C152.323 64.3326 152.651 65.1074 153.231 65.4673L141.08 58.454C140.476 58.1047 140.127 57.3193 140.201 56.2059L140.788 47.3805C141.251 40.4244 146.088 32.4755 151.899 29.1202L154.355 27.704C155.136 27.2531 155.843 27.2087 156.353 27.5072ZM156.887 39.0908L149.198 34.5945C145.997 38.0916 143.652 43.0219 143.33 47.4568L150.758 51.8006C151.596 47.3107 153.855 42.717 156.887 39.0908Z" fill="white"/>
<path d="M166.035 39.8297V47.4802C166.035 47.9967 165.673 48.6254 165.227 48.8837L157.106 53.5726C156.632 53.8457 156.259 53.5959 156.295 53.0286L156.31 52.8042C156.634 47.9332 160.023 42.3658 164.092 40.0181L165.227 39.364C165.673 39.1036 166.035 39.3132 166.035 39.8297Z" fill="#350B00"/>
<path d="M149.199 34.5939L156.888 39.0901C153.856 42.7164 151.598 47.31 150.759 51.8L143.331 47.4561C143.653 43.0212 145.998 38.091 149.199 34.5939Z" fill="#D7DCE0"/>
<path d="M153.229 65.4676C152.649 65.1077 152.321 64.333 152.391 63.247L152.98 54.4196C153.443 47.4635 158.278 39.5166 164.089 36.1614L166.545 34.7431C167.326 34.2922 168.035 34.2498 168.545 34.5462C169.055 34.8425 169.373 35.4755 169.373 36.3773V53.721C169.373 55.6537 168.018 58.0056 166.341 58.9709L155.414 65.2813C154.574 65.7661 153.816 65.8084 153.272 65.493" stroke="#350B00" stroke-width="0.635068" stroke-linecap="round" stroke-linejoin="round"/>
<path d="M166.035 47.4802V39.8297C166.035 39.3132 165.673 39.1036 165.227 39.364L164.092 40.0181C160.023 42.3658 156.634 47.9332 156.31 52.8042L156.295 53.0286C156.259 53.5959 156.632 53.8457 157.106 53.5726L165.227 48.8837C165.673 48.6254 166.035 47.9967 166.035 47.4802Z" stroke="#350B00" stroke-width="0.635068" stroke-linecap="round" stroke-linejoin="round"/>
<path d="M153.273 65.4927L141.08 58.454C140.476 58.1047 140.127 57.3193 140.201 56.2059L140.788 47.3805C141.251 40.4244 146.088 32.4755 151.899 29.1202L154.355 27.704C155.136 27.2531 155.843 27.2087 156.353 27.5072L168.546 34.5458" stroke="#350B00" stroke-width="0.635068" stroke-linecap="round" stroke-linejoin="round"/>
<path d="M143.331 47.4561L150.759 51.8C151.598 47.31 153.856 42.7164 156.888 39.0901L149.199 34.5939C145.998 38.091 143.653 43.0212 143.331 47.4561Z" stroke="#350B00" stroke-width="0.635068" stroke-linecap="round" stroke-linejoin="round"/>
<path d="M105.713 84.5149C105.476 84.6525 105.283 84.6567 105.146 84.5762C104.813 84.3815 104.799 83.685 105.273 83.0542C105.273 83.0542 110.305 76.4008 110.489 76.187C111.316 75.2217 112.235 74.4363 113.173 73.8944L148.745 53.3563V59.671L105.713 84.5149Z" fill="white"/>
<path d="M148.743 53.3566L143.275 62.8275" stroke="#350B00" stroke-width="0.635068" stroke-linecap="round" stroke-linejoin="round"/>
<path d="M142.868 63.064L137.402 59.9077" stroke="#350B00" stroke-width="0.635068" stroke-linecap="round" stroke-linejoin="round"/>
<path d="M136.939 60.1755L131.474 69.6423" stroke="#350B00" stroke-width="0.635068" stroke-linecap="round" stroke-linejoin="round"/>
<path d="M137.378 66.2366L142.846 56.7677" stroke="#350B00" stroke-width="0.635068" stroke-linecap="round" stroke-linejoin="round"/>
<path d="M143.301 56.4998L148.769 59.656" stroke="#350B00" stroke-width="0.635068" stroke-linecap="round" stroke-linejoin="round"/>
<path d="M136.969 66.4726L131.501 63.3163" stroke="#350B00" stroke-width="0.635068" stroke-linecap="round" stroke-linejoin="round"/>
<path d="M131.065 69.8775L125.597 66.7212" stroke="#350B00" stroke-width="0.635068" stroke-linecap="round" stroke-linejoin="round"/>
<path d="M125.14 66.9875L119.674 76.4564" stroke="#350B00" stroke-width="0.635068" stroke-linecap="round" stroke-linejoin="round"/>
<path d="M125.578 73.0484L131.044 63.5796" stroke="#350B00" stroke-width="0.635068" stroke-linecap="round" stroke-linejoin="round"/>
<path d="M119.266 76.6953L113.798 73.5391" stroke="#350B00" stroke-width="0.635068" stroke-linecap="round" stroke-linejoin="round"/>
<path d="M113.772 79.8669L119.24 70.3959" stroke="#350B00" stroke-width="0.635068" stroke-linecap="round" stroke-linejoin="round"/>
<path d="M119.701 70.1311L125.169 73.2874" stroke="#350B00" stroke-width="0.635068" stroke-linecap="round" stroke-linejoin="round"/>
<path d="M113.331 73.8059L107.863 83.2748" stroke="#350B00" stroke-width="0.635068" stroke-linecap="round" stroke-linejoin="round"/>
<path d="M109.299 77.7607L113.359 80.1041" stroke="#350B00" stroke-width="0.635068" stroke-linecap="round" stroke-linejoin="round"/>
<path d="M105.275 83.055C104.801 83.6858 104.813 84.3865 105.148 84.5771L100.558 81.9309C100.224 81.7362 100.211 81.0376 100.688 80.4047L105.364 74.2043C106.323 72.9342 107.44 71.9075 108.586 71.247L144.158 50.7068L148.747 53.3571L113.175 73.8952C112.237 74.4371 111.319 75.2225 110.491 76.1878C110.307 76.4016 110.129 76.6239 109.953 76.8525L105.275 83.055Z" fill="white"/>
<path d="M148.745 53.3563V59.671L105.713 84.5149C105.476 84.6525 105.283 84.6567 105.146 84.5762C104.813 84.3815 104.799 83.685 105.273 83.0542C105.273 83.0542 110.305 76.4008 110.489 76.187C111.316 75.2217 112.235 74.4363 113.173 73.8944L148.745 53.3563Z" stroke="#350B00" stroke-width="0.635068" stroke-linecap="round" stroke-linejoin="round"/>
<path d="M148.747 53.3571L144.158 50.7068L108.586 71.247C107.44 71.9075 106.323 72.9342 105.364 74.2043L100.688 80.4047C100.211 81.0376 100.224 81.7362 100.558 81.9309L105.148 84.5792" stroke="#350B00" stroke-width="0.635068" stroke-linecap="round" stroke-linejoin="round"/>
<path d="M130.246 117.61V132.218C130.246 132.741 130.066 133.103 129.786 133.247L128.046 134.103C128.321 133.954 128.497 133.592 128.497 133.076V118.467C128.497 117.542 127.934 116.467 127.24 116.067L113.078 107.891C112.79 107.726 112.525 107.701 112.313 107.794L114.026 106.953C114.244 106.839 114.521 106.858 114.824 107.032L128.986 115.207C129.68 115.607 130.244 116.683 130.244 117.608L130.246 117.61Z" fill="#350B00"/>
<path d="M128.499 118.469V133.077C128.499 133.594 128.323 133.954 128.048 134.104L128.042 134.108C127.824 134.221 127.546 134.204 127.244 134.028L113.082 125.852C112.387 125.452 111.824 124.377 111.824 123.452V108.843C111.824 108.323 112.002 107.961 112.284 107.814L112.317 107.798C112.529 107.704 112.794 107.728 113.082 107.895L127.244 116.07C127.938 116.47 128.501 117.546 128.501 118.471L128.499 118.469Z" fill="white"/>
<path d="M112.319 107.794C112.531 107.701 112.796 107.724 113.084 107.892L127.246 116.067C127.94 116.467 128.503 117.543 128.503 118.468V133.076C128.503 133.593 128.327 133.953 128.052 134.103" stroke="#350B00" stroke-width="0.635068" stroke-linecap="round" stroke-linejoin="round"/>
<path d="M128.042 134.106C127.824 134.218 127.546 134.201 127.244 134.026L113.082 125.85C112.387 125.45 111.824 124.375 111.824 123.45V108.841C111.824 108.32 112.002 107.958 112.284 107.812" stroke="#350B00" stroke-width="0.635068" stroke-linecap="round" stroke-linejoin="round"/>
<path d="M112.282 107.811L114.029 106.953C114.247 106.839 114.524 106.858 114.827 107.032L128.989 115.207C129.683 115.607 130.246 116.683 130.246 117.608V132.216C130.246 132.739 130.066 133.101 129.787 133.245L128.04 134.105" stroke="#350B00" stroke-width="0.635068" stroke-linecap="round" stroke-linejoin="round"/>
<path d="M115.628 108.505C117.156 106.884 118.012 105.836 120.653 102.802C120.757 102.745 120.922 102.841 121.028 103.018C123.501 108.92 126.054 114.524 126.054 114.524" stroke="#350B00" stroke-width="0.635068" stroke-linecap="round" stroke-linejoin="round"/>
<path d="M146.287 118.67C147.684 118.67 148.818 119.802 148.818 121.199C148.818 122.597 147.686 123.731 146.287 123.731C144.887 123.731 143.757 122.599 143.757 121.199C143.757 119.8 144.889 118.67 146.287 118.67Z" fill="white"/>
<path d="M148.818 121.199C148.818 119.802 147.686 118.67 146.287 118.67C144.887 118.67 143.757 119.802 143.757 121.199C143.757 122.597 144.889 123.731 146.287 123.731C147.684 123.731 148.818 122.599 148.818 121.199Z" stroke="#350B00" stroke-width="0.635068" stroke-linecap="round" stroke-linejoin="round"/>
</g>
<path d="M202.82 122.625C202.82 123.348 202.383 124.038 201.492 124.55L190.435 130.935C188.465 132.072 185.027 131.93 182.756 130.619L169.849 123.169C168.606 122.451 167.969 121.533 167.969 120.66C167.969 119.939 168.406 119.249 169.296 118.736L177.519 113.99V119.538C177.519 120.572 178.244 121.828 179.139 122.345L183.525 124.875C183.999 125.149 184.425 125.173 184.733 124.995L191.862 120.882C192.227 120.67 192.426 120.177 192.345 119.481L191.633 114.746L196.378 117.486V117.62C196.378 118.538 196.936 118.962 197.627 118.563L197.935 118.383L200.94 120.12C202.182 120.838 202.82 121.756 202.82 122.627V122.625Z" fill="#DAE0E5"/>
<path d="M212.005 97.1862V101.376C212.005 102.296 211.445 103.363 210.757 103.761L197.628 111.341C196.937 111.741 196.379 111.317 196.379 110.398V106.209C196.379 105.29 196.937 104.224 197.628 103.824L210.757 96.2436C211.445 95.8473 212.005 96.268 212.005 97.1862ZM209.658 100.711C209.658 100.365 209.501 100.158 209.278 100.158C209.203 100.158 209.116 100.182 209.03 100.233L207.671 101.017C207.324 101.218 207.044 101.758 207.044 102.221C207.044 102.568 207.2 102.774 207.422 102.774C207.499 102.774 207.583 102.751 207.671 102.699L209.03 101.913C209.377 101.712 209.658 101.175 209.658 100.711ZM204.473 104.421C204.935 103.844 205.096 103.071 204.827 102.689C204.561 102.309 203.969 102.467 203.508 103.045C203.044 103.622 202.885 104.395 203.152 104.775C203.418 105.157 204.01 104.997 204.473 104.421ZM201.342 105.512C201.342 105.166 201.185 104.959 200.962 104.959C200.885 104.959 200.799 104.984 200.712 105.036L199.355 105.819C199.008 106.019 198.726 106.558 198.726 107.022C198.726 107.368 198.882 107.575 199.104 107.575C199.182 107.575 199.267 107.551 199.355 107.499L200.712 106.716C201.06 106.515 201.342 105.975 201.342 105.512Z" fill="#E59636"/>
<path d="M209.274 100.157C209.498 100.157 209.654 100.364 209.654 100.71C209.654 101.173 209.374 101.712 209.027 101.912L207.668 102.698C207.58 102.751 207.495 102.773 207.418 102.773C207.197 102.773 207.04 102.568 207.04 102.22C207.04 101.757 207.321 101.217 207.668 101.017L209.027 100.232C209.113 100.182 209.199 100.157 209.274 100.157Z" fill="#350B00"/>
<path d="M204.827 102.687C205.097 103.069 204.937 103.842 204.474 104.419C204.01 104.995 203.418 105.153 203.152 104.773C202.885 104.393 203.043 103.62 203.508 103.043C203.97 102.465 204.562 102.309 204.827 102.687Z" fill="#350B00"/>
<path d="M202.82 115.405V120.022C202.82 120.745 202.383 121.435 201.492 121.947L190.435 128.332C188.465 129.469 185.027 129.327 182.756 128.015L169.849 120.565C168.606 119.848 167.969 118.93 167.969 118.059V113.44C167.969 114.312 168.606 115.229 169.849 115.948L182.755 123.398C185.027 124.71 188.463 124.853 190.433 123.715L201.491 117.33C202.381 116.817 202.818 116.128 202.818 115.405H202.82Z" fill="#350B00"/>
<path d="M202.82 115.405C202.82 116.128 202.383 116.818 201.492 117.33L190.435 123.715C188.465 124.852 185.027 124.71 182.756 123.399L169.849 115.948C168.606 115.231 167.969 114.313 167.969 113.44C167.969 112.719 168.406 112.029 169.296 111.516L177.519 106.77V112.318C177.519 113.352 178.244 114.608 179.139 115.125L183.525 117.654C183.999 117.928 184.425 117.953 184.733 117.775L191.862 113.662C192.227 113.45 192.426 112.957 192.345 112.261L191.633 107.526L196.378 110.266V110.4C196.378 111.318 196.936 111.742 197.627 111.343L197.935 111.163L200.94 112.9C202.182 113.618 202.82 114.536 202.82 115.407V115.405Z" fill="#E59636"/>
<path d="M202.256 101.149L199.517 102.731L197.33 101.465H197.329L196.267 100.853C196.208 100.819 196.158 100.77 196.114 100.708C195.848 100.327 196.004 99.5552 196.468 98.9779C196.856 98.4951 197.334 98.3059 197.637 98.4804L202.257 101.149H202.256Z" fill="#C2C7CC"/>
<path d="M200.96 104.96C201.183 104.96 201.34 105.167 201.34 105.513C201.34 105.976 201.057 106.516 200.71 106.716L199.353 107.499C199.265 107.551 199.18 107.576 199.102 107.576C198.88 107.576 198.724 107.369 198.724 107.023C198.724 106.56 199.006 106.02 199.353 105.819L200.71 105.036C200.797 104.984 200.883 104.96 200.96 104.96Z" fill="#350B00"/>
<path d="M199.753 97.6656C199.877 98.4436 199.821 99.1123 199.626 99.6293L197.639 98.4811C197.337 98.3066 196.858 98.4958 196.47 98.9785C196.008 99.5559 195.852 100.327 196.116 100.709C196.158 100.771 196.209 100.82 196.269 100.854L197.331 101.466L192.48 104.266C193.193 103.811 193.541 102.769 193.32 101.379L193.218 100.74C192.859 98.4762 191.122 96.1456 189.343 95.5324L175.581 90.8141C174.932 90.5907 174.367 90.6266 173.929 90.8728L180.343 87.1706C180.783 86.9162 181.356 86.8754 182.013 87.1005L195.773 91.822C197.553 92.4336 199.291 94.7642 199.652 97.0296L199.751 97.6673L199.753 97.6656Z" fill="#E59636"/>
<path d="M199.515 102.731L197.623 103.822C196.931 104.222 196.374 105.289 196.374 106.207V110.263L191.629 107.523L191.171 104.485C191.65 104.568 192.073 104.501 192.415 104.302L197.326 101.466H197.328L199.515 102.731Z" fill="white"/>
<path d="M177.523 99.8329L176.989 99.6502C175.21 99.0386 173.475 96.7081 173.114 94.4427L173.012 93.805C172.783 92.3747 173.16 91.3146 173.912 90.8808L173.93 90.871C174.368 90.6247 174.933 90.5888 175.582 90.8123L189.342 95.5322C191.121 96.1454 192.86 98.476 193.217 100.74L193.32 101.379C193.54 102.769 193.193 103.811 192.48 104.266L192.42 104.302C192.077 104.501 191.655 104.569 191.175 104.483C191.038 104.458 190.896 104.422 190.75 104.372L177.521 99.8313L177.523 99.8329ZM176.675 96.5205C177.278 96.7276 177.668 96.2742 177.544 95.5093C177.423 94.7412 176.836 93.9551 176.234 93.7496C175.631 93.5424 175.241 93.9958 175.365 94.7607C175.487 95.5289 176.073 96.3134 176.675 96.5205Z" fill="white"/>
<path d="M192.34 112.259C192.42 112.954 192.221 113.448 191.858 113.66L184.763 117.753C185.107 117.533 185.291 117.047 185.212 116.374L183.005 101.716L190.745 104.373C190.892 104.422 191.034 104.458 191.171 104.484L192.342 112.26L192.34 112.259Z" fill="#350B00"/>
<path d="M185.217 116.375C185.295 117.047 185.111 117.533 184.768 117.755L184.734 117.775C184.427 117.954 184.002 117.93 183.526 117.654L179.14 115.125C178.246 114.608 177.521 113.352 177.521 112.318V99.8346L183.009 101.718L185.215 116.375H185.217Z" fill="white"/>
<path d="M177.541 95.5118C177.665 96.2767 177.275 96.7301 176.671 96.523C176.07 96.3159 175.483 95.5298 175.362 94.7632C175.238 93.9983 175.628 93.5449 176.231 93.7521C176.833 93.9576 177.422 94.7453 177.541 95.5118Z" fill="#350B00"/>
<path d="M177.519 106.768L169.296 111.514C168.406 112.028 167.969 112.718 167.969 113.439C167.969 114.311 168.606 115.228 169.849 115.947L182.755 123.397C185.027 124.709 188.463 124.852 190.433 123.714L201.491 117.329C202.381 116.817 202.818 116.127 202.818 115.404C202.818 114.533 202.181 113.617 200.938 112.897L197.934 111.162" stroke="#350B00" stroke-width="0.489278" stroke-linecap="round" stroke-linejoin="round"/>
<path d="M196.381 110.265L191.635 107.525" stroke="#350B00" stroke-width="0.489278" stroke-linecap="round" stroke-linejoin="round"/>
<path d="M167.969 113.44V118.059C167.969 118.93 168.606 119.846 169.849 120.566L182.755 128.017C185.027 129.327 188.463 129.471 190.433 128.334L201.491 121.949C202.381 121.437 202.818 120.747 202.818 120.024V115.407" stroke="#350B00" stroke-width="0.489278" stroke-linecap="round" stroke-linejoin="round"/>
<path d="M184.734 117.774C184.427 117.953 184.002 117.929 183.526 117.653L179.14 115.123C178.246 114.606 177.521 113.351 177.521 112.317V99.8318" stroke="#350B00" stroke-width="0.489278" stroke-linecap="round" stroke-linejoin="round"/>
<path d="M183.005 101.717L185.212 116.374C185.29 117.046 185.106 117.532 184.763 117.754" stroke="#350B00" stroke-width="0.489278" stroke-linecap="round" stroke-linejoin="round"/>
<path d="M184.734 117.774L191.863 113.661C192.228 113.449 192.427 112.956 192.346 112.26L191.175 104.485" stroke="#350B00" stroke-width="0.489278" stroke-linecap="round" stroke-linejoin="round"/>
<path d="M192.48 104.266C193.193 103.811 193.541 102.769 193.32 101.379L193.218 100.74C192.859 98.4763 191.122 96.1457 189.343 95.5325L175.581 90.8142C174.932 90.5908 174.367 90.6267 173.929 90.8729" stroke="#350B00" stroke-width="0.489278" stroke-linecap="round" stroke-linejoin="round"/>
<path d="M173.905 90.8834C173.152 91.3172 172.777 92.3773 173.005 93.8077L173.108 94.4454C173.47 96.7107 175.203 99.0413 176.983 99.6529L190.743 104.374C190.89 104.423 191.031 104.461 191.168 104.485C191.648 104.572 192.07 104.503 192.413 104.304" stroke="#350B00" stroke-width="0.489278" stroke-linecap="round" stroke-linejoin="round"/>
<path d="M175.362 94.762C175.238 93.9971 175.628 93.5437 176.231 93.7508C176.833 93.9563 177.422 94.7441 177.541 95.5106C177.665 96.2755 177.275 96.7289 176.671 96.5218C176.07 96.3146 175.483 95.5285 175.362 94.762Z" stroke="#350B00" stroke-width="0.489278" stroke-linecap="round" stroke-linejoin="round"/>
<path d="M192.418 104.304L197.329 101.466" stroke="#350B00" stroke-width="0.489278" stroke-linecap="round" stroke-linejoin="round"/>
<path d="M199.625 99.6313C199.821 99.1143 199.874 98.444 199.752 97.6677L199.653 97.03C199.291 94.7646 197.554 92.434 195.774 91.8224L182.011 87.0993C181.354 86.8742 180.781 86.915 180.341 87.1694L173.91 90.883" stroke="#350B00" stroke-width="0.489278" stroke-linecap="round" stroke-linejoin="round"/>
<path d="M203.152 104.774C203.418 105.156 204.01 104.996 204.473 104.42C204.935 103.843 205.096 103.07 204.827 102.688C204.561 102.308 203.969 102.466 203.508 103.044C203.044 103.621 202.885 104.394 203.152 104.774Z" stroke="#350B00" stroke-width="0.489278" stroke-linecap="round" stroke-linejoin="round"/>
<path d="M202.256 101.149L197.636 98.4808C197.334 98.3063 196.855 98.4955 196.467 98.9782C196.005 99.5556 195.848 100.327 196.113 100.709C196.155 100.771 196.206 100.82 196.266 100.854L197.328 101.465H197.329L199.516 102.731" stroke="#350B00" stroke-width="0.489278" stroke-linecap="round" stroke-linejoin="round"/>
<path d="M196.379 110.265V110.399C196.379 111.317 196.937 111.741 197.628 111.341L210.757 103.761C211.445 103.363 212.005 102.296 212.005 101.376V97.1866C212.005 96.2684 211.445 95.8476 210.757 96.2439L197.628 103.824C196.937 104.224 196.379 105.291 196.379 106.209V110.265Z" stroke="#350B00" stroke-width="0.489278" stroke-linecap="round" stroke-linejoin="round"/>
<path d="M207.668 102.697L209.027 101.911C209.374 101.71 209.654 101.174 209.654 100.709C209.654 100.363 209.498 100.156 209.274 100.156C209.199 100.156 209.113 100.181 209.027 100.231L207.668 101.016C207.321 101.216 207.04 101.756 207.04 102.219C207.04 102.567 207.197 102.772 207.418 102.772C207.495 102.772 207.58 102.749 207.668 102.697Z" stroke="#350B00" stroke-width="0.489278" stroke-linecap="round" stroke-linejoin="round"/>
<path d="M199.353 107.498L200.71 106.715C201.057 106.515 201.34 105.975 201.34 105.512C201.34 105.166 201.183 104.959 200.96 104.959C200.883 104.959 200.797 104.983 200.71 105.035L199.353 105.818C199.006 106.019 198.724 106.557 198.724 107.022C198.724 107.367 198.88 107.575 199.102 107.575C199.18 107.575 199.265 107.55 199.353 107.498Z" stroke="#350B00" stroke-width="0.489278" stroke-linecap="round" stroke-linejoin="round"/>
<defs>
<clipPath id="clip0_4502_7077">
<rect width="82.0931" height="107.5" fill="white" transform="translate(100 27)"/>
</clipPath>
</defs>
</svg>
