<svg width="113" height="108" viewBox="0 0 113 108" fill="none" xmlns="http://www.w3.org/2000/svg">
<path d="M67.5184 95.8852C67.5184 96.4415 67.1819 96.9726 66.4964 97.3668L57.9834 102.283C56.4666 103.158 53.8198 103.048 52.072 102.039L42.1352 96.3033C41.1784 95.7509 40.6875 95.044 40.6875 94.3722C40.6875 93.8172 41.024 93.2861 41.7096 92.8906L48.0403 89.2368V93.5084C48.0403 94.3044 48.5978 95.2712 49.2871 95.6693L52.6634 97.6167C53.0288 97.8276 53.3565 97.8465 53.5938 97.7096L59.0821 94.543C59.3633 94.3798 59.5165 94.0006 59.4537 93.4644L58.9063 89.8194L62.5588 91.9288V92.0318C62.5588 92.7387 62.9882 93.0651 63.5206 92.7575L63.7579 92.6194L66.0707 93.9566C67.0275 94.5091 67.5184 95.216 67.5184 95.8865V95.8852Z" fill="#DAE0E5"/>
<g clip-path="url(#clip0_4502_7078)">
<path d="M22.5728 64.7326L23.6736 65.3676C23.5444 65.2935 23.3624 65.3041 23.1634 65.4184L20.2336 67.1119C19.8356 67.3406 19.5139 67.8973 19.5139 68.3567V69.5972C19.5139 70.1963 19.6239 70.7276 19.8356 71.151L20.5173 72.5079C20.5448 72.5629 20.5829 72.6053 20.6274 72.6328L19.535 72.002C19.4864 71.9744 19.4461 71.93 19.4165 71.8728L18.737 70.5159C18.5232 70.0925 18.4131 69.5612 18.4131 68.9621V67.7216C18.4131 67.2622 18.7349 66.7055 19.1328 66.4769L22.0647 64.7834C22.2637 64.6691 22.4436 64.6585 22.5728 64.7326Z" fill="#350B00"/>
<path d="M22.2658 68.1301C22.2658 68.4942 22.0118 68.9346 21.6964 69.1166C21.381 69.2987 21.127 69.1526 21.127 68.7885C21.127 68.4244 21.381 67.982 21.6964 67.7999C22.0118 67.6178 22.2658 67.766 22.2658 68.1301Z" fill="#350B00"/>
<path d="M21.1085 72.5593L21.0429 72.5974C20.8862 72.6885 20.7423 72.699 20.6364 72.6377L20.6301 72.6334C20.5856 72.6059 20.5475 72.5636 20.52 72.5085L19.8384 71.1516C19.6267 70.7282 19.5166 70.1969 19.5166 69.5978V68.3573C19.5166 67.8979 19.8384 67.3412 20.2363 67.1126L23.1661 65.4191C23.3651 65.3047 23.5472 65.2942 23.6763 65.3704C23.8054 65.4466 23.8859 65.6075 23.8859 65.834V67.0745C23.8859 67.6757 23.7758 68.3319 23.562 69.003L22.8825 71.1453C22.7893 71.4353 22.584 71.7062 22.3596 71.8375L21.1085 72.5593ZM21.7012 69.1173C22.0167 68.9352 22.2707 68.4949 22.2707 68.1308C22.2707 67.7667 22.0167 67.6185 21.7012 67.8006C21.3858 67.9826 21.1318 68.425 21.1318 68.7892C21.1318 69.1533 21.3858 69.2993 21.7012 69.1173Z" fill="white"/>
<path d="M20.6364 72.6377C20.7423 72.699 20.8862 72.6885 21.0429 72.5974L22.3596 71.8375C22.584 71.7062 22.7893 71.4353 22.8825 71.1453L23.562 69.003C23.7758 68.3319 23.8859 67.6757 23.8859 67.0745V65.834C23.8859 65.6075 23.8054 65.4466 23.6763 65.3704C23.5472 65.2942 23.3651 65.3047 23.1661 65.4191L20.2363 67.1126C19.8384 67.3412 19.5166 67.8979 19.5166 68.3573V69.5978C19.5166 70.1969 19.6267 70.7282 19.8384 71.1516L20.52 72.5085C20.5475 72.5636 20.5856 72.6059 20.6301 72.6334L20.6364 72.6377Z" stroke="#350B00" stroke-width="0.635068" stroke-linecap="round" stroke-linejoin="round"/>
<path d="M21.1034 72.559V73.465C21.5903 73.1834 22.5577 73.0162 22.5577 74.3012C22.5577 76.4794 19.6787 78.2365 19.6787 76.1577" stroke="#350B00" stroke-width="0.635068" stroke-linecap="round" stroke-linejoin="round"/>
<path d="M22.2658 68.1301C22.2658 67.766 22.0118 67.6178 21.6964 67.7999C21.381 67.982 21.127 68.4244 21.127 68.7885C21.127 69.1526 21.381 69.2987 21.6964 69.1166C22.0118 68.9346 22.2658 68.4942 22.2658 68.1301Z" stroke="#350B00" stroke-width="0.635068" stroke-linecap="round" stroke-linejoin="round"/>
<path d="M20.6337 72.637L19.535 72.002C19.4864 71.9744 19.4461 71.93 19.4165 71.8728L18.737 70.5159C18.5232 70.0925 18.4131 69.5612 18.4131 68.9621V67.7216C18.4131 67.2622 18.7349 66.7055 19.1328 66.4769L22.0647 64.7834C22.2637 64.6691 22.4436 64.6585 22.5728 64.7326L23.6736 65.3676" stroke="#350B00" stroke-width="0.635068" stroke-linecap="round" stroke-linejoin="round"/>
<path d="M21.0391 65.7963V45.5101" stroke="#350B00" stroke-width="0.635068" stroke-linecap="round" stroke-linejoin="round"/>
<path d="M55.215 29.3913C54.9779 29.5289 54.7852 29.5331 54.6476 29.4527C54.3153 29.2579 54.3005 28.5615 54.7747 27.9307C58.8624 22.7358 59.9928 20.3225 62.6749 18.7709L67.6602 15.894C67.6602 15.894 67.6729 15.8855 67.6898 15.8771C67.694 15.8728 67.7004 15.8707 67.7089 15.8665C67.7131 15.8644 67.7173 15.8601 67.7216 15.858C67.73 15.8517 67.7406 15.8474 67.7512 15.8411C67.7597 15.8347 67.7703 15.8284 67.783 15.8241C67.7872 15.8199 67.7914 15.8178 67.7957 15.8157C67.8084 15.8072 67.8232 15.7987 67.8422 15.7882C67.6729 15.8855 67.6792 15.8898 67.9163 15.7458C67.9396 15.731 67.965 15.7162 67.9946 15.7014L68.0243 15.6823L68.0709 15.6569C68.0836 15.6484 68.0963 15.64 68.1111 15.6336L68.1534 15.6082L68.4498 15.4368C67.9311 15.7374 67.9798 15.7077 68.6869 15.3013C68.6953 15.2949 68.7038 15.2907 68.7123 15.2865C68.7292 15.2759 68.744 15.2674 68.761 15.2589L68.9684 15.1383C68.2974 15.5257 68.3418 15.5003 69.1166 15.0515L69.2436 14.9795C68.6488 15.3224 68.7991 15.2357 69.6628 14.7361L70.1412 14.4609C69.7728 14.6747 69.9951 14.5413 70.6281 14.1793C70.7106 14.1327 70.7911 14.0862 70.8715 14.0396C70.7106 14.1328 70.8419 14.0565 71.1382 13.8851L72.438 13.1357C73.0477 12.7843 73.2001 12.6954 72.7725 12.9409C73.5684 12.4837 73.7759 12.363 73.2678 12.6552C74.104 12.1746 74.231 12.1005 73.615 12.4562C73.7081 12.4033 73.797 12.3503 73.8796 12.3038C74.6565 11.8613 74.7031 11.8296 74.0468 12.2064C74.068 12.1937 74.0892 12.1831 74.1082 12.1725C74.8428 11.7555 74.8788 11.728 74.2691 12.0794C74.2966 12.0624 74.322 12.0476 74.3474 12.0328C74.9973 11.656 75.0291 11.6391 74.4956 11.946C75.1032 11.5967 75.1434 11.5734 74.7454 11.8021L81.746 7.75879V14.0735L73.9452 18.5782C73.9452 18.5782 73.9431 18.5803 73.9389 18.5803L73.9262 18.5888C73.9262 18.5888 73.9198 18.5888 73.9198 18.593C73.9177 18.5952 73.9135 18.5973 73.9092 18.5994H73.9029C73.8902 18.61 73.8775 18.6163 73.8669 18.6227C73.8415 18.6375 73.8119 18.6544 73.7738 18.6777L73.7632 18.682C73.7462 18.6925 73.7314 18.701 73.7187 18.7095L55.215 29.3913Z" fill="white"/>
<path d="M75.1706 11.5569L75.1431 11.5738C75.069 11.6183 74.7451 11.8024 74.7451 11.8024L75.1706 11.5569Z" fill="white"/>
<path d="M74.7508 11.8034C75.1487 11.5747 75.1085 11.598 74.501 11.9473L74.7508 11.8034Z" fill="white"/>
<path d="M74.5003 11.9469C75.0337 11.64 75.002 11.6569 74.3521 12.0337C74.3267 12.0485 74.3013 12.0633 74.2738 12.0803C74.8834 11.7289 74.8474 11.7564 74.1129 12.1734C74.0938 12.184 74.0726 12.1946 74.0515 12.2073C74.7077 11.8305 74.6611 11.8622 73.8842 12.3047C73.8017 12.3512 73.7128 12.4042 73.6196 12.4571C74.2356 12.1014 74.1086 12.1755 73.2725 12.6561L74.5003 11.9469Z" fill="white"/>
<path d="M73.9513 18.5797C73.9513 18.5797 73.9487 18.5797 73.9487 18.5824H73.9434C73.9434 18.5824 73.9487 18.5797 73.9513 18.5797Z" fill="white"/>
<path d="M73.9494 18.5812C73.9494 18.5812 73.9353 18.5882 73.9307 18.5905L73.9447 18.5812H73.9494Z" fill="white"/>
<path d="M73.9154 18.6C73.9154 18.6 73.8994 18.6091 73.8926 18.6136L73.9085 18.6023H73.9154V18.6Z" fill="white"/>
<path d="M73.9051 18.6016L73.8899 18.6124C73.8899 18.6124 73.8747 18.6189 73.8682 18.6233C73.879 18.6168 73.892 18.6102 73.9051 18.6016Z" fill="white"/>
<path d="M73.2727 12.6557C73.7807 12.3635 73.5733 12.4842 72.7773 12.9415L73.2727 12.6557Z" fill="white"/>
<path d="M72.7764 12.9416C73.204 12.6961 73.0516 12.785 72.4419 13.1364L72.0186 13.3798L72.7764 12.9416Z" fill="white"/>
<path d="M71.1371 13.8853C70.8408 14.0567 70.7095 14.1329 70.8704 14.0398C70.79 14.0864 70.7095 14.1329 70.627 14.1795L71.1371 13.8853Z" fill="white"/>
<path d="M70.146 14.4619L69.875 14.6186C69.911 14.5974 69.9449 14.5783 69.9787 14.5572C70.0359 14.5233 70.0909 14.4937 70.146 14.4619Z" fill="white"/>
<path d="M69.9733 14.5575C69.9394 14.5787 69.9056 14.5977 69.8696 14.6189L69.6621 14.7374C69.7616 14.6803 69.8653 14.621 69.9733 14.5575Z" fill="white"/>
<path d="M69.2442 14.9806L69.1172 15.0526C69.1574 15.0293 69.1997 15.0039 69.2442 14.9806Z" fill="white"/>
<path d="M68.9731 15.1388L68.7656 15.2595C68.8058 15.2362 68.844 15.2129 68.8821 15.1896C68.9117 15.1727 68.9434 15.1557 68.9731 15.1388Z" fill="white"/>
<path d="M68.8809 15.1906C68.8428 15.2138 68.8047 15.2371 68.7645 15.2604C68.7476 15.2689 68.7328 15.2773 68.7158 15.2879C68.7687 15.2562 68.8238 15.2244 68.8809 15.1906Z" fill="white"/>
<path d="M68.4505 15.4381L68.3838 15.4768C68.4053 15.4639 68.4268 15.451 68.4505 15.4381Z" fill="white"/>
<path d="M68.3191 15.5165C68.2746 15.5419 68.2344 15.5652 68.1963 15.5885L68.1582 15.6096C68.2132 15.5779 68.2662 15.5482 68.3191 15.5165Z" fill="white"/>
<path d="M68.1555 15.6089L68.1132 15.6343C68.0983 15.6406 68.0856 15.6491 68.0729 15.6576L68.0264 15.683C68.0687 15.6576 68.1132 15.6343 68.1555 15.6089Z" fill="white"/>
<path d="M68.0279 15.6825L67.9982 15.7015C67.9686 15.7164 67.9432 15.7312 67.9199 15.746L68.0279 15.6825Z" fill="white"/>
<path d="M67.7152 15.8674C67.7152 15.8674 67.699 15.8744 67.6943 15.879L67.7036 15.8721C67.7036 15.8721 67.7105 15.8674 67.7152 15.8674Z" fill="white"/>
<path d="M54.7768 27.9315C54.3026 28.5623 54.3153 29.263 54.6498 29.4535L50.0604 26.8074C49.7259 26.6126 49.7132 25.9141 50.1895 25.2811L54.8657 19.0807C55.8247 17.8106 56.9424 16.7839 58.0876 16.1234L77.1587 5.10925L81.7481 7.7596L70.6302 14.1801C69.9994 14.5464 69.775 14.6755 70.1433 14.4617L69.6649 14.7369C68.8012 15.2343 68.6509 15.3233 69.2458 14.9803C69.2013 15.0036 69.159 15.029 69.1188 15.0523C68.344 15.5011 68.2995 15.5265 68.9706 15.1391C68.9409 15.156 68.9092 15.173 68.8796 15.1899C68.8224 15.2238 68.7674 15.2555 68.7144 15.2873C68.706 15.2915 68.6975 15.2957 68.689 15.3021C67.982 15.7085 67.9333 15.7382 68.4519 15.4376C68.4287 15.4503 68.4075 15.463 68.3863 15.4757C68.3863 15.4757 67.9545 15.7255 67.9185 15.7466C67.6793 15.8863 67.675 15.8863 67.8444 15.789C67.8253 15.7996 67.8105 15.808 67.7978 15.8165C67.7936 15.8186 67.7894 15.8207 67.7851 15.825C67.7724 15.8292 67.7618 15.8355 67.7534 15.8419C67.7428 15.8482 67.7322 15.8525 67.7237 15.8588C67.7195 15.8609 67.7153 15.8652 67.711 15.8673C67.7068 15.8673 67.7047 15.8694 67.7004 15.8715L67.692 15.8779C67.675 15.8863 67.6645 15.8927 67.6623 15.8948L62.6771 18.7717C59.995 20.3234 58.8645 22.7366 54.7768 27.9315Z" fill="white"/>
<path d="M72.0186 13.3791L81.7499 7.75879" stroke="#350B00" stroke-width="0.635068" stroke-linecap="round" stroke-linejoin="round"/>
<path d="M71.373 13.7531L71.8493 13.4779" stroke="#350B00" stroke-width="0.635068" stroke-linecap="round" stroke-linejoin="round"/>
<path d="M70.627 14.1795L71.1371 13.8853" stroke="#350B00" stroke-width="0.635068" stroke-linecap="round" stroke-linejoin="round"/>
<path d="M69.6621 14.7374C69.7616 14.6803 69.8653 14.621 69.9733 14.5575" stroke="#350B00" stroke-width="0.635068" stroke-linecap="round" stroke-linejoin="round"/>
<path d="M68.7158 15.2879C68.7687 15.2562 68.8238 15.2244 68.8809 15.1906" stroke="#350B00" stroke-width="0.635068" stroke-linecap="round" stroke-linejoin="round"/>
<path d="M67.6943 15.879C67.6943 15.879 67.7059 15.8721 67.7152 15.8674" stroke="#350B00" stroke-width="0.635068" stroke-linecap="round" stroke-linejoin="round"/>
<path d="M67.9199 15.746C67.9432 15.7312 67.9686 15.7164 67.9982 15.7015L68.0279 15.6825" stroke="#350B00" stroke-width="0.635068" stroke-linecap="round" stroke-linejoin="round"/>
<path d="M68.0264 15.683L68.0729 15.6576C68.0856 15.6491 68.0983 15.6406 68.1132 15.6343L68.1555 15.6089" stroke="#350B00" stroke-width="0.635068" stroke-linecap="round" stroke-linejoin="round"/>
<path d="M68.3191 15.5165C68.2746 15.5419 68.2344 15.5652 68.1963 15.5885L68.1582 15.6096" stroke="#350B00" stroke-width="0.635068" stroke-linecap="round" stroke-linejoin="round"/>
<path d="M68.4505 15.4381L68.3838 15.4768" stroke="#350B00" stroke-width="0.635068" stroke-linecap="round" stroke-linejoin="round"/>
<path d="M68.9731 15.1388L68.7656 15.2595" stroke="#350B00" stroke-width="0.635068" stroke-linecap="round" stroke-linejoin="round"/>
<path d="M69.2442 14.9806L69.1172 15.0526" stroke="#350B00" stroke-width="0.635068" stroke-linecap="round" stroke-linejoin="round"/>
<path d="M70.146 14.4619L69.875 14.6186" stroke="#350B00" stroke-width="0.635068" stroke-linecap="round" stroke-linejoin="round"/>
<path d="M75.2831 11.4943C75.2831 11.4943 75.281 11.4964 75.2767 11.4985L75.2556 11.5112C75.2556 11.5112 75.2492 11.5154 75.2429 11.5175C75.2429 11.5175 75.2831 11.4943 75.2048 11.5387L75.2005 11.543L75.1709 11.5578" stroke="#350B00" stroke-width="0.635068" stroke-linecap="round" stroke-linejoin="round"/>
<path d="M69.875 14.6179C69.911 14.5967 69.9449 14.5777 69.9787 14.5565C70.0359 14.5227 70.0909 14.493 70.146 14.4613C69.7776 14.6751 69.9999 14.5417 70.6328 14.1797C70.7154 14.1331 70.7958 14.0866 70.8763 14.04C70.7154 14.1331 70.8467 14.0569 71.143 13.8855L72.4428 13.1361C73.0525 12.7847 73.2049 12.6958 72.7773 12.9413C73.5732 12.4841 73.7807 12.3634 73.2726 12.6556C74.1088 12.175 74.2358 12.1009 73.6198 12.4566C73.7129 12.4036 73.8018 12.3507 73.8844 12.3041C74.6613 11.8617 74.7079 11.83 74.0516 12.2068C74.0728 12.1941 74.094 12.1835 74.113 12.1729C74.8476 11.7559 74.8836 11.7284 74.2739 12.0798C74.3014 12.0628 74.3268 12.048 74.3522 12.0332C75.0021 11.6564 75.0339 11.6394 74.5004 11.9464C75.108 11.5971 75.1482 11.5738 74.7502 11.8024L75.1757 11.5569" stroke="#350B00" stroke-width="0.635068" stroke-linecap="round" stroke-linejoin="round"/>
<path d="M69.8696 14.6187L69.6621 14.7372" stroke="#350B00" stroke-width="0.635068" stroke-linecap="round" stroke-linejoin="round"/>
<path d="M68.3833 15.4749C68.4045 15.4622 68.4256 15.4495 68.4489 15.4368C67.9303 15.7374 67.979 15.7077 68.686 15.3013C68.6945 15.2949 68.7029 15.2907 68.7114 15.2865C68.7283 15.2759 68.7432 15.2674 68.7601 15.259C68.8003 15.2357 68.8384 15.2124 68.8765 15.1891C68.9062 15.1722 68.9379 15.1552 68.9676 15.1383C68.2965 15.5257 68.341 15.5003 69.1157 15.0515C69.156 15.0282 69.1983 15.0028 69.2427 14.9795C68.6479 15.3225 68.7982 15.2357 69.6619 14.7361" stroke="#350B00" stroke-width="0.635068" stroke-linecap="round" stroke-linejoin="round"/>
<path d="M68.3854 15.4757L68.3145 15.5166" stroke="#350B00" stroke-width="0.635068" stroke-linecap="round" stroke-linejoin="round"/>
<path d="M67.7129 15.8679C67.7129 15.8679 67.7214 15.8615 67.7256 15.8594C67.7341 15.8531 67.7446 15.8488 67.7552 15.8425C67.7637 15.8361 67.7743 15.8298 67.787 15.8255C67.7912 15.8213 67.7955 15.8192 67.7997 15.8171C67.8124 15.8086 67.8272 15.8001 67.8463 15.7896C67.6769 15.8869 67.6811 15.8869 67.9203 15.7472C67.9563 15.7261 67.9923 15.7049 68.0283 15.6837C68.0706 15.6583 68.1151 15.635 68.1574 15.6096C68.2125 15.5779 68.2654 15.5482 68.3183 15.5165" stroke="#350B00" stroke-width="0.635068" stroke-linecap="round" stroke-linejoin="round"/>
<path d="M67.7152 15.8674C67.7152 15.8674 67.7082 15.8697 67.7036 15.8721L67.6943 15.879" stroke="#350B00" stroke-width="0.635068" stroke-linecap="round" stroke-linejoin="round"/>
<path d="M54.6485 29.454C54.314 29.2635 54.3013 28.5628 54.7755 27.932C58.8632 22.7371 59.9936 20.3239 62.6757 18.7722L67.661 15.8954C67.661 15.8954 67.6737 15.8869 67.6907 15.8784" stroke="#350B00" stroke-width="0.635068" stroke-linecap="round" stroke-linejoin="round"/>
<path d="M73.9154 18.6C73.9154 18.6 73.8994 18.6091 73.8926 18.6136" stroke="#350B00" stroke-width="0.635068" stroke-linecap="round" stroke-linejoin="round"/>
<path d="M73.9513 18.5797C73.9513 18.5797 73.9487 18.5824 73.9434 18.5824H73.9513V18.5797Z" stroke="#350B00" stroke-width="0.635068" stroke-linecap="round" stroke-linejoin="round"/>
<path d="M73.9307 18.5905L73.9447 18.5812H73.9494L73.9307 18.5905Z" stroke="#350B00" stroke-width="0.635068" stroke-linecap="round" stroke-linejoin="round"/>
<path d="M73.8926 18.6126L73.9081 18.6016" stroke="#350B00" stroke-width="0.635068" stroke-linecap="round" stroke-linejoin="round"/>
<path d="M73.8909 18.6125C73.8909 18.6125 73.875 18.6194 73.8682 18.6239" stroke="#350B00" stroke-width="0.635068" stroke-linecap="round" stroke-linejoin="round"/>
<path d="M73.9066 18.6016C73.8939 18.61 73.8812 18.6164 73.8706 18.6227C73.8452 18.6375 73.8156 18.6545 73.7775 18.6778L73.7669 18.682C73.75 18.6926 73.7351 18.7011 73.7224 18.7095L55.2187 29.3914C54.9816 29.529 54.789 29.5353 54.6514 29.4528" stroke="#350B00" stroke-width="0.635068" stroke-linecap="round" stroke-linejoin="round"/>
<path d="M73.9053 18.6026L73.9132 18.6" stroke="#350B00" stroke-width="0.635068" stroke-linecap="round" stroke-linejoin="round"/>
<path d="M81.7479 7.75879V14.0735L73.9471 18.5782C73.9471 18.5782 73.945 18.5782 73.945 18.5803C73.9387 18.5803 73.9323 18.5867 73.9281 18.5888C73.9238 18.5909 73.9217 18.5888 73.9217 18.593C73.9196 18.5952 73.9154 18.5973 73.9111 18.5994" stroke="#350B00" stroke-width="0.635068" stroke-linecap="round" stroke-linejoin="round"/>
<path d="M81.7481 7.7596L77.1587 5.10925L58.0876 16.1234C56.9424 16.7839 55.8247 17.8106 54.8657 19.0807L50.1895 25.2811C49.7132 25.9141 49.7259 26.6126 50.0604 26.8074L54.6498 29.4556" stroke="#350B00" stroke-width="0.635068" stroke-linecap="round" stroke-linejoin="round"/>
<path d="M81.755 7.75708L76.2871 17.2281" stroke="#350B00" stroke-width="0.635068" stroke-linecap="round" stroke-linejoin="round"/>
<path d="M75.8761 17.466L70.4082 14.3097" stroke="#350B00" stroke-width="0.635068" stroke-linecap="round" stroke-linejoin="round"/>
<path d="M69.9453 14.5746L64.4795 24.0434" stroke="#350B00" stroke-width="0.635068" stroke-linecap="round" stroke-linejoin="round"/>
<path d="M70.3828 20.6376L75.8507 11.1666" stroke="#350B00" stroke-width="0.635068" stroke-linecap="round" stroke-linejoin="round"/>
<path d="M76.3057 10.9017L81.7736 14.058" stroke="#350B00" stroke-width="0.635068" stroke-linecap="round" stroke-linejoin="round"/>
<path d="M69.9718 20.8723L64.5039 17.7161" stroke="#350B00" stroke-width="0.635068" stroke-linecap="round" stroke-linejoin="round"/>
<path d="M63.5498 25.437V94.291L55.2559 99.0794V30.2275L63.5498 25.437Z" fill="white"/>
<path d="M63.5518 25.4371L55.2578 30.2276L46.9639 25.4371L55.2578 20.6487L63.5518 25.4371Z" fill="white"/>
<path d="M55.2579 30.2275V99.0794L46.9639 94.291V25.437L55.2579 30.2275Z" fill="#E59636"/>
<path d="M46.9639 25.4371L55.2579 20.6487L63.5518 25.4371L55.2579 30.2276L46.9639 25.4371Z" stroke="#350B00" stroke-width="0.635068" stroke-linecap="round" stroke-linejoin="round"/>
<path d="M55.2559 30.2269V99.0788" stroke="#350B00" stroke-width="0.635068" stroke-linecap="round" stroke-linejoin="round"/>
<path d="M46.9639 25.437V94.291L55.2579 99.0794L63.5518 94.291V25.437" stroke="#350B00" stroke-width="0.635068" stroke-linecap="round" stroke-linejoin="round"/>
<path d="M55.2461 33.8181L63.5401 38.6065" stroke="#350B00" stroke-width="0.635068" stroke-linecap="round" stroke-linejoin="round"/>
<path d="M55.2461 43.3971L63.5401 29.0298" stroke="#350B00" stroke-width="0.635068" stroke-linecap="round" stroke-linejoin="round"/>
<path d="M55.2461 42.9912L63.5401 47.7796" stroke="#350B00" stroke-width="0.635068" stroke-linecap="round" stroke-linejoin="round"/>
<path d="M55.2461 52.5702L63.5401 38.2029" stroke="#350B00" stroke-width="0.635068" stroke-linecap="round" stroke-linejoin="round"/>
<path d="M55.2461 52.1624L63.5401 56.9508" stroke="#350B00" stroke-width="0.635068" stroke-linecap="round" stroke-linejoin="round"/>
<path d="M55.2461 61.7414L63.5401 47.374" stroke="#350B00" stroke-width="0.635068" stroke-linecap="round" stroke-linejoin="round"/>
<path d="M55.2461 61.3353L63.5401 66.1237" stroke="#350B00" stroke-width="0.635068" stroke-linecap="round" stroke-linejoin="round"/>
<path d="M55.2461 70.9143L63.5401 56.547" stroke="#350B00" stroke-width="0.635068" stroke-linecap="round" stroke-linejoin="round"/>
<path d="M55.2461 70.5084L63.5401 75.2968" stroke="#350B00" stroke-width="0.635068" stroke-linecap="round" stroke-linejoin="round"/>
<path d="M55.2461 80.0874L63.5401 65.7201" stroke="#350B00" stroke-width="0.635068" stroke-linecap="round" stroke-linejoin="round"/>
<path d="M55.2461 79.6796L63.5401 84.468" stroke="#350B00" stroke-width="0.635068" stroke-linecap="round" stroke-linejoin="round"/>
<path d="M55.2461 89.2586L63.5401 74.8912" stroke="#350B00" stroke-width="0.635068" stroke-linecap="round" stroke-linejoin="round"/>
<path d="M55.2461 88.8527L63.5401 93.6411" stroke="#350B00" stroke-width="0.635068" stroke-linecap="round" stroke-linejoin="round"/>
<path d="M55.2461 98.4317L63.5401 84.0643" stroke="#350B00" stroke-width="0.635068" stroke-linecap="round" stroke-linejoin="round"/>
<path d="M69.3728 9.82895V27.1726C69.3728 29.1054 68.018 31.4572 66.3415 32.4225L55.4141 38.733C54.5737 39.2178 53.8158 39.2601 53.2718 38.9447L53.2294 38.9193C52.6494 38.5594 52.3213 37.7846 52.3911 36.6987L52.9796 27.8712C53.4432 20.9151 58.2782 12.9683 64.0891 9.61303L66.5447 8.19471C67.3258 7.74381 68.035 7.70148 68.5451 7.99784C69.0553 8.29421 69.3728 8.92716 69.3728 9.82895ZM66.0324 20.932V13.2816C66.0324 12.7651 65.6704 12.5555 65.2237 12.8159L64.0891 13.47C60.0204 15.8176 56.6313 21.3851 56.3074 26.256L56.2926 26.4804C56.2566 27.0477 56.6292 27.2975 57.1033 27.0245L65.2237 22.3355C65.6704 22.0773 66.0324 21.4486 66.0324 20.932Z" fill="#E59636"/>
<path d="M56.3531 0.958822L68.5464 7.99749C68.0363 7.70112 67.3271 7.74346 66.546 8.19436L64.0904 9.61268C58.2795 12.9679 53.4445 20.9148 52.9809 27.8709L52.3924 36.6983C52.3226 37.7843 52.6507 38.5591 53.2307 38.9189L41.0798 31.9057C40.4764 31.5564 40.1272 30.771 40.2012 29.6575L40.7876 20.8322C41.2512 13.8761 46.0883 5.92717 51.8992 2.57189L54.3548 1.15569C55.1359 0.704795 55.843 0.66034 56.3531 0.958822ZM56.8866 12.5425L49.198 8.04618C45.9973 11.5433 43.6518 16.4735 43.33 20.9084L50.7582 25.2523C51.5965 20.7623 53.8552 16.1687 56.8866 12.5425Z" fill="white"/>
<path d="M66.0352 13.2814V20.9318C66.0352 21.4484 65.6732 22.0771 65.2265 22.3353L57.1061 27.0243C56.632 27.2973 56.2594 27.0475 56.2954 26.4802L56.3102 26.2558C56.6341 21.3849 60.0232 15.8174 64.0919 13.4698L65.2265 12.8157C65.6732 12.5553 66.0352 12.7649 66.0352 13.2814Z" fill="#350B00"/>
<path d="M49.1991 8.04553L56.8876 12.5418C53.8562 16.168 51.5975 20.7617 50.7592 25.2516L43.3311 20.9078C43.6528 16.4729 45.9983 11.5426 49.1991 8.04553Z" fill="#D7DCE0"/>
<path d="M53.2294 38.9193C52.6494 38.5594 52.3213 37.7846 52.3911 36.6987L52.9796 27.8712C53.4432 20.9151 58.2782 12.9683 64.0891 9.61303L66.5447 8.19471C67.3258 7.74381 68.035 7.70148 68.5451 7.99784C69.0553 8.29421 69.3728 8.92716 69.3728 9.82895V27.1726C69.3728 29.1054 68.018 31.4572 66.3415 32.4225L55.4141 38.733C54.5737 39.2178 53.8158 39.2601 53.2718 38.9447" stroke="#350B00" stroke-width="0.635068" stroke-linecap="round" stroke-linejoin="round"/>
<path d="M66.0352 20.9318V13.2814C66.0352 12.7649 65.6732 12.5553 65.2265 12.8157L64.0919 13.4698C60.0232 15.8174 56.6341 21.3849 56.3102 26.2558L56.2954 26.4802C56.2594 27.0475 56.632 27.2973 57.1061 27.0243L65.2265 22.3353C65.6732 22.0771 66.0352 21.4484 66.0352 20.9318Z" stroke="#350B00" stroke-width="0.635068" stroke-linecap="round" stroke-linejoin="round"/>
<path d="M53.2731 38.9443L41.0798 31.9057C40.4764 31.5564 40.1272 30.771 40.2012 29.6575L40.7876 20.8322C41.2512 13.8761 46.0883 5.92717 51.8992 2.57189L54.3548 1.15569C55.1359 0.704795 55.843 0.66034 56.3531 0.958822L68.5464 7.99749" stroke="#350B00" stroke-width="0.635068" stroke-linecap="round" stroke-linejoin="round"/>
<path d="M43.3311 20.9078L50.7592 25.2516C51.5975 20.7617 53.8562 16.168 56.8876 12.5418L49.1991 8.04553C45.9983 11.5426 43.6528 16.4729 43.3311 20.9078Z" stroke="#350B00" stroke-width="0.635068" stroke-linecap="round" stroke-linejoin="round"/>
<path d="M5.71302 57.9665C5.47592 58.1041 5.28329 58.1083 5.14569 58.0279C4.81334 57.8332 4.79852 57.1367 5.2727 56.5059C5.2727 56.5059 10.3046 49.8525 10.4887 49.6387C11.3164 48.6734 12.2352 47.888 13.1729 47.3461L48.7452 26.808V33.1227L5.71302 57.9665Z" fill="white"/>
<path d="M48.7433 26.8082L43.2754 36.2792" stroke="#350B00" stroke-width="0.635068" stroke-linecap="round" stroke-linejoin="round"/>
<path d="M42.8682 36.5157L37.4023 33.3594" stroke="#350B00" stroke-width="0.635068" stroke-linecap="round" stroke-linejoin="round"/>
<path d="M36.9394 33.6272L31.4736 43.0939" stroke="#350B00" stroke-width="0.635068" stroke-linecap="round" stroke-linejoin="round"/>
<path d="M37.3779 39.6882L42.8459 30.2194" stroke="#350B00" stroke-width="0.635068" stroke-linecap="round" stroke-linejoin="round"/>
<path d="M43.3008 29.9514L48.7687 33.1077" stroke="#350B00" stroke-width="0.635068" stroke-linecap="round" stroke-linejoin="round"/>
<path d="M36.9689 39.9242L31.501 36.7679" stroke="#350B00" stroke-width="0.635068" stroke-linecap="round" stroke-linejoin="round"/>
<path d="M31.0646 43.3291L25.5967 40.1729" stroke="#350B00" stroke-width="0.635068" stroke-linecap="round" stroke-linejoin="round"/>
<path d="M25.1396 40.4392L19.6738 49.9081" stroke="#350B00" stroke-width="0.635068" stroke-linecap="round" stroke-linejoin="round"/>
<path d="M25.5781 46.5001L31.0439 37.0312" stroke="#350B00" stroke-width="0.635068" stroke-linecap="round" stroke-linejoin="round"/>
<path d="M19.2658 50.147L13.7979 46.9907" stroke="#350B00" stroke-width="0.635068" stroke-linecap="round" stroke-linejoin="round"/>
<path d="M13.7725 53.3185L19.2404 43.8475" stroke="#350B00" stroke-width="0.635068" stroke-linecap="round" stroke-linejoin="round"/>
<path d="M19.7012 43.5828L25.1691 46.7391" stroke="#350B00" stroke-width="0.635068" stroke-linecap="round" stroke-linejoin="round"/>
<path d="M13.3312 47.2576L7.86328 56.7264" stroke="#350B00" stroke-width="0.635068" stroke-linecap="round" stroke-linejoin="round"/>
<path d="M9.29883 51.2124L13.359 53.5558" stroke="#350B00" stroke-width="0.635068" stroke-linecap="round" stroke-linejoin="round"/>
<path d="M5.27487 56.5067C4.80068 57.1375 4.81338 57.8382 5.14785 58.0287L0.558431 55.3826C0.223963 55.1878 0.211261 54.4893 0.687562 53.8563L5.36378 47.6559C6.32273 46.3858 7.44045 45.3591 8.58569 44.6986L44.1579 24.1584L48.7474 26.8088L13.1751 47.3469C12.2373 47.8888 11.3186 48.6742 10.4909 49.6395C10.3067 49.8533 10.1289 50.0756 9.9532 50.3042L5.27487 56.5067Z" fill="white"/>
<path d="M48.7452 26.808V33.1227L5.71302 57.9665C5.47592 58.1041 5.28329 58.1083 5.14569 58.0279C4.81334 57.8332 4.79852 57.1367 5.2727 56.5059C5.2727 56.5059 10.3046 49.8525 10.4887 49.6387C11.3164 48.6734 12.2352 47.888 13.1729 47.3461L48.7452 26.808Z" stroke="#350B00" stroke-width="0.635068" stroke-linecap="round" stroke-linejoin="round"/>
<path d="M48.7474 26.8088L44.1579 24.1584L8.58569 44.6986C7.44045 45.3591 6.32273 46.3858 5.36378 47.6559L0.687562 53.8563C0.211261 54.4893 0.223963 55.1878 0.558431 55.3826L5.14785 58.0308" stroke="#350B00" stroke-width="0.635068" stroke-linecap="round" stroke-linejoin="round"/>
<path d="M30.2457 91.0615V105.67C30.2457 106.193 30.0657 106.555 29.7863 106.699L28.0462 107.554C28.3214 107.406 28.4971 107.044 28.4971 106.527V91.9188C28.4971 90.9937 27.934 89.9183 27.2397 89.5183L13.0777 81.3428C12.7898 81.1777 12.5252 81.1523 12.3135 81.2454L14.026 80.405C14.2441 80.2907 14.5214 80.3098 14.8241 80.4834L28.9861 88.6588C29.6805 89.0589 30.2435 90.1343 30.2435 91.0593L30.2457 91.0615Z" fill="#350B00"/>
<path d="M28.499 91.9204V106.529C28.499 107.046 28.3233 107.406 28.0481 107.556L28.0417 107.56C27.8237 107.672 27.5464 107.655 27.2437 107.48L13.0817 99.3042C12.3873 98.9041 11.8242 97.8287 11.8242 96.9036V82.2949C11.8242 81.7742 12.002 81.4122 12.2836 81.2661L12.3175 81.2492C12.5291 81.156 12.7938 81.1793 13.0817 81.3466L27.2437 89.522C27.938 89.9221 28.5011 90.9975 28.5011 91.9226L28.499 91.9204Z" fill="white"/>
<path d="M21.0873 94.154L21.0701 94.1276C20.5684 93.5885 19.8073 92.7666 19.7668 92.7149C19.7333 92.6672 19.6978 92.6176 18.7857 92.7676L18.735 92.7757L18.207 94.155L18.8861 96.4069L20.7387 96.8539L21.8109 95.9022L21.0873 94.153V94.154Z" fill="#350B00"/>
<path d="M19.183 95.7583L20.9464 94.756L21.4298 96.8275L19.7475 97.0849L18.959 96.3329L19.183 95.7583Z" fill="#E59636"/>
<path d="M19.718 97.1792L18.8535 96.3552L19.1109 95.6955L21.0061 94.6182L21.5392 96.8995L19.718 97.1782V97.1792ZM19.0633 96.3086L19.7778 96.9887L21.3213 96.7525L20.8865 94.8918L19.2548 95.8191L19.0643 96.3076L19.0633 96.3086Z" fill="#350B00"/>
<path d="M20.1914 97.3141L19.2742 96.6938L19.0928 97.7286V100.748L19.182 100.8L20.1954 100.201L20.1914 97.3141Z" fill="#350B00"/>
<path d="M23.9095 95.9357C23.9095 95.0266 23.6642 94.1824 23.1727 93.4061C22.6812 92.6287 21.9464 91.9578 20.9684 91.3923L18.2868 89.8438L17.0889 90.541L19.7705 92.0896C20.7495 92.6551 21.4843 93.326 21.9748 94.1033C22.4653 94.8807 22.7116 95.7239 22.7116 96.6329C22.7116 97.542 22.4795 98.1856 22.0224 98.4592V98.4643L23.2153 97.7701V97.766C23.6764 97.4934 23.9095 96.8863 23.9095 95.9357Z" fill="#E59636"/>
<path d="M20.6669 95.1938C20.6689 95.208 19.8115 95.7148 19.8115 95.7148C19.8115 95.7148 20.3274 96.0371 20.7196 95.8485C21.1118 95.66 20.9284 95.2678 20.9284 95.2678L20.6669 95.1938Z" fill="white"/>
<path d="M22.7106 96.6339C22.7106 97.6332 22.4552 98.2585 21.9444 98.5078C21.4336 98.7581 20.709 98.6112 19.7695 98.069L19.1817 97.7294V100.697L17.0889 99.4888V90.543L19.7705 92.0915C20.7495 92.6571 21.4843 93.328 21.9748 94.1053C22.4653 94.8826 22.7116 95.7258 22.7116 96.6349L22.7106 96.6339ZM19.1817 95.7593L19.5627 95.9792C19.8769 96.1606 20.1272 96.2032 20.3127 96.1059C20.4982 96.0086 20.5914 95.7816 20.5914 95.4218C20.5914 94.8178 20.3015 94.3485 19.7218 94.0141L19.1817 93.7019V95.7583V95.7593Z" fill="#E59636"/>
<path d="M21.5162 94.3597L22.7162 93.6635C22.1496 93.0138 21.8912 92.573 20.9548 92.0338L18.2731 90.4852L17.0742 91.1825L19.7558 92.7311C20.592 93.2733 20.97 93.7739 21.5162 94.3597Z" fill="white"/>
<path d="M19.7668 93.9371L19.0918 93.548V95.81L19.5175 96.0563C19.7353 96.182 19.9299 96.2458 20.0961 96.2458C20.1904 96.2458 20.2765 96.2255 20.3536 96.185C20.5694 96.0715 20.6799 95.8151 20.6799 95.4219C20.6799 94.7864 20.3728 94.2868 19.7658 93.9371H19.7668ZM20.2715 96.0269C20.1154 96.108 19.8924 96.0664 19.6077 95.9012L19.2712 95.7067V93.8571L19.6776 94.0922C20.233 94.4125 20.5025 94.8472 20.5025 95.4219C20.5025 95.7431 20.4255 95.9468 20.2725 96.0269H20.2715Z" fill="#350B00"/>
<path d="M23.999 95.9357C23.999 95.0134 23.7466 94.1459 23.249 93.3574C22.7524 92.572 21.9994 91.8838 21.0133 91.3143L18.2871 89.7404L17 90.4903V99.5385L19.183 100.799L19.2722 100.747V97.8825L19.7262 98.145C20.6698 98.6903 21.4177 98.8413 21.9518 98.6001L23.2612 97.8481L23.3179 97.8096V97.8075C23.7699 97.5025 24 96.8731 24 95.9357H23.999ZM18.2871 89.9471L20.9231 91.4693C21.8849 92.0247 22.6156 92.6916 23.097 93.4527C23.2916 93.7608 23.4456 94.0831 23.5622 94.4145L22.5112 94.9871C22.3937 94.6658 22.2396 94.3536 22.0501 94.0547C21.5535 93.2692 20.8005 92.5811 19.8144 92.0115L17.2655 90.54L18.2871 89.9471ZM22.1251 98.2717C22.0785 98.3143 22.0288 98.3508 21.9751 98.3832C21.9518 98.3974 21.9305 98.4146 21.9062 98.4268C21.4268 98.6619 20.7225 98.5149 19.8144 97.991L19.0918 97.5744V100.542L17.1774 99.4362V90.6961L19.7242 92.1666C20.686 92.722 21.4167 93.3888 21.8981 94.1499C22.3774 94.909 22.6207 95.7441 22.6207 96.6319C22.6207 96.7475 22.6166 96.8579 22.6095 96.9633C22.6065 97.015 22.5994 97.0626 22.5943 97.1123C22.5893 97.162 22.5852 97.2136 22.5781 97.2613C22.569 97.3241 22.5558 97.3819 22.5437 97.4396C22.5376 97.468 22.5325 97.4974 22.5264 97.5248C22.5102 97.5896 22.491 97.6504 22.4707 97.7092C22.4656 97.7254 22.4605 97.7417 22.4555 97.7579C22.4322 97.8207 22.4048 97.8795 22.3764 97.9342C22.3724 97.9423 22.3683 97.9514 22.3643 97.9585C22.3329 98.0163 22.2984 98.07 22.2619 98.1187C22.2599 98.1217 22.2568 98.1258 22.2548 98.1288C22.2153 98.1795 22.1737 98.2261 22.1281 98.2676C22.1281 98.2676 22.1261 98.2697 22.1251 98.2707V98.2717Z" fill="#350B00"/>
<path d="M18.981 90.2897L17.0889 89.1972V87.6973L22.7227 90.8491V92.3491L21.0748 91.4978" fill="#E59636"/>
<path d="M17.0889 87.6971L18.1631 87.1042L23.797 90.2551L22.7227 90.849L17.0889 87.6971Z" fill="#E59636"/>
<path d="M17.0889 88.3399L18.1631 87.746L23.797 90.8978L22.7227 91.4917L17.0889 88.3399Z" fill="white"/>
<path d="M22.7393 92.4281L23.8865 91.8069V90.2036L23.7973 90.1519L18.1635 87L17.0892 87.5939L17 87.6456V89.2489L18.8921 90.3414M18.1635 87.2067L23.6189 90.2552L22.723 90.7458L17.2686 87.6973L18.1645 87.2067H18.1635ZM19.0705 90.238L17.1784 89.1455V87.8523L22.6328 90.9008V92.1241" fill="#350B00"/>
<path d="M12.3193 81.246C12.531 81.1529 12.7956 81.1762 13.0835 81.3434L27.2455 89.5188C27.9399 89.9189 28.503 90.9943 28.503 91.9194V106.528C28.503 107.045 28.3273 107.404 28.0521 107.555" stroke="#350B00" stroke-width="0.635068" stroke-linecap="round" stroke-linejoin="round"/>
<path d="M28.0417 107.558C27.8237 107.67 27.5464 107.653 27.2437 107.477L13.0817 99.3018C12.3873 98.9017 11.8242 97.8264 11.8242 96.9013V82.2926C11.8242 81.7719 12.002 81.4099 12.2836 81.2638" stroke="#350B00" stroke-width="0.635068" stroke-linecap="round" stroke-linejoin="round"/>
<path d="M12.2822 81.2624L14.0287 80.405C14.2467 80.2907 14.524 80.3098 14.8267 80.4834L28.9887 88.6588C29.6831 89.0589 30.2462 90.1343 30.2462 91.0593V105.668C30.2462 106.191 30.0662 106.553 29.7868 106.697L28.0404 107.556" stroke="#350B00" stroke-width="0.635068" stroke-linecap="round" stroke-linejoin="round"/>
<path d="M15.6279 81.957C17.1563 80.3355 18.0115 79.2876 20.6534 76.2541C20.7572 76.197 20.9223 76.2922 21.0281 76.47C23.5007 82.3719 26.0536 87.9753 26.0536 87.9753" stroke="#350B00" stroke-width="0.635068" stroke-linecap="round" stroke-linejoin="round"/>
<path d="M46.2865 92.1215C47.6837 92.1215 48.8183 93.254 48.8183 94.6511C48.8183 96.0483 47.6858 97.1829 46.2865 97.1829C44.8873 97.1829 43.7568 96.0504 43.7568 94.6511C43.7568 93.2519 44.8894 92.1215 46.2865 92.1215Z" fill="white"/>
<path d="M48.8183 94.6511C48.8183 93.254 47.6858 92.1215 46.2865 92.1215C44.8873 92.1215 43.7568 93.254 43.7568 94.6511C43.7568 96.0483 44.8894 97.1829 46.2865 97.1829C47.6837 97.1829 48.8183 96.0504 48.8183 94.6511Z" stroke="#350B00" stroke-width="0.635068" stroke-linecap="round" stroke-linejoin="round"/>
</g>
<path d="M102.82 96.0772C102.82 96.7997 102.383 97.4895 101.492 98.0016L90.4347 104.387C88.4646 105.523 85.0266 105.382 82.7563 104.07L69.8492 96.6203C68.6064 95.9026 67.9688 94.9844 67.9688 94.1119C67.9688 93.391 68.4058 92.7011 69.2963 92.1874L77.5194 87.4414V92.9898C77.5194 94.0238 78.2436 95.2796 79.139 95.7966L83.5245 98.3262C83.9991 98.6002 84.4248 98.6247 84.733 98.4469L91.8618 94.3337C92.2271 94.1217 92.4261 93.6291 92.3446 92.9327L91.6335 88.1982L96.3778 90.9381V91.0718C96.3778 91.9901 96.9356 92.4141 97.6271 92.0145L97.9354 91.8351L100.94 93.5721C102.182 94.2897 102.82 95.2079 102.82 96.0788V96.0772Z" fill="#DAE0E5"/>
<path d="M112.005 70.6379V74.8278C112.005 75.7476 111.445 76.8142 110.757 77.2122L97.6282 84.7927C96.9367 85.1923 96.3789 84.7682 96.3789 83.85V79.6602C96.3789 78.742 96.9367 77.6753 97.6282 77.2758L110.757 69.6952C111.445 69.2989 112.005 69.7197 112.005 70.6379ZM109.658 74.1623C109.658 73.8166 109.501 73.6094 109.278 73.6094C109.203 73.6094 109.116 73.6339 109.03 73.6845L107.671 74.4689C107.324 74.6696 107.044 75.2094 107.044 75.6726C107.044 76.02 107.2 76.2255 107.422 76.2255C107.499 76.2255 107.583 76.2026 107.671 76.1504L109.03 75.3643C109.377 75.1637 109.658 74.6271 109.658 74.1623ZM104.473 77.8727C104.935 77.2953 105.096 76.5223 104.827 76.1406C104.561 75.7606 103.969 75.9188 103.508 76.4962C103.044 77.0735 102.885 77.8466 103.152 78.2266C103.418 78.6082 104.01 78.4484 104.473 77.8727ZM101.342 78.9638C101.342 78.618 101.185 78.4109 100.962 78.4109C100.885 78.4109 100.799 78.4354 100.712 78.4875L99.3553 79.2704C99.008 79.471 98.7258 80.0092 98.7258 80.474C98.7258 80.8198 98.8824 81.0269 99.1042 81.0269C99.1825 81.0269 99.2673 81.0024 99.3553 80.9502L100.712 80.1674C101.06 79.9668 101.342 79.427 101.342 78.9638Z" fill="#E59636"/>
<path d="M109.274 73.609C109.498 73.609 109.654 73.8161 109.654 74.1619C109.654 74.6251 109.374 75.1633 109.027 75.3639L107.668 76.15C107.58 76.2022 107.495 76.225 107.418 76.225C107.197 76.225 107.04 76.0195 107.04 75.6721C107.04 75.2089 107.321 74.6691 107.668 74.4685L109.027 73.684C109.113 73.6335 109.199 73.609 109.274 73.609Z" fill="#350B00"/>
<path d="M104.827 76.1388C105.097 76.5205 104.937 77.2935 104.474 77.8709C104.01 78.4466 103.418 78.6048 103.152 78.2248C102.885 77.8448 103.043 77.0717 103.508 76.4944C103.97 75.917 104.562 75.7604 104.827 76.1388Z" fill="#350B00"/>
<path d="M102.82 88.8567V93.4739C102.82 94.1964 102.383 94.8863 101.492 95.3984L90.4347 101.783C88.4646 102.92 85.0266 102.778 82.7563 101.467L69.8492 94.017C68.6064 93.2994 67.9688 92.3812 67.9688 91.5103V86.8915C67.9688 87.764 68.6064 88.6806 69.8492 89.3998L82.7547 96.8499C85.0266 98.1612 88.463 98.3047 90.4331 97.1663L101.491 90.7812C102.381 90.2691 102.818 89.5792 102.818 88.8567H102.82Z" fill="#350B00"/>
<path d="M102.82 88.8571C102.82 89.5796 102.383 90.2694 101.492 90.7816L90.4347 97.1666C88.4646 98.3034 85.0266 98.1615 82.7563 96.8502L69.8492 89.4002C68.6064 88.6826 67.9688 87.7643 67.9688 86.8918C67.9688 86.1709 68.4058 85.481 69.2963 84.9673L77.5194 80.2213V85.7697C77.5194 86.8037 78.2436 88.0595 79.139 88.5765L83.5245 91.1061C83.9991 91.3801 84.4248 91.4046 84.733 91.2268L91.8618 87.1136C92.2271 86.9016 92.4261 86.409 92.3446 85.7126L91.6335 80.9781L96.3778 83.718V83.8518C96.3778 84.77 96.9356 85.194 97.6271 84.7944L97.9354 84.615L100.94 86.352C102.182 87.0696 102.82 87.9878 102.82 88.8587V88.8571Z" fill="#E59636"/>
<path d="M102.256 74.6003L99.5175 76.1823L97.3304 74.9167H97.3288L96.267 74.3051C96.2083 74.2708 96.1578 74.2219 96.1137 74.1599C95.8479 73.7783 96.0044 73.0069 96.4676 72.4295C96.8558 71.9468 97.3336 71.7576 97.637 71.9321L102.257 74.6003H102.256Z" fill="#C2C7CC"/>
<path d="M100.96 78.4115C101.183 78.4115 101.34 78.6186 101.34 78.9644C101.34 79.4276 101.057 79.9674 100.71 80.168L99.3532 80.9508C99.2651 81.003 99.1803 81.0275 99.102 81.0275C98.8802 81.0275 98.7236 80.8204 98.7236 80.4746C98.7236 80.0114 99.0058 79.4716 99.3532 79.271L100.71 78.4882C100.797 78.436 100.883 78.4115 100.96 78.4115Z" fill="#350B00"/>
<path d="M99.7528 71.1173C99.8767 71.8953 99.8213 72.5639 99.6256 73.0809L97.6391 71.9328C97.3374 71.7583 96.8579 71.9474 96.4697 72.4302C96.0082 73.0075 95.8516 73.779 96.1158 74.1606C96.1582 74.2226 96.2088 74.2715 96.2691 74.3058L97.3309 74.9174L92.4805 77.7177C93.1932 77.2626 93.5406 76.2205 93.3204 74.8309L93.2177 74.1916C92.8589 71.9279 91.1219 69.5973 89.3426 68.9841L75.5808 64.2658C74.9317 64.0423 74.3674 64.0782 73.9287 64.3245L80.3431 60.6223C80.7835 60.3679 81.3559 60.3271 82.0132 60.5522L95.7733 65.2737C97.5527 65.8853 99.2912 68.2159 99.6517 70.4812L99.7511 71.1189L99.7528 71.1173Z" fill="#E59636"/>
<path d="M99.5147 76.183L97.6228 77.274C96.9313 77.6736 96.3735 78.7402 96.3735 79.6585V83.7146L91.6292 80.9746L91.1709 77.9362C91.6504 78.0194 92.0728 77.9525 92.4153 77.7535L97.326 74.9174H97.3276L99.5147 76.183Z" fill="white"/>
<path d="M77.5227 73.2846L76.9894 73.1019C75.2101 72.4903 73.4748 70.1597 73.1143 67.8944L73.0116 67.2567C72.7832 65.8263 73.16 64.7662 73.9118 64.3324L73.9298 64.3226C74.3685 64.0764 74.9328 64.0405 75.5819 64.2639L89.342 68.9838C91.1214 69.597 92.8599 71.9276 93.2171 74.1914L93.3198 74.8307C93.54 76.2202 93.1926 77.2624 92.4799 77.7174L92.4196 77.7533C92.0771 77.9523 91.6547 78.0208 91.1752 77.9343C91.0382 77.9099 90.8963 77.874 90.7495 77.8234L77.5211 73.2829L77.5227 73.2846ZM76.6746 69.9722C77.2781 70.1793 77.6679 69.7259 77.5439 68.961C77.4232 68.1928 76.8361 67.4067 76.2343 67.2012C75.6308 66.9941 75.241 67.4475 75.365 68.2124C75.4873 68.9806 76.0728 69.765 76.6746 69.9722Z" fill="white"/>
<path d="M92.3403 85.7104C92.4202 86.4052 92.2212 86.8993 91.8575 87.1114L84.763 91.205C85.1071 90.9848 85.2914 90.4988 85.2115 89.8252L83.0049 75.1681L90.7453 77.8249C90.892 77.8738 91.0339 77.9097 91.1709 77.9358L92.3419 85.712L92.3403 85.7104Z" fill="#350B00"/>
<path d="M85.2168 89.8271C85.2951 90.499 85.1108 90.9851 84.7683 91.2069L84.7341 91.2264C84.4275 91.4058 84.0018 91.3814 83.5256 91.1057L79.14 88.5762C78.2463 88.0592 77.5205 86.8034 77.5205 85.7694V73.2863L83.0086 75.17L85.2152 89.8271H85.2168Z" fill="white"/>
<path d="M77.5408 68.9635C77.6647 69.7284 77.2749 70.1818 76.6715 69.9747C76.0697 69.7675 75.4825 68.9814 75.3619 68.2149C75.2379 67.45 75.6277 66.9966 76.2311 67.2037C76.8329 67.4092 77.4217 68.1969 77.5408 68.9635Z" fill="#350B00"/>
<path d="M77.5194 80.2201L69.2963 84.9661C68.4058 85.4798 67.9688 86.1697 67.9688 86.8906C67.9688 87.7631 68.6064 88.6797 69.8492 89.3989L82.7547 96.849C85.0266 98.1603 88.463 98.3038 90.4331 97.1654L101.491 90.7803C102.381 90.2682 102.818 89.5783 102.818 88.8558C102.818 87.9849 102.181 87.0683 100.938 86.3491L97.9337 84.6138" stroke="#350B00" stroke-width="0.489278" stroke-linecap="round" stroke-linejoin="round"/>
<path d="M96.3808 83.7168L91.6348 80.9768" stroke="#350B00" stroke-width="0.489278" stroke-linecap="round" stroke-linejoin="round"/>
<path d="M67.9688 86.8918V91.5106C67.9688 92.3815 68.6064 93.2981 69.8492 94.0174L82.7547 101.469C85.0266 102.779 88.463 102.922 90.4331 101.785L101.491 95.4004C102.381 94.8883 102.818 94.1984 102.818 93.4759V88.8587" stroke="#350B00" stroke-width="0.489278" stroke-linecap="round" stroke-linejoin="round"/>
<path d="M84.7341 91.2253C84.4275 91.4047 84.0018 91.3802 83.5256 91.1046L79.14 88.575C78.2463 88.058 77.5205 86.8022 77.5205 85.7682V73.2834" stroke="#350B00" stroke-width="0.489278" stroke-linecap="round" stroke-linejoin="round"/>
<path d="M83.0049 75.1685L85.2115 89.8256C85.2898 90.4975 85.1055 90.9835 84.763 91.2053" stroke="#350B00" stroke-width="0.489278" stroke-linecap="round" stroke-linejoin="round"/>
<path d="M84.7344 91.2259L91.8631 87.1127C92.2285 86.9007 92.4274 86.4082 92.3459 85.7118L91.1749 77.9371" stroke="#350B00" stroke-width="0.489278" stroke-linecap="round" stroke-linejoin="round"/>
<path d="M92.4805 77.7177C93.1932 77.2627 93.5406 76.2206 93.3204 74.831L93.2177 74.1917C92.8589 71.928 91.1219 69.5974 89.3426 68.9841L75.5808 64.2659C74.9317 64.0424 74.3674 64.0783 73.9287 64.3246" stroke="#350B00" stroke-width="0.489278" stroke-linecap="round" stroke-linejoin="round"/>
<path d="M73.9052 64.3351C73.1517 64.7689 72.7766 65.829 73.0049 67.2593L73.1076 67.897C73.4697 70.1624 75.2034 72.493 76.9827 73.1046L90.7428 77.8261C90.8896 77.875 91.0315 77.9125 91.1685 77.937C91.648 78.0234 92.0704 77.9549 92.4129 77.756" stroke="#350B00" stroke-width="0.489278" stroke-linecap="round" stroke-linejoin="round"/>
<path d="M75.3619 68.2137C75.2379 67.4488 75.6277 66.9954 76.2311 67.2025C76.8329 67.408 77.4217 68.1957 77.5408 68.9623C77.6647 69.7272 77.2749 70.1806 76.6715 69.9734C76.0697 69.7663 75.4825 68.9802 75.3619 68.2137Z" stroke="#350B00" stroke-width="0.489278" stroke-linecap="round" stroke-linejoin="round"/>
<path d="M92.418 77.7555L97.3287 74.9177" stroke="#350B00" stroke-width="0.489278" stroke-linecap="round" stroke-linejoin="round"/>
<path d="M99.625 73.083C99.8207 72.566 99.8745 71.8957 99.7522 71.1193L99.6527 70.4817C99.2906 68.2163 97.5537 65.8857 95.7743 65.2741L82.011 60.5509C81.3537 60.3259 80.7812 60.3667 80.3409 60.6211L73.9102 64.3347" stroke="#350B00" stroke-width="0.489278" stroke-linecap="round" stroke-linejoin="round"/>
<path d="M103.152 78.2259C103.418 78.6075 104.01 78.4477 104.473 77.8719C104.935 77.2946 105.096 76.5215 104.827 76.1399C104.561 75.7599 103.969 75.9181 103.508 76.4954C103.044 77.0728 102.885 77.8459 103.152 78.2259Z" stroke="#350B00" stroke-width="0.489278" stroke-linecap="round" stroke-linejoin="round"/>
<path d="M102.256 74.6006L97.6359 71.9325C97.3342 71.7579 96.8547 71.9471 96.4665 72.4299C96.005 73.0072 95.8484 73.7787 96.1126 74.1603C96.155 74.2223 96.2056 74.2712 96.2659 74.3055L97.3277 74.917H97.3293L99.5164 76.1826" stroke="#350B00" stroke-width="0.489278" stroke-linecap="round" stroke-linejoin="round"/>
<path d="M96.3789 83.7167V83.8504C96.3789 84.7686 96.9367 85.1926 97.6282 84.7931L110.757 77.2125C111.445 76.8146 112.005 75.748 112.005 74.8281V70.6383C112.005 69.7201 111.445 69.2993 110.757 69.6956L97.6282 77.2761C96.9367 77.6757 96.3789 78.7423 96.3789 79.6605V83.7167Z" stroke="#350B00" stroke-width="0.489278" stroke-linecap="round" stroke-linejoin="round"/>
<path d="M107.668 76.1488L109.027 75.3627C109.374 75.1621 109.654 74.6255 109.654 74.1607C109.654 73.8149 109.498 73.6078 109.274 73.6078C109.199 73.6078 109.113 73.6323 109.027 73.6828L107.668 74.4673C107.321 74.6679 107.04 75.2077 107.04 75.6709C107.04 76.0183 107.197 76.2238 107.418 76.2238C107.495 76.2238 107.58 76.201 107.668 76.1488Z" stroke="#350B00" stroke-width="0.489278" stroke-linecap="round" stroke-linejoin="round"/>
<path d="M99.3532 80.9496L100.71 80.1668C101.057 79.9662 101.34 79.4263 101.34 78.9632C101.34 78.6174 101.183 78.4103 100.96 78.4103C100.883 78.4103 100.797 78.4347 100.71 78.4869L99.3532 79.2698C99.0058 79.4704 98.7236 80.0086 98.7236 80.4734C98.7236 80.8192 98.8802 81.0263 99.102 81.0263C99.1803 81.0263 99.2651 81.0018 99.3532 80.9496Z" stroke="#350B00" stroke-width="0.489278" stroke-linecap="round" stroke-linejoin="round"/>
<defs>
<clipPath id="clip0_4502_7078">
<rect width="82.0931" height="107.5" fill="white" transform="translate(0 0.45166)"/>
</clipPath>
</defs>
</svg>
