<svg width="311" height="173" viewBox="0 0 311 173" fill="none" xmlns="http://www.w3.org/2000/svg">
<path d="M226.041 22.5234V39.6321L211.227 48.1864V31.0778L226.041 22.5234Z" fill="#350B00"/>
<path d="M226.04 22.5231L211.225 31.0774L196.406 22.5231L211.225 13.9688L226.04 22.5231Z" fill="white"/>
<path d="M211.225 31.0778V48.1864L196.406 39.6321V22.5234L211.225 31.0778Z" fill="#EE8167"/>
<path d="M196.406 22.5231L211.225 13.9688L226.04 22.5231L211.225 31.0774L196.406 22.5231Z" stroke="#350B00" stroke-width="0.900313" stroke-linecap="round" stroke-linejoin="round"/>
<path d="M211.227 31.0771V48.1858" stroke="#350B00" stroke-width="0.900313" stroke-linecap="round" stroke-linejoin="round"/>
<path d="M196.406 22.5234V39.6321L211.225 48.1864L226.04 39.6321V22.5234" stroke="#350B00" stroke-width="0.900313" stroke-linecap="round" stroke-linejoin="round"/>
<path d="M217.469 35.2314L242.108 49.4559" stroke="#350B00" stroke-width="0.900313" stroke-linecap="round" stroke-linejoin="round"/>
<path d="M257.543 49.4873V63.7564L245.184 70.8888V56.6196L257.543 49.4873Z" fill="#350B00"/>
<path d="M257.543 49.4874L245.183 56.6197L232.828 49.4874L245.183 42.3506L257.543 49.4874Z" fill="white"/>
<path d="M245.183 56.6196V70.8888L232.828 63.7564V49.4873L245.183 56.6196Z" fill="#EE8167"/>
<path d="M232.828 49.4874L245.183 42.3506L257.543 49.4874L245.183 56.6197L232.828 49.4874Z" stroke="#350B00" stroke-width="0.900313" stroke-linecap="round" stroke-linejoin="round"/>
<path d="M245.184 56.6201V70.8893" stroke="#350B00" stroke-width="0.900313" stroke-linecap="round" stroke-linejoin="round"/>
<path d="M232.828 49.4873V63.7564L245.183 70.8888L257.543 63.7564V49.4873" stroke="#350B00" stroke-width="0.900313" stroke-linecap="round" stroke-linejoin="round"/>
<path d="M238.886 59.9824L191.75 87.1971L230.542 109.591" stroke="#350B00" stroke-width="0.900313" stroke-linecap="round" stroke-linejoin="round"/>
<path d="M220.947 102.866V121.012L236.66 130.081V111.939L220.947 102.866Z" fill="#EE8167"/>
<path d="M220.948 102.866L236.661 111.939L252.375 102.866L236.661 93.793L220.948 102.866Z" fill="white"/>
<path d="M236.661 111.939V130.081L252.375 121.012V102.866L236.661 111.939Z" fill="#350B00"/>
<path d="M252.375 102.866L236.661 93.793L220.948 102.866L236.661 111.939L252.375 102.866Z" stroke="#350B00" stroke-width="0.900313" stroke-linecap="round" stroke-linejoin="round"/>
<path d="M236.66 111.939V130.081" stroke="#350B00" stroke-width="0.900313" stroke-linecap="round" stroke-linejoin="round"/>
<path d="M252.375 102.866V121.012L236.661 130.081L220.948 121.012V102.866" stroke="#350B00" stroke-width="0.900313" stroke-linecap="round" stroke-linejoin="round"/>
<path d="M171.491 47.8369V64.9456L156.672 73.4954V56.3912L171.491 47.8369Z" fill="#350B00"/>
<path d="M171.489 47.8371L156.67 56.3915L141.855 47.8371L156.67 39.2783L171.489 47.8371Z" fill="white"/>
<path d="M156.67 56.3912V73.4954L141.855 64.9456V47.8369L156.67 56.3912Z" fill="#EE8167"/>
<path d="M141.855 47.8371L156.67 39.2783L171.489 47.8371L156.67 56.3915L141.855 47.8371Z" stroke="#350B00" stroke-width="0.900313" stroke-linecap="round" stroke-linejoin="round"/>
<path d="M156.672 56.3916V73.4958" stroke="#350B00" stroke-width="0.900313" stroke-linecap="round" stroke-linejoin="round"/>
<path d="M141.855 47.8369V64.9456L156.67 73.4954L171.489 64.9456V47.8369" stroke="#350B00" stroke-width="0.900313" stroke-linecap="round" stroke-linejoin="round"/>
<path d="M203.812 35.6562L156.676 62.8709L195.463 85.2651" stroke="#350B00" stroke-width="0.900313" stroke-linecap="round" stroke-linejoin="round"/>
<path d="M177.947 80.3291V98.4752L193.66 107.544V89.4022L177.947 80.3291Z" fill="#EE8167"/>
<path d="M177.948 80.3289L193.662 89.402L209.375 80.3289L193.662 71.2559L177.948 80.3289Z" fill="white"/>
<path d="M193.662 89.4022V107.544L209.375 98.4752V80.3291L193.662 89.4022Z" fill="#350B00"/>
<path d="M209.375 80.3289L193.662 71.2559L177.948 80.3289L193.662 89.402L209.375 80.3289Z" stroke="#350B00" stroke-width="0.900313" stroke-linecap="round" stroke-linejoin="round"/>
<path d="M193.66 89.4023V107.544" stroke="#350B00" stroke-width="0.900313" stroke-linecap="round" stroke-linejoin="round"/>
<path d="M209.375 80.3291V98.4752L193.662 107.544L177.948 98.4752V80.3291" stroke="#350B00" stroke-width="0.900313" stroke-linecap="round" stroke-linejoin="round"/>
<g clip-path="url(#clip0_4379_2712)">
<path d="M132.684 89.3511C136.345 82.0486 141.197 67.4601 143.167 61.3352C143.707 59.6609 145.263 58.5293 147.019 58.5293C149.282 58.5293 151.072 60.3714 151.072 62.572C151.072 62.7365 151.062 62.9042 151.039 63.072C150.693 65.7759 150.19 69.4008 149.394 73.1442C147.226 83.3413 142.828 92.1405 138.703 98.9496C135.565 104.121 132.588 108.144 130.861 110.765C130.398 111.469 130.026 112.071 129.763 112.565C129.296 113.443 130.207 114.42 131.115 114.005C135.243 112.117 143.036 109.124 150.233 109.459C152.799 109.581 155.154 110.94 156.552 113.088C156.634 113.216 156.713 113.338 156.789 113.456C158.025 115.42 156.769 117.976 154.456 118.166C152.779 118.308 150.841 118.584 148.963 119.117C144.059 120.505 136.47 127.775 136.47 127.775C134.352 129.515 132.263 131.127 130.608 132.285C129.98 132.722 129.391 133.104 128.822 133.429C120.039 138.505 115.763 131.41 97.5923 141.209C96.543 141.778 95.247 142.472 93.4773 143.442C93.5957 142.541 93.6549 141.587 93.6549 140.577C93.6549 129.929 86.9116 117.403 78.5992 112.601C77.3591 111.884 76.1486 111.377 74.9973 111.078C77.971 109.417 78.3788 109.196 79.6124 108.486C82.313 106.926 84.7768 105.071 86.7504 102.607C88.0102 101.029 89.1089 99.5647 89.8227 98.4332C92.8325 93.6767 98.362 84.9466 102.145 83.0124C105.928 81.0717 111.141 80.0881 111.312 84.9959C112.016 84.2591 116.197 83.5716 118.247 84.3676C120.306 85.167 120.546 88.7195 120.546 88.7195C120.546 88.7195 127.292 85.1308 130.144 86.8512C131.276 87.5288 132.098 88.4663 132.687 89.3511H132.684Z" fill="white"/>
<path d="M142.27 105.834C142.27 106.087 142.214 106.331 142.112 106.561C142.092 106.594 142.075 106.63 142.062 106.66C140.918 108.814 135.428 110.071 130.865 110.765C132.592 108.14 135.572 104.117 138.707 98.9492V99.4624C138.707 99.4624 138.707 99.4657 138.71 99.4657C140.224 102.012 142.27 104.091 142.27 105.831V105.834Z" fill="#350B00"/>
<path d="M93.6523 140.577C93.6523 141.587 93.5931 142.541 93.4747 143.442C93.2017 145.544 92.6195 147.34 91.7938 148.794C90.9748 150.225 89.9123 151.317 88.6557 152.04L79.0671 157.534C82.1328 155.774 84.0637 151.767 84.0637 146.07C84.0637 135.422 77.3204 122.896 69.0081 118.1C65.1792 115.89 61.6891 115.699 59.0313 117.176L68.5344 111.729C70.1626 110.798 72.1034 110.502 74.2481 110.906C74.4948 110.952 74.7448 111.012 74.9948 111.081C76.1428 111.387 77.3533 111.887 78.5967 112.604C86.909 117.406 93.6523 129.932 93.6523 140.58V140.577Z" fill="#EE8167"/>
<path d="M84.0631 146.07C84.0631 151.768 82.1322 155.774 79.0665 157.534C76.4021 159.06 72.8725 158.899 69.0108 156.665C60.6951 151.86 53.9518 139.337 53.9518 128.689C53.9518 122.992 55.8827 118.985 58.9517 117.225L59.034 117.176C61.6885 115.699 65.1819 115.89 69.0108 118.1C77.3231 122.896 84.0664 135.422 84.0664 146.07H84.0631Z" fill="white"/>
<path d="M74.9977 111.081C77.9714 109.42 78.3793 109.2 79.6128 108.489C82.3134 106.93 84.7772 105.075 86.7508 102.611C88.0107 101.032 89.1093 99.5685 89.8231 98.4369C92.833 93.6805 98.3625 84.9503 102.145 83.0162C105.928 81.0754 111.142 80.0919 111.313 84.9997C112.017 84.2629 116.198 83.5754 118.247 84.3714C120.306 85.1707 120.546 88.7233 120.546 88.7233C120.546 88.7233 127.293 85.1346 130.145 86.8549C131.276 87.5325 132.099 88.47 132.688 89.3549" stroke="#350B00" stroke-width="0.720251" stroke-linecap="round" stroke-linejoin="round"/>
<path d="M138.703 98.9492V99.4624C138.703 99.4624 138.703 99.4657 138.706 99.4657C140.22 102.012 142.266 104.091 142.266 105.831C142.266 106.084 142.21 106.327 142.108 106.558C142.088 106.591 142.072 106.627 142.058 106.656C140.914 108.811 135.424 110.067 130.861 110.762" stroke="#350B00" stroke-width="0.720251" stroke-linecap="round" stroke-linejoin="round"/>
<path d="M59.034 117.176C61.6885 115.699 65.1819 115.89 69.0108 118.1C77.3231 122.896 84.0664 135.422 84.0664 146.07C84.0664 151.768 82.1355 155.774 79.0698 157.534C76.4054 159.063 72.8758 158.899 69.014 156.665C60.6984 151.86 53.9551 139.337 53.9551 128.689C53.9551 122.992 55.886 118.985 58.955 117.225" stroke="#350B00" stroke-width="0.720251" stroke-linecap="round" stroke-linejoin="round"/>
<path d="M58.9529 117.225L68.5383 111.729C70.1665 110.798 72.1073 110.502 74.252 110.906C74.4987 110.952 74.7487 111.012 74.9987 111.081C76.1467 111.387 77.3572 111.887 78.6006 112.604C86.9129 117.406 93.6562 129.932 93.6562 140.58C93.6562 141.59 93.597 142.544 93.4786 143.445C93.2056 145.547 92.6234 147.343 91.7977 148.797C90.9787 150.228 89.9162 151.32 88.6596 152.044L79.071 157.537" stroke="#350B00" stroke-width="0.720251" stroke-linecap="round" stroke-linejoin="round"/>
<path d="M131.197 91.9958C131.661 91.2952 132.161 90.3939 132.684 89.3511C136.342 82.0486 141.197 67.4601 143.167 61.3352C143.707 59.6609 145.263 58.5293 147.019 58.5293C149.282 58.5293 151.072 60.3714 151.072 62.572C151.072 62.7365 151.062 62.9042 151.039 63.072C150.693 65.7759 150.19 69.4008 149.394 73.1442C147.226 83.3413 142.832 92.1438 138.703 98.9496C135.569 104.121 132.588 108.144 130.861 110.765C130.398 111.469 130.026 112.071 129.763 112.565C129.296 113.443 130.207 114.42 131.115 114.005C135.243 112.117 143.036 109.124 150.233 109.459C152.799 109.581 155.154 110.94 156.552 113.088C156.634 113.216 156.713 113.338 156.789 113.456C158.025 115.42 156.769 117.976 154.456 118.166C152.779 118.308 150.841 118.584 148.963 119.117C144.059 120.505 136.47 127.775 136.47 127.775C134.352 129.515 132.263 131.127 130.608 132.285C129.98 132.722 129.391 133.104 128.822 133.429C120.039 138.505 115.763 131.41 97.5923 141.209C96.543 141.778 95.247 142.472 93.4773 143.442" stroke="#350B00" stroke-width="0.720251" stroke-linecap="round" stroke-linejoin="round"/>
</g>
<defs>
<clipPath id="clip0_4379_2712">
<rect width="104.311" height="100.995" fill="white" transform="matrix(-1 0 0 1 157.766 58.0361)"/>
</clipPath>
</defs>
</svg>
