<svg width="205" height="147" viewBox="0 0 205 147" fill="none" xmlns="http://www.w3.org/2000/svg">
<path d="M173.042 9.52338V26.632L158.228 35.1864V18.0777L173.042 9.52338Z" fill="#350B00"/>
<path d="M173.042 9.52339L158.227 18.0777L143.408 9.52339L158.227 0.969055L173.042 9.52339Z" fill="white"/>
<path d="M158.227 18.0777V35.1864L143.408 26.632V9.52338L158.227 18.0777Z" fill="#E59636"/>
<path d="M143.408 9.52339L158.227 0.969055L173.042 9.52339L158.227 18.0777L143.408 9.52339Z" stroke="#350B00" stroke-width="0.900313" stroke-linecap="round" stroke-linejoin="round"/>
<path d="M158.228 18.0778V35.1864" stroke="#350B00" stroke-width="0.900313" stroke-linecap="round" stroke-linejoin="round"/>
<path d="M143.408 9.52338V26.632L158.227 35.1864L173.042 26.632V9.52338" stroke="#350B00" stroke-width="0.900313" stroke-linecap="round" stroke-linejoin="round"/>
<path d="M164.47 22.2319L189.109 36.4563" stroke="#350B00" stroke-width="0.900313" stroke-linecap="round" stroke-linejoin="round"/>
<path d="M204.545 36.4876V50.7568L192.186 57.8891V43.6199L204.545 36.4876Z" fill="#350B00"/>
<path d="M204.545 36.4876L192.185 43.62L179.83 36.4876L192.185 29.3508L204.545 36.4876Z" fill="white"/>
<path d="M192.185 43.6199V57.8891L179.83 50.7568V36.4876L192.185 43.6199Z" fill="#E59636"/>
<path d="M179.83 36.4876L192.185 29.3508L204.545 36.4876L192.185 43.62L179.83 36.4876Z" stroke="#350B00" stroke-width="0.900313" stroke-linecap="round" stroke-linejoin="round"/>
<path d="M192.186 43.62V57.8891" stroke="#350B00" stroke-width="0.900313" stroke-linecap="round" stroke-linejoin="round"/>
<path d="M179.83 36.4876V50.7568L192.185 57.8891L204.545 50.7568V36.4876" stroke="#350B00" stroke-width="0.900313" stroke-linecap="round" stroke-linejoin="round"/>
<path d="M185.89 46.9827L138.754 74.1974L177.546 96.5916" stroke="#350B00" stroke-width="0.900313" stroke-linecap="round" stroke-linejoin="round"/>
<path d="M167.949 89.8661V108.012L183.662 117.081V98.9392L167.949 89.8661Z" fill="#E59636"/>
<path d="M167.949 89.8661L183.662 98.9392L199.376 89.8661L183.662 80.7931L167.949 89.8661Z" fill="white"/>
<path d="M183.662 98.9392V117.081L199.376 108.012V89.8661L183.662 98.9392Z" fill="#350B00"/>
<path d="M199.376 89.8661L183.662 80.7931L167.949 89.8661L183.662 98.9392L199.376 89.8661Z" stroke="#350B00" stroke-width="0.900313" stroke-linecap="round" stroke-linejoin="round"/>
<path d="M183.662 98.9392V117.081" stroke="#350B00" stroke-width="0.900313" stroke-linecap="round" stroke-linejoin="round"/>
<path d="M199.376 89.8661V108.012L183.662 117.081L167.949 108.012V89.8661" stroke="#350B00" stroke-width="0.900313" stroke-linecap="round" stroke-linejoin="round"/>
<path d="M118.492 34.8375V51.9462L103.673 60.496V43.3919L118.492 34.8375Z" fill="#350B00"/>
<path d="M118.492 34.8376L103.673 43.3919L88.8584 34.8376L103.673 26.2787L118.492 34.8376Z" fill="white"/>
<path d="M103.673 43.3919V60.496L88.8584 51.9462V34.8375L103.673 43.3919Z" fill="#E59636"/>
<path d="M88.8584 34.8376L103.673 26.2787L118.492 34.8376L103.673 43.3919L88.8584 34.8376Z" stroke="#350B00" stroke-width="0.900313" stroke-linecap="round" stroke-linejoin="round"/>
<path d="M103.673 43.3918V60.496" stroke="#350B00" stroke-width="0.900313" stroke-linecap="round" stroke-linejoin="round"/>
<path d="M88.8584 34.8375V51.9462L103.673 60.496L118.492 51.9462V34.8375" stroke="#350B00" stroke-width="0.900313" stroke-linecap="round" stroke-linejoin="round"/>
<path d="M150.814 22.6567L103.678 49.8714L142.465 72.2656" stroke="#350B00" stroke-width="0.900313" stroke-linecap="round" stroke-linejoin="round"/>
<path d="M124.949 67.3289V85.475L140.662 94.5435V76.4019L124.949 67.3289Z" fill="#E59636"/>
<path d="M124.949 67.3288L140.662 76.4019L156.376 67.3288L140.662 58.2558L124.949 67.3288Z" fill="white"/>
<path d="M140.662 76.4019V94.5435L156.376 85.475V67.3289L140.662 76.4019Z" fill="#350B00"/>
<path d="M156.376 67.3288L140.662 58.2558L124.949 67.3288L140.662 76.4019L156.376 67.3288Z" stroke="#350B00" stroke-width="0.900313" stroke-linecap="round" stroke-linejoin="round"/>
<path d="M140.662 76.4019V94.5435" stroke="#350B00" stroke-width="0.900313" stroke-linecap="round" stroke-linejoin="round"/>
<path d="M156.376 67.3289V85.475L140.662 94.5435L124.949 85.475V67.3289" stroke="#350B00" stroke-width="0.900313" stroke-linecap="round" stroke-linejoin="round"/>
<g clip-path="url(#clip0_4502_7284)">
<path d="M79.6838 76.3512C83.3449 69.0487 88.1968 54.4602 90.1671 48.3353C90.7066 46.661 92.2625 45.5294 94.0191 45.5294C96.2822 45.5294 98.0716 47.3715 98.0716 49.5721C98.0716 49.7366 98.0617 49.9043 98.0387 50.0721C97.6933 52.776 97.19 56.4009 96.394 60.1443C94.2263 70.3415 89.8283 79.1407 85.7034 85.9497C82.5653 91.1207 79.5884 95.1437 77.8615 97.7653C77.3976 98.4693 77.0259 99.0712 76.7628 99.5646C76.2957 100.443 77.2069 101.42 78.1147 101.005C82.243 99.1173 90.0356 96.1239 97.2328 96.4594C99.7986 96.5811 102.154 97.9397 103.552 100.088C103.634 100.216 103.713 100.338 103.789 100.456C105.025 102.42 103.769 104.976 101.456 105.167C99.7788 105.308 97.8414 105.584 95.9631 106.117C91.0586 107.505 83.4699 114.775 83.4699 114.775C81.3515 116.515 79.2627 118.127 77.6082 119.285C76.9799 119.722 76.3911 120.104 75.822 120.429C67.0393 125.505 62.763 118.41 44.5923 128.209C43.543 128.778 42.247 129.472 40.4773 130.442C40.5957 129.541 40.6549 128.587 40.6549 127.577C40.6549 116.929 33.9116 104.403 25.5992 99.6008C24.3591 98.8837 23.1486 98.3772 21.9973 98.0778C24.971 96.4167 25.3788 96.1963 26.6124 95.4858C29.313 93.9266 31.7768 92.0713 33.7504 89.6076C35.0102 88.0287 36.1089 86.5649 36.8227 85.4333C39.8325 80.6768 45.362 71.9467 49.1449 70.0125C52.9277 68.0718 58.1414 67.0882 58.3125 71.996C59.0164 71.2592 63.1972 70.5717 65.2465 71.3678C67.3057 72.1671 67.5458 75.7197 67.5458 75.7197C67.5458 75.7197 74.2924 72.1309 77.1444 73.8513C78.2759 74.5289 79.0983 75.4664 79.6871 76.3512H79.6838Z" fill="white"/>
<path d="M89.2695 92.8345C89.2695 93.0878 89.2136 93.3312 89.1116 93.5615C89.0919 93.5944 89.0755 93.6306 89.0623 93.6602C87.9176 95.8147 82.4275 97.0713 77.8651 97.7653C79.5921 95.1404 82.5723 91.1174 85.7071 85.9498V86.4629C85.7071 86.4629 85.7071 86.4662 85.7104 86.4662C87.2235 89.0122 89.2695 91.0911 89.2695 92.8312V92.8345Z" fill="#350B00"/>
<path d="M40.6514 127.577C40.6514 128.587 40.5922 129.541 40.4737 130.442C40.2007 132.544 39.6185 134.34 38.7929 135.794C37.9738 137.225 36.9113 138.317 35.6547 139.041L26.0661 144.534C29.1318 142.774 31.0627 138.768 31.0627 133.071C31.0627 122.423 24.3194 109.897 16.0071 105.101C12.1782 102.89 8.68813 102.699 6.03028 104.176L15.5334 98.7291C17.1617 97.7982 19.1024 97.5022 21.2471 97.9068C21.4938 97.9528 21.7438 98.012 21.9938 98.0811C23.1418 98.387 24.3523 98.887 25.5957 99.6041C33.9081 104.407 40.6514 116.933 40.6514 127.581V127.577Z" fill="#E59636"/>
<path d="M31.0631 133.071C31.0631 138.768 29.1322 142.774 26.0665 144.534C23.4021 146.061 19.8725 145.899 16.0108 143.666C7.69511 138.86 0.951815 126.337 0.951815 115.689C0.951815 109.992 2.8827 105.986 5.95173 104.226L6.03396 104.176C8.68852 102.699 12.1819 102.89 16.0108 105.101C24.3231 109.897 31.0664 122.423 31.0664 133.071H31.0631Z" fill="white"/>
<path d="M21.9977 98.0811C24.9714 96.4199 25.3793 96.1995 26.6128 95.489C29.3134 93.9299 31.7772 92.0746 33.7508 89.6108C35.0107 88.0319 36.1093 86.5681 36.8231 85.4366C39.833 80.6801 45.3625 71.95 49.1453 70.0158C52.9281 68.0751 58.1418 67.0915 58.3129 71.9993C59.0168 71.2625 63.1977 70.575 65.247 71.371C67.3061 72.1704 67.5463 75.7229 67.5463 75.7229C67.5463 75.7229 74.2929 72.1342 77.1448 73.8546C78.2763 74.5322 79.0987 75.4697 79.6875 76.3545" stroke="#350B00" stroke-width="0.720251" stroke-linecap="round" stroke-linejoin="round"/>
<path d="M85.7032 85.9498V86.4629C85.7032 86.4629 85.7032 86.4662 85.7065 86.4662C87.2196 89.0122 89.2656 91.0911 89.2656 92.8312C89.2656 93.0845 89.2097 93.3279 89.1077 93.5582C89.088 93.5911 89.0715 93.6273 89.0584 93.6569C87.9137 95.8114 82.4236 97.068 77.8612 97.7621" stroke="#350B00" stroke-width="0.720251" stroke-linecap="round" stroke-linejoin="round"/>
<path d="M6.03397 104.176C8.68852 102.699 12.1819 102.89 16.0108 105.101C24.3231 109.897 31.0664 122.423 31.0664 133.071C31.0664 138.768 29.1355 142.774 26.0698 144.534C23.4054 146.064 19.8758 145.899 16.014 143.666C7.69841 138.86 0.95511 126.337 0.95511 115.689C0.95511 109.992 2.88599 105.986 5.95501 104.226" stroke="#350B00" stroke-width="0.720251" stroke-linecap="round" stroke-linejoin="round"/>
<path d="M5.95195 104.226L15.5373 98.7291C17.1656 97.7982 19.1063 97.5022 21.251 97.9068C21.4977 97.9528 21.7477 98.012 21.9977 98.0811C23.1457 98.387 24.3562 98.887 25.5996 99.6041C33.912 104.407 40.6553 116.933 40.6553 127.581C40.6553 128.59 40.5961 129.544 40.4776 130.446C40.2046 132.548 39.6224 134.344 38.7968 135.798C37.9777 137.228 36.9152 138.321 35.6587 139.044L26.07 144.538" stroke="#350B00" stroke-width="0.720251" stroke-linecap="round" stroke-linejoin="round"/>
<path d="M78.197 78.9959C78.6608 78.2953 79.1608 77.394 79.6838 76.3512C83.3416 69.0487 88.1968 54.4602 90.1671 48.3353C90.7066 46.661 92.2625 45.5294 94.0191 45.5294C96.2822 45.5294 98.0716 47.3715 98.0716 49.5721C98.0716 49.7366 98.0617 49.9043 98.0387 50.0721C97.6933 52.776 97.19 56.4009 96.394 60.1443C94.2263 70.3415 89.8316 79.1439 85.7034 85.9497C82.5686 91.1207 79.5884 95.1437 77.8614 97.7653C77.3976 98.4693 77.0259 99.0712 76.7628 99.5646C76.2957 100.443 77.2069 101.42 78.1147 101.005C82.243 99.1173 90.0356 96.1239 97.2328 96.4594C99.7986 96.5811 102.154 97.9397 103.552 100.088C103.634 100.216 103.713 100.338 103.789 100.456C105.025 102.42 103.769 104.976 101.456 105.167C99.7788 105.308 97.8414 105.584 95.9631 106.117C91.0586 107.505 83.4699 114.775 83.4699 114.775C81.3515 116.515 79.2627 118.127 77.6082 119.285C76.9799 119.722 76.3911 120.104 75.822 120.429C67.0393 125.505 62.763 118.41 44.5923 128.209C43.543 128.778 42.247 129.472 40.4773 130.442" stroke="#350B00" stroke-width="0.720251" stroke-linecap="round" stroke-linejoin="round"/>
</g>
<defs>
<clipPath id="clip0_4502_7284">
<rect width="104.311" height="100.995" fill="white" transform="matrix(-1 0 0 1 104.766 45.036)"/>
</clipPath>
</defs>
</svg>
