<svg width="236" height="194" viewBox="0 0 236 194" fill="none" xmlns="http://www.w3.org/2000/svg">
<g clip-path="url(#clip0_4502_7560)">
<path d="M199.081 138.251C205.582 141.999 206.286 147.676 200.658 150.926L157.332 175.943C156.392 174.512 154.773 173.571 152.929 173.571C150.018 173.571 147.659 175.931 147.659 178.842C147.659 179.691 147.859 180.491 148.217 181.207L132.752 190.134C127.124 193.385 117.293 192.972 110.792 189.224L71.7842 166.7C65.283 162.946 64.5795 157.27 70.2074 154.025L138.113 114.817C143.741 111.567 153.572 111.973 160.073 115.727L199.081 138.251Z" fill="#5F646B"/>
<path d="M157.332 175.943L148.217 181.207C147.859 180.491 147.659 179.691 147.659 178.842C147.659 175.931 150.018 173.572 152.929 173.572C154.773 173.572 156.392 174.512 157.332 175.943Z" fill="white"/>
<path d="M148.217 181.207L132.752 190.134C127.124 193.385 117.293 192.972 110.792 189.224L71.7842 166.7C65.283 162.946 64.5795 157.27 70.2074 154.025L138.113 114.817C143.741 111.567 153.572 111.973 160.073 115.727L199.081 138.251C205.582 141.999 206.286 147.676 200.658 150.926L148.217 181.207Z" stroke="#350B00" stroke-width="0.866908" stroke-linecap="round" stroke-linejoin="round"/>
<path d="M157.332 175.943C156.392 174.512 154.773 173.572 152.929 173.572C150.018 173.572 147.659 175.931 147.659 178.842C147.659 179.691 147.859 180.491 148.217 181.207" stroke="#350B00" stroke-width="0.866908" stroke-linecap="round" stroke-linejoin="round"/>
<path d="M168.57 52.8068V113.489C168.57 119.985 164.009 127.887 158.381 131.138L127.816 148.786C122.188 152.036 117.627 159.932 117.627 166.434V191.747" stroke="#350B00" stroke-width="0.866908" stroke-linecap="round" stroke-linejoin="round"/>
<path d="M171.73 50.4906C177.51 47.1551 182.198 39.0406 182.198 32.3634C182.198 25.6863 177.51 22.9875 171.73 26.3231C165.95 29.6586 161.269 37.7731 161.269 44.4502C161.269 51.1274 165.95 53.8262 171.73 50.4906Z" fill="#5F646B"/>
<path d="M186.686 10.1848V10.197C182.49 7.76505 176.698 8.1168 170.3 11.8041C163.804 15.5581 157.928 22.0473 153.719 29.4461C149.637 36.6206 147.127 44.6683 147.133 51.9459C147.133 59.3387 149.722 64.53 153.919 66.9558L141.687 59.8905C137.49 57.4708 134.894 52.2734 134.9 44.8806C134.894 37.6091 137.411 29.5553 141.487 22.3808C145.689 14.9759 151.572 8.49887 158.067 4.74486C164.465 1.04544 170.263 0.699754 174.454 3.12561L186.686 10.1909V10.1848Z" fill="#E59636"/>
<path d="M186.679 10.1972C182.489 7.77738 176.697 8.117 170.299 11.8043C163.804 15.5583 157.927 22.0475 153.718 29.4463C149.637 36.6208 147.126 44.6685 147.132 51.9461C147.132 59.3389 149.721 64.5302 153.918 66.956C158.109 69.3758 163.907 69.0241 170.305 65.3247C176.709 61.6313 182.501 55.2877 186.691 48.0283C190.888 40.7629 193.478 32.5817 193.478 25.1889C193.478 17.8022 190.876 12.617 186.685 10.1972H186.679Z" stroke="#350B00" stroke-width="0.866908" stroke-linecap="round" stroke-linejoin="round"/>
<path d="M186.686 10.1849L174.454 3.11962C170.263 0.693772 164.465 1.03946 158.067 4.73888C151.572 8.49289 145.689 14.976 141.487 22.3748C137.405 29.5493 134.894 37.6031 134.9 44.8746C134.894 52.2674 137.49 57.4587 141.687 59.8846L153.919 66.9499" stroke="#350B00" stroke-width="0.866908" stroke-linecap="round" stroke-linejoin="round"/>
<path d="M32.8018 109.014V141.509C32.8018 145.887 35.8765 147.664 39.673 145.475L57.8184 134.995" stroke="#350B00" stroke-width="0.866908" stroke-linecap="round" stroke-linejoin="round"/>
<path d="M65.8086 130.386L83.9904 119.888C87.7868 117.699 90.8616 119.476 90.8616 123.854V177.708" stroke="#350B00" stroke-width="0.866908" stroke-linecap="round" stroke-linejoin="round"/>
<path d="M152.645 173.578V155.354C152.645 151.248 155.525 149.586 159.079 151.636L197.032 173.548C200.585 175.598 203.466 173.936 203.466 169.83V149.398" stroke="#350B00" stroke-width="0.866908" stroke-linecap="round" stroke-linejoin="round"/>
<path d="M234.993 125.263C234.993 131.934 232.652 139.309 228.868 145.865C225.089 152.414 219.862 158.127 214.088 161.463C208.321 164.798 203.093 165.12 199.309 162.93C195.524 160.747 193.183 156.065 193.189 149.394C193.189 142.832 195.452 135.573 199.133 129.102C202.929 122.425 208.23 116.572 214.088 113.188C219.862 109.859 225.083 109.543 228.862 111.739C232.646 113.916 234.987 118.598 234.993 125.263Z" fill="white"/>
<path d="M213.73 149.491C219.51 146.155 224.198 138.041 224.198 131.363C224.198 124.686 219.51 121.988 213.73 125.323C207.95 128.659 203.269 136.773 203.269 143.45C203.269 150.127 207.95 152.826 213.73 149.491Z" fill="#5F646B"/>
<path d="M228.874 111.732C225.095 109.549 219.868 109.865 214.1 113.194C208.242 116.578 202.941 122.43 199.145 129.108C195.464 135.579 193.201 142.838 193.201 149.4C193.201 156.071 195.536 160.753 199.321 162.936L188.289 156.562C184.505 154.379 182.164 149.691 182.17 143.026C182.17 136.47 184.432 129.205 188.113 122.734C191.904 116.057 197.21 110.21 203.069 106.826C208.842 103.491 214.07 103.175 217.848 105.365L228.88 111.732H228.874Z" fill="#E59636"/>
<path d="M228.869 111.745C225.085 109.561 219.863 109.871 214.096 113.194C208.238 116.578 202.937 122.43 199.141 129.108C195.459 135.579 193.197 142.838 193.197 149.4C193.197 156.071 195.532 160.753 199.316 162.936C203.095 165.119 208.322 164.798 214.096 161.468C219.876 158.133 225.097 152.42 228.875 145.87C232.66 139.314 235.001 131.94 235.001 125.269C235.001 118.604 232.654 113.928 228.869 111.745Z" stroke="#350B00" stroke-width="0.866908" stroke-linecap="round" stroke-linejoin="round"/>
<path d="M228.874 111.732L217.842 105.365C214.064 103.175 208.836 103.491 203.063 106.826C197.204 110.21 191.898 116.057 188.107 122.734C184.426 129.205 182.158 136.47 182.164 143.026C182.164 149.691 184.499 154.379 188.283 156.562L199.315 162.936" stroke="#350B00" stroke-width="0.866908" stroke-linecap="round" stroke-linejoin="round"/>
<path d="M65.4332 74.5469C65.4332 82.6796 62.5828 91.6795 57.9676 99.6666C53.3585 107.654 46.9906 114.622 39.9435 118.685C32.9086 122.749 26.5346 123.143 21.9255 120.48C17.3103 117.818 14.46 112.105 14.46 103.979C14.46 95.9793 17.2194 87.125 21.7072 79.2349C26.3345 71.0962 32.7994 63.9581 39.9435 59.8281C46.9785 55.7709 53.3524 55.3888 57.9616 58.0572C62.5767 60.7075 65.4332 66.4203 65.4332 74.5469ZM56.124 84.2685C56.221 83.6924 56.2695 83.1223 56.2695 82.5644C56.2695 78.2646 53.2433 76.5058 49.5257 78.6709C49.2831 78.8164 49.0344 78.9681 48.7979 79.1379C48.2763 74.65 44.7407 72.9883 40.4469 75.4688C39.5736 75.9721 38.7367 76.6089 37.9422 77.3549C36.7111 78.5071 35.6013 79.902 34.6916 81.4182L34.6067 81.5637C33.0238 84.2443 32.0353 87.2948 32.0353 90.0421C32.0353 90.3453 32.0474 90.6425 32.0716 90.9275C32.0716 90.9457 32.0716 90.97 32.0777 90.9942H32.0656C29.0211 92.947 26.6014 97.2469 26.6014 100.813C26.6014 104.379 29.1849 105.992 32.3809 104.148C32.3809 104.148 49.9744 93.978 50.1988 93.8264C50.8538 93.3716 51.4845 92.8318 52.0728 92.2071C52.8733 91.3702 53.6011 90.3999 54.2075 89.3628L54.25 89.2961C55.1779 87.7011 55.8511 85.9606 56.124 84.2685Z" fill="white"/>
<path d="M56.1242 84.2686C56.2212 83.6924 56.2697 83.1223 56.2697 82.5644C56.2697 78.2646 53.2435 76.5058 49.5259 78.6709C49.2833 78.8165 49.0346 78.9681 48.7981 79.1379C48.2766 74.6501 44.7409 72.9883 40.4471 75.4688C39.5738 75.9721 38.7369 76.6089 37.9424 77.3549C36.7113 78.5072 35.6015 79.902 34.6918 81.4182L34.6069 81.5637C33.024 84.2443 32.0355 87.2948 32.0355 90.0421C32.0355 90.3453 32.0476 90.6425 32.0719 90.9275C32.0719 90.9457 32.0719 90.97 32.0779 90.9942H32.0658C29.0213 92.947 26.6016 97.2469 26.6016 100.813C26.6016 104.379 29.1851 105.992 32.3812 104.148C32.3812 104.148 49.9746 93.978 50.199 93.8264C50.854 93.3716 51.4847 92.8318 52.073 92.2072C52.8735 91.3702 53.6013 90.3999 54.2078 89.3628L54.2502 89.2961C55.1781 87.7011 55.8513 85.9606 56.1242 84.2686Z" fill="#5F646B"/>
<path d="M57.9688 58.0636C53.3536 55.3891 46.9857 55.7773 39.9447 59.8345C32.8006 63.9645 26.3357 71.0965 21.7084 79.2413C17.2205 87.1314 14.4611 95.9858 14.4611 103.985C14.4611 112.118 17.3115 117.825 21.9267 120.487L8.47534 112.718C3.86015 110.056 1.00371 104.343 1.00978 96.2162C1.00371 88.223 3.76918 79.3626 8.25701 71.4725C12.8783 63.3338 19.3492 56.2018 26.4934 52.0778C33.5283 48.0085 39.9083 47.6264 44.5174 50.2948L57.9688 58.0636Z" fill="#E59636"/>
<path d="M57.9616 58.0579C53.3524 55.3956 46.9846 55.7716 39.9435 59.8288C32.7994 63.9588 26.3345 71.0908 21.7072 79.2356C17.2194 87.1257 14.46 95.9801 14.46 103.979C14.46 112.112 17.3103 117.819 21.9255 120.481C26.5346 123.144 32.9086 122.755 39.9435 118.686C46.9906 114.623 53.3585 107.648 57.9676 99.6674C62.5828 91.6742 65.4332 82.6803 65.4332 74.5477C65.4332 66.4211 62.5707 60.7203 57.9616 58.0579Z" stroke="#350B00" stroke-width="0.866908" stroke-linecap="round" stroke-linejoin="round"/>
<path d="M57.9688 58.0517L44.5174 50.2829C39.9083 47.6144 33.5344 47.9965 26.4934 52.0659C19.3492 56.1959 12.8783 63.3218 8.25701 71.4606C3.76918 79.3507 1.00371 88.2111 1.00978 96.2043C1.00371 104.331 3.85409 110.044 8.47534 112.706L21.9267 120.475" stroke="#350B00" stroke-width="0.866908" stroke-linecap="round" stroke-linejoin="round"/>
<path d="M134.734 120.3V188.988" stroke="#350B00" stroke-width="0.866908" stroke-linecap="round" stroke-linejoin="round"/>
<path d="M149.882 83.1244L133.659 92.4943V101.955C133.659 107.656 137.122 110.276 141.397 107.807L147.195 104.46C151.47 101.992 154.933 95.375 154.933 89.6742V80.2134L149.882 83.1305V83.1244ZM171.969 76.8961C171.969 85.7686 168.858 95.5873 163.824 104.302C158.797 113.011 151.846 120.616 144.163 125.055C136.491 129.489 129.535 129.919 124.501 127.014C119.467 124.109 116.356 117.881 116.362 109.008C116.362 100.281 119.37 90.6203 124.265 82.0146C129.316 73.1299 136.363 65.349 144.163 60.843C151.84 56.4158 158.79 55.9974 163.818 58.9144C168.852 61.8073 171.969 68.0356 171.969 76.9021V76.8961Z" fill="white"/>
<path d="M149.881 83.1244L133.658 92.4943V101.955C133.658 107.656 137.121 110.276 141.397 107.807L147.194 104.46C151.47 101.991 154.933 95.3749 154.933 89.6742V80.2134L149.881 83.1305V83.1244Z" fill="#5F646B"/>
<path d="M163.824 58.9025V58.9146C158.79 55.9976 151.84 56.416 144.162 60.8432C136.369 65.3492 129.316 73.1301 124.264 82.0148C119.37 90.6266 116.356 100.281 116.362 109.008C116.362 117.881 119.473 124.109 124.501 127.014L109.824 118.536C104.791 115.631 101.673 109.397 101.686 100.53C101.68 91.8092 104.694 82.1422 109.588 73.5365C114.634 64.6518 121.687 56.8769 129.486 52.3709C137.164 47.9316 144.12 47.5192 149.147 50.4242L163.824 58.8965V58.9025Z" fill="#E59636"/>
<path d="M163.818 58.9138C158.784 56.0089 151.84 56.4152 144.163 60.8424C136.37 65.3484 129.316 73.1293 124.265 82.014C119.37 90.6258 116.356 100.281 116.362 109.008C116.362 117.88 119.473 124.109 124.501 127.014C129.529 129.919 136.485 129.494 144.163 125.055C151.846 120.621 158.797 113.016 163.824 104.302C168.858 95.5806 171.969 85.768 171.969 76.8954C171.969 68.029 168.846 61.8127 163.818 58.9077V58.9138Z" stroke="#350B00" stroke-width="0.866908" stroke-linecap="round" stroke-linejoin="round"/>
<path d="M163.824 58.9018L149.147 50.4295C144.12 47.5185 137.164 47.937 129.486 52.3763C121.693 56.8823 114.634 64.6572 109.588 73.5419C104.694 82.1536 101.673 91.8146 101.686 100.536C101.68 109.402 104.791 115.636 109.824 118.541L124.501 127.02" stroke="#350B00" stroke-width="0.866908" stroke-linecap="round" stroke-linejoin="round"/>
<path d="M62.5745 137.257C65.0907 136.849 66.8 134.479 66.3925 131.963C65.985 129.447 63.6149 127.738 61.0988 128.145C58.5827 128.553 56.8733 130.923 57.2808 133.439C57.6884 135.955 60.0584 137.664 62.5745 137.257Z" fill="white" stroke="#350B00" stroke-width="0.866908" stroke-linecap="round" stroke-linejoin="round"/>
</g>
<defs>
<clipPath id="clip0_4502_7560">
<rect width="235.799" height="192.564" fill="white" transform="translate(0.100586 0.669556)"/>
</clipPath>
</defs>
</svg>
