<svg width="376" height="331" viewBox="0 0 376 331" fill="none" xmlns="http://www.w3.org/2000/svg">
<g clip-path="url(#clip0_4379_2906)">
<path d="M269.084 206.8C275.585 210.548 276.289 216.224 270.661 219.475L227.335 244.491C226.395 243.06 224.776 242.12 222.932 242.12C220.021 242.12 217.662 244.479 217.662 247.39C217.662 248.239 217.862 249.04 218.22 249.755L202.755 258.683C197.127 261.933 187.296 261.521 180.795 257.773L141.787 235.249C135.286 231.495 134.582 225.818 140.21 222.574L208.116 183.366C213.744 180.115 223.575 180.522 230.076 184.276L269.084 206.8Z" fill="#5F646B"/>
<path d="M227.337 244.491L218.222 249.755C217.864 249.04 217.664 248.239 217.664 247.39C217.664 244.479 220.023 242.12 222.934 242.12C224.778 242.12 226.397 243.06 227.337 244.491Z" fill="white"/>
<path d="M218.22 249.755L202.755 258.683C197.127 261.933 187.296 261.521 180.795 257.773L141.787 235.249C135.286 231.495 134.582 225.818 140.21 222.574L208.116 183.366C213.744 180.115 223.575 180.522 230.076 184.276L269.084 206.8C275.585 210.548 276.289 216.224 270.661 219.475L218.22 249.755Z" stroke="#350B00" stroke-width="0.866908" stroke-linecap="round" stroke-linejoin="round"/>
<path d="M227.337 244.491C226.397 243.06 224.778 242.12 222.934 242.12C220.023 242.12 217.664 244.479 217.664 247.39C217.664 248.239 217.864 249.04 218.222 249.755" stroke="#350B00" stroke-width="0.866908" stroke-linecap="round" stroke-linejoin="round"/>
<path d="M238.572 121.355V182.038C238.572 188.533 234.011 196.436 228.383 199.686L197.817 217.334C192.19 220.585 187.629 228.481 187.629 234.982V260.296" stroke="#350B00" stroke-width="0.866908" stroke-linecap="round" stroke-linejoin="round"/>
<path d="M263.479 93.7373C263.479 101.13 260.883 109.311 256.692 116.577C252.502 123.836 246.71 130.174 240.306 133.873C233.908 137.566 228.11 137.924 223.919 135.504C219.722 133.085 217.133 127.893 217.133 120.494C217.133 113.217 219.644 105.169 223.719 97.9947C227.928 90.5898 233.804 84.1067 240.3 80.3527C246.698 76.6654 252.496 76.3136 256.68 78.7455C260.877 81.1593 263.473 86.3506 263.473 93.7373H263.479ZM241.731 119.039C247.511 115.703 252.198 107.589 252.198 100.912C252.198 94.2346 247.511 91.5358 241.731 94.8714C235.951 98.2069 231.269 106.321 231.269 112.999C231.269 119.676 235.951 122.374 241.731 119.039Z" fill="white"/>
<path d="M256.688 78.7329V78.7451C252.492 76.3131 246.7 76.6649 240.302 80.3522C233.806 84.1062 227.93 90.5953 223.721 97.9942C219.639 105.169 217.129 113.216 217.135 120.494C217.135 127.887 219.724 133.078 223.921 135.504L211.689 128.439C207.492 126.019 204.896 120.821 204.902 113.429C204.896 106.157 207.413 98.1034 211.489 90.9289C215.691 83.524 221.574 77.047 228.069 73.293C234.467 69.5935 240.265 69.2478 244.456 71.6737L256.688 78.739V78.7329Z" fill="#EE8167"/>
<path d="M252.195 100.912C252.195 107.589 247.507 115.698 241.727 119.039C235.948 122.375 231.266 119.67 231.266 112.999C231.266 106.328 235.948 98.2132 241.727 94.8716C247.507 91.53 252.195 94.2409 252.195 100.912ZM241.727 111.549C243.923 110.282 245.706 107.195 245.706 104.66C245.706 102.125 243.923 101.094 241.727 102.361C239.532 103.629 237.755 106.716 237.755 109.251C237.755 111.786 239.532 112.817 241.727 111.549Z" fill="white"/>
<path d="M256.68 78.7453C252.49 76.3255 246.698 76.6651 240.3 80.3524C233.804 84.1064 227.928 90.5956 223.719 97.9944C219.638 105.169 217.127 113.217 217.133 120.494C217.133 127.887 219.722 133.078 223.919 135.504C228.11 137.924 233.908 137.572 240.306 133.873C246.71 130.179 252.502 123.836 256.692 116.576C260.889 109.311 263.479 101.13 263.479 93.737C263.479 86.3503 260.877 81.1651 256.686 78.7453H256.68Z" stroke="#350B00" stroke-width="0.866908" stroke-linecap="round" stroke-linejoin="round"/>
<path d="M256.688 78.7331L244.456 71.6678C240.265 69.242 234.467 69.5877 228.069 73.2871C221.574 77.0411 215.691 83.5242 211.489 90.923C207.407 98.0975 204.896 106.151 204.902 113.423C204.896 120.816 207.492 126.007 211.689 128.433L223.921 135.498" stroke="#350B00" stroke-width="0.866908" stroke-linecap="round" stroke-linejoin="round"/>
<path d="M102.801 177.562V210.057C102.801 214.435 105.876 216.212 109.672 214.023L127.817 203.543" stroke="#350B00" stroke-width="0.866908" stroke-linecap="round" stroke-linejoin="round"/>
<path d="M135.809 198.934L153.99 188.436C157.787 186.247 160.862 188.024 160.862 192.403V246.257" stroke="#350B00" stroke-width="0.866908" stroke-linecap="round" stroke-linejoin="round"/>
<path d="M222.645 242.126V223.902C222.645 219.796 225.525 218.134 229.079 220.184L267.032 242.096C270.585 244.145 273.466 242.484 273.466 238.378V217.946" stroke="#350B00" stroke-width="0.866908" stroke-linecap="round" stroke-linejoin="round"/>
<path d="M304.991 193.811C304.991 200.482 302.65 207.857 298.866 214.413C295.087 220.962 289.86 226.675 284.086 230.011C278.319 233.346 273.091 233.668 269.307 231.478C265.522 229.295 263.181 224.613 263.188 217.942C263.188 211.38 265.45 204.121 269.131 197.65C272.927 190.973 278.228 185.12 284.086 181.736C289.86 178.407 295.081 178.092 298.86 180.287C302.644 182.464 304.985 187.146 304.991 193.811Z" fill="white"/>
<path d="M298.872 180.28C295.093 178.097 289.866 178.412 284.098 181.742C278.24 185.126 272.939 190.978 269.143 197.655C265.462 204.126 263.2 211.386 263.2 217.948C263.2 224.619 265.534 229.301 269.319 231.484L258.287 225.11C254.503 222.927 252.162 218.239 252.168 211.574C252.168 205.018 254.43 197.753 258.111 191.282C261.902 184.604 267.208 178.758 273.067 175.374C278.84 172.038 284.068 171.723 287.846 173.912L298.878 180.28H298.872Z" fill="#EE8167"/>
<path d="M298.867 180.293C295.083 178.109 289.861 178.419 284.094 181.742C278.236 185.126 272.935 190.979 269.139 197.656C265.457 204.127 263.195 211.386 263.195 217.948C263.195 224.619 265.53 229.301 269.315 231.484C273.093 233.667 278.32 233.346 284.094 230.017C289.874 226.681 295.095 220.968 298.874 214.418C302.658 207.862 304.999 200.488 304.999 193.817C304.999 187.152 302.652 182.476 298.867 180.293Z" stroke="#350B00" stroke-width="0.866908" stroke-linecap="round" stroke-linejoin="round"/>
<path d="M298.874 180.28L287.842 173.912C284.064 171.723 278.836 172.038 273.063 175.374C267.204 178.758 261.898 184.604 258.107 191.282C254.426 197.753 252.158 205.018 252.164 211.574C252.164 218.239 254.499 222.927 258.283 225.11L269.315 231.484" stroke="#350B00" stroke-width="0.866908" stroke-linecap="round" stroke-linejoin="round"/>
<path d="M135.434 143.096C135.434 151.228 132.584 160.228 127.969 168.215C123.359 176.202 116.992 183.171 109.945 187.234C102.91 191.297 96.5356 191.692 91.9265 189.029C87.3113 186.367 84.4609 180.654 84.4609 172.527C84.4609 164.528 87.2203 155.674 91.7082 147.784C96.3355 139.645 102.8 132.507 109.945 128.377C116.979 124.32 123.353 123.937 127.963 126.606C132.578 129.256 135.434 134.969 135.434 143.096ZM126.125 152.817C126.222 152.241 126.271 151.671 126.271 151.113C126.271 146.813 123.244 145.055 119.527 147.22C119.284 147.365 119.035 147.517 118.799 147.687C118.277 143.199 114.742 141.537 110.448 144.017C109.575 144.521 108.738 145.158 107.943 145.904C106.712 147.056 105.602 148.451 104.693 149.967L104.608 150.112C103.025 152.793 102.036 155.843 102.036 158.591C102.036 158.894 102.048 159.191 102.073 159.476C102.073 159.494 102.073 159.519 102.079 159.543H102.067C99.0221 161.496 96.6023 165.796 96.6023 169.362C96.6023 172.928 99.1859 174.541 102.382 172.697C102.382 172.697 119.975 162.527 120.2 162.375C120.855 161.92 121.486 161.381 122.074 160.756C122.874 159.919 123.602 158.949 124.209 157.912L124.251 157.845C125.179 156.25 125.852 154.509 126.125 152.817Z" fill="white"/>
<path d="M127.971 126.612C123.356 123.938 116.988 124.326 109.947 128.383C102.803 132.513 96.3376 139.645 91.7103 147.79C87.2225 155.68 84.4631 164.534 84.4631 172.533C84.4631 180.666 87.3135 186.373 91.9286 189.035L78.4773 181.267C73.8621 178.604 71.0057 172.891 71.0117 164.765C71.0057 156.772 73.7711 147.911 78.259 140.021C82.8802 131.882 89.3512 124.75 96.4953 120.626C103.53 116.557 109.91 116.175 114.519 118.843L127.971 126.612Z" fill="#EE8167"/>
<path d="M127.963 126.606C123.353 123.944 116.986 124.32 109.945 128.377C102.8 132.507 96.3355 139.639 91.7082 147.784C87.2203 155.674 84.4609 164.528 84.4609 172.528C84.4609 180.66 87.3113 186.367 91.9265 189.03C96.5356 191.692 102.91 191.304 109.945 187.234C116.992 183.171 123.359 176.197 127.969 168.216C132.584 160.223 135.434 151.229 135.434 143.096C135.434 134.969 132.572 129.269 127.963 126.606Z" stroke="#350B00" stroke-width="0.866908" stroke-linecap="round" stroke-linejoin="round"/>
<path d="M127.971 126.6L114.519 118.832C109.91 116.163 103.536 116.545 96.4953 120.615C89.3512 124.745 82.8802 131.871 78.259 140.009C73.7711 147.899 71.0057 156.76 71.0117 164.753C71.0057 172.88 73.856 178.592 78.4773 181.255L91.9286 189.024" stroke="#350B00" stroke-width="0.866908" stroke-linecap="round" stroke-linejoin="round"/>
<path d="M204.734 188.849V257.537" stroke="#350B00" stroke-width="0.866908" stroke-linecap="round" stroke-linejoin="round"/>
<path d="M219.883 151.673L203.66 161.043V170.504C203.66 176.204 207.123 178.824 211.398 176.356L217.196 173.008C221.471 170.54 224.934 163.924 224.934 158.223V148.762L219.883 151.679V151.673ZM241.97 145.445C241.97 154.317 238.859 164.136 233.825 172.851C228.798 181.56 221.847 189.165 214.164 193.604C206.492 198.037 199.536 198.468 194.502 195.563C189.468 192.658 186.357 186.429 186.363 177.557C186.363 168.83 189.371 159.169 194.266 150.563C199.317 141.679 206.364 133.898 214.164 129.392C221.841 124.964 228.791 124.546 233.819 127.463C238.853 130.356 241.97 136.584 241.97 145.451V145.445Z" fill="white"/>
<path d="M233.826 127.451V127.463C228.792 124.546 221.842 124.964 214.164 129.391C206.371 133.897 199.318 141.678 194.266 150.563C189.372 159.175 186.358 168.83 186.364 177.557C186.364 186.429 189.475 192.658 194.503 195.562L179.826 187.084C174.793 184.179 171.675 177.945 171.688 169.078C171.681 160.357 174.696 150.69 179.59 142.085C184.636 133.2 191.689 125.425 199.488 120.919C207.166 116.48 214.122 116.067 219.149 118.972L233.826 127.445V127.451Z" fill="#EE8167"/>
<path d="M233.819 127.462C228.785 124.557 221.841 124.963 214.164 129.39C206.371 133.896 199.317 141.677 194.266 150.562C189.371 159.174 186.357 168.829 186.363 177.556C186.363 186.428 189.474 192.657 194.502 195.562C199.53 198.466 206.486 198.042 214.164 193.603C221.847 189.169 228.798 181.564 233.825 172.849C238.859 164.129 241.97 154.316 241.97 145.443C241.97 136.577 238.847 130.361 233.819 127.456V127.462Z" stroke="#350B00" stroke-width="0.866908" stroke-linecap="round" stroke-linejoin="round"/>
<path d="M233.826 127.45L219.149 118.978C214.122 116.067 207.166 116.485 199.488 120.925C191.695 125.431 184.636 133.205 179.59 142.09C174.696 150.702 171.675 160.363 171.688 169.084C171.681 177.95 174.793 184.185 179.826 187.09L194.503 195.568" stroke="#350B00" stroke-width="0.866908" stroke-linecap="round" stroke-linejoin="round"/>
<path d="M132.575 205.805C135.091 205.398 136.8 203.028 136.392 200.512C135.985 197.996 133.615 196.286 131.099 196.694C128.583 197.101 126.873 199.471 127.281 201.987C127.688 204.504 130.058 206.213 132.575 205.805Z" fill="white" stroke="#350B00" stroke-width="0.866908" stroke-linecap="round" stroke-linejoin="round"/>
</g>
<defs>
<clipPath id="clip0_4379_2906">
<rect width="235.799" height="192.564" fill="white" transform="translate(70.1016 69.2178)"/>
</clipPath>
</defs>
</svg>
