<svg width="376" height="331" viewBox="0 0 376 331" fill="none" xmlns="http://www.w3.org/2000/svg">
<g clip-path="url(#clip0_4502_7477)">
<path d="M269.081 206.799C275.582 210.547 276.286 216.224 270.658 219.474L227.332 244.491C226.392 243.06 224.773 242.12 222.929 242.12C220.018 242.12 217.659 244.479 217.659 247.39C217.659 248.239 217.859 249.04 218.217 249.755L202.752 258.682C197.124 261.933 187.293 261.521 180.792 257.773L141.784 235.249C135.283 231.495 134.579 225.818 140.207 222.574L208.113 183.366C213.741 180.115 223.572 180.521 230.073 184.275L269.081 206.799Z" fill="#5F646B"/>
<path d="M227.332 244.491L218.217 249.755C217.859 249.04 217.659 248.239 217.659 247.39C217.659 244.479 220.018 242.12 222.929 242.12C224.773 242.12 226.392 243.06 227.332 244.491Z" fill="white"/>
<path d="M218.217 249.755L202.752 258.682C197.124 261.933 187.293 261.521 180.792 257.773L141.784 235.249C135.283 231.495 134.579 225.818 140.207 222.574L208.113 183.366C213.741 180.115 223.572 180.521 230.073 184.275L269.081 206.799C275.582 210.547 276.286 216.224 270.658 219.474L218.217 249.755Z" stroke="#350B00" stroke-width="0.866908" stroke-linecap="round" stroke-linejoin="round"/>
<path d="M227.332 244.491C226.392 243.06 224.773 242.12 222.929 242.12C220.018 242.12 217.659 244.479 217.659 247.39C217.659 248.239 217.859 249.04 218.217 249.755" stroke="#350B00" stroke-width="0.866908" stroke-linecap="round" stroke-linejoin="round"/>
<path d="M238.57 121.355V182.038C238.57 188.533 234.009 196.435 228.381 199.686L197.816 217.334C192.188 220.585 187.627 228.481 187.627 234.982V260.296" stroke="#350B00" stroke-width="0.866908" stroke-linecap="round" stroke-linejoin="round"/>
<path d="M263.478 93.7373C263.478 101.13 260.882 109.311 256.691 116.577C252.501 123.836 246.709 130.174 240.305 133.873C233.907 137.566 228.109 137.924 223.918 135.504C219.721 133.085 217.132 127.893 217.132 120.494C217.132 113.217 219.643 105.169 223.718 97.9947C227.927 90.5898 233.804 84.1067 240.299 80.3527C246.697 76.6654 252.495 76.3136 256.679 78.7455C260.876 81.1593 263.472 86.3506 263.472 93.7373H263.478ZM241.73 119.039C247.51 115.703 252.198 107.589 252.198 100.912C252.198 94.2346 247.51 91.5358 241.73 94.8714C235.95 98.2069 231.268 106.321 231.268 112.999C231.268 119.676 235.95 122.374 241.73 119.039Z" fill="white"/>
<path d="M256.686 78.7332V78.7453C252.49 76.3134 246.698 76.6651 240.3 80.3524C233.804 84.1064 227.928 90.5956 223.719 97.9944C219.637 105.169 217.127 113.217 217.133 120.494C217.133 127.887 219.722 133.078 223.919 135.504L211.687 128.439C207.49 126.019 204.894 120.822 204.9 113.429C204.894 106.157 207.411 98.1036 211.487 90.9291C215.689 83.5242 221.572 77.0472 228.067 73.2932C234.465 69.5938 240.263 69.2481 244.454 71.6739L256.686 78.7392V78.7332Z" fill="#E59636"/>
<path d="M252.193 100.912C252.193 107.589 247.505 115.698 241.725 119.039C235.946 122.375 231.264 119.67 231.264 112.999C231.264 106.328 235.946 98.2134 241.725 94.8717C247.505 91.5301 252.193 94.241 252.193 100.912ZM241.725 111.549C243.921 110.282 245.704 107.195 245.704 104.66C245.704 102.125 243.921 101.094 241.725 102.362C239.53 103.629 237.753 106.716 237.753 109.251C237.753 111.786 239.53 112.817 241.725 111.549Z" fill="white"/>
<path d="M256.679 78.7455C252.489 76.3257 246.697 76.6653 240.299 80.3526C233.804 84.1066 227.927 90.5958 223.718 97.9946C219.637 105.169 217.126 113.217 217.132 120.494C217.132 127.887 219.721 133.079 223.918 135.504C228.109 137.924 233.907 137.572 240.305 133.873C246.709 130.18 252.501 123.836 256.691 116.577C260.888 109.311 263.478 101.13 263.478 93.7373C263.478 86.3506 260.876 81.1653 256.685 78.7455H256.679Z" stroke="#350B00" stroke-width="0.866908" stroke-linecap="round" stroke-linejoin="round"/>
<path d="M256.686 78.7333L244.454 71.668C240.263 69.2421 234.465 69.5878 228.067 73.2872C221.572 77.0412 215.689 83.5243 211.487 90.9232C207.405 98.0976 204.894 106.151 204.9 113.423C204.894 120.816 207.49 126.007 211.687 128.433L223.919 135.498" stroke="#350B00" stroke-width="0.866908" stroke-linecap="round" stroke-linejoin="round"/>
<path d="M102.802 177.563V210.057C102.802 214.436 105.877 216.213 109.673 214.023L127.818 203.544" stroke="#350B00" stroke-width="0.866908" stroke-linecap="round" stroke-linejoin="round"/>
<path d="M135.809 198.934L153.99 188.436C157.787 186.247 160.862 188.024 160.862 192.403V246.257" stroke="#350B00" stroke-width="0.866908" stroke-linecap="round" stroke-linejoin="round"/>
<path d="M222.645 242.126V223.902C222.645 219.796 225.525 218.135 229.079 220.185L267.032 242.096C270.585 244.146 273.466 242.484 273.466 238.379V217.947" stroke="#350B00" stroke-width="0.866908" stroke-linecap="round" stroke-linejoin="round"/>
<path d="M304.993 193.811C304.993 200.482 302.652 207.857 298.868 214.413C295.089 220.963 289.862 226.676 284.088 230.011C278.321 233.347 273.093 233.668 269.309 231.479C265.524 229.295 263.183 224.614 263.189 217.942C263.189 211.381 265.452 204.121 269.133 197.65C272.929 190.973 278.23 185.121 284.088 181.737C289.862 178.407 295.083 178.092 298.862 180.287C302.646 182.464 304.987 187.146 304.993 193.811Z" fill="white"/>
<path d="M298.874 180.281C295.095 178.098 289.868 178.413 284.1 181.742C278.242 185.126 272.941 190.979 269.145 197.656C265.464 204.127 263.201 211.386 263.201 217.948C263.201 224.619 265.536 229.301 269.321 231.484L258.289 225.111C254.505 222.927 252.164 218.239 252.17 211.574C252.17 205.018 254.432 197.753 258.113 191.282C261.904 184.605 267.21 178.759 273.069 175.375C278.842 172.039 284.07 171.724 287.848 173.913L298.88 180.281H298.874Z" fill="#E59636"/>
<path d="M298.869 180.293C295.085 178.11 289.863 178.419 284.096 181.742C278.238 185.126 272.937 190.979 269.141 197.656C265.459 204.127 263.197 211.386 263.197 217.948C263.197 224.619 265.532 229.301 269.316 231.484C273.095 233.668 278.322 233.346 284.096 230.017C289.876 226.681 295.097 220.968 298.875 214.419C302.66 207.863 305.001 200.488 305.001 193.817C305.001 187.152 302.654 182.476 298.869 180.293Z" stroke="#350B00" stroke-width="0.866908" stroke-linecap="round" stroke-linejoin="round"/>
<path d="M298.874 180.281L287.842 173.913C284.064 171.724 278.836 172.039 273.063 175.375C267.204 178.759 261.898 184.605 258.107 191.282C254.426 197.753 252.158 205.018 252.164 211.574C252.164 218.239 254.499 222.927 258.283 225.111L269.315 231.484" stroke="#350B00" stroke-width="0.866908" stroke-linecap="round" stroke-linejoin="round"/>
<path d="M135.433 143.095C135.433 151.228 132.583 160.228 127.968 168.215C123.358 176.202 116.991 183.17 109.944 187.234C102.909 191.297 96.5346 191.691 91.9255 189.029C87.3103 186.366 84.46 180.654 84.46 172.527C84.46 164.528 87.2194 155.673 91.7072 147.783C96.3345 139.645 102.799 132.506 109.944 128.376C116.979 124.319 123.352 123.937 127.962 126.606C132.577 129.256 135.433 134.969 135.433 143.095ZM126.124 152.817C126.221 152.241 126.27 151.671 126.27 151.113C126.27 146.813 123.243 145.054 119.526 147.219C119.283 147.365 119.034 147.516 118.798 147.686C118.276 143.198 114.741 141.537 110.447 144.017C109.574 144.52 108.737 145.157 107.942 145.903C106.711 147.055 105.601 148.45 104.692 149.967L104.607 150.112C103.024 152.793 102.035 155.843 102.035 158.59C102.035 158.894 102.047 159.191 102.072 159.476C102.072 159.494 102.072 159.518 102.078 159.543H102.066C99.0211 161.495 96.6014 165.795 96.6014 169.361C96.6014 172.927 99.1849 174.54 102.381 172.697C102.381 172.697 119.974 162.526 120.199 162.375C120.854 161.92 121.485 161.38 122.073 160.755C122.873 159.919 123.601 158.948 124.208 157.911L124.25 157.844C125.178 156.249 125.851 154.509 126.124 152.817Z" fill="white"/>
<path d="M127.969 126.612C123.354 123.937 116.986 124.326 109.945 128.383C102.801 132.513 96.3357 139.645 91.7084 147.79C87.2205 155.68 84.4611 164.534 84.4611 172.533C84.4611 180.666 87.3115 186.373 91.9267 189.035L78.4753 181.266C73.8602 178.604 71.0037 172.891 71.0098 164.765C71.0037 156.771 73.7692 147.911 78.257 140.021C82.8783 131.882 89.3492 124.75 96.4934 120.626C103.528 116.557 109.908 116.175 114.517 118.843L127.969 126.612Z" fill="#E59636"/>
<path d="M127.962 126.606C123.352 123.944 116.985 124.32 109.944 128.377C102.799 132.507 96.3345 139.639 91.7072 147.784C87.2194 155.674 84.46 164.528 84.46 172.528C84.46 180.66 87.3103 186.367 91.9255 189.03C96.5346 191.692 102.909 191.304 109.944 187.234C116.991 183.171 123.358 176.197 127.968 168.216C132.583 160.223 135.433 151.229 135.433 143.096C135.433 134.969 132.571 129.269 127.962 126.606Z" stroke="#350B00" stroke-width="0.866908" stroke-linecap="round" stroke-linejoin="round"/>
<path d="M127.969 126.6L114.517 118.831C109.908 116.163 103.534 116.545 96.4934 120.614C89.3492 124.744 82.8783 131.87 78.257 140.009C73.7692 147.899 71.0037 156.759 71.0098 164.753C71.0037 172.879 73.8541 178.592 78.4753 181.254L91.9267 189.023" stroke="#350B00" stroke-width="0.866908" stroke-linecap="round" stroke-linejoin="round"/>
<path d="M204.734 188.849V257.537" stroke="#350B00" stroke-width="0.866908" stroke-linecap="round" stroke-linejoin="round"/>
<path d="M219.882 151.673L203.659 161.043V170.503C203.659 176.204 207.122 178.824 211.397 176.356L217.195 173.008C221.47 170.54 224.933 163.923 224.933 158.223V148.762L219.882 151.679V151.673ZM241.969 145.444C241.969 154.317 238.858 164.136 233.824 172.85C228.797 181.559 221.846 189.164 214.163 193.604C206.491 198.037 199.535 198.467 194.501 195.563C189.467 192.658 186.356 186.429 186.362 177.557C186.362 168.83 189.37 159.169 194.265 150.563C199.316 141.678 206.363 133.897 214.163 129.391C221.84 124.964 228.79 124.546 233.818 127.463C238.852 130.356 241.969 136.584 241.969 145.45V145.444Z" fill="white"/>
<path d="M233.824 127.451V127.463C228.79 124.546 221.84 124.964 214.162 129.392C206.369 133.898 199.316 141.678 194.264 150.563C189.37 159.175 186.356 168.83 186.362 177.557C186.362 186.429 189.473 192.658 194.501 195.563L179.824 187.084C174.791 184.179 171.673 177.945 171.686 169.078C171.68 160.358 174.694 150.691 179.588 142.085C184.634 133.2 191.687 125.425 199.486 120.919C207.164 116.48 214.12 116.068 219.147 118.973L233.824 127.445V127.451Z" fill="#E59636"/>
<path d="M233.818 127.462C228.784 124.557 221.84 124.964 214.163 129.391C206.37 133.897 199.316 141.678 194.265 150.562C189.37 159.174 186.356 168.829 186.362 177.556C186.362 186.429 189.473 192.657 194.501 195.562C199.529 198.467 206.485 198.042 214.163 193.603C221.846 189.17 228.797 181.565 233.824 172.85C238.858 164.129 241.969 154.316 241.969 145.444C241.969 136.577 238.846 130.361 233.818 127.456V127.462Z" stroke="#350B00" stroke-width="0.866908" stroke-linecap="round" stroke-linejoin="round"/>
<path d="M233.824 127.45L219.147 118.978C214.12 116.067 207.164 116.485 199.486 120.925C191.693 125.431 184.634 133.206 179.588 142.09C174.694 150.702 171.673 160.363 171.686 169.084C171.68 177.95 174.791 184.185 179.824 187.09L194.501 195.568" stroke="#350B00" stroke-width="0.866908" stroke-linecap="round" stroke-linejoin="round"/>
<path d="M132.575 205.805C135.091 205.398 136.8 203.027 136.392 200.511C135.985 197.995 133.615 196.286 131.099 196.693C128.583 197.101 126.873 199.471 127.281 201.987C127.688 204.503 130.058 206.213 132.575 205.805Z" fill="white" stroke="#350B00" stroke-width="0.866908" stroke-linecap="round" stroke-linejoin="round"/>
</g>
<defs>
<clipPath id="clip0_4502_7477">
<rect width="235.799" height="192.564" fill="white" transform="translate(70.1006 69.2179)"/>
</clipPath>
</defs>
</svg>
