<svg width="132" height="28" viewBox="0 0 132 28" fill="none" xmlns="http://www.w3.org/2000/svg">
<path d="M29.7125 8.07058V17.0027C29.7125 17.8959 29.9323 18.5836 30.3718 19.0656C30.8113 19.5477 31.4564 19.7887 32.3071 19.7887C33.1578 19.7887 33.81 19.5477 34.2637 19.0656C34.7174 18.5836 34.9442 17.8959 34.9442 17.0027V8.07058H38.5809V16.9814C38.5809 18.3142 38.2973 19.4413 37.7302 20.3629C37.1631 21.2845 36.3975 21.9792 35.4334 22.4471C34.4834 22.9149 33.4201 23.1489 32.2433 23.1489C31.0665 23.1489 30.0103 22.922 29.0745 22.4683C28.153 22.0005 27.4228 21.3057 26.884 20.3842C26.3453 19.4484 26.0759 18.3142 26.0759 16.9814V8.07058H29.7125ZM47.3658 8.07058C48.9396 8.07058 50.3148 8.38249 51.4916 9.00632C52.6684 9.63016 53.5758 10.5092 54.2138 11.6434C54.866 12.7635 55.192 14.0608 55.192 15.5353C55.192 16.9956 54.866 18.2929 54.2138 19.4271C53.5758 20.5614 52.6613 21.4404 51.4703 22.0643C50.2936 22.6881 48.9254 23 47.3658 23H41.7726V8.07058H47.3658ZM47.1319 19.8525C48.5071 19.8525 49.5776 19.4768 50.3432 18.7253C51.1088 17.9739 51.4916 16.9106 51.4916 15.5353C51.4916 14.16 51.1088 13.0896 50.3432 12.324C49.5776 11.5584 48.5071 11.1756 47.1319 11.1756H45.4092V19.8525H47.1319ZM61.499 8.07058V23H57.8624V8.07058H61.499ZM75.5123 8.07058V10.9842H71.5567V23H67.92V10.9842H63.9643V8.07058H75.5123ZM79.4429 23.1489C78.9041 23.1489 78.4575 22.9858 78.1031 22.6597C77.7628 22.3195 77.5927 21.9012 77.5927 21.405C77.5927 20.9087 77.7628 20.4976 78.1031 20.1715C78.4575 19.8312 78.9041 19.6611 79.4429 19.6611C79.9675 19.6611 80.3999 19.8312 80.7402 20.1715C81.0804 20.4976 81.2506 20.9087 81.2506 21.405C81.2506 21.9012 81.0804 22.3195 80.7402 22.6597C80.3999 22.9858 79.9675 23.1489 79.4429 23.1489ZM89.5185 23.1914C88.3842 23.1914 87.3634 22.9433 86.456 22.4471C85.5486 21.9367 84.8326 21.2207 84.308 20.2991C83.7976 19.3775 83.5424 18.3142 83.5424 17.109C83.5424 15.9039 83.8047 14.8406 84.3293 13.919C84.8681 12.9974 85.5982 12.2885 86.5198 11.7923C87.4414 11.2819 88.4693 11.0267 89.6035 11.0267C90.7378 11.0267 91.7657 11.2819 92.6872 11.7923C93.6088 12.2885 94.3319 12.9974 94.8565 13.919C95.3952 14.8406 95.6646 15.9039 95.6646 17.109C95.6646 18.3142 95.3881 19.3775 94.8352 20.2991C94.2964 21.2207 93.5592 21.9367 92.6234 22.4471C91.7019 22.9433 90.6669 23.1914 89.5185 23.1914ZM89.5185 20.5968C90.0572 20.5968 90.5605 20.4692 91.0284 20.214C91.5105 19.9446 91.8933 19.5477 92.1768 19.0231C92.4604 18.4985 92.6022 17.8605 92.6022 17.109C92.6022 15.989 92.3044 15.1312 91.709 14.5357C91.1277 13.9261 90.4117 13.6213 89.561 13.6213C88.7103 13.6213 87.9943 13.9261 87.413 14.5357C86.8459 15.1312 86.5623 15.989 86.5623 17.109C86.5623 18.2291 86.8388 19.094 87.3918 19.7036C87.9589 20.2991 88.6678 20.5968 89.5185 20.5968ZM105.016 11.048C106.419 11.048 107.553 11.4946 108.418 12.3878C109.283 13.2668 109.716 14.5003 109.716 16.0882V23H106.738V16.4923C106.738 15.5566 106.504 14.8406 106.036 14.3443C105.569 13.8339 104.931 13.5787 104.122 13.5787C103.3 13.5787 102.648 13.8339 102.166 14.3443C101.698 14.8406 101.464 15.5566 101.464 16.4923V23H98.4866V11.2181H101.464V12.6855C101.861 12.1751 102.364 11.7781 102.974 11.4946C103.598 11.1968 104.278 11.048 105.016 11.048ZM124.137 16.8538C124.137 17.2792 124.109 17.662 124.052 18.0023H115.439C115.51 18.8529 115.808 19.5193 116.332 20.0014C116.857 20.4834 117.502 20.7244 118.268 20.7244C119.374 20.7244 120.161 20.2495 120.628 19.2995H123.84C123.499 20.4338 122.847 21.3695 121.883 22.1068C120.919 22.8299 119.735 23.1914 118.332 23.1914C117.197 23.1914 116.177 22.9433 115.269 22.4471C114.376 21.9367 113.674 21.2207 113.164 20.2991C112.667 19.3775 112.419 18.3142 112.419 17.109C112.419 15.8897 112.667 14.8193 113.164 13.8977C113.66 12.9762 114.355 12.2673 115.248 11.771C116.141 11.2748 117.169 11.0267 118.332 11.0267C119.452 11.0267 120.451 11.2677 121.33 11.7498C122.223 12.2318 122.911 12.9194 123.393 13.8127C123.889 14.6917 124.137 15.7054 124.137 16.8538ZM121.054 16.0032C121.04 15.2376 120.763 14.6279 120.224 14.1742C119.686 13.7063 119.026 13.4724 118.246 13.4724C117.509 13.4724 116.885 13.6992 116.375 14.1529C115.879 14.5925 115.574 15.2092 115.461 16.0032H121.054Z" fill="white"/>
<path d="M0 2.9275C0 2.22433 0.570033 1.6543 1.2732 1.6543H20.199C20.9022 1.6543 21.4722 2.22433 21.4722 2.9275V21.8524C21.4722 22.5556 20.9022 23.1256 20.199 23.1256H1.2732C0.570034 23.1256 0 22.5556 0 21.8524V2.9275Z" fill="white"/>
<path d="M17.2505 3.86523H4.96384V6.44284H17.2505V3.86523Z" fill="#E50913"/>
<path d="M14.4744 23.2009H18.3237L12.9219 8.27148H8.71105L3.30923 23.2009H7.11602L8.00924 20.5638H13.5812L14.4744 23.2009ZM12.6454 17.7566H8.96625L10.7952 12.2909L12.6454 17.7566Z" fill="black"/>
</svg>
