<svg width="147" height="26" viewBox="0 0 147 26" fill="none" xmlns="http://www.w3.org/2000/svg">
<circle cx="13" cy="13" r="11" fill="white"/>
<path d="M12.9362 0.0556641C5.79162 0.0556641 0 5.84147 0 12.9789C0 20.1164 5.79162 25.9023 12.9362 25.9023C20.0808 25.9023 25.8724 20.1164 25.8724 12.9789C25.8724 5.84163 20.0806 0.0556641 12.9362 0.0556641ZM18.2562 18.3765L12.8511 21.4994V21.5005H12.8488L7.44029 18.3765V7.5702L7.44587 7.57357L12.8466 4.45741L16.313 6.38973H16.3141V11.2681L14.6274 10.3003V7.36208L12.8488 6.34948L9.12589 8.49998V17.4579L12.8488 19.6084L16.5717 17.4646L16.5896 13.7834L11.2998 10.7176L12.9989 9.82475L18.2697 12.895L18.2562 18.3776V18.3765ZM13.8681 12.6276L15.1706 13.3762L11.2998 15.5781V11.1384L12.6596 11.9395V13.2721L13.8692 12.6276H13.8681Z" fill="#516FFA"/>
<path d="M34.1201 5.95501H39.0661C39.544 5.95501 40.0159 6.01168 40.4818 6.12509C40.9477 6.23849 41.3629 6.42349 41.7272 6.68004C42.0917 6.93665 42.3873 7.26784 42.6143 7.67363C42.8413 8.07946 42.9548 8.56879 42.9548 9.14166C42.9548 9.85774 42.7517 10.4485 42.3455 10.914C41.9393 11.3795 41.4077 11.7136 40.7506 11.9165V11.9523C41.1449 12 41.5122 12.1105 41.8527 12.2835C42.1932 12.4566 42.4829 12.6774 42.7218 12.9459C42.9608 13.2145 43.1489 13.5248 43.2863 13.8769C43.4237 14.2289 43.4924 14.6079 43.4924 15.0136C43.4924 15.7059 43.355 16.2817 43.0802 16.7412C42.8055 17.2007 42.4441 17.5707 41.9961 17.8512C41.548 18.1316 41.0343 18.3315 40.4549 18.4509C39.8755 18.5702 39.2871 18.6299 38.6898 18.6299H34.1201V5.95501ZM36.378 11.1109H38.4389C39.1915 11.1109 39.7561 10.9647 40.1324 10.6723C40.5087 10.3799 40.6968 9.99497 40.6968 9.51758C40.6968 8.9686 40.5027 8.55983 40.1145 8.29128C39.7261 8.02273 39.102 7.88849 38.2418 7.88849H36.378V11.1109ZM36.378 16.6965H38.4568C38.7436 16.6965 39.0512 16.6786 39.3797 16.6427C39.7082 16.607 40.0099 16.5234 40.2847 16.3921C40.5594 16.2608 40.7865 16.0728 40.9657 15.8282C41.1449 15.5835 41.2344 15.2523 41.2344 14.8346C41.2344 14.1662 41.0164 13.7008 40.5804 13.4382C40.1443 13.1756 39.4663 13.0444 38.5464 13.0444H36.378V16.6965ZM50.6426 17.4483H50.5888C50.2782 17.9377 49.884 18.2927 49.4061 18.5136C48.9282 18.7343 48.4025 18.8448 47.8291 18.8448C47.4348 18.8448 47.0496 18.791 46.6733 18.6836C46.2969 18.5762 45.9624 18.4151 45.6697 18.2002C45.377 17.9854 45.1411 17.7169 44.9619 17.3946C44.7827 17.0724 44.6931 16.6965 44.6931 16.2668C44.6931 15.8013 44.7767 15.4045 44.944 15.0763C45.1112 14.7481 45.3352 14.4736 45.616 14.2528C45.8967 14.032 46.2222 13.8559 46.5926 13.7246C46.963 13.5934 47.3483 13.4949 47.7484 13.4293C48.1487 13.3636 48.5519 13.3218 48.9581 13.3039C49.3643 13.2861 49.7466 13.2771 50.105 13.2771H50.6426V13.0444C50.6426 12.5073 50.4574 12.1045 50.087 11.8359C49.7167 11.5674 49.2448 11.4331 48.6714 11.4331C48.2174 11.4331 47.7933 11.5137 47.399 11.6748C47.0048 11.8359 46.6643 12.0538 46.3776 12.3283L45.2486 11.2004C45.7264 10.7111 46.285 10.359 46.9241 10.1442C47.5633 9.92934 48.2233 9.82196 48.9043 9.82196C49.5136 9.82196 50.0273 9.89058 50.4454 10.0278C50.8636 10.165 51.2101 10.3411 51.4849 10.556C51.7596 10.7708 51.9717 11.0184 52.121 11.2989C52.2703 11.5793 52.3779 11.8628 52.4436 12.1492C52.5093 12.4357 52.5481 12.7132 52.5601 12.9817C52.572 13.2502 52.578 13.4859 52.578 13.6889V18.6299H50.6426V17.4483ZM50.5172 14.7809H50.0691C49.7704 14.7809 49.4359 14.7929 49.0656 14.8167C48.6953 14.8406 48.3458 14.8972 48.0173 14.9868C47.6887 15.0763 47.411 15.2075 47.184 15.3806C46.957 15.5537 46.8435 15.7953 46.8435 16.1057C46.8435 16.3086 46.8883 16.4786 46.9779 16.6159C47.0675 16.7532 47.184 16.8695 47.3274 16.965C47.4707 17.0605 47.632 17.1291 47.8112 17.1709C47.9904 17.2126 48.1696 17.2335 48.3488 17.2335C49.0895 17.2335 49.6361 17.0575 49.9885 16.7054C50.3409 16.3533 50.5172 15.873 50.5172 15.2643V14.7809ZM54.6209 10.0368H56.6636V11.4152H56.6995C56.903 10.9856 57.2132 10.6126 57.6317 10.2964C58.0497 9.9801 58.617 9.82196 59.3342 9.82196C59.9075 9.82196 60.3941 9.9174 60.7944 10.1084C61.1947 10.2993 61.5204 10.55 61.7708 10.8603C62.0219 11.1706 62.201 11.5286 62.3088 11.9344C62.4161 12.3402 62.4697 12.7639 62.4697 13.2055V18.6299H60.3194V14.2796C60.3194 14.041 60.3078 13.7754 60.2835 13.483C60.2597 13.1906 60.1973 12.9161 60.0955 12.6595C59.9938 12.4028 59.8356 12.188 59.6206 12.015C59.4055 11.8419 59.113 11.7554 58.7425 11.7554C58.3843 11.7554 58.0824 11.815 57.8374 11.9344C57.5925 12.0538 57.3896 12.2149 57.2281 12.4178C57.0672 12.6207 56.9506 12.8534 56.8787 13.116C56.8074 13.3786 56.7714 13.653 56.7714 13.9395V18.6299H54.6209V10.0368ZM71.4479 17.341H71.412C71.1018 17.8661 70.6832 18.248 70.158 18.4867C69.6321 18.7254 69.0649 18.8448 68.4555 18.8448C67.7865 18.8448 67.1921 18.7284 66.6724 18.4957C66.1527 18.2629 65.7076 17.9437 65.3371 17.5378C64.9667 17.1321 64.6863 16.6547 64.495 16.1057C64.3037 15.5567 64.2081 14.9659 64.2081 14.3333C64.2081 13.7008 64.3098 13.11 64.5127 12.561C64.7162 12.012 64.9998 11.5346 65.3642 11.1288C65.7286 10.723 66.1676 10.4038 66.6812 10.171C67.1949 9.9383 67.7567 9.82196 68.366 9.82196C68.7718 9.82196 69.1301 9.86371 69.4408 9.94725C69.7516 10.0308 70.0264 10.1382 70.2652 10.2695C70.5041 10.4008 70.7076 10.541 70.8745 10.6902C71.0421 10.8394 71.1792 10.9856 71.2864 11.1288H71.3406V5.0957H73.4909V18.6299H71.4479V17.341ZM66.3589 14.3333C66.3589 14.6675 66.4153 14.9898 66.5286 15.3C66.6425 15.6104 66.8095 15.8849 67.0307 16.1236C67.2519 16.3623 67.5172 16.5532 67.828 16.6965C68.1387 16.8397 68.4909 16.9113 68.8851 16.9113C69.2794 16.9113 69.6321 16.8397 69.9429 16.6965C70.2531 16.5532 70.519 16.3623 70.7402 16.1236C70.9613 15.8849 71.1283 15.6104 71.2417 15.3C71.3556 14.9898 71.412 14.6675 71.412 14.3333C71.412 13.9992 71.3556 13.6769 71.2417 13.3666C71.1283 13.0563 70.9613 12.7818 70.7402 12.5431C70.519 12.3044 70.2531 12.1134 69.9429 11.9702C69.6321 11.827 69.2794 11.7554 68.8851 11.7554C68.4909 11.7554 68.1387 11.827 67.828 11.9702C67.5172 12.1134 67.2519 12.3044 67.0307 12.5431C66.8095 12.7818 66.6425 13.0563 66.5286 13.3666C66.4153 13.6769 66.3589 13.9992 66.3589 14.3333ZM80.8922 5.95501H85.1568C85.7661 5.95501 86.3544 6.01467 86.9222 6.13404C87.4895 6.25342 87.9882 6.45329 88.4184 6.73379C88.8486 7.01422 89.1919 7.3902 89.449 7.86162C89.7056 8.33308 89.8344 8.92083 89.8344 9.62502C89.8344 10.4246 89.6967 11.0691 89.4219 11.5585C89.1472 12.0478 88.7767 12.4267 88.3111 12.6953C87.845 12.9638 87.3043 13.1458 86.6889 13.2413C86.0741 13.3368 85.4316 13.3845 84.7626 13.3845H83.1497V18.6299H80.8922V5.95501ZM84.5121 11.4511C84.8344 11.4511 85.169 11.4391 85.5156 11.4152C85.8617 11.3914 86.1813 11.3197 86.4744 11.2004C86.7669 11.0811 87.0057 10.902 87.1909 10.6633C87.3762 10.4246 87.4685 10.0905 87.4685 9.66079C87.4685 9.26695 87.385 8.95367 87.218 8.72095C87.0505 8.48823 86.8354 8.3092 86.5728 8.18385C86.3096 8.05856 86.0171 7.978 85.6948 7.94217C85.3719 7.9064 85.0617 7.88849 84.7626 7.88849H83.1497V11.4511H84.5121ZM91.3754 10.0368H93.5257V11.3973H93.5616C93.8005 10.896 94.141 10.5082 94.5828 10.2337C95.0252 9.9592 95.5327 9.82196 96.1061 9.82196C96.2377 9.82196 96.366 9.83385 96.4915 9.85774C96.617 9.88162 96.7453 9.91142 96.8769 9.94725V12.0239C96.6977 11.9762 96.5213 11.9374 96.3483 11.9075C96.1752 11.8777 96.0049 11.8628 95.8374 11.8628C95.3359 11.8628 94.9323 11.9553 94.6276 12.1403C94.323 12.3253 94.0902 12.5371 93.9287 12.7758C93.7678 13.0145 93.66 13.2532 93.6064 13.4919C93.5527 13.7306 93.5257 13.9096 93.5257 14.029V18.6299H91.3754V10.0368ZM97.3247 14.3333C97.3247 13.653 97.4475 13.0354 97.6924 12.4804C97.9373 11.9255 98.2685 11.4511 98.6865 11.0572C99.1051 10.6633 99.6005 10.359 100.174 10.1442C100.748 9.92934 101.357 9.82196 102.002 9.82196C102.647 9.82196 103.256 9.92934 103.83 10.1442C104.403 10.359 104.899 10.6633 105.317 11.0572C105.736 11.4511 106.067 11.9255 106.312 12.4804C106.557 13.0354 106.679 13.653 106.679 14.3333C106.679 15.0136 106.557 15.6312 106.312 16.1863C106.067 16.7412 105.736 17.2156 105.317 17.6095C104.899 18.0033 104.403 18.3077 103.83 18.5225C103.256 18.7373 102.647 18.8448 102.002 18.8448C101.357 18.8448 100.748 18.7373 100.174 18.5225C99.6005 18.3077 99.1051 18.0033 98.6865 17.6095C98.2685 17.2156 97.9373 16.7412 97.6924 16.1863C97.4475 15.6312 97.3247 15.0136 97.3247 14.3333ZM99.4755 14.3333C99.4755 14.6675 99.5319 14.9898 99.6453 15.3C99.7592 15.6104 99.9262 15.8849 100.147 16.1236C100.368 16.3623 100.634 16.5532 100.945 16.6965C101.255 16.8397 101.608 16.9113 102.002 16.9113C102.396 16.9113 102.749 16.8397 103.06 16.6965C103.37 16.5532 103.636 16.3623 103.857 16.1236C104.078 15.8849 104.245 15.6104 104.358 15.3C104.472 14.9898 104.529 14.6675 104.529 14.3333C104.529 13.9992 104.472 13.6769 104.358 13.3666C104.245 13.0563 104.078 12.7818 103.857 12.5431C103.636 12.3044 103.37 12.1134 103.06 11.9702C102.749 11.827 102.396 11.7554 102.002 11.7554C101.608 11.7554 101.255 11.827 100.945 11.9702C100.634 12.1134 100.368 12.3044 100.147 12.5431C99.9262 12.7818 99.7592 13.0563 99.6453 13.3666C99.5319 13.6769 99.4755 13.9992 99.4755 14.3333ZM107.414 11.8628V10.0368H109.188V7.54834H111.338V10.0368H113.704V11.8628H111.338V15.6223C111.338 16.0519 111.419 16.3921 111.58 16.6427C111.742 16.8934 112.061 17.0187 112.539 17.0187C112.73 17.0187 112.939 16.9978 113.166 16.956C113.393 16.9143 113.573 16.8457 113.704 16.7502V18.5583C113.477 18.6657 113.199 18.7403 112.871 18.7821C112.542 18.8239 112.252 18.8448 112.002 18.8448C111.428 18.8448 110.959 18.7821 110.595 18.6568C110.23 18.5314 109.944 18.3405 109.735 18.0839C109.525 17.8273 109.382 17.508 109.305 17.1261C109.227 16.7442 109.188 16.3026 109.188 15.8013V11.8628H107.414ZM114.689 14.3333C114.689 13.653 114.812 13.0354 115.057 12.4804C115.302 11.9255 115.633 11.4511 116.051 11.0572C116.47 10.6633 116.965 10.359 117.539 10.1442C118.113 9.92934 118.722 9.82196 119.367 9.82196C120.012 9.82196 120.621 9.92934 121.194 10.1442C121.768 10.359 122.264 10.6633 122.682 11.0572C123.1 11.4511 123.432 11.9255 123.676 12.4804C123.921 13.0354 124.044 13.653 124.044 14.3333C124.044 15.0136 123.921 15.6312 123.676 16.1863C123.432 16.7412 123.1 17.2156 122.682 17.6095C122.264 18.0033 121.768 18.3077 121.194 18.5225C120.621 18.7373 120.012 18.8448 119.367 18.8448C118.722 18.8448 118.113 18.7373 117.539 18.5225C116.965 18.3077 116.47 18.0033 116.051 17.6095C115.633 17.2156 115.302 16.7412 115.057 16.1863C114.812 15.6312 114.689 15.0136 114.689 14.3333ZM116.84 14.3333C116.84 14.6675 116.897 14.9898 117.01 15.3C117.124 15.6104 117.291 15.8849 117.512 16.1236C117.733 16.3623 117.999 16.5532 118.309 16.6965C118.62 16.8397 118.972 16.9113 119.367 16.9113C119.761 16.9113 120.114 16.8397 120.424 16.6965C120.734 16.5532 121 16.3623 121.222 16.1236C121.443 15.8849 121.61 15.6104 121.723 15.3C121.837 14.9898 121.893 14.6675 121.893 14.3333C121.893 13.9992 121.837 13.6769 121.723 13.3666C121.61 13.0563 121.443 12.7818 121.222 12.5431C121 12.3044 120.734 12.1134 120.424 11.9702C120.114 11.827 119.761 11.7554 119.367 11.7554C118.972 11.7554 118.62 11.827 118.309 11.9702C117.999 12.1134 117.733 12.3044 117.512 12.5431C117.291 12.7818 117.124 13.0563 117.01 13.3666C116.897 13.6769 116.84 13.9992 116.84 14.3333ZM131.66 12.6147C131.409 12.3521 131.146 12.1433 130.872 11.9881C130.597 11.833 130.316 11.7554 130.029 11.7554C129.635 11.7554 129.282 11.827 128.972 11.9702C128.662 12.1134 128.396 12.3044 128.174 12.5431C127.954 12.7818 127.786 13.0563 127.673 13.3666C127.559 13.6769 127.503 13.9992 127.503 14.3333C127.503 14.6675 127.559 14.9898 127.673 15.3C127.786 15.6104 127.954 15.8849 128.174 16.1236C128.396 16.3623 128.662 16.5532 128.972 16.6965C129.282 16.8397 129.635 16.9113 130.029 16.9113C130.364 16.9113 130.675 16.8427 130.961 16.7054C131.248 16.5681 131.493 16.3683 131.696 16.1057L133.13 17.6453C132.915 17.8601 132.667 18.0451 132.386 18.2002C132.105 18.3554 131.821 18.4807 131.534 18.5762C131.248 18.6717 130.973 18.7403 130.71 18.7821C130.447 18.8239 130.22 18.8448 130.029 18.8448C129.384 18.8448 128.775 18.7373 128.202 18.5225C127.628 18.3077 127.132 18.0033 126.714 17.6095C126.296 17.2156 125.964 16.7412 125.719 16.1863C125.475 15.6312 125.352 15.0136 125.352 14.3333C125.352 13.653 125.475 13.0354 125.719 12.4804C125.964 11.9255 126.296 11.4511 126.714 11.0572C127.132 10.6633 127.628 10.359 128.202 10.1442C128.775 9.92934 129.384 9.82196 130.029 9.82196C130.579 9.82196 131.131 9.92635 131.687 10.1352C132.242 10.3441 132.729 10.6753 133.147 11.1288L131.66 12.6147ZM133.721 14.3333C133.721 13.653 133.843 13.0354 134.088 12.4804C134.333 11.9255 134.664 11.4511 135.083 11.0572C135.501 10.6633 135.997 10.359 136.57 10.1442C137.144 9.92934 137.753 9.82196 138.398 9.82196C139.043 9.82196 139.652 9.92934 140.226 10.1442C140.8 10.359 141.295 10.6633 141.714 11.0572C142.132 11.4511 142.463 11.9255 142.708 12.4804C142.953 13.0354 143.075 13.653 143.075 14.3333C143.075 15.0136 142.953 15.6312 142.708 16.1863C142.463 16.7412 142.132 17.2156 141.714 17.6095C141.295 18.0033 140.8 18.3077 140.226 18.5225C139.652 18.7373 139.043 18.8448 138.398 18.8448C137.753 18.8448 137.144 18.7373 136.57 18.5225C135.997 18.3077 135.501 18.0033 135.083 17.6095C134.664 17.2156 134.333 16.7412 134.088 16.1863C133.843 15.6312 133.721 15.0136 133.721 14.3333ZM135.871 14.3333C135.871 14.6675 135.928 14.9898 136.042 15.3C136.155 15.6104 136.322 15.8849 136.543 16.1236C136.764 16.3623 137.03 16.5532 137.341 16.6965C137.651 16.8397 138.004 16.9113 138.398 16.9113C138.793 16.9113 139.145 16.8397 139.455 16.6965C139.766 16.5532 140.032 16.3623 140.253 16.1236C140.474 15.8849 140.641 15.6104 140.755 15.3C140.868 14.9898 140.925 14.6675 140.925 14.3333C140.925 13.9992 140.868 13.6769 140.755 13.3666C140.641 13.0563 140.474 12.7818 140.253 12.5431C140.032 12.3044 139.766 12.1134 139.455 11.9702C139.145 11.827 138.793 11.7554 138.398 11.7554C138.004 11.7554 137.651 11.827 137.341 11.9702C137.03 12.1134 136.764 12.3044 136.543 12.5431C136.322 12.7818 136.155 13.0563 136.042 13.3666C135.928 13.6769 135.871 13.9992 135.871 14.3333ZM144.849 5.0957H147V18.6299H144.849V5.0957Z" fill="white"/>
</svg>
