<svg width="142" height="35" viewBox="0 0 142 35" fill="none" xmlns="http://www.w3.org/2000/svg">
<path d="M17.403 31.3282C14.9097 31.3282 12.4663 30.6301 10.2723 29.3336C8.12805 28.0371 6.38276 26.1921 5.18599 23.998C3.98922 21.8039 3.44071 19.3106 3.59031 16.8174C3.69004 14.3241 4.48789 11.8807 5.88412 9.78637C7.28035 7.69202 9.2251 6.04647 11.469 4.94943C13.713 3.8524 16.2561 3.45347 18.7494 3.65293C21.2426 3.90226 23.6362 4.79984 25.6308 6.29579C27.6254 7.79175 29.2211 9.78637 30.1685 12.0802H33.9583C32.7117 8.14081 30.0688 4.74997 26.5283 2.60576C22.9879 0.41169 18.7992 -0.436021 14.7103 0.212228C10.6213 0.860477 6.88141 2.95482 4.18868 6.09634C1.49596 9.23785 0 13.2769 0 17.4158C0 21.5546 1.49596 25.5937 4.18868 28.7352C6.88141 31.8767 10.6213 33.971 14.7103 34.6193C18.7992 35.2675 22.9879 34.4198 26.5283 32.2258C30.0688 30.0317 32.7117 26.6907 33.9583 22.7514H30.1685C29.1214 25.2945 27.3262 27.4387 25.0823 28.9845C22.7885 30.5303 20.1456 31.3282 17.403 31.3282Z" fill="#0040DC"/>
<path d="M23.8855 19.2604C23.4367 20.8561 22.4893 22.2024 21.093 23.1C19.7467 23.9976 18.1011 24.3965 16.4556 24.1472C14.8599 23.9477 13.3639 23.1499 12.2669 21.9032C11.1698 20.6566 10.5714 19.1108 10.5714 17.4652C10.5714 15.8197 11.1698 14.2738 12.2669 13.0272C13.3639 11.7806 14.81 10.9827 16.4556 10.7833C18.0513 10.5838 19.6968 10.9329 21.093 11.8305C22.4394 12.728 23.4367 14.1243 23.8855 15.6701H31.1159C30.9664 14.4234 30.6672 13.2267 30.1685 12.1296H26.1793C25.0324 10.1849 23.2372 8.68894 21.1429 7.84123C19.0485 6.99352 16.7547 6.89378 14.5607 7.49216C12.3666 8.09055 10.4717 9.38705 9.07547 11.1822C7.72911 12.9774 6.98114 15.1714 6.98114 17.4154C6.98114 19.6593 7.72911 21.8534 9.07547 23.6485C10.4218 25.4437 12.3666 26.7402 14.5607 27.3386C16.7547 27.9369 19.0485 27.8372 21.1429 26.9895C23.2372 26.1418 24.9825 24.6458 26.1793 22.7011H30.1685C30.6173 21.5542 30.9664 20.3574 31.1159 19.1607L23.8855 19.2604ZM33.9583 22.8008H37.6483C37.9475 21.6539 38.1469 20.4571 38.2467 19.2604H34.7063C34.5567 20.4571 34.3073 21.6539 33.9583 22.8008ZM34.6564 15.7199H38.1968C38.0971 14.5232 37.8976 13.3264 37.5984 12.1795H33.9583C34.3073 13.3264 34.5567 14.5232 34.6564 15.7199Z" fill="#0040DC"/>
<path d="M34.7563 17.4651C34.7563 16.8667 34.7563 16.2683 34.6566 15.6699H31.0663C31.2158 16.8667 31.2158 18.0635 31.0663 19.2602H34.6566C34.7064 18.6618 34.7563 18.0635 34.7563 17.4651Z" fill="#0040DC"/>
<path d="M16.9545 20.2607C18.5003 20.2607 19.7469 19.0141 19.7469 17.4682C19.7469 15.9224 18.5003 14.6758 16.9545 14.6758C15.4086 14.6758 14.162 15.9224 14.162 17.4682C14.162 19.0141 15.4086 20.2607 16.9545 20.2607Z" fill="#0040DC"/>
<path d="M41.787 15.7185H38.2466C38.2964 16.3169 38.3463 16.8654 38.3463 17.4638C38.3463 18.0622 38.3463 18.7105 38.2466 19.3088H41.787C41.8369 18.7105 41.8868 18.1121 41.8868 17.4638C41.8369 16.8654 41.8369 16.3169 41.787 15.7185ZM54.2534 23.5474C53.2062 23.5474 52.159 23.2981 51.2615 22.7496C50.3639 22.2509 49.566 21.4531 49.0175 20.5555C48.469 19.6579 48.1698 18.6107 48.1698 17.5636C48.1698 16.5164 48.4191 15.4692 48.9178 14.5218C49.4164 13.5743 50.1644 12.8264 51.062 12.2778C51.9596 11.7293 53.0067 11.4301 54.0539 11.3803C55.1011 11.3304 56.1483 11.5797 57.0957 12.0784C58.0431 12.577 58.841 13.2751 59.3895 14.1727C59.7884 14.7212 60.0377 15.3695 60.1873 16.0676H57.0458C56.8464 15.4692 56.4474 14.9706 55.9488 14.6215C55.4501 14.2724 54.8517 14.073 54.2035 14.0231C53.7547 14.0231 53.3558 14.1229 52.9569 14.3223C52.5579 14.5218 52.2089 14.7711 51.9097 15.0703C51.6105 15.3695 51.411 15.7684 51.2615 16.1673C51.1119 16.5663 51.062 17.015 51.062 17.414C51.0121 17.8628 51.1119 18.3115 51.2615 18.7105C51.411 19.1094 51.6105 19.5083 51.9097 19.8075C52.2089 20.1566 52.5579 20.4059 52.9569 20.5555C53.3558 20.7549 53.8046 20.8547 54.2035 20.8547C54.8019 20.8547 55.4003 20.6552 55.8989 20.3062C56.3976 19.9571 56.7965 19.4584 56.996 18.9099H60.1375C59.8383 20.2563 59.0404 21.4032 57.9933 22.2509C56.9461 23.1485 55.5997 23.5973 54.2534 23.5474ZM115.338 23.5474C113.743 23.5474 112.197 22.949 111.1 21.852C109.953 20.7549 109.305 19.259 109.255 17.6633C109.255 16.8156 109.404 15.9679 109.704 15.17C109.903 14.7212 110.152 14.2724 110.452 13.8735C111.05 13.0258 111.898 12.3776 112.845 11.9288C113.793 11.48 114.84 11.3304 115.887 11.3803C116.934 11.48 117.931 11.829 118.779 12.4274C119.627 13.0258 120.325 13.8237 120.824 14.7212C121.272 15.6687 121.522 16.666 121.472 17.7132C121.422 18.7603 121.123 19.7576 120.574 20.6552C120.026 21.5528 119.278 22.2509 118.33 22.7994C117.383 23.2482 116.336 23.5474 115.338 23.5474ZM115.338 14.073C114.89 14.073 114.491 14.1727 114.092 14.3722C113.693 14.5716 113.344 14.821 113.045 15.1202C112.745 15.4193 112.496 15.8183 112.346 16.2172C112.197 16.6161 112.147 17.0649 112.147 17.5137C112.097 17.9625 112.147 18.4113 112.297 18.8102C112.446 19.2091 112.646 19.608 112.945 19.9571C113.244 20.3061 113.593 20.5555 113.992 20.7549C114.391 20.9544 114.84 21.0541 115.289 21.0541C115.737 21.0541 116.186 20.9544 116.585 20.8048C116.984 20.6053 117.333 20.356 117.632 20.0568C117.931 19.7078 118.181 19.3587 118.33 18.9099C118.48 18.511 118.53 18.0622 118.48 17.6134C118.48 17.1646 118.43 16.7657 118.28 16.3668C118.131 15.9679 117.931 15.5689 117.632 15.2698C117.333 14.9706 116.984 14.6714 116.585 14.5218C116.186 14.3223 115.787 14.2226 115.338 14.2226V14.073ZM76.7925 14.6714C76.244 14.6714 75.6955 14.821 75.2467 15.0703C74.7979 15.3695 74.4488 15.8183 74.2494 16.3169V14.821H71.5566V23.2981H74.3491V19.1094C74.3491 18.8601 74.399 18.6107 74.4987 18.3614C74.5984 18.1121 74.6981 17.9126 74.8976 17.7132C75.0971 17.5137 75.2965 17.3641 75.5459 17.2644C75.8451 17.1646 76.1442 17.1148 76.3936 17.1148H76.8424L76.7925 14.6714ZM83.4246 17.1148H81.6793V20.5056C81.6793 20.6552 81.6793 20.7549 81.7292 20.8547C81.779 20.9544 81.8788 21.0541 81.9785 21.1539C82.1779 21.2536 82.4273 21.3035 82.6766 21.3035H83.0257C83.1254 21.3035 83.275 21.3035 83.3747 21.3035V23.3479L82.6267 23.3978C82.3774 23.3978 82.1281 23.3978 81.8787 23.3978C81.3801 23.3978 80.8815 23.3479 80.4327 23.2482C80.0836 23.1983 79.7844 22.9989 79.5351 22.7496C79.2858 22.5002 79.1362 22.201 79.0364 21.852C78.9367 21.3533 78.8868 20.9045 78.8868 20.4059V17.1148H77.9893V14.7212H78.9367V12.2778H81.7292V14.7212H83.4744L83.4246 17.1148ZM93.2481 23.2981H90.5553V22.1512C90.306 22.6 89.9071 22.949 89.4583 23.1983C89.0095 23.4477 88.5109 23.5474 88.0122 23.5973C87.5136 23.5973 86.965 23.5474 86.5162 23.3479C86.1173 23.1983 85.7683 22.949 85.5189 22.6C85.2696 22.2509 85.0702 21.852 85.0203 21.4531C84.9206 20.9544 84.8707 20.5056 84.8707 20.007V14.9207H87.6631V19.8574C87.6631 20.0568 87.6631 20.2563 87.713 20.5056C87.7629 20.7051 87.8626 20.9045 88.0122 21.0541C88.3114 21.3035 88.6604 21.4032 89.0594 21.4032C89.209 21.4032 89.4084 21.3533 89.558 21.3035C89.7575 21.2536 89.9071 21.1539 90.0567 21.0043C90.2063 20.8547 90.3559 20.6552 90.4556 20.4059C90.5553 20.1067 90.6052 19.8075 90.6052 19.4584V14.9207H93.3977V23.2981H93.2481ZM97.3869 20.5056C97.3869 20.7051 97.4368 20.8547 97.4866 21.0541C97.5864 21.2037 97.6861 21.3533 97.8357 21.4531C97.9852 21.5528 98.1349 21.6525 98.2845 21.7024C98.4839 21.7522 98.6834 21.7522 98.833 21.7522C98.9826 21.7522 99.1322 21.7522 99.2818 21.7024C99.4314 21.6525 99.5809 21.6027 99.6807 21.5528C99.8303 21.5029 99.93 21.4032 100.03 21.2536C100.129 21.1539 100.179 21.0043 100.179 20.8547C100.179 20.7051 100.129 20.5555 100.03 20.4557C99.93 20.356 99.8303 20.2563 99.6807 20.2064C99.5311 20.1566 99.3815 20.1067 99.2319 20.0568L98.833 19.9571C98.3842 19.8574 97.9853 19.7576 97.4866 19.6579C97.0378 19.5582 96.6389 19.4584 96.1901 19.259C95.841 19.1094 95.492 18.8601 95.2427 18.511C94.9934 18.1121 94.8438 17.6633 94.8936 17.1646C94.8936 16.7159 94.9934 16.2671 95.2427 15.918C95.492 15.5689 95.7912 15.3196 96.1901 15.1202C96.589 14.9207 96.9879 14.7711 97.4367 14.7212C97.8855 14.6215 98.3343 14.6215 98.7333 14.6215C99.182 14.6215 99.6308 14.6714 100.129 14.7212C100.578 14.7711 100.977 14.9207 101.376 15.17C101.775 15.3695 102.074 15.6687 102.274 16.0177C102.523 16.4167 102.673 16.9153 102.673 17.3641H100.08C100.08 17.2145 100.08 17.0649 99.9799 16.9652C99.93 16.8156 99.8303 16.7159 99.6807 16.666C99.4314 16.5164 99.1322 16.4665 98.833 16.4665C98.6834 16.4665 98.5836 16.4665 98.434 16.4665C98.2844 16.4665 98.1847 16.5164 98.0351 16.5663C97.9354 16.6161 97.8357 16.666 97.7359 16.7657C97.6861 16.8156 97.6362 16.8654 97.6362 16.9153C97.6362 16.9652 97.5863 17.015 97.5863 17.1148C97.5863 17.2145 97.6362 17.3142 97.6861 17.414C97.7359 17.5137 97.8357 17.5636 97.8855 17.6134C98.1349 17.763 98.3842 17.8628 98.6834 17.9126C98.9826 18.0123 99.3316 18.0622 99.6807 18.1121L100.728 18.3115C101.077 18.3614 101.476 18.511 101.775 18.7105C102.024 18.8601 102.274 19.0595 102.423 19.3088C102.573 19.5083 102.673 19.7576 102.772 19.9571C102.822 20.1566 102.872 20.356 102.872 20.5555C102.872 21.0541 102.772 21.5528 102.523 22.0016C102.274 22.4005 101.974 22.6997 101.576 22.949C101.177 23.1983 100.728 23.3479 100.279 23.4477C99.7804 23.5474 99.3316 23.5973 98.833 23.5973C98.3343 23.5973 97.8357 23.5474 97.337 23.4477C96.8882 23.3479 96.4394 23.1983 95.9907 22.949C95.5917 22.6997 95.2925 22.4005 95.0432 22.0016C94.7939 21.5528 94.6443 21.0541 94.6443 20.5555L97.3869 20.5056ZM104.667 20.2563H107.709V23.2981H104.667V20.2563ZM122.718 14.821H125.411V15.9679C125.561 15.7684 125.71 15.5689 125.91 15.3695C126.109 15.17 126.309 15.0703 126.558 14.9207C126.807 14.821 127.057 14.7212 127.306 14.6215C127.555 14.5716 127.805 14.5218 128.054 14.5218C128.652 14.4719 129.201 14.6215 129.749 14.8708C130.148 15.0703 130.448 15.3695 130.647 15.7185C130.847 16.0676 130.996 16.4167 131.046 16.7657C131.096 17.1148 131.146 17.4638 131.146 17.8129V23.2482H128.403V18.3115C128.403 18.0622 128.353 17.8129 128.303 17.5636C128.204 17.3641 128.104 17.1646 127.904 17.015C127.655 16.8654 127.356 16.7657 127.057 16.8156C126.807 16.8156 126.608 16.8654 126.359 16.9652C126.159 17.0649 126.01 17.2145 125.91 17.3641C125.76 17.5636 125.71 17.763 125.661 17.9625C125.611 18.1619 125.561 18.4113 125.561 18.6107V23.2482H122.768L122.718 14.821ZM70.2601 19.0595C70.31 18.4611 70.2103 17.8129 70.0108 17.2644C69.8113 16.666 69.4623 16.1673 69.0634 15.7185C68.6645 15.2698 68.1159 14.9207 67.5674 14.6714C67.0189 14.422 66.4205 14.2724 65.7723 14.2724C65.1739 14.2724 64.5755 14.3722 63.9771 14.6215C63.4286 14.8708 62.8801 15.2199 62.4812 15.6687C62.0324 16.1175 61.7332 16.6161 61.4838 17.2145C61.2844 17.763 61.1348 18.4113 61.1846 19.0097C61.1846 20.1566 61.6334 21.3035 62.4812 22.1512C63.279 22.9989 64.376 23.4975 65.5728 23.5474H66.1712C66.5202 23.5474 66.9192 23.4975 67.2682 23.4477C67.717 23.3479 68.1159 23.1983 68.5148 22.949C68.9138 22.6997 69.213 22.4504 69.5122 22.1013C69.8113 21.7024 70.0108 21.3035 70.1604 20.8048H67.5674C67.4677 21.104 67.2183 21.3533 66.9191 21.5029C66.62 21.6525 66.3208 21.7522 65.9717 21.7522C65.7224 21.7522 65.4731 21.7522 65.2237 21.6525C64.9744 21.5528 64.775 21.4032 64.5755 21.2536C64.4758 21.1539 64.376 21.0043 64.3262 20.8547C64.1766 20.5555 64.0768 20.2064 64.0768 19.8574H70.31C70.2602 19.5083 70.2601 19.3088 70.2601 19.0595ZM65.7723 16.4665C65.9717 16.4665 66.221 16.5164 66.4205 16.6161C66.62 16.7158 66.8194 16.8156 66.969 17.015C67.2682 17.3641 67.4677 17.8129 67.5175 18.2617H64.027C64.0768 17.8129 64.2763 17.3641 64.6254 17.015C64.775 16.8654 64.9744 16.7159 65.1739 16.666C65.3235 16.5164 65.5728 16.4665 65.7723 16.4665ZM141.418 19.0595C141.468 18.4611 141.368 17.8129 141.169 17.2644C140.969 16.666 140.62 16.1673 140.221 15.7185C139.822 15.2698 139.274 14.9207 138.725 14.6714C138.177 14.422 137.578 14.2724 136.93 14.2724C136.332 14.2724 135.733 14.3722 135.135 14.6215C134.586 14.8708 134.038 15.2199 133.639 15.6687C133.19 16.1175 132.891 16.6161 132.642 17.2145C132.442 17.763 132.342 18.4113 132.342 19.0097C132.342 20.1566 132.791 21.3035 133.639 22.1512C134.437 22.9989 135.534 23.4975 136.731 23.5474H137.329C137.678 23.5474 138.077 23.4975 138.426 23.4477C138.875 23.3479 139.274 23.1983 139.673 22.949C140.072 22.6997 140.371 22.4504 140.67 22.1013C140.969 21.7522 141.169 21.3035 141.268 20.8547H138.675C138.576 21.1539 138.326 21.4032 138.027 21.5528C137.728 21.7024 137.429 21.8021 137.08 21.8021C136.83 21.8021 136.581 21.8021 136.332 21.7024C136.082 21.6026 135.883 21.4531 135.683 21.3035C135.584 21.2037 135.484 21.0541 135.384 20.9045C135.235 20.6053 135.135 20.2563 135.135 19.9072H141.368C141.368 19.5582 141.418 19.3088 141.418 19.0595ZM136.93 16.4665C137.13 16.4665 137.379 16.5164 137.578 16.6161C137.778 16.7158 137.977 16.8156 138.127 17.015C138.426 17.3641 138.626 17.8129 138.626 18.2617H135.135C135.185 17.8129 135.384 17.3641 135.733 17.015C135.883 16.8654 136.082 16.7159 136.282 16.666C136.431 16.4665 136.681 16.4665 136.93 16.4665Z" fill="#0040DC"/>
</svg>
