<svg width="142" height="41" viewBox="0 0 142 41" fill="none" xmlns="http://www.w3.org/2000/svg">
<path fill-rule="evenodd" clip-rule="evenodd" d="M56.8837 22.9784C57.2746 22.9784 57.5655 22.8576 57.7564 22.6156C57.947 22.3738 58.0426 22.0252 58.0426 21.5699V16.448C58.0426 15.9926 57.947 15.644 57.7564 15.4022C57.5655 15.1603 57.2698 15.0394 56.8697 15.0394H55.6969V22.9784H56.8837ZM56.8977 14.0293C57.6607 14.0293 58.2217 14.2498 58.5801 14.6908C58.9384 15.1319 59.1177 15.7366 59.1177 16.5048V21.5272C59.1177 22.2955 58.9384 22.8979 58.5801 23.3341C58.2217 23.7706 57.6607 23.9885 56.8977 23.9885H54.6078V14.0293H56.8977Z" fill="white"/>
<path fill-rule="evenodd" clip-rule="evenodd" d="M63.4115 21.6294C63.4115 22.0847 63.507 22.4381 63.6978 22.6893C63.8885 22.9407 64.1794 23.0664 64.5705 23.0664C64.9705 23.0664 65.2638 22.9407 65.45 22.6893C65.6363 22.4381 65.7293 22.0847 65.7293 21.6294V16.3652C65.7293 15.9098 65.6363 15.5567 65.45 15.3053C65.2638 15.0541 64.9705 14.9282 64.5705 14.9282C64.1794 14.9282 63.8885 15.0541 63.6978 15.3053C63.507 15.5567 63.4115 15.9098 63.4115 16.3652V21.6294ZM62.3364 16.4222C62.3364 15.6538 62.5201 15.0444 62.8879 14.5939C63.2556 14.1435 63.8164 13.918 64.5705 13.918C65.3244 13.918 65.8874 14.1435 66.2599 14.5939C66.6322 15.0444 66.8184 15.6538 66.8184 16.4222V21.5724C66.8184 22.3315 66.6322 22.9384 66.2599 23.3937C65.8874 23.8489 65.3244 24.0766 64.5705 24.0766C63.8164 24.0766 63.2556 23.8489 62.8879 23.3937C62.5201 22.9384 62.3364 22.3315 62.3364 21.5724V16.4222Z" fill="white"/>
<path fill-rule="evenodd" clip-rule="evenodd" d="M71.7266 19.6634L71.1541 20.6452V23.9887H70.0651V14.0293H71.1541V18.8382L73.7511 14.0293H74.8542L72.3827 18.5679L74.938 23.9887H73.821L71.7266 19.6634Z" fill="white"/>
<mask id="mask0" mask-type="alpha" maskUnits="userSpaceOnUse" x="54" y="13" width="88" height="12">
<path d="M54.6078 24.0766H141.286V13.918H54.6078V24.0766Z" fill="white"/>
</mask>
<g mask="url(#mask0)">
<path fill-rule="evenodd" clip-rule="evenodd" d="M78.0078 23.9887H79.0969V14.0293H78.0078V23.9887Z" fill="white"/>
<path fill-rule="evenodd" clip-rule="evenodd" d="M83.6088 21.0293H85.787L84.6839 15.2812L83.6088 21.0293ZM83.4692 21.9826L83.0922 23.9887H82.0869L83.9579 14.0293H85.5356L87.4066 23.9887H86.3175L85.9406 21.9826H83.4692Z" fill="white"/>
<path fill-rule="evenodd" clip-rule="evenodd" d="M97.0522 13.918C97.8063 13.918 98.3623 14.1457 98.7208 14.6009C99.0791 15.0561 99.2584 15.6633 99.2584 16.4222V17.3185H98.2253V16.3652C98.2253 15.9098 98.1344 15.5567 97.9529 15.3053C97.7713 15.0541 97.4803 14.9282 97.0804 14.9282C96.6893 14.9282 96.4007 15.0541 96.2145 15.3053C96.0283 15.5567 95.9353 15.9098 95.9353 16.3652V21.6294C95.9353 22.0847 96.0283 22.438 96.2145 22.6893C96.4007 22.9407 96.6893 23.0664 97.0804 23.0664C97.4803 23.0664 97.7713 22.9407 97.9529 22.6893C98.1344 22.438 98.2253 22.0847 98.2253 21.6294V20.3347H99.2584V21.5724C99.2584 22.3315 99.0791 22.9384 98.7208 23.3937C98.3623 23.8489 97.8063 24.0766 97.0522 24.0766C96.3076 24.0766 95.756 23.8489 95.3977 23.3937C95.0394 22.9384 94.8603 22.3315 94.8603 21.5724V16.4222C94.8603 16.0428 94.9043 15.699 94.9928 15.3906C95.0812 15.0824 95.2162 14.8192 95.3977 14.6009C95.5792 14.3828 95.8073 14.2146 96.082 14.0959C96.3565 13.9774 96.6799 13.918 97.0522 13.918Z" fill="white"/>
<path fill-rule="evenodd" clip-rule="evenodd" d="M103.681 21.0293H105.86L104.756 15.2812L103.681 21.0293ZM103.542 21.9826L103.165 23.9887H102.159L104.03 14.0293H105.608L107.479 23.9887H106.39L106.013 21.9826H103.542Z" fill="white"/>
<path fill-rule="evenodd" clip-rule="evenodd" d="M112.692 19.0659C113.101 19.0659 113.404 18.964 113.599 18.76C113.795 18.5562 113.893 18.2122 113.893 17.7284V16.4054C113.893 15.9501 113.806 15.6086 113.634 15.381C113.462 15.1534 113.176 15.0394 112.776 15.0394H111.728V19.0659H112.692ZM112.776 14.0293C113.548 14.0293 114.106 14.2452 114.451 14.6767C114.795 15.1084 114.968 15.7035 114.968 16.4622V17.6573C114.968 18.454 114.784 19.0542 114.416 19.4571C114.048 19.8604 113.474 20.0618 112.692 20.0618H111.728V23.9887H110.639V14.0293H112.776Z" fill="white"/>
<path fill-rule="evenodd" clip-rule="evenodd" d="M118.046 23.9887H119.135V14.0293H118.046V23.9887Z" fill="white"/>
<path fill-rule="evenodd" clip-rule="evenodd" d="M123.926 23.9887V15.0395H122.125V14.0293H126.816V15.0395H125.015V23.9887H123.926Z" fill="white"/>
<path fill-rule="evenodd" clip-rule="evenodd" d="M130.516 21.0293H132.695L131.592 15.2812L130.516 21.0293ZM130.377 21.9826L130 23.9887H128.995L130.866 14.0293H132.443L134.314 23.9887H133.225L132.848 21.9826H130.377Z" fill="white"/>
<path fill-rule="evenodd" clip-rule="evenodd" d="M137.367 23.9887V14.0293H138.456V22.9786H141.248V23.9887H137.367Z" fill="white"/>
</g>
<path fill-rule="evenodd" clip-rule="evenodd" d="M26.8476 6.54648C26.0283 6.20711 25.0891 6.59617 24.7497 7.41547C24.4103 8.23478 24.7994 9.17406 25.6187 9.51342C26.438 9.85278 27.3773 9.46372 27.7166 8.64443C28.056 7.82513 27.6669 6.88584 26.8476 6.54648Z" fill="white"/>
<path fill-rule="evenodd" clip-rule="evenodd" d="M28.3098 9.57003C27.6825 10.1973 27.6825 11.2142 28.3098 11.8414C28.937 12.4687 29.9539 12.4687 30.5812 11.8414C31.2084 11.2142 31.2084 10.1973 30.5812 9.57003C29.9539 8.9428 28.937 8.9428 28.3098 9.57003Z" fill="white"/>
<path fill-rule="evenodd" clip-rule="evenodd" d="M30.6388 15.0702C30.9782 15.8895 31.9175 16.2786 32.7367 15.9392C33.5561 15.5998 33.9451 14.6606 33.6057 13.8413C33.2664 13.022 32.3271 12.6329 31.5078 12.9723C30.6885 13.3116 30.2994 14.2509 30.6388 15.0702Z" fill="white"/>
<path fill-rule="evenodd" clip-rule="evenodd" d="M32.6578 17.1328C31.7708 17.1328 31.0517 17.8519 31.0517 18.7389C31.0517 19.626 31.7708 20.3451 32.6578 20.3451C33.5448 20.3451 34.2639 19.626 34.2639 18.7389C34.2639 17.8519 33.5448 17.1328 32.6578 17.1328Z" fill="white"/>
<path fill-rule="evenodd" clip-rule="evenodd" d="M33.6057 24.1718C33.9451 23.3525 33.5561 22.4132 32.7368 22.0738C31.9175 21.7345 30.9782 22.1235 30.6388 22.9428C30.2994 23.7621 30.6885 24.7014 31.5078 25.0408C32.3271 25.3801 33.2664 24.9911 33.6057 24.1718Z" fill="white"/>
<path fill-rule="evenodd" clip-rule="evenodd" d="M28.3098 25.6325C27.6825 26.2598 27.6825 27.2767 28.3098 27.9039C28.937 28.5312 29.9539 28.5312 30.5812 27.9039C31.2084 27.2767 31.2084 26.2598 30.5812 25.6325C29.9539 25.0053 28.937 25.0053 28.3098 25.6325Z" fill="white"/>
<path fill-rule="evenodd" clip-rule="evenodd" d="M25.6187 27.9625C24.7994 28.3019 24.4103 29.2411 24.7497 30.0604C25.089 30.8797 26.0283 31.2688 26.8477 30.9294C27.6669 30.5901 28.056 29.6508 27.7166 28.8315C27.3773 28.0122 26.438 27.6231 25.6187 27.9625Z" fill="white"/>
<path fill-rule="evenodd" clip-rule="evenodd" d="M21.4147 28.373C20.5277 28.373 19.8086 29.0921 19.8086 29.9792C19.8086 30.8662 20.5277 31.5853 21.4147 31.5853C22.3017 31.5853 23.0208 30.8662 23.0208 29.9792C23.0208 29.0921 22.3017 28.373 21.4147 28.373Z" fill="white"/>
<path fill-rule="evenodd" clip-rule="evenodd" d="M18.6156 30.0604C18.955 29.2411 18.5659 28.3019 17.7466 27.9625C16.9273 27.6231 15.988 28.0122 15.6487 28.8315C15.3093 29.6508 15.6984 30.5901 16.5177 30.9294C17.337 31.2688 18.2763 30.8797 18.6156 30.0604Z" fill="white"/>
<path fill-rule="evenodd" clip-rule="evenodd" d="M14.52 27.9039C15.1473 27.2767 15.1473 26.2598 14.52 25.6325C13.8928 25.0053 12.8759 25.0053 12.2486 25.6325C11.6214 26.2598 11.6214 27.2767 12.2486 27.9039C12.8759 28.5312 13.8928 28.5312 14.52 27.9039Z" fill="white"/>
<path fill-rule="evenodd" clip-rule="evenodd" d="M12.191 22.9428C11.8516 22.1235 10.9124 21.7345 10.0931 22.0738C9.27375 22.4132 8.88469 23.3525 9.22406 24.1718C9.56343 24.9911 10.5027 25.3801 11.322 25.0408C12.1413 24.7014 12.5304 23.7621 12.191 22.9428Z" fill="white"/>
<path fill-rule="evenodd" clip-rule="evenodd" d="M8.5659 18.7389C8.5659 19.626 9.28499 20.3451 10.172 20.3451C11.0591 20.3451 11.7781 19.626 11.7781 18.7389C11.7781 17.8519 11.0591 17.1328 10.172 17.1328C9.28499 17.1328 8.5659 17.8519 8.5659 18.7389Z" fill="white"/>
<path fill-rule="evenodd" clip-rule="evenodd" d="M9.22406 13.8413C8.88469 14.6605 9.27376 15.5998 10.0931 15.9392C10.9124 16.2786 11.8516 15.8895 12.191 15.0702C12.5304 14.2509 12.1413 13.3116 11.322 12.9723C10.5027 12.6329 9.56342 13.022 9.22406 13.8413Z" fill="white"/>
<path fill-rule="evenodd" clip-rule="evenodd" d="M14.52 11.8414C15.1473 11.2142 15.1473 10.1973 14.52 9.57003C13.8928 8.9428 12.8759 8.9428 12.2486 9.57003C11.6214 10.1973 11.6214 11.2142 12.2486 11.8414C12.8759 12.4687 13.8928 12.4687 14.52 11.8414Z" fill="white"/>
<path fill-rule="evenodd" clip-rule="evenodd" d="M17.7466 9.51342C18.5659 9.17405 18.955 8.23477 18.6156 7.41547C18.2763 6.59618 17.337 6.20711 16.5177 6.54648C15.6984 6.88584 15.3093 7.82512 15.6487 8.64443C15.988 9.46372 16.9273 9.85279 17.7466 9.51342Z" fill="white"/>
<path fill-rule="evenodd" clip-rule="evenodd" d="M21.4147 5.88867C20.5277 5.88867 19.8086 6.60776 19.8086 7.49479C19.8086 8.38182 20.5277 9.10091 21.4147 9.10091C22.3017 9.10091 23.0208 8.38182 23.0208 7.49479C23.0208 6.60776 22.3017 5.88867 21.4147 5.88867Z" fill="white"/>
<path fill-rule="evenodd" clip-rule="evenodd" d="M33.3078 1.02457C33.4292 1.10895 33.596 1.07896 33.6804 0.957583C33.7648 0.836202 33.7348 0.669404 33.6134 0.58502C33.492 0.500645 33.3252 0.530633 33.2408 0.652006C33.1565 0.773387 33.1865 0.940184 33.3078 1.02457Z" fill="white"/>
<path fill-rule="evenodd" clip-rule="evenodd" d="M39.4943 7.45192C39.6187 7.37208 39.6548 7.2065 39.575 7.0821C39.4951 6.9577 39.3296 6.92158 39.2052 7.00142C39.0808 7.08126 39.0446 7.24684 39.1245 7.37124C39.2043 7.49565 39.3699 7.53177 39.4943 7.45192Z" fill="white"/>
<path fill-rule="evenodd" clip-rule="evenodd" d="M42.8255 14.6734C42.7993 14.528 42.6602 14.4312 42.5147 14.4574C42.3692 14.4835 42.2725 14.6227 42.2986 14.7682C42.3248 14.9137 42.4639 15.0104 42.6094 14.9842C42.7549 14.9581 42.8516 14.8189 42.8255 14.6734Z" fill="white"/>
<path fill-rule="evenodd" clip-rule="evenodd" d="M42.084 23.0277C41.9395 22.9962 41.797 23.0877 41.7654 23.2321C41.7339 23.3765 41.8255 23.5191 41.9699 23.5507C42.1143 23.5822 42.2569 23.4906 42.2884 23.3462C42.3199 23.2018 42.2284 23.0592 42.084 23.0277Z" fill="white"/>
<path fill-rule="evenodd" clip-rule="evenodd" d="M38.967 30.5635C38.8456 30.4792 38.6788 30.5091 38.5945 30.6305C38.5101 30.7519 38.5401 30.9187 38.6614 31.0031C38.7828 31.0875 38.9496 31.0575 39.034 30.9361C39.1184 30.8147 39.0884 30.6479 38.967 30.5635Z" fill="white"/>
<path fill-rule="evenodd" clip-rule="evenodd" d="M32.7805 36.4448C32.6561 36.5246 32.62 36.6902 32.6999 36.8146C32.7797 36.939 32.9453 36.9751 33.0697 36.8953C33.1941 36.8154 33.2302 36.6499 33.1504 36.5255C33.0705 36.4011 32.9049 36.3649 32.7805 36.4448Z" fill="white"/>
<path fill-rule="evenodd" clip-rule="evenodd" d="M25.3825 39.6215C25.237 39.6476 25.1403 39.7868 25.1664 39.9322C25.1926 40.0777 25.3317 40.1745 25.4772 40.1483C25.6227 40.1221 25.7194 39.983 25.6933 39.8375C25.6671 39.692 25.528 39.5953 25.3825 39.6215Z" fill="white"/>
<path fill-rule="evenodd" clip-rule="evenodd" d="M16.3855 39.0863C16.2411 39.0548 16.0985 39.1463 16.067 39.2907C16.0355 39.4351 16.127 39.5777 16.2714 39.6092C16.4158 39.6407 16.5584 39.5492 16.5899 39.4048C16.6214 39.2604 16.5299 39.1178 16.3855 39.0863Z" fill="white"/>
<path fill-rule="evenodd" clip-rule="evenodd" d="M8.98637 35.919C8.86499 35.8346 8.69819 35.8646 8.61382 35.986C8.52943 36.1074 8.55943 36.2742 8.6808 36.3586C8.80218 36.4429 8.96898 36.4129 9.05336 36.2916C9.13774 36.1702 9.10776 36.0034 8.98637 35.919Z" fill="white"/>
<path fill-rule="evenodd" clip-rule="evenodd" d="M3.33543 30.0229C3.21103 30.1027 3.1749 30.2683 3.25475 30.3927C3.33459 30.5171 3.50017 30.5532 3.62457 30.4734C3.74897 30.3936 3.78509 30.228 3.70525 30.1036C3.62541 29.9792 3.45983 29.9431 3.33543 30.0229Z" fill="white"/>
<path fill-rule="evenodd" clip-rule="evenodd" d="M0.220321 22.4867C0.0748388 22.5129 -0.0218888 22.652 0.00427041 22.7975C0.0304296 22.9429 0.169565 23.0397 0.315047 23.0135C0.460529 22.9874 0.557256 22.8482 0.531105 22.7027C0.504946 22.5573 0.365803 22.4605 0.220321 22.4867Z" fill="white"/>
<path fill-rule="evenodd" clip-rule="evenodd" d="M0.32473 13.389C0.180324 13.3575 0.037712 13.449 0.00620474 13.5935C-0.0252946 13.7379 0.0662297 13.8805 0.210643 13.912C0.355049 13.9435 0.497661 13.852 0.529169 13.7075C0.560668 13.5631 0.469144 13.4205 0.32473 13.389Z" fill="white"/>
<path fill-rule="evenodd" clip-rule="evenodd" d="M3.69977 6.30914C3.78415 6.18776 3.75416 6.02097 3.63278 5.93658C3.5114 5.85221 3.3446 5.88219 3.26023 6.00358C3.17584 6.12495 3.20583 6.29175 3.32721 6.37613C3.44859 6.46051 3.61539 6.43052 3.69977 6.30914Z" fill="white"/>
<path fill-rule="evenodd" clip-rule="evenodd" d="M10.0488 1.03005C10.1732 0.950203 10.2093 0.78463 10.1295 0.660222C10.0496 0.535823 9.88405 0.499704 9.75965 0.579541C9.63525 0.659385 9.59913 0.824959 9.67897 0.949366C9.75882 1.07377 9.92439 1.10989 10.0488 1.03005Z" fill="white"/>
<path fill-rule="evenodd" clip-rule="evenodd" d="M28.1699 2.10018C28.443 2.2133 28.7561 2.08361 28.8692 1.81051C28.9823 1.53742 28.8527 1.22432 28.5796 1.11119C28.3064 0.998073 27.9934 1.12776 27.8802 1.40086C27.7671 1.67396 27.8968 1.98706 28.1699 2.10018Z" fill="white"/>
<path fill-rule="evenodd" clip-rule="evenodd" d="M33.8853 5.50837C33.6762 5.71744 33.6762 6.05642 33.8853 6.2655C34.0943 6.47458 34.4333 6.47458 34.6424 6.2655C34.8515 6.05642 34.8515 5.71744 34.6424 5.50837C34.4333 5.29929 34.0943 5.29929 33.8853 5.50837Z" fill="white"/>
<path fill-rule="evenodd" clip-rule="evenodd" d="M38.2161 12.274C38.4892 12.1609 38.6189 11.8478 38.5058 11.5747C38.3926 11.3016 38.0795 11.1719 37.8064 11.285C37.5333 11.3981 37.4037 11.7112 37.5168 11.9843C37.6299 12.2574 37.943 12.3871 38.2161 12.274Z" fill="white"/>
<path fill-rule="evenodd" clip-rule="evenodd" d="M39.6174 17.666C39.3217 17.666 39.082 17.9057 39.082 18.2014C39.082 18.4971 39.3217 18.7368 39.6174 18.7368C39.9131 18.7368 40.1528 18.4971 40.1528 18.2014C40.1528 17.9057 39.9131 17.666 39.6174 17.666Z" fill="white"/>
<path fill-rule="evenodd" clip-rule="evenodd" d="M38.5058 25.9023C38.6189 25.6292 38.4892 25.3161 38.2161 25.203C37.943 25.0899 37.6299 25.2196 37.5168 25.4927C37.4037 25.7658 37.5333 26.0789 37.8064 26.192C38.0795 26.3051 38.3926 26.1754 38.5058 25.9023Z" fill="white"/>
<path fill-rule="evenodd" clip-rule="evenodd" d="M33.8853 31.2076C33.6762 31.4167 33.6762 31.7556 33.8853 31.9647C34.0943 32.1738 34.4333 32.1738 34.6424 31.9647C34.8515 31.7556 34.8515 31.4167 34.6424 31.2076C34.4333 30.9985 34.0943 30.9985 33.8853 31.2076Z" fill="white"/>
<path fill-rule="evenodd" clip-rule="evenodd" d="M28.1699 34.8417C27.8968 34.9548 27.7671 35.2679 27.8802 35.541C27.9934 35.8141 28.3064 35.9438 28.5796 35.8306C28.8527 35.7175 28.9823 35.4044 28.8692 35.1313C28.7561 34.8582 28.443 34.7285 28.1699 34.8417Z" fill="white"/>
<path fill-rule="evenodd" clip-rule="evenodd" d="M20.8791 36.4023C20.5834 36.4023 20.3437 36.642 20.3437 36.9377C20.3437 37.2334 20.5834 37.4731 20.8791 37.4731C21.1748 37.4731 21.4145 37.2334 21.4145 36.9377C21.4145 36.642 21.1748 36.4023 20.8791 36.4023Z" fill="white"/>
<path fill-rule="evenodd" clip-rule="evenodd" d="M14.6601 34.8417C14.387 34.7285 14.0739 34.8582 13.9608 35.1313C13.8476 35.4044 13.9773 35.7175 14.2504 35.8306C14.5235 35.9438 14.8366 35.8141 14.9497 35.541C15.0629 35.2679 14.9332 34.9548 14.6601 34.8417Z" fill="white"/>
<path fill-rule="evenodd" clip-rule="evenodd" d="M8.94432 31.2076C8.73525 30.9985 8.39627 30.9985 8.18719 31.2076C7.97811 31.4167 7.97811 31.7556 8.18719 31.9647C8.39627 32.1738 8.73525 32.1738 8.94432 31.9647C9.1534 31.7556 9.1534 31.4167 8.94432 31.2076Z" fill="white"/>
<path fill-rule="evenodd" clip-rule="evenodd" d="M4.07798 25.203C3.80488 25.3161 3.6752 25.6292 3.78832 25.9023C3.90144 26.1754 4.21453 26.3051 4.48763 26.192C4.76073 26.0789 4.89042 25.7658 4.7773 25.4927C4.66418 25.2196 4.35108 25.0899 4.07798 25.203Z" fill="white"/>
<path fill-rule="evenodd" clip-rule="evenodd" d="M3.21216 17.666C2.91649 17.666 2.67679 17.9057 2.67679 18.2014C2.67679 18.4971 2.91649 18.7368 3.21216 18.7368C3.50784 18.7368 3.74753 18.4971 3.74753 18.2014C3.74753 17.9057 3.50784 17.666 3.21216 17.666Z" fill="white"/>
<path fill-rule="evenodd" clip-rule="evenodd" d="M4.48764 11.285C4.21453 11.1719 3.90144 11.3016 3.78832 11.5747C3.6752 11.8478 3.80489 12.1609 4.07799 12.274C4.35109 12.3871 4.66417 12.2574 4.7773 11.9843C4.89043 11.7112 4.76074 11.3981 4.48764 11.285Z" fill="white"/>
<path fill-rule="evenodd" clip-rule="evenodd" d="M8.94432 6.2655C9.1534 6.05643 9.1534 5.71744 8.94432 5.50837C8.73525 5.29929 8.39627 5.29929 8.18719 5.50837C7.97811 5.71744 7.97811 6.05643 8.18719 6.2655C8.39627 6.47458 8.73525 6.47458 8.94432 6.2655Z" fill="white"/>
<path fill-rule="evenodd" clip-rule="evenodd" d="M14.2504 1.11119C13.9773 1.22432 13.8476 1.53741 13.9608 1.81051C14.0739 2.08361 14.387 2.2133 14.6601 2.10018C14.9332 1.98706 15.0629 1.67395 14.9497 1.40086C14.8366 1.12776 14.5235 0.998073 14.2504 1.11119Z" fill="white"/>
<path fill-rule="evenodd" clip-rule="evenodd" d="M20.8791 1.07075C21.1748 1.07075 21.4145 0.831056 21.4145 0.535369C21.4145 0.239691 21.1748 0 20.8791 0C20.5834 0 20.3437 0.239691 20.3437 0.535369C20.3437 0.831056 20.5834 1.07075 20.8791 1.07075Z" fill="white"/>
<path fill-rule="evenodd" clip-rule="evenodd" d="M25.1485 4.16242C25.2294 3.72642 24.9416 3.3074 24.5055 3.2265C24.0695 3.14562 23.6505 3.43348 23.5696 3.86949C23.4887 4.30549 23.7766 4.72451 24.2126 4.8054C24.6486 4.88629 25.0676 4.59842 25.1485 4.16242Z" fill="white"/>
<path fill-rule="evenodd" clip-rule="evenodd" d="M29.2756 6.82797C29.6475 7.06956 30.1448 6.96395 30.3864 6.59208C30.628 6.2202 30.5224 5.72287 30.1505 5.48128C29.7786 5.23968 29.2813 5.34529 29.0397 5.71717C28.7981 6.08904 28.9037 6.58636 29.2756 6.82797Z" fill="white"/>
<path fill-rule="evenodd" clip-rule="evenodd" d="M34.4507 10.5645C34.8162 10.3134 34.909 9.81351 34.6578 9.44797C34.4067 9.08245 33.9068 8.98971 33.5413 9.24082C33.1758 9.49194 33.083 9.99183 33.3341 10.3574C33.5853 10.7229 34.0852 10.8156 34.4507 10.5645Z" fill="white"/>
<path fill-rule="evenodd" clip-rule="evenodd" d="M36.3045 16.0416C36.7382 15.9495 37.0152 15.5231 36.9231 15.0894C36.8309 14.6556 36.4046 14.3787 35.9709 14.4708C35.5371 14.5629 35.2602 14.9892 35.3523 15.423C35.4444 15.8567 35.8707 16.1337 36.3045 16.0416Z" fill="white"/>
<path fill-rule="evenodd" clip-rule="evenodd" d="M36.2841 20.8925C35.8481 20.8116 35.4291 21.0995 35.3482 21.5355C35.2673 21.9715 35.5552 22.3905 35.9912 22.4714C36.4272 22.5523 36.8462 22.2644 36.9271 21.8284C37.008 21.3924 36.7201 20.9734 36.2841 20.8925Z" fill="white"/>
<path fill-rule="evenodd" clip-rule="evenodd" d="M34.6693 27.4729C34.9109 27.1011 34.8053 26.6037 34.4334 26.3621C34.0616 26.1205 33.5643 26.2262 33.3226 26.598C33.0811 26.9699 33.1867 27.4672 33.5585 27.7088C33.9304 27.9504 34.4277 27.8448 34.6693 27.4729Z" fill="white"/>
<path fill-rule="evenodd" clip-rule="evenodd" d="M29.7935 30.6568C29.428 30.908 29.3352 31.4078 29.5863 31.7734C29.8374 32.1389 30.3373 32.2317 30.7029 31.9805C31.0684 31.7294 31.1611 31.2295 30.91 30.864C30.6589 30.4985 30.159 30.4057 29.7935 30.6568Z" fill="white"/>
<path fill-rule="evenodd" clip-rule="evenodd" d="M25.68 33.2945C25.5879 32.8607 25.1616 32.5838 24.7278 32.6759C24.2941 32.768 24.0171 33.1943 24.1092 33.628C24.2013 34.0618 24.6276 34.3388 25.0614 34.2466C25.4951 34.1545 25.7721 33.7282 25.68 33.2945Z" fill="white"/>
<path fill-rule="evenodd" clip-rule="evenodd" d="M18.6164 32.6718C18.1804 32.5909 17.7614 32.8788 17.6805 33.3148C17.5996 33.7508 17.8875 34.1698 18.3235 34.2507C18.7595 34.3316 19.1785 34.0437 19.2594 33.6077C19.3403 33.1717 19.0524 32.7527 18.6164 32.6718Z" fill="white"/>
<path fill-rule="evenodd" clip-rule="evenodd" d="M13.5542 30.6453C13.1824 30.4037 12.685 30.5094 12.4434 30.8812C12.2018 31.2531 12.3075 31.7504 12.6793 31.992C13.0512 32.2336 13.5485 32.128 13.7901 31.7561C14.0317 31.3843 13.9261 30.8869 13.5542 30.6453Z" fill="white"/>
<path fill-rule="evenodd" clip-rule="evenodd" d="M8.37875 26.9127C8.01322 27.1638 7.92048 27.6637 8.17159 28.0292C8.42272 28.3948 8.92261 28.4875 9.28813 28.2364C9.65366 27.9853 9.7464 27.4854 9.49529 27.1198C9.24417 26.7543 8.74427 26.6616 8.37875 26.9127Z" fill="white"/>
<path fill-rule="evenodd" clip-rule="evenodd" d="M6.52538 21.4317C6.09162 21.5239 5.81467 21.9502 5.90678 22.3839C5.99889 22.8177 6.42519 23.0946 6.85894 23.0025C7.2927 22.9104 7.56966 22.4841 7.47754 22.0503C7.38543 21.6166 6.95913 21.3396 6.52538 21.4317Z" fill="white"/>
<path fill-rule="evenodd" clip-rule="evenodd" d="M6.54569 16.5827C6.98169 16.6636 7.40071 16.3758 7.48161 15.9398C7.56249 15.5038 7.27463 15.0847 6.83863 15.0038C6.40262 14.923 5.9836 15.2108 5.90272 15.6468C5.82182 16.0828 6.10969 16.5019 6.54569 16.5827Z" fill="white"/>
<path fill-rule="evenodd" clip-rule="evenodd" d="M8.1601 10.0023C7.9185 10.3742 8.02411 10.8715 8.39599 11.1131C8.76786 11.3547 9.26518 11.2491 9.50679 10.8772C9.74838 10.5054 9.64277 10.008 9.27089 9.76644C8.89902 9.52484 8.4017 9.63045 8.1601 10.0023Z" fill="white"/>
<path fill-rule="evenodd" clip-rule="evenodd" d="M13.036 6.81647C13.4015 6.56535 13.4942 6.06546 13.2431 5.69993C12.992 5.3344 12.4921 5.24166 12.1266 5.49278C11.7611 5.74389 11.6683 6.24378 11.9194 6.6093C12.1705 6.97484 12.6704 7.06759 13.036 6.81647Z" fill="white"/>
<path fill-rule="evenodd" clip-rule="evenodd" d="M17.1491 4.18274C17.2412 4.61649 17.6675 4.89344 18.1013 4.80133C18.535 4.70922 18.812 4.28292 18.7198 3.84916C18.6277 3.41541 18.2014 3.13846 17.7677 3.23057C17.3339 3.32269 17.057 3.74898 17.1491 4.18274Z" fill="white"/>
</svg>
