<svg width="145" height="17" viewBox="0 0 145 17" fill="none" xmlns="http://www.w3.org/2000/svg">
<path d="M42.2283 0.248047C50.347 0.248047 58.4634 0.248047 66.5822 0.248047C66.655 1.38608 66.7256 2.52412 66.803 3.76002C66.1179 3.76002 65.6672 3.76002 65.2188 3.76002C58.056 3.76002 50.891 3.76002 43.7282 3.76002C43.3868 3.76002 43.0431 3.74409 42.7062 3.78051C41.8777 3.87155 41.3383 4.32904 41.3633 5.17801C41.3884 5.95643 41.8982 6.40481 42.688 6.47309C43.0272 6.50268 43.3708 6.4913 43.71 6.4913C49.8121 6.4913 55.9143 6.48903 62.0187 6.49585C62.5467 6.49585 63.0839 6.51634 63.6028 6.60055C65.7878 6.9579 67.4084 8.71274 67.636 10.9251C67.8431 12.9508 66.5685 14.9537 64.5588 15.7526C64.1764 15.9051 63.7849 16.0371 63.398 16.1782C54.9014 16.1782 46.4026 16.1782 37.906 16.1782C37.906 15.0561 37.906 13.9363 37.906 12.705C38.4545 12.705 38.9006 12.705 39.3467 12.705C46.8168 12.705 54.2869 12.7072 61.7546 12.7004C62.2076 12.7004 62.7652 12.7937 63.0839 12.573C63.5209 12.2702 64.0466 11.6967 64.0307 11.2574C64.0148 10.8204 63.4389 10.3105 62.9883 10.0169C62.6878 9.82119 62.178 9.93272 61.7615 9.93272C55.6957 9.93044 49.6277 9.93272 43.562 9.92589C43.034 9.92589 42.4991 9.91451 41.9756 9.8394C39.7701 9.52303 38.0471 7.72721 37.8741 5.60136C37.6875 3.2866 39.0622 1.23814 41.2655 0.546212C41.5841 0.450617 41.9073 0.348194 42.2283 0.248047Z" fill="white"/>
<path d="M75.2313 16.1805C75.2313 13.0031 75.2313 9.82574 75.2313 6.49358C75.7661 6.49358 76.21 6.49358 76.6538 6.49358C83.8507 6.49358 91.0454 6.49358 98.2423 6.49358C98.5837 6.49358 98.9251 6.50041 99.2643 6.4822C100.104 6.43895 100.659 5.99284 100.678 5.15753C100.696 4.31538 100.143 3.86017 99.3143 3.78051C98.9752 3.74864 98.6338 3.7623 98.2924 3.7623C91.1342 3.7623 83.9759 3.7623 76.8177 3.7623C76.367 3.7623 75.9164 3.7623 75.2358 3.7623C75.3132 2.52412 75.386 1.38608 75.4589 0.248047C83.5776 0.248047 91.6941 0.248047 99.8128 0.248047C100.097 0.33909 100.38 0.436961 100.664 0.518899C102.929 1.18123 104.351 3.24108 104.167 5.59226C103.996 7.75907 102.246 9.56172 99.9767 9.85306C99.1983 9.9532 98.4062 9.93955 97.9328 9.71194C99.4441 11.4258 100.955 13.142 102.471 14.8513C102.867 15.2997 103.279 15.7367 103.684 16.1782C102.016 16.1782 100.345 16.1782 98.677 16.1782C96.731 14.3233 94.8123 12.4387 92.8207 10.636C92.3974 10.2514 91.7123 9.97369 91.1433 9.96458C87.4287 9.9054 83.7119 9.93272 79.9973 9.93727C79.6309 9.93727 79.2667 9.98052 78.8001 10.0078C78.8001 10.6565 78.8138 11.2164 78.7979 11.7763C78.7546 13.2444 78.7 14.7102 78.6476 16.1782C77.5073 16.1805 76.3693 16.1805 75.2313 16.1805Z" fill="white"/>
<path d="M0.348633 12.7664C2.92514 12.7459 5.49938 12.7163 8.07588 12.7095C12.6986 12.7004 17.3235 12.7323 21.9462 12.6936C24.4659 12.6731 26.2981 11.0958 26.6532 8.7742C26.965 6.75077 25.6676 4.65679 23.6146 4.01039C22.9432 3.79871 22.2012 3.73726 21.4888 3.73498C14.895 3.7145 8.30121 3.7236 1.70745 3.72133C1.25451 3.7236 0.80157 3.68263 0.348633 3.66215C0.348633 2.52412 0.348633 1.38608 0.348633 0.248047C7.93477 0.248047 15.5232 0.248047 23.1093 0.248047C23.4644 0.355022 23.8149 0.471102 24.1722 0.56442C27.7616 1.50216 30.2015 4.62493 30.1879 8.26891C30.1742 11.8765 27.6569 15.0061 24.063 15.8937C23.7398 15.9734 23.4257 16.0827 23.1093 16.1782C15.555 16.1782 8.00077 16.1782 0.446504 16.1782C0.414639 16.1805 0.380498 16.1714 0.348633 16.1669C0.348633 15.0334 0.348633 13.8999 0.348633 12.7664Z" fill="white"/>
<path d="M144.651 0.248047C144.501 0.455169 144.383 0.694156 144.198 0.864861C138.775 5.82669 133.346 10.7817 127.915 15.7367C127.806 15.8368 127.681 15.9165 127.469 16.0735C126.349 15.0561 125.234 14.0478 124.121 13.035C119.699 9.00181 115.274 4.96861 110.854 0.930867C110.638 0.732849 110.472 0.47793 110.283 0.248047C111.951 0.248047 113.622 0.248047 115.29 0.248047C118.545 3.24563 121.8 6.24321 125.059 9.23852C125.86 9.97369 126.67 10.6975 127.513 11.46C129.841 9.33411 132.112 7.27655 134.361 5.1985C136.134 3.562 137.885 1.90047 139.644 0.248047C141.312 0.248047 142.981 0.248047 144.651 0.248047Z" fill="white"/>
<path d="M0.348633 6.62109C1.43659 6.62109 2.52228 6.62109 3.68307 6.62109C3.68307 7.68629 3.68307 8.6559 3.68307 9.80759C2.5769 9.80759 1.46391 9.80759 0.348633 9.80759C0.348633 8.74467 0.348633 7.68402 0.348633 6.62109Z" fill="#ED1C24"/>
</svg>
