<svg width="144" height="27" viewBox="0 0 144 27" fill="none" xmlns="http://www.w3.org/2000/svg">
<path d="M25.2873 10.9103L20.2896 2.26289C20.0659 1.87552 19.7441 1.55397 19.3565 1.3307C18.9689 1.10743 18.5293 0.990333 18.082 0.991216H8.09674C7.54309 0.9927 6.99951 1.13932 6.52021 1.41646C6.04092 1.69359 5.64266 2.09155 5.36517 2.57064L0.367479 11.2181C0.144252 11.6047 0.0267334 12.0433 0.0267334 12.4897C0.0267334 12.9362 0.144252 13.3748 0.367479 13.7614L5.36517 22.4215C5.64288 22.901 6.04154 23.2992 6.52132 23.5764C7.0011 23.8535 7.5452 23.9999 8.09928 24.001H18.082C18.5275 24.0001 18.9651 23.8821 19.3507 23.6589C19.7364 23.4358 20.0566 23.1152 20.2794 22.7293L25.2771 14.0819C25.5578 13.6009 25.7065 13.0543 25.7083 12.4975C25.7101 11.9406 25.5649 11.3931 25.2873 10.9103V10.9103ZM1.78667 12.5253L2.3513 11.5563L6.81489 3.8118L9.61258 8.66452C9.74312 8.86863 9.94735 9.01452 10.1828 9.07183C10.4182 9.12913 10.6666 9.09344 10.8763 8.97218C11.0861 8.85092 11.241 8.65343 11.3088 8.42084C11.3766 8.18824 11.3521 7.93845 11.2403 7.72348L8.98691 3.8118C8.80009 3.5349 8.55088 3.30573 8.25933 3.14272C7.96777 2.97972 7.64203 2.88744 7.3083 2.8733H17.3851L12.6468 11.0807C12.5631 11.2252 12.4429 11.3451 12.2983 11.4286C12.1537 11.5121 11.9897 11.5561 11.8228 11.5563H3.48818C3.14442 11.5541 2.80614 11.6424 2.50743 11.8126C2.20871 11.9827 1.96011 12.2285 1.78667 12.5253V12.5253ZM17.3851 22.1214H8.44518L11.2429 17.2636C11.3114 17.1565 11.3575 17.0366 11.3784 16.9112C11.3992 16.7858 11.3945 16.6575 11.3644 16.534C11.3344 16.4105 11.2796 16.2943 11.2034 16.1925C11.1272 16.0908 11.0312 16.0055 10.9211 15.9419C10.811 15.8783 10.6892 15.8376 10.563 15.8223C10.4368 15.8071 10.3088 15.8176 10.1868 15.8531C10.0647 15.8887 9.95113 15.9487 9.85288 16.0293C9.75464 16.11 9.67375 16.2098 9.61512 16.3226L6.81743 21.1804L6.26044 22.1519C6.41426 21.883 6.50208 21.5814 6.51667 21.2719C6.53126 20.9624 6.47221 20.6538 6.34437 20.3716L2.34621 13.4359H11.8228C11.9897 13.4363 12.1536 13.4805 12.2981 13.5639C12.4427 13.6473 12.5629 13.7672 12.6468 13.9115V13.9115L16.8561 21.2007C17.0418 21.4737 17.2892 21.6993 17.5781 21.8592C17.867 22.0191 18.1894 22.1089 18.5194 22.1214H17.3851ZM23.484 13.4384L19.0154 21.1804L14.2669 12.973C14.1839 12.8282 14.1403 12.6642 14.1403 12.4974C14.1403 12.3305 14.1839 12.1665 14.2669 12.0218V12.0218L19.0154 3.8118L19.5724 2.84278C19.386 3.16926 19.2971 3.54227 19.316 3.91771C19.3349 4.29314 19.461 4.65531 19.6792 4.9614C19.8394 5.18521 23.4942 11.5538 23.4942 11.5538H17.8709C17.6213 11.5538 17.3819 11.6529 17.2054 11.8294C17.029 12.0059 16.9298 12.2452 16.9298 12.4948C16.9298 12.7444 17.029 12.9838 17.2054 13.1602C17.3819 13.3367 17.6213 13.4359 17.8709 13.4359H22.3726H22.3472C22.6909 13.4381 23.0292 13.3497 23.3279 13.1796C23.6266 13.0095 23.8752 12.7636 24.0487 12.4668L23.4815 13.4409L23.484 13.4384Z" fill="white"/>
<path d="M79.7648 7.39285C79.1843 7.38035 78.6117 7.53009 78.1116 7.82522C77.6293 8.12295 77.1975 8.49555 76.8323 8.92903L76.7814 8.99007H76.4839L76.1736 7.62175H72.9384C72.8186 7.62176 72.7016 7.65827 72.603 7.72642C72.5044 7.79458 72.4289 7.89113 72.3865 8.00325L71.8016 9.56233H75.5454C75.5454 9.56233 74.3729 9.56233 74.3729 10.5135V15.7122H72.9359C72.816 15.7122 72.699 15.7487 72.6004 15.8168C72.5018 15.885 72.4263 15.9816 72.384 16.0937L71.799 17.6527H80.0929C80.2135 17.6531 80.3313 17.6164 80.4304 17.5478C80.5295 17.4791 80.6052 17.3817 80.6474 17.2687L81.2323 15.7096H76.7306V11.0705L76.7586 11.0273C77.0042 10.6518 77.3061 10.3164 77.6538 10.0329C78.0683 9.71719 78.5805 9.55698 79.101 9.58013C79.2658 9.56949 79.4305 9.603 79.578 9.67722C79.7255 9.75143 79.8506 9.86366 79.9403 10.0023C80.1081 10.3146 80.1914 10.6653 80.1819 11.0197H82.27C82.2522 9.73019 82.0157 8.79678 81.5909 8.24487C81.3779 7.96605 81.1005 7.74293 80.7825 7.59457C80.4645 7.4462 80.1153 7.37699 79.7648 7.39285Z" fill="white"/>
<path d="M92.4714 12.4365C91.9563 12.19 91.4178 11.9957 90.864 11.8566L89.2235 11.4319C88.7887 11.321 88.3635 11.1756 87.9518 10.997C87.5474 10.8164 87.3414 10.5621 87.3414 10.234C87.3453 10.0437 87.4088 9.85941 87.5228 9.70704C87.6369 9.55467 87.7958 9.44187 87.9773 9.38449C88.4493 9.2081 88.9513 9.12601 89.455 9.14287C89.7909 9.14363 90.1259 9.17944 90.4545 9.24969C90.7804 9.31872 91.1009 9.41138 91.4133 9.52692C91.7135 9.63883 92.0059 9.76345 92.2781 9.89571C92.4917 9.99998 92.6876 10.1017 92.8605 10.2009L93.8295 8.63166C93.66 8.51806 93.4743 8.39428 93.2725 8.26033C92.9761 8.07656 92.6606 7.92561 92.3315 7.81015C91.9038 7.66048 91.465 7.54482 91.0191 7.46426C90.4406 7.36327 89.854 7.3156 89.2668 7.32183C88.6832 7.31808 88.1015 7.38642 87.5347 7.5253C87.0519 7.64024 86.5931 7.8391 86.1791 8.11281C85.8198 8.35411 85.5184 8.67201 85.2966 9.04368C85.0772 9.43087 84.9672 9.87047 84.9787 10.3154C84.9567 10.8281 85.1232 11.3311 85.4466 11.7295C85.7835 12.1155 86.192 12.4325 86.6496 12.6629C87.1588 12.921 87.6966 13.1182 88.252 13.2504C88.842 13.3954 89.3939 13.5378 89.895 13.6777C90.3363 13.7947 90.7662 13.9513 91.1794 14.1457C91.3502 14.2058 91.4991 14.3158 91.6069 14.4612C91.7148 14.6067 91.7767 14.7811 91.7847 14.9621C91.7928 15.1556 91.7422 15.347 91.6396 15.5113C91.5371 15.6756 91.3873 15.8051 91.2099 15.8828C90.5588 16.1931 89.6076 16.1905 88.6996 15.9667C88.2853 15.8659 87.879 15.735 87.4839 15.575C87.1253 15.4313 86.7798 15.2569 86.4513 15.0536C86.2198 14.9087 86.0265 14.7764 85.8663 14.6543L84.8032 16.3202C85.3842 16.7866 86.0336 17.1606 86.7285 17.4291C87.6919 17.791 88.7161 17.9637 89.7449 17.9378C91.2073 17.9378 92.3188 17.6453 93.0513 17.0705C93.4056 16.7947 93.6884 16.4376 93.8756 16.0294C94.0629 15.6213 94.1491 15.1741 94.1271 14.7255C94.1478 14.2235 93.982 13.7316 93.6617 13.3445C93.3295 12.9654 92.9248 12.6567 92.4714 12.4365V12.4365Z" fill="white"/>
<path d="M105.715 14.9261C105.499 15.1032 105.268 15.2615 105.025 15.3992C104.754 15.5512 104.467 15.6716 104.168 15.7578C103.822 15.8561 103.463 15.904 103.103 15.9002C102.762 15.9169 102.421 15.8557 102.108 15.7212C101.794 15.5868 101.515 15.3828 101.292 15.1245C100.867 14.6158 100.651 13.8019 100.651 12.7007V9.56217H105.359L106.081 7.62159H100.653V4.55176L98.7255 5.10112C98.6024 5.13646 98.4941 5.21092 98.417 5.31324C98.3399 5.41556 98.2983 5.54018 98.2983 5.66829V7.62922H97.3801C97.2603 7.62923 97.1432 7.66574 97.0447 7.73389C96.9461 7.80205 96.8706 7.8986 96.8282 8.01072L96.2432 9.5698H99.5623C99.5623 9.5698 98.2906 9.5698 98.2906 10.5693V12.6905C98.2906 14.5192 98.6696 15.8672 99.4199 16.6937C100.17 17.5203 101.297 17.9349 102.79 17.9349C103.218 17.9331 103.644 17.8854 104.062 17.7925C104.488 17.6999 104.905 17.5679 105.308 17.3983C105.695 17.235 106.068 17.0384 106.422 16.8107C106.701 16.6341 106.958 16.4231 107.185 16.1825L106.119 14.5828L105.715 14.9261Z" fill="white"/>
<path d="M117.874 15.5543C117.861 15.3847 117.841 15.2016 117.813 15.0049C117.785 14.6353 117.77 14.3021 117.77 14.0053C117.77 13.6137 117.796 13.161 117.844 12.6599C117.892 12.1589 117.915 11.5714 117.915 10.8796C117.921 10.3915 117.853 9.90534 117.714 9.43748C117.591 9.03529 117.374 8.66822 117.081 8.36673C116.755 8.04809 116.358 7.81029 115.924 7.67239C115.348 7.49165 114.747 7.40575 114.143 7.41806C113.288 7.40139 112.435 7.48678 111.6 7.67239C111.002 7.81616 110.416 8.00752 109.848 8.24465L110.387 10.025C110.803 9.84839 111.227 9.69304 111.658 9.55956C112.289 9.36784 112.945 9.27433 113.604 9.28234C114.113 9.2495 114.619 9.3815 115.046 9.65875C115.392 9.91309 115.555 10.3455 115.555 10.9304V11.317C115.555 11.4698 115.541 11.6223 115.512 11.7723L115.491 11.9274H115.341C114.939 11.9003 114.6 11.8723 114.324 11.8435C114.054 11.8155 113.797 11.8028 113.561 11.8028C112.933 11.7969 112.305 11.8617 111.692 11.9961C111.192 12.1025 110.715 12.2981 110.285 12.5734C109.915 12.8157 109.615 13.1507 109.415 13.545C109.205 13.9905 109.102 14.4793 109.115 14.9718C109.097 15.3586 109.164 15.7446 109.311 16.1027C109.458 16.4609 109.682 16.7824 109.967 17.0447C110.537 17.5533 111.323 17.8306 112.307 17.8306C112.993 17.8647 113.675 17.7117 114.281 17.388C114.73 17.1257 115.113 16.7647 115.402 16.3325L115.453 16.2537H115.791L116.064 17.6652H118.381C118.518 17.6653 118.651 17.6172 118.757 17.5295C118.863 17.4417 118.935 17.3197 118.96 17.1845L119.235 15.7247H117.9L117.874 15.5543ZM115.54 14.6717L115.519 14.7099C115.329 15.0402 115.068 15.3249 114.756 15.5441C114.284 15.8387 113.732 15.9775 113.177 15.9408C112.607 15.9408 112.203 15.8213 111.941 15.5721C111.809 15.4388 111.706 15.2796 111.638 15.1045C111.571 14.9294 111.54 14.7422 111.549 14.5547C111.543 14.3031 111.62 14.0566 111.768 13.8527C111.914 13.6599 112.103 13.504 112.32 13.3975C112.554 13.278 112.804 13.1924 113.062 13.1432C113.629 13.0488 114.207 13.0411 114.777 13.1203C115.056 13.1559 115.262 13.1864 115.405 13.2144L115.542 13.2423V14.6692L115.54 14.6717Z" fill="white"/>
<path d="M127.404 12.1827L131.441 7.62752H128.717L125.324 11.7503H124.449V3.47168H121.529C121.409 3.47169 121.292 3.5082 121.194 3.57636C121.095 3.64451 121.02 3.74107 120.977 3.85318L120.392 5.41226H123.236C123.236 5.41226 122.094 5.41226 122.094 6.24648V17.6534H124.449V13.3577H125.426L128.986 17.6534H130.96C131.081 17.6537 131.198 17.6171 131.298 17.5484C131.397 17.4798 131.472 17.3824 131.514 17.2694L132.099 15.7103H130.258L127.404 12.1827Z" fill="white"/>
<path d="M55.7987 7.62168C55.6738 7.62161 55.552 7.66123 55.451 7.73482C55.35 7.80841 55.2749 7.91218 55.2367 8.03116L53.0977 13.9877H52.7111L49.8575 7.62931H47.7821C47.6622 7.62933 47.5452 7.66584 47.4466 7.73399C47.348 7.80214 47.2725 7.8987 47.2302 8.01082L46.6452 9.5699H49.5421C49.5421 9.5699 48.1585 9.5699 48.685 10.8416L51.6124 17.6527H54.0642L57.897 7.61914L55.7987 7.62168Z" fill="white"/>
<path d="M43.7026 8.22152C43.2555 7.89831 42.7503 7.6643 42.2147 7.53227C40.9828 7.22269 39.6885 7.26766 38.4811 7.66198C37.8473 7.87073 37.2636 8.20845 36.7668 8.65389C36.2719 9.11548 35.8839 9.67972 35.6299 10.3071C35.3349 11.0476 35.1913 11.8398 35.2078 12.6368C35.195 13.3967 35.3209 14.1525 35.5791 14.8673C35.8088 15.4979 36.1772 16.0688 36.657 16.5381C37.1368 17.0073 37.7158 17.3629 38.3513 17.5785C39.0973 17.831 39.8809 17.954 40.6683 17.9422C41.177 17.9422 43.4965 17.8558 45.2744 16.5841L44.9463 14.9258C43.7152 15.704 42.29 16.12 40.8337 16.1263C40.4264 16.1317 40.0199 16.0881 39.623 15.9966C39.2554 15.9098 38.9064 15.7573 38.593 15.5464C38.2885 15.3388 38.0361 15.0638 37.8554 14.7427C37.658 14.3732 37.5541 13.9611 37.5527 13.5422V13.3667H45.0404C45.1536 12.7876 45.2132 12.1993 45.2184 11.6093C45.2441 10.8924 45.0976 10.1799 44.7911 9.53135C44.5354 9.01579 44.1626 8.56722 43.7026 8.22152V8.22152ZM43.0616 11.7288H37.601L37.6163 11.5457C37.6418 11.1872 37.7488 10.8392 37.9291 10.5283C38.1016 10.2307 38.3326 9.97114 38.6082 9.76534C38.8842 9.56109 39.193 9.40541 39.5213 9.30499C39.8676 9.20006 40.2277 9.14776 40.5895 9.14985C41.4085 9.14985 42.0341 9.37112 42.4461 9.80603C42.874 10.2875 43.0959 10.9176 43.0642 11.561L43.0616 11.7288Z" fill="white"/>
<path d="M67.8517 8.22152C67.4046 7.89831 66.8995 7.6643 66.3638 7.53227C65.1319 7.22269 63.8376 7.26766 62.6302 7.66198C61.9964 7.87073 61.4128 8.20845 60.916 8.65389C60.4167 9.11346 60.0243 9.6769 59.7664 10.3045C59.4713 11.0451 59.3277 11.8373 59.3442 12.6342C59.3314 13.3941 59.4573 14.15 59.7155 14.8648C59.9463 15.4964 60.3162 16.068 60.7978 16.5374C61.2795 17.0067 61.8605 17.3616 62.4979 17.576C63.2439 17.8285 64.0275 17.9515 64.8149 17.9397C65.3236 17.9397 67.6431 17.8532 69.4209 16.5815L69.1005 14.9284C67.8694 15.7065 66.4442 16.1225 64.9879 16.1288C64.5793 16.1311 64.172 16.0841 63.7747 15.9889C63.407 15.9021 63.0581 15.7496 62.7446 15.5388C62.4381 15.3286 62.1847 15.05 62.0045 14.7249C61.8072 14.3554 61.7033 13.9433 61.7019 13.5244V13.3489H69.2022C69.3155 12.7698 69.3751 12.1815 69.3802 11.5915C69.4032 10.8768 69.2549 10.167 68.9479 9.52118C68.6887 9.00849 68.3133 8.56345 67.8517 8.22152V8.22152ZM67.2108 11.7288H61.7502L61.7654 11.5457C61.7909 11.1872 61.8979 10.8392 62.0783 10.5283C62.2507 10.2307 62.4817 9.97114 62.7573 9.76534C63.0333 9.56109 63.3421 9.40541 63.6704 9.30499C64.0167 9.20006 64.3768 9.14776 64.7386 9.14985C65.5576 9.14985 66.1832 9.37112 66.5953 9.80603C67.0231 10.2875 67.245 10.9176 67.2133 11.561L67.2108 11.7288Z" fill="white"/>
<path d="M142.079 8.22152C141.632 7.89831 141.127 7.6643 140.592 7.53227C139.36 7.22269 138.065 7.26766 136.858 7.66198C136.224 7.87073 135.641 8.20845 135.144 8.65389C134.644 9.11346 134.252 9.6769 133.994 10.3045C133.699 11.0451 133.556 11.8373 133.572 12.6342C133.559 13.3941 133.685 14.15 133.943 14.8648C134.174 15.4971 134.544 16.0695 135.026 16.5393C135.508 17.009 136.09 17.3643 136.728 17.5785C137.474 17.831 138.258 17.954 139.045 17.9422C139.554 17.9422 141.873 17.8558 143.651 16.5841L143.323 14.9258C142.092 15.704 140.667 16.12 139.211 16.1263C138.802 16.1285 138.395 16.0816 137.997 15.9864C137.63 15.8996 137.281 15.7471 136.967 15.5362C136.663 15.3287 136.41 15.0536 136.23 14.7325C136.032 14.3631 135.928 13.9509 135.927 13.5321V13.3566H143.433C143.546 12.7775 143.605 12.1891 143.611 11.5991C143.636 10.8823 143.49 10.1697 143.183 9.52118C142.922 9.00768 142.544 8.56256 142.079 8.22152V8.22152ZM141.433 11.7288H135.978L135.993 11.5457C136.019 11.1872 136.126 10.8392 136.306 10.5283C136.478 10.2307 136.71 9.97114 136.985 9.76534C137.261 9.56109 137.57 9.40541 137.898 9.30499C138.244 9.20006 138.605 9.14776 138.966 9.14985C139.785 9.14985 140.411 9.37112 140.823 9.80603C141.251 10.2875 141.473 10.9176 141.441 11.561L141.433 11.7288Z" fill="white"/>
</svg>
