<svg width="82" height="23" viewBox="0 0 82 23" fill="none" xmlns="http://www.w3.org/2000/svg">
<path d="M3.8196 3.5809V7.7702H10.8536V10.349H3.8196V16.6318H1V1H11.7038V3.57873H3.8196V3.5809Z" fill="white" stroke="white" stroke-width="0.201162" stroke-miterlimit="10"/>
<path d="M13.7805 16.6301V5.16602H16.5552V16.6301H13.7805Z" fill="white" stroke="white" stroke-width="0.201162" stroke-miterlimit="10"/>
<path d="M29.5491 18.1526C29.5491 18.9029 29.3825 19.5261 29.0471 20.0263C28.7118 20.5265 28.2824 20.9189 27.7591 21.2057C27.2357 21.4925 26.6441 21.6951 25.9904 21.8116C25.3346 21.9302 24.6938 21.9884 24.068 21.9884C23.3695 21.9884 22.6731 21.9366 21.9832 21.8331C21.2911 21.7296 20.6481 21.4666 20.05 21.0396C19.6143 20.7313 19.2747 20.3713 19.0354 19.9595C18.7962 19.5476 18.6744 19.0712 18.6744 18.5256C18.6744 18.0254 18.7919 17.5661 19.0248 17.1479C19.2576 16.7296 19.5929 16.4105 20.0287 16.1884C19.6656 15.9836 19.3836 15.6989 19.1871 15.3389C18.9906 14.9788 18.8923 14.608 18.8923 14.2241C18.8923 13.2389 19.343 12.4691 20.2466 11.9085C19.8962 11.5549 19.6207 11.1453 19.4178 10.673C19.2127 10.203 19.1123 9.67474 19.1123 9.08615C19.1123 8.40912 19.2362 7.80752 19.484 7.27716C19.7318 6.74673 20.0671 6.30691 20.4901 5.95331C20.913 5.59965 21.4043 5.33233 21.9639 5.14906C22.5236 4.96579 23.1238 4.87307 23.7646 4.87307C24.2303 4.87307 24.6832 4.93562 25.1189 5.06068C25.5546 5.18573 25.9626 5.35822 26.3429 5.5781C26.5906 5.07789 26.9174 4.71569 27.3254 4.48714C27.7334 4.25859 28.1778 4.14648 28.6583 4.14648C28.7459 4.14648 28.8698 4.14648 29.03 4.14648C29.1902 4.14648 29.3141 4.16153 29.4017 4.18959V6.32847L29.1838 6.30691C28.8634 6.30691 28.575 6.35863 28.3209 6.46213C28.0667 6.56562 27.8936 6.7575 27.8082 7.03566C28.2012 7.68247 28.3978 8.37245 28.3978 9.10771C28.3978 9.76963 28.2696 10.3582 28.0154 10.8714C27.7612 11.3867 27.4216 11.8201 27.0008 12.1716C26.5778 12.5252 26.0865 12.7968 25.5269 12.9866C24.9651 13.1785 24.3798 13.2733 23.7689 13.2733C23.1281 13.2733 22.5172 13.1699 21.934 12.965C21.8037 13.0383 21.6756 13.1461 21.5517 13.2841C21.4278 13.4242 21.3658 13.5903 21.3658 13.78C21.3658 14.1185 21.5005 14.3428 21.7696 14.4527C22.0387 14.5627 22.3185 14.6187 22.6112 14.6187H24.4888C24.7643 14.6187 25.0634 14.623 25.3838 14.6295C25.7042 14.6381 26.0289 14.6662 26.3557 14.7179C26.6825 14.7697 27.0029 14.8473 27.3169 14.9486C27.6309 15.0521 27.9171 15.1987 28.1799 15.3885C28.6754 15.727 29.0279 16.1324 29.2393 16.6002C29.4444 17.0789 29.5491 17.5942 29.5491 18.1526ZM26.973 18.2195C26.973 17.8659 26.879 17.5942 26.6889 17.4044C26.4988 17.2126 26.2702 17.0746 26.0011 16.9862C25.732 16.8978 25.4393 16.846 25.1274 16.8331C24.8134 16.818 24.5272 16.8115 24.2645 16.8115H22.1242C21.8315 16.8999 21.588 17.0659 21.3915 17.3074C21.195 17.551 21.0967 17.8551 21.0967 18.2216C21.0967 18.5882 21.195 18.8749 21.3915 19.0819C21.588 19.2868 21.8315 19.4463 22.1242 19.5563C22.4146 19.6663 22.7286 19.7352 23.064 19.7654C23.3994 19.7956 23.6984 19.8085 23.959 19.8085C24.2345 19.8085 24.5485 19.7977 24.8989 19.7762C25.2492 19.7546 25.576 19.6921 25.8814 19.5886C26.187 19.4851 26.4454 19.3277 26.6569 19.1143C26.8662 18.8987 26.973 18.6011 26.973 18.2195ZM25.7704 9.09043C25.7704 8.47378 25.591 7.9628 25.2343 7.55742C24.8775 7.15211 24.3863 6.95155 23.7604 6.95155C23.1345 6.95155 22.6432 7.15427 22.2865 7.55742C21.9297 7.96063 21.7504 8.47161 21.7504 9.09043C21.7504 9.70707 21.9276 10.2159 22.2865 10.6127C22.6432 11.0094 23.1345 11.2077 23.7604 11.2077C24.3863 11.2077 24.8775 11.0094 25.2343 10.6127C25.5931 10.2159 25.7704 9.70924 25.7704 9.09043Z" fill="white" stroke="white" stroke-width="0.201162" stroke-miterlimit="10"/>
<path d="M44.5334 16.6315V9.50989C44.5334 8.80479 44.4137 8.25715 44.1724 7.86688C43.9331 7.47878 43.4696 7.28256 42.786 7.28256C42.393 7.28256 42.0577 7.37529 41.7821 7.55856C41.5066 7.74183 41.2758 7.98549 41.0943 8.2852C40.9127 8.58702 40.7781 8.92124 40.6906 9.28778C40.603 9.65649 40.5603 10.0144 40.5603 10.368V16.6294H37.8518V9.50989C37.8518 8.80479 37.7321 8.25715 37.4908 7.86688C37.2515 7.47878 36.788 7.28256 36.1044 7.28256C35.7114 7.28256 35.3761 7.37529 35.1005 7.55856C34.825 7.74183 34.59 7.98549 34.402 8.2852C34.2119 8.58702 34.0752 8.92124 33.9876 9.28778C33.9001 9.65649 33.8574 10.0144 33.8574 10.368V16.6294H31.1488V5.16741H33.4195L33.6373 6.68964C33.9577 6.16138 34.3871 5.72801 34.9254 5.38952C35.4636 5.05097 36.113 4.88281 36.8692 4.88281C37.6702 4.88281 38.3409 5.04887 38.8792 5.37874C39.4175 5.70862 39.834 6.17005 40.1245 6.75647C40.4599 6.15494 40.9213 5.69134 41.5108 5.36797C42.1004 5.04453 42.7818 4.88281 43.5529 4.88281C44.7768 4.88281 45.6975 5.25369 46.317 5.99756C46.9364 6.74142 47.2462 7.70516 47.2462 8.89751V16.6358H44.5334V16.6315Z" fill="white" stroke="white" stroke-width="0.201162" stroke-miterlimit="10"/>
<path d="M59.648 10.9866C59.6331 11.0901 59.6267 11.1849 59.6267 11.2734V11.7585H52.0266C52.0266 12.2005 52.0949 12.6188 52.2338 13.0155C52.3726 13.4123 52.582 13.7421 52.8554 14.0074C53.0604 14.1992 53.2975 14.3631 53.5667 14.5032C53.8358 14.6434 54.1583 14.7124 54.5386 14.7124C54.9316 14.7124 55.2563 14.6714 55.5105 14.5916C55.7647 14.5118 55.9954 14.3674 56.1983 14.1626C56.4589 13.8974 56.6426 13.5739 56.7451 13.1923H59.3661C59.3362 13.5308 59.2229 13.9017 59.0265 14.307C58.8299 14.7124 58.6227 15.0444 58.4048 15.3096C57.9242 15.8832 57.3497 16.295 56.6789 16.5451C56.0082 16.7952 55.3097 16.9203 54.5834 16.9203C53.7952 16.9203 53.116 16.7909 52.5414 16.5343C51.9646 16.2777 51.452 15.9349 51.0013 15.5101C50.4331 14.9517 49.9995 14.2833 49.7004 13.505C49.4014 12.7266 49.2518 11.8663 49.2518 10.9262C49.2518 10.0013 49.3864 9.14313 49.6556 8.35826C49.9247 7.57129 50.337 6.90076 50.8881 6.34016C51.311 5.90029 51.8236 5.54669 52.4282 5.28154C53.0327 5.01632 53.7269 4.88477 54.5151 4.88477C55.361 4.88477 56.1449 5.05726 56.8754 5.40225C57.6017 5.74724 58.1998 6.27978 58.6676 6.99992C59.0884 7.63168 59.3576 8.27638 59.475 8.92969C59.5882 9.57867 59.648 10.2665 59.648 10.9866ZM56.9181 9.75116C56.901 8.91458 56.6682 8.24399 56.2175 7.74595C56.0296 7.54113 55.7924 7.37941 55.5083 7.2608C55.2242 7.14442 54.8868 7.08403 54.4916 7.08403C54.0708 7.08403 53.6991 7.16597 53.3766 7.32769C53.0583 7.48934 52.7934 7.70284 52.5905 7.96806C52.3854 8.21816 52.2402 8.48337 52.1526 8.76147C52.0672 9.03963 52.0138 9.37168 52.001 9.75333H56.9181V9.75116Z" fill="white" stroke="white" stroke-width="0.201162" stroke-miterlimit="10"/>
<path d="M68.7135 16.6319V9.59864C68.7135 8.92377 68.5809 8.3934 68.3207 8.01175C68.058 7.63009 67.5644 7.43821 66.8361 7.43821C66.3553 7.43821 65.9536 7.57404 65.6335 7.84569C65.3127 8.11741 65.0589 8.46668 64.8689 8.89361C64.6788 9.32054 64.5698 9.81641 64.5417 10.3813C64.5118 10.9484 64.4971 11.4723 64.4971 11.9575V16.6319H61.7671V5.16784H64.0609L64.258 6.6448C64.5934 6.0432 65.0697 5.59688 65.6889 5.31011C66.3081 5.02334 66.9452 4.87891 67.5988 4.87891C68.2116 4.87891 68.7543 4.9824 69.2262 5.18723C69.6981 5.39422 70.0998 5.67666 70.4289 6.03676C70.7554 6.3968 71.0079 6.83017 71.1826 7.33688C71.358 7.84359 71.4454 8.39124 71.4454 8.97982V16.6297H68.7135V16.6319Z" fill="white" stroke="white" stroke-width="0.201162" stroke-miterlimit="10"/>
<path d="M80.6604 16.4775C79.8741 16.6824 79.0942 16.7858 78.3233 16.7858C77.1722 16.7858 76.3133 16.4732 75.7451 15.8479C75.1769 15.2227 74.8931 14.3602 74.8931 13.2585V7.43694H72.8168V5.16651H74.8931V2.25578L77.6231 1.57227V5.16651H80.485V7.43694H77.6231V13.0148C77.6231 13.4568 77.7232 13.7759 77.9286 13.9743C78.1332 14.1727 78.454 14.2718 78.8895 14.2718C79.1797 14.2718 79.4533 14.2654 79.7077 14.2503C79.9615 14.2352 80.2778 14.2072 80.6579 14.1619V16.4775H80.6604Z" fill="white" stroke="white" stroke-width="0.201162" stroke-miterlimit="10"/>
<path fill-rule="evenodd" clip-rule="evenodd" d="M16.7815 2.62645C16.7815 1.76831 16.0937 1.01367 15.1624 1.01367C14.2118 1.01367 13.5432 1.76831 13.5432 2.62645C13.5432 3.52552 14.2118 4.19829 15.1624 4.19829C16.0937 4.19829 16.7815 3.52552 16.7815 2.62645Z" fill="white"/>
</svg>
