<svg width="145" height="25" viewBox="0 0 145 25" fill="none" xmlns="http://www.w3.org/2000/svg">
<path d="M31.6749 5.75879V12.8867H24.5567V6.64978C24.5567 6.15479 24.1613 5.75879 23.667 5.75879H21.1954V22.8857C21.1954 23.3807 21.5908 23.7767 22.0851 23.7767H24.4579V15.7577H31.5761V22.7867C31.5761 23.2817 31.9715 23.6777 32.4658 23.6777H34.8386V6.64978C34.8386 6.15479 34.4431 5.75879 33.9488 5.75879H31.6749Z" fill="white"/>
<path d="M45.7136 10.208V18.8245C45.7136 19.6168 45.3182 20.3101 44.6261 20.7063C42.7477 21.7957 40.7704 20.4091 40.7704 18.6264V11.0994C40.7704 10.6042 40.375 10.208 39.8807 10.208H37.5079V18.9235C37.5079 21.6967 39.7818 24.0736 42.6488 24.0736H43.9341C46.7023 24.0736 49.075 21.7957 49.075 18.9235V11.0994C49.075 10.6042 48.6795 10.208 48.1852 10.208H45.7136Z" fill="white"/>
<path d="M82.0707 23.7023H84.4434V11.5421C84.4434 11.0478 84.048 10.6523 83.5536 10.6523H81.1809V22.8126C81.1809 23.3069 81.5764 23.7023 82.0707 23.7023Z" fill="#2EA7DF"/>
<path d="M82.8493 9.39189C83.8444 9.39189 84.74 8.59577 84.74 7.50112C84.74 6.50598 83.9439 5.61035 82.8493 5.61035C81.8541 5.61035 80.9585 6.40646 80.9585 7.50112C80.9585 8.59577 81.7546 9.39189 82.8493 9.39189Z" fill="#2EA7DF"/>
<path d="M60.7098 18.344C60.7098 20.0307 59.323 21.1221 57.7381 21.1221C56.1532 21.1221 54.7664 20.0307 54.7664 18.344V15.9627C54.7664 14.276 56.1532 13.1846 57.7381 13.1846C59.323 13.1846 60.7098 14.276 60.7098 15.9627V18.344ZM57.639 10.208C54.172 10.208 51.2994 12.6885 51.2994 16.1612V18.0463C51.2994 21.519 54.172 23.9995 57.639 23.9995C61.106 23.9995 63.9786 21.519 63.9786 18.0463V16.1612C63.9786 12.6885 61.205 10.208 57.639 10.208Z" fill="white"/>
<path d="M117.26 18.344C117.26 20.0307 115.873 21.1221 114.288 21.1221C112.703 21.1221 111.316 20.0307 111.316 18.344V15.9627C111.316 14.276 112.703 13.1846 114.288 13.1846C115.873 13.1846 117.26 14.276 117.26 15.9627V18.344ZM114.288 10.208C110.821 10.208 107.948 12.6885 107.948 16.1612V18.0463C107.948 21.519 110.821 23.9995 114.288 23.9995C117.755 23.9995 120.628 21.519 120.628 18.0463V16.1612C120.628 12.6885 117.755 10.208 114.288 10.208Z" fill="white"/>
<path d="M131.966 18.344C131.966 20.0307 130.579 21.1221 128.994 21.1221C127.409 21.1221 126.022 20.0307 126.022 18.344V15.9627C126.022 14.276 127.409 13.1846 128.994 13.1846C130.579 13.1846 131.966 14.276 131.966 15.9627V18.344ZM128.895 10.208C125.428 10.208 122.555 12.6885 122.555 16.1612V18.0463C122.555 21.519 125.428 23.9995 128.895 23.9995C132.362 23.9995 135.235 21.519 135.235 18.0463V16.1612C135.235 12.6885 132.461 10.208 128.895 10.208Z" fill="white"/>
<path d="M75.5636 18.3486C75.5636 20.0338 74.1768 21.1243 72.5919 21.1243C71.007 21.1243 69.6202 20.0338 69.6202 18.3486V15.9694C69.6202 14.2842 71.007 13.1937 72.5919 13.1937C74.1768 13.1937 75.5636 14.2842 75.5636 15.9694V18.3486ZM72.5919 10.2197C71.5023 10.2197 70.5117 10.418 69.6202 10.9137V6.65098C69.6202 6.15532 69.224 5.75879 68.7287 5.75879H66.3513V18.0512C66.3513 21.5208 69.224 23.9991 72.6909 23.9991C76.1579 23.9991 79.0306 21.5208 79.0306 18.0512V16.1677C78.9315 12.698 76.0589 10.2197 72.5919 10.2197Z" fill="#2EA7DF"/>
<path d="M10.8642 7.55343C10.8642 3.98722 9.18347 1.01538 7.79938 0.0247653C7.79938 0.0247653 7.70052 -0.074296 7.70052 0.123827C7.70052 6.95906 4.24029 8.74216 2.26302 11.2187C-2.18585 16.9643 1.96643 23.2051 6.1187 24.3939C8.49143 25.0873 5.62438 23.2051 5.22893 19.4408C4.83347 14.884 10.8642 11.4168 10.8642 7.55343Z" fill="white"/>
<path d="M13.138 9.88671C13.138 9.88671 13.138 9.78785 13.138 9.88671C13.0391 10.6776 12.0505 12.556 10.8641 14.2367C6.8107 19.9708 9.18343 22.6401 10.4687 24.1231C11.2596 25.0128 10.4687 24.1231 12.3471 23.2333C12.4459 23.1344 16.005 21.3549 16.4005 17.1038C16.6971 13.1492 14.1266 10.5788 13.138 9.88671Z" fill="#2EA7DF"/>
<path d="M144.651 23.8506V21.7717C144.651 21.2767 144.257 20.8807 143.765 20.8807C143.272 20.8807 142.582 20.8807 142.09 20.8807C140.71 20.8807 140.809 20.1877 140.809 18.4058V9.89201V6.42711C140.809 5.93212 140.415 5.53613 139.922 5.53613H137.459V18.8018C137.459 21.9697 138.247 23.8506 141.696 23.8506C142.976 23.8506 143.962 23.7516 144.651 23.8506Z" fill="white"/>
<path d="M102.967 13.8656C102.967 15.5463 101.578 16.6338 99.7919 16.6338C98.0058 16.6338 96.6167 15.5463 96.6167 13.8656V11.4929C96.6167 9.8122 98.1051 8.7247 99.7919 8.7247C101.578 8.7247 102.967 9.8122 102.967 11.4929V13.8656ZM99.7919 5.75879C98.502 5.75879 97.4105 6.05538 96.4182 6.5497C96.319 6.05538 95.9221 5.75879 95.4259 5.75879H93.0445V20.8849V23.1588C93.0445 23.6531 93.4414 24.1474 94.0368 24.1474H96.6167V19.0065C97.6089 19.402 98.7004 19.6986 99.7919 19.6986C103.463 19.6986 106.539 17.227 106.539 13.7667V11.8883C106.539 8.23038 103.563 5.75879 99.7919 5.75879Z" fill="white"/>
</svg>
