<svg width="69" height="24" viewBox="0 0 69 24" fill="none" xmlns="http://www.w3.org/2000/svg">
<path d="M47.3513 0.240131V8.21914C47.3513 8.30824 47.4237 8.38046 47.5131 8.38046H68.3422C68.4751 8.38046 68.5828 8.27305 68.5828 8.14055V0.240131C68.5828 0.107634 68.4751 0.000223231 68.3422 0.000223231H47.6023C47.5367 -0.00259837 47.4728 0.0214264 47.4254 0.0667273C47.378 0.112028 47.3513 0.174671 47.3513 0.240131ZM66.4155 6.38054H49.5186C49.4301 6.38054 49.358 6.30957 49.3569 6.22129V2.1594C49.3569 2.1168 49.374 2.07598 49.4044 2.04605C49.4348 2.01613 49.4759 1.99959 49.5186 2.00015H66.4155C66.4582 1.99959 66.4994 2.01613 66.5298 2.04605C66.5602 2.07598 66.5773 2.1168 66.5773 2.1594V6.22129C66.5761 6.30957 66.504 6.38054 66.4155 6.38054Z" fill="white"/>
<path d="M49.1976 13.0508H47.5106C47.4226 13.0508 47.3513 13.1221 47.3513 13.21V14.8915C47.3513 14.9794 47.4226 15.0507 47.5106 15.0507H49.1976C49.2856 15.0507 49.3569 14.9794 49.3569 14.8915V13.21C49.3569 13.1221 49.2856 13.0508 49.1976 13.0508Z" fill="white"/>
<path fill-rule="evenodd" clip-rule="evenodd" d="M23.5336 0.239908V1.83861C23.5336 1.9277 23.6061 1.99992 23.6954 1.99992H42.7243C42.8125 1.99992 42.884 2.07122 42.884 2.15917V6.22107C42.8829 6.30855 42.812 6.3792 42.7243 6.38031H23.6954C23.6069 6.38031 23.5348 6.45128 23.5336 6.53956V8.22099C23.5336 8.30894 23.6051 8.38024 23.6933 8.38024H44.6511C44.7839 8.38024 44.8916 8.27283 44.8916 8.14033V0.239908C44.8916 0.107411 44.7839 0 44.6511 0H23.7742C23.6413 0 23.5336 0.107411 23.5336 0.239908Z" fill="white"/>
<path d="M0.000671387 0.399157V8.21892C0.00066411 8.30721 0.071836 8.37911 0.160369 8.38024H20.8298C20.9363 8.38024 21.0385 8.3379 21.1136 8.2626C21.1887 8.18729 21.2306 8.08523 21.2301 7.97901V0.399157C21.2301 0.178709 21.0509 0 20.8298 0H0.400952C0.180355 0.00113102 0.00180559 0.179179 0.000671387 0.399157ZM19.0648 6.38031H2.16592C2.07772 6.38031 2.00622 6.30902 2.00622 6.22107V2.15917C2.00566 2.11677 2.02231 2.07593 2.05238 2.04595C2.08245 2.01596 2.1234 1.99936 2.16592 1.99992H19.0648C19.1074 1.99936 19.1483 2.01596 19.1784 2.04595C19.2085 2.07593 19.2251 2.11677 19.2245 2.15917V6.22107C19.2245 6.30902 19.153 6.38031 19.0648 6.38031Z" fill="white"/>
<path d="M1.8463 13.0508H0.159249C0.0712983 13.0508 0 13.1221 0 13.21V14.8915C0 14.9794 0.0712983 15.0507 0.159249 15.0507H1.8463C1.93426 15.0507 2.00555 14.9794 2.00555 14.8915V13.21C2.00555 13.1221 1.93426 13.0508 1.8463 13.0508Z" fill="white"/>
<path fill-rule="evenodd" clip-rule="evenodd" d="M44.8919 13.2946V14.8106C44.8907 14.9423 44.7833 15.0484 44.6513 15.0484H23.7039C23.6165 15.0484 23.5454 14.9784 23.5442 14.8912V13.2139C23.5454 13.1257 23.6175 13.0547 23.706 13.0547H44.6533C44.7854 13.0558 44.8919 13.1629 44.8919 13.2946Z" fill="white"/>
<path fill-rule="evenodd" clip-rule="evenodd" d="M1.27141 22.7042L1.91227 20.4023H2.4681L1.51614 23.4756H1.03704L0.0809326 20.4023H0.634689L1.27141 22.7042Z" fill="white"/>
<path d="M10.0217 22.7621H9.05936L8.85196 23.4756H8.32309L9.33313 20.4023H9.78111L10.7621 23.4756H10.2291L10.0217 22.7621ZM9.19209 22.3299H9.89933L9.54053 21.1241L9.19209 22.3299Z" fill="white"/>
<path fill-rule="evenodd" clip-rule="evenodd" d="M17.3201 23.062H18.7885V23.4756H16.812V20.4023H17.3201V23.062Z" fill="white"/>
<path fill-rule="evenodd" clip-rule="evenodd" d="M25.0684 20.4023H26.8997V20.816H26.234V23.0517H26.8997V23.4653H25.0684V23.0517H25.7175V20.8222H25.0663L25.0684 20.4023Z" fill="white"/>
<path d="M33.211 23.4757V20.4023L33.9639 20.4024C34.159 20.4013 34.3525 20.437 34.5342 20.5078C34.6973 20.572 34.8439 20.6717 34.9635 20.7995C35.0847 20.9284 35.1772 21.0813 35.2352 21.2483C35.3018 21.4333 35.3348 21.6287 35.3327 21.8253V22.0569C35.3348 22.2535 35.3018 22.4489 35.2352 22.6339C35.1771 22.7997 35.0853 22.9518 34.9656 23.0807C34.8462 23.2068 34.7013 23.3062 34.5404 23.3723C34.3616 23.443 34.1707 23.4781 33.9784 23.4757H33.211ZM33.7274 20.8119V23.0682H33.9784C34.1048 23.0694 34.2301 23.0433 34.3455 22.9917C34.448 22.9447 34.5376 22.8738 34.6068 22.7849C34.6805 22.6916 34.7335 22.5837 34.7623 22.4685C34.7993 22.3337 34.8175 22.1945 34.8163 22.0548V21.8191C34.8184 21.6793 34.8003 21.54 34.7623 21.4054C34.7324 21.2896 34.6788 21.1811 34.6047 21.0869C34.534 20.9979 34.443 20.927 34.3393 20.8801C34.2214 20.8271 34.0931 20.801 33.9639 20.8036L33.7274 20.8119Z" fill="white"/>
<path d="M42.9669 22.7621H42.0025L41.7951 23.4756H41.2724L42.2742 20.4023H42.7242L43.7073 23.4756H43.1847L42.9669 22.7621ZM42.1373 22.3299H42.8445L42.4961 21.1241L42.1373 22.3299Z" fill="white"/>
<path fill-rule="evenodd" clip-rule="evenodd" d="M51.8894 20.8218H50.9437V23.4774H50.4376V20.8218H49.4981V20.4082H51.8894V20.8218Z" fill="white"/>
<path d="M60.0321 22.1304C60.0327 22.3064 60.0097 22.4817 59.9636 22.6516C59.9213 22.8102 59.851 22.96 59.7562 23.0942C59.6655 23.2199 59.547 23.3233 59.4099 23.3961C59.2598 23.4748 59.092 23.514 58.9225 23.5099C58.7542 23.5142 58.5878 23.475 58.4392 23.3961C58.3036 23.3209 58.1867 23.2163 58.097 23.09C58.0021 22.9575 57.9318 22.8089 57.8896 22.6516C57.8437 22.4817 57.8207 22.3064 57.8212 22.1304V21.7374C57.821 21.6182 57.8314 21.4991 57.8523 21.3817C57.8714 21.2706 57.902 21.1618 57.9435 21.057C57.9816 20.9569 58.0317 20.8617 58.0929 20.7737C58.15 20.689 58.22 20.6136 58.3003 20.5503C58.3838 20.4876 58.477 20.4387 58.5761 20.4055C58.685 20.3688 58.7993 20.3506 58.9142 20.3518C59.0839 20.3483 59.2517 20.3882 59.4016 20.4676C59.5394 20.5411 59.6586 20.6451 59.75 20.7716C59.8448 20.9057 59.915 21.0556 59.9574 21.2142C60.0035 21.3848 60.0265 21.5608 60.0258 21.7374L60.0321 22.1304ZM59.5239 21.7416C59.5221 21.6258 59.511 21.5103 59.4907 21.3962C59.4746 21.2901 59.4409 21.1874 59.3912 21.0922C59.3464 21.01 59.2833 20.9392 59.2066 20.8854C59.1219 20.8277 59.0208 20.7987 58.9183 20.8026C58.8165 20.7987 58.7161 20.8277 58.6321 20.8854C58.5555 20.9428 58.4943 21.018 58.4537 21.1046C58.4061 21.2001 58.3745 21.3028 58.3604 21.4086C58.3424 21.5222 58.3327 21.6369 58.3314 21.7519V22.1304C58.3327 22.2447 58.3424 22.3588 58.3604 22.4716C58.3761 22.578 58.4083 22.6813 58.4558 22.7777C58.4963 22.8649 58.5575 22.9409 58.6342 22.999C58.7178 23.0577 58.8183 23.0874 58.9204 23.0838C59.0231 23.0871 59.1242 23.0574 59.2087 22.999C59.2871 22.9419 59.3505 22.8667 59.3933 22.7798C59.4427 22.6838 59.4763 22.5804 59.4928 22.4737C59.5114 22.3602 59.5218 22.2454 59.5239 22.1304V21.7416Z" fill="white"/>
<path d="M67.212 22.2761H66.6956V23.4756H66.1875V20.4023H67.1622C67.3095 20.4023 67.4561 20.4225 67.5978 20.4623C67.7234 20.4973 67.8411 20.5563 67.9441 20.636C68.0421 20.7124 68.1203 20.8109 68.1723 20.9235C68.2282 21.0541 68.255 21.1952 68.2511 21.3372C68.2529 21.4332 68.2389 21.529 68.2096 21.6205C68.1843 21.7033 68.1458 21.7815 68.0955 21.8521C68.0448 21.9207 67.9847 21.9819 67.9172 22.0341C67.8464 22.0867 67.7698 22.1311 67.689 22.1665L68.3403 23.457V23.4839H67.799L67.212 22.2761ZM66.6956 21.8625H67.1643C67.2431 21.8631 67.3215 21.8512 67.3966 21.8273C67.4636 21.805 67.5256 21.7699 67.5791 21.7239C67.631 21.6799 67.6721 21.6248 67.6994 21.5626C67.7288 21.4926 67.7429 21.4172 67.7409 21.3413C67.7428 21.2636 67.7294 21.1863 67.7015 21.1138C67.6766 21.0496 67.6368 20.9922 67.5853 20.9463C67.5328 20.8994 67.4705 20.8648 67.4028 20.8449C67.3253 20.8192 67.244 20.8066 67.1622 20.8077H66.6956V21.8625Z" fill="white"/>
</svg>
