<svg width="113" height="25" viewBox="0 0 113 25" fill="none" xmlns="http://www.w3.org/2000/svg">
<path d="M27.7495 24.627C34.5501 24.627 40.063 19.1141 40.063 12.3135C40.063 5.51295 34.5501 0 27.7495 0C20.949 0 15.436 5.51295 15.436 12.3135C15.436 19.1141 20.949 24.627 27.7495 24.627Z" fill="#82D318"/>
<path fill-rule="evenodd" clip-rule="evenodd" d="M29.4115 12.0915L28.8379 11.2356C27.8268 9.80956 26.6302 8.52466 25.2795 7.41486C23.0033 5.46196 20.1685 4.27761 17.1795 4.03069C13.376 3.85886 9.65306 5.16209 6.7871 7.66856C5.9204 8.39083 5.12026 9.18943 4.39632 10.0547C4.38564 10.0657 4.37263 10.0741 4.35826 10.0793C4.34389 10.0845 4.32853 10.0865 4.31331 10.085C4.29809 10.0834 4.28341 10.0785 4.27035 10.0706C4.2573 10.0626 4.2462 10.0518 4.23789 10.0389C3.41578 8.59494 2.77126 7.05684 2.31834 5.45812L2.31376 5.43418C2.24897 5.26862 2.15049 5.11833 2.02456 4.99284C1.89863 4.86735 1.748 4.76939 1.58221 4.70518C1.44332 4.64767 1.29386 4.62008 1.14359 4.6242C0.993312 4.62833 0.845594 4.66408 0.710064 4.72912C0.454005 4.86787 0.249413 5.08535 0.126562 5.34941C0.00371159 5.61346 -0.0308709 5.91004 0.0279322 6.19527L0.0325171 6.21107C0.616085 8.3038 1.49522 10.3026 2.64336 12.147C2.67332 12.1945 2.68922 12.2495 2.68922 12.3057C2.68922 12.3618 2.67332 12.4169 2.64336 12.4644C1.49591 14.3154 0.615254 16.319 0.0274227 18.4161L0.0223284 18.44V18.4634C0.0216138 18.722 0.0952921 18.9754 0.234576 19.1932C0.37386 19.4111 0.572872 19.5843 0.807875 19.6922C0.951625 19.7549 1.10605 19.7895 1.2628 19.7941C1.46767 19.7895 1.66836 19.7352 1.84767 19.636C2.02699 19.5368 2.17958 19.3956 2.29236 19.2245L2.30765 19.2006L2.31682 19.1767C2.77119 17.5726 3.41741 16.0293 4.24146 14.58C4.24477 14.5748 4.2487 14.57 4.25317 14.5658C4.26268 14.5559 4.27407 14.5481 4.28668 14.5427C4.29928 14.5374 4.31284 14.5346 4.32653 14.5346C4.34023 14.5346 4.35378 14.5374 4.36639 14.5427C4.37899 14.5481 4.39039 14.5559 4.39989 14.5658C5.12499 15.4337 5.92629 16.235 6.79423 16.9601C9.44366 19.2562 12.8125 20.5537 16.3176 20.628C16.6034 20.628 16.8953 20.6204 17.1836 20.5964C20.1735 20.3533 23.0094 19.1685 25.2836 17.2123C26.6358 16.1043 27.8326 14.8192 28.8415 13.3915L29.411 12.5357C29.4547 12.4699 29.478 12.3926 29.4781 12.3136C29.4782 12.2347 29.4551 12.1574 29.4115 12.0915ZM26.4161 12.5352C24.9958 14.3182 21.7089 17.7029 17.0369 18.0197C12.9105 18.305 8.84775 16.1572 5.90832 12.4959C5.86655 12.4443 5.84376 12.38 5.84376 12.3136C5.84376 12.2472 5.86655 12.1828 5.90832 12.1312C8.84775 8.46989 12.911 6.32365 17.0323 6.59925C21.7099 6.92427 24.9978 10.3181 26.4161 12.1011C26.4638 12.1634 26.4897 12.2397 26.4897 12.3182C26.4897 12.3966 26.4638 12.4729 26.4161 12.5352Z" fill="white"/>
<path fill-rule="evenodd" clip-rule="evenodd" d="M21.9338 11.0458C22.2641 11.0844 22.5663 11.2503 22.7762 11.5082C22.9861 11.7661 23.0872 12.0956 23.0581 12.4269C23.0289 12.7581 22.8717 13.0649 22.62 13.2821C22.3682 13.4993 22.0417 13.6099 21.7098 13.5902C21.3778 13.5705 21.0667 13.4222 20.8423 13.1768C20.618 12.9314 20.4981 12.6082 20.5083 12.2758C20.5184 11.9435 20.6577 11.6281 20.8966 11.3969C21.1355 11.1656 21.4551 11.0365 21.7876 11.0371C21.8365 11.0372 21.8853 11.0401 21.9338 11.0458Z" fill="white"/>
<path d="M95.1421 7.29051C95.4987 7.29051 95.7972 7.18862 96.0229 6.98485C96.136 6.88271 96.2254 6.75714 96.2849 6.61689C96.3445 6.47665 96.3728 6.3251 96.3678 6.17281C96.3678 5.84015 96.2516 5.56913 96.0219 5.3674C95.7921 5.16566 95.5002 5.06836 95.1421 5.06836C94.7738 5.06836 94.4747 5.17025 94.2541 5.36791C94.0336 5.56557 93.9164 5.84015 93.9164 6.17281C93.9164 6.50547 94.0295 6.77751 94.2526 6.98383C94.4757 7.19015 94.7727 7.29051 95.1421 7.29051Z" fill="white"/>
<path d="M95.2333 8.59412H90.9184V8.345C90.9184 7.89568 91.0203 7.55232 91.2134 7.32359C91.4064 7.09485 91.7274 6.96291 92.1645 6.9247L92.4997 6.89465C92.7102 6.88328 92.9099 6.79752 93.0631 6.65266C93.2037 6.51206 93.2751 6.3144 93.2751 6.06478C93.2751 5.70818 93.1176 5.27974 92.3683 5.27974C92.2892 5.27765 92.21 5.28294 92.1319 5.29553L91.7819 5.32559C90.8476 5.40914 90.112 5.73976 89.5954 6.3088C89.0788 6.87783 88.8216 7.64147 88.817 8.59412H88.1547C87.3682 8.59412 87.2026 9.03732 87.2026 9.40921C87.2026 9.7811 87.3682 10.2243 88.1547 10.2243H88.817V15.3079C88.817 15.6314 88.9189 15.8826 89.1267 16.0537C89.3379 16.2247 89.6035 16.314 89.8751 16.3054C90.1721 16.3054 90.4217 16.2203 90.6173 16.0507C90.813 15.8811 90.9184 15.6284 90.9184 15.3054V10.2243H94.084V15.3079C94.084 15.6309 94.1859 15.8841 94.3922 16.0604C94.6018 16.2363 94.8687 16.3289 95.1421 16.3207C95.4139 16.3298 95.6791 16.2365 95.8854 16.0594C96.0846 15.8831 96.1854 15.6304 96.1854 15.3079V9.40921C96.1854 9.03732 96.0204 8.59412 95.2333 8.59412Z" fill="white"/>
<path d="M103.733 12.871C103.557 12.5817 103.264 12.3387 102.862 12.1487C102.472 11.9637 101.928 11.7977 101.243 11.6545C100.619 11.5256 100.194 11.3972 99.982 11.2714C99.8931 11.2247 99.8192 11.1538 99.7688 11.0669C99.7185 10.98 99.6936 10.8807 99.6972 10.7803C99.6941 10.6736 99.7186 10.5678 99.7683 10.4733C99.818 10.3788 99.8913 10.2987 99.981 10.2408C100.18 10.1018 100.46 10.0309 100.812 10.0309C101.069 10.0244 101.325 10.0609 101.569 10.1389C101.824 10.2345 102.073 10.3464 102.314 10.4741C102.448 10.5511 102.585 10.6212 102.726 10.684C102.842 10.7342 102.967 10.7602 103.093 10.7604C103.187 10.7607 103.281 10.7389 103.365 10.6969C103.45 10.6549 103.524 10.5939 103.581 10.5185C103.71 10.3558 103.777 10.1528 103.771 9.94536C103.771 9.57602 103.591 9.27596 103.239 9.05538C102.901 8.84098 102.533 8.6803 102.146 8.57906C101.736 8.46961 101.313 8.4148 100.889 8.41604C100.29 8.41604 99.7466 8.51792 99.2754 8.7217C98.8042 8.92547 98.4201 9.21788 98.147 9.5913C97.8748 9.95773 97.7292 10.4028 97.7323 10.8593C97.7323 11.4752 97.9407 11.9663 98.3523 12.3193C98.7538 12.6632 99.4221 12.9306 100.335 13.1161C100.714 13.1939 101.088 13.2919 101.456 13.4095C101.687 13.49 101.848 13.5756 101.933 13.6642C101.974 13.7106 102.005 13.7646 102.025 13.8232C102.045 13.8818 102.054 13.9437 102.05 14.0055C102.05 14.2231 101.948 14.3886 101.744 14.5119C101.523 14.6439 101.205 14.7106 100.8 14.7106C100.394 14.7106 100.06 14.6709 99.8027 14.5934C99.5045 14.5001 99.2134 14.3857 98.9315 14.2511C98.6096 14.0794 98.3605 13.9964 98.1674 13.9964C98.0748 13.9954 97.9832 14.015 97.8992 14.0538C97.8151 14.0926 97.7408 14.1495 97.6814 14.2205C97.5494 14.3767 97.4807 14.5766 97.4888 14.7809C97.4888 15.1716 97.6687 15.4768 98.0232 15.6877C98.715 16.1314 99.633 16.3566 100.752 16.3566C101.72 16.3566 102.511 16.1401 103.099 15.7137C103.696 15.2801 103.999 14.6948 103.999 13.975C103.999 13.5302 103.91 13.1594 103.733 12.871Z" fill="white"/>
<path d="M109.717 8.41324C109.205 8.40467 108.698 8.51487 108.235 8.7352C107.901 8.89866 107.605 9.13217 107.369 9.41988V6.18753C107.369 5.89511 107.27 5.66026 107.076 5.48909C106.882 5.31792 106.634 5.23438 106.326 5.23438C106.018 5.23438 105.762 5.32505 105.566 5.50387C105.468 5.59405 105.39 5.70451 105.339 5.82764C105.287 5.95077 105.263 6.08364 105.267 6.21707V15.3094C105.267 15.6202 105.362 15.8698 105.549 16.0507C105.736 16.2315 105.991 16.3222 106.311 16.3222C106.63 16.3222 106.888 16.231 107.079 16.0517C107.27 15.8724 107.369 15.6207 107.369 15.3094V11.9207C107.369 11.3725 107.526 10.9304 107.835 10.6069C108.145 10.2834 108.561 10.1209 109.077 10.1209C109.511 10.1209 109.831 10.235 110.028 10.4591C110.225 10.6833 110.33 11.0618 110.33 11.5707V15.311C110.33 15.6222 110.427 15.8713 110.62 16.0532C110.812 16.2351 111.069 16.3237 111.388 16.3237C111.707 16.3237 111.964 16.232 112.152 16.0522C112.341 15.8724 112.433 15.6217 112.433 15.311V11.5692C112.432 9.47541 111.519 8.41324 109.717 8.41324Z" fill="white"/>
<path d="M49.6153 12.871C49.4386 12.5817 49.1451 12.3387 48.7437 12.1487C48.3535 11.9637 47.8089 11.7977 47.1247 11.6545C46.5006 11.5256 46.0763 11.3972 45.8633 11.2714C45.7745 11.2246 45.7007 11.1537 45.6504 11.0668C45.6 10.9799 45.5751 10.8807 45.5786 10.7803C45.5755 10.6736 45.5999 10.5678 45.6496 10.4733C45.6993 10.3788 45.7726 10.2987 45.8623 10.2408C46.062 10.1018 46.3417 10.0309 46.6942 10.0309C46.9507 10.0244 47.2064 10.0609 47.4507 10.1389C47.706 10.2344 47.9548 10.3463 48.1955 10.4741C48.3292 10.5511 48.4668 10.6212 48.6077 10.684C48.7234 10.7343 48.8483 10.7603 48.9745 10.7604C49.0691 10.7607 49.1624 10.7389 49.2472 10.6969C49.332 10.6549 49.4058 10.5939 49.463 10.5185C49.5916 10.3557 49.6587 10.1527 49.6525 9.94536C49.6525 9.57602 49.4732 9.27596 49.1202 9.05538C48.7828 8.8409 48.4142 8.6802 48.0274 8.57906C47.6173 8.46961 47.1946 8.4148 46.7701 8.41604C46.171 8.41604 45.628 8.51792 45.1568 8.7217C44.7089 8.90415 44.3189 9.20469 44.0284 9.5913C43.7562 9.95773 43.6106 10.4028 43.6137 10.8593C43.6137 11.4752 43.8226 11.9663 44.2342 12.3193C44.6351 12.6632 45.304 12.9306 46.2164 13.1161C46.5949 13.194 46.969 13.2919 47.3371 13.4095C47.5684 13.49 47.7289 13.5756 47.814 13.6642C47.8964 13.7581 47.9384 13.8808 47.9306 14.0055C47.9306 14.2231 47.8287 14.3886 47.625 14.5119C47.4039 14.6439 47.0865 14.7106 46.681 14.7106C46.2755 14.7106 45.9408 14.6709 45.6835 14.5934C45.3856 14.5001 45.0946 14.3857 44.8129 14.2511C44.4904 14.0794 44.2413 13.9964 44.0487 13.9964C43.9562 13.9954 43.8646 14.015 43.7805 14.0538C43.6965 14.0926 43.6221 14.1495 43.5627 14.2205C43.4312 14.3769 43.3627 14.5767 43.3707 14.7809C43.3707 15.1716 43.55 15.4768 43.9046 15.6877C44.5964 16.1314 45.5144 16.3566 46.6331 16.3566C47.601 16.3566 48.3927 16.1401 48.9801 15.7137C49.5776 15.2801 49.8807 14.6948 49.8807 13.975C49.8807 13.5302 49.7916 13.1594 49.6153 12.871Z" fill="white"/>
<path d="M55.3127 14.7075L54.9021 14.6774C54.2694 14.631 53.9617 14.2698 53.9617 13.577V10.2265H55.1532C55.4492 10.2265 55.6836 10.1572 55.8481 10.0227C56.0127 9.88821 56.1028 9.6768 56.1028 9.41138C56.1028 9.14597 56.0167 8.94321 55.8481 8.80006C55.6795 8.65691 55.4492 8.59629 55.1532 8.59629H53.9617V7.29825C53.9617 6.99718 53.8639 6.75265 53.6713 6.57129C53.4787 6.38993 53.2271 6.30078 52.9184 6.30078C52.5995 6.30078 52.3407 6.39146 52.1501 6.57129C51.9596 6.75112 51.8598 6.99667 51.8598 7.29825V8.59629H51.2005C50.9041 8.59629 50.6702 8.66506 50.5052 8.80006C50.3401 8.93506 50.2505 9.14648 50.2505 9.41138C50.2505 9.67629 50.3371 9.88006 50.5052 10.0227C50.6733 10.1653 50.9035 10.2265 51.2005 10.2265H51.8603V13.44C51.8603 15.197 52.7513 16.1512 54.5093 16.277L54.9215 16.3076C54.9724 16.3076 55.0233 16.3117 55.0697 16.3117C55.385 16.3117 55.6387 16.2515 55.8252 16.1318C55.9341 16.0654 56.0233 15.9712 56.0835 15.8588C56.1438 15.7464 56.173 15.6199 56.168 15.4925C56.166 15.1578 56.0178 14.7502 55.3127 14.7075Z" fill="white"/>
<path d="M62.8546 9.21379C62.3354 8.68449 61.5367 8.41602 60.4796 8.41602C59.9834 8.41763 59.4889 8.47453 59.0053 8.58566C58.5543 8.68155 58.1185 8.83837 57.7098 9.05179C57.4938 9.17049 57.3364 9.3009 57.2416 9.44049C57.1426 9.58997 57.0916 9.76609 57.0954 9.94534C57.0868 10.158 57.158 10.3663 57.2951 10.5291C57.3599 10.6041 57.4405 10.6638 57.5312 10.7038C57.6219 10.7438 57.7203 10.7631 57.8193 10.7604C57.9584 10.7604 58.1617 10.6927 58.4306 10.5567C58.8423 10.3962 59.2019 10.2719 59.5004 10.1873C59.7832 10.1058 60.0758 10.0636 60.3701 10.062C60.8153 10.062 61.1383 10.1664 61.3303 10.3717C61.5224 10.577 61.6222 10.9224 61.6222 11.3906V11.6397H61.3431C60.2361 11.6397 59.3563 11.7121 58.721 11.8552C58.0751 12.0009 57.6003 12.2419 57.3073 12.5684C57.0144 12.895 56.8641 13.3575 56.8641 13.9276C56.8603 14.3684 56.9878 14.8005 57.2304 15.1686C57.4788 15.5427 57.8229 15.8435 58.2269 16.0397C58.662 16.2526 59.1409 16.3604 59.6253 16.3545C60.0944 16.3633 60.5568 16.2424 60.9615 16.005C61.2252 15.8483 61.4512 15.6356 61.6238 15.382C61.627 15.6288 61.7277 15.8643 61.904 16.0371C61.9993 16.1278 62.1117 16.1985 62.2347 16.2451C62.3577 16.2917 62.4888 16.3133 62.6202 16.3087C62.9294 16.3087 63.1806 16.22 63.3589 16.0448C63.5372 15.8695 63.633 15.6265 63.633 15.326V11.6178C63.636 10.5516 63.3732 9.74258 62.8546 9.21379ZM61.6253 12.8435V13.062C61.6253 13.5715 61.4725 13.9897 61.1739 14.3081C60.8754 14.6265 60.4908 14.7855 60.0084 14.7855C59.7223 14.7949 59.4438 14.6926 59.232 14.5002C59.1306 14.4096 59.0504 14.2979 58.9971 14.1729C58.9437 14.0478 58.9185 13.9126 58.9233 13.7768C58.9233 13.5399 58.992 13.3601 59.1347 13.2266C59.2773 13.0931 59.5341 12.9907 59.8876 12.9332C60.2559 12.8736 60.7822 12.8435 61.4526 12.8435H61.6253Z" fill="white"/>
<path d="M72.146 14.5795L69.5831 12.2814L71.8918 10.1367C72.1027 9.92528 72.2097 9.68636 72.2097 9.42705C72.2057 9.17157 72.1025 8.92766 71.9218 8.74699C71.7412 8.56631 71.4972 8.46307 71.2418 8.45913C71.1119 8.45973 70.9834 8.48677 70.8643 8.53862C70.7452 8.59047 70.6379 8.66604 70.5489 8.76072L67.4658 11.7154V6.2324C67.4658 5.9084 67.364 5.65725 67.1561 5.48608C66.9445 5.31556 66.6789 5.22647 66.4072 5.23493C66.1102 5.23493 65.8606 5.31949 65.6655 5.48964C65.4704 5.65979 65.3639 5.91145 65.3639 6.23494V15.3085C65.3639 15.632 65.4658 15.8826 65.665 16.0538C65.8642 16.2249 66.1102 16.3085 66.4072 16.3085C66.6789 16.3169 66.9447 16.2276 67.1561 16.0568C67.3599 15.8856 67.4658 15.6345 67.4658 15.311V12.9355L70.8531 16.0043C71.064 16.2046 71.2973 16.3059 71.5459 16.3059C71.6713 16.3055 71.7951 16.2779 71.9089 16.2252C72.0227 16.1724 72.1237 16.0957 72.2051 16.0003C72.3835 15.8143 72.483 15.5666 72.4827 15.309C72.4838 15.0374 72.3707 14.7929 72.146 14.5795Z" fill="white"/>
<path d="M79.5443 13.9953C79.3848 13.9953 79.1505 14.0784 78.8341 14.2475C78.5623 14.3722 78.2841 14.4824 78.0007 14.5776C77.7326 14.6596 77.4532 14.699 77.1729 14.6943C76.5646 14.6943 76.0975 14.5379 75.7842 14.2292C75.4861 13.9357 75.3007 13.4752 75.2314 12.8588H79.6054C79.9146 12.8588 80.2835 12.7279 80.2835 12.1043C80.2835 11.3616 80.1419 10.7069 79.8622 10.1583C79.5964 9.62318 79.182 9.17604 78.6686 8.87043C78.1591 8.56885 77.5529 8.41602 76.8687 8.41602C76.1555 8.41602 75.506 8.58413 74.94 8.91628C74.3728 9.2493 73.913 9.7382 73.6155 10.3249C73.3058 10.9245 73.1483 11.6204 73.1483 12.3932C73.1483 13.6112 73.5116 14.5868 74.2273 15.2923C74.9431 15.9979 75.9248 16.3555 77.1423 16.3555C77.5728 16.3517 78.001 16.2916 78.4159 16.1767C78.8322 16.0692 79.2335 15.9102 79.6105 15.7035C80.0181 15.4727 80.2218 15.1772 80.2218 14.8257C80.2218 14.5802 80.1607 14.3794 80.04 14.2302C79.9813 14.1551 79.906 14.0948 79.8199 14.054C79.7339 14.0133 79.6395 13.9932 79.5443 13.9953ZM78.4526 11.6387H75.235C75.3038 11.1099 75.4765 10.6967 75.75 10.4104C76.0378 10.1078 76.4301 9.95501 76.9161 9.95501C77.4021 9.95501 77.7602 10.1007 78.0267 10.4003C78.2753 10.682 78.4184 11.0982 78.4526 11.6387Z" fill="white"/>
<path fill-rule="evenodd" clip-rule="evenodd" d="M84.2021 11.0458C84.5323 11.0844 84.8345 11.2503 85.0444 11.5081C85.2543 11.766 85.3554 12.0955 85.3263 12.4267C85.2972 12.7579 85.1401 13.0647 84.8883 13.282C84.6366 13.4992 84.3102 13.6098 83.9783 13.5902C83.6463 13.5706 83.3351 13.4224 83.1107 13.1771C82.8863 12.9317 82.7664 12.6085 82.7765 12.2762C82.7865 11.9439 82.9257 11.6285 83.1645 11.3972C83.4033 11.1658 83.7229 11.0366 84.0553 11.0371C84.1044 11.0372 84.1534 11.0401 84.2021 11.0458Z" fill="white"/>
</svg>
