<svg width="70" height="19" viewBox="0 0 70 19" fill="none" xmlns="http://www.w3.org/2000/svg">
<path d="M0.0158836 9.33274C-0.27156 4.3532 4.40081 -0.110633 9.44235 0.00208997C14.8418 0.123267 18.8378 4.28557 18.8265 9.3581C18.8181 14.487 14.7601 18.6268 9.27045 18.7113C4.46281 18.7846 -0.311013 14.3095 0.0158836 9.33274ZM8.78574 9.36092C8.78856 9.36092 8.79137 9.36092 8.79701 9.36092C8.79701 10.7925 8.81674 12.2269 8.78574 13.6585C8.77447 14.2418 9.02809 14.4335 9.54662 14.3574C10.006 14.2897 10.4794 14.239 10.9162 14.084C13.1002 13.3147 14.87 10.8038 14.2162 8.2816C13.7484 6.48085 11.8941 4.37011 9.41699 4.48847C8.94919 4.51101 8.76038 4.62092 8.77447 5.13381C8.80828 6.54285 8.78574 7.95188 8.78574 9.36092Z" fill="#7F7F8E"/>
<path d="M27.1569 9.65364C28.0897 9.65364 28.9633 9.65364 29.8904 9.65364C29.8904 9.05621 29.8904 8.55178 29.8904 7.95434C29.3662 7.95434 28.8336 7.9318 28.3067 7.96843C28.1742 7.97689 28.0418 8.16288 27.9318 8.28969C27.4359 8.85613 26.9483 9.4282 26.458 9.99745C26.4044 9.95518 26.3537 9.91009 26.3002 9.86782C26.8469 8.63632 27.3908 7.40482 27.8839 6.29168C27.6388 5.9986 27.3964 5.8436 27.3936 5.68579C27.3654 4.00058 27.3767 2.31255 27.3767 0.551255C28.8562 1.1656 30.33 0.830245 31.7757 0.883788C32.1505 0.897879 32.5366 0.678069 32.917 0.565346C32.9311 0.475167 32.948 0.382171 32.9621 0.291992C33.258 0.624525 33.5567 0.95424 33.7737 1.19659C33.6864 1.58549 33.5736 1.88139 33.5652 2.1801C33.5398 3.04807 33.5257 3.91886 33.568 4.78401C33.5962 5.34762 33.4412 5.73652 32.8325 5.94505C32.5338 5.31381 31.9504 5.38426 31.3699 5.39271C30.3498 5.40962 29.3268 5.39835 28.2954 5.39835C28.3095 5.49134 28.5687 7.309 28.5744 7.34846C28.9999 7.34846 29.4311 7.34846 29.9383 7.34846C29.9383 6.81302 29.9383 6.30577 29.9383 5.74215C30.3469 5.74215 30.6851 5.74215 31.1275 5.74215C31.0543 5.99014 31.0064 6.19868 30.9303 6.39595C30.6767 7.06101 30.8767 7.38509 31.5756 7.38509C32.2801 7.38509 33.0748 7.59927 33.3369 6.40158C33.7427 6.9962 34.0048 7.38227 34.2669 7.76835C34.219 7.82753 34.1711 7.88671 34.1232 7.94589C33.2608 7.94589 32.3985 7.97407 31.539 7.93462C30.9416 7.90644 30.8119 8.19952 30.8429 8.70395C30.8711 9.18866 30.8598 9.63955 31.5728 9.62265C32.5056 9.59728 32.5056 9.6311 33.1622 8.73777C33.4722 9.07312 33.7737 9.39438 34.1795 9.834C33.8695 9.958 33.63 10.1271 33.3764 10.144C32.7451 10.1863 32.1082 10.175 31.477 10.1581C31.0289 10.144 30.8204 10.3272 30.8429 10.7781C30.857 11.0345 30.7668 11.336 30.8739 11.5418C30.9979 11.7813 31.2572 12.0546 31.4995 12.1026C31.9504 12.1927 32.4633 12.2265 32.8945 12.0997C33.3087 11.9757 33.6554 11.6178 34.1091 11.3079C34.3599 11.5981 34.6586 11.9476 35.0588 12.4097C31.88 12.4097 28.8505 12.4097 25.8211 12.4097C25.8155 12.3477 25.8098 12.2829 25.8042 12.2209C26.0381 12.1899 26.2692 12.1364 26.5031 12.1336C27.419 12.1223 28.3348 12.0913 29.2479 12.142C29.834 12.1758 29.9919 11.9447 29.9524 11.4149C29.9242 11.043 29.9468 10.6682 29.9468 10.1609C29.4282 10.1609 28.9464 10.1863 28.4701 10.1524C28.0277 10.1243 27.4753 10.3807 27.1569 9.65364ZM28.2841 2.80572C29.7157 2.80572 31.0825 2.80572 32.452 2.80572C32.452 2.34355 32.452 1.93493 32.452 1.51504C31.0374 1.51504 29.6734 1.51504 28.2841 1.51504C28.2841 1.95748 28.2841 2.34919 28.2841 2.80572ZM32.4633 3.47642C31.0092 3.47642 29.6481 3.47642 28.3067 3.47642C28.3067 3.95267 28.3067 4.36411 28.3067 4.78401C29.7185 4.78401 31.0796 4.78401 32.4633 4.78401C32.4633 4.32184 32.4633 3.91322 32.4633 3.47642Z" fill="#7F7F8E"/>
<path d="M69.9999 11.9754C69.7238 12.2967 69.4899 12.5644 69.0812 13.0378C68.543 12.4517 68.0188 11.8824 67.4468 11.2596C66.6633 11.9585 66.0715 13.1675 64.592 12.9448C64.592 8.78537 64.592 4.61743 64.592 0.407227C65.987 1.03566 67.3228 1.16529 68.791 0.429771C68.884 0.539676 69.0671 0.73976 69.2278 0.951115C69.2954 1.03848 69.3743 1.16529 69.3574 1.25547C69.1827 2.19107 69.0559 3.1464 68.7684 4.04818C68.6642 4.38071 68.1879 4.60898 67.8526 4.8457C67.7793 4.89642 67.5482 4.83442 67.4693 4.7527C67.1847 4.44553 66.931 4.10736 66.6436 3.7551C67.0128 3.7551 67.4355 3.7551 67.9935 3.7551C68.1034 2.98295 68.202 2.26716 68.3119 1.48373C67.303 1.48373 66.4238 1.48373 65.4882 1.48373C65.4882 2.8505 65.4882 4.22008 65.4882 5.67139C66.3449 5.67139 67.1819 5.67421 68.0188 5.66576C68.1287 5.66576 68.2865 5.64039 68.3401 5.56431C68.9826 4.65689 69.1658 5.42622 69.4448 5.85739C69.4927 5.93347 69.5321 6.01238 69.4814 5.91938C69.2447 6.68026 69.0559 7.30024 68.8558 7.9174C68.6613 8.52611 68.5289 9.17144 68.233 9.73224C67.985 10.2 68.1175 10.4509 68.4528 10.7214C68.9685 11.1385 69.4786 11.5527 69.9999 11.9754ZM65.4685 12.3869C65.5361 12.4235 65.6037 12.463 65.6714 12.4996C66.1335 11.8712 66.6041 11.2484 67.0494 10.6087C67.1114 10.5213 67.0719 10.3381 67.0325 10.2113C66.6831 9.0559 66.3336 7.90331 65.9588 6.75635C65.894 6.55909 65.7165 6.40128 65.5896 6.22374C65.5502 6.25192 65.5079 6.27728 65.4685 6.30546C65.4685 8.33448 65.4685 10.3607 65.4685 12.3869ZM66.1871 6.26601C66.4942 7.42706 66.7253 8.49793 67.6102 9.45889C67.8779 8.31757 68.1118 7.33124 68.3626 6.26601C67.582 6.26601 66.9649 6.26601 66.1871 6.26601Z" fill="#7F7F8E"/>
<path d="M56.1773 12.72C55.9377 11.6153 55.9377 11.6153 54.7541 11.6153C53.7481 11.6153 52.7449 11.6153 51.7078 11.6153C51.5584 12.1226 51.8431 12.9821 50.8088 12.72C50.8088 8.83391 50.8088 4.9506 50.8088 1.04192C52.4039 1.80562 54.0553 1.31246 55.6531 1.44491C55.7574 1.45336 55.8842 1.39982 55.9744 1.33782C56.1632 1.21383 56.4281 0.906657 56.5014 0.951746C56.7663 1.10392 56.9748 1.36319 57.1777 1.60272C57.2425 1.67881 57.2566 1.82535 57.2397 1.93244C57.1608 2.43405 56.9861 2.93567 56.9832 3.43729C56.9579 6.25255 56.9663 9.06781 56.9748 11.8831C56.9776 12.4382 56.786 12.7623 56.1773 12.72ZM51.674 11.0546C53.0295 11.0546 54.3371 11.0686 55.6418 11.0348C55.7912 11.032 56.0533 10.7699 56.0589 10.6206C56.0956 9.49897 56.0955 8.37174 56.0617 7.25015C56.0561 7.08952 55.8166 6.79926 55.6785 6.79644C54.354 6.76262 53.0295 6.77671 51.674 6.77671C51.674 8.22802 51.674 9.57788 51.674 11.0546ZM51.7078 2.01698C51.7078 3.46265 51.7078 4.8266 51.7078 6.22719C53.0154 6.22719 54.2582 6.25537 55.4981 6.19901C55.6982 6.19055 56.0364 5.81857 56.0505 5.59876C56.1096 4.57016 56.0927 3.53592 56.0589 2.50451C56.0533 2.33824 55.8278 2.04234 55.6982 2.03952C54.3709 2.00289 53.0408 2.01698 51.7078 2.01698Z" fill="#7F7F8E"/>
<path d="M43.7525 6.50034C43.7525 6.93151 43.7525 7.35986 43.7525 7.79102C43.7525 8.9887 43.7553 10.1864 43.7553 11.3841C43.7525 12.469 43.7525 12.469 42.8254 12.9312C42.428 12.5085 42.042 12.0942 41.6192 11.6405C41.9715 11.6152 42.3745 11.5898 42.831 11.556C42.831 10.6204 42.831 9.68195 42.831 8.58854C42.0081 9.58332 41.2754 10.4626 40.5005 11.3982C40.337 11.1333 40.1877 10.9332 40.0834 10.7134C39.9228 10.378 39.9256 10.1272 40.3088 9.86795C41.0641 9.36069 41.7855 8.79426 42.4703 8.19401C42.6901 7.99956 42.8592 7.62757 42.8677 7.33167C42.9099 6.06918 42.8874 4.80386 42.8874 3.52445C42.0222 3.44273 41.2078 3.36382 40.3934 3.27083C40.3793 3.26801 40.3906 3.05947 40.3906 2.88193C41.205 2.88193 41.9969 2.88193 42.8846 2.88193C42.8846 2.16896 42.8817 1.5208 42.8846 0.872643C42.8874 0.00749318 42.9071 -0.00659723 43.7413 0.280847C43.8258 0.309027 43.9132 0.331572 43.8596 0.314664C43.8089 1.1629 43.761 1.94915 43.7103 2.80303C44.3021 2.80303 44.8178 2.80303 45.4716 2.80303C45.0235 2.05342 44.6318 1.39399 44.2401 0.734557C44.3105 0.661287 44.3781 0.585199 44.4486 0.511929C44.8516 0.793737 45.3307 1.00791 45.6378 1.37144C45.9957 1.79415 46.2127 2.33804 46.4692 2.84248C46.5452 2.99184 46.5509 3.17501 46.6101 3.43427C45.635 3.43427 44.7501 3.43427 43.761 3.43427C43.9667 4.47696 44.1527 5.42666 44.3415 6.37917C44.3922 6.3848 44.443 6.39044 44.4965 6.39889C44.829 5.68874 45.1616 4.9814 45.5448 4.16134C45.8802 4.44315 46.1676 4.6855 46.4917 4.96167C46.0324 5.46611 45.6491 5.98463 45.1728 6.38762C44.5219 6.93996 44.5951 7.52049 45.0009 8.11228C45.5364 8.89571 46.131 9.63968 46.7341 10.4457C46.6129 10.6345 46.4663 10.9529 46.2353 11.1868C46.1535 11.2685 45.7421 11.2093 45.6885 11.1079C45.1954 10.1357 44.7107 9.15497 44.2992 8.1461C44.0879 7.62757 44.0202 7.04987 43.8906 6.50034C43.8455 6.50316 43.7976 6.50316 43.7525 6.50034Z" fill="#7F7F8E"/>
<path d="M61.0217 11.4436C62.2842 11.4633 62.2842 11.4633 62.2842 10.1191C62.2842 9.41455 62.2814 8.71003 62.2758 8.00833C62.2758 7.96324 62.2504 7.91816 62.2025 7.74625C61.8925 7.96888 61.6163 8.16333 61.3232 8.37187C60.6384 7.79698 60.7033 7.14882 61.6022 6.82474C62.0926 6.6472 62.3293 6.3823 62.2898 5.8525C62.2617 5.48052 62.2532 5.09726 62.2927 4.72809C62.3687 4.00948 62.1856 3.58959 61.3514 3.71077C61.2274 3.73049 61.0753 3.56423 60.9343 3.4825C61.0753 3.37542 61.2105 3.26551 61.3571 3.16688C61.3881 3.14433 61.4501 3.15561 61.4951 3.16406C62.1799 3.27396 62.3349 2.93016 62.2955 2.313C62.2532 1.65921 62.2927 0.999777 62.3039 0.343165C62.3039 0.275531 62.3406 0.210715 62.3575 0.148717C63.2114 0.0134496 63.248 0.0895376 63.1663 0.878599C63.0958 1.56621 63.1522 2.26791 63.1522 3.00907C63.4368 2.83716 63.7834 2.58354 63.8144 2.61735C64.0681 2.89352 64.2597 3.22324 64.5669 3.67695C63.9666 3.71077 63.62 3.73049 63.2057 3.75304C63.2057 4.47447 63.2057 5.18462 63.2057 5.95959C63.5467 5.82151 63.8736 5.68906 64.1977 5.55661C64.2456 5.60451 64.2935 5.65242 64.3414 5.70033C64.099 5.94832 63.8201 6.16813 63.6284 6.44994C63.4227 6.74865 63.1747 7.10091 63.1578 7.43626C63.1043 8.72413 63.1494 10.0176 63.1296 11.3083C63.1212 12.0269 62.9803 12.6976 62.132 12.9653C61.7741 12.4722 61.4078 11.9734 61.0217 11.4436Z" fill="#7F7F8E"/>
<path d="M41.0359 8.48407C40.0495 9.40558 39.0689 10.3327 38.0684 11.2373C37.998 11.3021 37.7415 11.2711 37.6598 11.1922C37.316 10.8597 37.4682 10.096 37.9247 9.90438C38.4714 9.6733 38.742 9.34922 38.6743 8.70388C38.6039 8.00781 38.6264 7.29484 38.6687 6.59314C38.7025 6.01543 38.556 5.6829 37.9078 5.73644C37.7951 5.7449 37.6767 5.6519 37.564 5.44618C37.8881 5.40673 38.215 5.36727 38.6011 5.32219C38.6011 4.26259 38.6011 3.19736 38.6011 2.0814C38.2685 2.04758 37.9304 2.01376 37.5922 1.97995C37.5612 1.91795 37.5274 1.85313 37.4964 1.79114C37.6542 1.68687 37.8064 1.51496 37.9754 1.49242C38.3221 1.44451 38.6771 1.48396 39.0294 1.47833C39.3732 1.47269 39.7452 1.54596 39.8551 1.04434C39.872 0.968257 40.2524 0.863988 40.306 0.920349C40.5681 1.19652 40.7794 1.52624 41.1148 1.98276C40.461 2.01658 40.0326 2.03631 39.5677 2.06167C39.5677 3.14381 39.5677 4.18086 39.5677 5.35882C39.8185 5.03192 39.9904 4.8093 40.2102 4.51903C40.4694 4.88257 40.7005 5.20664 41.0133 5.64626C40.7118 5.68854 40.4976 5.76462 40.2947 5.74208C39.6494 5.67445 39.4803 5.97598 39.5141 6.57059C39.5564 7.29202 39.5226 8.01908 39.5226 8.88705C40.0129 8.62497 40.4074 8.41362 40.802 8.20226C40.8781 8.29526 40.957 8.39107 41.0359 8.48407Z" fill="#7F7F8E"/>
<path d="M35.5152 15.307C37.0483 15.1126 37.5273 15.2986 37.9472 16.2004C38.229 16.8062 38.091 17.6094 37.6231 18.1223C37.1131 18.6831 36.448 18.7 35.7773 18.6154C35.673 18.6014 35.5293 18.3477 35.5265 18.204C35.5068 17.2487 35.5152 16.2962 35.5152 15.307ZM36.1578 18.2322C36.5861 18.0096 37.0144 17.925 37.192 17.6686C37.5217 17.1895 37.4935 16.5752 37.1553 16.1102C36.9863 15.8791 36.5551 15.8425 36.1578 15.6846C36.1578 16.5921 36.1578 17.3079 36.1578 18.2322Z" fill="#7F7F8E"/>
<path d="M29.1521 16.9207C29.1464 18.1212 28.6758 18.6792 27.6839 18.6651C26.7624 18.6539 26.2354 17.9973 26.241 16.8644C26.2438 15.6921 26.7116 15.182 27.7684 15.2017C28.766 15.2186 29.1605 15.709 29.1521 16.9207ZM28.5406 16.8616C28.5377 16.1768 28.1545 15.6188 27.698 15.6357C27.2499 15.6526 26.8413 16.2472 26.8413 16.8841C26.8413 17.676 27.1766 18.11 27.7684 18.0874C28.3546 18.0649 28.5462 17.7605 28.5406 16.8616Z" fill="#7F7F8E"/>
<path d="M46.3734 18.6969C46.2409 18.5475 46.1141 18.3897 45.9704 18.2488C45.7421 18.0262 45.5336 17.6965 45.2631 17.6317C44.9277 17.5499 44.6346 17.75 44.5304 18.1868C44.4825 18.3813 44.1527 18.5081 43.9527 18.6631C43.8963 18.6011 43.8371 18.5391 43.7808 18.4771C44.133 17.4823 44.474 16.4847 44.846 15.5012C44.8911 15.38 45.1137 15.256 45.2518 15.2588C45.4012 15.2588 45.6379 15.3744 45.683 15.4956C45.9958 16.3353 46.2776 17.1864 46.5481 18.0403C46.6017 18.2065 46.5566 18.401 46.5566 18.5813C46.4946 18.6208 46.4326 18.6603 46.3734 18.6969Z" fill="#7F7F8E"/>
<path d="M67.1284 15.2834C68.1401 15.1086 67.7145 16.3571 68.374 16.4782C68.76 16.1147 68.5769 15.2242 69.5632 15.2496C69.3659 15.7314 69.256 16.1316 69.0475 16.467C68.7093 17.0137 68.5149 17.5745 68.5543 18.2254C68.5628 18.3523 68.3881 18.4932 68.2979 18.6256C68.1936 18.527 67.9851 18.4171 67.9963 18.3353C68.1429 17.2701 67.5285 16.4529 67.1312 15.5624C67.1058 15.5088 67.1284 15.4271 67.1284 15.2834Z" fill="#7F7F8E"/>
<path d="M59.9873 15.1963C60.1085 15.3795 60.3255 15.557 60.3339 15.7458C60.3734 16.4898 60.3509 17.2338 60.3509 18.0256C60.844 18.0595 61.2752 18.0905 61.8557 18.1327C61.7007 18.3582 61.6218 18.5893 61.5232 18.5977C61.0131 18.64 60.4946 18.64 59.9845 18.609C59.8971 18.6033 59.7591 18.3751 59.7562 18.2483C59.7365 17.2704 59.745 16.2953 59.745 15.3175C59.8267 15.2752 59.9084 15.2357 59.9873 15.1963Z" fill="#7F7F8E"/>
<path d="M40.9456 4.47363C42.3151 5.25706 42.7238 6.58437 41.8586 7.41289C41.2696 6.48574 41.264 5.42614 40.9456 4.47363Z" fill="#7F7F8E"/>
<path d="M52.7703 18.5751C52.7703 17.4901 52.7703 16.4079 52.7703 15.323C52.821 15.2807 52.8717 15.2356 52.9224 15.1934C53.0549 15.3455 53.2916 15.4949 53.2972 15.6527C53.3367 16.4897 53.3311 17.3295 53.3029 18.1664C53.2972 18.344 53.1197 18.5187 53.0239 18.6934C52.9365 18.654 52.852 18.6145 52.7703 18.5751Z" fill="#7F7F8E"/>
</svg>
