<svg width="146" height="33" viewBox="0 0 146 33" fill="none" xmlns="http://www.w3.org/2000/svg">
<path d="M27.5724 2.2449H20.1716V13.9633H7.44591V2.2449H0V32.3265H7.44591V20.4286H20.1716V32.3265H27.5724V2.2449ZM54.0016 9.78776H46.7814V20.249C46.7814 24.6041 44.9312 26.5347 42.0882 26.5347C39.7867 26.5347 38.2073 24.7388 38.2073 22.0898V9.78776H31.0321V23.6163C31.0321 29.2735 34.552 33 39.8319 33C42.6748 33 45.0666 31.9673 46.7814 30.1714V32.3265H54.0016V9.78776ZM71.9922 9.11429C69.0589 9.11429 66.7123 10.0122 64.9524 11.5837V0H57.7321V32.3265H64.9524V30.5306C66.7123 32.102 69.0589 33 71.9922 33C77.994 33 83.0482 28.1959 83.0482 21.0571C83.0482 13.9633 77.994 9.11429 71.9922 9.11429ZM70.503 26.8939C67.5698 26.8939 64.9524 24.5592 64.9524 21.0571C64.9524 17.6 67.5698 15.2204 70.503 15.2204C73.6619 15.2204 75.9633 17.6 75.9633 21.0571C75.9633 24.5592 73.6619 26.8939 70.503 26.8939ZM99.5496 9.11429C96.6163 9.11429 94.2697 10.0122 92.5098 11.5837V0H85.2895V32.3265H92.5098V30.5306C94.2697 32.102 96.6163 33 99.5496 33C105.551 33 110.606 28.1959 110.606 21.0571C110.606 13.9633 105.551 9.11429 99.5496 9.11429ZM98.0604 26.8939C95.1271 26.8939 92.5098 24.5592 92.5098 21.0571C92.5098 17.6 95.1271 15.2204 98.0604 15.2204C101.219 15.2204 103.521 17.6 103.521 21.0571C103.521 24.5592 101.219 26.8939 98.0604 26.8939ZM120.067 32.3265V0H112.847V32.3265H120.067ZM146 21.0571C145.865 13.6939 140.72 9.11429 134.312 9.11429C127.724 9.11429 122.308 13.9633 122.308 21.0571C122.308 28.1959 127.724 33 134.267 33C139.457 33 143.563 30.7102 145.504 25.951L139.096 24.649C137.877 26.849 135.937 27.2531 134.267 27.2531C131.83 27.2531 129.98 25.5918 129.393 22.898H146V21.0571ZM134.312 14.951C136.388 14.951 138.193 16.0735 138.87 18.498H129.529C130.206 16.2082 132.281 14.951 134.312 14.951Z" fill="white"/>
</svg>
