<svg width="194" height="43" viewBox="0 0 194 43" fill="none" xmlns="http://www.w3.org/2000/svg">
<g clip-path="url(#clip0_1961_3242)">
<path d="M35.8734 0.00128174H18.064C17.6202 0.00125036 17.1841 0.118129 16.7998 0.340112C16.4155 0.562096 16.0964 0.881351 15.8747 1.2658L6.97194 16.6828C6.75017 17.0671 6.63336 17.5029 6.63336 17.9466C6.63336 18.3903 6.75017 18.8262 6.97194 19.2105L15.8747 34.6275L20.2533 32.0997L12.0803 17.9485L19.5235 5.05934H34.4087L42.5817 19.2105L46.9603 16.6828L38.0614 1.2658C37.8397 0.88163 37.5209 0.562547 37.1368 0.340588C36.7528 0.118629 36.317 0.00160985 35.8734 0.00128174Z" fill="white"/>
<path d="M31.087 8.37769L26.7083 10.9054L34.88 25.0566L27.4381 37.9458H12.5517L4.37994 23.7946L0 26.3211L8.90279 41.7381C9.12459 42.1225 9.44363 42.4417 9.82795 42.6636C10.2123 42.8856 10.6483 43.0025 11.0921 43.0026H28.8977C29.3415 43.0025 29.7774 42.8856 30.1617 42.6636C30.546 42.4417 30.8652 42.1225 31.087 41.7381L39.9897 26.3211C40.2116 25.9369 40.3284 25.501 40.3284 25.0573C40.3284 24.6135 40.2116 24.1776 39.9897 23.7934L31.087 8.37769Z" fill="white"/>
<path d="M64.458 6.86924L70.7299 17.3281H71.87L78.1419 6.79523L78.1666 19.4351H80.5481L80.5235 2.0863H78.4913L71.3493 14.2798L64.1112 2.0863H62.079V19.4351H64.4592L64.458 6.86924Z" fill="white"/>
<path d="M88.2306 2.08633H85.7517V19.4351H88.2306V2.08633Z" fill="white"/>
<path d="M105.884 15.0237L95.4723 2.0863H93.4401V19.4351H95.919V6.49792L106.331 19.4351H108.363V2.0863H105.884V15.0237Z" fill="white"/>
<path d="M117.009 19.4351H119.464V4.24537H125.414V2.08893H111.061V4.24537H117.011L117.009 19.4351Z" fill="white"/>
<path d="M136.766 10.6613C135.739 10.2771 134.687 9.96271 133.618 9.72009C132.809 9.54497 132.011 9.32569 131.226 9.06319C130.679 8.88087 130.176 8.58541 129.751 8.19599C129.554 8.01065 129.399 7.78524 129.297 7.53512C129.194 7.28501 129.146 7.01588 129.156 6.74573C129.153 6.35375 129.247 5.9672 129.431 5.621C129.615 5.2748 129.882 4.97994 130.209 4.76331C131.158 4.18591 132.262 3.91729 133.37 3.99468C134.193 3.99929 135.011 4.1205 135.799 4.35443C136.622 4.59266 137.407 4.9471 138.129 5.40721L138.947 3.42478C138.169 2.89903 137.305 2.5132 136.394 2.28483C135.408 2.02145 134.391 1.88842 133.37 1.88895C132.105 1.85025 130.847 2.0785 129.677 2.55884C128.78 2.92697 128.01 3.54651 127.458 4.3427C126.97 5.08583 126.716 5.95727 126.727 6.84574C126.676 7.80103 126.981 8.74125 127.582 9.48507C128.139 10.1291 128.845 10.627 129.639 10.9353C130.671 11.3193 131.726 11.6342 132.8 11.8778C133.839 12.1253 134.644 12.3482 135.216 12.5464C135.752 12.724 136.243 13.016 136.655 13.4021C136.848 13.5895 137 13.8155 137.1 14.0653C137.2 14.3151 137.247 14.5832 137.237 14.8522C137.243 15.241 137.147 15.6247 136.961 15.966C136.774 16.3072 136.503 16.5944 136.172 16.7996C135.193 17.3539 134.072 17.6081 132.949 17.5305C131.863 17.5308 130.785 17.342 129.764 16.9723C128.831 16.6583 127.968 16.1657 127.224 15.5221L126.307 17.4565C127.137 18.1776 128.111 18.714 129.164 19.03C130.383 19.4359 131.659 19.6411 132.944 19.6376C134.215 19.6742 135.481 19.4507 136.663 18.9807C137.574 18.6202 138.358 17.9993 138.919 17.1956C139.41 16.4582 139.669 15.5903 139.663 14.7041C139.711 13.7622 139.406 12.8362 138.807 12.1076C138.252 11.4696 137.552 10.9736 136.766 10.6613Z" fill="white"/>
<path d="M147.673 4.96188C148.744 4.37617 149.948 4.07745 151.169 4.09467C152.082 4.07326 152.989 4.24554 153.831 4.60023C154.673 4.95491 155.43 5.48391 156.053 6.15238L157.663 4.59452C156.875 3.70648 155.89 3.01469 154.788 2.57437C153.604 2.10887 152.341 1.87752 151.069 1.89291C149.426 1.87036 147.805 2.26709 146.359 3.04569C144.99 3.78026 143.849 4.87757 143.062 6.21736C142.282 7.60617 141.872 9.17236 141.872 10.7653C141.872 12.3582 142.282 13.9242 143.062 15.313C143.846 16.6506 144.982 17.7477 146.346 18.4847C147.788 19.2645 149.405 19.6616 151.044 19.6376C152.321 19.6521 153.589 19.416 154.775 18.943C155.882 18.4981 156.87 17.8027 157.663 16.9113L156.053 15.3533C155.431 16.0245 154.675 16.5566 153.833 16.9146C152.991 17.2726 152.083 17.4484 151.169 17.4305C149.948 17.4479 148.744 17.1492 147.673 16.5633C146.654 16.0063 145.809 15.1781 145.232 14.1705C144.655 13.1274 144.352 11.9547 144.352 10.7626C144.352 9.5704 144.655 8.39775 145.232 7.35461C145.809 6.34709 146.654 5.51893 147.673 4.96188Z" fill="white"/>
<path d="M166.018 2.0863L158.159 19.4351H160.709L162.618 15.0977H171.838L173.745 19.4351H176.342L168.459 2.0863H166.018ZM163.488 13.1216L167.232 4.62056L170.974 13.1216H163.488Z" fill="white"/>
<path d="M191.376 2.0863V15.0237L180.964 2.0863H178.932V19.4351H181.415V6.49792L191.826 19.4351H193.859V2.0863H191.376Z" fill="white"/>
<g opacity="0.85">
<g opacity="0.85">
<path opacity="0.85" d="M68.6784 29.9939C69.3126 30.3452 69.834 30.8693 70.1821 31.5051C70.5393 32.1916 70.7257 32.9539 70.7257 33.7277C70.7257 34.5014 70.5393 35.2639 70.1821 35.9503C69.8328 36.5873 69.3118 37.1136 68.6784 37.4694C68.0239 37.8357 67.2846 38.0232 66.5346 38.0133C65.8752 38.0238 65.2236 37.8699 64.6387 37.5654C64.0773 37.2652 63.6095 36.816 63.2869 36.2671V37.9302H62.2V26.064H63.3349V31.1169C63.6676 30.5914 64.1342 30.164 64.6867 29.8783C65.2594 29.59 65.8934 29.4443 66.5346 29.4538C67.284 29.4448 68.0227 29.6309 68.6784 29.9939ZM68.0538 36.5982C68.5329 36.3273 68.9244 35.925 69.1822 35.4388C69.4502 34.9082 69.5898 34.3221 69.5898 33.7277C69.5898 33.1332 69.4502 32.5471 69.1822 32.0165C68.9242 31.5305 68.5328 31.1283 68.0538 30.8573C67.5619 30.5898 67.0108 30.4497 66.4508 30.4497C65.8908 30.4497 65.3397 30.5898 64.8478 30.8573C64.3727 31.1304 63.9846 31.5322 63.7284 32.0165C63.4599 32.547 63.32 33.1332 63.32 33.7277C63.32 34.3222 63.4599 34.9083 63.7284 35.4388C63.9845 35.9232 64.3726 36.3253 64.8478 36.5982C65.3397 36.8657 65.8908 37.0058 66.4508 37.0058C67.0108 37.0058 67.5619 36.8657 68.0538 36.5982Z" fill="white"/>
<path opacity="0.85" d="M79.8742 29.5227L75.6669 38.9416C75.4242 39.5946 75.0162 40.1734 74.4827 40.6215C74.0129 40.959 73.4455 41.1333 72.8673 41.1175C72.4802 41.1206 72.0956 41.0555 71.7311 40.9253C71.3892 40.8027 71.0788 40.6058 70.8221 40.3489L71.3506 39.5012C71.5492 39.7071 71.7877 39.8701 72.0517 39.9801C72.3157 40.0902 72.5995 40.145 72.8855 40.1412C73.2407 40.1504 73.5882 40.0372 73.8698 39.8205C74.2035 39.5213 74.4635 39.149 74.6294 38.7326L74.9969 37.9174L71.2376 29.5214H72.4219L75.589 36.6696L78.7574 29.5214L79.8742 29.5227Z" fill="white"/>
<path opacity="0.85" d="M87.7681 37.294C86.8943 36.821 86.1688 36.1149 85.6722 35.2544C85.1728 34.3618 84.9107 33.3561 84.9107 32.3333C84.9107 31.3105 85.1728 30.3048 85.6722 29.4122C86.1708 28.5505 86.8991 27.8445 87.7759 27.3727C88.6992 26.8751 89.7345 26.6216 90.7833 26.6365C91.5706 26.6281 92.3522 26.769 93.0869 27.0519C93.7694 27.3146 94.3824 27.7303 94.8789 28.2671L94.1271 29.0201C93.6963 28.5828 93.1798 28.2393 92.61 28.0107C92.0402 27.7822 91.4294 27.6737 90.8157 27.692C89.9715 27.6815 89.1392 27.8909 88.4005 28.2996C87.6917 28.6886 87.1026 29.2636 86.6968 29.9627C86.293 30.6862 86.081 31.501 86.081 32.3295C86.081 33.158 86.293 33.9727 86.6968 34.6962C87.1021 35.3957 87.6914 35.9709 88.4005 36.3593C89.1391 36.7681 89.9715 36.9775 90.8157 36.9669C91.431 36.987 92.0436 36.8778 92.614 36.6463C93.1844 36.4149 93.6999 36.0663 94.1271 35.6232L94.8789 36.3748C94.3796 36.9141 93.7642 37.3328 93.0791 37.5991C92.3428 37.8866 91.5581 38.0303 90.7677 38.0224C89.7219 38.0406 88.689 37.7898 87.7681 37.294Z" fill="white"/>
<path opacity="0.85" d="M98.0461 37.4615C97.4043 37.1027 96.8733 36.5747 96.5112 35.9349C96.1434 35.2573 95.9508 34.4986 95.9508 33.7277C95.9508 32.9568 96.1434 32.1982 96.5112 31.5207C96.8722 30.882 97.4036 30.3561 98.0461 30.0017C98.7212 29.6443 99.4735 29.4575 100.237 29.4575C101.001 29.4575 101.754 29.6443 102.429 30.0017C103.07 30.3551 103.6 30.8814 103.957 31.5207C104.32 32.1999 104.509 32.9579 104.509 33.7277C104.509 34.4976 104.32 35.2557 103.957 35.9349C103.599 36.5753 103.07 37.1037 102.429 37.4615C101.755 37.8238 101.002 38.0135 100.237 38.0135C99.4725 38.0135 98.7196 37.8238 98.0461 37.4615ZM101.844 36.5983C102.318 36.3266 102.704 35.924 102.956 35.4388C103.219 34.9068 103.356 34.3212 103.356 33.7277C103.356 33.1342 103.219 32.5487 102.956 32.0166C102.704 31.5316 102.318 31.1292 101.844 30.8573C101.351 30.5903 100.799 30.4503 100.237 30.4503C99.6762 30.4503 99.124 30.5903 98.6304 30.8573C98.1553 31.1303 97.7672 31.5322 97.5111 32.0166C97.243 32.5472 97.1033 33.1333 97.1033 33.7277C97.1033 34.3221 97.243 34.9082 97.5111 35.4388C97.767 35.9233 98.1552 36.3254 98.6304 36.5983C99.124 36.8653 99.6762 37.0051 100.237 37.0051C100.799 37.0051 101.351 36.8653 101.844 36.5983Z" fill="white"/>
<path opacity="0.85" d="M107.128 37.7173C106.596 37.5677 106.099 37.315 105.664 36.9734L106.176 36.0777C106.575 36.3802 107.024 36.6104 107.503 36.7579C108.04 36.9328 108.602 37.0206 109.167 37.0176C109.757 37.0589 110.347 36.9342 110.87 36.6579C111.044 36.5529 111.187 36.4035 111.284 36.225C111.381 36.0466 111.429 35.8456 111.422 35.6426C111.429 35.5064 111.406 35.3704 111.353 35.2445C111.301 35.1187 111.22 35.0063 111.118 34.9157C110.894 34.7286 110.633 34.5922 110.351 34.5158C109.945 34.4063 109.534 34.3195 109.118 34.2561C108.562 34.1593 108.012 34.0293 107.471 33.8667C107.062 33.7384 106.695 33.504 106.407 33.1876C106.096 32.8175 105.938 32.3423 105.967 31.8596C105.962 31.5217 106.04 31.1876 106.193 30.8865C106.347 30.5854 106.571 30.3262 106.847 30.1315C107.567 29.6445 108.428 29.4086 109.295 29.4603C109.846 29.4614 110.394 29.5343 110.926 29.6771C111.402 29.7918 111.856 29.9835 112.27 30.2445L111.774 31.1532C111.042 30.6621 110.176 30.4108 109.295 30.434C108.722 30.3972 108.151 30.5329 107.655 30.8236C107.485 30.9302 107.344 31.0789 107.248 31.2553C107.151 31.4317 107.101 31.6299 107.103 31.831C107.097 31.9738 107.122 32.1162 107.175 32.2486C107.229 32.381 107.311 32.5002 107.415 32.5982C107.638 32.7985 107.905 32.9435 108.194 33.0215C108.615 33.1371 109.042 33.2306 109.473 33.3019C110.018 33.4014 110.558 33.5315 111.088 33.6914C111.486 33.8153 111.844 34.0414 112.127 34.3471C112.431 34.7013 112.586 35.1597 112.56 35.6258C112.568 35.9719 112.488 36.3143 112.326 36.6208C112.165 36.9272 111.929 37.1876 111.639 37.3772C110.875 37.8506 109.984 38.0772 109.087 38.0263C108.422 38.0251 107.761 37.9208 107.128 37.7173Z" fill="white"/>
<path opacity="0.85" d="M127.628 30.369C127.95 30.7338 128.197 31.1594 128.353 31.6206C128.509 32.0819 128.571 32.5695 128.537 33.0552V37.9328H127.401V33.1642C127.451 32.4419 127.226 31.7272 126.769 31.1649C126.539 30.9292 126.26 30.7459 125.952 30.6275C125.644 30.509 125.315 30.4581 124.985 30.4782C124.604 30.458 124.222 30.5196 123.866 30.6588C123.51 30.7981 123.188 31.0118 122.922 31.2856C122.392 31.9038 122.123 32.7033 122.17 33.5161V37.9302H121.035V33.1642C121.085 32.4417 120.859 31.727 120.403 31.1649C120.17 30.9284 119.888 30.7448 119.578 30.6263C119.268 30.5079 118.936 30.4574 118.604 30.4782C118.224 30.4596 117.844 30.522 117.49 30.6612C117.135 30.8004 116.815 31.0132 116.549 31.2856C116.014 31.9017 115.742 32.702 115.789 33.5161V37.9302H114.654V29.5187H115.741V31.0533C116.034 30.5469 116.468 30.1361 116.989 29.8705C117.559 29.585 118.19 29.4423 118.828 29.455C119.467 29.4393 120.099 29.5938 120.659 29.9029C121.18 30.2066 121.588 30.6733 121.818 31.2311C122.128 30.6784 122.592 30.2274 123.153 29.9328C123.767 29.6102 124.452 29.4476 125.145 29.4602C125.599 29.435 126.053 29.5026 126.48 29.6588C126.907 29.8151 127.297 30.0567 127.628 30.369Z" fill="white"/>
<path opacity="0.85" d="M132.898 37.4615C132.256 37.1023 131.725 36.5744 131.363 35.9349C130.995 35.2572 130.803 34.4985 130.803 33.7277C130.803 32.957 130.995 32.1984 131.363 31.5207C131.724 30.8823 132.255 30.3564 132.898 30.0017C133.573 29.6444 134.325 29.4576 135.089 29.4576C135.853 29.4576 136.605 29.6444 137.28 30.0017C137.922 30.3551 138.451 30.8814 138.809 31.5207C139.171 32.2001 139.36 32.958 139.36 33.7277C139.36 34.4975 139.171 35.2556 138.809 35.9349C138.45 36.5753 137.921 37.1037 137.28 37.4615C136.607 37.8237 135.854 38.0134 135.089 38.0134C134.324 38.0134 133.571 37.8237 132.898 37.4615ZM136.697 36.5983C137.171 36.3267 137.557 35.9241 137.809 35.4388C138.072 34.9068 138.209 34.3213 138.209 33.7277C138.209 33.1342 138.072 32.5487 137.809 32.0166C137.557 31.5315 137.171 31.1291 136.697 30.8573C136.203 30.5901 135.651 30.45 135.09 30.45C134.528 30.45 133.976 30.5901 133.482 30.8573C133.007 31.1303 132.619 31.5322 132.363 32.0166C132.095 32.5473 131.956 33.1334 131.956 33.7277C131.956 34.3221 132.095 34.9082 132.363 35.4388C132.619 35.9234 133.007 36.3255 133.482 36.5983C133.976 36.8655 134.528 37.0054 135.09 37.0054C135.651 37.0054 136.203 36.8655 136.697 36.5983Z" fill="white"/>
<path opacity="0.85" d="M141.975 37.7172C141.443 37.5677 140.946 37.315 140.512 36.9733L141.024 36.0776C141.423 36.3799 141.872 36.61 142.351 36.7578C142.888 36.9328 143.449 37.0206 144.014 37.0176C144.604 37.0586 145.194 36.9339 145.718 36.6578C145.891 36.5525 146.034 36.4031 146.13 36.2247C146.227 36.0463 146.275 35.8454 146.268 35.6426C146.275 35.5064 146.252 35.3703 146.199 35.2445C146.147 35.1186 146.066 35.0063 145.964 34.9156C145.741 34.7285 145.479 34.5921 145.197 34.5158C144.792 34.4062 144.381 34.3194 143.966 34.256C143.41 34.1593 142.86 34.0293 142.319 33.8667C141.911 33.7384 141.544 33.504 141.256 33.1876C140.945 32.8174 140.787 32.3422 140.816 31.8595C140.811 31.5217 140.888 31.1877 141.041 30.8866C141.194 30.5855 141.419 30.3263 141.695 30.1314C142.415 29.6446 143.275 29.4087 144.143 29.4603C144.693 29.4614 145.242 29.5343 145.774 29.6771C146.25 29.7915 146.704 29.9832 147.118 30.2444L146.621 31.1532C145.89 30.662 145.024 30.4107 144.143 30.434C143.569 30.3969 142.998 30.5326 142.503 30.8235C142.332 30.9297 142.191 31.0782 142.094 31.2547C141.998 31.4312 141.948 31.6298 141.951 31.831C141.944 31.9737 141.969 32.1162 142.023 32.2486C142.077 32.381 142.158 32.5002 142.262 32.5982C142.485 32.7985 142.752 32.9436 143.041 33.0215C143.463 33.137 143.89 33.2305 144.322 33.3018C144.867 33.4012 145.406 33.5313 145.937 33.6914C146.335 33.8152 146.693 34.0413 146.976 34.347C147.28 34.7013 147.435 35.1596 147.408 35.6258C147.417 35.9718 147.337 36.3143 147.176 36.6207C147.015 36.9272 146.779 37.1875 146.489 37.3772C145.725 37.8505 144.835 38.0772 143.937 38.0263C143.271 38.0253 142.609 37.9211 141.975 37.7172Z" fill="white"/>
<path opacity="0.85" d="M153.934 37.4225C153.704 37.6235 153.434 37.7735 153.142 37.8626C152.824 37.9645 152.491 38.0157 152.157 38.0145C151.826 38.0518 151.49 38.0145 151.175 37.905C150.86 37.7955 150.574 37.6168 150.337 37.382C150.101 37.1472 149.92 36.8621 149.808 36.5481C149.696 36.234 149.655 35.899 149.69 35.5674V30.4819H148.186V29.5226H149.69V27.6828H150.826V29.5226H153.386V30.4819H150.826V35.5037C150.796 35.9194 150.931 36.3302 151.202 36.6474C151.345 36.7836 151.515 36.8885 151.701 36.9555C151.887 37.0225 152.085 37.0503 152.282 37.037C152.513 37.0376 152.742 36.9998 152.961 36.9252C153.169 36.8562 153.362 36.7474 153.529 36.6046L153.934 37.4225Z" fill="white"/>
<path opacity="0.85" d="M161.468 30.2809C161.778 30.6029 162.016 30.9867 162.168 31.407C162.32 31.8273 162.381 32.2747 162.348 32.7204V37.9342H161.26V36.6229C160.995 37.069 160.602 37.4258 160.133 37.6474C159.58 37.9046 158.975 38.0303 158.366 38.0147C157.564 38.0572 156.772 37.8196 156.126 37.3423C155.87 37.1294 155.663 36.8636 155.519 36.5634C155.375 36.2631 155.298 35.9352 155.293 35.6023C155.287 35.2694 155.354 34.9394 155.488 34.6346C155.622 34.3299 155.821 34.0578 156.07 33.8369C156.793 33.3425 157.665 33.1132 158.537 33.1877H161.208V32.6749C161.229 32.3717 161.186 32.0676 161.081 31.7823C160.977 31.497 160.813 31.2372 160.601 31.0197C160.104 30.6099 159.468 30.4067 158.825 30.4524C158.303 30.4492 157.783 30.537 157.291 30.7119C156.827 30.8721 156.398 31.1189 156.027 31.439L155.515 30.5912C155.968 30.2144 156.489 29.9292 157.05 29.7512C157.66 29.5519 158.297 29.4519 158.938 29.4552C159.857 29.3936 160.763 29.6895 161.468 30.2809ZM160.189 36.6775C160.656 36.3733 161.015 35.9281 161.212 35.4064V34.0304H158.572C157.133 34.0304 156.413 34.5314 156.413 35.5337C156.404 35.7579 156.451 35.9808 156.549 36.1828C156.646 36.3849 156.792 36.5602 156.972 36.6931C157.435 37.0011 157.985 37.1496 158.54 37.1163C159.119 37.1334 159.692 36.9815 160.186 36.6789L160.189 36.6775Z" fill="white"/>
<path opacity="0.85" d="M169.862 37.4225C169.632 37.6235 169.362 37.7735 169.07 37.8626C168.752 37.9645 168.42 38.0157 168.086 38.0145C167.754 38.0518 167.419 38.0145 167.104 37.905C166.789 37.7955 166.502 37.6168 166.266 37.382C166.029 37.1472 165.848 36.8621 165.736 36.5481C165.624 36.234 165.584 35.899 165.618 35.5674V30.4819H164.115V29.5226H165.618V27.6828H166.755V29.5226H169.314V30.4819H166.755V35.5037C166.725 35.9194 166.859 36.3302 167.13 36.6474C167.273 36.7834 167.443 36.8883 167.629 36.9553C167.814 37.0224 168.012 37.0501 168.209 37.037C168.44 37.0376 168.669 36.9998 168.888 36.9252C169.096 36.8562 169.289 36.7474 169.456 36.6046L169.862 37.4225Z" fill="white"/>
<path opacity="0.85" d="M171.912 27.4427C171.834 27.3685 171.773 27.2792 171.732 27.1803C171.69 27.0813 171.67 26.9748 171.672 26.8676C171.671 26.7626 171.692 26.6586 171.734 26.5622C171.775 26.4657 171.836 26.3788 171.912 26.3067C171.989 26.2286 172.081 26.167 172.183 26.1259C172.285 26.0848 172.394 26.0651 172.504 26.0679C172.613 26.0652 172.722 26.0841 172.823 26.1238C172.925 26.1635 173.018 26.2231 173.096 26.2989C173.172 26.3692 173.233 26.4545 173.274 26.5495C173.315 26.6445 173.336 26.7471 173.335 26.8506C173.335 27.0161 173.286 27.178 173.194 27.3156C173.102 27.4532 172.971 27.5603 172.818 27.6235C172.666 27.6868 172.497 27.7033 172.335 27.6709C172.173 27.6385 172.024 27.5586 171.907 27.4414L171.912 27.4427ZM171.927 29.5199H173.062V37.9314H171.927V29.5199Z" fill="white"/>
<path opacity="0.85" d="M177.478 37.4615C176.836 37.1028 176.304 36.5748 175.942 35.9349C175.574 35.2572 175.382 34.4985 175.382 33.7277C175.382 32.9569 175.574 32.1983 175.942 31.5207C176.303 30.8819 176.835 30.356 177.478 30.0017C178.153 29.6443 178.905 29.4575 179.669 29.4575C180.433 29.4575 181.185 29.6443 181.86 30.0017C182.501 30.3553 183.03 30.8816 183.387 31.5207C183.75 32.1999 183.94 32.9579 183.94 33.7277C183.94 34.4976 183.75 35.2557 183.387 35.9349C183.029 36.5751 182.501 37.1035 181.86 37.4615C181.187 37.8238 180.434 38.0135 179.669 38.0135C178.904 38.0135 178.151 37.8238 177.478 37.4615ZM181.276 36.5983C181.75 36.3267 182.136 35.9241 182.387 35.4388C182.651 34.9068 182.788 34.3213 182.788 33.7277C182.788 33.1342 182.651 32.5486 182.387 32.0166C182.136 31.5315 181.75 31.1291 181.276 30.8573C180.782 30.5901 180.23 30.45 179.668 30.45C179.107 30.45 178.554 30.5901 178.061 30.8573C177.586 31.1302 177.197 31.5322 176.941 32.0166C176.673 32.5472 176.534 33.1333 176.534 33.7277C176.534 34.3221 176.673 34.9082 176.941 35.4388C177.197 35.9234 177.585 36.3255 178.061 36.5983C178.554 36.8655 179.107 37.0054 179.668 37.0054C180.23 37.0054 180.782 36.8655 181.276 36.5983Z" fill="white"/>
<path opacity="0.85" d="M193.064 30.3771C193.393 30.7366 193.646 31.1594 193.807 31.6199C193.968 32.0803 194.034 32.5688 194 33.0554V37.9329H192.865V33.1644C192.916 32.4379 192.681 31.7204 192.209 31.165C191.963 30.9267 191.668 30.7425 191.346 30.6243C191.024 30.506 190.681 30.4564 190.338 30.4783C189.943 30.4578 189.548 30.5189 189.178 30.6579C188.808 30.7968 188.47 31.0105 188.187 31.2858C187.913 31.5861 187.701 31.9381 187.565 32.3211C187.429 32.7042 187.371 33.1104 187.394 33.5162V37.9304H186.26V29.5189H187.346V31.0702C187.654 30.5595 188.101 30.1467 188.635 29.8797C189.228 29.5865 189.884 29.4409 190.546 29.4552C191.006 29.4325 191.466 29.5024 191.898 29.6607C192.331 29.8191 192.727 30.0627 193.064 30.3771Z" fill="white"/>
</g>
</g>
</g>
<defs>
<clipPath id="clip0_1961_3242">
<rect width="194" height="43" fill="white"/>
</clipPath>
</defs>
</svg>
