<svg width="22" height="22" viewBox="0 0 22 22" fill="none" xmlns="http://www.w3.org/2000/svg">
<g clip-path="url(#clip0_2343_6536)">
<path d="M12.7493 0.682015C12.3733 0.0307412 11.5376 -0.193211 10.8864 0.18285C10.5709 0.364993 10.3452 0.65907 10.251 1.01094C10.1853 1.25607 10.1891 1.50877 10.2589 1.74622L8.29765 3.94143C8.13953 4.11842 8.15482 4.39002 8.33181 4.54815C8.5088 4.70627 8.78044 4.69089 8.93848 4.51399L10.6841 2.56004L13.3592 7.19346L16.0343 11.8269L6.81872 13.7483L4.89476 10.4159L4.41231 9.58036L6.36235 7.39765C6.52047 7.22066 6.50517 6.94906 6.32819 6.79093C6.1512 6.63281 5.87955 6.64819 5.72152 6.82509L3.61022 9.18823L1.57484 10.3634C0.846868 10.7837 0.326133 11.4623 0.108583 12.2742C-0.108966 13.0862 0.00266598 13.9342 0.422941 14.6622C0.843216 15.3902 1.52186 15.9109 2.33379 16.1285C2.60497 16.2011 2.88005 16.237 3.15342 16.237C3.61374 16.237 4.06886 16.1347 4.49124 15.9345L5.03449 16.8755C5.25634 17.2597 5.6602 17.4748 6.07489 17.4748C6.27499 17.4748 6.4775 17.4244 6.66339 17.3192L9.12325 21.5797C9.27866 21.849 9.56161 21.9996 9.85221 21.9996C9.9946 21.9996 10.1389 21.9634 10.2708 21.8872L11.9174 20.9366C12.1704 20.7905 12.3273 20.5289 12.337 20.2369C12.3467 19.9448 12.2074 19.6734 11.9646 19.5109L11.4771 19.1846L9.46592 15.7011C10.0317 15.3681 10.2249 14.6381 9.89608 14.0686L9.85272 13.9934L16.5275 12.6018C16.7879 12.8738 17.1472 13.0227 17.5145 13.0227C17.7457 13.0227 17.9799 12.9639 18.1941 12.8403C18.8453 12.4643 19.0692 11.6286 18.6932 10.9774L12.7493 0.682015ZM2.55624 15.2984C1.96603 15.1402 1.4727 14.7617 1.1672 14.2325C0.861692 13.7034 0.780525 13.0868 0.938692 12.4967C1.09686 11.9065 1.47537 11.4132 2.00457 11.1076L3.72752 10.1129L4.87134 12.094L6.01516 14.0751L4.29213 15.0698C3.76288 15.3754 3.14641 15.4565 2.55624 15.2984ZM10.9161 19.8432L11.4609 20.2078L9.85792 21.1334L7.40786 16.8898L8.72192 16.1311L10.783 19.701C10.8159 19.7579 10.8614 19.8066 10.9161 19.8432ZM9.15191 14.4983C9.24558 14.6605 9.1898 14.8686 9.0276 14.9623L8.66443 15.1719C8.66438 15.172 8.66434 15.172 8.6643 15.172C8.66426 15.1721 8.66421 15.1721 8.66417 15.1721L6.60624 16.3603C6.60615 16.3603 6.60607 16.3604 6.60598 16.3604C6.60589 16.3604 6.60585 16.3605 6.60576 16.3605L6.24272 16.5701C6.08056 16.6638 5.87242 16.608 5.77871 16.4458L5.24091 15.5143L6.7571 14.6389L8.96701 14.1782L9.15191 14.4983ZM17.7645 12.0961C17.6478 12.1635 17.5117 12.1813 17.3817 12.1464C17.2516 12.1116 17.1428 12.0281 17.0755 11.9114L11.1314 1.61611C11.0641 1.49945 11.0462 1.3635 11.081 1.23339C11.1159 1.10328 11.1994 0.994482 11.316 0.92715C11.3952 0.881432 11.4818 0.85969 11.5674 0.85969C11.7418 0.85969 11.9117 0.950138 12.0051 1.11179L17.9491 11.4071C18.0881 11.6479 18.0053 11.957 17.7645 12.0961Z" fill="#C73238"/>
<path d="M17.087 5.04084C17.1666 5.17868 17.3109 5.25573 17.4595 5.25573C17.5324 5.25573 17.6063 5.23717 17.6739 5.19811L20.45 3.59533C20.6555 3.47669 20.7259 3.2139 20.6073 3.00838C20.4886 2.80286 20.2258 2.73243 20.0203 2.85111L17.2442 4.45389C17.0387 4.57252 16.9683 4.83532 17.087 5.04084Z" fill="#C73238"/>
<path d="M16.2208 3.60207C16.2885 3.64113 16.3623 3.65969 16.4352 3.65969C16.5837 3.65969 16.7282 3.58265 16.8077 3.44481L18.1304 1.15388C18.2491 0.948364 18.1786 0.685567 17.9731 0.566931C17.7676 0.448251 17.5048 0.518677 17.3862 0.724196L16.0635 3.01512C15.9448 3.22059 16.0153 3.48343 16.2208 3.60207Z" fill="#C73238"/>
<path d="M20.6974 6.08203H18.6055C18.3682 6.08203 18.1758 6.2744 18.1758 6.51172C18.1758 6.74904 18.3682 6.94141 18.6055 6.94141H20.6974C20.9347 6.94141 21.1271 6.74904 21.1271 6.51172C21.1271 6.2744 20.9347 6.08203 20.6974 6.08203Z" fill="#C73238"/>
<path d="M21.8745 2.14885C21.7942 2.06893 21.6838 2.02295 21.5708 2.02295C21.4573 2.02295 21.3469 2.06893 21.2666 2.14885C21.1866 2.22877 21.1406 2.33963 21.1406 2.45264C21.1406 2.56564 21.1866 2.6765 21.2666 2.75643C21.3469 2.83635 21.4573 2.88232 21.5708 2.88232C21.6838 2.88232 21.7942 2.83635 21.8745 2.75643C21.9545 2.6765 22 2.56564 22 2.45264C22 2.33963 21.9545 2.22877 21.8745 2.14885Z" fill="#C73238"/>
<path d="M7.33008 6.09894C7.44313 6.09894 7.55352 6.05339 7.63387 5.97347C7.71379 5.89355 7.75934 5.78269 7.75934 5.66968C7.75934 5.55624 7.71379 5.44581 7.63387 5.36546C7.55399 5.28554 7.44313 5.23999 7.33008 5.23999C7.21664 5.23999 7.10621 5.28554 7.02633 5.36546C6.94598 5.44581 6.90039 5.55624 6.90039 5.66968C6.90039 5.78269 6.94598 5.89355 7.02633 5.97347C7.10621 6.05339 7.21707 6.09894 7.33008 6.09894Z" fill="#C73238"/>
</g>
<defs>
<clipPath id="clip0_2343_6536">
<rect width="22" height="22" fill="white"/>
</clipPath>
</defs>
</svg>
