<svg width="22" height="22" viewBox="0 0 22 22" fill="none" xmlns="http://www.w3.org/2000/svg">
<path d="M6.875 5.5C6.69266 5.5 6.5178 5.57243 6.38886 5.70136C6.25993 5.8303 6.1875 6.00516 6.1875 6.1875C6.1875 6.36984 6.25993 6.5447 6.38886 6.67364C6.5178 6.80257 6.69266 6.875 6.875 6.875H15.125C15.3073 6.875 15.4822 6.80257 15.6111 6.67364C15.7401 6.5447 15.8125 6.36984 15.8125 6.1875C15.8125 6.00516 15.7401 5.8303 15.6111 5.70136C15.4822 5.57243 15.3073 5.5 15.125 5.5H6.875ZM6.1875 8.9375C6.1875 8.75516 6.25993 8.5803 6.38886 8.45136C6.5178 8.32243 6.69266 8.25 6.875 8.25H15.125C15.3073 8.25 15.4822 8.32243 15.6111 8.45136C15.7401 8.5803 15.8125 8.75516 15.8125 8.9375C15.8125 9.11984 15.7401 9.2947 15.6111 9.42364C15.4822 9.55257 15.3073 9.625 15.125 9.625H6.875C6.69266 9.625 6.5178 9.55257 6.38886 9.42364C6.25993 9.2947 6.1875 9.11984 6.1875 8.9375ZM6.875 11C6.69266 11 6.5178 11.0724 6.38886 11.2014C6.25993 11.3303 6.1875 11.5052 6.1875 11.6875C6.1875 11.8698 6.25993 12.0447 6.38886 12.1736C6.5178 12.3026 6.69266 12.375 6.875 12.375H15.125C15.3073 12.375 15.4822 12.3026 15.6111 12.1736C15.7401 12.0447 15.8125 11.8698 15.8125 11.6875C15.8125 11.5052 15.7401 11.3303 15.6111 11.2014C15.4822 11.0724 15.3073 11 15.125 11H6.875ZM6.875 13.75C6.69266 13.75 6.5178 13.8224 6.38886 13.9514C6.25993 14.0803 6.1875 14.2552 6.1875 14.4375C6.1875 14.6198 6.25993 14.7947 6.38886 14.9236C6.5178 15.0526 6.69266 15.125 6.875 15.125H11C11.1823 15.125 11.3572 15.0526 11.4861 14.9236C11.6151 14.7947 11.6875 14.6198 11.6875 14.4375C11.6875 14.2552 11.6151 14.0803 11.4861 13.9514C11.3572 13.8224 11.1823 13.75 11 13.75H6.875Z" fill="#C73238"/>
<path d="M2.75 2.75C2.75 2.02065 3.03973 1.32118 3.55546 0.805456C4.07118 0.289731 4.77065 0 5.5 0L16.5 0C17.2293 0 17.9288 0.289731 18.4445 0.805456C18.9603 1.32118 19.25 2.02065 19.25 2.75V19.25C19.25 19.9793 18.9603 20.6788 18.4445 21.1945C17.9288 21.7103 17.2293 22 16.5 22H5.5C4.77065 22 4.07118 21.7103 3.55546 21.1945C3.03973 20.6788 2.75 19.9793 2.75 19.25V2.75ZM16.5 1.375H5.5C5.13533 1.375 4.78559 1.51987 4.52773 1.77773C4.26987 2.03559 4.125 2.38533 4.125 2.75V19.25C4.125 19.6147 4.26987 19.9644 4.52773 20.2223C4.78559 20.4801 5.13533 20.625 5.5 20.625H16.5C16.8647 20.625 17.2144 20.4801 17.4723 20.2223C17.7301 19.9644 17.875 19.6147 17.875 19.25V2.75C17.875 2.38533 17.7301 2.03559 17.4723 1.77773C17.2144 1.51987 16.8647 1.375 16.5 1.375Z" fill="#C73238"/>
</svg>
