<svg width="22" height="22" viewBox="0 0 22 22" fill="none" xmlns="http://www.w3.org/2000/svg">
<path d="M15.2863 8.50069L11.1613 6.53644C11.1109 6.51245 11.0558 6.5 11 6.5C10.9442 6.5 10.8891 6.51245 10.8388 6.53644L6.71375 8.50069C6.64994 8.53108 6.59601 8.57889 6.55819 8.63861C6.52037 8.69832 6.5002 8.76751 6.5 8.83819V12.7678C6.49987 12.8338 6.51714 12.8986 6.55006 12.9557C6.58298 13.0129 6.63038 13.0603 6.6875 13.0933L10.8125 15.4506C10.8691 15.4829 10.9333 15.4999 10.9985 15.4999C11.0637 15.4999 11.1279 15.4829 11.1845 15.4506L15.3095 13.0933C15.3666 13.0603 15.414 13.0129 15.4469 12.9557C15.4799 12.8986 15.4971 12.8338 15.497 12.7678V8.83931C15.4973 8.76876 15.4777 8.69956 15.4404 8.63966C15.4031 8.57976 15.3497 8.53159 15.2863 8.50069ZM11 7.29019L14.2528 8.83931L11 10.3884L7.74763 8.83931L11 7.29019ZM7.25 9.43331L10.625 11.0406V14.4789L7.25 12.5503V9.43331ZM11.375 14.4789V11.0406L14.75 9.43369V12.5503L11.375 14.4789Z" fill="#878787"/>
<path d="M21.4984 11.0003C21.4969 10.5349 21.322 10.0868 21.0079 9.74347C20.6938 9.4001 20.263 9.18612 19.7996 9.14331C19.4385 7.43784 18.5902 5.87385 17.3575 4.64116C16.1248 3.40848 14.5608 2.56013 12.8554 2.19906C12.8117 1.73695 12.5973 1.30772 12.254 0.995312C11.9107 0.682899 11.4633 0.509766 10.9991 0.509766C10.5349 0.509766 10.0875 0.682899 9.74418 0.995312C9.40089 1.30772 9.18648 1.73695 9.14286 2.19906C7.43719 2.56004 5.87297 3.40834 4.64003 4.64102C3.4071 5.87368 2.55846 7.43772 2.19711 9.14331C1.735 9.18693 1.30577 9.40134 0.993359 9.74463C0.680946 10.0879 0.507812 10.5354 0.507812 10.9996C0.507812 11.4637 0.680946 11.9112 0.993359 12.2545C1.30577 12.5978 1.735 12.8122 2.19711 12.8558C2.55809 14.5615 3.40639 16.1257 4.63906 17.3586C5.87173 18.5916 7.43577 19.4402 9.14136 19.8016C9.18498 20.2637 9.39939 20.6929 9.74268 21.0053C10.086 21.3177 10.5334 21.4909 10.9976 21.4909C11.4618 21.4909 11.9092 21.3177 12.2525 21.0053C12.5958 20.6929 12.8102 20.2637 12.8539 19.8016C14.5595 19.4406 16.1237 18.5923 17.3567 17.3596C18.5896 16.1269 19.4383 14.5629 19.7996 12.8573C20.263 12.8145 20.6938 12.6005 21.0079 12.2572C21.322 11.9138 21.4969 11.4657 21.4984 11.0003ZM10.9984 1.25031C11.2209 1.25031 11.4384 1.31629 11.6234 1.43991C11.8084 1.56353 11.9526 1.73923 12.0377 1.94479C12.1229 2.15036 12.1452 2.37656 12.1017 2.59479C12.0583 2.81302 11.9512 3.01347 11.7939 3.17081C11.6365 3.32814 11.4361 3.43529 11.2178 3.4787C10.9996 3.5221 10.7734 3.49983 10.5678 3.41468C10.3623 3.32953 10.1866 3.18533 10.063 3.00033C9.93934 2.81532 9.87336 2.59782 9.87336 2.37531C9.87336 2.07694 9.99189 1.7908 10.2029 1.57982C10.4138 1.36884 10.7 1.25031 10.9984 1.25031ZM1.24836 11.0003C1.24836 10.7778 1.31434 10.5603 1.43796 10.3753C1.56157 10.1903 1.73727 10.0461 1.94284 9.96095C2.14841 9.8758 2.37461 9.85352 2.59284 9.89693C2.81106 9.94034 3.01152 10.0475 3.16885 10.2048C3.32619 10.3622 3.43333 10.5626 3.47674 10.7808C3.52015 10.9991 3.49787 11.2253 3.41272 11.4308C3.32758 11.6364 3.18338 11.8121 2.99838 11.9357C2.81337 12.0593 2.59586 12.1253 2.37336 12.1253C2.07499 12.1253 1.78884 12.0068 1.57786 11.7958C1.36689 11.5848 1.24836 11.2987 1.24836 11.0003ZM10.9984 20.7503C10.7759 20.7503 10.5583 20.6843 10.3733 20.5607C10.1883 20.4371 10.0441 20.2614 9.95899 20.0558C9.87385 19.8503 9.85157 19.6241 9.89498 19.4058C9.93838 19.1876 10.0455 18.9872 10.2029 18.8298C10.3602 18.6725 10.5607 18.5653 10.7789 18.5219C10.9971 18.4785 11.2233 18.5008 11.4289 18.5859C11.6344 18.6711 11.8101 18.8153 11.9338 19.0003C12.0574 19.1853 12.1234 19.4028 12.1234 19.6253C12.1234 19.9237 12.0048 20.2098 11.7939 20.4208C11.5829 20.6318 11.2967 20.7503 10.9984 20.7503ZM12.7744 19.0523C12.6552 18.6746 12.4188 18.3448 12.0994 18.1106C11.7801 17.8765 11.3944 17.7502 10.9984 17.7502C10.6023 17.7502 10.2166 17.8765 9.89727 18.1106C9.5779 18.3448 9.34148 18.6746 9.22236 19.0523C7.68712 18.7126 6.28085 17.9415 5.16901 16.8297C4.05718 15.7178 3.28605 14.3116 2.94636 12.7763C3.32403 12.6572 3.65389 12.4208 3.88804 12.1014C4.12219 11.782 4.24843 11.3963 4.24843 11.0003C4.24843 10.6043 4.12219 10.2186 3.88804 9.89923C3.65389 9.57985 3.32403 9.34344 2.94636 9.22431C3.28605 7.68907 4.05718 6.2828 5.16901 5.17097C6.28085 4.05913 7.68712 3.288 9.22236 2.94831C9.34148 3.32598 9.5779 3.65585 9.89727 3.88999C10.2166 4.12414 10.6023 4.25038 10.9984 4.25038C11.3944 4.25038 11.7801 4.12414 12.0994 3.88999C12.4188 3.65585 12.6552 3.32598 12.7744 2.94831C14.3096 3.28796 15.7159 4.05908 16.8278 5.17092C17.9396 6.28276 18.7107 7.68905 19.0504 9.22431C18.6727 9.34344 18.3428 9.57985 18.1087 9.89923C17.8745 10.2186 17.7483 10.6043 17.7483 11.0003C17.7483 11.3963 17.8745 11.782 18.1087 12.1014C18.3428 12.4208 18.6727 12.6572 19.0504 12.7763C18.7107 14.3116 17.9395 15.7178 16.8277 16.8297C15.7159 17.9415 14.3096 18.7126 12.7744 19.0523ZM19.6234 12.1253C19.4009 12.1253 19.1833 12.0593 18.9983 11.9357C18.8133 11.8121 18.6691 11.6364 18.584 11.4308C18.4988 11.2253 18.4766 10.9991 18.52 10.7808C18.5634 10.5626 18.6705 10.3622 18.8279 10.2048C18.9852 10.0475 19.1857 9.94034 19.4039 9.89693C19.6221 9.85352 19.8483 9.8758 20.0539 9.96095C20.2594 10.0461 20.4351 10.1903 20.5588 10.3753C20.6824 10.5603 20.7484 10.7778 20.7484 11.0003C20.7484 11.2987 20.6298 11.5848 20.4189 11.7958C20.2079 12.0068 19.9217 12.1253 19.6234 12.1253Z" fill="#878787"/>
</svg>
