<svg width="28" height="28" viewBox="0 0 28 28" fill="none" xmlns="http://www.w3.org/2000/svg">
<path d="M13.9987 25.6663C20.442 25.6663 25.6654 20.443 25.6654 13.9997C25.6654 7.55635 20.442 2.33301 13.9987 2.33301C7.55538 2.33301 2.33203 7.55635 2.33203 13.9997C2.33203 20.443 7.55538 25.6663 13.9987 25.6663Z" stroke="#C73238" stroke-width="1.5" stroke-linecap="round" stroke-linejoin="round"/>
<path d="M10.6055 10.4997C10.8798 9.71997 11.4211 9.06248 12.1337 8.64368C12.8464 8.22487 13.6842 8.07178 14.4988 8.21152C15.3135 8.35125 16.0524 8.7748 16.5847 9.40714C17.117 10.0395 17.4084 10.8398 17.4071 11.6664C17.4071 13.9997 13.9071 15.1664 13.9071 15.1664" stroke="#C73238" stroke-width="1.5" stroke-linecap="round" stroke-linejoin="round"/>
<path d="M14 19.833H14.0088" stroke="#C73238" stroke-width="1.5" stroke-linecap="round" stroke-linejoin="round"/>
</svg>
