<svg width="24" height="24" viewBox="0 0 24 24" fill="none" xmlns="http://www.w3.org/2000/svg">
<path d="M18.75 14.9996C18.75 19.142 16.1423 21.7496 12 21.7496C7.85766 21.7496 5.25 19.142 5.25 14.9996C5.25 10.5545 10.0889 4.55352 11.573 2.81774C11.6258 2.75607 11.6913 2.70656 11.7651 2.67261C11.8388 2.63867 11.919 2.62109 12.0002 2.62109C12.0814 2.62109 12.1617 2.63867 12.2354 2.67261C12.3092 2.70656 12.3747 2.75607 12.4275 2.81774C13.9111 4.55352 18.75 10.5545 18.75 14.9996Z" stroke="#C73238" stroke-width="1.5" stroke-miterlimit="10"/>
<path d="M16.125 15.375C16.125 16.2701 15.7694 17.1285 15.1365 17.7615C14.5035 18.3944 13.6451 18.75 12.75 18.75" stroke="#C73238" stroke-width="1.5" stroke-linecap="round" stroke-linejoin="round"/>
</svg>
