<svg width="24" height="24" viewBox="0 0 24 24" fill="none" xmlns="http://www.w3.org/2000/svg">
<g clip-path="url(#clip0_2343_6497)">
<path d="M4.74723 11.619C3.21188 11.619 1.96289 10.3814 1.96289 8.86056C1.96289 7.33958 3.21188 6.10193 4.74723 6.10193C6.28238 6.10193 7.53119 7.33939 7.53119 8.86056C7.53119 10.3815 6.28238 11.619 4.74723 11.619ZM4.74723 6.87612C3.63867 6.87612 2.73708 7.76637 2.73708 8.86056C2.73708 9.95456 3.63867 10.8448 4.74723 10.8448C5.85541 10.8448 6.75699 9.95456 6.75699 8.86056C6.75699 7.76637 5.85541 6.87612 4.74723 6.87612Z" fill="#FFFEFE"/>
<path d="M5.8675 19.2566H1.01178C0.453818 19.2566 0 18.8056 0 18.2512V16.985C0 14.3929 2.1296 12.2839 4.74742 12.2839C5.77697 12.2839 6.75699 12.6053 7.58071 13.2129C7.75271 13.3399 7.78938 13.5823 7.66236 13.7544C7.53535 13.9263 7.29322 13.9629 7.12103 13.8361C6.43133 13.3273 5.61064 13.0581 4.74742 13.0581C2.55658 13.0581 0.774194 14.8199 0.774194 16.985V18.2512C0.774194 18.3786 0.880796 18.4824 1.01178 18.4824H5.86769C6.08128 18.4824 6.25479 18.6557 6.25479 18.8695C6.25479 19.0831 6.08128 19.2566 5.8675 19.2566Z" fill="#FFFEFE"/>
<path d="M22.9888 18.9637H18.1331C17.9195 18.9637 17.746 18.7904 17.746 18.5766C17.746 18.363 17.9195 18.1895 18.1331 18.1895H22.989C23.12 18.1895 23.2266 18.0859 23.2266 17.9585V16.6923C23.2266 14.5268 21.4442 12.7654 19.2534 12.7654C18.3384 12.7654 17.4451 13.0805 16.738 13.6528C16.5721 13.7872 16.3284 13.7617 16.1937 13.5955C16.0593 13.4294 16.0846 13.1856 16.2511 13.051C17.0954 12.3677 18.1617 11.9912 19.2534 11.9912C21.871 11.9912 24.0006 14.1 24.0006 16.6923V17.9585C24.0006 18.5127 23.5468 18.9637 22.9888 18.9637Z" fill="#FFFEFE"/>
<path d="M19.2527 11.4277C17.7176 11.4277 16.4688 10.1903 16.4688 8.66928C16.4688 7.1483 17.7176 5.91064 19.2527 5.91064C20.7881 5.91064 22.037 7.14811 22.037 8.66928C22.037 10.1904 20.7879 11.4277 19.2527 11.4277ZM19.2527 6.68484C18.1445 6.68484 17.2429 7.57509 17.2429 8.66928C17.2429 9.76347 18.1445 10.6535 19.2527 10.6535C20.3613 10.6535 21.2629 9.76347 21.2629 8.66928C21.2629 7.57509 20.3611 6.68484 19.2527 6.68484Z" fill="#FFFEFE"/>
<path d="M17.2538 20.5162H6.74628C6.04826 20.5162 5.48047 19.9525 5.48047 19.2596V17.4787C5.48047 13.9196 8.40486 11.0242 12.0001 11.0242C15.5953 11.0242 18.5197 13.9196 18.5197 17.4787V19.2596C18.5197 19.9525 17.9519 20.5162 17.2538 20.5162ZM12.0001 11.7986C8.83203 11.7986 6.25466 14.3468 6.25466 17.4789V19.2598C6.25466 19.5257 6.47524 19.7422 6.74628 19.7422H17.2537C17.5247 19.7422 17.7453 19.5257 17.7453 19.2598V17.4789C17.7455 14.3468 15.1681 11.7986 12.0001 11.7986Z" fill="#FFFEFE"/>
<path d="M11.8647 10.5718C9.8922 10.5718 8.28711 8.98206 8.28711 7.02767C8.28711 5.07348 9.89201 3.48389 11.8647 3.48389C13.8376 3.48389 15.4425 5.07367 15.4425 7.02786C15.4425 8.98225 13.8375 10.5718 11.8647 10.5718ZM11.8647 4.25808C10.319 4.25808 9.0613 5.50065 9.0613 7.02786C9.0613 8.55527 10.319 9.79784 11.8647 9.79784C13.4107 9.79784 14.6683 8.55527 14.6683 7.02786C14.6683 5.50065 13.4107 4.25808 11.8647 4.25808Z" fill="#FFFEFE"/>
</g>
<defs>
<clipPath id="clip0_2343_6497">
<rect width="24" height="24" fill="white"/>
</clipPath>
</defs>
</svg>
