<svg width="24" height="24" viewBox="0 0 24 24" fill="none" xmlns="http://www.w3.org/2000/svg">
<g clip-path="url(#clip0_2343_6610)">
<path d="M23.1902 6.03208C23.1902 6.02508 23.1902 6.01908 23.1902 6.01108V6.00208V5.98708C23.178 5.95429 23.1608 5.92359 23.1392 5.89608L23.1212 5.88008C23.1008 5.85557 23.0764 5.83462 23.0492 5.81808L23.0182 5.80208C22.9817 5.78538 22.9429 5.77425 22.9032 5.76908C22.8972 5.76908 22.8932 5.76908 22.8852 5.76908C19.0532 5.61308 13.3572 7.19108 14.8562 11.8261C14.0924 12.9298 13.4671 14.123 12.9942 15.3791H12.8692C12.6046 13.9247 12.1897 12.5017 11.6312 11.1331C15.0032 4.38808 6.57116 0.18708 1.10916 0.86808H1.10316C1.0653 0.873227 1.02851 0.884366 0.994157 0.90108C0.954612 0.921654 0.918785 0.948693 0.888157 0.98108L0.880157 0.98808C0.861154 1.01175 0.845041 1.0376 0.832157 1.06508C0.828369 1.07509 0.825687 1.08549 0.824157 1.09608L0.818157 1.10508V1.11908C0.806241 1.15722 0.801163 1.19717 0.803157 1.23708V1.24308C0.813416 1.29738 0.833768 1.34928 0.863157 1.39608C3.38416 5.54708 4.25016 13.6361 11.0692 11.5701C11.5555 12.799 11.9239 14.0714 12.1692 15.3701H7.26916C6.96731 15.3742 6.67717 15.4875 6.45249 15.6891C6.22781 15.8907 6.08382 16.1669 6.0472 16.4666C6.01058 16.7662 6.08382 17.069 6.25334 17.3188C6.42286 17.5686 6.67717 17.7484 6.96916 17.8251L8.10316 22.9381C8.11999 23.0136 8.16206 23.0811 8.22241 23.1294C8.28277 23.1778 8.35781 23.2041 8.43516 23.2041H17.1042C17.1816 23.2045 17.2568 23.1783 17.3173 23.1299C17.3777 23.0814 17.4197 23.0137 17.4362 22.9381L18.5772 17.8311C18.8691 17.7544 19.1235 17.5746 19.293 17.3248C19.4625 17.075 19.5357 16.7722 19.4991 16.4726C19.4625 16.1729 19.3185 15.8967 19.0938 15.6951C18.8691 15.4935 18.579 15.3802 18.2772 15.3761H13.7122C14.1225 14.3355 14.6425 13.3416 15.2632 12.4111C19.5832 14.7381 20.9512 8.58508 23.1632 6.27108V6.25708C23.185 6.21648 23.1986 6.17196 23.2032 6.12608C23.2028 6.09432 23.1985 6.06273 23.1902 6.03208ZM3.15216 4.67508C2.80034 3.72792 2.3981 2.80026 1.94716 1.89608C5.90077 3.73543 9.04902 6.95193 10.8032 10.9441C6.13616 12.2441 4.62116 8.39608 3.15216 4.67508ZM2.68116 1.49608C7.28116 1.60408 13.4612 4.94408 11.2492 10.2871C9.46655 6.47416 6.44702 3.37605 2.68116 1.49608ZM16.8372 22.5251H8.71016L7.67116 17.8731H17.8782L16.8372 22.5251ZM18.8492 16.6251C18.8489 16.7763 18.7886 16.9213 18.6816 17.0282C18.5745 17.1351 18.4294 17.1951 18.2782 17.1951H7.26916C7.19236 17.1983 7.11571 17.186 7.04381 17.1588C6.97191 17.1316 6.90624 17.0902 6.85077 17.037C6.79529 16.9838 6.75114 16.9199 6.72099 16.8492C6.69083 16.7785 6.67529 16.7024 6.67529 16.6256C6.67529 16.5487 6.69083 16.4726 6.72099 16.4019C6.75114 16.3312 6.79529 16.2674 6.85077 16.2142C6.90624 16.161 6.97191 16.1195 7.04381 16.0924C7.11571 16.0652 7.19236 16.0529 7.26916 16.0561H18.2782C18.4292 16.0558 18.5741 16.1155 18.6811 16.222C18.7882 16.3285 18.8486 16.4731 18.8492 16.6241V16.6251ZM15.7922 8.76708C16.7842 7.38008 19.0462 6.72408 21.0072 6.51508C18.8088 7.61652 16.8811 9.19042 15.3622 11.1241C15.2609 10.7233 15.2468 10.3055 15.321 9.89885C15.3952 9.49221 15.5559 9.10624 15.7922 8.76708ZM20.8212 8.52208C19.2822 11.2921 18.0752 13.0281 15.6612 11.8491C17.2554 9.71234 19.3598 8.00942 21.7822 6.89608C21.4542 7.38408 21.1442 7.94408 20.8212 8.52208Z" fill="#C73238"/>
<rect x="11.541" y="18.5333" width="3.025" height="3.0247" rx="0.241988" fill="#C73238"/>
<path d="M13.9011 20.1241C13.9011 20.2468 13.8726 20.3594 13.8156 20.4619C13.7586 20.5625 13.6711 20.6439 13.553 20.7062C13.4349 20.7686 13.2884 20.7997 13.1133 20.7997H12.7897V21.5598H12.2676V19.4425H13.1133C13.2843 19.4425 13.4288 19.4717 13.5469 19.53C13.665 19.5883 13.7535 19.6687 13.8125 19.7713C13.8716 19.8738 13.9011 19.9914 13.9011 20.1241ZM13.0736 20.3896C13.1734 20.3896 13.2477 20.3664 13.2965 20.3202C13.3454 20.2739 13.3698 20.2086 13.3698 20.1241C13.3698 20.0397 13.3454 19.9743 13.2965 19.9281C13.2477 19.8818 13.1734 19.8587 13.0736 19.8587H12.7897V20.3896H13.0736Z" fill="white"/>
<path d="M13.9011 18.8966H12.2676V19.2596H13.9011V18.8966Z" fill="white"/>
</g>
<defs>
<clipPath id="clip0_2343_6610">
<rect width="22.396" height="22.408" fill="white" transform="translate(0.802734 0.796021)"/>
</clipPath>
</defs>
</svg>
