<svg width="22" height="20" viewBox="0 0 22 20" fill="none" xmlns="http://www.w3.org/2000/svg">
<path d="M21.4844 18.4599H18.9353V1.02344C18.9353 0.738684 18.7044 0.507812 18.4197 0.507812H13.4732C13.1885 0.507812 12.9576 0.738684 12.9576 1.02344V5.19841H8.52676C8.24201 5.19841 8.01114 5.42928 8.01114 5.71404V9.24933H3.58033C3.29557 9.24933 3.0647 9.4802 3.0647 9.76496V18.4599H0.515625C0.230871 18.4599 0 18.6908 0 18.9755C0 19.2603 0.230871 19.4911 0.515625 19.4911H21.4844C21.7691 19.4911 22 19.2603 22 18.9755C22 18.6908 21.7691 18.4599 21.4844 18.4599ZM13.9889 1.53906H17.904V18.4599H13.9889V5.71404V1.53906ZM9.04239 6.22966H12.9576V18.4599H9.04239V9.765V6.22966ZM4.09595 10.2806H8.01114V18.4599H4.09595V10.2806Z" fill="#878787"/>
</svg>
