<svg width="22" height="22" viewBox="0 0 22 22" fill="none" xmlns="http://www.w3.org/2000/svg">
<g clip-path="url(#clip0_2343_6629)">
<path d="M10.9975 6.91737C11.6781 4.23061 14.2488 2.85872 19.8456 2.83362C19.9351 2.83329 20.0238 2.85066 20.1065 2.88475C20.1892 2.91883 20.2644 2.96895 20.3277 3.03222C20.3909 3.09549 20.441 3.17066 20.4751 3.25339C20.5092 3.33611 20.5266 3.42477 20.5263 3.51425V15.7655C20.5263 15.946 20.4545 16.1191 20.3269 16.2468C20.1993 16.3744 20.0261 16.4461 19.8456 16.4461C14.4006 16.4461 12.2971 17.5441 10.9975 19.1686M10.9975 6.91737C10.3169 4.23061 7.74624 2.85872 2.14938 2.83362C2.0599 2.83329 1.97125 2.85066 1.88852 2.88475C1.80579 2.91883 1.73062 2.96895 1.66735 3.03222C1.60408 3.09549 1.55396 3.17066 1.51988 3.25339C1.48579 3.33611 1.46842 3.42477 1.46875 3.51425V15.6834C1.46875 16.1037 1.72909 16.4461 2.14938 16.4461C7.59438 16.4461 9.70559 17.5521 10.9975 19.1686M10.9975 6.91737V19.1686" stroke="#C73238" stroke-width="1.5" stroke-linecap="round" stroke-linejoin="round"/>
</g>
<defs>
<clipPath id="clip0_2343_6629">
<rect width="21.78" height="21.78" fill="white" transform="translate(0.109375 0.109985)"/>
</clipPath>
</defs>
</svg>
