<svg width="24" height="24" viewBox="0 0 24 24" fill="none" xmlns="http://www.w3.org/2000/svg">
<g clip-path="url(#clip0_2343_6574)">
<path d="M12 0.5C9.72552 0.5 7.50211 1.17446 5.61095 2.4381C3.71978 3.70174 2.2458 5.49779 1.37539 7.59914C0.504983 9.70049 0.277244 12.0128 0.720974 14.2435C1.1647 16.4743 2.25997 18.5234 3.86828 20.1317C5.47658 21.74 7.52568 22.8353 9.75647 23.279C11.9872 23.7228 14.2995 23.495 16.4009 22.6246C18.5022 21.7542 20.2983 20.2802 21.5619 18.3891C22.8255 16.4979 23.5 14.2745 23.5 12C23.4966 8.95105 22.2839 6.02795 20.128 3.87201C17.9721 1.71608 15.049 0.503388 12 0.5ZM12 22.5C9.9233 22.5 7.89323 21.8842 6.16652 20.7304C4.4398 19.5767 3.09399 17.9368 2.29927 16.0182C1.50455 14.0996 1.29661 11.9884 1.70176 9.95155C2.1069 7.91475 3.10693 6.04383 4.57538 4.57538C6.04384 3.10693 7.91476 2.1069 9.95156 1.70175C11.9884 1.29661 14.0996 1.50454 16.0182 2.29926C17.9368 3.09399 19.5767 4.4398 20.7304 6.16651C21.8842 7.89323 22.5 9.9233 22.5 12C22.4968 14.7838 21.3896 17.4527 19.4211 19.4211C17.4527 21.3896 14.7838 22.4968 12 22.5Z" fill="#C73238"/>
<path d="M15.75 14H7C6.86739 14 6.74021 14.0527 6.64645 14.1464C6.55268 14.2402 6.5 14.3674 6.5 14.5C6.5 14.6326 6.55268 14.7598 6.64645 14.8536C6.74021 14.9473 6.86739 15 7 15H15.75C15.8826 15 16.0098 14.9473 16.1036 14.8536C16.1973 14.7598 16.25 14.6326 16.25 14.5C16.25 14.3674 16.1973 14.2402 16.1036 14.1464C16.0098 14.0527 15.8826 14 15.75 14Z" fill="#C73238"/>
<path d="M9.85339 11.6465C9.75963 11.5528 9.63248 11.5001 9.49989 11.5001C9.36731 11.5001 9.24016 11.5528 9.14639 11.6465L6.64639 14.1465C6.55266 14.2403 6.5 14.3674 6.5 14.5C6.5 14.6326 6.55266 14.7598 6.64639 14.8535L9.14639 17.3535C9.24069 17.4446 9.367 17.495 9.49809 17.4939C9.62919 17.4927 9.7546 17.4401 9.8473 17.3474C9.94001 17.2547 9.99259 17.1293 9.99373 16.9982C9.99487 16.8671 9.94447 16.7408 9.85339 16.6465L7.70689 14.5L9.85339 12.3535C9.94713 12.2598 9.99979 12.1326 9.99979 12C9.99979 11.8674 9.94713 11.7403 9.85339 11.6465Z" fill="#C73238"/>
<path d="M17 9H8.25C8.11739 9 7.99021 9.05268 7.89645 9.14645C7.80268 9.24021 7.75 9.36739 7.75 9.5C7.75 9.63261 7.80268 9.75979 7.89645 9.85355C7.99021 9.94732 8.11739 10 8.25 10H17C17.1326 10 17.2598 9.94732 17.3536 9.85355C17.4473 9.75979 17.5 9.63261 17.5 9.5C17.5 9.36739 17.4473 9.24021 17.3536 9.14645C17.2598 9.05268 17.1326 9 17 9Z" fill="#C73238"/>
<path d="M14.8518 6.64622C14.7575 6.55514 14.6312 6.50474 14.5001 6.50588C14.369 6.50702 14.2436 6.5596 14.1509 6.65231C14.0582 6.74501 14.0056 6.87042 14.0045 7.00151C14.0034 7.13261 14.0538 7.25891 14.1448 7.35322L16.2913 9.49972L14.1448 11.6462C14.0971 11.6923 14.059 11.7475 14.0328 11.8085C14.0066 11.8695 13.9928 11.9351 13.9922 12.0015C13.9916 12.0679 14.0043 12.1337 14.0294 12.1952C14.0546 12.2566 14.0917 12.3125 14.1386 12.3594C14.1856 12.4064 14.2414 12.4435 14.3029 12.4686C14.3643 12.4938 14.4301 12.5064 14.4965 12.5058C14.5629 12.5053 14.6285 12.4915 14.6895 12.4653C14.7505 12.4391 14.8057 12.401 14.8518 12.3532L17.3518 9.85322C17.4456 9.75945 17.4982 9.6323 17.4982 9.49972C17.4982 9.36713 17.4456 9.23998 17.3518 9.14621L14.8518 6.64622Z" fill="#C73238"/>
</g>
<defs>
<clipPath id="clip0_2343_6574">
<rect width="24" height="24" fill="white"/>
</clipPath>
</defs>
</svg>
