<svg width="22" height="22" viewBox="0 0 22 22" fill="none" xmlns="http://www.w3.org/2000/svg">
<path d="M17.1593 11.5566C17.1593 12.4487 16.952 13.2677 16.5375 14.0136C16.123 14.7448 15.4865 15.3371 14.6279 15.7905C13.7692 16.2439 12.7034 16.4705 11.4302 16.4705H9.07646V21.9987H5.2793V6.59875H11.4302C12.6738 6.59875 13.7248 6.81082 14.5834 7.23494C15.4421 7.65906 16.086 8.24405 16.5153 8.98992C16.9446 9.73579 17.1593 10.5913 17.1593 11.5566ZM11.1416 13.4871C11.867 13.4871 12.4073 13.3189 12.7626 12.9825C13.1179 12.6461 13.2955 12.1708 13.2955 11.5566C13.2955 10.9423 13.1179 10.467 12.7626 10.1307C12.4073 9.79429 11.867 9.6261 11.1416 9.6261H9.07646V13.4871H11.1416Z" fill="#C73238"/>
<path d="M17.1593 2.63953H5.2793V5.27953H17.1593V2.63953Z" fill="#C73238"/>
</svg>
