<svg width="42" height="54" viewBox="0 0 42 54" fill="none" xmlns="http://www.w3.org/2000/svg">
<path d="M5.4 0C2.43954 0 0 2.43953 0 5.4V46.2C4.77303e-05 46.6774 0.189706 47.1352 0.527261 47.4727C0.864816 47.8103 1.32263 48 1.8 48H15C17.7404 51.6474 22.1033 54 27 54C35.263 54 42 47.2629 42 39C42 34.113 39.6351 29.7789 36 27.0375V1.8C36 1.32263 35.8103 0.864816 35.4727 0.527261C35.1352 0.189705 34.6774 4.77303e-05 34.2 0H5.4ZM5.4 3.6H32.4V25.0125C30.7243 24.363 28.9006 24 27 24C18.7371 24 12 30.737 12 39C12 40.9006 12.363 42.7243 13.0125 44.4H3.6V10.4625C4.16639 10.6649 4.76792 10.8 5.4 10.8H28.2C28.4385 10.8034 28.6753 10.7593 28.8967 10.6704C29.118 10.5814 29.3195 10.4494 29.4893 10.2819C29.6592 10.1144 29.7941 9.91484 29.8862 9.69477C29.9782 9.47471 30.0256 9.23855 30.0256 9C30.0256 8.76146 29.9782 8.52529 29.8862 8.30523C29.7941 8.08516 29.6592 7.88559 29.4893 7.71811C29.3195 7.55063 29.118 7.41858 28.8967 7.32964C28.6753 7.24069 28.4385 7.19663 28.2 7.2H5.4C4.47592 7.2 3.75979 6.55733 3.61875 5.7C3.61333 5.66859 3.60708 5.63733 3.6 5.60625V5.4C3.6 4.37167 4.37167 3.6 5.4 3.6ZM27 27.6C30.7442 27.6 34.0369 29.4053 36.1125 32.175L31.2563 34.8C30.1663 33.7004 28.6558 33 27 33C25.3442 33 23.8337 33.7004 22.7438 34.8L17.8875 32.175C19.9631 29.4053 23.2558 27.6 27 27.6ZM16.2 35.3625L21.0938 38.0063C21.0382 38.3319 21 38.6595 21 39C21 39.3343 21.0402 39.6738 21.0938 39.9938L16.1813 42.6188C15.8064 41.4862 15.6 40.2618 15.6 39C15.6 37.7235 15.8167 36.5064 16.2 35.3625ZM37.8 35.3625C38.1833 36.5064 38.4 37.7235 38.4 39C38.4 40.2618 38.1936 41.4862 37.8188 42.6188L32.9062 39.9938C32.9598 39.6738 33 39.3343 33 39C33 38.6595 32.9618 38.3319 32.9062 38.0063L37.8 35.3625ZM27 36.6C28.3468 36.6 29.4 37.6532 29.4 39C29.4 40.3468 28.3468 41.4 27 41.4C25.6532 41.4 24.6 40.3468 24.6 39C24.6 37.6532 25.6532 36.6 27 36.6ZM22.725 43.2C23.8163 44.3102 25.3351 45 27 45C28.6649 45 30.1837 44.3102 31.275 43.2L36.1313 45.825C34.0566 48.6067 30.7537 50.4 27 50.4C23.2463 50.4 19.9434 48.6067 17.8688 45.825L22.725 43.2Z" fill="#E50913"/>
</svg>
