<svg width="62" height="62" viewBox="0 0 62 62" fill="none" xmlns="http://www.w3.org/2000/svg">
<circle cx="31" cy="31" r="31" fill="#F4F5F7"/>
<path d="M23.6223 39.3619L15.5936 40.2631L20.3043 29.3845L15.4766 22.8012L27.2154 21.4611L30.4046 14.1346L37.3918 23.6321L45.4205 22.731L40.7273 33.5569L45.52 40.0934L33.8455 41.4218L30.6095 48.8595L23.6223 39.3619ZM26.9579 38.6421C26.6478 38.7943 26.32 38.9172 25.9806 39.0108L25.6763 39.0986L30.2057 45.2547L31.8149 41.5564L31.5223 41.5213C29.9423 41.3223 28.5028 40.4679 27.5723 39.1864L27.1218 38.5661L26.9579 38.6421ZM25.3837 33.0653L29.0353 38.1155C29.7785 39.1396 30.9781 39.754 32.2421 39.754C32.3884 39.754 32.5347 39.7481 32.681 39.7306L42.2078 38.648L38.4158 33.4633C38.2286 33.2058 38.0121 32.9776 37.7663 32.7727L37.5439 32.5855L34.8286 38.7182L30.1062 32.4684L25.3837 33.0653ZM25.5476 26.9092C24.1315 27.0555 22.9026 27.9625 22.3349 29.2733L18.5078 38.1038L24.8629 37.3899C25.1789 37.3547 25.4891 37.2787 25.7817 37.1733L26.0509 37.0739L22.1184 31.6433L29.8721 30.6602L31.7155 26.2538L25.5476 26.9092ZM31.5458 31.3683L34.419 35.1778L36.1746 31.2161L36.947 29.4723C37.5263 28.1673 37.3566 26.6458 36.514 25.493L30.8143 17.7452L28.2512 23.6321C28.1224 23.9247 28.0346 24.229 27.9761 24.5392L27.9293 24.8259L34.577 24.1237L31.5458 31.3683ZM38.527 25.335L38.6382 25.6042C39.2526 27.0789 39.2409 28.7584 38.5972 30.2096L38.2871 30.9118L38.4392 31.0172C38.726 31.2103 38.9952 31.4327 39.2468 31.6784L39.475 31.9008L42.5121 24.8903L38.527 25.335ZM18.7946 24.2583L21.2172 27.5587L21.3928 27.3305C22.3583 26.0782 23.7979 25.2707 25.3545 25.101L26.1152 25.019L26.1269 24.8318C26.1503 24.4514 26.2147 24.071 26.32 23.6965L26.4078 23.3805L18.7946 24.2583Z" fill="url(#paint0_linear)"/>
<path d="M28.8062 49C23.7619 48.5143 19.2384 45.8927 16.2715 41.7378L18.3021 41.5096C18.6356 41.9192 18.9926 42.3172 19.3613 42.6858C21.5616 44.8978 24.3178 46.3901 27.3373 47.0045L28.8062 49Z" fill="url(#paint1_linear)"/>
<path d="M33.0361 47.1215C36.3072 46.5948 39.2741 45.0616 41.6383 42.6916C41.849 42.481 42.0655 42.2527 42.2761 42.0128L44.7398 41.7319C41.7846 45.8809 37.2611 48.5084 32.2227 48.9999L33.0361 47.1215Z" fill="url(#paint2_linear)"/>
<path d="M45.2383 37.1089C45.9112 35.3241 46.2507 33.434 46.2507 31.497C46.2507 29.7883 45.9815 28.1088 45.4548 26.5054L46.4438 24.229C47.4795 26.5171 48.0062 28.9573 48.0062 31.497C48.0062 34.0309 47.4854 36.4711 46.4496 38.7533L45.2383 37.1089Z" fill="url(#paint3_linear)"/>
<path d="M14.5683 38.7826C13.5267 36.4945 13 34.0426 13 31.5029C13 28.9456 13.5325 26.482 14.5859 24.1822L15.7913 25.8266C15.1008 27.6348 14.7497 29.5425 14.7497 31.5029C14.7497 33.2175 15.0189 34.9028 15.5514 36.512L14.5683 38.7826Z" fill="url(#paint4_linear)"/>
<path d="M16.3457 21.1568C19.3067 17.0722 23.801 14.4799 28.7984 14L27.9792 15.8784C24.708 16.4051 21.7294 17.9383 19.3653 20.3141C19.1897 20.4956 19.0083 20.6828 18.8269 20.8818L16.3457 21.1568Z" fill="url(#paint5_linear)"/>
<path d="M42.7053 21.4904C42.3659 21.0749 42.0089 20.6828 41.6402 20.3083C39.4458 18.1021 36.6896 16.6099 33.6759 15.9955L32.2129 14C37.2455 14.4857 41.769 17.1073 44.73 21.2622L42.7053 21.4904Z" fill="url(#paint6_linear)"/>
<defs>
<linearGradient id="paint0_linear" x1="16.3664" y1="45.5852" x2="43.6656" y2="18.286" gradientUnits="userSpaceOnUse">
<stop stop-color="#009DDE"/>
<stop offset="0.5" stop-color="#694D9F"/>
<stop offset="1" stop-color="#ED3554"/>
</linearGradient>
<linearGradient id="paint1_linear" x1="19.3451" y1="48.5649" x2="46.6443" y2="21.2657" gradientUnits="userSpaceOnUse">
<stop stop-color="#009DDE"/>
<stop offset="0.5" stop-color="#694D9F"/>
<stop offset="1" stop-color="#ED3554"/>
</linearGradient>
<linearGradient id="paint2_linear" x1="27.1319" y1="56.3526" x2="54.4311" y2="29.0534" gradientUnits="userSpaceOnUse">
<stop stop-color="#009DDE"/>
<stop offset="0.5" stop-color="#694D9F"/>
<stop offset="1" stop-color="#ED3554"/>
</linearGradient>
<linearGradient id="paint3_linear" x1="24.3594" y1="53.579" x2="51.6586" y2="26.2797" gradientUnits="userSpaceOnUse">
<stop stop-color="#009DDE"/>
<stop offset="0.5" stop-color="#694D9F"/>
<stop offset="1" stop-color="#ED3554"/>
</linearGradient>
<linearGradient id="paint4_linear" x1="8.41884" y1="37.6389" x2="35.718" y2="10.3397" gradientUnits="userSpaceOnUse">
<stop stop-color="#009DDE"/>
<stop offset="0.5" stop-color="#694D9F"/>
<stop offset="1" stop-color="#ED3554"/>
</linearGradient>
<linearGradient id="paint5_linear" x1="5.64982" y1="34.8714" x2="32.949" y2="7.57222" gradientUnits="userSpaceOnUse">
<stop stop-color="#009DDE"/>
<stop offset="0.5" stop-color="#694D9F"/>
<stop offset="1" stop-color="#ED3554"/>
</linearGradient>
<linearGradient id="paint6_linear" x1="13.4412" y1="42.66" x2="40.7404" y2="15.3608" gradientUnits="userSpaceOnUse">
<stop stop-color="#009DDE"/>
<stop offset="0.5" stop-color="#694D9F"/>
<stop offset="1" stop-color="#ED3554"/>
</linearGradient>
</defs>
</svg>
