<svg width="62" height="62" viewBox="0 0 62 62" fill="none" xmlns="http://www.w3.org/2000/svg">
<circle cx="31" cy="31" r="31" fill="#F4F5F7"/>
<path fill-rule="evenodd" clip-rule="evenodd" d="M28.6194 40.6289C29.5519 44.0746 32.8935 46.7042 34.5815 46.596C34.6411 46.592 40.9835 45.4097 44.4556 39.6074C47.158 35.0936 46.2376 30.7345 42.5623 30.6395C41.2404 30.7366 26.8454 34.062 28.6194 40.6289ZM42.2204 18.4918L42.2174 18.4888L42.2224 18.4857C39.3076 15.9985 35.5996 14.6354 31.7678 14.6425C29.4366 14.6425 27.2227 15.1421 25.2222 16.0321C24.8621 16.1838 24.5213 16.3497 24.2007 16.5328C23.9731 16.6541 23.7466 16.7735 23.5271 16.9049L23.5807 16.9211C22.9307 17.3636 22.356 17.9076 21.8785 18.5322C17.2484 24.6491 32.766 29.0941 41.0624 29.1093C44.8793 31.8481 45.9514 21.3945 42.2214 18.4918" fill="#0D3AA3"/>
<path fill-rule="evenodd" clip-rule="evenodd" d="M26.158 18.6163C24.0281 21.8203 16.9262 24.0777 15.759 23.7258L15.752 23.7116C15.7995 23.6145 15.849 23.5195 15.8976 23.4234C16.702 21.87 17.7418 20.4504 18.9803 19.215C19.9808 18.214 21.1019 17.3412 22.3178 16.6168C23.312 16.0413 24.3305 16.0039 24.6652 15.9918C27.8278 16.0524 26.1762 18.591 26.1591 18.6163" fill="#5493F7"/>
<path fill-rule="evenodd" clip-rule="evenodd" d="M48.0005 31.2352C48.0005 33.44 47.5808 35.5467 46.8172 37.4794C44.8147 39.6327 31.3148 34.3341 31.1813 34.2764C29.3355 33.4673 23.7142 31.0056 23.2075 27.1371C22.4783 21.5735 33.7663 17.6958 38.7272 17.5492C39.3219 17.5563 41.1322 17.5765 42.1881 18.4342C44.0158 20.0283 45.4804 21.9958 46.4831 24.2041C47.4858 26.4123 48.0032 28.8099 48.0005 31.2352ZM38.8617 46.3149C37.3891 47.0016 35.7699 46.5009 36.1906 45.0678C36.9987 42.3159 44.0561 39.4931 45.6147 39.3404C45.8068 39.3222 45.8877 39.4526 45.8028 39.6023C44.1786 42.4576 41.7697 44.7872 38.8617 46.3149Z" fill="#5493F7"/>
<mask id="mask0" mask-type="alpha" maskUnits="userSpaceOnUse" x="14" y="25" width="11" height="22">
<path d="M14 25.3531H24.4718V46.581H14V25.3531Z" fill="white"/>
</mask>
<g mask="url(#mask0)">
<path fill-rule="evenodd" clip-rule="evenodd" d="M24.4112 41.2591C24.5629 42.2665 24.4071 46.2422 24.2008 46.577C24.0238 46.5881 23.6547 46.6113 22.5846 46.0106C21.2653 45.2585 20.0529 44.3325 18.9801 43.2576C17.743 42.021 16.7033 40.6016 15.8974 39.0493C14.6452 36.6353 13.9943 33.9547 14 31.2353C14 30.2968 14.0759 29.3754 14.2225 28.4783C14.3963 27.4126 14.672 26.3661 15.0458 25.3531C16.2726 26.9825 17.6916 28.4581 18.8971 30.1036C20.0451 31.6712 21.6248 34.227 21.9454 34.7731C23.9419 38.1623 24.2595 40.2548 24.4122 41.2591" fill="#5493F7"/>
</g>
</svg>
