<svg width="1440" height="653" viewBox="0 0 1440 653" fill="none" xmlns="http://www.w3.org/2000/svg">
<rect x="-1" width="1441" height="653" fill="url(#paint0_radial)"/>
<g opacity="0.07">
<path d="M263.477 571.453H354.628V383.289H357.294V377.822H351.563V371.021H306.787V360.486H289.596L287.064 353.685H282.8V341.416H281.867H280.934V353.685H273.072V360.486V368.354V371.021H266.542V377.822H260.945V383.289H263.477V571.453Z" fill="url(#paint1_linear)"/>
<path d="M283.6 339.817C283.6 338.883 282.8 338.083 281.867 338.083C280.935 338.083 280.135 338.883 280.135 339.817C280.135 340.75 280.935 341.55 281.867 341.55C282.8 341.417 283.6 340.75 283.6 339.817Z" fill="url(#paint2_linear)"/>
<path d="M1109.96 582.522V329.415L997.619 306.078L1009.88 582.522H680.455V426.23H674.325V332.615H658.733V307.545H653.136V270.739H622.352V243.801H619.554V270.739H613.557V237H610.758V270.739H591.302V332.615H581.174V426.23H572.645V582.522H484.959V374.355H486.558V371.955H475.764V357.553H477.096V355.152H467.235V346.884H468.168V345.151H463.904V337.283H459.772H459.106V309.145H458.706H458.173H457.507V337.283H455.641V321.547H455.242H454.708H454.042V337.283H449.378V345.151H444.447V346.884H446.046V355.152H436.185V357.553H437.518V371.955H426.723V374.355H428.189V582.522H136.079V610.927H1328.78V582.522H1109.96Z" fill="url(#paint3_linear)"/>
<path d="M1307.32 608.126V582.522H1271.47L1257.88 481.972H1255.88V469.837H1248.68V481.972H1246.95V477.438H1242.02V481.972H1231.63V471.437H1228.83V464.103H1208.44V471.437H1205.64V481.972H1202.84V542.382H1184.72V389.024H1178.72V355.419H1176.86V389.024H1172.33V342.35H1170.33V389.024H1166.46V363.82H1164.6V389.024H1129.55V497.842H1090.37V568.386H1053.99L1025.07 515.044C1030 512.244 1034.53 508.91 1038.8 504.909L1044.79 511.31C1043.46 512.377 1042.66 514.111 1042.66 515.845C1042.66 519.178 1045.33 521.979 1048.79 521.979C1052.12 521.979 1054.92 519.312 1054.92 515.845C1054.92 512.511 1052.26 509.71 1048.79 509.71C1047.46 509.71 1046.26 510.11 1045.33 510.777L1039.33 504.376C1039.86 503.843 1040.4 503.443 1040.8 502.909C1047.06 496.641 1052.12 489.44 1055.72 481.706L1062.38 484.773C1062.25 485.306 1062.25 485.706 1062.25 486.24C1062.25 489.574 1064.92 492.374 1068.38 492.374C1071.85 492.374 1074.51 489.707 1074.51 486.24C1074.51 482.906 1071.85 480.105 1068.38 480.105C1065.72 480.105 1063.58 481.706 1062.65 484.106L1056.12 481.039C1060.12 472.238 1062.38 462.636 1062.78 452.768L1069.85 453.034C1069.98 456.368 1072.65 458.902 1075.98 458.902C1079.31 458.902 1082.11 456.235 1082.11 452.768C1082.11 449.434 1079.44 446.633 1075.98 446.633C1072.78 446.633 1070.25 449.034 1069.98 452.234L1062.92 451.968C1062.92 451.301 1062.92 450.634 1062.92 449.834C1062.92 441.033 1061.45 432.365 1058.52 424.23L1064.52 422.096C1065.45 424.23 1067.58 425.697 1070.11 425.697C1073.44 425.697 1076.24 423.03 1076.24 419.562C1076.24 416.229 1073.58 413.428 1070.11 413.428C1066.78 413.428 1063.98 416.095 1063.98 419.562C1063.98 420.229 1064.12 420.763 1064.25 421.296L1058.25 423.43C1054.92 414.362 1049.72 405.96 1042.93 398.626L1047.59 394.225C1048.66 395.292 1050.12 395.959 1051.72 395.959C1055.05 395.959 1057.85 393.292 1057.85 389.824C1057.85 386.49 1055.19 383.69 1051.72 383.69C1048.26 383.69 1045.59 386.357 1045.59 389.824C1045.59 391.291 1046.13 392.625 1047.06 393.692L1042.39 398.092C1041.86 397.559 1041.46 397.025 1040.93 396.625C1033.87 389.558 1025.74 384.09 1016.81 380.356L1019.34 374.088C1019.87 374.222 1020.54 374.355 1021.21 374.355C1024.54 374.355 1027.34 371.688 1027.34 368.221C1027.34 364.887 1024.67 362.087 1021.21 362.087C1017.87 362.087 1015.08 364.754 1015.08 368.221C1015.08 370.755 1016.54 372.888 1018.67 373.822L1016.14 380.089C1008.15 376.889 999.617 375.022 990.822 374.755L991.089 366.221H991.222C994.553 366.221 997.352 363.553 997.352 360.086C997.352 356.752 994.687 353.952 991.222 353.952C987.757 353.952 985.092 356.619 985.092 360.086C985.092 363.153 987.357 365.687 990.289 366.087L990.023 374.622C989.356 374.622 988.69 374.622 987.89 374.622C979.362 374.622 971.099 376.089 963.37 378.756L960.971 371.821C963.237 370.888 964.703 368.754 964.703 366.221C964.703 362.887 962.038 360.086 958.573 360.086C955.241 360.086 952.443 362.753 952.443 366.221C952.443 369.554 955.108 372.355 958.573 372.355C959.106 372.355 959.772 372.222 960.305 372.088L962.704 379.023C953.242 382.356 944.58 387.691 936.984 394.758L932.587 389.958C933.519 388.891 934.186 387.424 934.186 385.824C934.186 382.49 931.521 379.689 928.056 379.689C924.724 379.689 921.926 382.356 921.926 385.824C921.926 389.158 924.591 391.958 928.056 391.958C929.522 391.958 930.987 391.425 932.054 390.491L936.451 395.159C935.918 395.692 935.385 396.092 934.985 396.625C928.722 402.893 923.658 410.094 920.06 417.829L914.463 415.162C914.729 414.495 914.729 413.962 914.729 413.161C914.729 409.828 912.064 407.027 908.599 407.027C905.268 407.027 902.469 409.694 902.469 413.161C902.469 416.495 905.135 419.296 908.599 419.296C910.998 419.296 913.13 417.829 914.063 415.828L919.66 418.362C915.662 427.164 913.397 436.765 912.997 446.633L905.801 446.367C905.668 443.033 903.002 440.499 899.671 440.499C896.339 440.499 893.541 443.166 893.541 446.633C893.541 449.967 896.206 452.768 899.671 452.768C902.869 452.768 905.401 450.367 905.668 447.167L912.864 447.434C912.864 448.1 912.864 448.767 912.864 449.567C912.864 458.369 914.33 467.037 917.261 475.171L911.265 477.305C910.332 475.171 908.2 473.704 905.668 473.704C902.336 473.704 899.538 476.372 899.538 479.839C899.538 483.173 902.203 485.973 905.668 485.973C909.133 485.973 911.798 483.306 911.798 479.839C911.798 479.172 911.664 478.639 911.531 478.105L917.528 475.971C920.859 485.04 926.057 493.441 932.853 500.775L928.189 505.176C927.123 504.109 925.657 503.443 924.058 503.443C920.726 503.443 917.928 506.11 917.928 509.577C917.928 512.911 920.593 515.711 924.058 515.711C927.389 515.711 930.188 513.044 930.188 509.577C930.188 508.11 929.655 506.776 928.722 505.71L933.386 501.309C933.919 501.842 934.319 502.376 934.852 502.776C939.649 507.577 944.847 511.577 950.577 514.778L921.659 568.12H898.205V531.98H888.61V463.303H892.341V461.836H810.252V463.303H813.983V497.975H805.987L798.258 537.448V407.961H794.927V361.02H778.002V343.15H768.941V328.214H765.742V302.61H764.943V328.348H761.745V343.284H752.683V361.153H735.892V408.094H732.427V493.308H706.307V568.386H619.687V423.163H626.617V420.896H619.687V416.762H610.892V410.094H538.664V416.762H529.868V420.896H522.939V423.163H529.868V513.578H518.008V496.641H445.247V517.311H429.389V555.851H403.669V429.831H395.14V421.296H388.344V398.626H386.878V421.296H383.68V392.892H382.214V421.296H378.216V429.831H376.084V555.851H322.912V481.972H325.444V477.038H309.053V463.436H301.19V477.038H293.994V463.436H286.798V477.038H272.939V463.436H230.428V477.038H220.567V481.972H226.164V509.844H210.439V572.654H188.85V555.851H164.863V592.39H136.079V607.993H93.1682V652.8H1345.57V607.993H1307.32V608.126ZM1024 513.177L1014.01 494.641C1017.21 492.774 1020.27 490.507 1022.94 487.973L1037.33 503.309C1033.2 507.176 1028.8 510.51 1024 513.177ZM986.558 453.968C986.824 454.101 987.091 454.101 987.357 454.101L985.891 500.909C979.895 500.642 974.164 499.442 968.834 497.308L986.558 453.968ZM968.168 496.908C966.435 496.241 964.836 495.441 963.237 494.508L985.492 453.435C985.625 453.568 985.758 453.568 985.891 453.701L968.168 496.908ZM988.024 454.101C988.29 454.101 988.557 454.101 988.823 453.968L1004.41 498.108C999.218 499.842 993.621 500.909 987.89 500.909C987.491 500.909 986.958 500.909 986.558 500.909L988.024 454.101ZM989.49 453.701C989.756 453.568 989.889 453.435 990.156 453.301L1012.41 494.374C1010.01 495.708 1007.61 496.775 1005.08 497.708L989.49 453.701ZM993.221 456.235L1022.27 487.307C1019.61 489.707 1016.68 491.974 1013.61 493.841L993.221 456.235ZM991.888 453.968L991.089 452.368C991.222 452.234 991.222 452.101 991.355 451.968L1033.87 471.571C1031.2 477.305 1027.34 482.506 1022.81 486.773L991.888 453.968ZM991.622 451.434C991.755 451.168 991.755 450.767 991.888 450.501L1038.66 451.968C1038.4 458.769 1036.8 465.17 1034.13 471.037L991.622 451.434ZM991.888 449.834C991.888 449.567 991.888 449.167 991.755 448.9L1035.6 432.765C1037.6 438.099 1038.66 443.966 1038.66 449.967C1038.66 450.367 1038.66 450.901 1038.66 451.301L991.888 449.834ZM991.488 448.234C991.355 447.967 991.222 447.7 990.955 447.434L1025.07 415.428C1029.47 420.229 1033.07 425.83 1035.33 432.098L991.488 448.234ZM990.556 447.033C990.289 446.767 990.023 446.633 989.623 446.367L1007.35 403.026C1013.88 405.827 1019.74 409.828 1024.54 414.895L990.556 447.033ZM988.957 446.1C988.69 445.967 988.423 445.967 988.157 445.967L989.623 399.159C995.62 399.426 1001.35 400.626 1006.68 402.76L988.957 446.1ZM987.624 445.967C987.357 445.967 987.091 445.967 986.824 446.1L971.233 401.96C976.43 400.226 982.027 399.159 987.757 399.159C988.157 399.159 988.69 399.159 989.09 399.159L987.624 445.967ZM986.158 446.233C985.891 446.367 985.492 446.5 985.358 446.767L953.375 412.628C958.306 408.094 964.17 404.493 970.7 402.093L986.158 446.233ZM984.692 447.3C984.426 447.567 984.292 447.7 984.159 447.967L941.648 428.364C944.314 422.63 948.178 417.429 952.709 413.161L984.692 447.3ZM983.893 448.634C983.759 448.9 983.759 449.301 983.626 449.567L936.851 448.1C937.117 441.299 938.717 434.898 941.382 429.031L983.893 448.634ZM983.759 450.234C983.759 450.501 983.759 450.901 983.893 451.167L940.049 467.303C938.05 461.969 936.984 456.102 936.984 450.101C936.984 449.701 936.984 449.167 936.984 448.767L983.759 450.234ZM984.026 451.701C984.159 451.968 984.292 452.101 984.426 452.368L984.159 452.901L950.444 484.506C946.046 479.705 942.448 474.105 940.183 467.837L984.026 451.701ZM983.226 454.768L962.038 493.841C957.906 491.441 954.175 488.507 950.977 485.04L983.226 454.768ZM962.704 495.441C964.303 496.375 966.035 497.175 967.768 497.975L959.772 517.445C957.373 516.378 954.975 515.311 952.709 513.978L962.704 495.441ZM968.434 498.108C973.898 500.242 979.628 501.576 985.758 501.842L985.092 522.779C976.563 522.512 968.168 520.645 960.438 517.578L968.434 498.108ZM986.424 501.842C986.824 501.842 987.357 501.842 987.757 501.842C993.621 501.842 999.351 500.775 1004.68 499.042L1011.61 518.912C1004.02 521.579 996.019 522.912 987.757 522.912C987.091 522.912 986.424 522.912 985.758 522.912L986.424 501.842ZM1005.35 498.775C1008.01 497.842 1010.54 496.641 1012.94 495.308L1022.94 513.844C1019.61 515.711 1016.01 517.311 1012.41 518.645L1005.35 498.775ZM1039.33 501.576C1038.8 502.109 1038.4 502.509 1037.86 503.042L1023.47 487.707C1028.14 483.306 1032 477.972 1034.67 472.104L1053.72 480.906C1050.26 488.507 1045.33 495.441 1039.33 501.576ZM1054.12 480.239L1035.07 471.437C1037.73 465.436 1039.33 458.902 1039.6 451.968L1060.52 452.634C1060.25 462.369 1057.99 471.704 1054.12 480.239ZM1060.65 449.967C1060.65 450.634 1060.65 451.301 1060.65 451.968L1039.73 451.301C1039.73 450.901 1039.73 450.367 1039.73 449.967C1039.73 443.833 1038.66 437.832 1036.66 432.364L1056.39 425.163C1059.05 433.031 1060.65 441.433 1060.65 449.967ZM1041.2 400.493C1047.73 407.561 1052.79 415.695 1056.12 424.497L1036.4 431.698C1034 425.297 1030.4 419.562 1025.87 414.762L1041.2 400.493ZM1039.33 398.492C1039.86 399.026 1040.26 399.426 1040.8 399.959L1025.47 414.362C1020.54 409.161 1014.54 405.027 1007.88 402.226L1015.88 382.757C1024.4 386.357 1032.4 391.691 1039.33 398.492ZM990.422 377.156C998.951 377.422 1007.35 379.289 1015.08 382.356L1007.08 401.826C1001.62 399.693 995.886 398.359 989.756 398.092L990.422 377.156ZM987.757 377.156C988.423 377.156 989.09 377.156 989.756 377.156L989.09 398.092C988.69 398.092 988.157 398.092 987.757 398.092C981.894 398.092 976.163 399.159 970.833 400.893L963.903 381.023C971.499 378.489 979.495 377.156 987.757 377.156ZM963.237 381.423L970.167 401.293C963.503 403.693 957.64 407.427 952.576 412.095L938.184 396.759C945.513 389.824 954.042 384.624 963.237 381.423ZM936.318 398.492C936.851 397.959 937.251 397.559 937.784 397.025L952.176 412.361C947.512 416.762 943.647 422.096 940.982 427.964L921.926 419.162C925.39 411.561 930.188 404.627 936.318 398.492ZM921.526 419.829L940.582 428.631C937.917 434.632 936.318 441.166 936.051 448.1L915.129 447.434C915.396 437.699 917.528 428.364 921.526 419.829ZM914.996 449.967C914.996 449.301 914.996 448.634 914.996 447.967L935.918 448.634C935.918 449.034 935.918 449.567 935.918 449.967C935.918 456.102 936.984 462.103 938.983 467.57L919.26 474.771C916.462 467.037 914.996 458.635 914.996 449.967ZM934.452 499.575C927.922 492.507 922.858 484.373 919.527 475.571L939.25 468.37C941.648 474.771 945.247 480.506 949.777 485.306L934.452 499.575ZM936.318 501.576C935.785 501.042 935.385 500.642 934.852 500.109L950.177 485.706C953.509 489.174 957.373 492.241 961.504 494.774L951.51 513.311C946.046 510.11 940.849 506.11 936.318 501.576ZM951.776 515.711C954.175 517.045 956.574 518.245 959.106 519.178L956.574 525.446C956.041 525.313 955.374 525.179 954.708 525.179C951.377 525.179 948.578 527.846 948.578 531.314C948.578 534.648 951.243 537.448 954.708 537.448C958.173 537.448 960.838 534.781 960.838 531.314C960.838 528.78 959.372 526.646 957.24 525.713L959.772 519.445C967.768 522.646 976.297 524.513 985.092 524.779L984.825 531.18C981.494 531.314 978.829 533.981 978.829 537.315C978.829 540.649 981.494 543.449 984.959 543.449C988.29 543.449 991.089 540.782 991.089 537.315C991.089 534.114 988.69 531.58 985.492 531.314L985.758 524.913C986.424 524.913 987.091 524.913 987.89 524.913C996.419 524.913 1004.68 523.446 1012.41 520.779L1014.54 526.913C1012.41 527.846 1011.08 529.98 1011.08 532.381C1011.08 535.714 1013.74 538.515 1017.21 538.515C1020.54 538.515 1023.34 535.848 1023.34 532.381C1023.34 529.047 1020.67 526.246 1017.21 526.246C1016.54 526.246 1015.88 526.38 1015.21 526.513L1013.08 520.379C1016.81 519.045 1020.41 517.445 1024 515.444L1052.52 568.12H923.258L951.776 515.711Z" fill="url(#paint4_linear)"/>
<path d="M1164.86 421.163C1164.86 420.23 1164.2 419.43 1163.4 419.43C1162.6 419.43 1161.93 420.23 1161.93 421.163C1161.93 422.097 1162.6 422.897 1163.4 422.897C1164.33 422.764 1164.86 422.097 1164.86 421.163Z" fill="#E1E2E3"/>
<path d="M1320.25 627.597L1311.32 568.387H1293.33V519.312H1295.46V514.778H1286.8V495.709H1285.73V514.778H1279.6V499.176H1278.54V514.778H1242.02V519.312H1244.42V618.928H1202.71V574.255H1178.85V464.637H1181.12V459.169H1176.32V452.368H1170.86V449.701V441.833V435.032H1164.33V422.764H1163.53H1162.73V435.032H1159.13L1157 441.833H1142.61V452.368H1104.89V459.169H1100.23V464.637H1102.36V535.982H1070.91V606.126L1035.86 590.524V522.513H1041.46V517.445H1031.6V503.977H989.09V517.445H975.23V503.977H968.034V517.445H960.971V503.977H953.109V517.445H936.718V522.513H939.116V616.795H923.258V615.861H920.326V588.924H923.258V586.79H920.326V559.986H923.258V557.719H920.326V530.914H923.258V528.781H920.326V501.843H923.258V499.709H920.326V472.772H923.258V470.638H920.326V442.9H925.257V440.633H927.789V434.766H880.881V428.231H882.347V426.364H856.76V428.231H858.359V434.766H846.766V440.633H849.164V442.9H854.228V470.638H851.296V472.772H854.228V499.709H851.296V501.843H854.228V528.781H851.296V530.914H854.228V557.719H851.296V559.986H854.228V586.79H851.296V588.924H854.228V615.861H851.296V617.995H854.228V639.999H838.104V555.052H773.605V616.795H763.21V424.497H755.481V429.431L741.222 432.899V429.698H733.359V434.766L719.1 438.366V434.632H711.371V440.233L697.112 443.7V440.633H689.383V445.567L674.991 449.168V446.501H667.261V635.331H656.467V534.648H616.089V596.658H574.644V543.85H569.58V526.514H572.645V524.78H559.186V519.312H557.853V524.78H553.455V496.776H552.389V524.78H546.926V526.514H550.124V543.85H522.805V584.123H496.286L482.427 635.331H454.575V467.838H417.661V461.837H419.793V459.836H391.808V461.837H393.941V467.838V477.572V592.258H376.617V548.917H382.747V545.05H339.037V518.779H330.641V513.445H311.984V518.779H296.926V612.261H247.086V542.916H205.241V597.725H168.861V632.797H142.741V588.657H108.227V626.263H77.0432V652.801H108.227H118.754H136.078H142.741H168.861H205.241H217.502H224.031H247.086H296.926H311.984H330.641H339.037H371.686H376.617H393.941H423.125H437.517H454.575H522.805H538.663H565.316H574.644H616.755H628.082H667.261H671.126H674.991H689.383H697.112H711.371H717.901H719.1H733.359H741.222H753.482H755.481H759.345H763.21H773.605H826.909H834.639H838.104H854.228H882.347H908.199H920.326H939.116H985.891H1035.33H1035.86H1070.91H1090.37H1102.36H1109.96H1168.46H1178.85H1191.51H1202.71H1244.42H1275.47H1281.87H1293.33H1362.76V627.597H1320.25Z" fill="#E1E2E3"/>
</g>
<defs>
<radialGradient id="paint0_radial" cx="0" cy="0" r="1" gradientUnits="userSpaceOnUse" gradientTransform="translate(37.0264 78.7851) rotate(16.8922) scale(1421.27 1202.62)">
<stop stop-color="#16151D"/>
<stop offset="1" stop-color="#232526"/>
</radialGradient>
<linearGradient id="paint1_linear" x1="309.086" y1="571.518" x2="309.086" y2="341.479" gradientUnits="userSpaceOnUse">
<stop stop-color="#696969"/>
<stop offset="1" stop-color="#C4C3C3"/>
</linearGradient>
<linearGradient id="paint2_linear" x1="281.866" y1="341.48" x2="281.866" y2="338.083" gradientUnits="userSpaceOnUse">
<stop stop-color="#696969"/>
<stop offset="1" stop-color="#C4C3C3"/>
</linearGradient>
<linearGradient id="paint3_linear" x1="732.428" y1="610.93" x2="732.428" y2="236.941" gradientUnits="userSpaceOnUse">
<stop stop-color="#696969"/>
<stop offset="1" stop-color="#C4C3C3"/>
</linearGradient>
<linearGradient id="paint4_linear" x1="719.425" y1="302.645" x2="719.425" y2="652.86" gradientUnits="userSpaceOnUse">
<stop stop-color="#E3E2E2"/>
<stop offset="1" stop-color="#969696"/>
</linearGradient>
</defs>
</svg>
