<svg width="334" height="540" viewBox="0 0 334 540" fill="none" xmlns="http://www.w3.org/2000/svg">
<path fill-rule="evenodd" clip-rule="evenodd" d="M52.2635 95.0034L62.9418 102.426L55.9586 109.066L50.7318 117.57L47.9257 126.374L43.8557 120.741L37.0117 116.21L40.3641 108.167L46.6297 99.6089L52.2635 95.0034Z" fill="#350B00"/>
<path fill-rule="evenodd" clip-rule="evenodd" d="M15.3847 116.724L26.8449 123.6L21.1148 129.705L16.3487 137.899L13.4354 147.731L14.1101 155.678L17.5268 162.854L21.1469 168.884L15.4918 166.26L8.57284 159.202L3.58175 151.812L1.83594 143.308L3.7424 133.679L8.47645 124.404L15.3847 116.724Z" fill="#350B00"/>
<path d="M34.012 124.597C24.5867 130.038 16.9395 143.276 16.9395 154.169C16.9395 159.781 19.3172 164.612 22.7874 168.682C32.3411 177.239 45.8042 181.459 45.8042 181.459C45.8042 181.459 81.6629 130.338 81.6629 111.241C81.6629 108.167 81.031 105.618 79.9492 103.658C76.8753 101.998 72.6982 102.298 68.0927 104.954C59.0424 110.181 51.6414 122.584 51.063 133.198C50.8702 129.728 49.8313 127.018 48.1926 125.154C47.8713 126.664 47.6464 128.164 47.5607 129.621C47.4215 127.114 46.8431 124.994 45.9113 123.301C42.8374 121.631 38.6496 121.909 34.0227 124.587L34.012 124.597Z" fill="#E59636"/>
<path d="M38.0388 116.511L35.9824 115.922C38.66 106.625 45.0863 97.9066 52.3373 93.7081C57.3927 90.7842 62.1695 90.4307 65.7683 92.6906L76.9393 99.1383L75.8682 100.991L64.6544 94.5221C61.7197 92.6799 57.7354 93.0548 53.3977 95.561C46.6929 99.4275 40.5237 107.846 38.0281 116.511H38.0388Z" fill="#350B00"/>
<path d="M26.021 172.644C16.585 168.167 0.765625 158.463 0.765625 143.844C0.765625 132.63 8.66996 118.952 18.3737 113.34C23.429 110.416 28.2059 110.063 31.8046 112.323L43.1256 118.91L42.0438 120.763L30.7014 114.165C27.7775 112.323 23.7825 112.698 19.4447 115.204C10.3301 120.473 2.90772 133.315 2.90772 143.844C2.90772 157.296 17.9667 166.453 26.942 170.716L26.021 172.655V172.644Z" fill="#350B00"/>
<path d="M45.7926 182.542C45.6855 182.542 45.5784 182.531 45.4713 182.488C44.1218 182.07 12.3652 171.874 12.3652 150.603C12.3652 139.389 20.2695 125.712 29.9732 120.1C34.7608 117.336 39.3449 116.865 42.8901 118.782C44.8715 119.853 46.3924 121.599 47.3671 123.891C49.7341 114.477 56.3639 104.901 64.0433 100.467C68.9487 97.6396 73.6185 97.2112 77.1851 99.2676C80.7516 101.324 82.7224 105.587 82.7224 111.253C82.7224 130.467 48.1382 179.993 46.6709 182.092C46.4674 182.381 46.1354 182.552 45.7926 182.552V182.542ZM31.0443 121.963C21.9297 127.233 14.5073 140.075 14.5073 150.603C14.5073 168.607 40.6087 178.536 45.3749 180.196C49.5306 174.177 80.5803 128.636 80.5803 111.253C80.5803 106.39 78.9951 102.791 76.114 101.131C73.2329 99.4711 69.3236 99.8888 65.1144 102.331C56.4282 107.343 49.1771 119.371 48.6202 129.707C48.5881 130.274 48.1168 130.714 47.5491 130.724C46.9815 130.724 46.5102 130.285 46.4781 129.718C46.2318 125.358 44.5931 122.156 41.8726 120.678C39.0129 119.136 35.1678 119.596 31.0443 121.974V121.963Z" fill="#350B00"/>
<path d="M59.3608 162.854H57.2188V247.639H59.3608V162.854Z" fill="#350B00"/>
<path d="M18.0093 166.262H15.8672V311.464H18.0093V166.262Z" fill="#350B00"/>
<path d="M59.3608 251.913H57.2188V263.533H59.3608V251.913Z" fill="#350B00"/>
<path d="M59.3608 268.62H57.2188V275.582H59.3608V268.62Z" fill="#350B00"/>
<path d="M18.0093 317.621H15.8672V334.876H18.0093V317.621Z" fill="#350B00"/>
<path d="M18.0093 342.063H15.8672V347.343H18.0093V342.063Z" fill="#350B00"/>
<path d="M72.8657 337.039L70.5144 338.395C70.2808 338.541 69.8573 338.512 69.5798 338.352L67.3746 337.083C67.0972 336.922 67.068 336.674 67.3016 336.543L69.6528 335.187C69.8865 335.041 70.31 335.07 70.5875 335.23L72.7926 336.499C73.0701 336.66 73.0993 336.908 72.8657 337.039Z" fill="#350B00"/>
<path d="M67.1118 340.349L64.7605 341.706C64.5269 341.852 64.1034 341.823 63.8259 341.662L61.6207 340.393C61.3433 340.233 61.314 339.985 61.5477 339.854L63.8989 338.497C64.1326 338.351 64.5561 338.381 64.8336 338.541L67.0387 339.81C67.3162 339.97 67.3454 340.218 67.1118 340.349Z" fill="#350B00"/>
<path d="M78.3266 340.175L75.9754 341.531C75.7417 341.677 75.3182 341.648 75.0407 341.487L72.8356 340.218C72.5581 340.058 72.5289 339.81 72.7625 339.679L75.1138 338.322C75.3474 338.191 75.7709 338.206 76.0484 338.366L78.2536 339.635C78.531 339.795 78.5603 340.043 78.3266 340.175Z" fill="#350B00"/>
<path d="M72.5746 343.485L70.2234 344.842C69.9898 344.988 69.5663 344.958 69.2888 344.798L67.0836 343.529C66.8061 343.369 66.7769 343.121 67.0106 342.989L69.3618 341.633C69.5955 341.487 70.019 341.516 70.2965 341.677L72.5016 342.946C72.7791 343.106 72.8083 343.354 72.5746 343.485Z" fill="#350B00"/>
<path d="M84.0961 343.5L81.7449 344.856C81.5113 345.002 81.0877 344.973 80.8103 344.812L78.6051 343.543C78.3276 343.383 78.2984 343.135 78.5321 343.004L80.8833 341.647C81.117 341.501 81.5405 341.531 81.8179 341.691L84.0231 342.96C84.3006 343.12 84.3298 343.368 84.0961 343.5Z" fill="#350B00"/>
<path d="M78.3422 346.825L75.991 348.182C75.7573 348.328 75.3338 348.298 75.0564 348.138L72.8512 346.869C72.5737 346.709 72.5445 346.461 72.7782 346.329L75.1294 344.973C75.363 344.827 75.7866 344.856 76.064 345.017L78.2692 346.286C78.5467 346.446 78.5759 346.694 78.3422 346.825Z" fill="#350B00"/>
<path d="M61.6352 330.563L59.284 331.919C59.0503 332.065 58.6268 332.036 58.3493 331.876L56.1442 330.607C55.8667 330.446 55.8375 330.198 56.0711 330.067L58.4224 328.711C58.656 328.565 59.0795 328.594 59.357 328.754L61.5622 330.023C61.8396 330.184 61.8689 330.432 61.6352 330.563Z" fill="#350B00"/>
<path d="M67.0981 333.699L64.7469 335.055C64.5132 335.201 64.0897 335.172 63.8122 335.012L61.6071 333.743C61.3296 333.582 61.3004 333.334 61.534 333.203L63.8852 331.847C64.1189 331.701 64.5424 331.73 64.8199 331.89L67.0251 333.159C67.3025 333.32 67.3317 333.568 67.0981 333.699Z" fill="#350B00"/>
<path d="M61.3442 337.024L58.993 338.38C58.7593 338.526 58.3358 338.497 58.0583 338.336L55.8531 337.068C55.5757 336.907 55.5465 336.659 55.7801 336.528L58.1313 335.172C58.365 335.026 58.7885 335.055 59.066 335.215L61.2712 336.484C61.5486 336.645 61.5778 336.893 61.3442 337.024Z" fill="#350B00"/>
<path d="M89.559 346.651L87.2078 348.007C86.9741 348.138 86.5506 348.124 86.2732 347.963L84.068 346.694C83.7905 346.534 83.7613 346.286 83.995 346.155L86.3462 344.798C86.5798 344.652 87.0034 344.682 87.2808 344.842L89.486 346.111C89.7635 346.271 89.7927 346.519 89.559 346.651Z" fill="#350B00"/>
<path d="M83.8051 349.961L81.4539 351.317C81.2202 351.463 80.7967 351.434 80.5193 351.274L78.3141 350.005C78.0366 349.844 78.0074 349.596 78.2411 349.465L80.5923 348.109C80.8259 347.963 81.2494 347.992 81.5269 348.153L83.7321 349.421C84.0096 349.582 84.0388 349.83 83.8051 349.961Z" fill="#350B00"/>
<path d="M95.0063 349.801L92.6551 351.157C92.4214 351.303 91.9979 351.274 91.7204 351.113L89.5153 349.844C89.2378 349.684 89.2086 349.436 89.4422 349.305L91.7934 347.948C92.0271 347.803 92.4506 347.832 92.7281 347.992L94.9333 349.261C95.2107 349.421 95.2399 349.669 95.0063 349.801Z" fill="#350B00"/>
<path d="M89.268 353.112L86.9168 354.468C86.6831 354.614 86.2596 354.585 85.9821 354.424L83.777 353.155C83.4995 352.995 83.4703 352.747 83.704 352.616L86.0552 351.259C86.2888 351.114 86.7123 351.143 86.9898 351.303L89.195 352.572C89.4725 352.732 89.5017 352.98 89.268 353.112Z" fill="#350B00"/>
<path d="M100.788 353.126L98.4363 354.483C98.2027 354.628 97.7792 354.599 97.5017 354.439L95.2965 353.17C95.019 353.009 94.9898 352.761 95.2235 352.63L97.5747 351.274C97.8084 351.128 98.2319 351.157 98.5093 351.318L100.715 352.586C100.992 352.747 101.021 352.995 100.788 353.126Z" fill="#350B00"/>
<path d="M95.0356 356.437L92.6844 357.794C92.4507 357.94 92.0272 357.91 91.7497 357.75L89.5446 356.481C89.2671 356.321 89.2379 356.073 89.4715 355.941L91.8227 354.585C92.0564 354.439 92.4799 354.468 92.7574 354.629L94.9626 355.898C95.24 356.058 95.2692 356.306 95.0356 356.437Z" fill="#350B00"/>
<path d="M106.235 356.276L103.884 357.633C103.65 357.779 103.226 357.749 102.949 357.589L100.744 356.32C100.466 356.16 100.437 355.912 100.671 355.78L103.022 354.424C103.256 354.278 103.679 354.307 103.957 354.468L106.162 355.737C106.439 355.897 106.468 356.145 106.235 356.276Z" fill="#350B00"/>
<path d="M100.497 359.587L98.1453 360.944C97.9116 361.089 97.4881 361.06 97.2107 360.9L95.0055 359.631C94.728 359.47 94.6988 359.223 94.9325 359.091L97.2837 357.735C97.5173 357.604 97.9409 357.618 98.2183 357.779L100.423 359.048C100.701 359.208 100.73 359.456 100.497 359.587Z" fill="#350B00"/>
<path d="M111.698 359.412L109.346 360.769C109.113 360.915 108.689 360.886 108.412 360.725L106.207 359.456C105.929 359.296 105.9 359.048 106.134 358.917L108.485 357.56C108.719 357.414 109.142 357.443 109.419 357.604L111.625 358.873C111.902 359.033 111.931 359.281 111.698 359.412Z" fill="#350B00"/>
<path d="M105.946 362.738L103.595 364.094C103.361 364.24 102.937 364.211 102.66 364.05L100.455 362.781C100.177 362.621 100.148 362.373 100.382 362.242L102.733 360.885C102.967 360.74 103.39 360.769 103.668 360.929L105.873 362.198C106.15 362.358 106.179 362.606 105.946 362.738Z" fill="#350B00"/>
<path d="M117.467 362.752L115.116 364.109C114.882 364.255 114.459 364.225 114.181 364.065L111.976 362.796C111.699 362.636 111.67 362.388 111.903 362.256L114.254 360.9C114.488 360.754 114.912 360.783 115.189 360.944L117.394 362.213C117.672 362.373 117.701 362.621 117.467 362.752Z" fill="#350B00"/>
<path d="M111.711 366.063L109.36 367.42C109.126 367.565 108.703 367.536 108.426 367.376L106.22 366.107C105.943 365.946 105.914 365.699 106.147 365.567L108.499 364.211C108.732 364.065 109.156 364.094 109.433 364.255L111.638 365.523C111.916 365.684 111.945 365.932 111.711 366.063Z" fill="#350B00"/>
<path d="M122.928 365.888L120.577 367.244C120.343 367.39 119.92 367.361 119.642 367.2L117.437 365.932C117.16 365.771 117.13 365.523 117.364 365.392L119.715 364.036C119.949 363.89 120.372 363.919 120.65 364.079L122.855 365.348C123.133 365.509 123.162 365.757 122.928 365.888Z" fill="#350B00"/>
<path d="M117.174 369.214L114.823 370.57C114.589 370.716 114.166 370.687 113.888 370.526L111.683 369.257C111.406 369.097 111.377 368.849 111.61 368.718L113.961 367.361C114.195 367.215 114.619 367.245 114.896 367.405L117.101 368.674C117.379 368.834 117.408 369.082 117.174 369.214Z" fill="#350B00"/>
<path d="M128.375 369.039L126.024 370.395C125.791 370.541 125.367 370.512 125.09 370.351L122.884 369.082C122.607 368.922 122.578 368.674 122.811 368.543L125.163 367.186C125.396 367.041 125.82 367.07 126.097 367.23L128.302 368.499C128.58 368.659 128.609 368.907 128.375 369.039Z" fill="#350B00"/>
<path d="M122.637 372.349L120.286 373.706C120.052 373.852 119.629 373.822 119.351 373.662L117.146 372.393C116.869 372.233 116.839 371.985 117.073 371.853L119.424 370.497C119.658 370.351 120.081 370.38 120.359 370.541L122.564 371.81C122.842 371.97 122.871 372.218 122.637 372.349Z" fill="#350B00"/>
<path d="M134.159 372.364L131.807 373.72C131.574 373.866 131.15 373.837 130.873 373.676L128.668 372.407C128.39 372.247 128.361 371.999 128.595 371.868L130.946 370.511C131.179 370.365 131.603 370.395 131.88 370.555L134.086 371.824C134.363 371.984 134.392 372.232 134.159 372.364Z" fill="#350B00"/>
<path d="M128.403 375.689L126.052 377.046C125.818 377.192 125.394 377.162 125.117 377.002L122.912 375.733C122.634 375.573 122.605 375.325 122.839 375.193L125.19 373.837C125.424 373.691 125.847 373.72 126.125 373.881L128.33 375.15C128.607 375.31 128.636 375.558 128.403 375.689Z" fill="#350B00"/>
<path d="M139.606 375.514L137.255 376.871C137.021 377.017 136.598 376.987 136.32 376.827L134.115 375.558C133.837 375.398 133.808 375.15 134.042 375.018L136.393 373.662C136.627 373.516 137.05 373.545 137.328 373.706L139.533 374.975C139.81 375.135 139.84 375.383 139.606 375.514Z" fill="#350B00"/>
<path d="M133.868 378.825L131.516 380.182C131.283 380.327 130.859 380.298 130.582 380.138L128.377 378.869C128.099 378.708 128.07 378.46 128.304 378.329L130.655 376.973C130.888 376.827 131.312 376.856 131.589 377.017L133.795 378.285C134.072 378.446 134.101 378.694 133.868 378.825Z" fill="#350B00"/>
<path d="M150.836 381.99L148.485 383.347C148.251 383.493 147.828 383.463 147.551 383.303L145.345 382.034C145.068 381.874 145.039 381.626 145.272 381.494L147.624 380.138C147.857 379.992 148.281 380.021 148.558 380.182L150.763 381.451C151.041 381.611 151.07 381.859 150.836 381.99Z" fill="#350B00"/>
<path d="M145.096 385.301L142.745 386.657C142.511 386.803 142.088 386.774 141.81 386.614L139.605 385.345C139.328 385.184 139.298 384.936 139.532 384.805L141.883 383.449C142.117 383.303 142.54 383.332 142.818 383.492L145.023 384.761C145.301 384.922 145.33 385.17 145.096 385.301Z" fill="#350B00"/>
<path d="M156.297 385.141L153.946 386.497C153.712 386.643 153.289 386.614 153.011 386.453L150.806 385.184C150.529 385.024 150.5 384.776 150.733 384.645L153.084 383.288C153.318 383.142 153.742 383.172 154.019 383.332L156.224 384.601C156.502 384.761 156.531 385.009 156.297 385.141Z" fill="#350B00"/>
<path d="M150.543 388.451L148.192 389.808C147.959 389.954 147.535 389.924 147.258 389.764L145.052 388.495C144.775 388.335 144.746 388.087 144.979 387.955L147.331 386.599C147.564 386.453 147.988 386.482 148.265 386.643L150.47 387.912C150.748 388.072 150.777 388.32 150.543 388.451Z" fill="#350B00"/>
<path d="M161.747 388.277L159.395 389.633C159.162 389.764 158.738 389.75 158.461 389.589L156.255 388.32C155.978 388.16 155.949 387.912 156.182 387.781L158.534 386.424C158.767 386.279 159.191 386.308 159.468 386.468L161.674 387.737C161.951 387.898 161.98 388.145 161.747 388.277Z" fill="#350B00"/>
<path d="M156.006 391.602L153.655 392.958C153.421 393.104 152.998 393.075 152.72 392.915L150.515 391.646C150.238 391.485 150.209 391.237 150.442 391.106L152.793 389.75C153.027 389.604 153.451 389.633 153.728 389.793L155.933 391.062C156.211 391.223 156.24 391.471 156.006 391.602Z" fill="#350B00"/>
<path d="M167.53 391.616L165.179 392.973C164.945 393.118 164.521 393.089 164.244 392.929L162.039 391.66C161.761 391.499 161.732 391.251 161.966 391.12L164.317 389.764C164.551 389.618 164.974 389.647 165.252 389.808L167.457 391.076C167.734 391.237 167.763 391.485 167.53 391.616Z" fill="#350B00"/>
<path d="M161.774 394.927L159.423 396.284C159.189 396.43 158.765 396.4 158.488 396.24L156.283 394.971C156.005 394.811 155.976 394.563 156.21 394.431L158.561 393.075C158.795 392.929 159.218 392.958 159.496 393.119L161.701 394.388C161.978 394.548 162.008 394.796 161.774 394.927Z" fill="#350B00"/>
<path d="M172.975 394.752L170.624 396.109C170.39 396.255 169.967 396.225 169.689 396.065L167.484 394.796C167.207 394.636 167.177 394.388 167.411 394.256L169.762 392.9C169.996 392.754 170.419 392.783 170.697 392.944L172.902 394.213C173.179 394.373 173.209 394.621 172.975 394.752Z" fill="#350B00"/>
<path d="M167.237 398.078L164.886 399.434C164.652 399.58 164.228 399.551 163.951 399.39L161.746 398.121C161.468 397.961 161.439 397.713 161.673 397.582L164.024 396.225C164.258 396.079 164.681 396.109 164.959 396.269L167.164 397.538C167.441 397.698 167.47 397.946 167.237 398.078Z" fill="#350B00"/>
<path d="M178.438 397.903L176.087 399.259C175.853 399.405 175.43 399.376 175.152 399.215L172.947 397.946C172.669 397.786 172.64 397.538 172.874 397.407L175.225 396.05C175.459 395.905 175.882 395.934 176.16 396.094L178.365 397.363C178.642 397.524 178.672 397.771 178.438 397.903Z" fill="#350B00"/>
<path d="M172.682 401.214L170.331 402.57C170.097 402.716 169.674 402.687 169.396 402.526L167.191 401.257C166.914 401.097 166.884 400.849 167.118 400.718L169.469 399.361C169.703 399.215 170.126 399.245 170.404 399.405L172.609 400.674C172.887 400.834 172.916 401.082 172.682 401.214Z" fill="#350B00"/>
<path d="M184.204 401.228L181.852 402.584C181.619 402.73 181.195 402.701 180.918 402.54L178.713 401.271C178.435 401.111 178.406 400.863 178.64 400.732L180.991 399.375C181.224 399.23 181.648 399.259 181.925 399.419L184.131 400.688C184.408 400.848 184.437 401.096 184.204 401.228Z" fill="#350B00"/>
<path d="M178.465 404.554L176.114 405.91C175.88 406.042 175.457 406.027 175.179 405.867L172.974 404.598C172.697 404.437 172.668 404.189 172.901 404.058L175.252 402.702C175.486 402.556 175.91 402.585 176.187 402.745L178.392 404.014C178.67 404.175 178.699 404.423 178.465 404.554Z" fill="#350B00"/>
<path d="M189.668 404.379L187.317 405.735C187.084 405.881 186.66 405.852 186.383 405.691L184.177 404.422C183.9 404.262 183.871 404.014 184.104 403.883L186.456 402.526C186.689 402.38 187.113 402.41 187.39 402.57L189.595 403.839C189.873 403.999 189.902 404.247 189.668 404.379Z" fill="#350B00"/>
<path d="M183.914 407.689L181.563 409.046C181.33 409.191 180.906 409.162 180.629 409.002L178.423 407.733C178.146 407.572 178.117 407.324 178.35 407.193L180.702 405.837C180.935 405.691 181.359 405.72 181.636 405.881L183.841 407.149C184.119 407.31 184.148 407.558 183.914 407.689Z" fill="#350B00"/>
<path d="M195.114 407.529L192.762 408.885C192.529 409.031 192.105 409.002 191.828 408.841L189.623 407.572C189.345 407.412 189.316 407.164 189.55 407.033L191.901 405.676C192.135 405.531 192.558 405.56 192.836 405.72L195.041 406.989C195.318 407.149 195.347 407.397 195.114 407.529Z" fill="#350B00"/>
<path d="M189.375 410.84L187.024 412.196C186.791 412.342 186.367 412.313 186.09 412.153L183.884 410.884C183.607 410.723 183.578 410.475 183.811 410.344L186.163 408.988C186.396 408.842 186.82 408.871 187.097 409.031L189.302 410.3C189.58 410.461 189.609 410.709 189.375 410.84Z" fill="#350B00"/>
<path d="M200.897 410.854L198.546 412.211C198.312 412.356 197.889 412.327 197.611 412.167L195.406 410.898C195.128 410.737 195.099 410.49 195.333 410.358L197.684 409.002C197.918 408.856 198.341 408.885 198.619 409.046L200.824 410.314C201.101 410.475 201.131 410.723 200.897 410.854Z" fill="#350B00"/>
<path d="M195.143 414.165L192.792 415.521C192.558 415.667 192.135 415.638 191.857 415.478L189.652 414.209C189.375 414.048 189.345 413.8 189.579 413.669L191.93 412.313C192.164 412.167 192.587 412.196 192.865 412.356L195.07 413.625C195.347 413.786 195.377 414.034 195.143 414.165Z" fill="#350B00"/>
<path d="M206.637 407.543L204.286 408.9C204.052 409.046 203.629 409.016 203.351 408.856L201.146 407.587C200.869 407.427 200.839 407.179 201.073 407.047L203.424 405.691C203.658 405.545 204.081 405.574 204.359 405.735L206.564 407.004C206.842 407.164 206.871 407.412 206.637 407.543Z" fill="#350B00"/>
<path d="M212.391 404.218L210.04 405.575C209.806 405.72 209.383 405.691 209.105 405.531L206.9 404.262C206.623 404.101 206.593 403.854 206.827 403.722L209.178 402.366C209.412 402.22 209.835 402.249 210.113 402.41L212.318 403.678C212.596 403.839 212.625 404.087 212.391 404.218Z" fill="#350B00"/>
<path d="M218.145 400.907L215.794 402.264C215.56 402.409 215.137 402.38 214.859 402.22L212.654 400.951C212.376 400.79 212.347 400.543 212.581 400.411L214.932 399.055C215.166 398.909 215.589 398.938 215.867 399.099L218.072 400.367C218.349 400.528 218.379 400.776 218.145 400.907Z" fill="#350B00"/>
<path d="M223.885 397.597L221.534 398.953C221.3 399.099 220.877 399.07 220.599 398.909L218.394 397.64C218.117 397.48 218.087 397.232 218.321 397.101L220.672 395.744C220.906 395.598 221.33 395.628 221.607 395.788L223.812 397.057C224.09 397.217 224.119 397.465 223.885 397.597Z" fill="#350B00"/>
<path d="M229.639 394.286L227.288 395.642C227.054 395.788 226.631 395.759 226.353 395.598L224.148 394.33C223.871 394.169 223.841 393.921 224.075 393.79L226.426 392.433C226.66 392.288 227.083 392.317 227.361 392.477L229.566 393.746C229.844 393.907 229.873 394.155 229.639 394.286Z" fill="#350B00"/>
<path d="M235.377 390.96L233.026 392.317C232.793 392.462 232.369 392.433 232.092 392.273L229.886 391.004C229.609 390.843 229.58 390.595 229.813 390.464L232.165 389.108C232.398 388.962 232.822 388.991 233.099 389.152L235.304 390.42C235.582 390.581 235.611 390.829 235.377 390.96Z" fill="#350B00"/>
<path d="M241.131 387.649L238.78 389.005C238.546 389.151 238.123 389.122 237.845 388.962L235.64 387.693C235.363 387.532 235.334 387.284 235.567 387.153L237.918 385.797C238.152 385.651 238.576 385.68 238.853 385.841L241.058 387.109C241.336 387.27 241.365 387.518 241.131 387.649Z" fill="#350B00"/>
<path d="M246.885 384.339L244.534 385.695C244.3 385.841 243.877 385.812 243.599 385.651L241.394 384.382C241.117 384.222 241.087 383.974 241.321 383.843L243.672 382.486C243.906 382.34 244.33 382.37 244.607 382.53L246.812 383.799C247.09 383.959 247.119 384.207 246.885 384.339Z" fill="#350B00"/>
<path d="M252.623 381.028L250.272 382.384C250.039 382.53 249.615 382.501 249.338 382.34L247.132 381.071C246.855 380.911 246.826 380.663 247.059 380.532L249.411 379.175C249.644 379.03 250.068 379.059 250.345 379.219L252.55 380.488C252.828 380.649 252.857 380.896 252.623 381.028Z" fill="#350B00"/>
<path d="M258.377 377.702L256.026 379.059C255.793 379.205 255.369 379.175 255.092 379.015L252.886 377.746C252.609 377.586 252.58 377.338 252.813 377.206L255.165 375.85C255.398 375.704 255.822 375.733 256.099 375.894L258.304 377.163C258.582 377.323 258.611 377.571 258.377 377.702Z" fill="#350B00"/>
<path d="M264.118 374.391L261.766 375.747C261.533 375.893 261.109 375.864 260.832 375.704L258.627 374.435C258.349 374.274 258.32 374.026 258.554 373.895L260.905 372.539C261.138 372.393 261.562 372.422 261.839 372.582L264.045 373.851C264.322 374.012 264.351 374.26 264.118 374.391Z" fill="#350B00"/>
<path d="M269.872 371.08L267.52 372.437C267.287 372.583 266.863 372.554 266.586 372.393L264.38 371.124C264.103 370.964 264.074 370.716 264.307 370.585L266.659 369.228C266.892 369.082 267.316 369.111 267.593 369.272L269.798 370.541C270.076 370.701 270.105 370.949 269.872 371.08Z" fill="#350B00"/>
<path d="M275.623 367.77L273.272 369.126C273.039 369.272 272.615 369.243 272.338 369.083L270.132 367.814C269.855 367.653 269.826 367.405 270.059 367.274L272.411 365.918C272.644 365.772 273.068 365.801 273.345 365.961L275.55 367.23C275.828 367.391 275.857 367.639 275.623 367.77Z" fill="#350B00"/>
<path d="M281.364 364.444L279.012 365.8C278.779 365.946 278.355 365.917 278.078 365.756L275.873 364.488C275.595 364.327 275.566 364.079 275.8 363.948L278.151 362.591C278.385 362.446 278.808 362.475 279.086 362.635L281.291 363.904C281.568 364.065 281.597 364.312 281.364 364.444Z" fill="#350B00"/>
<path d="M287.12 361.133L284.768 362.49C284.535 362.635 284.111 362.606 283.834 362.446L281.629 361.177C281.351 361.016 281.322 360.769 281.556 360.637L283.907 359.281C284.14 359.135 284.564 359.164 284.841 359.325L287.047 360.594C287.324 360.754 287.353 361.002 287.12 361.133Z" fill="#350B00"/>
<path d="M206.344 414.004L203.993 415.361C203.759 415.507 203.336 415.477 203.058 415.317L200.853 414.048C200.576 413.888 200.546 413.64 200.78 413.508L203.131 412.152C203.365 412.006 203.789 412.035 204.066 412.196L206.271 413.465C206.549 413.625 206.578 413.873 206.344 414.004Z" fill="#350B00"/>
<path d="M212.098 410.679L209.747 412.036C209.513 412.182 209.09 412.152 208.812 411.992L206.607 410.723C206.33 410.563 206.3 410.315 206.534 410.183L208.885 408.827C209.119 408.681 209.542 408.71 209.82 408.871L212.025 410.14C212.303 410.3 212.332 410.548 212.098 410.679Z" fill="#350B00"/>
<path d="M217.852 407.368L215.501 408.725C215.267 408.871 214.844 408.841 214.566 408.681L212.361 407.412C212.083 407.252 212.054 407.004 212.288 406.872L214.639 405.516C214.873 405.37 215.296 405.399 215.574 405.56L217.779 406.829C218.056 406.989 218.086 407.237 217.852 407.368Z" fill="#350B00"/>
<path d="M223.592 404.058L221.241 405.414C221.007 405.56 220.584 405.531 220.306 405.37L218.101 404.101C217.824 403.941 217.795 403.693 218.028 403.562L220.379 402.205C220.613 402.059 221.037 402.089 221.314 402.249L223.519 403.518C223.797 403.678 223.826 403.926 223.592 404.058Z" fill="#350B00"/>
<path d="M229.346 400.747L226.995 402.103C226.761 402.249 226.338 402.22 226.06 402.059L223.855 400.79C223.578 400.63 223.548 400.382 223.782 400.251L226.133 398.894C226.367 398.749 226.79 398.778 227.068 398.938L229.273 400.207C229.551 400.368 229.58 400.615 229.346 400.747Z" fill="#350B00"/>
<path d="M235.086 397.422L232.735 398.778C232.501 398.924 232.078 398.895 231.801 398.734L229.595 397.465C229.318 397.305 229.289 397.057 229.522 396.926L231.874 395.569C232.107 395.423 232.531 395.453 232.808 395.613L235.013 396.882C235.291 397.042 235.32 397.29 235.086 397.422Z" fill="#350B00"/>
<path d="M240.838 394.11L238.487 395.467C238.253 395.613 237.83 395.584 237.552 395.423L235.347 394.154C235.07 393.994 235.041 393.746 235.274 393.615L237.625 392.258C237.859 392.112 238.283 392.141 238.56 392.302L240.765 393.571C241.043 393.731 241.072 393.979 240.838 394.11Z" fill="#350B00"/>
<path d="M246.594 390.8L244.243 392.156C244.009 392.302 243.586 392.273 243.308 392.113L241.103 390.844C240.826 390.683 240.796 390.435 241.03 390.304L243.381 388.948C243.615 388.802 244.039 388.831 244.316 388.991L246.521 390.26C246.799 390.421 246.828 390.669 246.594 390.8Z" fill="#350B00"/>
<path d="M252.334 387.489L249.983 388.845C249.75 388.991 249.326 388.962 249.049 388.801L246.843 387.532C246.566 387.372 246.537 387.124 246.77 386.993L249.122 385.636C249.355 385.49 249.779 385.52 250.056 385.68L252.261 386.949C252.539 387.109 252.568 387.357 252.334 387.489Z" fill="#350B00"/>
<path d="M258.086 384.163L255.735 385.52C255.501 385.666 255.078 385.637 254.801 385.476L252.595 384.207C252.318 384.047 252.289 383.799 252.522 383.668L254.874 382.311C255.107 382.165 255.531 382.194 255.808 382.355L258.013 383.624C258.291 383.784 258.32 384.032 258.086 384.163Z" fill="#350B00"/>
<path d="M263.827 380.852L261.475 382.209C261.242 382.355 260.818 382.326 260.541 382.165L258.336 380.896C258.058 380.736 258.029 380.488 258.263 380.357L260.614 379C260.847 378.854 261.271 378.883 261.548 379.044L263.754 380.313C264.031 380.473 264.06 380.721 263.827 380.852Z" fill="#350B00"/>
<path d="M269.581 377.542L267.229 378.898C266.996 379.044 266.572 379.015 266.295 378.855L264.089 377.586C263.812 377.425 263.783 377.177 264.016 377.046L266.368 375.69C266.601 375.544 267.025 375.573 267.302 375.733L269.507 377.002C269.785 377.163 269.814 377.411 269.581 377.542Z" fill="#350B00"/>
<path d="M275.334 374.231L272.983 375.587C272.75 375.733 272.326 375.704 272.049 375.543L269.843 374.274C269.566 374.114 269.537 373.866 269.77 373.735L272.122 372.378C272.355 372.232 272.779 372.262 273.056 372.422L275.261 373.691C275.539 373.851 275.568 374.099 275.334 374.231Z" fill="#350B00"/>
<path d="M281.073 370.906L278.721 372.262C278.488 372.393 278.064 372.379 277.787 372.218L275.582 370.949C275.304 370.789 275.275 370.541 275.509 370.41L277.86 369.053C278.094 368.907 278.517 368.937 278.794 369.097L281 370.366C281.277 370.526 281.306 370.774 281.073 370.906Z" fill="#350B00"/>
<path d="M286.829 367.594L284.477 368.951C284.244 369.097 283.82 369.067 283.543 368.907L281.338 367.638C281.06 367.478 281.031 367.23 281.265 367.098L283.616 365.742C283.849 365.596 284.273 365.625 284.55 365.786L286.756 367.055C287.033 367.215 287.062 367.463 286.829 367.594Z" fill="#350B00"/>
<path d="M292.565 364.284L290.214 365.64C289.98 365.786 289.556 365.757 289.279 365.597L287.074 364.328C286.796 364.167 286.767 363.919 287.001 363.788L289.352 362.432C289.586 362.3 290.009 362.315 290.287 362.475L292.492 363.744C292.769 363.905 292.799 364.153 292.565 364.284Z" fill="#350B00"/>
<path d="M298.582 354.526L296.231 355.883C295.998 356.029 295.574 355.999 295.297 355.839L293.091 354.57C292.814 354.41 292.785 354.162 293.018 354.03L295.37 352.674C295.603 352.528 296.027 352.557 296.304 352.718L298.509 353.987C298.787 354.147 298.816 354.395 298.582 354.526Z" fill="#350B00"/>
<path d="M292.842 357.838L290.491 359.194C290.257 359.34 289.834 359.311 289.556 359.15L287.351 357.881C287.074 357.721 287.045 357.473 287.278 357.342L289.629 355.985C289.863 355.839 290.287 355.869 290.564 356.029L292.769 357.298C293.047 357.458 293.076 357.706 292.842 357.838Z" fill="#350B00"/>
<path d="M304.334 351.201L301.983 352.557C301.75 352.703 301.326 352.674 301.049 352.513L298.843 351.245C298.566 351.084 298.537 350.836 298.77 350.705L301.122 349.348C301.355 349.203 301.779 349.232 302.056 349.392L304.261 350.661C304.539 350.822 304.568 351.07 304.334 351.201Z" fill="#350B00"/>
<path d="M310.09 347.89L307.739 349.247C307.505 349.393 307.082 349.363 306.804 349.203L304.599 347.934C304.322 347.774 304.293 347.526 304.526 347.394L306.877 346.038C307.111 345.892 307.535 345.921 307.812 346.082L310.017 347.351C310.295 347.511 310.324 347.759 310.09 347.89Z" fill="#350B00"/>
<path d="M315.829 344.579L313.477 345.936C313.244 346.082 312.82 346.053 312.543 345.892L310.338 344.623C310.06 344.463 310.031 344.215 310.265 344.084L312.616 342.727C312.849 342.581 313.273 342.61 313.55 342.771L315.756 344.04C316.033 344.2 316.062 344.448 315.829 344.579Z" fill="#350B00"/>
<path d="M321.582 341.268L319.231 342.625C318.998 342.771 318.574 342.742 318.297 342.581L316.091 341.312C315.814 341.152 315.785 340.904 316.018 340.773L318.37 339.416C318.603 339.27 319.027 339.299 319.304 339.46L321.509 340.729C321.787 340.889 321.816 341.137 321.582 341.268Z" fill="#350B00"/>
<path d="M327.323 337.943L324.971 339.299C324.738 339.445 324.314 339.416 324.037 339.255L321.832 337.987C321.554 337.826 321.525 337.578 321.759 337.447L324.11 336.09C324.344 335.945 324.767 335.974 325.044 336.134L327.25 337.403C327.527 337.564 327.556 337.812 327.323 337.943Z" fill="#350B00"/>
<path d="M333.077 334.632L330.725 335.989C330.492 336.134 330.068 336.105 329.791 335.945L327.586 334.676C327.308 334.516 327.279 334.268 327.513 334.136L329.864 332.78C330.097 332.634 330.521 332.663 330.798 332.824L333.004 334.093C333.281 334.253 333.31 334.501 333.077 334.632Z" fill="#350B00"/>
<path d="M304.041 357.662L301.69 359.019C301.457 359.165 301.033 359.135 300.756 358.975L298.55 357.706C298.273 357.546 298.244 357.298 298.477 357.166L300.829 355.81C301.062 355.664 301.486 355.693 301.763 355.854L303.968 357.123C304.246 357.283 304.275 357.531 304.041 357.662Z" fill="#350B00"/>
<path d="M298.289 360.988L295.938 362.344C295.705 362.49 295.281 362.461 295.004 362.3L292.798 361.031C292.521 360.871 292.492 360.623 292.725 360.492L295.077 359.135C295.31 358.99 295.734 359.019 296.011 359.179L298.216 360.448C298.494 360.608 298.523 360.856 298.289 360.988Z" fill="#350B00"/>
<path d="M309.797 354.352L307.446 355.708C307.212 355.854 306.789 355.825 306.511 355.664L304.306 354.395C304.029 354.235 304 353.987 304.233 353.856L306.584 352.499C306.818 352.354 307.242 352.383 307.519 352.543L309.724 353.812C310.002 353.973 310.031 354.22 309.797 354.352Z" fill="#350B00"/>
<path d="M315.536 351.04L313.184 352.397C312.951 352.543 312.527 352.514 312.25 352.353L310.045 351.084C309.767 350.924 309.738 350.676 309.972 350.545L312.323 349.188C312.556 349.042 312.98 349.071 313.257 349.232L315.463 350.501C315.74 350.661 315.769 350.909 315.536 351.04Z" fill="#350B00"/>
<path d="M321.289 347.73L318.938 349.086C318.705 349.232 318.281 349.203 318.004 349.043L315.798 347.774C315.521 347.613 315.492 347.365 315.725 347.234L318.077 345.878C318.31 345.732 318.734 345.761 319.011 345.921L321.216 347.19C321.494 347.351 321.523 347.599 321.289 347.73Z" fill="#350B00"/>
<path d="M327.03 344.404L324.679 345.761C324.445 345.906 324.021 345.877 323.744 345.717L321.539 344.448C321.261 344.287 321.232 344.04 321.466 343.908L323.817 342.552C324.051 342.406 324.474 342.435 324.752 342.596L326.957 343.865C327.234 344.025 327.263 344.273 327.03 344.404Z" fill="#350B00"/>
<path d="M332.784 341.094L330.432 342.45C330.199 342.581 329.775 342.567 329.498 342.406L327.293 341.137C327.015 340.977 326.986 340.729 327.22 340.598L329.571 339.241C329.804 339.095 330.228 339.125 330.505 339.285L332.711 340.554C332.988 340.714 333.017 340.962 332.784 341.094Z" fill="#350B00"/>
<path d="M98.7856 385.753L96.4344 387.109C96.2007 387.255 95.7772 387.226 95.4997 387.066L93.2946 385.797C93.0171 385.636 92.9879 385.388 93.2215 385.257L95.5727 383.901C95.8064 383.755 96.2299 383.784 96.5074 383.945L98.7126 385.213C98.99 385.374 99.0192 385.622 98.7856 385.753Z" fill="#350B00"/>
<path d="M93.0317 389.064L90.6805 390.42C90.4468 390.566 90.0233 390.537 89.7458 390.376L87.5406 389.107C87.2632 388.947 87.234 388.699 87.4676 388.568L89.8188 387.211C90.0525 387.065 90.476 387.095 90.7535 387.255L92.9587 388.524C93.2361 388.684 93.2653 388.932 93.0317 389.064Z" fill="#350B00"/>
<path d="M104.553 389.078L102.202 390.435C101.968 390.581 101.545 390.551 101.267 390.391L99.0621 389.122C98.7847 388.962 98.7555 388.714 98.9891 388.582L101.34 387.226C101.574 387.08 101.997 387.109 102.275 387.27L104.48 388.539C104.758 388.699 104.787 388.947 104.553 389.078Z" fill="#350B00"/>
<path d="M98.8149 392.389L96.4637 393.746C96.23 393.892 95.8065 393.862 95.529 393.702L93.3238 392.433C93.0464 392.273 93.0172 392.025 93.2508 391.893L95.602 390.537C95.8357 390.391 96.2592 390.42 96.5367 390.581L98.7419 391.85C99.0193 392.01 99.0485 392.258 98.8149 392.389Z" fill="#350B00"/>
<path d="M110.014 392.229L107.663 393.585C107.429 393.731 107.006 393.702 106.728 393.541L104.523 392.272C104.246 392.112 104.216 391.864 104.45 391.733L106.801 390.376C107.035 390.23 107.458 390.26 107.736 390.42L109.941 391.689C110.219 391.849 110.248 392.097 110.014 392.229Z" fill="#350B00"/>
<path d="M104.262 395.539L101.911 396.896C101.677 397.042 101.254 397.013 100.976 396.852L98.7711 395.583C98.4936 395.423 98.4644 395.175 98.6981 395.044L101.049 393.687C101.283 393.541 101.706 393.57 101.984 393.731L104.189 395C104.467 395.16 104.496 395.408 104.262 395.539Z" fill="#350B00"/>
<path d="M115.463 395.379L113.112 396.736C112.878 396.882 112.455 396.852 112.177 396.692L109.972 395.423C109.695 395.263 109.666 395.015 109.899 394.883L112.25 393.527C112.484 393.381 112.908 393.41 113.185 393.571L115.39 394.84C115.668 395 115.697 395.248 115.463 395.379Z" fill="#350B00"/>
<path d="M109.725 398.69L107.374 400.046C107.14 400.192 106.717 400.163 106.439 400.003L104.234 398.734C103.957 398.573 103.927 398.325 104.161 398.194L106.512 396.838C106.746 396.692 107.169 396.721 107.447 396.882L109.652 398.15C109.929 398.311 109.959 398.559 109.725 398.69Z" fill="#350B00"/>
<path d="M121.247 398.705L118.895 400.061C118.662 400.207 118.238 400.178 117.961 400.017L115.755 398.748C115.478 398.588 115.449 398.34 115.682 398.209L118.034 396.852C118.267 396.707 118.691 396.736 118.968 396.896L121.173 398.165C121.451 398.326 121.48 398.573 121.247 398.705Z" fill="#350B00"/>
<path d="M115.493 402.016L113.141 403.372C112.908 403.518 112.484 403.489 112.207 403.328L110.002 402.059C109.724 401.899 109.695 401.651 109.929 401.52L112.28 400.163C112.513 400.017 112.937 400.047 113.214 400.207L115.42 401.476C115.697 401.636 115.726 401.884 115.493 402.016Z" fill="#350B00"/>
<path d="M126.987 395.394L124.636 396.751C124.402 396.896 123.978 396.867 123.701 396.707L121.496 395.438C121.218 395.278 121.189 395.03 121.423 394.898L123.774 393.542C124.008 393.396 124.431 393.425 124.709 393.586L126.914 394.855C127.191 395.015 127.22 395.263 126.987 395.394Z" fill="#350B00"/>
<path d="M132.741 392.069L130.389 393.425C130.156 393.571 129.732 393.542 129.455 393.381L127.25 392.112C126.972 391.952 126.943 391.704 127.177 391.573L129.528 390.216C129.761 390.07 130.185 390.099 130.462 390.26L132.668 391.529C132.945 391.689 132.974 391.937 132.741 392.069Z" fill="#350B00"/>
<path d="M138.495 388.758L136.143 390.114C135.91 390.26 135.486 390.231 135.209 390.071L133.004 388.802C132.726 388.641 132.697 388.393 132.931 388.262L135.282 386.906C135.515 386.76 135.939 386.789 136.216 386.949L138.422 388.218C138.699 388.379 138.728 388.627 138.495 388.758Z" fill="#350B00"/>
<path d="M126.694 401.855L124.343 403.211C124.109 403.357 123.685 403.328 123.408 403.168L121.203 401.899C120.925 401.738 120.896 401.49 121.13 401.359L123.481 400.003C123.715 399.857 124.138 399.886 124.416 400.046L126.621 401.315C126.898 401.476 126.927 401.724 126.694 401.855Z" fill="#350B00"/>
<path d="M132.448 398.53L130.096 399.886C129.863 400.032 129.439 400.003 129.162 399.842L126.957 398.573C126.679 398.413 126.65 398.165 126.884 398.034L129.235 396.677C129.469 396.532 129.892 396.561 130.169 396.721L132.375 397.99C132.652 398.15 132.681 398.398 132.448 398.53Z" fill="#350B00"/>
<path d="M138.188 395.219L135.837 396.576C135.603 396.721 135.18 396.692 134.902 396.532L132.697 395.263C132.419 395.102 132.39 394.854 132.624 394.723L134.975 393.367C135.209 393.221 135.632 393.25 135.91 393.411L138.115 394.679C138.392 394.84 138.422 395.088 138.188 395.219Z" fill="#350B00"/>
<path d="M143.94 391.908L141.589 393.265C141.355 393.41 140.931 393.381 140.654 393.221L138.449 391.952C138.171 391.791 138.142 391.543 138.376 391.412L140.727 390.056C140.961 389.91 141.384 389.939 141.662 390.1L143.867 391.368C144.144 391.529 144.174 391.777 143.94 391.908Z" fill="#350B00"/>
<path d="M75.6254 379.613L73.2742 380.97C73.0406 381.101 72.617 381.086 72.3396 380.926L70.1344 379.657C69.8569 379.496 69.8277 379.249 70.0614 379.117L72.4126 377.761C72.6462 377.615 73.0698 377.644 73.3472 377.805L75.5524 379.074C75.8299 379.234 75.8591 379.482 75.6254 379.613Z" fill="#350B00"/>
<path d="M81.0746 382.764L78.7234 384.12C78.4898 384.266 78.0663 384.237 77.7888 384.076L75.5836 382.807C75.3061 382.647 75.2769 382.399 75.5106 382.268L77.8618 380.911C78.0955 380.765 78.519 380.795 78.7965 380.955L81.0016 382.224C81.2791 382.384 81.3083 382.632 81.0746 382.764Z" fill="#350B00"/>
<path d="M75.3344 386.074L72.9832 387.431C72.7495 387.577 72.326 387.547 72.0486 387.387L69.8434 386.118C69.5659 385.958 69.5367 385.71 69.7704 385.578L72.1216 384.222C72.3552 384.076 72.7787 384.105 73.0562 384.266L75.2614 385.535C75.5389 385.695 75.5681 385.943 75.3344 386.074Z" fill="#350B00"/>
<path d="M86.5336 385.914L84.1824 387.27C83.9488 387.416 83.5252 387.387 83.2478 387.226L81.0426 385.957C80.7651 385.797 80.7359 385.549 80.9696 385.418L83.3208 384.061C83.5545 383.916 83.978 383.945 84.2554 384.105L86.4606 385.374C86.7381 385.535 86.7673 385.782 86.5336 385.914Z" fill="#350B00"/>
<path d="M80.7817 389.225L78.4305 390.581C78.1968 390.727 77.7733 390.698 77.4958 390.538L75.2906 389.269C75.0132 389.108 74.984 388.86 75.2176 388.729L77.5688 387.373C77.8025 387.227 78.226 387.256 78.5035 387.416L80.7087 388.685C80.9861 388.846 81.0153 389.094 80.7817 389.225Z" fill="#350B00"/>
<path d="M86.5649 392.551L84.2137 393.907C83.98 394.053 83.5565 394.024 83.279 393.863L81.0738 392.594C80.7964 392.434 80.7672 392.186 81.0008 392.055L83.352 390.698C83.5857 390.567 84.0092 390.582 84.2867 390.742L86.4919 392.011C86.7693 392.171 86.7985 392.419 86.5649 392.551Z" fill="#350B00"/>
<path d="M193.375 345.308C193.375 345.308 193.375 345.22 193.375 345.191V333.815L180.567 334.107L161.203 323.153C156.033 320.163 149.651 320.163 144.467 323.153L99.4724 349.523L77.9172 353.549V365.173C77.7128 367.55 78.7789 370.015 81.1447 371.372L110.046 387.824C115.215 390.814 121.597 390.814 126.782 387.824L190.089 350.909C192.221 349.684 193.302 347.554 193.346 345.41V345.323L193.375 345.308Z" fill="#E59636"/>
<path d="M118.428 390.785C115.405 390.785 112.382 390.012 109.68 388.451L80.7793 371.999C78.3113 370.585 76.9385 367.93 77.1722 365.086V352.907L99.2093 348.794L144.087 322.497C149.49 319.391 156.179 319.391 161.568 322.497L180.742 333.349L194.105 333.042V346.096H194.046C193.784 348.386 192.484 350.384 190.454 351.551L127.146 388.466C124.445 390.012 121.422 390.8 118.399 390.8L118.428 390.785ZM78.6764 354.147V365.144C78.4865 367.463 79.5818 369.578 81.5387 370.701L110.44 387.153C115.376 389.997 121.495 389.997 126.431 387.153L189.738 350.238C191.505 349.217 192.571 347.409 192.63 345.367V345.133V334.545L180.377 334.822L160.837 323.766C155.901 320.922 149.782 320.922 144.846 323.766L99.7497 350.194L78.6764 354.132V354.147Z" fill="#350B00"/>
<path d="M81.1604 359.747L110.061 376.199C115.231 379.189 121.613 379.189 126.797 376.199L190.105 339.284C194.457 336.776 194.457 330.504 190.105 327.981L161.204 311.529C156.034 308.539 149.652 308.539 144.468 311.529L81.1604 348.444C76.8085 350.953 76.8085 357.224 81.1604 359.747Z" fill="white"/>
<path d="M118.429 379.175C115.406 379.175 112.383 378.402 109.682 376.841L80.7809 360.389C78.5027 359.076 77.1445 356.728 77.1445 354.088C77.1445 351.463 78.5027 349.1 80.7809 347.788L144.088 310.872C149.492 307.766 156.18 307.766 161.569 310.872L190.47 327.325C192.748 328.637 194.106 331 194.106 333.625C194.106 336.251 192.748 338.613 190.47 339.926L127.163 376.841C124.461 378.387 121.438 379.175 118.415 379.175H118.429ZM81.5257 359.091L110.427 375.543C115.363 378.387 121.482 378.387 126.418 375.543L189.725 338.628C191.536 337.578 192.617 335.711 192.617 333.625C192.617 331.54 191.536 329.673 189.725 328.623L160.824 312.171C155.888 309.326 149.769 309.326 144.833 312.171L81.5257 349.086C79.7148 350.136 78.6341 352.003 78.6341 354.088C78.6341 356.174 79.7148 358.041 81.5257 359.091Z" fill="#350B00"/>
<path d="M85.1615 361.483H83.6719V373.545H85.1615V361.483Z" fill="#350B00"/>
<path d="M118.853 378.139H117.363V390.201H118.853V378.139Z" fill="#350B00"/>
<path d="M126.243 376.448H124.754V388.51H126.243V376.448Z" fill="#350B00"/>
<path d="M188.249 340.393H186.76V352.455H188.249V340.393Z" fill="#350B00"/>
<path d="M128.213 375.382V386.978L185.124 353.811V342.201L128.213 375.382Z" fill="#350B00"/>
<path d="M111.403 370.249C111.403 370.249 111.403 367.58 111.403 367.055C111.403 366.997 111.374 366.953 111.315 366.939L89.7895 372.51C89.7895 372.51 89.7749 372.51 89.7603 372.51L95.9085 360.448C95.9085 360.448 95.8209 360.434 95.7916 360.448L75.3901 372.189C75.3901 372.189 75.3317 372.204 75.3025 372.189L72.8199 371.504C72.7468 371.489 72.6738 371.533 72.6738 371.62C72.6738 372.248 72.6738 374.61 72.6884 374.683C72.7322 375.121 72.9513 375.515 73.3602 375.763L86.4306 383.332C87.5405 383.974 88.9133 383.974 90.0377 383.332L110.731 371.431C111.169 371.168 111.403 370.731 111.418 370.279V370.249H111.403Z" fill="#E59636"/>
<path d="M88.2281 384.368C87.4979 384.368 86.7823 384.178 86.1397 383.799L73.0693 376.229C72.529 375.909 72.1785 375.369 72.1201 374.742C72.1201 374.669 72.1201 374.61 72.1055 371.591C72.1055 371.373 72.2077 371.168 72.3829 371.037C72.5582 370.906 72.7772 370.862 72.9963 370.92L75.2891 371.562L95.53 359.923C95.7344 359.807 96.0119 359.807 96.2163 359.923L96.6837 360.2L90.8567 371.635L111.346 366.341L111.492 366.384C111.799 366.472 112.003 366.734 112.003 367.041V367.799C112.003 368.776 112.003 370.235 112.003 370.25V370.322C111.974 370.964 111.609 371.562 111.025 371.898L90.331 383.799C89.6884 384.164 88.9729 384.353 88.2427 384.353L88.2281 384.368ZM73.23 372.204C73.23 373.108 73.23 374.508 73.23 374.64C73.2446 374.786 73.3176 375.077 73.6243 375.252L86.6947 382.822C87.6293 383.362 88.783 383.362 89.7176 382.822L110.411 370.92C110.66 370.775 110.806 370.527 110.82 370.25C110.82 370.191 110.82 368.776 110.82 367.814V367.668L89.7615 373.108L89.4548 372.992L89.0021 372.714L94.5661 361.79L75.6542 372.671C75.4936 372.758 75.3037 372.787 75.1285 372.744L73.23 372.219V372.204Z" fill="#350B00"/>
<path d="M111.315 366.953L89.7888 372.525C89.7888 372.525 89.7742 372.525 89.7596 372.525L88.1094 377.323V383.828C88.7665 383.843 89.4237 383.697 90.0079 383.347L110.701 371.445C111.14 371.183 111.373 370.745 111.388 370.293V370.264C111.388 370.264 111.388 367.595 111.388 367.07C111.388 367.011 111.359 366.968 111.3 366.953H111.315Z" fill="#350B00"/>
<path d="M88.2274 384.382C88.2274 384.382 88.1398 384.382 88.096 384.382H87.541L87.5702 377.119L89.4541 371.649L89.8776 371.897L111.331 366.355L111.477 366.399C111.783 366.486 111.988 366.749 111.988 367.055V367.813C111.988 368.791 111.988 370.249 111.988 370.264C111.959 370.978 111.593 371.576 111.009 371.912L90.3157 383.813C89.6878 384.178 88.9722 384.368 88.242 384.368L88.2274 384.382ZM88.6947 377.411V383.215C89.0598 383.157 89.4249 383.04 89.7462 382.851L110.44 370.949C110.688 370.803 110.834 370.556 110.849 370.278C110.849 370.22 110.849 368.791 110.849 367.843V367.697L90.2135 373.035L88.7093 377.425L88.6947 377.411Z" fill="#350B00"/>
<path d="M74.6746 373.269C74.6746 373.269 74.8644 372.744 75.1127 372.073L72.8199 371.431C72.7468 371.417 72.6738 371.46 72.6738 371.548C72.6738 372.175 72.6738 374.538 72.6884 374.611C72.7322 375.048 72.9513 375.442 73.3602 375.69L74.6746 376.449V373.269Z" fill="#350B00"/>
<path d="M75.2453 377.44L73.0693 376.171C72.529 375.85 72.1785 375.311 72.1201 374.684C72.1201 374.625 72.1201 374.552 72.1055 371.533C72.1055 371.314 72.2077 371.11 72.3683 370.979C72.5436 370.848 72.7626 370.804 72.9817 370.862L75.8586 371.664L75.6542 372.248C75.4789 372.758 75.3183 373.181 75.2453 373.356V377.426V377.44ZM73.2446 372.146C73.2446 373.05 73.2446 374.45 73.2446 374.581C73.2592 374.727 73.3322 375.019 73.6389 375.194L74.0916 375.457L74.1208 373.065C74.1208 373.065 74.2084 372.817 74.3398 372.452L73.2154 372.146H73.2446Z" fill="#350B00"/>
<path d="M86.4888 380.167L73.36 372.568C72.4399 372.029 72.4399 370.701 73.36 370.162L94.1119 358.231C95.1926 357.604 96.5216 357.604 97.5877 358.231L110.716 365.83C111.637 366.37 111.637 367.697 110.716 368.237L89.9645 380.167C88.8838 380.794 87.5548 380.794 86.4888 380.167Z" fill="white"/>
<path d="M88.227 381.217C87.5261 381.217 86.8251 381.042 86.1971 380.678L73.0683 373.079C72.4549 372.729 72.0898 372.087 72.0898 371.387C72.0898 370.672 72.4549 370.045 73.0683 369.695L93.8203 357.765C95.0762 357.05 96.6242 357.05 97.8801 357.765L111.009 365.363C111.622 365.713 111.987 366.355 111.987 367.055C111.987 367.755 111.622 368.397 111.009 368.747L90.257 380.678C89.629 381.042 88.928 381.217 88.2416 381.217H88.227ZM95.8502 358.333C95.3537 358.333 94.8426 358.465 94.4044 358.727L73.6524 370.658C73.4042 370.804 73.2435 371.066 73.2435 371.358C73.2435 371.65 73.3896 371.912 73.6524 372.073L86.7813 379.671C87.6721 380.197 88.7966 380.197 89.6874 379.671L110.439 367.741C110.688 367.595 110.848 367.332 110.848 367.041C110.848 366.749 110.702 366.486 110.439 366.326L97.3106 358.727C96.8579 358.465 96.3614 358.333 95.8502 358.333Z" fill="#350B00"/>
<path d="M100.378 357.371L96.7851 355.27C96.6391 355.183 96.4931 355.183 96.3908 355.256L92.0243 357.969C91.9513 358.012 91.9221 358.129 91.9659 358.202L96.1718 362.709C96.1718 362.709 96.201 362.767 96.201 362.796V364.255C96.201 364.678 97.9096 363.453 98.2309 363.642C98.2309 363.642 98.2747 363.672 98.2893 363.701L96.1426 365.043C96.1864 365.13 96.3032 365.159 96.3762 365.101L100.757 362.373C100.757 362.373 100.947 362.14 100.947 361.921V358.479C100.947 358.056 100.684 357.56 100.363 357.371H100.378Z" fill="white"/>
<path d="M96.3028 365.699C96.3028 365.699 96.1859 365.699 96.1275 365.684C95.9377 365.641 95.7624 365.509 95.6602 365.349L95.3681 364.868L95.6894 364.678L95.6602 364.284V362.986L91.5127 358.523C91.3083 358.173 91.4105 357.721 91.761 357.517L96.1275 354.804C96.405 354.614 96.7701 354.614 97.106 354.804L100.698 356.904C101.195 357.196 101.56 357.881 101.56 358.494V361.936C101.56 362.33 101.312 362.665 101.239 362.753L101.093 362.869L96.7117 365.597C96.5948 365.67 96.4634 365.714 96.3174 365.714L96.3028 365.699ZM92.754 358.202L96.6824 362.417C96.7555 362.534 96.7847 362.665 96.7847 362.811V363.57C96.7847 363.57 96.8869 363.526 96.9307 363.497C97.5879 363.176 98.0698 362.928 98.4787 363.132L100.363 361.965C100.363 361.965 100.392 361.921 100.392 361.907V358.479C100.392 358.231 100.217 357.94 100.1 357.867L96.5948 355.81L92.7686 358.188L92.754 358.202Z" fill="#350B00"/>
<path d="M93.0898 362.082C93.0898 362.082 93.0898 362.184 93.0605 362.373L96.1127 364.94C96.2004 365.086 96.3756 365.13 96.5216 365.042L100.801 362.388C100.801 362.388 100.99 362.155 100.99 361.936V358.712C100.99 358.625 100.888 358.567 100.815 358.61L96.4924 361.294C96.4924 361.294 96.4632 361.323 96.4486 361.338L93.0898 362.096V362.082Z" fill="#350B00"/>
<path d="M96.3758 365.655C96.3758 365.655 96.2443 365.655 96.1713 365.626C95.9815 365.582 95.8208 365.48 95.704 365.334L92.4766 362.621L92.5788 361.629L96.2005 360.813L100.509 358.129C100.728 357.998 100.991 357.983 101.21 358.114C101.429 358.231 101.56 358.464 101.56 358.712V361.936C101.56 362.33 101.312 362.665 101.239 362.752L101.093 362.869L96.8139 365.524C96.6825 365.611 96.5218 365.655 96.3612 365.655H96.3758ZM94.0538 362.446L96.4196 364.43L100.406 361.95C100.406 361.95 100.436 361.907 100.436 361.892V359.5L96.9015 361.702L96.8285 361.819L94.0538 362.446Z" fill="#350B00"/>
<path d="M95.8505 365.174L92.258 363.074C91.9367 362.884 91.6738 362.403 91.6738 361.965V358.523C91.6738 358.1 91.9367 357.896 92.258 358.086L95.8505 360.186C96.1718 360.375 96.4347 360.857 96.4347 361.294V364.736C96.4347 365.159 96.1718 365.364 95.8505 365.174Z" fill="#E59636"/>
<path d="M96.0844 365.816C95.9092 365.816 95.7339 365.772 95.5733 365.67L91.9808 363.569C91.4988 363.292 91.1191 362.607 91.1191 361.98V358.538C91.1191 358.1 91.2944 357.75 91.6011 357.575C91.8931 357.414 92.229 357.429 92.5503 357.604L96.1428 359.704C96.6248 359.981 97.0045 360.667 97.0045 361.294V364.736C97.0045 365.174 96.8292 365.524 96.5225 365.699C96.3911 365.772 96.2451 365.816 96.0844 365.816ZM92.2728 358.756V361.965C92.2728 362.213 92.4481 362.505 92.5649 362.578L95.8654 364.503V361.294C95.8654 361.046 95.6901 360.754 95.5733 360.682L92.2728 358.756Z" fill="#350B00"/>
<path d="M100.417 360.411L96.5762 362.72L97.0281 363.47L100.869 361.16L100.417 360.411Z" fill="#E59636"/>
<path d="M329.051 324.612C329.051 324.612 329.051 324.524 329.051 324.495V313.119L316.244 313.41L198.435 246.173C193.265 243.183 186.883 243.183 181.699 246.173L80.4217 305.593L58.8665 309.618V321.243C58.662 323.62 59.7281 326.085 62.0939 327.441L189.439 400.192C194.609 403.182 200.991 403.182 206.175 400.192L325.765 330.213C327.898 328.987 328.978 326.858 329.022 324.714V324.626L329.051 324.612Z" fill="#E59636"/>
<path d="M197.837 403.153C194.814 403.153 191.791 402.38 189.089 400.819L61.7442 328.083C59.2761 326.668 57.9034 324.014 58.137 321.17V308.991L80.1742 304.878L181.335 245.516C186.738 242.41 193.427 242.41 198.815 245.516L316.434 312.652L329.797 312.345V325.399H329.738C329.476 327.689 328.176 329.687 326.161 330.839L206.57 400.819C203.868 402.365 200.845 403.153 197.822 403.153H197.837ZM59.6266 310.216V321.228C59.4368 323.547 60.532 325.662 62.489 326.785L189.834 399.536C194.77 402.38 200.889 402.38 205.825 399.536L325.416 329.556C327.183 328.535 328.263 326.726 328.307 324.685V324.437V313.877L316.055 314.154L198.071 246.814C193.135 243.97 187.016 243.97 182.079 246.814L80.6999 306.307L59.6266 310.231V310.216Z" fill="#350B00"/>
<path d="M62.1126 315.831L189.458 388.582C194.628 391.572 201.009 391.572 206.194 388.582L325.784 318.602C330.136 316.094 330.136 309.822 325.784 307.299L198.439 234.548C193.269 231.558 186.887 231.558 181.703 234.548L62.1272 304.528C57.7753 307.036 57.7753 313.308 62.1272 315.831H62.1126Z" fill="white"/>
<path d="M197.84 391.557C194.817 391.557 191.794 390.784 189.093 389.224L61.7477 316.473C59.4695 315.16 58.1113 312.812 58.1113 310.172C58.1113 307.547 59.4695 305.184 61.7477 303.871L181.338 233.892C186.742 230.785 193.43 230.785 198.819 233.892L326.164 306.643C328.442 307.955 329.8 310.318 329.8 312.943C329.8 315.569 328.442 317.931 326.164 319.244L206.574 389.224C203.872 390.77 200.849 391.557 197.826 391.557H197.84ZM62.4925 315.175L189.838 387.926C194.774 390.77 200.893 390.77 205.829 387.926L325.419 317.946C327.23 316.896 328.311 315.029 328.311 312.943C328.311 310.858 327.23 308.991 325.419 307.941L198.074 235.19C193.138 232.346 187.019 232.346 182.083 235.19L62.4925 305.169C60.6816 306.22 59.6009 308.086 59.6009 310.172C59.6009 312.258 60.6816 314.125 62.4925 315.175Z" fill="#350B00"/>
<path d="M66.1107 317.567H64.6211V329.629H66.1107V317.567Z" fill="#350B00"/>
<path d="M198.263 390.507H196.773V402.569H198.263V390.507Z" fill="#350B00"/>
<path d="M205.636 388.815H204.146V400.877H205.636V388.815Z" fill="#350B00"/>
<path d="M323.925 319.697H322.436V331.758H323.925V319.697Z" fill="#350B00"/>
<path d="M207.605 387.751V399.346L320.8 333.115V321.52L207.605 387.751Z" fill="#350B00"/>
<path d="M179.59 325.618C180.516 326.151 180.516 327.017 179.59 327.551C178.664 328.084 177.164 328.084 176.238 327.551C175.311 327.017 175.311 326.151 176.238 325.618C177.164 325.084 178.664 325.084 179.59 325.618Z" fill="#350B00"/>
<path d="M188.348 320.564C189.274 321.098 189.274 321.964 188.348 322.497C187.422 323.031 185.922 323.031 184.995 322.497C184.069 321.964 184.069 321.098 184.995 320.564C185.922 320.031 187.422 320.031 188.348 320.564Z" fill="#350B00"/>
<path d="M197.11 315.51C198.036 316.044 198.036 316.91 197.11 317.443C196.183 317.977 194.683 317.977 193.757 317.443C192.831 316.91 192.831 316.044 193.757 315.51C194.683 314.977 196.183 314.977 197.11 315.51Z" fill="#350B00"/>
<path d="M205.867 310.447C206.794 310.98 206.794 311.846 205.867 312.38C204.941 312.913 203.441 312.913 202.515 312.38C201.589 311.846 201.589 310.98 202.515 310.447C203.441 309.913 204.941 309.913 205.867 310.447Z" fill="#350B00"/>
<path d="M170.832 320.564C171.759 321.098 171.759 321.964 170.832 322.497C169.906 323.031 168.406 323.031 167.48 322.497C166.554 321.964 166.554 321.098 167.48 320.564C168.406 320.031 169.906 320.031 170.832 320.564Z" fill="#350B00"/>
<path d="M179.59 315.51C180.516 316.044 180.516 316.91 179.59 317.443C178.664 317.977 177.164 317.977 176.238 317.443C175.311 316.91 175.311 316.044 176.238 315.51C177.164 314.977 178.664 314.977 179.59 315.51Z" fill="#350B00"/>
<path d="M188.348 310.447C189.274 310.98 189.274 311.846 188.348 312.38C187.422 312.913 185.922 312.913 184.995 312.38C184.069 311.846 184.069 310.98 184.995 310.447C185.922 309.913 187.422 309.913 188.348 310.447Z" fill="#350B00"/>
<path d="M197.11 305.393C198.036 305.926 198.036 306.792 197.11 307.326C196.183 307.859 194.683 307.859 193.757 307.326C192.831 306.792 192.831 305.926 193.757 305.393C194.683 304.859 196.183 304.859 197.11 305.393Z" fill="#350B00"/>
<path d="M162.073 315.51C162.999 316.044 162.999 316.91 162.073 317.443C161.146 317.977 159.646 317.977 158.72 317.443C157.794 316.91 157.794 316.044 158.72 315.51C159.646 314.977 161.146 314.977 162.073 315.51Z" fill="#350B00"/>
<path d="M170.832 310.457C171.759 310.991 171.759 311.856 170.832 312.39C169.906 312.924 168.406 312.924 167.48 312.39C166.554 311.856 166.554 310.991 167.48 310.457C168.406 309.923 169.906 309.923 170.832 310.457Z" fill="#350B00"/>
<path d="M179.59 305.393C180.516 305.926 180.516 306.792 179.59 307.326C178.664 307.859 177.164 307.859 176.238 307.326C175.311 306.792 175.311 305.926 176.238 305.393C177.164 304.859 178.664 304.859 179.59 305.393Z" fill="#350B00"/>
<path d="M188.348 300.339C189.274 300.873 189.274 301.739 188.348 302.272C187.422 302.806 185.922 302.806 184.995 302.272C184.069 301.739 184.069 300.873 184.995 300.339C185.922 299.806 187.422 299.806 188.348 300.339Z" fill="#350B00"/>
<path d="M153.315 310.457C154.241 310.991 154.241 311.856 153.315 312.39C152.389 312.924 150.888 312.924 149.962 312.39C149.036 311.856 149.036 310.991 149.962 310.457C150.888 309.923 152.389 309.923 153.315 310.457Z" fill="#350B00"/>
<path d="M162.073 305.393C162.999 305.926 162.999 306.792 162.073 307.326C161.146 307.859 159.646 307.859 158.72 307.326C157.794 306.792 157.794 305.926 158.72 305.393C159.646 304.859 161.146 304.859 162.073 305.393Z" fill="#350B00"/>
<path d="M170.832 300.339C171.759 300.873 171.759 301.739 170.832 302.272C169.906 302.806 168.406 302.806 167.48 302.272C166.554 301.739 166.554 300.873 167.48 300.339C168.406 299.806 169.906 299.806 170.832 300.339Z" fill="#350B00"/>
<path d="M179.59 295.284C180.516 295.818 180.516 296.683 179.59 297.217C178.664 297.751 177.164 297.751 176.238 297.217C175.311 296.683 175.311 295.818 176.238 295.284C177.164 294.75 178.664 294.75 179.59 295.284Z" fill="#350B00"/>
<path d="M144.569 305.393C145.495 305.926 145.495 306.792 144.569 307.326C143.642 307.859 142.142 307.859 141.216 307.326C140.29 306.792 140.29 305.926 141.216 305.393C142.142 304.859 143.642 304.859 144.569 305.393Z" fill="#350B00"/>
<path d="M153.315 300.339C154.241 300.873 154.241 301.739 153.315 302.272C152.389 302.806 150.888 302.806 149.962 302.272C149.036 301.739 149.036 300.873 149.962 300.339C150.888 299.806 152.389 299.806 153.315 300.339Z" fill="#350B00"/>
<path d="M162.073 295.284C162.999 295.818 162.999 296.683 162.073 297.217C161.146 297.751 159.646 297.751 158.72 297.217C157.794 296.683 157.794 295.818 158.72 295.284C159.646 294.75 161.146 294.75 162.073 295.284Z" fill="#350B00"/>
<path d="M170.832 290.221C171.759 290.754 171.759 291.62 170.832 292.154C169.906 292.687 168.406 292.687 167.48 292.154C166.554 291.62 166.554 290.754 167.48 290.221C168.406 289.687 169.906 289.687 170.832 290.221Z" fill="#350B00"/>
<path d="M135.727 300.288C136.653 300.821 136.653 301.687 135.727 302.221C134.801 302.754 133.301 302.754 132.374 302.221C131.448 301.687 131.448 300.821 132.374 300.288C133.301 299.754 134.801 299.754 135.727 300.288Z" fill="#350B00"/>
<path d="M144.489 295.224C145.415 295.757 145.415 296.623 144.489 297.157C143.562 297.69 142.062 297.69 141.136 297.157C140.21 296.623 140.21 295.757 141.136 295.224C142.062 294.69 143.562 294.69 144.489 295.224Z" fill="#350B00"/>
<path d="M153.246 290.171C154.173 290.705 154.173 291.57 153.246 292.104C152.32 292.637 150.82 292.637 149.894 292.104C148.968 291.57 148.968 290.705 149.894 290.171C150.82 289.637 152.32 289.637 153.246 290.171Z" fill="#350B00"/>
<path d="M162 285.117C162.926 285.65 162.926 286.516 162 287.05C161.074 287.583 159.574 287.583 158.648 287.05C157.722 286.516 157.722 285.65 158.648 285.117C159.574 284.583 161.074 284.583 162 285.117Z" fill="#350B00"/>
<path d="M135.727 290.171C136.653 290.705 136.653 291.57 135.727 292.104C134.801 292.637 133.301 292.637 132.374 292.104C131.448 291.57 131.448 290.705 132.374 290.171C133.301 289.637 134.801 289.637 135.727 290.171Z" fill="#350B00"/>
<path d="M144.489 285.117C145.415 285.65 145.415 286.516 144.489 287.05C143.562 287.583 142.062 287.583 141.136 287.05C140.21 286.516 140.21 285.65 141.136 285.117C142.062 284.583 143.562 284.583 144.489 285.117Z" fill="#350B00"/>
<path d="M223.727 339.984C224.653 340.518 224.653 341.384 223.727 341.917C222.801 342.451 221.301 342.451 220.374 341.917C219.448 341.384 219.448 340.518 220.374 339.984C221.301 339.451 222.801 339.451 223.727 339.984Z" fill="#350B00"/>
<path d="M232.487 334.921C233.413 335.455 233.413 336.32 232.487 336.854C231.56 337.387 230.06 337.387 229.134 336.854C228.208 336.32 228.208 335.455 229.134 334.921C230.06 334.387 231.56 334.387 232.487 334.921Z" fill="#350B00"/>
<path d="M206.209 339.984C207.135 340.518 207.135 341.384 206.209 341.917C205.283 342.451 203.783 342.451 202.857 341.917C201.931 341.384 201.931 340.518 202.857 339.984C203.783 339.451 205.283 339.451 206.209 339.984Z" fill="#350B00"/>
<path d="M214.969 334.921C215.895 335.455 215.895 336.32 214.969 336.854C214.043 337.387 212.543 337.387 211.617 336.854C210.69 336.32 210.69 335.455 211.617 334.921C212.543 334.387 214.043 334.387 214.969 334.921Z" fill="#350B00"/>
<path d="M223.727 329.866C224.653 330.4 224.653 331.266 223.727 331.799C222.801 332.333 221.301 332.333 220.374 331.799C219.448 331.266 219.448 330.4 220.374 329.866C221.301 329.333 222.801 329.333 223.727 329.866Z" fill="#350B00"/>
<path d="M232.487 324.813C233.413 325.347 233.413 326.213 232.487 326.746C231.56 327.28 230.06 327.28 229.134 326.746C228.208 326.213 228.208 325.347 229.134 324.813C230.06 324.28 231.56 324.28 232.487 324.813Z" fill="#350B00"/>
<path d="M197.453 334.921C198.38 335.455 198.38 336.32 197.453 336.854C196.527 337.387 195.027 337.387 194.101 336.854C193.175 336.32 193.175 335.455 194.101 334.921C195.027 334.387 196.527 334.387 197.453 334.921Z" fill="#350B00"/>
<path d="M206.209 329.866C207.135 330.4 207.135 331.266 206.209 331.799C205.283 332.333 203.783 332.333 202.857 331.799C201.931 331.266 201.931 330.4 202.857 329.866C203.783 329.333 205.283 329.333 206.209 329.866Z" fill="#350B00"/>
<path d="M214.969 324.813C215.895 325.347 215.895 326.213 214.969 326.746C214.043 327.28 212.543 327.28 211.617 326.746C210.69 326.213 210.69 325.347 211.617 324.813C212.543 324.28 214.043 324.28 214.969 324.813Z" fill="#350B00"/>
<path d="M223.727 319.759C224.653 320.293 224.653 321.159 223.727 321.692C222.801 322.226 221.301 322.226 220.374 321.692C219.448 321.159 219.448 320.293 220.374 319.759C221.301 319.226 222.801 319.226 223.727 319.759Z" fill="#350B00"/>
<path d="M188.69 329.866C189.616 330.4 189.616 331.266 188.69 331.799C187.764 332.333 186.263 332.333 185.337 331.799C184.411 331.266 184.411 330.4 185.337 329.866C186.263 329.333 187.764 329.333 188.69 329.866Z" fill="#350B00"/>
<path d="M197.453 324.813C198.38 325.347 198.38 326.213 197.453 326.746C196.527 327.28 195.027 327.28 194.101 326.746C193.175 326.213 193.175 325.347 194.101 324.813C195.027 324.28 196.527 324.28 197.453 324.813Z" fill="#350B00"/>
<path d="M206.209 319.759C207.135 320.293 207.135 321.159 206.209 321.692C205.283 322.226 203.783 322.226 202.857 321.692C201.931 321.159 201.931 320.293 202.857 319.759C203.783 319.226 205.283 319.226 206.209 319.759Z" fill="#350B00"/>
<path d="M214.969 314.694C215.895 315.228 215.895 316.094 214.969 316.627C214.043 317.161 212.543 317.161 211.617 316.627C210.69 316.094 210.69 315.228 211.617 314.694C212.543 314.161 214.043 314.161 214.969 314.694Z" fill="#350B00"/>
<path d="M273.763 243.224C273.763 192.474 238.134 130.77 194.189 105.39C173.691 93.5602 155.006 91.728 140.901 98.2719L140.861 98.292C139.059 99.1377 137.337 100.124 135.686 101.232L110.326 115.638L117.524 128.414C115.642 135.159 114.615 142.811 114.615 151.338C114.615 202.088 150.244 263.792 194.189 289.173C200.572 292.858 206.773 295.546 212.733 297.348L220.777 311.613L249.057 295.485C249.893 295.052 250.708 294.589 251.503 294.086L251.946 293.834V293.814C265.457 285.146 273.773 267.719 273.773 243.235L273.763 243.224Z" fill="#E59636"/>
<path d="M220.406 312.953L212.07 298.163C206.019 296.301 199.838 293.562 193.697 290.019C149.55 264.528 113.629 202.32 113.629 151.338C113.629 143.113 114.586 135.441 116.468 128.545L108.988 115.276L135.194 100.386C136.845 99.2688 138.637 98.252 140.439 97.4063L140.902 97.1345L140.963 97.1747C155.833 90.51 174.88 93.1175 194.683 104.544C238.829 130.035 274.751 192.243 274.751 243.225C274.751 266.843 267.059 284.924 253.065 294.247V294.297L251.988 294.942C251.203 295.435 250.367 295.908 249.511 296.351L220.406 312.953ZM111.656 116.011L118.573 128.283L118.462 128.676C116.559 135.512 115.593 143.133 115.593 151.338C115.593 201.696 151.071 263.138 194.683 288.317C200.824 291.861 206.986 294.579 213.016 296.402L213.399 296.512L221.151 310.265L248.575 294.62C249.421 294.177 250.216 293.724 250.991 293.24L251.414 292.968C265.196 284.139 272.787 266.461 272.787 243.215C272.787 192.857 237.309 131.414 193.707 106.236C174.266 95.0102 155.661 92.4933 141.325 99.158L140.892 99.3594C139.251 100.155 137.721 101.041 136.241 102.037L111.676 115.991L111.656 116.011Z" fill="#350B00"/>
<path d="M261.915 240.768C261.915 190.018 233.917 141.774 189.962 116.404C179.441 110.323 169.394 106.91 160.202 105.883L133.946 120.864L133.533 120.058C130.423 119.122 127.241 117.924 124.009 116.484L106.109 126.653L113.308 139.428C111.425 146.174 110.398 153.825 110.398 162.352C110.398 213.103 146.027 274.807 189.972 300.187C196.355 303.872 202.557 306.56 208.517 308.362L208.929 309.167L237.209 293.039C238.045 292.606 238.86 292.143 239.655 291.64L240.098 291.388V291.368C253.609 282.7 261.925 265.273 261.925 240.789L261.915 240.768Z" fill="white"/>
<path d="M251.937 293.835V293.814C265.448 285.146 273.763 267.719 273.763 243.235C273.763 219.707 266.102 193.834 253.507 170.306L224.191 187.29C224.191 187.29 207.932 226.009 207.932 229.362C207.932 231.587 210.267 270.518 211.818 297.046C212.12 297.137 212.432 297.257 212.724 297.348L220.768 311.614L249.048 295.486C249.883 295.053 250.699 294.59 251.494 294.086L251.937 293.835Z" fill="#350B00"/>
<path d="M246.757 258.679C246.757 309.429 211.128 329.997 167.183 304.627C123.238 279.257 87.6094 217.543 87.6094 166.792C87.6094 116.042 123.238 95.4738 167.183 120.844C211.128 146.214 246.757 207.928 246.757 258.679Z" fill="#E59636"/>
<path d="M202.724 316.507C191.65 316.507 179.387 312.802 166.692 305.473C122.546 279.982 86.625 217.774 86.625 166.792C86.625 141.885 95.0717 123.28 110.425 114.421C125.778 105.561 146.104 107.545 167.679 119.998C211.825 145.489 247.746 207.707 247.746 258.679C247.746 283.586 239.299 302.191 223.946 311.05C217.634 314.695 210.466 316.507 202.724 316.507ZM131.647 110.937C124.247 110.937 117.412 112.659 111.401 116.132C96.6926 124.629 88.5882 142.62 88.5882 166.802C88.5882 217.16 124.066 278.602 167.679 303.781C188.619 315.872 208.251 317.846 222.96 309.349C237.679 300.852 245.773 282.861 245.773 258.689C245.773 208.331 210.295 146.889 166.692 121.71C154.309 114.562 142.369 110.947 131.647 110.947V110.937Z" fill="#350B00"/>
<path d="M215.365 296.188C241.974 280.825 241.974 231.01 215.366 184.924C188.758 138.837 145.617 113.931 119.008 129.293C92.399 144.656 92.3983 194.47 119.006 240.557C145.615 286.644 188.756 311.55 215.365 296.188Z" fill="white"/>
<path d="M215.947 303.581C242.556 288.219 242.556 238.404 215.948 192.318C189.34 146.231 146.199 121.324 119.59 136.687C92.981 152.05 92.9803 201.864 119.588 247.951C146.197 294.038 189.338 318.944 215.947 303.581Z" fill="white"/>
<path d="M197.624 301.729C188.12 301.729 177.599 298.557 166.706 292.265C128.862 270.419 98.0859 217.101 98.0859 173.408C98.0859 152.024 105.345 136.057 118.533 128.446C131.722 120.835 149.179 122.526 167.693 133.218C205.537 155.065 236.313 208.382 236.313 252.076C236.313 273.459 229.055 289.426 215.866 297.037C210.44 300.168 204.279 301.729 197.624 301.729ZM136.765 125.718C130.453 125.718 124.624 127.188 119.5 130.147C106.945 137.396 100.039 152.759 100.039 173.408C100.039 216.477 130.383 269.029 167.683 290.564C185.563 300.883 202.325 302.584 214.88 295.336C227.434 288.087 234.34 272.724 234.34 252.076C234.34 209.007 203.997 156.454 166.696 134.919C156.115 128.808 145.927 125.718 136.765 125.718Z" fill="#350B00"/>
<path d="M195.896 217.657C195.896 217.657 198.108 216.423 199.077 215.511C200.768 213.929 202.301 210.622 202.143 203.778C201.986 188.582 186.251 177.529 181.702 174.645L181.752 156.151L172.413 150.765L165.097 154.991L172.355 169.226L165.66 165.373L165.718 146.912L156.364 141.518L149.047 145.744L156.297 159.987L138.549 149.771L131.232 153.997L138.524 160.261C138.524 160.261 141.292 161.852 145.434 164.238C149.569 166.616 149.892 171.008 149.892 171.008C149.892 171.008 149.776 215.942 149.702 218.237C149.619 220.532 147.804 219.58 147.804 219.58L139.941 215.08L132.624 219.306L137.555 227.103L155.999 237.643L158.029 264.854L165.345 260.628L165.403 243.012L172.123 246.848L174.145 274.034L181.462 269.809L181.503 252.193C182 252.458 183.028 253.021 185.182 254.19C190.758 257.015 190.352 261.771 193.832 261.365C193.832 261.365 202.756 256.601 204.148 255.134C206.651 252.516 207.869 248.05 207.877 241.951C207.894 227.111 195.887 217.649 195.887 217.649L195.896 217.657ZM165.627 177.056L174.733 182.293C174.733 182.293 186.209 189.51 186.185 199.146C186.16 208.791 173.921 202.395 173.921 202.395L165.561 197.597L165.627 177.056ZM175.537 236.226L165.445 230.451L165.519 207.805L176.515 214.111C176.515 214.111 190.352 222.728 190.327 233.359C190.303 243.998 175.529 236.234 175.529 236.234L175.537 236.226Z" fill="#350B00" stroke="#350B00" stroke-width="1.75293" stroke-linecap="round" stroke-linejoin="round"/>
<path d="M187.682 221.087C187.682 221.087 195.156 222.72 194.824 208.004C194.667 192.808 178.932 181.754 174.383 178.871L174.433 160.377L165.094 154.991L165.036 173.452L158.341 169.599L158.399 151.138L149.045 145.744L148.978 164.213L131.23 153.996L131.205 164.486C131.205 164.486 133.973 166.077 138.116 168.464C142.25 170.842 142.573 175.233 142.573 175.233C142.573 175.233 142.457 220.168 142.383 222.463C142.3 224.758 140.485 223.805 140.485 223.805L132.622 219.306L132.763 232.77L148.688 241.868L148.622 259.484L158.027 264.853L158.085 247.238L164.804 251.074L164.755 268.682L174.151 274.043L174.192 256.427C174.689 256.692 175.717 257.255 177.871 258.424C193.341 266.262 200.55 261.05 200.575 246.185C200.591 231.345 187.69 221.087 187.69 221.087H187.682ZM158.3 181.282L167.406 186.519C167.406 186.519 178.882 193.736 178.857 203.372C178.832 213.017 166.594 206.62 166.594 206.62L158.234 201.823L158.3 181.282ZM168.21 240.451L158.118 234.676L158.192 212.031L169.188 218.336C169.188 218.336 183.025 226.954 183 237.585C182.975 248.224 168.202 240.46 168.202 240.46L168.21 240.451Z" fill="#E59636" stroke="#350B00" stroke-width="1.75293" stroke-linecap="round" stroke-linejoin="round"/>
<path d="M172.546 288.097C134.913 266.371 104.409 213.536 104.409 170.085C104.409 151.601 109.503 137.637 118.725 129.543C118.755 129.513 118.725 129.462 118.684 129.482C106.291 136.57 99.0527 152.034 99.0527 173.82C99.0527 217.271 129.557 270.106 167.18 291.832C188.432 304.104 207.903 302.987 220.407 292.567C220.447 292.526 220.407 292.466 220.357 292.486C208.094 299.09 190.919 298.708 172.536 288.097H172.546Z" fill="#350B00"/>
<path d="M196.928 301.677C187.444 301.677 177.084 298.677 166.695 292.677C128.851 270.831 98.0742 217.513 98.0742 173.82C98.0742 152.104 105.222 136.056 118.199 128.626L118.974 128.183L120.052 129.633L119.397 130.267C110.236 138.301 105.393 152.074 105.393 170.085C105.393 213.153 135.737 265.706 173.037 287.241C189.9 296.976 206.985 298.577 219.902 291.62L220.677 291.207L221.734 292.677L221.059 293.321C214.354 298.899 206.049 301.688 196.928 301.688V301.677ZM111.524 136.529C104.064 144.815 100.037 157.681 100.037 173.82C100.037 216.889 130.381 269.441 167.681 290.976C183.548 300.137 199.314 302.1 211.646 296.805C199.736 299.573 185.803 296.875 172.061 288.942C134.217 267.095 103.44 213.778 103.44 170.085C103.44 156.322 106.209 144.936 111.535 136.529H111.524Z" fill="#350B00"/>
<path d="M130.642 109.981L157.714 94.5474L145.552 96.4803L138.998 99.2388L116.135 112.176L125.296 109.981H130.642Z" fill="#350B00"/>
<path d="M223.347 180.041L222.34 178.35L249.12 162.524L250.126 164.215L223.347 180.041Z" fill="#350B00"/>
<path d="M233.05 139.266L206.127 154.81L207.109 156.51L234.032 140.966L233.05 139.266Z" fill="#350B00"/>
<path d="M165.261 94.1615L137.619 109.541L138.574 111.256L166.216 95.877L165.261 94.1615Z" fill="#350B00"/>
<path fill-rule="evenodd" clip-rule="evenodd" d="M203.851 457.982L219.98 448.826L224.219 457.208L227.313 468.441V477.639L224.017 486.89L217.998 494.996L209.563 502.404L197.652 508.656L208.641 495.961L211.163 481.125L209.563 467.211L203.851 457.982Z" fill="#350B00"/>
<path fill-rule="evenodd" clip-rule="evenodd" d="M164.579 448.402L169.729 441.451L179.117 435.241L173.671 422.684L168.478 415.266L160.817 407.848L146.596 418.742L157.511 430.653L161.622 440.857L164.24 450.511L164.579 448.402Z" fill="#350B00"/>
<path d="M211.662 482.715C211.662 477.915 210.582 472.786 208.695 467.774C204.372 459.55 198.014 452.26 190.924 448.159C178.42 440.942 168.194 446.283 167.41 460.038C167.219 456.499 166.467 452.811 165.269 449.166C164.909 450.575 164.676 452.111 164.581 453.775C164.347 449.473 163.277 444.959 161.603 440.54C157.29 432.369 150.953 425.132 143.896 421.052C130.883 413.539 120.328 419.632 120.328 434.658C120.328 440.635 122.871 448.879 126.803 458.056C141.14 488.448 166.997 525.325 166.997 525.325C166.997 525.325 211.662 511.337 211.662 482.715Z" fill="#E59636"/>
<path d="M178.105 435.527C174.577 423.287 166.173 411.843 156.689 406.364C150.564 402.825 144.906 402.305 140.762 404.912L125.259 413.856L124.199 412.023L139.671 403.09C144.471 400.07 150.903 400.568 157.749 404.52C167.689 410.253 176.474 422.196 180.14 434.933L178.105 435.516V435.527Z" fill="#350B00"/>
<path d="M194.099 512.766L193.188 510.848C205.671 504.925 226.6 492.177 226.6 473.378C226.6 458.712 216.268 440.803 203.562 433.47C197.437 429.931 191.779 429.412 187.635 432.018L171.941 441.153L170.871 439.32L186.533 430.206C191.344 427.186 197.776 427.684 204.611 431.637C217.9 439.309 228.709 458.034 228.709 473.378C228.709 493.332 207.017 506.62 194.078 512.766H194.099Z" fill="#350B00"/>
<path d="M166.995 526.384C166.656 526.384 166.328 526.225 166.126 525.929C164.102 523.036 116.438 454.781 116.438 428.385C116.438 420.723 119.076 414.98 123.866 412.214C128.656 409.448 134.95 410.031 141.594 413.867C152.467 420.151 161.792 433.948 164.727 447.247C165.999 443.559 168.203 440.772 171.202 439.151C175.96 436.587 182.138 437.233 188.613 440.974C201.901 448.646 212.71 467.37 212.71 482.715C212.71 511.782 169.157 525.759 167.302 526.331C167.196 526.363 167.091 526.384 166.985 526.384H166.995ZM130.542 412.616C128.486 412.616 126.589 413.093 124.926 414.047C120.814 416.421 118.557 421.518 118.557 428.385C118.557 452.779 162.449 516.9 167.408 524.064C173.152 522.093 210.601 508.232 210.601 482.715C210.601 468.049 200.269 450.14 187.564 442.807C181.746 439.448 176.299 438.812 172.219 441.016C168.33 443.114 165.988 447.671 165.639 453.838C165.607 454.4 165.141 454.834 164.579 454.834C164.017 454.834 163.551 454.389 163.519 453.828C162.735 439.426 152.636 422.683 140.535 415.689C136.985 413.644 133.583 412.606 130.542 412.606V412.616Z" fill="#350B00"/>
<path d="M133.98 470.141H131.641V498.209H133.98V470.141Z" fill="#350B00"/>
<path d="M133.584 515.229H131.465V522.997H133.584V515.229Z" fill="#350B00"/>
<path d="M211.086 499.805H208.967V516.76H211.086V499.805Z" fill="#350B00"/>
<path d="M211.086 530.357H208.967V540H211.086V530.357Z" fill="#350B00"/>
<path fill-rule="evenodd" clip-rule="evenodd" d="M301.632 64.9101L320.049 54.4548L324.89 64.0267L328.423 76.8537V87.3574L324.66 97.9215L317.787 107.179L308.154 115.637L294.553 122.777L307.101 108.28L309.981 91.3386L308.154 75.45L301.632 64.9101Z" fill="#350B00"/>
<path fill-rule="evenodd" clip-rule="evenodd" d="M256.785 53.9703L262.666 46.0321L273.388 38.9409L267.168 24.6013L261.239 16.1306L252.49 7.65991L236.25 20.0997L248.714 33.7012L253.409 45.3544L256.398 56.3784L256.785 53.9703Z" fill="#350B00"/>
<path d="M310.55 93.1533C310.55 87.6715 309.316 81.8147 307.162 76.0909C302.225 66.7006 294.964 58.3751 286.869 53.692C272.589 45.4513 260.912 51.5501 260.017 67.2572C259.799 63.2155 258.94 59.0043 257.572 54.8416C257.161 56.451 256.895 58.2057 256.786 60.1055C256.519 55.1925 255.297 50.0375 253.385 44.9914C248.46 35.6616 241.224 27.3966 233.164 22.7377C218.305 14.1582 206.252 21.1162 206.252 38.2754C206.252 45.1003 209.156 54.5149 213.646 64.9943C230.018 99.6999 259.545 141.811 259.545 141.811C259.545 141.811 310.55 125.838 310.55 93.1533Z" fill="#E59636"/>
<path d="M272.23 39.2672C268.2 25.2906 258.604 12.2216 247.773 5.96539C240.779 1.92367 234.317 1.33071 229.586 4.30755L211.882 14.5208L210.672 12.4273L228.339 2.22619C233.821 -1.22259 241.166 -0.653848 248.984 3.85981C260.334 10.4064 270.366 24.0442 274.553 38.5896L272.23 39.2551V39.2672Z" fill="#350B00"/>
<path d="M290.498 127.471L289.457 125.281C303.712 118.516 327.612 103.959 327.612 82.4916C327.612 65.7439 315.813 45.2932 301.304 36.9194C294.31 32.8776 287.848 32.2847 283.116 35.2615L265.195 45.6926L263.973 43.5991L281.858 33.1923C287.352 29.7435 294.697 30.3122 302.502 34.8259C317.677 43.587 330.02 64.9694 330.02 82.4916C330.02 105.278 305.249 120.452 290.474 127.471H290.498Z" fill="#350B00"/>
<path d="M259.544 143.021C259.157 143.021 258.782 142.84 258.552 142.501C256.241 139.197 201.811 61.255 201.811 31.1115C201.811 22.3625 204.824 15.8037 210.293 12.6454C215.763 9.48701 222.951 10.1526 230.538 14.5331C242.954 21.709 253.603 37.4645 256.955 52.6512C258.407 48.4401 260.924 45.2575 264.348 43.406C269.782 40.4776 276.837 41.2158 284.23 45.4874C299.405 54.2485 311.748 75.6309 311.748 93.1531C311.748 126.346 262.013 142.307 259.895 142.961C259.774 142.997 259.653 143.021 259.532 143.021H259.544ZM217.917 13.1052C215.569 13.1052 213.403 13.6498 211.503 14.7388C206.808 17.4495 204.231 23.27 204.231 31.1115C204.231 58.9679 254.353 132.191 260.016 140.371C266.575 138.12 309.34 122.292 309.34 93.1531C309.34 76.4054 297.541 55.9548 283.032 47.5809C276.389 43.7449 270.169 43.0188 265.51 45.5358C261.069 47.9318 258.395 53.1352 257.995 60.178C257.959 60.8193 257.427 61.3155 256.785 61.3155C256.144 61.3155 255.611 60.8072 255.575 60.1659C254.68 43.7207 243.147 24.6011 229.328 16.6145C225.274 14.279 221.39 13.0931 217.917 13.0931V13.1052Z" fill="#350B00"/>
<path d="M221.731 79.2979H219.311V194.197H221.731V79.2979Z" fill="#350B00"/>
<path d="M221.389 205.414H218.969V227.111H221.389V205.414Z" fill="#350B00"/>
<path d="M221.389 235.787H218.969V244.657H221.389V235.787Z" fill="#350B00"/>
<path d="M309.366 115.636H306.945V225.174H309.366V115.636Z" fill="#350B00"/>
<path d="M309.895 238.207H307.475V257.569H309.895V238.207Z" fill="#350B00"/>
<path d="M309.895 273.094H307.475V284.106H309.895V273.094Z" fill="#350B00"/>
</svg>
