<svg width="304" height="181" viewBox="0 0 304 181" fill="none" xmlns="http://www.w3.org/2000/svg">
<path d="M233.359 89.9607L239.361 113.7L303.326 76.7709V55.0771L297.343 54.229L233.359 89.9607Z" fill="#782D2D"/>
<path d="M207.937 113.7L143.969 76.7672V55.0771L210.09 90.3062L207.937 113.7Z" fill="#A84242"/>
<path d="M239.364 92.0061L224.919 78.5938L207.941 92.0061V113.7H239.364V92.0061Z" fill="#913737"/>
<path d="M143.969 36.9329V55.077L207.937 92.0098L239.36 92.006L303.324 55.077V36.9329L239.36 0L207.937 0.00386475L143.969 36.9329Z" fill="#E56565"/>
<path d="M223.64 3.45825L149.951 46.0093L223.64 88.5566L297.341 46.0093L223.64 3.45825Z" fill="#782D2D"/>
<path d="M215.013 13.6661L216.963 14.7905L222.139 11.8049L220.459 10.8378L221.74 10.0972C222.896 10.5538 223.767 10.7649 224.787 10.9107L226.311 11.7895L219.035 15.9878L220.716 16.9587L219.039 17.9258L213.344 14.6408L215.013 13.6661Z" fill="white"/>
<path d="M224.825 16.0568C227.868 14.2992 230.716 14.1341 232.634 15.2432C234.553 16.3522 234.269 17.9947 231.226 19.7524C228.179 21.5138 225.262 21.7172 223.344 20.6082C221.425 19.5029 221.778 17.8182 224.825 16.0568ZM229.261 18.6203C231.717 17.2042 231.733 16.5787 231.026 16.1719C230.336 15.7728 229.23 15.7728 226.778 17.1889C224.338 18.5972 224.257 19.2803 224.948 19.6795C225.654 20.0862 226.824 20.0325 229.261 18.6203Z" fill="white"/>
<path d="M229.89 22.2584L231.839 23.3828L237.016 20.3971L235.336 19.4301L236.617 18.6895C237.772 19.1461 238.644 19.3572 239.664 19.503L241.184 20.3818L233.908 24.5801L235.589 25.551L233.912 26.5181L228.217 23.2331L229.89 22.2584Z" fill="white"/>
<path d="M239.704 24.6495C242.747 22.8919 245.595 22.7269 247.513 23.836C249.432 24.945 249.148 26.5875 246.105 28.3451C243.058 30.1066 240.141 30.31 238.222 29.2009C236.304 28.0919 236.657 26.4072 239.704 24.6495ZM244.14 27.213C246.596 25.797 246.608 25.1715 245.905 24.7647C245.215 24.3656 244.109 24.3656 241.661 25.7816C239.22 27.19 239.14 27.8731 239.827 28.2761C240.533 28.6752 241.703 28.6214 244.14 27.213Z" fill="white"/>
<path d="M244.771 30.8471L246.72 31.9715L251.897 28.9858L250.216 28.0188L251.498 27.2781C252.653 27.7347 253.524 27.9458 254.545 28.0917L256.069 28.9705L248.789 33.1688L250.47 34.1397L248.797 35.1068L243.102 31.8218L244.771 30.8471Z" fill="white"/>
<path d="M254.581 33.2379C257.624 31.4803 260.471 31.3153 262.39 32.4243C264.309 33.5334 264.025 35.1759 260.982 36.9335C257.935 38.6911 255.018 38.8983 253.099 37.7893C251.181 36.6802 251.534 34.9955 254.581 33.2379ZM259.017 35.8014C261.473 34.3854 261.488 33.7598 260.782 33.353C260.088 32.9539 258.986 32.9539 256.534 34.37C254.093 35.7784 254.009 36.4615 254.704 36.8606C255.41 37.2674 256.58 37.2098 259.017 35.8014Z" fill="white"/>
<path d="M259.644 39.4359L261.593 40.5603L266.766 37.5746L265.089 36.6076L266.371 35.8669C267.526 36.3236 268.397 36.5346 269.418 36.6805L270.938 37.5593L263.662 41.7576L265.343 42.7285L263.666 43.6956L257.971 40.4106L259.644 39.4359Z" fill="white"/>
<path d="M269.46 41.8259C272.503 40.0682 275.35 39.9071 277.269 41.0123C279.188 42.1175 278.904 43.7638 275.861 45.5214C272.814 47.279 269.897 47.4863 267.978 46.3772C266.06 45.272 266.413 43.5873 269.46 41.8259ZM273.896 44.3894C276.352 42.9733 276.364 42.3478 275.661 41.941C274.967 41.5419 273.865 41.5419 271.417 42.9579C268.976 44.3663 268.892 45.0494 269.582 45.4485C270.289 45.8553 271.459 45.7977 273.896 44.3894Z" fill="white"/>
<path d="M276.89 46.1207C279.937 44.3631 282.784 44.1981 284.703 45.3072C286.622 46.4162 286.338 48.0587 283.291 49.8163C280.248 51.5778 277.331 51.7812 275.412 50.6721C273.493 49.5669 273.846 47.8822 276.89 46.1207ZM281.334 48.6842C283.786 47.2682 283.801 46.6426 283.095 46.2359C282.4 45.8368 281.299 45.8368 278.847 47.2528C276.41 48.6612 276.326 49.3443 277.016 49.7473C277.722 50.1502 278.897 50.0965 281.334 48.6842Z" fill="white"/>
<path d="M200.473 21.5258C203.52 19.7682 206.364 19.6031 208.283 20.7122C210.202 21.8174 209.921 23.4637 206.874 25.2213C203.827 26.979 200.911 27.1823 198.992 26.0771C197.073 24.9719 197.426 23.2834 200.473 21.5258ZM204.913 24.0893C207.366 22.6732 207.381 22.0477 206.675 21.6409C205.984 21.2418 204.883 21.2418 202.434 22.6578C199.994 24.0662 199.913 24.7493 200.6 25.1484C201.306 25.5552 202.477 25.4977 204.913 24.0893Z" fill="white"/>
<path d="M207.917 25.8195C210.96 24.0619 213.807 23.8968 215.726 25.0059C217.645 26.1111 217.361 27.7574 214.318 29.515C211.271 31.2727 208.354 31.476 206.435 30.3708C204.517 29.2617 204.87 27.5771 207.917 25.8195ZM212.357 28.383C214.813 26.9669 214.824 26.3414 214.118 25.9346C213.427 25.5355 212.322 25.5355 209.874 26.9515C207.433 28.3599 207.356 29.043 208.043 29.4421C208.746 29.8489 209.916 29.7914 212.357 28.383Z" fill="white"/>
<path d="M212.984 32.0209L214.933 33.1453L220.106 30.1597L218.425 29.1926L219.711 28.4519C220.866 28.9047 221.733 29.1158 222.754 29.2655L224.278 30.1443L217.002 34.3426L218.682 35.3097L217.002 36.2806L211.307 32.9918L212.984 32.0209Z" fill="white"/>
<path d="M222.794 34.412C225.837 32.6544 228.684 32.4894 230.603 33.5984C232.522 34.7036 232.238 36.35 229.195 38.1076C226.148 39.8652 223.231 40.0686 221.312 38.9633C219.394 37.8543 219.747 36.1696 222.794 34.412ZM227.234 36.9755C229.69 35.5594 229.701 34.9339 228.995 34.5271C228.304 34.128 227.199 34.128 224.747 35.5441C222.306 36.9525 222.23 37.6356 222.916 38.0347C223.623 38.4376 224.793 38.3839 227.234 36.9755Z" fill="white"/>
<path d="M227.866 40.6097L229.816 41.7341L234.989 38.7485L233.308 37.7814L234.594 37.0408C235.749 37.4936 236.616 37.7046 237.637 37.8543L239.157 38.7331L231.881 42.9315L233.561 43.8985L231.881 44.8694L226.186 41.5806L227.866 40.6097Z" fill="white"/>
<path d="M237.674 43.0006C240.718 41.243 243.565 41.078 245.484 42.1871C247.403 43.2923 247.119 44.9386 244.076 46.6962C241.029 48.4538 238.112 48.6572 236.193 47.552C234.274 46.4429 234.627 44.7582 237.674 43.0006ZM242.115 45.5641C244.571 44.148 244.582 43.5225 243.876 43.1157C243.181 42.7166 242.08 42.7166 239.632 44.1327C237.191 45.5411 237.11 46.2242 237.801 46.6233C238.503 47.03 239.674 46.9725 242.115 45.5641Z" fill="white"/>
<path d="M242.744 49.1986L244.689 50.323L249.862 47.3374L248.189 46.3703L249.475 45.6296C250.63 46.0825 251.497 46.2936 252.518 46.4432L254.041 47.322L246.765 51.5203L248.446 52.4874L246.765 53.4583L241.07 50.1695L242.744 49.1986Z" fill="white"/>
<path d="M250.179 53.4922L252.125 54.6166L257.298 51.631L255.625 50.6601L256.906 49.9194C258.062 50.3723 258.933 50.5833 259.953 50.733L261.473 51.6118L254.201 55.8101L255.882 56.781L254.201 57.7481L248.506 54.4593L250.179 53.4922Z" fill="white"/>
<path d="M257.622 57.7869L259.568 58.9113L264.741 55.9257L263.064 54.9586L264.35 54.218C265.505 54.6709 266.372 54.8819 267.393 55.0316L268.912 55.9104L261.636 60.1087L263.317 61.0758L261.636 62.0428L255.941 58.7541L257.622 57.7869Z" fill="white"/>
<path d="M183.57 31.2884C186.613 29.5308 189.465 29.3658 191.383 30.4749C193.302 31.584 193.018 33.2265 189.971 34.9841C186.928 36.7417 184.008 36.945 182.089 35.8398C180.174 34.7308 180.527 33.046 183.57 31.2884ZM188.014 33.8519C190.466 32.4359 190.482 31.8103 189.779 31.4036C189.089 31.0044 187.987 31.0044 185.535 32.4205C183.098 33.8289 183.014 34.512 183.701 34.9111C184.403 35.314 185.573 35.2603 188.014 33.8519Z" fill="white"/>
<path d="M188.638 37.4861L190.587 38.6105L195.761 35.6249L194.08 34.654L195.361 33.9133C196.516 34.37 197.388 34.5773 198.408 34.7269L199.928 35.6057L192.652 39.804L194.333 40.7749L192.656 41.742L186.961 38.4532L188.638 37.4861Z" fill="white"/>
<path d="M196.077 41.7799L198.027 42.9043L203.2 39.9187L201.519 38.9516L202.801 38.2109C203.956 38.6676 204.827 38.8749 205.844 39.0245L207.364 39.9033L200.091 44.1016L201.772 45.0687L200.091 46.0358L194.396 42.747L196.077 41.7799Z" fill="white"/>
<path d="M205.88 44.1708C208.927 42.4132 211.775 42.2481 213.694 43.3572C215.612 44.4663 215.328 46.1088 212.281 47.8664C209.238 49.6278 206.322 49.8273 204.403 48.7221C202.488 47.6131 202.837 45.9322 205.88 44.1708ZM210.328 46.7343C212.78 45.3182 212.796 44.6927 212.089 44.2859C211.399 43.8868 210.293 43.883 207.841 45.3029C205.404 46.7113 205.324 47.3944 206.011 47.7935C206.713 48.2002 207.887 48.1427 210.328 46.7343Z" fill="white"/>
<path d="M210.958 50.3685L212.908 51.4929L218.081 48.5073L216.4 47.5402L217.682 46.7996C218.837 47.2562 219.708 47.4635 220.725 47.6131L222.248 48.4919L214.976 52.6903L216.657 53.6611L214.976 54.6282L209.281 51.3394L210.958 50.3685Z" fill="white"/>
<path d="M218.392 54.6634L220.341 55.7878L225.514 52.8022L223.838 51.8351L225.119 51.0945C226.274 51.5512 227.145 51.7583 228.166 51.908L229.686 52.7868L222.41 56.9851L224.091 57.9522L222.414 58.9231L216.719 55.6343L218.392 54.6634Z" fill="white"/>
<path d="M228.208 57.0534C231.251 55.2958 234.099 55.1346 236.018 56.2398C237.937 57.3489 237.653 58.9914 234.609 60.749C231.562 62.5066 228.642 62.71 226.723 61.6048C224.804 60.4958 225.161 58.8149 228.208 57.0534ZM232.645 59.6169C235.101 58.2009 235.112 57.5753 234.41 57.1686C233.715 56.7694 232.614 56.7694 230.165 58.1855C227.725 59.5939 227.64 60.277 228.335 60.6761C229.041 61.0829 230.208 61.0292 232.645 59.6169Z" fill="white"/>
<path d="M233.269 63.2547L235.219 64.3791L240.392 61.3935L238.718 60.4264L240 59.6858C241.155 60.1425 242.026 60.3497 243.047 60.4993L244.571 61.3781L237.291 65.5765L238.972 66.5436L237.299 67.5144L231.604 64.2256L233.269 63.2547Z" fill="white"/>
<path d="M243.087 65.6456C246.13 63.888 248.978 63.723 250.897 64.8321C252.815 65.9411 252.531 67.5836 249.488 69.3412C246.441 71.0988 243.521 71.3022 241.602 70.197C239.683 69.0879 240.04 67.4032 243.087 65.6456ZM247.523 68.2091C249.979 66.793 249.995 66.1675 249.289 65.7607C248.594 65.3616 247.493 65.3616 245.044 66.7777C242.604 68.1861 242.519 68.8692 243.214 69.2683C243.916 69.6712 245.087 69.6175 247.523 68.2091Z" fill="white"/>
<path d="M164.29 42.9549L166.24 44.0793L171.413 41.0936L169.732 40.1227L171.018 39.3821C172.169 39.8388 173.04 40.0498 174.061 40.1956L175.58 41.0783L168.304 45.2766L169.985 46.2475L168.304 47.2146L162.609 43.9257L164.29 42.9549Z" fill="white"/>
<path d="M171.734 47.2484L173.683 48.3728L178.856 45.3872L177.175 44.4201L178.457 43.6794C179.608 44.1361 180.479 44.3472 181.5 44.493L183.024 45.3757L175.748 49.5739L177.429 50.541L175.748 51.5119L170.053 48.2232L171.734 47.2484Z" fill="white"/>
<path d="M181.542 49.6395C184.585 47.8819 187.432 47.7169 189.351 48.8259C191.27 49.935 190.986 51.5775 187.943 53.3351C184.9 55.0927 181.979 55.2961 180.06 54.1909C178.142 53.0818 178.495 51.3972 181.542 49.6395ZM185.982 52.203C188.434 50.787 188.449 50.1576 187.743 49.7547C187.052 49.3556 185.951 49.3556 183.495 50.7716C181.054 52.18 180.978 52.8631 181.664 53.2622C182.371 53.669 183.541 53.6114 185.982 52.203Z" fill="white"/>
<path d="M188.976 53.9332C192.019 52.1756 194.867 52.0106 196.786 53.1197C198.704 54.2287 198.424 55.8712 195.377 57.6288C192.334 59.3864 189.414 59.5898 187.495 58.4846C185.576 57.3755 185.933 55.6908 188.976 53.9332ZM193.416 56.4967C195.868 55.0806 195.884 54.4513 195.178 54.0483C194.487 53.6492 193.385 53.6492 190.929 55.0653C188.489 56.4737 188.412 57.1568 189.099 57.5559C189.809 57.9627 190.979 57.9051 193.416 56.4967Z" fill="white"/>
<path d="M194.05 60.1312L196 61.2556L201.173 58.27L199.492 57.3029L200.777 56.5623C201.929 57.0189 202.8 57.23 203.821 57.3758L205.344 58.2547L198.068 62.453L199.749 63.42L198.068 64.391L192.373 61.1022L194.05 60.1312Z" fill="white"/>
<path d="M203.854 62.5221C206.901 60.7645 209.745 60.5995 211.664 61.7085C213.583 62.8176 213.302 64.4601 210.255 66.2177C207.208 67.9753 204.292 68.1787 202.373 67.0735C200.454 65.9644 200.807 64.2797 203.854 62.5221ZM208.294 65.0856C210.746 63.6695 210.762 63.0402 210.056 62.6372C209.361 62.2343 208.264 62.2343 205.811 63.6542C203.371 65.0626 203.29 65.7457 203.981 66.1448C204.687 66.5516 205.854 66.494 208.294 65.0856Z" fill="white"/>
<path d="M208.929 68.7199L210.875 69.8443L216.052 66.8586L214.371 65.8915L215.656 65.1509C216.808 65.6076 217.679 65.8186 218.699 65.9645L220.219 66.8471L212.947 71.0454L214.628 72.0125L212.947 72.9834L207.252 69.6946L208.929 68.7199Z" fill="white"/>
<path d="M218.731 71.1107C221.778 69.3531 224.622 69.1881 226.541 70.2972C228.459 71.4062 228.179 73.0487 225.132 74.8063C222.085 76.5639 219.169 76.7673 217.25 75.6621C215.331 74.5569 215.684 72.8721 218.731 71.1107ZM223.171 73.6742C225.623 72.2581 225.639 71.6288 224.933 71.2259C224.238 70.8268 223.141 70.8268 220.684 72.2428C218.244 73.6512 218.163 74.3343 218.854 74.7334C219.564 75.1402 220.731 75.0826 223.171 73.6742Z" fill="white"/>
<path d="M223.806 77.3121L225.752 78.4366L230.928 75.4509L229.248 74.4838L230.533 73.7432C231.684 74.1998 232.556 74.4109 233.576 74.5568L235.1 75.4394L227.824 79.6377L229.505 80.6048L227.824 81.5719L222.129 78.283L223.806 77.3121Z" fill="white"/>
<path d="M72.5152 171.011L59.6555 178.444L57.2109 164.775L59.6555 160.231L72.5152 158.968V171.011Z" fill="#D1D1D1"/>
<path d="M85.1908 163.704L75.7504 158.247L74.7871 145.556L82.3778 144.953L86.2423 151.04L85.1908 163.704Z" fill="#F4EFE9"/>
<path d="M97.8635 156.386L85.1918 163.7V151.646L84.9961 145.602L97.8635 144.336V156.386Z" fill="#D1D1D1"/>
<path d="M75.7522 158.246L63.0805 165.561V153.511L62.8848 147.47L75.7522 146.192V158.246Z" fill="#D1D1D1"/>
<path d="M110.536 149.071L101.088 143.618L100.129 130.919L107.723 130.32L111.584 136.411L110.536 149.071Z" fill="#F4EFE9"/>
<path d="M135.874 134.442L126.426 128.985L125.471 116.294L133.061 115.688L136.926 121.782L135.874 134.442Z" fill="#F4EFE9"/>
<path d="M101.086 143.617L88.4185 150.932V138.882L88.2266 132.834L101.086 131.571V143.617Z" fill="#D1D1D1"/>
<path d="M126.432 128.985L113.76 136.303V124.249L113.568 118.201L126.432 116.935V128.985Z" fill="#D1D1D1"/>
<path d="M59.6595 178.443L16.644 180.715L14.1074 167.203L53.3966 161.562L59.6595 166.393V178.443Z" fill="#E0DEDC"/>
<path d="M16.6435 180.716L0 171.11V159.06L13.8306 161.965L16.6435 168.666V180.716Z" fill="#F4EFE9"/>
<path d="M123.205 141.749L110.537 149.071V137.017L110.338 130.973L123.205 129.707V141.749Z" fill="#D1D1D1"/>
<path d="M194.034 100.855L135.876 134.441V122.388L135.68 116.34L194.034 88.8049V100.855Z" fill="#D1D1D1"/>
<path d="M63.0744 153.511L75.75 146.192L85.1904 151.646L97.8621 144.335L88.414 138.882L101.086 131.571L110.534 137.017L123.202 129.706L113.757 124.249L126.429 116.935L135.873 122.388L194.032 88.8053L157.859 67.9211L0 159.06L16.6435 168.665L59.659 166.393L72.5187 158.968L63.0744 153.511Z" fill="white"/>
<path d="M163.331 78.4362L161.224 79.6488L155.422 79.0271L19.8941 155.994L17.7949 154.785L156.677 74.5947L163.331 78.4362Z" fill="#D1D1D1"/>
<path d="M161.225 79.6489L24.4459 158.626L19.8945 155.994L156.677 77.0239L161.225 79.6489Z" fill="#F4EFE9"/>
</svg>
