<svg width="244" height="244" viewBox="0 0 244 244" fill="none" xmlns="http://www.w3.org/2000/svg">
<g filter="url(#filter0_d_2985_2744)">
<path fill-rule="evenodd" clip-rule="evenodd" d="M122.126 230.437C184.185 230.437 234.493 180.128 234.493 118.069C234.493 56.01 184.185 5.70117 122.126 5.70117C60.0666 5.70117 9.75781 56.01 9.75781 118.069C9.75781 180.128 60.0666 230.437 122.126 230.437ZM68.8226 61.8695C68.8232 80.4487 80.7243 95.4968 95.3358 104.958C109.262 113.976 125.779 104.635 139.913 95.9475C157.777 84.9687 180.955 83.8559 200.353 95.056C207.741 99.3209 213.85 104.958 218.556 111.458C219.933 113.36 223.188 112.457 223.002 110.116C220.454 78.0643 202.717 47.7653 172.765 30.4729C162.502 24.5474 161.5 25.7771 159.375 28.3842C156.165 32.3235 150.391 39.4076 106.232 29.7036C92.5807 26.7036 77.2089 30.0037 72.3261 43.1004C70.126 49.0015 68.8235 55.4462 68.8226 61.8695ZM100.156 192.388C116.246 183.098 123.327 165.267 124.215 147.883C125.062 131.314 108.713 121.68 94.1233 113.783C75.6831 103.802 63.1307 84.2862 63.1307 61.8859C63.1307 53.3562 64.9579 45.2467 68.2345 37.9206C69.1932 35.7772 66.7831 33.4102 64.8493 34.7416C38.3652 52.9741 20.9945 83.4849 20.9945 118.07C20.9945 129.921 22.5605 130.174 25.8807 130.71C30.8975 131.521 39.9192 132.979 53.5947 176.073C57.8225 189.396 68.3663 201.059 82.1497 198.739C88.3605 197.693 94.5929 195.599 100.156 192.388ZM146.936 101.423C162.435 93.5 181.418 90.7174 197.508 100.007C203.071 103.219 208 107.569 212.011 112.425C220.912 123.202 216.084 138.165 206.66 148.487C176.177 181.878 179.425 190.42 181.231 195.17C182.427 198.314 182.991 199.796 172.727 205.722C142.776 223.014 107.668 223.226 78.6356 209.407C76.5155 208.398 77.3608 205.127 79.696 204.885C87.6789 204.06 95.6156 201.588 103.003 197.322C122.402 186.123 133.027 165.494 132.451 144.534C131.995 127.95 132.163 108.975 146.936 101.423Z" fill="url(#paint0_linear_2985_2744)"/>
</g>
<defs>
<filter id="filter0_d_2985_2744" x="0.757812" y="0.301172" width="242.736" height="242.736" filterUnits="userSpaceOnUse" color-interpolation-filters="sRGB">
<feFlood flood-opacity="0" result="BackgroundImageFix"/>
<feColorMatrix in="SourceAlpha" type="matrix" values="0 0 0 0 0 0 0 0 0 0 0 0 0 0 0 0 0 0 127 0" result="hardAlpha"/>
<feOffset dy="3.6"/>
<feGaussianBlur stdDeviation="4.5"/>
<feComposite in2="hardAlpha" operator="out"/>
<feColorMatrix type="matrix" values="0 0 0 0 0 0 0 0 0 0 0 0 0 0 0 0 0 0 0.25 0"/>
<feBlend mode="normal" in2="BackgroundImageFix" result="effect1_dropShadow_2985_2744"/>
<feBlend mode="normal" in="SourceGraphic" in2="effect1_dropShadow_2985_2744" result="shape"/>
</filter>
<linearGradient id="paint0_linear_2985_2744" x1="51.5586" y1="15.1405" x2="195.389" y2="220.099" gradientUnits="userSpaceOnUse">
<stop stop-color="#FCB2B2"/>
<stop offset="0.260417" stop-color="#FF8989"/>
<stop offset="0.520833" stop-color="#FC8A8A"/>
<stop offset="0.755208" stop-color="#FF5454"/>
<stop offset="1" stop-color="#FF7070"/>
</linearGradient>
</defs>
</svg>
