<svg width="270" height="270" viewBox="0 0 270 270" fill="none" xmlns="http://www.w3.org/2000/svg">
<g filter="url(#filter0_d_2605_8256)">
<path fill-rule="evenodd" clip-rule="evenodd" d="M135.14 255.907C204.095 255.907 259.993 200.009 259.993 131.054C259.993 62.0999 204.095 6.20117 135.14 6.20117C66.1857 6.20117 10.2871 62.0999 10.2871 131.054C10.2871 200.009 66.1857 255.907 135.14 255.907ZM75.9146 68.6104C75.9153 89.254 89.1387 105.974 105.374 116.487C120.847 126.506 139.199 116.127 154.904 106.475C174.753 94.2762 200.506 93.0397 222.06 105.484C230.268 110.223 237.056 116.487 242.286 123.709C243.815 125.823 247.432 124.819 247.225 122.218C244.394 86.6046 224.686 52.9391 191.406 33.7253C180.003 27.1414 178.889 28.5078 176.528 31.4045C172.961 35.7816 166.546 43.6527 117.481 32.8706C102.313 29.5373 85.2328 33.204 79.8075 47.7558C77.3629 54.3127 75.9157 61.4734 75.9146 68.6104ZM110.729 213.631C128.607 203.309 136.475 183.497 137.462 164.181C138.403 145.771 120.238 135.067 104.026 126.292C83.5374 115.202 69.5903 93.5179 69.5903 68.6286C69.5903 59.1512 71.6205 50.1407 75.2612 42.0005C76.3264 39.619 73.6486 36.9889 71.4999 38.4683C42.0731 58.7267 22.7723 92.6276 22.7723 131.055C22.7723 144.223 24.5123 144.504 28.2014 145.1C33.7756 146.001 43.7998 147.621 58.9948 195.504C63.6923 210.306 75.4077 223.265 90.7226 220.687C97.6234 219.526 104.548 217.199 110.729 213.631ZM162.707 112.559C179.929 103.755 201.021 100.664 218.899 110.985C225.079 114.554 230.557 119.388 235.013 124.784C244.903 136.758 239.538 153.383 229.067 164.852C195.197 201.953 198.806 211.444 200.813 216.722C202.141 220.215 202.768 221.863 191.364 228.446C158.085 247.66 119.076 247.895 86.818 232.54C84.4623 231.419 85.4015 227.785 87.9962 227.517C96.8661 226.6 105.685 223.853 113.892 219.114C135.447 206.669 147.252 183.749 146.612 160.46C146.106 142.033 146.293 120.95 162.707 112.559Z" fill="url(#paint0_linear_2605_8256)"/>
</g>
<defs>
<filter id="filter0_d_2605_8256" x="0.287109" y="0.201172" width="269.707" height="269.706" filterUnits="userSpaceOnUse" color-interpolation-filters="sRGB">
<feFlood flood-opacity="0" result="BackgroundImageFix"/>
<feColorMatrix in="SourceAlpha" type="matrix" values="0 0 0 0 0 0 0 0 0 0 0 0 0 0 0 0 0 0 127 0" result="hardAlpha"/>
<feOffset dy="4"/>
<feGaussianBlur stdDeviation="5"/>
<feComposite in2="hardAlpha" operator="out"/>
<feColorMatrix type="matrix" values="0 0 0 0 0 0 0 0 0 0 0 0 0 0 0 0 0 0 0.25 0"/>
<feBlend mode="normal" in2="BackgroundImageFix" result="effect1_dropShadow_2605_8256"/>
<feBlend mode="normal" in="SourceGraphic" in2="effect1_dropShadow_2605_8256" result="shape"/>
</filter>
<linearGradient id="paint0_linear_2605_8256" x1="56.7324" y1="16.6893" x2="216.544" y2="244.421" gradientUnits="userSpaceOnUse">
<stop stop-color="#FCECB2"/>
<stop offset="0.260417" stop-color="#FF8B89"/>
<stop offset="0.520833" stop-color="#FC8ADC"/>
<stop offset="0.755208" stop-color="#7954FF"/>
<stop offset="1" stop-color="#70BCFF"/>
</linearGradient>
</defs>
</svg>
