<svg width="270" height="267" viewBox="0 0 270 267" fill="none" xmlns="http://www.w3.org/2000/svg">
<path d="M74.5684 97.0321V166.507L134.62 200.936L194.672 166.507V97.0321L134.62 62.6023L74.5684 97.0321Z" fill="url(#paint0_linear_2920_16622)"/>
<path d="M107.986 147.414V154.086C108.009 157.989 110.602 161.893 115.76 164.871C126.08 170.83 142.753 170.831 153.006 164.873C158.132 161.894 160.68 157.99 160.658 154.086V147.415H107.986V147.414Z" fill="#F4AF14"/>
<path d="M153.008 158.208C146.4 162.052 137.124 163.417 128.603 162.303C124.548 161.778 120.67 160.692 117.328 159.036C116.791 158.779 116.272 158.499 115.763 158.208C115.123 157.842 114.53 157.46 113.97 157.066C112.342 155.918 111.051 154.667 110.086 153.353C106.013 147.808 107.858 141.153 115.637 136.636C119.984 134.105 125.484 132.655 131.161 132.278C133.652 132.101 136.176 132.141 138.649 132.386C140.22 132.535 141.767 132.775 143.275 133.089C146.776 133.826 150.066 135.008 152.882 136.635C153.179 136.807 153.465 136.978 153.744 137.155C163.197 143.141 162.968 152.422 153.008 158.208Z" fill="#FFCD40"/>
<path opacity="0.5" d="M138.649 132.386L113.97 157.065C112.342 155.917 111.051 154.666 110.086 153.353L131.161 132.278C133.652 132.101 136.176 132.141 138.649 132.386Z" fill="#FFEFAE"/>
<path opacity="0.5" d="M153.743 137.155L128.601 162.303C124.546 161.778 120.668 160.692 117.326 159.036L143.273 133.089C146.775 133.825 150.064 135.007 152.88 136.635C153.177 136.807 153.463 136.978 153.743 137.155Z" fill="#FFEFAE"/>
<path d="M151.17 139.605C146.692 137.018 140.678 135.596 134.235 135.596C127.798 135.596 121.807 137.018 117.364 139.6C113.52 141.833 111.412 144.592 111.412 147.379C111.418 150.155 113.628 153.016 117.478 155.238C121.956 157.825 127.97 159.253 134.412 159.253C134.561 159.253 134.709 159.253 134.858 159.248C141.129 159.185 146.943 157.774 151.284 155.249C154.997 153.09 157.099 150.429 157.224 147.745V147.67C157.23 147.602 157.23 147.539 157.23 147.47C157.229 144.694 155.019 141.827 151.17 139.605Z" fill="#E09D17"/>
<path d="M151.403 140.359C147.096 137.875 141.316 136.51 135.119 136.51C128.933 136.51 123.171 137.875 118.899 140.359C115.209 142.501 113.176 145.157 113.182 147.836C113.182 150.503 115.307 153.256 119.007 155.392C123.211 157.825 128.831 159.19 134.857 159.247C141.128 159.184 146.942 157.773 151.283 155.249C154.995 153.09 157.098 150.429 157.223 147.744V147.67C157.091 145.083 154.99 142.427 151.403 140.359Z" fill="#EFA90B"/>
<g filter="url(#filter0_d_2920_16622)">
<path fill-rule="evenodd" clip-rule="evenodd" d="M145.272 148.034C145.379 147.946 145.387 147.898 145.387 147.89C145.388 147.882 145.392 147.833 145.304 147.733C145.213 147.63 145.053 147.504 144.799 147.363C144.292 147.082 143.511 146.794 142.493 146.524C140.464 145.987 137.604 145.551 134.398 145.35C131.191 145.149 128.277 145.225 126.163 145.503C125.101 145.643 124.27 145.83 123.71 146.045C123.43 146.153 123.245 146.257 123.135 146.347C123.027 146.435 123.02 146.484 123.019 146.492C123.018 146.5 123.014 146.549 123.102 146.649C123.193 146.751 123.353 146.878 123.608 147.019C124.114 147.3 124.895 147.588 125.913 147.858C127.942 148.395 130.802 148.831 134.009 149.032C137.215 149.232 140.129 149.156 142.243 148.878C143.306 148.739 144.136 148.551 144.696 148.337C144.976 148.229 145.161 148.125 145.272 148.034ZM133.96 149.495C140.425 149.899 145.776 149.195 145.911 147.923C146.045 146.65 140.913 145.291 134.447 144.887C127.981 144.483 122.63 145.187 122.495 146.459C122.361 147.732 127.493 149.091 133.96 149.495Z" fill="#FFCD40"/>
<path fill-rule="evenodd" clip-rule="evenodd" d="M138.691 156.104C138.829 156.141 138.88 156.121 138.888 156.118C138.896 156.114 138.945 156.092 139.001 155.972C139.059 155.85 139.105 155.661 139.122 155.393C139.154 154.858 139.061 154.111 138.836 153.191C138.389 151.358 137.443 148.942 136.1 146.382C134.757 143.822 133.284 141.63 131.996 140.156C131.349 139.415 130.767 138.876 130.288 138.56C130.048 138.401 129.857 138.313 129.715 138.276C129.577 138.239 129.527 138.259 129.519 138.262C129.51 138.266 129.461 138.288 129.405 138.408C129.348 138.53 129.301 138.719 129.285 138.987C129.253 139.522 129.346 140.269 129.57 141.189C130.018 143.022 130.963 145.438 132.306 147.998C133.649 150.558 135.123 152.75 136.41 154.224C137.057 154.965 137.639 155.504 138.118 155.821C138.358 155.979 138.55 156.067 138.691 156.104ZM131.828 148.201C134.537 153.362 137.796 157.094 139.107 156.535C140.419 155.977 139.286 151.34 136.578 146.179C133.869 141.018 130.611 137.286 129.299 137.845C127.987 138.403 129.12 143.04 131.828 148.201Z" fill="#FFCD40"/>
<path fill-rule="evenodd" clip-rule="evenodd" d="M127.615 155.258C127.646 155.382 127.689 155.411 127.696 155.415C127.704 155.419 127.75 155.445 127.894 155.426C128.041 155.406 128.249 155.344 128.52 155.217C129.059 154.964 129.748 154.504 130.542 153.854C132.124 152.559 134.04 150.58 135.905 148.221C137.77 145.863 139.212 143.596 140.039 141.844C140.455 140.965 140.704 140.239 140.784 139.707C140.824 139.441 140.819 139.249 140.788 139.121C140.758 138.997 140.714 138.969 140.706 138.964C140.699 138.96 140.653 138.934 140.509 138.953C140.361 138.973 140.154 139.035 139.884 139.162C139.344 139.415 138.655 139.875 137.861 140.525C136.279 141.82 134.363 143.8 132.498 146.158C130.633 148.516 129.191 150.783 128.364 152.535C127.948 153.415 127.699 154.14 127.619 154.672C127.578 154.938 127.584 155.13 127.615 155.258ZM132.069 145.898C128.309 150.653 126.215 155.086 127.393 155.8C128.57 156.513 132.573 153.237 136.334 148.481C140.094 143.726 142.188 139.293 141.01 138.579C139.833 137.866 135.83 141.142 132.069 145.898Z" fill="#FFCD40"/>
<path fill-rule="evenodd" clip-rule="evenodd" d="M138.182 140.773C138.14 141.175 137.736 141.478 137.281 141.45C136.826 141.421 136.492 141.072 136.535 140.67C136.577 140.267 136.98 139.964 137.436 139.992C137.89 140.021 138.224 140.37 138.182 140.773ZM139.777 152.53C139.735 152.932 139.332 153.236 138.876 153.207C138.422 153.179 138.088 152.829 138.13 152.427C138.173 152.024 138.576 151.721 139.031 151.749C139.486 151.778 139.82 152.127 139.777 152.53ZM127.529 145.296C127.486 145.698 127.083 146.002 126.628 145.973C126.174 145.945 125.84 145.595 125.883 145.193C125.925 144.79 126.328 144.487 126.783 144.515C127.238 144.543 127.571 144.893 127.529 145.296ZM135.608 147.237C135.535 147.919 134.852 148.433 134.083 148.385C133.312 148.337 132.747 147.745 132.818 147.063C132.891 146.382 133.573 145.868 134.343 145.916C135.114 145.964 135.68 146.556 135.608 147.237Z" fill="#FFCD40"/>
</g>
<path d="M107.986 128.834V135.506C108.009 139.41 110.602 143.313 115.76 146.291C126.08 152.25 142.753 152.251 153.006 146.293C158.132 143.314 160.68 139.41 160.658 135.507V128.835H107.986V128.834Z" fill="#F4AF14"/>
<path d="M153.008 139.628C146.4 143.472 137.124 144.837 128.603 143.723C124.548 143.198 120.67 142.113 117.328 140.456C116.791 140.199 116.272 139.919 115.763 139.628C115.123 139.263 114.53 138.88 113.97 138.486C112.342 137.338 111.051 136.087 110.086 134.774C106.013 129.228 107.858 122.574 115.637 118.056C119.984 115.526 125.484 114.075 131.161 113.698C133.652 113.521 136.176 113.561 138.649 113.807C140.22 113.955 141.767 114.195 143.275 114.509C146.776 115.246 150.066 116.428 152.882 118.055C153.179 118.227 153.465 118.398 153.744 118.575C163.197 124.561 162.968 133.842 153.008 139.628Z" fill="#FFCD40"/>
<path opacity="0.5" d="M138.649 113.806L113.97 138.485C112.342 137.337 111.051 136.086 110.086 134.773L131.161 113.698C133.652 113.521 136.176 113.561 138.649 113.806Z" fill="#FFEFAE"/>
<path opacity="0.5" d="M153.743 118.575L128.601 143.723C124.546 143.198 120.668 142.112 117.326 140.456L143.273 114.509C146.775 115.245 150.064 116.428 152.88 118.055C153.177 118.227 153.463 118.398 153.743 118.575Z" fill="#FFEFAE"/>
<path d="M151.17 121.026C146.692 118.438 140.678 117.016 134.235 117.016C127.798 117.016 121.807 118.438 117.364 121.02C113.52 123.254 111.412 126.012 111.412 128.799C111.418 131.575 113.628 134.436 117.478 136.658C121.956 139.245 127.97 140.673 134.412 140.673C134.561 140.673 134.709 140.673 134.858 140.668C141.129 140.605 146.943 139.194 151.284 136.669C154.997 134.511 157.099 131.849 157.224 129.165V129.09C157.23 129.022 157.23 128.959 157.23 128.891C157.229 126.114 155.019 123.247 151.17 121.026Z" fill="#E09D17"/>
<path d="M151.403 121.779C147.096 119.295 141.316 117.93 135.119 117.93C128.933 117.93 123.171 119.295 118.899 121.779C115.209 123.921 113.176 126.577 113.182 129.256C113.182 131.923 115.307 134.676 119.007 136.812C123.211 139.245 128.831 140.61 134.857 140.667C141.128 140.604 146.942 139.193 151.283 136.669C154.995 134.51 157.098 131.849 157.223 129.164V129.09C157.091 126.503 154.99 123.847 151.403 121.779Z" fill="#EFA90B"/>
<g filter="url(#filter1_d_2920_16622)">
<path fill-rule="evenodd" clip-rule="evenodd" d="M145.272 129.455C145.379 129.367 145.387 129.318 145.387 129.31C145.388 129.302 145.392 129.253 145.304 129.153C145.213 129.05 145.053 128.924 144.799 128.783C144.292 128.502 143.511 128.214 142.493 127.944C140.464 127.407 137.604 126.971 134.398 126.77C131.191 126.57 128.277 126.646 126.163 126.924C125.101 127.063 124.27 127.25 123.71 127.465C123.43 127.573 123.245 127.677 123.135 127.767C123.027 127.855 123.02 127.904 123.019 127.912C123.018 127.92 123.014 127.969 123.102 128.069C123.193 128.172 123.353 128.298 123.608 128.439C124.114 128.72 124.895 129.008 125.913 129.278C127.942 129.815 130.802 130.251 134.009 130.452C137.215 130.652 140.129 130.577 142.243 130.299C143.306 130.159 144.136 129.972 144.696 129.757C144.976 129.649 145.161 129.545 145.272 129.455ZM133.96 130.915C140.425 131.319 145.776 130.615 145.911 129.343C146.045 128.07 140.913 126.711 134.447 126.307C127.981 125.903 122.63 126.607 122.495 127.879C122.361 129.152 127.493 130.511 133.96 130.915Z" fill="#FFCD40"/>
<path fill-rule="evenodd" clip-rule="evenodd" d="M138.691 137.525C138.829 137.562 138.88 137.542 138.888 137.538C138.896 137.535 138.945 137.512 139.001 137.393C139.059 137.27 139.105 137.081 139.122 136.813C139.154 136.279 139.061 135.531 138.836 134.611C138.389 132.779 137.443 130.362 136.1 127.802C134.757 125.243 133.284 123.051 131.996 121.576C131.349 120.836 130.767 120.297 130.288 119.98C130.048 119.821 129.857 119.734 129.715 119.696C129.577 119.659 129.527 119.679 129.519 119.683C129.51 119.686 129.461 119.709 129.405 119.828C129.348 119.951 129.301 120.14 129.285 120.407C129.253 120.942 129.346 121.69 129.57 122.61C130.018 124.442 130.963 126.859 132.306 129.419C133.649 131.978 135.123 134.17 136.41 135.645C137.057 136.385 137.639 136.924 138.118 137.241C138.358 137.4 138.55 137.487 138.691 137.525ZM131.828 129.622C134.537 134.783 137.796 138.514 139.107 137.956C140.419 137.397 139.286 132.76 136.578 127.599C133.869 122.438 130.611 118.707 129.299 119.265C127.987 119.824 129.12 124.461 131.828 129.622Z" fill="#FFCD40"/>
<path fill-rule="evenodd" clip-rule="evenodd" d="M127.615 136.678C127.646 136.802 127.689 136.831 127.696 136.835C127.704 136.84 127.75 136.866 127.894 136.846C128.041 136.827 128.249 136.764 128.52 136.637C129.059 136.384 129.748 135.925 130.542 135.274C132.124 133.98 134.04 132 135.905 129.642C137.77 127.283 139.212 125.017 140.039 123.264C140.455 122.385 140.704 121.659 140.784 121.128C140.824 120.862 140.819 120.669 140.788 120.542C140.758 120.417 140.714 120.389 140.706 120.384C140.699 120.38 140.653 120.354 140.509 120.373C140.361 120.393 140.154 120.456 139.884 120.582C139.344 120.835 138.655 121.295 137.861 121.945C136.279 123.24 134.363 125.22 132.498 127.578C130.633 129.936 129.191 132.203 128.364 133.955C127.948 134.835 127.699 135.561 127.619 136.092C127.578 136.358 127.584 136.55 127.615 136.678ZM132.069 127.318C128.309 132.073 126.215 136.507 127.393 137.22C128.57 137.934 132.573 134.657 136.334 129.902C140.094 125.146 142.188 120.713 141.01 120C139.833 119.286 135.83 122.563 132.069 127.318Z" fill="#FFCD40"/>
<path fill-rule="evenodd" clip-rule="evenodd" d="M138.182 122.193C138.14 122.595 137.736 122.898 137.281 122.87C136.826 122.842 136.492 122.492 136.535 122.09C136.577 121.688 136.98 121.384 137.436 121.413C137.89 121.441 138.224 121.791 138.182 122.193ZM139.777 133.95C139.735 134.352 139.332 134.656 138.876 134.627C138.422 134.599 138.088 134.249 138.13 133.847C138.173 133.444 138.576 133.141 139.031 133.169C139.486 133.198 139.82 133.547 139.777 133.95ZM127.529 126.716C127.486 127.118 127.083 127.422 126.628 127.393C126.174 127.365 125.84 127.015 125.883 126.613C125.925 126.21 126.328 125.907 126.783 125.935C127.238 125.964 127.571 126.313 127.529 126.716ZM135.608 128.658C135.535 129.34 134.852 129.853 134.083 129.805C133.312 129.757 132.747 129.165 132.818 128.483C132.891 127.802 133.573 127.288 134.343 127.336C135.114 127.385 135.68 127.976 135.608 128.658Z" fill="#FFCD40"/>
</g>
<path d="M107.986 110.255V116.926C108.009 120.83 110.602 124.734 115.76 127.712C126.08 133.67 142.753 133.672 153.006 127.714C158.132 124.735 160.68 120.831 160.658 116.927V110.255H107.986V110.255Z" fill="#F4AF14"/>
<path d="M153.008 121.048C146.4 124.892 137.124 126.257 128.603 125.144C124.548 124.618 120.67 123.533 117.328 121.877C116.791 121.619 116.272 121.34 115.763 121.048C115.123 120.683 114.53 120.3 113.97 119.906C112.342 118.758 111.051 117.507 110.086 116.194C106.013 110.648 107.858 103.994 115.637 99.4763C119.984 96.946 125.484 95.4952 131.161 95.1186C133.652 94.9417 136.176 94.9815 138.649 95.227C140.22 95.3757 141.767 95.6153 143.275 95.9293C146.776 96.6661 150.066 97.8481 152.882 99.4758C153.179 99.6474 153.465 99.8185 153.744 99.9954C163.197 105.981 162.968 115.262 153.008 121.048Z" fill="#FFCD40"/>
<path opacity="0.5" d="M138.649 95.2263L113.97 119.906C112.342 118.758 111.051 117.507 110.086 116.193L131.161 95.118C133.652 94.9411 136.176 94.9809 138.649 95.2263Z" fill="#FFEFAE"/>
<path opacity="0.5" d="M153.743 99.9958L128.601 125.144C124.546 124.618 120.668 123.533 117.326 121.877L143.273 95.9292C146.775 96.666 150.064 97.848 152.88 99.4758C153.177 99.6473 153.463 99.8184 153.743 99.9958Z" fill="#FFEFAE"/>
<path d="M151.17 102.446C146.692 99.8588 140.678 98.4366 134.235 98.4366C127.798 98.4366 121.807 99.8588 117.364 102.441C113.52 104.674 111.412 107.432 111.412 110.22C111.418 112.995 113.628 115.857 117.478 118.079C121.956 120.666 127.97 122.094 134.412 122.094C134.561 122.094 134.709 122.094 134.858 122.088C141.129 122.025 146.943 120.614 151.284 118.09C154.997 115.931 157.099 113.269 157.224 110.585V110.511C157.23 110.442 157.23 110.379 157.23 110.311C157.229 107.535 155.019 104.668 151.17 102.446Z" fill="#E09D17"/>
<path d="M151.403 103.2C147.096 100.715 141.316 99.3505 135.119 99.3505C128.933 99.3505 123.171 100.715 118.899 103.2C115.209 105.342 113.176 107.997 113.182 110.676C113.182 113.343 115.307 116.096 119.007 118.232C123.211 120.665 128.831 122.031 134.857 122.088C141.128 122.025 146.942 120.614 151.283 118.089C154.995 115.93 157.098 113.269 157.223 110.585V110.51C157.091 107.923 154.99 105.267 151.403 103.2Z" fill="#EFA90B"/>
<g filter="url(#filter2_d_2920_16622)">
<path fill-rule="evenodd" clip-rule="evenodd" d="M145.272 110.875C145.379 110.787 145.387 110.738 145.387 110.73C145.388 110.722 145.392 110.674 145.304 110.573C145.213 110.471 145.053 110.345 144.799 110.203C144.292 109.922 143.511 109.634 142.493 109.364C140.464 108.827 137.604 108.391 134.398 108.19C131.191 107.99 128.277 108.066 126.163 108.344C125.101 108.484 124.27 108.671 123.71 108.885C123.43 108.993 123.245 109.098 123.135 109.188C123.027 109.276 123.02 109.324 123.019 109.332C123.018 109.34 123.014 109.389 123.102 109.489C123.193 109.592 123.353 109.718 123.608 109.859C124.114 110.141 124.895 110.428 125.913 110.698C127.942 111.235 130.802 111.672 134.009 111.872C137.215 112.073 140.129 111.997 142.243 111.719C143.306 111.579 144.136 111.392 144.696 111.177C144.976 111.07 145.161 110.965 145.272 110.875ZM133.96 112.335C140.425 112.74 145.776 112.036 145.911 110.763C146.045 109.491 140.913 108.131 134.447 107.727C127.981 107.323 122.63 108.027 122.495 109.3C122.361 110.572 127.493 111.931 133.96 112.335Z" fill="#FFCD40"/>
<path fill-rule="evenodd" clip-rule="evenodd" d="M138.691 118.945C138.829 118.982 138.88 118.962 138.888 118.959C138.896 118.955 138.945 118.932 139.001 118.813C139.059 118.69 139.105 118.502 139.122 118.234C139.154 117.699 139.061 116.951 138.836 116.032C138.389 114.199 137.443 111.782 136.1 109.223C134.757 106.663 133.284 104.471 131.996 102.996C131.349 102.256 130.767 101.717 130.288 101.4C130.048 101.242 129.857 101.154 129.715 101.116C129.577 101.08 129.527 101.099 129.519 101.103C129.51 101.106 129.461 101.129 129.405 101.248C129.348 101.371 129.301 101.56 129.285 101.828C129.253 102.362 129.346 103.11 129.57 104.03C130.018 105.862 130.963 108.279 132.306 110.839C133.649 113.398 135.123 115.59 136.41 117.065C137.057 117.805 137.639 118.344 138.118 118.661C138.358 118.82 138.55 118.907 138.691 118.945ZM131.828 111.042C134.537 116.203 137.796 119.934 139.107 119.376C140.419 118.817 139.286 114.181 136.578 109.019C133.869 103.858 130.611 100.127 129.299 100.685C127.987 101.244 129.12 105.881 131.828 111.042Z" fill="#FFCD40"/>
<path fill-rule="evenodd" clip-rule="evenodd" d="M127.615 118.098C127.646 118.223 127.689 118.251 127.696 118.256C127.704 118.26 127.75 118.286 127.894 118.267C128.041 118.247 128.249 118.184 128.52 118.057C129.059 117.804 129.748 117.345 130.542 116.695C132.124 115.4 134.04 113.42 135.905 111.062C137.77 108.704 139.212 106.437 140.039 104.685C140.455 103.805 140.704 103.079 140.784 102.548C140.824 102.282 140.819 102.09 140.788 101.962C140.758 101.837 140.714 101.809 140.706 101.805C140.699 101.8 140.653 101.774 140.509 101.793C140.361 101.813 140.154 101.876 139.884 102.003C139.344 102.256 138.655 102.715 137.861 103.365C136.279 104.66 134.363 106.64 132.498 108.998C130.633 111.357 129.191 113.623 128.364 115.375C127.948 116.255 127.699 116.981 127.619 117.512C127.578 117.778 127.584 117.97 127.615 118.098ZM132.069 108.738C128.309 113.494 126.215 117.927 127.393 118.64C128.57 119.354 132.573 116.077 136.334 111.322C140.094 106.567 142.188 102.133 141.01 101.42C139.833 100.706 135.83 103.983 132.069 108.738Z" fill="#FFCD40"/>
<path fill-rule="evenodd" clip-rule="evenodd" d="M138.182 103.613C138.14 104.016 137.736 104.319 137.281 104.29C136.826 104.262 136.492 103.913 136.535 103.51C136.577 103.108 136.98 102.805 137.436 102.833C137.89 102.861 138.224 103.211 138.182 103.613ZM139.777 115.37C139.735 115.773 139.332 116.076 138.876 116.048C138.422 116.019 138.088 115.67 138.13 115.267C138.173 114.865 138.576 114.561 139.031 114.59C139.486 114.618 139.82 114.968 139.777 115.37ZM127.529 108.136C127.486 108.539 127.083 108.842 126.628 108.814C126.174 108.785 125.84 108.436 125.883 108.033C125.925 107.63 126.328 107.327 126.783 107.356C127.238 107.384 127.571 107.733 127.529 108.136ZM135.608 110.078C135.535 110.76 134.852 111.273 134.083 111.225C133.312 111.177 132.747 110.585 132.818 109.904C132.891 109.222 133.573 108.708 134.343 108.757C135.114 108.805 135.68 109.396 135.608 110.078Z" fill="#FFCD40"/>
</g>
<path d="M134.634 91.3573C134.634 91.3573 133.094 91.9721 133.094 92.8944C133.094 93.8166 133.71 94.4314 134.634 94.4314C135.557 94.4314 136.173 93.8166 136.173 92.8944C136.173 91.9721 135.557 91.3573 134.634 91.3573Z" fill="black"/>
<path d="M134.634 83.9795C134.634 83.9795 133.094 84.5943 133.094 85.5165C133.094 86.4388 133.71 87.0536 134.634 87.0536C135.557 87.0536 136.173 86.4388 136.173 85.5165C136.173 84.5943 135.557 83.9795 134.634 83.9795Z" fill="black"/>
<path d="M134.634 76.2921C134.634 76.2921 133.094 76.9069 133.094 77.8292C133.094 78.7514 133.71 79.3662 134.634 79.3662C135.557 79.3662 136.173 78.7514 136.173 77.8292C136.173 76.9069 135.557 76.2921 134.634 76.2921Z" fill="black"/>
<path d="M134.634 68.6089C134.634 68.6089 133.094 69.2237 133.094 70.1459C133.094 71.0682 133.71 71.683 134.634 71.683C135.557 71.683 136.173 71.0682 136.173 70.1459C136.173 69.2237 135.557 68.6089 134.634 68.6089Z" fill="black"/>
<path d="M134.634 61.231C134.634 61.231 133.094 61.8458 133.094 62.768C133.094 63.6902 133.71 64.305 134.634 64.305C135.557 64.305 136.173 63.6902 136.173 62.768C136.173 61.8458 135.557 61.231 134.634 61.231Z" fill="black"/>
<path d="M134.634 56.6179C134.634 56.6179 136.173 56.0031 136.173 55.0809C136.173 54.1586 135.557 53.5438 134.634 53.5438C133.71 53.5438 133.094 54.1586 133.094 55.0809C133.094 56.0031 133.71 56.6179 134.634 56.6179Z" fill="black"/>
<path d="M129.701 50.1649H138.94L134.321 43.7094L129.701 50.1649Z" fill="black"/>
<path d="M134.637 179.583C134.637 179.583 136.177 178.969 136.177 178.046C136.177 177.124 135.561 176.509 134.637 176.509C133.714 176.509 133.098 177.124 133.098 178.046C133.098 178.969 133.714 179.583 134.637 179.583Z" fill="black"/>
<path d="M134.637 187.267C134.637 187.267 136.177 186.652 136.177 185.73C136.177 184.807 135.561 184.193 134.637 184.193C133.714 184.193 133.098 184.807 133.098 185.73C133.098 186.652 133.714 187.267 134.637 187.267Z" fill="black"/>
<path d="M134.637 194.954C134.637 194.954 136.177 194.339 136.177 193.417C136.177 192.495 135.561 191.88 134.637 191.88C133.714 191.88 133.098 192.495 133.098 193.417C133.098 194.339 133.714 194.954 134.637 194.954Z" fill="black"/>
<path d="M134.637 202.332C134.637 202.332 136.177 201.717 136.177 200.795C136.177 199.873 135.561 199.258 134.637 199.258C133.714 199.258 133.098 199.873 133.098 200.795C133.098 201.717 133.714 202.332 134.637 202.332Z" fill="black"/>
<path d="M134.637 210.015C134.637 210.015 136.177 209.4 136.177 208.478C136.177 207.556 135.561 206.941 134.637 206.941C133.714 206.941 133.098 207.556 133.098 208.478C133.098 209.4 133.714 210.015 134.637 210.015Z" fill="black"/>
<path d="M134.637 214.319C134.637 214.319 133.098 214.934 133.098 215.856C133.098 216.778 133.714 217.393 134.637 217.393C135.561 217.393 136.177 216.778 136.177 215.856C136.177 214.934 135.561 214.319 134.637 214.319Z" fill="black"/>
<path d="M139.861 221.082H130.314L134.934 227.537L139.861 221.082Z" fill="black"/>
<path d="M172.194 111.34C172.194 111.34 170.962 110.417 170.038 111.032C169.422 111.34 169.114 112.262 169.73 113.184C170.038 113.799 170.962 114.106 171.886 113.492C172.81 112.877 172.81 112.262 172.194 111.34Z" fill="black"/>
<path d="M178.354 107.034C178.354 107.034 177.122 106.112 176.198 106.726C175.582 107.034 175.275 107.956 175.89 108.878C176.506 109.8 177.122 109.8 178.046 109.186C178.662 108.878 178.97 107.956 178.354 107.034Z" fill="black"/>
<path d="M184.51 103.037C184.51 103.037 183.278 102.115 182.355 102.73C181.739 103.037 181.431 103.959 182.047 104.882C182.355 105.496 183.278 105.804 184.202 105.189C184.818 104.882 185.126 103.959 184.51 103.037Z" fill="black"/>
<path d="M190.989 98.7353C190.989 98.7353 189.757 97.8131 188.833 98.4279C187.909 99.0427 187.909 99.6575 188.525 100.58C188.833 101.195 189.757 101.502 190.681 100.887C191.297 100.58 191.605 99.6575 190.989 98.7353Z" fill="black"/>
<path d="M197.137 94.4293C197.137 94.4293 195.905 93.507 194.982 94.1219C194.366 94.4293 194.058 95.3515 194.674 96.2737C194.982 96.8885 195.905 97.196 196.829 96.5811C197.445 96.2737 197.753 95.3515 197.137 94.4293Z" fill="black"/>
<path d="M200.834 91.9709C200.834 91.9709 202.066 92.8931 202.989 92.2783C203.605 91.9709 203.913 91.0487 203.297 90.1264C202.989 89.5116 202.066 89.2042 201.142 89.819C200.526 90.1264 200.218 91.0487 200.834 91.9709Z" fill="black"/>
<path d="M203.6 84.2852L208.835 91.9704L211.607 84.5926L203.6 84.2852Z" fill="black"/>
<path d="M175.883 155.91C175.883 155.91 175.883 154.373 175.267 154.066C174.651 153.759 173.728 154.066 173.42 154.681C173.112 155.296 173.42 156.218 174.036 156.525C174.651 156.833 175.575 156.525 175.883 155.91Z" fill="black"/>
<path d="M182.67 159.292C182.67 159.292 182.67 157.755 182.054 157.447C181.439 157.14 180.515 157.447 180.207 158.062C179.899 158.677 180.207 159.599 180.823 159.907C181.439 160.214 182.362 159.907 182.67 159.292Z" fill="black"/>
<path d="M189.442 162.368C189.442 162.368 189.442 160.831 188.826 160.523C188.21 160.216 187.286 160.523 186.978 161.138C186.67 161.753 186.978 162.675 187.594 162.982C188.21 163.29 189.134 162.982 189.442 162.368Z" fill="black"/>
<path d="M196.211 165.749C196.211 165.749 196.211 164.212 195.596 163.905C194.98 163.597 194.056 163.905 193.748 164.519C193.44 165.134 193.748 166.057 194.364 166.364C194.98 166.671 195.903 166.364 196.211 165.749Z" fill="black"/>
<path d="M202.999 169.13C202.999 169.13 202.999 167.593 202.383 167.286C201.767 166.978 200.843 167.286 200.535 167.901C200.227 168.515 200.535 169.438 201.151 169.745C201.767 170.052 202.691 169.745 202.999 169.13Z" fill="black"/>
<path d="M207.297 170.976C207.297 170.976 207.297 172.513 207.913 172.821C208.529 173.128 209.453 172.821 209.761 172.206C210.068 171.591 209.761 170.669 209.145 170.361C208.529 170.054 207.605 170.361 207.297 170.976Z" fill="black"/>
<path d="M215.304 169.437L211.301 178.044L219 176.507L215.304 169.437Z" fill="black"/>
<path d="M98.2867 111.34C98.2867 111.34 99.5185 110.417 100.442 111.032C101.058 111.34 101.366 112.262 100.75 113.184C100.442 113.799 99.5185 114.106 98.5946 113.492C97.6708 112.877 97.6708 112.262 98.2867 111.34Z" fill="black"/>
<path d="M92.1326 107.034C92.1326 107.034 93.3644 106.112 94.2883 106.726C94.9042 107.034 95.2122 107.956 94.5963 108.878C93.9803 109.8 93.3644 109.8 92.4406 109.186C91.8246 108.878 91.5167 107.956 92.1326 107.034Z" fill="black"/>
<path d="M85.9705 103.037C85.9705 103.037 87.2023 102.115 88.1262 102.73C88.7421 103.037 89.0501 103.959 88.4341 104.882C88.1262 105.496 87.2023 105.804 86.2785 105.189C85.6625 104.882 85.3546 103.959 85.9705 103.037Z" fill="black"/>
<path d="M79.5076 98.7353C79.5076 98.7353 80.7394 97.8131 81.6633 98.4279C82.5872 99.0427 82.5872 99.6575 81.9713 100.58C81.6633 101.195 80.7394 101.502 79.8156 100.887C79.1996 100.58 78.8917 99.6575 79.5076 98.7353Z" fill="black"/>
<path d="M73.3475 94.4293C73.3475 94.4293 74.5793 93.507 75.5032 94.1219C76.1191 94.4293 76.427 95.3515 75.8111 96.2737C75.5032 96.8885 74.5792 97.196 73.6554 96.5811C73.0395 96.2737 72.7315 95.3515 73.3475 94.4293Z" fill="black"/>
<path d="M69.6509 91.9709C69.6509 91.9709 68.4191 92.8931 67.4953 92.2783C66.8793 91.9709 66.5714 91.0487 67.1873 90.1264C67.4952 89.5116 68.4191 89.2042 69.343 89.819C69.9589 90.1264 70.2669 91.0487 69.6509 91.9709Z" fill="black"/>
<path d="M66.8663 84.2852L61.631 91.9704L58.8594 84.5926L66.8663 84.2852Z" fill="black"/>
<path d="M94.5957 155.911C94.5957 155.911 94.5957 154.374 95.2116 154.067C95.8275 153.759 96.7514 154.067 97.0594 154.681C97.3673 155.296 97.0594 156.218 96.4435 156.526C95.8276 156.833 94.9037 156.526 94.5957 155.911Z" fill="black"/>
<path d="M87.8066 159.293C87.8066 159.293 87.8067 157.756 88.4226 157.448C89.0385 157.141 89.9623 157.448 90.2703 158.063C90.5783 158.678 90.2703 159.6 89.6544 159.907C89.0385 160.215 88.1146 159.907 87.8066 159.293Z" fill="black"/>
<path d="M81.0371 162.368C81.0371 162.368 81.0371 160.831 81.653 160.524C82.2689 160.216 83.1928 160.524 83.5008 161.138C83.8087 161.753 83.5008 162.676 82.8848 162.983C82.2689 163.29 81.3451 162.983 81.0371 162.368Z" fill="black"/>
<path d="M74.2656 165.749C74.2656 165.749 74.2656 164.212 74.8816 163.905C75.4975 163.598 76.4213 163.905 76.7293 164.52C77.0372 165.135 76.7293 166.057 76.1134 166.364C75.4974 166.672 74.5736 166.364 74.2656 165.749Z" fill="black"/>
<path d="M67.4961 169.131C67.4961 169.131 67.4961 167.594 68.112 167.286C68.7279 166.979 69.6518 167.286 69.9597 167.901C70.2677 168.516 69.9597 169.438 69.3438 169.746C68.7279 170.053 67.8041 169.746 67.4961 169.131Z" fill="black"/>
<path d="M63.1783 170.977C63.1783 170.977 63.1783 172.514 62.5623 172.821C61.9464 173.129 61.0225 172.821 60.7146 172.207C60.4066 171.592 60.7146 170.669 61.3305 170.362C61.9464 170.055 62.8703 170.362 63.1783 170.977Z" fill="black"/>
<path d="M55.1721 169.437L59.1755 178.045L51.4766 176.508L55.1721 169.437Z" fill="black"/>
<path d="M43.7788 64.6118C45.6265 64.6118 46.8584 65.8414 46.8584 67.6859V92.586C46.8584 94.4305 45.6265 95.6601 43.7788 95.6601H30.2287C28.3809 95.6601 27.1491 94.4305 27.1491 92.586V67.6859C27.1491 65.8414 28.3809 64.6118 30.2287 64.6118H43.7788ZM43.7788 63.9969H30.2287C28.3809 63.9969 26.5332 65.534 26.5332 67.6859V92.586C26.5332 94.4305 28.073 96.2749 30.2287 96.2749H43.7788C45.6265 96.2749 47.4743 94.7379 47.4743 92.586V67.6859C47.4743 65.8414 45.9345 63.9969 43.7788 63.9969Z" fill="black"/>
<path d="M46.8551 68.6089H26.8379V69.2237H46.8551V68.6089Z" fill="black"/>
<path d="M41.0095 64.6118C41.0095 64.6118 41.6254 64.6118 41.6254 65.2266C41.6254 65.8414 41.6254 65.8414 41.0095 65.8414H33.3106C33.3106 65.8414 32.6946 65.8414 32.6946 65.2266C32.6946 64.6118 32.6946 64.6118 33.3106 64.6118H41.0095ZM41.0095 63.9969H33.3106C33.3106 63.9969 32.3867 64.3044 32.3867 64.9192C32.3867 65.534 32.6946 65.8414 33.3106 65.8414H41.0095C41.0095 65.8414 41.9334 65.534 41.9334 64.9192C41.9334 64.3044 41.6254 63.9969 41.0095 63.9969Z" fill="black"/>
<path d="M38.8537 91.3569C38.8537 91.3569 39.7776 91.6643 39.7776 92.2791C39.7776 92.8939 39.4696 93.2013 38.8537 93.2013H35.4662C35.4662 93.2013 34.5423 92.8939 34.5423 92.2791C34.5423 91.6643 34.8503 91.3569 35.4662 91.3569H38.8537ZM38.8537 90.7421H35.4662C35.4662 90.7421 34.2344 91.3569 34.2344 91.9717C34.2344 92.5865 34.8503 93.2013 35.4662 93.2013H38.8537C38.8537 93.2013 40.0856 92.5865 40.0856 91.9717C40.0856 91.3569 39.4696 90.7421 38.8537 90.7421Z" fill="black"/>
<path d="M141.705 234.611C143.552 234.611 144.784 235.84 144.784 237.685V262.585C144.784 264.429 143.552 265.659 141.705 265.659H128.154C126.307 265.659 125.075 264.429 125.075 262.585V237.685C125.075 235.84 126.307 234.611 128.154 234.611H141.705ZM141.705 233.996H128.154C126.307 233.996 124.459 235.533 124.459 237.685V262.585C124.459 264.429 125.999 266.274 128.154 266.274H141.705C143.552 266.274 145.4 264.737 145.4 262.585V237.685C145.4 235.84 143.86 233.996 141.705 233.996Z" fill="black"/>
<path d="M144.781 238.608H124.764V239.222H144.781V238.608Z" fill="black"/>
<path d="M138.631 234.611C138.631 234.611 139.247 234.611 139.247 235.225C139.247 235.84 139.247 235.84 138.631 235.84H130.932C130.932 235.84 130.316 235.84 130.316 235.225C130.316 234.611 130.316 234.611 130.932 234.611H138.631ZM138.631 233.996H130.932C130.932 233.996 130.008 234.303 130.008 234.918C130.008 235.533 130.316 235.84 130.932 235.84H138.631C138.631 235.84 139.555 235.533 139.555 234.918C139.555 234.303 139.247 233.996 138.631 233.996Z" fill="black"/>
<path d="M136.477 261.356C136.477 261.356 137.401 261.663 137.401 262.278C137.401 262.893 137.093 263.2 136.477 263.2H133.089C133.089 263.2 132.165 262.893 132.165 262.278C132.165 261.663 132.473 261.356 133.089 261.356H136.477ZM136.477 260.741H133.089C133.089 260.741 131.857 261.356 131.857 261.97C131.857 262.585 132.473 263.2 133.089 263.2H136.477C136.477 263.2 137.709 262.585 137.709 261.97C137.709 261.356 137.093 260.741 136.477 260.741Z" fill="black"/>
<path d="M239.341 64.6119C241.189 64.6119 242.421 65.8415 242.421 67.686V92.5861C242.421 94.4306 241.189 95.6602 239.341 95.6602H225.791C223.943 95.6602 222.712 94.4306 222.712 92.5861V67.686C222.712 65.8415 223.943 64.6119 225.791 64.6119H239.341ZM239.341 63.9971H225.791C223.943 63.9971 222.096 65.5341 222.096 67.686V92.5861C222.096 94.4306 223.635 96.275 225.791 96.275H239.341C241.189 96.275 243.037 94.738 243.037 92.5861V67.686C243.037 65.8415 241.497 63.9971 239.341 63.9971Z" fill="black"/>
<path d="M242.4 68.6089H222.383V69.2237H242.4V68.6089Z" fill="black"/>
<path d="M236.556 64.6119C236.556 64.6119 237.172 64.6119 237.172 65.2267C237.172 65.8415 237.172 65.8415 236.556 65.8415H228.857C228.857 65.8415 228.242 65.8415 228.242 65.2267C228.242 64.6119 228.242 64.6119 228.857 64.6119H236.556ZM236.556 63.9971H228.857C228.857 63.9971 227.934 64.3045 227.934 64.9193C227.934 65.5341 228.242 65.8415 228.857 65.8415H236.556C236.556 65.8415 237.48 65.5341 237.48 64.9193C237.48 64.3045 237.172 63.9971 236.556 63.9971Z" fill="black"/>
<path d="M234.403 91.357C234.403 91.357 235.326 91.6644 235.326 92.2792C235.326 92.8941 235.018 93.2015 234.403 93.2015H231.015C231.015 93.2015 230.091 92.8941 230.091 92.2792C230.091 91.6644 230.399 91.357 231.015 91.357H234.403ZM234.403 90.7422H231.015C231.015 90.7422 229.783 91.357 229.783 91.9718C229.783 92.5866 230.399 93.2015 231.015 93.2015H234.403C234.403 93.2015 235.634 92.5866 235.634 91.9718C235.634 91.357 235.018 90.7422 234.403 90.7422Z" fill="black"/>
<path d="M261.498 159.908C261.498 159.908 263.962 160.83 263.962 162.367V184.808H226.391V162.367C226.391 162.367 227.315 159.908 228.855 159.908H261.806M261.498 159.293H228.547C227.007 159.293 225.775 160.523 225.775 162.06V184.808H264.578V162.06C264.578 160.523 263.346 159.293 261.806 159.293H261.498Z" fill="black"/>
<path d="M264.277 185.117L268.589 190.958H222.087L226.399 185.117H264.585M264.585 184.502H225.783L220.855 191.265H269.513L264.585 184.502Z" fill="black"/>
<path d="M268.589 191.265H268.897V193.109H221.163V191.572H221.471L268.281 191.265M268.897 190.65H221.471L220.855 191.265V193.417H269.513V191.265L268.897 190.65Z" fill="black"/>
<path d="M261.498 162.674V182.656H229.162V162.674H261.498ZM261.806 162.059H228.238V183.271H261.806V162.059Z" fill="black"/>
<path d="M232.55 186.959H230.395V187.574H232.55V186.959Z" fill="black"/>
<path d="M237.79 186.959H235.635V187.574H237.79V186.959Z" fill="black"/>
<path d="M243.339 186.959H241.184V187.574H243.339V186.959Z" fill="black"/>
<path d="M248.871 186.959H246.715V187.574H248.871V186.959Z" fill="black"/>
<path d="M254.115 186.959H251.959V187.574H254.115V186.959Z" fill="black"/>
<path d="M259.664 186.959H257.508V187.574H259.664V186.959Z" fill="black"/>
<path d="M235.33 188.804H233.174V189.419H235.33V188.804Z" fill="black"/>
<path d="M240.56 188.804H238.404V189.419H240.56V188.804Z" fill="black"/>
<path d="M246.105 188.804H243.949V189.419H246.105V188.804Z" fill="black"/>
<path d="M251.654 188.804H249.498V189.419H251.654V188.804Z" fill="black"/>
<path d="M256.88 188.804H254.725V189.419H256.88V188.804Z" fill="black"/>
<path d="M262.431 188.804H260.275V189.419H262.431V188.804Z" fill="black"/>
<path d="M229.783 188.804H227.627V189.419H229.783V188.804Z" fill="black"/>
<path d="M151.862 1.59309C151.862 1.59309 154.325 2.51532 154.325 4.05236V26.4932H116.755V4.05236C116.755 4.05236 117.678 1.59309 119.218 1.59309H152.17M151.862 0.978271H118.91C117.371 0.978271 116.139 2.20791 116.139 3.74495V26.4932H154.941V3.74495C154.941 2.20791 153.709 0.978271 152.17 0.978271H151.862Z" fill="black"/>
<path d="M154.336 26.8002L158.647 32.641H112.146L116.457 26.8002H154.644M154.644 26.4928H115.841L110.914 33.2558H159.571L154.644 26.4928Z" fill="black"/>
<path d="M158.647 32.9479H158.955V34.7924H111.222V33.2553H111.53L158.339 32.9479M158.955 32.6405H111.53L110.914 33.2553V35.4072H159.571V33.2553L158.955 32.6405Z" fill="black"/>
<path d="M151.567 4.35932V24.3409H119.231V4.35932H151.567ZM152.183 3.74451H118.615V24.9557H152.183V3.74451Z" fill="black"/>
<path d="M122.607 28.6439H120.451V29.2587H122.607V28.6439Z" fill="black"/>
<path d="M128.154 28.6439H125.998V29.2587H128.154V28.6439Z" fill="black"/>
<path d="M133.382 28.6439H131.227V29.2587H133.382V28.6439Z" fill="black"/>
<path d="M138.929 28.6439H136.773V29.2587H138.929V28.6439Z" fill="black"/>
<path d="M144.173 28.644H142.018V29.2589H144.173V28.644Z" fill="black"/>
<path d="M149.722 28.6439H147.566V29.2587H149.722V28.6439Z" fill="black"/>
<path d="M125.388 30.4894H123.232V31.1042H125.388V30.4894Z" fill="black"/>
<path d="M130.921 30.4895H128.766V31.1043H130.921V30.4895Z" fill="black"/>
<path d="M136.164 30.4895H134.008V31.1043H136.164V30.4895Z" fill="black"/>
<path d="M141.712 30.4895H139.557V31.1043H141.712V30.4895Z" fill="black"/>
<path d="M146.937 30.4895H144.781V31.1043H146.937V30.4895Z" fill="black"/>
<path d="M152.488 30.4894H150.332V31.1042H152.488V30.4894Z" fill="black"/>
<path d="M119.841 30.4895H117.686V31.1043H119.841V30.4895Z" fill="black"/>
<path d="M41.3148 159.908C41.3148 159.908 43.7785 160.83 43.7785 162.367V184.808H6.20773V162.367C6.20773 162.367 7.13159 159.908 8.67138 159.908H41.6228M41.3148 159.293H8.36342C6.82363 159.293 5.5918 160.523 5.5918 162.06V184.808H44.3944V162.06C44.3944 160.523 43.1626 159.293 41.6228 159.293H41.3148Z" fill="black"/>
<path d="M44.0938 185.117L48.4052 190.958H1.90367L6.21512 185.117H44.4018M44.4018 184.502H5.59919L0.671875 191.265H49.3291L44.4018 184.502Z" fill="black"/>
<path d="M48.4052 191.265H48.7132V193.109H0.979839V191.572H1.2878L48.0973 191.265M48.7132 190.65H1.2878L0.671875 191.265V193.417H49.3291V191.265L48.7132 190.65Z" fill="black"/>
<path d="M41.0061 162.674V182.656H8.67062V162.674H41.0061ZM41.622 162.059H8.05469V183.271H41.622V162.059Z" fill="black"/>
<path d="M12.3666 186.959H10.2109V187.574H12.3666V186.959Z" fill="black"/>
<path d="M17.5912 186.959H15.4355V187.574H17.5912V186.959Z" fill="black"/>
<path d="M23.1401 186.959H20.9844V187.574H23.1401V186.959Z" fill="black"/>
<path d="M28.3823 186.959H26.2266V187.574H28.3823V186.959Z" fill="black"/>
<path d="M33.9311 186.959H31.7754V187.574H33.9311V186.959Z" fill="black"/>
<path d="M39.4623 186.959H37.3066V187.574H39.4623V186.959Z" fill="black"/>
<path d="M15.1459 188.804H12.9902V189.419H15.1459V188.804Z" fill="black"/>
<path d="M20.3725 188.804H18.2168V189.419H20.3725V188.804Z" fill="black"/>
<path d="M25.9213 188.804H23.7656V189.419H25.9213V188.804Z" fill="black"/>
<path d="M31.1479 188.804H28.9922V189.419H31.1479V188.804Z" fill="black"/>
<path d="M36.6967 188.804H34.541V189.419H36.6967V188.804Z" fill="black"/>
<path d="M42.2299 188.804H40.0742V189.419H42.2299V188.804Z" fill="black"/>
<path d="M9.29442 188.804H7.13867V189.419H9.29442V188.804Z" fill="black"/>
<defs>
<filter id="filter0_d_2920_16622" x="122.029" y="137.789" width="24.3487" height="19.844" filterUnits="userSpaceOnUse" color-interpolation-filters="sRGB">
<feFlood flood-opacity="0" result="BackgroundImageFix"/>
<feColorMatrix in="SourceAlpha" type="matrix" values="0 0 0 0 0 0 0 0 0 0 0 0 0 0 0 0 0 0 127 0" result="hardAlpha"/>
<feOffset dy="0.579285"/>
<feGaussianBlur stdDeviation="0.231714"/>
<feComposite in2="hardAlpha" operator="out"/>
<feColorMatrix type="matrix" values="0 0 0 0 0 0 0 0 0 0 0 0 0 0 0 0 0 0 0.25 0"/>
<feBlend mode="normal" in2="BackgroundImageFix" result="effect1_dropShadow_2920_16622"/>
<feBlend mode="normal" in="SourceGraphic" in2="effect1_dropShadow_2920_16622" result="shape"/>
</filter>
<filter id="filter1_d_2920_16622" x="122.029" y="119.21" width="24.3487" height="19.844" filterUnits="userSpaceOnUse" color-interpolation-filters="sRGB">
<feFlood flood-opacity="0" result="BackgroundImageFix"/>
<feColorMatrix in="SourceAlpha" type="matrix" values="0 0 0 0 0 0 0 0 0 0 0 0 0 0 0 0 0 0 127 0" result="hardAlpha"/>
<feOffset dy="0.579285"/>
<feGaussianBlur stdDeviation="0.231714"/>
<feComposite in2="hardAlpha" operator="out"/>
<feColorMatrix type="matrix" values="0 0 0 0 0 0 0 0 0 0 0 0 0 0 0 0 0 0 0.25 0"/>
<feBlend mode="normal" in2="BackgroundImageFix" result="effect1_dropShadow_2920_16622"/>
<feBlend mode="normal" in="SourceGraphic" in2="effect1_dropShadow_2920_16622" result="shape"/>
</filter>
<filter id="filter2_d_2920_16622" x="122.029" y="100.63" width="24.3487" height="19.844" filterUnits="userSpaceOnUse" color-interpolation-filters="sRGB">
<feFlood flood-opacity="0" result="BackgroundImageFix"/>
<feColorMatrix in="SourceAlpha" type="matrix" values="0 0 0 0 0 0 0 0 0 0 0 0 0 0 0 0 0 0 127 0" result="hardAlpha"/>
<feOffset dy="0.579285"/>
<feGaussianBlur stdDeviation="0.231714"/>
<feComposite in2="hardAlpha" operator="out"/>
<feColorMatrix type="matrix" values="0 0 0 0 0 0 0 0 0 0 0 0 0 0 0 0 0 0 0.25 0"/>
<feBlend mode="normal" in2="BackgroundImageFix" result="effect1_dropShadow_2920_16622"/>
<feBlend mode="normal" in="SourceGraphic" in2="effect1_dropShadow_2920_16622" result="shape"/>
</filter>
<linearGradient id="paint0_linear_2920_16622" x1="59.1064" y1="254.38" x2="59.3129" y2="69.6442" gradientUnits="userSpaceOnUse">
<stop stop-color="#BC0D0D"/>
<stop offset="1" stop-color="#F26565"/>
</linearGradient>
</defs>
</svg>
