<svg width="202" height="270" viewBox="0 0 202 270" fill="none" xmlns="http://www.w3.org/2000/svg">
<path opacity="0.3" d="M0 157.155L195.555 270L201.991 266.337L6.43957 153.496L0 157.155Z" fill="black"/>
<path d="M0 155.061L195.555 267.913V253.893L0 141.045V155.061Z" fill="#782D2D"/>
<path d="M5.70312 151.829L189.847 258.153V256.654L5.70312 150.334V151.829Z" fill="#E56565"/>
<path d="M0 141.045L195.555 253.894L201.991 250.234L6.43957 137.385L0 141.045Z" fill="#B84242"/>
<path d="M195.557 267.914L201.992 264.247V250.234L195.557 253.894V267.914Z" fill="#360E0E"/>
<path d="M0 139L195.555 251.86V129.204L0 16.3594V139Z" fill="#F4E9E9"/>
<path d="M9.70312 132.265L185.398 233.698V135.948L9.70312 34.5222V132.265Z" fill="#782D2D"/>
<g opacity="0.3">
<path d="M18.1055 54.6588L20.5933 56.0954V48.4645L18.4519 47.2264V45.3342C19.6939 45.782 20.4843 45.8676 21.2941 45.7703L23.2369 46.8915V57.6216L25.3821 58.8597V61.332L18.1055 57.1349V54.6588Z" fill="#FFBABA"/>
<path d="M27.0098 55.6207C27.0098 51.1277 28.6489 49.769 31.0978 51.1823C33.5428 52.5955 35.1858 55.8504 35.1858 60.3394C35.1858 64.8324 33.5467 66.2962 31.0978 64.8829C28.6528 63.4697 27.0098 60.1097 27.0098 55.6207ZM32.6824 58.895C32.6824 55.2781 31.9972 54.0711 31.0978 53.5533C30.214 53.0433 29.5132 53.4521 29.5132 57.0651C29.5132 60.6626 30.214 62.0019 31.0978 62.5119C31.9972 63.0336 32.6824 62.4925 32.6824 58.895Z" fill="#FFBABA"/>
<path d="M37.1094 65.626L39.5973 67.0627V59.4318L37.4559 58.1937V56.3015C38.6979 56.7492 39.4921 56.8349 40.302 56.7376L42.2447 57.8588V68.5889L44.39 69.827V72.2993L37.1133 68.1022V65.626H37.1094Z" fill="#FFBABA"/>
<path d="M46.0137 66.5923C46.0137 62.0994 47.6528 60.7367 50.1017 62.1539C52.5467 63.5672 54.1897 66.822 54.1897 71.3111C54.1897 75.804 52.5506 77.2678 50.1017 75.8546C47.6528 74.4413 46.0137 71.0813 46.0137 66.5923ZM51.6863 69.8627C51.6863 66.2458 51.0011 65.0389 50.1017 64.521C49.2179 64.011 48.5171 64.4198 48.5171 68.0329C48.5171 71.6303 49.2179 72.9696 50.1017 73.4797C51.0011 74.0014 51.6863 73.4602 51.6863 69.8627Z" fill="#FFBABA"/>
<path d="M56.1035 76.598L58.5913 78.0347V70.4037L56.45 69.1656V67.2734C57.692 67.7212 58.4824 67.8068 59.2922 67.7095L61.2349 68.8308V79.5609L63.3802 80.7989V83.2713L56.1035 79.0742V76.598Z" fill="#FFBABA"/>
<path d="M65.6016 82.0797L68.0855 83.5125V75.8815L65.948 74.6473V72.7551C67.19 73.199 67.9804 73.2846 68.7902 73.1912L70.733 74.3124V85.0425L72.8782 86.2806V88.7568L65.6016 84.5558V82.0797Z" fill="#FFBABA"/>
<path d="M75.1074 87.5651L77.5952 89.0017V81.3707L75.4539 80.1327V78.2405C76.6959 78.6882 77.4863 78.7739 78.2961 78.6765L80.2388 79.7978V90.5279L82.384 91.766V94.2382L75.1074 90.0412V87.5651Z" fill="#FFBABA"/>
<path d="M84.0117 88.5269C84.0117 84.034 85.6508 82.6752 88.0997 84.0885C90.5448 85.5018 92.1878 88.7567 92.1878 93.2457C92.1878 97.7386 90.5487 99.2025 88.0997 97.7931C85.6508 96.3759 84.0117 93.0199 84.0117 88.5269ZM89.6843 91.8012C89.6843 88.1843 88.9991 86.9774 88.0997 86.4596C87.216 85.9496 86.5152 86.3583 86.5152 89.9714C86.5152 93.5688 87.216 94.912 88.0997 95.4182C88.9991 95.9399 89.6843 95.3987 89.6843 91.8012Z" fill="#FFBABA"/>
<path d="M94.1016 98.5333L96.5894 99.9699V92.339L94.448 91.1009V89.2087C95.69 89.6565 96.4804 89.7421 97.2902 89.6448L99.233 90.7661V101.496L101.378 102.734V105.206L94.1016 101.01V98.5333Z" fill="#FFBABA"/>
<path d="M103.006 99.4988C103.006 95.0059 104.645 93.6471 107.094 95.0604C109.539 96.4737 111.182 99.7285 111.182 104.218C111.182 108.71 109.543 110.174 107.094 108.765C104.645 107.348 103.006 103.988 103.006 99.4988ZM108.678 102.769C108.678 99.1523 107.993 97.9454 107.094 97.4275C106.21 96.9175 105.509 97.3263 105.509 100.939C105.509 104.537 106.21 105.88 107.094 106.386C107.993 106.908 108.678 106.367 108.678 102.769Z" fill="#FFBABA"/>
<path d="M112.504 104.98C112.504 100.491 114.143 99.1283 116.592 100.542C119.041 101.955 120.68 105.21 120.68 109.703C120.68 114.192 119.041 115.659 116.592 114.246C114.143 112.829 112.504 109.473 112.504 104.98ZM118.177 108.258C118.177 104.637 117.491 103.434 116.592 102.917C115.708 102.406 115.003 102.811 115.003 106.428C115.003 110.026 115.708 111.369 116.592 111.879C117.491 112.393 118.177 111.852 118.177 108.258Z" fill="#FFBABA"/>
<path d="M122.01 110.466C122.01 105.973 123.649 104.614 126.098 106.028C128.543 107.441 130.186 110.696 130.186 115.185C130.186 119.678 128.547 121.142 126.098 119.728C123.645 118.315 122.01 114.955 122.01 110.466ZM127.682 113.74C127.682 110.124 126.997 108.917 126.098 108.399C125.214 107.889 124.513 108.298 124.513 111.911C124.513 115.508 125.214 116.847 126.098 117.357C126.997 117.879 127.682 117.338 127.682 113.74Z" fill="#FFBABA"/>
<path d="M132.1 120.472L134.587 121.909V114.278L132.446 113.04V111.148C133.688 111.595 134.478 111.681 135.288 111.584L137.231 112.705V123.435L139.376 124.673V127.146L132.1 122.948V120.472Z" fill="#FFBABA"/>
<path d="M141.004 121.434C141.004 116.941 142.643 115.582 145.092 116.996C147.537 118.409 149.18 121.664 149.18 126.153C149.18 130.646 147.541 132.11 145.092 130.696C142.643 129.287 141.004 125.927 141.004 121.434ZM146.677 124.708C146.677 121.092 145.991 119.885 145.092 119.367C144.208 118.857 143.507 119.266 143.507 122.879C143.507 126.476 144.208 127.815 145.092 128.325C145.995 128.847 146.677 128.306 146.677 124.708Z" fill="#FFBABA"/>
<path d="M150.502 126.919C150.502 122.43 152.141 121.067 154.59 122.481C157.039 123.894 158.678 127.149 158.678 131.642C158.678 136.131 157.043 137.599 154.59 136.185C152.141 134.768 150.502 131.408 150.502 126.919ZM156.175 130.193C156.175 126.573 155.489 125.37 154.59 124.848C153.706 124.338 153.001 124.743 153.001 128.36C153.001 131.957 153.706 133.3 154.59 133.81C155.493 134.332 156.175 133.791 156.175 130.193Z" fill="#FFBABA"/>
<path d="M160.602 136.925L163.086 138.358V130.727L160.944 129.493V127.6C162.186 128.044 162.98 128.13 163.79 128.036L165.733 129.158V139.888L167.874 141.126V143.602L160.602 139.401V136.925Z" fill="#FFBABA"/>
<path d="M170.098 142.411L172.586 143.848V136.217L170.44 134.979V133.087C171.682 133.535 172.476 133.62 173.286 133.523L175.229 134.644V145.374L177.37 146.612V149.085L170.098 144.888V142.411Z" fill="#FFBABA"/>
<path d="M18.1055 79.5922L20.5933 81.0249V73.394L18.4519 72.1598V70.2676C19.6939 70.7153 20.4843 70.7971 21.2941 70.7036L23.2369 71.825V82.555L25.3821 83.7892V86.2654L18.1055 82.0644V79.5922Z" fill="#FFBABA"/>
<path d="M27.0098 80.554C27.0098 76.0611 28.6489 74.7023 31.0978 76.1156C33.5428 77.5289 35.1858 80.7838 35.1858 85.2767C35.1858 89.7657 33.5467 91.2335 31.0978 89.8202C28.6528 88.403 27.0098 85.047 27.0098 80.554ZM32.6824 83.8283C32.6824 80.2114 31.9972 79.0045 31.0978 78.4867C30.214 77.9767 29.5132 78.3815 29.5132 81.9985C29.5132 85.5959 30.214 86.9352 31.0978 87.4453C31.9972 87.967 32.6824 87.4258 32.6824 83.8283Z" fill="#FFBABA"/>
<path d="M37.1094 90.5631L39.5973 91.9959V84.3649L37.4559 83.1307V81.2385C38.6979 81.6863 39.4921 81.768 40.302 81.6746L42.2447 82.7958V93.5259L44.39 94.7601V97.2363L37.1133 93.0354V90.5631H37.1094Z" fill="#FFBABA"/>
<path d="M46.0137 91.5211C46.0137 87.0281 47.6528 85.6694 50.1017 87.0826C52.5467 88.4959 54.1897 91.7508 54.1897 96.2437C54.1897 100.737 52.5506 102.201 50.1017 100.787C47.6528 99.3701 46.0137 96.014 46.0137 91.5211ZM51.6863 94.7993C51.6863 91.1824 51.0011 89.9754 50.1017 89.4576C49.2179 88.9476 48.5171 89.3525 48.5171 92.9694C48.5171 96.5669 49.2179 97.9101 50.1017 98.4162C51.0011 98.934 51.6863 98.3929 51.6863 94.7993Z" fill="#FFBABA"/>
<path d="M56.1035 101.531L58.5913 102.964V95.3329L56.45 94.0987V92.2065C57.692 92.6543 58.4824 92.736 59.2922 92.6426L61.2349 93.7639V104.494L63.3802 105.728V108.204L56.1035 104.003V101.531Z" fill="#FFBABA"/>
<path d="M65.0078 102.493C65.0078 98.0001 66.6469 96.6413 69.0958 98.0546C71.5409 99.4679 73.1838 102.723 73.1838 107.216C73.1838 111.705 71.5448 113.172 69.0958 111.759C66.6469 110.342 65.0078 106.986 65.0078 102.493ZM70.6804 105.767C70.6804 102.15 69.9952 100.943 69.0958 100.426C68.2121 99.9156 67.5112 100.321 67.5112 103.937C67.5112 107.535 68.2121 108.878 69.0958 109.384C69.9952 109.906 70.6804 109.365 70.6804 105.767Z" fill="#FFBABA"/>
<path d="M75.1074 112.498L77.5952 113.931V106.3L75.4539 105.066V103.174C76.6959 103.622 77.4863 103.703 78.2961 103.61L80.2388 104.731V115.461L82.384 116.695V119.172L75.1074 114.971V112.498Z" fill="#FFBABA"/>
<path d="M84.0117 113.46C84.0117 108.967 85.6508 107.609 88.0997 109.022C90.5448 110.435 92.1878 113.69 92.1878 118.183C92.1878 122.672 90.5487 124.14 88.0997 122.726C85.6508 121.309 84.0117 117.953 84.0117 113.46ZM89.6843 116.735C89.6843 113.118 88.9991 111.911 88.0997 111.393C87.216 110.883 86.5152 111.288 86.5152 114.905C86.5152 118.502 87.216 119.845 88.0997 120.351C88.9991 120.873 89.6843 120.332 89.6843 116.735Z" fill="#FFBABA"/>
<path d="M94.1016 123.47L96.5894 124.903V117.272L94.448 116.038V114.146C95.69 114.593 96.4804 114.675 97.2902 114.582L99.233 115.703V126.433L101.378 127.667V130.144L94.1016 125.943V123.47Z" fill="#FFBABA"/>
<path d="M103.006 124.427C103.006 119.934 104.645 118.576 107.094 119.989C109.539 121.402 111.182 124.657 111.182 129.15C111.182 133.639 109.543 135.107 107.094 133.693C104.645 132.28 103.006 128.92 103.006 124.427ZM108.678 127.705C108.678 124.089 107.993 122.882 107.094 122.364C106.21 121.854 105.509 122.259 105.509 125.876C105.509 129.473 106.21 130.816 107.094 131.322C107.993 131.84 108.678 131.303 108.678 127.705Z" fill="#FFBABA"/>
<path d="M113.098 134.437L115.586 135.87V128.239L113.444 127.005V125.113C114.686 125.561 115.476 125.642 116.286 125.549L118.229 126.67V137.4L120.374 138.634V141.111L113.098 136.91V134.437Z" fill="#FFBABA"/>
<path d="M122.01 135.399C122.01 130.906 123.649 129.548 126.098 130.961C128.543 132.374 130.186 135.629 130.186 140.122C130.186 144.611 128.547 146.079 126.098 144.665C123.645 143.248 122.01 139.892 122.01 135.399ZM127.682 138.674C127.682 135.057 126.997 133.85 126.098 133.332C125.214 132.822 124.513 133.227 124.513 136.844C124.513 140.441 125.214 141.784 126.098 142.29C126.997 142.812 127.682 142.271 127.682 138.674Z" fill="#FFBABA"/>
<path d="M132.1 145.409L134.587 146.842V139.211L132.446 137.977V136.085C133.688 136.532 134.478 136.614 135.288 136.521L137.231 137.642V148.372L139.376 149.606V152.083L132.1 147.882V145.409Z" fill="#FFBABA"/>
<path d="M141.004 146.367C141.004 141.874 142.643 140.515 145.092 141.928C147.537 143.341 149.18 146.596 149.18 151.089C149.18 155.582 147.541 157.046 145.092 155.633C142.643 154.216 141.004 150.859 141.004 146.367ZM146.677 149.645C146.677 146.028 145.991 144.821 145.092 144.303C144.208 143.793 143.507 144.198 143.507 147.815C143.507 151.412 144.208 152.755 145.092 153.262C145.995 153.779 146.677 153.238 146.677 149.645Z" fill="#FFBABA"/>
<path d="M151.096 156.377L153.584 157.809V150.178L151.442 148.944V147.052C152.68 147.5 153.478 147.581 154.288 147.488L156.231 148.609V159.339L158.372 160.574V163.05L151.1 158.849L151.096 156.377Z" fill="#FFBABA"/>
<path d="M160.602 161.858L163.086 163.291V155.66L160.944 154.426V152.534C162.186 152.981 162.98 153.063 163.79 152.97L165.733 154.091V164.821L167.874 166.059V168.535L160.602 164.334V161.858Z" fill="#FFBABA"/>
<path d="M170.098 167.344L172.586 168.776V161.145L170.44 159.911V158.019C171.682 158.467 172.476 158.549 173.286 158.455L175.229 159.576V170.306L177.37 171.541V174.017L170.098 169.82V167.344Z" fill="#FFBABA"/>
<path d="M18.1055 104.525L20.5933 105.962V98.3309L18.4519 97.0928V95.2007C19.6939 95.6445 20.4843 95.7302 21.2941 95.6367L23.2369 96.758V107.488L25.3821 108.726V111.202L18.1055 107.001V104.525Z" fill="#FFBABA"/>
<path d="M27.6035 110.011L30.0875 111.444V103.813L27.95 102.578V100.686C29.192 101.134 29.9862 101.22 30.7922 101.122L32.735 102.244V112.974L34.8802 114.212V116.684L27.6035 112.487V110.011Z" fill="#FFBABA"/>
<path d="M36.5078 110.973C36.5078 106.48 38.1469 105.121 40.5958 106.534C43.0448 107.948 44.6839 111.202 44.6839 115.691C44.6839 120.184 43.0487 121.652 40.5958 120.235C38.1469 118.822 36.5078 115.462 36.5078 110.973ZM42.1804 114.247C42.1804 110.63 41.4952 109.423 40.5958 108.905C39.7121 108.395 39.0073 108.8 39.0073 112.417C39.0073 116.015 39.7121 117.354 40.5958 117.864C41.4952 118.386 42.1804 117.841 42.1804 114.247Z" fill="#FFBABA"/>
<path d="M46.0137 116.454C46.0137 111.965 47.6528 110.602 50.1017 112.015C52.5467 113.429 54.1897 116.684 54.1897 121.176C54.1897 125.666 52.5506 127.133 50.1017 125.72C47.6528 124.307 46.0137 120.947 46.0137 116.454ZM51.6863 119.732C51.6863 116.111 51.0011 114.908 50.1017 114.386C49.2179 113.876 48.5171 114.281 48.5171 117.902C48.5171 121.5 49.2179 122.839 50.1017 123.349C51.0011 123.867 51.6863 123.33 51.6863 119.732Z" fill="#FFBABA"/>
<path d="M56.1035 126.464L58.5913 127.9V120.269L56.45 119.031V117.139C57.692 117.583 58.4824 117.668 59.2922 117.575L61.2349 118.696V129.426L63.3802 130.664V133.141L56.1035 128.94V126.464Z" fill="#FFBABA"/>
<path d="M65.6016 131.95L68.0855 133.383V125.752L65.948 124.517V122.625C67.19 123.073 67.9804 123.159 68.7902 123.061L70.733 124.183V134.913L72.8782 136.151V138.623L65.6016 134.426V131.95Z" fill="#FFBABA"/>
<path d="M74.5059 132.912C74.5059 128.419 76.1449 127.06 78.5938 128.473C81.0427 129.887 82.6819 133.141 82.6819 137.63C82.6819 142.123 81.0466 143.591 78.5938 142.174C76.1449 140.761 74.5059 137.401 74.5059 132.912ZM80.1785 136.186C80.1785 132.569 79.4932 131.362 78.5938 130.844C77.71 130.334 77.0054 130.739 77.0054 134.356C77.0054 137.954 77.71 139.297 78.5938 139.803C79.4932 140.321 80.1785 139.78 80.1785 136.186Z" fill="#FFBABA"/>
<path d="M84.6035 142.917L87.0875 144.35V136.719L84.95 135.485V133.593C86.192 134.04 86.9824 134.126 87.7922 134.029L89.735 135.15V145.88L91.8802 147.118V149.59L84.6035 145.393V142.917Z" fill="#FFBABA"/>
<path d="M94.1016 148.403L96.5894 149.84V142.209L94.448 140.971V139.079C95.69 139.523 96.4804 139.608 97.2902 139.515L99.233 140.636V151.366L101.378 152.604V155.077L94.1016 150.876V148.403Z" fill="#FFBABA"/>
<path d="M103.006 149.361C103.006 144.872 104.645 143.509 107.094 144.923C109.539 146.336 111.182 149.591 111.182 154.084C111.182 158.573 109.543 160.041 107.094 158.627C104.645 157.214 103.006 153.854 103.006 149.361ZM108.678 152.639C108.678 149.018 107.993 147.815 107.094 147.298C106.21 146.788 105.509 147.192 105.509 150.813C105.509 154.411 106.21 155.75 107.094 156.26C107.993 156.774 108.678 156.237 108.678 152.639Z" fill="#FFBABA"/>
<path d="M112.504 154.846C112.504 150.353 114.143 148.994 116.592 150.408C119.041 151.821 120.68 155.076 120.68 159.565C120.68 164.058 119.041 165.526 116.592 164.108C114.143 162.699 112.504 159.339 112.504 154.846ZM118.177 158.12C118.177 154.503 117.491 153.296 116.592 152.779C115.708 152.269 115.003 152.674 115.003 156.29C115.003 159.888 115.708 161.231 116.592 161.737C117.491 162.259 118.177 161.718 118.177 158.12Z" fill="#FFBABA"/>
<path d="M122.602 164.856L125.086 166.289V158.658L122.948 157.424V155.531C124.19 155.979 124.984 156.065 125.79 155.968L127.733 157.089V167.819L129.878 169.053V171.529L122.602 167.332V164.856Z" fill="#FFBABA"/>
<path d="M131.508 165.818C131.508 161.325 133.147 159.966 135.596 161.38C138.045 162.793 139.684 166.048 139.684 170.537C139.684 175.03 138.049 176.497 135.596 175.084C133.147 173.667 131.508 170.307 131.508 165.818ZM137.184 169.092C137.184 165.475 136.499 164.268 135.6 163.751C134.716 163.241 134.011 163.645 134.011 167.262C134.011 170.86 134.716 172.203 135.6 172.709C136.499 173.227 137.184 172.686 137.184 169.092Z" fill="#FFBABA"/>
<path d="M141.004 171.3C141.004 166.811 142.643 165.448 145.092 166.862C147.537 168.275 149.18 171.53 149.18 176.023C149.18 180.516 147.541 181.98 145.092 180.566C142.643 179.153 141.004 175.789 141.004 171.3ZM146.677 174.578C146.677 170.957 145.991 169.754 145.092 169.237C144.208 168.727 143.507 169.131 143.507 172.748C143.507 176.346 144.208 177.685 145.092 178.191C145.995 178.713 146.677 178.176 146.677 174.578Z" fill="#FFBABA"/>
<path d="M150.502 176.786C150.502 172.293 152.141 170.93 154.59 172.343C157.039 173.757 158.678 177.011 158.678 181.504C158.678 185.997 157.043 187.461 154.59 186.048C152.141 184.635 150.502 181.279 150.502 176.786ZM156.175 180.06C156.175 176.443 155.489 175.236 154.59 174.718C153.706 174.208 153.001 174.613 153.001 178.23C153.001 181.827 153.706 183.171 154.59 183.677C155.493 184.198 156.175 183.657 156.175 180.06Z" fill="#FFBABA"/>
<path d="M160.602 186.791L163.086 188.224V180.593L160.944 179.359V177.467C162.186 177.915 162.98 178 163.79 177.903L165.733 179.024V189.754L167.874 190.988V193.465L160.602 189.268V186.791Z" fill="#FFBABA"/>
<path d="M169.506 187.757C169.506 183.268 171.145 181.905 173.594 183.318C176.043 184.731 177.682 187.982 177.682 192.475C177.682 196.968 176.047 198.436 173.594 197.023C171.145 195.606 169.506 192.246 169.506 187.757ZM175.178 191.027C175.178 187.41 174.493 186.207 173.594 185.685C172.71 185.175 172.005 185.58 172.005 189.197C172.005 192.795 172.71 194.138 173.594 194.644C174.497 195.166 175.178 194.624 175.178 191.027Z" fill="#FFBABA"/>
<path d="M18.1055 129.458L20.5933 130.894V123.263L18.4519 122.025V120.133C19.6939 120.581 20.4843 120.663 21.2941 120.569L23.2369 121.69V132.42L25.3821 133.659V136.131L18.1055 131.93V129.458Z" fill="#FFBABA"/>
<path d="M27.0098 130.42C27.0098 125.931 28.6489 124.568 31.0978 125.982C33.5428 127.391 35.1858 130.646 35.1858 135.139C35.1858 139.632 33.5467 141.096 31.0978 139.682C28.6528 138.269 27.0098 134.909 27.0098 130.42ZM32.6824 133.694C32.6824 130.077 31.9972 128.87 31.0978 128.349C30.214 127.839 29.5132 128.247 29.5132 131.864C29.5132 135.462 30.214 136.801 31.0978 137.311C31.9972 137.833 32.6824 137.292 32.6824 133.694Z" fill="#FFBABA"/>
<path d="M37.1094 140.426L39.5973 141.862V134.231L37.4559 132.993V131.101C38.6979 131.549 39.4921 131.631 40.302 131.537L42.2447 132.658V143.389L44.39 144.627V147.099L37.1133 142.898V140.426H37.1094Z" fill="#FFBABA"/>
<path d="M46.0137 141.387C46.0137 136.898 47.6528 135.535 50.1017 136.949C52.5467 138.358 54.1897 141.613 54.1897 146.106C54.1897 150.599 52.5506 152.063 50.1017 150.649C47.6528 149.24 46.0137 145.88 46.0137 141.387ZM51.6863 144.665C51.6863 141.048 51.0011 139.841 50.1017 139.32C49.2179 138.81 48.5171 139.218 48.5171 142.835C48.5171 146.433 49.2179 147.772 50.1017 148.282C51.0011 148.804 51.6863 148.259 51.6863 144.665Z" fill="#FFBABA"/>
<path d="M56.1035 151.397L58.5913 152.833V145.203L56.45 143.964V142.072C57.692 142.52 58.4824 142.602 59.2922 142.508L61.2349 143.63V154.36L63.3802 155.598V158.07L56.1035 153.869V151.397Z" fill="#FFBABA"/>
<path d="M65.0078 152.359C65.0078 147.87 66.6469 146.507 69.0958 147.92C71.5409 149.33 73.1838 152.585 73.1838 157.078C73.1838 161.571 71.5448 163.034 69.0958 161.621C66.6469 160.208 65.0078 156.848 65.0078 152.359ZM70.6804 155.633C70.6804 152.016 69.9952 150.809 69.0958 150.288C68.2121 149.778 67.5112 150.186 67.5112 153.803C67.5112 157.401 68.2121 158.74 69.0958 159.25C69.9952 159.772 70.6804 159.231 70.6804 155.633Z" fill="#FFBABA"/>
<path d="M75.1074 162.365L77.5952 163.801V156.171L75.4539 154.932V153.04C76.6959 153.488 77.4863 153.57 78.2961 153.476L80.2388 154.598V165.328L82.384 166.566V169.038L75.1074 164.841V162.365Z" fill="#FFBABA"/>
<path d="M84.6035 167.85L87.0875 169.283V161.652L84.95 160.418V158.526C86.192 158.973 86.9824 159.055 87.7922 158.962L89.735 160.083V170.813L91.8802 172.047V174.523L84.6035 170.322V167.85Z" fill="#FFBABA"/>
<path d="M93.5098 168.808C93.5098 164.319 95.1489 162.956 97.5978 164.369C100.047 165.783 101.686 169.038 101.686 173.531C101.686 178.02 100.051 179.487 97.5978 178.074C95.145 176.661 93.5098 173.305 93.5098 168.808ZM99.1824 172.086C99.1824 168.465 98.4972 167.262 97.5978 166.744C96.714 166.234 96.0093 166.639 96.0093 170.252C96.0093 173.85 96.714 175.197 97.5978 175.703C98.4972 176.225 99.1824 175.684 99.1824 172.086Z" fill="#FFBABA"/>
<path d="M103.6 178.822L106.084 180.255V172.624L103.946 171.39V169.498C105.188 169.945 105.982 170.031 106.788 169.934L108.731 171.055V181.785L110.876 183.019V185.495L103.6 181.298V178.822Z" fill="#FFBABA"/>
<path d="M112.504 179.784C112.504 175.291 114.143 173.928 116.592 175.341C119.041 176.755 120.68 180.009 120.68 184.502C120.68 188.995 119.041 190.459 116.592 189.046C114.143 187.629 112.504 184.273 112.504 179.784ZM118.177 183.054C118.177 179.437 117.491 178.23 116.592 177.712C115.708 177.202 115.003 177.607 115.003 181.224C115.003 184.822 115.708 186.165 116.592 186.671C117.491 187.193 118.177 186.652 118.177 183.054Z" fill="#FFBABA"/>
<path d="M122.602 189.789L125.086 191.222V183.591L122.948 182.357V180.465C124.19 180.909 124.984 180.994 125.79 180.901L127.733 182.022V192.752L129.878 193.986V196.463L122.602 192.262V189.789Z" fill="#FFBABA"/>
<path d="M131.508 190.747C131.508 186.258 133.147 184.895 135.596 186.308C138.045 187.722 139.684 190.977 139.684 195.466C139.684 199.955 138.049 201.422 135.596 200.009C133.147 198.6 131.508 195.24 131.508 190.747ZM137.184 194.025C137.184 190.404 136.499 189.201 135.6 188.683C134.716 188.173 134.011 188.578 134.011 192.191C134.011 195.789 134.716 197.136 135.6 197.642C136.499 198.16 137.184 197.622 137.184 194.025Z" fill="#FFBABA"/>
<path d="M141.004 196.233C141.004 191.744 142.643 190.381 145.092 191.795C147.537 193.204 149.18 196.459 149.18 200.952C149.18 205.445 147.541 206.909 145.092 205.499C142.643 204.086 141.004 200.726 141.004 196.233ZM146.677 199.507C146.677 195.891 145.991 194.687 145.092 194.166C144.208 193.656 143.507 194.065 143.507 197.681C143.507 201.279 144.208 202.618 145.092 203.124C145.995 203.65 146.677 203.105 146.677 199.507Z" fill="#FFBABA"/>
<path d="M151.096 206.243L153.584 207.68V200.049L151.442 198.811V196.918C152.68 197.366 153.478 197.452 154.288 197.355L156.231 198.476V209.206L158.372 210.444V212.916L151.1 208.719L151.096 206.243Z" fill="#FFBABA"/>
<path d="M160.602 211.728L163.086 213.161V205.53L160.944 204.296V202.404C162.186 202.848 162.98 202.933 163.79 202.84L165.733 203.961V214.691L167.874 215.925V218.402L160.602 214.201V211.728Z" fill="#FFBABA"/>
<path d="M169.506 212.686C169.506 208.197 171.145 206.834 173.594 208.248C176.043 209.661 177.682 212.916 177.682 217.409C177.682 221.898 176.047 223.366 173.594 221.952C171.145 220.539 169.506 217.179 169.506 212.686ZM175.178 215.964C175.178 212.343 174.493 211.14 173.594 210.623C172.71 210.113 172.005 210.517 172.005 214.13C172.005 217.728 172.71 219.075 173.594 219.581C174.497 220.099 175.178 219.562 175.178 215.964Z" fill="#FFBABA"/>
</g>
<path d="M0 16.3597L195.555 129.205L201.991 125.541L6.43957 12.7L0 16.3597Z" fill="white"/>
<path d="M195.557 251.86L201.992 248.197V125.541L195.557 129.204V251.86Z" fill="#D1D1D1"/>
<path d="M0 14.1403L195.555 126.993V116.504L0 3.65942V14.1403Z" fill="#782D2D"/>
<path d="M0 3.6597L195.555 116.505L201.991 112.849L6.43957 0L0 3.6597Z" fill="#B84242"/>
<path d="M195.557 126.994L201.992 123.33V112.849L195.557 116.505V126.994Z" fill="#360E0E"/>
<path d="M112.99 107.425L99.6315 108.92L65.6543 82.1185L76.579 77.7891L120.465 103.1L112.99 107.425Z" fill="#FFE8E8"/>
<path d="M132.951 104.373L124.483 111.517L112.99 94.3903L120.466 90.0764L132.951 104.373Z" fill="#FFE8E8"/>
<path d="M132.953 173.955L125.501 178.238L119.264 136.47L125.501 108.691L132.953 104.373V173.955Z" fill="#BFA1A1"/>
<path d="M104.757 94.0637L97.3092 98.3814L92.2012 89.6369L97.3092 85.327L104.757 81.0132V94.0637Z" fill="#BFA1A1"/>
<path d="M76.5796 77.7896L69.1122 82.119L64.0586 73.3901L69.1122 69.0568L76.5796 64.7507V77.7896Z" fill="#BFA1A1"/>
<path d="M104.758 81.0128L97.3102 85.3266L89.177 84.8165L84.8398 78.1277L92.2722 73.814L104.758 81.0128Z" fill="#FFE8E8"/>
<path d="M76.5823 64.7505L69.1149 69.0565L60.9115 71.5716L56.6211 68.9125L64.0846 64.5986L76.5823 64.7505Z" fill="#FFE8E8"/>
<path d="M112.993 94.3902V107.425L97.3105 98.3809V85.3265L84.8401 78.1276V91.1665L69.1149 82.1184V69.0562L56.6211 68.9121V138.498L91.0734 192.386L125.502 178.237V108.69L112.993 94.3902Z" fill="#E8C8C8"/>
<path d="M61.8594 139.873L90.0628 183.583V141.921L62.9262 125.425L61.8594 139.873Z" fill="#E56565"/>
<path d="M90.0645 141.921L116.543 156.486V119.581L90.0645 104.373V141.921Z" fill="#A84242"/>
<path d="M62.1985 84.2756L60.2324 85.4202L62.1401 92.222L61.2135 139.242L91.0716 184.276L115.74 174.15L117.951 173.554L119.917 172.425V117.603L62.1985 84.2756ZM116.857 155.944L91.2235 141.134V104.583L116.857 119.362V155.944ZM91.0755 179.62L65.2587 139.219V89.59L89.4753 103.563L89.3975 103.614L86.9914 113.094L89.3975 142.181L102.429 156.12L115.814 157.436L116.857 156.785V169.01L91.0755 179.62Z" fill="#D1D1D1"/>
<path d="M60.2324 85.4202V140.235L89.0743 185.413L117.951 173.554V118.771L60.2324 85.4202ZM63.2964 140.359V127.118L89.3975 142.181V105.814L114.872 120.499V156.898L89.3975 142.177V180.617L89.0743 180.733L63.2964 140.359Z" fill="white"/>
</svg>
