<svg width="295" height="270" viewBox="0 0 295 270" fill="none" xmlns="http://www.w3.org/2000/svg">
<g opacity="0.8">
<path d="M98.2979 156.257L49.7773 128.447V71.2632L98.2979 99.3862V156.257Z" fill="url(#paint0_linear_2922_12203)"/>
<path d="M97.9874 156.57L49.4668 128.759V71.5757H49.7798L98.3004 99.3862V156.57H97.9874ZM49.7798 128.134L97.6744 155.945V99.3862L49.7798 71.5757V128.134Z" fill="black"/>
</g>
<g opacity="0.8">
<path d="M98.3064 156.882L48.8467 184.693L0.326172 156.882L49.7859 128.447L98.3064 156.882Z" fill="url(#paint1_linear_2922_12203)"/>
<path d="M48.8467 185.005L0.326172 156.882L49.7859 127.822L98.3064 156.257L48.8467 184.693V185.005ZM0.639215 156.882L48.5337 184.693L97.3674 156.882L49.4728 128.759L0.639215 156.882Z" fill="black"/>
</g>
<g opacity="0.8">
<path d="M48.8311 184.694L0.310547 156.883V100.012L48.8311 127.823V184.694Z" fill="url(#paint2_linear_2922_12203)"/>
<path d="M48.5206 185.006L0 156.883V99.6995H0.313043L48.8336 127.51V184.694H48.5206V185.006ZM0.626086 156.571L48.5206 184.381V127.823L0.626086 100.012V156.571Z" fill="black"/>
</g>
<g opacity="0.8">
<path d="M98.2878 156.883L48.8281 184.694V127.823L98.2878 99.3872V156.883Z" fill="url(#paint3_linear_2922_12203)"/>
<path d="M48.8306 185.006H48.5176V127.822L97.9773 99.0745H98.2903V156.883L48.8306 185.006ZM49.1437 128.135V184.693L97.9773 156.883V100.012L49.1437 128.135Z" fill="black"/>
</g>
<g opacity="0.8">
<path d="M98.2908 99.3862L48.8311 127.822L0.310547 100.011L49.7702 71.2632L98.2908 99.3862Z" fill="url(#paint4_linear_2922_12203)"/>
<path d="M48.5206 128.134L0 100.324L49.4597 71.2632L97.9803 99.3862L48.5206 128.447V128.134ZM0.626087 100.011L48.5206 127.822L97.3542 99.6987L49.4597 71.8882L0.626087 100.011Z" fill="black"/>
</g>
<g opacity="0.8">
<path d="M196.288 156.257L147.768 128.446V71.2629L196.288 99.386V156.257Z" fill="url(#paint5_linear_2922_12203)"/>
<path d="M195.978 156.57L147.457 128.759V71.5757H147.77L196.291 99.3862V156.57H195.978ZM147.77 128.134L195.665 155.945V99.3862L147.77 71.5757V128.134Z" fill="black"/>
</g>
<g opacity="0.8">
<path d="M196.279 156.882L146.819 184.693L98.2988 156.882L147.759 128.447L196.279 156.882Z" fill="url(#paint6_linear_2922_12203)"/>
<path d="M146.819 185.005L98.2988 156.882L147.759 127.822L196.279 156.257L146.819 184.693V185.005ZM98.6119 156.882L146.506 184.693L195.34 156.882L147.445 128.759L98.6119 156.882Z" fill="black"/>
</g>
<g opacity="0.8">
<path d="M146.819 184.694L98.2988 156.884V100.013L146.819 127.823V184.694Z" fill="url(#paint7_linear_2922_12203)"/>
<path d="M146.509 185.006L97.9883 156.883V99.6995H98.3013L146.822 127.51V184.694H146.509V185.006ZM98.3013 156.571L146.196 184.381V127.823L98.3013 100.012V156.571Z" fill="black"/>
</g>
<g opacity="0.8">
<path d="M196.278 156.883L146.818 184.694V127.823L196.278 99.3875V156.883Z" fill="url(#paint8_linear_2922_12203)"/>
<path d="M146.821 185.006H146.508V127.823L195.968 99.0747H196.281V156.883L146.821 185.006ZM146.821 128.135V184.694L195.654 156.883V100.012L146.821 128.135Z" fill="black"/>
</g>
<g opacity="0.8">
<path d="M196.279 99.386L146.819 127.822L98.2988 100.011L147.759 71.2629L196.279 99.386Z" fill="url(#paint9_linear_2922_12203)"/>
<path d="M146.509 128.134L97.9883 100.323L147.448 71.2629L195.969 99.386L146.509 128.446V128.134ZM98.6144 100.011L146.509 127.822L195.343 99.6984L147.448 71.8879L98.6144 100.011Z" fill="black"/>
</g>
<g opacity="0.8">
<path d="M294.259 156.257L245.426 128.446V71.2627L294.259 99.3857V156.257Z" fill="url(#paint10_linear_2922_12203)"/>
<path d="M293.946 156.57L245.426 128.759V71.5754H245.739L294.259 99.386V156.57H293.946ZM245.739 128.134L293.633 155.945V99.386L245.739 71.5754V128.134Z" fill="black"/>
</g>
<g opacity="0.8">
<path d="M294.267 156.882L244.808 184.693L196.287 156.882L245.747 128.447L294.267 156.882Z" fill="url(#paint11_linear_2922_12203)"/>
<path d="M244.808 185.005L196.287 156.882L245.747 127.822L294.267 156.257L244.808 184.693V185.005ZM196.6 156.882L244.495 184.693L293.328 156.882L245.434 128.759L196.6 156.882Z" fill="black"/>
</g>
<g opacity="0.8">
<path d="M244.806 184.694L196.285 156.884V100.013L244.806 127.823V184.694Z" fill="url(#paint12_linear_2922_12203)"/>
<path d="M244.495 185.006L195.975 156.883V99.6997H196.288L244.808 127.51V184.694H244.495V185.006ZM196.288 156.571L244.182 184.381V127.823L196.288 100.012V156.571Z" fill="black"/>
</g>
<g opacity="0.8">
<path d="M294.262 156.883L244.803 184.694V127.823L294.262 99.3875V156.883Z" fill="url(#paint13_linear_2922_12203)"/>
<path d="M244.805 185.006H244.492V127.823L293.952 99.0747H294.265V156.883L244.805 185.006ZM244.805 128.135V184.694L293.639 156.883V100.012L244.805 128.135Z" fill="black"/>
</g>
<g opacity="0.8">
<path d="M294.265 99.3864L244.806 127.822L196.285 100.011L245.745 71.2634L294.265 99.3864Z" fill="url(#paint14_linear_2922_12203)"/>
<path d="M244.495 128.134L195.975 100.324L245.434 71.2634L293.955 99.3864L244.495 128.447V128.134ZM196.601 100.011L244.495 127.822L293.329 99.6989L245.434 71.8884L196.601 100.011Z" fill="black"/>
</g>
<g opacity="0.8">
<path d="M146.819 241.252L98.2988 213.441V156.258L146.819 184.381V241.252Z" fill="url(#paint15_linear_2922_12203)"/>
<path d="M146.509 241.564L97.9883 213.441V156.258H98.3013L146.822 184.068V241.252H146.509V241.564ZM98.3013 213.129L146.196 240.939V184.381L98.3013 156.57V213.129Z" fill="black"/>
</g>
<g opacity="0.8">
<path d="M146.826 241.877L97.3663 269.688L48.8457 241.877L98.3054 213.442L146.826 241.877Z" fill="url(#paint16_linear_2922_12203)"/>
<path d="M97.3663 270L48.8457 241.877L98.3054 212.817L146.826 241.252L97.3663 269.688V270ZM49.1587 241.877L97.0533 269.688L145.887 241.877L97.9924 213.754L49.1587 241.877Z" fill="black"/>
</g>
<g opacity="0.8">
<path d="M97.3488 269.685L48.8281 241.874V184.691L97.3488 212.814V269.685Z" fill="url(#paint17_linear_2922_12203)"/>
<path d="M97.0382 269.997L48.5176 241.874V184.691H48.8306L97.3513 212.501V269.685H97.0382V269.997ZM49.1437 241.562L97.0382 269.372V212.814L49.1437 185.003V241.562Z" fill="black"/>
</g>
<g opacity="0.8">
<path d="M146.809 241.874L97.3496 269.685V212.814L146.809 184.378V241.874Z" fill="url(#paint18_linear_2922_12203)"/>
<path d="M97.3521 269.997H97.0391V212.813L146.499 184.065H146.812V241.874L97.3521 269.997ZM97.6651 212.813V269.372L146.499 241.561V184.69L97.6651 212.813Z" fill="black"/>
</g>
<g opacity="0.8">
<path d="M146.826 184.379L97.3663 212.815L48.8457 184.692L98.3054 156.256L146.826 184.379Z" fill="url(#paint19_linear_2922_12203)"/>
<path d="M97.3663 213.127L48.8457 185.004L98.3054 155.943L146.826 184.066L97.3663 213.127ZM49.1587 184.691L97.0533 212.502L145.887 184.379L97.9924 156.568L49.1587 184.691Z" fill="black"/>
</g>
<g opacity="0.8">
<path d="M244.806 241.252L196.285 213.442V156.258L244.806 184.381V241.252Z" fill="url(#paint20_linear_2922_12203)"/>
<path d="M244.495 241.565L195.975 213.442V156.258H196.288L244.808 184.069V241.252H244.495V241.565ZM196.288 213.129L244.182 240.94V184.381L196.288 156.571V213.129Z" fill="black"/>
</g>
<g opacity="0.8">
<path d="M244.797 241.877L195.337 269.688L146.816 241.877L196.276 213.442L244.797 241.877Z" fill="url(#paint21_linear_2922_12203)"/>
<path d="M195.337 270L146.816 241.877L196.276 212.816L244.797 241.252L195.337 269.687V270ZM147.129 241.877L195.024 269.687L243.858 241.877L195.963 213.754L147.129 241.877Z" fill="black"/>
</g>
<g opacity="0.8">
<path d="M195.339 269.684L146.818 241.874V184.69L195.339 212.813V269.684Z" fill="url(#paint22_linear_2922_12203)"/>
<path d="M195.028 269.997L146.508 241.874V184.69H146.821L195.341 212.501V269.684H195.028V269.997ZM146.821 241.561L194.715 269.372V212.813L146.821 185.003V241.561Z" fill="black"/>
</g>
<g opacity="0.8">
<path d="M244.796 241.874L195.336 269.685V212.814L244.796 184.378V241.874Z" fill="url(#paint23_linear_2922_12203)"/>
<path d="M195.338 269.997H195.025V212.813L244.485 184.065H244.798V241.874L195.338 269.997ZM195.338 212.813V269.372L244.172 241.561V184.69L195.338 212.813Z" fill="black"/>
</g>
<g opacity="0.8">
<path d="M244.797 184.379L195.337 212.814L146.816 184.691L196.276 156.256L244.797 184.379Z" fill="url(#paint24_linear_2922_12203)"/>
<path d="M195.337 213.127L146.816 185.004L196.276 155.944L244.797 184.067L195.337 213.127ZM147.129 184.692L195.024 212.502L243.858 184.379L195.963 156.569L147.129 184.692Z" fill="black"/>
</g>
<path d="M148.384 60.6399C148.384 60.6399 149.949 62.2023 149.949 63.1397C149.949 64.0771 149.323 64.3896 148.384 64.0772C147.444 63.4522 146.818 62.5148 146.818 61.5773C146.818 60.6399 147.444 60.3274 148.384 60.6399Z" fill="black"/>
<path d="M148.384 69.0754C148.384 69.0754 149.949 70.6378 149.949 71.5753C149.949 72.5127 149.323 72.8252 148.384 72.5127C147.444 71.8877 146.818 70.9503 146.818 70.0129C146.818 69.0754 147.444 68.7629 148.384 69.0754Z" fill="black"/>
<path d="M148.384 77.1997C148.384 77.1997 149.949 78.7621 149.949 79.6995C149.949 80.637 149.323 80.9495 148.384 80.637C147.444 80.012 146.818 79.0746 146.818 78.1372C146.818 77.1997 147.444 76.8872 148.384 77.1997Z" fill="black"/>
<path d="M148.384 85.3249C148.384 85.3249 149.949 86.8873 149.949 87.8248C149.949 88.7622 149.323 89.0747 148.384 88.7622C147.444 88.1373 146.818 87.1998 146.818 86.2624C146.818 85.325 147.444 85.0125 148.384 85.3249Z" fill="black"/>
<path d="M140.241 55.9526C140.241 55.9526 141.806 57.515 141.806 58.4524C141.806 59.3899 141.18 59.7024 140.241 59.3899C139.302 58.7649 138.676 57.8275 138.676 56.8901C138.676 55.9526 139.302 55.6401 140.241 55.9526Z" fill="black"/>
<path d="M132.411 51.5757C132.411 51.5757 133.976 53.1381 133.976 54.0755C133.976 55.0129 133.35 55.3254 132.411 55.013C131.472 54.388 130.846 53.4505 130.846 52.5131C130.846 51.5756 131.472 51.2632 132.411 51.5757Z" fill="black"/>
<path d="M124.288 46.8877C124.288 46.8877 125.853 48.4501 125.853 49.3875C125.853 50.3249 125.227 50.6374 124.288 50.3249C123.349 49.7 122.723 48.7625 122.723 47.8251C122.723 46.8877 123.349 46.5752 124.288 46.8877Z" fill="black"/>
<path d="M116.452 42.2038C116.452 42.2038 118.017 43.7662 118.017 44.7037C118.017 45.6411 117.391 45.9536 116.452 45.6411C115.513 45.0162 114.887 44.0787 114.887 43.1413C114.887 42.2039 115.513 41.8914 116.452 42.2038Z" fill="black"/>
<path d="M108.315 37.5163C108.315 37.5163 109.88 39.0787 109.88 40.0162C109.88 40.9536 109.254 41.2661 108.315 40.9536C107.376 40.3287 106.75 39.3912 106.75 38.4538C106.75 37.5164 107.376 37.2039 108.315 37.5163Z" fill="black"/>
<path d="M109.879 25.9548L95.479 17.5179V11.2684C95.479 6.58118 98.6094 4.7063 102.679 6.89365C106.748 9.081 109.879 14.7056 109.879 19.3928V25.6424V25.9548ZM115.513 29.0796H114.887V22.5176C114.887 14.7056 109.566 5.33126 102.992 1.58152C96.4181 -2.16822 91.0965 0.956578 91.0965 8.76853V15.0181H90.4704C87.9661 13.1432 86.0879 14.0806 86.0879 16.5805V35.3292C86.0879 44.7035 93.6007 56.8902 102.992 62.2023C112.383 67.5144 119.896 64.3897 119.896 55.0153V36.2666C119.896 33.7668 118.018 30.642 115.513 29.3921V29.0796Z" fill="#13263D"/>
<path d="M107.685 26.58L93.2856 18.1432V11.8936C93.2856 7.2064 96.4159 5.33155 100.485 7.5189C104.555 9.70625 107.685 15.3308 107.685 20.018V26.2676V26.58ZM113.32 29.7048H112.694V23.1428C112.694 15.3309 107.372 5.95651 100.798 2.20677C94.2247 -1.54297 88.9031 1.5818 88.9031 9.39375V15.6433H88.277C85.7727 13.7685 83.8945 14.7059 83.8945 17.2057V35.9544C83.8945 45.3288 91.4074 57.5154 100.798 62.8275C110.19 68.1397 117.702 65.0148 117.702 55.6405V36.8918C117.702 34.392 115.824 31.2672 113.32 30.0173V29.7048Z" fill="#13263D"/>
<path d="M105.5 27.5158L91.1006 19.0789V12.8294C91.1006 8.14219 94.2309 6.26734 98.3004 8.45469C102.37 10.642 105.5 16.2667 105.5 20.9538V27.2034V27.5158ZM110.822 30.6406H110.196V24.0786C110.196 16.2666 104.874 6.8923 98.3004 3.14256C91.7266 -0.607178 86.4051 2.51759 86.4051 10.3295V16.5791H85.779C83.2747 14.7042 81.3965 15.6417 81.3965 18.1415V36.8902C81.3965 46.2645 88.9093 58.4512 98.3004 63.7633C107.691 69.0754 115.204 65.9507 115.204 56.5763V37.8276C115.204 35.3278 113.326 32.203 110.822 30.9531V30.6406Z" fill="#13263D"/>
<path d="M110.192 41.5774L86.0879 27.8283V10.3295C86.0879 2.51759 91.4095 -0.607177 97.9832 3.14256C104.557 6.8923 109.879 16.2666 109.879 24.0786V41.5774H110.192ZM91.0965 24.7035L105.496 33.1405V21.2663C105.496 16.5791 102.366 10.9545 98.2963 8.76718C94.2268 6.57983 91.0965 8.45468 91.0965 13.1418V25.016V24.7035Z" fill="url(#paint25_linear_2922_12203)"/>
<path d="M98.3004 63.4512C88.9093 58.139 81.3965 45.9524 81.3965 36.5781V17.8294C81.3965 15.3296 83.2747 14.7046 85.779 15.9546L111.135 30.641C113.639 31.8909 115.517 35.0157 115.517 37.5155V56.2642C115.517 65.6385 108.005 68.7633 98.6134 63.4512H98.3004Z" fill="url(#paint26_linear_2922_12203)"/>
<path d="M102.688 40.6417C102.688 37.8294 100.497 34.0797 97.9924 32.5173C95.4881 30.9549 93.2969 32.5173 93.2969 35.3296C93.2969 37.5169 94.549 40.3292 96.4272 42.2041L93.923 49.3911L97.9924 51.891L102.062 54.3908L99.5576 44.079C101.436 44.079 102.688 43.1415 102.688 40.6417Z" fill="#13263D"/>
<path d="M49.155 64.7021C49.155 64.7021 47.5898 66.2645 47.5898 67.202C47.5898 68.1394 48.2159 68.4518 49.155 68.1394C50.0941 67.5144 50.7202 66.577 50.7202 65.6395C50.7202 64.7021 50.0941 64.3897 49.155 64.7021Z" fill="black"/>
<path d="M49.155 72.8228C49.155 72.8228 47.5898 74.3851 47.5898 75.3226C47.5898 76.26 48.2159 76.5724 49.155 76.26C50.0941 75.635 50.7202 74.6976 50.7202 73.7601C50.7202 72.8227 50.0941 72.5103 49.155 72.8228Z" fill="black"/>
<path d="M49.155 80.948C49.155 80.948 47.5898 82.5104 47.5898 83.4478C47.5898 84.3853 48.2159 84.6977 49.155 84.3852C50.0941 83.7603 50.7202 82.8228 50.7202 81.8854C50.7202 80.948 50.0941 80.6355 49.155 80.948Z" fill="black"/>
<path d="M49.155 89.3872C49.155 89.3872 47.5898 90.9496 47.5898 91.887C47.5898 92.8245 48.2159 93.137 49.155 92.8245C50.0941 92.1995 50.7202 91.2621 50.7202 90.3247C50.7202 89.3872 50.0941 89.0747 49.155 89.3872Z" fill="black"/>
<path d="M57.2917 60.0144C57.2917 60.0144 55.7266 61.5768 55.7266 62.5142C55.7266 63.4517 56.3526 63.7641 57.2917 63.4516C58.2308 62.8267 58.8569 61.8892 58.8569 60.9518C58.8569 60.0144 58.2308 59.7019 57.2917 60.0144Z" fill="black"/>
<path d="M65.1257 55.3269C65.1257 55.3269 63.5605 56.8893 63.5605 57.8267C63.5605 58.7641 64.1866 59.0766 65.1257 58.7642C66.0648 58.1392 66.6909 57.2018 66.6909 56.2643C66.6909 55.3269 66.0648 55.0144 65.1257 55.3269Z" fill="black"/>
<path d="M73.2625 50.6396C73.2625 50.6396 71.6973 52.202 71.6973 53.1395C71.6973 54.0769 72.3234 54.3894 73.2625 54.0769C74.2016 53.452 74.8276 52.5145 74.8276 51.5771C74.8276 50.6397 74.2016 50.3272 73.2625 50.6396Z" fill="black"/>
<path d="M81.0769 45.9519C81.0769 45.9519 79.5117 47.5143 79.5117 48.4517C79.5117 49.3891 80.1378 49.7016 81.0769 49.3892C82.016 49.0767 82.6421 47.8268 82.6421 46.8893C82.6421 45.9519 82.016 45.6394 81.0769 45.9519Z" fill="black"/>
<path d="M89.2215 41.5786C89.2215 41.5786 87.6562 43.141 87.6562 44.0784C87.6562 45.0159 88.2824 45.3283 89.2215 45.0158C90.1606 44.7034 90.7866 43.4534 90.7866 42.516C90.7866 41.5786 90.1606 41.2661 89.2215 41.5786Z" fill="black"/>
<defs>
<linearGradient id="paint0_linear_2922_12203" x1="-13534.6" y1="-7558.55" x2="-13538.6" y2="-7634.96" gradientUnits="userSpaceOnUse">
<stop stop-color="#586FED"/>
<stop offset="1" stop-color="#4DEDFF"/>
</linearGradient>
<linearGradient id="paint1_linear_2922_12203" x1="13163.7" y1="-7366.86" x2="13163.6" y2="-7441.89" gradientUnits="userSpaceOnUse">
<stop stop-color="#586FED"/>
<stop offset="1" stop-color="#4DEDFF"/>
</linearGradient>
<linearGradient id="paint2_linear_2922_12203" x1="37.2048" y1="163.173" x2="2.92407" y2="156.977" gradientUnits="userSpaceOnUse">
<stop stop-color="#8F171C"/>
<stop offset="1" stop-color="#530808"/>
</linearGradient>
<linearGradient id="paint3_linear_2922_12203" x1="86.4365" y1="163.014" x2="51.5187" y2="156.628" gradientUnits="userSpaceOnUse">
<stop stop-color="#B3272D"/>
<stop offset="1" stop-color="#590808"/>
</linearGradient>
<linearGradient id="paint4_linear_2922_12203" x1="74.8131" y1="113.448" x2="19.7639" y2="83.3673" gradientUnits="userSpaceOnUse">
<stop stop-color="#9B2126"/>
<stop offset="1" stop-color="#570C0C"/>
</linearGradient>
<linearGradient id="paint5_linear_2922_12203" x1="-13412.3" y1="-7544.93" x2="-13416.6" y2="-7621.57" gradientUnits="userSpaceOnUse">
<stop stop-color="#CC7FED"/>
<stop offset="1" stop-color="#792BFF"/>
</linearGradient>
<linearGradient id="paint6_linear_2922_12203" x1="13237" y1="-7352.49" x2="13237.3" y2="-7427.69" gradientUnits="userSpaceOnUse">
<stop stop-color="#CC7FED"/>
<stop offset="1" stop-color="#792BFF"/>
</linearGradient>
<linearGradient id="paint7_linear_2922_12203" x1="157.776" y1="203.131" x2="99.3945" y2="101.797" gradientUnits="userSpaceOnUse">
<stop stop-color="#F96B71"/>
<stop offset="1" stop-color="#C73339"/>
</linearGradient>
<linearGradient id="paint8_linear_2922_12203" x1="207.446" y1="203.266" x2="148.985" y2="100.588" gradientUnits="userSpaceOnUse">
<stop stop-color="#FB9C9F"/>
<stop offset="1" stop-color="#A0171C"/>
</linearGradient>
<linearGradient id="paint9_linear_2922_12203" x1="172.801" y1="113.448" x2="117.752" y2="83.367" gradientUnits="userSpaceOnUse">
<stop stop-color="#D62B32"/>
<stop offset="1" stop-color="#E3979B"/>
</linearGradient>
<linearGradient id="paint10_linear_2922_12203" x1="-13290.1" y1="-7531.3" x2="-13294.4" y2="-7607.95" gradientUnits="userSpaceOnUse">
<stop stop-color="#CC7FED"/>
<stop offset="1" stop-color="#792BFF"/>
</linearGradient>
<linearGradient id="paint11_linear_2922_12203" x1="13310.5" y1="-7338.56" x2="13310.5" y2="-7413.59" gradientUnits="userSpaceOnUse">
<stop stop-color="#CC7FED"/>
<stop offset="1" stop-color="#792BFF"/>
</linearGradient>
<linearGradient id="paint12_linear_2922_12203" x1="255.762" y1="203.131" x2="197.381" y2="101.797" gradientUnits="userSpaceOnUse">
<stop stop-color="#F96B71"/>
<stop offset="1" stop-color="#C73339"/>
</linearGradient>
<linearGradient id="paint13_linear_2922_12203" x1="305.431" y1="203.266" x2="246.969" y2="100.588" gradientUnits="userSpaceOnUse">
<stop stop-color="#FB9C9F"/>
<stop offset="1" stop-color="#A0171C"/>
</linearGradient>
<linearGradient id="paint14_linear_2922_12203" x1="270.788" y1="113.448" x2="215.738" y2="83.3676" gradientUnits="userSpaceOnUse">
<stop stop-color="#D62B32"/>
<stop offset="1" stop-color="#E3979B"/>
</linearGradient>
<linearGradient id="paint15_linear_2922_12203" x1="-13511" y1="-7487.85" x2="-13515.1" y2="-7564.25" gradientUnits="userSpaceOnUse">
<stop stop-color="#CC7FED"/>
<stop offset="1" stop-color="#792BFF"/>
</linearGradient>
<linearGradient id="paint16_linear_2922_12203" x1="13163.1" y1="-7253.55" x2="13163" y2="-7328.59" gradientUnits="userSpaceOnUse">
<stop stop-color="#CC7FED"/>
<stop offset="1" stop-color="#792BFF"/>
</linearGradient>
<linearGradient id="paint17_linear_2922_12203" x1="108.305" y1="288.189" x2="49.6004" y2="186.669" gradientUnits="userSpaceOnUse">
<stop stop-color="#F96B71"/>
<stop offset="1" stop-color="#C73339"/>
</linearGradient>
<linearGradient id="paint18_linear_2922_12203" x1="157.978" y1="288.257" x2="99.5162" y2="185.578" gradientUnits="userSpaceOnUse">
<stop stop-color="#FB9C9F"/>
<stop offset="1" stop-color="#A0171C"/>
</linearGradient>
<linearGradient id="paint19_linear_2922_12203" x1="123.348" y1="198.441" x2="68.2991" y2="168.36" gradientUnits="userSpaceOnUse">
<stop stop-color="#D62B32"/>
<stop offset="1" stop-color="#E3979B"/>
</linearGradient>
<linearGradient id="paint20_linear_2922_12203" x1="-13388.8" y1="-7474.22" x2="-13393.3" y2="-7550.68" gradientUnits="userSpaceOnUse">
<stop stop-color="#CC7FED"/>
<stop offset="1" stop-color="#792BFF"/>
</linearGradient>
<linearGradient id="paint21_linear_2922_12203" x1="13236.7" y1="-7239.34" x2="13236.7" y2="-7314.38" gradientUnits="userSpaceOnUse">
<stop stop-color="#CC7FED"/>
<stop offset="1" stop-color="#792BFF"/>
</linearGradient>
<linearGradient id="paint22_linear_2922_12203" x1="206.295" y1="288.189" x2="147.59" y2="186.669" gradientUnits="userSpaceOnUse">
<stop stop-color="#F96B71"/>
<stop offset="1" stop-color="#C73339"/>
</linearGradient>
<linearGradient id="paint23_linear_2922_12203" x1="255.964" y1="288.257" x2="197.503" y2="185.578" gradientUnits="userSpaceOnUse">
<stop stop-color="#FB9C9F"/>
<stop offset="1" stop-color="#A0171C"/>
</linearGradient>
<linearGradient id="paint24_linear_2922_12203" x1="221.319" y1="198.44" x2="166.27" y2="168.36" gradientUnits="userSpaceOnUse">
<stop stop-color="#D62B32"/>
<stop offset="1" stop-color="#E3979B"/>
</linearGradient>
<linearGradient id="paint25_linear_2922_12203" x1="98.2963" y1="2.83008" x2="98.2963" y2="51.8892" gradientUnits="userSpaceOnUse">
<stop stop-color="#FF4545"/>
<stop offset="1" stop-color="#FF0000"/>
</linearGradient>
<linearGradient id="paint26_linear_2922_12203" x1="81.0834" y1="40.6403" x2="115.204" y2="40.6403" gradientUnits="userSpaceOnUse">
<stop stop-color="#CF6969"/>
<stop offset="1" stop-color="#FF9494"/>
</linearGradient>
</defs>
</svg>
