<svg width="319" height="327" viewBox="0 0 319 327" fill="none" xmlns="http://www.w3.org/2000/svg">
<g opacity="0.8">
<g opacity="0.6" filter="url(#filter0_d_2981_4826)">
<path d="M154.023 307.11L19.2496 229.582C13.2256 226.102 13.986 219.975 20.9487 215.961L141.916 146.163C148.866 142.149 159.489 141.71 165.513 145.189L300.286 222.718C306.31 226.197 305.55 232.325 298.587 236.338L177.62 306.137C170.669 310.15 160.047 310.59 154.023 307.11Z" fill="white" fill-opacity="0.4" style="mix-blend-mode:multiply" shape-rendering="crispEdges"/>
</g>
</g>
<path d="M153.143 279.609L49.4383 219.909C44.8101 217.241 44.6981 210.858 46.583 206.118L143.831 155.693C149.187 152.595 157.361 152.259 161.989 154.947L268.045 208.955C271.946 215.113 269.744 222.018 264.388 225.116L171.301 278.863C165.945 281.961 157.771 282.297 153.143 279.609Z" fill="url(#paint0_linear_2981_4826)"/>
<path d="M153.14 271.846L49.4348 212.165C44.8066 209.496 45.3851 204.774 50.7411 201.677L143.827 147.93C149.183 144.832 157.357 144.496 161.985 147.183L265.69 206.865C270.319 209.533 269.74 214.255 264.384 217.353L171.298 271.099C165.942 274.197 157.768 274.533 153.14 271.846Z" fill="#C73238"/>
<g filter="url(#filter1_ii_2981_4826)">
<path d="M152.996 264.922L61.4211 212.239C56.7929 209.57 57.3714 204.849 62.7274 201.751L143.963 154.853C149.319 151.755 157.493 151.419 162.121 154.107L253.696 206.79C258.324 209.458 257.746 214.18 252.39 217.278L171.154 264.175C165.798 267.273 157.624 267.609 152.996 264.922Z" fill="white"/>
</g>
<path d="M156.5 249.453L68.32 198.689C64.3734 196.419 64.2887 190.982 65.8809 186.951L148.573 144.08C153.129 141.455 160.074 141.167 164.004 143.437L254.183 189.373C257.486 194.607 255.622 200.485 251.083 203.11L171.931 248.809C167.374 251.435 160.43 251.723 156.5 249.453Z" fill="url(#paint1_linear_2981_4826)"/>
<path d="M156.495 242.847L68.3146 192.083C64.368 189.813 64.8762 185.799 69.4156 183.174L148.568 137.474C153.124 134.849 160.069 134.561 163.998 136.831L252.179 187.595C256.125 189.864 255.617 193.879 251.078 196.504L171.926 242.203C167.369 244.829 160.425 245.117 156.495 242.847Z" fill="#C73238"/>
<g filter="url(#filter2_ii_2981_4826)">
<path d="M156.367 236.953L78.5021 192.151C74.5555 189.881 75.0637 185.867 79.6031 183.242L148.677 143.352C153.233 140.727 160.178 140.439 164.108 142.708L241.973 187.51C245.919 189.78 245.411 193.794 240.872 196.419L171.798 236.309C167.241 238.934 160.297 239.222 156.367 236.953Z" fill="white"/>
</g>
<path d="M158.478 226.916L84.9332 184.585C81.6538 182.689 81.5636 178.162 82.9024 174.792L151.874 139.035C155.665 136.838 161.472 136.598 164.751 138.508L239.966 176.823C242.734 181.185 241.169 186.089 237.379 188.285L171.355 226.404C167.564 228.601 161.758 228.841 158.478 226.931V226.916Z" fill="url(#paint2_linear_2981_4826)"/>
<path d="M158.476 221.41L84.9306 179.079C81.6512 177.183 82.0573 173.829 85.8482 171.648L151.872 133.529C155.663 131.332 161.469 131.092 164.749 133.002L238.294 175.333C241.588 177.228 241.167 180.583 237.376 182.764L171.352 220.883C167.562 223.079 161.755 223.32 158.476 221.41Z" fill="#C73238"/>
<g filter="url(#filter3_ii_2981_4826)">
<path d="M158.369 216.49L93.4286 179.123C90.1493 177.228 90.5554 173.873 94.3462 171.692L151.961 138.432C155.752 136.236 161.558 135.995 164.838 137.905L229.778 175.272C233.072 177.168 232.651 180.522 228.86 182.703L171.246 215.963C167.455 218.16 161.648 218.4 158.369 216.49Z" fill="white"/>
</g>
<path d="M159.636 203.947L111.278 176.117C109.11 174.864 109.059 164.413 109.94 162.194L155.283 138.684C157.773 137.244 161.584 137.092 163.752 138.328L213.212 163.515C215.024 166.378 214.008 177.1 211.518 178.539L168.105 203.608C165.616 205.048 161.804 205.2 159.636 203.964V203.947Z" fill="url(#paint3_linear_2981_4826)"/>
<path d="M159.631 192.852L111.273 165.023C109.104 163.769 109.392 161.567 111.882 160.127L155.295 135.059C157.785 133.619 161.596 133.467 163.764 134.703L212.122 162.533C214.291 163.786 214.003 165.988 211.513 167.428L168.1 192.496C165.61 193.936 161.799 194.089 159.631 192.852Z" fill="#C73238"/>
<path d="M159.573 189.617L116.872 165.057C114.704 163.803 114.992 161.601 117.482 160.162L155.373 138.294C157.863 136.855 161.674 136.702 163.842 137.939L206.543 162.499C208.711 163.753 208.423 165.955 205.933 167.394L168.042 189.262C165.552 190.701 161.741 190.854 159.573 189.617Z" fill="white"/>
<path d="M28.9062 43.7966L114.723 164.281L158.182 189.311C161.284 191.094 165.089 191.094 168.191 189.311L211.65 164.281L292.684 46.7843C292.684 46.7843 218.663 -3.09231 161.972 0.352715C102.453 3.96542 28.9215 43.7966 28.9215 43.7966H28.9062Z" fill="url(#paint4_linear_2981_4826)"/>
<path d="M176.011 146.198L171.977 162.569L176.011 177.815L181.143 174.856V143.232L176.155 144.827L176.011 146.198Z" fill="#AD5F5F"/>
<path d="M174.596 143.744L174.716 146.542L176.012 146.197L181.145 143.232L179.731 140.783L174.596 143.744Z" fill="#C46C6C"/>
<path d="M140.748 124.206L154.786 139.701L174.595 143.744L179.73 140.783L145.884 121.237L140.748 124.206Z" fill="#FFBABA"/>
<path d="M140.747 124.207L139.332 125.023V156.641L140.747 159.094L174.593 178.636L176.009 177.815V146.198L174.593 143.744L140.747 124.207ZM158.519 158.257L159.195 155.922L159.296 157.961L158.519 158.257ZM160.928 151.708L159.376 152.592L157.674 150.387L156.177 145.842L157.651 144.497L159.02 145.289L160.928 148.596V151.708Z" fill="#E37D7D"/>
<path d="M159.561 149.384L157.651 146.079V144.498L156.325 143.741L154.426 144.846V147.951L156.325 151.243L155.843 159.706L159.5 161.826L159.296 157.961L159.076 157.831L159.194 155.922L159.02 152.802L159.376 152.592L159.561 149.384Z" fill="#782727"/>
<path d="M172.531 138.814L174.549 141.732L177.961 139.766V117.834L172.534 118.575L172.531 138.814Z" fill="#AD5F5F"/>
<path d="M145.371 123.134L147.395 126.052L150.804 124.087V102.201L145.375 102.459L145.371 123.134Z" fill="#AD5F5F"/>
<path d="M152.849 96.8932L145.377 102.459L148.907 103.288L155.83 100.942L165.613 106.589L168.975 102.268L156.263 94.9255L152.849 96.8932Z" fill="#FFBABA"/>
<path d="M165.564 104.234L165.612 106.589L172.535 118.575L174.554 119.81L177.962 117.834L168.974 102.268L165.564 104.234Z" fill="#C46C6C"/>
<path d="M152.849 96.8931L143.866 102.08L143.857 124.012L147.396 126.052V105.814L154.316 101.82L164.097 107.466L171.021 119.457L171.018 139.693L174.55 141.732L174.555 119.81L165.565 104.234L152.849 96.8931Z" fill="#E37D7D"/>
<defs>
<filter id="filter0_d_2981_4826" x="0.810746" y="131.341" width="317.914" height="195.367" filterUnits="userSpaceOnUse" color-interpolation-filters="sRGB">
<feFlood flood-opacity="0" result="BackgroundImageFix"/>
<feColorMatrix in="SourceAlpha" type="matrix" values="0 0 0 0 0 0 0 0 0 0 0 0 0 0 0 0 0 0 127 0" result="hardAlpha"/>
<feOffset dy="2.87496"/>
<feGaussianBlur stdDeviation="7.1874"/>
<feComposite in2="hardAlpha" operator="out"/>
<feColorMatrix type="matrix" values="0 0 0 0 0.21167 0 0 0 0 0.21167 0 0 0 0 0.21167 0 0 0 0.45 0"/>
<feBlend mode="normal" in2="BackgroundImageFix" result="effect1_dropShadow_2981_4826"/>
<feBlend mode="normal" in="SourceGraphic" in2="effect1_dropShadow_2981_4826" result="shape"/>
</filter>
<filter id="filter1_ii_2981_4826" x="57.2906" y="151.573" width="202.405" height="115.164" filterUnits="userSpaceOnUse" color-interpolation-filters="sRGB">
<feFlood flood-opacity="0" result="BackgroundImageFix"/>
<feBlend mode="normal" in="SourceGraphic" in2="BackgroundImageFix" result="shape"/>
<feColorMatrix in="SourceAlpha" type="matrix" values="0 0 0 0 0 0 0 0 0 0 0 0 0 0 0 0 0 0 127 0" result="hardAlpha"/>
<feOffset dx="-2.15622" dy="-0.71874"/>
<feGaussianBlur stdDeviation="0.503118"/>
<feComposite in2="hardAlpha" operator="arithmetic" k2="-1" k3="1"/>
<feColorMatrix type="matrix" values="0 0 0 0 0 0 0 0 0 0 0 0 0 0 0 0 0 0 0.15 0"/>
<feBlend mode="normal" in2="shape" result="effect1_innerShadow_2981_4826"/>
<feColorMatrix in="SourceAlpha" type="matrix" values="0 0 0 0 0 0 0 0 0 0 0 0 0 0 0 0 0 0 127 0" result="hardAlpha"/>
<feOffset dx="2.87496"/>
<feGaussianBlur stdDeviation="2.22809"/>
<feComposite in2="hardAlpha" operator="arithmetic" k2="-1" k3="1"/>
<feColorMatrix type="matrix" values="0 0 0 0 0 0 0 0 0 0 0 0 0 0 0 0 0 0 0.25 0"/>
<feBlend mode="normal" in2="effect1_innerShadow_2981_4826" result="effect2_innerShadow_2981_4826"/>
</filter>
<filter id="filter2_ii_2981_4826" x="74.8356" y="140.459" width="172.672" height="98.0239" filterUnits="userSpaceOnUse" color-interpolation-filters="sRGB">
<feFlood flood-opacity="0" result="BackgroundImageFix"/>
<feBlend mode="normal" in="SourceGraphic" in2="BackgroundImageFix" result="shape"/>
<feColorMatrix in="SourceAlpha" type="matrix" values="0 0 0 0 0 0 0 0 0 0 0 0 0 0 0 0 0 0 127 0" result="hardAlpha"/>
<feOffset dx="-2.15622" dy="-0.71874"/>
<feGaussianBlur stdDeviation="0.503118"/>
<feComposite in2="hardAlpha" operator="arithmetic" k2="-1" k3="1"/>
<feColorMatrix type="matrix" values="0 0 0 0 0 0 0 0 0 0 0 0 0 0 0 0 0 0 0.15 0"/>
<feBlend mode="normal" in2="shape" result="effect1_innerShadow_2981_4826"/>
<feColorMatrix in="SourceAlpha" type="matrix" values="0 0 0 0 0 0 0 0 0 0 0 0 0 0 0 0 0 0 127 0" result="hardAlpha"/>
<feOffset dx="2.87496"/>
<feGaussianBlur stdDeviation="2.22809"/>
<feComposite in2="hardAlpha" operator="arithmetic" k2="-1" k3="1"/>
<feColorMatrix type="matrix" values="0 0 0 0 0 0 0 0 0 0 0 0 0 0 0 0 0 0 0.25 0"/>
<feBlend mode="normal" in2="effect1_innerShadow_2981_4826" result="effect2_innerShadow_2981_4826"/>
</filter>
<filter id="filter3_ii_2981_4826" x="90.2067" y="135.896" width="144.668" height="81.8835" filterUnits="userSpaceOnUse" color-interpolation-filters="sRGB">
<feFlood flood-opacity="0" result="BackgroundImageFix"/>
<feBlend mode="normal" in="SourceGraphic" in2="BackgroundImageFix" result="shape"/>
<feColorMatrix in="SourceAlpha" type="matrix" values="0 0 0 0 0 0 0 0 0 0 0 0 0 0 0 0 0 0 127 0" result="hardAlpha"/>
<feOffset dx="-2.15622" dy="-0.71874"/>
<feGaussianBlur stdDeviation="0.503118"/>
<feComposite in2="hardAlpha" operator="arithmetic" k2="-1" k3="1"/>
<feColorMatrix type="matrix" values="0 0 0 0 0 0 0 0 0 0 0 0 0 0 0 0 0 0 0.15 0"/>
<feBlend mode="normal" in2="shape" result="effect1_innerShadow_2981_4826"/>
<feColorMatrix in="SourceAlpha" type="matrix" values="0 0 0 0 0 0 0 0 0 0 0 0 0 0 0 0 0 0 127 0" result="hardAlpha"/>
<feOffset dx="2.87496"/>
<feGaussianBlur stdDeviation="2.22809"/>
<feComposite in2="hardAlpha" operator="arithmetic" k2="-1" k3="1"/>
<feColorMatrix type="matrix" values="0 0 0 0 0 0 0 0 0 0 0 0 0 0 0 0 0 0 0.25 0"/>
<feBlend mode="normal" in2="effect1_innerShadow_2981_4826" result="effect2_innerShadow_2981_4826"/>
</filter>
<linearGradient id="paint0_linear_2981_4826" x1="188.993" y1="280.953" x2="148.235" y2="193.335" gradientUnits="userSpaceOnUse">
<stop stop-color="#530000"/>
<stop offset="0.54" stop-color="#7F0000"/>
<stop offset="1" stop-color="#D73434"/>
</linearGradient>
<linearGradient id="paint1_linear_2981_4826" x1="186.965" y1="250.582" x2="152.312" y2="176.088" gradientUnits="userSpaceOnUse">
<stop stop-color="#530000"/>
<stop offset="0.54" stop-color="#7F0000"/>
<stop offset="1" stop-color="#D73434"/>
</linearGradient>
<linearGradient id="paint2_linear_2981_4826" x1="183.902" y1="227.887" x2="154.988" y2="165.74" gradientUnits="userSpaceOnUse">
<stop stop-color="#530000"/>
<stop offset="0.54" stop-color="#7F0000"/>
<stop offset="1" stop-color="#D73434"/>
</linearGradient>
<linearGradient id="paint3_linear_2981_4826" x1="176.347" y1="204.551" x2="153.377" y2="160.659" gradientUnits="userSpaceOnUse">
<stop stop-color="#530000"/>
<stop offset="0.54" stop-color="#7F0000"/>
<stop offset="1" stop-color="#D73434"/>
</linearGradient>
<linearGradient id="paint4_linear_2981_4826" x1="159.42" y1="11.5109" x2="165.073" y2="184.9" gradientUnits="userSpaceOnUse">
<stop stop-color="#F9EBEB" stop-opacity="0"/>
<stop offset="0.18" stop-color="#F9EFEF" stop-opacity="0"/>
<stop offset="0.3" stop-color="#FAF0F0" stop-opacity="0"/>
<stop offset="0.38" stop-color="#FAF1F1" stop-opacity="0.04"/>
<stop offset="0.5" stop-color="#FDECEC" stop-opacity="0.13"/>
<stop offset="0.57" stop-color="#FFE9E9" stop-opacity="0.39"/>
<stop offset="0.64" stop-color="#FFE8E8" stop-opacity="0.1"/>
<stop offset="0.79" stop-color="#D5585D" stop-opacity="0.16"/>
<stop offset="0.883469" stop-color="#D5585D" stop-opacity="0.16"/>
<stop offset="1" stop-color="#D5585D" stop-opacity="0.6"/>
</linearGradient>
</defs>
</svg>
