<svg width="123" height="162" viewBox="0 0 123 162" fill="none" xmlns="http://www.w3.org/2000/svg">
<g opacity="0.7">
<path d="M120.878 74.9721L93.2657 60.3451L63.7773 42.0055L65.3707 41.0711L122.474 74.0377L120.878 74.9721Z" fill="#B84242"/>
<path d="M120.876 146.673L117.439 107.936L120.876 74.9721L122.472 74.0377V145.736L120.876 146.673Z" fill="#360E0E"/>
<path d="M120.878 146.673L63.7773 113.704V42.0055L120.878 74.9721V146.673Z" fill="#782D2D"/>
<path d="M66.2129 54.9061L67.983 55.9278V50.4889L66.454 49.6072V48.2595C67.3379 48.5787 67.9027 48.6384 68.4835 48.5718L69.8679 49.373V57.0183L71.397 57.9023V59.6655L66.2129 56.6717V54.9061Z" fill="#FFBABA"/>
<path d="M72.5723 55.5972C72.5723 52.3967 73.7386 51.4256 75.4857 52.4335C77.2306 53.4414 78.3992 55.7602 78.3992 58.9607C78.3992 62.1634 77.2329 63.2081 75.4857 62.2002C73.7409 61.19 72.5723 58.7977 72.5723 55.5972ZM76.6153 57.9298C76.6153 55.3515 76.1263 54.4906 75.4857 54.1209C74.8567 53.7582 74.3562 54.0452 74.3562 56.6235C74.3562 59.188 74.8567 60.143 75.4857 60.5058C76.1263 60.8777 76.6153 60.4943 76.6153 57.9298Z" fill="#FFBABA"/>
<path d="M79.7734 62.7351L81.5436 63.7568V58.3178L80.0145 57.4362V56.0885C80.9007 56.4076 81.4655 56.4673 82.0441 56.4008L83.4285 57.202V64.8473L84.9575 65.7312V67.4945L79.7734 64.5006V62.7351Z" fill="#FFBABA"/>
<path d="M86.1309 63.4261C86.1309 60.2257 87.2972 59.2545 89.0443 60.2624C90.7892 61.2703 91.9555 63.5891 91.9555 66.7896C91.9555 69.9924 90.7892 71.037 89.0443 70.0291C87.2972 69.0189 86.1309 66.6266 86.1309 63.4261ZM90.1739 65.7587C90.1739 63.1805 89.6849 62.3218 89.0443 61.9499C88.4153 61.5871 87.9148 61.8741 87.9148 64.4524C87.9148 67.0169 88.4153 67.972 89.0443 68.3347C89.6826 68.7067 90.1739 68.3255 90.1739 65.7587Z" fill="#FFBABA"/>
<path d="M93.3363 70.5641L95.1064 71.5857V66.1468L93.5774 65.2652V63.9175C94.4636 64.2366 95.0284 64.2963 95.6069 64.2297L96.9913 65.031V72.6763L98.5181 73.5602V75.3234L93.334 72.3296L93.3363 70.5641Z" fill="#FFBABA"/>
<path d="M100.119 74.4786L101.889 75.5002V70.0613L100.363 69.1797V67.832C101.249 68.1511 101.813 68.2108 102.392 68.1442L103.776 68.9455V76.5908L105.306 77.4747V79.2379L100.121 76.2441L100.119 74.4786Z" fill="#FFBABA"/>
<path d="M106.896 78.393L108.667 79.4147V73.9757L107.138 73.0941V71.7464C108.024 72.0655 108.589 72.1252 109.167 72.0587L110.552 72.8599V80.5052L112.081 81.3892V83.1524L106.896 80.1586V78.393Z" fill="#FFBABA"/>
<path d="M113.252 79.0841C113.252 75.8836 114.418 74.9125 116.165 75.9204C117.91 76.9283 119.079 79.2471 119.079 82.4476C119.079 85.6504 117.913 86.695 116.165 85.6871C114.418 84.6792 113.252 82.2869 113.252 79.0841ZM117.295 81.419C117.295 78.8408 116.806 77.9798 116.165 77.6101C115.536 77.2474 115.036 77.5344 115.036 80.1127C115.036 82.6772 115.536 83.6323 116.165 83.995C116.806 84.3669 117.295 83.9835 117.295 81.419Z" fill="#FFBABA"/>
<path d="M66.2129 72.7015L67.983 73.7232V68.2843L66.454 67.4026V66.055C67.3379 66.3741 67.9027 66.4338 68.4835 66.3672L69.8679 67.1685V74.8137L71.397 75.6977V77.4609L66.2129 74.4671V72.7015Z" fill="#FFBABA"/>
<path d="M72.5723 73.3926C72.5723 70.1921 73.7386 69.221 75.4857 70.2289C77.2306 71.2368 78.3992 73.5556 78.3992 76.7561C78.3992 79.9588 77.2329 81.0034 75.4857 79.9956C73.7409 78.9854 72.5723 76.5931 72.5723 73.3926ZM76.6153 75.7252C76.6153 73.1469 76.1263 72.286 75.4857 71.9163C74.8567 71.5536 74.3562 71.8406 74.3562 74.4188C74.3562 76.9833 74.8567 77.9385 75.4857 78.3012C76.1263 78.6731 76.6153 78.2897 76.6153 75.7252Z" fill="#FFBABA"/>
<path d="M79.7734 80.5305L81.5436 81.5522V76.1132L80.0145 75.2316V73.8839C80.9007 74.203 81.4655 74.2627 82.0441 74.1961L83.4285 74.9974V82.6427L84.9575 83.5267V85.2899L79.7734 82.296V80.5305Z" fill="#FFBABA"/>
<path d="M86.1309 81.2215C86.1309 78.0211 87.2972 77.0499 89.0443 78.0578C90.7892 79.0657 91.9555 81.3846 91.9555 84.585C91.9555 87.7878 90.7892 88.8324 89.0443 87.8245C87.2972 86.8143 86.1309 84.422 86.1309 81.2215ZM90.1739 83.5542C90.1739 80.9759 89.6849 80.1172 89.0443 79.7453C88.4153 79.3826 87.9148 79.6695 87.9148 82.2478C87.9148 84.8123 88.4153 85.7674 89.0443 86.1302C89.6826 86.5044 90.1739 86.1187 90.1739 83.5542Z" fill="#FFBABA"/>
<path d="M93.3363 88.3595L95.1064 89.3811V83.9422L93.5774 83.0606V81.7129C94.4636 82.032 95.0284 82.0917 95.6069 82.0251L96.9913 82.8264V90.4717L98.5181 91.3556V93.1188L93.334 90.125L93.3363 88.3595Z" fill="#FFBABA"/>
<path d="M99.6914 89.0505C99.6914 85.8501 100.858 84.8789 102.605 85.8868C104.35 86.8947 105.518 89.2135 105.518 92.414C105.518 95.6168 104.352 96.6614 102.605 95.6535C100.86 94.6433 99.6914 92.251 99.6914 89.0505ZM103.734 91.3855C103.734 88.8072 103.245 87.9462 102.605 87.5766C101.976 87.2138 101.475 87.5008 101.475 90.0791C101.475 92.6436 101.976 93.5987 102.605 93.9615C103.245 94.3334 103.734 93.95 103.734 91.3855Z" fill="#FFBABA"/>
<path d="M106.896 96.1885L108.667 97.2101V91.7711L107.138 90.8896V89.5419C108.024 89.861 108.589 89.9207 109.167 89.8541L110.552 90.6554V98.3007L112.081 99.1846V100.946L106.896 97.9517V96.1885Z" fill="#FFBABA"/>
<path d="M113.252 96.8795C113.252 93.679 114.418 92.7079 116.165 93.7158C117.91 94.7237 119.079 97.0425 119.079 100.243C119.079 103.446 117.913 104.49 116.165 103.48C114.418 102.475 113.252 100.082 113.252 96.8795ZM117.295 99.2144C117.295 96.6361 116.806 95.7775 116.165 95.4056C115.536 95.0428 115.036 95.3298 115.036 97.9081C115.036 100.473 115.536 101.428 116.165 101.79C116.806 102.162 117.295 101.779 117.295 99.2144Z" fill="#FFBABA"/>
<path d="M66.2129 90.4969L67.983 91.5186V86.0797L66.454 85.198V83.8503C67.3379 84.1695 67.9027 84.2292 68.4835 84.1626L69.8679 84.9639V92.6092L71.397 93.4931V95.2563L66.2129 92.2625V90.4969Z" fill="#FFBABA"/>
<path d="M72.9922 94.4114L74.7623 95.4331V89.9941L73.2333 89.1125V87.7648C74.1195 88.084 74.6843 88.1437 75.2628 88.0771L76.6472 88.8783V96.5236L78.1763 97.4076V99.1708L72.9922 96.177V94.4114Z" fill="#FFBABA"/>
<path d="M79.3516 95.1025C79.3516 91.902 80.5179 90.9308 82.265 91.9387C84.0099 92.9466 85.1785 95.2655 85.1785 98.4659C85.1785 101.669 84.0122 102.713 82.265 101.705C80.5202 100.695 79.3516 98.3029 79.3516 95.1025ZM83.3946 97.4351C83.3946 94.8568 82.9056 93.9981 82.265 93.6262C81.636 93.2635 81.1355 93.5505 81.1355 96.1288C81.1355 98.6933 81.636 99.6483 82.265 100.011C82.9056 100.383 83.3946 99.9996 83.3946 97.4351Z" fill="#FFBABA"/>
<path d="M86.1309 99.017C86.1309 95.8165 87.2972 94.8453 89.0443 95.8532C90.7892 96.8611 91.9555 99.18 91.9555 102.38C91.9555 105.583 90.7892 106.628 89.0443 105.62C87.2972 104.61 86.1309 102.217 86.1309 99.017ZM90.1739 101.35C90.1739 98.7713 89.6849 97.9104 89.0443 97.5407C88.4153 97.178 87.9148 97.465 87.9148 100.043C87.9148 102.608 88.4153 103.563 89.0443 103.926C89.6826 104.3 90.1739 103.914 90.1739 101.35Z" fill="#FFBABA"/>
<path d="M93.3363 106.155L95.1064 107.177V101.738L93.5774 100.856V99.506C94.4636 99.8251 95.0284 99.8848 95.6069 99.8182L96.9913 100.62V108.265L98.5181 109.149V110.912L93.334 107.918L93.3363 106.155Z" fill="#FFBABA"/>
<path d="M100.119 110.069L101.889 111.091V105.652L100.363 104.77V103.42C101.249 103.74 101.813 103.799 102.392 103.733L103.776 104.534V112.179L105.306 113.063V114.826L100.121 111.833L100.119 110.069Z" fill="#FFBABA"/>
<path d="M106.473 110.76C106.473 107.562 107.639 106.589 109.386 107.597C111.131 108.605 112.3 110.923 112.3 114.124C112.3 117.327 111.133 118.371 109.386 117.363C107.639 116.353 106.473 113.963 106.473 110.76ZM110.516 113.095C110.516 110.517 110.027 109.656 109.386 109.289C108.757 108.926 108.257 109.213 108.257 111.791C108.257 114.356 108.757 115.311 109.386 115.674C110.024 116.043 110.516 115.66 110.516 113.095Z" fill="#FFBABA"/>
<path d="M113.678 117.898L115.448 118.92V113.481L113.919 112.599V111.249C114.805 111.569 115.37 111.628 115.949 111.562L117.333 112.363V120.008L118.86 120.892V122.655L113.676 119.662L113.678 117.898Z" fill="#FFBABA"/>
<path d="M66.2129 108.292L67.983 109.314V103.875L66.454 102.993V101.646C67.3379 101.965 67.9027 102.022 68.4835 101.956L69.8679 102.757V110.405L71.397 111.286V113.052L66.2129 110.056V108.292Z" fill="#FFBABA"/>
<path d="M72.5723 108.983C72.5723 105.785 73.7386 104.814 75.4857 105.82C77.2306 106.828 78.3992 109.146 78.3992 112.347C78.3992 115.55 77.2329 116.594 75.4857 115.586C73.7409 114.576 72.5723 112.184 72.5723 108.983ZM76.6153 111.318C76.6153 108.74 76.1263 107.879 75.4857 107.509C74.8567 107.147 74.3562 107.436 74.3562 110.014C74.3562 112.576 74.8567 113.532 75.4857 113.894C76.1263 114.264 76.6153 113.881 76.6153 111.318Z" fill="#FFBABA"/>
<path d="M79.7734 116.121L81.5436 117.143V111.704L80.0145 110.822V109.475C80.9007 109.794 81.4655 109.851 82.0441 109.785L83.4285 110.586V118.234L84.9575 119.115V120.881L79.7734 117.885V116.121Z" fill="#FFBABA"/>
<path d="M86.1309 116.812C86.1309 113.612 87.2972 112.643 89.0443 113.649C90.7892 114.657 91.9555 116.975 91.9555 120.176C91.9555 123.379 90.7892 124.423 89.0443 123.415C87.2972 122.405 86.1309 120.013 86.1309 116.812ZM90.1739 119.147C90.1739 116.569 89.6849 115.708 89.0443 115.338C88.4153 114.976 87.9148 115.265 87.9148 117.843C87.9148 120.405 88.4153 121.361 89.0443 121.723C89.6826 122.093 90.1739 121.712 90.1739 119.147Z" fill="#FFBABA"/>
<path d="M93.3363 123.95L95.1064 124.972V119.533L93.5774 118.651V117.304C94.4636 117.623 95.0284 117.68 95.6069 117.614L96.9913 118.415V126.063L98.5181 126.944V128.707L93.334 125.711L93.3363 123.95Z" fill="#FFBABA"/>
<path d="M99.6914 124.641C99.6914 121.443 100.858 120.472 102.605 121.478C104.35 122.486 105.518 124.804 105.518 128.005C105.518 131.208 104.352 132.252 102.605 131.244C100.86 130.234 99.6914 127.842 99.6914 124.641ZM103.734 126.976C103.734 124.398 103.245 123.537 102.605 123.167C101.976 122.805 101.475 123.094 101.475 125.672C101.475 128.234 101.976 129.19 102.605 129.555C103.245 129.924 103.734 129.541 103.734 126.976Z" fill="#FFBABA"/>
<path d="M106.896 131.779L108.667 132.801V127.362L107.138 126.48V125.133C108.024 125.452 108.589 125.509 109.167 125.443L110.552 126.244V133.892L112.081 134.773V136.539L106.896 133.543V131.779Z" fill="#FFBABA"/>
<path d="M113.678 135.694L115.448 136.715V131.276L113.919 130.395V129.047C114.805 129.366 115.37 129.424 115.949 129.357L117.333 130.158V137.806L118.86 138.688V140.451L113.676 137.455L113.678 135.694Z" fill="#FFBABA"/>
</g>
<g opacity="0.7">
<path d="M57.101 65.5429L29.4929 50.9136L0 32.574L1.59794 31.6419L58.6989 64.6085L57.101 65.5429Z" fill="#B84242"/>
<path d="M57.1023 137.241L53.6699 98.5119L57.1023 65.543L58.7002 64.6085V136.307L57.1023 137.241Z" fill="#360E0E"/>
<path d="M57.101 137.241L0 104.275V32.574L57.101 65.543V137.241Z" fill="#782D2D"/>
<path d="M2.43589 45.4769L4.20602 46.4986V41.0596L2.67696 40.1757V38.828C3.56317 39.1472 4.12796 39.2069 4.70652 39.1403L6.09094 39.9393V47.5868L7.6177 48.4685V50.2317L2.43359 47.2379L2.43589 45.4769Z" fill="#FFBABA"/>
<path d="M8.79297 46.168C8.79297 42.9675 9.95928 41.9964 11.7065 43.0042C13.4536 44.0121 14.6199 46.331 14.6199 49.5315C14.6199 52.7319 13.4536 53.7789 11.7065 52.7687C9.95928 51.7631 8.79297 49.3685 8.79297 46.168ZM12.8337 48.5006C12.8337 45.9223 12.347 45.0614 11.7042 44.6917C11.0751 44.329 10.5746 44.6183 10.5746 47.1965C10.5746 49.761 11.0751 50.7161 11.7042 51.0789C12.347 51.4508 12.8337 51.0651 12.8337 48.5006Z" fill="#FFBABA"/>
<path d="M15.998 53.3059L17.7682 54.3276V48.8886L16.2391 48.0047V46.657C17.1253 46.9761 17.6901 47.0358 18.2687 46.9693L19.6531 47.7682V55.4158L21.1822 56.2975V58.0607L15.998 55.0668V53.3059Z" fill="#FFBABA"/>
<path d="M22.3555 53.997C22.3555 50.7965 23.5218 49.8253 25.269 50.8332C27.0138 51.8388 28.1824 54.16 28.1824 57.3604C28.1824 60.5609 27.0161 61.6078 25.269 60.5976C23.5218 59.592 22.3555 57.1974 22.3555 53.997ZM26.3939 56.3296C26.3939 53.7513 25.9072 52.8926 25.2666 52.5207C24.6376 52.1579 24.1371 52.4472 24.1371 55.0255C24.1371 57.59 24.6376 58.5451 25.2666 58.9078C25.9095 59.2798 26.3939 58.8941 26.3939 56.3296Z" fill="#FFBABA"/>
<path d="M29.5566 61.1349L31.3291 62.1565V56.7176L29.8 55.8336V54.486C30.6862 54.8051 31.251 54.8648 31.8296 54.7982L33.214 55.5972V63.2448L34.743 64.1264V65.8896L29.5589 62.8958L29.5566 61.1349Z" fill="#FFBABA"/>
<path d="M36.3379 65.0494L38.108 66.071V60.6321L36.579 59.7481V58.4005C37.4652 58.7196 38.03 58.7793 38.6085 58.7127L39.9929 59.5117V67.1592L41.522 68.0409V69.8041L36.3379 66.8103V65.0494Z" fill="#FFBABA"/>
<path d="M43.1172 68.9638L44.8873 69.9855V64.5465L43.3583 63.6626V62.3149C44.2445 62.634 44.8093 62.6937 45.3878 62.6272L46.7722 63.4261V71.0737L48.3013 71.9554V73.7186L43.1172 70.7248V68.9638Z" fill="#FFBABA"/>
<path d="M49.4766 69.6572C49.4766 66.4567 50.6429 65.4856 52.39 66.4934C54.1349 67.5013 55.3035 69.8202 55.3035 73.0207C55.3035 76.2211 54.1372 77.2681 52.39 76.2579C50.6429 75.25 49.4766 72.8577 49.4766 69.6572ZM53.5173 71.9898C53.5173 69.4115 53.0306 68.5506 52.39 68.1809C51.761 67.8182 51.2582 68.1075 51.2582 70.6857C51.2582 73.2503 51.7587 74.2053 52.39 74.5681C53.0306 74.9377 53.5173 74.552 53.5173 71.9898Z" fill="#FFBABA"/>
<path d="M2.43589 63.2723L4.20602 64.294V58.8551L2.67696 57.9711V56.6235C3.56317 56.9426 4.12796 57.0023 4.70652 56.9357L6.09094 57.7347V65.3823L7.6177 66.2639V68.0271L2.43359 65.0333L2.43589 63.2723Z" fill="#FFBABA"/>
<path d="M8.79297 63.9634C8.79297 60.7629 9.95928 59.7918 11.7065 60.7997C13.4536 61.8053 14.6199 64.1264 14.6199 67.3269C14.6199 70.5274 13.4536 71.5743 11.7065 70.5641C9.95928 69.5585 8.79297 67.1639 8.79297 63.9634ZM12.8337 66.296C12.8337 63.7177 12.347 62.8591 11.7042 62.4872C11.0751 62.1244 10.5746 62.4137 10.5746 64.9919C10.5746 67.5564 11.0751 68.5116 11.7042 68.8743C12.347 69.2462 12.8337 68.8605 12.8337 66.296Z" fill="#FFBABA"/>
<path d="M15.998 71.1013L17.7682 72.123V66.684L16.2391 65.8001V64.4524C17.1253 64.7715 17.6901 64.8312 18.2687 64.7646L19.6531 65.5636V73.2112L21.1822 74.0928V75.8561L15.998 72.8622V71.1013Z" fill="#FFBABA"/>
<path d="M22.3555 71.7924C22.3555 68.5919 23.5218 67.6207 25.269 68.6286C27.0138 69.6365 28.1824 71.9554 28.1824 75.1558C28.1824 78.3563 27.0161 79.4032 25.269 78.393C23.5218 77.3874 22.3555 74.9928 22.3555 71.7924ZM26.3939 74.125C26.3939 71.5467 25.9072 70.6857 25.2666 70.3161C24.6376 69.9533 24.1371 70.2426 24.1371 72.8209C24.1371 75.3854 24.6376 76.3405 25.2666 76.7033C25.9095 77.0752 26.3939 76.6895 26.3939 74.125Z" fill="#FFBABA"/>
<path d="M29.5566 78.9303L31.3291 79.9519V74.513L29.8 73.6291V72.2814C30.6862 72.6005 31.251 72.6602 31.8296 72.5936L33.214 73.3926V81.0402L34.743 81.9218V83.6851L29.5589 80.6912L29.5566 78.9303Z" fill="#FFBABA"/>
<path d="M35.9121 79.6213C35.9121 76.4209 37.0784 75.4497 38.8256 76.4576C40.5705 77.4655 41.7391 79.7843 41.7391 82.9848C41.7391 86.1853 40.5728 87.2322 38.8256 86.222C37.0807 85.2164 35.9121 82.8241 35.9121 79.6213ZM39.9529 81.9539C39.9529 79.3757 39.4661 78.517 38.8256 78.1451C38.1965 77.7823 37.696 78.0716 37.696 80.6499C37.696 83.2144 38.1965 84.1695 38.8256 84.5322C39.4661 84.9042 39.9529 84.5184 39.9529 81.9539Z" fill="#FFBABA"/>
<path d="M43.1172 86.7592L44.8873 87.7809V82.342L43.3583 81.458V80.1104C44.2445 80.4295 44.8093 80.4892 45.3878 80.4226L46.7722 81.2215V88.8692L48.3013 89.7508V91.514L43.1172 88.5202V86.7592Z" fill="#FFBABA"/>
<path d="M49.4766 87.4526C49.4766 84.2521 50.6429 83.281 52.39 84.2889C54.1349 85.2945 55.3035 87.6156 55.3035 90.8161C55.3035 94.0165 54.1372 95.0635 52.39 94.0533C50.6429 93.0454 49.4766 90.6531 49.4766 87.4526ZM53.5173 89.7852C53.5173 87.207 53.0306 86.346 52.39 85.9763C51.761 85.6136 51.2582 85.9029 51.2582 88.4811C51.2582 91.0457 51.7587 92.0008 52.39 92.3635C53.0306 92.7332 53.5173 92.3474 53.5173 89.7852Z" fill="#FFBABA"/>
<path d="M2.43589 81.0677L4.20602 82.0894V76.6504L2.67696 75.7665V74.4188C3.56317 74.738 4.12796 74.7977 4.70652 74.7311L6.09094 75.5301V83.1776L7.6177 84.0593V85.8225L2.43359 82.8287L2.43589 81.0677Z" fill="#FFBABA"/>
<path d="M9.2168 84.9822L10.9869 86.0039V80.5649L9.45786 79.681V78.3333C10.3441 78.6525 10.9089 78.7122 11.4874 78.6456L12.8718 79.4446V87.0921L14.4009 87.9738V89.737L9.2168 86.7432V84.9822Z" fill="#FFBABA"/>
<path d="M15.5762 85.6733C15.5762 82.4728 16.7425 81.5017 18.4874 82.5096C20.2322 83.5174 21.4008 85.8363 21.4008 89.0368C21.4008 92.2372 20.2345 93.2842 18.4874 92.274C16.7425 91.2684 15.5762 88.8738 15.5762 85.6733ZM19.6146 88.0059C19.6146 85.4276 19.1279 84.5667 18.4874 84.197C17.8583 83.8343 17.3578 84.1236 17.3578 86.7019C17.3578 89.2664 17.8583 90.2214 18.4874 90.5842C19.1279 90.9561 19.6146 90.5704 19.6146 88.0059Z" fill="#FFBABA"/>
<path d="M22.3555 89.5878C22.3555 86.3873 23.5218 85.4162 25.269 86.424C27.0138 87.4296 28.1824 89.7508 28.1824 92.9513C28.1824 96.1517 27.0161 97.1987 25.269 96.1885C23.5218 95.1829 22.3555 92.7883 22.3555 89.5878ZM26.3939 91.9204C26.3939 89.3421 25.9072 88.4812 25.2666 88.1115C24.6376 87.7488 24.1371 88.0381 24.1371 90.6163C24.1371 93.1808 24.6376 94.1359 25.2666 94.4987C25.9095 94.8706 26.3939 94.4849 26.3939 91.9204Z" fill="#FFBABA"/>
<path d="M29.5566 96.7257L31.3291 97.7474V92.3084L29.8 91.4245V90.0768C30.6862 90.3959 31.251 90.4556 31.8296 90.389L33.214 91.188V98.8356L34.743 99.7172V101.48L29.5589 98.4866L29.5566 96.7257Z" fill="#FFBABA"/>
<path d="M36.3379 100.642L38.108 101.664V96.2252L36.579 95.3413V93.9936C37.4652 94.3127 38.03 94.3724 38.6085 94.3058L39.9929 95.1048V102.752L41.522 103.634V105.4L36.3379 102.406V100.642Z" fill="#FFBABA"/>
<path d="M42.6953 101.331C42.6953 98.1307 43.8616 97.1596 45.6088 98.1675C47.3537 99.1731 48.5223 101.492 48.5223 104.695C48.5223 107.897 47.356 108.942 45.6088 107.932C43.8616 106.926 42.6953 104.534 42.6953 101.331ZM46.7338 103.664C46.7338 101.086 46.247 100.227 45.6065 99.8573C44.9774 99.4945 44.4769 99.7838 44.4769 102.362C44.4769 104.924 44.9774 105.882 45.6065 106.244C46.247 106.614 46.7338 106.228 46.7338 103.664Z" fill="#FFBABA"/>
<path d="M49.8965 108.471L51.6666 109.493V104.054L50.1376 103.17V101.823C51.0215 102.142 51.5863 102.201 52.1671 102.135L53.5515 102.934V110.581L55.0806 111.463V113.228L49.8965 110.235V108.471Z" fill="#FFBABA"/>
<path d="M2.43589 98.8631L4.20602 99.8848V94.4459L2.67696 93.5642V92.2165C3.56317 92.5357 4.12796 92.5954 4.70652 92.5288L6.09094 93.33V100.975L7.6177 101.859V103.623L2.43359 100.629L2.43589 98.8631Z" fill="#FFBABA"/>
<path d="M8.79297 99.5542C8.79297 96.3537 9.95928 95.3826 11.7065 96.3905C13.4536 97.3984 14.6199 99.7172 14.6199 102.918C14.6199 106.12 13.4536 107.165 11.7065 106.157C9.95928 105.149 8.79297 102.757 8.79297 99.5542ZM12.8337 101.889C12.8337 99.3109 12.347 98.4499 11.7042 98.0803C11.0751 97.7175 10.5746 98.0045 10.5746 100.583C10.5746 103.147 11.0751 104.102 11.7042 104.465C12.347 104.837 12.8337 104.451 12.8337 101.889Z" fill="#FFBABA"/>
<path d="M15.998 106.692L17.7682 107.714V102.275L16.2391 101.393V100.043C17.1253 100.362 17.6901 100.422 18.2687 100.355L19.6531 101.157V108.802L21.1822 109.686V111.449L15.998 108.455V106.692Z" fill="#FFBABA"/>
<path d="M22.3555 107.383C22.3555 104.185 23.5218 103.212 25.269 104.219C27.0138 105.227 28.1824 107.546 28.1824 110.747C28.1824 113.949 27.0161 114.994 25.269 113.986C23.5218 112.978 22.3555 110.586 22.3555 107.383ZM26.3939 109.718C26.3939 107.14 25.9072 106.279 25.2666 105.912C24.6376 105.549 24.1371 105.836 24.1371 108.414C24.1371 110.979 24.6376 111.934 25.2666 112.296C25.9095 112.666 26.3939 112.28 26.3939 109.718Z" fill="#FFBABA"/>
<path d="M29.5566 114.523L31.3291 115.545V110.106L29.8 109.224V107.875C30.6862 108.194 31.251 108.253 31.8296 108.187L33.214 108.988V116.633L34.743 117.517V119.28L29.5589 116.287L29.5566 114.523Z" fill="#FFBABA"/>
<path d="M35.9121 115.212C35.9121 112.012 37.0784 111.041 38.8256 112.048C40.5705 113.056 41.7391 115.375 41.7391 118.576C41.7391 121.778 40.5728 122.823 38.8256 121.815C37.0807 120.807 35.9121 118.415 35.9121 115.212ZM39.9529 117.547C39.9529 114.969 39.4661 114.108 38.8256 113.74C38.1965 113.378 37.696 113.665 37.696 116.243C37.696 118.808 38.1965 119.763 38.8256 120.125C39.4661 120.495 39.9529 120.109 39.9529 117.547Z" fill="#FFBABA"/>
<path d="M43.1172 122.352L44.8873 123.374V117.935L43.3583 117.053V115.703C44.2445 116.023 44.8093 116.082 45.3878 116.016L46.7722 116.817V124.462L48.3013 125.346V127.109L43.1172 124.116V122.352Z" fill="#FFBABA"/>
<path d="M49.8965 126.267L51.6666 127.288V121.85L50.1376 120.968V119.618C51.0215 119.937 51.5863 119.997 52.1671 119.93L53.5515 120.731V128.377L55.0806 129.261V131.024L49.8965 128.03V126.267Z" fill="#FFBABA"/>
</g>
<path d="M100.717 41.6956L95.0741 44.9512L91.0839 51.8641V151.923L87.6171 157.923L82.7199 160.746L79.1269 158.671L78.4863 159.771L82.3503 162L87.989 158.744L91.9815 151.834V51.7745L95.446 45.7754L100.345 42.9469L103.939 45.0223L104.574 43.9249L100.717 41.6956Z" fill="#C2C2C2"/>
<path d="M95.0749 44.9512L22.8555 3.25788L28.5011 0L100.718 41.6956L95.0749 44.9512Z" fill="#F0F0F0"/>
<path d="M82.7229 160.746L10.5059 119.053L15.403 116.227L87.6201 157.923L82.7229 160.746Z" fill="#F0F0F0"/>
<path d="M78.4882 159.771L6.27344 118.077L6.9094 116.98L79.1288 158.671L78.4882 159.771Z" fill="#E0E0E0"/>
<path d="M22.8516 3.262L18.8613 10.1731L91.0761 51.8675L95.0663 44.9564L22.8516 3.262Z" fill="#F0F0F0"/>
<path d="M18.8602 110.22L15.3945 116.222L87.6113 157.918L91.0769 151.915L18.8602 110.22Z" fill="#F0F0F0"/>
<path d="M91.0862 151.923L18.8691 110.226V10.1685L91.0862 51.8641V151.923Z" fill="#F0F0F0"/>
<path d="M87.8425 147.371L22.1113 109.422V26.8894L87.8425 64.8381V147.371Z" fill="#782D2D"/>
<path d="M24.8984 41.73L26.9372 42.9078V36.6469L25.1785 35.6322V34.0802C26.1979 34.4475 26.8499 34.5141 27.5157 34.4383L29.1091 35.3589V44.1614L30.8677 45.1761V47.208L24.8984 43.7619V41.73Z" fill="#FFBABA"/>
<path d="M32.2148 42.5267C32.2148 38.8418 33.5579 37.7237 35.5691 38.8854C37.578 40.0449 38.9211 42.715 38.9211 46.3999C38.9211 50.0848 37.578 51.2878 35.5691 50.1284C33.5579 48.9666 32.2148 46.2139 32.2148 42.5267ZM36.8663 45.2129C36.8663 42.2443 36.3038 41.2548 35.5668 40.8301C34.8436 40.4122 34.2651 40.7451 34.2651 43.7137C34.2651 46.6639 34.8413 47.7659 35.5668 48.1838C36.3038 48.6085 36.8663 48.1654 36.8663 45.2129Z" fill="#FFBABA"/>
<path d="M40.5078 50.7437L42.5466 51.9215V45.6606L40.7879 44.6458V43.0938C41.8073 43.4611 42.457 43.5277 43.1228 43.452L44.7162 44.3726V53.175L46.4771 54.1898V56.2217L40.5078 52.7755V50.7437Z" fill="#FFBABA"/>
<path d="M47.8262 51.5403C47.8262 47.8555 49.1693 46.7374 51.1805 47.8991C53.1894 49.0585 54.5325 51.7286 54.5325 55.4135C54.5325 59.1007 53.1894 60.3015 51.1805 59.142C49.1693 57.9803 47.8262 55.2252 47.8262 51.5403ZM52.4776 54.2265C52.4776 51.258 51.9174 50.2684 51.1805 49.8437C50.4573 49.4258 49.8787 49.7587 49.8787 52.7273C49.8787 55.6775 50.455 56.7796 51.1805 57.1974C51.9174 57.6222 52.4776 57.179 52.4776 54.2265Z" fill="#FFBABA"/>
<path d="M56.1195 59.7573L58.1582 60.9351V54.6743L56.3973 53.6595V52.1074C57.4167 52.4748 58.0687 52.5414 58.7345 52.4656L60.3278 53.3863V62.1887L62.0865 63.2035V65.2353L56.1172 61.7892L56.1195 59.7573Z" fill="#FFBABA"/>
<path d="M63.9261 64.2642L65.9649 65.442V59.1811L64.2039 58.1663V56.6143C65.2233 56.9816 65.8753 57.0482 66.5411 56.9724L68.1345 57.8931V66.6955L69.8931 67.7103V69.7421L63.9238 66.296L63.9261 64.2642Z" fill="#FFBABA"/>
<path d="M71.7328 68.771L73.7715 69.9488V63.6879L72.0106 62.6731V61.1211C73.0299 61.4884 73.682 61.555 74.3478 61.4792L75.9411 62.3999V71.2023L77.6998 72.2171V74.249L71.7305 70.8028V68.771H71.7328Z" fill="#FFBABA"/>
<path d="M79.0527 69.5677C79.0527 65.8828 80.3958 64.7647 82.4047 65.9264C84.4136 67.0858 85.759 69.7559 85.759 73.4408C85.759 77.1257 84.4159 78.3287 82.4047 77.1693C80.3958 76.0076 79.0527 73.2526 79.0527 69.5677ZM83.7042 72.2515C83.7042 69.283 83.1417 68.2934 82.4047 67.8687C81.6815 67.4508 81.1052 67.7837 81.1052 70.7523C81.1052 73.7025 81.6815 74.8046 82.4047 75.2224C83.1417 75.6495 83.7042 75.2063 83.7042 72.2515Z" fill="#FFBABA"/>
<path d="M24.8984 62.2162L26.9372 63.394V57.1308L25.1785 56.116V54.564C26.1979 54.9291 26.8499 54.998 27.5157 54.9222L29.1091 55.8405V64.6453L30.8677 65.66V67.6896L24.8984 64.2435V62.2162Z" fill="#FFBABA"/>
<path d="M32.2148 63.0129C32.2148 59.328 33.5579 58.2099 35.5691 59.3693C37.578 60.5288 38.9211 63.1989 38.9211 66.8838C38.9211 70.5687 37.578 71.7717 35.5691 70.6123C33.5602 69.4529 32.2148 66.6978 32.2148 63.0129ZM36.8663 65.6991C36.8663 62.7305 36.3038 61.741 35.5668 61.314C34.8436 60.8961 34.2651 61.2267 34.2651 64.1953C34.2651 67.1478 34.8413 68.2475 35.5668 68.6654C36.3038 69.0947 36.8663 68.6493 36.8663 65.6991Z" fill="#FFBABA"/>
<path d="M40.5078 71.2299L42.5466 72.4077V66.1445L40.7879 65.1297V63.5777C41.8073 63.9427 42.457 64.0116 43.1228 63.9358L44.7162 64.8542V73.6589L46.4771 74.6737V76.7033L40.5078 73.2571V71.2299Z" fill="#FFBABA"/>
<path d="M47.8262 72.0266C47.8262 68.3417 49.1693 67.2236 51.1805 68.383C53.1894 69.5424 54.5325 72.2125 54.5325 75.8974C54.5325 79.5823 53.1894 80.7853 51.1805 79.6236C49.1693 78.4642 47.8262 75.7115 47.8262 72.0266ZM52.4776 74.7127C52.4776 71.7442 51.9174 70.7546 51.1805 70.3276C50.4573 69.9097 49.8787 70.2404 49.8787 73.2089C49.8787 76.1614 50.455 77.2612 51.1805 77.679C51.9174 78.106 52.4776 77.663 52.4776 74.7127Z" fill="#FFBABA"/>
<path d="M56.1195 80.2435L58.1582 81.4213V75.1581L56.3973 74.1433V72.5913C57.4167 72.9564 58.0687 73.0252 58.7345 72.9495L60.3278 73.8679V82.6726L62.0865 83.6873V85.7169L56.1172 82.2708L56.1195 80.2435Z" fill="#FFBABA"/>
<path d="M63.4395 81.0402C63.4395 77.3553 64.7826 76.2372 66.7915 77.3966C68.8004 78.556 70.1457 81.2262 70.1457 84.9111C70.1457 88.596 68.8026 89.799 66.7915 88.6396C64.7826 87.4779 63.4395 84.7251 63.4395 81.0402ZM68.0909 83.7241C68.0909 80.7555 67.5307 79.766 66.7915 79.339C66.0682 78.9211 65.492 79.2517 65.492 82.2203C65.492 85.1728 66.0682 86.2725 66.7915 86.6904C67.5307 87.1197 68.0909 86.6766 68.0909 83.7241Z" fill="#FFBABA"/>
<path d="M71.7328 89.2572L73.7715 90.435V84.1741L72.0106 83.1593V81.6073C73.0299 81.9723 73.682 82.0412 74.3478 81.9654L75.9411 82.8838V91.6885L77.6998 92.7033V94.7329L71.7305 91.2867V89.2572H71.7328Z" fill="#FFBABA"/>
<path d="M79.0527 90.0516C79.0527 86.3667 80.3958 85.2485 82.4047 86.408C84.4136 87.5674 85.759 90.2375 85.759 93.9224C85.759 97.6073 84.4159 98.8103 82.4047 97.6509C80.3958 96.4915 79.0527 93.7364 79.0527 90.0516ZM83.7042 92.7377C83.7042 89.7692 83.1417 88.7796 82.4047 88.3526C81.6815 87.9347 81.1052 88.2654 81.1052 91.2339C81.1052 94.1864 81.6815 95.2862 82.4047 95.704C83.1417 96.1334 83.7042 95.6902 83.7042 92.7377Z" fill="#FFBABA"/>
<path d="M24.8984 82.7001L26.9372 83.8779V77.617L25.1785 76.6022V75.0502C26.1979 75.4176 26.8499 75.4841 27.5157 75.4084L29.1091 76.329V85.1314L30.8677 86.1462V88.1781L24.8984 84.732V82.7001Z" fill="#FFBABA"/>
<path d="M32.7051 87.2069L34.7438 88.3847V82.1238L32.9852 81.109V79.557C34.0045 79.9244 34.6543 79.9909 35.3224 79.9152L36.9157 80.8358V89.6383L38.6744 90.653V92.6849L32.7051 89.2388V87.2069Z" fill="#FFBABA"/>
<path d="M40.0234 88.0036C40.0234 84.3187 41.3665 83.2006 43.3754 84.3624C45.3843 85.5218 46.7274 88.1919 46.7274 91.8768C46.7274 95.5617 45.3843 96.7647 43.3754 95.6053C41.3665 94.4436 40.0234 91.6885 40.0234 88.0036ZM44.6749 90.6898C44.6749 87.7212 44.1124 86.7317 43.3754 86.307C42.6522 85.8891 42.0737 86.222 42.0737 89.1906C42.0737 92.1408 42.6499 93.2428 43.3754 93.6607C44.1124 94.0854 44.6749 93.6423 44.6749 90.6898Z" fill="#FFBABA"/>
<path d="M47.8262 92.5104C47.8262 88.8255 49.1693 87.7074 51.1805 88.8692C53.1894 90.0286 54.5325 92.6987 54.5325 96.3836C54.5325 100.068 53.1894 101.272 51.1805 100.112C49.1693 98.9504 47.8262 96.1953 47.8262 92.5104ZM52.4776 95.1966C52.4776 92.228 51.9174 91.2385 51.1805 90.8138C50.4573 90.3959 49.8787 90.7288 49.8787 93.6974C49.8787 96.6476 50.455 97.7497 51.1805 98.1675C51.9174 98.5922 52.4776 98.1491 52.4776 95.1966Z" fill="#FFBABA"/>
<path d="M56.1195 100.727L58.1582 101.905V95.6443L56.3973 94.6295V93.0775C57.4167 93.4448 58.0687 93.5114 58.7345 93.4357L60.3278 94.3563V103.159L62.0865 104.174V106.205L56.1172 102.759L56.1195 100.727Z" fill="#FFBABA"/>
<path d="M63.9261 105.234L65.9649 106.412V100.151L64.2039 99.1386V97.5844C65.2233 97.9517 65.8753 98.0183 66.5411 97.9425L68.1345 98.8631V107.666L69.8931 108.68V110.712L63.9238 107.266L63.9261 105.234Z" fill="#FFBABA"/>
<path d="M71.2461 106.029C71.2461 102.346 72.5892 101.226 74.5981 102.385C76.607 103.547 77.9524 106.215 77.9524 109.899C77.9524 113.584 76.6093 114.787 74.5981 113.628C72.5892 112.471 71.2461 109.716 71.2461 106.029ZM75.8976 108.715C75.8976 105.746 75.3374 104.757 74.5981 104.332C73.8749 103.914 73.2986 104.247 73.2986 107.216C73.2986 110.166 73.8749 111.268 74.5981 111.686C75.3374 112.113 75.8976 111.667 75.8976 108.715Z" fill="#FFBABA"/>
<path d="M79.5391 114.246L81.5778 115.423V109.16L79.8192 108.148V106.593C80.8385 106.961 81.4906 107.027 82.1564 106.952L83.7497 107.872V116.675L85.5084 117.689V119.721L79.5391 116.275V114.246Z" fill="#FFBABA"/>
<path d="M24.8984 103.186L26.9372 104.364V98.1032L25.1785 97.0884V95.5364C26.1979 95.9037 26.8499 95.9703 27.5157 95.8946L29.1091 96.8152V105.618L30.8677 106.632V108.664L24.8984 105.216V103.186Z" fill="#FFBABA"/>
<path d="M32.2148 103.983C32.2148 100.298 33.5579 99.18 35.5691 100.339C37.578 101.501 38.9211 104.171 38.9211 107.854C38.9211 111.536 37.578 112.742 35.5691 111.582C33.5579 110.421 32.2148 107.668 32.2148 103.983ZM36.8663 106.669C36.8663 103.701 36.3038 102.711 35.5668 102.286C34.8436 101.866 34.2651 102.199 34.2651 105.168C34.2651 108.12 34.8413 109.222 35.5668 109.638C36.3038 110.062 36.8663 109.619 36.8663 106.669Z" fill="#FFBABA"/>
<path d="M40.5078 112.2L42.5466 113.378V107.115L40.7879 106.1V104.548C41.8073 104.915 42.457 104.982 43.1228 104.906L44.7162 105.824V114.629L46.4771 115.644V117.676L40.5078 114.227V112.2Z" fill="#FFBABA"/>
<path d="M47.8262 112.997C47.8262 109.312 49.1693 108.194 51.1805 109.353C53.1894 110.515 54.5325 113.185 54.5325 116.867C54.5325 120.55 53.1894 121.755 51.1805 120.596C49.1693 119.434 47.8262 116.682 47.8262 112.997ZM52.4776 115.681C52.4776 112.712 51.9174 111.722 51.1805 111.298C50.4573 110.878 49.8787 111.21 49.8787 114.179C49.8787 117.132 50.455 118.234 51.1805 118.649C51.9174 119.076 52.4776 118.633 52.4776 115.681Z" fill="#FFBABA"/>
<path d="M56.1195 121.214L58.1582 122.391V116.128L56.3973 115.113V113.561C57.4167 113.929 58.0687 113.995 58.7345 113.92L60.3278 114.838V123.643L62.0865 124.657V126.689L56.1172 123.241L56.1195 121.214Z" fill="#FFBABA"/>
<path d="M63.4395 122.008C63.4395 118.323 64.7826 117.205 66.7915 118.364C68.8004 119.526 70.1457 122.196 70.1457 125.879C70.1457 129.564 68.8026 130.767 66.7915 129.607C64.7826 128.448 63.4395 125.695 63.4395 122.008ZM68.0909 124.694C68.0909 121.726 67.5307 120.736 66.7915 120.311C66.0682 119.891 65.492 120.224 65.492 123.193C65.492 126.145 66.0682 127.247 66.7915 127.663C67.5307 128.09 68.0909 127.644 68.0909 124.694Z" fill="#FFBABA"/>
<path d="M71.7328 130.225L73.7715 131.403V125.142L72.0106 124.127V122.575C73.0299 122.942 73.682 123.009 74.3478 122.933L75.9411 123.852V132.656L77.6998 133.671V135.703L71.7305 132.255V130.225H71.7328Z" fill="#FFBABA"/>
<path d="M79.5391 134.732L81.5778 135.91V129.649L79.8192 128.634V127.082C80.8385 127.449 81.4906 127.516 82.1564 127.44L83.7497 128.358V137.163L85.5084 138.178V140.21L79.5391 136.761V134.732Z" fill="#FFBABA"/>
</svg>
