<svg width="192" height="127" viewBox="0 0 192 127" fill="none" xmlns="http://www.w3.org/2000/svg">
<path d="M176.139 126.985C179.296 126.985 182.453 126.203 185.277 124.625L184.205 122.713C179.108 125.552 172.823 125.494 167.783 122.554L120.009 94.7061L118.908 96.6031L166.683 124.451C169.593 126.145 172.866 127 176.139 127V126.985Z" fill="#150035"/>
<path d="M188.779 122.655C190.705 120.99 193.544 116.588 190.503 111.823L188.649 113.011C191.444 117.384 187.505 120.86 187.346 121.004L188.779 122.67V122.655Z" fill="#150035"/>
<path d="M119.444 46.2076V36.6788L117.083 37.1277C114.39 31.813 109.422 26.7879 102.153 22.6028C90.249 15.7241 75.9558 4.11 60.3593 4.32722C45.7186 4.52996 29.7456 16.1441 18.5659 22.6028C11.2962 26.8024 6.3146 31.8275 3.62105 37.1422L1.26057 36.6788V46.7289H1.24609C1.24609 55.4612 7.0097 64.1935 18.5514 70.855C41.6348 84.1779 79.0549 84.1779 102.138 70.855C113.912 64.0632 119.661 55.0992 119.429 46.1931L119.444 46.2076ZM91.3786 64.628C82.8201 69.5661 70.8873 63.2088 59.6642 63.2088C48.4411 63.2088 37.8986 69.5806 29.3401 64.628C12.2085 54.7371 12.2085 38.7062 29.3401 28.8153C46.4716 18.9245 74.247 18.9245 91.3786 28.8153C108.51 38.7062 108.51 54.7371 91.3786 64.628Z" fill="#150035"/>
<path d="M18.0158 71.8107C6.50301 65.1637 0.160156 56.2576 0.160156 46.7288L0.189103 35.3464L3.05644 35.9112C5.99618 30.5386 11.1516 25.6294 18.0303 21.647C19.9708 20.5319 22.0416 19.2575 24.2428 17.9107C34.8142 11.4375 47.9634 3.40034 60.3595 3.22656C60.5043 3.22656 60.6636 3.22656 60.8084 3.22656C73.3928 3.22656 84.9635 10.5542 95.2018 17.0274C97.8375 18.6927 100.314 20.2567 102.718 21.647C109.596 25.6149 114.752 30.5241 117.692 35.8967L120.559 35.3464V46.4247C120.704 56.0693 114.375 65.0768 102.718 71.8107C91.0457 78.5445 75.7098 81.9187 60.374 81.9187C45.0381 81.9187 29.7023 78.5445 18.0303 71.8107H18.0158ZM118.343 38.011L116.475 38.373L116.099 37.6345C113.434 32.3632 108.423 27.4975 101.603 23.5585C99.1553 22.1538 96.6645 20.5608 94.0144 18.8955C84.0366 12.5816 72.7411 5.42775 60.7939 5.42775C60.6491 5.42775 60.5188 5.42775 60.374 5.42775C48.5861 5.58704 35.7121 13.4649 25.3723 19.7933C23.1567 21.1401 21.0569 22.429 19.1164 23.5585C12.2956 27.4975 7.27053 32.3777 4.60595 37.649L4.22944 38.3875L2.36132 38.0255V46.7433C2.36132 55.4466 8.29871 63.6721 19.1019 69.9136C41.8522 83.0483 78.8523 83.0483 101.588 69.9136C112.623 63.5418 118.56 55.1425 118.329 46.2364V45.3531V38.011H118.343ZM71.9591 66.0036C67.8898 65.1782 63.6902 64.3093 59.6644 64.3093C55.6386 64.3093 51.5403 65.1782 47.6448 66.0326C40.8964 67.4952 34.5246 68.8854 28.79 65.5836C20.1445 60.602 15.3946 53.8971 15.3946 46.7288C15.3946 39.5605 20.159 32.8556 28.79 27.874C46.1966 17.8239 74.5223 17.8239 91.929 27.874C100.574 32.8556 105.324 39.5605 105.324 46.7288C105.324 53.8971 100.574 60.602 91.929 65.5836C89.3368 67.0897 86.4985 67.6255 83.5153 67.6255C79.866 67.6255 75.985 66.8291 71.9736 66.0036H71.9591ZM72.4081 63.8459C79.2868 65.2506 85.7889 66.5829 90.8285 63.6721C98.7643 59.096 103.123 53.0717 103.123 46.7143C103.123 40.357 98.7498 34.3327 90.8285 29.7566C74.03 20.054 46.689 20.054 29.8906 29.7566C21.9547 34.3327 17.5958 40.357 17.5958 46.7143C17.5958 53.0717 21.9547 59.096 29.8906 63.6721C34.8722 66.5539 40.5778 65.3085 47.1814 63.8748C51.1927 63.006 55.3489 62.0936 59.6644 62.0936C63.9799 62.0936 68.2374 62.977 72.4081 63.8314V63.8459Z" fill="#150035"/>
<path d="M102.153 11.9609C79.07 -1.36198 41.6499 -1.36198 18.5665 11.9609C-4.51695 25.2839 -4.51695 46.8902 18.5665 60.2131C41.6499 73.536 79.07 73.536 102.153 60.2131C125.237 46.8902 125.237 25.2839 102.153 11.9465V11.9609ZM91.3792 54.0006C74.2476 63.8914 46.4722 63.8914 29.3407 54.0006C12.2091 44.1097 12.2091 28.0788 29.3407 18.188C46.4722 8.29714 74.2476 8.29714 91.3792 18.188C108.511 28.0788 108.511 44.1097 91.3792 54.0006Z" fill="#DE5656"/>
<path d="M18.0158 61.166C6.50301 54.519 0.160156 45.6129 0.160156 36.0841C0.160156 26.5554 6.50301 17.6493 18.0158 11.0023C41.3598 -2.47993 79.3591 -2.47993 102.703 11.0023C114.216 17.6493 120.559 26.5554 120.559 36.0841C120.559 45.6129 114.216 54.519 102.703 61.166C91.0312 67.9143 75.6953 71.274 60.3595 71.274C45.0237 71.274 29.6878 67.8999 18.0158 61.166ZM19.1164 12.9138C8.3132 19.1553 2.34685 27.3953 2.34685 36.0986C2.34685 44.802 8.29872 53.0419 19.1164 59.2834C41.8667 72.4181 78.8668 72.4181 101.603 59.2834C112.406 53.0419 118.372 44.8164 118.372 36.0986C118.372 27.3808 112.42 19.1553 101.603 12.9138C90.2347 6.35375 75.2899 3.06646 60.3595 3.06646C45.4291 3.06646 30.4843 6.35375 19.1164 12.9138ZM28.79 54.9535C20.1445 49.9718 15.3946 43.2669 15.3946 36.0986C15.3946 28.9303 20.159 22.2254 28.79 17.2438C46.1966 7.19367 74.5223 7.19367 91.929 17.2438C100.574 22.2254 105.324 28.9303 105.324 36.0986C105.324 43.2669 100.574 49.9718 91.929 54.9535C83.2257 59.9785 71.7998 62.4838 60.3595 62.4838C48.9192 62.4838 37.4933 59.9785 28.79 54.9535ZM90.8285 19.1409C74.03 9.4383 46.7035 9.4383 29.8906 19.1409C21.9547 23.717 17.5958 29.7413 17.5958 36.0986C17.5958 42.456 21.9547 48.4803 29.8906 53.0564C46.689 62.759 74.03 62.759 90.8285 53.0564C98.7643 48.4803 103.123 42.456 103.123 36.0986C103.123 29.7413 98.7498 23.717 90.8285 19.1409Z" fill="#150035"/>
<path d="M85.2822 67.3496H83.5879V77.8197H85.2822V67.3496Z" fill="#DE5656"/>
<path d="M12.7451 56.0557H11.0508V66.5258H12.7451V56.0557Z" fill="#DE5656"/>
<path d="M27.1396 63.9043H25.4453V74.3744H27.1396V63.9043Z" fill="#DE5656"/>
<path d="M85.2822 14.9561H83.5879V25.4261H85.2822V14.9561Z" fill="#DE5656"/>
<path d="M39.1592 14.0732H37.4648V24.5433H39.1592V14.0732Z" fill="#DE5656"/>
<path d="M182.944 104.148C183.132 103.815 183.016 103.395 182.698 103.207L105.164 58.8502C105.164 58.8502 104.73 58.7488 104.455 58.9081L97.6917 62.8036C97.0545 63.1656 96.5332 64.1648 96.5332 65.0048V72.3903C96.5332 72.7523 96.6491 73.0275 96.8084 73.1868L174.328 117.529C174.661 117.717 175.066 117.601 175.254 117.283L182.929 104.119L182.944 104.148Z" fill="#DE5656"/>
<path d="M173.792 118.527L96.2727 74.1851L96.0265 73.9823C95.7658 73.7072 95.4473 73.2148 95.4473 72.4183V65.0328C95.4473 63.8019 96.1858 62.4406 97.1561 61.8759L103.919 57.9803C104.513 57.6328 105.222 57.7487 105.411 57.7921L105.57 57.8355L183.248 102.279C183.668 102.525 183.958 102.902 184.088 103.365C184.204 103.829 184.146 104.306 183.9 104.726L176.225 117.89C175.892 118.455 175.298 118.773 174.675 118.773C174.371 118.773 174.067 118.701 173.792 118.542V118.527ZM104.86 59.9498L98.2422 63.7729C97.996 63.9177 97.6339 64.497 97.6339 65.0328L97.605 72.4183L174.516 116.413L181.771 103.973L104.846 59.9643L104.86 59.9498Z" fill="#150035"/>
<path d="M182.57 114.096L175.807 117.991C175.17 118.353 174.648 117.962 174.648 117.122V109.737C174.648 108.882 175.17 107.898 175.807 107.535L182.57 103.64C183.207 103.278 183.728 103.669 183.728 104.509V111.894C183.728 112.749 183.207 113.734 182.57 114.096Z" fill="#DE5656"/>
<path d="M174.516 119.005C173.908 118.657 173.561 117.977 173.561 117.122V109.737C173.561 108.491 174.299 107.144 175.269 106.58L182.032 102.684C182.655 102.322 183.335 102.293 183.886 102.626C184.494 102.974 184.842 103.654 184.842 104.509V111.894C184.842 113.14 184.103 114.487 183.133 115.051L176.37 118.961C176.037 119.15 175.689 119.251 175.356 119.251C175.067 119.251 174.777 119.179 174.516 119.019V119.005ZM182.018 113.14C182.264 112.995 182.626 112.416 182.626 111.88V104.856L176.355 108.462C176.109 108.607 175.747 109.186 175.747 109.708V116.731L182.018 113.125V113.14Z" fill="#150035"/>
<path d="M96.5332 67.4082V72.4188L174.661 117.123V112.214L96.5332 67.4082Z" fill="#150035"/>
<path d="M103.79 65.5368L102.949 67.0078L143.258 90.0459L144.098 88.5749L103.79 65.5368Z" fill="#150035"/>
<path d="M151.759 93.209L150.918 94.6797L164.268 102.316L165.109 100.845L151.759 93.209Z" fill="#150035"/>
<path d="M61.2423 56.0102C82.8631 56.0102 93.2752 44.3527 93.4056 44.2079L92.1312 43.0928C92.0009 43.2376 78.8662 57.8638 51.2646 53.5049L51.0039 55.1703C54.6677 55.7495 58.0853 55.9957 61.2567 55.9957L61.2423 56.0102Z" fill="white"/>
<path d="M78.3169 49.2189C89.4531 44.6862 92.0163 36.678 92.1322 36.3449L90.5102 35.8525C90.4813 35.9249 88.0339 43.4408 77.6797 47.6549L78.3169 49.2189Z" fill="white"/>
<path d="M97.3877 70.2168H95.6934V73.3738H97.3877V70.2168Z" fill="#DE5656"/>
<path d="M53.1633 36.6655C51.5559 37.9688 52.8882 39.8225 53.1344 40.1411C53.1344 40.1556 53.1199 40.17 53.0909 40.17C52.5406 40.0252 49.3403 39.2577 47.0667 40.17C47.0377 40.17 46.9943 40.17 47.0232 40.1411C48.6307 38.8233 47.2694 36.9696 47.0232 36.651C47.0232 36.6366 47.0377 36.6221 47.0667 36.6221C47.6314 36.7669 50.8463 37.5489 53.1054 36.6221C53.1344 36.6221 53.1778 36.6221 53.1489 36.651L53.1633 36.6655Z" fill="#150035"/>
<path d="M44.4426 31.6263C42.8352 32.9296 44.1675 34.7832 44.4137 35.1018C44.4137 35.1163 44.3992 35.1308 44.3702 35.1308C43.82 34.986 40.6195 34.2184 38.346 35.1308C38.317 35.1308 38.2736 35.1308 38.3025 35.1018C39.91 33.7985 38.5487 31.9304 38.3025 31.6118C38.3025 31.5973 38.317 31.5828 38.346 31.5828C38.9107 31.7276 42.1256 32.5096 44.3992 31.5828C44.4282 31.5683 44.4716 31.5828 44.4426 31.6118V31.6263Z" fill="#150035"/>
<path d="M61.9087 31.6108C60.3012 32.9142 61.6335 34.7678 61.8797 35.0864C61.8797 35.1008 61.8652 35.1153 61.8362 35.1153C61.2859 34.9705 58.0855 34.203 55.8264 35.1153C55.7975 35.1153 55.754 35.1153 55.783 35.0864C57.3904 33.783 56.0292 31.9149 55.783 31.5963C55.783 31.5818 55.7975 31.5674 55.8264 31.5674C56.3912 31.7122 59.6061 32.4942 61.8652 31.5674C61.8942 31.5674 61.9376 31.5674 61.9087 31.5963V31.6108Z" fill="#150035"/>
<path d="M53.1907 26.5718C51.5833 27.8751 52.9156 29.7287 53.1617 30.0473C53.1617 30.0618 53.1473 30.0763 53.1183 30.0763C52.568 29.9315 49.3676 29.164 47.094 30.0763C47.065 30.0763 47.0216 30.0763 47.0506 30.0473C48.658 28.744 47.2968 26.8904 47.0506 26.5573C47.0506 26.5428 47.065 26.5283 47.094 26.5283C47.6588 26.6731 50.8737 27.4551 53.1473 26.5283C53.1762 26.5283 53.2197 26.5283 53.1907 26.5573V26.5718Z" fill="#150035"/>
</svg>
