<svg width="322" height="304" viewBox="0 0 322 304" fill="none" xmlns="http://www.w3.org/2000/svg">
<path d="M162.949 60.0354C162.949 60.0354 295.392 69.5066 295.392 140.653C295.392 211.799 216.081 233.313 162.949 233.313C109.816 233.313 24.3613 206.685 24.3613 139.122C24.3613 71.558 162.949 60.0354 162.949 60.0354Z" fill="#DE5656"/>
<path fill-rule="evenodd" clip-rule="evenodd" d="M62.0123 224.21C116.859 255.879 205.519 256.042 260.029 224.567C314.539 193.092 314.264 141.909 259.407 110.239C204.559 78.5701 115.9 78.4068 61.3897 109.882C6.87948 141.357 7.15504 192.54 62.0123 224.21ZM162.96 111.525C146.64 120.945 143.946 134.652 148.549 146.909C152.938 158.585 175.738 162.28 195.864 165.086C221.297 168.638 242.761 179.895 250.068 195.48C252.854 201.41 253.303 207.39 251.752 213.085C251.303 214.749 254.967 215.953 256.855 214.677C282.758 197.123 293.689 172.71 282.401 148.655C278.533 140.408 276.573 140.521 272.399 140.765C266.102 141.123 254.773 141.776 224.267 114.312C214.837 105.82 198.354 99.6557 182.535 103.799C175.411 105.667 168.594 108.27 162.95 111.525H162.96ZM76.0149 193.704C98.3967 197.205 120.319 191.775 136.373 183.416C151.672 175.445 145.691 162.218 139.731 150.767C132.199 136.295 138.241 119.996 157.918 108.637C165.409 104.31 174.146 101.136 183.474 99.0841C186.199 98.482 186.148 96.053 183.27 95.7468C143.844 91.4807 101.693 98.084 71.3202 115.628C60.91 121.639 62.0735 122.568 64.5332 124.528C68.2584 127.498 74.9535 132.846 49.1833 161.678C41.2227 170.587 40.2939 181.885 54.5109 187.744C60.9202 190.387 68.2686 192.5 76.0047 193.714L76.0149 193.704ZM197.262 171.445C217.919 175.333 237.147 183.61 243.21 196.531C245.302 201.001 245.843 205.716 245.118 210.228C243.516 220.24 226.115 225.363 208.713 225.781C152.437 227.159 147.814 233.15 145.232 236.477C143.528 238.682 142.721 239.723 128.443 237.488C86.7822 230.976 55.5621 213.167 42.0391 191.336C41.0492 189.744 44.6723 188.519 46.9482 189.581C54.7252 193.234 63.9208 196.031 74.188 197.644C101.173 201.859 128.678 196.827 146.579 185.907C160.745 177.262 177.554 167.73 197.252 171.434L197.262 171.445Z" fill="#DE5656"/>
<path d="M251.742 213.085L253.589 213.259C255.181 207.411 254.722 201.287 251.864 195.204C244.363 179.222 222.359 167.679 196.282 164.045L195.854 165.097M251.742 213.095L253.589 213.269C253.507 213.575 253.783 213.881 254.314 214.055C254.559 214.136 254.793 214.157 254.957 214.147C255.1 214.147 255.253 214.106 255.426 213.983C280.941 196.684 291.719 172.639 280.594 148.941C279.635 146.899 278.808 145.409 278.053 144.317C277.287 143.215 276.655 142.603 276.114 142.256C275.634 141.949 275.256 141.858 274.858 141.817C274.328 141.766 273.705 141.786 272.593 141.858H272.562C270.97 141.949 268.837 142.072 266.112 141.715C263.377 141.357 260.182 140.531 256.294 138.847C248.588 135.499 237.984 128.661 222.695 114.914C218.123 110.801 211.877 107.29 204.968 105.31C198.099 103.34 190.618 102.891 183.311 104.81C176.36 106.637 169.737 109.168 164.276 112.321M164.276 112.321L162.95 111.556M164.276 112.321C148.559 121.395 145.844 134.673 150.366 146.716C152.407 152.145 158.704 155.758 167.175 158.401C175.697 161.055 186.199 162.657 196.282 164.066L195.854 165.117M182.79 98.1044C173.217 100.197 164.256 103.463 156.581 107.892C136.404 119.547 130.209 136.265 137.924 151.094C140.915 156.83 143.824 162.872 144.14 168.444C144.456 173.986 142.211 178.926 135.097 182.631C119.319 190.846 98.0292 196.051 76.4741 192.683C68.9727 191.51 61.8285 189.448 55.5824 186.876C49.0098 184.172 45.9072 180.212 45.3866 175.803C44.8661 171.373 46.9788 166.515 50.8367 162.188C63.7472 147.746 68.6359 139.061 69.7586 133.55C70.3199 130.774 69.9423 128.773 69.0952 127.222C68.2583 125.681 66.9928 124.681 66.0538 123.926L66.0334 123.905C65.3802 123.385 65.0128 123.079 64.8291 122.793C64.6862 122.578 64.6352 122.333 64.8597 121.946C65.1148 121.507 65.7068 120.884 66.9723 119.955C68.2277 119.037 70.0443 117.894 72.6265 116.404C102.55 99.125 144.079 92.6136 182.923 96.8185C183.178 96.8491 183.311 96.9103 183.392 96.9716C183.494 97.0532 183.576 97.1757 183.586 97.339C183.596 97.686 183.29 97.9717 182.78 98.084L182.79 98.1044ZM43.8047 190.989C43.7129 190.846 43.7435 190.754 43.8047 190.673C43.866 190.581 44.019 190.479 44.2538 190.397C44.7641 190.224 45.356 190.234 45.7847 190.428C53.7658 194.173 63.1859 197.041 73.7185 198.695C101.397 203.022 129.596 197.858 147.947 186.652C155.04 182.324 162.633 177.875 170.839 174.966C178.993 172.067 187.536 170.741 196.691 172.465C217.001 176.293 235.565 184.366 241.403 196.807C243.434 201.134 243.955 205.727 243.261 210.125C242.526 214.749 238.147 218.26 231.799 220.699C225.41 223.148 217.062 224.496 208.621 224.71C180.432 225.404 164.93 227.251 156.101 229.415C151.662 230.507 148.845 231.691 146.947 232.875C145.069 234.059 144.191 235.181 143.538 236.028V236.049C143.068 236.641 142.803 236.967 142.456 237.202C142.201 237.375 141.874 237.529 141.17 237.61C140.384 237.702 139.139 237.712 137.118 237.539C135.118 237.365 132.464 237.028 128.923 236.467C87.8844 230.048 57.1235 212.503 43.8047 190.999V190.989ZM60.6956 224.965C116.278 257.053 206.121 257.216 261.356 225.332C316.591 193.439 316.305 141.572 260.723 109.484C205.141 77.3965 115.298 77.2332 60.0629 109.117C4.828 141.01 5.11377 192.877 60.6956 224.965Z" stroke="#150035" stroke-width="3.0618"/>
<path fill-rule="evenodd" clip-rule="evenodd" d="M62.0123 194.244C116.859 225.914 205.519 226.077 260.029 194.602C314.539 163.126 314.264 111.943 259.407 80.274C204.559 48.6048 115.9 48.4415 61.3897 79.9168C6.87948 111.392 7.15504 162.575 62.0123 194.244ZM162.96 81.5599C146.64 90.9801 143.946 104.687 148.549 116.944C152.938 128.62 175.738 132.314 195.864 135.121C221.297 138.673 242.761 149.93 250.068 165.514C252.854 171.444 253.303 177.425 251.752 183.12C251.303 184.783 254.967 185.988 256.855 184.712C282.758 167.158 293.689 142.745 282.401 118.689C278.533 110.443 276.573 110.555 272.399 110.8C266.102 111.157 254.773 111.811 224.267 84.3462C214.837 75.8548 198.354 69.6904 182.535 73.834C175.411 75.7017 168.594 78.3042 162.95 81.5599H162.96ZM76.0149 163.739C98.3967 167.239 120.319 161.81 136.373 153.451C151.672 145.48 145.691 132.253 139.731 120.802C132.199 106.33 138.241 90.0309 157.918 78.6716C165.409 74.3443 174.146 71.1702 183.474 69.1188C186.199 68.5167 186.148 66.0876 183.27 65.7815C143.844 61.5153 101.693 68.1186 71.3202 85.6627C60.91 91.6741 62.0735 92.6028 64.5332 94.5624C68.2584 97.5323 74.9535 102.88 49.1833 131.712C41.2227 140.622 40.2939 151.92 54.5109 157.778C60.9202 160.422 68.2686 162.534 76.0047 163.749L76.0149 163.739ZM197.262 141.479C217.919 145.368 237.147 153.645 243.21 166.566C245.302 171.036 245.843 175.751 245.118 180.262C243.516 190.274 226.115 195.398 208.713 195.816C152.437 197.194 147.814 203.185 145.232 206.512C143.528 208.716 142.721 209.757 128.443 207.522C86.7822 201.011 55.5621 183.201 42.0391 161.371C41.0492 159.779 44.6723 158.554 46.9482 159.615C54.7252 163.269 63.9208 166.066 74.188 167.678C101.173 171.893 128.678 166.862 146.579 155.941C160.745 147.297 177.554 137.764 197.252 141.469L197.262 141.479Z" fill="white"/>
<path d="M251.742 183.12L253.589 183.294C255.181 177.446 254.722 171.322 251.864 165.239C244.363 149.257 222.359 137.714 196.282 134.08L195.854 135.132M251.742 183.13L253.589 183.304C253.507 183.61 253.783 183.916 254.314 184.09C254.559 184.171 254.793 184.192 254.957 184.182C255.1 184.182 255.253 184.141 255.426 184.018C280.941 166.719 291.719 142.674 280.594 118.975C279.635 116.934 278.808 115.444 278.053 114.352C277.287 113.25 276.655 112.638 276.114 112.29C275.634 111.984 275.256 111.892 274.858 111.852C274.328 111.801 273.705 111.821 272.593 111.892H272.562C270.97 111.984 268.837 112.107 266.112 111.75C263.377 111.392 260.182 110.566 256.294 108.882C248.588 105.534 237.984 98.6961 222.695 84.9486C218.123 80.8356 211.877 77.3247 204.968 75.3448C198.099 73.375 190.618 72.926 183.311 74.8447C176.36 76.6716 169.737 79.2026 164.276 82.3563M164.276 82.3563L162.95 81.5908M164.276 82.3563C148.559 91.4294 145.844 104.707 150.366 116.751C152.407 122.18 158.704 125.793 167.175 128.436C175.697 131.09 186.199 132.692 196.282 134.101L195.854 135.152M182.79 68.1393C173.217 70.2316 164.256 73.4975 156.581 77.9269C136.404 89.5821 130.209 106.3 137.924 121.129C140.915 126.865 143.824 132.907 144.14 138.479C144.456 144.021 142.211 148.961 135.097 152.665C119.319 160.881 98.0292 166.086 76.4741 162.718C68.9727 161.545 61.8285 159.483 55.5824 156.911C49.0098 154.207 45.9072 150.247 45.3866 145.838C44.8661 141.408 46.9788 136.55 50.8367 132.223C63.7472 117.781 68.6359 109.096 69.7586 103.585C70.3199 100.809 69.9423 98.8084 69.0952 97.2571C68.2583 95.716 66.9928 94.7158 66.0538 93.9605L66.0334 93.9401C65.3802 93.4196 65.0128 93.1134 64.8291 92.8277C64.6862 92.6133 64.6352 92.3684 64.8597 91.9806C65.1148 91.5417 65.7068 90.9191 66.9723 89.9904C68.2277 89.0718 70.0443 87.9288 72.6265 86.4387C102.55 69.1599 144.079 62.6485 182.923 66.8534C183.178 66.884 183.311 66.9452 183.392 67.0065C183.494 67.0881 183.576 67.2106 183.586 67.3739C183.596 67.7209 183.29 68.0067 182.78 68.1189L182.79 68.1393ZM43.8047 161.024C43.7129 160.881 43.7435 160.789 43.8047 160.708C43.866 160.616 44.019 160.514 44.2538 160.432C44.7641 160.259 45.356 160.269 45.7847 160.463C53.7658 164.208 63.1859 167.076 73.7185 168.73C101.397 173.057 129.596 167.893 147.947 156.687C155.04 152.359 162.633 147.909 170.839 145.001C178.993 142.102 187.536 140.775 196.691 142.5C217.001 146.328 235.565 154.4 241.403 166.842C243.434 171.169 243.955 175.762 243.261 180.16C242.526 184.784 238.147 188.295 231.799 190.734C225.41 193.183 217.062 194.53 208.621 194.745C180.432 195.439 164.93 197.286 156.101 199.45C151.662 200.542 148.845 201.726 146.947 202.91C145.069 204.093 144.191 205.216 143.538 206.063V206.084C143.068 206.676 142.803 207.002 142.456 207.237C142.201 207.41 141.874 207.564 141.17 207.645C140.384 207.737 139.139 207.747 137.118 207.574C135.118 207.4 132.464 207.063 128.923 206.502C87.8844 200.083 57.1235 182.538 43.8047 161.034V161.024ZM60.6956 195C116.278 227.088 206.121 227.251 261.356 195.367C316.591 163.474 316.305 111.607 260.723 79.519C205.141 47.4314 115.298 47.2681 60.0629 79.1516C4.828 111.045 5.11377 162.912 60.6956 195Z" stroke="#150035" stroke-width="3.0618"/>
<path d="M17.3193 137.438V164.034C15.819 186.692 45.3246 248.06 162.959 248.06C222.786 248.06 304.343 222.372 304.343 165.086C304.343 136.08 303.669 135.131 303.669 135.131C303.669 135.131 292.555 219.177 162.959 219.177C36.0575 213.513 22.1773 159.83 17.3193 137.438Z" fill="#150035"/>
<path d="M158.897 218.749H151.15V249.143H158.897V218.749Z" fill="#DE5656"/>
<path d="M279.93 212.259L272.174 218.097V188.356L279.93 181.712V212.259Z" fill="#DE5656"/>
<path d="M191.311 247.336L183.564 248.061V217.81L191.311 216.943V247.336Z" fill="#DE5656"/>
<path d="M44.0703 160.126C128.096 192.254 156.336 137.693 185.73 141.398C220.307 141.398 247.639 164.065 242.628 180.844C241.383 184.324 234.8 188.304 234.8 188.304C234.8 188.304 226.584 174.026 189.7 171.393C156.989 168.76 149.774 199.888 100.214 200.031C50.2143 181.007 44.0703 160.126 44.0703 160.126Z" fill="#150035"/>
<path d="M133.26 108.341V137.653C133.26 137.653 133.413 144.634 137.934 151.074C140.128 148.491 151.508 143.511 138.577 121.517C136.689 118.567 133.26 108.341 133.26 108.341Z" fill="#150035"/>
<path d="M70.1453 101.268C70.1453 101.268 71.4925 125.16 71.4925 131.212C69.0941 142.929 55.6426 157.34 55.6426 157.34C55.6426 157.34 39.5988 150.9 46.9267 137.265C52.1113 125.956 62.2255 122.221 70.1453 101.268Z" fill="#150035"/>
<path d="M64.8691 91.9601C71.4928 84.6832 122.492 56.4126 181.942 68.2924C166.49 70.9867 141.894 84.8159 137.087 97.6142C120.124 97.0325 78.7901 110.943 68.2269 120.251C69.3598 112.77 73.2176 96.5222 64.8691 91.9499V91.9601Z" fill="#150035"/>
<path d="M118.073 99.3191L110.326 101.268V71.5485L118.073 69.7727V99.3191Z" fill="#DE5656"/>
<path d="M153.896 121.701C143.251 108.739 146.201 85.5818 179.952 75.7636C209.529 65.5984 230.941 93.1853 235.891 96.4614C240.841 99.7375 257.426 113.587 274.858 111.832C280.267 114.679 291.075 133.713 281.818 153.686C277.154 142.756 278.042 142.123 274.735 142.266C271.429 142.409 256.201 147.165 218.378 111.536C191.261 92.8995 159.867 113.465 153.876 121.711L153.896 121.701Z" fill="#150035"/>
</svg>
