<svg width="253" height="240" viewBox="0 0 253 240" fill="none" xmlns="http://www.w3.org/2000/svg">
<path d="M219.683 172.25L219.795 152.651H212.883C208.039 145.547 200.694 138.891 190.75 133.133C152.018 110.776 89.2297 110.776 50.4979 133.133C40.5544 138.875 33.209 145.547 28.3655 152.651H21.4531L21.5654 172.218C21.5173 173.228 21.5975 176.66 21.5975 176.66L21.806 177.51C23.0409 191.143 32.4712 203.716 50.514 214.125C89.2458 236.482 152.035 236.482 190.766 214.125C208.793 203.716 218.32 190.293 219.571 176.66C219.571 176.66 219.747 173.244 219.699 172.25H219.683Z" fill="#DE5656"/>
<path d="M120.616 232.986C94.8265 232.986 69.0374 227.325 49.4069 215.986C31.2519 205.497 20.9715 192.266 19.6404 177.703L19.4319 176.693C19.4319 176.693 19.3677 173.164 19.3998 172.106L19.2715 150.487H27.2263C32.4066 143.237 39.8643 136.774 49.4069 131.257C88.6679 108.595 152.547 108.595 191.824 131.257C201.367 136.774 208.825 143.237 214.005 150.487H221.96L221.831 172.202C221.863 173.325 221.703 176.404 221.687 176.757C220.324 191.736 209.723 205.641 191.808 215.986C172.178 227.309 146.389 232.986 120.6 232.986H120.616ZM23.7461 176.388L23.8904 177.013C25.1574 190.614 34.4434 202.369 51.572 212.249C89.6462 234.237 151.601 234.237 189.675 212.249C206.323 202.626 216.17 189.924 217.405 176.452C217.405 176.452 217.581 173.261 217.533 172.33V172.234L217.629 154.817H211.744L211.102 153.871C206.275 146.782 199.057 140.431 189.675 135.026C151.601 113.038 89.6462 113.038 51.572 135.026C42.1898 140.447 34.9727 146.782 30.1452 153.871L29.5037 154.817H23.6178L23.714 172.218C23.6819 173.132 23.714 175.618 23.73 176.388H23.7461Z" fill="#150035"/>
<path d="M212.884 152.66C208.04 145.555 200.695 138.899 190.751 133.141C174.537 123.775 154.104 118.403 132.982 116.879V230.396C154.088 228.872 174.537 223.483 190.751 214.117C208.778 203.709 218.305 190.285 219.556 176.653C219.556 176.653 219.732 173.236 219.684 172.242L219.796 152.644H212.884V152.66Z" fill="#150035"/>
<path d="M190.75 112.18C229.482 134.537 229.482 170.799 190.75 193.156C152.019 215.513 89.2298 215.513 50.498 193.156C11.7663 170.799 11.7663 134.537 50.498 112.18C89.2298 89.8229 152.019 89.8229 190.75 112.18Z" fill="white"/>
<path d="M120.617 212.008C94.828 212.008 69.0389 206.347 49.4084 195.008C29.9864 183.781 19.2891 168.754 19.2891 152.652C19.2891 136.55 29.9864 121.506 49.4084 110.295C88.6694 87.6336 152.549 87.6336 191.826 110.295C211.248 121.506 221.945 136.55 221.945 152.652C221.945 168.754 211.248 183.797 191.826 195.008C172.195 206.331 146.406 212.008 120.617 212.008ZM120.617 97.5451C95.6139 97.5451 70.6107 103.03 51.5736 114.032C33.5308 124.441 23.6033 138.153 23.6033 152.652C23.6033 167.15 33.5308 180.863 51.5736 191.271C89.6478 213.259 151.603 213.259 189.677 191.271C207.72 180.863 217.647 167.15 217.647 152.652C217.647 138.153 207.72 124.441 189.677 114.032C170.64 103.03 145.636 97.5451 120.633 97.5451H120.617Z" fill="#150035"/>
<path d="M43.3449 187.422H40.2656V208.448H43.3449V187.422Z" fill="#150035"/>
<path d="M114.988 209.923H111.908V230.949H114.988V209.923Z" fill="#150035"/>
<path d="M193.622 193.244H192.082V211.656H193.622V193.244Z" fill="#DE5656"/>
<path d="M205.891 182.851H204.352V201.262H205.891V182.851Z" fill="#DE5656"/>
<path d="M120.616 18.678C52.775 18.6139 45.5098 145.17 45.5098 145.17C45.5098 156.268 52.8391 167.366 67.5139 175.834C96.8474 192.77 144.4 192.77 173.734 175.834C188.408 167.366 195.738 156.268 195.738 145.17C195.738 145.17 188.472 18.6139 120.632 18.678H120.616Z" fill="#DE5656"/>
<path d="M120.617 190.63C100.986 190.63 81.3718 186.315 66.4244 177.687C51.5411 169.091 43.3457 157.543 43.3457 145.146C43.6504 139.773 51.5411 16.5051 120.569 16.5051H120.665C189.692 16.5051 197.583 139.773 197.872 145.034C197.872 157.543 189.676 169.091 174.793 177.687C159.862 186.315 140.231 190.63 120.601 190.63H120.617ZM120.569 20.8354C55.5506 20.8354 47.7241 144.055 47.6599 145.29C47.6599 155.956 55.0855 166.172 68.5895 173.966C97.2815 190.533 143.968 190.533 172.66 173.966C186.148 166.172 193.574 155.956 193.574 145.162C193.509 144.039 185.651 20.8354 120.665 20.8354H120.569Z" fill="#150035"/>
<path d="M148.377 27.4189C170.59 64.2101 181.432 132.051 181.432 132.051C181.432 143.149 174.102 154.247 159.428 162.716C130.094 179.652 80.8734 170.51 48.7653 155.354C47.1134 154.584 50.1767 160.855 48.7653 159.877C52.422 165.282 58.0032 170.366 65.5732 174.728C94.9067 191.664 142.459 191.664 171.793 174.728C186.452 166.26 193.797 155.162 193.797 144.063C193.797 144.063 188.761 57.1053 148.377 27.4189Z" fill="#150035"/>
<path d="M139.012 41.1633C164.801 68.5242 168.217 127.368 168.217 127.368C168.217 136.14 162.427 144.897 150.848 151.585C128.202 164.656 91.8278 164.913 68.5566 152.435C71.3312 155.594 74.9558 158.562 79.5266 161.208C102.702 174.583 140.263 174.583 163.437 161.208C175.017 154.52 180.807 145.747 180.807 136.99C180.807 136.99 176.364 59.9438 139.012 41.1794V41.1633Z" fill="white"/>
<path d="M129.373 20.7797C134.201 23.5703 134.201 28.0931 129.373 30.8837C124.546 33.6743 116.72 33.6743 111.892 30.8837C107.065 28.0931 107.065 23.5703 111.892 20.7797C116.72 17.9891 124.546 17.9891 129.373 20.7797Z" fill="white"/>
<path d="M120.616 35.1168C117.088 35.1168 113.543 34.3149 110.801 32.7271C107.77 30.979 106.102 28.5252 106.102 25.8148C106.102 23.1044 107.77 20.6505 110.801 18.9024C116.318 15.7269 124.93 15.7269 130.447 18.9024C133.478 20.6505 135.146 23.1044 135.146 25.8148C135.146 28.5252 133.478 30.979 130.447 32.7271C127.689 34.3149 124.16 35.1168 120.632 35.1168H120.616ZM120.616 20.843C117.825 20.843 115.035 21.4364 112.95 22.6393C111.33 23.5695 110.4 24.7242 110.4 25.8148C110.4 26.9054 111.33 28.0601 112.95 28.9903C117.104 31.396 124.128 31.396 128.282 28.9903C129.902 28.0601 130.832 26.9054 130.832 25.8148C130.832 24.7242 129.902 23.5695 128.282 22.6393C126.213 21.4364 123.407 20.843 120.616 20.843Z" fill="#150035"/>
<path d="M120.23 50.5297C112.276 46.5683 103.615 45.3975 95.147 46.5362C73.9287 70.0319 65.0116 110.448 61.4512 134.617C64.8993 138.37 68.973 141.545 73.7363 143.903C96.8631 155.418 126.036 143.855 138.867 118.066C151.713 92.2766 143.357 62.0289 120.23 50.5136V50.5297Z" fill="white"/>
<path d="M156.14 166.019L154.472 162.042C156.91 161.015 159.235 159.876 161.385 158.642C171.857 152.595 177.631 144.672 177.631 136.349C177.583 135.499 171.408 38.8697 120.664 38.8697H120.6C106.519 38.8697 94.5703 46.2793 85.0758 60.922L81.4512 58.5804C91.7796 42.6387 104.963 34.5715 120.584 34.5715H120.664C175.466 34.5715 181.705 132.099 181.929 136.252C181.929 146.308 175.402 155.546 163.534 162.394C161.224 163.726 158.738 164.944 156.124 166.035L156.14 166.019Z" fill="#150035"/>
<path d="M120.697 172.651C104.739 172.651 89.198 168.994 77.6987 162.37C65.8306 155.522 59.2871 146.268 59.2871 136.341C59.3192 135.876 61.4041 101.506 73.6892 73.2151L77.6506 74.9312C65.6702 102.533 63.6174 136.132 63.6013 136.469C63.6013 144.664 69.375 152.587 79.8639 158.633C93.015 166.219 111.86 169.668 130.303 167.887L130.72 172.17C127.384 172.49 124.033 172.651 120.697 172.651Z" fill="#150035"/>
<path d="M128.941 159.637L128.443 156.589C142.06 154.376 151.747 149.324 157.472 145.491C162.829 141.883 165.587 135.323 164.481 128.763L167.512 128.25C168.827 135.997 165.555 143.775 159.188 148.057C153.206 152.067 143.102 157.343 128.941 159.653V159.637Z" fill="#150035"/>
<path d="M55.036 60.5376L52.1973 59.3507C53.0473 57.3139 73.4155 9.26407 113.366 7.37158L113.511 10.4509C75.5165 12.2632 55.2284 60.0564 55.036 60.5376Z" fill="#150035"/>
<path d="M43.314 95.7409L40.2988 95.0833C42.3838 85.4445 47.131 72.598 47.3395 72.0527L50.2263 73.1273C50.1782 73.2556 45.3508 86.3105 43.314 95.7409Z" fill="#150035"/>
<path d="M233.828 179.339H230.749V150.31C230.573 140.591 223.74 129.429 223.66 129.317L226.274 127.697C226.579 128.178 233.636 139.693 233.812 150.294V179.355L233.828 179.339Z" fill="#150035"/>
<path d="M188.224 36.665C187.406 42.6552 181.801 48.5491 180.847 49.5515C180.799 49.5996 180.799 49.6958 180.847 49.6958C181.849 49.5515 187.414 48.9741 188.224 54.0101C188.224 54.1063 188.32 54.0101 188.32 53.962C189.138 47.9718 194.792 42.0778 195.794 41.0754C195.842 41.0273 195.842 40.9311 195.794 40.9311C194.792 41.0754 189.13 41.7009 188.32 36.6169C188.32 36.5206 188.224 36.6169 188.224 36.665Z" fill="#DE5656"/>
<path d="M209.74 24.2519C208.922 30.2421 203.317 36.136 202.362 37.1384C202.314 37.1865 202.314 37.2828 202.362 37.2828C203.365 37.1384 208.978 36.561 209.74 41.597C209.74 41.6932 209.836 41.597 209.836 41.5489C210.654 35.5587 216.307 29.6647 217.31 28.6623C217.358 28.6142 217.358 28.518 217.31 28.518C216.307 28.6623 210.646 29.2878 209.836 24.2038C209.836 24.1557 209.74 24.2038 209.74 24.2519Z" fill="#DE5656"/>
<path d="M231.247 11.8456C230.429 17.8358 224.824 23.7298 223.821 24.7322C223.773 24.7803 223.773 24.8765 223.821 24.8765C224.824 24.7322 230.437 24.1548 231.247 29.1907C231.247 29.287 231.343 29.1907 231.343 29.1426C232.161 23.1524 237.814 17.2585 238.817 16.2561C238.865 16.208 238.865 16.1117 238.817 16.1117C237.814 16.2561 232.153 16.8816 231.343 11.7975C231.343 11.7494 231.247 11.7975 231.247 11.8456Z" fill="#DE5656"/>
<path d="M144.319 104.57H144.351L125.731 63.04H125.707C124.993 60.8909 122.996 59.3352 120.615 59.3352C118.233 59.3352 116.236 60.8909 115.523 63.04H115.499L96.8784 104.57H96.9105C95.1703 108.115 94.168 112.084 94.168 116.302C94.168 130.969 106.012 142.861 120.623 142.861C135.233 142.861 147.077 130.969 147.077 116.302C147.077 112.084 146.075 108.115 144.335 104.57H144.319Z" fill="#DE5656"/>
<path d="M135.763 86.4791H135.771L128.69 70.6897H128.682C128.41 69.8717 127.648 69.2783 126.742 69.2783C125.835 69.2783 125.074 69.8717 124.801 70.6897H124.793L117.712 86.4791H117.72C117.055 87.8263 116.678 89.3338 116.678 90.9376C116.678 96.5108 121.184 101.034 126.734 101.034C132.291 101.034 136.789 96.5108 136.789 90.9376C136.789 89.3338 136.404 87.8263 135.747 86.4791H135.763Z" fill="white"/>
<path d="M147.84 116.294C147.84 131.37 135.619 143.639 120.608 143.639C105.588 143.639 93.375 131.37 93.375 116.294C93.375 112.284 94.2411 108.395 95.9571 104.739L96.1656 104.249L114.89 62.4864C115.82 60.1208 118.074 58.5491 120.616 58.5491C123.158 58.5491 125.475 60.1609 126.373 62.5826L126.437 62.7189L145.555 105.348H145.547C147.078 108.828 147.848 112.509 147.848 116.294H147.84ZM123.984 64.9001C122.925 65.1567 122.075 65.9506 121.738 66.9851H121.722L110.84 91.2666H110.856C109.838 93.3355 109.253 95.661 109.253 98.1228C109.253 106.695 116.173 113.648 124.721 113.648C132.267 113.648 138.554 108.219 139.917 101.042C136.806 93.0067 127.688 73.8654 123.992 64.9081L123.984 64.9001Z" fill="#150035"/>
<path d="M107.448 134.064C104.689 131.995 102.556 129.333 101.185 127.336C100.159 125.845 100.68 123.792 102.284 122.958C103.623 122.26 105.267 122.677 106.125 123.928C107.215 125.532 108.915 127.673 111.024 129.245C112.179 130.103 112.588 131.643 111.979 132.95C111.169 134.682 108.972 135.211 107.44 134.064H107.448Z" fill="#DE5656"/>
</svg>
