<svg width="222" height="274" viewBox="0 0 222 274" fill="none" xmlns="http://www.w3.org/2000/svg">
<path d="M94.2596 16.9887C94.2056 16.8717 94.2596 16.7367 94.3586 16.6737L104.988 10.1757C105.465 9.74367 106.275 9.82467 107.112 10.5267L111.063 13.8387C111.261 14.0007 130.44 29.8587 151.617 25.9707C152.049 25.8897 152.499 25.8717 152.976 25.9167C155.073 26.1147 157.431 27.4917 159.528 29.7237C160.023 30.2457 160.491 30.8217 160.932 31.4247C181.281 59.0727 200.667 65.7687 201.477 66.0387L205.401 67.3077C206.733 67.7397 207.984 69.6477 207.966 71.2047L207.894 75.8037C206.958 135.24 190.407 158.379 176.664 167.334L163.794 175.2L162.921 172.653C160.347 173.022 158.646 172.896 158.304 172.869H158.268C156.981 172.752 155.532 171.915 154.245 170.538L154.209 170.502C152.436 168.612 114.456 127.275 106.167 43.5657L100.434 31.0287L94.2686 16.9887H94.2596Z" fill="#150035"/>
<path d="M162.327 173.625C160.041 173.886 158.529 173.778 158.187 173.751C156.675 173.616 155.046 172.689 153.561 171.114C151.932 169.386 113.655 127.824 105.294 43.8089L99.6147 31.3889L93.4497 17.3489C93.2247 16.8359 93.4137 16.2239 93.8997 15.9269L104.466 9.46493C105.312 8.78093 106.563 8.92493 107.679 9.86093L111.621 13.1729C112.404 13.8119 130.962 28.8779 151.455 25.1159C151.977 25.0169 152.517 24.9989 153.057 25.0529C155.379 25.2779 157.908 26.7269 160.167 29.1299C160.662 29.6609 161.157 30.2549 161.634 30.9119C181.812 58.3349 200.946 64.9409 201.747 65.2109L205.671 66.4799C207.363 67.0289 208.875 69.2879 208.839 71.2319L208.767 75.8309C207.822 135.654 191.046 159.018 177.114 168.099L163.308 176.541L162.318 173.634L162.327 173.625ZM151.779 26.8439C130.503 30.7499 111.315 15.1889 110.496 14.5229L106.545 11.2109C106.059 10.7969 105.672 10.7429 105.573 10.8419L95.2857 17.1509L101.226 30.6779L106.959 43.2149L107.031 43.4939C115.302 127.014 153.228 168.198 154.875 169.953C156.009 171.159 157.269 171.906 158.376 172.005C158.673 172.032 160.293 172.149 162.795 171.798L163.515 171.699L164.262 173.895L176.169 166.614C189.723 157.785 206.067 134.853 206.994 75.8039L207.066 71.2049C207.084 70.0349 206.085 68.4689 205.113 68.1539L201.18 66.8849C200.352 66.6059 180.705 59.8199 160.203 31.9559C159.762 31.3619 159.312 30.8129 158.862 30.3359C156.927 28.2749 154.749 26.9879 152.877 26.8079C152.742 26.7989 152.616 26.7899 152.481 26.7899C152.238 26.7899 151.995 26.8079 151.761 26.8529L151.779 26.8439Z" fill="#150035"/>
<path d="M104.988 10.1757C105.465 9.74367 106.275 9.82467 107.112 10.5267L111.063 13.8387C111.261 14.0007 130.44 29.8587 151.617 25.9707C152.049 25.8897 152.499 25.8717 152.976 25.9167C155.073 26.1147 157.431 27.4917 159.528 29.7237C160.023 30.2457 160.491 30.8217 160.932 31.4247C181.281 59.0727 200.667 65.7687 201.477 66.0387L205.401 67.3077C206.103 67.5327 206.778 68.1717 207.255 68.9547L175.323 87.0717L108.039 58.7397C107.31 53.8527 106.671 48.7947 106.158 43.5837L100.425 31.0467L94.2596 17.0067C94.2056 16.8897 94.2596 16.7547 94.3586 16.6917L104.988 10.1937V10.1757Z" fill="white"/>
<path d="M107.247 59.3521L107.175 58.8661C106.437 53.9161 105.807 48.8581 105.303 43.8091L99.6244 31.3891L93.4594 17.3401C93.2344 16.8271 93.4234 16.2151 93.9094 15.9181L104.475 9.45614C105.321 8.77214 106.572 8.91614 107.688 9.85214L111.63 13.1641C112.413 13.8031 130.971 28.8691 151.464 25.1071C151.986 25.0081 152.526 24.9901 153.066 25.0441C155.388 25.2691 157.917 26.7181 160.176 29.1211C160.671 29.6521 161.166 30.2461 161.643 30.9031C181.821 58.3261 200.955 64.9321 201.756 65.2021L205.68 66.4711C206.544 66.7501 207.39 67.4882 208.011 68.4872L208.497 69.2612L175.395 88.0442L107.256 59.3521H107.247ZM205.14 68.1451L201.207 66.8761C200.379 66.5971 180.732 59.8111 160.23 31.9471C159.789 31.3531 159.339 30.8041 158.889 30.3271C156.954 28.2661 154.776 26.9791 152.904 26.7991C152.526 26.7631 152.148 26.7811 151.788 26.8441C130.512 30.7501 111.324 15.1891 110.505 14.5231L106.554 11.2111C106.068 10.7971 105.681 10.7431 105.582 10.8421L95.2954 17.1511L101.235 30.6781L106.968 43.2151L107.04 43.4941C107.526 48.3901 108.129 53.3131 108.84 58.1191L175.269 86.0911L205.941 68.6941C205.671 68.4241 205.392 68.2351 205.131 68.1541L205.14 68.1451Z" fill="#150035"/>
<path d="M143.291 177.19C141.329 175.102 95.2763 124.972 93.7013 22.8583L93.6293 18.1423C93.6023 16.5493 94.8713 16.0903 96.2033 17.2153L100.154 20.5273C100.352 20.6893 119.531 36.5474 140.708 32.6594C141.14 32.5784 141.59 32.5603 142.067 32.6054C144.164 32.8034 146.522 34.1804 148.619 36.4034C149.114 36.9254 149.582 37.5014 150.023 38.1044C170.372 65.7524 189.758 72.4484 190.568 72.7184L194.492 73.9874C195.824 74.4194 197.075 76.3274 197.057 77.8844L196.985 82.4834C195.401 182.77 149.357 179.728 147.395 179.557H147.359C146.072 179.44 144.623 178.594 143.336 177.226L143.3 177.19H143.291ZM184.169 81.9164C175.547 77.1194 161.552 67.2914 146.963 48.5714C145.937 47.2484 144.65 46.5014 143.615 46.6184C128.792 48.3104 114.986 42.1274 106.472 37.0513C105.365 36.3944 104.483 36.9524 104.537 38.2664C107.624 107.224 131.726 147.481 142.391 162.079C144.146 164.482 147.368 167.587 149.123 167.191C159.716 164.797 183.026 150.397 186.131 85.3814C186.194 84.1304 185.285 82.5284 184.169 81.9074V81.9164Z" fill="#DE5656"/>
<path d="M147.27 180.43C145.758 180.295 144.129 179.368 142.68 177.829L142.644 177.793C140.673 175.696 94.3948 125.323 92.8108 22.8761L92.7388 18.1601C92.7208 17.0981 93.1528 16.2701 93.9268 15.9011C94.7728 15.4961 95.7988 15.7301 96.7618 16.5401L100.704 19.8521C101.487 20.4911 120.054 35.5571 140.538 31.7951C141.06 31.6961 141.6 31.6781 142.14 31.7321C144.471 31.9571 146.991 33.4061 149.25 35.8091C149.754 36.3401 150.249 36.9431 150.726 37.5911C170.904 65.0141 190.038 71.6201 190.839 71.8901L194.763 73.1591C196.455 73.7081 197.967 75.9671 197.94 77.9111L197.868 82.5101C197.013 136.582 183.018 160.351 171.426 170.764C161.625 179.566 152.148 180.484 148.611 180.484C147.936 180.484 147.486 180.448 147.279 180.43H147.27ZM140.853 33.5231C119.577 37.4291 100.389 21.8681 99.5788 21.2021L95.6278 17.8901C95.1598 17.4941 94.7998 17.4401 94.6828 17.4941C94.5928 17.5391 94.4938 17.7551 94.5028 18.1331L94.5748 22.8491C96.1498 124.63 141.978 174.517 143.931 176.596L143.967 176.632C145.101 177.838 146.361 178.585 147.468 178.684C147.936 178.729 158.952 179.602 170.238 169.45C181.569 159.271 195.249 135.916 196.095 82.4741L196.167 77.8751C196.185 76.7051 195.177 75.1391 194.214 74.8241L190.281 73.5551C189.453 73.2761 169.806 66.4901 149.304 38.6261C148.872 38.0321 148.413 37.4921 147.963 37.0061C146.028 34.9451 143.85 33.6581 141.969 33.4781C141.834 33.4691 141.708 33.4601 141.573 33.4601C141.33 33.4601 141.087 33.4781 140.853 33.5231ZM141.681 162.601C131.277 148.372 106.761 107.773 103.656 38.3111C103.611 37.3391 103.971 36.5561 104.628 36.1601C105.276 35.7731 106.113 35.8271 106.914 36.3041C115.662 41.5151 129.099 47.4011 143.508 45.7451C144.84 45.5921 146.415 46.4471 147.648 48.0311C161.94 66.3731 175.62 76.1651 184.584 81.1421C185.988 81.9251 187.077 83.8421 186.996 85.4261C183.684 154.933 157.314 166.237 149.304 168.046C149.142 168.082 148.971 168.1 148.8 168.1C146.361 168.1 143.13 164.581 141.672 162.592L141.681 162.601ZM185.241 85.3451C185.286 84.4361 184.548 83.1401 183.729 82.6811C174.621 77.6231 160.734 67.6871 146.262 49.1111C145.317 47.9051 144.327 47.4101 143.706 47.4911C128.838 49.1921 114.996 43.1621 106.014 37.8071C105.717 37.6271 105.555 37.6451 105.528 37.6631C105.483 37.6901 105.393 37.8701 105.411 38.2211C108.498 107.206 132.798 147.454 143.103 161.548C145.065 164.239 147.9 166.552 148.926 166.327C156.621 164.581 181.992 153.601 185.25 85.3361L185.241 85.3451Z" fill="#150035"/>
<path d="M106.473 37.0588C114.987 42.1348 128.793 48.3178 143.616 46.6258C144.651 46.5088 145.938 47.2558 146.964 48.5788C161.553 67.2988 175.548 77.1268 184.17 81.9238C185.286 82.5448 186.195 84.1468 186.132 85.3978C183.036 150.414 159.717 164.805 149.124 167.208C147.378 167.604 144.147 164.499 142.392 162.096C131.727 147.507 107.616 107.241 104.538 38.2828C104.475 36.9688 105.366 36.4108 106.473 37.0678V37.0588Z" fill="#DE5656"/>
<path d="M106.471 37.0602C108.028 37.9872 109.774 38.9592 111.664 39.9042C115.291 107.053 138.853 146.392 149.365 160.774C150.589 162.457 152.533 164.455 154.189 165.382C152.317 166.282 150.589 166.858 149.122 167.191C147.376 167.587 144.145 164.482 142.39 162.079C131.725 147.49 107.614 107.224 104.536 38.2662C104.473 36.9522 105.364 36.3942 106.471 37.0512V37.0602Z" fill="#150035"/>
<path d="M141.689 162.601C131.294 148.372 106.769 107.782 103.664 38.3111C103.619 37.3391 103.979 36.5561 104.636 36.1601C105.284 35.7731 106.121 35.8271 106.922 36.3041C108.587 37.2941 110.315 38.2481 112.061 39.1211L112.52 39.3461L112.547 39.8591C116.183 107.152 140.006 146.473 150.077 160.252C151.157 161.728 153.038 163.726 154.622 164.617L156.098 165.445L154.568 166.174C152.777 167.038 151.013 167.668 149.312 168.046C149.15 168.082 148.979 168.1 148.808 168.1C146.369 168.1 143.138 164.581 141.68 162.592L141.689 162.601ZM148.655 161.296C138.512 147.427 114.572 107.917 110.819 40.4621C109.19 39.6341 107.579 38.7431 106.022 37.8161C105.725 37.6361 105.563 37.6541 105.536 37.6721C105.491 37.6991 105.401 37.8791 105.419 38.2301C108.506 107.224 132.806 147.463 143.111 161.557C145.073 164.248 147.908 166.561 148.934 166.336C150.059 166.084 151.22 165.706 152.399 165.22C150.986 164.104 149.582 162.565 148.655 161.287V161.296Z" fill="#DE5656"/>
<path d="M206.821 68.1723L195.666 74.5012L196.537 76.0355L207.691 69.7065L206.821 68.1723Z" fill="#150035"/>
<path d="M200.035 65.0114L188.881 71.3403L189.751 72.8746L200.906 66.5456L200.035 65.0114Z" fill="#150035"/>
<path d="M154.206 25.6002L143.051 31.9272L143.921 33.4616L155.077 27.1346L154.206 25.6002Z" fill="#150035"/>
<path d="M163.33 34.7868L152.174 41.1138L153.044 42.6482L164.2 36.3211L163.33 34.7868Z" fill="#150035"/>
<path d="M110.467 12.6772L98.6777 19.688L99.5794 21.2041L111.368 14.1933L110.467 12.6772Z" fill="#150035"/>
<path d="M197.58 94.416L206.31 89.16L206.391 87.063L197.598 92.364L197.58 94.416Z" fill="#DE5656"/>
<path d="M183.01 155.004L191.74 149.739L193.297 146.724L184.513 152.025L183.01 155.004Z" fill="#DE5656"/>
<path d="M130.728 33.4407L142.167 27.1227L141.312 25.5747L127.326 33.3147L130.728 33.4407Z" fill="#150035"/>
<path d="M147.686 157.576L142.033 161.08L142.962 162.579L148.616 159.075L147.686 157.576Z" fill="#DE5656"/>
<path d="M111.801 45.9853L104.904 50.3015L105.84 51.7968L112.737 47.4806L111.801 45.9853Z" fill="#DE5656"/>
<path d="M112.799 55.8122L105.902 60.1284L106.838 61.6237L113.735 57.3075L112.799 55.8122Z" fill="#DE5656"/>
<path d="M141.689 162.6C131.294 148.371 106.769 107.781 103.664 38.3101C103.619 37.3381 103.979 36.5551 104.636 36.1591C105.284 35.7721 106.121 35.8261 106.922 36.3031C115.67 41.5141 129.107 47.4001 143.516 45.7531C144.848 45.6001 146.423 46.4551 147.656 48.0391C161.948 66.3811 175.637 76.1731 184.592 81.1501C185.996 81.9331 187.085 83.8501 187.004 85.4341C183.692 154.941 157.322 166.245 149.312 168.054C149.15 168.09 148.979 168.108 148.808 168.108C146.369 168.108 143.138 164.589 141.68 162.6H141.689ZM143.714 47.4991C128.846 49.2001 115.004 43.1701 106.022 37.8151C105.725 37.6351 105.563 37.6531 105.536 37.6711C105.491 37.6981 105.401 37.8781 105.419 38.2291C108.506 107.223 132.806 147.462 143.111 161.556C145.073 164.247 147.908 166.56 148.934 166.335C156.629 164.589 182 153.609 185.258 85.3441C185.303 84.4351 184.565 83.1391 183.746 82.6801C174.638 77.6221 160.751 67.6861 146.279 49.1101C145.397 47.9761 144.443 47.4901 143.84 47.4901C143.804 47.4901 143.759 47.4901 143.723 47.4901L143.714 47.4991Z" fill="#150035"/>
<path d="M166.395 99.2849C166.395 97.7279 165.45 95.9189 164.28 95.2349L139.89 81.1499C139.44 80.8889 139.026 80.8439 138.684 80.9609C132.213 81.9689 129.756 86.3519 129.756 86.3519L137.775 100.905V102.246C137.775 107.583 141.024 113.784 145.02 116.097L146.667 117.051L153.858 130.101C158.079 129.534 162.3 126.123 164.109 124.485C164.442 124.251 164.667 123.99 164.667 123.99L165.036 123.603C165.882 122.514 166.386 120.867 166.386 118.779V99.2849H166.395Z" fill="white"/>
<path d="M153.372 131.073L146.01 117.708L144.579 116.88C140.268 114.387 136.884 107.97 136.884 102.255V101.139L128.73 86.3521L128.973 85.9201C129.081 85.7221 131.709 81.1771 138.477 80.0971C138.9 79.9711 139.548 79.9351 140.34 80.3851L164.73 94.4701C166.17 95.2981 167.295 97.4131 167.295 99.2851V118.779C167.295 121.002 166.764 122.856 165.756 124.152L165.333 124.602C165.333 124.602 165.054 124.926 164.631 125.214C162.588 127.068 158.358 130.389 153.993 130.974L153.39 131.055L153.372 131.073ZM130.791 86.3971L138.666 100.68V102.255C138.666 107.304 141.717 113.163 145.47 115.332L147.333 116.412L154.335 129.12C158.178 128.346 162.003 125.196 163.515 123.828C163.83 123.603 163.992 123.423 163.992 123.423L164.397 123C165.099 122.082 165.504 120.606 165.504 118.788V99.2941C165.504 98.0611 164.721 96.5401 163.83 96.0181L139.44 81.9331C139.251 81.8251 139.08 81.7801 138.972 81.8161L138.81 81.8521C133.932 82.6081 131.529 85.3621 130.782 86.4061L130.791 86.3971Z" fill="#150035"/>
<path d="M164.198 124.512C164.531 124.287 164.756 124.017 164.756 124.017L165.125 123.63C165.971 122.541 166.475 120.894 166.475 118.806V99.3119C166.475 98.4389 165.71 96.7649 165.242 95.9819L155.036 102.318C155.036 102.318 151.328 111.201 147.566 118.563L153.938 130.128C158.159 129.561 162.38 126.15 164.189 124.512H164.198Z" fill="#150035"/>
<path d="M136.614 121.101L150.744 129.255C154.749 131.568 157.989 129.111 157.989 123.774V104.28C157.989 102.723 157.044 100.905 155.874 100.23L131.484 86.1446C130.314 85.4696 129.369 86.1896 129.369 87.7466V107.241C129.369 112.578 132.618 118.779 136.614 121.092V121.101Z" fill="white"/>
<path d="M153.624 131.019C152.571 131.019 151.437 130.686 150.294 130.029L136.164 121.875C131.853 119.382 128.469 112.965 128.469 107.25V87.756C128.469 86.613 128.901 85.704 129.648 85.272C130.314 84.894 131.142 84.93 131.925 85.38L156.315 99.465C157.755 100.293 158.88 102.408 158.88 104.28V123.783C158.88 126.915 157.8 129.336 155.928 130.416C155.226 130.821 154.443 131.019 153.624 131.019ZM130.647 86.793C130.647 86.793 130.575 86.793 130.548 86.82C130.413 86.901 130.26 87.225 130.26 87.756V107.25C130.26 112.299 133.311 118.158 137.064 120.327L151.194 128.481C152.67 129.336 154.002 129.471 155.046 128.859C156.351 128.103 157.107 126.249 157.107 123.765V104.262C157.107 103.029 156.324 101.508 155.433 100.986L131.043 86.901C130.89 86.811 130.755 86.766 130.647 86.766V86.793Z" fill="#150035"/>
<path d="M146.218 117.592V107.485H144.454V114.541L143.05 113.731L142.168 115.252L146.218 117.592Z" fill="white"/>
<path d="M144.895 110.49C142.888 109.329 141.312 106.602 141.312 104.289C141.312 102.993 141.799 102.003 142.672 101.49C143.545 100.986 144.652 101.058 145.777 101.706C147.784 102.867 149.358 105.594 149.358 107.907C149.358 109.203 148.873 110.193 148 110.706C147.622 110.922 147.19 111.039 146.74 111.039C146.155 111.039 145.525 110.859 144.895 110.49ZM143.554 103.011C143.248 103.191 143.077 103.65 143.077 104.28C143.077 105.972 144.31 108.114 145.777 108.96C146.326 109.275 146.812 109.356 147.118 109.176C147.424 108.996 147.595 108.537 147.595 107.907C147.595 106.215 146.362 104.073 144.895 103.227C144.535 103.02 144.211 102.912 143.932 102.912C143.788 102.912 143.653 102.939 143.554 103.002V103.011Z" fill="white"/>
<path d="M140.701 104.379C140.701 106.386 142.105 108.816 143.842 109.824C145.579 110.823 146.983 110.013 146.983 108.006C146.983 105.999 145.579 103.569 143.842 102.561C142.105 101.562 140.701 102.372 140.701 104.379Z" fill="#DE5656"/>
<path d="M143.4 110.59C141.393 109.429 139.818 106.702 139.818 104.389C139.818 103.093 140.304 102.103 141.177 101.59C142.05 101.086 143.157 101.158 144.282 101.806C146.289 102.967 147.864 105.694 147.864 108.007C147.864 109.303 147.378 110.293 146.505 110.806C146.127 111.022 145.695 111.139 145.245 111.139C144.66 111.139 144.03 110.95 143.4 110.59ZM142.059 103.111C141.753 103.291 141.582 103.75 141.582 104.38C141.582 106.072 142.815 108.214 144.282 109.06C144.831 109.375 145.317 109.456 145.623 109.276C145.929 109.096 146.1 108.637 146.1 108.007C146.1 106.315 144.867 104.173 143.4 103.327C143.04 103.12 142.716 103.012 142.437 103.012C142.293 103.012 142.158 103.039 142.059 103.102V103.111Z" fill="#150035"/>
<path d="M144.724 117.691V109.798L142.96 108.736V114.64L141.556 113.821L140.674 115.351L144.724 117.691Z" fill="#150035"/>
<path d="M165.581 104.594L158.49 108.905L159.201 110.074L166.291 105.763L165.581 104.594Z" fill="#DE5656"/>
<path d="M165.582 118.955L158.492 123.266L159.203 124.435L166.293 120.124L165.582 118.955Z" fill="#DE5656"/>
<path d="M156.306 96.8195C154.938 96.8195 153.831 95.7125 153.831 94.3445V83.6525C153.831 80.6375 151.698 76.9475 149.088 75.4445L144.57 72.8345C143.715 72.3395 143.076 72.2675 142.815 72.4115C142.563 72.5555 142.302 73.1495 142.302 74.1395V84.8315C142.302 86.1995 141.195 87.3065 139.827 87.3065C138.459 87.3065 137.352 86.1995 137.352 84.8315V74.1395C137.352 71.4125 138.441 69.2255 140.34 68.1275C142.239 67.0295 144.687 67.1825 147.045 68.5415L151.563 71.1515C155.532 73.4465 158.781 79.0625 158.781 83.6435V94.3355C158.781 95.7035 157.674 96.8105 156.306 96.8105V96.8195Z" fill="#150035"/>
<path d="M140.61 76.8214H139.584V73.3384C139.584 71.9344 140.313 70.6654 141.528 69.9634C142.743 69.2524 144.201 69.2434 145.425 69.9364L150.159 72.6184L149.655 73.5094L144.921 70.8274C144.021 70.3144 142.941 70.3234 142.05 70.8454C141.15 71.3674 140.619 72.2944 140.619 73.3294V76.8124L140.61 76.8214Z" fill="#DE5656"/>
<path d="M156.081 84.7059C156.009 80.9529 154.362 78.0729 154.344 78.0459L155.235 77.5239C155.307 77.6499 157.026 80.6469 157.107 84.6789L156.081 84.6969V84.7059Z" fill="#DE5656"/>
<path d="M94.3144 194.847C94.2424 194.793 87.2854 189.924 77.1514 189.915H77.1064C66.9184 189.915 59.9974 194.217 59.9344 194.262L58.5664 192.093C58.8724 191.904 66.1894 187.35 77.1154 187.35H77.1604C88.1494 187.359 95.5024 192.543 95.8084 192.759L94.3144 194.847Z" fill="#150035"/>
<path d="M90.8039 196.638V186.666L91.2989 186.261L98.6609 181.293H99.0659L109.695 180.636L110.253 180.96L114.852 185.019L114.672 186.36L109.92 189.132L109.317 188.898C107.274 188.151 102.27 186.792 97.9949 189.348L100.839 192.498L97.2569 194.55L90.7949 196.647L90.8039 196.638ZM93.3689 187.944V193.101L96.8249 191.85L94.7459 189.546L94.8989 188.367L95.3939 188.025C99.0569 185.1 104.268 184.461 109.695 186.288L111.351 185.316L108.966 183.21L99.5069 183.813L93.3869 187.944H93.3689Z" fill="#0D1754"/>
<path d="M115.634 187.134C113.546 178.26 93.8185 178.26 91.7305 187.134C91.7305 187.134 91.7305 187.143 91.7305 187.152C93.8185 196.026 113.546 196.026 115.634 187.152C115.634 187.152 115.634 187.143 115.634 187.134ZM103.808 191.31C94.3585 190.572 94.3585 183.57 103.808 182.832C113.258 183.57 113.258 190.572 103.808 191.31Z" fill="white"/>
<path d="M103.682 195.009C98.0034 195.009 91.7214 192.651 90.4794 187.368L90.4434 186.927L90.4794 186.765C91.7214 181.482 98.0034 179.124 103.682 179.124C109.352 179.124 115.643 181.491 116.885 186.765L116.921 187.215L116.885 187.359C115.643 192.642 109.361 195 103.682 195V195.009ZM93.0534 187.071C94.0884 190.554 98.5344 192.237 102.827 192.435C97.3914 191.769 95.4294 189.141 95.4294 186.999C95.4294 185.118 96.9504 182.85 101.036 181.878C97.3554 182.409 93.9354 184.074 93.0534 187.071ZM106.697 181.941C110.72 182.94 112.178 185.154 112.178 186.999C112.178 189.105 110.27 191.697 104.987 192.408C109.136 192.111 113.312 190.428 114.302 187.08C113.447 184.182 110.225 182.535 106.688 181.95L106.697 181.941ZM103.709 184.038C100.064 184.344 97.9944 185.793 97.9944 186.999C97.9944 188.205 100.037 189.645 103.826 189.951C107.552 189.654 109.613 188.205 109.613 186.999C109.613 185.793 107.543 184.335 103.709 184.038Z" fill="#150035"/>
<path d="M61.3109 190.383C57.7469 183.822 43.1489 183.129 38.9729 189.312C38.9729 189.312 38.9729 189.313 38.9729 189.322C38.1539 193.741 40.5479 195.729 43.5719 197.016C43.5899 197.025 43.6079 196.998 43.5899 196.98C41.4929 194.532 43.6529 191.31 50.0789 191.085C56.4599 191.904 58.3049 195.315 55.9829 197.565C55.9649 197.583 55.9829 197.611 56.0009 197.602C59.1329 196.612 61.6979 194.857 61.3109 190.393V190.383Z" fill="white"/>
<path d="M55.433 199.131L54.353 197.412L55.073 196.665C55.586 196.161 55.757 195.666 55.595 195.153C55.271 194.163 53.579 192.84 49.916 192.363C46.424 192.498 44.615 193.659 44.201 194.613C43.985 195.099 44.111 195.621 44.561 196.152L45.236 196.935L43.985 198.618L43.022 198.177C41.447 197.511 36.533 195.423 37.712 189.087L37.829 188.736C40.097 185.361 44.921 183.507 50.456 183.786C55.991 184.056 60.581 186.351 62.444 189.771L62.597 190.077V190.392C63.146 196.683 58.061 198.294 56.396 198.825L55.442 199.131H55.433ZM50.024 189.807C54.407 190.356 57.251 192.003 58.025 194.343C58.115 194.622 58.178 194.892 58.205 195.171C59.627 194.163 60.167 192.786 60.05 190.77C58.547 188.286 54.767 186.567 50.321 186.351C45.83 186.126 41.897 187.494 40.16 189.834C39.89 191.859 40.322 193.263 41.591 194.379C41.645 194.109 41.726 193.839 41.843 193.578C42.833 191.328 45.821 189.951 50.024 189.807Z" fill="#0D1754"/>
<path d="M50.6456 199.644C50.3216 199.644 49.9976 199.644 49.6736 199.617C44.0036 199.356 37.8386 196.701 36.8486 191.364L36.7676 190.941L36.9656 190.536C38.3696 185.541 44.7506 183.471 50.4206 183.741C56.0906 184.011 62.2556 186.666 63.2456 191.994L63.2636 192.534L63.1286 192.813C61.8056 197.52 56.0456 199.626 50.6456 199.626V199.644ZM53.2826 186.693C57.2696 187.881 58.6286 190.167 58.5386 192.012C58.4396 194.118 56.4146 196.62 51.1046 197.07C55.2626 196.971 59.5106 195.486 60.6626 192.174C59.9426 189.24 56.7926 187.431 53.2826 186.684V186.693ZM39.4136 191.238C40.1606 194.658 44.5886 196.593 48.9446 196.998C43.5446 196.08 41.7086 193.353 41.8076 191.22C41.8976 189.339 43.5266 187.143 47.6666 186.369C43.9406 186.72 40.4126 188.241 39.4136 191.238ZM50.2226 188.655C46.5776 188.781 44.4356 190.131 44.3816 191.346C44.3276 192.543 46.2896 194.073 50.0426 194.568C53.8136 194.442 55.9286 193.092 55.9826 191.886C56.0366 190.671 54.0386 189.132 50.2226 188.646V188.655Z" fill="#150035"/>
<path d="M56.3881 195.036C56.1991 194.982 37.9291 189.501 41.8981 172.824C43.2121 167.289 47.3341 163.239 53.2021 161.718C60.0331 159.954 67.7641 161.961 72.0211 166.614C76.3321 171.33 80.5981 169.71 85.9981 167.649C88.7251 166.614 91.5511 165.534 94.6201 165.219C99.1831 164.733 103.116 166.542 105.105 170.007C106.779 172.932 108.399 179.475 100.38 190.473L98.3101 188.961C103.548 181.779 105.213 175.335 102.882 171.285C101.406 168.72 98.427 167.415 94.881 167.766C92.145 168.045 89.4811 169.062 86.9071 170.043C81.3541 172.158 75.6121 174.345 70.1221 168.342C66.4861 164.355 59.7901 162.663 53.8411 164.193C50.9521 164.94 45.8851 167.136 44.3911 173.409C40.9801 187.737 56.4331 192.372 57.0991 192.561L56.3881 195.027V195.036Z" fill="#150035"/>
<path d="M75.1257 212.306C75.1527 212.099 75.1617 211.901 75.1527 211.694L75.5487 203.738L71.4987 206.465C71.4987 206.465 71.4807 206.465 71.4717 206.465C69.8247 205.439 67.7097 204.647 65.2527 204.233L35.2827 199.193C28.3617 198.032 21.4227 200.291 19.7847 204.242L18.1287 208.31C18.1287 208.31 18.1287 208.319 18.1107 208.328L14.8617 209.084C14.8617 209.084 14.8437 209.093 14.8437 209.102L14.4477 217.589C14.4477 217.589 14.4477 217.652 14.4477 217.679V217.724L14.4297 217.976C14.4387 219.182 15.8877 220.064 18.0117 220.424L64.0287 228.164C66.5217 228.587 69.0147 227.768 69.5997 226.346L74.8197 213.485C74.9637 213.143 75.0447 212.801 75.0987 212.468H75.1167V212.297L75.1257 212.306Z" fill="#DE5656"/>
<path d="M75.3698 206.691C73.6598 204.909 70.7798 203.487 67.1708 202.884L37.2008 197.844C30.2798 196.683 23.3408 198.942 21.7028 202.893L16.8248 211.515C15.7088 214.584 17.6438 215.25 18.2378 215.349L64.3898 223.17C66.8828 223.593 69.3758 222.774 69.9608 221.352L75.0458 208.869C75.3428 208.149 75.4418 207.411 75.3698 206.7V206.691Z" fill="#ECECEC"/>
<path d="M65.3793 229.569C64.8753 229.569 64.3533 229.524 63.8223 229.443L17.8053 221.703C14.9163 221.217 13.1703 219.831 13.1523 218.004L13.1793 217.635L13.5933 208.905L17.2113 207.231L18.6153 203.766C20.4963 199.221 27.9213 196.656 35.5173 197.943L65.4873 202.983C67.6923 203.352 69.7353 204.036 71.4543 204.972L76.8453 203.712L76.4493 211.767C76.4493 211.929 76.4493 212.172 76.4133 212.424L76.1523 213.63C76.1073 213.756 76.0623 213.882 76.0173 214.008L70.7973 226.86C70.1043 228.534 67.9083 229.587 65.3793 229.587V229.569ZM15.7173 217.977C15.7173 218.247 16.4643 218.877 18.2283 219.174L64.2453 226.914C66.3783 227.274 68.1423 226.536 68.4213 225.87L73.6413 213.018C73.7313 212.802 73.7943 212.568 73.8393 212.271L73.8573 212.145C73.8753 212.001 73.8843 211.857 73.8753 211.713L74.1453 206.232L71.5083 208.014L70.7703 207.537C69.2403 206.583 67.2423 205.872 65.0463 205.503L35.0763 200.463C28.8303 199.419 22.3773 201.372 20.9733 204.738L19.0023 209.598H18.2823L16.0863 210.12L15.7353 217.662L15.7083 217.977H15.7173Z" fill="#150035"/>
<path d="M69.6102 226.329L74.8302 213.468C74.9742 213.126 75.0552 212.784 75.1092 212.451H75.1272V212.28C75.1542 212.073 75.1632 211.875 75.1542 211.668L75.5502 203.712L71.4912 206.448C70.8252 206.034 70.0512 205.665 69.2412 205.332L67.3062 219.633L66.9102 228.093C68.2242 227.814 69.2592 227.184 69.6192 226.338L69.6102 226.329Z" fill="#150035"/>
<path d="M44.9144 222.386L32.6024 220.298C32.6024 220.298 32.5844 220.298 32.5754 220.316L30.7214 224.843L28.2464 224.807L27.9224 231.665C27.9224 231.665 27.9224 231.683 27.9314 231.683L32.3234 234.5C32.3234 234.5 32.3324 234.518 32.3234 234.527L30.5594 239.099C30.5594 239.099 30.5504 239.108 30.5414 239.117L27.0674 239.567C27.0674 239.567 27.0674 239.567 27.0584 239.567L22.7834 238.19C22.7834 238.19 22.7564 238.19 22.7564 238.208L22.4324 245.03C22.4324 245.03 22.4324 245.048 22.4414 245.048L27.0404 248L26.6534 248.936L26.3834 249.323L19.3004 247.037C19.3004 247.037 19.2734 247.037 19.2734 247.055L18.8414 256.316C18.7154 257.27 18.9314 258.233 19.4984 259.16L21.1274 261.815C21.5054 262.427 22.3694 262.904 23.4404 263.084L26.5094 263.606C27.5714 263.786 28.6874 263.651 29.4884 263.246L32.7464 261.599C34.4474 260.735 35.6444 259.583 36.1754 258.287L49.5584 225.608L50.0624 214.979C50.0624 214.979 50.0354 214.943 50.0174 214.961L44.9234 222.377C44.9234 222.377 44.9054 222.386 44.8964 222.386H44.9144Z" fill="#DE5656"/>
<path d="M27.472 264.975C27.085 264.975 26.698 264.939 26.311 264.876L23.242 264.354C21.784 264.102 20.623 263.427 20.047 262.491L18.418 259.836C17.707 258.675 17.419 257.397 17.581 256.146L18.04 246.372L20.11 246.3L22.891 246.849L21.181 245.751V245.031L21.523 237.516L22.594 236.751L27.202 238.245L29.659 237.921L30.784 234.996L26.662 232.359V231.639L27.085 222.756L29.875 223.53L31.72 219.021L32.602 219.003L44.329 220.974L49.531 213.414L51.394 214.053L50.764 226.095L37.372 258.774C36.724 260.358 35.329 261.735 33.34 262.743L30.082 264.39C29.335 264.768 28.417 264.966 27.463 264.966L27.472 264.975ZM20.497 248.775L20.137 256.389C20.038 257.163 20.2 257.838 20.605 258.504L22.234 261.159C22.351 261.348 22.828 261.69 23.674 261.834L26.743 262.356C27.535 262.491 28.372 262.401 28.93 262.113L32.188 260.466C33.601 259.755 34.6 258.81 35.005 257.82L48.307 225.348L48.586 219.345L45.472 223.872L44.644 223.656L33.385 221.748L31.585 226.149L29.479 226.122L29.245 231.018L33.997 234.06L33.493 235.113L31.459 240.396H30.559L27.319 240.963L26.752 240.819L23.971 239.928L23.764 244.41L28.651 247.524L27.463 250.08L26.923 250.872L20.497 248.793V248.775Z" fill="#150035"/>
<path d="M36.625 249.009L49.999 216.357C49.999 216.357 49.999 216.33 49.981 216.33L32.926 213.441C32.926 213.441 32.908 213.441 32.899 213.459L28.246 224.817L32.647 227.643C32.647 227.643 32.656 227.661 32.656 227.67L30.892 232.242C30.892 232.242 30.883 232.251 30.874 232.26L24.889 233.043C24.889 233.043 24.871 233.043 24.871 233.061L23.242 237.039L22.765 238.2L27.355 241.143C27.355 241.143 27.364 241.161 27.355 241.17L25.231 246.372C25.231 246.372 25.222 246.381 25.213 246.39L19.273 247.056C19.147 248.01 19.363 248.973 19.93 249.9L21.559 252.555C21.937 253.167 22.801 253.644 23.872 253.824L26.941 254.346C28.003 254.526 29.119 254.391 29.92 253.986L33.178 252.339C34.879 251.475 36.076 250.323 36.607 249.027L36.625 249.009Z" fill="#DE5656"/>
<path d="M37.8133 252.716L48.7933 225.653L49.1713 220.523L48.2713 219.542L34.1233 217.148C34.1233 217.148 34.1053 217.148 34.0963 217.166L29.4433 228.524L33.8443 231.35C33.8443 231.35 33.8533 231.368 33.8533 231.377L32.0893 235.949C32.0893 235.949 32.0803 235.958 32.0713 235.967L26.0863 236.75C26.0863 236.75 26.0683 236.75 26.0683 236.768L24.4393 240.746L23.9623 241.907L28.5523 244.85C28.5523 244.85 28.5613 244.868 28.5523 244.877L26.4283 250.079C26.4283 250.079 26.4193 250.088 26.4103 250.097L20.4703 250.763C20.3443 251.717 20.5603 252.68 21.1273 253.607L22.7563 256.262C23.1343 256.874 23.9983 257.351 25.0693 257.531L28.1383 258.053C29.2003 258.233 30.3253 258.098 31.1173 257.693L34.3753 256.046C36.0763 255.182 37.2733 254.03 37.8043 252.734L37.8133 252.716Z" fill="white"/>
<path d="M27.8407 255.687C27.4627 255.687 27.0757 255.651 26.6977 255.588L23.6287 255.066C22.1707 254.814 21.0097 254.139 20.4337 253.203L18.8047 250.548C18.0937 249.387 17.8057 248.109 17.9677 246.858L18.1027 245.868L24.2947 245.175L25.7347 241.629L22.0537 239.271C21.5137 238.929 21.2977 238.245 21.5407 237.651L23.9617 231.747L24.8437 231.729L29.9287 231.054L31.0537 228.129L27.6697 225.969C27.0577 225.573 26.8147 224.799 27.0847 224.133L32.0887 211.92L33.1867 212.172L50.7547 215.142L51.3667 216.231L51.1417 216.816L37.7587 249.486C37.1107 251.07 35.7157 252.447 33.7267 253.455L30.4687 255.102C29.7217 255.48 28.7857 255.678 27.8317 255.678L27.8407 255.687ZM20.5597 248.181C20.6407 248.523 20.7847 248.874 20.9917 249.216L22.6207 251.871C22.7377 252.06 23.2237 252.402 24.0607 252.546L27.1297 253.068C27.9217 253.212 28.7677 253.113 29.3257 252.834L32.5837 251.187C33.9967 250.476 34.9957 249.531 35.4007 248.541L48.1807 217.338L33.6727 214.881L29.8117 224.313L34.1857 227.121L33.8347 228.12L31.7467 233.529L30.8467 233.547L25.7527 234.222L24.3307 237.705L28.9927 240.702L28.4887 241.755L26.0857 247.668H25.2037L20.5777 248.208L20.5597 248.181Z" fill="#150035"/>
<path d="M28.003 255.741L26.5 254.778L43.033 214.071L44.032 214.053L50.89 215.214L51.484 216.384L51.196 216.978L37.858 249.549C37.201 251.142 35.806 252.51 33.826 253.518L30.568 255.165C29.965 255.471 29.245 255.651 28.435 255.714L28.003 255.741ZM44.707 216.771L30.199 252.474L32.665 251.223C34.078 250.512 35.077 249.567 35.482 248.577L48.262 217.383L44.707 216.78V216.771Z" fill="#150035"/>
<path d="M49.8547 217.437L47.1457 223.008L37.3357 247.227L36.0397 250.548C36.0397 250.548 36.0397 250.548 36.0307 250.557L31.4587 253.275L28.2547 254.472C28.2547 254.472 28.2367 254.481 28.2367 254.49L27.8047 263.706C28.3987 263.661 28.9567 263.526 29.4157 263.292L32.6737 261.645C34.3747 260.781 35.5717 259.629 36.1027 258.333L49.4857 225.654L49.8727 217.428L49.8547 217.437Z" fill="#150035"/>
<path d="M64.434 219.714L18.417 211.974C15.924 211.551 14.385 210.066 14.979 208.644L20.199 195.783C21.837 191.832 28.776 189.573 35.697 190.734L65.667 195.774C72.588 196.935 76.872 201.084 75.234 205.035L70.014 217.896C69.429 219.318 66.927 220.128 64.443 219.714H64.434Z" fill="#DE5656"/>
<path d="M75.5492 202.866C73.8392 201.084 70.9592 199.662 67.3502 199.059L37.3802 194.019C30.4592 192.858 23.5202 195.117 21.8822 199.068L16.8242 211.515C17.2922 211.722 17.8232 211.884 18.4172 211.983L64.4342 219.723C66.9272 220.146 69.4202 219.327 70.0052 217.905L75.2252 205.044C75.5222 204.324 75.6212 203.586 75.5492 202.875V202.866Z" fill="white"/>
<path d="M52.4101 218.004L35.7331 215.196C34.7701 215.034 34.1761 214.458 34.4011 213.909L37.3531 206.592C37.9111 205.242 40.2781 204.468 42.6451 204.864L54.2461 206.817C56.6041 207.213 58.0711 208.626 57.5131 209.976L54.5611 217.293C54.3361 217.842 53.3731 218.157 52.4101 217.995V218.004Z" fill="#DE5656"/>
<path d="M65.7757 221.109C65.2627 221.109 64.7407 221.064 64.2187 220.983L18.2017 213.243C16.2307 212.91 14.6467 211.965 13.9537 210.714C13.5037 209.895 13.4407 208.986 13.7917 208.158L19.0117 195.306C20.9017 190.761 28.3267 188.196 35.9137 189.474L65.8837 194.514C70.6717 195.324 74.4877 197.52 76.0807 200.391C77.0077 202.065 77.1247 203.838 76.4227 205.53L71.2027 218.382C70.5097 220.056 68.3137 221.109 65.7847 221.109H65.7757ZM64.6417 218.445C66.7927 218.805 68.5387 218.067 68.8177 217.401L74.0377 204.549C74.4337 203.586 74.3617 202.605 73.8217 201.633C72.6247 199.464 69.4117 197.709 65.4427 197.043L35.4727 192.003C29.2267 190.95 22.7737 192.903 21.3697 196.278L16.1497 209.13C16.1137 209.211 16.0867 209.301 16.1857 209.472C16.4377 209.931 17.2837 210.489 18.6157 210.714L64.6327 218.454L64.6417 218.445Z" fill="#150035"/>
<path d="M55.8218 219.435C55.4798 219.435 55.1378 219.408 54.7868 219.345L28.1648 214.872C26.7878 214.638 25.7078 213.981 25.1948 213.072C24.8438 212.433 24.7988 211.722 25.0688 211.074L29.7848 199.401C30.9098 196.674 35.2388 195.117 39.6308 195.864L58.1528 198.978C60.9338 199.446 63.1658 200.751 64.1198 202.47C64.7048 203.523 64.7858 204.702 64.3358 205.773L59.6198 217.446C59.1158 218.67 57.5678 219.435 55.8128 219.435H55.8218ZM27.4898 212.01C27.6158 212.01 27.9848 212.235 28.5968 212.334L55.2188 216.807C56.3348 217.005 57.1538 216.618 57.2708 216.447L61.9778 204.792C62.0768 204.558 62.1668 204.207 61.8878 203.703C61.3298 202.695 59.7008 201.822 57.7388 201.498L39.2168 198.384C35.7878 197.799 32.7458 198.96 32.1698 200.364L27.4538 212.037C27.4538 212.037 27.4808 212.01 27.4988 212.01H27.4898Z" fill="#150035"/>
<path d="M174.963 209.579L161.157 209.057C161.157 209.057 161.157 209.057 161.148 209.057L128.865 190.418C125.121 188.258 119.451 188.024 116.202 189.896L99.4263 199.58C99.4263 199.58 99.4173 199.58 99.4083 199.58L89.2653 197.474C89.2653 197.474 89.2383 197.474 89.2383 197.492V207.239C89.2383 207.239 89.2383 207.257 89.2383 207.266V207.482C89.2923 208.886 90.3273 210.353 92.3253 211.505L135.354 236.345C139.098 238.505 144.768 238.739 148.017 236.867L172.794 222.566C174.297 221.702 175.008 220.532 174.972 219.317V209.606C174.972 209.606 174.972 209.588 174.963 209.579Z" fill="#DE5656"/>
<path d="M142.501 239.423C139.801 239.423 136.966 238.757 134.707 237.461L91.6776 212.621C89.8506 211.568 88.6446 210.227 88.1676 208.769L87.9336 207.383L87.9516 207.041L87.9336 196.898L88.8606 196.115L89.4636 196.214L99.1656 198.239L115.528 188.789C119.182 186.683 125.311 186.908 129.469 189.311L161.482 207.797L175.18 208.328L176.233 209.606V219.317C176.269 221.036 175.27 222.602 173.398 223.682L148.621 237.983C146.947 238.946 144.751 239.423 142.465 239.423H142.501ZM90.5166 207.239V207.428C90.5616 208.418 91.4796 209.525 92.9736 210.389L136.003 235.229C139.333 237.146 144.544 237.389 147.379 235.751L172.156 221.45C172.876 221.036 173.722 220.334 173.695 219.344V210.812L160.609 210.317L160.366 210.083L128.218 191.525C124.888 189.599 119.677 189.365 116.842 191.003L99.7686 200.867H99.2736L90.5166 199.049V207.248V207.239Z" fill="#150035"/>
<path d="M172.794 212.675L148.017 226.977C144.768 228.848 139.107 228.614 135.354 226.454L92.3249 201.614C88.5809 199.454 88.1669 196.178 91.4159 194.306L116.193 180.005C119.442 178.133 125.103 178.367 128.856 180.527L171.885 205.367C175.629 207.528 176.043 210.803 172.794 212.675Z" fill="#DE5656"/>
<path d="M171.932 208.815L128.903 183.975C125.159 181.815 119.489 181.581 116.24 183.453L91.4626 197.754C90.7426 198.168 90.2116 198.654 89.8516 199.185V202.776C89.8516 202.776 89.8516 202.785 89.8516 202.794C90.3646 203.604 91.2016 204.387 92.3716 205.062L135.401 229.902C139.145 232.062 144.815 232.296 148.064 230.424L172.31 216.429C175.559 214.557 175.676 210.975 171.932 208.815Z" fill="white"/>
<path d="M142.51 229.56C139.81 229.56 136.975 228.894 134.716 227.589L91.6874 202.749C89.3114 201.381 87.9434 199.464 87.9434 197.511C87.9434 195.801 88.9514 194.28 90.7784 193.227L115.555 178.926C119.209 176.82 125.338 177.045 129.496 179.448L172.525 204.288C174.901 205.656 176.269 207.573 176.269 209.526C176.269 211.236 175.261 212.757 173.434 213.81L148.657 228.111C146.983 229.074 144.787 229.551 142.51 229.551V229.56ZM121.675 180.051C119.839 180.051 118.102 180.411 116.833 181.14L92.0564 195.441C91.3544 195.846 90.5084 196.539 90.5084 197.511C90.5084 198.483 91.4264 199.644 92.9654 200.535L135.994 225.375C139.324 227.301 144.535 227.535 147.37 225.897L172.147 211.596C172.849 211.191 173.695 210.498 173.695 209.526C173.695 208.554 172.777 207.393 171.238 206.502L128.209 181.662C126.364 180.6 123.943 180.051 121.666 180.051H121.675Z" fill="#150035"/>
<path d="M135.355 226.482V236.364C135.355 236.364 135.355 236.382 135.364 236.382C136.282 236.904 137.308 237.318 138.388 237.606V227.715C137.308 227.418 136.273 227.004 135.355 226.473V226.482Z" fill="#150035"/>
<path d="M174.982 209.606C174.946 210.767 174.235 211.874 172.795 212.702L148.018 227.003C146.623 227.813 144.76 228.2 142.807 228.245L142.771 228.272V238.118C142.771 238.118 142.78 238.145 142.798 238.145C144.751 238.109 146.614 237.713 148.018 236.903L172.795 222.602C174.298 221.738 175.009 220.568 174.973 219.353V209.624L174.982 209.606Z" fill="#150035"/>
<path d="M152.302 212.442L141.106 218.904C139.918 219.588 137.839 219.507 136.471 218.715L111.19 204.117C109.822 203.325 109.669 202.128 110.857 201.444L122.053 194.982C123.241 194.298 125.32 194.379 126.688 195.171L151.969 209.769C153.337 210.561 153.49 211.758 152.302 212.442Z" fill="#DE5656"/>
<path d="M143.022 222.774C141.483 222.774 139.872 222.396 138.594 221.658L102.018 200.544C100.569 199.707 99.7324 198.501 99.7324 197.241C99.7324 196.125 100.389 195.108 101.532 194.451L117.723 185.1C119.829 183.885 123.339 184.002 125.706 185.379L162.282 206.493C163.731 207.33 164.568 208.536 164.568 209.796C164.568 210.912 163.911 211.929 162.768 212.586L146.577 221.937C145.605 222.495 144.336 222.774 143.013 222.774H143.022ZM121.278 186.828C120.414 186.828 119.604 186.99 119.019 187.323L102.828 196.674C102.504 196.863 102.306 197.079 102.306 197.241C102.306 197.43 102.513 197.862 103.305 198.321L139.872 219.435C141.447 220.344 143.976 220.47 145.299 219.714L161.499 210.363C161.823 210.174 162.021 209.958 162.021 209.796C162.021 209.607 161.814 209.175 161.022 208.716L124.446 187.602C123.564 187.089 122.385 186.828 121.278 186.828Z" fill="#150035"/>
</svg>
