<svg width="193" height="309" viewBox="0 0 193 309" fill="none" xmlns="http://www.w3.org/2000/svg">
<path d="M190.05 251.681L190.147 233.782H183.84C179.423 227.302 172.711 221.207 163.627 215.961C128.274 195.556 70.9345 195.556 35.5624 215.961C26.4783 221.207 19.7664 227.302 15.3497 233.782H9.04297L9.13941 251.642C9.10084 252.587 9.17796 255.692 9.17796 255.692L9.35157 256.464C10.4895 268.923 19.0914 280.399 35.5624 289.888C70.9152 310.313 128.255 310.313 163.627 289.888C180.098 280.379 188.796 268.132 189.915 255.692C189.915 255.692 190.089 252.568 190.031 251.661L190.05 251.681Z" fill="#DE5656"/>
<path d="M99.6138 307.495C76.0067 307.495 52.3996 302.307 34.4242 291.931C17.8182 282.345 8.36766 270.233 7.07544 256.867L6.86328 255.749C6.86328 255.749 6.80543 252.509 6.84401 251.544L6.70898 231.447H14.1537C18.8983 224.851 25.7258 218.969 34.4049 213.954C70.3556 193.201 128.833 193.201 164.784 213.954C173.482 218.969 180.291 224.851 185.035 231.447H192.48L192.364 251.621C192.403 252.644 192.229 255.807 192.229 255.807C190.976 269.616 181.236 282.403 164.765 291.912C146.789 302.288 123.182 307.476 99.5752 307.476L99.6138 307.495ZM11.4921 255.421L11.6657 256.27C12.7651 268.305 21.1934 278.932 36.7193 287.9C71.3778 307.92 127.792 307.92 162.45 287.9C177.552 279.182 186.482 267.668 187.6 255.498C187.6 255.498 187.755 252.624 187.716 251.776V251.66L187.793 236.115H182.586L181.892 235.093C177.513 228.651 170.975 222.903 162.45 217.985C127.792 197.985 71.3778 197.985 36.7193 217.985C28.1945 222.903 21.6563 228.67 17.2782 235.093L16.5839 236.115H11.3764L11.4728 251.641C11.4343 252.47 11.4728 254.669 11.4728 255.421H11.4921Z" fill="#150035"/>
<path d="M183.841 233.797C179.424 227.317 172.713 221.222 163.628 215.976C148.835 207.432 130.166 202.514 110.879 201.125V304.773C130.166 303.384 148.816 298.466 163.628 289.902C180.099 280.394 188.798 268.147 189.916 255.707C189.916 255.707 190.09 252.582 190.032 251.676L190.129 233.778H183.822L183.841 233.797Z" fill="#150035"/>
<path d="M163.647 196.823C199.019 217.248 199.019 250.344 163.647 270.769C128.294 291.175 70.9346 291.175 35.5818 270.769C0.209709 250.344 0.209709 217.248 35.5818 196.823C70.9539 176.399 128.274 176.399 163.647 196.823Z" fill="white"/>
<path d="M99.614 288.339C76.0069 288.339 52.3998 283.151 34.4244 272.794C16.5648 262.495 6.72852 248.628 6.72852 233.796C6.72852 218.965 16.5648 205.136 34.4244 194.817C70.3751 174.065 128.853 174.065 164.804 194.817C182.663 205.136 192.5 218.965 192.5 233.796C192.5 248.628 182.663 262.476 164.804 272.794C146.828 283.171 123.221 288.339 99.614 288.339ZM99.614 183.824C76.8555 183.824 54.0777 188.819 36.7389 198.829C20.3836 208.28 11.3766 220.7 11.3766 233.777C11.3766 246.853 20.3836 259.293 36.7389 268.725C71.3973 288.744 127.811 288.744 162.47 268.725C178.825 259.274 187.832 246.873 187.832 233.777C187.832 220.681 178.825 208.26 162.47 198.829C145.131 188.819 122.372 183.824 99.5947 183.824H99.614Z" fill="#150035"/>
<path d="M29.2959 265.524H25.9785V284.734H29.2959V265.524Z" fill="#150035"/>
<path d="M94.7158 286.062H91.3984V305.272H94.7158V286.062Z" fill="#150035"/>
<path d="M166.385 270.852H164.727V287.67H166.385V270.852Z" fill="#DE5656"/>
<path d="M177.592 261.359H175.934V278.158H177.592V261.359Z" fill="#DE5656"/>
<path d="M146.692 206.607C172.691 221.632 172.691 245.972 146.692 260.977C120.674 276.002 78.5326 276.002 52.5146 260.977C26.516 245.953 26.516 221.613 52.5146 206.607C78.5133 191.602 120.674 191.602 146.692 206.607Z" fill="#DE5656"/>
<path d="M99.6131 274.515C82.1392 274.515 64.6653 270.677 51.3767 263.001C38.0495 255.305 30.7012 244.929 30.7012 233.8C30.7012 222.672 38.0495 212.296 51.3767 204.6C77.9733 189.248 121.272 189.248 147.869 204.6C161.196 212.296 168.525 222.653 168.525 233.8C168.525 244.948 161.177 255.305 147.869 263.001C134.561 270.696 117.087 274.534 99.6131 274.534V274.515ZM99.6131 197.657C82.9878 197.657 66.3433 201.302 53.6911 208.612C41.8683 215.439 35.3686 224.389 35.3686 233.781C35.3686 243.174 41.8875 252.142 53.6911 258.97C79.0147 273.589 120.211 273.589 145.554 258.97C157.377 252.142 163.877 243.193 163.877 233.781C163.877 224.369 157.377 215.439 145.554 208.612C132.883 201.302 116.258 197.657 99.6324 197.657H99.6131Z" fill="#150035"/>
<path d="M146.694 221.841C120.676 206.836 78.5338 206.836 52.5159 221.841C42.8917 227.395 36.8357 234.242 34.3477 241.417C36.8549 248.592 42.8917 255.419 52.5159 260.993C78.5146 276.018 120.676 276.018 146.694 260.993C156.318 255.439 162.355 248.592 164.862 241.417C162.355 234.242 156.318 227.415 146.694 221.841Z" fill="#DE5656"/>
<path d="M99.6146 274.51C82.1407 274.51 64.6668 270.672 51.3782 262.995C41.5805 257.344 34.9458 250.131 32.1685 242.166L31.8984 241.413L32.1685 240.642C34.9458 232.676 41.5805 225.483 51.3782 219.831C77.9748 204.46 121.274 204.46 147.87 219.831C157.649 225.483 164.283 232.676 167.061 240.642L167.331 241.413L167.061 242.166C164.283 250.131 157.649 257.325 147.87 262.976C134.562 270.672 117.088 274.51 99.6146 274.51ZM36.8359 241.413C39.401 248.01 45.2064 254.066 53.6926 258.964C79.0162 273.584 120.232 273.584 145.556 258.964C154.023 254.066 159.847 248.01 162.413 241.413C159.847 234.817 154.042 228.761 145.556 223.843C120.232 209.224 79.0355 209.224 53.6926 223.843C45.2064 228.742 39.401 234.798 36.8359 241.413Z" fill="#150035"/>
<path d="M116.028 196.302H112.711V211.538H116.028V196.302Z" fill="#150035"/>
<path d="M130.474 200.665H127.156V215.902H130.474V200.665Z" fill="#150035"/>
<path d="M87.0574 196.302V210.574L65.8033 215.897L42.1383 229.629L34.3464 238.694L33.0156 229.359L42.1383 214.354L54.6748 205.424L70.6829 199.156L87.0574 196.302Z" fill="#150035"/>
<path d="M50.587 309C39.8442 305.413 30.0658 300.687 21.541 294.959L23.3926 292.201C31.6666 297.775 41.1558 302.365 51.6285 305.837L50.5677 308.981L50.587 309Z" fill="#150035"/>
<path d="M17.4146 291.04C5.206 280.895 0.692869 271.965 0.5 271.579L3.47019 270.113C3.47019 270.113 7.90617 278.85 19.5361 288.494L17.4146 291.04Z" fill="#150035"/>
<path d="M182.375 198.906C176.608 194.2 170.166 190.111 163.262 186.736L164.728 183.766C171.864 187.257 178.518 191.48 184.477 196.341L182.375 198.906Z" fill="#150035"/>
<path d="M157.821 184.267C125.862 170.785 93.6147 175.24 93.2869 175.298L92.8047 172.019C93.1326 171.981 126.267 167.371 159.113 181.219L157.821 184.286V184.267Z" fill="#150035"/>
<path d="M120.001 252.851C117.031 255.262 119.5 258.675 119.962 259.273C119.982 259.312 119.924 259.331 119.885 259.331C118.863 259.061 112.961 257.634 108.776 259.331C108.718 259.35 108.66 259.331 108.68 259.293C111.65 256.882 109.142 253.449 108.68 252.851C108.66 252.812 108.718 252.793 108.757 252.793C109.779 253.063 115.739 254.509 119.924 252.793C119.982 252.754 120.04 252.793 120.001 252.851Z" fill="#150035"/>
<path d="M103.896 243.557C100.926 245.968 103.395 249.382 103.858 249.98C103.877 249.999 103.819 250.037 103.781 250.018C102.758 249.748 96.8567 248.321 92.6522 250.018C92.5943 250.037 92.5364 250.018 92.575 249.98C95.5452 247.569 93.0379 244.136 92.575 243.538C92.5557 243.499 92.6136 243.48 92.6522 243.48C93.6744 243.75 99.634 245.196 103.819 243.48C103.877 243.461 103.935 243.48 103.896 243.538V243.557Z" fill="#150035"/>
<path d="M136.162 243.501C133.192 245.911 135.661 249.325 136.123 249.923C136.143 249.962 136.104 249.981 136.046 249.981C135.024 249.711 129.122 248.284 124.918 249.981C124.86 250 124.802 249.981 124.841 249.942C127.811 247.512 125.304 244.099 124.841 243.501C124.821 243.481 124.879 243.443 124.918 243.443C125.959 243.713 131.9 245.159 136.085 243.443C136.143 243.423 136.201 243.443 136.162 243.501Z" fill="#150035"/>
<path d="M120.059 234.205C117.088 236.635 119.557 240.03 120.02 240.627C120.039 240.666 120.001 240.705 119.943 240.685C118.921 240.415 113.019 238.988 108.814 240.685C108.757 240.705 108.679 240.685 108.737 240.647C111.707 238.217 109.2 234.803 108.737 234.205C108.718 234.186 108.776 234.147 108.814 234.166C109.856 234.436 115.796 235.883 119.981 234.166C120.039 234.147 120.117 234.186 120.059 234.205Z" fill="#150035"/>
<path d="M40.3979 228.357L38.7402 231.23L110.961 272.894L112.619 270.02L40.3979 228.357Z" fill="#150035"/>
<path d="M99.7721 209.1L98.127 211.98L161.452 248.144L163.097 245.264L99.7721 209.1Z" fill="#150035"/>
<path d="M91.0504 232.391C86.4601 225.371 85.3608 211.561 88.6203 201.532C91.8798 191.522 98.2444 189.111 102.835 196.132C107.425 203.152 108.524 216.981 105.265 226.991C102.005 237.001 95.6407 239.411 91.0504 232.391Z" fill="#DE5656"/>
<path d="M96.9148 238.579C94.9668 238.579 91.958 237.75 89.2386 233.584C84.2626 225.966 83.0861 211.597 86.5577 200.893C88.6214 194.528 92.093 190.574 96.0661 190.034C97.8984 189.783 101.447 190.111 104.63 194.972C109.625 202.59 110.782 216.959 107.31 227.682C105.247 234.047 101.775 238.001 97.8019 238.521C97.5319 238.56 97.2426 238.579 96.9148 238.579ZM96.9726 194.277C96.8569 194.277 96.7604 194.277 96.6447 194.297C94.9282 194.528 92.4402 196.727 90.6658 202.204C87.6571 211.5 88.66 224.77 92.8645 231.212C93.6746 232.446 95.3333 234.51 97.2427 234.24C98.9592 234.008 101.428 231.809 103.222 226.332C106.25 217.036 105.247 203.766 101.042 197.325C100.271 196.167 98.7663 194.277 96.9919 194.277H96.9726Z" fill="#150035"/>
<path d="M109.008 225.487C102.335 229.325 91.5339 229.325 84.8799 225.487C78.2067 221.629 78.2067 215.4 84.8799 211.542C91.5532 207.685 102.354 207.685 109.008 211.542C115.681 215.381 115.681 221.629 109.008 225.487Z" fill="#150035"/>
<path d="M115.18 213.414C105.112 219.219 88.7765 219.219 78.6895 213.414C68.6217 207.589 68.6217 198.177 78.6895 192.353C88.7572 186.528 105.093 186.528 115.18 192.353C125.248 198.158 125.248 207.589 115.18 213.414Z" fill="#DE5656"/>
<path d="M96.933 219.91C89.9319 219.91 82.9307 218.367 77.6075 215.3C72.0529 212.079 68.9863 207.682 68.9863 202.879C68.9863 198.077 72.0529 193.699 77.6075 190.497C88.2732 184.345 105.593 184.345 116.239 190.497C121.813 193.718 124.86 198.116 124.88 202.899C124.88 207.682 121.813 212.079 116.239 215.3C110.916 218.367 103.915 219.91 96.9137 219.91H96.933ZM96.933 190.131C90.7226 190.131 84.5122 191.5 79.7676 194.22C75.5824 196.63 73.2873 199.716 73.2873 202.879C73.2873 206.042 75.5824 209.148 79.7676 211.539C89.2375 216.997 104.609 216.997 114.079 211.539C118.245 209.128 120.559 206.062 120.559 202.879C120.559 199.697 118.264 196.63 114.079 194.22C109.354 191.481 103.124 190.131 96.9137 190.131H96.933Z" fill="#150035"/>
<path d="M115.18 205.195C105.112 211.001 88.7765 211.001 78.6895 205.195C68.6217 199.39 68.6217 189.959 78.6895 184.134C88.7572 178.309 105.093 178.309 115.18 184.134C125.248 189.959 125.248 199.371 115.18 205.195Z" fill="#DE5656"/>
<path d="M96.9349 211.698C89.9338 211.698 82.9327 210.155 77.6095 207.088C72.0549 203.867 68.9883 199.47 68.9883 194.687C68.9883 189.904 72.0549 185.506 77.6095 182.285C88.2558 176.133 105.595 176.133 116.241 182.285C121.815 185.506 124.862 189.904 124.882 194.687C124.882 199.47 121.815 203.867 116.241 207.088C110.918 210.155 103.917 211.698 96.9156 211.698H96.9349ZM96.9349 181.919C90.7246 181.919 84.5142 183.269 79.7696 186.008C75.5844 188.419 73.2892 191.504 73.2892 194.667C73.2892 197.83 75.5844 200.916 79.7696 203.327C89.2394 208.785 104.611 208.785 114.081 203.327C118.247 200.916 120.561 197.83 120.561 194.667C120.561 191.504 118.266 188.419 114.081 186.008C109.356 183.269 103.126 181.919 96.9156 181.919H96.9349Z" fill="#150035"/>
<path d="M115.18 196.691C105.112 202.515 88.7765 202.515 78.6895 196.691C68.6217 190.866 68.6217 181.454 78.6895 175.629C88.7572 169.824 105.093 169.824 115.18 175.629C125.248 181.454 125.248 190.866 115.18 196.691Z" fill="#DE5656"/>
<path d="M96.933 203.17C89.9319 203.17 82.9307 201.647 77.6075 198.561C72.0529 195.34 68.9863 190.943 68.9863 186.159C68.9863 181.376 72.0529 176.979 77.6075 173.758C88.2539 167.605 105.593 167.605 116.239 173.758C121.813 176.979 124.86 181.376 124.88 186.159C124.88 190.943 121.813 195.34 116.239 198.561C110.916 201.627 103.915 203.17 96.9137 203.17H96.933ZM96.933 173.411C90.7226 173.411 84.5122 174.78 79.7676 177.5C75.5824 179.91 73.2873 182.996 73.2873 186.159C73.2873 189.322 75.5824 192.408 79.7676 194.819C89.2375 200.277 104.609 200.277 114.079 194.819C118.245 192.408 120.559 189.342 120.559 186.159C120.559 182.977 118.264 179.91 114.079 177.5C109.354 174.761 103.124 173.411 96.9137 173.411H96.933Z" fill="#150035"/>
<path d="M115.18 187.762C105.112 193.567 88.7765 193.567 78.6895 187.762C68.6217 181.937 68.6217 172.525 78.6895 166.701C88.7572 160.895 105.093 160.895 115.18 166.701C125.248 172.525 125.248 181.957 115.18 187.762Z" fill="#DE5656"/>
<path d="M96.9349 194.242C89.9338 194.242 82.9327 192.718 77.6095 189.632C72.0549 186.431 68.9883 182.014 68.9883 177.231C68.9883 172.448 72.0549 168.05 77.6095 164.829C88.2558 158.677 105.595 158.677 116.241 164.829C121.815 168.05 124.882 172.448 124.882 177.231C124.882 182.014 121.815 186.411 116.241 189.632C110.918 192.718 103.917 194.242 96.9156 194.242H96.9349ZM96.9349 164.482C90.7246 164.482 84.5142 165.851 79.7696 168.59C75.5844 171.001 73.2892 174.087 73.2892 177.25C73.2892 180.413 75.5844 183.499 79.7696 185.91C89.2394 191.368 104.63 191.368 114.081 185.91C118.247 183.499 120.561 180.413 120.561 177.25C120.561 174.087 118.266 171.001 114.081 168.59C109.356 165.851 103.126 164.482 96.9156 164.482H96.9349Z" fill="#150035"/>
<path d="M165.323 73.6031C165.323 35.8202 134.696 5.21191 96.9322 5.21191C59.1686 5.21191 28.541 35.8394 28.541 73.6031C28.541 88.8397 33.5942 102.861 42.0225 114.241C42.0225 114.241 61.6373 138.947 71.3 169.497C71.8979 172.776 74.3473 175.958 78.7061 178.466C88.7739 184.29 105.11 184.29 115.197 178.466C119.556 175.958 121.909 172.757 122.487 169.478C132.15 138.928 151.861 114.241 151.861 114.241C160.29 102.861 165.343 88.8397 165.343 73.6031H165.323Z" fill="#FFFDFD"/>
<path d="M96.9342 184.943C89.933 184.943 82.9319 183.4 77.6087 180.334C72.8063 177.556 69.894 173.95 69.1611 169.861C59.7877 140.313 40.5201 115.819 40.3272 115.588C31.1853 103.263 26.3828 88.7596 26.3828 73.6001C26.3828 34.6986 58.0326 3.04883 96.9342 3.04883C135.836 3.04883 167.485 34.6986 167.485 73.6001C167.485 88.7596 162.683 103.263 153.58 115.53C153.329 115.819 133.946 140.352 124.514 170.131C124.071 172.754 122.2 176.901 116.24 180.334C110.917 183.4 103.916 184.943 96.9149 184.943H96.9342ZM96.9342 7.36909C60.4049 7.36909 30.7031 37.0901 30.7031 73.6001C30.7031 87.8338 35.2162 101.431 43.7603 112.965C43.9146 113.157 63.6836 138.269 73.3463 168.839C73.9056 171.847 76.1622 174.509 79.7688 176.592C89.2194 182.05 104.63 182.069 114.08 176.592C117.668 174.528 119.828 171.944 120.329 169.089C130.069 138.25 149.954 113.138 150.147 112.887C158.633 101.431 163.146 87.8146 163.146 73.5809C163.146 37.0516 133.444 7.3498 96.9149 7.3498L96.9342 7.36909Z" fill="#150035"/>
<path d="M115.18 178.466C105.112 184.29 88.7765 184.29 78.6895 178.466C68.6217 172.661 68.6217 163.229 78.6895 157.405C88.7572 151.58 105.093 151.58 115.18 157.405C125.248 163.229 125.248 172.641 115.18 178.466Z" fill="#DE5656"/>
<path d="M96.9349 184.944C89.9338 184.944 82.9327 183.401 77.6095 180.334C72.0549 177.113 68.9883 172.716 68.9883 167.933C68.9883 163.15 72.0549 158.752 77.6095 155.531C88.2558 149.379 105.595 149.379 116.241 155.531C121.815 158.752 124.862 163.15 124.882 167.933C124.882 172.716 121.815 177.113 116.241 180.334C110.918 183.401 103.917 184.944 96.9156 184.944H96.9349ZM96.9349 155.184C90.7246 155.184 84.5142 156.554 79.7696 159.273C75.5844 161.684 73.2892 164.77 73.2892 167.933C73.2892 171.096 75.5844 174.182 79.7696 176.593C89.2394 182.051 104.611 182.051 114.081 176.593C118.247 174.182 120.561 171.115 120.561 167.933C120.561 164.75 118.266 161.684 114.081 159.273C109.356 156.534 103.126 155.184 96.9156 155.184H96.9349Z" fill="#150035"/>
<path d="M96.722 168.59C93.6554 168.59 90.7817 167.279 88.7373 164.906C86.8086 162.65 85.9021 159.969 86.0757 157.25C86.6157 149.149 86.9436 120.392 69.0454 90.8449C68.4089 89.8034 68.5439 88.5112 69.354 87.6047C70.1447 86.7175 71.4177 86.4861 72.4977 87.0068L87.1172 94.1044C87.4258 94.2587 87.6958 94.1815 87.8501 94.1237C87.9851 94.0851 88.2358 93.9501 88.3708 93.6415L95.5069 76.6305C95.9313 75.6083 97.0885 74.9333 98.0335 74.9526C99.1136 74.9526 100.097 75.6083 100.502 76.6305C101.794 79.8128 105.343 88.5691 107.118 93.0051C107.272 93.4486 107.754 93.6608 108.217 93.5065L125.459 88.1062C126.597 87.7397 127.851 88.164 128.526 89.167C129.201 90.1506 129.143 91.4428 128.41 92.3686C122.933 99.1768 105.247 123.98 107.272 157.385C107.407 159.545 106.906 161.647 105.845 163.421C104.09 166.392 101.119 168.262 97.6864 168.552C97.3585 168.571 97.0499 168.59 96.7413 168.59H96.722ZM75.4101 93.1979C91.2639 122.167 90.9167 149.535 90.3959 157.539C90.2995 159.14 90.8202 160.702 91.9003 161.956C93.3468 163.653 95.2755 164.424 97.3199 164.251C99.345 164.077 101.119 162.958 102.142 161.223C102.759 160.181 103.048 158.947 102.971 157.635C101.139 127.567 114.562 104.191 122.007 93.7187L109.529 97.6339C106.906 98.4439 104.147 97.1517 103.125 94.6251C101.833 91.4235 99.6151 85.9075 97.995 81.9151L92.3632 95.3195C91.8039 96.631 90.7238 97.6725 89.3737 98.1932C88.0429 98.6947 86.5386 98.6368 85.2464 98.0003L75.3908 93.2172L75.4101 93.1979Z" fill="#150035"/>
<path d="M57.6281 180.318C57.6088 180.183 54.2914 166.818 48.0039 153.066L51.9384 151.272C58.3995 165.41 61.6976 178.718 61.8326 179.277L57.6473 180.299L57.6281 180.318Z" fill="#150035"/>
<path d="M43.2784 143.806C39.2282 136.728 34.9465 131.347 30.5684 127.818L33.2685 124.442C38.0902 128.319 42.7191 134.105 47.0393 141.646L43.2977 143.787L43.2784 143.806Z" fill="#150035"/>
<path d="M174.642 52.4803C166.31 14.7938 138.922 4.22455 138.652 4.10883L140.137 0.0585938C141.353 0.502192 169.974 11.4571 178.846 51.5352L174.622 52.4803H174.642Z" fill="#150035"/>
<path d="M180.06 84.1347L175.914 82.9196C178.633 73.6041 175.914 61.0483 175.875 60.9326L180.08 60.0068C180.195 60.5662 183.069 73.7584 180.041 84.1347H180.06Z" fill="#150035"/>
</svg>
