<svg width="199" height="135" viewBox="0 0 199 135" fill="none" xmlns="http://www.w3.org/2000/svg">
<path d="M160.564 94.9565C157.704 94.9565 154.864 94.1677 152.34 92.6097L131.021 79.3768C127.235 77.03 122.462 76.9314 118.577 79.1401L99.0728 90.2037L97.5938 87.6005L117.098 76.5369C121.93 73.7957 127.866 73.914 132.579 76.8328L153.898 90.0657C157.881 92.5308 162.871 92.59 166.914 90.2234L194.878 73.8154L196.397 76.3792L168.432 92.7872C165.987 94.2269 163.265 94.9368 160.544 94.9368L160.564 94.9565Z" fill="#150035"/>
<path d="M75.209 115.308L73.7891 112.686C80.5732 108.998 82.0522 103.969 82.0917 100.399C82.1114 97.7566 83.5313 95.3506 85.7993 94.1673L90.2365 91.8008L91.6367 94.4434L87.1994 96.81C85.9176 97.5002 85.0893 98.8807 85.0893 100.439C85.0499 104.028 83.7088 110.713 75.2287 115.328L75.209 115.308Z" fill="#150035"/>
<path d="M184.999 29.4227L180.759 23.9796C181.646 23.2697 183.5 21.2581 183.382 19.6804C183.263 18.2605 181.351 16.9589 180.207 16.3278C171.667 11.4567 163.365 16.1109 163.03 16.3278L159.559 10.372C160.052 10.0959 171.569 3.46961 183.618 10.3523C187.76 12.7189 190.008 15.6967 190.245 19.2071C190.659 24.8474 185.571 28.9691 184.999 29.4227Z" fill="#150035"/>
<path d="M196.16 57.4856C196.515 55.2177 197.58 47.5264 196.574 40.5451C195.943 36.2262 191.171 40.2493 186.734 45.1007C174.23 33.268 155.219 24.0385 132.441 19.0293C129.148 18.2996 125.42 18.7729 122.916 20.2126L105.265 30.4084L103.076 22.3622H91.283C91.283 22.3622 87.3585 28.5349 90.3166 40.5451C90.3166 41.4917 90.928 42.4186 92.1704 43.1483L153.799 78.7451C156.284 80.1847 160.327 80.1847 162.812 78.7451L193.537 61.0157C194.898 60.2269 195.726 59.2408 196.022 58.1956C196.081 57.9589 196.121 57.742 196.141 57.5053L196.16 57.4856Z" fill="#DE5656"/>
<path d="M158.334 81.2893C156.441 81.2893 154.568 80.8554 153.088 80.0074L91.4597 44.4304C89.882 43.5232 88.9354 42.1822 88.8565 40.7425C85.8589 28.3576 89.882 21.8299 90.0595 21.5538L90.4934 20.8635H104.239L106.211 28.1407L122.185 18.9309C125.025 17.294 129.088 16.7813 132.776 17.5898C154.844 22.4413 173.914 31.4538 186.674 43.0105C192.156 37.2519 194.404 36.8969 195.903 37.3505C196.731 37.6068 197.757 38.3365 198.053 40.3481C199.098 47.4872 198.033 55.3165 197.658 57.6633C197.639 57.9788 197.579 58.2944 197.501 58.5902C197.086 60.0496 195.982 61.3315 194.325 62.2978L163.6 80.0271C162.121 80.8751 160.247 81.309 158.354 81.309L158.334 81.2893ZM92.2091 23.8415C91.4005 25.6952 89.5665 31.2172 91.7752 40.1903L91.8147 40.5453C91.8147 40.9595 92.2288 41.4525 92.9388 41.8469L154.568 77.4239C156.619 78.6072 160.05 78.6072 162.081 77.4239L192.807 59.6749C193.773 59.1227 194.404 58.4324 194.602 57.7422C194.641 57.6238 194.661 57.5055 194.661 57.3872V57.2294C195.016 55.0798 196.061 47.5266 195.075 40.7425C195.016 40.2889 194.897 40.1312 194.897 40.1114C194.937 40.1706 193.32 40.0917 187.837 46.087L186.812 47.2111L185.707 46.1658C173.342 34.4712 154.311 25.3403 132.125 20.4691C129.186 19.8183 125.853 20.2128 123.664 21.4749L104.338 32.6371L101.951 23.8217H92.2288L92.2091 23.8415Z" fill="#150035"/>
<path d="M193.971 44.3115L163.245 62.0408C160.761 63.4805 156.737 63.4805 154.233 62.0408L92.5844 26.4638C90.0995 25.0241 90.0995 22.697 92.5844 21.2574L123.31 3.52805C125.815 2.08841 129.542 1.63481 132.835 2.34477C161.924 8.75416 184.899 22.0068 195.983 38.8093C197.245 40.7222 196.436 42.8718 193.951 44.3115H193.971Z" fill="white"/>
<path d="M158.73 64.6047C156.836 64.6047 154.943 64.1906 153.484 63.3228L91.8551 27.7458C90.1986 26.7795 89.252 25.3595 89.252 23.8607C89.252 22.3619 90.1986 20.9223 91.8551 19.9757L122.581 2.24631C125.421 0.609452 129.483 0.0967 133.171 0.905269C162.615 7.37382 185.965 20.9026 197.245 38.0008C198.014 39.1644 198.251 40.4463 197.955 41.7084C197.6 43.2467 196.476 44.6074 194.701 45.6132L163.976 63.3426C162.496 64.1906 160.623 64.6244 158.73 64.6244V64.6047ZM129.641 3.48874C127.57 3.48874 125.559 3.94232 124.08 4.81006L93.354 22.5394C92.644 22.9536 92.2298 23.4269 92.2298 23.841C92.2298 24.2552 92.644 24.7482 93.354 25.1426L154.983 60.7394C157.014 61.9029 160.465 61.9029 162.496 60.7394L193.222 42.9903C194.228 42.3987 194.898 41.6887 195.056 40.9787C195.174 40.5251 195.056 40.0715 194.76 39.5982C183.894 23.1508 161.215 10.0756 132.54 3.76484C131.593 3.56762 130.627 3.4493 129.661 3.4493L129.641 3.48874Z" fill="#150035"/>
<path d="M178.392 42.2811L159.006 53.4631C157.744 54.1927 155.673 54.1927 154.411 53.4631L107.435 26.3464C106.173 25.6167 106.173 24.4137 107.435 23.6841L126.821 12.5021C128.793 11.3583 131.929 11.2203 134.177 12.1866L140.843 15.0265C153.504 20.4301 164.686 26.8789 174.014 34.1955L178.944 38.0411C180.601 39.3427 180.364 41.1373 178.392 42.2811Z" fill="#150035"/>
<path d="M172.101 42.9122C162.832 35.6548 151.749 29.2652 139.167 23.901L132.501 21.0612C130.568 20.2329 127.847 20.3512 126.17 21.3175L114.279 28.1805L113.135 26.1887L125.027 19.3257C127.314 18.0044 130.844 17.8466 133.408 18.951L140.074 21.7908C152.834 27.2339 164.075 33.7222 173.501 41.0979L172.081 42.9122H172.101Z" fill="#DE5656"/>
<path d="M159.519 63.0859H156.521V79.3756H159.519V63.0859Z" fill="#150035"/>
<path d="M165.749 61.1523H162.771V77.442H165.749V61.1523Z" fill="#150035"/>
<path d="M95.5827 46.1465C94.4191 36.6803 95.5432 29.1271 95.5827 28.8115L98.5408 29.2651C98.5408 29.2651 97.4364 36.7394 98.5408 45.7717L95.5827 46.1465Z" fill="#150035"/>
<path d="M190.835 63.5201L187.857 63.3031C188.469 54.5864 187.857 47.1515 187.857 47.0726L190.835 46.8359C190.855 47.1515 191.466 54.5667 190.835 63.5201Z" fill="#150035"/>
<path d="M175.887 12.8353L173.619 12.4212C173.639 12.2831 174.23 9.18688 177.839 8.33887L178.372 10.5674C176.282 11.0604 175.907 12.7564 175.887 12.8353Z" fill="#DE5656"/>
<path d="M127.235 52.5948C127.235 52.4764 127.097 52.3976 126.998 52.437L122.995 54.5472L46.6345 94.7587L25.6315 107.104L9.47983 113.237C6.8372 114.756 2.45908 115.111 2.1041 117.261V124.853C1.96605 125.721 3.2282 126.451 4.74673 126.372L11.6097 125.997C12.3197 125.958 13.0296 126.115 13.5424 126.391L24.0341 132.446C25.3554 133.215 27.5247 133.215 28.846 132.446L31.2717 131.046C34.4468 129.212 33.9736 124.479 30.4632 123.315L24.5468 122.585C23.2255 121.816 16.7964 119.075 18.1374 118.306L20.7406 121.284C22.0619 120.515 24.2313 120.515 25.5526 121.284L34.4468 126.411C35.7682 127.18 37.9375 127.18 39.2588 126.411L40.3829 125.76C43.6369 123.887 43.282 119.055 39.7716 117.675L32.8692 116.038C31.3704 115.17 27.6825 113.474 29.201 112.587C30.4829 111.837 38.253 117.103 39.7913 117.675L48.6658 120.988L49.3363 120.593C51.979 119.075 53.6159 110.654 51.1113 109.057L44.6427 108.425C42.1184 106.848 45.0963 109.747 47.7389 108.209C49.928 106.946 53.2806 106.67 55.9824 107.518L61.741 109.333C64.4428 110.181 67.7954 109.905 69.9844 108.642C72.4496 107.222 73.8498 98.5254 71.3846 97.1055L65.5472 95.3898L127.255 59.8325V52.5159L127.235 52.5948Z" fill="#150035"/>
<path d="M26.4589 134.535C25.3348 134.535 24.2107 134.278 23.3035 133.765L12.8118 127.711C12.6146 127.593 12.2399 127.455 11.7074 127.514L4.84448 127.889C3.38511 127.948 2.02435 127.494 1.27495 126.646C0.801638 126.114 0.56497 125.463 0.643854 124.792V117.042C1.03828 114.774 3.46399 113.965 5.79109 113.177C6.85603 112.822 7.94072 112.447 8.76901 111.974L8.98594 111.875L25.0192 105.781L45.904 93.4948L127.076 50.7393L127.964 51.1928C128.457 51.5084 128.753 52.0211 128.753 52.6128V60.797L69.3131 95.0528L72.1332 95.9205C73.4742 96.6896 74.1842 98.4448 74.1842 101.009C74.1842 103.927 73.1192 108.66 70.733 110.041C68.1889 111.5 64.4025 111.835 61.3063 110.849L55.5279 109.035C54.6602 108.759 53.6939 108.621 52.7472 108.601C53.5164 109.568 53.8911 111.027 53.8517 112.92C53.8122 115.799 52.6092 120.493 50.0849 121.952L48.803 122.702L44.0502 120.927C44.0699 121.104 44.1094 121.302 44.1094 121.479C44.2869 123.787 43.143 125.956 41.1315 127.119L40.0074 127.77C38.548 128.618 36.497 128.756 34.8207 128.263C34.584 129.979 33.5783 131.498 32.0006 132.385L29.5748 133.785C28.6677 134.298 27.5436 134.554 26.4195 134.554L26.4589 134.535ZM11.8455 124.496C12.7527 124.496 13.6204 124.713 14.3107 125.108L24.8023 131.162C25.67 131.655 27.2478 131.675 28.1155 131.162L30.5412 129.762C31.5075 129.21 32.0203 128.204 31.902 127.1C31.902 126.942 31.8625 126.784 31.8231 126.646L28.2338 124.575L24.0924 124.063L23.836 123.905C23.5599 123.747 23.0471 123.491 22.4358 123.195C22.0611 123.017 21.7258 122.84 21.3906 122.682L20.4637 123.215L18.7479 121.262C17.1308 120.296 16.5392 119.586 16.4997 118.679C16.48 118.008 16.8153 117.417 17.4266 117.062L18.4915 116.45L20.6806 118.955C20.9764 119.113 21.2722 119.29 21.5878 119.448C23.1852 119.073 25.0192 119.27 26.3406 120.04L29.2199 121.696L30.9751 121.952C32.395 122.406 33.5191 123.353 34.2093 124.575L35.2348 125.187C36.0829 125.68 37.7 125.68 38.5677 125.187L39.6721 124.536C40.6976 123.944 41.2498 122.879 41.1709 121.716C41.0723 120.533 40.3821 119.586 39.2777 119.152L32.178 117.417C31.9611 117.298 31.7047 117.16 31.4089 117.002C29.0029 115.701 27.4055 114.715 27.3858 113.216C27.3858 112.467 27.7802 111.816 28.4902 111.402C29.8904 110.593 31.9019 111.52 37.6211 114.873C38.7255 115.523 39.9679 116.253 40.3426 116.391L48.5664 119.448L48.6255 119.408C49.6116 118.837 50.8343 115.74 50.8935 112.9C50.8935 111.678 50.6962 110.928 50.499 110.593L46.6928 110.218C45.8251 110.337 44.9771 110.218 44.2672 109.982L44.1094 109.923C43.3797 109.666 42.8275 109.311 42.5711 108.996L41.7626 108.01L42.5908 107.024C43.3797 106.116 44.3855 106.59 45.1546 107.043L46.5745 107.181C46.7323 107.142 46.8703 107.083 47.0281 106.984C49.5721 105.525 53.3586 105.189 56.4548 106.176L62.2134 107.99C64.5405 108.72 67.4395 108.483 69.2539 107.438C70.023 107.004 71.1866 104.065 71.2063 101.048C71.2063 99.4703 70.8907 98.7603 70.7132 98.5434L61.7795 95.9205L125.755 59.0616V54.8018L47.3437 96.098L26.1828 108.503L10.1495 114.596C9.10426 115.188 7.92099 115.583 6.75744 115.977C5.73193 116.332 3.85842 116.963 3.64148 117.456V124.733C3.81897 124.832 4.19366 124.95 4.70642 124.911L11.5694 124.536C11.668 124.536 11.7864 124.536 11.885 124.536L11.8455 124.496Z" fill="#150035"/>
<path d="M117.374 46.6193L50.8746 84.9376L25.6315 99.5116L6.95553 110.299C4.31289 111.818 2.67601 113.829 2.32103 115.959L2.1041 117.261C1.96605 118.128 3.2282 118.858 4.74673 118.779L11.6097 118.404C12.3197 118.365 13.0296 118.503 13.5424 118.799L24.0341 124.853C25.3554 125.622 27.5247 125.622 28.846 124.853L29.5165 124.459C30.8379 123.69 30.8379 122.447 29.5165 121.678L20.6223 116.551C19.301 115.782 19.301 114.539 20.6223 113.77L20.7406 113.691C22.0619 112.922 24.2313 112.922 25.5526 113.691L34.4468 118.819C35.7682 119.588 37.9375 119.588 39.2588 118.819C40.5801 118.049 40.5801 116.807 39.2588 116.038L34.9399 113.553C33.5199 112.725 33.4608 111.305 34.8807 110.437C36.1626 109.668 38.2136 109.51 39.7716 110.102L48.6461 113.415L49.3166 113.021C51.9593 111.502 52.0381 109.057 49.5138 107.459L47.5023 106.197C44.978 104.619 45.0568 102.174 47.6995 100.655C49.8885 99.3932 53.2412 99.1171 55.943 99.9651L61.7015 101.779C64.4822 102.647 67.9532 102.332 70.1225 100.991C72.3313 99.6102 72.1538 97.2042 69.9056 95.9223L60.7155 90.6173L127.215 52.299L117.355 46.5996L117.374 46.6193Z" fill="white"/>
<path d="M26.4597 126.945C25.3356 126.945 24.2114 126.689 23.3043 126.157L12.8126 120.102C12.6154 119.984 12.221 119.866 11.7082 119.905L4.84524 120.28C3.40559 120.339 2.02511 119.885 1.27571 119.037C0.762956 118.465 0.546028 117.736 0.664355 117.026L0.881289 115.724C1.31516 113.141 3.20839 110.754 6.24546 108.999L117.414 44.9053L130.272 52.3204L63.7722 90.6387L70.7337 94.6618C72.3114 95.569 73.2383 96.9889 73.258 98.5272C73.2778 100.006 72.4495 101.387 70.9901 102.294C68.4461 103.872 64.561 104.266 61.3267 103.241L55.5484 101.426C53.2213 100.697 50.342 100.933 48.5079 101.978C47.7191 102.452 47.2261 103.024 47.2261 103.517C47.2261 103.99 47.6205 104.522 48.3699 104.976L50.3815 106.238C52.038 107.283 52.9452 108.723 52.9255 110.281C52.8861 111.878 51.9 113.318 50.1448 114.344L48.8629 115.093L39.3376 111.543C38.2135 111.129 36.6358 111.228 35.7483 111.76C35.5314 111.898 35.4525 112.016 35.4328 112.036C35.4525 111.997 35.5314 112.135 35.7878 112.293L40.1067 114.797C41.2111 115.428 41.8422 116.414 41.8422 117.479C41.8422 118.544 41.2111 119.53 40.1067 120.161C38.3121 121.207 35.5906 121.207 33.7959 120.161L24.9017 115.034C24.034 114.541 22.4562 114.541 21.5688 115.034C21.4505 115.113 21.3716 115.152 21.3124 115.211C21.3519 115.231 21.3913 115.27 21.4505 115.31L30.3447 120.437C31.4491 121.069 32.0802 122.055 32.0802 123.12C32.0802 124.184 31.4491 125.171 30.3447 125.802L29.6742 126.196C28.767 126.709 27.6429 126.985 26.5188 126.985L26.4597 126.945ZM11.8463 116.907C12.7337 116.907 13.6014 117.124 14.2917 117.519L24.7834 123.573C25.6511 124.066 27.2288 124.086 28.0965 123.573L28.767 123.179C28.767 123.179 28.8656 123.12 28.9051 123.08C28.8656 123.06 28.8262 123.021 28.7473 122.981L19.8531 117.854C18.7487 117.223 18.1176 116.237 18.1176 115.172C18.1176 114.107 18.7487 113.121 19.8531 112.49C21.766 111.385 24.4875 111.385 26.2822 112.411L35.1764 117.538C36.0244 118.031 37.6416 118.031 38.5093 117.538C38.5685 117.499 38.6276 117.46 38.6671 117.44C38.6276 117.42 38.5882 117.381 38.5093 117.341L34.1904 114.837C33.0268 114.166 32.3563 113.141 32.3366 111.997C32.3366 110.873 32.9479 109.847 34.0721 109.157C35.7286 108.151 38.2727 107.954 40.2645 108.703L48.4882 111.76L48.5474 111.721C49.3362 111.267 49.8293 110.695 49.8293 110.182C49.8293 109.709 49.4348 109.177 48.6854 108.723L46.6739 107.461C45.0173 106.416 44.1101 104.976 44.1298 103.418C44.1693 101.821 45.1554 100.381 46.9105 99.3555C49.4546 97.8961 53.241 97.5608 56.357 98.5469L62.1156 100.361C64.4821 101.111 67.4994 100.835 69.2941 99.7302C69.6096 99.533 70.1618 99.0991 70.1618 98.5469C70.1618 98.0933 69.7674 97.5806 69.1166 97.2256L57.6783 90.619L124.178 52.3007L117.295 48.3368L7.62593 111.583C5.39744 112.884 3.99721 114.521 3.72112 116.197L3.56337 117.124C3.76058 117.203 4.11555 117.321 4.56914 117.282L11.4321 116.907C11.5504 116.907 11.649 116.907 11.7477 116.907H11.8463Z" fill="#150035"/>
<path d="M14.6861 119.863H12.3984V125.543H14.6861V119.863Z" fill="#DE5656"/>
<path d="M36.0631 119.666H33.7754V125.543H36.0631V119.666Z" fill="#DE5656"/>
<path d="M47.9556 113.651H45.668V119.883H47.9556V113.651Z" fill="#DE5656"/>
<path d="M25.0203 125.445H22.7129V131.796H25.0203V125.445Z" fill="#DE5656"/>
<path d="M64.8775 102.981H62.5898V109.292H64.8775V102.981Z" fill="#DE5656"/>
<path d="M111.833 62.9492H109.545V68.3331H111.833V62.9492Z" fill="#DE5656"/>
<path d="M103.727 67.1875H101.439V73.1827H103.727V67.1875Z" fill="#DE5656"/>
<path d="M73.8308 84.2861H71.5234V90.8927H73.8308V84.2861Z" fill="#DE5656"/>
</svg>
