<svg width="316" height="298" viewBox="0 0 316 298" fill="none" xmlns="http://www.w3.org/2000/svg">
<path d="M98.0912 187.259L69.2266 203.924L70.3566 205.881L99.2212 189.216L98.0912 187.259Z" fill="#150035"/>
<path d="M186.155 172.995L100.176 222.515L101.304 224.473L187.283 174.953L186.155 172.995Z" fill="#150035"/>
<path d="M126.127 141.503L187.303 176.738L186.175 178.696L124.999 143.462L126.127 141.503Z" fill="#150035"/>
<path d="M165.76 262.674L165.19 262.344L62 202.254V103.294L128.91 64.8137V121.574H126.65V68.7237L64.26 104.604V200.954L165.76 260.054L241.49 215.794V144.094H243.75V217.094L165.76 262.674Z" fill="#150035"/>
<path d="M252.419 150.923L172.619 104.713V78.6633H174.879V103.403L250.159 147.003V100.843H252.419V150.923Z" fill="#150035"/>
<path opacity="0.3" d="M203.81 74.2441V70.6441L177.03 55.1741H170.8L144.01 70.6441V74.2441L170.8 89.7041H177.03L203.81 74.2441Z" fill="black"/>
<path d="M140.9 34.3241L144.01 28.9241L146.5 30.5841L144.32 35.4941L140.9 34.3241Z" fill="#150035"/>
<path d="M203.811 28.9241L206.941 34.3241L204.791 35.4241L201.471 31.4441L203.811 28.9241Z" fill="#150035"/>
<path d="M177.021 81.5542H170.801V86.1042H177.021V81.5542Z" fill="#150035"/>
<path d="M178.461 46.7942H169.811V53.8642H178.461V46.7942Z" fill="#150035"/>
<path d="M170.252 48.5328L173.17 53.5848V83.8617L170.8 85.2371L144.559 70.0846L141.65 65.0525V34.7562L144.011 33.3899L170.252 48.5328Z" fill="#DE5656" stroke="#150035" stroke-width="1.5"/>
<path d="M203.811 33.3893L206.19 34.7576V65.0519L203.272 70.0843L177.031 85.2368L174.67 83.8624V53.5842L177.579 48.5325L203.811 33.3893Z" fill="#DE5656" stroke="#150035" stroke-width="1.5"/>
<path d="M176.762 14.4641L202.81 29.5015V31.9467L176.762 46.9841H171.068L145.01 31.9466V29.5016L171.068 14.4641H176.762Z" fill="#DE5656" stroke="#150035" stroke-width="2"/>
<path d="M172.06 21.8645L171.18 21.3645L176.37 18.3645H175.77V17.6545L177.59 17.6745L178.46 18.1745L172.06 21.8645Z" fill="white"/>
<path d="M179.05 24.4542L182.93 22.2142V21.7642L179.95 20.0442H179.19L175.31 22.2842V22.7342L178.29 24.4642H179.05V24.4542ZM179.57 25.1542H177.75L174.08 23.0342V21.9842L178.67 19.3342H180.49L184.16 21.4642V22.5142L179.58 25.1642L179.57 25.1542Z" fill="white"/>
<path d="M181.509 27.3245L180.629 26.8145L185.819 23.8245H185.219V23.1145L187.029 23.1245L187.899 23.6245L181.509 27.3245Z" fill="white"/>
<path d="M184.38 28.9747L183.5 28.4747L188.69 25.4846H188.09V24.7747L189.9 24.7847L190.77 25.2847L184.38 28.9747Z" fill="white"/>
<path d="M191.37 31.5646L195.25 29.3246V28.8746L192.27 27.1546H191.51L187.63 29.3946V29.8446L190.61 31.5746H191.37V31.5646ZM191.89 32.2746H190.07L186.4 30.1446V29.0946L190.99 26.4446H192.8L196.47 28.5746V29.6246L191.89 32.2746Z" fill="white"/>
<path d="M166.579 28.3341L170.449 26.1041V25.6541L167.469 23.9341H166.709L162.829 26.1741V26.6241L165.809 28.3441H166.569L166.579 28.3341ZM167.089 29.0441H165.279L161.609 26.9141V25.8641L166.189 23.2141H167.999L171.669 25.3341V26.3841L167.079 29.0341L167.089 29.0441Z" fill="white"/>
<path d="M169.03 31.2041L168.16 30.7041L173.34 27.7142H172.74L172.75 27.0042H174.56L175.43 27.5042L169.03 31.2041Z" fill="white"/>
<path d="M176.031 33.7941L179.901 31.5541V31.1041L176.921 29.3741H176.161L172.281 31.6141V32.0641L175.261 33.7841H176.021L176.031 33.7941ZM176.551 34.5041H174.731L171.051 32.3741V31.3241L175.631 28.6741H177.451L181.121 30.8041V31.8541L176.541 34.5041H176.551Z" fill="white"/>
<path d="M178.479 36.6646L177.609 36.1646L182.789 33.1646H182.189V32.4546L184.009 32.4646L184.879 32.9646L178.479 36.6646Z" fill="white"/>
<path d="M181.35 38.3245L180.48 37.8145L185.67 34.8245H185.06L185.07 34.1145L186.88 34.1245L187.75 34.6245L181.35 38.3245Z" fill="white"/>
<path d="M156.98 33.8849L160.86 31.6449V31.1949L157.88 29.4649H157.12L153.25 31.7049V32.1549L156.23 33.8749H156.99L156.98 33.8849ZM157.5 34.5949H155.68L152.01 32.4649V31.4149L156.59 28.7649H158.41L162.08 30.8849V31.9349L157.5 34.5849V34.5949Z" fill="white"/>
<path d="M159.431 36.7442L158.561 36.2442L163.741 33.2542H163.141L163.151 32.5442L164.961 32.5542L165.831 33.0542L159.431 36.7442Z" fill="white"/>
<path d="M162.3 38.4046L161.43 37.9046L166.62 34.9146H166.01L166.02 34.1946L167.83 34.2046L168.7 34.7146L162.3 38.4046Z" fill="white"/>
<path d="M169.3 40.9945L173.17 38.7545V38.3045L170.19 36.5745H169.43L165.56 38.8145V39.2645L168.54 40.9845H169.3V40.9945ZM169.82 41.6945H168L164.33 39.5645V38.5145L168.91 35.8645H170.73L174.4 37.9845V39.0345L169.82 41.6845V41.6945Z" fill="white"/>
<path d="M171.749 43.8546L170.879 43.3546L176.059 40.3645H175.469V39.6545L177.279 39.6646L178.149 40.1646L171.749 43.8546Z" fill="white"/>
<path d="M182.02 56.815L181.14 57.315V51.3351L180.84 51.8551L180.23 51.4951L181.14 49.925L182.02 49.425V56.815Z" fill="white"/>
<path d="M187.751 52.0545V47.5745L187.361 47.3445L184.371 49.0645L183.991 49.7245V54.2045L184.381 54.4345L187.371 52.7145L187.751 52.0545ZM188.621 51.9545L187.711 53.5245L184.041 55.6445L183.131 55.1345V49.8345L184.041 48.2645L187.711 46.1445L188.621 46.6645V51.9645V51.9545Z" fill="white"/>
<path d="M191.46 51.3651L190.59 51.8651V45.8751L190.29 46.3951L189.68 46.0351L190.59 44.4751L191.46 43.9651V51.3651Z" fill="white"/>
<path d="M194.341 49.7047L193.461 50.2047V44.2147L193.171 44.7347L192.551 44.3847L193.461 42.8147L194.341 42.3147V49.7047Z" fill="white"/>
<path d="M200.071 44.9447V40.4647L199.681 40.2346L196.691 41.9647L196.311 42.6246V47.1047L196.701 47.3447L199.691 45.6147L200.071 44.9547V44.9447ZM200.941 44.8447L200.031 46.4147L196.361 48.5347L195.451 48.0146V42.7147L196.361 41.1447L200.031 39.0247L200.941 39.5446V44.8447Z" fill="white"/>
<path d="M184.88 64.7943V60.3143L184.49 60.0843L181.5 61.8043L181.12 62.4643V66.9343L181.51 67.1743L184.5 65.4543L184.87 64.7943H184.88ZM185.75 64.6943L184.84 66.2643L181.17 68.3743L180.26 67.8543V62.5543L181.17 60.9943L184.84 58.8743L185.75 59.3943V64.6943Z" fill="white"/>
<path d="M188.591 64.1051L187.721 64.6051V58.6151L187.421 59.1351L186.811 58.7851L187.721 57.2151L188.591 56.7151V64.1051Z" fill="white"/>
<path d="M194.331 59.345V54.8651L193.941 54.6351L190.951 56.3651L190.571 57.0251V61.4951L190.951 61.7251L193.941 59.9951L194.311 59.3351L194.331 59.345ZM195.201 59.2451L194.291 60.815L190.621 62.935L189.711 62.4151V57.1151L190.621 55.5551L194.291 53.425L195.201 53.9451V59.2451Z" fill="white"/>
<path d="M198.04 58.6451L197.17 59.1551V53.1651L196.87 53.6851L196.25 53.3251L197.17 51.7551L198.04 51.2551V58.6451Z" fill="white"/>
<path d="M200.911 56.995L200.041 57.495V51.505L199.741 52.025L199.131 51.675L200.041 50.105L200.911 49.595V56.995Z" fill="white"/>
<path d="M184.88 75.8851V71.4051L184.49 71.1751L181.5 72.9051L181.12 73.5651V78.0351L181.51 78.2651L184.5 76.5451L184.87 75.8851H184.88ZM185.75 75.7851L184.84 77.3551L181.17 79.4751L180.26 78.9551V73.6551L181.17 72.0851L184.84 69.9651L185.75 70.4851V75.7851Z" fill="white"/>
<path d="M188.591 75.1942L187.721 75.6942V69.7042L187.421 70.2242L186.811 69.8642L187.721 68.3042L188.591 67.7942V75.1942Z" fill="white"/>
<path d="M191.46 73.5345L190.59 74.0345V68.0445L190.29 68.5645L189.68 68.2145L190.59 66.6445L191.46 66.1445V73.5345Z" fill="white"/>
<path d="M197.2 68.7647V64.2947L196.81 64.0647L193.82 65.7947L193.44 66.4447V70.9247L193.83 71.1647L196.82 69.4347L197.2 68.7747V68.7647ZM198.07 68.6647L197.16 70.2447L193.49 72.3647L192.57 71.8447V66.5447L193.49 64.9747L197.16 62.8547L198.07 63.3747V68.6747V68.6647Z" fill="white"/>
<path d="M200.911 68.0746L200.041 68.5746V62.5946L199.741 63.1046L199.131 62.7546L200.041 61.1846L200.911 60.6846V68.0746Z" fill="white"/>
<path d="M148.101 46.4247L147.231 45.9147V39.9346L146.931 40.1047L146.311 39.0347L147.231 38.5247L148.101 39.0247V46.4247Z" fill="white"/>
<path d="M153.831 48.2843V43.8044L153.441 43.1243L150.451 41.3943L150.081 41.6143V46.0943L150.471 46.7744L153.461 48.5043L153.831 48.2744V48.2843ZM154.701 49.1944L153.791 49.7144L150.111 47.5943L149.201 46.0244V40.7243L150.111 40.2043L153.791 42.3244L154.701 43.8943V49.1944Z" fill="white"/>
<path d="M157.55 51.8746L156.68 51.3746V45.3846L156.37 45.5546L155.76 44.4946L156.68 43.9846L157.55 44.4846V51.8746Z" fill="white"/>
<path d="M160.421 53.5345L159.551 53.0345V47.0445L159.251 47.2145L158.641 46.1545L159.551 45.6445L160.421 46.1445V53.5345Z" fill="white"/>
<path d="M166.161 55.3949V50.9249L165.771 50.2449L162.781 48.5149L162.411 48.7449V53.2249L162.791 53.9049L165.781 55.6349L166.151 55.4049L166.161 55.3949ZM167.031 56.3049L166.121 56.8249L162.451 54.7049L161.541 53.1349V47.8249L162.451 47.3049L166.121 49.4249L167.031 50.9949V56.2949V56.3049Z" fill="white"/>
<path d="M150.96 57.7043V53.2243L150.57 52.5443L147.58 50.8243L147.2 51.0543V55.5243L147.59 56.2143L150.58 57.9343L150.95 57.7043H150.96ZM151.83 58.6143L150.92 59.1343L147.24 57.0143L146.33 55.4443V50.1443L147.24 49.6243L150.92 51.7443L151.83 53.3143V58.6143Z" fill="white"/>
<path d="M154.681 61.3043L153.801 60.7943V54.8143L153.501 54.9843L152.891 53.9143L153.801 53.4143L154.681 53.9143V61.3043Z" fill="white"/>
<path d="M160.411 63.1642V58.6842L160.031 58.0042L157.041 56.2842L156.661 56.5142V60.9942L157.051 61.6742L160.041 63.3942L160.421 63.1642H160.411ZM161.281 64.0742L160.371 64.5942L156.701 62.4742L155.791 60.9042V55.6042L156.701 55.0842L160.371 57.2042L161.281 58.7642V64.0642V64.0742Z" fill="white"/>
<path d="M164.13 66.7547L163.25 66.2547V60.2747L162.95 60.4447L162.34 59.3747L163.25 58.8647L164.13 59.3647V66.7547Z" fill="white"/>
<path d="M167.001 68.4147L166.131 67.9147V61.9247L165.821 62.1047L165.211 61.0347L166.131 60.5247L167.001 61.0247V68.4147Z" fill="white"/>
<path d="M150.96 68.7943V64.3143L150.57 63.6344L147.58 61.9043L147.2 62.1344V66.6044L147.59 67.2843L150.58 69.0043L150.95 68.7843L150.96 68.7943ZM151.83 69.7043L150.92 70.2144L147.24 68.0943L146.33 66.5244V61.2243L147.24 60.7043L150.92 62.8244L151.83 64.3943V69.7043Z" fill="white"/>
<path d="M154.681 72.3844L153.801 71.8844V65.9044L153.501 66.0744L152.891 65.0144L153.801 64.4944L154.681 64.9944V72.3844Z" fill="white"/>
<path d="M157.55 74.0448L156.68 73.5448V67.5548L156.37 67.7248L155.76 66.6648L156.68 66.1548L157.55 66.6548V74.0448Z" fill="white"/>
<path d="M163.28 75.9047V71.4247L162.9 70.7447L159.91 69.0147L159.53 69.2447V73.7247L159.92 74.4047L162.91 76.1247L163.28 75.9047ZM164.15 76.8147L163.24 77.3247L159.57 75.2047L158.66 73.6347V68.3347L159.57 67.8147L163.24 69.9347L164.15 71.5047V76.8047V76.8147Z" fill="white"/>
<path d="M167.001 79.4947L166.131 79.0047V73.0147L165.821 73.1847L165.211 72.1247L166.131 71.6047L167.001 72.1047V79.4947Z" fill="white"/>
<path opacity="0.3" d="M92.8098 115.244V111.644L66.0298 96.1741H59.7998L33.0098 111.644V115.244L59.7998 130.704H66.0298L92.8098 115.244Z" fill="black"/>
<path d="M29.9004 75.3241L33.0104 69.9241L35.5004 71.5841L33.3204 76.4941L29.9004 75.3241Z" fill="#150035"/>
<path d="M92.8107 69.9241L95.9407 75.3241L93.7907 76.4241L90.4707 72.4441L92.8107 69.9241Z" fill="#150035"/>
<path d="M66.0208 122.554H59.8008V127.104H66.0208V122.554Z" fill="#150035"/>
<path d="M67.4606 87.7942H58.8105V94.8642H67.4606V87.7942Z" fill="#150035"/>
<path d="M59.2515 89.5328L62.1704 94.5848V124.862L59.7995 126.237L33.5593 111.085L30.6504 106.053V75.7562L33.0109 74.3899L59.2515 89.5328Z" fill="#DE5656" stroke="#150035" stroke-width="1.5"/>
<path d="M92.8106 74.3893L95.1899 75.7576V106.052L92.2716 111.084L66.0314 126.237L63.6699 124.862V94.5842L66.5793 89.5325L92.8106 74.3893Z" fill="#DE5656" stroke="#150035" stroke-width="1.5"/>
<path d="M65.7618 55.4641L91.8098 70.5015V72.9467L65.7618 87.9841H60.0676L34.0098 72.9466V70.5016L60.0676 55.4641H65.7618Z" fill="#DE5656" stroke="#150035" stroke-width="2"/>
<path d="M61.0597 62.8645L60.1797 62.3645L65.3697 59.3645H64.7697V58.6545L66.5897 58.6745L67.4597 59.1745L61.0597 62.8645Z" fill="white"/>
<path d="M68.0501 65.4542L71.9301 63.2142V62.7642L68.9501 61.0442H68.1901L64.3101 63.2842V63.7342L67.2901 65.4642H68.0501V65.4542ZM68.5701 66.1542H66.7501L63.0801 64.0342V62.9842L67.6701 60.3342H69.4901L73.1601 62.4642V63.5142L68.5801 66.1642L68.5701 66.1542Z" fill="white"/>
<path d="M70.5089 68.3245L69.6289 67.8145L74.8189 64.8245H74.2189V64.1145L76.0289 64.1245L76.8989 64.6245L70.5089 68.3245Z" fill="white"/>
<path d="M73.38 69.9747L72.5 69.4747L77.69 66.4846H77.09V65.7747L78.9 65.7847L79.77 66.2847L73.38 69.9747Z" fill="white"/>
<path d="M80.3704 72.5646L84.2504 70.3246V69.8746L81.2704 68.1546H80.5104L76.6304 70.3946V70.8446L79.6104 72.5746H80.3704V72.5646ZM80.8904 73.2746H79.0704L75.4004 71.1446V70.0946L79.9904 67.4446H81.8004L85.4704 69.5746V70.6246L80.8904 73.2746Z" fill="white"/>
<path d="M55.5794 69.3341L59.4494 67.1041V66.6541L56.4694 64.9341H55.7094L51.8294 67.1741V67.6241L54.8094 69.3441H55.5694L55.5794 69.3341ZM56.0894 70.0441H54.2794L50.6094 67.9141V66.8641L55.1894 64.2141H56.9994L60.6694 66.3341V67.3841L56.0794 70.0341L56.0894 70.0441Z" fill="white"/>
<path d="M58.0302 72.2041L57.1602 71.7041L62.3401 68.7142H61.7402L61.7502 68.0042H63.5602L64.4301 68.5042L58.0302 72.2041Z" fill="white"/>
<path d="M65.0288 74.7941L68.8988 72.5541V72.1041L65.9188 70.3741H65.1588L61.2788 72.6141V73.0641L64.2588 74.7841H65.0188L65.0288 74.7941ZM65.5488 75.5041H63.7288L60.0488 73.3741V72.3241L64.6288 69.6741H66.4488L70.1188 71.8041V72.8541L65.5388 75.5041H65.5488Z" fill="white"/>
<path d="M67.4794 77.6646L66.6094 77.1646L71.7894 74.1646H71.1894V73.4546L73.0094 73.4646L73.8794 73.9646L67.4794 77.6646Z" fill="white"/>
<path d="M70.3505 79.3245L69.4805 78.8145L74.6705 75.8245H74.0605L74.0705 75.1145L75.8805 75.1245L76.7505 75.6245L70.3505 79.3245Z" fill="white"/>
<path d="M45.9798 74.8849L49.8598 72.6449V72.1949L46.8798 70.4649H46.1198L42.2498 72.7049V73.1549L45.2298 74.8749H45.9898L45.9798 74.8849ZM46.4998 75.5949H44.6798L41.0098 73.4649V72.4149L45.5898 69.7649H47.4098L51.0798 71.8849V72.9349L46.4998 75.5849V75.5949Z" fill="white"/>
<path d="M48.4305 77.7442L47.5605 77.2442L52.7406 74.2542H52.1405L52.1505 73.5442L53.9606 73.5542L54.8306 74.0542L48.4305 77.7442Z" fill="white"/>
<path d="M51.2997 79.4046L50.4297 78.9046L55.6197 75.9146H55.0097L55.0197 75.1946L56.8297 75.2046L57.6997 75.7146L51.2997 79.4046Z" fill="white"/>
<path d="M58.3001 81.9945L62.1701 79.7545V79.3045L59.1901 77.5745H58.4301L54.5601 79.8145V80.2645L57.5401 81.9845H58.3001V81.9945ZM58.8201 82.6945H57.0001L53.3301 80.5645V79.5145L57.9101 76.8645H59.7301L63.4001 78.9845V80.0345L58.8201 82.6845V82.6945Z" fill="white"/>
<path d="M60.7489 84.8546L59.8789 84.3546L65.0589 81.3645H64.4689V80.6545L66.2789 80.6646L67.1489 81.1646L60.7489 84.8546Z" fill="white"/>
<path d="M71.0205 97.815L70.1405 98.315V92.3351L69.8405 92.8551L69.2305 92.4951L70.1405 90.925L71.0205 90.425V97.815Z" fill="white"/>
<path d="M76.7509 93.0545V88.5745L76.3609 88.3445L73.3708 90.0645L72.9909 90.7245V95.2045L73.3809 95.4345L76.3708 93.7145L76.7509 93.0545ZM77.6208 92.9545L76.7109 94.5245L73.0408 96.6445L72.1309 96.1345V90.8345L73.0408 89.2645L76.7109 87.1445L77.6208 87.6645V92.9645V92.9545Z" fill="white"/>
<path d="M80.4597 92.3651L79.5897 92.8651V86.8751L79.2897 87.3951L78.6797 87.0351L79.5897 85.4751L80.4597 84.9651V92.3651Z" fill="white"/>
<path d="M83.3408 90.7047L82.4608 91.2047V85.2147L82.1708 85.7347L81.5508 85.3847L82.4608 83.8147L83.3408 83.3147V90.7047Z" fill="white"/>
<path d="M89.0712 85.9447V81.4647L88.6812 81.2346L85.6912 82.9647L85.3112 83.6246V88.1047L85.7012 88.3447L88.6912 86.6147L89.0712 85.9547V85.9447ZM89.9412 85.8447L89.0312 87.4147L85.3612 89.5347L84.4512 89.0146V83.7147L85.3612 82.1447L89.0312 80.0247L89.9412 80.5446V85.8447Z" fill="white"/>
<path d="M73.8798 105.794V101.314L73.4898 101.084L70.4998 102.804L70.1198 103.464V107.934L70.5098 108.174L73.4998 106.454L73.8698 105.794H73.8798ZM74.7498 105.694L73.8398 107.264L70.1698 109.374L69.2598 108.854V103.554L70.1698 101.994L73.8398 99.8743L74.7498 100.394V105.694Z" fill="white"/>
<path d="M77.5905 105.105L76.7206 105.605V99.6151L76.4205 100.135L75.8105 99.7851L76.7206 98.2151L77.5905 97.7151V105.105Z" fill="white"/>
<path d="M83.3309 100.345V95.8651L82.9409 95.6351L79.9509 97.3651L79.5709 98.0251V102.495L79.9509 102.725L82.9409 100.995L83.3109 100.335L83.3309 100.345ZM84.2009 100.245L83.2909 101.815L79.6209 103.935L78.7109 103.415V98.1151L79.6209 96.5551L83.2909 94.425L84.2009 94.9451V100.245Z" fill="white"/>
<path d="M87.04 99.6451L86.17 100.155V94.1651L85.87 94.6851L85.25 94.3251L86.17 92.7551L87.04 92.2551V99.6451Z" fill="white"/>
<path d="M89.9109 97.995L89.0408 98.495V92.505L88.7409 93.025L88.1309 92.675L89.0408 91.105L89.9109 90.595V97.995Z" fill="white"/>
<path d="M73.8798 116.885V112.405L73.4898 112.175L70.4998 113.905L70.1198 114.565V119.035L70.5098 119.265L73.4998 117.545L73.8698 116.885H73.8798ZM74.7498 116.785L73.8398 118.355L70.1698 120.475L69.2598 119.955V114.655L70.1698 113.085L73.8398 110.965L74.7498 111.485V116.785Z" fill="white"/>
<path d="M77.5905 116.194L76.7206 116.694V110.704L76.4205 111.224L75.8105 110.864L76.7206 109.304L77.5905 108.794V116.194Z" fill="white"/>
<path d="M80.4597 114.535L79.5897 115.035V109.045L79.2897 109.565L78.6797 109.215L79.5897 107.645L80.4597 107.145V114.535Z" fill="white"/>
<path d="M86.2003 109.765V105.295L85.8103 105.065L82.8203 106.795L82.4403 107.445V111.925L82.8303 112.165L85.8203 110.435L86.2003 109.775V109.765ZM87.0703 109.665L86.1603 111.245L82.4903 113.365L81.5703 112.845V107.545L82.4903 105.975L86.1603 103.855L87.0703 104.375V109.675V109.665Z" fill="white"/>
<path d="M89.9109 109.075L89.0408 109.575V103.595L88.7409 104.105L88.1309 103.755L89.0408 102.185L89.9109 101.685V109.075Z" fill="white"/>
<path d="M37.1006 87.4247L36.2305 86.9147V80.9346L35.9305 81.1047L35.3105 80.0347L36.2305 79.5247L37.1006 80.0247V87.4247Z" fill="white"/>
<path d="M42.8312 89.2843V84.8044L42.4412 84.1243L39.4512 82.3943L39.0812 82.6143V87.0943L39.4712 87.7744L42.4612 89.5043L42.8312 89.2744V89.2843ZM43.7012 90.1944L42.7912 90.7144L39.1112 88.5943L38.2012 87.0244V81.7243L39.1112 81.2043L42.7912 83.3244L43.7012 84.8943V90.1944Z" fill="white"/>
<path d="M46.5498 92.8746L45.6798 92.3746V86.3846L45.3698 86.5546L44.7598 85.4946L45.6798 84.9846L46.5498 85.4846V92.8746Z" fill="white"/>
<path d="M49.4206 94.5345L48.5506 94.0345V88.0445L48.2506 88.2145L47.6406 87.1545L48.5506 86.6445L49.4206 87.1445V94.5345Z" fill="white"/>
<path d="M55.161 96.3949V91.9249L54.771 91.2449L51.781 89.5149L51.411 89.7449V94.2249L51.791 94.9049L54.781 96.6349L55.151 96.4049L55.161 96.3949ZM56.031 97.3049L55.121 97.8249L51.451 95.7049L50.541 94.1349V88.8249L51.451 88.3049L55.121 90.4249L56.031 91.9949V97.2949V97.3049Z" fill="white"/>
<path d="M39.9601 98.7043V94.2243L39.5701 93.5443L36.5801 91.8243L36.2001 92.0543V96.5243L36.5901 97.2143L39.5801 98.9343L39.9501 98.7043H39.9601ZM40.8301 99.6143L39.9201 100.134L36.2401 98.0143L35.3301 96.4443V91.1443L36.2401 90.6243L39.9201 92.7443L40.8301 94.3143V99.6143Z" fill="white"/>
<path d="M43.6806 102.304L42.8006 101.794V95.8143L42.5006 95.9843L41.8906 94.9143L42.8006 94.4143L43.6806 94.9143V102.304Z" fill="white"/>
<path d="M49.411 104.164V99.6842L49.031 99.0042L46.041 97.2842L45.661 97.5142V101.994L46.051 102.674L49.041 104.394L49.421 104.164H49.411ZM50.281 105.074L49.371 105.594L45.701 103.474L44.791 101.904V96.6042L45.701 96.0842L49.371 98.2042L50.281 99.7642V105.064V105.074Z" fill="white"/>
<path d="M53.1299 107.755L52.2498 107.255V101.275L51.9498 101.445L51.3398 100.375L52.2498 99.8647L53.1299 100.365V107.755Z" fill="white"/>
<path d="M56.0009 109.415L55.1309 108.915V102.925L54.8209 103.105L54.2109 102.035L55.1309 101.525L56.0009 102.025V109.415Z" fill="white"/>
<path d="M39.9601 109.794V105.314L39.5701 104.634L36.5801 102.904L36.2001 103.134V107.604L36.5901 108.284L39.5801 110.004L39.9501 109.784L39.9601 109.794ZM40.8301 110.704L39.9201 111.214L36.2401 109.094L35.3301 107.524V102.224L36.2401 101.704L39.9201 103.824L40.8301 105.394V110.704Z" fill="white"/>
<path d="M43.6806 113.384L42.8006 112.884V106.904L42.5006 107.074L41.8906 106.014L42.8006 105.494L43.6806 105.994V113.384Z" fill="white"/>
<path d="M46.5498 115.045L45.6798 114.545V108.555L45.3698 108.725L44.7598 107.665L45.6798 107.155L46.5498 107.655V115.045Z" fill="white"/>
<path d="M52.2802 116.905V112.425L51.9001 111.745L48.9102 110.015L48.5302 110.245V114.725L48.9202 115.405L51.9102 117.125L52.2802 116.905ZM53.1501 117.815L52.2402 118.325L48.5702 116.205L47.6602 114.635V109.335L48.5702 108.815L52.2402 110.935L53.1501 112.505V117.805V117.815Z" fill="white"/>
<path d="M56.0009 120.495L55.1309 120.005V114.015L54.8209 114.185L54.2109 113.125L55.1309 112.605L56.0009 113.105V120.495Z" fill="white"/>
<path opacity="0.3" d="M155.81 150.244V146.644L129.03 131.174H122.8L96.0098 146.644V150.244L122.8 165.704H129.03L155.81 150.244Z" fill="black"/>
<path d="M92.9004 110.324L96.0104 104.924L98.5004 106.584L96.3204 111.494L92.9004 110.324Z" fill="#150035"/>
<path d="M155.811 104.924L158.941 110.324L156.791 111.424L153.471 107.444L155.811 104.924Z" fill="#150035"/>
<path d="M129.021 157.554H122.801V162.104H129.021V157.554Z" fill="#150035"/>
<path d="M130.461 122.794H121.811V129.864H130.461V122.794Z" fill="#150035"/>
<path d="M122.252 124.533L125.17 129.585V159.862L122.8 161.237L96.5593 146.085L93.6504 141.053V110.756L96.0109 109.39L122.252 124.533Z" fill="#DE5656" stroke="#150035" stroke-width="1.5"/>
<path d="M155.811 109.389L158.19 110.758V141.052L155.272 146.084L129.031 161.237L126.67 159.862V129.584L129.579 124.533L155.811 109.389Z" fill="#DE5656" stroke="#150035" stroke-width="1.5"/>
<path d="M128.762 90.4641L154.81 105.501V107.947L128.762 122.984H123.068L97.0098 107.947V105.502L123.068 90.4641H128.762Z" fill="#DE5656" stroke="#150035" stroke-width="2"/>
<path d="M124.06 97.8645L123.18 97.3645L128.37 94.3645H127.77V93.6545L129.59 93.6745L130.46 94.1745L124.06 97.8645Z" fill="white"/>
<path d="M131.05 100.454L134.93 98.2142V97.7642L131.95 96.0442H131.19L127.31 98.2842V98.7342L130.29 100.464H131.05V100.454ZM131.57 101.154H129.75L126.08 99.0342V97.9842L130.67 95.3342H132.49L136.16 97.4642V98.5142L131.58 101.164L131.57 101.154Z" fill="white"/>
<path d="M133.509 103.325L132.629 102.814L137.819 99.8245H137.219V99.1145L139.029 99.1245L139.899 99.6245L133.509 103.325Z" fill="white"/>
<path d="M136.38 104.975L135.5 104.475L140.69 101.485H140.09V100.775L141.9 100.785L142.77 101.285L136.38 104.975Z" fill="white"/>
<path d="M143.37 107.565L147.25 105.325V104.875L144.27 103.155H143.51L139.63 105.395V105.845L142.61 107.575H143.37V107.565ZM143.89 108.275H142.07L138.4 106.145V105.095L142.99 102.445H144.8L148.47 104.575V105.625L143.89 108.275Z" fill="white"/>
<path d="M118.579 104.334L122.449 102.104V101.654L119.469 99.9341H118.709L114.829 102.174V102.624L117.809 104.344H118.569L118.579 104.334ZM119.089 105.044H117.279L113.609 102.914V101.864L118.189 99.2141H119.999L123.669 101.334V102.384L119.079 105.034L119.089 105.044Z" fill="white"/>
<path d="M121.03 107.204L120.16 106.704L125.34 103.714H124.74L124.75 103.004H126.56L127.43 103.504L121.03 107.204Z" fill="white"/>
<path d="M128.029 109.794L131.899 107.554V107.104L128.919 105.374H128.159L124.279 107.614V108.064L127.259 109.784H128.019L128.029 109.794ZM128.549 110.504H126.729L123.049 108.374V107.324L127.629 104.674H129.449L133.119 106.804V107.854L128.539 110.504H128.549Z" fill="white"/>
<path d="M130.479 112.665L129.609 112.165L134.789 109.165H134.189V108.455L136.009 108.465L136.879 108.965L130.479 112.665Z" fill="white"/>
<path d="M133.35 114.325L132.48 113.814L137.67 110.825H137.06L137.07 110.115L138.88 110.124L139.75 110.624L133.35 114.325Z" fill="white"/>
<path d="M108.98 109.885L112.86 107.645V107.195L109.88 105.465H109.12L105.25 107.705V108.155L108.23 109.875H108.99L108.98 109.885ZM109.5 110.595H107.68L104.01 108.465V107.415L108.59 104.765H110.41L114.08 106.885V107.935L109.5 110.585V110.595Z" fill="white"/>
<path d="M111.431 112.744L110.561 112.244L115.741 109.254H115.141L115.151 108.544L116.961 108.554L117.831 109.054L111.431 112.744Z" fill="white"/>
<path d="M114.3 114.405L113.43 113.905L118.62 110.915H118.01L118.02 110.195L119.83 110.205L120.7 110.715L114.3 114.405Z" fill="white"/>
<path d="M121.3 116.995L125.17 114.755V114.305L122.19 112.575H121.43L117.56 114.814V115.264L120.54 116.984H121.3V116.995ZM121.82 117.695H120L116.33 115.564V114.514L120.91 111.865H122.73L126.4 113.984V115.035L121.82 117.684V117.695Z" fill="white"/>
<path d="M123.749 119.855L122.879 119.355L128.059 116.365H127.469V115.655L129.279 115.665L130.149 116.165L123.749 119.855Z" fill="white"/>
<path d="M134.02 132.815L133.14 133.315V127.335L132.84 127.855L132.23 127.495L133.14 125.925L134.02 125.425V132.815Z" fill="white"/>
<path d="M139.751 128.055V123.575L139.361 123.345L136.371 125.065L135.991 125.725V130.205L136.381 130.435L139.371 128.715L139.751 128.055ZM140.621 127.955L139.711 129.525L136.041 131.645L135.131 131.135V125.835L136.041 124.265L139.711 122.145L140.621 122.665V127.965V127.955Z" fill="white"/>
<path d="M143.46 127.365L142.59 127.865V121.875L142.29 122.395L141.68 122.035L142.59 120.475L143.46 119.965V127.365Z" fill="white"/>
<path d="M146.341 125.705L145.461 126.205V120.215L145.171 120.735L144.551 120.385L145.461 118.815L146.341 118.315V125.705Z" fill="white"/>
<path d="M152.071 120.945V116.465L151.681 116.235L148.691 117.965L148.311 118.625V123.105L148.701 123.345L151.691 121.615L152.071 120.955V120.945ZM152.941 120.845L152.031 122.415L148.361 124.535L147.451 124.015V118.715L148.361 117.145L152.031 115.025L152.941 115.545V120.845Z" fill="white"/>
<path d="M136.88 140.794V136.314L136.49 136.084L133.5 137.804L133.12 138.464V142.934L133.51 143.174L136.5 141.454L136.87 140.794H136.88ZM137.75 140.694L136.84 142.264L133.17 144.374L132.26 143.854V138.554L133.17 136.994L136.84 134.874L137.75 135.394V140.694Z" fill="white"/>
<path d="M140.591 140.105L139.721 140.605V134.615L139.421 135.135L138.811 134.785L139.721 133.215L140.591 132.715V140.105Z" fill="white"/>
<path d="M146.331 135.345V130.865L145.941 130.635L142.951 132.365L142.571 133.025V137.495L142.951 137.725L145.941 135.995L146.311 135.335L146.331 135.345ZM147.201 135.245L146.291 136.815L142.621 138.935L141.711 138.415V133.115L142.621 131.555L146.291 129.425L147.201 129.945V135.245Z" fill="white"/>
<path d="M150.04 134.645L149.17 135.155V129.165L148.87 129.685L148.25 129.325L149.17 127.755L150.04 127.255V134.645Z" fill="white"/>
<path d="M152.911 132.995L152.041 133.495V127.505L151.741 128.025L151.131 127.675L152.041 126.105L152.911 125.595V132.995Z" fill="white"/>
<path d="M136.88 151.885V147.405L136.49 147.175L133.5 148.905L133.12 149.565V154.035L133.51 154.265L136.5 152.545L136.87 151.885H136.88ZM137.75 151.785L136.84 153.355L133.17 155.475L132.26 154.955V149.655L133.17 148.085L136.84 145.965L137.75 146.485V151.785Z" fill="white"/>
<path d="M140.591 151.194L139.721 151.694V145.704L139.421 146.224L138.811 145.864L139.721 144.304L140.591 143.794V151.194Z" fill="white"/>
<path d="M143.46 149.535L142.59 150.035V144.045L142.29 144.565L141.68 144.215L142.59 142.645L143.46 142.145V149.535Z" fill="white"/>
<path d="M149.2 144.765V140.295L148.81 140.065L145.82 141.795L145.44 142.445V146.925L145.83 147.165L148.82 145.435L149.2 144.775V144.765ZM150.07 144.665L149.16 146.245L145.49 148.365L144.57 147.845V142.545L145.49 140.975L149.16 138.855L150.07 139.375V144.675V144.665Z" fill="white"/>
<path d="M152.911 144.075L152.041 144.575V138.595L151.741 139.105L151.131 138.755L152.041 137.185L152.911 136.685V144.075Z" fill="white"/>
<path d="M100.101 122.425L99.2305 121.915V115.935L98.9305 116.105L98.3105 115.035L99.2305 114.525L100.101 115.025V122.425Z" fill="white"/>
<path d="M105.831 124.284V119.804L105.441 119.124L102.451 117.394L102.081 117.614V122.094L102.471 122.774L105.461 124.504L105.831 124.274V124.284ZM106.701 125.194L105.791 125.714L102.111 123.594L101.201 122.024V116.724L102.111 116.204L105.791 118.324L106.701 119.894V125.194Z" fill="white"/>
<path d="M109.55 127.875L108.68 127.375V121.385L108.37 121.555L107.76 120.495L108.68 119.985L109.55 120.485V127.875Z" fill="white"/>
<path d="M112.421 129.535L111.551 129.035V123.045L111.251 123.215L110.641 122.155L111.551 121.645L112.421 122.145V129.535Z" fill="white"/>
<path d="M118.161 131.395V126.925L117.771 126.245L114.781 124.515L114.411 124.745V129.225L114.791 129.905L117.781 131.635L118.151 131.405L118.161 131.395ZM119.031 132.305L118.121 132.825L114.451 130.705L113.541 129.135V123.825L114.451 123.305L118.121 125.425L119.031 126.995V132.295V132.305Z" fill="white"/>
<path d="M102.96 133.704V129.224L102.57 128.544L99.5801 126.824L99.2001 127.054V131.524L99.5901 132.214L102.58 133.934L102.95 133.704H102.96ZM103.83 134.614L102.92 135.134L99.2401 133.014L98.3301 131.444V126.144L99.2401 125.624L102.92 127.744L103.83 129.314V134.614Z" fill="white"/>
<path d="M106.681 137.304L105.801 136.794V130.814L105.501 130.984L104.891 129.914L105.801 129.414L106.681 129.914V137.304Z" fill="white"/>
<path d="M112.411 139.164V134.684L112.031 134.004L109.041 132.284L108.661 132.514V136.994L109.051 137.674L112.041 139.394L112.421 139.164H112.411ZM113.281 140.074L112.371 140.594L108.701 138.474L107.791 136.904V131.604L108.701 131.084L112.371 133.204L113.281 134.764V140.064V140.074Z" fill="white"/>
<path d="M116.13 142.755L115.25 142.255V136.275L114.95 136.445L114.34 135.375L115.25 134.865L116.13 135.365V142.755Z" fill="white"/>
<path d="M119.001 144.415L118.131 143.915V137.925L117.821 138.105L117.211 137.035L118.131 136.525L119.001 137.025V144.415Z" fill="white"/>
<path d="M102.96 144.794V140.314L102.57 139.634L99.5801 137.904L99.2001 138.134V142.604L99.5901 143.284L102.58 145.004L102.95 144.784L102.96 144.794ZM103.83 145.704L102.92 146.214L99.2401 144.094L98.3301 142.524V137.224L99.2401 136.704L102.92 138.824L103.83 140.394V145.704Z" fill="white"/>
<path d="M106.681 148.384L105.801 147.884V141.904L105.501 142.074L104.891 141.014L105.801 140.494L106.681 140.994V148.384Z" fill="white"/>
<path d="M109.55 150.045L108.68 149.545V143.555L108.37 143.725L107.76 142.665L108.68 142.155L109.55 142.655V150.045Z" fill="white"/>
<path d="M115.28 151.905V147.425L114.9 146.745L111.91 145.015L111.53 145.245V149.725L111.92 150.405L114.91 152.125L115.28 151.905ZM116.15 152.815L115.24 153.325L111.57 151.205L110.66 149.635V144.335L111.57 143.815L115.24 145.935L116.15 147.505V152.805V152.815Z" fill="white"/>
<path d="M119.001 155.495L118.131 155.005V149.015L117.821 149.185L117.211 148.125L118.131 147.605L119.001 148.105V155.495Z" fill="white"/>
<path opacity="0.3" d="M218.81 182.244V178.644L192.03 163.174H185.8L159.01 178.644V182.244L185.8 197.704H192.03L218.81 182.244Z" fill="black"/>
<path d="M155.9 142.324L159.01 136.924L161.5 138.584L159.32 143.494L155.9 142.324Z" fill="#150035"/>
<path d="M218.811 136.924L221.941 142.324L219.791 143.424L216.471 139.444L218.811 136.924Z" fill="#150035"/>
<path d="M192.021 189.554H185.801V194.104H192.021V189.554Z" fill="#150035"/>
<path d="M193.461 154.794H184.811V161.864H193.461V154.794Z" fill="#150035"/>
<path d="M185.252 156.533L188.17 161.585V191.862L185.8 193.237L159.559 178.085L156.65 173.053V142.756L159.011 141.39L185.252 156.533Z" fill="#DE5656" stroke="#150035" stroke-width="1.5"/>
<path d="M218.811 141.389L221.19 142.758V173.052L218.272 178.084L192.031 193.237L189.67 191.862V161.584L192.579 156.533L218.811 141.389Z" fill="#DE5656" stroke="#150035" stroke-width="1.5"/>
<path d="M191.762 122.464L217.81 137.501V139.947L191.762 154.984H186.068L160.01 139.947V137.502L186.068 122.464H191.762Z" fill="#DE5656" stroke="#150035" stroke-width="2"/>
<path d="M187.06 129.865L186.18 129.365L191.37 126.365H190.77V125.655L192.59 125.675L193.46 126.175L187.06 129.865Z" fill="white"/>
<path d="M194.05 132.454L197.93 130.214V129.764L194.95 128.044H194.19L190.31 130.284V130.734L193.29 132.464H194.05V132.454ZM194.57 133.154H192.75L189.08 131.034V129.984L193.67 127.334H195.49L199.16 129.464V130.514L194.58 133.164L194.57 133.154Z" fill="white"/>
<path d="M196.509 135.325L195.629 134.814L200.819 131.825H200.219V131.115L202.029 131.124L202.899 131.624L196.509 135.325Z" fill="white"/>
<path d="M199.38 136.975L198.5 136.475L203.69 133.485H203.09V132.775L204.9 132.785L205.77 133.285L199.38 136.975Z" fill="white"/>
<path d="M206.37 139.565L210.25 137.325V136.875L207.27 135.155H206.51L202.63 137.395V137.845L205.61 139.575H206.37V139.565ZM206.89 140.275H205.07L201.4 138.145V137.095L205.99 134.445H207.8L211.47 136.575V137.625L206.89 140.275Z" fill="white"/>
<path d="M181.579 136.334L185.449 134.104V133.654L182.469 131.934H181.709L177.829 134.174V134.624L180.809 136.344H181.569L181.579 136.334ZM182.089 137.044H180.279L176.609 134.914V133.864L181.189 131.214H182.999L186.669 133.334V134.384L182.079 137.034L182.089 137.044Z" fill="white"/>
<path d="M184.03 139.204L183.16 138.704L188.34 135.714H187.74L187.75 135.004H189.56L190.43 135.504L184.03 139.204Z" fill="white"/>
<path d="M191.031 141.794L194.901 139.554V139.104L191.921 137.374H191.161L187.281 139.614V140.064L190.261 141.784H191.021L191.031 141.794ZM191.551 142.504H189.731L186.051 140.374V139.324L190.631 136.674H192.451L196.121 138.804V139.854L191.541 142.504H191.551Z" fill="white"/>
<path d="M193.479 144.665L192.609 144.165L197.789 141.165H197.189V140.455L199.009 140.465L199.879 140.965L193.479 144.665Z" fill="white"/>
<path d="M196.35 146.325L195.48 145.814L200.67 142.825H200.06L200.07 142.115L201.88 142.124L202.75 142.624L196.35 146.325Z" fill="white"/>
<path d="M171.98 141.885L175.86 139.645V139.195L172.88 137.465H172.12L168.25 139.705V140.155L171.23 141.875H171.99L171.98 141.885ZM172.5 142.595H170.68L167.01 140.465V139.415L171.59 136.765H173.41L177.08 138.885V139.935L172.5 142.585V142.595Z" fill="white"/>
<path d="M174.431 144.744L173.561 144.244L178.741 141.254H178.141L178.151 140.544L179.961 140.554L180.831 141.054L174.431 144.744Z" fill="white"/>
<path d="M177.3 146.405L176.43 145.905L181.62 142.915H181.01L181.02 142.195L182.83 142.205L183.7 142.715L177.3 146.405Z" fill="white"/>
<path d="M184.3 148.995L188.17 146.755V146.305L185.19 144.575H184.43L180.56 146.814V147.264L183.54 148.984H184.3V148.995ZM184.82 149.695H183L179.33 147.564V146.514L183.91 143.865H185.73L189.4 145.984V147.035L184.82 149.684V149.695Z" fill="white"/>
<path d="M186.749 151.855L185.879 151.355L191.059 148.365H190.469V147.655L192.279 147.665L193.149 148.165L186.749 151.855Z" fill="white"/>
<path d="M197.02 164.815L196.14 165.315V159.335L195.84 159.855L195.23 159.495L196.14 157.925L197.02 157.425V164.815Z" fill="white"/>
<path d="M202.751 160.055V155.575L202.361 155.345L199.371 157.065L198.991 157.725V162.205L199.381 162.435L202.371 160.715L202.751 160.055ZM203.621 159.955L202.711 161.525L199.041 163.645L198.131 163.135V157.835L199.041 156.265L202.711 154.145L203.621 154.665V159.965V159.955Z" fill="white"/>
<path d="M206.46 159.365L205.59 159.865V153.875L205.29 154.395L204.68 154.035L205.59 152.475L206.46 151.965V159.365Z" fill="white"/>
<path d="M209.341 157.705L208.461 158.205V152.215L208.171 152.735L207.551 152.385L208.461 150.815L209.341 150.315V157.705Z" fill="white"/>
<path d="M215.071 152.945V148.465L214.681 148.235L211.691 149.965L211.311 150.625V155.105L211.701 155.345L214.691 153.615L215.071 152.955V152.945ZM215.941 152.845L215.031 154.415L211.361 156.535L210.451 156.015V150.715L211.361 149.145L215.031 147.025L215.941 147.545V152.845Z" fill="white"/>
<path d="M199.88 172.794V168.314L199.49 168.084L196.5 169.804L196.12 170.464V174.934L196.51 175.174L199.5 173.454L199.87 172.794H199.88ZM200.75 172.694L199.84 174.264L196.17 176.374L195.26 175.854V170.554L196.17 168.994L199.84 166.874L200.75 167.394V172.694Z" fill="white"/>
<path d="M203.591 172.105L202.721 172.605V166.615L202.421 167.135L201.811 166.785L202.721 165.215L203.591 164.715V172.105Z" fill="white"/>
<path d="M209.331 167.345V162.865L208.941 162.635L205.951 164.365L205.571 165.025V169.495L205.951 169.725L208.941 167.995L209.311 167.335L209.331 167.345ZM210.201 167.245L209.291 168.815L205.621 170.935L204.711 170.415V165.115L205.621 163.555L209.291 161.425L210.201 161.945V167.245Z" fill="white"/>
<path d="M213.04 166.645L212.17 167.155V161.165L211.87 161.685L211.25 161.325L212.17 159.755L213.04 159.255V166.645Z" fill="white"/>
<path d="M215.911 164.995L215.041 165.495V159.505L214.741 160.025L214.131 159.675L215.041 158.105L215.911 157.595V164.995Z" fill="white"/>
<path d="M199.88 183.885V179.405L199.49 179.175L196.5 180.905L196.12 181.565V186.035L196.51 186.265L199.5 184.545L199.87 183.885H199.88ZM200.75 183.785L199.84 185.355L196.17 187.475L195.26 186.955V181.655L196.17 180.085L199.84 177.965L200.75 178.485V183.785Z" fill="white"/>
<path d="M203.591 183.194L202.721 183.694V177.704L202.421 178.224L201.811 177.864L202.721 176.304L203.591 175.794V183.194Z" fill="white"/>
<path d="M206.46 181.535L205.59 182.035V176.045L205.29 176.565L204.68 176.215L205.59 174.645L206.46 174.145V181.535Z" fill="white"/>
<path d="M212.2 176.765V172.295L211.81 172.065L208.82 173.795L208.44 174.445V178.925L208.83 179.165L211.82 177.435L212.2 176.775V176.765ZM213.07 176.665L212.16 178.245L208.49 180.365L207.57 179.845V174.545L208.49 172.975L212.16 170.855L213.07 171.375V176.675V176.665Z" fill="white"/>
<path d="M215.911 176.075L215.041 176.575V170.595L214.741 171.105L214.131 170.755L215.041 169.185L215.911 168.685V176.075Z" fill="white"/>
<path d="M163.101 154.425L162.231 153.915V147.935L161.931 148.105L161.311 147.035L162.231 146.525L163.101 147.025V154.425Z" fill="white"/>
<path d="M168.831 156.284V151.804L168.441 151.124L165.451 149.394L165.081 149.614V154.094L165.471 154.774L168.461 156.504L168.831 156.274V156.284ZM169.701 157.194L168.791 157.714L165.111 155.594L164.201 154.024V148.724L165.111 148.204L168.791 150.324L169.701 151.894V157.194Z" fill="white"/>
<path d="M172.55 159.875L171.68 159.375V153.385L171.37 153.555L170.76 152.495L171.68 151.985L172.55 152.485V159.875Z" fill="white"/>
<path d="M175.421 161.535L174.551 161.035V155.045L174.251 155.215L173.641 154.155L174.551 153.645L175.421 154.145V161.535Z" fill="white"/>
<path d="M181.161 163.395V158.925L180.771 158.245L177.781 156.515L177.411 156.745V161.225L177.791 161.905L180.781 163.635L181.151 163.405L181.161 163.395ZM182.031 164.305L181.121 164.825L177.451 162.705L176.541 161.135V155.825L177.451 155.305L181.121 157.425L182.031 158.995V164.295V164.305Z" fill="white"/>
<path d="M165.96 165.704V161.224L165.57 160.544L162.58 158.824L162.2 159.054V163.524L162.59 164.214L165.58 165.934L165.95 165.704H165.96ZM166.83 166.614L165.92 167.134L162.24 165.014L161.33 163.444V158.144L162.24 157.624L165.92 159.744L166.83 161.314V166.614Z" fill="white"/>
<path d="M169.681 169.304L168.801 168.794V162.814L168.501 162.984L167.891 161.914L168.801 161.414L169.681 161.914V169.304Z" fill="white"/>
<path d="M175.411 171.164V166.684L175.031 166.004L172.041 164.284L171.661 164.514V168.994L172.051 169.674L175.041 171.394L175.421 171.164H175.411ZM176.281 172.074L175.371 172.594L171.701 170.474L170.791 168.904V163.604L171.701 163.084L175.371 165.204L176.281 166.764V172.064V172.074Z" fill="white"/>
<path d="M179.13 174.755L178.25 174.255V168.275L177.95 168.445L177.34 167.375L178.25 166.865L179.13 167.365V174.755Z" fill="white"/>
<path d="M182.001 176.415L181.131 175.915V169.925L180.821 170.105L180.211 169.035L181.131 168.525L182.001 169.025V176.415Z" fill="white"/>
<path d="M165.96 176.794V172.314L165.57 171.634L162.58 169.904L162.2 170.134V174.604L162.59 175.284L165.58 177.004L165.95 176.784L165.96 176.794ZM166.83 177.704L165.92 178.214L162.24 176.094L161.33 174.524V169.224L162.24 168.704L165.92 170.824L166.83 172.394V177.704Z" fill="white"/>
<path d="M169.681 180.384L168.801 179.884V173.904L168.501 174.074L167.891 173.014L168.801 172.494L169.681 172.994V180.384Z" fill="white"/>
<path d="M172.55 182.045L171.68 181.545V175.555L171.37 175.725L170.76 174.665L171.68 174.155L172.55 174.655V182.045Z" fill="white"/>
<path d="M178.28 183.905V179.425L177.9 178.745L174.91 177.015L174.53 177.245V181.725L174.92 182.405L177.91 184.125L178.28 183.905ZM179.15 184.815L178.24 185.325L174.57 183.205L173.66 181.635V176.335L174.57 175.815L178.24 177.935L179.15 179.505V184.805V184.815Z" fill="white"/>
<path d="M182.001 187.495L181.131 187.005V181.015L180.821 181.185L180.211 180.125L181.131 179.605L182.001 180.105V187.495Z" fill="white"/>
<path opacity="0.3" d="M281.81 213.244V209.644L255.03 194.174H248.8L222.01 209.644V213.244L248.8 228.704H255.03L281.81 213.244Z" fill="black"/>
<path d="M218.9 173.324L222.01 167.924L224.5 169.584L222.32 174.494L218.9 173.324Z" fill="#150035"/>
<path d="M281.811 167.924L284.941 173.324L282.791 174.424L279.471 170.444L281.811 167.924Z" fill="#150035"/>
<path d="M255.021 220.554H248.801V225.104H255.021V220.554Z" fill="#150035"/>
<path d="M256.461 185.794H247.811V192.864H256.461V185.794Z" fill="#150035"/>
<path d="M248.252 187.533L251.17 192.585V222.862L248.8 224.237L222.559 209.085L219.65 204.053V173.756L222.011 172.39L248.252 187.533Z" fill="#DE5656" stroke="#150035" stroke-width="1.5"/>
<path d="M281.811 172.389L284.19 173.758V204.052L281.272 209.084L255.031 224.237L252.67 222.862V192.584L255.579 187.533L281.811 172.389Z" fill="#DE5656" stroke="#150035" stroke-width="1.5"/>
<path d="M254.762 153.464L280.81 168.501V170.947L254.762 185.984H249.068L223.01 170.947V168.502L249.068 153.464H254.762Z" fill="#DE5656" stroke="#150035" stroke-width="2"/>
<path d="M250.06 160.865L249.18 160.365L254.37 157.365H253.77V156.655L255.59 156.675L256.46 157.175L250.06 160.865Z" fill="white"/>
<path d="M257.05 163.454L260.93 161.214V160.764L257.95 159.044H257.19L253.31 161.284V161.734L256.29 163.464H257.05V163.454ZM257.57 164.154H255.75L252.08 162.034V160.984L256.67 158.334H258.49L262.16 160.464V161.514L257.58 164.164L257.57 164.154Z" fill="white"/>
<path d="M259.509 166.325L258.629 165.814L263.819 162.825H263.219V162.115L265.029 162.124L265.899 162.624L259.509 166.325Z" fill="white"/>
<path d="M262.38 167.975L261.5 167.475L266.69 164.485H266.09V163.775L267.9 163.785L268.77 164.285L262.38 167.975Z" fill="white"/>
<path d="M269.37 170.565L273.25 168.325V167.875L270.27 166.155H269.51L265.63 168.395V168.845L268.61 170.575H269.37V170.565ZM269.89 171.275H268.07L264.4 169.145V168.095L268.99 165.445H270.8L274.47 167.575V168.625L269.89 171.275Z" fill="white"/>
<path d="M244.579 167.334L248.449 165.104V164.654L245.469 162.934H244.709L240.829 165.174V165.624L243.809 167.344H244.569L244.579 167.334ZM245.089 168.044H243.279L239.609 165.914V164.864L244.189 162.214H245.999L249.669 164.334V165.384L245.079 168.034L245.089 168.044Z" fill="white"/>
<path d="M247.03 170.204L246.16 169.704L251.34 166.714H250.74L250.75 166.004H252.56L253.43 166.504L247.03 170.204Z" fill="white"/>
<path d="M254.029 172.794L257.899 170.554V170.104L254.919 168.374H254.159L250.279 170.614V171.064L253.259 172.784H254.019L254.029 172.794ZM254.549 173.504H252.729L249.049 171.374V170.324L253.629 167.674H255.449L259.119 169.804V170.854L254.539 173.504H254.549Z" fill="white"/>
<path d="M256.479 175.665L255.609 175.165L260.789 172.165H260.189V171.455L262.009 171.465L262.879 171.965L256.479 175.665Z" fill="white"/>
<path d="M259.35 177.325L258.48 176.814L263.67 173.825H263.06L263.07 173.115L264.88 173.124L265.75 173.624L259.35 177.325Z" fill="white"/>
<path d="M234.98 172.885L238.86 170.645V170.195L235.88 168.465H235.12L231.25 170.705V171.155L234.23 172.875H234.99L234.98 172.885ZM235.5 173.595H233.68L230.01 171.465V170.415L234.59 167.765H236.41L240.08 169.885V170.935L235.5 173.585V173.595Z" fill="white"/>
<path d="M237.431 175.744L236.561 175.244L241.741 172.254H241.141L241.151 171.544L242.961 171.554L243.831 172.054L237.431 175.744Z" fill="white"/>
<path d="M240.3 177.405L239.43 176.905L244.62 173.915H244.01L244.02 173.195L245.83 173.205L246.7 173.715L240.3 177.405Z" fill="white"/>
<path d="M247.3 179.995L251.17 177.755V177.305L248.19 175.575H247.43L243.56 177.814V178.264L246.54 179.984H247.3V179.995ZM247.82 180.695H246L242.33 178.564V177.514L246.91 174.865H248.73L252.4 176.984V178.035L247.82 180.684V180.695Z" fill="white"/>
<path d="M249.749 182.855L248.879 182.355L254.059 179.365H253.469V178.655L255.279 178.665L256.149 179.165L249.749 182.855Z" fill="white"/>
<path d="M260.02 195.815L259.14 196.315V190.335L258.84 190.855L258.23 190.495L259.14 188.925L260.02 188.425V195.815Z" fill="white"/>
<path d="M265.751 191.055V186.575L265.361 186.345L262.371 188.065L261.991 188.725V193.205L262.381 193.435L265.371 191.715L265.751 191.055ZM266.621 190.955L265.711 192.525L262.041 194.645L261.131 194.135V188.835L262.041 187.265L265.711 185.145L266.621 185.665V190.965V190.955Z" fill="white"/>
<path d="M269.46 190.365L268.59 190.865V184.875L268.29 185.395L267.68 185.035L268.59 183.475L269.46 182.965V190.365Z" fill="white"/>
<path d="M272.341 188.705L271.461 189.205V183.215L271.171 183.735L270.551 183.385L271.461 181.815L272.341 181.315V188.705Z" fill="white"/>
<path d="M278.071 183.945V179.465L277.681 179.235L274.691 180.965L274.311 181.625V186.105L274.701 186.345L277.691 184.615L278.071 183.955V183.945ZM278.941 183.845L278.031 185.415L274.361 187.535L273.451 187.015V181.715L274.361 180.145L278.031 178.025L278.941 178.545V183.845Z" fill="white"/>
<path d="M262.88 203.794V199.314L262.49 199.084L259.5 200.804L259.12 201.464V205.934L259.51 206.174L262.5 204.454L262.87 203.794H262.88ZM263.75 203.694L262.84 205.264L259.17 207.374L258.26 206.854V201.554L259.17 199.994L262.84 197.874L263.75 198.394V203.694Z" fill="white"/>
<path d="M266.591 203.105L265.721 203.605V197.615L265.421 198.135L264.811 197.785L265.721 196.215L266.591 195.715V203.105Z" fill="white"/>
<path d="M272.331 198.345V193.865L271.941 193.635L268.951 195.365L268.571 196.025V200.495L268.951 200.725L271.941 198.995L272.311 198.335L272.331 198.345ZM273.201 198.245L272.291 199.815L268.621 201.935L267.711 201.415V196.115L268.621 194.555L272.291 192.425L273.201 192.945V198.245Z" fill="white"/>
<path d="M276.04 197.645L275.17 198.155V192.165L274.87 192.685L274.25 192.325L275.17 190.755L276.04 190.255V197.645Z" fill="white"/>
<path d="M278.911 195.995L278.041 196.495V190.505L277.741 191.025L277.131 190.675L278.041 189.105L278.911 188.595V195.995Z" fill="white"/>
<path d="M262.88 214.885V210.405L262.49 210.175L259.5 211.905L259.12 212.565V217.035L259.51 217.265L262.5 215.545L262.87 214.885H262.88ZM263.75 214.785L262.84 216.355L259.17 218.475L258.26 217.955V212.655L259.17 211.085L262.84 208.965L263.75 209.485V214.785Z" fill="white"/>
<path d="M266.591 214.194L265.721 214.694V208.704L265.421 209.224L264.811 208.864L265.721 207.304L266.591 206.794V214.194Z" fill="white"/>
<path d="M269.46 212.535L268.59 213.035V207.045L268.29 207.565L267.68 207.215L268.59 205.645L269.46 205.145V212.535Z" fill="white"/>
<path d="M275.2 207.765V203.295L274.81 203.065L271.82 204.795L271.44 205.445V209.925L271.83 210.165L274.82 208.435L275.2 207.775V207.765ZM276.07 207.665L275.16 209.245L271.49 211.365L270.57 210.845V205.545L271.49 203.975L275.16 201.855L276.07 202.375V207.675V207.665Z" fill="white"/>
<path d="M278.911 207.075L278.041 207.575V201.595L277.741 202.105L277.131 201.755L278.041 200.185L278.911 199.685V207.075Z" fill="white"/>
<path d="M226.101 185.425L225.231 184.915V178.935L224.931 179.105L224.311 178.035L225.231 177.525L226.101 178.025V185.425Z" fill="white"/>
<path d="M231.831 187.284V182.804L231.441 182.124L228.451 180.394L228.081 180.614V185.094L228.471 185.774L231.461 187.504L231.831 187.274V187.284ZM232.701 188.194L231.791 188.714L228.111 186.594L227.201 185.024V179.724L228.111 179.204L231.791 181.324L232.701 182.894V188.194Z" fill="white"/>
<path d="M235.55 190.875L234.68 190.375V184.385L234.37 184.555L233.76 183.495L234.68 182.985L235.55 183.485V190.875Z" fill="white"/>
<path d="M238.421 192.535L237.551 192.035V186.045L237.251 186.215L236.641 185.155L237.551 184.645L238.421 185.145V192.535Z" fill="white"/>
<path d="M244.161 194.395V189.925L243.771 189.245L240.781 187.515L240.411 187.745V192.225L240.791 192.905L243.781 194.635L244.151 194.405L244.161 194.395ZM245.031 195.305L244.121 195.825L240.451 193.705L239.541 192.135V186.825L240.451 186.305L244.121 188.425L245.031 189.995V195.295V195.305Z" fill="white"/>
<path d="M228.96 196.704V192.224L228.57 191.544L225.58 189.824L225.2 190.054V194.524L225.59 195.214L228.58 196.934L228.95 196.704H228.96ZM229.83 197.614L228.92 198.134L225.24 196.014L224.33 194.444V189.144L225.24 188.624L228.92 190.744L229.83 192.314V197.614Z" fill="white"/>
<path d="M232.681 200.304L231.801 199.794V193.814L231.501 193.984L230.891 192.914L231.801 192.414L232.681 192.914V200.304Z" fill="white"/>
<path d="M238.411 202.164V197.684L238.031 197.004L235.041 195.284L234.661 195.514V199.994L235.051 200.674L238.041 202.394L238.421 202.164H238.411ZM239.281 203.074L238.371 203.594L234.701 201.474L233.791 199.904V194.604L234.701 194.084L238.371 196.204L239.281 197.764V203.064V203.074Z" fill="white"/>
<path d="M242.13 205.755L241.25 205.255V199.275L240.95 199.445L240.34 198.375L241.25 197.865L242.13 198.365V205.755Z" fill="white"/>
<path d="M245.001 207.415L244.131 206.915V200.925L243.821 201.105L243.211 200.035L244.131 199.525L245.001 200.025V207.415Z" fill="white"/>
<path d="M228.96 207.794V203.314L228.57 202.634L225.58 200.904L225.2 201.134V205.604L225.59 206.284L228.58 208.004L228.95 207.784L228.96 207.794ZM229.83 208.704L228.92 209.214L225.24 207.094L224.33 205.524V200.224L225.24 199.704L228.92 201.824L229.83 203.394V208.704Z" fill="white"/>
<path d="M232.681 211.384L231.801 210.884V204.904L231.501 205.074L230.891 204.014L231.801 203.494L232.681 203.994V211.384Z" fill="white"/>
<path d="M235.55 213.045L234.68 212.545V206.555L234.37 206.725L233.76 205.665L234.68 205.155L235.55 205.655V213.045Z" fill="white"/>
<path d="M241.28 214.905V210.425L240.9 209.745L237.91 208.015L237.53 208.245V212.725L237.92 213.405L240.91 215.125L241.28 214.905ZM242.15 215.815L241.24 216.325L237.57 214.205L236.66 212.635V207.335L237.57 206.815L241.24 208.935L242.15 210.505V215.805V215.815Z" fill="white"/>
<path d="M245.001 218.495L244.131 218.005V212.015L243.821 212.185L243.211 211.125L244.131 210.605L245.001 211.105V218.495Z" fill="white"/>
<path opacity="0.3" d="M280.81 115.244V111.644L254.03 96.1741H247.8L221.01 111.644V115.244L247.8 130.704H254.03L280.81 115.244Z" fill="black"/>
<path d="M217.9 75.3241L221.01 69.9241L223.5 71.5841L221.32 76.4941L217.9 75.3241Z" fill="#150035"/>
<path d="M280.811 69.9241L283.941 75.3241L281.791 76.4241L278.471 72.4441L280.811 69.9241Z" fill="#150035"/>
<path d="M254.021 122.554H247.801V127.104H254.021V122.554Z" fill="#150035"/>
<path d="M255.461 87.7942H246.811V94.8642H255.461V87.7942Z" fill="#150035"/>
<path d="M247.252 89.5328L250.17 94.5848V124.862L247.8 126.237L221.559 111.085L218.65 106.053V75.7562L221.011 74.3899L247.252 89.5328Z" fill="#DE5656" stroke="#150035" stroke-width="1.5"/>
<path d="M280.811 74.3893L283.19 75.7576V106.052L280.272 111.084L254.031 126.237L251.67 124.862V94.5842L254.579 89.5325L280.811 74.3893Z" fill="#DE5656" stroke="#150035" stroke-width="1.5"/>
<path d="M253.762 55.4641L279.81 70.5015V72.9467L253.762 87.9841H248.068L222.01 72.9466V70.5016L248.068 55.4641H253.762Z" fill="#DE5656" stroke="#150035" stroke-width="2"/>
<path d="M249.06 62.8645L248.18 62.3645L253.37 59.3645H252.77V58.6545L254.59 58.6745L255.46 59.1745L249.06 62.8645Z" fill="white"/>
<path d="M256.05 65.4542L259.93 63.2142V62.7642L256.95 61.0442H256.19L252.31 63.2842V63.7342L255.29 65.4642H256.05V65.4542ZM256.57 66.1542H254.75L251.08 64.0342V62.9842L255.67 60.3342H257.49L261.16 62.4642V63.5142L256.58 66.1642L256.57 66.1542Z" fill="white"/>
<path d="M258.509 68.3245L257.629 67.8145L262.819 64.8245H262.219V64.1145L264.029 64.1245L264.899 64.6245L258.509 68.3245Z" fill="white"/>
<path d="M261.38 69.9747L260.5 69.4747L265.69 66.4846H265.09V65.7747L266.9 65.7847L267.77 66.2847L261.38 69.9747Z" fill="white"/>
<path d="M268.37 72.5646L272.25 70.3246V69.8746L269.27 68.1546H268.51L264.63 70.3946V70.8446L267.61 72.5746H268.37V72.5646ZM268.89 73.2746H267.07L263.4 71.1446V70.0946L267.99 67.4446H269.8L273.47 69.5746V70.6246L268.89 73.2746Z" fill="white"/>
<path d="M243.579 69.3341L247.449 67.1041V66.6541L244.469 64.9341H243.709L239.829 67.1741V67.6241L242.809 69.3441H243.569L243.579 69.3341ZM244.089 70.0441H242.279L238.609 67.9141V66.8641L243.189 64.2141H244.999L248.669 66.3341V67.3841L244.079 70.0341L244.089 70.0441Z" fill="white"/>
<path d="M246.03 72.2041L245.16 71.7041L250.34 68.7142H249.74L249.75 68.0042H251.56L252.43 68.5042L246.03 72.2041Z" fill="white"/>
<path d="M253.029 74.7941L256.899 72.5541V72.1041L253.919 70.3741H253.159L249.279 72.6141V73.0641L252.259 74.7841H253.019L253.029 74.7941ZM253.549 75.5041H251.729L248.049 73.3741V72.3241L252.629 69.6741H254.449L258.119 71.8041V72.8541L253.539 75.5041H253.549Z" fill="white"/>
<path d="M255.479 77.6646L254.609 77.1646L259.789 74.1646H259.189V73.4546L261.009 73.4646L261.879 73.9646L255.479 77.6646Z" fill="white"/>
<path d="M258.35 79.3245L257.48 78.8145L262.67 75.8245H262.06L262.07 75.1145L263.88 75.1245L264.75 75.6245L258.35 79.3245Z" fill="white"/>
<path d="M233.98 74.8849L237.86 72.6449V72.1949L234.88 70.4649H234.12L230.25 72.7049V73.1549L233.23 74.8749H233.99L233.98 74.8849ZM234.5 75.5949H232.68L229.01 73.4649V72.4149L233.59 69.7649H235.41L239.08 71.8849V72.9349L234.5 75.5849V75.5949Z" fill="white"/>
<path d="M236.431 77.7442L235.561 77.2442L240.741 74.2542H240.141L240.151 73.5442L241.961 73.5542L242.831 74.0542L236.431 77.7442Z" fill="white"/>
<path d="M239.3 79.4046L238.43 78.9046L243.62 75.9146H243.01L243.02 75.1946L244.83 75.2046L245.7 75.7146L239.3 79.4046Z" fill="white"/>
<path d="M246.3 81.9945L250.17 79.7545V79.3045L247.19 77.5745H246.43L242.56 79.8145V80.2645L245.54 81.9845H246.3V81.9945ZM246.82 82.6945H245L241.33 80.5645V79.5145L245.91 76.8645H247.73L251.4 78.9845V80.0345L246.82 82.6845V82.6945Z" fill="white"/>
<path d="M248.749 84.8546L247.879 84.3546L253.059 81.3645H252.469V80.6545L254.279 80.6646L255.149 81.1646L248.749 84.8546Z" fill="white"/>
<path d="M259.02 97.815L258.14 98.315V92.3351L257.84 92.8551L257.23 92.4951L258.14 90.925L259.02 90.425V97.815Z" fill="white"/>
<path d="M264.751 93.0545V88.5745L264.361 88.3445L261.371 90.0645L260.991 90.7245V95.2045L261.381 95.4345L264.371 93.7145L264.751 93.0545ZM265.621 92.9545L264.711 94.5245L261.041 96.6445L260.131 96.1345V90.8345L261.041 89.2645L264.711 87.1445L265.621 87.6645V92.9645V92.9545Z" fill="white"/>
<path d="M268.46 92.3651L267.59 92.8651V86.8751L267.29 87.3951L266.68 87.0351L267.59 85.4751L268.46 84.9651V92.3651Z" fill="white"/>
<path d="M271.341 90.7047L270.461 91.2047V85.2147L270.171 85.7347L269.551 85.3847L270.461 83.8147L271.341 83.3147V90.7047Z" fill="white"/>
<path d="M277.071 85.9447V81.4647L276.681 81.2346L273.691 82.9647L273.311 83.6246V88.1047L273.701 88.3447L276.691 86.6147L277.071 85.9547V85.9447ZM277.941 85.8447L277.031 87.4147L273.361 89.5347L272.451 89.0146V83.7147L273.361 82.1447L277.031 80.0247L277.941 80.5446V85.8447Z" fill="white"/>
<path d="M261.88 105.794V101.314L261.49 101.084L258.5 102.804L258.12 103.464V107.934L258.51 108.174L261.5 106.454L261.87 105.794H261.88ZM262.75 105.694L261.84 107.264L258.17 109.374L257.26 108.854V103.554L258.17 101.994L261.84 99.8743L262.75 100.394V105.694Z" fill="white"/>
<path d="M265.591 105.105L264.721 105.605V99.6151L264.421 100.135L263.811 99.7851L264.721 98.2151L265.591 97.7151V105.105Z" fill="white"/>
<path d="M271.331 100.345V95.8651L270.941 95.6351L267.951 97.3651L267.571 98.0251V102.495L267.951 102.725L270.941 100.995L271.311 100.335L271.331 100.345ZM272.201 100.245L271.291 101.815L267.621 103.935L266.711 103.415V98.1151L267.621 96.5551L271.291 94.425L272.201 94.9451V100.245Z" fill="white"/>
<path d="M275.04 99.6451L274.17 100.155V94.1651L273.87 94.6851L273.25 94.3251L274.17 92.7551L275.04 92.2551V99.6451Z" fill="white"/>
<path d="M277.911 97.995L277.041 98.495V92.505L276.741 93.025L276.131 92.675L277.041 91.105L277.911 90.595V97.995Z" fill="white"/>
<path d="M261.88 116.885V112.405L261.49 112.175L258.5 113.905L258.12 114.565V119.035L258.51 119.265L261.5 117.545L261.87 116.885H261.88ZM262.75 116.785L261.84 118.355L258.17 120.475L257.26 119.955V114.655L258.17 113.085L261.84 110.965L262.75 111.485V116.785Z" fill="white"/>
<path d="M265.591 116.194L264.721 116.694V110.704L264.421 111.224L263.811 110.864L264.721 109.304L265.591 108.794V116.194Z" fill="white"/>
<path d="M268.46 114.535L267.59 115.035V109.045L267.29 109.565L266.68 109.215L267.59 107.645L268.46 107.145V114.535Z" fill="white"/>
<path d="M274.2 109.765V105.295L273.81 105.065L270.82 106.795L270.44 107.445V111.925L270.83 112.165L273.82 110.435L274.2 109.775V109.765ZM275.07 109.665L274.16 111.245L270.49 113.365L269.57 112.845V107.545L270.49 105.975L274.16 103.855L275.07 104.375V109.675V109.665Z" fill="white"/>
<path d="M277.911 109.075L277.041 109.575V103.595L276.741 104.105L276.131 103.755L277.041 102.185L277.911 101.685V109.075Z" fill="white"/>
<path d="M225.101 87.4247L224.231 86.9147V80.9346L223.931 81.1047L223.311 80.0347L224.231 79.5247L225.101 80.0247V87.4247Z" fill="white"/>
<path d="M230.831 89.2843V84.8044L230.441 84.1243L227.451 82.3943L227.081 82.6143V87.0943L227.471 87.7744L230.461 89.5043L230.831 89.2744V89.2843ZM231.701 90.1944L230.791 90.7144L227.111 88.5943L226.201 87.0244V81.7243L227.111 81.2043L230.791 83.3244L231.701 84.8943V90.1944Z" fill="white"/>
<path d="M234.55 92.8746L233.68 92.3746V86.3846L233.37 86.5546L232.76 85.4946L233.68 84.9846L234.55 85.4846V92.8746Z" fill="white"/>
<path d="M237.421 94.5345L236.551 94.0345V88.0445L236.251 88.2145L235.641 87.1545L236.551 86.6445L237.421 87.1445V94.5345Z" fill="white"/>
<path d="M243.161 96.3949V91.9249L242.771 91.2449L239.781 89.5149L239.411 89.7449V94.2249L239.791 94.9049L242.781 96.6349L243.151 96.4049L243.161 96.3949ZM244.031 97.3049L243.121 97.8249L239.451 95.7049L238.541 94.1349V88.8249L239.451 88.3049L243.121 90.4249L244.031 91.9949V97.2949V97.3049Z" fill="white"/>
<path d="M227.96 98.7043V94.2243L227.57 93.5443L224.58 91.8243L224.2 92.0543V96.5243L224.59 97.2143L227.58 98.9343L227.95 98.7043H227.96ZM228.83 99.6143L227.92 100.134L224.24 98.0143L223.33 96.4443V91.1443L224.24 90.6243L227.92 92.7443L228.83 94.3143V99.6143Z" fill="white"/>
<path d="M231.681 102.304L230.801 101.794V95.8143L230.501 95.9843L229.891 94.9143L230.801 94.4143L231.681 94.9143V102.304Z" fill="white"/>
<path d="M237.411 104.164V99.6842L237.031 99.0042L234.041 97.2842L233.661 97.5142V101.994L234.051 102.674L237.041 104.394L237.421 104.164H237.411ZM238.281 105.074L237.371 105.594L233.701 103.474L232.791 101.904V96.6042L233.701 96.0842L237.371 98.2042L238.281 99.7642V105.064V105.074Z" fill="white"/>
<path d="M241.13 107.755L240.25 107.255V101.275L239.95 101.445L239.34 100.375L240.25 99.8647L241.13 100.365V107.755Z" fill="white"/>
<path d="M244.001 109.415L243.131 108.915V102.925L242.821 103.105L242.211 102.035L243.131 101.525L244.001 102.025V109.415Z" fill="white"/>
<path d="M227.96 109.794V105.314L227.57 104.634L224.58 102.904L224.2 103.134V107.604L224.59 108.284L227.58 110.004L227.95 109.784L227.96 109.794ZM228.83 110.704L227.92 111.214L224.24 109.094L223.33 107.524V102.224L224.24 101.704L227.92 103.824L228.83 105.394V110.704Z" fill="white"/>
<path d="M231.681 113.384L230.801 112.884V106.904L230.501 107.074L229.891 106.014L230.801 105.494L231.681 105.994V113.384Z" fill="white"/>
<path d="M234.55 115.045L233.68 114.545V108.555L233.37 108.725L232.76 107.665L233.68 107.155L234.55 107.655V115.045Z" fill="white"/>
<path d="M240.28 116.905V112.425L239.9 111.745L236.91 110.015L236.53 110.245V114.725L236.92 115.405L239.91 117.125L240.28 116.905ZM241.15 117.815L240.24 118.325L236.57 116.205L235.66 114.635V109.335L236.57 108.815L240.24 110.935L241.15 112.505V117.805V117.815Z" fill="white"/>
<path d="M244.001 120.495L243.131 120.005V114.015L242.821 114.185L242.211 113.125L243.131 112.605L244.001 113.105V120.495Z" fill="white"/>
<path opacity="0.3" d="M196.81 269.244V265.644L170.03 250.174H163.8L137.01 265.644V269.244L163.8 284.704H170.03L196.81 269.244Z" fill="black"/>
<path d="M133.9 229.324L137.01 223.924L139.5 225.584L137.32 230.494L133.9 229.324Z" fill="#150035"/>
<path d="M196.811 223.924L199.941 229.324L197.791 230.424L194.471 226.444L196.811 223.924Z" fill="#150035"/>
<path d="M170.021 276.554H163.801V281.104H170.021V276.554Z" fill="#150035"/>
<path d="M171.461 241.794H162.811V248.864H171.461V241.794Z" fill="#150035"/>
<path d="M163.252 243.533L166.17 248.585V278.862L163.8 280.237L137.559 265.085L134.65 260.053V229.756L137.011 228.39L163.252 243.533Z" fill="#DE5656" stroke="#150035" stroke-width="1.5"/>
<path d="M196.811 228.389L199.19 229.758V260.052L196.272 265.084L170.031 280.237L167.67 278.862V248.584L170.579 243.533L196.811 228.389Z" fill="#DE5656" stroke="#150035" stroke-width="1.5"/>
<path d="M169.762 209.464L195.81 224.501V226.947L169.762 241.984H164.068L138.01 226.947V224.502L164.068 209.464H169.762Z" fill="#DE5656" stroke="#150035" stroke-width="2"/>
<path d="M165.06 216.865L164.18 216.365L169.37 213.365H168.77V212.655L170.59 212.675L171.46 213.175L165.06 216.865Z" fill="white"/>
<path d="M172.05 219.454L175.93 217.214V216.764L172.95 215.044H172.19L168.31 217.284V217.734L171.29 219.464H172.05V219.454ZM172.57 220.154H170.75L167.08 218.034V216.984L171.67 214.334H173.49L177.16 216.464V217.514L172.58 220.164L172.57 220.154Z" fill="white"/>
<path d="M174.509 222.325L173.629 221.814L178.819 218.825H178.219V218.115L180.029 218.124L180.899 218.624L174.509 222.325Z" fill="white"/>
<path d="M177.38 223.975L176.5 223.475L181.69 220.485H181.09V219.775L182.9 219.785L183.77 220.285L177.38 223.975Z" fill="white"/>
<path d="M184.37 226.565L188.25 224.325V223.875L185.27 222.155H184.51L180.63 224.395V224.845L183.61 226.575H184.37V226.565ZM184.89 227.275H183.07L179.4 225.145V224.095L183.99 221.445H185.8L189.47 223.575V224.625L184.89 227.275Z" fill="white"/>
<path d="M159.579 223.334L163.449 221.104V220.654L160.469 218.934H159.709L155.829 221.174V221.624L158.809 223.344H159.569L159.579 223.334ZM160.089 224.044H158.279L154.609 221.914V220.864L159.189 218.214H160.999L164.669 220.334V221.384L160.079 224.034L160.089 224.044Z" fill="white"/>
<path d="M162.03 226.204L161.16 225.704L166.34 222.714H165.74L165.75 222.004H167.56L168.43 222.504L162.03 226.204Z" fill="white"/>
<path d="M169.031 228.794L172.901 226.554V226.104L169.921 224.374H169.161L165.281 226.614V227.064L168.261 228.784H169.021L169.031 228.794ZM169.551 229.504H167.731L164.051 227.374V226.324L168.631 223.674H170.451L174.121 225.804V226.854L169.541 229.504H169.551Z" fill="white"/>
<path d="M171.479 231.665L170.609 231.165L175.789 228.165H175.189V227.455L177.009 227.465L177.879 227.965L171.479 231.665Z" fill="white"/>
<path d="M174.35 233.325L173.48 232.814L178.67 229.825H178.06L178.07 229.115L179.88 229.124L180.75 229.624L174.35 233.325Z" fill="white"/>
<path d="M149.98 228.885L153.86 226.645V226.195L150.88 224.465H150.12L146.25 226.705V227.155L149.23 228.875H149.99L149.98 228.885ZM150.5 229.595H148.68L145.01 227.465V226.415L149.59 223.765H151.41L155.08 225.885V226.935L150.5 229.585V229.595Z" fill="white"/>
<path d="M152.431 231.744L151.561 231.244L156.741 228.254H156.141L156.151 227.544L157.961 227.554L158.831 228.054L152.431 231.744Z" fill="white"/>
<path d="M155.3 233.405L154.43 232.905L159.62 229.915H159.01L159.02 229.195L160.83 229.205L161.7 229.715L155.3 233.405Z" fill="white"/>
<path d="M162.3 235.995L166.17 233.755V233.305L163.19 231.575H162.43L158.56 233.814V234.264L161.54 235.984H162.3V235.995ZM162.82 236.695H161L157.33 234.564V233.514L161.91 230.865H163.73L167.4 232.984V234.035L162.82 236.684V236.695Z" fill="white"/>
<path d="M164.749 238.855L163.879 238.355L169.059 235.365H168.469V234.655L170.279 234.665L171.149 235.165L164.749 238.855Z" fill="white"/>
<path d="M175.02 251.815L174.14 252.315V246.335L173.84 246.855L173.23 246.495L174.14 244.925L175.02 244.425V251.815Z" fill="white"/>
<path d="M180.751 247.055V242.575L180.361 242.345L177.371 244.065L176.991 244.725V249.205L177.381 249.435L180.371 247.715L180.751 247.055ZM181.621 246.955L180.711 248.525L177.041 250.645L176.131 250.135V244.835L177.041 243.265L180.711 241.145L181.621 241.665V246.965V246.955Z" fill="white"/>
<path d="M184.46 246.365L183.59 246.865V240.875L183.29 241.395L182.68 241.035L183.59 239.475L184.46 238.965V246.365Z" fill="white"/>
<path d="M187.341 244.705L186.461 245.205V239.215L186.171 239.735L185.551 239.385L186.461 237.815L187.341 237.315V244.705Z" fill="white"/>
<path d="M193.071 239.945V235.465L192.681 235.235L189.691 236.965L189.311 237.625V242.105L189.701 242.345L192.691 240.615L193.071 239.955V239.945ZM193.941 239.845L193.031 241.415L189.361 243.535L188.451 243.015V237.715L189.361 236.145L193.031 234.025L193.941 234.545V239.845Z" fill="white"/>
<path d="M177.88 259.794V255.314L177.49 255.084L174.5 256.804L174.12 257.464V261.934L174.51 262.174L177.5 260.454L177.87 259.794H177.88ZM178.75 259.694L177.84 261.264L174.17 263.374L173.26 262.854V257.554L174.17 255.994L177.84 253.874L178.75 254.394V259.694Z" fill="white"/>
<path d="M181.591 259.105L180.721 259.605V253.615L180.421 254.135L179.811 253.785L180.721 252.215L181.591 251.715V259.105Z" fill="white"/>
<path d="M187.331 254.345V249.865L186.941 249.635L183.951 251.365L183.571 252.025V256.495L183.951 256.725L186.941 254.995L187.311 254.335L187.331 254.345ZM188.201 254.245L187.291 255.815L183.621 257.935L182.711 257.415V252.115L183.621 250.555L187.291 248.425L188.201 248.945V254.245Z" fill="white"/>
<path d="M191.04 253.645L190.17 254.155V248.165L189.87 248.685L189.25 248.325L190.17 246.755L191.04 246.255V253.645Z" fill="white"/>
<path d="M193.911 251.995L193.041 252.495V246.505L192.741 247.025L192.131 246.675L193.041 245.105L193.911 244.595V251.995Z" fill="white"/>
<path d="M177.88 270.885V266.405L177.49 266.175L174.5 267.905L174.12 268.565V273.035L174.51 273.265L177.5 271.545L177.87 270.885H177.88ZM178.75 270.785L177.84 272.355L174.17 274.475L173.26 273.955V268.655L174.17 267.085L177.84 264.965L178.75 265.485V270.785Z" fill="white"/>
<path d="M181.591 270.194L180.721 270.694V264.704L180.421 265.224L179.811 264.864L180.721 263.304L181.591 262.794V270.194Z" fill="white"/>
<path d="M184.46 268.535L183.59 269.035V263.045L183.29 263.565L182.68 263.215L183.59 261.645L184.46 261.145V268.535Z" fill="white"/>
<path d="M190.2 263.765V259.295L189.81 259.065L186.82 260.795L186.44 261.445V265.925L186.83 266.165L189.82 264.435L190.2 263.775V263.765ZM191.07 263.665L190.16 265.245L186.49 267.365L185.57 266.845V261.545L186.49 259.975L190.16 257.855L191.07 258.375V263.675V263.665Z" fill="white"/>
<path d="M193.911 263.075L193.041 263.575V257.595L192.741 258.105L192.131 257.755L193.041 256.185L193.911 255.685V263.075Z" fill="white"/>
<path d="M141.101 241.425L140.231 240.915V234.935L139.931 235.105L139.311 234.035L140.231 233.525L141.101 234.025V241.425Z" fill="white"/>
<path d="M146.831 243.284V238.804L146.441 238.124L143.451 236.394L143.081 236.614V241.094L143.471 241.774L146.461 243.504L146.831 243.274V243.284ZM147.701 244.194L146.791 244.714L143.111 242.594L142.201 241.024V235.724L143.111 235.204L146.791 237.324L147.701 238.894V244.194Z" fill="white"/>
<path d="M150.55 246.875L149.68 246.375V240.385L149.37 240.555L148.76 239.495L149.68 238.985L150.55 239.485V246.875Z" fill="white"/>
<path d="M153.421 248.535L152.551 248.035V242.045L152.251 242.215L151.641 241.155L152.551 240.645L153.421 241.145V248.535Z" fill="white"/>
<path d="M159.161 250.395V245.925L158.771 245.245L155.781 243.515L155.411 243.745V248.225L155.791 248.905L158.781 250.635L159.151 250.405L159.161 250.395ZM160.031 251.305L159.121 251.825L155.451 249.705L154.541 248.135V242.825L155.451 242.305L159.121 244.425L160.031 245.995V251.295V251.305Z" fill="white"/>
<path d="M143.96 252.704V248.224L143.57 247.544L140.58 245.824L140.2 246.054V250.524L140.59 251.214L143.58 252.934L143.95 252.704H143.96ZM144.83 253.614L143.92 254.134L140.24 252.014L139.33 250.444V245.144L140.24 244.624L143.92 246.744L144.83 248.314V253.614Z" fill="white"/>
<path d="M147.681 256.304L146.801 255.794V249.814L146.501 249.984L145.891 248.914L146.801 248.414L147.681 248.914V256.304Z" fill="white"/>
<path d="M153.411 258.164V253.684L153.031 253.004L150.041 251.284L149.661 251.514V255.994L150.051 256.674L153.041 258.394L153.421 258.164H153.411ZM154.281 259.074L153.371 259.594L149.701 257.474L148.791 255.904V250.604L149.701 250.084L153.371 252.204L154.281 253.764V259.064V259.074Z" fill="white"/>
<path d="M157.13 261.755L156.25 261.255V255.275L155.95 255.445L155.34 254.375L156.25 253.865L157.13 254.365V261.755Z" fill="white"/>
<path d="M160.001 263.415L159.131 262.915V256.925L158.821 257.105L158.211 256.035L159.131 255.525L160.001 256.025V263.415Z" fill="white"/>
<path d="M143.96 263.794V259.314L143.57 258.634L140.58 256.904L140.2 257.134V261.604L140.59 262.284L143.58 264.004L143.95 263.784L143.96 263.794ZM144.83 264.704L143.92 265.214L140.24 263.094L139.33 261.524V256.224L140.24 255.704L143.92 257.824L144.83 259.394V264.704Z" fill="white"/>
<path d="M147.681 267.384L146.801 266.884V260.904L146.501 261.074L145.891 260.014L146.801 259.494L147.681 259.994V267.384Z" fill="white"/>
<path d="M150.55 269.045L149.68 268.545V262.555L149.37 262.725L148.76 261.665L149.68 261.155L150.55 261.655V269.045Z" fill="white"/>
<path d="M156.28 270.905V266.425L155.9 265.745L152.91 264.015L152.53 264.245V268.725L152.92 269.405L155.91 271.125L156.28 270.905ZM157.15 271.815L156.24 272.325L152.57 270.205L151.66 268.635V263.335L152.57 262.815L156.24 264.935L157.15 266.505V271.805V271.815Z" fill="white"/>
<path d="M160.001 274.495L159.131 274.005V268.015L158.821 268.185L158.211 267.125L159.131 266.605L160.001 267.105V274.495Z" fill="white"/>
<path opacity="0.3" d="M103.81 209.244V205.644L77.0298 190.174H70.7998L44.0098 205.644V209.244L70.7998 224.704H77.0298L103.81 209.244Z" fill="black"/>
<path d="M40.9004 169.324L44.0104 163.924L46.5004 165.584L44.3204 170.494L40.9004 169.324Z" fill="#150035"/>
<path d="M103.811 163.924L106.941 169.324L104.791 170.424L101.471 166.444L103.811 163.924Z" fill="#150035"/>
<path d="M77.0208 216.554H70.8008V221.104H77.0208V216.554Z" fill="#150035"/>
<path d="M78.4606 181.794H69.8105V188.864H78.4606V181.794Z" fill="#150035"/>
<path d="M70.2515 183.533L73.1704 188.585V218.862L70.7995 220.237L44.5593 205.085L41.6504 200.053V169.756L44.0109 168.39L70.2515 183.533Z" fill="#DE5656" stroke="#150035" stroke-width="1.5"/>
<path d="M103.811 168.389L106.19 169.758V200.052L103.272 205.084L77.0314 220.237L74.6699 218.862V188.584L77.5793 183.533L103.811 168.389Z" fill="#DE5656" stroke="#150035" stroke-width="1.5"/>
<path d="M76.7618 149.464L102.81 164.501V166.947L76.7618 181.984H71.0676L45.0098 166.947V164.502L71.0676 149.464H76.7618Z" fill="#DE5656" stroke="#150035" stroke-width="2"/>
<path d="M72.0597 156.865L71.1797 156.365L76.3697 153.365H75.7697V152.655L77.5897 152.675L78.4597 153.175L72.0597 156.865Z" fill="white"/>
<path d="M79.0501 159.454L82.9301 157.214V156.764L79.9501 155.044H79.1901L75.3101 157.284V157.734L78.2901 159.464H79.0501V159.454ZM79.5701 160.154H77.7501L74.0801 158.034V156.984L78.6701 154.334H80.4901L84.1601 156.464V157.514L79.5801 160.164L79.5701 160.154Z" fill="white"/>
<path d="M81.5089 162.325L80.6289 161.814L85.8189 158.825H85.2189V158.115L87.0289 158.124L87.8989 158.624L81.5089 162.325Z" fill="white"/>
<path d="M84.38 163.975L83.5 163.475L88.69 160.485H88.09V159.775L89.9 159.785L90.77 160.285L84.38 163.975Z" fill="white"/>
<path d="M91.3704 166.565L95.2504 164.325V163.875L92.2704 162.155H91.5104L87.6304 164.395V164.845L90.6104 166.575H91.3704V166.565ZM91.8904 167.275H90.0704L86.4004 165.145V164.095L90.9904 161.445H92.8004L96.4704 163.575V164.625L91.8904 167.275Z" fill="white"/>
<path d="M66.5794 163.334L70.4494 161.104V160.654L67.4694 158.934H66.7094L62.8294 161.174V161.624L65.8094 163.344H66.5694L66.5794 163.334ZM67.0894 164.044H65.2794L61.6094 161.914V160.864L66.1894 158.214H67.9994L71.6694 160.334V161.384L67.0794 164.034L67.0894 164.044Z" fill="white"/>
<path d="M69.0302 166.204L68.1602 165.704L73.3401 162.714H72.7402L72.7502 162.004H74.5602L75.4301 162.504L69.0302 166.204Z" fill="white"/>
<path d="M76.0288 168.794L79.8988 166.554V166.104L76.9188 164.374H76.1588L72.2788 166.614V167.064L75.2588 168.784H76.0188L76.0288 168.794ZM76.5488 169.504H74.7288L71.0488 167.374V166.324L75.6288 163.674H77.4488L81.1188 165.804V166.854L76.5388 169.504H76.5488Z" fill="white"/>
<path d="M78.4794 171.665L77.6094 171.165L82.7894 168.165H82.1894V167.455L84.0094 167.465L84.8794 167.965L78.4794 171.665Z" fill="white"/>
<path d="M81.3505 173.325L80.4805 172.814L85.6705 169.825H85.0605L85.0705 169.115L86.8805 169.124L87.7505 169.624L81.3505 173.325Z" fill="white"/>
<path d="M56.9798 168.885L60.8598 166.645V166.195L57.8798 164.465H57.1198L53.2498 166.705V167.155L56.2298 168.875H56.9898L56.9798 168.885ZM57.4998 169.595H55.6798L52.0098 167.465V166.415L56.5898 163.765H58.4098L62.0798 165.885V166.935L57.4998 169.585V169.595Z" fill="white"/>
<path d="M59.4305 171.744L58.5605 171.244L63.7406 168.254H63.1405L63.1505 167.544L64.9606 167.554L65.8306 168.054L59.4305 171.744Z" fill="white"/>
<path d="M62.2997 173.405L61.4297 172.905L66.6197 169.915H66.0097L66.0197 169.195L67.8297 169.205L68.6997 169.715L62.2997 173.405Z" fill="white"/>
<path d="M69.3001 175.995L73.1701 173.755V173.305L70.1901 171.575H69.4301L65.5601 173.814V174.264L68.5401 175.984H69.3001V175.995ZM69.8201 176.695H68.0001L64.3301 174.564V173.514L68.9101 170.865H70.7301L74.4001 172.984V174.035L69.8201 176.684V176.695Z" fill="white"/>
<path d="M71.7489 178.855L70.8789 178.355L76.0589 175.365H75.4689V174.655L77.2789 174.665L78.1489 175.165L71.7489 178.855Z" fill="white"/>
<path d="M82.0205 191.815L81.1405 192.315V186.335L80.8405 186.855L80.2305 186.495L81.1405 184.925L82.0205 184.425V191.815Z" fill="white"/>
<path d="M87.7509 187.055V182.575L87.3609 182.345L84.3708 184.065L83.9909 184.725V189.205L84.3809 189.435L87.3708 187.715L87.7509 187.055ZM88.6208 186.955L87.7109 188.525L84.0408 190.645L83.1309 190.135V184.835L84.0408 183.265L87.7109 181.145L88.6208 181.665V186.965V186.955Z" fill="white"/>
<path d="M91.4597 186.365L90.5897 186.865V180.875L90.2897 181.395L89.6797 181.035L90.5897 179.475L91.4597 178.965V186.365Z" fill="white"/>
<path d="M94.3408 184.705L93.4608 185.205V179.215L93.1708 179.735L92.5508 179.385L93.4608 177.815L94.3408 177.315V184.705Z" fill="white"/>
<path d="M100.071 179.945V175.465L99.6812 175.235L96.6912 176.965L96.3112 177.625V182.105L96.7012 182.345L99.6912 180.615L100.071 179.955V179.945ZM100.941 179.845L100.031 181.415L96.3612 183.535L95.4512 183.015V177.715L96.3612 176.145L100.031 174.025L100.941 174.545V179.845Z" fill="white"/>
<path d="M84.8798 199.794V195.314L84.4898 195.084L81.4998 196.804L81.1198 197.464V201.934L81.5098 202.174L84.4998 200.454L84.8698 199.794H84.8798ZM85.7498 199.694L84.8398 201.264L81.1698 203.374L80.2598 202.854V197.554L81.1698 195.994L84.8398 193.874L85.7498 194.394V199.694Z" fill="white"/>
<path d="M88.5905 199.105L87.7206 199.605V193.615L87.4205 194.135L86.8105 193.785L87.7206 192.215L88.5905 191.715V199.105Z" fill="white"/>
<path d="M94.3309 194.345V189.865L93.9409 189.635L90.9509 191.365L90.5709 192.025V196.495L90.9509 196.725L93.9409 194.995L94.3109 194.335L94.3309 194.345ZM95.2009 194.245L94.2909 195.815L90.6209 197.935L89.7109 197.415V192.115L90.6209 190.555L94.2909 188.425L95.2009 188.945V194.245Z" fill="white"/>
<path d="M98.04 193.645L97.17 194.155V188.165L96.87 188.685L96.25 188.325L97.17 186.755L98.04 186.255V193.645Z" fill="white"/>
<path d="M100.911 191.995L100.041 192.495V186.505L99.7409 187.025L99.1309 186.675L100.041 185.105L100.911 184.595V191.995Z" fill="white"/>
<path d="M84.8798 210.885V206.405L84.4898 206.175L81.4998 207.905L81.1198 208.565V213.035L81.5098 213.265L84.4998 211.545L84.8698 210.885H84.8798ZM85.7498 210.785L84.8398 212.355L81.1698 214.475L80.2598 213.955V208.655L81.1698 207.085L84.8398 204.965L85.7498 205.485V210.785Z" fill="white"/>
<path d="M88.5905 210.194L87.7206 210.694V204.704L87.4205 205.224L86.8105 204.864L87.7206 203.304L88.5905 202.794V210.194Z" fill="white"/>
<path d="M91.4597 208.535L90.5897 209.035V203.045L90.2897 203.565L89.6797 203.215L90.5897 201.645L91.4597 201.145V208.535Z" fill="white"/>
<path d="M97.2003 203.765V199.295L96.8103 199.065L93.8203 200.795L93.4403 201.445V205.925L93.8303 206.165L96.8203 204.435L97.2003 203.775V203.765ZM98.0703 203.665L97.1603 205.245L93.4903 207.365L92.5703 206.845V201.545L93.4903 199.975L97.1603 197.855L98.0703 198.375V203.675V203.665Z" fill="white"/>
<path d="M100.911 203.075L100.041 203.575V197.595L99.7409 198.105L99.1309 197.755L100.041 196.185L100.911 195.685V203.075Z" fill="white"/>
<path d="M48.1006 181.425L47.2305 180.915V174.935L46.9305 175.105L46.3105 174.035L47.2305 173.525L48.1006 174.025V181.425Z" fill="white"/>
<path d="M53.8312 183.284V178.804L53.4412 178.124L50.4512 176.394L50.0812 176.614V181.094L50.4712 181.774L53.4612 183.504L53.8312 183.274V183.284ZM54.7012 184.194L53.7912 184.714L50.1112 182.594L49.2012 181.024V175.724L50.1112 175.204L53.7912 177.324L54.7012 178.894V184.194Z" fill="white"/>
<path d="M57.5498 186.875L56.6798 186.375V180.385L56.3698 180.555L55.7598 179.495L56.6798 178.985L57.5498 179.485V186.875Z" fill="white"/>
<path d="M60.4206 188.535L59.5506 188.035V182.045L59.2506 182.215L58.6406 181.155L59.5506 180.645L60.4206 181.145V188.535Z" fill="white"/>
<path d="M66.161 190.395V185.925L65.771 185.245L62.781 183.515L62.411 183.745V188.225L62.791 188.905L65.781 190.635L66.151 190.405L66.161 190.395ZM67.031 191.305L66.121 191.825L62.451 189.705L61.541 188.135V182.825L62.451 182.305L66.121 184.425L67.031 185.995V191.295V191.305Z" fill="white"/>
<path d="M50.9601 192.704V188.224L50.5701 187.544L47.5801 185.824L47.2001 186.054V190.524L47.5901 191.214L50.5801 192.934L50.9501 192.704H50.9601ZM51.8301 193.614L50.9201 194.134L47.2401 192.014L46.3301 190.444V185.144L47.2401 184.624L50.9201 186.744L51.8301 188.314V193.614Z" fill="white"/>
<path d="M54.6806 196.304L53.8006 195.794V189.814L53.5006 189.984L52.8906 188.914L53.8006 188.414L54.6806 188.914V196.304Z" fill="white"/>
<path d="M60.411 198.164V193.684L60.031 193.004L57.041 191.284L56.661 191.514V195.994L57.051 196.674L60.041 198.394L60.421 198.164H60.411ZM61.281 199.074L60.371 199.594L56.701 197.474L55.791 195.904V190.604L56.701 190.084L60.371 192.204L61.281 193.764V199.064V199.074Z" fill="white"/>
<path d="M64.1299 201.755L63.2498 201.255V195.275L62.9498 195.445L62.3398 194.375L63.2498 193.865L64.1299 194.365V201.755Z" fill="white"/>
<path d="M67.0009 203.415L66.1309 202.915V196.925L65.8209 197.105L65.2109 196.035L66.1309 195.525L67.0009 196.025V203.415Z" fill="white"/>
<path d="M50.9601 203.794V199.314L50.5701 198.634L47.5801 196.904L47.2001 197.134V201.604L47.5901 202.284L50.5801 204.004L50.9501 203.784L50.9601 203.794ZM51.8301 204.704L50.9201 205.214L47.2401 203.094L46.3301 201.524V196.224L47.2401 195.704L50.9201 197.824L51.8301 199.394V204.704Z" fill="white"/>
<path d="M54.6806 207.384L53.8006 206.884V200.904L53.5006 201.074L52.8906 200.014L53.8006 199.494L54.6806 199.994V207.384Z" fill="white"/>
<path d="M57.5498 209.045L56.6798 208.545V202.555L56.3698 202.725L55.7598 201.665L56.6798 201.155L57.5498 201.655V209.045Z" fill="white"/>
<path d="M63.2802 210.905V206.425L62.9001 205.745L59.9102 204.015L59.5302 204.245V208.725L59.9202 209.405L62.9102 211.125L63.2802 210.905ZM64.1501 211.815L63.2402 212.325L59.5702 210.205L58.6602 208.635V203.335L59.5702 202.815L63.2402 204.935L64.1501 206.505V211.805V211.815Z" fill="white"/>
<path d="M67.0009 214.495L66.1309 214.005V208.015L65.8209 208.185L65.2109 207.125L66.1309 206.605L67.0009 207.105V214.495Z" fill="white"/>
</svg>
