<svg width="152" height="110" viewBox="0 0 152 110" fill="none" xmlns="http://www.w3.org/2000/svg">
<path d="M58.1169 99.63L103.635 66.3397L103.632 66.3103L64.4552 68.4928C64.4552 68.4928 64.4553 68.4928 64.4406 68.4944L58.099 99.6023C58.099 99.6023 58.1022 99.6316 58.1299 99.6137L58.1169 99.63Z" fill="#DE5656"/>
<path d="M58.1614 100.693L58.6423 100.343L104.682 66.6686L104.275 65.4071L103.593 65.4084L63.7071 67.6248L63.5438 68.2961L57.0781 100.026L58.1451 100.68L58.1614 100.693ZM100.735 67.3578L59.4062 97.5863L65.1599 69.3495L100.737 67.3724L100.735 67.3578Z" fill="#150035"/>
<path d="M64.4286 68.5095L58.0853 99.6027C58.0853 99.6027 58.0576 99.6206 58.056 99.606L44.3343 60.3998L45.0917 46.7164L139.8 2.04407C139.8 2.04407 139.829 2.04083 139.818 2.07179L100.559 56.2417L64.4302 68.5242L64.4286 68.5095Z" fill="#DE5656"/>
<path d="M58.8297 100.441L58.9767 99.7566L65.2122 69.1652L101.111 56.9527L101.281 56.741L140.978 1.97315L140.087 0.89885L139.451 1.19189L44.2919 46.0775L44.2297 46.5892L43.4773 60.0493L43.2556 60.3262L43.5439 60.7843L57.4592 100.533L58.8297 100.441ZM100.01 55.4563L63.7103 67.8022L63.5601 68.3236L57.8538 96.3176L45.2226 60.2571L45.9519 47.2597L137.118 4.25612L100.01 55.4563Z" fill="#150035"/>
<path d="M139.857 2.04103L111.586 88.6824C111.586 88.6824 111.571 88.684 111.556 88.6857L64.4567 68.5097C64.4567 68.5097 64.4551 68.4951 64.4535 68.4804L139.826 2.02962C139.826 2.02962 139.855 2.02636 139.857 2.04103Z" fill="white"/>
<path d="M111.559 89.6511L112.268 89.35L112.405 88.9785L140.897 1.64465L139.73 0.897776L139.218 1.37013L63.5212 68.1092L63.6283 69.0772L64.0698 69.3105L111.559 89.6511ZM138.024 4.79828L111.038 87.4966L66.0747 68.2423L138.025 4.81294L138.024 4.79828Z" fill="#150035"/>
<path d="M139.755 2.05082L44.3454 60.3707C44.3454 60.3707 44.3454 60.3707 44.3307 60.3724L5.87109 44.4813L5.86785 44.4519L139.737 2.02311C139.737 2.02311 139.77 2.0492 139.741 2.05245L139.755 2.05082Z" fill="white"/>
<path d="M44.4114 61.3729L44.814 61.1205L140.196 2.81853L140.866 2.4326L140.272 0.954296L139.493 1.15928L5.00737 43.7899L4.93834 45.0446L5.5314 45.3056L44.4261 61.3713L44.4114 61.3729ZM133.167 5.03653L44.2509 59.3864L8.40471 44.572L133.165 5.02185L133.167 5.03653Z" fill="#150035"/>
<path d="M55.4663 75.17L57.6211 81.498L55.9448 82.0688L53.79 75.7409L55.4663 75.17Z" fill="#150035"/>
<path d="M49.4933 57.4422L54.4355 71.9561L52.7593 72.5269L47.8171 58.013L49.4933 57.4422Z" fill="#150035"/>
<path d="M56.64 53.0737L60.8047 64.9365L59.1339 65.5231L54.9692 53.6603L56.64 53.0737Z" fill="#150035"/>
<path d="M76.1997 64.7835L87.0996 69.4316L86.405 71.0605L75.5051 66.4124L76.1997 64.7835Z" fill="#150035"/>
<path d="M90.2236 70.7921L114.182 81.0088L113.487 82.6377L89.529 72.421L90.2236 70.7921Z" fill="#150035"/>
<path d="M22.6709 43.2106L29.5195 46.0342L28.8446 47.6713L21.996 44.8477L22.6709 43.2106Z" fill="#150035"/>
<path d="M32.5804 47.2397L51.8984 55.2041L51.2235 56.8412L31.9054 48.8768L32.5804 47.2397Z" fill="#150035"/>
<path d="M100.488 67.4473L116.373 74.3232L115.67 75.9483L99.7843 69.0724L100.488 67.4473Z" fill="#150035"/>
<path d="M41.7035 44.6011L58.1465 51.2529L57.4824 52.8945L41.0394 46.2426L41.7035 44.6011Z" fill="#150035"/>
<path d="M122.039 24.3991L131.35 28.7002L130.607 30.3077L121.297 26.0067L122.039 24.3991Z" fill="#150035"/>
<path d="M125.287 31.8004L129.619 33.6416L128.927 35.2713L124.594 33.4301L125.287 31.8004Z" fill="#150035"/>
<path d="M41.6827 32.4558L51.5273 36.7559L50.8185 38.3786L40.9738 34.0785L41.6827 32.4558Z" fill="#150035"/>
<path d="M53.4502 37.506L57.5332 39.292L56.8235 40.9144L52.7406 39.1284L53.4502 37.506Z" fill="#150035"/>
<path d="M78.39 74.6668L80.123 75.0303L77.8118 86.0498L76.0788 85.6864L78.39 74.6668Z" fill="#150035"/>
<path d="M73.1746 75.2112L74.9082 75.5723L73.9453 80.1952L72.2117 79.8341L73.1746 75.2112Z" fill="#150035"/>
<path d="M71.7762 82.0178L73.5098 82.3789L71.8609 90.2957L70.1272 89.9346L71.7762 82.0178Z" fill="#150035"/>
<path d="M15.9459 98.2286L17.6897 97.8871C15.6768 87.8805 19.7831 77.6272 28.1309 71.7595L33.7368 67.8135L32.7157 66.3676L27.1098 70.3136C18.1833 76.5868 13.7996 87.5537 15.9476 98.2432L15.9459 98.2286Z" fill="#150035"/>
<path d="M9.51485 93.7838L11.2586 93.4423C9.93834 86.8777 11.1978 80.1464 14.805 74.5063L13.3029 73.5442C9.44297 79.5834 8.10022 86.7693 9.50017 93.7854L9.51485 93.7838Z" fill="#150035"/>
<path d="M9.8161 97.436L11.5762 97.2412L12.933 109.503L11.173 109.698L9.8161 97.436Z" fill="#150035"/>
<path d="M127.455 57.3705L129.143 57.9072L126.508 66.19L124.82 65.6532L127.455 57.3705Z" fill="#150035"/>
<path d="M133.264 39.2367L134.951 39.7734L130.183 54.7639L128.495 54.2272L133.264 39.2367Z" fill="#150035"/>
</svg>
