<svg width="234" height="265" viewBox="0 0 234 265" fill="none" xmlns="http://www.w3.org/2000/svg">
<path d="M231.078 172.88L219.163 174.315C218.977 174.341 218.791 174.301 218.632 174.208L152.254 135.886C147.339 133.056 138.772 133.402 133.113 136.683L28.1071 197.308C28.0009 197.361 27.8946 197.401 27.7751 197.414L9.21808 199.659C8.77973 199.712 8.46094 200.084 8.46094 200.523V212.358C8.51407 214.098 9.6033 215.759 11.7685 217.008L88.2546 261.162C93.1562 263.991 101.737 263.632 107.396 260.365L227.359 191.105C230.653 189.205 232.221 186.748 232.021 184.463L232.048 173.743C232.048 173.225 231.596 172.827 231.078 172.88Z" fill="#DE5656"/>
<path d="M96.5847 264.496C93.224 264.496 89.9961 263.792 87.5387 262.384L11.0526 218.23C8.54205 216.782 7.12072 214.71 7.04102 212.398V200.523C7.04102 199.38 7.89116 198.397 9.03353 198.265L27.4842 196.033L132.397 135.461C138.534 131.914 147.567 131.568 152.946 134.664L219.164 172.893L230.894 171.472C231.531 171.406 232.195 171.605 232.674 172.03C233.165 172.468 233.431 173.079 233.431 173.73L233.404 184.45C233.67 187.279 231.717 190.188 228.038 192.314L108.075 261.574C104.741 263.5 100.556 264.483 96.5581 264.483L96.5847 264.496ZM9.8571 201.001V212.345C9.91023 213.966 11.305 215.108 12.4607 215.786L88.9467 259.94C93.3834 262.503 101.5 262.131 106.68 259.143L226.656 189.883C229.286 188.355 230.774 186.376 230.615 184.583V174.354L219.324 175.723C218.819 175.776 218.341 175.683 217.916 175.43L151.552 137.108C147.115 134.544 138.999 134.916 133.818 137.905L28.8126 198.53C28.5469 198.69 28.2547 198.783 27.9492 198.823L9.8704 201.001H9.8571Z" fill="#150035"/>
<path d="M231.051 172.907L219.136 174.341C218.95 174.368 218.764 174.328 218.605 174.235L152.241 135.912C147.326 133.083 138.758 133.428 133.086 136.709L97.8848 157.033V263.048C101.232 262.849 104.633 261.972 107.369 260.391L227.332 191.131C230.613 189.232 232.194 186.774 231.994 184.49L232.021 173.77C232.021 173.252 231.569 172.84 231.051 172.907Z" fill="#150035"/>
<path d="M228.699 168.096L159.891 128.365C148.135 122.243 145.479 120.251 142.822 118.921C136.526 122.548 134.347 123.781 126.297 128.657C118.248 133.533 13.109 194.012 13.109 194.012C7.43695 197.279 6.8259 202.234 11.7275 205.064L88.2135 249.218C93.1151 252.047 101.696 251.702 107.355 248.421L227.318 179.161C232.976 175.893 233.601 170.938 228.699 168.109V168.096Z" fill="white"/>
<path d="M96.5437 252.541C93.183 252.541 89.9551 251.837 87.4977 250.429L11.0249 206.275C8.43461 204.774 7 202.635 7 200.257C7 197.481 8.96595 194.758 12.3931 192.779L124.226 127.969C126.951 126.325 134.132 121.705 138.838 118.922C141.014 117.635 142.823 116.93 142.823 116.93C142.823 116.93 142.525 116.553 145.48 118.258C150.412 121.104 160.398 126.881 162.018 127.969L229.418 166.876C232.008 168.377 233.43 170.516 233.43 172.907C233.43 175.683 231.464 178.406 228.036 180.372L108.074 249.632C104.74 251.558 100.555 252.541 96.557 252.541H96.5437ZM138.174 122.908C138.174 122.908 130.204 128.274 128.597 128.938L13.8144 195.21C11.2773 196.671 9.82938 198.504 9.82938 200.244C9.82938 201.984 11.2507 203.14 12.4329 203.817L88.9057 247.971C93.3424 250.535 101.472 250.176 106.652 247.174L226.615 177.915C229.152 176.453 230.6 174.62 230.6 172.88C230.6 171.14 229.179 169.984 227.997 169.294L157.648 128.673C152.786 125.564 146.808 121.579 146.808 121.579C146.808 121.579 144.462 120.177 142.823 120.251C140.734 120.344 138.174 122.908 138.174 122.908Z" fill="#150035"/>
<path d="M18.2945 208.248L16.2754 208.254L16.3109 220.209L18.3299 220.203L18.2945 208.248Z" fill="#150035"/>
<path d="M93.5406 251.121L91.5215 251.126L91.5549 263.082L93.574 263.076L93.5406 251.121Z" fill="#150035"/>
<path d="M82.8726 245.837L80.8535 245.843L80.8869 257.798L82.906 257.792L82.8726 245.837Z" fill="#150035"/>
<path d="M51.9669 161.632L39.0371 169.23L40.0601 170.971L52.9899 163.373L51.9669 161.632Z" fill="#150035"/>
<path d="M2.00581 206.952H0V200.35C0 195.276 2.72312 190.534 7.09337 187.957L34.6964 171.777L35.7192 173.517L8.11619 189.697C4.35697 191.902 2.00581 195.98 2.00581 200.35V206.952Z" fill="#150035"/>
<path d="M225.943 149.764L214.857 151.399C214.684 151.429 214.51 151.392 214.359 151.302L151.764 114.102C147.129 111.356 139.145 111.845 133.926 115.221L37.0895 177.603C36.9914 177.658 36.893 177.699 36.7818 177.715L19.5157 180.271C19.1078 180.332 18.8172 180.709 18.8251 181.147L19.0386 192.981C19.1195 194.72 20.1653 196.362 22.2071 197.574L94.3356 240.434C98.9579 243.181 106.954 242.678 112.173 239.315L222.803 168.049C225.841 166.094 227.259 163.611 227.032 161.33L226.863 150.611C226.854 150.093 226.425 149.703 225.943 149.764Z" fill="#DE5656"/>
<path d="M102.165 243.627C99.0305 243.684 96.0074 243.034 93.6902 241.668L21.5617 198.807C19.1942 197.402 17.8313 195.354 17.7153 193.044L17.5011 181.171C17.4805 180.029 18.2557 179.032 19.3187 178.88L36.4858 176.338L133.237 114.011C138.896 110.361 147.314 109.864 152.387 112.868L216.311 154.378L227.225 152.759C227.818 152.682 228.441 152.87 228.895 153.287C229.361 153.717 229.62 154.324 229.632 154.974L229.8 165.693C230.099 168.517 228.33 171.459 224.937 173.646L112.828 240.512C109.753 242.494 105.869 243.547 102.14 243.615L102.165 243.627ZM20.1361 181.602L20.3406 192.944C20.4194 194.563 21.7408 195.682 22.8308 196.34L94.9593 239.2C99.1432 241.689 106.706 241.181 111.483 238.105L223.605 171.238C226.03 169.667 227.382 167.663 227.201 165.873L227.017 155.646L216.511 157.204C216.041 157.266 215.594 157.181 215.193 156.935L151.131 115.335C146.947 112.847 139.384 113.355 134.606 116.43L37.7697 178.813C37.5248 178.976 37.254 179.074 36.9698 179.119L20.1485 181.601L20.1361 181.602Z" fill="#150035"/>
<path d="M227.608 153.117L216.521 154.752C216.348 154.782 216.174 154.745 216.024 154.655L151.753 114.129C147.118 111.383 139.134 111.872 133.903 115.248L101.441 136.16L103.353 242.158C106.471 241.903 109.626 240.969 112.15 239.343L224.468 171.402C227.493 169.447 228.923 166.964 228.696 164.683L228.528 153.964C228.518 153.446 228.09 153.042 227.608 153.117Z" fill="#150035"/>
<path d="M223.827 148.098L158.753 106.455C147.679 100.532 145.166 98.5842 142.664 97.2995C136.857 101.031 134.847 102.301 127.428 107.312C120.009 112.322 23.0455 174.56 23.0455 174.56C17.8146 177.922 17.334 182.887 21.9564 185.633L94.0848 228.493C98.7072 231.24 106.704 230.75 111.922 227.375L222.738 159.184C227.957 155.822 228.45 150.857 223.828 148.111L223.827 148.098Z" fill="white"/>
<path d="M101.911 231.675C98.777 231.732 95.7539 231.082 93.4367 229.716L21.3206 186.855C18.8778 185.398 17.5013 183.284 17.4584 180.907C17.4083 178.131 19.1927 175.375 22.3532 173.338L125.482 106.658C127.994 104.968 134.608 100.229 138.946 97.3669C140.952 96.0439 142.627 95.3077 142.627 95.3077C142.627 95.3077 142.342 94.9365 145.128 96.5915C149.779 99.3535 159.197 104.962 160.727 106.022L225.536 147.213C227.978 148.67 229.342 150.784 229.386 153.175C229.436 155.951 227.651 158.706 224.491 160.73L112.612 228.573C109.537 230.555 105.653 231.608 101.924 231.675L101.911 231.675ZM138.399 101.363C138.399 101.363 131.062 106.863 129.575 107.554L23.7226 175.745C21.3828 177.249 20.0655 179.106 20.0969 180.846C20.1283 182.586 21.4747 183.717 22.5894 184.375L94.7055 227.235C98.8895 229.724 106.465 229.228 111.242 226.14L223.121 158.297C225.46 156.793 226.778 154.936 226.746 153.196C226.715 151.456 225.369 150.325 224.254 149.654L156.664 106.8C152.074 103.774 146.427 99.8891 146.427 99.8891C146.427 99.8891 144.214 98.5274 142.687 98.6284C140.74 98.7572 138.399 101.363 138.399 101.363Z" fill="#150035"/>
<path d="M28.1368 188.707L26.2539 188.747L26.5026 200.7L28.3855 200.66L28.1368 188.707Z" fill="#150035"/>
<path d="M99.0861 230.306L97.2031 230.345L97.4499 242.298L99.3328 242.258L99.0861 230.306Z" fill="#150035"/>
<path d="M89.0411 225.203L87.1582 225.242L87.4049 237.195L89.2879 237.155L89.0411 225.203Z" fill="#150035"/>
<path d="M58.6989 141.532L46.7773 149.347L47.7627 151.07L59.6843 143.256L58.6989 141.532Z" fill="#150035"/>
<path d="M222.239 129.203L211.847 130.825C211.685 130.855 211.521 130.818 211.38 130.727L152.654 93.4577C148.305 90.7063 140.82 91.1868 135.932 94.5565L45.2159 156.828C45.1239 156.883 45.0317 156.924 44.9274 156.94L28.743 159.477C28.3607 159.537 28.0887 159.914 28.0966 160.352L28.3101 172.186C28.3879 173.925 29.3702 175.568 31.2858 176.782L98.956 219.723C103.293 222.474 110.789 221.98 115.678 218.624L219.315 147.484C222.161 145.532 223.488 143.051 223.272 140.769L223.102 130.051C223.093 129.533 222.691 129.142 222.239 129.203Z" fill="#DE5656"/>
<path d="M106.297 222.925C103.359 222.978 100.524 222.325 98.3497 220.956L30.6795 178.015C28.4583 176.607 27.1782 174.558 27.0668 172.248L26.8527 160.375C26.8321 159.232 27.5577 158.236 28.5541 158.085L44.6458 155.563L135.282 93.346C140.583 89.7031 148.475 89.2154 153.234 92.2251L213.211 133.806L223.441 132.2C223.997 132.123 224.581 132.312 225.007 132.73C225.445 133.16 225.688 133.767 225.7 134.418L225.87 145.136C226.153 147.961 224.498 150.9 221.32 153.083L116.29 219.822C113.41 221.8 109.769 222.849 106.273 222.912L106.297 222.925ZM29.3235 160.808L29.5281 172.151C29.6037 173.77 30.8438 174.89 31.8665 175.549L99.5367 218.49C103.462 220.983 110.552 220.484 115.027 217.414L220.068 150.674C222.34 149.106 223.605 147.103 223.433 145.313L223.249 135.086L213.402 136.632C212.961 136.693 212.541 136.608 212.165 136.362L152.059 94.6908C148.133 92.1975 141.044 92.6974 136.568 95.7674L45.8523 158.039C45.6228 158.203 45.369 158.3 45.1026 158.345L29.3351 160.808L29.3235 160.808Z" fill="#150035"/>
<path d="M226.542 135.284L216.15 136.906C215.987 136.936 215.824 136.899 215.683 136.808L152.643 93.4848C148.295 90.7334 140.81 91.2139 135.91 94.5838L105.499 115.459L107.411 221.457C110.334 221.205 113.292 220.275 115.656 218.651L223.618 153.564C226.453 151.613 227.79 149.131 227.575 146.85L227.405 136.132C227.396 135.614 226.993 135.209 226.542 135.284Z" fill="#150035"/>
<path d="M221.891 132.627L159.195 85.8184C148.807 79.8834 146.448 77.9329 144.101 76.6454C138.662 80.3705 136.779 81.6384 129.829 86.6404C122.879 91.6423 32.0435 153.769 32.0435 153.769C27.1432 157.126 26.6983 162.089 31.0349 164.841L98.7052 207.782C103.042 210.534 110.538 210.053 115.427 206.683L220.882 143.712C225.771 140.356 226.228 135.392 221.891 132.641L221.891 132.627Z" fill="white"/>
<path d="M106.047 210.973C103.109 211.026 100.274 210.373 98.1 209.004L30.4415 166.063C28.1496 164.603 26.8568 162.488 26.8139 160.11C26.7638 157.334 28.4336 154.581 31.3943 152.548L128.005 85.9848C130.358 84.2979 136.553 79.5658 140.617 76.7092C142.496 75.3884 144.065 74.6541 144.065 74.6541C144.065 74.6541 143.798 74.2826 146.412 75.9407C150.775 78.7078 159.611 84.3264 161.047 85.3888L224.548 131.299C226.839 132.759 228.121 134.875 228.164 137.266C228.214 140.041 226.544 142.795 223.583 144.815L116.076 207.883C113.195 209.861 109.555 210.91 106.059 210.973L106.047 210.973ZM140.108 80.7046C140.108 80.7046 133.236 86.196 131.843 86.8854L32.6809 154.956C30.4889 156.457 29.2561 158.312 29.2874 160.052C29.3188 161.792 30.5824 162.925 31.6282 163.584L99.2868 206.525C103.212 209.018 110.313 208.531 114.789 205.448L222.296 142.38C224.488 140.879 225.721 139.023 225.689 137.284C225.658 135.544 224.395 134.411 223.348 133.739L157.238 86.1617C152.932 83.1304 147.633 79.2397 147.633 79.2397C147.633 79.2397 145.557 77.8755 144.125 77.9748C142.3 78.1014 140.108 80.7046 140.108 80.7046Z" fill="#150035"/>
<path d="M36.8336 167.922L35.0684 167.96L35.315 179.912L37.0802 179.874L36.8336 167.922Z" fill="#150035"/>
<path d="M103.398 209.6L101.633 209.638L101.878 221.59L103.643 221.553L103.398 209.6Z" fill="#150035"/>
<path d="M93.9742 204.486L92.209 204.524L92.4538 216.476L94.219 216.439L93.9742 204.486Z" fill="#150035"/>
<path d="M76.4098 163.662C76.7004 163.834 76.7004 164.098 76.4098 164.27C76.1193 164.442 75.657 164.442 75.3664 164.27C75.0758 164.098 75.0758 163.834 75.3664 163.662C75.657 163.491 76.1193 163.491 76.4098 163.662Z" fill="#150035"/>
<path d="M79.1345 162.078C79.425 162.25 79.425 162.514 79.1345 162.686C78.8439 162.857 78.3816 162.857 78.091 162.686C77.8004 162.514 77.8004 162.25 78.091 162.078C78.3816 161.906 78.8439 161.906 79.1345 162.078Z" fill="#150035"/>
<path d="M70.9196 163.637C71.2102 163.809 71.2102 164.073 70.9196 164.244C70.629 164.416 70.1667 164.416 69.8761 164.244C69.5856 164.073 69.5856 163.809 69.8761 163.637C70.1667 163.465 70.629 163.465 70.9196 163.637Z" fill="#150035"/>
<path d="M73.654 162.064C73.9446 162.236 73.9446 162.5 73.654 162.672C73.3634 162.844 72.9011 162.844 72.6105 162.672C72.3199 162.5 72.3199 162.236 72.6105 162.064C72.9011 161.893 73.3634 161.893 73.654 162.064Z" fill="#150035"/>
<path d="M76.3864 160.493C76.677 160.665 76.677 160.929 76.3864 161.1C76.0958 161.272 75.6335 161.272 75.3429 161.1C75.0524 160.929 75.0524 160.665 75.3429 160.493C75.6335 160.321 76.0958 160.321 76.3864 160.493Z" fill="#150035"/>
<path d="M65.4645 163.637C65.7551 163.809 65.7551 164.073 65.4645 164.244C65.1739 164.416 64.7116 164.416 64.4211 164.244C64.1305 164.073 64.1305 163.809 64.4211 163.637C64.7116 163.465 65.1739 163.465 65.4645 163.637Z" fill="#150035"/>
<path d="M68.1989 162.064C68.4895 162.236 68.4895 162.5 68.1989 162.672C67.9083 162.844 67.446 162.844 67.1554 162.672C66.8649 162.5 66.8649 162.236 67.1554 162.064C67.446 161.893 67.9083 161.893 68.1989 162.064Z" fill="#150035"/>
<path d="M70.9196 160.493C71.2102 160.665 71.2102 160.929 70.9196 161.1C70.629 161.272 70.1667 161.272 69.8761 161.1C69.5856 160.929 69.5856 160.665 69.8761 160.493C70.1667 160.321 70.629 160.321 70.9196 160.493Z" fill="#150035"/>
<path d="M73.654 158.921C73.9446 159.093 73.9446 159.357 73.654 159.529C73.3634 159.7 72.9011 159.7 72.6105 159.529C72.3199 159.357 72.3199 159.093 72.6105 158.921C72.9011 158.749 73.3634 158.749 73.654 158.921Z" fill="#150035"/>
<path d="M60.0075 163.637C60.2981 163.809 60.2981 164.073 60.0075 164.244C59.7169 164.416 59.2546 164.416 58.964 164.244C58.6734 164.073 58.6734 163.809 58.964 163.637C59.2546 163.465 59.7169 163.465 60.0075 163.637Z" fill="#150035"/>
<path d="M62.7419 162.064C63.0325 162.236 63.0325 162.5 62.7419 162.672C62.4513 162.844 61.989 162.844 61.6984 162.672C61.4078 162.5 61.4078 162.236 61.6984 162.064C61.989 161.893 62.4513 161.893 62.7419 162.064Z" fill="#150035"/>
<path d="M65.4645 160.493C65.7551 160.665 65.7551 160.929 65.4645 161.1C65.1739 161.272 64.7116 161.272 64.4211 161.1C64.1305 160.929 64.1305 160.665 64.4211 160.493C64.7116 160.321 65.1739 160.321 65.4645 160.493Z" fill="#150035"/>
<path d="M68.1989 158.921C68.4895 159.093 68.4895 159.357 68.1989 159.529C67.9083 159.7 67.446 159.7 67.1554 159.529C66.8649 159.357 66.8649 159.093 67.1554 158.921C67.446 158.749 67.9083 158.749 68.1989 158.921Z" fill="#150035"/>
<path d="M70.9196 157.336C71.2102 157.508 71.2102 157.772 70.9196 157.944C70.629 158.116 70.1667 158.116 69.8761 157.944C69.5856 157.772 69.5856 157.508 69.8761 157.336C70.1667 157.165 70.629 157.165 70.9196 157.336Z" fill="#150035"/>
<path d="M57.2751 162.064C57.5657 162.236 57.5657 162.5 57.2751 162.672C56.9845 162.844 56.5222 162.844 56.2316 162.672C55.941 162.5 55.941 162.236 56.2316 162.064C56.5222 161.893 56.9845 161.893 57.2751 162.064Z" fill="#150035"/>
<path d="M60.0075 160.493C60.2981 160.665 60.2981 160.929 60.0075 161.1C59.7169 161.272 59.2546 161.272 58.964 161.1C58.6734 160.929 58.6734 160.665 58.964 160.493C59.2546 160.321 59.7169 160.321 60.0075 160.493Z" fill="#150035"/>
<path d="M62.7419 158.921C63.0325 159.093 63.0325 159.357 62.7419 159.529C62.4513 159.7 61.989 159.7 61.6984 159.529C61.4078 159.357 61.4078 159.093 61.6984 158.921C61.989 158.749 62.4513 158.749 62.7419 158.921Z" fill="#150035"/>
<path d="M65.4645 157.336C65.7551 157.508 65.7551 157.772 65.4645 157.944C65.1739 158.116 64.7116 158.116 64.4211 157.944C64.1305 157.772 64.1305 157.508 64.4211 157.336C64.7116 157.165 65.1739 157.165 65.4645 157.336Z" fill="#150035"/>
<path d="M68.1989 155.764C68.4895 155.936 68.4895 156.2 68.1989 156.372C67.9083 156.543 67.446 156.543 67.1554 156.372C66.8649 156.2 66.8649 155.936 67.1554 155.764L68.1989 155.764Z" fill="#150035"/>
<path d="M54.5524 160.493C54.843 160.665 54.843 160.929 54.5524 161.1C54.2618 161.272 53.7995 161.272 53.509 161.1C53.2184 160.929 53.2184 160.665 53.509 160.493C53.7995 160.321 54.2618 160.321 54.5524 160.493Z" fill="#150035"/>
<path d="M57.2751 158.921C57.5657 159.093 57.5657 159.357 57.2751 159.529C56.9845 159.7 56.5222 159.7 56.2316 159.529C55.941 159.357 55.941 159.093 56.2316 158.921C56.5222 158.749 56.9845 158.749 57.2751 158.921Z" fill="#150035"/>
<path d="M60.0075 157.336C60.2981 157.508 60.2981 157.772 60.0075 157.944C59.7169 158.116 59.2546 158.116 58.964 157.944C58.6734 157.772 58.6734 157.508 58.964 157.336C59.2546 157.165 59.7169 157.165 60.0075 157.336Z" fill="#150035"/>
<path d="M51.818 158.921C52.1086 159.093 52.1086 159.357 51.818 159.529C51.5275 159.7 51.0652 159.7 50.7746 159.529C50.484 159.357 50.484 159.093 50.7746 158.921C51.0652 158.749 51.5275 158.749 51.818 158.921Z" fill="#150035"/>
<path d="M54.5524 157.336C54.843 157.508 54.843 157.772 54.5524 157.944C54.2618 158.116 53.7995 158.116 53.509 157.944C53.2184 157.772 53.2184 157.508 53.509 157.336C53.7995 157.165 54.2618 157.165 54.5524 157.336Z" fill="#150035"/>
<path d="M57.2751 155.764C57.5657 155.936 57.5657 156.2 57.2751 156.372C56.9845 156.543 56.5222 156.543 56.2316 156.372C55.941 156.2 55.941 155.936 56.2316 155.764C56.5222 155.592 56.9845 155.592 57.2751 155.764Z" fill="#150035"/>
<path d="M49.0856 157.336C49.3762 157.508 49.3762 157.772 49.0856 157.944C48.795 158.116 48.3327 158.116 48.0422 157.944C47.7516 157.772 47.7516 157.508 48.0422 157.336C48.3327 157.165 48.795 157.165 49.0856 157.336Z" fill="#150035"/>
<path d="M51.818 155.764C52.1086 155.936 52.1086 156.2 51.818 156.372C51.5275 156.543 51.0652 156.543 50.7746 156.372C50.484 156.2 50.484 155.936 50.7746 155.764C51.0652 155.592 51.5275 155.592 51.818 155.764Z" fill="#150035"/>
<path d="M54.5524 154.193C54.843 154.364 54.843 154.628 54.5524 154.8C54.2618 154.972 53.7995 154.972 53.509 154.8C53.2184 154.628 53.2184 154.364 53.509 154.193C53.7995 154.021 54.2618 154.021 54.5524 154.193Z" fill="#150035"/>
<path d="M49.0856 154.193C49.3762 154.364 49.3762 154.628 49.0856 154.8C48.795 154.972 48.3327 154.972 48.0422 154.8C47.7516 154.628 47.7516 154.364 48.0422 154.193C48.3327 154.021 48.795 154.021 49.0856 154.193Z" fill="#150035"/>
<path d="M51.818 152.608C52.1086 152.779 52.1086 153.044 51.818 153.215C51.5275 153.387 51.0652 153.387 50.7746 153.215C50.484 153.044 50.484 152.779 50.7746 152.608C51.0652 152.436 51.5275 152.436 51.818 152.608Z" fill="#150035"/>
<path d="M49.072 151.022C49.3625 151.194 49.3625 151.458 49.072 151.63C48.7814 151.802 48.3191 151.802 48.0285 151.63C47.7379 151.458 47.7379 151.194 48.0285 151.022C48.3191 150.851 48.7814 150.851 49.072 151.022Z" fill="#150035"/>
<path d="M80.8254 160.533C81.1159 160.361 81.5782 160.361 81.8688 160.533C82.1594 160.704 82.1594 160.968 81.8688 161.14C81.5782 161.312 81.1159 161.312 80.8254 161.14C80.5348 160.968 80.5348 160.704 80.8254 160.533Z" fill="#150035"/>
<path d="M84.6286 158.921C84.9192 159.093 84.9192 159.357 84.6286 159.529C84.338 159.7 83.8757 159.7 83.5851 159.529C83.2945 159.357 83.2945 159.093 83.5851 158.921C83.8757 158.749 84.338 158.749 84.6286 158.921Z" fill="#150035"/>
<path d="M86.3175 157.376C86.6081 157.204 87.0704 157.204 87.361 157.376C87.6516 157.547 87.6516 157.811 87.361 157.983C87.0704 158.155 86.6081 158.155 86.3175 157.983C86.027 157.811 86.027 157.547 86.3175 157.376Z" fill="#150035"/>
<path d="M78.0773 158.934C78.3679 158.763 78.8302 158.763 79.1208 158.934C79.4114 159.106 79.4114 159.37 79.1208 159.542C78.8302 159.714 78.3679 159.714 78.0773 159.542C77.7867 159.37 77.7867 159.106 78.0773 158.934Z" fill="#150035"/>
<path d="M81.8532 157.363C82.1438 157.535 82.1438 157.799 81.8532 157.97C81.5626 158.142 81.1003 158.142 80.8097 157.97C80.5192 157.799 80.5192 157.535 80.8097 157.363C81.1003 157.191 81.5626 157.191 81.8532 157.363Z" fill="#150035"/>
<path d="M84.5759 155.777C84.8665 155.949 84.8665 156.213 84.5759 156.385C84.2853 156.557 83.823 156.557 83.5324 156.385C83.2418 156.213 83.2418 155.949 83.5324 155.777C83.823 155.606 84.2853 155.606 84.5759 155.777Z" fill="#150035"/>
<path d="M87.3102 154.206C87.6008 154.378 87.6008 154.642 87.3102 154.814C87.0196 154.985 86.5574 154.985 86.2668 154.814C85.9762 154.642 85.9762 154.378 86.2668 154.206C86.5574 154.034 87.0196 154.034 87.3102 154.206Z" fill="#150035"/>
<path d="M75.3429 157.363C75.6335 157.191 76.0958 157.191 76.3864 157.363C76.677 157.535 76.677 157.799 76.3864 157.97C76.0958 158.142 75.6335 158.142 75.3429 157.97C75.0524 157.799 75.0524 157.535 75.3429 157.363Z" fill="#150035"/>
<path d="M79.1208 155.777C79.4114 155.949 79.4114 156.213 79.1208 156.385C78.8302 156.557 78.3679 156.557 78.0773 156.385C77.7867 156.213 77.7867 155.949 78.0773 155.777C78.3679 155.606 78.8302 155.606 79.1208 155.777Z" fill="#150035"/>
<path d="M81.8532 154.206C82.1438 154.378 82.1438 154.642 81.8532 154.814C81.5626 154.985 81.1003 154.985 80.8097 154.814C80.5192 154.642 80.5192 154.378 80.8097 154.206C81.1003 154.034 81.5626 154.034 81.8532 154.206Z" fill="#150035"/>
<path d="M84.5759 152.634C84.8665 152.806 84.8665 153.07 84.5759 153.242C84.2853 153.413 83.823 153.413 83.5324 153.242C83.2418 153.07 83.2418 152.806 83.5324 152.634C83.823 152.462 84.2853 152.462 84.5759 152.634Z" fill="#150035"/>
<path d="M86.7826 151.775C87.1911 151.775 87.5223 151.586 87.5223 151.353C87.5223 151.119 87.1911 150.93 86.7826 150.93C86.3741 150.93 86.043 151.119 86.043 151.353C86.043 151.586 86.3741 151.775 86.7826 151.775Z" fill="#150035"/>
<path d="M84.5759 149.477C84.8665 149.649 84.8665 149.913 84.5759 150.085C84.2853 150.256 83.823 150.256 83.5324 150.085C83.2418 149.913 83.2418 149.649 83.5324 149.477C83.823 149.305 84.2853 149.305 84.5759 149.477Z" fill="#150035"/>
<path d="M82.6213 142.887C80.2834 138.845 74.049 135.952 66.7052 135.952C59.3613 135.952 53.1269 138.845 50.789 142.887L49.7852 142.887L49.7852 146.413C49.7852 152.185 57.3668 156.874 66.7052 156.874C76.0435 156.874 83.6252 152.185 83.6252 146.413L83.6252 142.887L82.6213 142.887Z" fill="#DE5656"/>
<path d="M66.7052 157.138C57.2215 157.138 49.5078 152.33 49.5078 146.413L49.5078 142.622L50.6305 142.622C53.1401 138.474 59.5726 135.688 66.7052 135.688C73.8377 135.688 80.2702 138.474 82.7798 142.622L83.9026 142.622L83.9026 146.413C83.9026 152.33 76.1888 157.138 66.7052 157.138ZM50.0494 143.15L50.0494 146.4C50.0494 152.013 57.5253 156.583 66.7052 156.583C75.885 156.583 83.361 152.013 83.361 146.4L83.361 143.15L82.4628 143.15L82.3836 143.018C80.0193 138.95 73.7189 136.216 66.7052 136.216C59.6915 136.216 53.3779 138.95 51.0268 143.018L50.9475 143.15L50.0494 143.15Z" fill="#150035"/>
<path d="M83.6252 142.886C83.6252 148.658 76.0435 153.347 66.7052 153.347C57.3668 153.347 49.7852 148.658 49.7852 142.886C49.7852 137.114 57.3668 132.425 66.7052 132.425C76.0435 132.425 83.6252 137.114 83.6252 142.886Z" fill="#DE5656"/>
<path d="M66.7052 154.18C76.0498 154.18 83.6252 149.496 83.6252 143.719C83.6252 137.941 76.0498 133.258 66.7052 133.258C57.3605 133.258 49.7852 137.941 49.7852 143.719C49.7852 149.496 57.3605 154.18 66.7052 154.18Z" fill="white"/>
<path d="M66.7052 153.612C57.2215 153.612 49.5078 148.804 49.5078 142.886C49.5078 136.969 57.2215 132.161 66.7052 132.161C76.1888 132.161 83.9026 136.969 83.9026 142.886C83.9026 148.804 76.1888 153.612 66.7052 153.612ZM66.7052 132.689C57.5253 132.689 50.0494 137.26 50.0494 142.873C50.0494 148.487 57.5253 153.057 66.7052 153.057C75.885 153.057 83.361 148.487 83.361 142.873C83.361 137.26 75.885 132.689 66.7052 132.689Z" fill="#150035"/>
<path d="M66.7075 150.283C74.1701 150.283 80.2198 146.758 80.2198 142.411C80.2198 138.063 74.1701 134.538 66.7075 134.538C59.2449 134.538 53.1953 138.063 53.1953 142.411C53.1953 146.758 59.2449 150.283 66.7075 150.283Z" fill="#DE5656"/>
<path d="M66.7076 150.56C59.0995 150.56 52.918 146.915 52.918 142.424C52.918 137.933 59.0995 134.287 66.7076 134.287C74.3156 134.287 80.4972 137.933 80.4972 142.424C80.4972 146.915 74.3156 150.56 66.7076 150.56ZM66.7076 134.816C59.4033 134.816 53.4595 138.223 53.4595 142.411C53.4595 146.598 59.4033 150.005 66.7076 150.005C74.0118 150.005 79.9556 146.598 79.9556 142.411C79.9556 138.223 74.0118 134.816 66.7076 134.816Z" fill="#150035"/>
<path d="M66.7075 134.552C59.2448 134.552 53.1953 138.079 53.1953 142.425C53.1953 142.821 53.2614 143.191 53.3538 143.574C54.3048 139.77 59.9184 136.851 66.7075 136.851C73.4967 136.851 79.1102 139.77 80.0613 143.574C80.1537 143.204 80.2198 142.821 80.2198 142.425C80.2198 138.079 74.1703 134.552 66.7075 134.552Z" fill="#DE5656"/>
<path d="M79.9033 144.129L79.7976 143.627C78.8598 139.915 73.233 137.102 66.708 137.102C60.1831 137.102 54.5431 139.902 53.6185 143.627L53.4732 144.221L53.1034 143.627C52.9845 143.178 52.9316 142.781 52.9316 142.412C52.9316 137.921 59.1132 134.275 66.7212 134.275C74.3293 134.275 80.5108 137.921 80.5108 142.412C80.5108 142.781 80.458 143.164 80.3391 143.627L79.9165 144.129L79.9033 144.129ZM66.708 134.817C59.4038 134.817 53.46 138.224 53.46 142.412C53.46 142.425 53.46 142.438 53.46 142.464C55.111 138.991 60.434 136.573 66.708 136.573C72.982 136.573 78.305 138.991 79.9561 142.464C79.9561 142.451 79.9561 142.438 79.9561 142.412C79.9561 138.224 74.0123 134.817 66.708 134.817Z" fill="#150035"/>
<path d="M64.4601 134.724L64.4601 136.943L60.6825 137.656L56.9842 139.254L54.3029 141.592L53.3519 143.56L53.1934 141.592L54.3293 139.254L56.3634 137.352L59.7183 135.675L63.8261 134.724L64.4601 134.724Z" fill="#150035"/>
<path d="M73.9146 146.373C74.4297 145.858 74.6939 145.343 74.7335 144.814L74.7599 144.814L74.7599 143.309L73.7297 142.886C73.5183 142.727 73.2806 142.569 73.0164 142.41C72.0654 141.882 71.0484 141.592 69.9389 141.552C68.8294 141.512 67.4029 141.803 65.6461 142.41L62.2119 140.495C63.0177 140.297 63.8234 140.35 64.6555 140.667L66.5443 139.201L66.5443 137.814L64.1272 138.646L64.1272 138.673C63.8894 138.659 63.6517 138.646 63.4139 138.659C62.344 138.686 61.3006 138.95 60.2835 139.425L59.8344 139.174L60.0061 139.042L60.0061 138.395L58.1702 138.289L58.1702 140.482L58.7645 140.02L59.0419 140.178C58.7645 140.39 58.54 140.601 58.3551 140.812C58.0381 140.707 57.7871 140.627 57.7871 140.627L57.7871 142.226C57.8532 142.939 58.3551 143.573 59.3193 144.101C60.2703 144.63 61.3402 144.92 62.5289 144.986C63.7177 145.039 65.0385 144.828 66.4915 144.339L70.1634 146.386C69.7011 146.492 69.1728 146.518 68.5784 146.479C68.2086 146.452 67.8387 146.386 67.4689 146.294L67.5613 145.99L64.8536 146.201L64.8536 147.588C66.1745 148.13 67.4689 148.394 68.7237 148.381C69.9785 148.367 71.154 148.09 72.2768 147.575L73.875 148.473L75.1298 147.733L75.1298 146.347L73.941 146.399L73.9146 146.373ZM62.4893 143.071C62.0402 143.031 61.6572 142.926 61.3534 142.754C61.01 142.569 60.7986 142.331 60.7194 142.054C60.6401 141.776 60.7194 141.499 60.9307 141.235L63.9687 142.926C63.4271 143.058 62.9384 143.097 62.4893 143.058L62.4893 143.071ZM71.5239 145.713L68.1029 143.797C68.7765 143.573 69.3577 143.48 69.8728 143.494C70.388 143.52 70.837 143.639 71.2333 143.85C71.6692 144.101 71.9201 144.392 71.973 144.735C72.0258 145.079 71.8805 145.396 71.5371 145.699L71.5239 145.713Z" fill="#DE5656"/>
<path d="M73.8492 148.777L72.2377 147.879C71.1282 148.381 69.9395 148.645 68.6979 148.658C67.4299 148.672 66.0826 148.407 64.7221 147.853L64.5504 147.787L64.5504 145.964L67.8922 145.7L67.7733 146.109C68.0639 146.175 68.3148 146.215 68.5526 146.228C68.8035 146.241 69.0413 146.241 69.2658 146.228L66.4128 144.63C64.9731 145.105 63.6522 145.303 62.4635 145.251C61.2351 145.198 60.1124 144.881 59.135 144.339C58.0915 143.758 57.5367 143.058 57.4707 142.239L57.4707 140.575L57.8405 140.363L57.8405 138.012L60.2181 138.144L60.2181 139.122C61.2483 138.66 62.2918 138.422 63.3485 138.382C63.5598 138.382 63.7711 138.382 63.9825 138.382L66.7562 137.431L66.7562 139.333L64.6429 140.971L64.4976 140.918C63.9957 140.733 63.4937 140.654 62.9918 140.654L65.6071 142.12C67.3374 141.526 68.7771 141.248 69.8866 141.288C71.0358 141.328 72.1056 141.631 73.0831 142.173C73.3472 142.318 73.585 142.477 73.8095 142.648L74.9719 143.124L74.9719 144.815L74.8794 145.185C74.8002 145.475 74.6681 145.766 74.4567 146.056L75.3021 146.017L75.3021 147.839L73.7831 148.738L73.8492 148.777ZM72.2642 147.271L73.8492 148.156L74.8266 147.575L74.8266 146.624L73.2284 146.703L73.7171 146.215C74.1794 145.752 74.4303 145.29 74.4567 144.828L74.4832 144.458L74.4832 143.533L73.5586 143.137C73.3604 142.979 73.1359 142.833 72.8717 142.688C71.9604 142.186 70.9697 141.909 69.913 141.869C68.8564 141.83 67.4299 142.107 65.7128 142.715L65.5939 142.754L61.4597 140.443L62.1333 140.284C62.939 140.086 63.7579 140.126 64.59 140.416L66.2543 139.122L66.2543 138.237L64.4844 138.844L64.5504 138.99L64.1013 138.99C63.8636 138.963 63.639 138.95 63.4013 138.963C62.3842 138.99 61.3672 139.241 60.3766 139.703L60.2445 139.756L59.3199 139.241L59.7029 138.937L59.7029 138.673L58.5142 138.831L58.4085 139.941L58.7123 139.703L59.518 140.152L59.1746 140.403C58.9368 140.575 58.7387 140.76 58.5274 140.997L58.4085 141.13L58.0387 140.997L58.0387 142.226C58.0915 142.82 58.5538 143.388 59.4256 143.877C60.3369 144.379 61.3672 144.669 62.5163 144.722C63.6655 144.775 64.9599 144.564 66.3864 144.088L66.5053 144.049L70.9169 146.505L70.2168 146.651C69.7281 146.756 69.1734 146.783 68.5658 146.743C68.2092 146.717 67.8393 146.664 67.4166 146.545L67.1525 146.479L67.2053 146.281L65.1316 146.439L65.1316 147.404C66.36 147.879 67.5884 148.13 68.7243 148.104C69.9263 148.09 71.0886 147.826 72.1585 147.324L72.2906 147.271L72.2642 147.271ZM71.5509 146.056L67.4299 143.758L68.011 143.56C68.7111 143.322 69.3319 143.216 69.8734 143.243C70.4282 143.269 70.9169 143.401 71.3528 143.639C71.8679 143.93 72.1585 144.286 72.2245 144.709C72.2906 145.145 72.1189 145.554 71.6962 145.924L71.5509 146.043L71.5509 146.056ZM68.7903 143.903L71.4716 145.396C71.6433 145.198 71.7226 145.013 71.683 144.801C71.6434 144.55 71.432 144.313 71.0754 144.115C70.7188 143.917 70.3093 143.811 69.847 143.784C69.53 143.771 69.1734 143.811 68.7903 143.89L68.7903 143.903ZM62.7937 143.375C62.6748 143.375 62.5692 143.375 62.4503 143.362C61.9616 143.322 61.5389 143.203 61.1955 143.005C60.7992 142.781 60.5351 142.49 60.4426 142.147C60.3633 141.896 60.3501 141.499 60.7068 141.077L60.8521 140.905L64.6825 143.045L64.0089 143.203C63.573 143.309 63.1635 143.362 62.7805 143.362L62.7937 143.375ZM62.5031 142.82C62.7144 142.833 62.9258 142.833 63.1635 142.82L61.0106 141.618C60.9313 141.79 60.9445 141.909 60.9709 142.001C61.0238 142.199 61.1955 142.384 61.4729 142.543C61.7502 142.701 62.0937 142.794 62.5031 142.833L62.5031 142.82Z" fill="#150035"/>
<path d="M70.1523 145L66.4804 142.953C65.0274 143.442 63.7066 143.653 62.5178 143.6C61.3291 143.547 60.2592 143.243 59.3082 142.715C58.344 142.174 57.8421 141.553 57.776 140.839C57.7232 140.126 58.1326 139.439 59.0176 138.792L58.1458 138.303L59.4006 137.564L60.2724 138.053C61.3027 137.564 62.3461 137.313 63.4028 137.286C64.4595 137.26 65.5161 137.445 66.5332 137.841L64.6444 139.307C63.8255 139.004 63.0065 138.951 62.2008 139.136L65.635 141.051C67.3917 140.443 68.8183 140.153 69.9278 140.192C71.0373 140.232 72.0543 140.522 73.0053 141.051C74.062 141.645 74.6432 142.332 74.7356 143.111C74.8281 143.891 74.4054 144.657 73.4544 145.423L75.0923 146.334L73.8375 147.074L72.2392 146.176C71.1297 146.704 69.941 146.968 68.6862 146.981C67.4314 146.995 66.1501 146.73 64.8161 146.189L66.8238 144.71C67.3785 144.921 67.9597 145.04 68.5541 145.079C69.1485 145.119 69.6768 145.079 70.1391 144.987L70.1523 145ZM60.9328 139.849C60.7083 140.113 60.6422 140.39 60.7215 140.668C60.8007 140.945 61.0121 141.183 61.3555 141.368C61.6593 141.54 62.0423 141.645 62.4914 141.685C62.9405 141.724 63.4292 141.685 63.9708 141.553L60.9328 139.862L60.9328 139.849ZM71.526 144.313C71.8694 144.01 72.0147 143.693 71.9619 143.349C71.909 143.006 71.6581 142.715 71.2222 142.464C70.8259 142.24 70.3769 142.121 69.8617 142.107C69.3466 142.081 68.7654 142.187 68.0918 142.411L71.5128 144.327L71.526 144.313Z" fill="#DE5656"/>
<path d="M70.0741 145.66L66.4021 143.613C64.9492 144.101 63.6283 144.313 62.4396 144.26C61.2508 144.207 60.1809 143.903 59.2299 143.375C58.2657 142.833 57.9751 142.252 57.9223 141.526C57.8695 140.813 58.0544 140.086 58.9526 139.439L58.5431 138.818L59.3224 138.197L60.1941 138.686C61.2244 138.197 62.2679 137.946 63.3245 137.92C64.3944 137.894 65.2398 138.224 66.27 138.62L64.5661 139.928C63.7472 139.624 62.9283 139.571 62.1226 139.756L65.5568 141.671C67.3135 141.064 68.74 140.773 69.8495 140.813C70.959 140.852 71.9761 141.143 72.9271 141.671C73.9838 142.266 74.5649 142.952 74.6574 143.732C74.7498 144.511 74.3272 145.277 73.3762 146.043L74.8291 147.047L73.7724 147.694L72.1742 146.796C71.0647 147.324 69.8759 147.589 68.6211 147.602C67.3663 147.615 66.3625 147.47 65.0416 146.928L66.7587 145.343C67.3135 145.554 67.8947 145.673 68.489 145.713C69.0834 145.753 69.6118 145.713 70.0741 145.62L70.0741 145.66ZM60.8546 140.509C60.63 140.773 60.564 141.05 60.6432 141.328C60.7225 141.605 60.9338 141.843 61.2772 142.028C61.581 142.199 61.9641 142.305 62.4132 142.345C62.8622 142.384 63.351 142.345 63.8925 142.213L60.8546 140.522L60.8546 140.509ZM71.4477 144.973C71.7912 144.669 71.9364 144.352 71.8836 144.009C71.8308 143.666 71.5798 143.375 71.1439 143.124C70.7477 142.9 70.2986 142.781 69.7835 142.767C69.2683 142.741 68.6872 142.847 68.0135 143.071L71.4345 144.986L71.4477 144.973Z" fill="white"/>
<path d="M73.851 147.377L72.2396 146.479C71.1301 146.981 69.9413 147.245 68.6997 147.259C67.4317 147.259 66.0844 147.008 64.724 146.453L64.5523 146.387L64.5523 145.951L65.3184 145.502L66.7845 144.419L66.9166 144.472C67.4449 144.67 67.9997 144.789 68.5676 144.828C68.8186 144.841 69.0563 144.841 69.2809 144.828L66.4279 143.23C64.9881 143.705 63.6673 143.904 62.4785 143.851C61.2502 143.785 60.1274 143.481 59.15 142.939C58.1066 142.358 57.5518 141.658 57.4858 140.839C57.4329 140.126 57.7763 139.439 58.516 138.805L57.5914 138.29L59.3746 137.22L60.2595 137.709C61.2766 137.247 62.32 137.009 63.3767 136.969C64.473 136.943 65.7278 137.009 66.7845 137.418L66.7845 137.933L64.6711 139.571L64.5258 139.518C64.0239 139.333 63.522 139.241 63.0201 139.254L65.6354 140.72C67.3657 140.126 68.8054 139.849 69.9149 139.888C71.064 139.928 72.1339 140.232 73.1113 140.773C74.2473 141.407 74.868 142.173 74.9869 143.032C75.0794 143.811 74.7228 144.59 73.9038 145.33L75.3435 146.004L75.3435 146.44L73.8246 147.338L73.851 147.377ZM72.266 145.872L73.851 146.757L74.6699 146.268L72.9792 145.449L73.2962 145.198C74.168 144.511 74.5643 143.811 74.485 143.138C74.4058 142.451 73.8642 141.83 72.8868 141.288C71.9754 140.786 70.9848 140.509 69.9281 140.469C68.8714 140.43 67.4449 140.707 65.7278 141.315L65.6089 141.354L61.4747 139.043L62.1483 138.884C62.954 138.686 63.773 138.726 64.6051 139.017L66.1109 137.854C65.2655 137.577 64.2881 137.537 63.4163 137.564C62.3993 137.59 61.3822 137.841 60.3916 138.303L60.2595 138.356L59.401 137.881L58.6877 138.303L59.5199 138.766L59.1764 139.017C58.3707 139.598 57.9877 140.205 58.0405 140.826C58.0933 141.447 58.5556 142.002 59.4274 142.49C60.3388 142.992 61.369 143.283 62.5182 143.336C63.6673 143.388 64.9617 143.177 66.3882 142.702L66.5071 142.662L70.9187 145.119L70.2187 145.264C69.73 145.37 69.1752 145.396 68.5676 145.357C67.9997 145.317 67.4449 145.211 66.9034 145.026L65.4108 146.123C66.5335 146.532 67.6562 146.73 68.7129 146.717C69.9149 146.704 71.0772 146.44 72.1471 145.938L72.2792 145.885L72.266 145.872ZM71.5527 144.656L67.4317 142.358L68.0129 142.16C68.7129 141.922 69.3337 141.817 69.8753 141.843C70.43 141.87 70.9187 142.002 71.3546 142.239C71.8697 142.53 72.1603 142.887 72.2264 143.309C72.2924 143.745 72.1207 144.155 71.698 144.524L71.5527 144.643L71.5527 144.656ZM68.7922 142.504L71.4735 143.996C71.6452 143.798 71.7244 143.613 71.6848 143.402C71.6452 143.151 71.4339 142.913 71.0772 142.715C70.7206 142.517 70.3111 142.411 69.8488 142.385C69.5318 142.385 69.1752 142.411 68.7922 142.49L68.7922 142.504ZM62.7955 141.975C62.6767 141.975 62.571 141.975 62.4521 141.962C61.9634 141.922 61.5407 141.803 61.1973 141.605C60.8011 141.381 60.5369 141.09 60.4444 140.747C60.3652 140.496 60.352 140.113 60.7086 139.677L60.8539 139.505L64.6843 141.645L64.0107 141.803C63.5748 141.909 63.1654 141.962 62.7823 141.962L62.7955 141.975ZM61.0124 140.218C60.9331 140.39 60.9464 140.509 60.9728 140.602C61.0256 140.813 61.1973 140.985 61.4747 141.143C61.7521 141.302 62.0955 141.394 62.5049 141.434C62.7163 141.447 62.9276 141.447 63.1654 141.434L61.0124 140.232L61.0124 140.218Z" fill="#150035"/>
<path d="M68.6055 153.281L68.6055 156.874L72.6208 156.214L76.4777 155.078L80.4931 152.528L82.9498 149.451L83.6235 147.377L83.5706 144.577L81.6818 148.143L77.9042 150.719L72.2378 152.766L68.6055 153.281Z" fill="#150035"/>
<path d="M66.0968 153.374L66.0968 156.901L64.459 156.782L64.459 153.07L66.0968 153.374Z" fill="#150035"/>
<path d="M82.6213 137.748C80.2834 133.706 74.049 130.813 66.7052 130.813C59.3613 130.813 53.1269 133.706 50.789 137.748L49.7852 137.748L49.7852 141.275C49.7852 147.047 57.3668 151.736 66.7052 151.736C76.0435 151.736 83.6252 147.047 83.6252 141.275L83.6252 137.748L82.6213 137.748Z" fill="#DE5656"/>
<path d="M66.7052 152C57.2215 152 49.5078 147.192 49.5078 141.275L49.5078 137.484L50.6305 137.484C53.1401 133.336 59.5726 130.549 66.7052 130.549C73.8377 130.549 80.2702 133.336 82.7798 137.484L83.9026 137.484L83.9026 141.275C83.9026 147.192 76.1888 152 66.7052 152ZM50.0494 138.012L50.0494 141.261C50.0494 146.875 57.5253 151.445 66.7052 151.445C75.885 151.445 83.361 146.875 83.361 141.261L83.361 138.012L82.4628 138.012L82.3836 137.88C80.0193 133.812 73.7189 131.078 66.7052 131.078C59.6915 131.078 53.3779 133.812 51.0268 137.88L50.9475 138.012L50.0494 138.012Z" fill="#150035"/>
<path d="M83.6252 137.748C83.6252 143.52 76.0435 148.209 66.7052 148.209C57.3668 148.209 49.7852 143.52 49.7852 137.748C49.7852 131.976 57.3668 127.287 66.7052 127.287C76.0435 127.287 83.6252 131.976 83.6252 137.748Z" fill="#DE5656"/>
<path d="M66.7052 149.041C76.0498 149.041 83.6252 144.358 83.6252 138.58C83.6252 132.803 76.0498 128.119 66.7052 128.119C57.3605 128.119 49.7852 132.803 49.7852 138.58C49.7852 144.358 57.3605 149.041 66.7052 149.041Z" fill="white"/>
<path d="M66.7052 148.473C57.2215 148.473 49.5078 143.665 49.5078 137.748C49.5078 131.831 57.2215 127.023 66.7052 127.023C76.1888 127.023 83.9026 131.831 83.9026 137.748C83.9026 143.665 76.1888 148.473 66.7052 148.473ZM66.7052 127.551C57.5253 127.551 50.0494 132.121 50.0494 137.735C50.0494 143.348 57.5253 147.918 66.7052 147.918C75.885 147.918 83.361 143.348 83.361 137.735C83.361 132.121 75.885 127.551 66.7052 127.551Z" fill="#150035"/>
<path d="M66.7075 145.144C74.1701 145.144 80.2198 141.619 80.2198 137.272C80.2198 132.924 74.1701 129.399 66.7075 129.399C59.2449 129.399 53.1953 132.924 53.1953 137.272C53.1953 141.619 59.2449 145.144 66.7075 145.144Z" fill="#DE5656"/>
<path d="M66.7076 145.421C59.0995 145.421 52.918 141.776 52.918 137.285C52.918 132.794 59.0995 129.149 66.7076 129.149C74.3156 129.149 80.4972 132.794 80.4972 137.285C80.4972 141.776 74.3156 145.421 66.7076 145.421ZM66.7076 129.677C59.4033 129.677 53.4595 133.085 53.4595 137.272C53.4595 141.459 59.4033 144.867 66.7076 144.867C74.0118 144.867 79.9556 141.459 79.9556 137.272C79.9556 133.085 74.0118 129.677 66.7076 129.677Z" fill="#150035"/>
<path d="M66.7075 129.401C59.2448 129.401 53.1953 132.928 53.1953 137.273C53.1953 137.669 53.2614 138.039 53.3538 138.422C54.3048 134.618 59.9184 131.699 66.7075 131.699C73.4967 131.699 79.1102 134.618 80.0613 138.422C80.1537 138.052 80.2198 137.669 80.2198 137.273C80.2198 132.928 74.1703 129.401 66.7075 129.401Z" fill="#DE5656"/>
<path d="M79.9033 138.99L79.7976 138.488C78.8598 134.776 73.233 131.963 66.708 131.963C60.1831 131.963 54.5431 134.763 53.6185 138.488L53.4732 139.082L53.1034 138.488C52.9845 138.039 52.9316 137.642 52.9316 137.273C52.9316 132.782 59.1132 129.136 66.7212 129.136C74.3293 129.136 80.5108 132.782 80.5108 137.273C80.5108 137.642 80.458 138.026 80.3391 138.488L79.9165 138.99L79.9033 138.99ZM66.708 129.678C59.4038 129.678 53.46 133.086 53.46 137.273C53.46 137.286 53.46 137.299 53.46 137.325C55.111 133.852 60.434 131.435 66.708 131.435C72.982 131.435 78.305 133.852 79.9561 137.325C79.9561 137.312 79.9561 137.299 79.9561 137.273C79.9561 133.086 74.0123 129.678 66.708 129.678Z" fill="#150035"/>
<path d="M64.4601 129.585L64.4601 131.804L60.6957 132.517L56.9842 134.116L54.3029 136.454L53.3519 138.422L53.1934 136.454L54.3293 134.116L56.3634 132.214L59.7183 130.536L63.8261 129.585L64.4601 129.585Z" fill="#150035"/>
<path d="M68.6055 148.143L68.6055 151.736L72.6208 151.075L76.4909 149.939L80.4931 147.39L82.9498 144.312L83.6235 142.239L83.5706 139.438L81.6818 143.005L77.9042 145.58L72.2378 147.628L68.6055 148.143Z" fill="#150035"/>
<path d="M66.0968 148.236L66.0968 151.762L64.459 151.643L64.459 147.932L66.0968 148.236Z" fill="#150035"/>
<path d="M74.4299 136.654C74.4299 136.654 74.2374 136.17 73.9843 136.018L73.3719 135.903L75.0944 134.827L74.1395 134.252L72.417 135.327L71.9901 135.07L73.7128 133.994L72.7577 133.419L71.035 134.495L70.3258 134.068L70.0078 133.876L68.1683 132.768L67.9563 132.901L67.2566 132.688L66.4913 133.243L66.4964 133.813L68.3358 134.92L60.8442 139.6L59.005 138.492L58.58 138.757L57.9414 138.651L57.9414 139.6L60.2 141.263L59.8309 141.568L59.005 141.228L58.9984 142.123L59.8309 142.678L60.3859 142.123L60.2 142.904L61.2185 143.511L62.537 142.67L63.2688 143.111C64.0694 143.593 65.042 143.818 66.1854 143.785C67.3288 143.752 68.3443 143.458 69.2319 142.904C69.7995 142.55 70.1812 142.166 70.3784 141.753C70.4619 141.577 70.505 141.402 70.5221 141.228C70.5265 141.227 70.5337 140.524 70.5337 140.524C71.669 140.555 72.6924 140.291 73.6 139.724C74.4563 139.189 74.8999 138.579 74.9315 137.896C74.9337 137.846 74.9292 137.799 74.9273 137.751L74.9319 137.75L74.4299 136.654ZM67.754 141.9C67.3308 142.165 66.8472 142.313 66.3027 142.346C65.7583 142.379 65.3043 142.286 64.9403 142.067L62.4143 140.546L65.4481 138.651L67.9739 140.172C68.3381 140.391 68.4983 140.668 68.4544 141.003C68.4105 141.337 68.177 141.636 67.754 141.9ZM71.9361 138.836C71.5337 139.088 71.0773 139.228 70.5673 139.256C70.0569 139.284 69.6289 139.194 69.2833 138.986L67.0578 137.645L69.9059 135.866L72.1314 137.207C72.4773 137.415 72.6317 137.676 72.595 137.989C72.5585 138.303 72.3385 138.585 71.9361 138.836Z" fill="#150035"/>
<path d="M64.8857 137.778L64.8857 138.858L62.5548 140.279L61.1035 139.554L64.8857 137.778Z" fill="#150035"/>
<path d="M69.3293 135.105L69.3293 136.185L66.9981 137.607L65.5469 136.882L69.3293 135.105Z" fill="#150035"/>
<path d="M73.1476 133.311L73.1476 134.391L70.8167 135.812L69.3652 135.087L73.1476 133.311Z" fill="#150035"/>
<path d="M74.5244 134.109L74.5244 135.189L72.1934 136.61L70.7422 135.886L74.5244 134.109Z" fill="#150035"/>
<path d="M70.1179 140.73C70.3022 140.335 70.3142 139.942 70.1543 139.553C71.2627 139.605 72.2581 139.35 73.1384 138.789C73.9411 138.277 74.357 137.693 74.3866 137.039C74.4156 136.385 74.0631 135.832 73.3294 135.38L72.9249 135.132L74.5397 134.102L73.6445 133.552L72.0297 134.582L71.6295 134.335L73.2445 133.306L72.3491 132.755L70.7341 133.785L70.0692 133.376L69.7711 133.193L68.0466 132.133L66.4792 133.132L68.2036 134.192L61.1804 138.67L59.4561 137.61L57.8887 138.609L59.6131 139.669L59.9113 139.852L60.5762 140.261L59.0669 141.224L59.9621 141.774L61.4714 140.812L61.8718 141.058L60.3625 142.02L61.2577 142.571L62.7671 141.608L63.4531 142.03C64.2037 142.491 65.1155 142.707 66.1874 142.675C67.2593 142.644 68.2114 142.363 69.0435 141.832C69.5754 141.493 69.9333 141.126 70.1179 140.73ZM72.1966 137.129C72.1622 137.429 71.9561 137.699 71.579 137.939C71.2016 138.18 70.7738 138.314 70.2956 138.341C69.8171 138.368 69.4161 138.281 69.0919 138.082L67.0057 136.799L69.6757 135.097L71.7621 136.38C72.0862 136.579 72.231 136.829 72.1966 137.129ZM66.2976 141.298C65.7872 141.33 65.3616 141.241 65.0204 141.031L62.6523 139.575L65.4964 137.762L67.8643 139.217C68.2058 139.427 68.356 139.692 68.3148 140.012C68.2738 140.332 68.0549 140.619 67.6582 140.872C67.2615 141.125 66.8081 141.267 66.2976 141.298Z" fill="white"/>
<path d="M70.1179 140.73C70.3022 140.335 70.3142 139.942 70.1543 139.553C71.2627 139.605 72.2581 139.35 73.1384 138.789C73.9411 138.277 74.357 137.693 74.3866 137.039C74.4156 136.385 74.0631 135.832 73.3294 135.38L72.9249 135.132L74.5397 134.102L73.6445 133.552L72.0297 134.582L71.6295 134.335L73.2445 133.306L72.3491 132.755L70.7341 133.785L70.0692 133.376L69.7711 133.193L68.0466 132.133L66.4792 133.132L68.2036 134.192L61.1804 138.67L59.4561 137.61L57.8887 138.609L59.6131 139.669L59.9113 139.852L60.5762 140.261L59.0669 141.224L59.9621 141.774L61.4714 140.812L61.8718 141.058L60.3625 142.02L61.2577 142.571L62.7671 141.608L63.4531 142.03C64.2037 142.491 65.1155 142.707 66.1874 142.675C67.2593 142.644 68.2114 142.363 69.0435 141.832C69.5754 141.493 69.9333 141.126 70.1179 140.73ZM72.1966 137.129C72.1622 137.429 71.9561 137.699 71.579 137.939C71.2016 138.18 70.7738 138.314 70.2956 138.341C69.8171 138.368 69.4161 138.281 69.0919 138.082L67.0057 136.799L69.6757 135.097L71.7621 136.38C72.0862 136.579 72.231 136.829 72.1966 137.129ZM66.2976 141.298C65.7872 141.33 65.3616 141.241 65.0204 141.031L62.6523 139.575L65.4964 137.762L67.8643 139.217C68.2058 139.427 68.356 139.692 68.3148 140.012C68.2738 140.332 68.0549 140.619 67.6582 140.872C67.2615 141.125 66.8081 141.267 66.2976 141.298Z" stroke="#150035"/>
<path d="M91.5135 150.686L128.961 85.3235C128.964 85.3182 128.97 85.3155 128.977 85.3182L135.284 87.6574C135.29 87.66 135.297 87.6574 135.3 87.6521L173.144 19.1029C173.151 19.0909 173.168 19.0962 173.168 19.1095V103.563C173.168 103.567 173.165 103.572 173.162 103.574L91.5308 150.703C91.5201 150.711 91.5069 150.698 91.5135 150.686Z" fill="#DE5656"/>
<path d="M91.3118 152.365L89.8652 150.933L90.3581 150.026L128.381 83.6605L129.467 84.0843L134.686 86.0183L172.479 17.5581L174.494 18.9808L174.495 19.1083V104.383L173.754 104.761L91.3118 152.365ZM129.556 86.9508L95.0883 147.117L171.839 102.805V24.2158L136.219 88.7335L135.204 89.1001L134.757 88.8796L129.556 86.9508Z" fill="#150035"/>
<path d="M103.829 157.818L141.277 92.4554C141.279 92.4501 141.286 92.4475 141.293 92.4501L147.6 94.7894C147.606 94.792 147.613 94.7893 147.616 94.784L185.462 26.2362C185.468 26.2242 185.485 26.2295 185.485 26.2428V110.696C185.485 110.7 185.483 110.706 185.479 110.707L103.848 157.837C103.836 157.842 103.824 157.829 103.829 157.818Z" fill="#150035"/>
<path d="M103.63 159.495L102.184 158.064L102.676 157.156L140.092 91.8535L140.583 90.7457L141.786 91.2146L147.005 93.15L184.797 24.6885L186.806 25.4177L186.812 26.2387V111.404L186.215 111.809L103.63 159.495ZM141.876 94.0825L107.407 154.247L184.157 109.935V31.3461L148.224 96.4297L141.876 94.0825Z" fill="#150035"/>
<path d="M91.5013 150.735L103.795 157.852C103.802 157.856 103.81 157.854 103.812 157.847L141.276 92.4554C141.28 92.4487 141.277 92.4408 141.27 92.4381L128.977 85.3195C128.97 85.3155 128.962 85.3182 128.959 85.3248L91.496 150.717C91.492 150.723 91.4947 150.731 91.5013 150.735Z" fill="#DE5656"/>
<path d="M130.7 92.5282C130.693 92.5243 130.685 92.5269 130.682 92.5336L95.7441 153.518L103.774 158.167C103.781 158.171 103.789 158.168 103.791 158.162L138.729 97.1774L130.7 92.5282Z" fill="white"/>
<path d="M103.63 159.495L103.111 158.991L90.9178 151.932L90.3971 151.725L90.0371 150.455L90.3798 149.99L128.38 83.6616L129.659 84.1823L142.412 91.5653L142.714 92.6851L142.381 93.1925L104.875 158.644L103.63 159.495ZM93.2995 150.241L103.317 156.04L139.473 92.9295L129.452 87.1299L93.2995 150.241Z" fill="#150035"/>
<path d="M135.3 87.6509L173.163 19.0711C173.167 19.0645 173.175 19.0619 173.182 19.0658L185.476 26.1831C185.482 26.1871 185.484 26.1937 185.481 26.2004L147.618 94.7801C147.614 94.7868 147.606 94.7894 147.601 94.7854L135.307 87.6669C135.299 87.6642 135.297 87.6562 135.3 87.6509Z" fill="#DE5656"/>
<path d="M174.797 26.3468C174.791 26.3429 174.783 26.3455 174.78 26.3522L139.473 90.3026L147.429 94.9093C147.436 94.9133 147.444 94.9107 147.447 94.904L182.754 30.9535L174.797 26.3468Z" fill="white"/>
<path d="M148.114 96.6277L146.916 95.9237L133.645 88.2405L134.137 87.0065L172.666 17.2219L173.864 17.9246L186.808 25.4165L186.643 26.8405L148.114 96.6277ZM137.084 87.1646L147.107 92.9668L183.695 26.6864L173.675 20.8882L137.084 87.1646Z" fill="#150035"/>
<path d="M113.4 161.046L145.594 104.853C145.597 104.849 145.602 104.847 145.607 104.848L151.03 106.859C151.035 106.86 151.04 106.859 151.043 106.854L183.579 47.9217C183.585 47.9111 183.601 47.915 183.601 47.927V120.533C183.601 120.537 183.598 120.541 183.595 120.542L113.415 161.061C113.406 161.067 113.394 161.057 113.4 161.046Z" fill="#DE5656"/>
<path d="M113.265 162.681L112.238 161.997L112.246 160.385L145.002 103.213L150.429 105.22L182.91 46.3848L184.921 46.8789L184.929 47.9256V121.354L184.189 121.73L113.265 162.681ZM146.189 106.48L116.972 157.48L182.271 119.773V53.0371L151.65 108.501L146.189 106.48Z" fill="#150035"/>
<path d="M192.782 125.858L127.78 163.387L156.814 112.708L161.128 114.308L161.2 114.335L161.275 114.353C161.481 114.405 161.776 114.429 162.099 114.313C162.432 114.194 162.7 113.958 162.863 113.661L192.782 59.47V125.858ZM193.48 125.455L193.473 125.459C193.477 125.456 193.481 125.454 193.486 125.451L193.48 125.455Z" fill="white" stroke="#150035" stroke-width="2.81241"/>
<path d="M124.428 168.48C124.048 168.7 123.569 168.637 123.256 168.329L122.373 167.452L122.834 166.516L155.304 109.842L156.426 109.539L156.798 109.786L161.017 111.35L193.491 52.5278L195.508 52.9954L195.517 54.0567V127.485L194.777 127.861L124.428 168.48ZM156.776 112.611L127.564 163.604L192.859 125.903V59.1669L162.177 114.743L161.092 114.212L156.776 112.611Z" fill="#150035"/>
<path d="M113.386 161.087L123.956 167.207C123.961 167.21 123.968 167.208 123.972 167.203L156.18 110.985C156.183 110.979 156.181 110.973 156.176 110.97L145.607 104.85C145.601 104.848 145.595 104.849 145.591 104.854L113.382 161.073C113.38 161.078 113.381 161.085 113.386 161.087Z" fill="#DE5656"/>
<path d="M147.456 110.902C147.45 110.899 147.444 110.901 147.44 110.906L117.289 163.532L123.999 167.416C124.004 167.419 124.01 167.418 124.013 167.412L154.164 114.786L147.456 110.902Z" fill="white"/>
<path d="M123.985 168.7L123.362 168.395L112.236 161.998L111.945 160.781L112.269 160.346L144.527 104.058L145.259 103.082L146.31 103.725L157.336 110.108L157.616 111.278L157.294 111.714L123.985 168.7ZM115.188 160.595L123.477 165.395L154.377 111.459L146.086 106.662L115.188 160.595Z" fill="#150035"/>
<path d="M151.04 106.853L183.591 47.8943C183.594 47.889 183.602 47.8864 183.607 47.8903L194.177 54.01C194.182 54.0127 194.183 54.0193 194.181 54.0246L161.63 112.983C161.627 112.989 161.619 112.991 161.614 112.987L151.044 106.867C151.04 106.865 151.037 106.858 151.04 106.853Z" fill="#DE5656"/>
<path d="M185.106 54.4584C185.101 54.4557 185.094 54.457 185.09 54.4623L154.877 109.186L161.229 112.863C161.234 112.866 161.241 112.864 161.245 112.859L191.458 58.1352L185.106 54.4584Z" fill="white"/>
<path d="M162.177 114.742L161.023 114.176L150.465 108.065L150.014 107.884L149.594 106.788L149.881 106.209L183.049 46.1333L184.205 46.6992L195.928 53.483L195.372 54.6161L162.177 114.742ZM152.83 106.364L161.118 111.164L192.397 54.5112L184.107 49.7132L152.83 106.364Z" fill="#150035"/>
<path d="M178.321 120.833L176.992 118.531L188.751 111.751V71.5901H191.407V113.287L178.321 120.833Z" fill="#DE5656"/>
<path d="M173.107 120.787L165.838 124.975L167.163 127.275L174.432 123.088L173.107 120.787Z" fill="#DE5656"/>
<path d="M135.383 109.156L130.41 117.841L132.717 119.162L137.69 110.477L135.383 109.156Z" fill="#DE5656"/>
<path d="M127.966 122.094L111.709 150.486L114.016 151.807L130.273 123.415L127.966 122.094Z" fill="#DE5656"/>
<path d="M180.759 40.9779L170.25 59.3318L172.557 60.6526L183.066 42.2987L180.759 40.9779Z" fill="#DE5656"/>
<path d="M162.515 126.816L158.881 128.909L160.206 131.21L163.84 129.117L162.515 126.816Z" fill="#DE5656"/>
<path d="M168.675 61.9977L166.555 65.696L168.858 67.0166L170.978 63.3183L168.675 61.9977Z" fill="#DE5656"/>
<path d="M87.3177 143.223L85.0117 141.903L124.089 73.6525L130.377 76.005L168.741 6.54321L171.066 7.82773L131.594 79.2953L125.272 76.9322L87.3177 143.223Z" fill="#150035"/>
<path d="M174.496 0L163.031 6.30964L174.059 12.9261L174.496 0Z" fill="#150035"/>
<path d="M120.623 205.599C121 205.823 121 206.166 120.623 206.389C120.245 206.613 119.644 206.613 119.266 206.389C118.888 206.166 118.888 205.823 119.266 205.599C119.644 205.376 120.245 205.376 120.623 205.599Z" fill="#150035"/>
<path d="M124.162 203.539C124.539 203.763 124.539 204.106 124.162 204.329C123.784 204.553 123.183 204.553 122.805 204.329C122.427 204.106 122.427 203.763 122.805 203.539C123.183 203.316 123.784 203.316 124.162 203.539Z" fill="#150035"/>
<path d="M113.478 205.566C113.856 205.789 113.856 206.133 113.478 206.356C113.1 206.579 112.499 206.579 112.121 206.356C111.743 206.133 111.743 205.789 112.121 205.566C112.499 205.343 113.1 205.343 113.478 205.566Z" fill="#150035"/>
<path d="M117.035 203.521C117.412 203.744 117.412 204.088 117.035 204.311C116.657 204.534 116.056 204.534 115.678 204.311C115.3 204.088 115.3 203.744 115.678 203.521C116.056 203.298 116.657 203.298 117.035 203.521Z" fill="#150035"/>
<path d="M120.589 201.478C120.967 201.701 120.967 202.045 120.589 202.268C120.212 202.491 119.61 202.491 119.233 202.268C118.855 202.045 118.855 201.701 119.233 201.478C119.61 201.255 120.212 201.255 120.589 201.478Z" fill="#150035"/>
<path d="M106.388 205.566C106.766 205.789 106.766 206.133 106.388 206.356C106.01 206.579 105.409 206.579 105.031 206.356C104.654 206.133 104.654 205.789 105.031 205.566C105.409 205.343 106.01 205.343 106.388 205.566Z" fill="#150035"/>
<path d="M109.943 203.521C110.321 203.744 110.321 204.088 109.943 204.311C109.565 204.534 108.964 204.534 108.586 204.311C108.208 204.088 108.208 203.744 108.586 203.521C108.964 203.298 109.565 203.298 109.943 203.521Z" fill="#150035"/>
<path d="M113.478 201.478C113.856 201.701 113.856 202.045 113.478 202.268C113.1 202.491 112.499 202.491 112.121 202.268C111.743 202.045 111.743 201.701 112.121 201.478C112.499 201.255 113.1 201.255 113.478 201.478Z" fill="#150035"/>
<path d="M117.035 199.434C117.412 199.657 117.412 200.001 117.035 200.224C116.657 200.447 116.056 200.447 115.678 200.224C115.3 200.001 115.3 199.657 115.678 199.434C116.056 199.211 116.657 199.211 117.035 199.434Z" fill="#150035"/>
<path d="M99.2924 205.566C99.6703 205.789 99.6703 206.133 99.2924 206.356C98.9146 206.579 98.3135 206.579 97.9357 206.356C97.5579 206.133 97.5579 205.789 97.9357 205.566C98.3135 205.343 98.9146 205.343 99.2924 205.566Z" fill="#150035"/>
<path d="M102.847 203.521C103.225 203.744 103.225 204.088 102.847 204.311C102.469 204.534 101.868 204.534 101.49 204.311C101.113 204.088 101.113 203.744 101.49 203.521C101.868 203.298 102.469 203.298 102.847 203.521Z" fill="#150035"/>
<path d="M106.388 201.478C106.766 201.701 106.766 202.045 106.388 202.268C106.01 202.491 105.409 202.491 105.031 202.268C104.654 202.045 104.654 201.701 105.031 201.478C105.409 201.255 106.01 201.255 106.388 201.478Z" fill="#150035"/>
<path d="M109.943 199.434C110.321 199.657 110.321 200.001 109.943 200.224C109.565 200.447 108.964 200.447 108.586 200.224C108.208 200.001 108.208 199.657 108.586 199.434C108.964 199.211 109.565 199.211 109.943 199.434Z" fill="#150035"/>
<path d="M113.478 197.374C113.856 197.597 113.856 197.94 113.478 198.163C113.1 198.387 112.499 198.387 112.121 198.163C111.743 197.94 111.743 197.597 112.121 197.374C112.499 197.15 113.1 197.15 113.478 197.374Z" fill="#150035"/>
<path d="M95.7397 203.521C96.1176 203.744 96.1176 204.088 95.7397 204.311C95.3619 204.534 94.7608 204.534 94.383 204.311C94.0052 204.088 94.0052 203.744 94.383 203.521C94.7608 203.298 95.3619 203.298 95.7397 203.521Z" fill="#150035"/>
<path d="M99.2924 201.478C99.6703 201.701 99.6703 202.045 99.2924 202.268C98.9146 202.491 98.3135 202.491 97.9357 202.268C97.5579 202.045 97.5579 201.701 97.9357 201.478C98.3135 201.255 98.9146 201.255 99.2924 201.478Z" fill="#150035"/>
<path d="M102.847 199.434C103.225 199.657 103.225 200.001 102.847 200.224C102.469 200.447 101.868 200.447 101.49 200.224C101.113 200.001 101.113 199.657 101.49 199.434C101.868 199.211 102.469 199.211 102.847 199.434Z" fill="#150035"/>
<path d="M106.388 197.374C106.766 197.597 106.766 197.94 106.388 198.163C106.01 198.387 105.409 198.387 105.031 198.163C104.654 197.94 104.654 197.597 105.031 197.374C105.409 197.15 106.01 197.15 106.388 197.374Z" fill="#150035"/>
<path d="M109.943 195.33C110.321 195.553 110.321 195.897 109.943 196.12C109.565 196.343 108.964 196.343 108.586 196.12C108.208 195.897 108.208 195.553 108.586 195.33H109.943Z" fill="#150035"/>
<path d="M92.2007 201.478C92.5785 201.701 92.5785 202.045 92.2007 202.268C91.8228 202.491 91.2217 202.491 90.8439 202.268C90.4661 202.045 90.4661 201.701 90.8439 201.478C91.2217 201.255 91.8228 201.255 92.2007 201.478Z" fill="#150035"/>
<path d="M95.7397 199.434C96.1176 199.657 96.1176 200.001 95.7397 200.224C95.3619 200.447 94.7608 200.447 94.383 200.224C94.0052 200.001 94.0052 199.657 94.383 199.434C94.7608 199.211 95.3619 199.211 95.7397 199.434Z" fill="#150035"/>
<path d="M99.2924 197.374C99.6703 197.597 99.6703 197.94 99.2924 198.163C98.9146 198.387 98.3135 198.387 97.9357 198.163C97.5579 197.94 97.5579 197.597 97.9357 197.374C98.3135 197.15 98.9146 197.15 99.2924 197.374Z" fill="#150035"/>
<path d="M88.646 199.434C89.0238 199.657 89.0238 200.001 88.646 200.224C88.2682 200.447 87.6671 200.447 87.2892 200.224C86.9114 200.001 86.9114 199.657 87.2892 199.434C87.6671 199.211 88.2682 199.211 88.646 199.434Z" fill="#150035"/>
<path d="M92.2007 197.374C92.5785 197.597 92.5785 197.94 92.2007 198.163C91.8228 198.387 91.2217 198.387 90.8439 198.163C90.4661 197.94 90.4661 197.597 90.8439 197.374C91.2217 197.15 91.8228 197.15 92.2007 197.374Z" fill="#150035"/>
<path d="M95.7397 195.329C96.1176 195.553 96.1176 195.896 95.7397 196.119C95.3619 196.343 94.7608 196.343 94.383 196.119C94.0052 195.896 94.0052 195.553 94.383 195.329C94.7608 195.106 95.3619 195.106 95.7397 195.329Z" fill="#150035"/>
<path d="M85.0913 197.374C85.4691 197.597 85.4691 197.94 85.0913 198.163C84.7135 198.387 84.1124 198.387 83.7345 198.163C83.3567 197.94 83.3567 197.597 83.7345 197.374C84.1124 197.15 84.7135 197.15 85.0913 197.374Z" fill="#150035"/>
<path d="M88.646 195.329C89.0238 195.553 89.0238 195.896 88.646 196.119C88.2682 196.343 87.6671 196.343 87.2892 196.119C86.9114 195.896 86.9114 195.553 87.2892 195.329C87.6671 195.106 88.2682 195.106 88.646 195.329Z" fill="#150035"/>
<path d="M92.2007 193.286C92.5785 193.509 92.5785 193.853 92.2007 194.076C91.8228 194.299 91.2217 194.299 90.8439 194.076C90.4661 193.853 90.4661 193.509 90.8439 193.286C91.2217 193.063 91.8228 193.063 92.2007 193.286Z" fill="#150035"/>
<path d="M85.0913 193.286C85.4691 193.509 85.4691 193.853 85.0913 194.076C84.7135 194.299 84.1124 194.299 83.7345 194.076C83.3567 193.853 83.3567 193.509 83.7345 193.286C84.1124 193.063 84.7135 193.063 85.0913 193.286Z" fill="#150035"/>
<path d="M88.646 191.226C89.0238 191.449 89.0238 191.792 88.646 192.016C88.2682 192.239 87.6671 192.239 87.2892 192.016C86.9114 191.792 86.9114 191.449 87.2892 191.226C87.6671 191.002 88.2682 191.002 88.646 191.226Z" fill="#150035"/>
<path d="M85.0737 189.164C85.4515 189.387 85.4515 189.731 85.0737 189.954C84.6959 190.177 84.0948 190.177 83.717 189.954C83.3391 189.731 83.3391 189.387 83.717 189.164C84.0948 188.941 84.6959 188.941 85.0737 189.164Z" fill="#150035"/>
<path d="M126.36 201.53C126.737 201.306 127.338 201.306 127.716 201.53C128.094 201.753 128.094 202.097 127.716 202.32C127.338 202.543 126.737 202.543 126.36 202.32C125.982 202.097 125.982 201.753 126.36 201.53Z" fill="#150035"/>
<path d="M131.304 199.434C131.682 199.657 131.682 200.001 131.304 200.224C130.926 200.447 130.325 200.447 129.947 200.224C129.57 200.001 129.57 199.657 129.947 199.434C130.325 199.211 130.926 199.211 131.304 199.434Z" fill="#150035"/>
<path d="M133.504 197.425C133.882 197.202 134.483 197.202 134.861 197.425C135.239 197.648 135.239 197.992 134.861 198.215C134.483 198.438 133.882 198.438 133.504 198.215C133.126 197.992 133.126 197.648 133.504 197.425Z" fill="#150035"/>
<path d="M122.787 199.452C123.165 199.228 123.766 199.228 124.144 199.452C124.522 199.675 124.522 200.018 124.144 200.242C123.766 200.465 123.165 200.465 122.787 200.242C122.409 200.018 122.409 199.675 122.787 199.452Z" fill="#150035"/>
<path d="M127.699 197.408C128.077 197.632 128.077 197.975 127.699 198.198C127.321 198.422 126.72 198.422 126.342 198.198C125.964 197.975 125.964 197.632 126.342 197.408C126.72 197.185 127.321 197.185 127.699 197.408Z" fill="#150035"/>
<path d="M131.238 195.347C131.616 195.57 131.616 195.914 131.238 196.137C130.86 196.36 130.259 196.36 129.881 196.137C129.503 195.914 129.503 195.57 129.881 195.347C130.259 195.124 130.86 195.124 131.238 195.347Z" fill="#150035"/>
<path d="M134.792 193.303C135.17 193.527 135.17 193.87 134.792 194.093C134.415 194.317 133.814 194.317 133.436 194.093C133.058 193.87 133.058 193.527 133.436 193.303C133.814 193.08 134.415 193.08 134.792 193.303Z" fill="#150035"/>
<path d="M119.233 197.408C119.61 197.185 120.212 197.185 120.589 197.408C120.967 197.632 120.967 197.975 120.589 198.198C120.212 198.422 119.61 198.422 119.233 198.198C118.855 197.975 118.855 197.632 119.233 197.408Z" fill="#150035"/>
<path d="M124.144 195.347C124.522 195.57 124.522 195.914 124.144 196.137C123.766 196.36 123.165 196.36 122.787 196.137C122.409 195.914 122.409 195.57 122.787 195.347C123.165 195.124 123.766 195.124 124.144 195.347Z" fill="#150035"/>
<path d="M127.699 193.303C128.077 193.527 128.077 193.87 127.699 194.093C127.321 194.317 126.72 194.317 126.342 194.093C125.964 193.87 125.964 193.527 126.342 193.303C126.72 193.08 127.321 193.08 127.699 193.303Z" fill="#150035"/>
<path d="M131.238 191.26C131.616 191.483 131.616 191.826 131.238 192.05C130.86 192.273 130.259 192.273 129.881 192.05C129.503 191.826 129.503 191.483 129.881 191.26C130.259 191.036 130.86 191.036 131.238 191.26Z" fill="#150035"/>
<path d="M134.106 190.143C134.637 190.143 135.068 189.897 135.068 189.593C135.068 189.29 134.637 189.044 134.106 189.044C133.575 189.044 133.145 189.29 133.145 189.593C133.145 189.897 133.575 190.143 134.106 190.143Z" fill="#150035"/>
<path d="M131.238 187.155C131.616 187.378 131.616 187.722 131.238 187.945C130.86 188.168 130.259 188.168 129.881 187.945C129.503 187.722 129.503 187.378 129.881 187.155C130.259 186.932 130.86 186.932 131.238 187.155Z" fill="#150035"/>
<path d="M128.7 178.586C125.661 173.331 117.554 169.57 108.006 169.57C98.457 169.57 90.3509 173.331 87.3111 178.586H86.0059V183.171C86.0059 190.676 95.8637 196.773 108.006 196.773C120.148 196.773 130.006 190.676 130.006 183.171V178.586H128.7Z" fill="#DE5656"/>
<path d="M108.003 197.116C95.6722 197.116 85.6426 190.865 85.6426 183.171V178.242H87.1024C90.3654 172.849 98.7292 169.226 108.003 169.226C117.277 169.226 125.641 172.849 128.904 178.242H130.364V183.171C130.364 190.865 120.334 197.116 108.003 197.116ZM86.3467 178.929V183.154C86.3467 190.453 96.0672 196.395 108.003 196.395C119.939 196.395 129.66 190.453 129.66 183.154V178.929H128.492L128.389 178.757C125.315 173.468 117.123 169.913 108.003 169.913C98.8837 169.913 90.6746 173.468 87.6176 178.757L87.5145 178.929H86.3467Z" fill="#150035"/>
<path d="M130.006 178.586C130.006 186.091 120.148 192.187 108.006 192.187C95.8637 192.187 86.0059 186.091 86.0059 178.586C86.0059 171.081 95.8637 164.984 108.006 164.984C120.148 164.984 130.006 171.081 130.006 178.586Z" fill="#DE5656"/>
<path d="M108.006 193.27C120.156 193.27 130.006 187.18 130.006 179.668C130.006 172.156 120.156 166.066 108.006 166.066C95.8555 166.066 86.0059 172.156 86.0059 179.668C86.0059 187.18 95.8555 193.27 108.006 193.27Z" fill="white"/>
<path d="M108.003 192.531C95.6722 192.531 85.6426 186.28 85.6426 178.586C85.6426 170.892 95.6722 164.64 108.003 164.64C120.334 164.64 130.364 170.892 130.364 178.586C130.364 186.28 120.334 192.531 108.003 192.531ZM108.003 165.327C96.0672 165.327 86.3467 171.27 86.3467 178.568C86.3467 185.867 96.0672 191.81 108.003 191.81C119.939 191.81 129.66 185.867 129.66 178.568C129.66 171.27 119.939 165.327 108.003 165.327Z" fill="#150035"/>
<path d="M108.006 188.203C117.71 188.203 125.576 183.621 125.576 177.968C125.576 172.315 117.71 167.732 108.006 167.732C98.3034 167.732 90.4375 172.315 90.4375 177.968C90.4375 183.621 98.3034 188.203 108.006 188.203Z" fill="#DE5656"/>
<path d="M108.004 188.564C98.1116 188.564 90.0742 183.824 90.0742 177.984C90.0742 172.145 98.1116 167.405 108.004 167.405C117.896 167.405 125.934 172.145 125.934 177.984C125.934 183.824 117.896 188.564 108.004 188.564ZM108.004 168.092C98.5066 168.092 90.7783 172.523 90.7783 177.967C90.7783 183.411 98.5066 187.842 108.004 187.842C117.501 187.842 125.229 183.411 125.229 177.967C125.229 172.523 117.501 168.092 108.004 168.092Z" fill="#150035"/>
<path d="M108.006 167.749C98.3032 167.749 90.4375 172.334 90.4375 177.985C90.4375 178.5 90.5234 178.981 90.6436 179.479C91.8801 174.533 99.1791 170.737 108.006 170.737C116.834 170.737 124.133 174.533 125.369 179.479C125.49 178.998 125.576 178.5 125.576 177.985C125.576 172.334 117.71 167.749 108.006 167.749Z" fill="#DE5656"/>
<path d="M125.163 180.2L125.026 179.548C123.806 174.722 116.49 171.064 108.006 171.064C99.5223 171.064 92.189 174.705 90.9868 179.548L90.7979 180.321L90.317 179.548C90.1625 178.964 90.0938 178.449 90.0938 177.968C90.0938 172.129 98.1312 167.389 108.023 167.389C117.916 167.389 125.953 172.129 125.953 177.968C125.953 178.449 125.884 178.947 125.73 179.548L125.18 180.2H125.163ZM108.006 168.093C98.509 168.093 90.7807 172.524 90.7807 177.968C90.7807 177.985 90.7807 178.002 90.7807 178.037C92.9275 173.52 99.8486 170.377 108.006 170.377C116.164 170.377 123.085 173.52 125.232 178.037C125.232 178.019 125.232 178.002 125.232 177.968C125.232 172.524 117.503 168.093 108.006 168.093Z" fill="#150035"/>
<path d="M105.083 167.972V170.858L100.171 171.785L95.3625 173.863L91.8762 176.903L90.6397 179.462L90.4336 176.903L91.9106 173.863L94.5554 171.39L98.9176 169.209L104.259 167.972H105.083Z" fill="#150035"/>
<path d="M117.376 183.12C118.045 182.45 118.389 181.78 118.44 181.093H118.475V179.135L117.135 178.586C116.86 178.38 116.551 178.174 116.208 177.968C114.971 177.281 113.649 176.903 112.206 176.851C110.764 176.8 108.909 177.178 106.625 177.968L102.16 175.477C103.207 175.22 104.255 175.288 105.337 175.701L107.793 173.794V171.991L104.65 173.073V173.107C104.341 173.09 104.032 173.073 103.722 173.09C102.331 173.124 100.975 173.468 99.6521 174.086L99.0682 173.76L99.2915 173.588V172.747L96.9043 172.609V175.46L97.6771 174.859L98.0378 175.065C97.6771 175.34 97.3852 175.615 97.1447 175.889C96.7326 175.752 96.4062 175.649 96.4062 175.649V177.727C96.4921 178.654 97.1447 179.479 98.3984 180.166C99.635 180.853 101.026 181.231 102.572 181.316C104.117 181.385 105.835 181.11 107.724 180.475L112.498 183.137C111.897 183.274 111.21 183.309 110.437 183.257C109.957 183.223 109.476 183.137 108.995 183.017L109.115 182.622L105.594 182.896V184.7C107.312 185.404 108.995 185.747 110.626 185.73C112.258 185.713 113.786 185.352 115.246 184.683L117.324 185.85L118.956 184.889V183.085L117.41 183.154L117.376 183.12ZM102.52 178.826C101.936 178.775 101.438 178.637 101.043 178.414C100.597 178.174 100.322 177.864 100.219 177.504C100.116 177.143 100.219 176.783 100.494 176.439L104.444 178.637C103.74 178.809 103.104 178.861 102.52 178.809V178.826ZM114.267 182.261L109.819 179.771C110.695 179.479 111.451 179.359 112.12 179.376C112.79 179.41 113.374 179.565 113.889 179.839C114.456 180.166 114.782 180.544 114.851 180.99C114.92 181.437 114.731 181.849 114.284 182.244L114.267 182.261Z" fill="#DE5656"/>
<path d="M117.29 186.245L115.195 185.078C113.752 185.73 112.206 186.074 110.592 186.091C108.943 186.108 107.192 185.765 105.423 185.043L105.199 184.957V182.587L109.544 182.244L109.39 182.776C109.768 182.862 110.094 182.914 110.403 182.931C110.729 182.948 111.039 182.948 111.331 182.931L107.621 180.853C105.749 181.471 104.032 181.729 102.486 181.66C100.889 181.591 99.4289 181.179 98.1581 180.475C96.8013 179.719 96.08 178.809 95.9941 177.744V175.58L96.475 175.306V172.249L99.5663 172.42V173.691C100.906 173.09 102.263 172.781 103.637 172.729C103.911 172.729 104.186 172.729 104.461 172.729L108.067 171.493V173.966L105.32 176.096L105.131 176.027C104.478 175.786 103.825 175.683 103.173 175.683L106.573 177.59C108.823 176.817 110.695 176.456 112.138 176.508C113.632 176.559 115.023 176.954 116.294 177.658C116.637 177.847 116.946 178.053 117.238 178.277L118.75 178.895V181.093L118.629 181.574C118.526 181.952 118.355 182.33 118.08 182.708L119.179 182.656V185.026L117.204 186.194L117.29 186.245ZM115.229 184.288L117.29 185.438L118.561 184.683V183.446L116.483 183.549L117.118 182.914C117.719 182.313 118.046 181.711 118.08 181.11L118.114 180.629V179.427L116.912 178.912C116.654 178.706 116.363 178.517 116.019 178.328C114.834 177.676 113.546 177.315 112.172 177.263C110.798 177.212 108.943 177.573 106.711 178.363L106.556 178.414L101.181 175.409L102.057 175.203C103.104 174.945 104.169 174.996 105.251 175.374L107.415 173.691V172.541L105.114 173.331L105.199 173.519H104.615C104.306 173.485 104.014 173.468 103.705 173.485C102.383 173.519 101.06 173.846 99.7724 174.447L99.6007 174.516L98.3985 173.846L98.8966 173.451V173.107L97.3509 173.313L97.2135 174.756L97.6085 174.447L98.6561 175.031L98.2096 175.357C97.9005 175.58 97.6428 175.821 97.3681 176.13L97.2135 176.302L96.7326 176.13V177.727C96.8013 178.5 97.4024 179.238 98.5359 179.874C99.7209 180.526 101.06 180.904 102.555 180.973C104.049 181.042 105.732 180.767 107.587 180.149L107.741 180.097L113.477 183.291L112.567 183.48C111.932 183.618 111.21 183.652 110.42 183.601C109.957 183.566 109.476 183.498 108.926 183.343L108.583 183.257L108.651 183L105.955 183.206V184.459C107.552 185.078 109.149 185.404 110.626 185.37C112.189 185.352 113.701 185.009 115.092 184.356L115.263 184.288H115.229ZM114.302 182.708L108.943 179.719L109.699 179.462C110.609 179.153 111.416 179.015 112.121 179.049C112.842 179.084 113.477 179.256 114.044 179.565C114.714 179.943 115.092 180.406 115.177 180.956C115.263 181.523 115.04 182.055 114.491 182.536L114.302 182.69V182.708ZM110.712 179.908L114.199 181.849C114.422 181.591 114.525 181.351 114.473 181.076C114.422 180.75 114.147 180.441 113.683 180.183C113.22 179.925 112.687 179.788 112.086 179.754C111.674 179.736 111.21 179.788 110.712 179.891V179.908ZM102.915 179.221C102.761 179.221 102.623 179.221 102.469 179.204C101.833 179.153 101.284 178.998 100.837 178.74C100.322 178.448 99.9785 178.071 99.8583 177.624C99.7552 177.298 99.7381 176.783 100.202 176.233L100.391 176.01L105.371 178.792L104.495 178.998C103.929 179.135 103.396 179.204 102.898 179.204L102.915 179.221ZM102.537 178.5C102.812 178.517 103.087 178.517 103.396 178.5L100.597 176.937C100.494 177.16 100.511 177.315 100.545 177.435C100.614 177.693 100.837 177.933 101.198 178.139C101.559 178.345 102.005 178.466 102.537 178.517V178.5Z" fill="#150035"/>
<path d="M112.485 181.334L107.71 178.672C105.821 179.308 104.104 179.582 102.558 179.514C101.012 179.445 99.6213 179.05 98.3848 178.363C97.1311 177.659 96.4785 176.852 96.3926 175.924C96.3239 174.997 96.8563 174.104 98.007 173.262L96.8735 172.627L98.505 171.665L99.6385 172.301C100.978 171.665 102.335 171.339 103.709 171.304C105.083 171.27 106.457 171.511 107.779 172.026L105.323 173.932C104.258 173.537 103.194 173.468 102.146 173.709L106.611 176.199C108.895 175.409 110.75 175.031 112.193 175.083C113.635 175.134 114.958 175.512 116.194 176.199C117.568 176.972 118.324 177.865 118.444 178.878C118.564 179.891 118.015 180.888 116.778 181.884L118.908 183.069L117.276 184.03L115.198 182.863C113.756 183.55 112.21 183.893 110.578 183.91C108.947 183.927 107.281 183.584 105.546 182.88L108.157 180.956C108.878 181.231 109.634 181.386 110.407 181.437C111.179 181.489 111.866 181.437 112.467 181.317L112.485 181.334ZM100.497 174.636C100.205 174.98 100.119 175.34 100.222 175.701C100.325 176.062 100.6 176.371 101.047 176.611C101.442 176.835 101.94 176.972 102.524 177.023C103.108 177.075 103.743 177.023 104.447 176.852L100.497 174.653V174.636ZM114.271 180.441C114.717 180.046 114.906 179.634 114.837 179.187C114.769 178.741 114.442 178.363 113.876 178.037C113.361 177.745 112.777 177.59 112.107 177.573C111.437 177.539 110.681 177.676 109.805 177.968L114.254 180.458L114.271 180.441Z" fill="#DE5656"/>
<path d="M112.381 182.192L107.607 179.53C105.718 180.166 104 180.44 102.455 180.372C100.909 180.303 99.5178 179.908 98.2813 179.221C97.0276 178.517 96.6497 177.761 96.581 176.817C96.5123 175.889 96.7528 174.945 97.9206 174.103L97.3882 173.296L98.4015 172.489L99.5349 173.124C100.875 172.489 102.231 172.162 103.605 172.128C104.996 172.094 106.095 172.523 107.435 173.038L105.22 174.739C104.155 174.344 103.09 174.275 102.042 174.515L106.508 177.006C108.792 176.216 110.647 175.838 112.089 175.889C113.532 175.941 114.854 176.319 116.091 177.006C117.465 177.778 118.22 178.671 118.34 179.685C118.461 180.698 117.911 181.694 116.675 182.69L118.564 183.995L117.19 184.837L115.112 183.669C113.669 184.356 112.123 184.7 110.492 184.717C108.86 184.734 107.555 184.545 105.838 183.841L108.07 181.78C108.792 182.055 109.547 182.209 110.32 182.261C111.093 182.312 111.78 182.261 112.381 182.141V182.192ZM100.394 175.494C100.102 175.838 100.016 176.198 100.119 176.559C100.222 176.92 100.497 177.229 100.943 177.469C101.338 177.693 101.836 177.83 102.42 177.881C103.004 177.933 103.64 177.881 104.344 177.71L100.394 175.511V175.494ZM114.167 181.299C114.614 180.904 114.803 180.492 114.734 180.045C114.665 179.599 114.339 179.221 113.772 178.895C113.257 178.603 112.673 178.448 112.003 178.431C111.333 178.397 110.578 178.534 109.702 178.826L114.15 181.316L114.167 181.299Z" fill="white"/>
<path d="M117.293 184.425L115.198 183.257C113.755 183.91 112.21 184.253 110.595 184.27C108.947 184.27 107.195 183.944 105.426 183.223L105.203 183.137V182.57L106.199 181.986L108.105 180.578L108.277 180.647C108.964 180.904 109.685 181.059 110.424 181.11C110.75 181.128 111.059 181.128 111.351 181.11L107.641 179.032C105.77 179.651 104.052 179.908 102.506 179.84C100.909 179.754 99.4495 179.359 98.1786 178.655C96.8219 177.899 96.1006 176.989 96.0147 175.924C95.946 174.996 96.3925 174.103 97.3543 173.279L96.1521 172.609L98.4706 171.218L99.6212 171.854C100.944 171.253 102.3 170.943 103.674 170.892C105.1 170.858 106.731 170.943 108.105 171.476V172.146L105.357 174.275L105.168 174.206C104.516 173.966 103.863 173.846 103.211 173.863L106.611 175.769C108.861 174.996 110.733 174.636 112.175 174.687C113.67 174.739 115.061 175.134 116.332 175.838C117.808 176.662 118.616 177.658 118.77 178.775C118.89 179.788 118.427 180.801 117.362 181.763L119.234 182.639V183.206L117.259 184.373L117.293 184.425ZM115.232 182.467L117.293 183.618L118.358 182.982L116.16 181.918L116.572 181.591C117.705 180.698 118.221 179.788 118.118 178.912C118.015 178.019 117.31 177.212 116.04 176.508C114.855 175.855 113.567 175.494 112.193 175.443C110.819 175.391 108.964 175.752 106.731 176.542L106.577 176.594L101.201 173.588L102.077 173.382C103.125 173.124 104.19 173.176 105.271 173.554L107.229 172.043C106.13 171.682 104.859 171.63 103.726 171.665C102.403 171.699 101.081 172.025 99.793 172.626L99.6212 172.695L98.5049 172.077L97.5775 172.626L98.6595 173.228L98.213 173.554C97.1653 174.309 96.6673 175.099 96.736 175.907C96.8047 176.714 97.4058 177.435 98.5393 178.071C99.7243 178.723 101.064 179.101 102.558 179.17C104.052 179.238 105.735 178.964 107.59 178.345L107.745 178.294L113.481 181.488L112.57 181.677C111.935 181.815 111.214 181.849 110.424 181.797C109.685 181.746 108.964 181.608 108.26 181.368L106.319 182.793C107.779 183.326 109.239 183.583 110.613 183.566C112.175 183.549 113.687 183.206 115.078 182.553L115.25 182.484L115.232 182.467ZM114.305 180.887L108.947 177.899L109.702 177.641C110.613 177.332 111.42 177.195 112.124 177.229C112.845 177.263 113.481 177.435 114.047 177.744C114.717 178.122 115.095 178.586 115.181 179.135C115.267 179.702 115.043 180.235 114.494 180.715L114.305 180.87V180.887ZM110.716 178.088L114.202 180.028C114.425 179.771 114.528 179.53 114.477 179.256C114.425 178.929 114.15 178.62 113.687 178.363C113.223 178.105 112.691 177.968 112.09 177.933C111.677 177.933 111.214 177.968 110.716 178.071V178.088ZM102.919 177.401C102.764 177.401 102.627 177.401 102.472 177.384C101.837 177.332 101.287 177.178 100.841 176.92C100.325 176.628 99.9819 176.25 99.8617 175.804C99.7586 175.477 99.7414 174.979 100.205 174.413L100.394 174.189L105.375 176.971L104.499 177.178C103.932 177.315 103.4 177.384 102.901 177.384L102.919 177.401ZM100.6 175.117C100.497 175.34 100.514 175.494 100.549 175.615C100.617 175.889 100.841 176.113 101.201 176.319C101.562 176.525 102.008 176.645 102.541 176.697C102.816 176.714 103.09 176.714 103.399 176.697L100.6 175.134V175.117Z" fill="#150035"/>
<path d="M110.477 192.101V196.773L115.697 195.914L120.712 194.437L125.933 191.122L129.128 187.121L130.003 184.425L129.935 180.784L127.479 185.421L122.567 188.77L115.199 191.432L110.477 192.101Z" fill="#150035"/>
<path d="M107.214 192.222V196.808L105.084 196.653V191.827L107.214 192.222Z" fill="#150035"/>
<path d="M128.7 171.905C125.661 166.65 117.554 162.889 108.006 162.889C98.457 162.889 90.3509 166.65 87.3111 171.905H86.0059V176.49C86.0059 183.996 95.8637 190.092 108.006 190.092C120.148 190.092 130.006 183.996 130.006 176.49V171.905H128.7Z" fill="#DE5656"/>
<path d="M108.003 190.436C95.6722 190.436 85.6426 184.184 85.6426 176.49V171.562H87.1024C90.3654 166.169 98.7292 162.545 108.003 162.545C117.277 162.545 125.641 166.169 128.904 171.562H130.364V176.49C130.364 184.184 120.334 190.436 108.003 190.436ZM86.3467 172.248V176.473C86.3467 183.772 96.0672 189.714 108.003 189.714C119.939 189.714 129.66 183.772 129.66 176.473V172.248H128.492L128.389 172.077C125.315 166.787 117.123 163.232 108.003 163.232C98.8837 163.232 90.6746 166.787 87.6176 172.077L87.5145 172.248H86.3467Z" fill="#150035"/>
<path d="M130.006 171.905C130.006 179.41 120.148 185.507 108.006 185.507C95.8637 185.507 86.0059 179.41 86.0059 171.905C86.0059 164.4 95.8637 158.303 108.006 158.303C120.148 158.303 130.006 164.4 130.006 171.905Z" fill="#DE5656"/>
<path d="M108.006 186.589C120.156 186.589 130.006 180.499 130.006 172.987C130.006 165.475 120.156 159.385 108.006 159.385C95.8555 159.385 86.0059 165.475 86.0059 172.987C86.0059 180.499 95.8555 186.589 108.006 186.589Z" fill="white"/>
<path d="M108.003 185.851C95.6722 185.851 85.6426 179.599 85.6426 171.905C85.6426 164.211 95.6722 157.96 108.003 157.96C120.334 157.96 130.364 164.211 130.364 171.905C130.364 179.599 120.334 185.851 108.003 185.851ZM108.003 158.647C96.0672 158.647 86.3467 164.589 86.3467 171.888C86.3467 179.187 96.0672 185.129 108.003 185.129C119.939 185.129 129.66 179.187 129.66 171.888C129.66 164.589 119.939 158.647 108.003 158.647Z" fill="#150035"/>
<path d="M108.006 181.522C117.71 181.522 125.576 176.939 125.576 171.286C125.576 165.633 117.71 161.05 108.006 161.05C98.3034 161.05 90.4375 165.633 90.4375 171.286C90.4375 176.939 98.3034 181.522 108.006 181.522Z" fill="#DE5656"/>
<path d="M108.004 181.882C98.1116 181.882 90.0742 177.142 90.0742 171.303C90.0742 165.464 98.1116 160.724 108.004 160.724C117.896 160.724 125.934 165.464 125.934 171.303C125.934 177.142 117.896 181.882 108.004 181.882ZM108.004 161.411C98.5066 161.411 90.7783 165.842 90.7783 171.286C90.7783 176.73 98.5066 181.161 108.004 181.161C117.501 181.161 125.229 176.73 125.229 171.286C125.229 165.842 117.501 161.411 108.004 161.411Z" fill="#150035"/>
<path d="M108.006 161.052C98.3032 161.052 90.4375 165.637 90.4375 171.287C90.4375 171.802 90.5234 172.283 90.6436 172.781C91.8801 167.835 99.1791 164.04 108.006 164.04C116.834 164.04 124.133 167.835 125.369 172.781C125.49 172.3 125.576 171.802 125.576 171.287C125.576 165.637 117.71 161.052 108.006 161.052Z" fill="#DE5656"/>
<path d="M125.163 173.519L125.026 172.867C123.806 168.041 116.49 164.383 108.006 164.383C99.5223 164.383 92.189 168.024 90.9868 172.867L90.7979 173.64L90.317 172.867C90.1625 172.283 90.0938 171.768 90.0938 171.287C90.0938 165.448 98.1312 160.708 108.023 160.708C117.916 160.708 125.953 165.448 125.953 171.287C125.953 171.768 125.884 172.266 125.73 172.867L125.18 173.519H125.163ZM108.006 161.412C98.509 161.412 90.7807 165.843 90.7807 171.287C90.7807 171.304 90.7807 171.321 90.7807 171.355C92.9275 166.839 99.8486 163.696 108.006 163.696C116.164 163.696 123.085 166.839 125.232 171.355C125.232 171.338 125.232 171.321 125.232 171.287C125.232 165.843 117.503 161.412 108.006 161.412Z" fill="#150035"/>
<path d="M105.083 161.292V164.177L100.188 165.104L95.3625 167.182L91.8762 170.222L90.6397 172.781L90.4336 170.222L91.9106 167.182L94.5554 164.709L98.9176 162.528L104.259 161.292H105.083Z" fill="#150035"/>
<path d="M110.477 185.421V190.092L115.697 189.233L120.729 187.756L125.933 184.442L129.128 180.44L130.003 177.744L129.935 174.103L127.479 178.74L122.567 182.089L115.199 184.751L110.477 185.421Z" fill="#150035"/>
<path d="M107.214 185.541V190.127L105.084 189.972V185.146L107.214 185.541Z" fill="#150035"/>
<path d="M118.05 170.483C118.05 170.483 117.8 169.853 117.471 169.655L116.675 169.506L118.914 168.107L117.673 167.359L115.433 168.758L114.878 168.423L117.118 167.024L115.876 166.277L113.636 167.676L112.714 167.12L112.3 166.871L109.909 165.43L109.633 165.603L108.723 165.325L107.728 166.047L107.735 166.788L110.126 168.228L100.386 174.313L97.9943 172.872L97.4416 173.217L96.6113 173.079L96.6113 174.313L99.548 176.475L99.0681 176.872L97.9943 176.429L97.9856 177.594L99.0681 178.315L99.7898 177.594L99.548 178.609L100.872 179.398L102.587 178.305L103.538 178.878C104.579 179.505 105.844 179.798 107.33 179.755C108.817 179.712 110.137 179.33 111.292 178.609C112.03 178.148 112.526 177.649 112.782 177.112C112.891 176.884 112.947 176.656 112.969 176.429C112.975 176.429 112.984 175.514 112.984 175.514C114.46 175.555 115.791 175.211 116.971 174.474C118.084 173.779 118.661 172.986 118.702 172.097C118.705 172.033 118.699 171.971 118.697 171.909L118.703 171.908L118.05 170.483ZM109.37 177.304C108.82 177.648 108.191 177.841 107.483 177.884C106.775 177.927 106.185 177.805 105.712 177.52L102.427 175.543L106.372 173.079L109.656 175.057C110.129 175.342 110.338 175.702 110.281 176.137C110.224 176.571 109.92 176.961 109.37 177.304ZM114.808 173.32C114.284 173.647 113.691 173.829 113.028 173.866C112.364 173.902 111.808 173.785 111.358 173.514L108.465 171.771L112.168 169.458L115.062 171.201C115.511 171.472 115.712 171.812 115.664 172.219C115.617 172.626 115.331 172.993 114.808 173.32Z" fill="#150035"/>
<path d="M105.638 171.944V173.348L102.608 175.196L100.721 174.254L105.638 171.944Z" fill="#150035"/>
<path d="M111.414 168.469V169.873L108.383 171.722L106.496 170.779L111.414 168.469Z" fill="#150035"/>
<path d="M116.381 166.135V167.54L113.35 169.388L111.463 168.445L116.381 166.135Z" fill="#150035"/>
<path d="M118.172 167.173V168.578L115.141 170.426L113.254 169.483L118.172 167.173Z" fill="#150035"/>
<path d="M112.442 175.782C112.681 175.268 112.697 174.758 112.489 174.252C113.93 174.319 115.225 173.988 116.369 173.258C117.413 172.593 117.954 171.834 117.992 170.983C118.03 170.132 117.572 169.413 116.618 168.826L116.092 168.503L118.191 167.164L117.027 166.449L114.928 167.788L114.407 167.468L116.507 166.129L115.343 165.413L113.243 166.752L112.379 166.22L111.991 165.982L109.749 164.604L107.711 165.903L109.953 167.281L100.821 173.103L98.5791 171.725L96.541 173.024L98.7832 174.403L99.1708 174.641L100.035 175.173L98.073 176.424L99.237 177.14L101.199 175.889L101.72 176.209L99.7576 177.46L100.922 178.175L102.884 176.924L103.776 177.472C104.752 178.072 105.938 178.352 107.331 178.311C108.725 178.27 109.963 177.905 111.045 177.216C111.736 176.774 112.202 176.297 112.442 175.782ZM115.145 171.099C115.1 171.49 114.832 171.841 114.342 172.153C113.851 172.466 113.295 172.64 112.673 172.675C112.051 172.71 111.529 172.598 111.108 172.339L108.395 170.671L111.867 168.458L114.58 170.126C115.001 170.385 115.189 170.71 115.145 171.099ZM107.475 176.521C106.811 176.562 106.258 176.446 105.814 176.173L102.735 174.28L106.433 171.923L109.512 173.815C109.956 174.088 110.151 174.433 110.097 174.849C110.044 175.265 109.76 175.638 109.244 175.966C108.728 176.295 108.138 176.48 107.475 176.521Z" fill="white"/>
<path d="M112.442 175.782C112.681 175.268 112.697 174.758 112.489 174.252C113.93 174.319 115.225 173.988 116.369 173.258C117.413 172.593 117.954 171.834 117.992 170.983C118.03 170.132 117.572 169.413 116.618 168.826L116.092 168.503L118.191 167.164L117.027 166.449L114.928 167.788L114.407 167.468L116.507 166.129L115.343 165.413L113.243 166.752L112.379 166.22L111.991 165.982L109.749 164.604L107.711 165.903L109.953 167.281L100.821 173.103L98.5791 171.725L96.541 173.024L98.7832 174.403L99.1708 174.641L100.035 175.173L98.073 176.424L99.237 177.14L101.199 175.889L101.72 176.209L99.7576 177.46L100.922 178.175L102.884 176.924L103.776 177.472C104.752 178.072 105.938 178.352 107.331 178.311C108.725 178.27 109.963 177.905 111.045 177.216C111.736 176.774 112.202 176.297 112.442 175.782ZM115.145 171.099C115.1 171.49 114.832 171.841 114.342 172.153C113.851 172.466 113.295 172.64 112.673 172.675C112.051 172.71 111.529 172.598 111.108 172.339L108.395 170.671L111.867 168.458L114.58 170.126C115.001 170.385 115.189 170.71 115.145 171.099ZM107.475 176.521C106.811 176.562 106.258 176.446 105.814 176.173L102.735 174.28L106.433 171.923L109.512 173.815C109.956 174.088 110.151 174.433 110.097 174.849C110.044 175.265 109.76 175.638 109.244 175.966C108.728 176.295 108.138 176.48 107.475 176.521Z" stroke="#150035"/>
<path d="M199.065 130.523C200.886 128.389 202.794 128.887 207.679 127.959C211.878 127.16 216.234 127.345 220.337 128.545C224.412 129.735 226.893 130.5 228.531 132.484L230.685 133.691L230.532 138.24L230.515 138.353C230.324 141.418 227.726 144.211 222.677 146.104C217.655 147.987 212.119 148.123 206.949 146.699C199.644 144.689 196.082 140.869 196.088 137.134L196.188 132.579L199.067 130.522L199.065 130.523Z" fill="#DE5656"/>
<path d="M213.382 148.233C216.655 148.304 219.897 147.776 222.884 146.656C227.971 144.748 230.89 141.812 231.103 138.39L231.114 138.335L231.285 133.352L228.912 132.022C227.115 129.911 224.333 129.097 220.503 127.978C216.355 126.767 211.883 126.559 207.57 127.381C206.21 127.64 205.096 127.784 204.115 127.911C201.622 128.235 200.106 128.432 198.666 130.087L195.608 132.271L195.501 137.165C195.494 141.527 199.704 145.316 206.792 147.267C208.957 147.863 211.177 148.183 213.382 148.231L213.382 148.233ZM230.087 134.029L229.935 138.259C229.746 141.249 227.098 143.819 222.473 145.554C217.702 147.343 212.244 147.547 207.106 146.133C200.658 144.357 196.67 140.91 196.676 137.136L196.769 132.889L199.515 130.906C200.674 129.546 201.875 129.39 204.268 129.079C205.265 128.95 206.396 128.803 207.791 128.537C211.921 127.751 216.204 127.949 220.173 129.109C224.34 130.326 226.582 131.046 228.078 132.858L228.245 132.997L230.087 134.029Z" fill="#150035"/>
<path d="M201.48 125.702C194.621 129.373 194.419 135.677 201.027 139.782C207.635 143.887 218.551 144.239 225.409 140.568C232.268 136.897 232.47 130.592 225.862 126.487C219.254 122.382 208.338 122.031 201.48 125.702Z" fill="white"/>
<path d="M213.423 143.675C217.841 143.772 222.263 142.92 225.688 141.088C229.198 139.208 231.183 136.588 231.275 133.709C231.367 130.831 229.555 128.087 226.174 125.987C219.417 121.789 208.215 121.429 201.203 125.183C197.693 127.062 195.708 129.683 195.616 132.561C195.523 135.439 197.335 138.182 200.716 140.282C204.173 142.429 208.796 143.574 213.423 143.675ZM213.445 123.755C217.854 123.851 222.258 124.94 225.551 126.987C228.561 128.857 230.176 131.231 230.097 133.671C230.019 136.112 228.255 138.376 225.131 140.048C218.45 143.626 207.774 143.282 201.337 139.283C198.328 137.413 196.712 135.039 196.792 132.598C196.87 130.157 198.634 127.893 201.757 126.221C205.02 124.474 209.235 123.662 213.444 123.755L213.445 123.755Z" fill="#150035"/>
<path d="M205.069 128.566C209.846 126.346 217.469 126.591 222.095 129.114C226.721 131.638 226.596 135.483 221.819 137.704C217.041 139.924 209.418 139.679 204.792 137.155C200.166 134.632 200.291 130.787 205.069 128.566Z" fill="#DE5656"/>
<path d="M213.486 139.793C216.581 139.861 219.674 139.35 222.067 138.238C224.59 137.066 226.012 135.398 226.072 133.542C226.131 131.686 224.819 129.93 222.378 128.598C217.616 126.002 209.739 125.747 204.82 128.033C202.298 129.205 200.875 130.872 200.816 132.729C200.755 134.585 202.068 136.341 204.509 137.672C206.954 139.006 210.22 139.722 213.485 139.793L213.486 139.793ZM213.381 127.639C216.448 127.706 219.517 128.379 221.815 129.631C223.847 130.74 224.941 132.115 224.896 133.504C224.852 134.893 223.67 136.195 221.571 137.17C216.949 139.318 209.549 139.08 205.074 136.639C203.041 135.531 201.947 134.156 201.993 132.767C202.037 131.378 203.218 130.077 205.317 129.101C207.567 128.056 210.473 127.576 213.381 127.64L213.381 127.639Z" fill="#150035"/>
<path d="M204.987 131.138C209.765 128.918 217.389 129.163 222.014 131.686C223.684 132.598 224.726 133.683 225.162 134.8C224.655 135.887 223.546 136.902 221.82 137.704C217.042 139.924 209.419 139.679 204.793 137.156C203.122 136.245 202.081 135.159 201.645 134.043C202.151 132.956 203.261 131.94 204.987 131.138Z" fill="#DE5656"/>
<path d="M213.484 139.793C216.579 139.861 219.673 139.35 222.066 138.238C223.853 137.406 225.108 136.303 225.692 135.048L225.799 134.82L225.708 134.585C225.205 133.294 224.024 132.113 222.294 131.168C217.531 128.57 209.655 128.317 204.736 130.602C202.949 131.433 201.694 132.536 201.109 133.792L201.002 134.02L201.094 134.255C201.597 135.546 202.778 136.727 204.508 137.671C206.953 139.004 210.219 139.72 213.483 139.792L213.484 139.793ZM224.509 134.778C223.995 135.688 222.986 136.511 221.569 137.17C216.946 139.317 209.547 139.08 205.071 136.639C203.701 135.891 202.747 135.005 202.292 134.063C202.806 133.153 203.816 132.329 205.231 131.672C209.851 129.525 217.253 129.763 221.728 132.203C223.098 132.951 224.054 133.837 224.508 134.779L224.509 134.778Z" fill="#150035"/>
<path d="M200.995 140.241L201.9 140.27L201.78 144.022L200.874 143.993L200.995 140.241Z" fill="#150035"/>
<path d="M211.562 127.14L212.467 127.169L212.389 129.59L211.484 129.561L211.562 127.14Z" fill="#150035"/>
<path d="M203.517 141.392L204.422 141.421L204.278 145.878L203.374 145.849L203.517 141.392Z" fill="#150035"/>
<path d="M220.916 142.251L221.82 142.28L221.677 146.737L220.772 146.708L220.916 142.251Z" fill="#150035"/>
<path d="M219.803 134.808L214.994 131.889L215.032 130.164C216.752 129.326 216.136 128.865 219.62 131.395C219.62 131.395 219.62 131.396 219.62 131.398L221.342 132.257L221.305 133.981L219.807 134.803L219.803 134.808Z" fill="#150035"/>
<path d="M219.799 134.908L219.756 134.881L214.907 131.937L214.908 131.887L214.947 130.114L216.664 129.234L217.958 130.166L219.793 131.402L221.422 132.212L221.421 132.267L221.382 134.038L221.342 134.064L219.791 134.915L219.799 134.908ZM215.079 131.841L219.805 134.71L221.218 133.935L221.254 132.31L219.535 131.454L219.528 131.352L219.573 131.324L218 130.34L216.66 129.413L215.113 130.254L215.079 131.846L215.079 131.841Z" fill="#150035"/>
<path d="M219.841 133.08L215.034 130.162C215.034 130.162 215.034 130.161 215.034 130.159L216.665 129.234C216.665 129.234 219.836 131.36 221.343 132.259C221.343 132.259 221.343 132.26 221.342 132.262L219.846 133.084L219.841 133.08Z" fill="white"/>
<path d="M219.84 133.177L219.794 133.152L214.945 130.209L214.947 130.109L214.99 130.083L216.661 129.234L218.471 130.418L221.425 132.212L221.423 132.316L221.374 132.34L219.842 133.18L219.84 133.177ZM215.198 130.164L219.841 132.982L221.169 132.253L216.657 129.413L215.198 130.161L215.198 130.164Z" fill="#150035"/>
<path d="M219.843 133.083L219.805 134.805C219.805 134.805 219.805 134.807 219.807 134.805L221.303 133.984L221.341 132.261C221.341 132.261 221.341 132.259 221.339 132.261L219.843 133.083Z" fill="#150035"/>
<path d="M219.804 134.905L219.718 134.853L219.719 134.803L219.758 133.027L219.806 133.003L221.343 132.158L221.427 132.212L221.426 132.26L221.387 134.029L221.347 134.055L219.802 134.903L219.804 134.905ZM219.925 133.132L219.892 134.662L221.22 133.933L221.253 132.403L219.925 133.132Z" fill="#150035"/>
<path d="M216.156 130.793L215.986 130.79L215.949 132.516L216.118 132.52L216.156 130.793Z" fill="#150035"/>
<path d="M219.131 132.638L218.961 132.634L218.923 134.36L219.093 134.364L219.131 132.638Z" fill="#150035"/>
<path d="M218.288 136.185L218.326 134.438L217.449 134.249L217.447 134.249L217.362 134.719C217.362 134.719 217.362 134.72 217.36 134.719C217.155 134.557 216.917 134.392 216.643 134.226L213.976 132.606L205.448 135.579L205.411 137.303L207.18 138.377L210.225 136.706L210.984 137.166C212.635 138.168 214.302 138.465 215.989 138.055C217.489 137.489 218.255 136.864 218.288 136.178L218.288 136.185ZM215.529 135.413C215.107 135.646 214.69 135.769 214.199 135.726C213.708 135.683 213.738 135.882 213.193 135.552L212.733 135.336C212.733 135.336 212.733 135.334 212.733 135.332L214.255 134.499L215.059 134.986C215.542 135.28 216.166 134.821 216.189 135.07C216.212 135.319 215.952 135.178 215.527 135.412L215.529 135.413Z" fill="#150035"/>
<path d="M207.17 138.483L207.124 138.453L205.318 137.357L205.319 137.307L205.358 135.516L205.424 135.5L213.977 132.517L214.011 132.534L216.684 134.155C216.909 134.293 217.116 134.431 217.3 134.569L217.377 134.149L217.463 134.164L218.411 134.369L218.41 134.44L218.371 136.19C218.336 136.92 217.565 137.558 216.017 138.142C214.304 138.557 212.598 138.255 210.937 137.246L210.219 136.81L207.17 138.483ZM205.49 137.261L207.176 138.285L210.225 136.612L210.271 136.641L211.026 137.1C212.649 138.085 214.312 138.38 215.967 137.98C217.413 137.434 218.168 136.829 218.202 136.184L218.238 134.506L217.512 134.349L217.433 134.78L217.347 134.817L217.306 134.79C217.097 134.626 216.859 134.461 216.593 134.3L213.959 132.701L205.523 135.642L205.488 137.261L205.49 137.261ZM213.685 135.833C213.553 135.83 213.411 135.786 213.148 135.626L212.645 135.392L212.648 135.281L212.695 135.257L214.258 134.399L214.304 134.429L215.105 134.915C215.345 135.059 215.627 134.998 215.851 134.947C216.013 134.911 216.13 134.885 216.21 134.944C216.237 134.963 216.268 134.999 216.276 135.064C216.296 135.282 216.143 135.313 215.996 135.342C215.883 135.364 215.743 135.394 215.571 135.488C215.09 135.753 214.666 135.851 214.193 135.81C214.036 135.796 213.937 135.808 213.85 135.821C213.792 135.828 213.742 135.832 213.688 135.831L213.685 135.833ZM212.916 135.33L213.228 135.474C213.572 135.682 213.662 135.672 213.825 135.65C213.916 135.64 214.029 135.624 214.204 135.641C214.641 135.679 215.034 135.585 215.485 135.338C215.68 135.231 215.842 135.197 215.959 135.175C216.108 135.144 216.108 135.144 216.102 135.08C216.081 135.07 215.968 135.095 215.885 135.114C215.642 135.168 215.31 135.243 215.012 135.061L214.248 134.597L212.915 135.33L212.916 135.33Z" fill="#150035"/>
<path d="M218.289 136.189L218.328 134.441L217.45 134.252L217.449 134.252L217.363 134.722C217.363 134.722 217.363 134.724 217.361 134.722C217.256 134.64 217.142 134.555 217.018 134.472L216.931 134.561C216.931 134.561 214.754 135.751 214.304 135.733L214.249 138.23C215.249 138.277 216.191 138.06 217.074 137.577C217.861 137.145 218.266 136.68 218.291 136.186L218.289 136.189Z" fill="#150035"/>
<path d="M214.382 138.323C214.336 138.322 214.289 138.321 214.241 138.32L214.157 138.318L214.157 138.231L214.214 135.65L214.301 135.652C214.301 135.652 214.303 135.652 214.305 135.652C214.661 135.66 216.268 134.826 216.876 134.496L217.004 134.365L217.064 134.406C217.146 134.463 217.227 134.52 217.301 134.577L217.378 134.157L217.464 134.171L218.412 134.376L218.411 134.448L218.372 136.197C218.347 136.722 217.921 137.213 217.11 137.659C216.262 138.125 215.345 138.35 214.38 138.328L214.382 138.323ZM214.331 138.152C215.292 138.182 216.192 137.964 217.03 137.505C217.784 137.091 218.18 136.647 218.203 136.186L218.239 134.508L217.514 134.351L217.434 134.784L217.341 134.819L217.3 134.786C217.218 134.72 217.124 134.652 217.024 134.582L216.968 134.634C216.754 134.751 214.963 135.724 214.382 135.811L214.331 138.149L214.331 138.152Z" fill="#150035"/>
<path d="M216.028 136.335C214.341 136.745 212.672 136.448 211.021 135.446L210.262 134.986L207.217 136.657L205.45 135.583C205.45 135.583 205.45 135.581 205.45 135.579L214.013 130.881L216.681 132.5C217.693 133.116 218.24 133.705 218.32 134.27C218.427 135.029 217.665 135.717 216.03 136.333L216.028 136.335ZM211.751 134.167C211.751 134.167 211.751 134.169 211.751 134.171L212.332 134.523C212.877 134.854 213.395 135.04 213.885 135.083C214.376 135.126 214.834 135.032 215.256 134.8C215.681 134.566 215.883 134.326 215.86 134.077C215.836 133.828 215.583 133.556 215.098 133.263L214.294 132.775L211.753 134.167L211.751 134.167Z" fill="white"/>
<path d="M207.207 136.756L207.161 136.727L205.357 135.631L205.359 135.531L205.402 135.505L214.006 130.785L214.048 130.806L216.721 132.427C217.767 133.061 218.317 133.662 218.4 134.259C218.515 135.071 217.749 135.777 216.056 136.414L216.047 136.417C214.345 136.831 212.637 136.527 210.976 135.518L210.258 135.082L207.209 136.755L207.207 136.756ZM205.611 135.584L207.215 136.558L210.264 134.885L210.31 134.915L211.065 135.373C212.686 136.358 214.347 136.654 216.002 136.254C217.583 135.657 218.332 134.994 218.232 134.284C218.156 133.748 217.618 133.173 216.632 132.574L214.005 130.978L205.61 135.584L205.611 135.584ZM214.052 135.177C213.993 135.176 213.935 135.173 213.876 135.168C213.374 135.125 212.839 134.931 212.285 134.595L211.662 134.217L211.664 134.117L211.708 134.093L214.293 132.674L214.339 132.704L215.14 133.19C215.653 133.501 215.915 133.788 215.941 134.069C215.967 134.354 215.75 134.625 215.294 134.876C214.911 135.087 214.494 135.187 214.052 135.177ZM211.919 134.172L212.376 134.449C212.907 134.772 213.417 134.956 213.892 134.997C214.365 135.039 214.808 134.947 215.214 134.726C215.604 134.511 215.793 134.295 215.773 134.083C215.753 133.863 215.51 133.611 215.053 133.335L214.289 132.871L211.919 134.171L211.919 134.172Z" fill="#150035"/>
<path d="M207.212 136.656L207.174 138.379C207.174 138.379 207.174 138.381 207.176 138.379L210.219 136.71L210.257 134.987C210.257 134.987 210.257 134.985 210.255 134.987L207.212 136.656Z" fill="#150035"/>
<path d="M207.175 138.481L207.089 138.43L207.09 138.379L207.129 136.61L207.169 136.584L210.261 134.887L210.347 134.939L210.346 134.989L210.307 136.759L210.268 136.785L207.175 138.481ZM207.296 136.707L207.263 138.237L210.138 136.66L210.171 135.13L207.296 136.707Z" fill="#150035"/>
<path d="M214.292 132.776L214.254 134.499L213.369 134.984C213.359 134.98 212.581 134.67 211.753 134.167C211.753 134.167 211.753 134.165 211.753 134.164L214.292 132.771L214.294 132.771L214.292 132.776Z" fill="#150035"/>
<path d="M213.397 135.089L213.336 135.068C213.251 135.033 212.505 134.729 211.704 134.243L211.66 134.217L211.662 134.117L211.708 134.093L214.29 132.676L214.376 132.728L214.375 132.778L214.336 134.555L214.287 134.579L213.422 135.053L213.395 135.09L213.397 135.089ZM211.919 134.171C212.586 134.563 213.206 134.827 213.36 134.891L214.169 134.447L214.202 132.918L211.919 134.171Z" fill="#150035"/>
<path d="M210.928 135.341L210.758 135.338L210.721 137.034L210.89 137.037L210.928 135.341Z" fill="#150035"/>
<path d="M205.984 135.882L205.814 135.879L205.777 137.575L205.947 137.578L205.984 135.882Z" fill="#150035"/>
<path d="M214.865 133.13L214.695 133.127L214.658 134.823L214.828 134.826L214.865 133.13Z" fill="#150035"/>
<path d="M213.623 136.449L213.453 136.445L213.416 138.141L213.586 138.144L213.623 136.449Z" fill="#150035"/>
</svg>
