<svg width="178" height="37" viewBox="0 0 178 37" fill="none" xmlns="http://www.w3.org/2000/svg">
<path d="M13.6649 27.4041H6.49015L5.34 30.7998H0.438154L7.39385 11.5758H12.816L19.7717 30.7998H14.8151L13.6649 27.4041ZM12.46 23.7893L10.0775 16.7515L7.72246 23.7893H12.46ZM28.105 31.0189C26.7722 31.0189 25.5856 30.7907 24.545 30.3343C23.5043 29.8779 22.6828 29.2571 22.0803 28.4721C21.4779 27.6688 21.1401 26.7743 21.0671 25.7884H25.6951C25.7499 26.3179 25.9963 26.7469 26.4345 27.0755C26.8726 27.4041 27.4112 27.5684 28.0502 27.5684C28.6344 27.5684 29.0817 27.4589 29.392 27.2398C29.7206 27.0025 29.885 26.7012 29.885 26.3361C29.885 25.898 29.6568 25.5785 29.2003 25.3777C28.7439 25.1586 28.0045 24.9212 26.9822 24.6657C25.8868 24.4101 24.974 24.1453 24.2437 23.8715C23.5135 23.5794 22.8836 23.1321 22.3542 22.5297C21.8248 21.9089 21.56 21.0783 21.56 20.0377C21.56 19.1613 21.7974 18.3672 22.272 17.6552C22.765 16.9249 23.477 16.3499 24.408 15.93C25.3574 15.5101 26.4801 15.3001 27.7763 15.3001C29.6933 15.3001 31.1994 15.7748 32.2948 16.7241C33.4084 17.6734 34.0474 18.9331 34.2117 20.5032H29.885C29.8119 19.9738 29.5746 19.5539 29.173 19.2435C28.7896 18.9331 28.2784 18.778 27.6394 18.778C27.0917 18.778 26.6718 18.8875 26.3797 19.1066C26.0876 19.3074 25.9416 19.5904 25.9416 19.9555C25.9416 20.3937 26.1698 20.7223 26.6262 20.9413C27.1009 21.1604 27.8311 21.3795 28.817 21.5986C29.9489 21.8907 30.8708 22.1828 31.5828 22.4749C32.2948 22.7487 32.9155 23.2051 33.445 23.8441C33.9926 24.4648 34.2756 25.3046 34.2939 26.3635C34.2939 27.2581 34.0383 28.0613 33.5271 28.7733C33.0342 29.4671 32.3131 30.0148 31.3637 30.4164C30.4326 30.8181 29.3464 31.0189 28.105 31.0189ZM43.3751 31.0189C42.0424 31.0189 40.8557 30.7907 39.8151 30.3343C38.7745 29.8779 37.9529 29.2571 37.3505 28.4721C36.748 27.6688 36.4103 26.7743 36.3372 25.7884H40.9652C41.02 26.3179 41.2665 26.7469 41.7046 27.0755C42.1428 27.4041 42.6813 27.5684 43.3203 27.5684C43.9045 27.5684 44.3518 27.4589 44.6622 27.2398C44.9908 27.0025 45.1551 26.7012 45.1551 26.3361C45.1551 25.898 44.9269 25.5785 44.4705 25.3777C44.0141 25.1586 43.2747 24.9212 42.2523 24.6657C41.1569 24.4101 40.2441 24.1453 39.5139 23.8715C38.7836 23.5794 38.1538 23.1321 37.6243 22.5297C37.0949 21.9089 36.8302 21.0783 36.8302 20.0377C36.8302 19.1613 37.0675 18.3672 37.5422 17.6552C38.0351 16.9249 38.7471 16.3499 39.6782 15.93C40.6275 15.5101 41.7503 15.3001 43.0465 15.3001C44.9634 15.3001 46.4695 15.7748 47.5649 16.7241C48.6786 17.6734 49.3175 18.9331 49.4819 20.5032H45.1551C45.0821 19.9738 44.8447 19.5539 44.4431 19.2435C44.0597 18.9331 43.5485 18.778 42.9095 18.778C42.3619 18.778 41.942 18.8875 41.6499 19.1066C41.3578 19.3074 41.2117 19.5904 41.2117 19.9555C41.2117 20.3937 41.4399 20.7223 41.8963 20.9413C42.371 21.1604 43.1012 21.3795 44.0871 21.5986C45.219 21.8907 46.1409 22.1828 46.8529 22.4749C47.5649 22.7487 48.1857 23.2051 48.7151 23.8441C49.2628 24.4648 49.5458 25.3046 49.564 26.3635C49.564 27.2581 49.3084 28.0613 48.7972 28.7733C48.3043 29.4671 47.5832 30.0148 46.6339 30.4164C45.7028 30.8181 44.6165 31.0189 43.3751 31.0189ZM66.8332 22.913C66.8332 23.3512 66.8058 23.8076 66.7511 24.2823H56.1532C56.2262 25.2316 56.5275 25.9619 57.0569 26.473C57.6046 26.966 58.271 27.2124 59.056 27.2124C60.2244 27.2124 61.0368 26.7195 61.4932 25.7337H66.4772C66.2216 26.7378 65.7561 27.6414 65.0806 28.4447C64.4234 29.248 63.5927 29.8779 62.5886 30.3343C61.5845 30.7907 60.4617 31.0189 59.2203 31.0189C57.7233 31.0189 56.3906 30.6994 55.2221 30.0604C54.0537 29.4214 53.1409 28.5086 52.4837 27.322C51.8264 26.1353 51.4978 24.7478 51.4978 23.1595C51.4978 21.5712 51.8173 20.1837 52.4563 18.997C53.1135 17.8104 54.0263 16.8975 55.1948 16.2586C56.3632 15.6196 57.705 15.3001 59.2203 15.3001C60.6991 15.3001 62.0135 15.6105 63.1637 16.2312C64.3138 16.8519 65.2084 17.7373 65.8474 18.8875C66.5046 20.0377 66.8332 21.3795 66.8332 22.913ZM62.0409 21.6807C62.0409 20.8774 61.7671 20.2385 61.2194 19.7638C60.6717 19.2891 59.9871 19.0518 59.1655 19.0518C58.3805 19.0518 57.7141 19.28 57.1664 19.7364C56.637 20.1928 56.3084 20.8409 56.1806 21.6807H62.0409ZM77.8202 26.829V30.7998H75.4378C73.7399 30.7998 72.4163 30.389 71.467 29.5675C70.5177 28.7277 70.043 27.3676 70.043 25.4872V19.4078H68.1808V15.5192H70.043V11.7949H74.7258V15.5192H77.7928V19.4078H74.7258V25.542C74.7258 25.9984 74.8353 26.327 75.0544 26.5278C75.2735 26.7286 75.6386 26.829 76.1498 26.829H77.8202Z" fill="#EFCB30"/>
<path d="M102.199 11.5758V30.7998H97.5166V19.2709L93.2172 30.7998H89.4382L85.1114 19.2435V30.7998H80.4286V11.5758H85.9603L91.3551 24.8847L96.6951 11.5758H102.199ZM104.636 23.1321C104.636 21.5621 104.928 20.1837 105.512 18.997C106.115 17.8104 106.927 16.8975 107.949 16.2586C108.972 15.6196 110.113 15.3001 111.372 15.3001C112.449 15.3001 113.39 15.5192 114.193 15.9573C115.015 16.3955 115.644 16.9706 116.083 17.6826V15.5192H120.765V30.7998H116.083V28.6364C115.626 29.3484 114.987 29.9235 114.166 30.3617C113.362 30.7998 112.422 31.0189 111.345 31.0189C110.104 31.0189 108.972 30.6994 107.949 30.0604C106.927 29.4032 106.115 28.4812 105.512 27.2946C104.928 26.0897 104.636 24.7022 104.636 23.1321ZM116.083 23.1595C116.083 21.9911 115.754 21.0691 115.097 20.3937C114.458 19.7182 113.673 19.3804 112.742 19.3804C111.811 19.3804 111.016 19.7182 110.359 20.3937C109.72 21.0509 109.401 21.9637 109.401 23.1321C109.401 24.3005 109.72 25.2316 110.359 25.9253C111.016 26.6008 111.811 26.9386 112.742 26.9386C113.673 26.9386 114.458 26.6008 115.097 25.9253C115.754 25.2499 116.083 24.3279 116.083 23.1595ZM133.464 15.3549C135.253 15.3549 136.677 15.9391 137.736 17.1075C138.813 18.2577 139.352 19.846 139.352 21.8724V30.7998H134.696V22.5023C134.696 21.4799 134.431 20.6858 133.902 20.1198C133.373 19.5539 132.661 19.2709 131.766 19.2709C130.871 19.2709 130.159 19.5539 129.63 20.1198C129.101 20.6858 128.836 21.4799 128.836 22.5023V30.7998H124.153V15.5192H128.836V17.5457C129.311 16.8702 129.949 16.3407 130.753 15.9573C131.556 15.5557 132.46 15.3549 133.464 15.3549ZM151.122 26.829V30.7998H148.74C147.042 30.7998 145.718 30.389 144.769 29.5675C143.82 28.7277 143.345 27.3676 143.345 25.4872V19.4078H141.483V15.5192H143.345V11.7949H148.028V15.5192H151.095V19.4078H148.028V25.542C148.028 25.9984 148.137 26.327 148.356 26.5278C148.575 26.7286 148.941 26.829 149.452 26.829H151.122ZM158.413 10.5352V30.7998H153.731V10.5352H158.413ZM176.211 22.913C176.211 23.3512 176.184 23.8076 176.129 24.2823H165.531C165.604 25.2316 165.905 25.9619 166.435 26.473C166.983 26.966 167.649 27.2124 168.434 27.2124C169.602 27.2124 170.415 26.7195 170.871 25.7337H175.855C175.6 26.7378 175.134 27.6414 174.459 28.4447C173.801 29.248 172.971 29.8779 171.967 30.3343C170.963 30.7907 169.84 31.0189 168.598 31.0189C167.101 31.0189 165.769 30.6994 164.6 30.0604C163.432 29.4214 162.519 28.5086 161.862 27.322C161.204 26.1353 160.876 24.7478 160.876 23.1595C160.876 21.5712 161.195 20.1837 161.834 18.997C162.492 17.8104 163.404 16.8975 164.573 16.2586C165.741 15.6196 167.083 15.3001 168.598 15.3001C170.077 15.3001 171.392 15.6105 172.542 16.2312C173.692 16.8519 174.586 17.7373 175.225 18.8875C175.883 20.0377 176.211 21.3795 176.211 22.913ZM171.419 21.6807C171.419 20.8774 171.145 20.2385 170.597 19.7638C170.05 19.2891 169.365 19.0518 168.544 19.0518C167.759 19.0518 167.092 19.28 166.544 19.7364C166.015 20.1928 165.686 20.8409 165.559 21.6807H171.419Z" fill="#252525"/>
<path d="M0 30.4668H173.056L178 34.0268H4.94444L0 30.4668Z" fill="#EFCB30"/>
</svg>
