<svg width="234" height="42" viewBox="0 0 234 42" fill="none" xmlns="http://www.w3.org/2000/svg">
<path d="M0 2.4C0 1.07451 1.07452 0 2.4 0H38.0753C39.4008 0 40.4753 1.07452 40.4753 2.4V38.0736C40.4753 39.3991 39.4008 40.4736 38.0753 40.4736H2.4C1.07452 40.4736 0 39.3991 0 38.0736V2.4Z" fill="white"/>
<path d="M32.5183 4.16797H9.35791V9.02679H32.5183V4.16797Z" fill="#E50913"/>
<path d="M56.0082 13.1523V29.9895C56.0082 31.6732 56.4225 32.9694 57.2509 33.8781C58.0794 34.7868 59.2955 35.2411 60.899 35.2411C62.5025 35.2411 63.7319 34.7868 64.5871 33.8781C65.4424 32.9694 65.87 31.6732 65.87 29.9895V13.1523H72.7251V29.9494C72.7251 32.4616 72.1906 34.5863 71.1216 36.3235C70.0525 38.0606 68.6093 39.3702 66.792 40.2521C65.0014 41.1341 62.997 41.5751 60.7787 41.5751C58.5605 41.5751 56.5694 41.1475 54.8055 40.2922C53.0684 39.4103 51.692 38.1007 50.6764 36.3636C49.6609 34.5997 49.1531 32.4616 49.1531 29.9494V13.1523H56.0082Z" fill="white"/>
<path d="M89.2848 13.1523C92.2513 13.1523 94.8437 13.7403 97.0619 14.9162C99.2802 16.0922 100.991 17.7492 102.193 19.8872C103.423 21.9985 104.037 24.4439 104.037 27.2234C104.037 29.9761 103.423 32.4215 102.193 34.5596C100.991 36.6976 99.2668 38.3546 97.0218 39.5306C94.8036 40.7065 92.2246 41.2944 89.2848 41.2944H78.7415V13.1523H89.2848ZM88.8438 35.3614C91.4362 35.3614 93.454 34.6531 94.8971 33.2367C96.3403 31.8202 97.0619 29.8158 97.0619 27.2234C97.0619 24.631 96.3403 22.6132 94.8971 21.17C93.454 19.7269 91.4362 19.0053 88.8438 19.0053H85.5966V35.3614H88.8438Z" fill="white"/>
<path d="M115.926 13.1523V41.2944H109.071V13.1523H115.926Z" fill="white"/>
<path d="M142.341 13.1523V18.6445H134.885V41.2944H128.03V18.6445H120.573V13.1523H142.341Z" fill="white"/>
<path d="M149.75 41.5751C148.735 41.5751 147.893 41.2677 147.225 40.653C146.583 40.0116 146.263 39.2232 146.263 38.2878C146.263 37.3524 146.583 36.5774 147.225 35.9627C147.893 35.3213 148.735 35.0006 149.75 35.0006C150.739 35.0006 151.554 35.3213 152.196 35.9627C152.837 36.5774 153.158 37.3524 153.158 38.2878C153.158 39.2232 152.837 40.0116 152.196 40.653C151.554 41.2677 150.739 41.5751 149.75 41.5751Z" fill="white"/>
<path d="M168.743 41.6552C166.605 41.6552 164.681 41.1875 162.97 40.2521C161.26 39.29 159.91 37.9404 158.921 36.2032C157.959 34.466 157.478 32.4616 157.478 30.1899C157.478 27.9183 157.972 25.9138 158.961 24.1767C159.977 22.4395 161.353 21.1032 163.09 20.1678C164.828 19.2057 166.765 18.7246 168.903 18.7246C171.041 18.7246 172.979 19.2057 174.716 20.1678C176.453 21.1032 177.816 22.4395 178.805 24.1767C179.821 25.9138 180.328 27.9183 180.328 30.1899C180.328 32.4616 179.807 34.466 178.765 36.2032C177.749 37.9404 176.36 39.29 174.596 40.2521C172.859 41.1875 170.908 41.6552 168.743 41.6552ZM168.743 36.7645C169.758 36.7645 170.707 36.5239 171.589 36.0429C172.498 35.5351 173.219 34.7868 173.754 33.7979C174.288 32.8091 174.556 31.6064 174.556 30.1899C174.556 28.0786 173.995 26.4617 172.872 25.3392C171.776 24.19 170.427 23.6154 168.823 23.6154C167.22 23.6154 165.87 24.19 164.774 25.3392C163.705 26.4617 163.171 28.0786 163.171 30.1899C163.171 32.3013 163.692 33.9315 164.734 35.0807C165.803 36.2032 167.139 36.7645 168.743 36.7645Z" fill="white"/>
<path d="M197.955 18.7647C200.601 18.7647 202.739 19.6066 204.369 21.2903C206 22.9473 206.815 25.2724 206.815 28.2657V41.2944H201.202V29.0274C201.202 27.2635 200.761 25.9138 199.879 24.9784C198.997 24.0163 197.795 23.5353 196.271 23.5353C194.721 23.5353 193.492 24.0163 192.583 24.9784C191.701 25.9138 191.26 27.2635 191.26 29.0274V41.2944H185.648V19.0854H191.26V21.8515C192.009 20.8894 192.957 20.1411 194.107 19.6066C195.283 19.0453 196.565 18.7647 197.955 18.7647Z" fill="white"/>
<path d="M234 29.7089C234 30.5106 233.947 31.2322 233.84 31.8737H217.604C217.737 33.4772 218.299 34.7333 219.288 35.642C220.276 36.5506 221.492 37.005 222.936 37.005C225.02 37.005 226.503 36.1097 227.385 34.3191H233.439C232.797 36.4571 231.568 38.221 229.751 39.6107C227.933 40.9737 225.702 41.6552 223.056 41.6552C220.918 41.6552 218.994 41.1875 217.283 40.2521C215.599 39.29 214.277 37.9404 213.314 36.2032C212.379 34.466 211.911 32.4616 211.911 30.1899C211.911 27.8915 212.379 25.8738 213.314 24.1366C214.25 22.3994 215.559 21.0631 217.243 20.1277C218.927 19.1923 220.864 18.7246 223.056 18.7246C225.167 18.7246 227.051 19.179 228.708 20.0876C230.392 20.9963 231.688 22.2925 232.597 23.9762C233.532 25.6332 234 27.5441 234 29.7089ZM228.187 28.1053C228.16 26.6622 227.639 25.513 226.624 24.6577C225.608 23.7758 224.365 23.3348 222.896 23.3348C221.506 23.3348 220.33 23.7624 219.368 24.6176C218.432 25.4461 217.858 26.6087 217.644 28.1053H228.187Z" fill="white"/>
<path d="M27.285 40.6206H34.541L24.3585 12.4785H16.421L6.23853 40.6206H13.4144L15.0981 35.6496H25.6013L27.285 40.6206ZM23.8374 30.358H16.9021L20.3497 20.0552L23.8374 30.358Z" fill="#222325"/>
</svg>
