<svg width="195" height="35" viewBox="0 0 195 35" fill="none" xmlns="http://www.w3.org/2000/svg">
<path d="M0 1.99932C0 0.895126 0.895128 0 1.99932 0H31.7187C32.8229 0 33.718 0.895128 33.718 1.99932V31.7173C33.718 32.8215 32.8229 33.7166 31.7187 33.7166H1.99933C0.89513 33.7166 0 32.8215 0 31.7173V1.99932Z" fill="black"/>
<path d="M27.0895 3.47363H7.79565V7.52128H27.0895V3.47363Z" fill="#E50913"/>
<path d="M46.6577 10.9575V24.9837C46.6577 26.3864 47.0028 27.4662 47.693 28.2231C48.3831 28.9801 49.3961 29.3586 50.732 29.3586C52.0678 29.3586 53.0919 28.9801 53.8044 28.2231C54.5168 27.4662 54.873 26.3864 54.873 24.9837V10.9575H60.5837V24.9503C60.5837 27.0431 60.1384 28.8131 59.2479 30.2603C58.3573 31.7074 57.1551 32.7983 55.6412 33.533C54.1495 34.2678 52.4797 34.6351 50.6318 34.6351C48.7839 34.6351 47.1252 34.2789 45.6558 33.5664C44.2087 32.8317 43.0621 31.7408 42.2161 30.2937C41.37 28.8242 40.947 27.0431 40.947 24.9503V10.9575H46.6577Z" fill="black"/>
<path d="M74.3788 10.9575C76.8501 10.9575 79.0097 11.4473 80.8576 12.4269C82.7054 13.4065 84.1303 14.7869 85.1322 16.568C86.1563 18.3268 86.6684 20.364 86.6684 22.6794C86.6684 24.9726 86.1563 27.0097 85.1322 28.7908C84.1303 30.572 82.6943 31.9523 80.8242 32.9319C78.9763 33.9115 76.8278 34.4013 74.3788 34.4013H65.5957V10.9575H74.3788ZM74.0114 29.4588C76.171 29.4588 77.8519 28.8688 79.0542 27.6888C80.2564 26.5088 80.8576 24.839 80.8576 22.6794C80.8576 20.5198 80.2564 18.8389 79.0542 17.6367C77.8519 16.4344 76.171 15.8333 74.0114 15.8333H71.3064V29.4588H74.0114Z" fill="black"/>
<path d="M96.5723 10.9575V34.4013H90.8617V10.9575H96.5723Z" fill="black"/>
<path d="M118.578 10.9575V15.5327H112.366V34.4013H106.655V15.5327H100.444V10.9575H118.578Z" fill="black"/>
<path d="M124.75 34.6351C123.904 34.6351 123.202 34.3791 122.646 33.867C122.111 33.3327 121.844 32.6759 121.844 31.8967C121.844 31.1174 122.111 30.4718 122.646 29.9597C123.202 29.4254 123.904 29.1582 124.75 29.1582C125.573 29.1582 126.253 29.4254 126.787 29.9597C127.321 30.4718 127.588 31.1174 127.588 31.8967C127.588 32.6759 127.321 33.3327 126.787 33.867C126.253 34.3791 125.573 34.6351 124.75 34.6351Z" fill="black"/>
<path d="M140.571 34.7019C138.79 34.7019 137.187 34.3123 135.763 33.533C134.338 32.7315 133.213 31.6072 132.39 30.1601C131.588 28.7129 131.187 27.0431 131.187 25.1507C131.187 23.2583 131.599 21.5885 132.423 20.1414C133.269 18.6942 134.416 17.581 135.863 16.8018C137.31 16.0003 138.924 15.5995 140.705 15.5995C142.486 15.5995 144.1 16.0003 145.547 16.8018C146.995 17.581 148.13 18.6942 148.954 20.1414C149.8 21.5885 150.223 23.2583 150.223 25.1507C150.223 27.0431 149.789 28.7129 148.92 30.1601C148.074 31.6072 146.917 32.7315 145.447 33.533C144 34.3123 142.375 34.7019 140.571 34.7019ZM140.571 30.6276C141.418 30.6276 142.208 30.4272 142.943 30.0265C143.7 29.6035 144.301 28.9801 144.746 28.1563C145.191 27.3326 145.414 26.3307 145.414 25.1507C145.414 23.3919 144.946 22.0449 144.011 21.1098C143.098 20.1525 141.974 19.6738 140.638 19.6738C139.302 19.6738 138.178 20.1525 137.265 21.1098C136.375 22.0449 135.929 23.3919 135.929 25.1507C135.929 26.9096 136.364 28.2676 137.232 29.225C138.122 30.1601 139.236 30.6276 140.571 30.6276Z" fill="black"/>
<path d="M164.907 15.6329C167.111 15.6329 168.892 16.3342 170.25 17.7369C171.608 19.1172 172.287 21.0542 172.287 23.5477V34.4013H167.612V24.1822C167.612 22.7128 167.245 21.5885 166.51 20.8093C165.775 20.0078 164.773 19.607 163.504 19.607C162.213 19.607 161.189 20.0078 160.432 20.8093C159.697 21.5885 159.33 22.7128 159.33 24.1822V34.4013H154.654V15.9001H159.33V18.2044C159.953 17.4029 160.743 16.7795 161.701 16.3342C162.68 15.8667 163.749 15.6329 164.907 15.6329Z" fill="black"/>
<path d="M194.934 24.75C194.934 25.4179 194.889 26.019 194.8 26.5533H181.275C181.386 27.8892 181.854 28.9356 182.678 29.6925C183.502 30.4495 184.515 30.828 185.717 30.828C187.453 30.828 188.689 30.0822 189.424 28.5905H194.466C193.932 30.3716 192.908 31.841 191.394 32.9987C189.88 34.1342 188.021 34.7019 185.817 34.7019C184.036 34.7019 182.433 34.3123 181.008 33.533C179.605 32.7315 178.503 31.6072 177.702 30.1601C176.923 28.7129 176.533 27.0431 176.533 25.1507C176.533 23.236 176.923 21.5551 177.702 20.108C178.481 18.6608 179.572 17.5476 180.975 16.7684C182.377 15.9891 183.991 15.5995 185.817 15.5995C187.576 15.5995 189.145 15.978 190.526 16.735C191.928 17.492 193.008 18.5717 193.765 19.9744C194.544 21.3547 194.934 22.9466 194.934 24.75ZM190.092 23.4141C190.069 22.2119 189.635 21.2545 188.789 20.5421C187.943 19.8074 186.908 19.44 185.683 19.44C184.526 19.44 183.546 19.7963 182.745 20.5087C181.965 21.1989 181.487 22.1674 181.309 23.4141H190.092Z" fill="black"/>
<path d="M22.7298 33.8379H28.7744L20.2919 10.394H13.6795L5.19702 33.8379H11.1749L12.5775 29.6968H21.3272L22.7298 33.8379ZM19.8578 25.2885H14.0803L16.9523 16.7058L19.8578 25.2885Z" fill="white"/>
</svg>
