<svg width="94" height="32" viewBox="0 0 94 32" fill="none" xmlns="http://www.w3.org/2000/svg">
<g clip-path="url(#clip0)">
<mask id="mask0" mask-type="alpha" maskUnits="userSpaceOnUse" x="0" y="0" width="29" height="23">
<path d="M0 0H28.3969V22.8764H0V0Z" fill="white"/>
</mask>
<g mask="url(#mask0)">
<path fill-rule="evenodd" clip-rule="evenodd" d="M3.32509 22.0267C2.48125 20.2202 2.00991 18.2048 2.00991 16.0793C2.00991 8.309 8.309 2.00994 16.0793 2.00994C20.406 2.00994 24.2763 3.96306 26.8573 7.03559L28.3969 5.74366C25.4474 2.23216 21.0241 0 16.0793 0C7.19897 0 0 7.19897 0 16.0793C0 18.5085 0.538656 20.8118 1.50306 22.8764L3.32509 22.0267Z" fill="white"/>
</g>
<path fill-rule="evenodd" clip-rule="evenodd" d="M16.0794 25.6256C10.8067 25.6256 6.53228 21.3512 6.53228 16.0785C6.53228 10.8058 10.8067 6.53139 16.0794 6.53139C19.0153 6.53139 21.6412 7.85708 23.3926 9.94202L24.9327 8.64973C22.8127 6.12586 19.6334 4.52148 16.0794 4.52148C9.69659 4.52148 4.52234 9.69573 4.52234 16.0785C4.52234 22.4613 9.69659 27.6355 16.0794 27.6355V25.6256Z" fill="white"/>
<path fill-rule="evenodd" clip-rule="evenodd" d="M19.5435 18.9852C18.7139 19.9728 17.47 20.6007 16.0793 20.6007C13.5817 20.6007 11.557 18.576 11.557 16.0784C11.557 13.5808 13.5817 11.5561 16.0793 11.5561C17.47 11.5561 18.7139 12.184 19.5435 13.1716L21.2755 11.7183C20.0312 10.2369 18.1654 9.29492 16.0793 9.29492C12.3329 9.29492 9.29584 12.332 9.29584 16.0784C9.29584 19.8248 12.3329 22.8619 16.0793 22.8619C17.9911 22.8619 19.7175 22.0704 20.9505 20.798L19.5435 18.9852Z" fill="white"/>
<path fill-rule="evenodd" clip-rule="evenodd" d="M31.771 13.8788H33.8375V15.2746H33.8738C34.067 14.8396 34.4023 14.456 34.8798 14.1235C35.3571 13.7913 35.9222 13.625 36.5747 13.625C37.1427 13.625 37.6289 13.7247 38.034 13.9242C38.4388 14.1235 38.771 14.3864 39.031 14.7127C39.2907 15.039 39.4811 15.4137 39.602 15.8366C39.7227 16.2597 39.7833 16.6948 39.7833 17.1418V22.58H37.608V17.7581C37.608 17.5043 37.5899 17.2386 37.5536 16.9605C37.5173 16.6827 37.4387 16.432 37.318 16.2082C37.197 15.9847 37.0307 15.8003 36.8194 15.6554C36.6079 15.5103 36.3268 15.4378 35.9765 15.4378C35.6259 15.4378 35.3239 15.5075 35.0702 15.6463C34.8164 15.7853 34.6079 15.9635 34.4448 16.1811C34.2816 16.3985 34.1576 16.6496 34.0731 16.9333C33.9885 17.2174 33.9463 17.5043 33.9463 17.7944V22.58H31.771V13.8788Z" fill="white"/>
<path fill-rule="evenodd" clip-rule="evenodd" d="M40.7076 15.6175V13.8772H42.2303V11.3574H44.3693V13.8772H46.5446V15.6175H44.3693V19.6598C44.3693 20.0467 44.4387 20.3668 44.5778 20.6206C44.7166 20.8744 45.0278 21.0013 45.5113 21.0013C45.6564 21.0013 45.8133 20.9863 45.9826 20.956C46.1518 20.926 46.3027 20.8806 46.4359 20.82L46.5083 22.524C46.3149 22.5965 46.0852 22.6537 45.8195 22.6962C45.5535 22.7384 45.2998 22.7597 45.0582 22.7597C44.4781 22.7597 44.0068 22.6781 43.6443 22.5149C43.2816 22.3517 42.9945 22.1283 42.7831 21.8442C42.5716 21.5605 42.4266 21.2341 42.3481 20.8653C42.2693 20.4969 42.2303 20.1011 42.2303 19.678V15.6175H40.7076Z" fill="white"/>
<path fill-rule="evenodd" clip-rule="evenodd" d="M47.85 13.8788H49.9347V15.329H49.9709C50.2125 14.8214 50.551 14.4108 50.9861 14.0963C51.4211 13.7823 51.9287 13.625 52.5088 13.625C52.5931 13.625 52.6838 13.6281 52.7807 13.6341C52.8773 13.6403 52.9619 13.6553 53.0344 13.6794V15.6735C52.8894 15.6372 52.7654 15.6132 52.6628 15.601C52.56 15.589 52.4603 15.5828 52.3637 15.5828C51.8681 15.5828 51.4692 15.6735 51.1674 15.8547C50.8651 16.036 50.6295 16.2535 50.4604 16.5073C50.2909 16.7612 50.1763 17.0211 50.116 17.2868C50.0553 17.5527 50.0253 17.7643 50.0253 17.9212V22.58H47.85V13.8788Z" fill="white"/>
<path fill-rule="evenodd" clip-rule="evenodd" d="M54.0312 22.5783H56.2065V13.8771H54.0312V22.5783ZM53.723 10.9223C53.723 10.572 53.8527 10.2669 54.1126 10.0069C54.3724 9.74713 54.7018 9.61719 55.1007 9.61719C55.4995 9.61719 55.8348 9.74119 56.1067 9.98878C56.3786 10.2366 56.5146 10.5479 56.5146 10.9223C56.5146 11.297 56.3786 11.6084 56.1067 11.8558C55.8348 12.1037 55.4995 12.2275 55.1007 12.2275C54.7018 12.2275 54.3724 12.0978 54.1126 11.8377C53.8527 11.578 53.723 11.2729 53.723 10.9223Z" fill="white"/>
<path fill-rule="evenodd" clip-rule="evenodd" d="M59.0165 15.6176H57.3669V13.8774H59.0165V13.2267C59.0165 12.7072 59.0737 12.2087 59.1888 11.7312C59.3035 11.2539 59.4969 10.8338 59.7689 10.4713C60.0407 10.1088 60.4002 9.82178 60.8474 9.61025C61.2943 9.39894 61.8563 9.29297 62.5333 9.29297C62.7748 9.29297 62.9774 9.30203 63.1406 9.32016C63.3037 9.33828 63.4697 9.37175 63.6391 9.41988L63.494 11.2689C63.3731 11.2327 63.2431 11.2027 63.1043 11.1783C62.9652 11.1542 62.817 11.142 62.6601 11.142C62.3458 11.142 62.092 11.2027 61.8988 11.3233C61.7053 11.4442 61.5573 11.6014 61.4547 11.7946C61.3519 11.988 61.2825 12.1997 61.2462 12.4291C61.21 12.6588 61.1918 12.8823 61.1918 13.0997V13.8774H63.2039V15.6176H61.1918V22.5786H59.0165V15.6176Z" fill="white"/>
<path fill-rule="evenodd" clip-rule="evenodd" d="M72.3043 22.5801H70.2378V21.1843H70.2015C70.0081 21.6194 69.6727 22.0031 69.1955 22.3353C68.7179 22.6676 68.1532 22.8339 67.5006 22.8339C66.9323 22.8339 66.446 22.7342 66.0413 22.5348C65.6363 22.3353 65.304 22.0725 65.0442 21.7463C64.7842 21.4199 64.5939 21.0455 64.4732 20.6224C64.3523 20.1994 64.292 19.7644 64.292 19.3172V13.8789H66.4673V18.7008C66.4673 18.9546 66.4854 19.2206 66.5217 19.4985C66.5579 19.7766 66.6364 20.0273 66.7573 20.2507C66.8779 20.4745 67.0442 20.6585 67.2558 20.8036C67.4671 20.9486 67.7481 21.0212 68.0988 21.0212C68.4369 21.0212 68.7361 20.9517 68.996 20.8126C69.2558 20.6738 69.4673 20.4955 69.6305 20.2779C69.7937 20.0604 69.9175 19.8097 70.0021 19.5257C70.0866 19.2418 70.129 18.9546 70.129 18.6645V13.8789H72.3043V22.5801Z" fill="white"/>
<path fill-rule="evenodd" clip-rule="evenodd" d="M24.5121 15.8456C24.9653 15.4531 25.5182 15.2565 26.1708 15.2565C26.5212 15.2565 26.8262 15.314 27.0863 15.4287C27.346 15.5438 27.5604 15.6978 27.7297 15.8909C27.8988 16.0844 28.0226 16.3078 28.1014 16.5617C28.1799 16.8154 28.2193 17.0814 28.2193 17.3593H23.7599C23.808 16.743 24.059 16.2385 24.5121 15.8456ZM28.5455 19.9334C28.3037 20.2841 27.9954 20.5588 27.6211 20.7582C27.2463 20.9576 26.7871 21.0573 26.2433 21.0573C25.9289 21.0573 25.627 21.0029 25.337 20.8942C25.0469 20.7854 24.7869 20.6375 24.5574 20.45C24.3278 20.2628 24.1433 20.0393 24.0046 19.7793C23.8656 19.5195 23.784 19.2327 23.7599 18.9183H30.3764C30.3883 18.8217 30.3946 18.7251 30.3946 18.6282V18.3382C30.3946 17.5528 30.2886 16.867 30.0773 16.2807C29.8658 15.6947 29.5725 15.2052 29.1981 14.8124C28.8234 14.4198 28.3792 14.1235 27.8657 13.9242C27.3519 13.7247 26.7931 13.625 26.1889 13.625C25.5363 13.625 24.929 13.7369 24.3672 13.9604C23.8052 14.1842 23.3186 14.4983 22.9078 14.903C22.4969 15.3081 22.1737 15.7975 21.9381 16.3713C21.7023 16.9455 21.5846 17.5831 21.5846 18.2838C21.5846 18.997 21.7023 19.6343 21.9381 20.1962C22.1737 20.7582 22.5 21.2326 22.9169 21.6193C23.3338 22.0062 23.8262 22.3053 24.3943 22.5166C24.9623 22.7279 25.5846 22.8338 26.2614 22.8338C27.7223 22.8338 28.8727 22.3684 29.7135 21.4382L28.5455 19.9334Z" fill="white"/>
<path fill-rule="evenodd" clip-rule="evenodd" d="M87.2084 15.8456C87.6616 15.4531 88.2145 15.2565 88.8671 15.2565C89.2175 15.2565 89.5225 15.314 89.7827 15.4287C90.0423 15.5438 90.2567 15.6978 90.4261 15.8909C90.5952 16.0844 90.719 16.3078 90.7978 16.5617C90.8762 16.8154 90.9156 17.0814 90.9156 17.3593H86.4562C86.5043 16.743 86.7553 16.2385 87.2084 15.8456ZM91.2419 19.9334C91 20.2841 90.6918 20.5588 90.3174 20.7582C89.9426 20.9576 89.4835 21.0573 88.9396 21.0573C88.6253 21.0573 88.3233 21.0029 88.0333 20.8942C87.7432 20.7854 87.4832 20.6375 87.2538 20.45C87.0241 20.2628 86.8397 20.0393 86.7009 19.7793C86.5619 19.5195 86.4803 19.2327 86.4562 18.9183H93.0728C93.0846 18.8217 93.0909 18.7251 93.0909 18.6282V18.3382C93.0909 17.5528 92.9849 16.867 92.7736 16.2807C92.5621 15.6947 92.2688 15.2052 91.8945 14.8124C91.5198 14.4198 91.0755 14.1235 90.562 13.9242C90.0483 13.7247 89.4894 13.625 88.8853 13.625C88.2326 13.625 87.6254 13.7369 87.0635 13.9604C86.5015 14.1842 86.0149 14.4983 85.6042 14.903C85.1932 15.3081 84.87 15.7975 84.6344 16.3713C84.3987 16.9455 84.2809 17.5831 84.2809 18.2838C84.2809 18.997 84.3987 19.6343 84.6344 20.1962C84.87 20.7582 85.1963 21.2326 85.6132 21.6193C86.0301 22.0062 86.5225 22.3053 87.0906 22.5166C87.6586 22.7279 88.2809 22.8338 88.9578 22.8338C90.4186 22.8338 91.569 22.3684 92.4098 21.4382L91.2419 19.9334Z" fill="white"/>
<path fill-rule="evenodd" clip-rule="evenodd" d="M80.6959 19.2049C80.5749 19.5363 80.4026 19.8283 80.1792 20.0813C79.9554 20.3341 79.6836 20.5358 79.3635 20.6865C79.0432 20.8372 78.6836 20.9123 78.2848 20.9123C77.898 20.9123 77.5507 20.8342 77.2426 20.6774C76.9343 20.5208 76.6743 20.313 76.463 20.0541C76.2515 19.7952 76.0883 19.5029 75.9736 19.1777C75.8586 18.8526 75.8015 18.5155 75.8015 18.1659C75.8015 17.7808 75.8586 17.4193 75.9736 17.082C76.0883 16.7446 76.2515 16.4526 76.463 16.2057C76.6743 15.9586 76.9343 15.7629 77.2426 15.6184C77.5507 15.474 77.9042 15.4015 78.303 15.4015C78.7017 15.4015 79.0581 15.474 79.3725 15.6184C79.6867 15.7629 79.9554 15.9618 80.1792 16.2147C80.4026 16.4677 80.5749 16.7628 80.6959 17.0998C80.8165 17.4372 80.8771 17.7927 80.8771 18.1659C80.8771 18.5274 80.8165 18.8738 80.6959 19.2049ZM80.8771 13.8788V15.1839H80.8408C80.5264 14.6523 80.1036 14.2595 79.572 14.0057C79.04 13.7519 78.4662 13.625 77.8498 13.625C77.1972 13.625 76.6081 13.746 76.0824 13.9876C75.5567 14.2295 75.1095 14.5557 74.7409 14.9665C74.3721 15.3774 74.0884 15.8609 73.8889 16.4166C73.6895 16.9727 73.5899 17.5649 73.5899 18.1932C73.5899 18.8095 73.6924 19.3927 73.898 19.9425C74.1034 20.4926 74.3903 20.9729 74.759 21.3836C75.1276 21.7946 75.5776 22.1209 76.1096 22.3624C76.6412 22.6041 77.2335 22.7251 77.8861 22.7251C78.4902 22.7251 79.0372 22.6121 79.5266 22.3863C80.0161 22.1605 80.4177 21.8339 80.7322 21.4066H80.7684V22.0433C80.7684 22.4801 80.7231 22.8803 80.6324 23.2442C80.5417 23.6079 80.3905 23.9234 80.1792 24.1902C79.9676 24.457 79.6836 24.6661 79.3272 24.8179C78.9706 24.9694 78.5325 25.0454 78.013 25.0454C77.4692 25.0454 76.9313 24.9394 76.3996 24.7281C75.8817 24.5221 75.4157 24.2272 75.0012 23.8437L73.7167 25.4986C73.9946 25.728 74.3088 25.9336 74.6594 26.1149C75.0097 26.2961 75.3754 26.4471 75.7561 26.5681C76.1368 26.6888 76.5233 26.7794 76.9163 26.8399C77.3088 26.9003 77.6804 26.9306 78.0311 26.9306C78.8768 26.9306 79.6082 26.8096 80.2246 26.5681C80.8408 26.3261 81.3513 25.9849 81.7563 25.5439C82.161 25.1026 82.4602 24.5649 82.6536 23.9306C82.8468 23.2961 82.9437 22.5859 82.9437 21.8005V13.8788H80.8771Z" fill="white"/>
</g>
<defs>
<clipPath id="clip0">
<rect width="94" height="32" fill="white"/>
</clipPath>
</defs>
</svg>
