<svg xmlns="http://www.w3.org/2000/svg" width="112.1" height="24.93" xmlns:v="https://vecta.io/nano"><path fill="#fe4350" d="M24.932 17.348H8.387V8.36H5.84v10.23c0 .68.574 1.238 1.273 1.238h14.498l-2.994 2.623H2.547V7.582h16.545c.324 0 .624-.12.85-.315l5.84-5.103c.4-.34.524-.898.35-1.36-.2-.485-.674-.802-1.197-.802H7.114c-.7 0-1.273.56-1.273 1.24v3.085h2.546V2.48h13.226L18.62 5.104H1.275c-.7 0-1.273.56-1.273 1.238V23.69c0 .68.574 1.238 1.273 1.238H19.09a1.3 1.3 0 0 0 .849-.316l5.84-5.102a1.23 1.23 0 0 0 .35-1.359c-.2-.486-.674-.802-1.197-.802z"/><path d="M38.32 5.802c2.787 0 5.805 1.48 6.336 4.957H41.27c-.497-1.32-1.493-1.932-2.952-1.932-2.023 0-3.352 1.48-3.352 3.638 0 1.93 1.294 3.604 3.352 3.637 1.46 0 2.654-.7 3.02-2.125h3.383c-.496 3.7-3.516 5.15-6.4 5.15-3.417.03-6.9-2.22-6.9-6.662s3.45-6.663 6.9-6.663zm7.43 6.65c0-9.045 13.834-9.045 13.834 0-.033 9.076-13.834 9.076-13.834 0zm10.283 0c0-4.7-6.767-4.7-6.767 0 .001 4.764 6.767 4.764 6.767 0zM72.92 5.898h1.227V19.03H70.63v-5.826l-2.854 2.928h-.398l-2.853-2.928v5.826H61V5.898h1.26l5.274 5.665L72.9 5.898zm8.56 13.118h-5.076v-13.1h5.076c8.8.064 8.8 13.067 0 13.1zm-1.626-3.06h1.626c4.278 0 4.278-6.985 0-6.985h-1.626v6.985zm18.1-7.03H93v1.866h4.577v2.96h-4.6v2.285h5.174v2.96H89.55V5.93h8.426v2.994zm7.83 5.97l-2.588 4.12H99.6V18.5l4.346-6.437-3.88-5.633v-.515h3.516l2.2 3.412h.1l2.256-3.412h3.45v.515l-3.85 5.633 4.38 6.437v.516h-3.616l-2.588-4.12h-.1z" fill="#fff"/></svg>