<svg width="93" height="122" viewBox="0 0 93 122" fill="none" xmlns="http://www.w3.org/2000/svg">
<path d="M88.438 61.5376H29.7449V29.6483H20.7152V65.9331C20.7152 68.3464 22.7513 70.3287 25.23 70.3287H76.6639L66.0407 79.6369H9.0297V26.8904H20.6267H29.6564H67.7227C68.8736 26.8904 69.9359 26.4594 70.7326 25.77L91.4478 7.67066C92.8643 6.46403 93.3069 4.48173 92.6872 2.84417C91.979 1.12043 90.297 0 88.438 0H25.23C22.7513 0 20.7152 1.9823 20.7152 4.39554V15.3413H29.7449V8.79109H76.6639L66.0407 18.0993H29.7449H20.7152H4.51485C2.0361 18.0993 0 20.0816 0 22.4949V84.0324C0 86.4457 2.0361 88.428 4.51485 88.428H67.7227C68.8736 88.428 69.9359 87.9971 70.7326 87.3076L91.4478 69.2082C92.8643 68.0016 93.3069 66.0193 92.6872 64.3818C91.979 62.6581 90.297 61.5376 88.438 61.5376Z" fill="#FE4350"/>
<path d="M7.92686 106.199C11.1284 106.199 14.5967 107.9 15.2063 111.894C13.8722 111.894 12.6531 111.894 11.319 111.894C10.7473 110.378 9.60379 109.675 7.92686 109.675C5.60251 109.675 4.07787 111.376 4.07787 113.854C4.07787 116.073 5.56421 117.995 7.92686 118.032C9.60379 118.032 10.9761 117.219 11.3951 115.592C12.7292 115.592 13.9488 115.592 15.2824 115.592C14.7107 119.844 11.2429 121.508 7.92686 121.508C4.00173 121.545 0 118.957 0 113.854C0 108.751 3.96343 106.199 7.92686 106.199Z" fill="#053C75"/>
<path d="M16.4651 113.889C16.4651 103.498 32.3571 103.498 32.3571 113.889C32.3192 124.317 16.4651 124.317 16.4651 113.889ZM28.2792 113.889C28.2792 108.49 20.5047 108.49 20.5047 113.889C20.5047 119.362 28.2792 119.362 28.2792 113.889Z" fill="#053C75"/>
<path d="M47.6782 106.309H49.0884V121.396C47.7544 121.396 46.3825 121.396 45.0489 121.396V114.703L41.7712 118.068H41.3139L38.0362 114.703V121.396C36.7021 121.396 35.3302 121.396 33.9966 121.396V106.309H35.4446L41.5044 112.817L47.6782 106.309Z" fill="#053C75"/>
<path d="M57.5099 121.398H51.679V106.348H57.5099C67.6093 106.422 67.6093 121.361 57.5099 121.398ZM55.6424 117.885H57.5099C62.4262 117.885 62.4262 109.861 57.5099 109.861H55.6424V117.885Z" fill="#053C75"/>
<path d="M76.4511 109.787C74.1646 109.787 72.9828 109.787 70.7346 109.787V111.931H75.9938C75.9938 113.078 75.9938 114.224 75.9938 115.334H70.6963C70.6963 116.221 70.6963 117.072 70.6963 117.959C72.9828 117.959 74.3169 117.959 76.6417 117.959C76.6417 119.068 76.6417 120.252 76.6417 121.361C73.0211 121.361 70.3535 121.361 66.7708 121.361C66.7708 116.332 66.7708 111.303 66.7708 106.348C70.3535 106.348 72.7923 106.348 76.4511 106.348C76.4511 107.494 76.4511 108.64 76.4511 109.787Z" fill="#053C75"/>
<path d="M85.4455 116.665L82.4729 121.398H78.3188V120.806L83.3113 113.411L78.8523 106.939V106.348H82.8923L85.4077 110.267H85.5217L88.1132 106.348H92.0771V106.939L87.6559 113.411L92.6867 120.806V121.398H88.5327L85.56 116.665H85.4455Z" fill="#053C75"/>
</svg>
