<svg width="165" height="37" viewBox="0 0 165 37" fill="none" xmlns="http://www.w3.org/2000/svg">
<path d="M36.6949 25.5333H12.3418V12.3018H8.5952V27.3571C8.5952 28.3585 9.44 29.181 10.4685 29.181H31.8096L27.4018 33.0431H3.74663V11.1574H8.55846H12.3051H28.0997C28.5772 11.1574 29.018 10.9786 29.3485 10.6925L37.9437 3.18273C38.5315 2.68207 38.7151 1.85957 38.458 1.18011C38.1642 0.464891 37.4663 0 36.6949 0H10.4685C9.44 0 8.5952 0.822503 8.5952 1.82381V6.36546H12.3418V3.64762H31.8096L27.4018 7.50982H12.3418H8.5952H1.87331C0.844825 7.50982 0 8.33228 0 9.33362V34.8669C0 35.8682 0.844825 36.6907 1.87331 36.6907H28.0997C28.5772 36.6907 29.018 36.512 29.3485 36.2259L37.9437 28.716C38.5315 28.2154 38.7151 27.3929 38.458 26.7134C38.1642 25.9982 37.4663 25.5333 36.6949 25.5333Z" fill="#FE4350"/>
<path d="M56.4009 8.2207C60.5029 8.2207 64.9467 10.4001 65.7277 15.5171C64.0185 15.5171 62.4564 15.5171 60.7471 15.5171C60.0146 13.5745 58.5495 12.6743 56.4009 12.6743C53.4229 12.6743 51.4694 14.8538 51.4694 18.0282C51.4694 20.871 53.3738 23.3347 56.4009 23.382C58.5495 23.382 60.3078 22.3397 60.8447 20.255C62.554 20.255 64.1166 20.255 65.8253 20.255C65.0927 25.7037 60.6496 27.8357 56.4009 27.8357C51.3719 27.8831 46.2446 24.5665 46.2446 18.0282C46.2446 11.4898 51.3228 8.2207 56.4009 8.2207Z" fill="#053C75"/>
<path d="M67.3408 18.0745C67.3408 4.76096 87.7025 4.76096 87.7025 18.0745C87.654 31.4355 67.3408 31.4355 67.3408 18.0745ZM82.4777 18.0745C82.4777 11.1571 72.5165 11.1571 72.5165 18.0745C72.5165 25.0867 82.4777 25.0867 82.4777 18.0745Z" fill="#053C75"/>
<path d="M107.332 8.36279H109.139V27.6936C107.43 27.6936 105.672 27.6936 103.964 27.6936V19.1179L99.7639 23.4294H99.178L94.9785 19.1179V27.6936C93.2692 27.6936 91.5114 27.6936 89.8027 27.6936V8.36279H91.6581L99.4222 16.7016L107.332 8.36279Z" fill="#053C75"/>
<path d="M119.93 27.6935H112.459V8.41016H119.93C132.87 8.50493 132.87 27.6461 119.93 27.6935ZM117.537 23.1925H119.93C126.229 23.1925 126.229 12.9112 119.93 12.9112H117.537V23.1925Z" fill="#053C75"/>
<path d="M144.198 12.8165C141.268 12.8165 139.754 12.8165 136.874 12.8165V15.5645H143.612C143.612 17.0332 143.612 18.502 143.612 19.9234H136.825C136.825 21.0604 136.825 22.1502 136.825 23.2873C139.754 23.2873 141.463 23.2873 144.442 23.2873C144.442 24.7087 144.442 26.2248 144.442 27.6461C139.803 27.6461 136.385 27.6461 131.795 27.6461C131.795 21.2026 131.795 14.759 131.795 8.41016C136.385 8.41016 139.51 8.41016 144.198 8.41016C144.198 9.87893 144.198 11.3477 144.198 12.8165Z" fill="#053C75"/>
<path d="M155.722 21.629L151.914 27.6935H146.591V26.9355L152.988 17.4596L147.275 9.16823V8.41016H152.451L155.674 13.4324H155.82L159.14 8.41016H164.219V9.16823L158.554 17.4596L165 26.9355V27.6935H159.678L155.869 21.629H155.722Z" fill="#053C75"/>
</svg>
