<svg width="169" height="38" viewBox="0 0 169 38" fill="none" xmlns="http://www.w3.org/2000/svg">
<path d="M37.5845 26.1523H12.641V12.6H8.80357V28.0203C8.80357 29.0459 9.66885 29.8884 10.7223 29.8884H32.5807L28.0661 33.8442H3.83745V11.4279H8.76594H12.6034H28.7809C29.27 11.4279 29.7214 11.2447 30.06 10.9518L38.8636 3.25988C39.4656 2.74709 39.6537 1.90465 39.3903 1.20872C39.0894 0.476161 38.3745 0 37.5845 0H10.7223C9.66885 0 8.80357 0.842442 8.80357 1.86802V6.51977H12.641V3.73605H32.5807L28.0661 7.69188H12.641H8.80357H1.91872C0.865306 7.69188 0 8.53428 0 9.55989V35.7122C0 36.7378 0.865306 37.5802 1.91872 37.5802H28.7809C29.27 37.5802 29.7214 37.3971 30.06 37.1041L38.8636 29.4122C39.4656 28.8994 39.6537 28.057 39.3903 27.361C39.0894 26.6285 38.3745 26.1523 37.5845 26.1523Z" fill="#FE4350"/>
<path d="M57.7683 8.41968C61.9697 8.41968 66.5212 10.6519 67.3211 15.893C65.5704 15.893 63.9705 15.893 62.2198 15.893C61.4695 13.9033 59.9689 12.9813 57.7683 12.9813C54.718 12.9813 52.7172 15.2136 52.7172 18.4649C52.7172 21.3766 54.6677 23.9001 57.7683 23.9486C59.9689 23.9486 61.7699 22.8809 62.3197 20.7457C64.0704 20.7457 65.6709 20.7457 67.4211 20.7457C66.6708 26.3265 62.1199 28.5102 57.7683 28.5102C52.6172 28.5588 47.3657 25.1618 47.3657 18.4649C47.3657 11.7681 52.567 8.41968 57.7683 8.41968Z" fill="white"/>
<path d="M68.9731 18.5127C68.9731 4.87632 89.8284 4.87632 89.8284 18.5127C89.7788 32.1975 68.9731 32.1975 68.9731 18.5127ZM84.477 18.5127C84.477 11.4275 74.2743 11.4275 74.2743 18.5127C74.2743 25.6948 84.477 25.6948 84.477 18.5127Z" fill="white"/>
<path d="M109.935 8.56519H111.785V28.3646C110.035 28.3646 108.234 28.3646 106.484 28.3646V19.5811L102.183 23.9971H101.583L97.2812 19.5811V28.3646C95.5305 28.3646 93.7301 28.3646 91.98 28.3646V8.56519H93.8803L101.833 17.1061L109.935 8.56519Z" fill="white"/>
<path d="M122.837 28.3651H115.185V8.61426H122.837C136.091 8.71133 136.091 28.3166 122.837 28.3651ZM120.386 23.755H122.837C129.289 23.755 129.289 13.2245 122.837 13.2245H120.386V23.755Z" fill="white"/>
<path d="M147.693 13.1274C144.693 13.1274 143.142 13.1274 140.192 13.1274V15.942H147.093C147.093 17.4464 147.093 18.9507 147.093 20.4066H140.141C140.141 21.5712 140.141 22.6874 140.141 23.852C143.142 23.852 144.893 23.852 147.944 23.852C147.944 25.3079 147.944 26.8608 147.944 28.3166C143.192 28.3166 139.691 28.3166 134.99 28.3166C134.99 21.7168 134.99 15.117 134.99 8.61426C139.691 8.61426 142.892 8.61426 147.693 8.61426C147.693 10.1186 147.693 11.623 147.693 13.1274Z" fill="white"/>
<path d="M159.497 22.1536L155.596 28.3651H150.145V27.5887L156.697 17.8831L150.845 9.39071V8.61426H156.147L159.448 13.7582H159.597L162.998 8.61426H168.2V9.39071L162.398 17.8831L169 27.5887V28.3651H163.549L159.648 22.1536H159.497Z" fill="white"/>
</svg>
