<svg width="286" height="75" viewBox="0 0 286 75" fill="none" xmlns="http://www.w3.org/2000/svg">
<path d="M4.61328 26.0841L6.23777 10.6645C6.44629 8.68519 7.37989 6.85283 8.85902 5.51984L8.85902 5.51984C9.59931 4.85269 10.7831 5.3404 10.8376 6.335L11.9196 26.0841H4.61328Z" fill="white"/>
<g opacity="0.35">
<path d="M10.79 5.46737C10.7215 4.21675 8.85902 4.26765 8.85902 5.52014V5.52018C8.75159 5.61698 8.64795 5.71716 8.54635 5.8191L9.16028 17.0241C9.28724 19.3413 7.44097 21.2897 5.11842 21.2897H5.11841L4.61328 26.0844H11.9197L10.79 5.46737Z" fill="#1F1E1C"/>
</g>
<path d="M11.9196 27.0938H4.61326C4.32698 27.0938 4.05392 26.9724 3.86246 26.7598C3.67076 26.5471 3.5785 26.2632 3.60864 25.9787L5.23333 10.5591C5.46814 8.32873 6.51542 6.273 8.18253 4.77058C8.81673 4.19921 9.70152 4.04623 10.4906 4.37141C11.2801 4.6967 11.7995 5.42799 11.8464 6.28018L12.9284 26.0293C12.9435 26.306 12.844 26.577 12.6533 26.7784C12.4625 26.9798 12.1971 27.0938 11.9196 27.0938ZM5.73541 25.0749H10.8526L9.82877 6.39043C9.82738 6.3631 9.82275 6.27995 9.72029 6.2378C9.61807 6.19565 9.55618 6.25135 9.53578 6.26964C8.23955 7.43786 7.42524 9.03617 7.24257 10.7704L5.73541 25.0749Z" fill="#1F1E1C"/>
<path d="M13.3538 50.6873C11.996 50.8934 10.6577 50.9699 9.409 50.9674C5.3602 50.9591 2.02506 47.8086 1.69713 43.7765C1.23686 38.1173 1.40382 33.3188 1.69694 29.8817C2.00807 26.2333 4.82199 23.296 8.45566 22.8206C9.51256 22.6823 10.489 22.5934 11.3075 22.5363C12.6517 22.4425 13.8165 23.4549 13.9147 24.7976L15.6027 47.8694C15.7037 49.2507 14.7242 50.4792 13.3538 50.6873Z" fill="white"/>
<g opacity="0.35">
<path d="M15.6024 47.8707L15.1035 41.0508C15.0792 42.3294 14.1368 43.4271 12.8484 43.6227C11.4906 43.8289 10.1524 43.9053 8.90362 43.9028C5.31959 43.8955 2.29658 41.4252 1.42188 38.0615C1.44894 39.8424 1.53227 41.7538 1.69689 43.7778C2.02482 47.8099 5.35994 50.9604 9.40875 50.9687C10.6575 50.9712 11.9957 50.8948 13.3535 50.6886C14.7239 50.4805 15.7035 49.252 15.6024 47.8707Z" fill="#1F1E1C"/>
</g>
<path d="M9.46841 51.977H9.40676C4.8885 51.9677 1.05961 48.4017 0.690125 43.8584C0.301859 39.0841 0.301859 34.3529 0.690125 29.7962C1.03875 25.7075 4.24943 22.3531 8.32448 21.8199C9.27231 21.6959 10.2524 21.5983 11.2373 21.5295C13.1316 21.4011 14.7836 22.8304 14.9222 24.7241L16.6102 47.7961C16.7488 49.6916 15.3851 51.4001 13.5052 51.6854C12.2312 51.8789 10.8731 51.977 9.46841 51.977ZM11.4781 23.5399C11.445 23.5399 11.4116 23.5411 11.378 23.5434C10.4334 23.6093 9.49438 23.7029 8.58688 23.8217C5.44644 24.2326 2.97197 26.8173 2.70355 29.9676C2.32455 34.4132 2.32478 39.0318 2.70401 43.6949C2.98912 47.1999 5.93508 49.951 9.41093 49.9581C9.42994 49.9582 9.44941 49.9582 9.46865 49.9582C10.7721 49.9582 12.0277 49.8679 13.2018 49.6894C14.0453 49.5615 14.6573 48.7944 14.5949 47.9433L12.9069 24.8713C12.8518 24.118 12.221 23.5399 11.4781 23.5399Z" fill="#1F1E1C"/>
<path d="M90.2227 27.2843L88.5982 11.8647C88.3896 9.88538 87.456 8.05302 85.9769 6.72004L85.9769 6.72003C85.2366 6.05288 84.0529 6.5406 83.9984 7.5352L82.9163 27.2843H90.2227Z" fill="white"/>
<g opacity="0.35">
<path d="M84.0459 6.66756C84.1144 5.41695 85.9769 5.46785 85.9769 6.72034V6.72037C86.0844 6.81718 86.188 6.91735 86.2896 7.0193L85.6757 18.2243C85.5487 20.5415 87.395 22.4899 89.7175 22.4899H89.7175L90.2227 27.2846H82.9163L84.0459 6.66756Z" fill="#1F1E1C"/>
</g>
<path d="M82.9163 28.294H90.2227C90.509 28.294 90.782 28.1726 90.9735 27.9599C91.1652 27.7473 91.2574 27.4634 91.2273 27.1789L89.6026 11.7593C89.3678 9.52893 88.3205 7.4732 86.6534 5.97077C86.0192 5.39941 85.1344 5.24643 84.3454 5.5716C83.5559 5.89689 83.0364 6.62819 82.9896 7.48038L81.9075 27.2295C81.8925 27.5062 81.9919 27.7772 82.1827 27.9786C82.3734 28.18 82.6389 28.294 82.9163 28.294ZM89.1005 26.2751H83.9833L85.0072 7.59062C85.0086 7.56329 85.0132 7.48014 85.1156 7.438C85.2179 7.39584 85.2798 7.45154 85.3002 7.46984C86.5964 8.63805 87.4107 10.2364 87.5934 11.9706L89.1005 26.2751Z" fill="#1F1E1C"/>
<path d="M81.4822 51.8875C82.84 52.0936 84.1782 52.1701 85.4269 52.1675C89.4757 52.1593 92.8109 49.0088 93.1388 44.9767C93.5991 39.3175 93.4321 34.519 93.139 31.0819C92.8279 27.4335 90.0139 24.4962 86.3803 24.0208C85.3234 23.8825 84.347 23.7936 83.5284 23.7365C82.1843 23.6427 81.0194 24.6551 80.9212 25.9978L79.2333 49.0696C79.1322 50.4508 80.1117 51.6794 81.4822 51.8875Z" fill="white"/>
<g opacity="0.35">
<path d="M79.2335 49.0699L79.7325 42.2501C79.7567 43.5286 80.6991 44.6263 81.9875 44.8219C83.3454 45.0281 84.6836 45.1046 85.9323 45.102C89.5164 45.0947 92.5394 42.6244 93.4141 39.2607C93.387 41.0416 93.3037 42.9531 93.1391 44.977C92.8111 49.0091 89.476 52.1596 85.4272 52.1679C84.1784 52.1704 82.8402 52.094 81.4824 51.8878C80.112 51.6798 79.1324 50.4512 79.2335 49.0699Z" fill="#1F1E1C"/>
</g>
<path d="M85.3675 53.1772H85.4292C89.9474 53.1679 93.7763 49.6019 94.1458 45.0586C94.5341 40.2843 94.5341 35.5531 94.1458 30.9964C93.7972 26.9077 90.5865 23.5533 86.5115 23.0201C85.5636 22.8961 84.5836 22.7985 83.5987 22.7297C81.7044 22.6013 80.0523 24.0306 79.9137 25.9243L78.2257 48.9963C78.0871 50.8918 79.4508 52.6003 81.3307 52.8856C82.6047 53.0791 83.9628 53.1772 85.3675 53.1772ZM83.3578 24.7401C83.391 24.7401 83.4243 24.7413 83.4579 24.7436C84.4025 24.8095 85.3416 24.9031 86.2491 25.0219C89.3895 25.4328 91.864 28.0175 92.1324 31.1678C92.5114 35.6134 92.5112 40.232 92.1319 44.8951C91.8468 48.4001 88.9009 51.1512 85.425 51.1583C85.406 51.1584 85.3865 51.1584 85.3673 51.1584C84.0639 51.1584 82.8082 51.0681 81.6341 50.8896C80.7906 50.7617 80.1787 49.9946 80.241 49.1434L81.929 26.0715C81.9842 25.3182 82.6149 24.7401 83.3578 24.7401Z" fill="#1F1E1C"/>
<path d="M45.3334 15.0466L45.3338 15.0466C45.9625 15.0462 46.2518 15.0456 46.4603 15.0452C46.8948 15.0443 46.978 15.0442 49.0515 15.0472L45.3334 15.0466ZM45.3334 15.0466C43.5462 15.0484 36.7681 15.6332 33.8622 16.0262C27.3483 16.9072 20.7787 19.0217 16.5366 21.6944C16.5366 21.6944 16.5366 21.6944 16.5366 21.6944L16.4757 21.7328C15.5851 22.2938 14.85 22.7569 14.2719 23.1746C13.6695 23.6098 13.1419 24.0617 12.7163 24.6341C11.9292 25.6924 11.6712 26.9658 11.3541 28.5307C11.3349 28.6254 11.3154 28.7212 11.2957 28.818C10.3531 33.4385 9.90833 38.3973 10.1423 42.025L10.1423 42.025M45.3334 15.0466L10.1423 42.025M10.1423 42.025C10.355 45.3235 11.1399 49.4153 12.0354 51.4322M10.1423 42.025L12.0354 51.4322M83.2369 29.0357L83.2369 29.0358C84.0967 33.3781 84.4426 37.7992 84.2904 41.7509C84.1395 45.6709 83.4937 49.263 82.2709 51.8688L83.2369 29.0357ZM83.2369 29.0357C83.079 28.2387 82.9033 27.4516 82.7457 26.8203C82.6672 26.5059 82.5902 26.2181 82.5195 25.9816C82.4661 25.803 82.3716 25.4936 82.2406 25.2499M83.2369 29.0357L75.4513 20.2948M75.4513 20.2948L75.4515 20.2948C76.7932 20.9616 78.2694 21.8632 79.4722 22.7063C80.0743 23.1284 80.6309 23.552 81.0797 23.9398C81.4635 24.2714 81.9667 24.7404 82.2406 25.2499M75.4513 20.2948C69.8741 17.5236 63.0615 15.9998 53.7783 15.3306C51.6919 15.1801 49.543 15.0479 49.0517 15.0472L75.4513 20.2948ZM82.2406 25.2499L80.7629 26.0441L82.2405 25.2498C82.2405 25.2498 82.2405 25.2499 82.2406 25.2499ZM12.0354 51.4322C12.3037 52.0365 12.5717 52.7774 12.6355 53.0316M12.0354 51.4322L12.6355 53.0316M12.6355 53.0316C12.7089 53.3233 12.8525 53.626 12.9521 53.8265M12.6355 53.0316L12.9521 53.8265M12.9521 53.8265C13.0725 54.0689 13.2237 54.3461 13.391 54.637M12.9521 53.8265L13.391 54.637M13.391 54.637C13.7267 55.2205 14.1568 55.91 14.6049 56.5737M13.391 54.637L14.6049 56.5737M14.6049 56.5737C19.4961 63.8179 26.9736 68.1844 37.6408 70.3555M14.6049 56.5737L37.6408 70.3555M37.6408 70.3555C43.6728 71.5834 47.7197 71.7914 52.9667 71.1063M37.6408 70.3555L52.9667 71.1063M52.9667 71.1063C58.3132 70.4082 63.4867 68.8532 67.8842 66.7248M52.9667 71.1063L67.8842 66.7248M67.8842 66.7248C72.2617 64.6061 75.9777 61.8663 78.2893 58.7304M67.8842 66.7248L78.2893 58.7304M78.2893 58.7304C78.6879 58.1896 79.0663 57.6853 79.3538 57.3097M78.2893 58.7304L79.3538 57.3097M79.3538 57.3097C79.4982 57.121 79.6154 56.9704 79.6988 56.8659M79.3538 57.3097L79.6988 56.8659M79.6988 56.8659C79.7206 56.8386 79.7385 56.8165 79.7528 56.799M79.6988 56.8659L79.7528 56.799M79.7528 56.799C79.7594 56.7909 79.7653 56.7837 79.7704 56.7776M79.7528 56.799L79.7704 56.7776M79.7704 56.7776C79.9315 56.6145 80.0481 56.443 80.0907 56.3804L80.0971 56.371C80.1851 56.2422 80.2787 56.0927 80.3699 55.9415C80.554 55.6358 80.7648 55.2614 80.9621 54.8946C81.1593 54.5283 81.3538 54.1498 81.5031 53.8356C81.5765 53.6811 81.6484 53.5222 81.7056 53.379C81.7336 53.3089 81.7672 53.2199 81.7964 53.1244L81.798 53.1191C81.8088 53.0839 81.8403 52.9816 81.8622 52.8419C81.8768 52.7991 81.8993 52.7366 81.9313 52.6545C82.0142 52.4408 82.1348 52.1587 82.2708 51.8689L79.7704 56.7776ZM79.8014 56.7415C79.8008 56.7423 79.7953 56.7489 79.7856 56.7594C79.7971 56.7459 79.802 56.7406 79.8014 56.7415Z" fill="white" stroke="#1F1E1C" stroke-width="3.35504"/>
<path fill-rule="evenodd" clip-rule="evenodd" d="M16.6241 29.8535C16.6241 29.8535 16.4469 39.8172 16.8991 42.405C17.863 47.9232 19.7443 52.03 22.9678 55.6537C26.7516 59.9075 33.2714 63.1114 41.1748 64.6009C45.8047 65.4734 51.5922 65.2822 55.8512 64.1157C67.9484 60.8024 74.4659 54.7525 77.0102 44.4737C77.542 42.326 77.9415 40.6193 77.9421 35.9214C77.9421 28.6802 77.1611 24.4934 75.9955 20.6133C64.5082 17.453 44.85 11.1299 18.0295 21.6971C16.5068 23.5069 16.6241 29.8535 16.6241 29.8535Z" fill="#1F1E1C"/>
<rect x="66.7505" y="46.9604" width="13.6417" height="17.5079" rx="6.71007" transform="rotate(180 66.7505 46.9604)" fill="white"/>
<rect x="41.46" y="46.9604" width="13.6417" height="17.5079" rx="6.71007" transform="rotate(180 41.46 46.9604)" fill="white"/>
<path d="M19.7554 23.8929C27.9948 18.5548 54.5266 12.4053 75.0841 23.8929C58.673 19.2084 44.5651 17.9531 19.7554 23.8929Z" fill="#767676" fill-opacity="0.76"/>
<path d="M74.8502 50.5976C59.3769 74.9585 24.9136 64.184 19.7559 50.5974C31.6885 57.7538 40.2938 60.6874 48.8269 59.7432C56.8125 59.7648 64.3583 56.7707 74.8502 50.5976Z" fill="#262626"/>
<path fill-rule="evenodd" clip-rule="evenodd" d="M12.0296 39.2026C12.0343 39.7751 12.0531 40.3224 12.0864 40.8389C12.2939 44.0555 13.0601 47.9196 13.8387 49.6733C14.1221 50.3117 14.4344 51.1537 14.5326 51.5445C14.6308 51.9353 15.4105 53.2908 16.2653 54.5568C20.8446 61.339 27.8776 65.5233 38.2455 67.6335C44.1283 68.8311 47.9864 69.0219 53.0196 68.3647C63.3696 67.0133 73.017 62.344 77.2091 56.6569C78.0155 55.5629 78.7476 54.6063 78.8362 54.531C79.0981 54.3081 80.4776 51.745 80.4776 51.4812C80.4776 51.3479 80.7227 50.7167 81.0223 50.0781C82.1015 47.7784 82.7278 44.4731 82.8808 40.6951C82.8962 45.3083 82.2534 49.3978 80.9856 52.0993C80.686 52.7379 80.4409 53.3691 80.4409 53.5025C80.4409 53.7662 79.0614 56.3293 78.7994 56.5522C78.7109 56.6275 77.9787 57.5841 77.1723 58.6781C72.9802 64.3652 63.3329 69.0345 52.9829 70.3859C47.9497 71.0431 44.0916 70.8523 38.2088 69.6548C27.8409 67.5445 20.8078 63.3602 16.2286 56.578C15.3738 55.312 14.5941 53.9565 14.4959 53.5657C14.3976 53.1749 14.0854 52.3329 13.802 51.6946C13.0234 49.9409 12.2571 46.0767 12.0497 42.8601C11.9789 41.7622 11.9738 40.5252 12.0296 39.2026Z" fill="#B1B0B0"/>
<path d="M151.368 38.1257C151.368 39.8857 151.137 41.5834 150.675 43.2189C150.23 44.8366 149.59 46.3566 148.755 47.7787C147.919 49.1831 146.924 50.472 145.768 51.6453C144.613 52.8008 143.324 53.7963 141.902 54.6319C140.48 55.4674 138.951 56.1163 137.315 56.5785C135.697 57.0229 134.009 57.2451 132.249 57.2451H120.729V19.0063H132.249C134.009 19.0063 135.697 19.2374 137.315 19.6996C138.951 20.1441 140.48 20.784 141.902 21.6196C143.324 22.4551 144.613 23.4595 145.768 24.6328C146.924 25.7883 147.919 27.0772 148.755 28.4993C149.59 29.9037 150.23 31.4237 150.675 33.0592C151.137 34.6769 151.368 36.3658 151.368 38.1257ZM143.715 38.1257C143.715 36.5435 143.413 35.0591 142.808 33.6725C142.222 32.2859 141.404 31.077 140.355 30.046C139.324 28.9971 138.106 28.1705 136.702 27.566C135.315 26.9616 133.831 26.6594 132.249 26.6594H128.435V49.592H132.249C133.831 49.592 135.315 49.2987 136.702 48.7121C138.106 48.1076 139.324 47.2899 140.355 46.2588C141.404 45.2099 142.222 43.9922 142.808 42.6056C143.413 41.2012 143.715 39.7079 143.715 38.1257ZM167.048 50.2587C167.332 50.3476 167.616 50.4098 167.901 50.4453C168.185 50.4631 168.47 50.472 168.754 50.472C169.465 50.472 170.15 50.3742 170.807 50.1787C171.465 49.9831 172.079 49.7076 172.647 49.352C173.234 48.9787 173.75 48.5343 174.194 48.0187C174.656 47.4854 175.03 46.8988 175.314 46.2588L180.647 51.6186C179.972 52.5786 179.189 53.4408 178.301 54.2052C177.429 54.9696 176.478 55.6185 175.447 56.1518C174.434 56.6851 173.358 57.0851 172.221 57.3518C171.101 57.6362 169.945 57.7784 168.754 57.7784C166.745 57.7784 164.852 57.4051 163.074 56.6585C161.314 55.9118 159.768 54.8719 158.435 53.5386C157.119 52.2053 156.079 50.6231 155.315 48.792C154.55 46.9432 154.168 44.9166 154.168 42.7122C154.168 40.4545 154.55 38.3924 155.315 36.5258C156.079 34.6592 157.119 33.0681 158.435 31.7526C159.768 30.4371 161.314 29.4149 163.074 28.686C164.852 27.9571 166.745 27.5927 168.754 27.5927C169.945 27.5927 171.11 27.7349 172.247 28.0194C173.385 28.3038 174.461 28.7127 175.474 29.246C176.505 29.7793 177.465 30.4371 178.354 31.2193C179.243 31.9837 180.025 32.8459 180.7 33.8059L167.048 50.2587ZM170.781 35.2458C170.443 35.1214 170.105 35.0414 169.767 35.0058C169.448 34.9703 169.11 34.9525 168.754 34.9525C167.759 34.9525 166.816 35.1391 165.928 35.5125C165.057 35.868 164.292 36.3835 163.634 37.0591C162.994 37.7346 162.488 38.5524 162.114 39.5123C161.741 40.4545 161.554 41.5212 161.554 42.7122C161.554 42.9789 161.563 43.2811 161.581 43.6189C161.617 43.9566 161.661 44.3033 161.714 44.6588C161.786 44.9966 161.866 45.3255 161.954 45.6455C162.043 45.9655 162.159 46.2499 162.301 46.4988L170.781 35.2458ZM210.406 57.2451H201.5L195.82 48.4987L190.087 57.2451H181.18L191.607 42.6056L181.18 28.526H190.087L195.82 36.7124L201.5 28.526H210.406L199.953 42.6056L210.406 57.2451ZM227.339 57.2451C225.579 57.2451 223.926 56.9162 222.379 56.2585C220.833 55.5829 219.473 54.6674 218.299 53.5119C217.144 52.3386 216.228 50.9786 215.553 49.432C214.895 47.8854 214.566 46.2321 214.566 44.4722V35.9924H211.02V28.7393H214.566V17.3264H221.819V28.7393H232.859V35.9924H221.819V44.4722C221.819 45.2366 221.961 45.9566 222.246 46.6321C222.53 47.2899 222.921 47.8676 223.419 48.3654C223.917 48.8632 224.504 49.2631 225.179 49.5654C225.855 49.8498 226.575 49.992 227.339 49.992H232.859V57.2451H227.339ZM248.325 50.2587C248.609 50.3476 248.894 50.4098 249.178 50.4453C249.463 50.4631 249.747 50.472 250.032 50.472C250.743 50.472 251.427 50.3742 252.085 50.1787C252.743 49.9831 253.356 49.7076 253.925 49.352C254.512 48.9787 255.027 48.5343 255.471 48.0187C255.934 47.4854 256.307 46.8988 256.591 46.2588L261.925 51.6186C261.249 52.5786 260.467 53.4408 259.578 54.2052C258.707 54.9696 257.756 55.6185 256.725 56.1518C255.711 56.6851 254.636 57.0851 253.498 57.3518C252.378 57.6362 251.223 57.7784 250.032 57.7784C248.023 57.7784 246.13 57.4051 244.352 56.6585C242.592 55.9118 241.045 54.8719 239.712 53.5386C238.396 52.2053 237.356 50.6231 236.592 48.792C235.828 46.9432 235.445 44.9166 235.445 42.7122C235.445 40.4545 235.828 38.3924 236.592 36.5258C237.356 34.6592 238.396 33.0681 239.712 31.7526C241.045 30.4371 242.592 29.4149 244.352 28.686C246.13 27.9571 248.023 27.5927 250.032 27.5927C251.223 27.5927 252.387 27.7349 253.525 28.0194C254.663 28.3038 255.738 28.7127 256.751 29.246C257.783 29.7793 258.742 30.4371 259.631 31.2193C260.52 31.9837 261.302 32.8459 261.978 33.8059L248.325 50.2587ZM252.058 35.2458C251.72 35.1214 251.383 35.0414 251.045 35.0058C250.725 34.9703 250.387 34.9525 250.032 34.9525C249.036 34.9525 248.094 35.1391 247.205 35.5125C246.334 35.868 245.57 36.3835 244.912 37.0591C244.272 37.7346 243.765 38.5524 243.392 39.5123C243.019 40.4545 242.832 41.5212 242.832 42.7122C242.832 42.9789 242.841 43.2811 242.859 43.6189C242.894 43.9566 242.939 44.3033 242.992 44.6588C243.063 44.9966 243.143 45.3255 243.232 45.6455C243.321 45.9655 243.436 46.2499 243.579 46.4988L252.058 35.2458ZM272.938 57.2451H265.658V28.686H267.418L269.818 32.0726C270.991 31.0059 272.324 30.1882 273.818 29.6193C275.311 29.0327 276.857 28.7393 278.457 28.7393H284.884V35.9924H278.457C277.693 35.9924 276.973 36.1347 276.297 36.4191C275.622 36.7035 275.035 37.0946 274.538 37.5924C274.04 38.0902 273.649 38.6768 273.364 39.3523C273.08 40.0279 272.938 40.7479 272.938 41.5123V57.2451Z" fill="white"/>
</svg>
