<svg width="33" height="24" viewBox="0 0 33 24" fill="none" xmlns="http://www.w3.org/2000/svg">
<path d="M1.44531 7.51428L2.003 2.21903C2.07458 1.53933 2.39509 0.91009 2.90287 0.45233C3.15702 0.22323 3.56342 0.39071 3.58212 0.73226L3.95362 7.51428H1.44531Z" fill="white"/>
<g opacity="0.35">
<path d="M3.56582 0.43427C3.54222 0.00480038 2.90287 0.0222802 2.90287 0.45239C2.86599 0.48563 2.83041 0.52005 2.79553 0.55506L3.0063 4.40294C3.04988 5.19866 2.41606 5.86778 1.61872 5.86778L1.44531 7.51428H3.95362L3.56582 0.43427Z" fill="#1F1E1C"/>
</g>
<path d="M3.95272 7.86088H1.44447C1.34619 7.86088 1.25245 7.81908 1.18672 7.74608C1.12091 7.67308 1.08923 7.57558 1.09958 7.47788L1.65734 2.18268C1.73795 1.41676 2.09748 0.710812 2.6698 0.194872C2.88752 -0.00134775 3.19127 -0.0538779 3.46212 0.0577921C3.73322 0.169492 3.91152 0.420632 3.92762 0.713272L4.29902 7.49528C4.30422 7.59028 4.27012 7.68338 4.20462 7.75248C4.13912 7.82168 4.04802 7.86088 3.95272 7.86088ZM1.8297 7.16748H3.58642L3.23492 0.751132C3.23452 0.741752 3.23292 0.713202 3.19771 0.698722C3.16262 0.684252 3.14137 0.703372 3.13437 0.709662C2.68937 1.11083 2.40982 1.6597 2.34711 2.25526L1.8297 7.16748Z" fill="#1F1E1C"/>
<path d="M4.44752 15.9633C3.98142 16.0341 3.52202 16.0603 3.09332 16.0595C1.70337 16.0566 0.558421 14.9747 0.445841 13.5901C0.287831 11.6467 0.345141 9.99878 0.445771 8.81848C0.552581 7.56558 1.5186 6.55688 2.76604 6.39368C3.12887 6.34618 3.46412 6.31568 3.74512 6.29598C4.20652 6.26378 4.60642 6.61148 4.64012 7.07258L5.21962 14.9956C5.25432 15.4699 4.91802 15.8918 4.44752 15.9633Z" fill="white"/>
<g opacity="0.35">
<path d="M5.21972 14.9955L5.04842 12.6535C5.04012 13.0926 4.71662 13.4695 4.27432 13.5367C3.80812 13.6075 3.34872 13.6338 2.92004 13.6329C1.68965 13.6304 0.651852 12.7821 0.351562 11.627C0.360853 12.2385 0.389462 12.8949 0.445972 13.59C0.558552 14.9746 1.7035 16.0565 3.09345 16.0594C3.52212 16.0603 3.98152 16.034 4.44772 15.9632C4.91812 15.8918 5.25442 15.4699 5.21972 14.9955Z" fill="#1F1E1C"/>
</g>
<path d="M3.11355 16.4062H3.09239C1.54127 16.403 0.226807 15.1784 0.0999675 13.6182C-0.0333225 11.9787 -0.0333225 10.3539 0.0999675 8.78908C0.219647 7.38498 1.32187 6.23308 2.72084 6.04998C3.04623 6.00738 3.38272 5.97388 3.72082 5.95028C4.37112 5.90618 4.93822 6.39698 4.98582 7.04728L5.56532 14.9704C5.61292 15.6214 5.14472 16.208 4.49942 16.306C4.06202 16.3725 3.59582 16.4062 3.11355 16.4062ZM3.80352 6.64068C3.79212 6.64068 3.78062 6.64108 3.76912 6.64188C3.44482 6.66448 3.12247 6.69658 2.81092 6.73738C1.73281 6.87848 0.883318 7.76608 0.791168 8.84798C0.661068 10.3746 0.661147 11.9607 0.791327 13.562C0.889207 14.7657 1.90056 15.7104 3.09382 15.7129C3.10035 15.7129 3.10703 15.7129 3.11363 15.7129C3.56112 15.7129 3.99212 15.6819 4.39522 15.6206C4.68482 15.5767 4.89492 15.3132 4.87352 15.021L4.29402 7.09788C4.27502 6.83918 4.05852 6.64068 3.80352 6.64068Z" fill="#1F1E1C"/>
<path d="M30.8359 7.92658L30.2782 2.63139C30.2066 1.95169 29.8861 1.32244 29.3784 0.864693C29.1242 0.635593 28.7178 0.803064 28.6991 1.14462L28.3276 7.92658H30.8359Z" fill="white"/>
<g opacity="0.35">
<path d="M28.7154 0.846622C28.739 0.417152 29.3784 0.434633 29.3784 0.864753C29.4152 0.897993 29.4508 0.932403 29.4857 0.967413L29.2749 4.8153C29.2313 5.61098 29.8652 6.28018 30.6625 6.28018L30.8359 7.92668H28.3276L28.7154 0.846622Z" fill="#1F1E1C"/>
</g>
<path d="M28.3285 8.27318H30.8368C30.935 8.27318 31.0288 8.23148 31.0945 8.15848C31.1603 8.08548 31.192 7.98798 31.1816 7.89018L30.6239 2.59504C30.5433 1.82912 30.1837 1.12316 29.6114 0.607223C29.3937 0.411013 29.09 0.358473 28.8191 0.470143C28.548 0.581853 28.3697 0.832983 28.3536 1.12563L27.9822 7.90758C27.977 8.00268 28.0111 8.09568 28.0766 8.16488C28.1421 8.23398 28.2332 8.27318 28.3285 8.27318ZM30.4515 7.57988H28.6948L29.0463 1.16349C29.0467 1.1541 29.0483 1.12555 29.0835 1.11107C29.1186 1.0966 29.1399 1.11573 29.1469 1.12201C29.5919 1.52318 29.8714 2.07205 29.9341 2.66761L30.4515 7.57988Z" fill="#1F1E1C"/>
<path d="M27.8357 16.3756C28.3019 16.4464 28.7613 16.4727 29.19 16.4718C30.5799 16.469 31.7249 15.3871 31.8374 14.0024C31.9955 12.059 31.9381 10.4112 31.8375 9.23088C31.7307 7.97798 30.7647 6.96928 29.5172 6.80598C29.1544 6.75848 28.8192 6.72798 28.5382 6.70838C28.0768 6.67618 27.6769 7.02378 27.6431 7.48488L27.0637 15.4079C27.029 15.8823 27.3653 16.3042 27.8357 16.3756Z" fill="white"/>
<g opacity="0.35">
<path d="M27.0635 15.4079L27.2348 13.0659C27.2431 13.5049 27.5667 13.8819 28.009 13.9491C28.4751 14.0199 28.9345 14.0461 29.3632 14.0453C30.5936 14.0428 31.6314 13.1944 31.9317 12.0393C31.9224 12.6509 31.8938 13.3073 31.8373 14.0023C31.7247 15.387 30.5798 16.4689 29.1898 16.4717C28.7611 16.4726 28.3017 16.4463 27.8356 16.3756C27.3651 16.3041 27.0288 15.8822 27.0635 15.4079Z" fill="#1F1E1C"/>
</g>
<path d="M29.1696 16.8185H29.1908C30.7419 16.8153 32.0564 15.5907 32.1832 14.0306C32.3165 12.391 32.3165 10.7663 32.1832 9.20149C32.0635 7.79739 30.9613 6.64549 29.5623 6.46239C29.2369 6.41979 28.9005 6.38629 28.5624 6.36259C27.9121 6.31849 27.3449 6.80939 27.2973 7.45969L26.7179 15.3828C26.6703 16.0337 27.1384 16.6204 27.7838 16.7184C28.2211 16.7848 28.6874 16.8185 29.1696 16.8185ZM28.4797 7.05299C28.4911 7.05299 28.5025 7.05339 28.5141 7.05419C28.8383 7.07689 29.1607 7.10899 29.4723 7.14979C30.5504 7.29089 31.3999 8.17849 31.492 9.26029C31.6221 10.787 31.622 12.373 31.4918 13.9744C31.394 15.178 30.3826 16.1228 29.1894 16.1252C29.1828 16.1253 29.1762 16.1253 29.1695 16.1253C28.7221 16.1253 28.291 16.0942 27.888 16.033C27.5984 15.989 27.3883 15.7256 27.4097 15.4333L27.9892 7.51019C28.0081 7.25159 28.2246 7.05299 28.4797 7.05299Z" fill="#1F1E1C"/>
<path fill-rule="evenodd" clip-rule="evenodd" d="M14.9122 3.26418C14.8397 3.27039 14.5033 3.29584 14.1648 3.3207C13.4378 3.37409 12.2043 3.49091 11.6878 3.55528C9.24103 3.86022 6.89613 4.61853 5.27403 5.62948C4.60143 6.04868 4.36863 6.21918 4.11033 6.48158C3.69833 6.90018 3.53873 7.26618 3.33773 8.25368C2.76581 11.0637 2.75523 13.297 3.30363 15.4446C3.36673 15.6915 3.47983 16.0491 3.55493 16.2394C3.63013 16.4297 3.72953 16.6958 3.77583 16.8308C3.88903 17.1607 4.09933 17.5477 4.46193 18.0935C5.06793 19.0058 5.66663 19.6784 6.48473 20.3659C8.18583 21.7954 10.5776 22.776 13.5785 23.2742C15.4678 23.5878 16.8789 23.5886 18.7387 23.2772C20.4147 22.9965 21.9127 22.5234 23.3691 21.8149C24.5247 21.2528 25.3468 20.7119 26.1515 19.9845C26.5728 19.6036 26.9273 19.1839 27.6918 18.1609C27.8535 17.9446 28.2387 17.2297 28.3255 16.9849C28.3691 16.8618 28.464 16.6228 28.5362 16.4539C29.002 15.3653 29.2057 14.2342 29.2377 12.5585C29.2671 11.0219 29.1169 9.50788 28.7886 8.03408C28.5438 6.93458 28.4162 6.72768 27.6094 6.12238C26.4796 5.27458 25.0784 4.60816 23.4738 4.1555C21.5388 3.60963 18.8524 3.27842 16.2167 3.26076C15.5718 3.25642 14.9848 3.25798 14.9122 3.26418Z" fill="#1F1E1C"/>
<path d="M18.2939 4.3922C17.5645 4.33967 16.8505 4.29646 16.7073 4.29628C15.6517 4.29475 16.0972 4.2956 15.4286 4.29609C14.8509 4.29665 12.5466 4.49387 11.5563 4.62764C9.36753 4.92324 7.19193 5.63078 5.82203 6.49258C4.53223 7.30398 4.53483 7.30058 4.27573 8.56888C3.95823 10.1229 3.81273 11.7745 3.88913 12.9566C3.96053 14.0624 4.22433 15.3908 4.49233 15.9936C4.58993 16.2131 4.69743 16.5026 4.73123 16.6369C4.76503 16.7712 5.03353 17.2372 5.32783 17.6724C6.90433 20.0039 9.32553 21.4424 12.8949 22.1678C14.9202 22.5795 16.2484 22.6451 17.9812 22.4191C21.5444 21.9546 24.8657 20.3494 26.3089 18.3944C26.5865 18.0183 26.8386 17.6894 26.8691 17.6636C26.9593 17.5869 27.4446 16.7615 27.4446 16.6709C27.4446 16.625 27.5186 16.3523 27.6217 16.1328C28.3705 14.5396 28.486 11.5422 27.9106 8.64048C27.8051 8.10858 27.6768 7.59538 27.6254 7.49998C27.4733 7.21738 26.4037 6.46868 25.5398 6.03998C23.7137 5.13401 21.4518 4.61955 18.2939 4.3922Z" fill="white"/>
<path d="M5.77233 13.0678C5.61693 12.17 5.67773 8.71298 5.67773 8.71298C5.67773 8.71298 5.63843 7.21028 5.90193 6.32638C5.91513 6.31798 5.96373 6.29168 5.97713 6.28318C7.34473 5.41328 9.49463 4.79063 11.6797 4.49229C12.6684 4.35728 14.9689 4.15824 15.5456 4.15767C15.7622 4.15751 15.8617 4.15731 15.9332 4.15717C16.0822 4.15687 16.1103 4.15682 16.8222 4.15786C16.9651 4.15805 17.6779 4.20166 18.406 4.25467C21.5587 4.48412 23.8169 5.00335 25.6399 5.91778C25.8512 6.02368 26.0747 6.21978 26.2941 6.35288C26.5754 7.50628 26.7526 8.77718 26.7526 10.8183C26.7524 12.4482 26.6151 13.0404 26.4323 13.7856C25.5578 17.3518 23.3178 19.4509 19.16 20.6004C17.6962 21.0051 15.7071 21.0715 14.1158 20.7688C11.3994 20.252 9.15863 19.1403 7.85813 17.6645C6.75023 16.4072 6.10363 14.9824 5.77233 13.0678Z" fill="#1F1E1C"/>
<path d="M6.64453 6.76178C9.47313 4.92865 18.5815 2.81688 25.6389 6.76178C20.005 5.15311 15.1617 4.72204 6.64453 6.76178Z" fill="#767676" fill-opacity="0.76"/>
<path d="M25.5584 15.9325C20.2464 24.2982 8.41523 20.5981 6.64453 15.9324C10.741 18.39 13.6952 19.3974 16.6246 19.0731C19.3661 19.0806 21.9565 18.0524 25.5584 15.9325Z" fill="#262626"/>
<path d="M28.2749 12.5728C28.2659 13.2103 28.2128 14.1551 27.995 15.2962C27.9704 15.4255 27.9244 15.6662 27.8713 15.8826C27.4376 17.6511 26.2397 18.9686 25.7948 19.4204C25.5199 19.6996 24.6512 20.5433 22.8591 21.388C21.5962 21.9832 19.3346 22.8335 16.1934 22.893C13.3012 22.8931 11.1659 22.1484 9.95743 21.616C8.94743 21.1711 7.79583 20.6507 6.64413 19.4986C6.25763 19.112 4.93743 17.7203 4.31373 15.5177C3.79773 13.6954 3.89833 12.0389 3.90433 12.0386C3.90823 12.0384 3.96203 12.7084 4.09563 13.6055C4.12603 13.8093 4.37623 15.4266 5.02973 16.7426C5.97883 18.6538 7.64693 19.6642 8.67503 20.2869C11.6188 22.07 14.6228 22.2316 16.2129 22.1894C19.2417 22.102 21.4471 21.3238 22.7224 20.756C24.436 19.9931 25.2727 19.2528 25.5996 18.9448C26.0919 18.4809 27.1346 17.4767 27.6956 15.8826C28.2223 14.386 28.2566 12.5624 28.2739 12.5646C28.2739 12.5646 28.2749 12.5692 28.2749 12.5728Z" fill="#B1B0B0"/>
<path d="M10.6438 11.7051C10.6438 11.898 10.6184 12.0841 10.5677 12.2633C10.519 12.4407 10.4488 12.6073 10.3571 12.7631C10.2655 12.9171 10.1563 13.0583 10.0296 13.1869C9.9028 13.3136 9.7615 13.4227 9.6055 13.5143C9.4495 13.6059 9.2818 13.677 9.1024 13.7277C8.925 13.7764 8.7397 13.8007 8.5467 13.8007H7.2832V9.60938H8.5467C8.7397 9.60938 8.925 9.63477 9.1024 9.68537C9.2818 9.73417 9.4495 9.80427 9.6055 9.89587C9.7615 9.98747 9.9028 10.0976 10.0296 10.2262C10.1563 10.3528 10.2655 10.4941 10.3571 10.65C10.4488 10.8039 10.519 10.9705 10.5677 11.1498C10.6184 11.3271 10.6438 11.5122 10.6438 11.7051ZM9.8044 11.7051C9.8044 11.5317 9.7712 11.369 9.7049 11.217C9.6406 11.065 9.5509 10.9325 9.4358 10.8195C9.3227 10.7045 9.1892 10.6139 9.0351 10.5477C8.883 10.4814 8.7202 10.4483 8.5467 10.4483H8.1284V12.9619H8.5467C8.7202 12.9619 8.883 12.9297 9.0351 12.8654C9.1892 12.7992 9.3227 12.7096 9.4358 12.5965C9.5509 12.4816 9.6406 12.3481 9.7049 12.1961C9.7712 12.0422 9.8044 11.8785 9.8044 11.7051Z" fill="#FCFCFC"/>
<path d="M12.3636 13.035C12.3948 13.0447 12.4259 13.0515 12.4571 13.0554C12.4883 13.0574 12.5195 13.0583 12.5507 13.0583C12.6287 13.0583 12.7038 13.0476 12.7759 13.0262C12.8481 13.0048 12.9154 12.9746 12.9778 12.9356C13.0421 12.8947 13.0987 12.846 13.1474 12.7894C13.1981 12.731 13.239 12.6667 13.2702 12.5965L13.8552 13.184C13.7811 13.2892 13.6953 13.3838 13.5978 13.4675C13.5023 13.5513 13.398 13.6224 13.2849 13.6809C13.1737 13.7394 13.0558 13.7832 12.931 13.8124C12.8081 13.8436 12.6814 13.8592 12.5507 13.8592C12.3304 13.8592 12.1227 13.8183 11.9278 13.7364C11.7347 13.6546 11.5651 13.5406 11.4188 13.3945C11.2746 13.2483 11.1605 13.0749 11.0766 12.8742C10.9928 12.6716 10.9509 12.4494 10.9509 12.2078C10.9509 11.9603 10.9928 11.7343 11.0766 11.5297C11.1605 11.3251 11.2746 11.1507 11.4188 11.0065C11.5651 10.8624 11.7347 10.7503 11.9278 10.6704C12.1227 10.5905 12.3304 10.5506 12.5507 10.5506C12.6814 10.5506 12.8091 10.5662 12.9339 10.5974C13.0587 10.6285 13.1766 10.6733 13.2878 10.7318C13.4009 10.7903 13.5062 10.8624 13.6037 10.9481C13.7012 11.0319 13.787 11.1264 13.861 11.2316L12.3636 13.035ZM12.773 11.3894C12.736 11.3758 12.6989 11.367 12.6619 11.3631C12.6268 11.3592 12.5897 11.3573 12.5507 11.3573C12.4415 11.3573 12.3382 11.3777 12.2407 11.4187C12.1452 11.4576 12.0613 11.5141 11.9892 11.5882C11.919 11.6622 11.8634 11.7519 11.8225 11.8571C11.7815 11.9603 11.761 12.0773 11.761 12.2078C11.761 12.237 11.762 12.2702 11.764 12.3072C11.7679 12.3442 11.7727 12.3822 11.7786 12.4212C11.7864 12.4582 11.7952 12.4942 11.8049 12.5293C11.8147 12.5644 11.8273 12.5956 11.8429 12.6228L12.773 11.3894Z" fill="#FCFCFC"/>
<path d="M17.1194 13.8007H16.1425L15.5195 12.8421L14.8907 13.8007H13.9138L15.0574 12.1961L13.9138 10.6529H14.8907L15.5195 11.5502L16.1425 10.6529H17.1194L15.9729 12.1961L17.1194 13.8007Z" fill="#FCFCFC"/>
<path d="M18.9765 13.8007C18.7835 13.8007 18.6021 13.7647 18.4325 13.6926C18.2629 13.6185 18.1137 13.5182 17.985 13.3915C17.8583 13.2629 17.7579 13.1139 17.6838 12.9444C17.6116 12.7748 17.5755 12.5936 17.5755 12.4007V11.4713H17.1865V10.6763H17.5755V9.42528H18.3711V10.6763H19.582V11.4713H18.3711V12.4007C18.3711 12.4845 18.3867 12.5634 18.4179 12.6375C18.4491 12.7096 18.492 12.7729 18.5466 12.8274C18.6012 12.882 18.6655 12.9258 18.7396 12.959C18.8137 12.9901 18.8927 13.0057 18.9765 13.0057H19.582V13.8007H18.9765Z" fill="#FCFCFC"/>
<path d="M21.2783 13.035C21.3095 13.0447 21.3407 13.0515 21.3719 13.0554C21.4031 13.0574 21.4343 13.0583 21.4655 13.0583C21.5435 13.0583 21.6186 13.0476 21.6907 13.0262C21.7629 13.0048 21.8301 12.9746 21.8925 12.9356C21.9569 12.8947 22.0134 12.846 22.0622 12.7894C22.1129 12.731 22.1538 12.6667 22.185 12.5965L22.77 13.184C22.6959 13.2892 22.6101 13.3838 22.5126 13.4675C22.4171 13.5513 22.3127 13.6224 22.1996 13.6809C22.0885 13.7394 21.9705 13.7832 21.8457 13.8124C21.7229 13.8436 21.5962 13.8592 21.4655 13.8592C21.2452 13.8592 21.0375 13.8183 20.8425 13.7364C20.6495 13.6546 20.4799 13.5406 20.3336 13.3945C20.1893 13.2483 20.0753 13.0749 19.9914 12.8742C19.9076 12.6716 19.8657 12.4494 19.8657 12.2078C19.8657 11.9603 19.9076 11.7343 19.9914 11.5297C20.0753 11.3251 20.1893 11.1507 20.3336 11.0065C20.4799 10.8624 20.6495 10.7503 20.8425 10.6704C21.0375 10.5905 21.2452 10.5506 21.4655 10.5506C21.5962 10.5506 21.7239 10.5662 21.8487 10.5974C21.9735 10.6285 22.0914 10.6733 22.2026 10.7318C22.3157 10.7903 22.421 10.8624 22.5184 10.9481C22.6159 11.0319 22.7017 11.1264 22.7758 11.2316L21.2783 13.035ZM21.6878 11.3894C21.6508 11.3758 21.6137 11.367 21.5767 11.3631C21.5416 11.3592 21.5045 11.3573 21.4655 11.3573C21.3563 11.3573 21.253 11.3777 21.1555 11.4187C21.0599 11.4576 20.9761 11.5141 20.904 11.5882C20.8338 11.6622 20.7782 11.7519 20.7372 11.8571C20.6963 11.9603 20.6758 12.0773 20.6758 12.2078C20.6758 12.237 20.6768 12.2702 20.6788 12.3072C20.6826 12.3442 20.6875 12.3822 20.6934 12.4212C20.7012 12.4582 20.7099 12.4942 20.7197 12.5293C20.7294 12.5644 20.7421 12.5956 20.7577 12.6228L21.6878 11.3894Z" fill="#FCFCFC"/>
<path d="M23.9778 13.8007H23.1794V10.6704H23.3724L23.6356 11.0416C23.7643 10.9247 23.9106 10.8351 24.0743 10.7727C24.2381 10.7084 24.4078 10.6763 24.5833 10.6763H25.2881V11.4713H24.5833C24.4994 11.4713 24.4204 11.4869 24.3463 11.518C24.2723 11.5492 24.2079 11.5921 24.1533 11.6466C24.0987 11.7012 24.0558 11.7655 24.0246 11.8395C23.9934 11.9136 23.9778 11.9925 23.9778 12.0763V13.8007Z" fill="#FCFCFC"/>
</svg>
