<svg width="72" height="19" viewBox="0 0 72 19" fill="none" xmlns="http://www.w3.org/2000/svg">
<path d="M20.2555 4.1131V0H36.6872V6.72772H32.0677V4.06143H27.6136V7.2031H31.4374V10.9958H27.6136V14.3959H32.1504V11.3885H36.7699V18.4573H20.2555V14.3442H22.2087V4.1131H20.2555Z" fill="white"/>
<path d="M37.731 4.1131V0H54.1628V6.72772H49.5433V4.06143H45.0891V7.2031H48.9129V10.9958H45.0891V14.3959H49.626V11.3885H54.2454V18.4573H37.731V14.3442H39.6842V4.1131H37.731Z" fill="white"/>
<path d="M70.8012 10.9752C70.0881 11.7089 68.9823 11.9776 67.3495 11.9776H62.575V14.3545H64.6625V18.4676H55.2272V14.3545H57.1804V4.12344H55.2272V0H67.3598C68.9926 0 70.0984 0.268695 70.8115 1.00244C71.6589 1.87053 72 2.7903 72 5.98364C71.9896 9.17698 71.6486 10.0967 70.8012 10.9752ZM64.8485 8.07119C65.6133 8.07119 65.9027 8.01952 66.0577 7.8645C66.2954 7.60614 66.347 7.2031 66.347 6.07665C66.347 4.93986 66.2954 4.54715 66.0577 4.27846C65.9027 4.12344 65.6133 4.07177 64.8485 4.07177H62.5853V8.08153H64.8485V8.07119Z" fill="white"/>
<path d="M19.2737 4.1131V0H9.97273V4.06143H11.4195L8.54657 7.40979H7.35812V4.06143H8.99096V0H6.77939V1.51916H5.59093V0H3.40003V1.51916H2.21157V0H0V4.1131H1.95321V9.22865V14.3442H0V18.4573H8.99096V14.3959H7.35812V11.0475H8.54657L11.4195 14.3959H9.97273V18.4573H19.2737V14.3442H17.8269L13.4451 9.22865L17.8269 4.1131H19.2737Z" fill="white"/>
</svg>
