<svg width="88" height="21" viewBox="0 0 88 21" fill="none" xmlns="http://www.w3.org/2000/svg">
<path d="M2.16559 20.3179C0.973674 20.3179 0 19.3442 0 18.1523V7.69372C0 6.50181 0.973674 5.54492 2.16559 5.54492C3.3575 5.54492 4.33117 6.5186 4.33117 7.71051V18.1691C4.31438 19.3442 3.3575 20.3179 2.16559 20.3179Z" fill="white"/>
<path d="M11.3148 20.3172C10.6768 20.3172 10.0557 20.0318 9.65279 19.545L5.28805 14.3241C4.61655 13.5183 4.61655 12.3599 5.28805 11.5541L9.65279 6.31643C10.425 5.39312 11.7848 5.27561 12.6913 6.03104C13.5979 6.78648 13.7322 8.16305 12.9767 9.06958L9.77031 12.9307L12.9767 16.775C13.7322 17.6983 13.6146 19.0581 12.6913 19.8136C12.3052 20.1325 11.8184 20.3172 11.3148 20.3172Z" fill="white"/>
<path d="M25.6848 20.3171H16.5356C15.3437 20.3171 14.3701 19.3434 14.3701 18.1515V7.69293C14.3701 6.50102 15.3437 5.52734 16.5356 5.52734C17.7276 5.52734 18.7012 6.50102 18.7012 7.69293V15.9859H23.536V7.69293C23.536 6.50102 24.5097 5.52734 25.7016 5.52734C26.8935 5.52734 27.8672 6.50102 27.8672 7.69293V18.1515C27.8504 19.3434 26.8767 20.3171 25.6848 20.3171Z" fill="white"/>
<path d="M40.0717 20.3179H30.9225C29.7306 20.2843 28.7905 19.2939 28.8241 18.102C28.8577 16.9604 29.781 16.0371 30.9225 16.0035H37.9061V15.886L30.3182 13.7204C29.3949 13.4518 28.757 12.6125 28.757 11.6388V7.69372C28.757 6.50181 29.7306 5.54492 30.9225 5.54492H40.0717C41.2636 5.54492 42.2373 6.5186 42.2373 7.71051C42.2373 8.90242 41.2636 9.87609 40.0717 9.87609H33.0881V10.0104L40.6761 12.176C41.5994 12.4446 42.2373 13.284 42.2373 14.2576V18.1691C42.2373 19.361 41.2636 20.3179 40.0717 20.3179Z" fill="white"/>
<path d="M70.1381 20.3171C68.9462 20.3171 67.9893 19.3434 67.9893 18.1515V12.3934L66.9821 13.2664C66.1763 13.9547 64.9844 13.9547 64.1618 13.2664L63.1545 12.3934V18.1515C63.1545 19.3434 62.1809 20.3171 60.9889 20.3171C59.797 20.3171 58.8234 19.3434 58.8234 18.1515V7.69293C58.8234 6.50102 59.797 5.52734 60.9889 5.52734C61.5094 5.52734 61.9962 5.71201 62.3991 6.04776L65.5719 8.76733L68.728 6.04776C69.6345 5.27553 70.9943 5.37626 71.7833 6.28278C72.1191 6.66889 72.3037 7.17252 72.3037 7.69293V18.1515C72.3205 19.3434 71.3468 20.3171 70.1381 20.3171Z" fill="white"/>
<path d="M55.7513 20.3179C54.5593 20.3179 53.5857 19.3442 53.5857 18.1523V16.3225L48.1969 9.8593H47.4582V15.9867H50.715C51.9069 16.0203 52.847 17.0108 52.8135 18.2027C52.7799 19.3442 51.8566 20.2675 50.715 20.3011H45.2927C44.1007 20.3011 43.1439 19.3274 43.1439 18.1355V7.69372C43.1439 6.50181 44.1175 5.54492 45.2927 5.54492H49.2209C49.8589 5.54492 50.48 5.83031 50.8829 6.31715L57.4132 14.1569C57.7322 14.543 57.9168 15.0299 57.9168 15.5335V18.1523C57.9168 19.3442 56.96 20.3179 55.7513 20.3179Z" fill="white"/>
<path d="M85.8345 20.3179C84.6425 20.3179 83.6689 19.3442 83.6689 18.1523V16.3225L78.2801 9.8593H77.5246V15.9867H80.7814C81.9733 16.0203 82.9134 17.0108 82.8799 18.2027C82.8463 19.3442 81.923 20.2675 80.7814 20.3011H75.3759C74.1839 20.3011 73.2103 19.3274 73.2103 18.1355V7.69372C73.2103 6.50181 74.1839 5.54492 75.3759 5.54492H79.3041C79.942 5.54492 80.5464 5.83031 80.9661 6.31715L87.4964 14.1569C87.8154 14.543 88 15.0299 88 15.5335V18.1523C88 19.361 87.0264 20.3179 85.8345 20.3179Z" fill="white"/>
<path d="M47.3575 0.272955C47.2064 0.138655 47.0385 0.0379303 46.8371 0.00435533C46.5853 -0.0292196 46.3334 0.138655 46.1656 0.256168C45.9977 0.37368 45.6619 0.675855 45.5276 0.793367C45.3933 0.910879 45.0576 0.978029 44.5036 1.31378C43.9496 1.64953 41.8008 3.0261 41.8008 3.0261H42.3548L39.8535 4.31874H40.1053L39.7527 4.58734C39.9542 4.6377 40.1556 4.60413 40.3403 4.5034V4.58734C40.3403 4.58734 43.3117 3.41221 43.8825 3.71439L43.5299 3.81511C43.5635 3.81511 44.1175 3.84869 44.1175 3.84869C44.1511 4.08371 44.2854 4.30195 44.4868 4.41946C44.8226 4.6377 44.8394 4.772 44.8394 4.772C44.8394 4.772 44.6715 4.83915 44.6715 4.93988C44.9904 4.83915 45.3262 4.83915 45.6284 4.93988C45.6284 4.93988 45.6116 4.83915 45.3766 4.772C45.1415 4.67128 44.9401 4.52019 44.789 4.30195C44.6547 4.11729 44.6043 3.88226 44.6883 3.66403C44.7722 3.44579 45.0576 3.32828 45.6452 3.0261C46.3334 2.67357 46.5013 2.40497 46.5853 2.18673C46.6692 1.96849 46.8371 1.56559 46.9042 1.36414C46.9714 1.17948 47.0889 1.02839 47.24 0.894092C47.4246 0.793367 47.6261 0.70943 47.8107 0.64228C47.8443 0.659067 47.475 0.356892 47.3575 0.272955Z" fill="white"/>
</svg>
