<svg width="145" height="42" viewBox="0 0 145 42" fill="none" xmlns="http://www.w3.org/2000/svg">
<rect width="41.9907" height="41.9889" rx="20.9945" fill="#252525"/>
<path d="M31.218 23.8093C31.218 25.3634 30.8614 26.7902 30.148 28.0895C29.4346 29.3634 28.3391 30.3953 26.8614 31.1851C25.3837 31.9749 23.5493 32.3698 21.3582 32.3698H17.3072V42.0003H10.7722V15.1724H21.3582C23.4983 15.1724 25.3072 15.5418 26.7849 16.2806C28.2626 17.0195 29.3709 18.0386 30.1098 19.338C30.8486 20.6373 31.218 22.1278 31.218 23.8093ZM20.8614 27.1723C22.1098 27.1723 23.0397 26.8793 23.6512 26.2934C24.2626 25.7074 24.5684 24.8794 24.5684 23.8093C24.5684 22.7392 24.2626 21.9112 23.6512 21.3252C23.0397 20.7392 22.1098 20.4462 20.8614 20.4462H17.3072V27.1723H20.8614Z" fill="white"/>
<path d="M31.3526 8.37598H10.7722V12.6935H31.3526V8.37598Z" fill="#E50913"/>
<path d="M56.2172 31.996H65.1199V37.2423H49.4209V9.3418H56.2172V31.996Z" fill="#252525"/>
<path d="M75.1578 14.7868V20.4304H84.2592V25.6767H75.1578V31.7973H85.4516V37.2423H68.3615V9.3418H85.4516V14.7868H75.1578Z" fill="#252525"/>
<path d="M114.823 37.2423H108.027L96.6601 20.033V37.2423H89.8638V9.3418H96.6601L108.027 26.6306V9.3418H114.823V37.2423Z" fill="#252525"/>
<path d="M130.202 9.3418C133.143 9.3418 135.714 9.92471 137.913 11.0905C140.112 12.2564 141.808 13.8991 143 16.0188C144.219 18.112 144.828 20.5364 144.828 23.292C144.828 26.0211 144.219 28.4455 143 30.5652C141.808 32.6849 140.099 34.3277 137.873 35.4935C135.674 36.6594 133.117 37.2423 130.202 37.2423H119.75V9.3418H130.202ZM129.765 31.3601C132.335 31.3601 134.336 30.658 135.767 29.2537C137.197 27.8494 137.913 25.8622 137.913 23.292C137.913 20.7219 137.197 18.7214 135.767 17.2907C134.336 15.8599 132.335 15.1445 129.765 15.1445H126.546V31.3601H129.765Z" fill="#252525"/>
</svg>
