<svg width="124" height="36" viewBox="0 0 124 36" fill="none" xmlns="http://www.w3.org/2000/svg">
<rect width="35.715" height="35.7135" rx="17.8567" fill="white"/>
<path d="M26.5522 20.2523C26.5522 21.5742 26.2488 22.7877 25.6421 23.8929C25.0353 24.9764 24.1035 25.854 22.8466 26.5258C21.5898 27.1975 20.0296 27.5334 18.166 27.5334H14.7204V35.7247H9.16211V12.9062H18.166C19.9862 12.9062 21.5248 13.2205 22.7816 13.8489C24.0385 14.4773 24.9811 15.3441 25.6096 16.4493C26.238 17.5544 26.5522 18.8221 26.5522 20.2523ZM17.7434 23.1128C18.8052 23.1128 19.5962 22.8636 20.1162 22.3652C20.6363 21.8668 20.8964 21.1625 20.8964 20.2523C20.8964 19.3422 20.6363 18.6379 20.1162 18.1395C19.5962 17.6411 18.8052 17.3919 17.7434 17.3919H14.7204V23.1128H17.7434Z" fill="#212325"/>
<path d="M26.6671 7.125H9.1626V10.7973H26.6671V7.125Z" fill="#E50913"/>
<path d="M47.8152 27.2138H55.3874V31.6759H42.0347V7.94531H47.8152V27.2138Z" fill="white"/>
<path d="M63.9251 12.5765V17.3767H71.6662V21.8389H63.9251V27.0447H72.6804V31.6759H58.1445V7.94531H72.6804V12.5765H63.9251Z" fill="white"/>
<path d="M97.6623 31.6759H91.8817L82.2137 17.0387V31.6759H76.4332V7.94531H82.2137L91.8817 22.6502V7.94531H97.6623V31.6759Z" fill="white"/>
<path d="M110.743 7.94531C113.244 7.94531 115.43 8.44111 117.301 9.4327C119.171 10.4243 120.614 11.8215 121.628 13.6244C122.665 15.4048 123.183 17.4669 123.183 19.8106C123.183 22.1318 122.665 24.1939 121.628 25.9968C120.614 27.7997 119.16 29.1969 117.267 30.1885C115.397 31.1801 113.222 31.6759 110.743 31.6759H101.852V7.94531H110.743ZM110.371 26.6729C112.557 26.6729 114.259 26.0757 115.476 24.8813C116.692 23.6868 117.301 21.9966 117.301 19.8106C117.301 17.6246 116.692 15.9231 115.476 14.7062C114.259 13.4892 112.557 12.8807 110.371 12.8807H107.633V26.6729H110.371Z" fill="white"/>
</svg>
