<svg width="98" height="23" viewBox="0 0 98 23" fill="none" xmlns="http://www.w3.org/2000/svg">
<path d="M22.9478 9.25826C22.0363 9.24704 21.1353 9.45431 20.3203 9.86274C19.5053 10.2712 18.7999 10.8689 18.2633 11.6058C17.013 13.1477 16.3462 15.081 16.38 17.0658C16.3171 18.3424 16.7392 19.5956 17.5617 20.5739C17.9509 21.0162 18.4347 21.3654 18.9771 21.5955C19.5195 21.8256 20.1067 21.9308 20.6953 21.9033C21.5648 21.9026 22.4226 21.7025 23.2027 21.3184C23.9828 20.9343 24.6644 20.3764 25.1951 19.6877C26.5293 18.087 27.2494 16.0633 27.2262 13.9797C27.2795 12.7582 26.9291 11.5532 26.2291 10.5507C25.5275 9.7014 24.4197 9.25826 22.9478 9.25826ZM23.0217 18.6273C22.7277 18.9275 22.3775 19.1668 21.991 19.3316C21.6045 19.4963 21.1893 19.5833 20.7691 19.5874C20.4877 19.6028 20.2067 19.5505 19.9497 19.4349C19.6926 19.3192 19.4671 19.1436 19.292 18.9227C18.9053 18.3901 18.7185 17.7383 18.7645 17.0816C18.7127 15.6775 19.1141 14.2941 19.9092 13.1357C20.2199 12.6448 20.6512 12.2416 21.1618 11.9645C21.6725 11.6875 22.2456 11.5458 22.8265 11.553C24.1489 11.553 24.8118 12.3637 24.8153 13.985C24.8379 15.7057 24.1953 17.3687 23.0217 18.6273ZM94.429 15.0875C94.1591 14.9943 93.8639 15.0073 93.6032 15.1239C93.3426 15.2405 93.1361 15.452 93.0258 15.7153C91.9971 18.3002 90.7415 19.5874 89.1906 19.5874C88.3782 19.5874 87.972 18.8858 87.972 17.5617C88.0727 16.0592 88.2915 14.5669 88.6261 13.0987L88.9585 11.5478H92.1237C92.3872 11.5502 92.643 11.4586 92.8451 11.2894C93.0472 11.1202 93.1823 10.8845 93.2262 10.6246C93.2596 10.4602 93.2564 10.2906 93.2166 10.1276C93.1769 9.96472 93.1017 9.81258 92.9964 9.68208C92.891 9.55157 92.7582 9.44592 92.6074 9.37266C92.4565 9.2994 92.2914 9.26034 92.1237 9.25826H89.486L90.0135 6.67861C90.0501 6.50664 90.0482 6.3287 90.008 6.15754C89.9677 5.98639 89.8901 5.82626 89.7807 5.68862C89.6713 5.55098 89.5328 5.43924 89.3752 5.36141C89.2175 5.28358 89.0446 5.24159 88.8688 5.23844C88.6002 5.2344 88.3387 5.32451 88.1296 5.49314C87.9205 5.66177 87.777 5.89827 87.724 6.16163L87.0435 9.22134H79.658C78.7415 9.21306 77.8365 9.42538 77.0194 9.84039C76.2022 10.2554 75.4969 10.8609 74.9629 11.6058C73.7126 13.1477 73.0458 15.081 73.0796 17.0658C73.0795 17.5987 73.1414 18.1298 73.2643 18.6484C73.026 18.9274 72.7321 19.1536 72.4015 19.3125C72.0709 19.4715 71.7107 19.5597 71.344 19.5716C71.1582 19.5895 70.9707 19.5619 70.7979 19.4911C70.6251 19.4203 70.4722 19.3085 70.3523 19.1654C70.1247 18.7631 70.0219 18.3022 70.0568 17.8413C70.1062 16.5104 70.2828 15.1873 70.5844 13.89L72.4993 4.96412C72.534 4.81413 72.5387 4.65879 72.5133 4.50697C72.4879 4.35515 72.4329 4.20981 72.3513 4.07926C72.2698 3.94872 72.1633 3.83551 72.038 3.74611C71.9127 3.65671 71.771 3.59287 71.621 3.55823C71.471 3.52359 71.3157 3.51884 71.1638 3.54423C71.012 3.56963 70.8667 3.62468 70.7361 3.70624C70.6056 3.7878 70.4924 3.89428 70.403 4.01959C70.3136 4.1449 70.2497 4.2866 70.2151 4.43658L69.1073 9.88603C68.3265 9.41897 67.4321 9.1762 66.5223 9.18441C65.6081 9.17098 64.7026 9.3631 63.8726 9.7466C63.0426 10.1301 62.3094 10.6952 61.727 11.4001C60.432 12.9764 59.7517 14.9685 59.8121 17.0078C59.7992 17.6556 59.8864 18.3015 60.0706 18.9227C59.6186 19.3148 59.0439 19.5368 58.4458 19.5505C58.2505 19.568 58.0539 19.5404 57.871 19.47C57.6881 19.3996 57.5238 19.2882 57.3907 19.1443C57.1312 18.7541 57.0139 18.2866 57.0583 17.8202C57.0978 16.9313 57.2214 16.0481 57.4276 15.1825C57.46 15.0179 57.458 14.8483 57.4215 14.6846C57.3851 14.5208 57.3151 14.3664 57.2159 14.231C57.1168 14.0957 56.9906 13.9824 56.8455 13.8983C56.7003 13.8141 56.5393 13.761 56.3725 13.7423C56.0865 13.7057 55.797 13.7758 55.5595 13.9394C55.322 14.1029 55.1532 14.3483 55.0854 14.6286C54.7765 15.8923 54.2247 17.0839 53.4605 18.1367C53.1934 18.5485 52.8341 18.8925 52.4111 19.1415C51.9881 19.3905 51.513 19.5378 51.0233 19.5716C50.769 19.5666 50.5202 19.496 50.3012 19.3666C50.0821 19.2372 49.9002 19.0534 49.7731 18.8331C49.432 18.2406 49.2638 17.5644 49.2877 16.8812C49.2195 15.4988 49.6212 14.1341 50.4272 13.009C50.7648 12.5208 51.218 12.1237 51.7463 11.853C52.2747 11.5824 52.8618 11.4467 53.4553 11.4581C54.0647 11.4627 54.6672 11.5882 55.2278 11.8274C55.3946 11.909 55.58 11.9452 55.7653 11.9322C55.9505 11.9192 56.1291 11.8576 56.2829 11.7535C56.4642 11.6452 56.6119 11.4887 56.7095 11.3013C56.807 11.1139 56.8506 10.9031 56.8353 10.6925C56.8199 10.4818 56.7464 10.2795 56.6227 10.1082C56.4991 9.93694 56.3303 9.80339 56.1352 9.7225C55.8396 9.59422 55.5321 9.49527 55.2172 9.42708C54.6517 9.269 54.0687 9.18217 53.4816 9.16858C52.5758 9.16484 51.6804 9.36156 50.8596 9.74462C50.0387 10.1277 49.3128 10.6876 48.7338 11.3842C48.0342 12.1706 47.5172 13.102 47.2198 14.1116C46.075 17.7463 44.6032 19.5188 42.8307 19.5188C42.5774 19.5389 42.3231 19.4954 42.091 19.3922C41.8588 19.289 41.6561 19.1295 41.5013 18.928C41.2084 18.509 41.0653 18.0035 41.0951 17.4931C41.0859 17.3322 41.0983 17.1707 41.132 17.0131C42.2002 16.5967 43.133 15.894 43.8277 14.982C44.5026 14.118 44.8734 13.0555 44.8828 11.9593C44.8828 10.1129 43.891 9.18968 41.86 9.18968C41.1616 9.18635 40.4695 9.32173 39.8238 9.58797C39.1781 9.85421 38.5918 10.246 38.0987 10.7406L39.3542 4.93774C39.3896 4.76785 39.3865 4.59222 39.3453 4.42365C39.3042 4.25508 39.2259 4.09784 39.1162 3.96338C39.0065 3.82892 38.8682 3.72064 38.7113 3.64644C38.5544 3.57225 38.383 3.534 38.2095 3.53449C37.9409 3.53045 37.6793 3.62057 37.4702 3.7892C37.2611 3.95782 37.1177 4.19433 37.0647 4.45768L33.6357 20.4684C33.5995 20.638 33.6017 20.8135 33.6422 20.9821C33.6826 21.1507 33.7604 21.3081 33.8697 21.4427C33.979 21.5773 34.1171 21.6857 34.2738 21.7599C34.4305 21.8342 34.6018 21.8723 34.7752 21.8717C35.0401 21.8633 35.294 21.7637 35.494 21.5897C35.6939 21.4158 35.8276 21.178 35.8725 20.9168L36.9276 16.0107C37.1091 15.3595 37.3565 14.7285 37.6661 14.1274C38.0545 13.4368 38.5827 12.8349 39.2171 12.3602C39.8601 11.8014 40.6864 11.4991 41.5382 11.5108C41.6587 11.4931 41.7817 11.5038 41.8973 11.542C42.013 11.5803 42.118 11.6451 42.2042 11.7312C42.2903 11.8173 42.355 11.9224 42.3933 12.038C42.4316 12.1536 42.4422 12.2766 42.4245 12.3971C42.3947 12.7839 42.28 13.1594 42.0885 13.4968C41.897 13.8341 41.6335 14.1251 41.3167 14.349C40.6456 14.9538 39.8137 15.3514 38.9216 15.4937C38.8478 16.1954 38.8109 16.7124 38.8109 17.0078C38.7541 18.2771 39.1155 19.5299 39.8396 20.5739C40.1895 21.0137 40.6415 21.3613 41.1564 21.5865C41.6712 21.8118 42.2333 21.9078 42.7938 21.8664C43.5709 21.8593 44.3364 21.6762 45.0326 21.3308C45.7288 20.9854 46.3377 20.4868 46.8136 19.8723L47.2567 19.3448C47.4237 19.7747 47.6608 20.174 47.9583 20.5264C48.3128 20.9619 48.7639 21.3088 49.2757 21.5395C49.7876 21.7703 50.3462 21.8786 50.9073 21.8558C52.4899 21.8558 53.8245 21.1173 54.9324 19.5663C55.4072 21.1173 56.515 21.8558 58.3614 21.8558C59.3984 21.8428 60.3991 21.472 61.1942 20.806C61.907 21.4742 62.8554 21.8327 63.8319 21.8031C65.4145 21.8031 66.7439 21.0645 67.8517 19.5136C68.3318 21.0645 69.4343 21.8031 71.2807 21.8031C72.4525 21.8149 73.5846 21.379 74.4459 20.5845C74.8298 20.9864 75.2941 21.3027 75.8087 21.5127C76.3232 21.7227 76.8764 21.8217 77.4318 21.8031C78.3015 21.8032 79.1595 21.6034 79.9398 21.2192C80.72 20.8351 81.4015 20.2768 81.9317 19.5874C83.2599 17.9937 83.9797 15.9804 83.9627 13.9059C83.9788 13.0618 83.8282 12.2228 83.5196 11.437H86.5846L86.2891 12.7664C85.9123 14.3045 85.6652 15.8715 85.5506 17.4509C85.5506 20.326 86.7323 21.8031 89.0534 21.8031C91.6911 21.8031 93.6641 20.0306 95.0673 16.5277C95.1288 16.3922 95.1608 16.2453 95.1615 16.0965C95.1621 15.9478 95.1313 15.8006 95.071 15.6646C95.0107 15.5286 94.9223 15.4068 94.8117 15.3074C94.7011 15.208 94.5707 15.133 94.429 15.0875ZM68.2738 13.6843C67.8676 15.7153 67.2187 17.1924 66.4643 18.1525C65.7099 19.1126 64.8448 19.5874 63.9585 19.5874C63.7035 19.5823 63.454 19.5117 63.2342 19.3823C63.0143 19.253 62.8314 19.0693 62.703 18.8489C62.3704 18.2667 62.2043 17.6042 62.2229 16.9339C62.1542 15.5507 62.5579 14.1853 63.3677 13.0618C63.6378 12.6467 63.9949 12.2953 64.4143 12.0319C64.8336 11.7684 65.3052 11.5993 65.7964 11.536C66.2876 11.4728 66.7866 11.5171 67.259 11.6658C67.7314 11.8144 68.1658 12.064 68.5323 12.3971L68.2738 13.6843ZM81.114 16.4539C80.7568 17.216 80.3105 17.9332 79.7846 18.5904C79.4949 18.8987 79.1462 19.1458 78.7593 19.317C78.3724 19.4883 77.9551 19.5802 77.532 19.5874C77.2514 19.6029 76.9711 19.5505 76.7149 19.4348C76.4588 19.3192 76.2342 19.1435 76.0602 18.9227C75.6735 18.3901 75.4867 17.7383 75.5327 17.0816C75.4816 15.6784 75.8809 14.2957 76.6721 13.1357C76.9861 12.6479 77.4181 12.2471 77.928 11.9705C78.4379 11.6939 79.0093 11.5503 79.5894 11.553C80.9188 11.553 81.5835 12.3637 81.5835 13.985C81.558 14.83 81.3904 15.6646 81.0876 16.4539H81.114ZM32.9447 3.53977C32.6761 3.53573 32.4145 3.62584 32.2054 3.79447C31.9963 3.9631 31.8529 4.19961 31.7999 4.46296L28.3709 20.4737C28.3347 20.6432 28.3369 20.8188 28.3773 20.9874C28.4178 21.156 28.4956 21.3134 28.6049 21.448C28.7142 21.5826 28.8523 21.691 29.009 21.7652C29.1657 21.8394 29.337 21.8776 29.5104 21.8769C29.779 21.881 30.0405 21.7909 30.2496 21.6222C30.4587 21.4536 30.6022 21.2171 30.6551 20.9537L34.0894 4.94302C34.1218 4.77346 34.1166 4.59887 34.0743 4.43152C34.032 4.26417 33.9535 4.10813 33.8443 3.97437C33.7352 3.84061 33.5981 3.73239 33.4427 3.6573C33.2873 3.58222 33.1173 3.5421 32.9447 3.53977ZM8.40893 0C6.18131 0.00833803 4.04731 0.896954 2.47213 2.47213C0.896954 4.04731 0.00833809 6.18131 5.76405e-08 8.40893C-0.000107217 9.33771 0.149523 10.2604 0.443131 11.1416C0.548551 11.43 0.760268 11.6671 1.0349 11.8044C1.30953 11.9417 1.62628 11.9688 1.92023 11.8801C2.20553 11.7717 2.43867 11.5584 2.57201 11.2839C2.70536 11.0094 2.72885 10.6943 2.63768 10.403C2.38792 9.71778 2.27674 8.98977 2.31061 8.26122C2.3455 7.08514 2.72163 5.94458 3.3932 4.97847C4.06476 4.01235 5.00277 3.26236 6.09299 2.81985C7.1832 2.37735 8.37857 2.26141 9.5335 2.48617C10.6884 2.71093 11.7531 3.26669 12.5978 4.08575C13.4425 4.90481 14.0308 5.95183 14.291 7.09929C14.5513 8.24675 14.4722 9.44512 14.0635 10.5485C13.6548 11.6518 12.9341 12.6125 11.9891 13.3135C11.0442 14.0145 9.91573 14.4256 8.74128 14.4967C8.74128 14.4967 7.56487 14.5706 6.97403 14.6444C6.75738 14.675 6.54253 14.7173 6.33044 14.771C6.3152 14.7824 6.29635 14.788 6.27735 14.7866C6.25835 14.7853 6.24047 14.7771 6.22701 14.7637C6.21354 14.7502 6.20538 14.7323 6.20403 14.7133C6.20268 14.6943 6.20823 14.6755 6.21965 14.6602L6.40429 13.6632L7.51212 8.64632C7.57578 8.34761 7.51817 8.03585 7.35196 7.77961C7.18576 7.52338 6.92457 7.34366 6.62586 7.28C6.32715 7.21634 6.01538 7.27395 5.75915 7.44016C5.50291 7.60637 5.3232 7.86755 5.25954 8.16626C5.25954 8.16626 2.62186 20.4157 2.62186 20.5264C2.58553 20.6742 2.57976 20.8279 2.60489 20.978C2.63002 21.1281 2.68552 21.2715 2.76799 21.3994C2.85046 21.5273 2.95818 21.637 3.08453 21.7219C3.21089 21.8067 3.35323 21.8649 3.50284 21.8928C3.65097 21.9283 3.80477 21.9333 3.95489 21.9075C4.10502 21.8817 4.24833 21.8256 4.37612 21.7427C4.50391 21.6598 4.61352 21.5518 4.69828 21.4253C4.78303 21.2987 4.84117 21.1562 4.86916 21.0065C4.90609 20.8588 5.23844 19.234 5.23844 19.234C5.36086 18.6359 5.66366 18.0897 6.10604 17.6691C6.54842 17.2484 7.10912 16.9734 7.71258 16.8812C7.9658 16.8442 9.0367 16.7704 9.0367 16.7704C11.1768 16.5726 13.1597 15.5624 14.5778 13.9475C15.9959 12.3326 16.7415 10.2357 16.6611 8.08804C16.5807 5.94036 15.6805 3.9051 14.1456 2.40074C12.6107 0.896377 10.5578 0.0372476 8.40893 0V0Z" fill="white"/>
<path d="M96.8768 19.3679C96.6949 19.3311 96.5075 19.3305 96.3254 19.3663C96.1433 19.402 95.9701 19.4735 95.8156 19.5764C95.6612 19.6794 95.5287 19.8118 95.4256 19.9661C95.3225 20.1205 95.251 20.2937 95.2151 20.4758C95.176 20.6578 95.1738 20.8458 95.2086 21.0287C95.2435 21.2117 95.3146 21.3857 95.4179 21.5407C95.5212 21.6956 95.6545 21.8282 95.8099 21.9307C95.9654 22.0333 96.1398 22.1036 96.3229 22.1375C96.5048 22.1789 96.6932 22.1827 96.8766 22.1488C97.06 22.1149 97.2346 22.0439 97.3896 21.9402C97.5447 21.8365 97.6769 21.7023 97.7783 21.5457C97.8797 21.3891 97.9481 21.2136 97.9793 21.0297C98.0415 20.6644 97.9621 20.2892 97.7572 19.9804C97.5524 19.6717 97.2375 19.4526 96.8768 19.3679Z" fill="#E6007A"/>
</svg>
