<svg width="169" height="42" viewBox="0 0 169 42" fill="none" xmlns="http://www.w3.org/2000/svg">
<rect width="41.929" height="41.9272" rx="20.9636" fill="#252525"/>
<path d="M31.1724 23.7751C31.1724 25.327 30.8162 26.7516 30.1039 28.0491C29.3915 29.3211 28.2976 30.3514 26.8221 31.14C25.3465 31.9287 23.5149 32.323 21.327 32.323H17.282V41.9394H10.7566V15.1509H21.327C23.464 15.1509 25.2702 15.5198 26.7458 16.2575C28.2213 16.9953 29.3279 18.0129 30.0657 19.3104C30.8035 20.6078 31.1724 22.0961 31.1724 23.7751ZM20.8309 27.1332C22.0775 27.1332 23.006 26.8407 23.6166 26.2555C24.2272 25.6704 24.5325 24.8436 24.5325 23.7751C24.5325 22.7066 24.2272 21.8798 23.6166 21.2947C23.006 20.7096 22.0775 20.417 20.8309 20.417H17.282V27.1332H20.8309Z" fill="white"/>
<path d="M31.3067 8.36377H10.7566V12.675H31.3067V8.36377Z" fill="#E50913"/>
<path d="M59.6682 37.4591C57.6762 37.4591 55.8912 37.1357 54.3132 36.489C52.7352 35.8423 51.4676 34.8851 50.5104 33.6175C49.5791 32.3499 49.0876 30.8236 49.0359 29.0387H56.0982C56.2017 30.0476 56.5509 30.8236 57.1459 31.3669C57.7409 31.8843 58.517 32.143 59.4741 32.143C60.4572 32.143 61.2333 31.9231 61.8024 31.4833C62.3715 31.0177 62.6561 30.3839 62.6561 29.5819C62.6561 28.9093 62.4232 28.3531 61.9576 27.9133C61.5178 27.4736 60.9616 27.1114 60.289 26.8268C59.6423 26.5423 58.711 26.2189 57.4951 25.8567C55.736 25.3135 54.3003 24.7702 53.1879 24.227C52.0755 23.6837 51.1184 22.8818 50.3164 21.8211C49.5145 20.7605 49.1135 19.3765 49.1135 17.6691C49.1135 15.1339 50.0319 13.1549 51.8686 11.7321C53.7053 10.2834 56.0982 9.55908 59.0473 9.55908C62.0481 9.55908 64.4669 10.2834 66.3036 11.7321C68.1404 13.1549 69.1234 15.1468 69.2527 17.7079H62.074C62.0223 16.8284 61.6989 16.1428 61.1039 15.6513C60.5089 15.1339 59.7458 14.8752 58.8145 14.8752C58.0125 14.8752 57.3658 15.0951 56.8743 15.5349C56.3828 15.9488 56.137 16.5567 56.137 17.3587C56.137 18.2382 56.5509 18.9238 57.3787 19.4153C58.2065 19.9068 59.5 20.4371 61.2591 21.0062C63.0182 21.6012 64.441 22.1704 65.5276 22.7136C66.6399 23.2569 67.5971 24.0459 68.399 25.0807C69.201 26.1154 69.602 27.4477 69.602 29.0775C69.602 30.6296 69.201 32.0395 68.399 33.3071C67.623 34.5747 66.4847 35.5836 64.9843 36.3338C63.4839 37.084 61.7118 37.4591 59.6682 37.4591Z" fill="#252525"/>
<path d="M93.2815 9.94712V15.2633H86.0639V37.1875H79.4285V15.2633H72.2109V9.94712H93.2815Z" fill="#252525"/>
<path d="M113.569 32.3758H103.402L101.773 37.1875H94.8266L104.683 9.94712H112.366L122.222 37.1875H115.199L113.569 32.3758ZM111.862 27.2537L108.486 17.2811L105.148 27.2537H111.862Z" fill="#252525"/>
<path d="M141.015 37.1875L131.857 25.1583V37.1875H125.222V9.94712H131.857V21.8987L140.938 9.94712H148.737L138.182 23.2957L149.125 37.1875H141.015Z" fill="#252525"/>
<path d="M158.914 15.2633V20.7734H167.8V25.8955H158.914V31.8713H168.964V37.1875H152.279V9.94712H168.964V15.2633H158.914Z" fill="#252525"/>
</svg>
