<svg width="180" height="45" viewBox="0 0 180 45" fill="none" xmlns="http://www.w3.org/2000/svg">
<rect width="44.6675" height="44.6656" rx="22.3328" fill="white"/>
<path d="M33.2082 25.3281C33.2082 26.9813 32.8288 28.499 32.0699 29.8812C31.3111 31.2363 30.1457 32.334 28.5738 33.1741C27.0019 34.0143 25.0505 34.4343 22.7198 34.4343H18.4106V44.6788H11.459V16.1406H22.7198C24.9963 16.1406 26.9206 16.5336 28.4925 17.3196C30.0644 18.1055 31.2433 19.1896 32.0293 20.5718C32.8152 21.954 33.2082 23.5394 33.2082 25.3281ZM22.1913 28.9056C23.5193 28.9056 24.5085 28.5939 25.1589 27.9706C25.8094 27.3472 26.1346 26.4664 26.1346 25.3281C26.1346 24.1899 25.8094 23.3091 25.1589 22.6857C24.5085 22.0624 23.5193 21.7507 22.1913 21.7507H18.4106V28.9056H22.1913Z" fill="#222325"/>
<path d="M33.3513 8.91016H11.459V13.5029H33.3513V8.91016Z" fill="#E50913"/>
<path d="M63.5652 39.9059C61.4432 39.9059 59.5416 39.5614 57.8605 38.8724C56.1795 38.1835 54.8291 37.1638 53.8094 35.8134C52.8173 34.463 52.2936 32.837 52.2385 30.9355H59.7621C59.8723 32.0103 60.2444 32.837 60.8782 33.4158C61.5121 33.9669 62.3389 34.2425 63.3585 34.2425C64.4058 34.2425 65.2326 34.0083 65.8388 33.5398C66.4451 33.0437 66.7483 32.3685 66.7483 31.5142C66.7483 30.7977 66.5003 30.2051 66.0042 29.7366C65.5357 29.2681 64.9432 28.8823 64.2267 28.5792C63.5377 28.276 62.5456 27.9315 61.2503 27.5457C59.3763 26.967 57.8468 26.3882 56.6617 25.8095C55.4767 25.2308 54.457 24.3764 53.6027 23.2465C52.7484 22.1166 52.3212 20.6422 52.3212 18.8233C52.3212 16.1225 53.2995 14.0143 55.2562 12.4985C57.2129 10.9552 59.7621 10.1836 62.9038 10.1836C66.1007 10.1836 68.6774 10.9552 70.6341 12.4985C72.5908 14.0143 73.638 16.1363 73.7758 18.8647H66.1282C66.0731 17.9276 65.7286 17.1973 65.0948 16.6737C64.4609 16.1225 63.6479 15.8469 62.6558 15.8469C61.8015 15.8469 61.1125 16.0812 60.5889 16.5497C60.0653 16.9906 59.8034 17.6383 59.8034 18.4926C59.8034 19.4296 60.2444 20.1599 61.1263 20.6835C62.0082 21.2072 63.3861 21.7721 65.2601 22.3784C67.1341 23.0123 68.6499 23.6186 69.8073 24.1973C70.9924 24.776 72.012 25.6166 72.8664 26.7189C73.7207 27.8213 74.1479 29.2406 74.1479 30.9768C74.1479 32.6303 73.7207 34.1323 72.8664 35.4827C72.0396 36.8331 70.827 37.9079 69.2286 38.7071C67.6302 39.5063 65.7424 39.9059 63.5652 39.9059Z" fill="white"/>
<path d="M99.374 10.597V16.2603H91.685V39.6165H84.6162V16.2603H76.9272V10.597H99.374Z" fill="white"/>
<path d="M120.986 34.4906H110.156L108.42 39.6165H101.02L111.52 10.597H119.705L130.205 39.6165H122.723L120.986 34.4906ZM119.168 29.0339L115.571 18.4099L112.016 29.0339H119.168Z" fill="white"/>
<path d="M150.225 39.6165L140.469 26.8016V39.6165H133.401V10.597H140.469V23.3292L150.143 10.597H158.452L147.208 24.8174L158.865 39.6165H150.225Z" fill="white"/>
<path d="M169.293 16.2603V22.1304H178.76V27.587H169.293V33.9532H180V39.6165H162.224V10.597H180V16.2603H169.293Z" fill="white"/>
</svg>
