<svg width="78" height="28" viewBox="0 0 78 28" fill="none" xmlns="http://www.w3.org/2000/svg">
<path d="M23.6048 4.055C20.9919 1.43932 17.5209 0 13.8285 0C6.20291 0 0 6.20844 0 13.8396C0 21.4707 6.20291 27.6792 13.8285 27.6792C17.5209 27.6792 20.9947 26.2399 23.6048 23.6242C26.2177 21.0085 27.6543 17.5348 27.6543 13.8396C27.6543 10.1444 26.2177 6.66792 23.6048 4.055ZM13.8285 26.7215C6.73158 26.7215 0.9577 20.9421 0.9577 13.8396C0.9577 6.73711 6.73158 0.9577 13.8285 0.9577C20.9255 0.9577 26.6993 6.73711 26.6993 13.8396C26.6993 20.9421 20.9255 26.7215 13.8285 26.7215Z" fill="white"/>
<path d="M18.3679 14.1658C17.4822 13.3742 16.3224 12.8455 15.1986 12.3335L15.1903 12.3307C13.2085 11.4256 11.4952 10.6423 11.617 8.79052C11.6695 8.0847 12.1816 7.65844 12.6023 7.4287C13.0756 7.16852 13.704 7.01351 14.2852 7.01351C14.3544 7.01351 14.4236 7.01628 14.4901 7.01905C16.1813 7.13253 17.5154 7.84942 18.8191 9.33856L18.8966 9.42991L18.9879 9.3524L19.4972 8.90954L19.5886 8.82927L19.5083 8.73793C18.0551 7.07164 16.4774 6.23296 14.5482 6.10287C14.4651 6.09456 14.3766 6.0918 14.2797 6.0918C14.2216 6.0918 14.1579 6.0918 14.0915 6.09456H14.0084C12.7435 6.09456 11.3568 6.50975 10.3022 7.20727C9.04279 8.04041 8.33697 9.18633 8.3176 10.4347C8.26777 13.4711 10.7506 14.4924 12.94 15.3975L12.9456 15.4003L12.9677 15.4086C14.9052 16.2113 16.5771 16.9033 16.5411 18.7578C16.5245 19.9812 14.7751 20.6566 13.5739 20.6566H13.524H13.405V20.6594C11.6142 20.6068 10.0143 19.8345 8.64975 18.3703L8.56671 18.2817L8.47813 18.362L7.98268 18.8215L7.8941 18.9045L7.97714 18.9931C9.52718 20.6621 11.4398 21.5589 13.5102 21.5838H13.6043C14.9412 21.5838 16.3944 21.224 17.4905 20.6178C18.8634 19.8677 19.6633 18.7744 19.7463 17.5399C19.8404 16.1836 19.3893 15.0792 18.3679 14.1658ZM11.9408 11.5252C12.7297 12.2006 13.7981 12.685 14.8305 13.1528L14.8499 13.1611C15.9432 13.6648 16.9784 14.1409 17.7285 14.8024C18.5589 15.5332 18.9104 16.3801 18.8357 17.4679C18.7665 18.5447 17.9666 19.2643 17.2386 19.6989C17.3798 19.411 17.4573 19.0982 17.4656 18.7661C17.4822 17.6479 17.0531 16.7538 16.1508 16.0286C15.3619 15.3948 14.3157 14.9657 13.3026 14.5478C11.1962 13.6814 9.2061 12.8621 9.24208 10.443C9.25315 9.51294 9.81227 8.63275 10.817 7.96568C10.8502 7.94353 10.8835 7.92139 10.9194 7.89925C10.8004 8.15943 10.734 8.43069 10.7174 8.71578C10.6371 9.83679 11.0385 10.7557 11.9408 11.5252Z" fill="white"/>
<path d="M36.3179 12.3269C35.8142 12.3269 35.3187 12.2439 34.8343 12.0861C34.3527 11.9284 33.9375 11.6931 33.5943 11.3969L34.1673 10.4309C34.5326 10.6939 34.8925 10.8876 35.244 11.0233C35.59 11.1533 35.9415 11.2225 36.2847 11.2225C36.5892 11.2225 36.83 11.1672 37.0099 11.0509C37.1898 10.9347 37.2729 10.7741 37.2729 10.5527C37.2729 10.3396 37.1705 10.179 36.9629 10.0822C36.7553 9.98529 36.4176 9.86904 35.9553 9.73618C35.5623 9.62546 35.2301 9.52305 34.9561 9.42617C34.6793 9.32929 34.4607 9.21304 34.2863 9.08848C34.1202 8.96393 33.9956 8.81999 33.9209 8.65392C33.8462 8.48784 33.8047 8.29409 33.8047 8.06158C33.8047 7.75711 33.8656 7.48309 33.9846 7.23398C34.1008 6.99317 34.2669 6.77727 34.48 6.60566C34.6932 6.43405 34.9423 6.30119 35.2329 6.21261C35.5235 6.12404 35.8335 6.07422 36.1712 6.07422C36.6196 6.07422 37.0459 6.13511 37.4389 6.26797C37.832 6.39807 38.1973 6.60566 38.5212 6.90183L37.9012 7.83461C37.5967 7.60765 37.3005 7.43327 37.0127 7.33085C36.722 7.22014 36.4397 7.17308 36.1574 7.17308C35.8944 7.17308 35.6813 7.22844 35.5014 7.33085C35.3215 7.44157 35.2384 7.61318 35.2384 7.84845C35.2384 7.95917 35.2606 8.04221 35.2993 8.11141C35.3409 8.1806 35.4101 8.2415 35.4986 8.29686C35.5872 8.35222 35.7118 8.39927 35.8585 8.44909C36.0107 8.49615 36.1961 8.55151 36.4176 8.60133C36.83 8.71205 37.1843 8.81446 37.4805 8.92517C37.7766 9.03589 38.0174 9.15214 38.2057 9.29054C38.3911 9.42894 38.5295 9.58671 38.6181 9.76662C38.7066 9.94654 38.7482 10.1597 38.7482 10.4143C38.7482 11.0011 38.5267 11.4689 38.0922 11.8093C37.6604 12.1609 37.068 12.3269 36.3179 12.3269Z" fill="white"/>
<path d="M46.1773 9.60838H41.3722C41.4552 10.0568 41.6766 10.4166 42.0337 10.6851C42.3935 10.9481 42.8336 11.0781 43.3568 11.0781C44.0321 11.0781 44.5829 10.8567 45.0175 10.4083L45.7842 11.2913C45.5074 11.6234 45.1642 11.8698 44.7435 12.0358C44.3228 12.2019 43.8467 12.2905 43.3235 12.2905C42.6482 12.2905 42.0558 12.1604 41.5438 11.8891C41.0345 11.6207 40.6331 11.247 40.3563 10.7709C40.074 10.2948 39.9356 9.74955 39.9356 9.14891C39.9356 8.54827 40.074 8.01683 40.3425 7.53521C40.611 7.05913 40.9902 6.68546 41.4746 6.41697C41.9562 6.14849 42.5015 6.01562 43.1021 6.01562C43.7027 6.01562 44.2342 6.14572 44.702 6.40867C45.1697 6.67162 45.5351 7.04252 45.8064 7.5186C46.0693 7.99469 46.1994 8.55381 46.1994 9.17382C46.1966 9.28454 46.1911 9.42016 46.1773 9.60838ZM41.9368 7.5712C41.6185 7.83968 41.4275 8.20505 41.3583 8.65345H44.8348C44.7739 8.21058 44.5857 7.85352 44.2702 7.57673C43.9519 7.29994 43.5671 7.16154 43.0966 7.16154C42.6399 7.15878 42.2524 7.2944 41.9368 7.5712Z" fill="white"/>
<path d="M49.1279 11.8931C48.6241 11.6246 48.2311 11.2509 47.9488 10.7748C47.6664 10.2987 47.5225 9.75345 47.5225 9.15281C47.5225 8.54664 47.6664 8.0069 47.9488 7.53081C48.2311 7.05473 48.6241 6.68106 49.1279 6.42088C49.6316 6.15239 50.2046 6.01953 50.844 6.01953C51.4502 6.01953 51.9761 6.14409 52.43 6.3849C52.8839 6.63401 53.2299 6.98554 53.4569 7.43947L52.3525 8.08163C52.1726 7.7993 51.9595 7.58341 51.691 7.44778C51.428 7.30385 51.1402 7.23465 50.8218 7.23465C50.2849 7.23465 49.842 7.40626 49.4905 7.76055C49.139 8.10654 48.959 8.57432 48.959 9.15558C48.959 9.73408 49.1306 10.2046 49.4822 10.5506C49.8282 10.9021 50.2738 11.0765 50.8191 11.0765C51.1291 11.0765 51.4197 11.0073 51.6882 10.8634C51.9512 10.7195 52.1698 10.5119 52.3497 10.2295L53.4541 10.8717C53.2189 11.3339 52.8673 11.6855 52.4134 11.9346C51.9595 12.1837 51.4336 12.3082 50.8357 12.3082C50.1963 12.2944 49.6316 12.1615 49.1279 11.8931Z" fill="white"/>
<path d="M58.6855 6.01367V7.38102C58.5609 7.36165 58.4502 7.34781 58.3533 7.34781C57.7942 7.34781 57.3596 7.51388 57.0441 7.83773C56.7258 8.16158 56.5763 8.63212 56.5763 9.2466V12.2221H55.1425V6.08287H56.5071V6.97968C56.9196 6.33752 57.6447 6.01367 58.6855 6.01367Z" fill="white"/>
<path d="M65.9402 9.60838H61.1351C61.2181 10.0568 61.4395 10.4166 61.7966 10.6851C62.1564 10.9481 62.5965 11.0781 63.1197 11.0781C63.795 11.0781 64.3458 10.8567 64.7804 10.4083L65.5471 11.2913C65.2703 11.6234 64.9271 11.8698 64.5064 12.0358C64.0857 12.2019 63.6096 12.2905 63.0864 12.2905C62.4111 12.2905 61.8187 12.1604 61.3067 11.8891C60.7974 11.6207 60.396 11.247 60.1192 10.7709C59.8369 10.2948 59.6985 9.74955 59.6985 9.14891C59.6985 8.54827 59.8369 8.01683 60.1054 7.53521C60.3739 7.05913 60.7531 6.68546 61.2375 6.41697C61.7191 6.14849 62.2644 6.01562 62.865 6.01562C63.4657 6.01562 63.9971 6.14572 64.4649 6.40867C64.9326 6.67162 65.298 7.04252 65.5693 7.5186C65.8322 7.99469 65.9623 8.55381 65.9623 9.17382C65.9679 9.28454 65.9595 9.42016 65.9402 9.60838ZM61.7053 7.5712C61.3869 7.83968 61.196 8.20505 61.1268 8.65345H64.6033C64.5424 8.21058 64.3542 7.85352 64.0386 7.57673C63.7203 7.29994 63.3356 7.16154 62.865 7.16154C62.4083 7.15878 62.0236 7.2944 61.7053 7.5712Z" fill="white"/>
<path d="M71.476 11.878C71.3099 12.0164 71.1023 12.1189 70.8615 12.1881C70.6207 12.2573 70.3661 12.2905 70.0948 12.2905C69.4194 12.2905 68.9019 12.1106 68.5365 11.759C68.1711 11.4075 67.9857 10.8954 67.9857 10.2201V7.2667H66.9781V6.12908H67.9857V4.72852H69.4195V6.12908H71.0608V7.275H69.4195V10.1952C69.4195 10.4913 69.4942 10.7211 69.6409 10.8788C69.7848 11.0366 70.0007 11.1141 70.2747 11.1141C70.5986 11.1141 70.8615 11.0311 71.0747 10.8595L71.476 11.878Z" fill="white"/>
<path d="M38.6541 16.176C39.1025 16.6189 39.3239 17.2583 39.3239 18.1025V21.6094H38.5101V18.1855C38.5101 17.5572 38.3524 17.0811 38.0424 16.749C37.7241 16.4168 37.284 16.2508 36.6972 16.2508C36.0495 16.2508 35.5319 16.4445 35.1527 16.8292C34.7735 17.2168 34.588 17.7482 34.588 18.4291V21.5956H33.7742V15.5615H34.5548V16.6715C34.7762 16.3061 35.0862 16.0155 35.4793 15.8162C35.8723 15.6169 36.3263 15.5117 36.8522 15.5117C37.605 15.5145 38.2057 15.7359 38.6541 16.176Z" fill="white"/>
<path d="M46.7281 18.8347H41.6794C41.7265 19.463 41.97 19.9668 42.4046 20.3543C42.8392 20.7418 43.39 20.9328 44.0598 20.9328C44.4335 20.9328 44.7767 20.8636 45.095 20.7335C45.405 20.6034 45.6818 20.4013 45.9088 20.1411L46.371 20.6726C46.1025 20.9964 45.7704 21.2372 45.3635 21.4116C44.9649 21.5777 44.5221 21.6663 44.0404 21.6663C43.4204 21.6663 42.8751 21.5362 42.3935 21.2732C41.9174 21.0103 41.5465 20.6449 41.2753 20.1771C41.0068 19.7066 40.8767 19.1834 40.8767 18.5911C40.8767 18.0043 41.0068 17.4729 41.2642 17.0051C41.5189 16.5345 41.8704 16.1775 42.3188 15.9145C42.7672 15.6516 43.271 15.5215 43.8301 15.5215C44.3892 15.5215 44.893 15.6516 45.3331 15.9145C45.7732 16.1775 46.1247 16.5345 46.3738 16.9968C46.6284 17.459 46.753 17.9905 46.753 18.5828L46.7281 18.8347ZM42.3492 16.7781C41.9562 17.1518 41.7292 17.6334 41.6794 18.234H45.9614C45.906 17.6334 45.6846 17.1518 45.2915 16.7781C44.8985 16.4044 44.4086 16.219 43.8162 16.219C43.2322 16.219 42.7423 16.4044 42.3492 16.7781Z" fill="white"/>
<path d="M51.3145 21.237C51.1623 21.3754 50.9685 21.4778 50.7499 21.5554C50.5229 21.6301 50.2876 21.6661 50.0468 21.6661C49.4822 21.6661 49.0476 21.5138 48.7376 21.2038C48.4331 20.8994 48.2754 20.4648 48.2754 19.9057V16.2548H47.1986V15.5656H48.2754V14.248H49.0891V15.5656H50.9243V16.2548H49.0891V19.8642C49.0891 20.224 49.1777 20.498 49.3576 20.6862C49.5375 20.8717 49.7977 20.9686 50.1299 20.9686C50.2959 20.9686 50.462 20.9409 50.6198 20.8855C50.7776 20.8302 50.9104 20.7554 51.0267 20.6585L51.3145 21.237Z" fill="white"/>
<path d="M59.7955 15.6113H60.767L58.2233 21.6094H57.3901L56.1833 18.6837L54.9903 21.6094H54.1572L51.6107 15.6113H52.5767L54.6444 20.6074L55.6519 18.1163L54.6167 15.6252H55.4498L56.1889 17.5433L56.9279 15.6252H57.761L56.7341 18.1163L57.7417 20.6074L59.7955 15.6113Z" fill="white"/>
<path d="M64.0359 21.6876C63.6013 21.6876 63.2028 21.6046 62.8429 21.4385C62.4831 21.2724 62.1731 21.051 61.9046 20.7687C61.6417 20.4863 61.4368 20.1542 61.2901 19.7805C61.1462 19.4068 61.0687 19.0138 61.0687 18.6014C61.0687 18.1807 61.1434 17.7793 61.2901 17.4084C61.4424 17.0347 61.65 16.7054 61.9101 16.4203C62.1731 16.1379 62.4831 15.9082 62.8485 15.7449C63.2083 15.5788 63.6013 15.4902 64.0276 15.4902C64.4539 15.4902 64.8552 15.5733 65.2123 15.7449C65.5776 15.911 65.8876 16.1379 66.1506 16.4203C66.4135 16.7026 66.6184 17.0347 66.7706 17.4084C66.9228 17.7821 66.992 18.1807 66.992 18.6014C66.992 19.0166 66.9173 19.4096 66.7706 19.7805C66.6267 20.1542 66.4191 20.4836 66.1561 20.7687C65.8932 21.051 65.5776 21.2807 65.2178 21.4385C64.8718 21.6046 64.4705 21.6876 64.0359 21.6876ZM61.8631 18.6097C61.8631 18.9474 61.9184 19.2574 62.0347 19.548C62.1509 19.8386 62.3032 20.085 62.4969 20.3064C62.6907 20.5278 62.9232 20.6939 63.1862 20.8185C63.4491 20.943 63.7314 21.0039 64.0276 21.0039C64.3238 21.0039 64.6061 20.943 64.869 20.8185C65.132 20.6939 65.3645 20.5223 65.5666 20.3009C65.7659 20.0794 65.9264 19.8303 66.0343 19.5342C66.1506 19.2435 66.2059 18.928 66.2059 18.5958C66.2059 18.2637 66.1506 17.9537 66.0343 17.6575C65.9181 17.3613 65.7659 17.1067 65.5666 16.8853C65.3673 16.6638 65.1403 16.4922 64.869 16.3677C64.6061 16.2431 64.3238 16.1822 64.0276 16.1822C63.7314 16.1822 63.4491 16.2431 63.1945 16.3677C62.9315 16.4922 62.7045 16.6721 62.5052 16.8908C62.306 17.1122 62.1454 17.3752 62.0375 17.6631C61.9267 17.962 61.8631 18.272 61.8631 18.6097Z" fill="white"/>
<path d="M71.2989 16.3142C70.7675 16.3281 70.3135 16.472 69.9205 16.7488C69.5275 17.0256 69.2507 17.4048 69.0929 17.8864V21.6065H68.3123V15.625H69.0514V17.0616C69.2728 16.5993 69.569 16.2395 69.9482 15.9848C70.3218 15.7219 70.726 15.5918 71.155 15.5918C71.2159 15.5918 71.2657 15.6001 71.3072 15.6056V16.317H71.2989V16.3142Z" fill="white"/>
<path d="M77.1503 21.607L74.9443 18.5429L73.6627 19.7359V21.607H72.8822V13.2285H73.6627V18.9221L77.0202 15.6394H77.9032L75.4619 18.0834L78 21.6098H77.1503V21.607Z" fill="white"/>
</svg>
