<svg width="108" height="28" viewBox="0 0 108 28" fill="none" xmlns="http://www.w3.org/2000/svg">
<path d="M25.6746 0.116115H25.3263V0H26.1681V0.116115H25.8198V1.16115H25.6746V0.116115Z" fill="#119FED"/>
<path d="M27.3293 0.638633C27.3293 0.46446 27.3003 0.290288 27.3003 0.145144C27.2713 0.290288 27.2132 0.435431 27.1551 0.580575L26.9519 1.13212H26.8358L26.6617 0.580575C26.6036 0.435431 26.5746 0.290288 26.5455 0.145144C26.5455 0.290288 26.5455 0.493489 26.5165 0.667661L26.4875 1.16115H26.3423L26.4294 0H26.6326L26.8358 0.551546C26.8939 0.69669 26.9229 0.812805 26.9519 0.92892C26.981 0.812805 27.01 0.69669 27.0681 0.551546L27.2422 0H27.4454L27.5035 1.16115H27.3584L27.3293 0.638633Z" fill="#119FED"/>
<path d="M31.277 17.6782C31.9737 18.0846 32.9607 18.462 34.0057 18.462C35.5733 18.462 36.4732 17.6491 36.4732 16.459C36.4732 15.3559 35.8345 14.7172 34.238 14.1076C32.3221 13.4109 31.1319 12.424 31.1319 10.7693C31.1319 8.94052 32.6414 7.57617 34.9347 7.57617C36.1539 7.57617 37.0247 7.86646 37.5472 8.15675L37.1408 9.40498C36.7635 9.20178 35.9797 8.85344 34.9056 8.85344C33.309 8.85344 32.6704 9.81139 32.6704 10.6242C32.6704 11.7273 33.3961 12.2788 35.0217 12.8884C37.0247 13.6722 38.0407 14.6302 38.0407 16.3429C38.0407 18.1717 36.7054 19.7392 33.9186 19.7392C32.7865 19.7392 31.5383 19.4199 30.8997 18.9845L31.277 17.6782Z" fill="#E8E8E8"/>
<path d="M47.3878 13.9912H42.8012V18.2584H47.9103V19.5357H41.2627V7.75H47.62V9.02726H42.8012V12.7429H47.3878V13.9912Z" fill="#E8E8E8"/>
<path d="M51.0457 19.5357V7.75H52.7004L56.4741 13.7299C57.345 15.1233 58.0416 16.3425 58.5932 17.5617L58.6222 17.5327C58.4771 15.9651 58.448 14.5137 58.448 12.6849V7.75H59.8705V19.5357H58.3319L54.5872 13.5557C53.7744 12.2495 52.9906 10.8851 52.381 9.60784L52.323 9.63687C52.4101 11.1173 52.4391 12.5397 52.4391 14.5137V19.5647L51.0457 19.5357Z" fill="#E8E8E8"/>
<path d="M65.9954 9.02895H62.3958V7.72266H71.1335V9.02895H67.5339V19.5374H65.9954V9.02895Z" fill="#E8E8E8"/>
<path d="M75.1392 7.75V19.5357H73.6297V7.75H75.1392Z" fill="#E8E8E8"/>
<path d="M78.9711 19.5357V7.75H80.6258L84.3995 13.7299C85.2704 15.1233 85.9671 16.3425 86.5186 17.5617L86.5476 17.5327C86.4025 15.9651 86.3735 14.5137 86.3735 12.6849V7.75H87.7959V19.5357H86.2573L82.5126 13.5557C81.6998 12.2495 80.9161 10.8851 80.3065 9.60784L80.2484 9.63687C80.3355 11.1173 80.3645 12.5397 80.3645 14.5137V19.5647L78.9711 19.5357Z" fill="#E8E8E8"/>
<path d="M97.7821 13.9912H93.1956V18.2584H98.3046V19.5357H91.657V7.75H98.0143V9.02726H93.1665V12.7429H97.7531V13.9912H97.7821Z" fill="#E8E8E8"/>
<path d="M101.439 7.75H102.949V18.2584H108V19.5357H101.439V7.75Z" fill="#E8E8E8"/>
<path d="M23.2632 2.90234V12.149C23.2632 14.0742 23.4383 17.662 21.8048 20.4331C19.7046 23.9626 15.8834 26.6462 12.1497 26.967C8.41605 26.617 4.59487 23.9334 2.49468 20.4039C0.861196 17.662 1.03621 14.045 1.03621 12.1199V2.90234H23.2632Z" fill="#142D51"/>
<path d="M23.2908 2.90234V12.1782C23.2908 14.1034 23.4658 17.7204 21.8032 20.4623C19.703 23.9918 15.8526 26.6753 12.1481 26.9962C8.41446 26.6753 4.56411 23.9918 2.46392 20.4623C0.830434 17.6912 1.00545 14.1034 1.00545 12.1782V2.90234H23.2908Z" stroke="#00B6FA" stroke-width="0.71844" stroke-miterlimit="10"/>
<path d="M17.4618 20.4475L16.4257 19.6704C16.1378 19.9582 15.8212 20.246 15.4758 20.4763L16.4832 21.2246V21.311C17.4906 20.5339 18.3541 19.5553 19.0161 18.4327C19.3615 17.7995 19.6205 17.1375 19.7644 16.4468V16.418C19.6205 17.1087 19.3615 17.8283 18.9873 18.4327C18.5843 19.1811 18.0663 19.8431 17.4618 20.4475Z" fill="#00B6FA"/>
<path d="M17.4628 20.4475L16.4266 19.6704C16.1388 19.9582 15.8116 20.2539 15.4662 20.4841L16.4842 21.2246V21.311C17.4916 20.5339 18.3551 19.5553 19.017 18.4327C19.3624 17.7995 19.6215 17.1375 19.7654 16.4468V16.418C19.6215 17.1087 19.3624 17.8283 18.9883 18.4327C18.5853 19.1811 18.0672 19.8431 17.4628 20.4475Z" fill="#00B6FA"/>
<path d="M15.4774 22.002C14.4125 22.6352 13.29 23.0381 12.1387 23.1533C13.2612 23.0669 14.4125 22.6352 15.4774 22.002Z" fill="#142D51"/>
<path d="M15.4774 22.002C14.4125 22.6352 13.29 23.0381 12.1387 23.1533C13.2612 23.0669 14.4125 22.6352 15.4774 22.002Z" fill="url(#paint0_linear)"/>
<path d="M7.38806 5.74023L9.11501 7.03544H11.101L9.37405 5.74023H7.38806Z" fill="#00B6FA"/>
<path d="M7.38806 5.74023L9.11501 7.03544H11.101L9.37405 5.74023H7.38806Z" fill="#00B6FA"/>
<path d="M6.12383 5.74219H4.16663V10.4913L16.428 19.6729C17.9534 18.1474 18.7593 16.3629 18.8457 15.9887C18.9032 15.7873 18.9608 15.7297 19.0759 15.7297C19.2774 15.7297 19.5365 15.9887 19.7955 16.3053V16.4205C19.8818 16.0751 19.9394 15.7297 19.9682 15.4131V15.154L9.11721 7.0374H6.12383V5.74219Z" fill="#00B6FA"/>
<path d="M6.12383 5.74219H4.16663V10.4913L16.428 19.6729C17.9788 18.2626 18.8423 16.3917 18.8457 15.9887C18.9032 15.7873 18.9608 15.7297 19.0759 15.7297C19.2774 15.7297 19.5365 15.9887 19.7955 16.3053V16.4205C19.8818 16.0751 19.9394 15.7297 19.9682 15.4131V15.154L9.11721 7.0374H6.12383V5.74219Z" fill="#00B6FA"/>
<path d="M19.0729 15.7266C18.9578 15.7266 18.9002 15.7841 18.8427 15.9856C18.7851 16.3598 17.9792 18.1731 16.4249 19.6698L17.4611 20.4469C18.0655 19.8425 18.5836 19.1805 19.0153 18.4321C19.3895 17.7989 19.6486 17.1081 19.7925 16.4173V16.3022C19.5334 15.9856 19.2744 15.7266 19.0729 15.7266Z" fill="#00B6FA"/>
<path d="M19.0729 15.7266C18.9578 15.7266 18.9002 15.7841 18.8427 15.9856C18.7851 16.3598 17.9792 18.1731 16.4249 19.6698L17.4611 20.4469C18.0655 19.8425 18.5836 19.1805 19.0153 18.4321C19.3895 17.7989 19.6486 17.1081 19.7925 16.4173V16.3022C19.5334 15.9856 19.2744 15.7266 19.0729 15.7266Z" fill="#00B6FA"/>
<path d="M19.0729 15.7266C18.9578 15.7266 18.9002 15.7841 18.8427 15.9856C18.7851 16.3598 17.9792 18.1731 16.4249 19.6698L17.4611 20.4469C18.0655 19.8425 18.5836 19.1805 19.0153 18.4321C19.3895 17.7989 19.6486 17.1081 19.7925 16.4173V16.3022C19.5334 15.9856 19.2744 15.7266 19.0729 15.7266Z" fill="#00B6FA"/>
<path d="M6.12256 5.74023V7.03544H9.11593L7.38899 5.74023H6.12256Z" fill="#00B6FA"/>
<path d="M6.12256 5.74023V7.03544H9.11593L7.38899 5.74023H6.12256Z" fill="#00B6FA"/>
<path d="M6.12256 5.74023V7.03544H9.11593L7.38899 5.74023H6.12256Z" fill="#00B6FA"/>
<path d="M20.0525 5.74023H19.9661H18.7861V7.03545H11.1011L20.0525 13.7418C20.0525 13.2525 20.0525 12.7919 20.0525 12.4178V5.74023Z" fill="#00B6FA"/>
<path d="M20.0525 5.74023H19.9661H18.7861V7.03545H11.1011L20.0525 13.7418C20.0525 13.2525 20.0525 12.7919 20.0525 12.4178V5.74023Z" fill="#00B6FA"/>
<path d="M18.786 5.74023H9.37415L11.1011 7.03544H18.786V5.74023Z" fill="#00B6FA"/>
<path d="M18.786 5.74023H9.37415L11.1011 7.03544H18.786V5.74023Z" fill="#00B6FA"/>
<path d="M18.786 5.74023H9.37415L11.1011 7.03544H18.786V5.74023Z" fill="#00B6FA"/>
<path d="M15.5338 21.9727C15.5048 21.9727 15.5048 22.0016 15.4758 22.0016C15.4758 22.0016 15.5048 22.0016 15.5338 21.9727Z" fill="#142D51"/>
<path d="M15.5338 21.9727C15.5048 21.9727 15.5048 22.0016 15.4758 22.0016C15.4758 22.0016 15.5048 22.0016 15.5338 21.9727Z" fill="url(#paint1_linear)"/>
<path d="M12.569 21.8002C13.6915 21.5987 14.6701 21.1094 15.5048 20.505L4.16451 12.043V12.4459C4.16451 13.8275 4.04938 16.4467 5.22946 18.4327C6.52467 20.6777 8.7697 22.4047 11.1011 22.9803C10.6981 22.5486 10.9284 22.088 12.569 21.8002Z" fill="#00B6FA"/>
<path d="M12.569 21.8002C13.8036 21.7139 14.6701 21.1094 15.5048 20.505L4.16451 12.043V12.4459C4.16451 13.8275 4.04938 16.4467 5.22946 18.4327C6.52467 20.6777 8.7697 22.4047 11.1011 22.9803C10.6981 22.5486 10.9284 22.088 12.569 21.8002Z" fill="#00B6FA"/>
<path d="M15.504 20.5059C14.6693 21.1103 13.7194 21.5996 12.5681 21.8011C10.9275 22.0889 10.6973 22.5494 11.1002 22.9812C11.2154 23.0099 11.3305 23.0387 11.4456 23.0387C11.6759 23.0963 11.9062 23.1251 12.1364 23.1538C13.2589 23.0387 14.4102 22.6358 15.4752 22.0025C15.504 22.0025 15.504 21.9738 15.5327 21.9738C15.6479 21.9162 15.763 21.8299 15.8781 21.7435C16.1084 21.5996 16.3099 21.4269 16.5401 21.283V21.2542L15.504 20.5059Z" fill="#00B6FA"/>
<path d="M15.504 20.5059C14.6693 21.1103 13.7194 21.5996 12.5681 21.8011C10.9275 22.0889 10.6973 22.5494 11.1002 22.9812C11.2154 23.0099 11.3305 23.0387 11.4456 23.0387C11.6759 23.0963 11.9062 23.1251 12.1364 23.1538C13.2589 23.0387 14.4102 22.6358 15.4752 22.0025C15.504 22.0025 15.504 21.9738 15.5327 21.9738C15.6479 21.9162 15.763 21.8299 15.8781 21.7435C16.1084 21.5996 16.3099 21.4112 16.5401 21.2673V21.2542L15.504 20.5059Z" fill="#00B6FA"/>
<path d="M15.504 20.5059C14.6693 21.1103 13.7194 21.5996 12.5681 21.8011C10.9275 22.0889 10.6973 22.5494 11.1002 22.9812C11.2154 23.0099 11.3305 23.0387 11.4456 23.0387C11.6759 23.0963 11.9062 23.1251 12.1364 23.1538C13.2589 23.0387 14.4102 22.6358 15.4752 22.0025C15.504 22.0025 15.504 21.9738 15.5327 21.9738C15.6479 21.9162 15.763 21.8299 15.8781 21.7435C16.1084 21.5996 16.3099 21.411 16.5401 21.2671V21.2542L15.504 20.5059Z" fill="#00B6FA"/>
<defs>
<linearGradient id="paint0_linear" x1="10.942" y1="22.5838" x2="20.5456" y2="22.5838" gradientUnits="userSpaceOnUse">
<stop stop-color="#01AAE4"/>
<stop offset="1" stop-color="#1F96F4"/>
</linearGradient>
<linearGradient id="paint1_linear" x1="-11.8012" y1="22" x2="22.4708" y2="22" gradientUnits="userSpaceOnUse">
<stop stop-color="#01AAE4"/>
<stop offset="1" stop-color="#1F96F4"/>
</linearGradient>
</defs>
</svg>
