<svg width="142" height="17" viewBox="0 0 142 17" fill="none" xmlns="http://www.w3.org/2000/svg">
<path d="M12.1201 16.4539H15.3337L8.92936 1.14315H6.58798L0 16.4539H3.2366L4.59093 13.2402H10.7657L12.1201 16.4539ZM5.53207 10.8071L7.71276 5.29794L9.89345 10.8071H5.53207Z" fill="white"/>
<path d="M16.6281 1.14315V10.5086C16.6281 11.9548 16.8577 13.4239 17.7759 14.5946C18.8777 16.0407 20.8059 16.7982 22.78 16.7982C24.7541 16.7982 26.6823 16.0407 27.7841 14.5946C28.7023 13.4239 28.9318 11.9548 28.9318 10.5086V1.14315H25.9477V10.7611C25.9477 11.9318 25.5575 12.6434 25.2132 13.0337C24.777 13.5616 23.9736 14.0896 22.78 14.0896C21.5863 14.0896 20.7829 13.5616 20.3468 13.0337C20.0025 12.6434 19.6122 11.9318 19.6122 10.7611V1.14315H16.6281Z" fill="white"/>
<path d="M31.1005 16.4539H42.2105V13.883H36.6785L39.3183 11.0136C40.5119 9.72819 42.0958 8.02954 42.0958 5.66521C42.0958 3.23202 40.2594 0.798828 36.7014 0.798828C33.6714 0.798828 31.4678 2.79588 31.33 5.91771H34.406C34.4519 4.6093 35.2782 3.36975 36.8392 3.36975C38.1246 3.36975 39.1117 4.31089 39.1117 5.68817C39.1117 6.5834 38.6296 7.52454 38.2164 8.14431C37.6655 8.97068 35.8751 11.0136 35.5996 11.335L31.1005 16.4539Z" fill="white"/>
<path d="M46.5913 16.4539H49.5754V1.14315H44.3876V3.71407H46.5913V16.4539Z" fill="white"/>
<path d="M72.6163 12.4139C71.7211 13.4698 70.4586 14.0896 69.0354 14.0896C66.4644 14.0896 63.8476 12.2532 63.8476 8.85591C63.8476 6.03249 65.8447 3.50748 68.9206 3.50748C69.4715 3.50748 71.2161 3.62225 72.6163 5.22907V1.73997C71.2161 0.982466 69.9306 0.798828 68.8517 0.798828C66.671 0.798828 64.7658 1.37269 63.2278 2.81884C61.9194 4.03543 60.7717 6.03249 60.7717 8.81C60.7717 11.0596 61.4603 12.9648 63.2278 14.6634C64.5133 15.88 66.1431 16.7982 68.8288 16.7982C70.4815 16.7982 71.6981 16.385 72.6163 15.903V12.4139Z" fill="white"/>
<path d="M85.7811 16.4539H88.9948L82.5904 1.14315H80.2491L73.6611 16.4539H76.8977L78.252 13.2402H84.4268L85.7811 16.4539ZM79.1932 10.8071L81.3738 5.29794L83.5545 10.8071H79.1932Z" fill="white"/>
<path d="M90.7824 1.14315V16.4539H93.7665V10.7841H95.6947C97.4622 10.7841 98.7247 10.2791 99.574 9.42977C100.745 8.25909 100.837 6.60635 100.837 6.00953C100.837 4.90771 100.515 3.41566 99.2756 2.31383C98.1508 1.32679 96.9572 1.14315 95.2356 1.14315H90.7824ZM93.7665 3.71407H94.7994C95.511 3.71407 96.2915 3.75998 96.9113 4.19612C97.3474 4.51748 97.7606 5.09135 97.7606 5.94067C97.7606 6.60635 97.4851 7.29499 96.9342 7.73113C96.2915 8.21318 95.5569 8.21318 94.9831 8.21318H93.7665V3.71407Z" fill="white"/>
<path d="M103.044 1.14315V16.4539H106.028V1.14315H103.044Z" fill="white"/>
<path d="M117.786 3.71407V1.14315H107.916V3.71407H111.359V16.4539H114.343V3.71407H117.786Z" fill="white"/>
<path d="M129.202 16.4539H132.416L126.011 1.14315H123.67L117.082 16.4539H120.319L121.673 13.2402H127.848L129.202 16.4539ZM122.614 10.8071L124.795 5.29794L126.976 10.8071H122.614Z" fill="white"/>
<path d="M134.203 1.14315V16.4539H141.916V13.883H137.188V1.14315H134.203Z" fill="white"/>
</svg>
