<svg width="176" height="50" viewBox="0 0 176 50" fill="none" xmlns="http://www.w3.org/2000/svg">
<path fill-rule="evenodd" clip-rule="evenodd" d="M70.8341 28.6136C71.3209 28.6136 71.6831 28.4631 71.9208 28.1618C72.1582 27.8607 72.2771 27.4266 72.2771 26.8596V20.4815C72.2771 19.9145 72.1582 19.4805 71.9208 19.1793C71.6831 18.878 71.3149 18.7275 70.8166 18.7275H69.3562V28.6136H70.8341ZM70.8515 17.4697C71.8017 17.4697 72.5002 17.7443 72.9465 18.2935C73.3927 18.8428 73.6159 19.5957 73.6159 20.5524V26.8065C73.6159 27.7631 73.3927 28.5133 72.9465 29.0565C72.5002 29.5999 71.8017 29.8714 70.8515 29.8714H68V17.4697H70.8515Z" fill="white"/>
<path fill-rule="evenodd" clip-rule="evenodd" d="M78.9628 26.9356C78.9628 27.5026 79.0816 27.9427 79.3193 28.2554C79.5567 28.5685 79.919 28.725 80.406 28.725C80.9041 28.725 81.2693 28.5685 81.5012 28.2554C81.7331 27.9427 81.849 27.5026 81.849 26.9356V20.3804C81.849 19.8134 81.7331 19.3736 81.5012 19.0606C81.2693 18.7477 80.9041 18.591 80.406 18.591C79.919 18.591 79.5567 18.7477 79.3193 19.0606C79.0816 19.3736 78.9628 19.8134 78.9628 20.3804V26.9356ZM77.624 20.4513C77.624 19.4945 77.8527 18.7357 78.3108 18.1747C78.7686 17.6139 79.467 17.333 80.406 17.333C81.3448 17.333 82.0459 17.6139 82.5097 18.1747C82.9733 18.7357 83.2052 19.4945 83.2052 20.4513V26.8646C83.2052 27.8099 82.9733 28.5657 82.5097 29.1325C82.0459 29.6994 81.3448 29.983 80.406 29.983C79.467 29.983 78.7686 29.6994 78.3108 29.1325C77.8527 28.5657 77.624 27.8099 77.624 26.8646V20.4513Z" fill="white"/>
<path fill-rule="evenodd" clip-rule="evenodd" d="M89.3165 24.4856L88.6037 25.7081V29.8715H87.2476V17.4697H88.6037V23.458L91.8376 17.4697H93.2112L90.1336 23.1214L93.3155 29.8715H91.9246L89.3165 24.4856Z" fill="white"/>
<mask id="mask0" mask-type="alpha" maskUnits="userSpaceOnUse" x="68" y="17" width="108" height="13">
<path d="M68 29.984H175.936V17.334H68V29.984Z" fill="white"/>
</mask>
<g mask="url(#mask0)">
<path fill-rule="evenodd" clip-rule="evenodd" d="M97.1387 29.8715H98.4948V17.4697H97.1387V29.8715Z" fill="white"/>
<path fill-rule="evenodd" clip-rule="evenodd" d="M104.113 26.1865H106.825L105.452 19.0287L104.113 26.1865ZM103.939 27.3735L103.47 29.8715H102.218L104.548 17.4697H106.512L108.842 29.8715H107.486L107.017 27.3735H103.939Z" fill="white"/>
<path fill-rule="evenodd" clip-rule="evenodd" d="M120.853 17.333C121.792 17.333 122.484 17.6166 122.931 18.1834C123.377 18.7503 123.6 19.5064 123.6 20.4513V21.5675H122.314V20.3804C122.314 19.8134 122.201 19.3736 121.975 19.0606C121.748 18.7477 121.386 18.591 120.888 18.591C120.401 18.591 120.042 18.7477 119.81 19.0606C119.578 19.3736 119.462 19.8134 119.462 20.3804V26.9356C119.462 27.5026 119.578 27.9425 119.81 28.2554C120.042 28.5685 120.401 28.725 120.888 28.725C121.386 28.725 121.748 28.5685 121.975 28.2554C122.201 27.9425 122.314 27.5026 122.314 26.9356V25.3234H123.6V26.8646C123.6 27.8099 123.377 28.5657 122.931 29.1325C122.484 29.6994 121.792 29.983 120.853 29.983C119.926 29.983 119.239 29.6994 118.793 29.1325C118.347 28.5657 118.124 27.8099 118.124 26.8646V20.4513C118.124 19.979 118.178 19.5508 118.289 19.1668C118.399 18.783 118.567 18.4553 118.793 18.1834C119.019 17.9119 119.303 17.7024 119.645 17.5546C119.987 17.407 120.389 17.333 120.853 17.333Z" fill="white"/>
<path fill-rule="evenodd" clip-rule="evenodd" d="M129.108 26.1865H131.82L130.447 19.0287L129.108 26.1865ZM128.934 27.3735L128.465 29.8715H127.213L129.543 17.4697H131.507L133.837 29.8715H132.481L132.012 27.3735H128.934Z" fill="white"/>
<path fill-rule="evenodd" clip-rule="evenodd" d="M140.328 23.7415C140.838 23.7415 141.215 23.6146 141.458 23.3606C141.702 23.1068 141.824 22.6785 141.824 22.0761V20.4286C141.824 19.8616 141.716 19.4363 141.502 19.1529C141.287 18.8695 140.931 18.7275 140.433 18.7275H139.129V23.7415H140.328ZM140.433 17.4697C141.394 17.4697 142.09 17.7386 142.519 18.2759C142.948 18.8135 143.162 19.5546 143.162 20.4993V21.9875C143.162 22.9796 142.933 23.727 142.475 24.2287C142.018 24.7309 141.302 24.9816 140.328 24.9816H139.129V29.8715H137.772V17.4697H140.433Z" fill="white"/>
<path fill-rule="evenodd" clip-rule="evenodd" d="M146.996 29.8715H148.352V17.4697H146.996V29.8715Z" fill="white"/>
<path fill-rule="evenodd" clip-rule="evenodd" d="M154.317 29.8715V18.7277H152.075V17.4697H157.916V18.7277H155.674V29.8715H154.317Z" fill="white"/>
<path fill-rule="evenodd" clip-rule="evenodd" d="M162.524 26.1865H165.237L163.863 19.0287L162.524 26.1865ZM162.351 27.3735L161.881 29.8715H160.629L162.959 17.4697H164.924L167.254 29.8715H165.898L165.428 27.3735H162.351Z" fill="white"/>
<path fill-rule="evenodd" clip-rule="evenodd" d="M171.055 29.8715V17.4697H172.411V28.6137H175.888V29.8715H171.055Z" fill="white"/>
</g>
<path fill-rule="evenodd" clip-rule="evenodd" d="M33.4322 8.15273C32.4119 7.73013 31.2423 8.21461 30.8197 9.23484C30.3971 10.2551 30.8816 11.4247 31.9018 11.8473C32.9221 12.2699 34.0917 11.7854 34.5143 10.7652C34.9369 9.74495 34.4524 8.57532 33.4322 8.15273Z" fill="white"/>
<path fill-rule="evenodd" clip-rule="evenodd" d="M35.2528 11.9188C34.4717 12.6998 34.4717 13.9662 35.2528 14.7472C36.0338 15.5283 37.3002 15.5283 38.0812 14.7472C38.8623 13.9662 38.8623 12.6998 38.0812 11.9188C37.3002 11.1377 36.0338 11.1377 35.2528 11.9188Z" fill="white"/>
<path fill-rule="evenodd" clip-rule="evenodd" d="M38.1527 18.7652C38.5753 19.7854 39.745 20.2699 40.7652 19.8473C41.7854 19.4247 42.2699 18.2551 41.8473 17.2348C41.4247 16.2146 40.2551 15.7301 39.2348 16.1527C38.2146 16.5753 37.7301 17.745 38.1527 18.7652Z" fill="white"/>
<path fill-rule="evenodd" clip-rule="evenodd" d="M40.667 21.333C39.5624 21.333 38.667 22.2284 38.667 23.333C38.667 24.4376 39.5624 25.333 40.667 25.333C41.7716 25.333 42.667 24.4376 42.667 23.333C42.667 22.2284 41.7716 21.333 40.667 21.333Z" fill="white"/>
<path fill-rule="evenodd" clip-rule="evenodd" d="M41.8473 30.0992C42.2699 29.0789 41.7854 27.9093 40.7652 27.4867C39.745 27.0641 38.5753 27.5486 38.1527 28.5688C37.7301 29.589 38.2146 30.7587 39.2348 31.1813C40.2551 31.6039 41.4247 31.1194 41.8473 30.0992Z" fill="white"/>
<path fill-rule="evenodd" clip-rule="evenodd" d="M35.2528 31.9178C34.4717 32.6989 34.4717 33.9652 35.2528 34.7463C36.0338 35.5273 37.3002 35.5273 38.0812 34.7463C38.8623 33.9652 38.8623 32.6989 38.0812 31.9178C37.3002 31.1368 36.0338 31.1368 35.2528 31.9178Z" fill="white"/>
<path fill-rule="evenodd" clip-rule="evenodd" d="M31.9018 34.8187C30.8816 35.2413 30.3971 36.411 30.8197 37.4312C31.2423 38.4514 32.4119 38.9359 33.4322 38.5133C34.4524 38.0907 34.9369 36.9211 34.5143 35.9009C34.0917 34.8806 32.9221 34.3961 31.9018 34.8187Z" fill="white"/>
<path fill-rule="evenodd" clip-rule="evenodd" d="M26.6665 35.334C25.5619 35.334 24.6665 36.2294 24.6665 37.334C24.6665 38.4386 25.5619 39.334 26.6665 39.334C27.7711 39.334 28.6665 38.4386 28.6665 37.334C28.6665 36.2294 27.7711 35.334 26.6665 35.334Z" fill="white"/>
<path fill-rule="evenodd" clip-rule="evenodd" d="M23.1808 37.4312C23.6034 36.411 23.1189 35.2413 22.0987 34.8187C21.0785 34.3962 19.9088 34.8806 19.4862 35.9009C19.0636 36.9211 19.5481 38.0907 20.5683 38.5133C21.5886 38.9359 22.7582 38.4514 23.1808 37.4312Z" fill="white"/>
<path fill-rule="evenodd" clip-rule="evenodd" d="M18.0807 34.7463C18.8618 33.9652 18.8618 32.6989 18.0807 31.9178C17.2997 31.1368 16.0333 31.1368 15.2523 31.9178C14.4712 32.6989 14.4712 33.9652 15.2523 34.7463C16.0333 35.5273 17.2997 35.5273 18.0807 34.7463Z" fill="white"/>
<path fill-rule="evenodd" clip-rule="evenodd" d="M15.1808 28.5688C14.7582 27.5486 13.5886 27.0641 12.5683 27.4867C11.5481 27.9093 11.0636 29.0789 11.4862 30.0992C11.9088 31.1194 13.0784 31.6039 14.0987 31.1813C15.1189 30.7587 15.6034 29.5891 15.1808 28.5688Z" fill="white"/>
<path fill-rule="evenodd" clip-rule="evenodd" d="M10.6665 23.333C10.6665 24.4376 11.5619 25.333 12.6665 25.333C13.7711 25.333 14.6665 24.4376 14.6665 23.333C14.6665 22.2284 13.7711 21.333 12.6665 21.333C11.5619 21.333 10.6665 22.2284 10.6665 23.333Z" fill="white"/>
<path fill-rule="evenodd" clip-rule="evenodd" d="M11.4862 17.2348C11.0636 18.2551 11.5481 19.4247 12.5683 19.8473C13.5886 20.2699 14.7582 19.7854 15.1808 18.7652C15.6034 17.745 15.1189 16.5753 14.0987 16.1527C13.0784 15.7301 11.9088 16.2146 11.4862 17.2348Z" fill="white"/>
<path fill-rule="evenodd" clip-rule="evenodd" d="M18.0807 14.7472C18.8618 13.9662 18.8618 12.6999 18.0807 11.9188C17.2997 11.1377 16.0333 11.1377 15.2523 11.9188C14.4712 12.6999 14.4712 13.9662 15.2523 14.7472C16.0333 15.5283 17.2997 15.5283 18.0807 14.7472Z" fill="white"/>
<path fill-rule="evenodd" clip-rule="evenodd" d="M22.0987 11.8473C23.1189 11.4247 23.6034 10.2551 23.1808 9.23484C22.7582 8.21462 21.5886 7.73013 20.5683 8.15273C19.5481 8.57532 19.0636 9.74495 19.4862 10.7652C19.9088 11.7854 21.0784 12.2699 22.0987 11.8473Z" fill="white"/>
<path fill-rule="evenodd" clip-rule="evenodd" d="M26.6665 7.33301C25.5619 7.33301 24.6665 8.22844 24.6665 9.33301C24.6665 10.4376 25.5619 11.333 26.6665 11.333C27.7711 11.333 28.6665 10.4376 28.6665 9.33301C28.6665 8.22844 27.7711 7.33301 26.6665 7.33301Z" fill="white"/>
<path fill-rule="evenodd" clip-rule="evenodd" d="M41.4761 1.27302C41.6272 1.3781 41.8349 1.34075 41.94 1.18961C42.0451 1.03846 42.0077 0.830755 41.8566 0.725676C41.7055 0.620608 41.4977 0.657951 41.3927 0.80909C41.2876 0.960238 41.3249 1.16794 41.4761 1.27302Z" fill="white"/>
<path fill-rule="evenodd" clip-rule="evenodd" d="M49.1799 9.27984C49.3348 9.18042 49.3798 8.97424 49.2803 8.81932C49.1809 8.66441 48.9747 8.61944 48.8198 8.71885C48.6649 8.81828 48.6199 9.02447 48.7193 9.17937C48.8188 9.33429 49.025 9.37927 49.1799 9.27984Z" fill="white"/>
<path fill-rule="evenodd" clip-rule="evenodd" d="M53.3279 18.2744C53.2953 18.0932 53.122 17.9727 52.9409 18.0053C52.7597 18.0379 52.6392 18.2112 52.6718 18.3923C52.7044 18.5735 52.8777 18.6939 53.0588 18.6614C53.24 18.6288 53.3604 18.4555 53.3279 18.2744Z" fill="white"/>
<path fill-rule="evenodd" clip-rule="evenodd" d="M52.4044 28.6737C52.2245 28.6345 52.047 28.7485 52.0077 28.9283C51.9685 29.1081 52.0825 29.2857 52.2623 29.325C52.4421 29.3642 52.6197 29.2502 52.6589 29.0704C52.6982 28.8906 52.5842 28.713 52.4044 28.6737Z" fill="white"/>
<path fill-rule="evenodd" clip-rule="evenodd" d="M48.5231 38.0597C48.372 37.9546 48.1642 37.9919 48.0592 38.1431C47.9541 38.2942 47.9914 38.5019 48.1426 38.607C48.2937 38.7121 48.5014 38.6747 48.6065 38.5236C48.7116 38.3725 48.6742 38.1647 48.5231 38.0597Z" fill="white"/>
<path fill-rule="evenodd" clip-rule="evenodd" d="M40.8198 45.3859C40.6649 45.4853 40.6199 45.6915 40.7193 45.8464C40.8188 46.0013 41.0249 46.0463 41.1799 45.9468C41.3348 45.8474 41.3798 45.6412 41.2803 45.4863C41.1809 45.3314 40.9747 45.2864 40.8198 45.3859Z" fill="white"/>
<path fill-rule="evenodd" clip-rule="evenodd" d="M31.6074 49.3383C31.4262 49.3709 31.3058 49.5442 31.3383 49.7253C31.3709 49.9065 31.5442 50.0269 31.7253 49.9944C31.9065 49.9618 32.0269 49.7885 31.9944 49.6074C31.9618 49.4262 31.7885 49.3058 31.6074 49.3383Z" fill="white"/>
<path fill-rule="evenodd" clip-rule="evenodd" d="M20.4039 48.6737C20.2241 48.6345 20.0465 48.7485 20.0072 48.9283C19.968 49.1081 20.082 49.2857 20.2618 49.325C20.4416 49.3642 20.6192 49.2502 20.6585 49.0704C20.6977 48.8906 20.5837 48.713 20.4039 48.6737Z" fill="white"/>
<path fill-rule="evenodd" clip-rule="evenodd" d="M11.1901 44.7257C11.0389 44.6206 10.8312 44.658 10.7262 44.8091C10.6211 44.9602 10.6584 45.1679 10.8096 45.273C10.9607 45.3781 11.1684 45.3408 11.2735 45.1896C11.3786 45.0385 11.3412 44.8308 11.1901 44.7257Z" fill="white"/>
<path fill-rule="evenodd" clip-rule="evenodd" d="M4.15331 37.3858C3.9984 37.4853 3.95342 37.6915 4.05284 37.8464C4.15227 38.0013 4.35845 38.0463 4.51336 37.9468C4.66827 37.8474 4.71325 37.6412 4.61383 37.4863C4.5144 37.3314 4.30823 37.2864 4.15331 37.3858Z" fill="white"/>
<path fill-rule="evenodd" clip-rule="evenodd" d="M0.274353 28.0043C0.0931924 28.0369 -0.0272568 28.2102 0.0053177 28.3913C0.0378922 28.5725 0.21115 28.6929 0.39231 28.6604C0.57347 28.6278 0.693919 28.4545 0.661355 28.2734C0.62878 28.0922 0.455513 27.9718 0.274353 28.0043Z" fill="white"/>
<path fill-rule="evenodd" clip-rule="evenodd" d="M0.404367 16.6737C0.224547 16.6345 0.0469606 16.7485 0.00772641 16.9283C-0.0314979 17.1081 0.082472 17.2857 0.262302 17.325C0.442122 17.3642 0.619709 17.2502 0.658943 17.0704C0.698167 16.8906 0.584197 16.713 0.404367 16.6737Z" fill="white"/>
<path fill-rule="evenodd" clip-rule="evenodd" d="M4.607 7.8566C4.71208 7.70545 4.67473 7.49775 4.52359 7.39267C4.37244 7.2876 4.16474 7.32494 4.05967 7.47609C3.95459 7.62723 3.99193 7.83493 4.14308 7.94001C4.29422 8.04509 4.50193 8.00774 4.607 7.8566Z" fill="white"/>
<path fill-rule="evenodd" clip-rule="evenodd" d="M12.5129 1.27984C12.6678 1.18042 12.7128 0.974239 12.6133 0.819321C12.5139 0.664414 12.3077 0.619437 12.1528 0.718853C11.9979 0.818279 11.9529 1.02446 12.0524 1.17938C12.1518 1.33428 12.358 1.37927 12.5129 1.27984Z" fill="white"/>
<path fill-rule="evenodd" clip-rule="evenodd" d="M35.0786 2.61642C35.4187 2.75728 35.8086 2.59578 35.9494 2.25571C36.0903 1.91564 35.9288 1.52575 35.5887 1.38489C35.2486 1.24403 34.8588 1.40552 34.7179 1.7456C34.577 2.08568 34.7385 2.47555 35.0786 2.61642Z" fill="white"/>
<path fill-rule="evenodd" clip-rule="evenodd" d="M42.1953 6.86128C41.9349 7.12162 41.9349 7.54374 42.1953 7.80408C42.4556 8.06444 42.8777 8.06444 43.1381 7.80408C43.3984 7.54374 43.3984 7.12162 43.1381 6.86128C42.8777 6.60093 42.4556 6.60093 42.1953 6.86128Z" fill="white"/>
<path fill-rule="evenodd" clip-rule="evenodd" d="M47.5882 15.2824C47.9283 15.1416 48.0898 14.7517 47.9489 14.4116C47.8081 14.0715 47.4182 13.91 47.0781 14.0509C46.738 14.1918 46.5765 14.5817 46.7174 14.9217C46.8583 15.2618 47.2482 15.4233 47.5882 15.2824Z" fill="white"/>
<path fill-rule="evenodd" clip-rule="evenodd" d="M49.3332 22C48.965 22 48.6665 22.2985 48.6665 22.6667C48.6665 23.0349 48.965 23.3333 49.3332 23.3333C49.7014 23.3333 49.9998 23.0349 49.9998 22.6667C49.9998 22.2985 49.7014 22 49.3332 22Z" fill="white"/>
<path fill-rule="evenodd" clip-rule="evenodd" d="M47.9489 32.2538C48.0898 31.9137 47.9283 31.5238 47.5882 31.3829C47.2482 31.2421 46.8583 31.4036 46.7174 31.7436C46.5765 32.0837 46.738 32.4736 47.0781 32.6145C47.4182 32.7553 47.8081 32.5938 47.9489 32.2538Z" fill="white"/>
<path fill-rule="evenodd" clip-rule="evenodd" d="M42.1953 38.8623C41.9349 39.1226 41.9349 39.5447 42.1953 39.8051C42.4556 40.0654 42.8777 40.0654 43.1381 39.8051C43.3984 39.5447 43.3984 39.1226 43.1381 38.8623C42.8777 38.6019 42.4556 38.6019 42.1953 38.8623Z" fill="white"/>
<path fill-rule="evenodd" clip-rule="evenodd" d="M35.0786 43.3849C34.7385 43.5258 34.577 43.9156 34.7179 44.2557C34.8588 44.5958 35.2486 44.7573 35.5887 44.6164C35.9288 44.4756 36.0903 44.0857 35.9494 43.7456C35.8086 43.4055 35.4187 43.244 35.0786 43.3849Z" fill="white"/>
<path fill-rule="evenodd" clip-rule="evenodd" d="M25.9997 45.333C25.6315 45.333 25.333 45.6315 25.333 45.9997C25.333 46.3679 25.6315 46.6663 25.9997 46.6663C26.3679 46.6663 26.6663 46.3679 26.6663 45.9997C26.6663 45.6315 26.3679 45.333 25.9997 45.333Z" fill="white"/>
<path fill-rule="evenodd" clip-rule="evenodd" d="M18.2552 43.3849C17.9151 43.244 17.5253 43.4055 17.3844 43.7456C17.2435 44.0857 17.405 44.4756 17.7451 44.6164C18.0852 44.7573 18.4751 44.5958 18.6159 44.2557C18.7568 43.9156 18.5953 43.5258 18.2552 43.3849Z" fill="white"/>
<path fill-rule="evenodd" clip-rule="evenodd" d="M11.1376 38.8623C10.8772 38.6019 10.4551 38.6019 10.1948 38.8623C9.93442 39.1226 9.93442 39.5447 10.1948 39.8051C10.4551 40.0654 10.8772 40.0654 11.1376 39.8051C11.3979 39.5447 11.3979 39.1226 11.1376 38.8623Z" fill="white"/>
<path fill-rule="evenodd" clip-rule="evenodd" d="M5.07811 31.3829C4.73803 31.5238 4.57655 31.9137 4.71741 32.2538C4.85828 32.5938 5.24815 32.7553 5.58822 32.6145C5.9283 32.4736 6.0898 32.0837 5.94893 31.7436C5.80807 31.4036 5.41819 31.2421 5.07811 31.3829Z" fill="white"/>
<path fill-rule="evenodd" clip-rule="evenodd" d="M3.99968 22C3.63149 22 3.33301 22.2985 3.33301 22.6667C3.33301 23.0349 3.63149 23.3333 3.99968 23.3333C4.36786 23.3333 4.66635 23.0349 4.66635 22.6667C4.66635 22.2985 4.36786 22 3.99968 22Z" fill="white"/>
<path fill-rule="evenodd" clip-rule="evenodd" d="M5.58823 14.0509C5.24815 13.91 4.85828 14.0715 4.71741 14.4116C4.57655 14.7517 4.73804 15.1416 5.07812 15.2824C5.4182 15.4233 5.80806 15.2618 5.94893 14.9217C6.0898 14.5817 5.92831 14.1918 5.58823 14.0509Z" fill="white"/>
<path fill-rule="evenodd" clip-rule="evenodd" d="M11.1376 7.80409C11.3979 7.54374 11.3979 7.12163 11.1376 6.86128C10.8772 6.60093 10.4551 6.60093 10.1948 6.86128C9.93442 7.12163 9.93442 7.54374 10.1948 7.80409C10.4551 8.06444 10.8772 8.06444 11.1376 7.80409Z" fill="white"/>
<path fill-rule="evenodd" clip-rule="evenodd" d="M17.7451 1.38489C17.405 1.52575 17.2435 1.91563 17.3844 2.25571C17.5253 2.59578 17.9151 2.75728 18.2552 2.61642C18.5953 2.47555 18.7568 2.08566 18.6159 1.7456C18.4751 1.40552 18.0852 1.24403 17.7451 1.38489Z" fill="white"/>
<path fill-rule="evenodd" clip-rule="evenodd" d="M25.9997 1.33334C26.3679 1.33334 26.6663 1.03487 26.6663 0.666663C26.6663 0.298473 26.3679 0 25.9997 0C25.6315 0 25.333 0.298473 25.333 0.666663C25.333 1.03487 25.6315 1.33334 25.9997 1.33334Z" fill="white"/>
<path fill-rule="evenodd" clip-rule="evenodd" d="M31.3161 5.18239C31.4168 4.63947 31.0583 4.11769 30.5154 4.01695C29.9725 3.91623 29.4507 4.27469 29.35 4.81762C29.2492 5.36055 29.6077 5.88233 30.1506 5.98305C30.6935 6.08379 31.2153 5.72531 31.3161 5.18239Z" fill="white"/>
<path fill-rule="evenodd" clip-rule="evenodd" d="M36.4553 8.5045C36.9183 8.80534 37.5376 8.67383 37.8385 8.21076C38.1393 7.74767 38.0078 7.12839 37.5447 6.82754C37.0817 6.5267 36.4624 6.65821 36.1615 7.12128C35.8607 7.58435 35.9922 8.20364 36.4553 8.5045Z" fill="white"/>
<path fill-rule="evenodd" clip-rule="evenodd" d="M42.8992 13.1572C43.3544 12.8445 43.4699 12.222 43.1572 11.7668C42.8445 11.3116 42.222 11.1962 41.7668 11.5089C41.3116 11.8216 41.1962 12.444 41.5088 12.8992C41.8216 13.3544 42.444 13.4699 42.8992 13.1572Z" fill="white"/>
<path fill-rule="evenodd" clip-rule="evenodd" d="M45.2077 19.978C45.7478 19.8633 46.0927 19.3324 45.978 18.7923C45.8633 18.2522 45.3324 17.9073 44.7923 18.022C44.2522 18.1367 43.9073 18.6676 44.022 19.2077C44.1367 19.7478 44.6676 20.0927 45.2077 19.978Z" fill="white"/>
<path fill-rule="evenodd" clip-rule="evenodd" d="M45.1824 26.017C44.6395 25.9162 44.1177 26.2747 44.017 26.8176C43.9162 27.3605 44.2747 27.8823 44.8176 27.9831C45.3605 28.0838 45.8823 27.7253 45.983 27.1824C46.0838 26.6395 45.7253 26.1177 45.1824 26.017Z" fill="white"/>
<path fill-rule="evenodd" clip-rule="evenodd" d="M43.1715 34.2108C43.4723 33.7477 43.3408 33.1284 42.8778 32.8275C42.4147 32.5267 41.7954 32.6582 41.4945 33.1213C41.1937 33.5844 41.3252 34.2036 41.7883 34.5045C42.2514 34.8053 42.8706 34.6738 43.1715 34.2108Z" fill="white"/>
<path fill-rule="evenodd" clip-rule="evenodd" d="M37.0998 38.1758C36.6446 38.4885 36.5292 39.111 36.8419 39.5662C37.1546 40.0214 37.7771 40.1369 38.2322 39.8242C38.6874 39.5115 38.8029 38.889 38.4902 38.4338C38.1775 37.9786 37.555 37.8631 37.0998 38.1758Z" fill="white"/>
<path fill-rule="evenodd" clip-rule="evenodd" d="M31.978 41.4583C31.8633 40.9182 31.3324 40.5733 30.7923 40.688C30.2522 40.8027 29.9073 41.3336 30.022 41.8737C30.1367 42.4138 30.6676 42.7587 31.2077 42.644C31.7478 42.5293 32.0927 41.9985 31.978 41.4583Z" fill="white"/>
<path fill-rule="evenodd" clip-rule="evenodd" d="M23.1819 40.683C22.639 40.5822 22.1172 40.9407 22.0165 41.4836C21.9157 42.0265 22.2742 42.5483 22.8171 42.6491C23.3601 42.7498 23.8818 42.3913 23.9826 41.8484C24.0833 41.3055 23.7248 40.7837 23.1819 40.683Z" fill="white"/>
<path fill-rule="evenodd" clip-rule="evenodd" d="M16.8782 38.1615C16.4152 37.8607 15.7959 37.9922 15.495 38.4553C15.1942 38.9183 15.3257 39.5376 15.7888 39.8385C16.2518 40.1393 16.8711 40.0078 17.172 39.5447C17.4728 39.0817 17.3413 38.4624 16.8782 38.1615Z" fill="white"/>
<path fill-rule="evenodd" clip-rule="evenodd" d="M10.4333 33.5089C9.97814 33.8216 9.86265 34.444 10.1754 34.8992C10.4881 35.3544 11.1106 35.4699 11.5657 35.1572C12.0209 34.8445 12.1364 34.222 11.8237 33.7668C11.511 33.3116 10.8885 33.1962 10.4333 33.5089Z" fill="white"/>
<path fill-rule="evenodd" clip-rule="evenodd" d="M8.12533 26.689C7.5852 26.8037 7.24032 27.3346 7.35502 27.8747C7.46972 28.4148 8.00056 28.7597 8.54069 28.645C9.08083 28.5303 9.42571 27.9994 9.311 27.4593C9.1963 26.9192 8.66545 26.5743 8.12533 26.689Z" fill="white"/>
<path fill-rule="evenodd" clip-rule="evenodd" d="M8.15062 20.65C8.69354 20.7508 9.21533 20.3923 9.31606 19.8494C9.41679 19.3065 9.05833 18.7847 8.5154 18.6839C7.97247 18.5832 7.45069 18.9417 7.34996 19.4846C7.24923 20.0275 7.6077 20.5493 8.15062 20.65Z" fill="white"/>
<path fill-rule="evenodd" clip-rule="evenodd" d="M10.161 12.4543C9.86019 12.9174 9.9917 13.5367 10.4548 13.8375C10.9179 14.1383 11.5371 14.0068 11.838 13.5438C12.1388 13.0807 12.0073 12.4614 11.5442 12.1606C11.0812 11.8597 10.4619 11.9912 10.161 12.4543Z" fill="white"/>
<path fill-rule="evenodd" clip-rule="evenodd" d="M16.2327 8.49017C16.6879 8.17747 16.8034 7.55499 16.4907 7.09981C16.178 6.64465 15.5555 6.52916 15.1003 6.84186C14.6451 7.15456 14.5296 7.77704 14.8423 8.23221C15.155 8.68739 15.7775 8.80289 16.2327 8.49017Z" fill="white"/>
<path fill-rule="evenodd" clip-rule="evenodd" d="M21.355 5.20769C21.4697 5.74782 22.0006 6.0927 22.5407 5.978C23.0808 5.86329 23.4257 5.33244 23.311 4.79232C23.1963 4.25219 22.6655 3.90731 22.1253 4.02201C21.5852 4.13673 21.2403 4.66757 21.355 5.20769Z" fill="white"/>
</svg>
