<svg width="108" height="27" viewBox="0 0 108 27" fill="none" xmlns="http://www.w3.org/2000/svg">
<path fill-rule="evenodd" clip-rule="evenodd" d="M77.9753 7.94492C77.8591 7.93651 77.621 7.9121 77.1151 7.9121C76.6749 7.9121 76.2659 7.95334 75.8863 8.03245C74.3024 8.3405 73.2899 9.20066 72.4162 10.1122V8.30851H67.453V24.3898H72.4162V17.6735C72.4162 16.879 72.46 16.1501 72.5484 15.4894C72.6367 14.8271 72.8295 14.2598 73.1274 13.7851C73.4254 13.3104 73.8495 12.9409 74.4017 12.6767C74.9529 12.4124 75.7028 12.2794 76.6514 12.2794C77.3703 12.277 78.085 12.3887 78.769 12.6102V8.07706C78.5092 8.00811 78.2434 7.96387 77.9753 7.94492ZM91.2514 7.94492C91.1361 7.93651 90.8979 7.9121 90.3912 7.9121C89.9511 7.9121 89.5429 7.95334 89.1624 8.03245C87.5785 8.3405 86.5668 9.20066 85.6923 10.1122V8.30851H80.7292V24.3898H85.6923V17.6735C85.6923 16.879 85.7369 16.1501 85.8253 15.4894C85.9128 14.8271 86.1064 14.2598 86.4044 13.7851C86.7023 13.3104 87.1265 12.9409 87.6778 12.6767C88.2291 12.4124 88.9798 12.2794 89.9283 12.2794C90.6472 12.277 91.362 12.3887 92.0459 12.6102V8.07706C91.7858 8.00806 91.5198 7.96382 91.2514 7.94492ZM38.9272 7.64782H32.2437V3.08105H50.7733V7.64782H44.0898V24.3898H38.9263L38.9272 7.64782ZM60.517 14.53C60.5389 13.6917 60.2637 12.9738 59.6905 12.3787C59.1165 11.7837 58.3776 11.4857 57.4728 11.4857C56.9215 11.4857 56.4359 11.5733 56.0168 11.75C55.5985 11.9267 55.2399 12.1531 54.942 12.4284C54.644 12.7044 54.4117 13.0234 54.2468 13.3878C54.0822 13.7475 53.9869 14.135 53.9657 14.53H60.517ZM64.7194 21.6107C63.9257 22.6257 62.9216 23.4085 61.7088 23.9589C60.5259 24.5038 59.239 24.7864 57.9366 24.7871C56.701 24.7871 55.5379 24.5885 54.4454 24.1912C53.3538 23.7948 52.4053 23.2267 51.6007 22.4877C50.7893 21.7406 50.1414 20.8337 49.6977 19.8239C49.2348 18.787 49.0025 17.6289 49.0025 16.3496C49.0025 15.0703 49.2348 13.9122 49.6977 12.8753C50.1414 11.8657 50.7889 10.9588 51.5998 10.2115C52.4053 9.47251 53.3538 8.9044 54.4454 8.50798C55.5651 8.10601 56.7469 7.9043 57.9366 7.9121C59.0829 7.9121 60.1248 8.11073 61.0633 8.50798C61.9762 8.88772 62.7907 9.47026 63.4451 10.2115C64.0957 10.9513 64.5982 11.8384 64.9517 12.8753C65.3035 13.9122 65.4802 15.0703 65.4802 16.3496V17.905H53.9665C54.1643 18.8535 54.5944 19.6084 55.2559 20.1715C55.9183 20.7337 56.7338 21.0148 57.7051 21.0148C58.5215 21.0148 59.21 20.833 59.773 20.4686C60.3464 20.0949 60.8458 19.6183 61.2459 19.0631L64.7194 21.6107ZM103.492 18.7104V18.4394C103.492 18.2679 103.437 18.1009 103.336 17.9622C103.235 17.8235 103.093 17.7202 102.93 17.6668C102.132 17.4046 101.296 17.2724 100.456 17.2754C98.4214 17.2754 97.169 18.0691 97.169 19.5352V19.5967C97.169 20.8482 98.2337 21.5813 99.7672 21.5813C101.99 21.5813 103.492 20.3903 103.492 18.7112V18.7104ZM92.5677 19.7801V19.7179C92.5677 16.1459 95.3536 14.4971 99.3287 14.4971C101.02 14.4971 102.241 14.7715 103.43 15.1688V14.8935C103.43 12.9704 102.21 11.9007 99.8295 11.9007C98.014 11.9007 96.7305 12.2373 95.1962 12.7869L94.007 9.24527C95.8535 8.45075 97.6698 7.9323 100.519 7.9323C103.117 7.9323 104.995 8.60393 106.185 9.76372C107.437 10.9849 108 12.7869 108 14.9853V24.4816H103.399V22.7107C102.24 23.9623 100.643 24.7871 98.3271 24.7871C95.1651 24.7871 92.5669 23.0163 92.5669 19.7793" fill="white"/>
<path fill-rule="evenodd" clip-rule="evenodd" d="M12.1675 21.6253C12.9435 24.4927 15.7243 26.681 17.129 26.591C17.1787 26.5876 22.4566 25.6037 25.346 20.7752C27.5949 17.0189 26.829 13.3914 23.7704 13.3123C22.6704 13.3931 10.6913 16.1605 12.1675 21.6253ZM23.486 3.20332L23.4834 3.2008L23.4877 3.19827C21.062 1.12849 17.9763 -0.00586092 14.7876 2.27737e-05C12.8476 2.27737e-05 11.0052 0.415795 9.34044 1.15644C9.04081 1.28269 8.75718 1.42072 8.49038 1.57306C8.30101 1.67406 8.11248 1.77337 7.92984 1.88278L7.97445 1.89625C7.43357 2.26446 6.95531 2.71714 6.55796 3.23699C2.70491 8.32726 15.6183 12.0263 22.5223 12.0389C25.6987 14.3181 26.5908 5.61885 23.4868 3.20332" fill="#5493F7"/>
<path fill-rule="evenodd" clip-rule="evenodd" d="M10.1182 3.30712C8.34568 5.97345 2.43565 7.852 1.46439 7.55911L1.4585 7.54732C1.49805 7.46653 1.53929 7.38741 1.57969 7.30746C2.24907 6.01477 3.11442 4.83344 4.14503 3.80537C4.97764 2.9723 5.91061 2.246 6.92246 1.64318C7.74979 1.16429 8.59733 1.13315 8.87592 1.12305C11.5077 1.17355 10.1333 3.28608 10.119 3.30712" fill="white"/>
<mask id="mask0" mask-type="alpha" maskUnits="userSpaceOnUse" x="0" y="8" width="9" height="19">
<path d="M0 8.91309H8.7144V26.5784H0V8.91309Z" fill="white"/>
</mask>
<g mask="url(#mask0)">
<path fill-rule="evenodd" clip-rule="evenodd" d="M8.66393 22.1496C8.79018 22.9879 8.66056 26.2964 8.48887 26.575C8.34158 26.5843 8.03438 26.6036 7.14392 26.1037C6.04597 25.4778 5.03708 24.7073 4.14429 23.8127C3.11486 22.7837 2.24965 21.6025 1.57896 20.3106C0.536878 18.3018 -0.00477766 16.0711 3.17494e-05 13.8081C3.17494e-05 13.027 0.0631552 12.2603 0.185194 11.5138C0.329786 10.6269 0.559205 9.75605 0.870293 8.91309C1.89121 10.269 3.07204 11.4969 4.07528 12.8663C5.03055 14.1708 6.3452 16.2977 6.612 16.7522C8.27341 19.5725 8.53768 21.3139 8.66477 22.1496" fill="white"/>
</g>
<path fill-rule="evenodd" clip-rule="evenodd" d="M28.2944 13.8081C28.2944 15.6429 27.9451 17.396 27.3097 19.0044C25.6432 20.7963 14.409 16.3869 14.2979 16.3389C12.7619 15.6656 8.084 13.617 7.66234 10.3977C7.05551 5.76785 16.4491 2.54098 20.5774 2.41895C21.0723 2.42484 22.5788 2.44167 23.4575 3.15538C24.9785 4.48197 26.1973 6.11932 27.0317 7.95698C27.8661 9.79463 28.2967 11.7899 28.2944 13.8081ZM20.6893 26.357C19.4639 26.9285 18.1164 26.5119 18.4665 25.3193C19.139 23.0292 25.012 20.6801 26.309 20.553C26.4689 20.5379 26.5362 20.6465 26.4655 20.771C25.114 23.1471 23.1093 25.0857 20.6893 26.357Z" fill="white"/>
</svg>
