<svg width="150" height="37" viewBox="0 0 150 37" fill="none" xmlns="http://www.w3.org/2000/svg">
<path fill-rule="evenodd" clip-rule="evenodd" d="M36.8528 0V37H0V0H36.8528Z" fill="#00A59A"/>
<path fill-rule="evenodd" clip-rule="evenodd" d="M24.3576 22.8488H28.1476C28.1979 22.8489 28.247 22.833 28.2878 22.8036C28.3286 22.7742 28.3591 22.7326 28.375 22.6849L29.7344 18.5957C29.7353 18.5929 29.7361 18.5901 29.7368 18.5873L30.9311 14.4778C30.9484 14.4178 30.9416 14.3533 30.912 14.2983L30.8234 14.1308C30.803 14.0924 30.7725 14.0603 30.7351 14.0379C30.6978 14.0156 30.6551 14.0038 30.6116 14.0039H25.796C25.7391 14.0037 25.6839 14.0239 25.6405 14.0607C25.5971 14.0976 25.5682 14.1487 25.5591 14.205L24.8554 18.5885C24.8554 18.5905 24.8554 18.5925 24.8554 18.5945L24.1218 22.5652C24.1153 22.5998 24.1165 22.6355 24.1254 22.6696C24.1342 22.7037 24.1505 22.7354 24.173 22.7625C24.1955 22.7896 24.2237 22.8113 24.2556 22.8263C24.2875 22.8412 24.3224 22.8489 24.3576 22.8488ZM15.0184 22.8488H18.7941C18.8444 22.8489 18.8934 22.833 18.9343 22.8036C18.9751 22.7742 19.0056 22.7326 19.0214 22.6849L20.3905 18.5957C20.3913 18.5929 20.3921 18.5901 20.3929 18.5873L21.5944 14.4778C21.612 14.4179 21.6056 14.3535 21.5764 14.2983L21.4855 14.1308C21.4651 14.0925 21.4348 14.0606 21.3977 14.0382C21.3606 14.0159 21.3181 14.004 21.2748 14.0039H16.4234C16.3664 14.0037 16.3113 14.0239 16.2678 14.0607C16.2244 14.0976 16.1955 14.1487 16.1864 14.205L15.478 18.5897V18.5933L14.7839 22.5676C14.7778 22.6019 14.7792 22.6372 14.7882 22.6709C14.7972 22.7046 14.8134 22.736 14.8357 22.7628C14.8581 22.7896 14.886 22.8112 14.9176 22.826C14.9491 22.8409 14.9835 22.8487 15.0184 22.8488ZM5.93058 22.8488H9.72177C9.7721 22.8489 9.82115 22.833 9.86197 22.8036C9.90279 22.7742 9.9333 22.7326 9.94915 22.6849L11.3086 18.5957C11.3095 18.5929 11.3103 18.5901 11.311 18.5873L12.5053 14.4778C12.5226 14.4178 12.5157 14.3533 12.4862 14.2983L12.3964 14.1308C12.3761 14.0925 12.3457 14.0606 12.3086 14.0382C12.2716 14.0159 12.2291 14.004 12.1858 14.0039H7.36903C7.31228 14.004 7.25742 14.0243 7.21423 14.0611C7.17105 14.098 7.14236 14.1489 7.13328 14.205L6.42961 18.5885C6.42964 18.5905 6.42964 18.5925 6.42961 18.5945L5.69603 22.5652C5.68953 22.5997 5.69071 22.6352 5.69948 22.6693C5.70826 22.7033 5.72441 22.7349 5.7468 22.762C5.76918 22.7891 5.79725 22.8109 5.82902 22.8259C5.86078 22.8409 5.89545 22.8487 5.93058 22.8488Z" fill="white"/>
<path d="M56.7055 21.9838C56.7055 25.0821 54.3372 27.1751 50.5257 27.1751C48.5391 27.1751 46.6328 26.5768 45.5713 25.544L46.7417 23.2882C47.5315 24.1307 48.7833 24.5926 50.1715 24.5926C52.2406 24.5926 53.4935 23.5323 53.4935 21.9838C53.4935 20.4352 52.2681 19.4563 50.3893 19.4563C49.5456 19.4563 48.8383 19.6191 48.1849 19.9721L47.3412 18.4236L51.805 13.3136H46.2797V10.7586H55.8343V12.6889L51.6422 17.1467C54.719 17.2005 56.7055 19.1571 56.7055 21.9838ZM57.7131 18.8041C57.7131 13.8306 61.1429 10.542 66.3151 10.542C68.9563 10.542 71.1068 11.412 72.7128 13.1508L70.7525 15.1075C69.8263 13.9395 68.2753 13.097 66.3427 13.097C63.0756 13.097 60.8976 15.4066 60.8976 18.8316C60.8976 22.3093 63.1031 24.6201 66.3702 24.6201C68.5745 24.6201 70.0716 23.6412 71.1068 22.0652L73.2022 23.9129C71.6513 26.0335 69.283 27.1751 66.3151 27.1751C61.1705 27.1751 57.7131 23.8315 57.7131 18.8041ZM73.5014 21.0599C73.5014 17.3908 76.0336 14.9447 79.8452 14.9447C83.6292 14.9447 86.1602 17.3908 86.1602 21.0599C86.1602 24.729 83.6292 27.2014 79.8452 27.2014C76.0612 27.1751 73.5014 24.729 73.5014 21.0599ZM83.0572 21.0599C83.0572 18.913 81.7503 17.4997 79.8452 17.4997C77.885 17.4997 76.6057 18.913 76.6057 21.0599C76.6057 23.2068 77.9113 24.6201 79.8452 24.6201C81.7779 24.6201 83.0572 23.2068 83.0572 21.0599ZM106.278 19.5377V26.9573H103.284V20.0271C103.284 18.5049 102.331 17.4997 100.861 17.4997C99.4186 17.4997 98.4385 18.5049 98.4385 20.0271V26.9573H95.4431V20.0271C95.4431 18.5049 94.4906 17.4997 93.021 17.4997C91.5778 17.4997 90.5976 18.5049 90.5976 20.0271V26.9573H87.6035V15.1625H90.4887L90.5438 16.5758C91.3875 15.5155 92.6392 14.9447 94.0825 14.9447C95.6346 14.9447 96.8864 15.5969 97.6487 16.7111C98.4924 15.5431 99.8806 14.9447 101.46 14.9447C104.345 14.9447 106.278 16.7924 106.278 19.5377ZM126.912 19.5377V26.9573H123.92V20.0271C123.92 18.5049 122.963 17.4997 121.491 17.4997C120.055 17.4997 119.072 18.5049 119.072 20.0271V26.9573H116.078V20.0271C116.078 18.5049 115.125 17.4997 113.656 17.4997C112.213 17.4997 111.233 18.5049 111.233 20.0271V26.9573H108.238V15.1625H111.124L111.178 16.5758C112.022 15.5155 113.274 14.9447 114.717 14.9447C116.268 14.9447 117.521 15.5969 118.284 16.7111C119.127 15.5431 120.51 14.9447 122.089 14.9447C125.009 14.9447 126.912 16.7924 126.912 19.5377ZM138.7 19.5377V26.9573H135.839L135.792 25.2723C135.002 26.4954 133.637 27.1751 132.189 27.1751C129.748 27.1751 128.085 25.7068 128.085 23.506C128.085 21.2227 130.095 19.728 133.123 19.728C133.937 19.728 134.834 19.8093 135.732 19.9996V19.7818C135.732 18.2057 134.667 17.2544 132.872 17.2544C131.759 17.2544 130.861 17.5811 130.131 18.2057L128.815 16.4669C130.095 15.4342 131.567 14.9447 133.637 14.9447C136.665 14.9447 138.7 16.7661 138.7 19.5377ZM135.708 22.0388C134.972 21.8807 134.222 21.7985 133.47 21.7935C132.058 21.7935 131.16 22.4457 131.16 23.4509C131.16 24.4023 131.783 25.0545 133.015 25.0545C134.403 25.0545 135.708 23.9679 135.708 22.0388ZM140.172 25.7893L141.284 23.9955C142.409 24.6477 143.522 24.8643 144.683 24.8643C145.784 24.8643 146.538 24.4023 146.538 23.6963C146.538 22.989 145.7 22.5821 144.528 22.283L143.546 22.0113C141.56 21.4943 140.195 20.7069 140.195 18.858C140.195 16.5208 142.05 14.9722 144.851 14.9722C146.622 14.9722 148.142 15.3528 149.314 16.1402L148.07 18.0968C147.148 17.5952 146.115 17.3339 145.066 17.3369C144.013 17.3369 143.247 17.7438 143.247 18.396C143.247 19.1033 143.977 19.4288 145.018 19.7004L146 19.9733C148.01 20.4891 149.614 21.4129 149.614 23.506C149.614 25.7343 147.651 27.229 144.683 27.229C142.84 27.1751 141.261 26.7132 140.172 25.7893Z" fill="white"/>
</svg>
