<svg width="217" height="23" viewBox="0 0 217 23" fill="none" xmlns="http://www.w3.org/2000/svg">
<path d="M0 4.47169H6.41191V22.2947H11.114V4.47169H17.4941V0.362305H0V4.47169Z" fill="white"/>
<path d="M38.1107 7.4272C38.1107 3.34965 35.3156 0.357422 30.7454 0.357422H20.4863V22.2943H25.1626V14.4348H28.5823L32.8903 22.2943H38.2502L33.3102 13.9452C35.6779 13.3828 38.1107 11.3107 38.1107 7.4272ZM30.0542 10.424H25.1626V4.37282H30.0618C31.9368 4.37282 33.3511 5.55668 33.3511 7.40446C33.3511 9.25224 31.9292 10.424 30.0542 10.424Z" fill="white"/>
<path d="M51.1333 14.2047H56.9858V16.8695C56.0324 17.7245 54.2574 18.546 52.2504 18.546C48.2714 18.546 45.3777 15.4871 45.3777 11.3444C45.3777 7.20165 48.2714 4.14273 52.2504 4.14273C53.2778 4.13843 54.2903 4.38853 55.1975 4.8707C56.1047 5.35287 56.8784 6.05213 57.4497 6.90607L61.3286 4.8006C59.6491 2.20248 56.7888 0 52.2504 0C45.8385 0 40.5786 4.40648 40.5786 11.3444C40.5786 18.2505 45.84 22.7221 52.2504 22.7221C56.2294 22.7221 59.3535 21.0775 61.5894 18.5794V10.1939H51.1302L51.1333 14.2047Z" fill="white"/>
<path d="M99.7561 4.14273C100.851 4.13872 101.925 4.43382 102.865 4.99617C103.804 5.55852 104.571 6.36674 105.084 7.33353L109.095 5.36297C107.55 2.62994 104.755 0 99.7561 0C93.3442 0 88.248 4.60354 88.248 11.3444C88.248 18.0852 93.3442 22.6888 99.7561 22.6888C104.758 22.6888 107.517 20.0255 109.095 17.297L105.084 15.3568C104.575 16.3265 103.809 17.1369 102.868 17.6986C101.928 18.2603 100.851 18.5515 99.7561 18.54C95.9423 18.54 93.0486 15.4811 93.0486 11.3383C93.0486 7.19559 95.9423 4.14273 99.7561 4.14273ZM92.2907 11.3444C92.2907 15.8827 95.4997 19.3039 99.7561 19.3039C100.866 19.3152 101.961 19.0506 102.944 18.5339C103.926 18.0172 104.765 17.2645 105.384 16.3436L108.007 17.6123C106.089 20.4787 103.317 21.9309 99.7561 21.9309C96.8033 21.9309 94.0915 20.8895 92.1225 18.9977C90.1125 17.0681 89.006 14.3503 89.006 11.3444C89.006 8.33852 90.1125 5.62217 92.1225 3.69102C94.0915 1.79928 96.8033 0.757909 99.7561 0.757909C103.367 0.757909 106.141 2.19945 108.016 5.04616L105.375 6.34522C104.748 5.43367 103.909 4.68801 102.931 4.17234C101.952 3.65667 100.862 3.38642 99.7561 3.38482C95.4967 3.38482 92.2907 6.80754 92.2907 11.3444Z" fill="white"/>
<path d="M120.74 2.1748L120.024 4.14537L116.374 14.2089L116.006 15.226H125.431L125.067 14.2119L121.449 4.14992L120.74 2.1748ZM117.087 14.4681L120.737 4.40609L124.353 14.4681H117.087Z" fill="white"/>
<path d="M117.809 0.362305L109.321 22.2947H114.452L115.833 18.5051H125.631L127.012 22.2947H132.11L123.663 0.362305H117.809ZM127.547 21.5368L126.348 18.2535L126.166 17.7548H115.307L115.125 18.2535L113.926 21.5368H110.432L118.329 1.12021H123.142L131.009 21.5368H127.547Z" fill="white"/>
<path d="M143.787 3.61523H138.063V11.1822H143.787C146.093 11.1822 147.768 9.59059 147.768 7.39265C147.768 5.19472 146.093 3.61523 143.787 3.61523ZM143.787 10.4243H138.821V4.37314H143.787C145.629 4.37314 147.01 5.5858 147.01 7.40478C147.01 9.2465 145.629 10.4243 143.787 10.4243Z" fill="white"/>
<path d="M144.412 0.362305H134.15V22.2947H138.819V14.4352H144.412C149.147 14.4352 151.777 11.2519 151.777 7.43208C151.777 3.58493 149.179 0.362305 144.412 0.362305ZM149.329 11.834C148.145 13.0467 146.449 13.6773 144.412 13.6773H138.064V21.5368H134.908V1.12021H144.412C146.455 1.12021 148.159 1.76292 149.338 2.98164C150.422 4.10183 151.019 5.68131 151.019 7.43208C151.019 9.1586 150.419 10.7214 149.329 11.834Z" fill="white"/>
<path d="M154.519 22.2947H159.189V0.362305H154.519V22.2947ZM155.277 1.12021H158.431V21.5368H155.277V1.12021Z" fill="white"/>
<path d="M179.675 0.362305H162.182V4.47169H168.594V22.2947H173.293V4.47169H179.672L179.675 0.362305ZM178.917 3.71378H172.538V21.5368H169.355V3.71378H162.943V1.12021H178.92L178.917 3.71378Z" fill="white"/>
<path d="M186.712 0.362305L178.224 22.2947H183.353L184.734 18.5051H194.532L195.915 22.2947H201.011L192.565 0.362305H186.712ZM196.45 21.5368L195.251 18.2535L195.069 17.7548H184.21L184.028 18.2535L182.829 21.5368H179.335L187.232 1.12021H192.046L199.912 21.5368H196.45Z" fill="white"/>
<path d="M189.641 2.1748L188.926 4.14537L185.276 14.2074L184.907 15.2245H194.328L193.964 14.2104L190.347 4.1484L189.641 2.1748ZM185.991 14.4681L189.641 4.40609L193.258 14.4681H185.991Z" fill="white"/>
<path d="M207.723 18.1898V0.362305H203.054V22.2947H217V18.1898H207.723ZM216.239 21.5428H203.809V1.12021H206.962V18.9478H216.236L216.239 21.5428Z" fill="white"/>
<path d="M80.7193 6.25488L78.7957 8.18604C78.0573 7.56702 77.1252 7.2265 76.1617 7.22373C75.1981 7.22096 74.2641 7.55611 73.5222 8.17088L71.6122 6.26095L71.0771 6.79148L72.9856 8.6999C72.3647 9.4412 72.0245 10.3773 72.0245 11.3442C72.0245 12.3112 72.3647 13.2473 72.9856 13.9886L71.0771 15.8985L71.6122 16.4336L73.5176 14.5237C74.2595 15.1384 75.1934 15.4736 76.1569 15.4711C77.1203 15.4686 78.0524 15.1286 78.7911 14.51L80.7147 16.4336L81.2513 15.8985L79.3262 13.9719C79.9384 13.2331 80.2734 12.3037 80.2734 11.3442C80.2734 10.3848 79.9384 9.45539 79.3262 8.71657L81.2513 6.79148L80.7193 6.25488ZM76.1506 7.97534C76.9171 7.97503 77.6607 8.23714 78.2576 8.71809L76.1658 10.8084L74.0618 8.70445C74.6553 8.23177 75.3918 7.97469 76.1506 7.97534ZM72.7824 11.345C72.7797 10.5793 73.0392 9.8358 73.5176 9.23801L75.6246 11.345L73.5176 13.4505C73.0394 12.8532 72.78 12.1102 72.7824 11.345ZM76.1506 14.7131C75.3918 14.7138 74.6553 14.4567 74.0618 13.984L76.1658 11.8801L78.2576 13.9704C77.6607 14.4513 76.9171 14.7135 76.1506 14.7131ZM79.5203 11.345C79.5202 12.1036 79.2632 12.8399 78.7911 13.4338L76.7008 11.345L78.7896 9.2562C79.2624 9.84978 79.52 10.5861 79.5203 11.345Z" fill="white"/>
</svg>
