<svg width="458" height="508" viewBox="0 0 458 508" fill="none" xmlns="http://www.w3.org/2000/svg">
<g opacity="0.6">
<mask id="mask0" mask-type="alpha" maskUnits="userSpaceOnUse" x="0" y="0" width="458" height="508">
<rect width="458" height="508" fill="#C4C4C4"/>
</mask>
<g mask="url(#mask0)">
<path d="M-237.291 -163.88C-41.9296 -154.557 16.9039 120.107 212.051 128.037C277.1 130.716 337.648 143.79 401.626 154.507C514.792 173.475 627.637 153.756 738.231 128.358C737.802 174.225 735.337 220.091 732.873 265.958C730.944 301.43 732.337 337.866 728.8 373.123C722.585 435.171 630.637 400.771 620.885 462.284C477.713 461.641 335.077 446.102 191.904 442.887C14.6535 438.922 -60.1476 222.128 -237.398 214.304C-234.076 182.477 -216.823 170.903 -195.926 149.898C-179.208 133.074 -179.315 119.356 -189.067 98.4593C-226.146 18.5143 -235.469 -76.4338 -237.291 -163.88Z" stroke="url(#paint0_linear)" stroke-width="0.771423" stroke-miterlimit="10"/>
<path d="M-234.826 204.337C-188.102 205.409 -148.237 215.054 -110.622 243.774C-76.8653 269.494 -46.3233 298.75 -13.1022 325.112C48.4105 373.872 104.994 429.705 188.368 431.313C255.453 432.599 322.753 432.17 389.731 435.921C467.961 440.314 544.905 451.888 623.564 452.638" stroke="url(#paint1_linear)" stroke-width="0.771423" stroke-miterlimit="10"/>
<path d="M-232.683 195.443C-186.388 195.229 -148.451 198.979 -112.015 229.95C-79.8659 257.277 -49.3239 286.962 -14.8168 311.181C49.375 356.405 100.278 419.31 184.939 421.025C253.31 422.418 322.002 419.417 390.266 422.097C424.238 423.383 455.101 429.384 488.644 434.849C533.439 442.136 581.234 443.851 626.565 444.601" stroke="url(#paint2_linear)" stroke-width="0.771423" stroke-miterlimit="10"/>
<path d="M-229.897 188.37C-183.923 186.87 -147.916 185.262 -112.337 218.591C-81.7948 247.204 -50.8241 277.531 -15.3526 299.929C51.0897 341.723 97.2777 411.273 183.01 412.988C220.089 413.738 257.704 415.881 294.783 415.024C327.254 414.274 359.296 410.202 391.874 410.952C427.238 411.916 456.387 419.203 490.894 426.276C535.368 435.492 585.199 437.636 630.53 438.707" stroke="url(#paint3_linear)" stroke-width="0.771423" stroke-miterlimit="10"/>
<path d="M-225.825 181.297C-180.279 178.404 -146.308 170.474 -111.694 206.803C-83.0809 236.702 -51.253 268.101 -14.9241 288.141C20.9762 307.966 45.1954 340.116 78.6309 363.585C111.745 386.733 140.465 404.093 181.938 405.058C219.767 405.915 258.346 408.701 296.068 406.987C329.29 405.486 361.546 399.271 394.767 399.7C411.271 399.914 427.345 398.199 443.634 401.95C460.995 405.915 477.391 413.524 494.538 418.132C538.368 429.706 590.986 432.17 635.995 433.456" stroke="url(#paint4_linear)" stroke-width="0.771423" stroke-miterlimit="10"/>
<path d="M-221.002 174.868C-177.172 170.689 -144.379 155.9 -111.158 194.372C-82.6521 227.379 -49.7525 259.529 -10.3159 278.604C26.3345 296.286 49.6965 330.9 82.2746 355.013C114.21 378.696 141.43 397.235 182.474 397.878C220.517 398.521 259.74 402.272 297.569 399.915C330.79 397.771 362.939 388.234 396.375 388.984C415.129 389.412 432.489 386.519 450.922 391.77C468.283 396.7 484.143 405.916 501.504 411.06C521.008 416.954 541.583 416.847 561.73 419.847C588.95 423.92 615.849 427.885 643.39 428.956" stroke="url(#paint5_linear)" stroke-width="0.771423" stroke-miterlimit="10"/>
<path d="M-215.751 169.082C-196.461 166.617 -178.029 157.401 -158.739 156.222C-137.092 154.936 -121.553 167.581 -109.015 183.87C-82.3307 218.27 -48.5738 251.384 -8.1726 268.102C29.9781 283.855 52.4827 321.041 84.8465 346.118C116.567 370.659 141.644 390.806 183.438 391.663C222.018 392.413 262.526 396.7 300.891 393.699C334.755 391.02 367.012 379.018 401.197 379.446C420.38 379.768 437.74 375.91 456.387 382.018C473.962 387.805 489.608 398.522 507.076 404.63C526.58 411.381 547.692 411.274 568.053 414.704C595.701 419.419 622.814 424.241 650.891 425.42" stroke="url(#paint6_linear)" stroke-width="0.771423" stroke-miterlimit="10"/>
<path d="M-210.178 163.83C-190.781 160.722 -173.957 149.47 -154.988 146.684C-133.234 143.469 -118.016 157.186 -106.336 174.011C-81.3661 209.804 -46.7518 243.882 -5.27901 258.35C34.372 272.174 56.1265 311.825 88.3831 337.866C119.89 363.264 143.037 385.126 185.474 385.983C224.697 386.84 266.277 391.77 305.285 388.019C339.792 384.697 372.049 370.123 407.091 370.551C426.703 370.766 444.063 365.836 462.924 373.016C480.714 379.767 496.038 391.877 513.721 398.843C533.332 406.666 554.765 406.344 575.34 410.202C603.31 415.56 630.637 421.133 659.25 422.526" stroke="url(#paint7_linear)" stroke-width="0.771423" stroke-miterlimit="10"/>
<path d="M-205.034 159.328C-185.423 155.577 -170.206 142.61 -151.345 138.324C-129.59 133.394 -114.48 148.183 -103.656 165.329C-89.9393 186.977 -70.5425 202.515 -53.3961 221.484C-38.7145 237.773 -23.1756 243.56 -2.17127 249.775C38.5514 261.67 59.9844 303.893 92.1338 330.685C123.426 356.833 144.859 380.195 187.939 381.159C227.697 382.017 270.349 387.589 309.786 383.195C344.936 379.337 377.085 362.513 412.878 362.727C432.918 362.834 450.172 357.047 469.354 364.977C487.358 372.479 502.468 385.875 520.258 393.805C539.762 402.485 561.623 402.056 582.52 406.343C610.812 412.237 638.353 418.56 667.395 420.167" stroke="url(#paint8_linear)" stroke-width="0.771423" stroke-miterlimit="10"/>
<path d="M-199.462 154.506C-178.886 149.791 -162.918 130.501 -142.986 127.287C-120.267 123.643 -108.264 144.326 -98.0837 160.615C-85.8669 180.226 -67.6489 193.836 -52.6458 211.518C-38.1786 228.557 -23.2826 234.559 -2.06397 239.595C7.90236 241.953 20.8693 242.703 29.4425 249.24C38.23 255.884 44.5528 268.101 51.5185 276.46C65.8786 294.035 80.7745 309.145 97.9209 323.827C129.427 350.725 146.788 374.623 191.047 375.909C230.698 377.088 274.421 382.66 313.537 378.052C351.259 373.659 384.373 354.262 422.952 354.369C440.848 354.476 456.173 348.046 473.427 355.012C491.645 362.406 506.541 376.552 523.473 386.304C544.263 398.092 568.696 397.235 591.629 402.593C619.921 409.13 647.248 415.989 676.397 417.81" stroke="url(#paint9_linear)" stroke-width="0.771423" stroke-miterlimit="10"/>
<path d="M-194.211 149.791C-172.992 144.218 -159.49 122.464 -139.343 117.856C-116.302 112.497 -104.728 135.109 -95.4049 151.612C-83.8311 172.081 -65.0773 185.798 -50.0742 203.909C-35.4997 221.591 -20.4967 226.628 1.36498 230.7C11.4385 232.522 25.1556 232.522 33.7288 238.952C42.6235 245.596 48.839 258.456 55.5904 267.029C69.9505 285.354 84.9536 301 102.421 316.325C133.821 344.081 149.253 369.586 194.476 371.086C215.802 371.729 237.128 371.408 258.346 371.943C278.815 372.372 298.426 376.016 319.109 373.229C357.581 368.086 390.374 346.331 430.025 346.224C448.243 346.224 463.567 338.937 480.928 346.653C499.467 354.797 514.042 370.336 531.081 381.052C551.764 394.019 576.626 393.055 599.774 398.842C628.387 406.022 655.928 413.631 685.506 415.667" stroke="url(#paint10_linear)" stroke-width="0.771423" stroke-miterlimit="10"/>
<path d="M-189.496 144.968C-167.313 138.324 -157.132 115.176 -136.878 108.639C-114.373 101.245 -102.371 123.642 -93.9047 140.682C-83.2954 162.115 -64.6487 175.296 -49.7528 193.943C-33.3565 214.625 -17.9248 218.912 8.11627 222.02C19.5829 223.413 29.9779 223.091 38.8726 230.593C45.9455 236.487 51.0894 245.918 56.5548 253.312C72.5223 274.638 88.9186 291.891 108.101 310.002C138.322 338.401 153.217 364.978 198.12 366.157C219.445 366.692 240.771 366.157 261.99 366.907C282.566 367.657 302.605 371.408 323.181 368.514C361.867 363.156 393.91 339.472 433.561 337.972C454.136 337.222 471.176 328.756 490.144 339.044C508.469 349.01 522.508 365.085 539.761 376.552C559.587 389.733 586.056 388.983 608.668 395.091C637.281 402.807 664.501 410.951 694.293 413.202" stroke="url(#paint11_linear)" stroke-width="0.771423" stroke-miterlimit="10"/>
<path d="M-185.423 139.932C-162.276 132.216 -154.774 107.033 -134.199 98.888C-111.48 89.8862 -99.6915 113.784 -91.8685 131.145C-81.795 153.435 -62.7196 166.616 -47.7165 185.906C-31.106 207.232 -15.4599 210.661 11.3313 212.483C23.0123 213.34 33.836 212.268 42.945 219.984C50.125 225.986 55.1618 235.845 60.6272 243.346C76.7019 265.422 93.3124 283.319 112.816 302.18C143.037 331.436 156.111 359.727 202.085 360.906C223.625 361.442 245.272 360.799 266.812 361.656C287.817 362.406 308.071 366.479 329.075 363.264C368.512 357.155 400.018 331.114 440.634 329.293C461.531 328.328 478.57 318.898 497.646 330.043C516.185 340.866 529.902 358.12 547.156 370.765C566.66 385.018 593.665 384.054 616.491 390.698C645.319 399.057 672.753 407.952 702.866 410.309" stroke="url(#paint12_linear)" stroke-width="0.771423" stroke-miterlimit="10"/>
<path d="M-182.637 135.003C-158.203 126.001 -153.595 100.925 -132.591 89.7794C-110.301 77.8841 -97.7625 105.533 -90.7967 122.25C-81.1519 145.398 -61.7551 158.472 -46.5376 178.298C-29.7128 200.374 -13.8524 202.838 13.689 203.589C25.6915 203.91 36.7295 202.303 46.0528 210.018C53.34 216.02 58.3768 226.307 63.735 233.916C79.9169 256.742 96.849 275.175 116.46 294.679C146.681 324.685 158.254 354.477 205.193 355.763C226.947 356.406 248.809 355.655 270.67 356.513C291.996 357.37 312.465 361.657 333.791 358.12C373.977 351.369 404.841 323.185 446.314 320.934C467.425 319.862 484.572 309.575 503.647 321.47C522.401 333.044 535.796 351.476 553.05 364.979C572.34 380.089 599.774 379.125 622.814 386.197C651.856 395.092 679.29 404.63 709.832 407.095" stroke="url(#paint13_linear)" stroke-width="0.771423" stroke-miterlimit="10"/>
<path d="M-180.601 129.216C-155.31 119.035 -153.059 93.3155 -132.377 79.7055C-110.729 65.5598 -97.6552 92.994 -91.1182 109.926C-81.5805 134.681 -61.0049 152.578 -43.6442 173.046C-28.2124 191.264 -11.4947 193.515 11.7601 193.3C24.084 193.193 35.3363 190.836 45.9457 196.73C56.1263 202.516 61.8061 216.234 68.4503 225.664C84.7394 248.919 102.314 267.566 122.033 287.605C152.146 318.255 160.612 347.939 208.3 349.654C230.162 350.404 252.024 349.975 273.885 350.297C297.89 350.618 319.645 356.191 343.757 350.833C384.265 341.724 413.2 313.861 455.958 311.075C474.177 309.896 489.715 299.608 506.755 308.824C527.973 320.291 542.226 343.974 560.659 359.084C579.091 374.195 608.025 373.552 630.423 380.732C659.357 390.055 686.47 400.129 717.012 402.701" stroke="url(#paint14_linear)" stroke-width="0.771423" stroke-miterlimit="10"/>
<path d="M-179.851 122.678C-153.702 111.104 -153.488 83.8843 -132.591 68.5597C-110.837 52.5922 -97.7624 81.5267 -91.654 98.8874C-82.6522 124.5 -61.6479 142.611 -43.9656 163.615C-28.2124 182.369 -10.8517 183.655 12.8317 182.476C25.37 181.833 37.1582 178.725 48.089 184.619C58.484 190.299 64.1637 204.659 70.7008 214.304C87.2042 238.416 105.208 257.491 125.14 278.281C138.429 292.106 147.216 309.252 159.862 323.398C174.222 339.365 190.19 342.045 211.194 342.795C233.27 343.545 255.346 343.116 277.422 343.438C301.855 343.759 323.717 349.653 348.151 343.759C389.302 333.686 417.379 303.679 461.102 300.465C479.535 299.071 495.074 287.926 512.006 297.678C533.439 310.002 547.263 335.186 565.588 351.154C583.699 367.014 613.169 366.371 635.567 374.087C664.608 384.053 691.828 394.662 722.692 397.449" stroke="url(#paint15_linear)" stroke-width="0.771423" stroke-miterlimit="10"/>
<path d="M-180.601 115.391C-154.131 102.853 -155.203 74.8829 -134.841 57.2007C-109.551 35.339 -97.4409 75.633 -92.1898 93.1009C-85.3313 116.034 -62.0765 132.323 -47.1806 150.863C-28.5339 174.118 -11.9233 172.617 16.7969 170.152C27.8348 169.188 43.3737 164.687 53.0186 172.617C59.3413 177.761 64.2709 190.192 68.7718 196.944C84.9537 221.27 101.993 242.81 122.89 263.064C138.965 278.71 147.538 298.965 162.327 315.361C176.687 331.328 192.869 334.329 213.766 334.865C235.628 335.401 257.596 334.651 279.458 335.294C303.892 335.936 325.86 341.831 350.187 335.508C390.159 325.113 418.879 289.856 461.638 288.141C481.785 287.391 500.753 274.745 518.329 286.426C539.44 300.572 552.193 325.97 570.839 343.009C587.236 357.905 611.883 356.727 632.459 363.371C664.716 373.873 693.007 387.268 727.193 390.483" stroke="url(#paint16_linear)" stroke-width="0.771423" stroke-miterlimit="10"/>
<path d="M-183.28 107.246C-156.167 93.3149 -158.632 63.7374 -138.271 44.4477C-112.873 20.4428 -100.763 62.7729 -95.8335 80.5623C-89.4036 104.031 -65.3987 120.642 -50.2884 139.61C-31.2131 163.508 -13.8524 160.936 15.4036 157.4C26.5488 156.006 42.8378 150.648 52.8042 158.686C59.1269 163.829 64.1637 176.796 68.6646 183.548C85.168 208.624 102.529 230.807 123.855 251.812C140.358 267.994 148.502 288.784 163.184 306.037C177.437 322.755 193.619 325.756 214.945 326.291C237.021 326.827 258.989 325.97 281.065 326.506C305.82 327.149 327.896 333.364 352.437 326.506C392.838 315.253 420.594 277.424 464.317 275.388C484.572 274.424 503.54 260.921 521.008 273.138C542.226 288.141 554.55 314.825 572.983 332.828C589.057 348.475 613.92 347.081 634.602 354.154C666.966 365.192 695.151 379.338 729.658 382.66" stroke="url(#paint17_linear)" stroke-width="0.771423" stroke-miterlimit="10"/>
<path d="M-187.245 98.9949C-159.597 83.8846 -163.133 52.6996 -142.772 32.0168C-117.267 6.08291 -105.05 50.2348 -100.442 68.2385C-94.2262 92.2435 -69.5783 109.176 -54.1466 128.465C-34.5354 152.899 -16.4245 149.362 13.2601 144.861C24.5124 143.147 41.5517 136.931 51.8395 145.076C58.2694 150.22 63.3061 163.615 67.807 170.474C84.5248 196.301 102.314 219.02 124.069 240.56C141.001 257.277 148.824 278.389 163.398 296.393C177.544 313.753 193.833 316.754 215.587 317.29C237.771 317.826 259.954 316.861 282.03 317.29C307.106 317.826 329.182 324.363 354.045 316.968C394.874 304.859 421.558 264.886 466.032 262.421C486.393 261.35 505.468 246.99 522.615 259.635C543.941 275.281 555.836 303.251 574.054 322.112C589.7 338.401 614.884 336.901 635.567 344.188C668.038 355.548 696.008 370.443 730.836 373.873" stroke="url(#paint18_linear)" stroke-width="0.771423" stroke-miterlimit="10"/>
<path d="M-192.496 88.922C-165.276 74.5619 -166.884 45.1987 -146.737 24.9445C-122.303 0.403765 -108.265 37.9115 -102.906 57.2012C-96.0477 82.0634 -68.292 101.675 -51.8958 121.822C-34.4279 143.362 -9.24419 137.468 15.7252 133.931C23.3339 132.86 39.4087 128.359 46.5887 132.431C54.6261 136.932 62.985 155.579 68.2361 163.187C85.1681 188.049 102.743 208.196 123.747 229.201C139.608 245.061 148.931 264.565 163.291 281.283C177.33 297.572 194.369 299.501 215.159 300.251C236.914 301.001 258.668 300.787 280.423 301.216C304.427 301.644 326.396 308.503 350.616 302.823C393.481 292.75 420.058 254.277 466.246 253.099C489.394 252.456 500.861 237.345 520.793 253.42C541.369 270.031 553.157 295.857 572.34 313.968C588.2 329.078 614.348 327.9 634.71 334.865C667.502 346.011 696.008 359.728 731.051 362.728" stroke="url(#paint19_linear)" stroke-width="0.771423" stroke-miterlimit="10"/>
<path d="M-197.319 77.3479C-170.42 63.8451 -170.206 35.7679 -149.63 16.6925C-125.197 -5.91927 -110.622 28.5878 -104.407 47.9847C-96.6908 72.0968 -69.3638 91.0649 -52.8604 110.462C-35.2854 131.252 -10.8518 126.537 14.1176 123.643C21.8335 122.786 37.2653 118.928 44.4453 123C52.5899 127.501 60.9487 145.076 66.4141 152.792C83.5605 176.69 100.921 195.979 121.926 216.019C137.679 231.022 147.645 249.99 162.541 265.422C177.33 280.747 194.476 282.033 214.945 282.676C236.378 283.426 257.811 283.855 279.244 284.605C302.713 285.462 324.146 292.321 347.936 287.605C389.731 279.246 417.272 244.204 461.853 244.096C484.786 243.989 496.36 230.379 516.185 245.918C536.761 261.993 549.085 286.855 568.589 304.109C585.199 318.79 611.348 317.719 632.03 324.47C665.573 335.294 695.15 348.046 730.836 350.618" stroke="url(#paint20_linear)" stroke-width="0.771423" stroke-miterlimit="10"/>
<path d="M-201.927 64.4887C-175.671 51.9504 -173.314 25.9094 -152.845 7.90567C-129.805 -12.4557 -113.623 15.4072 -106.228 35.9829C-97.2266 61.3809 -72.15 75.6339 -55.1108 96.1024C-37.5357 117.107 -17.1744 115.499 8.86667 113.356C20.9763 112.391 33.4074 108.641 43.5881 115.499C53.0186 121.929 60.413 135.968 66.95 144.541C83.9892 167.26 101.779 185.264 122.461 204.232C137.465 218.056 147.645 236.596 162.648 250.205C178.294 264.351 195.548 264.78 215.695 265.316C238.628 265.959 261.776 266.923 284.602 268.638C307.214 270.245 327.468 276.675 350.401 271.638C388.123 263.387 414.914 235.631 454.994 235.095C475.034 234.774 492.073 224.593 509.434 236.274C530.117 250.205 543.405 273.675 561.73 290.178C580.806 307.324 607.49 306.681 631.388 314.076C665.359 324.471 695.686 335.937 731.587 337.866" stroke="url(#paint21_linear)" stroke-width="0.771423" stroke-miterlimit="10"/>
<path d="M-206.32 50.4494C-180.708 38.8756 -176.421 14.8707 -155.953 -2.06134C-133.663 -20.3865 -116.409 2.43958 -108.157 23.1224C-97.9767 48.4133 -75.2578 60.7373 -57.8971 81.0986C-40.5364 101.46 -22.104 103.067 3.72274 101.889C16.904 101.353 33.5146 97.1733 44.7669 106.39C51.4111 111.855 56.7693 121.928 62.0204 128.68C78.5238 150.006 95.2415 169.081 116.139 186.12C132.321 199.409 143.573 217.305 159.112 231.129C175.83 246.133 193.512 246.99 215.266 247.74C237.664 248.49 260.49 249.133 282.887 251.705C304.642 254.17 324.36 259.85 346.65 256.099C385.658 249.669 413.736 224.914 454.673 225.235C475.784 225.45 488.751 215.912 507.398 229.093C527.438 243.239 540.833 265.315 560.123 280.425C579.734 295.857 607.168 295.75 630.852 302.501C665.252 312.36 696.222 322.541 732.337 323.934" stroke="url(#paint22_linear)" stroke-width="0.771423" stroke-miterlimit="10"/>
<path d="M-210.286 35.3392C-185.102 25.0514 -178.565 2.33243 -157.561 -12.4563C-134.627 -28.6382 -117.267 -6.88376 -107.836 13.3704C-96.5838 37.9112 -74.0791 50.4495 -56.3969 70.4893C-38.8219 90.422 -20.4967 93.1011 5.33004 93.3154C18.7256 93.4226 34.6932 90.3148 46.0527 99.531C52.8041 104.996 58.2695 114.748 63.7349 121.5C80.4526 142.29 97.3847 160.829 118.282 177.44C134.571 190.407 146.573 207.768 162.648 220.949C180.116 235.202 198.013 236.166 219.874 236.916C241.843 237.667 264.133 238.417 285.995 240.989C307.106 243.453 326.396 248.919 347.936 245.811C385.658 240.453 414.057 218.162 453.386 219.02C473.962 219.448 487.036 210.982 505.469 223.414C525.294 236.702 539.118 257.492 558.515 271.423C578.662 285.891 606.096 285.569 629.887 291.57C664.823 300.465 696.758 309.36 733.194 309.896" stroke="url(#paint23_linear)" stroke-width="0.771423" stroke-miterlimit="10"/>
<path d="M-213.608 21.0858C-188.638 12.1911 -179.744 -8.81326 -158.203 -21.9945C-135.056 -36.2475 -116.623 -17.6008 -106.014 2.54623C-92.94 27.4085 -69.2566 44.2334 -49.1096 63.8445C-30.4629 82.0626 -10.8517 83.8844 14.5464 85.3847C46.5887 87.2065 52.0541 93.3149 72.4154 117.213C89.6689 137.36 107.03 154.399 127.605 170.902C144.645 184.512 158.576 202.837 176.794 214.733C194.048 225.985 212.051 226.199 231.984 226.735C252.774 227.271 273.885 229.2 294.568 231.129C314.715 232.951 332.933 239.166 353.616 236.701C388.445 232.629 416.95 210.446 453.065 212.697C471.283 213.768 487.358 206.588 503.754 215.697C525.401 227.7 539.761 250.419 560.444 263.921C580.591 276.996 607.918 276.245 631.066 281.604C665.787 289.641 697.723 297.035 733.73 296.714" stroke="url(#paint24_linear)" stroke-width="0.771423" stroke-miterlimit="10"/>
<path d="M-217.037 4.69027C-192.175 -3.0256 -180.172 -22.6368 -157.668 -33.6748C-133.448 -45.5701 -114.48 -28.1022 -102.263 -8.27669C-87.3675 15.9426 -63.3626 32.8746 -42.5726 52.2715C-23.3901 70.168 -3.45743 73.383 22.2621 76.1692C33.3001 77.3481 47.5531 76.5979 57.4122 83.0278C66.8427 89.1362 74.13 100.924 81.6315 109.176C99.528 128.787 117.425 145.505 138.429 161.472C156.111 174.868 171.328 192.657 190.511 203.91C208.622 214.626 227.161 214.841 247.63 215.484C267.455 216.019 287.924 217.413 307.535 219.877C326.503 222.235 344.078 227.593 363.475 225.771C396.589 222.556 423.916 205.089 457.887 205.624C474.712 205.946 491.216 200.909 506.433 209.161C527.223 220.413 541.583 241.525 561.944 253.741C582.091 265.851 608.883 264.887 631.709 269.495C666.537 276.46 698.687 282.569 734.48 281.497" stroke="url(#paint25_linear)" stroke-width="0.771423" stroke-miterlimit="10"/>
<path d="M-220.145 -12.2415C-195.925 -18.6714 -180.494 -36.4608 -158.096 -45.4626C-129.376 -56.9293 -111.801 -35.282 -96.155 -14.5991C-80.7232 5.76219 -58.2186 21.3011 -39.2504 38.6618C-17.7103 58.3801 3.61552 63.2026 32.0142 67.4891C40.4802 68.7751 52.3755 68.9895 59.9843 72.9546C70.8079 78.6343 82.7032 95.0305 90.7406 103.497C108.851 122.572 127.284 138.111 148.395 153.435C165.006 165.438 179.687 180.87 197.477 191.265C217.302 202.838 236.913 204.232 259.418 204.982C295.854 206.161 333.683 217.413 369.691 215.27C402.483 213.233 430.346 198.337 463.782 199.409C480.714 199.945 494.109 195.444 509.648 204.017C527.652 213.984 541.262 230.916 558.73 241.632C580.591 255.028 608.24 253.42 633.102 257.707C667.609 263.708 700.187 268.209 735.337 266.173" stroke="url(#paint26_linear)" stroke-width="0.771423" stroke-miterlimit="10"/>
<path d="M-223.038 -29.3877C-199.14 -34.7459 -181.565 -50.1777 -158.954 -57.4649C-130.126 -66.7882 -111.694 -45.3552 -95.2977 -25.3154C-79.0086 -5.27558 -56.8255 10.2633 -37.5358 27.7312C-16.1028 47.2352 5.33017 53.5579 33.193 59.452C41.6591 61.2738 53.0186 62.1311 60.7344 66.4177C71.7724 72.419 83.4534 87.9579 91.9194 96.7454C110.137 115.285 128.677 130.717 149.788 145.72C166.613 157.615 181.831 172.511 200.049 182.477C220.303 193.622 240.128 195.23 262.847 195.98C298.533 197.159 334.862 207.447 370.227 206.054C401.84 204.768 429.81 192.122 461.96 193.515C478.463 194.265 491.966 190.515 507.29 198.338C525.08 207.447 539.226 222.771 556.801 232.309C579.305 244.419 607.061 242.49 632.03 245.812C667.18 250.527 700.723 253.635 736.302 250.741" stroke="url(#paint27_linear)" stroke-width="0.771423" stroke-miterlimit="10"/>
<path d="M-225.61 -46.6424C-201.284 -51.1433 -179.744 -67.4324 -155.417 -70.1115C-129.376 -73.0049 -112.98 -55.5371 -97.5483 -37.2119C-79.3302 -15.6717 -55.9683 1.15316 -35.1783 20.55C-17.0674 37.4821 3.50823 44.5549 26.9773 51.092C53.1256 58.3792 65.8782 67.9169 84.8464 87.2065C104.35 107.032 124.176 123.857 146.788 139.932C184.724 167.044 211.087 186.977 259.418 188.156C294.247 189.013 329.075 198.551 363.689 198.015C394.339 197.479 422.523 185.691 453.494 188.156C471.604 189.549 486.393 186.013 503.325 194.05C521.007 202.409 535.903 216.126 553.907 223.949C575.34 233.272 599.452 231.129 622.278 233.272C661.072 237.023 698.151 239.273 737.052 235.094" stroke="url(#paint28_linear)" stroke-width="0.771423" stroke-miterlimit="10"/>
<path d="M-227.753 -62.0736C-203.963 -65.7172 -181.029 -79.5415 -157.132 -80.1844C-131.305 -80.8274 -115.123 -64.324 -99.2627 -46.2132C-66.0416 -8.16964 -25.1046 28.1593 23.0125 44.877C70.2722 61.3804 100.064 105.639 140.358 134.681C177.437 161.365 205.086 181.298 252.345 182.477C287.067 183.334 321.681 191.693 356.081 191.586C386.623 191.479 415.45 181.727 446.207 184.298C464.317 185.799 479.642 182.905 496.896 189.978C514.899 197.48 530.76 209.482 549.192 216.234C571.482 224.485 596.237 221.913 619.599 223.306C659.572 225.771 698.044 226.414 737.909 221.378" stroke="url(#paint29_linear)" stroke-width="0.771423" stroke-miterlimit="10"/>
<path d="M-229.79 -79.0061C-206.642 -81.578 -183.173 -92.0802 -159.918 -91.2228C-132.377 -90.1512 -115.23 -71.2902 -98.2982 -51.7862C-81.902 -32.818 -60.6834 -17.9221 -42.894 -0.13269C-25.9619 16.7994 -7.74392 27.3015 14.2249 36.9464C61.2703 57.6292 91.7051 100.066 132.964 130.394C168.328 156.435 196.727 175.082 241.843 176.582C277.743 177.761 313.751 184.834 349.437 184.834C379.979 184.834 408.913 177.975 439.562 180.44C457.78 181.94 473.105 179.797 490.68 186.227C509.005 192.978 525.83 202.945 544.798 208.196C568.053 214.626 593.558 211.732 617.456 212.268C658.393 213.233 698.258 212.054 738.874 205.945" stroke="url(#paint30_linear)" stroke-width="0.771423" stroke-miterlimit="10"/>
<path d="M-231.611 -95.5098C-208.999 -97.2245 -185.316 -104.619 -162.597 -101.94C-136.234 -98.8319 -118.659 -81.5784 -101.942 -62.6102C-69.8994 -26.2813 -31.4272 8.97593 11.3316 32.0164C53.3402 54.6282 80.8816 93.9577 119.247 122.142C155.04 148.505 185.153 169.723 231.127 170.795C266.705 171.652 301.856 177.546 337.327 178.296C367.44 178.939 396.911 174.01 427.131 176.367C444.921 177.761 461.746 176.367 479.106 181.297C499.575 187.084 518.972 196.407 539.976 200.48C564.195 205.195 590.343 202.087 614.884 201.766C656.893 201.23 697.937 198.336 739.41 191.263" stroke="url(#paint31_linear)" stroke-width="0.771423" stroke-miterlimit="10"/>
<path d="M-233.005 -111.369C-210.393 -112.227 -186.495 -116.728 -164.098 -112.12C-138.592 -106.869 -120.803 -90.1508 -103.871 -71.6113C-71.2929 -35.7111 -34.964 -0.239491 5.86582 25.9087C77.7735 71.9896 125.783 162.544 220.731 164.794C256.417 165.652 291.46 170.26 326.932 171.76C357.259 173.046 387.373 170.153 417.7 172.725C435.597 174.225 453.065 173.475 470.747 177.547C491.859 182.369 512.434 189.764 533.974 192.657C559.372 195.979 585.842 192.764 611.347 191.586C654.749 189.657 697.401 185.049 740.16 177.118" stroke="url(#paint32_linear)" stroke-width="0.771423" stroke-miterlimit="10"/>
<path d="M-234.183 -126.372C-181.351 -126.587 -144.379 -121.657 -106.336 -81.5775C-71.7214 -45.1415 -36.2498 -8.38392 4.25855 21.6222C71.1294 71.2396 120.211 154.935 212.266 157.722C278.493 159.758 345.686 162.866 411.699 168.974C451.35 172.618 490.466 181.941 530.117 184.834C598.809 189.657 673.825 176.583 740.803 163.187" stroke="url(#paint33_linear)" stroke-width="0.771423" stroke-miterlimit="10"/>
<path d="M-234.933 -139.125C-182.744 -138.054 -144.058 -126.909 -106.443 -89.1867C-70.8641 -53.6079 -36.5713 -16.5289 2.00805 15.8349C64.6995 68.56 117.853 147.433 207.765 150.22C273.778 152.256 339.899 157.936 405.591 165.008C445.349 169.295 485.965 176.475 525.937 177.761C597.202 179.904 671.896 165.973 741.124 151.291" stroke="url(#paint34_linear)" stroke-width="0.771423" stroke-miterlimit="10"/>
<path d="M-235.469 -152.092C-184.459 -149.948 -143.736 -133.231 -106.121 -98.4022C-69.471 -64.5381 -36.2498 -27.3519 -0.0281143 6.94088C59.8771 63.6311 118.389 137.146 207.55 140.468C273.671 142.933 338.077 152.364 403.769 160.615C441.277 165.331 479.749 169.939 517.578 170.153C592.487 170.475 668.681 155.364 741.446 139.182" stroke="url(#paint35_linear)" stroke-width="0.771423" stroke-miterlimit="10"/>
<path d="M467.639 161.044C473.426 187.192 515.971 185.799 522.722 210.661C525.401 220.52 517.793 229.201 519.936 239.381C522.401 250.848 533.974 260.707 536.011 271.852C541.69 303.68 514.578 335.616 494.752 356.62C465.925 386.948 451.458 409.774 451.029 453.283" stroke="url(#paint36_linear)" stroke-width="0.771423" stroke-miterlimit="10"/>
<path d="M432.489 158.15C438.812 183.119 488.751 172.403 494.859 195.229C497.11 203.802 488.215 210.018 489.93 219.02C492.073 230.165 505.254 238.952 507.398 249.669C514.042 282.568 483.5 320.076 464.424 343.224C435.811 377.731 421.451 404.629 421.023 450.924" stroke="url(#paint37_linear)" stroke-width="0.771423" stroke-miterlimit="10"/>
<path d="M401.626 153.542C401.947 184.084 459.388 171.331 464.531 196.622C466.568 206.481 453.922 213.126 454.78 223.628C455.851 236.488 468.175 247.74 470.961 260.171C477.713 290.927 448.242 326.399 430.239 347.725C402.912 380.196 390.695 405.165 391.981 448.888" stroke="url(#paint38_linear)" stroke-width="0.771423" stroke-miterlimit="10"/>
<path d="M372.156 147.755C364.011 180.012 430.882 171.974 430.775 199.516C430.775 211.304 417.379 217.305 417.272 230.165C417.165 243.775 427.024 257.17 428.31 270.994C431.418 303.894 410.306 330.578 390.695 354.476C366.154 384.482 358.331 407.844 361.868 446.959" stroke="url(#paint39_linear)" stroke-width="0.771423" stroke-miterlimit="10"/>
<path d="M344.4 141.646C342.471 167.258 360.796 171.331 380.836 182.476C391.338 188.37 406.984 194.907 403.233 209.803C399.59 224.163 384.372 227.056 384.372 244.953C384.372 260.921 394.339 276.888 395.303 292.748C397.018 321.254 377.514 343.973 359.51 363.156C335.076 389.304 327.039 408.165 331.862 445.137" stroke="url(#paint40_linear)" stroke-width="0.771423" stroke-miterlimit="10"/>
<path d="M315.251 135.752C310.643 163.829 326.396 169.83 348.365 183.655C358.439 189.977 376.764 198.765 373.977 213.661C371.084 228.771 350.187 236.058 347.401 252.026C344.186 270.565 356.402 293.606 356.402 312.681C356.402 338.829 343.007 355.011 324.789 371.943C300.998 394.126 293.068 409.665 299.498 443.744" stroke="url(#paint41_linear)" stroke-width="0.771423" stroke-miterlimit="10"/>
<path d="M285.138 130.716C277.207 158.686 290.067 165.438 312.786 179.691C320.931 184.835 341.506 195.015 339.685 208.304C336.577 231.88 305.499 234.13 306.142 261.993C306.571 280.533 311.607 299.072 311.393 317.612C311.071 342.903 298.426 357.799 281.708 374.838C261.025 395.949 258.132 412.989 266.169 442.352" stroke="url(#paint42_linear)" stroke-width="0.771423" stroke-miterlimit="10"/>
<path d="M251.059 127.287C240.235 154.078 250.202 161.044 273.457 174.653C287.817 183.12 302.82 188.799 298.105 206.053C292.746 225.235 264.669 227.914 259.632 249.24C255.024 268.208 262.419 293.499 261.883 313.218C261.133 339.473 251.488 353.94 235.949 373.98C218.374 396.592 220.303 414.917 229.733 441.601" stroke="url(#paint43_linear)" stroke-width="0.771423" stroke-miterlimit="10"/>
<path d="M213.659 126.001C201.013 151.613 208.193 159.222 232.091 172.296C246.665 180.334 267.241 186.335 257.168 205.732C249.023 221.378 221.589 224.593 214.194 241.846C206.264 260.386 214.302 294.357 213.444 314.397C212.48 336.366 206.264 351.369 194.155 369.051C176.794 394.449 179.366 412.667 191.154 441.066" stroke="url(#paint44_linear)" stroke-width="0.771423" stroke-miterlimit="10"/>
<path d="M174.972 121.071C162.862 145.076 169.078 152.685 190.94 166.295C204.764 174.868 223.303 181.834 213.659 200.588C205.943 215.591 180.652 219.449 174.008 236.059C166.935 253.527 173.9 285.784 173.686 304.645C173.365 327.257 168.649 343.01 156.968 361.871C140.358 388.769 141.322 407.416 152.789 437.315" stroke="url(#paint45_linear)" stroke-width="0.771423" stroke-miterlimit="10"/>
<path d="M137.464 107.247C127.177 131.359 137.143 137.467 158.04 149.791C171.221 157.614 185.689 163.187 181.724 179.154C177.437 196.622 152.146 199.301 148.395 218.805C145.073 236.166 152.468 258.563 152.789 276.353C153.218 304.966 143.037 323.505 127.927 346.76C110.459 373.658 108.637 394.77 116.567 426.169" stroke="url(#paint46_linear)" stroke-width="0.771423" stroke-miterlimit="10"/>
<path d="M102.85 86.6709C85.1679 127.394 152.575 118.07 145.609 150.541C142.287 166.187 119.782 168.759 117.103 186.227C114.638 201.873 122.247 221.699 123.104 237.559C124.819 268.958 113.674 291.785 98.6707 318.361C81.0957 349.439 76.8091 374.194 83.5605 409.88" stroke="url(#paint47_linear)" stroke-width="0.771423" stroke-miterlimit="10"/>
<path d="M68.6645 59.8799C51.411 95.673 112.173 88.7072 105.851 118.392C102.743 132.752 82.8103 135.324 80.5598 151.292C78.6308 165.33 85.4894 183.12 86.8825 197.372C90.0975 230.915 80.2383 257.17 66.3069 286.855C50.0178 321.791 44.8739 349.975 51.411 388.662" stroke="url(#paint48_linear)" stroke-width="0.771423" stroke-miterlimit="10"/>
<path d="M36.408 29.9814C14.4392 49.164 73.1656 61.0593 69.3076 80.4561C66.8428 92.6729 50.6609 96.3165 47.5531 109.391C44.9812 120 52.9114 138.218 54.5189 149.256C59.6628 185.263 50.4466 216.984 36.9438 249.991C21.0834 289.106 15.2965 322.649 21.2977 364.979" stroke="url(#paint49_linear)" stroke-width="0.771423" stroke-miterlimit="10"/>
<path d="M3.82985 -3.23975C-20.0679 22.0512 36.0865 40.5907 26.013 67.7034C21.8335 78.9557 8.65226 85.4928 5.54447 97.6024C2.43669 109.819 8.65227 130.502 10.7956 142.826C15.9395 173.154 14.6535 198.445 4.68715 227.272C-9.13712 266.816 -16.7458 296.608 -8.92279 339.045" stroke="url(#paint50_linear)" stroke-width="0.771423" stroke-miterlimit="10"/>
</g>
</g>
<defs>
<linearGradient id="paint0_linear" x1="-237.442" y1="149.333" x2="738.29" y2="149.333" gradientUnits="userSpaceOnUse">
<stop stop-color="#242426"/>
<stop offset="1" stop-color="#555555"/>
</linearGradient>
<linearGradient id="paint1_linear" x1="-234.865" y1="328.54" x2="623.617" y2="328.54" gradientUnits="userSpaceOnUse">
<stop stop-color="#242426"/>
<stop offset="1" stop-color="#555555"/>
</linearGradient>
<linearGradient id="paint2_linear" x1="-232.721" y1="320.07" x2="626.617" y2="320.07" gradientUnits="userSpaceOnUse">
<stop stop-color="#242426"/>
<stop offset="1" stop-color="#555555"/>
</linearGradient>
<linearGradient id="paint3_linear" x1="-229.935" y1="313.274" x2="630.582" y2="313.274" gradientUnits="userSpaceOnUse">
<stop stop-color="#242426"/>
<stop offset="1" stop-color="#555555"/>
</linearGradient>
<linearGradient id="paint4_linear" x1="-225.863" y1="306.038" x2="636.048" y2="306.038" gradientUnits="userSpaceOnUse">
<stop stop-color="#242426"/>
<stop offset="1" stop-color="#555555"/>
</linearGradient>
<linearGradient id="paint5_linear" x1="-221.041" y1="298.821" x2="643.443" y2="298.821" gradientUnits="userSpaceOnUse">
<stop stop-color="#242426"/>
<stop offset="1" stop-color="#555555"/>
</linearGradient>
<linearGradient id="paint6_linear" x1="-215.79" y1="290.833" x2="650.944" y2="290.833" gradientUnits="userSpaceOnUse">
<stop stop-color="#242426"/>
<stop offset="1" stop-color="#555555"/>
</linearGradient>
<linearGradient id="paint7_linear" x1="-210.217" y1="284.428" x2="659.303" y2="284.428" gradientUnits="userSpaceOnUse">
<stop stop-color="#242426"/>
<stop offset="1" stop-color="#555555"/>
</linearGradient>
<linearGradient id="paint8_linear" x1="-205.073" y1="278.824" x2="667.448" y2="278.824" gradientUnits="userSpaceOnUse">
<stop stop-color="#242426"/>
<stop offset="1" stop-color="#555555"/>
</linearGradient>
<linearGradient id="paint9_linear" x1="-199.501" y1="272.398" x2="676.45" y2="272.398" gradientUnits="userSpaceOnUse">
<stop stop-color="#242426"/>
<stop offset="1" stop-color="#555555"/>
</linearGradient>
<linearGradient id="paint10_linear" x1="-194.25" y1="266.422" x2="685.559" y2="266.422" gradientUnits="userSpaceOnUse">
<stop stop-color="#242426"/>
<stop offset="1" stop-color="#555555"/>
</linearGradient>
<linearGradient id="paint11_linear" x1="-189.535" y1="260.259" x2="694.347" y2="260.259" gradientUnits="userSpaceOnUse">
<stop stop-color="#242426"/>
<stop offset="1" stop-color="#555555"/>
</linearGradient>
<linearGradient id="paint12_linear" x1="-185.463" y1="253.683" x2="702.92" y2="253.683" gradientUnits="userSpaceOnUse">
<stop stop-color="#242426"/>
<stop offset="1" stop-color="#555555"/>
</linearGradient>
<linearGradient id="paint13_linear" x1="-182.677" y1="247.061" x2="709.886" y2="247.061" gradientUnits="userSpaceOnUse">
<stop stop-color="#242426"/>
<stop offset="1" stop-color="#555555"/>
</linearGradient>
<linearGradient id="paint14_linear" x1="-180.641" y1="239.312" x2="717.067" y2="239.312" gradientUnits="userSpaceOnUse">
<stop stop-color="#242426"/>
<stop offset="1" stop-color="#555555"/>
</linearGradient>
<linearGradient id="paint15_linear" x1="-179.891" y1="230.751" x2="722.747" y2="230.751" gradientUnits="userSpaceOnUse">
<stop stop-color="#242426"/>
<stop offset="1" stop-color="#555555"/>
</linearGradient>
<linearGradient id="paint16_linear" x1="-180.641" y1="220.743" x2="727.248" y2="220.743" gradientUnits="userSpaceOnUse">
<stop stop-color="#242426"/>
<stop offset="1" stop-color="#555555"/>
</linearGradient>
<linearGradient id="paint17_linear" x1="-183.321" y1="210.032" x2="729.713" y2="210.032" gradientUnits="userSpaceOnUse">
<stop stop-color="#242426"/>
<stop offset="1" stop-color="#555555"/>
</linearGradient>
<linearGradient id="paint18_linear" x1="-187.286" y1="199.036" x2="730.892" y2="199.036" gradientUnits="userSpaceOnUse">
<stop stop-color="#242426"/>
<stop offset="1" stop-color="#555555"/>
</linearGradient>
<linearGradient id="paint19_linear" x1="-192.537" y1="189.877" x2="731.107" y2="189.877" gradientUnits="userSpaceOnUse">
<stop stop-color="#242426"/>
<stop offset="1" stop-color="#555555"/>
</linearGradient>
<linearGradient id="paint20_linear" x1="-197.36" y1="180.019" x2="730.893" y2="180.019" gradientUnits="userSpaceOnUse">
<stop stop-color="#242426"/>
<stop offset="1" stop-color="#555555"/>
</linearGradient>
<linearGradient id="paint21_linear" x1="-201.968" y1="169.408" x2="731.643" y2="169.408" gradientUnits="userSpaceOnUse">
<stop stop-color="#242426"/>
<stop offset="1" stop-color="#555555"/>
</linearGradient>
<linearGradient id="paint22_linear" x1="-206.362" y1="157.652" x2="732.394" y2="157.652" gradientUnits="userSpaceOnUse">
<stop stop-color="#242426"/>
<stop offset="1" stop-color="#555555"/>
</linearGradient>
<linearGradient id="paint23_linear" x1="-210.328" y1="145.967" x2="733.251" y2="145.967" gradientUnits="userSpaceOnUse">
<stop stop-color="#242426"/>
<stop offset="1" stop-color="#555555"/>
</linearGradient>
<linearGradient id="paint24_linear" x1="-213.65" y1="134.926" x2="733.787" y2="134.926" gradientUnits="userSpaceOnUse">
<stop stop-color="#242426"/>
<stop offset="1" stop-color="#555555"/>
</linearGradient>
<linearGradient id="paint25_linear" x1="-217.079" y1="122.101" x2="734.538" y2="122.101" gradientUnits="userSpaceOnUse">
<stop stop-color="#242426"/>
<stop offset="1" stop-color="#555555"/>
</linearGradient>
<linearGradient id="paint26_linear" x1="-220.187" y1="109.078" x2="735.395" y2="109.078" gradientUnits="userSpaceOnUse">
<stop stop-color="#242426"/>
<stop offset="1" stop-color="#555555"/>
</linearGradient>
<linearGradient id="paint27_linear" x1="-223.081" y1="96.1388" x2="736.36" y2="96.1388" gradientUnits="userSpaceOnUse">
<stop stop-color="#242426"/>
<stop offset="1" stop-color="#555555"/>
</linearGradient>
<linearGradient id="paint28_linear" x1="-225.653" y1="83.5229" x2="737.11" y2="83.5229" gradientUnits="userSpaceOnUse">
<stop stop-color="#242426"/>
<stop offset="1" stop-color="#555555"/>
</linearGradient>
<linearGradient id="paint29_linear" x1="-227.796" y1="72.5509" x2="737.968" y2="72.5509" gradientUnits="userSpaceOnUse">
<stop stop-color="#242426"/>
<stop offset="1" stop-color="#555555"/>
</linearGradient>
<linearGradient id="paint30_linear" x1="-229.833" y1="60.7113" x2="738.933" y2="60.7113" gradientUnits="userSpaceOnUse">
<stop stop-color="#242426"/>
<stop offset="1" stop-color="#555555"/>
</linearGradient>
<linearGradient id="paint31_linear" x1="-231.654" y1="50.3384" x2="739.469" y2="50.3384" gradientUnits="userSpaceOnUse">
<stop stop-color="#242426"/>
<stop offset="1" stop-color="#555555"/>
</linearGradient>
<linearGradient id="paint32_linear" x1="-233.048" y1="40.0424" x2="740.219" y2="40.0424" gradientUnits="userSpaceOnUse">
<stop stop-color="#242426"/>
<stop offset="1" stop-color="#555555"/>
</linearGradient>
<linearGradient id="paint33_linear" x1="-234.227" y1="29.8046" x2="740.862" y2="29.8046" gradientUnits="userSpaceOnUse">
<stop stop-color="#242426"/>
<stop offset="1" stop-color="#555555"/>
</linearGradient>
<linearGradient id="paint34_linear" x1="-234.977" y1="19.494" x2="741.184" y2="19.494" gradientUnits="userSpaceOnUse">
<stop stop-color="#242426"/>
<stop offset="1" stop-color="#555555"/>
</linearGradient>
<linearGradient id="paint35_linear" x1="-235.513" y1="9.10083" x2="741.505" y2="9.10083" gradientUnits="userSpaceOnUse">
<stop stop-color="#242426"/>
<stop offset="1" stop-color="#555555"/>
</linearGradient>
<linearGradient id="paint36_linear" x1="451.025" y1="307.225" x2="536.782" y2="307.225" gradientUnits="userSpaceOnUse">
<stop stop-color="#242426"/>
<stop offset="1" stop-color="#555555"/>
</linearGradient>
<linearGradient id="paint37_linear" x1="421.019" y1="304.599" x2="508.331" y2="304.599" gradientUnits="userSpaceOnUse">
<stop stop-color="#242426"/>
<stop offset="1" stop-color="#555555"/>
</linearGradient>
<linearGradient id="paint38_linear" x1="391.886" y1="301.277" x2="471.953" y2="301.277" gradientUnits="userSpaceOnUse">
<stop stop-color="#242426"/>
<stop offset="1" stop-color="#555555"/>
</linearGradient>
<linearGradient id="paint39_linear" x1="361.058" y1="297.42" x2="430.779" y2="297.42" gradientUnits="userSpaceOnUse">
<stop stop-color="#242426"/>
<stop offset="1" stop-color="#555555"/>
</linearGradient>
<linearGradient id="paint40_linear" x1="330.524" y1="293.455" x2="403.806" y2="293.455" gradientUnits="userSpaceOnUse">
<stop stop-color="#242426"/>
<stop offset="1" stop-color="#555555"/>
</linearGradient>
<linearGradient id="paint41_linear" x1="297.352" y1="289.813" x2="374.267" y2="289.813" gradientUnits="userSpaceOnUse">
<stop stop-color="#242426"/>
<stop offset="1" stop-color="#555555"/>
</linearGradient>
<linearGradient id="paint42_linear" x1="262.026" y1="286.6" x2="339.803" y2="286.6" gradientUnits="userSpaceOnUse">
<stop stop-color="#242426"/>
<stop offset="1" stop-color="#555555"/>
</linearGradient>
<linearGradient id="paint43_linear" x1="222.646" y1="284.51" x2="298.993" y2="284.51" gradientUnits="userSpaceOnUse">
<stop stop-color="#242426"/>
<stop offset="1" stop-color="#555555"/>
</linearGradient>
<linearGradient id="paint44_linear" x1="181.719" y1="283.6" x2="259.848" y2="283.6" gradientUnits="userSpaceOnUse">
<stop stop-color="#242426"/>
<stop offset="1" stop-color="#555555"/>
</linearGradient>
<linearGradient id="paint45_linear" x1="144.312" y1="279.26" x2="216.334" y2="279.26" gradientUnits="userSpaceOnUse">
<stop stop-color="#242426"/>
<stop offset="1" stop-color="#555555"/>
</linearGradient>
<linearGradient id="paint46_linear" x1="112.065" y1="266.775" x2="182.394" y2="266.775" gradientUnits="userSpaceOnUse">
<stop stop-color="#242426"/>
<stop offset="1" stop-color="#555555"/>
</linearGradient>
<linearGradient id="paint47_linear" x1="80.522" y1="248.343" x2="146.12" y2="248.343" gradientUnits="userSpaceOnUse">
<stop stop-color="#242426"/>
<stop offset="1" stop-color="#555555"/>
</linearGradient>
<linearGradient id="paint48_linear" x1="48.6528" y1="224.34" x2="106.318" y2="224.34" gradientUnits="userSpaceOnUse">
<stop stop-color="#242426"/>
<stop offset="1" stop-color="#555555"/>
</linearGradient>
<linearGradient id="paint49_linear" x1="18.975" y1="197.551" x2="69.4935" y2="197.551" gradientUnits="userSpaceOnUse">
<stop stop-color="#242426"/>
<stop offset="1" stop-color="#555555"/>
</linearGradient>
<linearGradient id="paint50_linear" x1="-12.0692" y1="167.974" x2="27.2387" y2="167.974" gradientUnits="userSpaceOnUse">
<stop stop-color="#242426"/>
<stop offset="1" stop-color="#555555"/>
</linearGradient>
</defs>
</svg>
