<svg width="70" height="30" viewBox="0 0 70 30" fill="none" xmlns="http://www.w3.org/2000/svg">
<rect width="23.9327" height="23.9317" rx="1.4191" fill="black"/>
<path d="M18.2794 12.7045C18.2794 13.6644 18.0591 14.5455 17.6185 15.348C17.178 16.1347 16.5014 16.7719 15.5888 17.2597C14.6761 17.7475 13.5433 17.9914 12.1901 17.9914H9.68827V23.9391H5.65234V7.37051H12.1901C13.5118 7.37051 14.6289 7.59867 15.5416 8.05497C16.4542 8.51127 17.1386 9.14066 17.5949 9.94312C18.0512 10.7456 18.2794 11.6661 18.2794 12.7045ZM11.8833 14.7815C12.6542 14.7815 13.2286 14.6006 13.6062 14.2387C13.9838 13.8768 14.1726 13.3654 14.1726 12.7045C14.1726 12.0437 13.9838 11.5323 13.6062 11.1704C13.2286 10.8085 12.6542 10.6276 11.8833 10.6276H9.68827V14.7815H11.8833Z" fill="white"/>
<path d="M18.3625 3.17297H5.65234V5.83943H18.3625V3.17297Z" fill="#E50913"/>
<path d="M37.9803 21.52H32.7403L31.9003 24H28.3203L33.4003 9.95999H37.3603L42.4403 24H38.8203L37.9803 21.52ZM37.1003 18.88L35.3603 13.74L33.6403 18.88H37.1003Z" fill="black"/>
<path d="M47.4064 14.42C47.7397 13.9 48.1997 13.48 48.7864 13.16C49.3731 12.84 50.0597 12.68 50.8464 12.68C51.7664 12.68 52.5997 12.9133 53.3464 13.38C54.0931 13.8467 54.6797 14.5133 55.1064 15.38C55.5464 16.2467 55.7664 17.2533 55.7664 18.4C55.7664 19.5467 55.5464 20.56 55.1064 21.44C54.6797 22.3067 54.0931 22.98 53.3464 23.46C52.5997 23.9267 51.7664 24.16 50.8464 24.16C50.0731 24.16 49.3864 24 48.7864 23.68C48.1997 23.36 47.7397 22.9467 47.4064 22.44V29.32H43.9864V12.84H47.4064V14.42ZM52.2864 18.4C52.2864 17.5467 52.0464 16.88 51.5664 16.4C51.0997 15.9067 50.5197 15.66 49.8264 15.66C49.1464 15.66 48.5664 15.9067 48.0864 16.4C47.6197 16.8933 47.3864 17.5667 47.3864 18.42C47.3864 19.2733 47.6197 19.9467 48.0864 20.44C48.5664 20.9333 49.1464 21.18 49.8264 21.18C50.5064 21.18 51.0864 20.9333 51.5664 20.44C52.0464 19.9333 52.2864 19.2533 52.2864 18.4Z" fill="black"/>
<path d="M60.9806 14.42C61.314 13.9 61.774 13.48 62.3606 13.16C62.9473 12.84 63.634 12.68 64.4206 12.68C65.3406 12.68 66.174 12.9133 66.9206 13.38C67.6673 13.8467 68.254 14.5133 68.6806 15.38C69.1206 16.2467 69.3406 17.2533 69.3406 18.4C69.3406 19.5467 69.1206 20.56 68.6806 21.44C68.254 22.3067 67.6673 22.98 66.9206 23.46C66.174 23.9267 65.3406 24.16 64.4206 24.16C63.6473 24.16 62.9606 24 62.3606 23.68C61.774 23.36 61.314 22.9467 60.9806 22.44V29.32H57.5606V12.84H60.9806V14.42ZM65.8606 18.4C65.8606 17.5467 65.6206 16.88 65.1406 16.4C64.674 15.9067 64.094 15.66 63.4006 15.66C62.7206 15.66 62.1406 15.9067 61.6606 16.4C61.194 16.8933 60.9606 17.5667 60.9606 18.42C60.9606 19.2733 61.194 19.9467 61.6606 20.44C62.1406 20.9333 62.7206 21.18 63.4006 21.18C64.0806 21.18 64.6606 20.9333 65.1406 20.44C65.6206 19.9333 65.8606 19.2533 65.8606 18.4Z" fill="black"/>
</svg>
