<svg width="578" height="140" viewBox="0 0 578 140" fill="none" xmlns="http://www.w3.org/2000/svg">
<rect width="578" height="140" fill="#1D1E22"/>
<path d="M327.055 0H578V140H296L327.055 0Z" fill="url(#paint0_linear)"/>
<path d="M352.954 30.634H345.934L344.422 34H343.036L348.796 21.4H350.11L355.87 34H354.466L352.954 30.634ZM352.468 29.554L349.444 22.786L346.42 29.554H352.468ZM366.236 20.644V34H365.012V32.128C364.628 32.764 364.118 33.25 363.482 33.586C362.858 33.922 362.15 34.09 361.358 34.09C360.47 34.09 359.666 33.886 358.946 33.478C358.226 33.07 357.662 32.5 357.254 31.768C356.846 31.036 356.642 30.202 356.642 29.266C356.642 28.33 356.846 27.496 357.254 26.764C357.662 26.032 358.226 25.468 358.946 25.072C359.666 24.664 360.47 24.46 361.358 24.46C362.126 24.46 362.816 24.622 363.428 24.946C364.052 25.258 364.562 25.72 364.958 26.332V20.644H366.236ZM361.466 32.956C362.126 32.956 362.72 32.806 363.248 32.506C363.788 32.194 364.208 31.756 364.508 31.192C364.82 30.628 364.976 29.986 364.976 29.266C364.976 28.546 364.82 27.904 364.508 27.34C364.208 26.776 363.788 26.344 363.248 26.044C362.72 25.732 362.126 25.576 361.466 25.576C360.794 25.576 360.188 25.732 359.648 26.044C359.12 26.344 358.7 26.776 358.388 27.34C358.088 27.904 357.938 28.546 357.938 29.266C357.938 29.986 358.088 30.628 358.388 31.192C358.7 31.756 359.12 32.194 359.648 32.506C360.188 32.806 360.794 32.956 361.466 32.956ZM378.436 20.644V34H377.212V32.128C376.828 32.764 376.318 33.25 375.682 33.586C375.058 33.922 374.35 34.09 373.558 34.09C372.67 34.09 371.866 33.886 371.146 33.478C370.426 33.07 369.862 32.5 369.454 31.768C369.046 31.036 368.842 30.202 368.842 29.266C368.842 28.33 369.046 27.496 369.454 26.764C369.862 26.032 370.426 25.468 371.146 25.072C371.866 24.664 372.67 24.46 373.558 24.46C374.326 24.46 375.016 24.622 375.628 24.946C376.252 25.258 376.762 25.72 377.158 26.332V20.644H378.436ZM373.666 32.956C374.326 32.956 374.92 32.806 375.448 32.506C375.988 32.194 376.408 31.756 376.708 31.192C377.02 30.628 377.176 29.986 377.176 29.266C377.176 28.546 377.02 27.904 376.708 27.34C376.408 26.776 375.988 26.344 375.448 26.044C374.92 25.732 374.326 25.576 373.666 25.576C372.994 25.576 372.388 25.732 371.848 26.044C371.32 26.344 370.9 26.776 370.588 27.34C370.288 27.904 370.138 28.546 370.138 29.266C370.138 29.986 370.288 30.628 370.588 31.192C370.9 31.756 371.32 32.194 371.848 32.506C372.388 32.806 372.994 32.956 373.666 32.956ZM381.995 24.532H383.273V34H381.995V24.532ZM382.643 22.462C382.379 22.462 382.157 22.372 381.977 22.192C381.797 22.012 381.707 21.796 381.707 21.544C381.707 21.304 381.797 21.094 381.977 20.914C382.157 20.734 382.379 20.644 382.643 20.644C382.907 20.644 383.129 20.734 383.309 20.914C383.489 21.082 383.579 21.286 383.579 21.526C383.579 21.79 383.489 22.012 383.309 22.192C383.129 22.372 382.907 22.462 382.643 22.462ZM391.815 33.424C391.575 33.64 391.275 33.808 390.915 33.928C390.567 34.036 390.201 34.09 389.817 34.09C388.929 34.09 388.245 33.85 387.765 33.37C387.285 32.89 387.045 32.212 387.045 31.336V25.612H385.353V24.532H387.045V22.462H388.323V24.532H391.203V25.612H388.323V31.264C388.323 31.828 388.461 32.26 388.737 32.56C389.025 32.848 389.433 32.992 389.961 32.992C390.225 32.992 390.477 32.95 390.717 32.866C390.969 32.782 391.185 32.662 391.365 32.506L391.815 33.424ZM394.141 24.532H395.419V34H394.141V24.532ZM394.789 22.462C394.525 22.462 394.303 22.372 394.123 22.192C393.943 22.012 393.853 21.796 393.853 21.544C393.853 21.304 393.943 21.094 394.123 20.914C394.303 20.734 394.525 20.644 394.789 20.644C395.053 20.644 395.275 20.734 395.455 20.914C395.635 21.082 395.725 21.286 395.725 21.526C395.725 21.79 395.635 22.012 395.455 22.192C395.275 22.372 395.053 22.462 394.789 22.462ZM402.845 34.09C401.933 34.09 401.111 33.886 400.379 33.478C399.647 33.058 399.071 32.482 398.651 31.75C398.231 31.018 398.021 30.19 398.021 29.266C398.021 28.342 398.231 27.514 398.651 26.782C399.071 26.05 399.647 25.48 400.379 25.072C401.111 24.664 401.933 24.46 402.845 24.46C403.757 24.46 404.579 24.664 405.311 25.072C406.043 25.48 406.613 26.05 407.021 26.782C407.441 27.514 407.651 28.342 407.651 29.266C407.651 30.19 407.441 31.018 407.021 31.75C406.613 32.482 406.043 33.058 405.311 33.478C404.579 33.886 403.757 34.09 402.845 34.09ZM402.845 32.956C403.517 32.956 404.117 32.806 404.645 32.506C405.185 32.194 405.605 31.756 405.905 31.192C406.205 30.628 406.355 29.986 406.355 29.266C406.355 28.546 406.205 27.904 405.905 27.34C405.605 26.776 405.185 26.344 404.645 26.044C404.117 25.732 403.517 25.576 402.845 25.576C402.173 25.576 401.567 25.732 401.027 26.044C400.499 26.344 400.079 26.776 399.767 27.34C399.467 27.904 399.317 28.546 399.317 29.266C399.317 29.986 399.467 30.628 399.767 31.192C400.079 31.756 400.499 32.194 401.027 32.506C401.567 32.806 402.173 32.956 402.845 32.956ZM415.085 24.46C416.273 24.46 417.215 24.808 417.911 25.504C418.619 26.188 418.973 27.19 418.973 28.51V34H417.695V28.636C417.695 27.652 417.449 26.902 416.957 26.386C416.465 25.87 415.763 25.612 414.851 25.612C413.831 25.612 413.021 25.918 412.421 26.53C411.833 27.13 411.539 27.964 411.539 29.032V34H410.261V24.532H411.485V26.278C411.833 25.702 412.313 25.258 412.925 24.946C413.549 24.622 414.269 24.46 415.085 24.46ZM425.754 24.46C426.99 24.46 427.938 24.772 428.598 25.396C429.258 26.008 429.588 26.92 429.588 28.132V34H428.364V32.524C428.076 33.016 427.65 33.4 427.086 33.676C426.534 33.952 425.874 34.09 425.106 34.09C424.05 34.09 423.21 33.838 422.586 33.334C421.962 32.83 421.65 32.164 421.65 31.336C421.65 30.532 421.938 29.884 422.514 29.392C423.102 28.9 424.032 28.654 425.304 28.654H428.31V28.078C428.31 27.262 428.082 26.644 427.626 26.224C427.17 25.792 426.504 25.576 425.628 25.576C425.028 25.576 424.452 25.678 423.9 25.882C423.348 26.074 422.874 26.344 422.478 26.692L421.902 25.738C422.382 25.33 422.958 25.018 423.63 24.802C424.302 24.574 425.01 24.46 425.754 24.46ZM425.304 33.082C426.024 33.082 426.642 32.92 427.158 32.596C427.674 32.26 428.058 31.78 428.31 31.156V29.608H425.34C423.72 29.608 422.91 30.172 422.91 31.3C422.91 31.852 423.12 32.29 423.54 32.614C423.96 32.926 424.548 33.082 425.304 33.082ZM433.059 20.644H434.337V34H433.059V20.644ZM446.348 34.108C445.412 34.108 444.512 33.958 443.648 33.658C442.796 33.358 442.136 32.962 441.668 32.47L442.19 31.444C442.646 31.9 443.252 32.272 444.008 32.56C444.764 32.836 445.544 32.974 446.348 32.974C447.476 32.974 448.322 32.77 448.886 32.362C449.45 31.942 449.732 31.402 449.732 30.742C449.732 30.238 449.576 29.836 449.264 29.536C448.964 29.236 448.592 29.008 448.148 28.852C447.704 28.684 447.086 28.504 446.294 28.312C445.346 28.072 444.59 27.844 444.026 27.628C443.462 27.4 442.976 27.058 442.568 26.602C442.172 26.146 441.974 25.528 441.974 24.748C441.974 24.112 442.142 23.536 442.478 23.02C442.814 22.492 443.33 22.072 444.026 21.76C444.722 21.448 445.586 21.292 446.618 21.292C447.338 21.292 448.04 21.394 448.724 21.598C449.42 21.79 450.02 22.06 450.524 22.408L450.074 23.47C449.546 23.122 448.982 22.864 448.382 22.696C447.782 22.516 447.194 22.426 446.618 22.426C445.514 22.426 444.68 22.642 444.116 23.074C443.564 23.494 443.288 24.04 443.288 24.712C443.288 25.216 443.438 25.624 443.738 25.936C444.05 26.236 444.434 26.47 444.89 26.638C445.358 26.794 445.982 26.968 446.762 27.16C447.686 27.388 448.43 27.616 448.994 27.844C449.57 28.06 450.056 28.396 450.452 28.852C450.848 29.296 451.046 29.902 451.046 30.67C451.046 31.306 450.872 31.888 450.524 32.416C450.188 32.932 449.666 33.346 448.958 33.658C448.25 33.958 447.38 34.108 446.348 34.108ZM458.664 33.424C458.424 33.64 458.124 33.808 457.764 33.928C457.416 34.036 457.05 34.09 456.666 34.09C455.778 34.09 455.094 33.85 454.614 33.37C454.134 32.89 453.894 32.212 453.894 31.336V25.612H452.202V24.532H453.894V22.462H455.172V24.532H458.052V25.612H455.172V31.264C455.172 31.828 455.31 32.26 455.586 32.56C455.874 32.848 456.282 32.992 456.81 32.992C457.074 32.992 457.326 32.95 457.566 32.866C457.818 32.782 458.034 32.662 458.214 32.506L458.664 33.424ZM464.303 24.46C465.539 24.46 466.487 24.772 467.147 25.396C467.807 26.008 468.137 26.92 468.137 28.132V34H466.913V32.524C466.625 33.016 466.199 33.4 465.635 33.676C465.083 33.952 464.423 34.09 463.655 34.09C462.599 34.09 461.759 33.838 461.135 33.334C460.511 32.83 460.199 32.164 460.199 31.336C460.199 30.532 460.487 29.884 461.063 29.392C461.651 28.9 462.581 28.654 463.853 28.654H466.859V28.078C466.859 27.262 466.631 26.644 466.175 26.224C465.719 25.792 465.053 25.576 464.177 25.576C463.577 25.576 463.001 25.678 462.449 25.882C461.897 26.074 461.423 26.344 461.027 26.692L460.451 25.738C460.931 25.33 461.507 25.018 462.179 24.802C462.851 24.574 463.559 24.46 464.303 24.46ZM463.853 33.082C464.573 33.082 465.191 32.92 465.707 32.596C466.223 32.26 466.607 31.78 466.859 31.156V29.608H463.889C462.269 29.608 461.459 30.172 461.459 31.3C461.459 31.852 461.669 32.29 462.089 32.614C462.509 32.926 463.097 33.082 463.853 33.082ZM475.118 29.248L472.886 31.3V34H471.608V20.644H472.886V29.698L478.538 24.532H480.122L476.072 28.402L480.5 34H478.934L475.118 29.248ZM490.276 29.662H482.356C482.428 30.646 482.806 31.444 483.49 32.056C484.174 32.656 485.038 32.956 486.082 32.956C486.67 32.956 487.21 32.854 487.702 32.65C488.194 32.434 488.62 32.122 488.98 31.714L489.7 32.542C489.28 33.046 488.752 33.43 488.116 33.694C487.492 33.958 486.802 34.09 486.046 34.09C485.074 34.09 484.21 33.886 483.454 33.478C482.71 33.058 482.128 32.482 481.708 31.75C481.288 31.018 481.078 30.19 481.078 29.266C481.078 28.342 481.276 27.514 481.672 26.782C482.08 26.05 482.632 25.48 483.328 25.072C484.036 24.664 484.828 24.46 485.704 24.46C486.58 24.46 487.366 24.664 488.062 25.072C488.758 25.48 489.304 26.05 489.7 26.782C490.096 27.502 490.294 28.33 490.294 29.266L490.276 29.662ZM485.704 25.558C484.792 25.558 484.024 25.852 483.4 26.44C482.788 27.016 482.44 27.772 482.356 28.708H489.07C488.986 27.772 488.632 27.016 488.008 26.44C487.396 25.852 486.628 25.558 485.704 25.558ZM493.165 21.4H498.295C499.627 21.4 500.803 21.67 501.823 22.21C502.843 22.738 503.635 23.482 504.199 24.442C504.763 25.39 505.045 26.476 505.045 27.7C505.045 28.924 504.763 30.016 504.199 30.976C503.635 31.924 502.843 32.668 501.823 33.208C500.803 33.736 499.627 34 498.295 34H493.165V21.4ZM498.223 32.848C499.327 32.848 500.293 32.632 501.121 32.2C501.949 31.756 502.591 31.15 503.047 30.382C503.503 29.602 503.731 28.708 503.731 27.7C503.731 26.692 503.503 25.804 503.047 25.036C502.591 24.256 501.949 23.65 501.121 23.218C500.293 22.774 499.327 22.552 498.223 22.552H494.497V32.848H498.223ZM508.99 26.386C509.29 25.75 509.734 25.27 510.322 24.946C510.922 24.622 511.66 24.46 512.536 24.46V25.702L512.23 25.684C511.234 25.684 510.454 25.99 509.89 26.602C509.326 27.214 509.044 28.072 509.044 29.176V34H507.766V24.532H508.99V26.386ZM518.632 34.09C517.72 34.09 516.898 33.886 516.166 33.478C515.434 33.058 514.858 32.482 514.438 31.75C514.018 31.018 513.808 30.19 513.808 29.266C513.808 28.342 514.018 27.514 514.438 26.782C514.858 26.05 515.434 25.48 516.166 25.072C516.898 24.664 517.72 24.46 518.632 24.46C519.544 24.46 520.366 24.664 521.098 25.072C521.83 25.48 522.4 26.05 522.808 26.782C523.228 27.514 523.438 28.342 523.438 29.266C523.438 30.19 523.228 31.018 522.808 31.75C522.4 32.482 521.83 33.058 521.098 33.478C520.366 33.886 519.544 34.09 518.632 34.09ZM518.632 32.956C519.304 32.956 519.904 32.806 520.432 32.506C520.972 32.194 521.392 31.756 521.692 31.192C521.992 30.628 522.142 29.986 522.142 29.266C522.142 28.546 521.992 27.904 521.692 27.34C521.392 26.776 520.972 26.344 520.432 26.044C519.904 25.732 519.304 25.576 518.632 25.576C517.96 25.576 517.354 25.732 516.814 26.044C516.286 26.344 515.866 26.776 515.554 27.34C515.254 27.904 515.104 28.546 515.104 29.266C515.104 29.986 515.254 30.628 515.554 31.192C515.866 31.756 516.286 32.194 516.814 32.506C517.354 32.806 517.96 32.956 518.632 32.956ZM530.926 24.46C531.814 24.46 532.618 24.664 533.338 25.072C534.058 25.468 534.622 26.032 535.03 26.764C535.438 27.496 535.642 28.33 535.642 29.266C535.642 30.214 535.438 31.054 535.03 31.786C534.622 32.518 534.058 33.088 533.338 33.496C532.63 33.892 531.826 34.09 530.926 34.09C530.158 34.09 529.462 33.934 528.838 33.622C528.226 33.298 527.722 32.83 527.326 32.218V37.492H526.048V24.532H527.272V26.404C527.656 25.78 528.16 25.3 528.784 24.964C529.42 24.628 530.134 24.46 530.926 24.46ZM530.836 32.956C531.496 32.956 532.096 32.806 532.636 32.506C533.176 32.194 533.596 31.756 533.896 31.192C534.208 30.628 534.364 29.986 534.364 29.266C534.364 28.546 534.208 27.91 533.896 27.358C533.596 26.794 533.176 26.356 532.636 26.044C532.096 25.732 531.496 25.576 530.836 25.576C530.164 25.576 529.558 25.732 529.018 26.044C528.49 26.356 528.07 26.794 527.758 27.358C527.458 27.91 527.308 28.546 527.308 29.266C527.308 29.986 527.458 30.628 527.758 31.192C528.07 31.756 528.49 32.194 529.018 32.506C529.558 32.806 530.164 32.956 530.836 32.956ZM546.828 34.09C545.916 34.09 545.094 33.886 544.362 33.478C543.63 33.058 543.054 32.482 542.634 31.75C542.214 31.018 542.004 30.19 542.004 29.266C542.004 28.342 542.214 27.514 542.634 26.782C543.054 26.05 543.63 25.48 544.362 25.072C545.094 24.664 545.916 24.46 546.828 24.46C547.74 24.46 548.562 24.664 549.294 25.072C550.026 25.48 550.596 26.05 551.004 26.782C551.424 27.514 551.634 28.342 551.634 29.266C551.634 30.19 551.424 31.018 551.004 31.75C550.596 32.482 550.026 33.058 549.294 33.478C548.562 33.886 547.74 34.09 546.828 34.09ZM546.828 32.956C547.5 32.956 548.1 32.806 548.628 32.506C549.168 32.194 549.588 31.756 549.888 31.192C550.188 30.628 550.338 29.986 550.338 29.266C550.338 28.546 550.188 27.904 549.888 27.34C549.588 26.776 549.168 26.344 548.628 26.044C548.1 25.732 547.5 25.576 546.828 25.576C546.156 25.576 545.55 25.732 545.01 26.044C544.482 26.344 544.062 26.776 543.75 27.34C543.45 27.904 543.3 28.546 543.3 29.266C543.3 29.986 543.45 30.628 543.75 31.192C544.062 31.756 544.482 32.194 545.01 32.506C545.55 32.806 546.156 32.956 546.828 32.956ZM557.375 21.634C556.823 21.634 556.403 21.784 556.115 22.084C555.839 22.384 555.701 22.828 555.701 23.416V24.532H558.617V25.612H555.737V34H554.459V25.612H552.767V24.532H554.459V23.362C554.459 22.498 554.705 21.814 555.197 21.31C555.701 20.806 556.409 20.554 557.321 20.554C557.681 20.554 558.029 20.608 558.365 20.716C558.701 20.812 558.983 20.956 559.211 21.148L558.779 22.102C558.407 21.79 557.939 21.634 557.375 21.634ZM352.54 61.848V63H343.702V62.082L348.94 56.952C349.6 56.304 350.044 55.746 350.272 55.278C350.512 54.798 350.632 54.318 350.632 53.838C350.632 53.094 350.374 52.518 349.858 52.11C349.354 51.69 348.628 51.48 347.68 51.48C346.204 51.48 345.058 51.948 344.242 52.884L343.324 52.092C343.816 51.516 344.44 51.072 345.196 50.76C345.964 50.448 346.828 50.292 347.788 50.292C349.072 50.292 350.086 50.598 350.83 51.21C351.586 51.81 351.964 52.638 351.964 53.694C351.964 54.342 351.82 54.966 351.532 55.566C351.244 56.166 350.698 56.856 349.894 57.636L345.61 61.848H352.54ZM359.118 63.108C358.146 63.108 357.276 62.85 356.508 62.334C355.752 61.818 355.158 61.08 354.726 60.12C354.306 59.148 354.096 58.008 354.096 56.7C354.096 55.392 354.306 54.258 354.726 53.298C355.158 52.326 355.752 51.582 356.508 51.066C357.276 50.55 358.146 50.292 359.118 50.292C360.09 50.292 360.954 50.55 361.71 51.066C362.478 51.582 363.078 52.326 363.51 53.298C363.942 54.258 364.158 55.392 364.158 56.7C364.158 58.008 363.942 59.148 363.51 60.12C363.078 61.08 362.478 61.818 361.71 62.334C360.954 62.85 360.09 63.108 359.118 63.108ZM359.118 61.92C359.85 61.92 360.492 61.716 361.044 61.308C361.608 60.9 362.046 60.306 362.358 59.526C362.67 58.746 362.826 57.804 362.826 56.7C362.826 55.596 362.67 54.654 362.358 53.874C362.046 53.094 361.608 52.5 361.044 52.092C360.492 51.684 359.85 51.48 359.118 51.48C358.386 51.48 357.738 51.684 357.174 52.092C356.622 52.5 356.19 53.094 355.878 53.874C355.566 54.654 355.41 55.596 355.41 56.7C355.41 57.804 355.566 58.746 355.878 59.526C356.19 60.306 356.622 60.9 357.174 61.308C357.738 61.716 358.386 61.92 359.118 61.92ZM366.811 61.128C367.087 61.128 367.315 61.224 367.495 61.416C367.675 61.596 367.765 61.824 367.765 62.1C367.765 62.244 367.741 62.4 367.693 62.568C367.657 62.736 367.597 62.928 367.513 63.144L366.757 65.628H365.893L366.505 63.018C366.313 62.958 366.157 62.85 366.037 62.694C365.917 62.526 365.857 62.328 365.857 62.1C365.857 61.824 365.947 61.596 366.127 61.416C366.307 61.224 366.535 61.128 366.811 61.128ZM374.464 63.108C373.492 63.108 372.622 62.85 371.854 62.334C371.098 61.818 370.504 61.08 370.072 60.12C369.652 59.148 369.442 58.008 369.442 56.7C369.442 55.392 369.652 54.258 370.072 53.298C370.504 52.326 371.098 51.582 371.854 51.066C372.622 50.55 373.492 50.292 374.464 50.292C375.436 50.292 376.3 50.55 377.056 51.066C377.824 51.582 378.424 52.326 378.856 53.298C379.288 54.258 379.504 55.392 379.504 56.7C379.504 58.008 379.288 59.148 378.856 60.12C378.424 61.08 377.824 61.818 377.056 62.334C376.3 62.85 375.436 63.108 374.464 63.108ZM374.464 61.92C375.196 61.92 375.838 61.716 376.39 61.308C376.954 60.9 377.392 60.306 377.704 59.526C378.016 58.746 378.172 57.804 378.172 56.7C378.172 55.596 378.016 54.654 377.704 53.874C377.392 53.094 376.954 52.5 376.39 52.092C375.838 51.684 375.196 51.48 374.464 51.48C373.732 51.48 373.084 51.684 372.52 52.092C371.968 52.5 371.536 53.094 371.224 53.874C370.912 54.654 370.756 55.596 370.756 56.7C370.756 57.804 370.912 58.746 371.224 59.526C371.536 60.306 371.968 60.9 372.52 61.308C373.084 61.716 373.732 61.92 374.464 61.92ZM386.382 63.108C385.41 63.108 384.54 62.85 383.772 62.334C383.016 61.818 382.422 61.08 381.99 60.12C381.57 59.148 381.36 58.008 381.36 56.7C381.36 55.392 381.57 54.258 381.99 53.298C382.422 52.326 383.016 51.582 383.772 51.066C384.54 50.55 385.41 50.292 386.382 50.292C387.354 50.292 388.218 50.55 388.974 51.066C389.742 51.582 390.342 52.326 390.774 53.298C391.206 54.258 391.422 55.392 391.422 56.7C391.422 58.008 391.206 59.148 390.774 60.12C390.342 61.08 389.742 61.818 388.974 62.334C388.218 62.85 387.354 63.108 386.382 63.108ZM386.382 61.92C387.114 61.92 387.756 61.716 388.308 61.308C388.872 60.9 389.31 60.306 389.622 59.526C389.934 58.746 390.09 57.804 390.09 56.7C390.09 55.596 389.934 54.654 389.622 53.874C389.31 53.094 388.872 52.5 388.308 52.092C387.756 51.684 387.114 51.48 386.382 51.48C385.65 51.48 385.002 51.684 384.438 52.092C383.886 52.5 383.454 53.094 383.142 53.874C382.83 54.654 382.674 55.596 382.674 56.7C382.674 57.804 382.83 58.746 383.142 59.526C383.454 60.306 383.886 60.9 384.438 61.308C385.002 61.716 385.65 61.92 386.382 61.92ZM398.3 63.108C397.328 63.108 396.458 62.85 395.69 62.334C394.934 61.818 394.34 61.08 393.908 60.12C393.488 59.148 393.278 58.008 393.278 56.7C393.278 55.392 393.488 54.258 393.908 53.298C394.34 52.326 394.934 51.582 395.69 51.066C396.458 50.55 397.328 50.292 398.3 50.292C399.272 50.292 400.136 50.55 400.892 51.066C401.66 51.582 402.26 52.326 402.692 53.298C403.124 54.258 403.34 55.392 403.34 56.7C403.34 58.008 403.124 59.148 402.692 60.12C402.26 61.08 401.66 61.818 400.892 62.334C400.136 62.85 399.272 63.108 398.3 63.108ZM398.3 61.92C399.032 61.92 399.674 61.716 400.226 61.308C400.79 60.9 401.228 60.306 401.54 59.526C401.852 58.746 402.008 57.804 402.008 56.7C402.008 55.596 401.852 54.654 401.54 53.874C401.228 53.094 400.79 52.5 400.226 52.092C399.674 51.684 399.032 51.48 398.3 51.48C397.568 51.48 396.92 51.684 396.356 52.092C395.804 52.5 395.372 53.094 395.06 53.874C394.748 54.654 394.592 55.596 394.592 56.7C394.592 57.804 394.748 58.746 395.06 59.526C395.372 60.306 395.804 60.9 396.356 61.308C396.92 61.716 397.568 61.92 398.3 61.92ZM418.925 63L414.857 57.456L410.807 63H409.277L414.065 56.52L409.583 50.4H411.113L414.911 55.548L418.691 50.4H420.131L415.667 56.484L420.473 63H418.925ZM427.112 50.4C428.72 50.4 429.98 50.784 430.892 51.552C431.804 52.32 432.26 53.376 432.26 54.72C432.26 56.064 431.804 57.12 430.892 57.888C429.98 58.644 428.72 59.022 427.112 59.022H423.728V63H422.396V50.4H427.112ZM427.076 57.852C428.324 57.852 429.278 57.582 429.938 57.042C430.598 56.49 430.928 55.716 430.928 54.72C430.928 53.7 430.598 52.92 429.938 52.38C429.278 51.828 428.324 51.552 427.076 51.552H423.728V57.852H427.076ZM443.744 63L440.864 58.95C440.54 58.986 440.204 59.004 439.856 59.004H436.472V63H435.14V50.4H439.856C441.464 50.4 442.724 50.784 443.636 51.552C444.548 52.32 445.004 53.376 445.004 54.72C445.004 55.704 444.752 56.538 444.248 57.222C443.756 57.894 443.048 58.38 442.124 58.68L445.202 63H443.744ZM439.82 57.87C441.068 57.87 442.022 57.594 442.682 57.042C443.342 56.49 443.672 55.716 443.672 54.72C443.672 53.7 443.342 52.92 442.682 52.38C442.022 51.828 441.068 51.552 439.82 51.552H436.472V57.87H439.82ZM450.42 51.552H445.992V50.4H456.18V51.552H451.752V63H450.42V51.552ZM466.061 53.46C467.297 53.46 468.245 53.772 468.905 54.396C469.565 55.008 469.895 55.92 469.895 57.132V63H468.671V61.524C468.383 62.016 467.957 62.4 467.393 62.676C466.841 62.952 466.181 63.09 465.413 63.09C464.357 63.09 463.517 62.838 462.893 62.334C462.269 61.83 461.957 61.164 461.957 60.336C461.957 59.532 462.245 58.884 462.821 58.392C463.409 57.9 464.339 57.654 465.611 57.654H468.617V57.078C468.617 56.262 468.389 55.644 467.933 55.224C467.477 54.792 466.811 54.576 465.935 54.576C465.335 54.576 464.759 54.678 464.207 54.882C463.655 55.074 463.181 55.344 462.785 55.692L462.209 54.738C462.689 54.33 463.265 54.018 463.937 53.802C464.609 53.574 465.317 53.46 466.061 53.46ZM465.611 62.082C466.331 62.082 466.949 61.92 467.465 61.596C467.981 61.26 468.365 60.78 468.617 60.156V58.608H465.647C464.027 58.608 463.217 59.172 463.217 60.3C463.217 60.852 463.427 61.29 463.847 61.614C464.267 61.926 464.855 62.082 465.611 62.082ZM475.904 63.09C475.136 63.09 474.398 62.982 473.69 62.766C472.994 62.538 472.448 62.256 472.052 61.92L472.628 60.912C473.024 61.224 473.522 61.482 474.122 61.686C474.722 61.878 475.346 61.974 475.994 61.974C476.858 61.974 477.494 61.842 477.902 61.578C478.322 61.302 478.532 60.918 478.532 60.426C478.532 60.078 478.418 59.808 478.19 59.616C477.962 59.412 477.674 59.262 477.326 59.166C476.978 59.058 476.516 58.956 475.94 58.86C475.172 58.716 474.554 58.572 474.086 58.428C473.618 58.272 473.216 58.014 472.88 57.654C472.556 57.294 472.394 56.796 472.394 56.16C472.394 55.368 472.724 54.72 473.384 54.216C474.044 53.712 474.962 53.46 476.138 53.46C476.75 53.46 477.362 53.544 477.974 53.712C478.586 53.868 479.09 54.078 479.486 54.342L478.928 55.368C478.148 54.828 477.218 54.558 476.138 54.558C475.322 54.558 474.704 54.702 474.284 54.99C473.876 55.278 473.672 55.656 473.672 56.124C473.672 56.484 473.786 56.772 474.014 56.988C474.254 57.204 474.548 57.366 474.896 57.474C475.244 57.57 475.724 57.672 476.336 57.78C477.092 57.924 477.698 58.068 478.154 58.212C478.61 58.356 479 58.602 479.324 58.95C479.648 59.298 479.81 59.778 479.81 60.39C479.81 61.218 479.462 61.878 478.766 62.37C478.082 62.85 477.128 63.09 475.904 63.09ZM349.768 79.4C351.376 79.4 352.636 79.784 353.548 80.552C354.46 81.32 354.916 82.376 354.916 83.72C354.916 85.064 354.46 86.12 353.548 86.888C352.636 87.644 351.376 88.022 349.768 88.022H346.384V92H345.052V79.4H349.768ZM349.732 86.852C350.98 86.852 351.934 86.582 352.594 86.042C353.254 85.49 353.584 84.716 353.584 83.72C353.584 82.7 353.254 81.92 352.594 81.38C351.934 80.828 350.98 80.552 349.732 80.552H346.384V86.852H349.732ZM365.717 87.662H357.797C357.869 88.646 358.247 89.444 358.931 90.056C359.615 90.656 360.479 90.956 361.523 90.956C362.111 90.956 362.651 90.854 363.143 90.65C363.635 90.434 364.061 90.122 364.421 89.714L365.141 90.542C364.721 91.046 364.193 91.43 363.557 91.694C362.933 91.958 362.243 92.09 361.487 92.09C360.515 92.09 359.651 91.886 358.895 91.478C358.151 91.058 357.569 90.482 357.149 89.75C356.729 89.018 356.519 88.19 356.519 87.266C356.519 86.342 356.717 85.514 357.113 84.782C357.521 84.05 358.073 83.48 358.769 83.072C359.477 82.664 360.269 82.46 361.145 82.46C362.021 82.46 362.807 82.664 363.503 83.072C364.199 83.48 364.745 84.05 365.141 84.782C365.537 85.502 365.735 86.33 365.735 87.266L365.717 87.662ZM361.145 83.558C360.233 83.558 359.465 83.852 358.841 84.44C358.229 85.016 357.881 85.772 357.797 86.708H364.511C364.427 85.772 364.073 85.016 363.449 84.44C362.837 83.852 362.069 83.558 361.145 83.558ZM369.561 84.386C369.861 83.75 370.305 83.27 370.893 82.946C371.493 82.622 372.231 82.46 373.107 82.46V83.702L372.801 83.684C371.805 83.684 371.025 83.99 370.461 84.602C369.897 85.214 369.615 86.072 369.615 87.176V92H368.337V82.532H369.561V84.386ZM378.029 92.09C377.261 92.09 376.523 91.982 375.815 91.766C375.119 91.538 374.573 91.256 374.177 90.92L374.753 89.912C375.149 90.224 375.647 90.482 376.247 90.686C376.847 90.878 377.471 90.974 378.119 90.974C378.983 90.974 379.619 90.842 380.027 90.578C380.447 90.302 380.657 89.918 380.657 89.426C380.657 89.078 380.543 88.808 380.315 88.616C380.087 88.412 379.799 88.262 379.451 88.166C379.103 88.058 378.641 87.956 378.065 87.86C377.297 87.716 376.679 87.572 376.211 87.428C375.743 87.272 375.341 87.014 375.005 86.654C374.681 86.294 374.519 85.796 374.519 85.16C374.519 84.368 374.849 83.72 375.509 83.216C376.169 82.712 377.087 82.46 378.263 82.46C378.875 82.46 379.487 82.544 380.099 82.712C380.711 82.868 381.215 83.078 381.611 83.342L381.053 84.368C380.273 83.828 379.343 83.558 378.263 83.558C377.447 83.558 376.829 83.702 376.409 83.99C376.001 84.278 375.797 84.656 375.797 85.124C375.797 85.484 375.911 85.772 376.139 85.988C376.379 86.204 376.673 86.366 377.021 86.474C377.369 86.57 377.849 86.672 378.461 86.78C379.217 86.924 379.823 87.068 380.279 87.212C380.735 87.356 381.125 87.602 381.449 87.95C381.773 88.298 381.935 88.778 381.935 89.39C381.935 90.218 381.587 90.878 380.891 91.37C380.207 91.85 379.253 92.09 378.029 92.09ZM384.298 82.532H385.576V92H384.298V82.532ZM384.946 80.462C384.682 80.462 384.46 80.372 384.28 80.192C384.1 80.012 384.01 79.796 384.01 79.544C384.01 79.304 384.1 79.094 384.28 78.914C384.46 78.734 384.682 78.644 384.946 78.644C385.21 78.644 385.432 78.734 385.612 78.914C385.792 79.082 385.882 79.286 385.882 79.526C385.882 79.79 385.792 80.012 385.612 80.192C385.432 80.372 385.21 80.462 384.946 80.462ZM391.67 92.09C390.902 92.09 390.164 91.982 389.456 91.766C388.76 91.538 388.214 91.256 387.818 90.92L388.394 89.912C388.79 90.224 389.288 90.482 389.888 90.686C390.488 90.878 391.112 90.974 391.76 90.974C392.624 90.974 393.26 90.842 393.668 90.578C394.088 90.302 394.298 89.918 394.298 89.426C394.298 89.078 394.184 88.808 393.956 88.616C393.728 88.412 393.44 88.262 393.092 88.166C392.744 88.058 392.282 87.956 391.706 87.86C390.938 87.716 390.32 87.572 389.852 87.428C389.384 87.272 388.982 87.014 388.646 86.654C388.322 86.294 388.16 85.796 388.16 85.16C388.16 84.368 388.49 83.72 389.15 83.216C389.81 82.712 390.728 82.46 391.904 82.46C392.516 82.46 393.128 82.544 393.74 82.712C394.352 82.868 394.856 83.078 395.252 83.342L394.694 84.368C393.914 83.828 392.984 83.558 391.904 83.558C391.088 83.558 390.47 83.702 390.05 83.99C389.642 84.278 389.438 84.656 389.438 85.124C389.438 85.484 389.552 85.772 389.78 85.988C390.02 86.204 390.314 86.366 390.662 86.474C391.01 86.57 391.49 86.672 392.102 86.78C392.858 86.924 393.464 87.068 393.92 87.212C394.376 87.356 394.766 87.602 395.09 87.95C395.414 88.298 395.576 88.778 395.576 89.39C395.576 90.218 395.228 90.878 394.532 91.37C393.848 91.85 392.894 92.09 391.67 92.09ZM402.924 91.424C402.684 91.64 402.384 91.808 402.024 91.928C401.676 92.036 401.31 92.09 400.926 92.09C400.038 92.09 399.354 91.85 398.874 91.37C398.394 90.89 398.154 90.212 398.154 89.336V83.612H396.462V82.532H398.154V80.462H399.432V82.532H402.312V83.612H399.432V89.264C399.432 89.828 399.57 90.26 399.846 90.56C400.134 90.848 400.542 90.992 401.07 90.992C401.334 90.992 401.586 90.95 401.826 90.866C402.078 90.782 402.294 90.662 402.474 90.506L402.924 91.424ZM413.161 87.662H405.241C405.313 88.646 405.691 89.444 406.375 90.056C407.059 90.656 407.923 90.956 408.967 90.956C409.555 90.956 410.095 90.854 410.587 90.65C411.079 90.434 411.505 90.122 411.865 89.714L412.585 90.542C412.165 91.046 411.637 91.43 411.001 91.694C410.377 91.958 409.687 92.09 408.931 92.09C407.959 92.09 407.095 91.886 406.339 91.478C405.595 91.058 405.013 90.482 404.593 89.75C404.173 89.018 403.963 88.19 403.963 87.266C403.963 86.342 404.161 85.514 404.557 84.782C404.965 84.05 405.517 83.48 406.213 83.072C406.921 82.664 407.713 82.46 408.589 82.46C409.465 82.46 410.251 82.664 410.947 83.072C411.643 83.48 412.189 84.05 412.585 84.782C412.981 85.502 413.179 86.33 413.179 87.266L413.161 87.662ZM408.589 83.558C407.677 83.558 406.909 83.852 406.285 84.44C405.673 85.016 405.325 85.772 405.241 86.708H411.955C411.871 85.772 411.517 85.016 410.893 84.44C410.281 83.852 409.513 83.558 408.589 83.558ZM420.604 82.46C421.792 82.46 422.734 82.808 423.43 83.504C424.138 84.188 424.492 85.19 424.492 86.51V92H423.214V86.636C423.214 85.652 422.968 84.902 422.476 84.386C421.984 83.87 421.282 83.612 420.37 83.612C419.35 83.612 418.54 83.918 417.94 84.53C417.352 85.13 417.058 85.964 417.058 87.032V92H415.78V82.532H417.004V84.278C417.352 83.702 417.832 83.258 418.444 82.946C419.068 82.622 419.788 82.46 420.604 82.46ZM431.921 92.09C430.985 92.09 430.145 91.886 429.401 91.478C428.669 91.07 428.093 90.5 427.673 89.768C427.253 89.024 427.043 88.19 427.043 87.266C427.043 86.342 427.253 85.514 427.673 84.782C428.093 84.05 428.669 83.48 429.401 83.072C430.145 82.664 430.985 82.46 431.921 82.46C432.737 82.46 433.463 82.622 434.099 82.946C434.747 83.258 435.257 83.72 435.629 84.332L434.675 84.98C434.363 84.512 433.967 84.164 433.487 83.936C433.007 83.696 432.485 83.576 431.921 83.576C431.237 83.576 430.619 83.732 430.067 84.044C429.527 84.344 429.101 84.776 428.789 85.34C428.489 85.904 428.339 86.546 428.339 87.266C428.339 87.998 428.489 88.646 428.789 89.21C429.101 89.762 429.527 90.194 430.067 90.506C430.619 90.806 431.237 90.956 431.921 90.956C432.485 90.956 433.007 90.842 433.487 90.614C433.967 90.386 434.363 90.038 434.675 89.57L435.629 90.218C435.257 90.83 434.747 91.298 434.099 91.622C433.451 91.934 432.725 92.09 431.921 92.09ZM446.225 87.662H438.305C438.377 88.646 438.755 89.444 439.439 90.056C440.123 90.656 440.987 90.956 442.031 90.956C442.619 90.956 443.159 90.854 443.651 90.65C444.143 90.434 444.569 90.122 444.929 89.714L445.649 90.542C445.229 91.046 444.701 91.43 444.065 91.694C443.441 91.958 442.751 92.09 441.995 92.09C441.023 92.09 440.159 91.886 439.403 91.478C438.659 91.058 438.077 90.482 437.657 89.75C437.237 89.018 437.027 88.19 437.027 87.266C437.027 86.342 437.225 85.514 437.621 84.782C438.029 84.05 438.581 83.48 439.277 83.072C439.985 82.664 440.777 82.46 441.653 82.46C442.529 82.46 443.315 82.664 444.011 83.072C444.707 83.48 445.253 84.05 445.649 84.782C446.045 85.502 446.243 86.33 446.243 87.266L446.225 87.662ZM441.653 83.558C440.741 83.558 439.973 83.852 439.349 84.44C438.737 85.016 438.389 85.772 438.305 86.708H445.019C444.935 85.772 444.581 85.016 443.957 84.44C443.345 83.852 442.577 83.558 441.653 83.558ZM458.433 82.46C459.321 82.46 460.125 82.664 460.845 83.072C461.565 83.468 462.129 84.032 462.537 84.764C462.945 85.496 463.149 86.33 463.149 87.266C463.149 88.214 462.945 89.054 462.537 89.786C462.129 90.518 461.565 91.088 460.845 91.496C460.137 91.892 459.333 92.09 458.433 92.09C457.665 92.09 456.969 91.934 456.345 91.622C455.733 91.298 455.229 90.83 454.833 90.218V95.492H453.555V82.532H454.779V84.404C455.163 83.78 455.667 83.3 456.291 82.964C456.927 82.628 457.641 82.46 458.433 82.46ZM458.343 90.956C459.003 90.956 459.603 90.806 460.143 90.506C460.683 90.194 461.103 89.756 461.403 89.192C461.715 88.628 461.871 87.986 461.871 87.266C461.871 86.546 461.715 85.91 461.403 85.358C461.103 84.794 460.683 84.356 460.143 84.044C459.603 83.732 459.003 83.576 458.343 83.576C457.671 83.576 457.065 83.732 456.525 84.044C455.997 84.356 455.577 84.794 455.265 85.358C454.965 85.91 454.815 86.546 454.815 87.266C454.815 87.986 454.965 88.628 455.265 89.192C455.577 89.756 455.997 90.194 456.525 90.506C457.065 90.806 457.671 90.956 458.343 90.956ZM469.014 82.46C470.25 82.46 471.198 82.772 471.858 83.396C472.518 84.008 472.848 84.92 472.848 86.132V92H471.624V90.524C471.336 91.016 470.91 91.4 470.346 91.676C469.794 91.952 469.134 92.09 468.366 92.09C467.31 92.09 466.47 91.838 465.846 91.334C465.222 90.83 464.91 90.164 464.91 89.336C464.91 88.532 465.198 87.884 465.774 87.392C466.362 86.9 467.292 86.654 468.564 86.654H471.57V86.078C471.57 85.262 471.342 84.644 470.886 84.224C470.43 83.792 469.764 83.576 468.888 83.576C468.288 83.576 467.712 83.678 467.16 83.882C466.608 84.074 466.134 84.344 465.738 84.692L465.162 83.738C465.642 83.33 466.218 83.018 466.89 82.802C467.562 82.574 468.27 82.46 469.014 82.46ZM468.564 91.082C469.284 91.082 469.902 90.92 470.418 90.596C470.934 90.26 471.318 89.78 471.57 89.156V87.608H468.6C466.98 87.608 466.17 88.172 466.17 89.3C466.17 89.852 466.38 90.29 466.8 90.614C467.22 90.926 467.808 91.082 468.564 91.082ZM477.543 84.386C477.843 83.75 478.287 83.27 478.875 82.946C479.475 82.622 480.213 82.46 481.089 82.46V83.702L480.783 83.684C479.787 83.684 479.007 83.99 478.443 84.602C477.879 85.214 477.597 86.072 477.597 87.176V92H476.319V82.532H477.543V84.386ZM488.793 91.424C488.553 91.64 488.253 91.808 487.893 91.928C487.545 92.036 487.179 92.09 486.795 92.09C485.907 92.09 485.223 91.85 484.743 91.37C484.263 90.89 484.023 90.212 484.023 89.336V83.612H482.331V82.532H484.023V80.462H485.301V82.532H488.181V83.612H485.301V89.264C485.301 89.828 485.439 90.26 485.715 90.56C486.003 90.848 486.411 90.992 486.939 90.992C487.203 90.992 487.455 90.95 487.695 90.866C487.947 90.782 488.163 90.662 488.343 90.506L488.793 91.424ZM495.944 82.46C497.132 82.46 498.074 82.808 498.77 83.504C499.478 84.188 499.832 85.19 499.832 86.51V92H498.554V86.636C498.554 85.652 498.308 84.902 497.816 84.386C497.324 83.87 496.622 83.612 495.71 83.612C494.69 83.612 493.88 83.918 493.28 84.53C492.692 85.13 492.398 85.964 492.398 87.032V92H491.12V82.532H492.344V84.278C492.692 83.702 493.172 83.258 493.784 82.946C494.408 82.622 495.128 82.46 495.944 82.46ZM511.581 87.662H503.661C503.733 88.646 504.111 89.444 504.795 90.056C505.479 90.656 506.343 90.956 507.387 90.956C507.975 90.956 508.515 90.854 509.007 90.65C509.499 90.434 509.925 90.122 510.285 89.714L511.005 90.542C510.585 91.046 510.057 91.43 509.421 91.694C508.797 91.958 508.107 92.09 507.351 92.09C506.379 92.09 505.515 91.886 504.759 91.478C504.015 91.058 503.433 90.482 503.013 89.75C502.593 89.018 502.383 88.19 502.383 87.266C502.383 86.342 502.581 85.514 502.977 84.782C503.385 84.05 503.937 83.48 504.633 83.072C505.341 82.664 506.133 82.46 507.009 82.46C507.885 82.46 508.671 82.664 509.367 83.072C510.063 83.48 510.609 84.05 511.005 84.782C511.401 85.502 511.599 86.33 511.599 87.266L511.581 87.662ZM507.009 83.558C506.097 83.558 505.329 83.852 504.705 84.44C504.093 85.016 503.745 85.772 503.661 86.708H510.375C510.291 85.772 509.937 85.016 509.313 84.44C508.701 83.852 507.933 83.558 507.009 83.558ZM515.424 84.386C515.724 83.75 516.168 83.27 516.756 82.946C517.356 82.622 518.094 82.46 518.97 82.46V83.702L518.664 83.684C517.668 83.684 516.888 83.99 516.324 84.602C515.76 85.214 515.478 86.072 515.478 87.176V92H514.2V82.532H515.424V84.386ZM523.892 92.09C523.124 92.09 522.386 91.982 521.678 91.766C520.982 91.538 520.436 91.256 520.04 90.92L520.616 89.912C521.012 90.224 521.51 90.482 522.11 90.686C522.71 90.878 523.334 90.974 523.982 90.974C524.846 90.974 525.482 90.842 525.89 90.578C526.31 90.302 526.52 89.918 526.52 89.426C526.52 89.078 526.406 88.808 526.178 88.616C525.95 88.412 525.662 88.262 525.314 88.166C524.966 88.058 524.504 87.956 523.928 87.86C523.16 87.716 522.542 87.572 522.074 87.428C521.606 87.272 521.204 87.014 520.868 86.654C520.544 86.294 520.382 85.796 520.382 85.16C520.382 84.368 520.712 83.72 521.372 83.216C522.032 82.712 522.95 82.46 524.126 82.46C524.738 82.46 525.35 82.544 525.962 82.712C526.574 82.868 527.078 83.078 527.474 83.342L526.916 84.368C526.136 83.828 525.206 83.558 524.126 83.558C523.31 83.558 522.692 83.702 522.272 83.99C521.864 84.278 521.66 84.656 521.66 85.124C521.66 85.484 521.774 85.772 522.002 85.988C522.242 86.204 522.536 86.366 522.884 86.474C523.232 86.57 523.712 86.672 524.324 86.78C525.08 86.924 525.686 87.068 526.142 87.212C526.598 87.356 526.988 87.602 527.312 87.95C527.636 88.298 527.798 88.778 527.798 89.39C527.798 90.218 527.45 90.878 526.754 91.37C526.07 91.85 525.116 92.09 523.892 92.09ZM358.678 111.532L355.096 121H353.89L350.902 113.242L347.914 121H346.708L343.144 111.532H344.368L347.338 119.578L350.38 111.532H351.478L354.502 119.578L357.508 111.532H358.678ZM360.602 111.532H361.88V121H360.602V111.532ZM361.25 109.462C360.986 109.462 360.764 109.372 360.584 109.192C360.404 109.012 360.314 108.796 360.314 108.544C360.314 108.304 360.404 108.094 360.584 107.914C360.764 107.734 360.986 107.644 361.25 107.644C361.514 107.644 361.736 107.734 361.916 107.914C362.096 108.082 362.186 108.286 362.186 108.526C362.186 108.79 362.096 109.012 361.916 109.192C361.736 109.372 361.514 109.462 361.25 109.462ZM370.422 120.424C370.182 120.64 369.882 120.808 369.522 120.928C369.174 121.036 368.808 121.09 368.424 121.09C367.536 121.09 366.852 120.85 366.372 120.37C365.892 119.89 365.652 119.212 365.652 118.336V112.612H363.96V111.532H365.652V109.462H366.93V111.532H369.81V112.612H366.93V118.264C366.93 118.828 367.068 119.26 367.344 119.56C367.632 119.848 368.04 119.992 368.568 119.992C368.832 119.992 369.084 119.95 369.324 119.866C369.576 119.782 369.792 119.662 369.972 119.506L370.422 120.424ZM377.573 111.46C378.761 111.46 379.703 111.808 380.399 112.504C381.107 113.188 381.461 114.19 381.461 115.51V121H380.183V115.636C380.183 114.652 379.937 113.902 379.445 113.386C378.953 112.87 378.251 112.612 377.339 112.612C376.319 112.612 375.509 112.918 374.909 113.53C374.321 114.13 374.027 114.964 374.027 116.032V121H372.749V107.644H374.027V113.188C374.375 112.636 374.855 112.21 375.467 111.91C376.079 111.61 376.781 111.46 377.573 111.46ZM393.88 121.216C392.884 121.216 391.918 121.084 390.982 120.82C390.058 120.544 389.314 120.19 388.75 119.758L389.74 117.562C390.28 117.958 390.922 118.276 391.666 118.516C392.41 118.756 393.154 118.876 393.898 118.876C394.726 118.876 395.338 118.756 395.734 118.516C396.13 118.264 396.328 117.934 396.328 117.526C396.328 117.226 396.208 116.98 395.968 116.788C395.74 116.584 395.44 116.422 395.068 116.302C394.708 116.182 394.216 116.05 393.592 115.906C392.632 115.678 391.846 115.45 391.234 115.222C390.622 114.994 390.094 114.628 389.65 114.124C389.218 113.62 389.002 112.948 389.002 112.108C389.002 111.376 389.2 110.716 389.596 110.128C389.992 109.528 390.586 109.054 391.378 108.706C392.182 108.358 393.16 108.184 394.312 108.184C395.116 108.184 395.902 108.28 396.67 108.472C397.438 108.664 398.11 108.94 398.686 109.3L397.786 111.514C396.622 110.854 395.458 110.524 394.294 110.524C393.478 110.524 392.872 110.656 392.476 110.92C392.092 111.184 391.9 111.532 391.9 111.964C391.9 112.396 392.122 112.72 392.566 112.936C393.022 113.14 393.712 113.344 394.636 113.548C395.596 113.776 396.382 114.004 396.994 114.232C397.606 114.46 398.128 114.82 398.56 115.312C399.004 115.804 399.226 116.47 399.226 117.31C399.226 118.03 399.022 118.69 398.614 119.29C398.218 119.878 397.618 120.346 396.814 120.694C396.01 121.042 395.032 121.216 393.88 121.216ZM407.267 120.532C406.991 120.736 406.649 120.892 406.241 121C405.845 121.096 405.425 121.144 404.981 121.144C403.829 121.144 402.935 120.85 402.299 120.262C401.675 119.674 401.363 118.81 401.363 117.67V113.692H399.869V111.532H401.363V109.174H404.171V111.532H406.583V113.692H404.171V117.634C404.171 118.042 404.273 118.36 404.477 118.588C404.693 118.804 404.993 118.912 405.377 118.912C405.821 118.912 406.199 118.792 406.511 118.552L407.267 120.532ZM412.749 111.172C414.249 111.172 415.401 111.532 416.205 112.252C417.009 112.96 417.411 114.034 417.411 115.474V121H414.783V119.794C414.255 120.694 413.271 121.144 411.831 121.144C411.087 121.144 410.439 121.018 409.887 120.766C409.347 120.514 408.933 120.166 408.645 119.722C408.357 119.278 408.213 118.774 408.213 118.21C408.213 117.31 408.549 116.602 409.221 116.086C409.905 115.57 410.955 115.312 412.371 115.312H414.603C414.603 114.7 414.417 114.232 414.045 113.908C413.673 113.572 413.115 113.404 412.371 113.404C411.855 113.404 411.345 113.488 410.841 113.656C410.349 113.812 409.929 114.028 409.581 114.304L408.573 112.342C409.101 111.97 409.731 111.682 410.463 111.478C411.207 111.274 411.969 111.172 412.749 111.172ZM412.533 119.254C413.013 119.254 413.439 119.146 413.811 118.93C414.183 118.702 414.447 118.372 414.603 117.94V116.95H412.677C411.525 116.95 410.949 117.328 410.949 118.084C410.949 118.444 411.087 118.732 411.363 118.948C411.651 119.152 412.041 119.254 412.533 119.254ZM424.11 117.202L422.76 118.534V121H419.952V107.644H422.76V115.204L426.864 111.316H430.212L426.18 115.42L430.572 121H427.17L424.11 117.202ZM431.765 111.316H434.573V121H431.765V111.316ZM433.169 109.966C432.653 109.966 432.233 109.816 431.909 109.516C431.585 109.216 431.423 108.844 431.423 108.4C431.423 107.956 431.585 107.584 431.909 107.284C432.233 106.984 432.653 106.834 433.169 106.834C433.685 106.834 434.105 106.978 434.429 107.266C434.753 107.554 434.915 107.914 434.915 108.346C434.915 108.814 434.753 109.204 434.429 109.516C434.105 109.816 433.685 109.966 433.169 109.966ZM443.065 111.172C444.265 111.172 445.231 111.532 445.963 112.252C446.707 112.972 447.079 114.04 447.079 115.456V121H444.271V115.888C444.271 115.12 444.103 114.55 443.767 114.178C443.431 113.794 442.945 113.602 442.309 113.602C441.601 113.602 441.037 113.824 440.617 114.268C440.197 114.7 439.987 115.348 439.987 116.212V121H437.179V111.316H439.861V112.45C440.233 112.042 440.695 111.73 441.247 111.514C441.799 111.286 442.405 111.172 443.065 111.172ZM459.72 111.316V119.38C459.72 121.156 459.258 122.476 458.334 123.34C457.41 124.204 456.06 124.636 454.284 124.636C453.348 124.636 452.46 124.522 451.62 124.294C450.78 124.066 450.084 123.736 449.532 123.304L450.648 121.288C451.056 121.624 451.572 121.888 452.196 122.08C452.82 122.284 453.444 122.386 454.068 122.386C455.04 122.386 455.754 122.164 456.21 121.72C456.678 121.288 456.912 120.628 456.912 119.74V119.326C456.18 120.13 455.16 120.532 453.852 120.532C452.964 120.532 452.148 120.34 451.404 119.956C450.672 119.56 450.09 119.008 449.658 118.3C449.226 117.592 449.01 116.776 449.01 115.852C449.01 114.928 449.226 114.112 449.658 113.404C450.09 112.696 450.672 112.15 451.404 111.766C452.148 111.37 452.964 111.172 453.852 111.172C455.256 111.172 456.324 111.634 457.056 112.558V111.316H459.72ZM454.41 118.228C455.154 118.228 455.76 118.012 456.228 117.58C456.708 117.136 456.948 116.56 456.948 115.852C456.948 115.144 456.708 114.574 456.228 114.142C455.76 113.698 455.154 113.476 454.41 113.476C453.666 113.476 453.054 113.698 452.574 114.142C452.094 114.574 451.854 115.144 451.854 115.852C451.854 116.56 452.094 117.136 452.574 117.58C453.054 118.012 453.666 118.228 454.41 118.228ZM475.657 121L473.227 117.49H473.083H470.545V121H467.629V108.4H473.083C474.199 108.4 475.165 108.586 475.981 108.958C476.809 109.33 477.445 109.858 477.889 110.542C478.333 111.226 478.555 112.036 478.555 112.972C478.555 113.908 478.327 114.718 477.871 115.402C477.427 116.074 476.791 116.59 475.963 116.95L478.789 121H475.657ZM475.603 112.972C475.603 112.264 475.375 111.724 474.919 111.352C474.463 110.968 473.797 110.776 472.921 110.776H470.545V115.168H472.921C473.797 115.168 474.463 114.976 474.919 114.592C475.375 114.208 475.603 113.668 475.603 112.972ZM490.153 116.194C490.153 116.23 490.135 116.482 490.099 116.95H482.773C482.905 117.55 483.217 118.024 483.709 118.372C484.201 118.72 484.813 118.894 485.545 118.894C486.049 118.894 486.493 118.822 486.877 118.678C487.273 118.522 487.639 118.282 487.975 117.958L489.469 119.578C488.557 120.622 487.225 121.144 485.473 121.144C484.381 121.144 483.415 120.934 482.575 120.514C481.735 120.082 481.087 119.488 480.631 118.732C480.175 117.976 479.947 117.118 479.947 116.158C479.947 115.21 480.169 114.358 480.613 113.602C481.069 112.834 481.687 112.24 482.467 111.82C483.259 111.388 484.141 111.172 485.113 111.172C486.061 111.172 486.919 111.376 487.687 111.784C488.455 112.192 489.055 112.78 489.487 113.548C489.931 114.304 490.153 115.186 490.153 116.194ZM485.131 113.296C484.495 113.296 483.961 113.476 483.529 113.836C483.097 114.196 482.833 114.688 482.737 115.312H487.507C487.411 114.7 487.147 114.214 486.715 113.854C486.283 113.482 485.755 113.296 485.131 113.296ZM507.399 111.316L503.889 121H501.189L499.011 114.988L496.761 121H494.061L490.569 111.316H493.215L495.501 117.868L497.877 111.316H500.253L502.557 117.868L504.915 111.316H507.399ZM512.294 111.172C513.794 111.172 514.946 111.532 515.75 112.252C516.554 112.96 516.956 114.034 516.956 115.474V121H514.328V119.794C513.8 120.694 512.816 121.144 511.376 121.144C510.632 121.144 509.984 121.018 509.432 120.766C508.892 120.514 508.478 120.166 508.19 119.722C507.902 119.278 507.758 118.774 507.758 118.21C507.758 117.31 508.094 116.602 508.766 116.086C509.45 115.57 510.5 115.312 511.916 115.312H514.148C514.148 114.7 513.962 114.232 513.59 113.908C513.218 113.572 512.66 113.404 511.916 113.404C511.4 113.404 510.89 113.488 510.386 113.656C509.894 113.812 509.474 114.028 509.126 114.304L508.118 112.342C508.646 111.97 509.276 111.682 510.008 111.478C510.752 111.274 511.514 111.172 512.294 111.172ZM512.078 119.254C512.558 119.254 512.984 119.146 513.356 118.93C513.728 118.702 513.992 118.372 514.148 117.94V116.95H512.222C511.07 116.95 510.494 117.328 510.494 118.084C510.494 118.444 510.632 118.732 510.908 118.948C511.196 119.152 511.586 119.254 512.078 119.254ZM522.179 112.594C522.515 112.126 522.965 111.772 523.529 111.532C524.105 111.292 524.765 111.172 525.509 111.172V113.764C525.197 113.74 524.987 113.728 524.879 113.728C524.075 113.728 523.445 113.956 522.989 114.412C522.533 114.856 522.305 115.528 522.305 116.428V121H519.497V111.316H522.179V112.594ZM536.955 107.644V121H534.273V119.884C533.577 120.724 532.569 121.144 531.249 121.144C530.337 121.144 529.509 120.94 528.765 120.532C528.033 120.124 527.457 119.542 527.037 118.786C526.617 118.03 526.407 117.154 526.407 116.158C526.407 115.162 526.617 114.286 527.037 113.53C527.457 112.774 528.033 112.192 528.765 111.784C529.509 111.376 530.337 111.172 531.249 111.172C532.485 111.172 533.451 111.562 534.147 112.342V107.644H536.955ZM531.735 118.84C532.443 118.84 533.031 118.6 533.499 118.12C533.967 117.628 534.201 116.974 534.201 116.158C534.201 115.342 533.967 114.694 533.499 114.214C533.031 113.722 532.443 113.476 531.735 113.476C531.015 113.476 530.421 113.722 529.953 114.214C529.485 114.694 529.251 115.342 529.251 116.158C529.251 116.974 529.485 117.628 529.953 118.12C530.421 118.6 531.015 118.84 531.735 118.84ZM542.812 121.144C542.008 121.144 541.222 121.048 540.454 120.856C539.686 120.652 539.074 120.4 538.618 120.1L539.554 118.084C539.986 118.36 540.508 118.588 541.12 118.768C541.732 118.936 542.332 119.02 542.92 119.02C544.108 119.02 544.702 118.726 544.702 118.138C544.702 117.862 544.54 117.664 544.216 117.544C543.892 117.424 543.394 117.322 542.722 117.238C541.93 117.118 541.276 116.98 540.76 116.824C540.244 116.668 539.794 116.392 539.41 115.996C539.038 115.6 538.852 115.036 538.852 114.304C538.852 113.692 539.026 113.152 539.374 112.684C539.734 112.204 540.25 111.832 540.922 111.568C541.606 111.304 542.41 111.172 543.334 111.172C544.018 111.172 544.696 111.25 545.368 111.406C546.052 111.55 546.616 111.754 547.06 112.018L546.124 114.016C545.272 113.536 544.342 113.296 543.334 113.296C542.734 113.296 542.284 113.38 541.984 113.548C541.684 113.716 541.534 113.932 541.534 114.196C541.534 114.496 541.696 114.706 542.02 114.826C542.344 114.946 542.86 115.06 543.568 115.168C544.36 115.3 545.008 115.444 545.512 115.6C546.016 115.744 546.454 116.014 546.826 116.41C547.198 116.806 547.384 117.358 547.384 118.066C547.384 118.666 547.204 119.2 546.844 119.668C546.484 120.136 545.956 120.502 545.26 120.766C544.576 121.018 543.76 121.144 542.812 121.144ZM550.178 121.144C549.686 121.144 549.272 120.976 548.936 120.64C548.6 120.304 548.432 119.884 548.432 119.38C548.432 118.864 548.6 118.45 548.936 118.138C549.272 117.814 549.686 117.652 550.178 117.652C550.67 117.652 551.084 117.814 551.42 118.138C551.756 118.45 551.924 118.864 551.924 119.38C551.924 119.884 551.756 120.304 551.42 120.64C551.084 120.976 550.67 121.144 550.178 121.144Z" fill="white"/>
<path d="M112.715 61.2306C112.758 61.0709 112.703 60.9705 112.724 60.8907C112.669 60.7903 112.69 60.7104 112.635 60.61C112.635 60.61 112.635 60.61 112.579 60.5096C112.579 60.5096 112.579 60.5096 112.503 60.4891L90.2371 37.4089C90.1603 37.3883 90.105 37.2879 90.105 37.2879L90.0283 37.2674L89.9516 37.2468C89.8749 37.2263 89.8749 37.2263 89.7982 37.2057L89.7214 37.1852L89.6447 37.1646C89.568 37.144 89.4699 37.2033 89.4699 37.2033L58.6471 46.0585C58.6471 46.0585 58.6471 46.0585 58.5704 46.038C58.5704 46.038 58.5704 46.038 58.4723 46.0972C58.3742 46.1565 58.2761 46.2158 58.2547 46.2956C58.1566 46.3549 58.1352 46.4348 58.1138 46.5146L58.0924 46.5944L58.071 46.6743L49.514 78.6096C49.4926 78.6895 49.4712 78.7693 49.4498 78.8492L49.4284 78.929L49.407 79.0088C49.407 79.0088 49.3856 79.0887 49.4623 79.1092C49.4623 79.1092 49.4623 79.1092 49.5177 79.2096C49.5177 79.2096 49.4963 79.2895 49.573 79.31C49.6283 79.4104 49.6283 79.4104 49.6836 79.5108L71.9493 102.591C71.9493 102.591 71.9493 102.591 72.026 102.612L72.1028 102.632C72.1795 102.653 72.2348 102.753 72.3115 102.774C72.3882 102.794 72.4649 102.815 72.5631 102.755L72.6398 102.776L72.7165 102.797L103.539 93.9414C103.616 93.9619 103.637 93.8821 103.735 93.8228C103.735 93.8228 103.735 93.8228 103.834 93.7635C103.834 93.7635 103.834 93.7635 103.932 93.7043L104.03 93.645L104.051 93.5651L104.073 93.4853C104.094 93.4055 104.115 93.3256 104.137 93.2458L112.715 61.2306C112.694 61.3104 112.694 61.3104 112.715 61.2306ZM110.392 60.6937L97.1216 64.4969L91.1333 40.8152L110.392 60.6937ZM89.2331 39.6214L95.425 64.3846L71.4892 57.971L89.2331 39.6214ZM86.9906 39.7051L69.9637 57.22L60.3725 47.291L86.9906 39.7051ZM59.2203 48.5225L68.8114 58.4515L51.8612 75.9869L59.2203 48.5225ZM69.5432 60.0167L75.7351 84.7799L51.7993 78.3663L69.5432 60.0167ZM72.1647 100.253L52.9058 80.3742L75.8443 86.5205L72.1647 100.253ZM77.2532 84.3309L71.0613 59.5678L94.9204 65.9608L77.2532 84.3309ZM73.6991 100.664L77.3786 86.9317L100.317 93.078L73.6991 100.664ZM78.3435 85.4788L96.0874 67.1292L102.279 91.8924L78.3435 85.4788ZM103.415 89.8008L97.5037 66.1396L110.774 62.3364L103.415 89.8008Z" fill="white"/>
<path d="M112.715 61.2306C112.758 61.0709 112.703 60.9705 112.724 60.8907C112.669 60.7903 112.69 60.7104 112.635 60.61C112.635 60.61 112.635 60.61 112.579 60.5096C112.579 60.5096 112.579 60.5096 112.503 60.4891L90.2371 37.4089C90.1604 37.3883 90.105 37.2879 90.105 37.2879L90.0283 37.2674L89.9516 37.2468C89.8749 37.2263 89.8749 37.2263 89.7982 37.2057L89.7214 37.1852L89.6447 37.1646C89.568 37.144 89.4699 37.2033 89.4699 37.2033L58.6471 46.0585C58.6471 46.0585 58.6471 46.0585 58.5704 46.038C58.5704 46.038 58.5704 46.038 58.4723 46.0972C58.3742 46.1565 58.2761 46.2158 58.2547 46.2956C58.1566 46.3549 58.1352 46.4348 58.1138 46.5146L58.0924 46.5944L58.071 46.6743L49.514 78.6096C49.4926 78.6895 49.4712 78.7693 49.4498 78.8492L49.4284 78.929L49.407 79.0088C49.407 79.0088 49.3856 79.0887 49.4623 79.1092C49.4623 79.1092 49.4623 79.1092 49.5177 79.2096C49.5177 79.2096 49.4963 79.2895 49.573 79.31C49.6283 79.4104 49.6283 79.4104 49.6836 79.5108L71.9493 102.591C71.9493 102.591 71.9493 102.591 72.026 102.612L72.1028 102.632C72.1795 102.653 72.2348 102.753 72.3115 102.774C72.3882 102.794 72.4649 102.815 72.5631 102.755L72.6398 102.776L72.7165 102.797L103.539 93.9414C103.616 93.9619 103.637 93.8821 103.735 93.8228C103.735 93.8228 103.735 93.8228 103.834 93.7635C103.834 93.7635 103.834 93.7635 103.932 93.7043L104.03 93.645L104.051 93.5651L104.073 93.4853C104.094 93.4055 104.115 93.3256 104.137 93.2458L112.715 61.2306ZM112.715 61.2306C112.694 61.3104 112.694 61.3104 112.715 61.2306ZM110.392 60.6937L97.1216 64.4969L91.1333 40.8152L110.392 60.6937ZM89.2331 39.6214L95.425 64.3846L71.4892 57.971L89.2331 39.6214ZM86.9906 39.7051L69.9637 57.22L60.3725 47.291L86.9906 39.7051ZM59.2203 48.5225L68.8114 58.4515L51.8612 75.9869L59.2203 48.5225ZM69.5432 60.0167L75.7351 84.7799L51.7993 78.3663L69.5432 60.0167ZM72.1647 100.253L52.9058 80.3742L75.8443 86.5205L72.1647 100.253ZM77.2532 84.3309L71.0613 59.5678L94.9204 65.9608L77.2532 84.3309ZM73.6991 100.664L77.3786 86.9317L100.317 93.078L73.6991 100.664ZM78.3435 85.4788L96.0874 67.1292L102.279 91.8924L78.3435 85.4788ZM103.415 89.8008L97.5037 66.1396L110.774 62.3364L103.415 89.8008Z" stroke="white" stroke-width="4.14698" stroke-linejoin="bevel"/>
<rect x="175.734" y="40.3672" width="59.2661" height="59.2636" rx="3.51421" fill="white"/>
<path d="M221.001 71.8301C221.001 74.2069 220.456 76.3889 219.365 78.3761C218.274 80.3244 216.598 81.9024 214.339 83.1103C212.079 84.3182 209.273 84.9222 205.922 84.9222H199.727V99.6508H189.732V58.6211H205.922C209.195 58.6211 211.962 59.1861 214.222 60.3161C216.482 61.446 218.177 63.0046 219.307 64.9918C220.436 66.979 221.001 69.2584 221.001 71.8301ZM205.162 76.9734C207.072 76.9734 208.494 76.5253 209.429 75.6291C210.364 74.7329 210.832 73.4666 210.832 71.8301C210.832 70.1936 210.364 68.9272 209.429 68.031C208.494 67.1349 207.072 66.6868 205.162 66.6868H199.727V76.9734H205.162Z" fill="#252525"/>
<path d="M221.208 48.2246H189.733V54.8277H221.208V48.2246Z" fill="#E50913"/>
<path d="M151.933 61.5542C151.574 61.1955 150.992 61.1955 150.634 61.5542L143.922 68.2659L137.21 61.5542C136.851 61.1955 136.27 61.1955 135.911 61.5542C135.552 61.9129 135.552 62.4945 135.911 62.8533L142.623 69.565L135.911 76.2767C135.552 76.6354 135.552 77.217 135.911 77.5757C136.27 77.9344 136.851 77.9344 137.21 77.5757L143.922 70.864L150.634 77.5757C150.992 77.9345 151.574 77.9345 151.933 77.5757C152.291 77.217 152.291 76.6354 151.933 76.2767L145.221 69.565L151.933 62.8532C152.291 62.4945 152.291 61.9129 151.933 61.5542Z" fill="white"/>
<defs>
<linearGradient id="paint0_linear" x1="309.524" y1="67" x2="588.518" y2="75.0284" gradientUnits="userSpaceOnUse">
<stop stop-color="#01060C"/>
<stop offset="1" stop-color="#242A30"/>
</linearGradient>
</defs>
</svg>
