<svg width="239" height="28" viewBox="0 0 239 28" fill="none" xmlns="http://www.w3.org/2000/svg">
<path d="M19.9294 13.1121H17.9107C16.9009 13.1121 15.8627 13.2849 15.6035 13.5734C15.4308 12.9385 14.9401 11.439 14.5937 10.6028C15.1129 10.4586 15.4878 9.7373 15.9205 8.72839C16.0933 8.325 16.4112 7.43012 16.7567 6.30546H14.4495V3.30552H17.5064C17.7371 2.26724 17.9392 1.19959 18.0835 0.132812L21.4868 0.73833C21.2847 1.60385 21.0834 2.44 20.8234 3.30552H26.7939V6.30546H19.843C19.3239 7.71862 18.7468 9.10328 18.2277 10.3143H19.9294V7.28586H23.1306V10.3143H26.3033V13.1121H23.1306V15.8236H27.0824V18.8235H23.1306V22.6881H19.9294V18.8235H14.5937V15.8236H19.9294V13.1121ZM13.7567 6.68034L10.7862 7.63224C10.4976 6.04546 9.77638 3.59402 9.11299 1.77747L11.9393 0.941321C12.6312 2.75874 13.4103 5.09443 13.7567 6.68121V6.68034ZM6.37305 21.2456L8.47897 19.6882C8.6811 20.5243 9.11385 21.7362 9.45937 22.3132C4.90201 25.6881 4.09437 26.4093 3.6331 27.0148L3.6046 26.8421C3.57609 26.9 3.57609 26.9578 3.57609 27.0148C3.28759 26.4093 2.45144 25.2553 1.9323 24.8225C2.81682 24.0805 3.37483 22.9749 3.37483 21.7388C3.37483 21.7379 3.37483 21.7371 3.37483 21.7362V17.2082H0.807644V14.2947H3.37483V11.2947H2.04805V9.33305C1.90379 9.59305 1.70167 9.82368 1.52891 9.99644C1.29828 9.30454 0.490633 7.63138 0 6.91011C1.32678 5.26632 2.33655 2.81402 2.97058 0.334076L5.7969 1.14172C5.56195 2.00206 5.35464 2.64558 5.1266 3.2796L5.19138 3.07402H8.99897V6.01609H4.03822C3.60546 6.88161 3.1727 7.65988 2.68293 8.40965H8.30707V11.2939H6.37477V14.2938H9.11472V17.2074H6.37477L6.37305 21.2456ZM13.7852 9.59305V21.3613C14.2759 21.6213 14.795 22.0247 15.4869 22.4281C16.9294 23.2936 18.7175 23.5528 20.9383 23.5528C22.6685 23.5528 25.6105 23.38 27.4858 23.12C27.1973 24.014 26.7646 25.6872 26.736 26.5527C25.2935 26.6685 22.6978 26.7548 20.9098 26.7548C18.429 26.7548 16.6988 26.3221 15.1414 25.3702C14.1316 24.7647 13.267 24.0434 12.7185 24.0434C12.0266 24.0434 10.901 25.7451 10.0649 27.1876L7.95897 23.9864C8.82448 23.063 9.77638 22.2562 10.6989 21.7362V12.6794H9.02575V9.59305H13.7852ZM30.1973 27.1582V7.17011H33.687V27.1582H30.1973ZM30.7164 2.09362L33.1972 0.39195C34.5525 1.57448 36.1678 3.24764 36.9175 4.45868L34.2355 6.36247C33.5721 5.17994 32.0147 3.33402 30.7164 2.09362V2.09362ZM39.7732 17.381V19.3133C41.4749 19.1975 43.3208 19.0826 45.1961 18.9384V17.381H39.7732ZM45.1961 9.42029H39.7732V10.9492H45.1961V9.42029ZM39.7732 13.3428V14.9866H45.1961V13.3428H39.7732ZM50.4739 21.1877L48.2531 21.3898V24.6489H45.1961V21.6205C41.36 21.9375 37.6967 22.1975 34.8419 22.4281L34.5533 19.6303C35.2167 19.6018 35.938 19.5439 36.7163 19.5145V9.41943H35.1589V6.79437H49.8692V9.41943H48.2539V18.7069L50.4462 18.5626L50.4739 21.1877ZM55.1176 1.31534V23.4958C55.1176 25.1395 54.8291 25.9472 53.8487 26.4957C52.8968 27.0148 51.4836 27.1012 49.522 27.1012C49.4062 26.2357 48.9743 24.8225 48.5701 23.9864C49.6369 24.0443 50.8203 24.0443 51.1951 24.0443C51.5985 24.0158 51.7143 23.9 51.7143 23.4966V4.37402H38.1001V1.31707L55.1176 1.31534ZM77.6781 19.2407C77.7938 19.2407 77.9087 19.2623 78.0245 19.3055C78.1402 19.3487 78.2508 19.423 78.3562 19.5292L80.2885 21.5626C79.4428 22.6682 78.3821 23.5027 77.1089 24.065C75.8356 24.6273 74.3283 24.9089 72.5878 24.9089C70.9915 24.9089 69.5619 24.6377 68.2973 24.0944C67.0327 23.551 65.9608 22.8013 65.0814 21.8442C64.2021 20.8871 63.5266 19.753 63.055 18.4409C62.5834 17.1288 62.3484 15.7035 62.3484 14.1651C62.3484 12.5982 62.6179 11.1582 63.1561 9.84614C63.6942 8.53404 64.4466 7.40161 65.4131 6.44971C66.3797 5.49782 67.5355 4.75755 68.8813 4.22891C70.227 3.70027 71.7128 3.43595 73.3375 3.43595C74.1262 3.43595 74.8691 3.50591 75.5653 3.64498C76.2615 3.78406 76.9136 3.97668 77.5192 4.222C78.1247 4.46731 78.6827 4.76014 79.1923 5.10134C79.702 5.44253 80.1537 5.82001 80.5476 6.23377L78.9038 8.43989C78.7984 8.57464 78.6732 8.6973 78.5289 8.80786C78.3847 8.91843 78.1826 8.97371 77.9234 8.97371C77.7507 8.97371 77.5865 8.93484 77.4328 8.85796C77.279 8.78108 77.1158 8.68693 76.9421 8.57637C76.7685 8.4658 76.5794 8.34573 76.3729 8.21616C76.1665 8.0866 75.9211 7.96653 75.6378 7.85596C75.3545 7.7454 75.0228 7.65125 74.6427 7.57437C74.2627 7.49749 73.8187 7.45862 73.309 7.45862C72.4245 7.45862 71.6169 7.61497 70.8861 7.92766C70.1553 8.24035 69.5282 8.68693 69.0039 9.26913C68.4796 9.85132 68.071 10.5553 67.7782 11.382C67.4854 12.2086 67.3385 13.1363 67.3385 14.1651C67.3385 15.2422 67.4854 16.1985 67.7782 17.0346C68.071 17.8708 68.4701 18.5756 68.9754 19.1474C69.4807 19.7193 70.069 20.1546 70.7419 20.4526C71.4148 20.7506 72.136 20.9001 72.9048 20.9001C73.347 20.9001 73.7504 20.8785 74.1158 20.8353C74.4812 20.7921 74.8198 20.7178 75.1325 20.6116C75.4452 20.5053 75.7432 20.3688 76.0265 20.2004C76.3098 20.032 76.5958 19.8229 76.8843 19.5733C77 19.4774 77.1244 19.3979 77.2592 19.3357C77.3939 19.2735 77.533 19.2416 77.6772 19.2416L77.6781 19.2407ZM100.854 24.6783H95.9499V15.7942H87.4121V24.6783H82.5084V3.66572H87.4121V12.4487H95.9499V3.66572H100.854V24.6783ZM123.87 24.6783H120.092C119.669 24.6783 119.321 24.5798 119.047 24.3829C118.773 24.1859 118.583 23.9337 118.478 23.6253L117.237 19.962H109.248L108.008 23.6253C107.912 23.8948 107.724 24.1376 107.445 24.3535C107.166 24.5694 106.825 24.6783 106.422 24.6783H102.614L110.747 3.66572H115.738L123.87 24.6783ZM110.372 16.645H116.112L114.179 10.8905L113.74 9.59996C113.626 9.30109 113.455 8.76554 113.299 8.22394L113.242 7.99244C113.088 8.57896 112.929 9.12228 112.766 9.62242C112.603 10.1226 112.449 10.5553 112.305 10.9207L110.372 16.645ZM130.907 24.6783H126.004V3.66572H130.907V24.6783ZM137.369 3.66572C137.58 3.66572 137.758 3.67522 137.902 3.69422C138.047 3.71322 138.176 3.7495 138.292 3.80219C138.408 3.85489 138.518 3.92917 138.624 4.02592C138.729 4.12266 138.85 4.25223 138.984 4.41549L148.963 17.0346C148.924 16.6312 148.896 16.2391 148.877 15.859C148.858 15.4789 148.848 15.1213 148.848 14.7844V3.66572H153.146V24.6783H150.608C150.233 24.6783 149.916 24.6204 149.656 24.5055C149.396 24.3906 149.146 24.179 148.906 23.8706L138.999 11.3526C139.027 11.718 139.051 12.0764 139.07 12.4271C139.089 12.7778 139.099 13.1069 139.099 13.4153V24.6783H134.801V3.66572H137.369Z" fill="#A5A5A5"/>
<path opacity="0.5" d="M159.366 3.66595C159.577 3.66595 159.755 3.67546 159.899 3.69446C160.044 3.71346 160.173 3.74974 160.289 3.80243C160.405 3.85512 160.515 3.92941 160.621 4.02615C160.726 4.1229 160.847 4.25247 160.981 4.41572L170.96 17.0348C170.921 16.6315 170.893 16.2393 170.874 15.8592C170.855 15.4792 170.845 15.1215 170.845 14.7847V3.66595H175.143V24.6785H172.605C172.23 24.6785 171.913 24.6207 171.653 24.5058C171.393 24.3909 171.143 24.1793 170.903 23.8709L160.995 11.3528C161.024 11.7182 161.048 12.0767 161.067 12.4274C161.086 12.7781 161.096 13.1072 161.096 13.4156V24.6785H156.798V3.66595H159.366ZM192.132 3.66595V7.41567H183.508V12.3194H190.113V15.9249H183.508V20.9288H192.132V24.6785H178.604V3.66595H192.132ZM193.314 3.66595H197.41C197.834 3.66595 198.187 3.76183 198.47 3.95446C198.754 4.14708 198.939 4.4019 199.026 4.71891L201.91 15.6796C202.006 16.0354 202.102 16.4146 202.198 16.8189C202.294 17.2231 202.367 17.6455 202.414 18.0878C202.51 17.636 202.616 17.2102 202.731 16.8111C202.846 16.412 202.958 16.0346 203.063 15.6787L206.466 4.71805C206.553 4.44855 206.738 4.20582 207.022 3.98987C207.306 3.77393 207.649 3.66509 208.053 3.66509H209.496C209.919 3.66509 210.267 3.75924 210.541 3.94669C210.815 4.13413 211.005 4.39154 211.11 4.71805L214.485 15.6787C214.59 16.0156 214.701 16.3732 214.817 16.7532C214.932 17.1333 215.033 17.5393 215.12 17.9721C215.197 17.5488 215.276 17.1454 215.357 16.761C215.438 16.3766 215.523 16.0156 215.61 15.6796L218.494 4.71891C218.571 4.43991 218.754 4.19459 219.041 3.98383C219.329 3.77306 219.676 3.66682 220.08 3.66682H223.916L217.426 24.6794H213.013L209.061 11.6569C208.994 11.4548 208.924 11.2336 208.852 10.9935C208.78 10.7534 208.71 10.4985 208.643 10.229C208.576 10.4985 208.506 10.7534 208.434 10.9935C208.362 11.2336 208.292 11.4548 208.225 11.6569L204.216 24.6794H199.803L193.314 3.66595ZM237.501 7.93481C237.357 8.16544 237.206 8.3382 237.047 8.45395C236.888 8.56969 236.684 8.6267 236.434 8.6267C236.213 8.6267 235.975 8.55674 235.72 8.41767C235.465 8.27859 235.177 8.12225 234.855 7.94863C234.533 7.77501 234.165 7.61952 233.752 7.47959C233.339 7.33965 232.867 7.27055 232.339 7.27055C231.426 7.27055 230.745 7.4649 230.298 7.85447C229.852 8.24404 229.628 8.77009 229.628 9.43348C229.628 9.85674 229.763 10.2074 230.031 10.4864C230.3 10.7654 230.654 11.0056 231.091 11.2077C231.528 11.4098 232.028 11.5947 232.591 11.7631C233.153 11.9316 233.728 12.119 234.314 12.3255C234.901 12.5319 235.475 12.7746 236.037 13.0536C236.6 13.3326 237.1 13.6885 237.537 14.1204C237.974 14.5523 238.327 15.0792 238.597 15.6994C238.866 16.3196 239 17.0668 239 17.9418C239 18.9127 238.832 19.8214 238.496 20.6671C238.16 21.5127 237.672 22.2513 237.032 22.881C236.391 23.5107 235.604 24.0056 234.666 24.3667C233.729 24.7278 232.664 24.9074 231.472 24.9074C230.818 24.9074 230.152 24.8401 229.475 24.7053C228.798 24.5706 228.141 24.3805 227.506 24.1361C226.872 23.8916 226.276 23.5997 225.718 23.2636C225.161 22.9276 224.675 22.5519 224.262 22.139L225.705 19.8603C225.81 19.6875 225.959 19.5476 226.152 19.4422C226.345 19.3368 226.551 19.2833 226.772 19.2833C227.061 19.2833 227.352 19.3749 227.645 19.5571C227.938 19.7394 228.269 19.9415 228.64 20.1626C229.01 20.3838 229.435 20.5859 229.916 20.7681C230.398 20.9504 230.964 21.042 231.618 21.042C232.503 21.042 233.19 20.8476 233.68 20.458C234.17 20.0685 234.415 19.4509 234.415 18.6052C234.415 18.1146 234.28 17.7155 234.012 17.408C233.743 17.1005 233.389 16.8457 232.952 16.6435C232.515 16.4414 232.017 16.2635 231.459 16.1097C230.901 15.956 230.329 15.7849 229.743 15.5975C229.156 15.4101 228.585 15.1794 228.027 14.9056C227.469 14.6318 226.971 14.2707 226.534 13.8241C226.097 13.3776 225.744 12.8195 225.474 12.151C225.204 11.4824 225.071 10.6583 225.071 9.67794C225.071 8.8893 225.23 8.12052 225.547 7.37075C225.864 6.62098 226.33 5.95241 226.945 5.36589C227.56 4.77938 228.315 4.31034 229.209 3.95964C230.103 3.60894 231.128 3.43359 232.281 3.43359C232.925 3.43359 233.552 3.48369 234.163 3.58476C234.774 3.68582 235.352 3.83439 235.901 4.0322C236.449 4.23001 236.961 4.46496 237.437 4.73878C237.913 5.0126 238.338 5.3227 238.713 5.66908L237.501 7.93481Z" fill="#A5A5A5"/>
</svg>
