<svg width="62" height="62" viewBox="0 0 62 62" fill="none" xmlns="http://www.w3.org/2000/svg">
<circle cx="31" cy="31" r="31" fill="#F4F5F7"/>
<path d="M33.7982 46.6001V48C30.5318 48 27.4799 46.1412 25.2071 42.7676C22.9916 39.4834 21.7729 35.1274 21.7729 30.5008C21.7729 25.8734 22.9916 21.5166 25.2071 18.2324C27.4791 14.8612 30.5302 13 33.7982 13V14.3999C27.9469 14.3999 23.1876 21.6227 23.1876 30.5C23.1876 39.3773 27.9469 46.6001 33.7982 46.6001ZM23.6263 17.6665H21.8326C21.6971 17.8501 21.564 18.0392 21.4334 18.2332C19.2179 21.5158 18 25.879 18 30.5C18 35.121 19.2187 39.4834 21.4342 42.7668C21.5648 42.9616 21.6979 43.1499 21.8342 43.3335H23.6271C21.0656 40.3933 19.4146 35.7356 19.4146 30.5C19.4146 25.2644 21.0656 20.6115 23.6263 17.6665ZM43.5233 36.3341H39.7519C39.2003 38.0501 38.4123 39.5617 37.4534 40.7668H39.1833C39.8145 39.8154 40.3384 38.7984 40.7456 37.734H43.0006C41.444 41.3837 38.7502 43.7996 35.6855 43.7996C30.8753 43.7996 26.9613 37.8338 26.9613 30.5C26.9613 23.1662 30.8753 17.2004 35.6855 17.2004C39.1245 17.2004 42.1038 20.2492 43.5249 24.6667H44.9992C44.5441 23.0882 43.8508 21.5868 42.9426 20.2133C41.0263 17.3696 38.4486 15.7997 35.6855 15.7997C32.9215 15.7997 30.3447 17.3672 28.4275 20.2133C26.5693 22.9731 25.5458 26.6268 25.5458 30.5008C25.5458 34.3732 26.5701 38.0301 28.4275 40.7883C30.3438 43.636 32.9215 45.2003 35.6855 45.2003C38.4486 45.2003 41.0263 43.6336 42.9434 40.7875C43.8516 39.414 44.5449 37.9126 45 36.3341H43.5233ZM39.7519 24.6659H41.2263C40.7734 23.0952 40.0847 21.6007 39.1833 20.2324H37.4534C38.1792 21.1614 38.7761 22.1814 39.2301 23.266H36.9735C36.5632 22.1938 36.0344 21.1697 35.3967 20.2125C35.2395 19.9816 35.0754 19.7554 34.9047 19.5341H33.0683C34.3055 20.8294 35.3088 22.5972 35.9782 24.6667H39.7511L39.7519 24.6659ZM33.0691 41.4659H34.9047C35.0741 41.2481 35.2386 41.0238 35.3975 40.7875C36.3059 39.4135 36.9992 37.9116 37.4542 36.3325H35.9782C35.3128 38.4044 34.3063 40.1714 33.0691 41.4659Z" fill="black"/>
</svg>
