<svg width="27" height="35" viewBox="0 0 27 35" fill="none" xmlns="http://www.w3.org/2000/svg">
<path d="M15.7982 33.6001V35C12.5318 35 9.4799 33.1412 7.2071 29.7676C4.9916 26.4834 3.7729 22.1274 3.7729 17.5008C3.7729 12.8734 4.9916 8.5166 7.2071 5.2324C9.4791 1.8612 12.5302 0 15.7982 0V1.3999C9.9469 1.3999 5.1876 8.6227 5.1876 17.5C5.1876 26.3773 9.9469 33.6001 15.7982 33.6001ZM5.6263 4.6665H3.8326C3.6971 4.8501 3.564 5.0392 3.4334 5.2332C1.2179 8.5158 0 12.879 0 17.5C0 22.121 1.2187 26.4834 3.4342 29.7668C3.5648 29.9616 3.6979 30.1499 3.8342 30.3335H5.6271C3.0656 27.3933 1.4146 22.7356 1.4146 17.5C1.4146 12.2644 3.0656 7.6115 5.6263 4.6665ZM25.5233 23.3341H21.7519C21.2003 25.0501 20.4123 26.5617 19.4534 27.7668H21.1833C21.8145 26.8154 22.3384 25.7984 22.7456 24.734H25.0006C23.444 28.3837 20.7502 30.7996 17.6855 30.7996C12.8753 30.7996 8.9613 24.8338 8.9613 17.5C8.9613 10.1662 12.8753 4.2004 17.6855 4.2004C21.1245 4.2004 24.1038 7.2492 25.5249 11.6667H26.9992C26.5441 10.0882 25.8508 8.5868 24.9426 7.2133C23.0263 4.3696 20.4486 2.7997 17.6855 2.7997C14.9215 2.7997 12.3447 4.3672 10.4275 7.2133C8.5693 9.9731 7.5458 13.6268 7.5458 17.5008C7.5458 21.3732 8.5701 25.0301 10.4275 27.7883C12.3438 30.636 14.9215 32.2003 17.6855 32.2003C20.4486 32.2003 23.0263 30.6336 24.9434 27.7875C25.8516 26.414 26.5449 24.9126 27 23.3341H25.5233ZM21.7519 11.6659H23.2263C22.7734 10.0952 22.0847 8.6007 21.1833 7.2324H19.4534C20.1792 8.1614 20.7761 9.1814 21.2301 10.266H18.9735C18.5632 9.1938 18.0344 8.1697 17.3967 7.2125C17.2395 6.9816 17.0754 6.7554 16.9047 6.5341H15.0683C16.3055 7.8294 17.3088 9.5972 17.9782 11.6667H21.7511L21.7519 11.6659ZM15.0691 28.4659H16.9047C17.0741 28.2481 17.2386 28.0238 17.3975 27.7875C18.3059 26.4135 18.9992 24.9116 19.4542 23.3325H17.9782C17.3128 25.4044 16.3063 27.1714 15.0691 28.4659Z" fill="black"/>
</svg>
