<svg width="170" height="33" viewBox="0 0 170 33" fill="none" xmlns="http://www.w3.org/2000/svg">
<path d="M14.7998 16.6C14.7998 17.5 15.4998 18.2 16.3998 18.2C17.2998 18.2 17.9998 17.5 17.9998 16.6C17.9998 15.7 17.2998 15 16.3998 15C15.4998 15 14.7998 15.7 14.7998 16.6V16.6ZM28.2998 15C27.3998 15 26.6998 15.7 26.6998 16.6C26.6998 17.5 27.3998 18.2 28.2998 18.2C29.1998 18.2 29.8998 17.5 29.8998 16.6C29.8998 15.7 29.1998 15 28.2998 15V15ZM28.2998 27.1C27.3998 27.1 26.6998 27.8 26.6998 28.7C26.6998 29.6 27.3998 30.3 28.2998 30.3C29.1998 30.3 29.8998 29.6 29.8998 28.7C29.8998 27.8 29.1998 27.1 28.2998 27.1Z" fill="#A5A5A5"/>
<path d="M31.7 1.69923C30.1 -0.300767 27.2 -0.400767 25.5 1.19923L25.3 1.39923L24.9 1.69923C23.3 2.99923 20.9 2.89923 19.4 1.39923V1.29923C18.9 0.799233 18.2 0.399233 17.5 0.199233C17.4 0.199233 17.2 0.0992332 17.1 0.0992332H15.5C15.4 0.0992332 15.3 0.0992332 15.2 0.199233H15C14.9 0.199233 14.8 0.299233 14.7 0.299233C14.7 0.299233 14.6 0.299233 14.6 0.399233C14.5 0.399233 14.4 0.499233 14.3 0.499233C14.3 0.499233 14.2 0.499233 14.2 0.599233C14.1 0.699233 14 0.699233 13.9 0.799233C13.9 0.799233 13.8 0.799233 13.8 0.899233C13.7 0.999233 13.6 0.999233 13.5 1.09923L13.4 1.19923L13.2 1.39923L12.8 1.69923C11.2 2.99923 8.8 2.89923 7.4 1.39923C7.4 1.39923 7.3 1.39923 7.3 1.29923L7.1 1.09923C6.5 0.599233 5.8 0.199233 5 0.0992332H4.6H3.3H3.2C3.2 0.199233 3.1 0.199233 3 0.299233H2.9C2.4 0.499233 1.9 0.699233 1.5 1.09923L1.4 1.19923L1.1 1.49923C0.7 1.89923 0.5 2.39923 0.3 2.79923C0.3 2.89923 0.2 2.99923 0.2 3.09923C0.2 3.19923 0.1 3.29923 0.1 3.49923C0 4.19923 0 4.89923 0.2 5.59923C0.2 5.69923 0.3 5.79923 0.3 5.89923V5.99923C0.3 6.09923 0.4 6.19923 0.4 6.29923C0.5 6.39923 0.5 6.49923 0.6 6.69923C0.8 6.79923 1 6.99923 1.1 7.09923L1.3 7.29923L1.5 7.49923C3 8.99923 3 11.5992 1.4 13.1992C1.2 13.3992 0.9 13.6992 0.8 13.8992C0.7 13.9992 0.7 14.0992 0.6 14.2992V14.3992C0.5 14.4992 0.5 14.5992 0.4 14.6992V14.7992C0.4 14.8992 0.3 14.9992 0.3 15.0992V15.1992C0.3 15.2992 0.3 15.3992 0.2 15.4992V16.9992C0.2 17.0992 0.2 17.1992 0.3 17.2992V17.3992C0.5 18.0992 0.9 18.7992 1.5 19.3992C3.1 20.9992 3.1 23.5992 1.5 25.1992L1.4 25.2992L1.2 25.4992V25.5992C1.1 25.6992 1 25.7992 1 25.8992C1 25.8992 1 25.9992 0.9 25.9992C0.8 26.0992 0.8 26.1992 0.7 26.2992L0.6 26.3992C0.6 26.4992 0.5 26.4992 0.5 26.5992C0.5 26.6992 0.4 26.6992 0.4 26.7992C0.4 26.8992 0.4 26.8992 0.3 26.9992C0.1 27.3992 0 27.8992 0 28.2992V29.0992C0.1 29.3992 0.1 29.6992 0.3 29.8992C0.3 29.9992 0.4 30.0992 0.4 30.0992C0.4 30.0992 0.4 30.1992 0.5 30.1992C0.5 30.2992 0.6 30.3992 0.6 30.4992C0.6 30.4992 0.6 30.5992 0.7 30.5992C0.8 30.7992 0.9 30.8992 1 30.9992C1 30.9992 1 31.0992 1.1 31.0992C1.1 31.0992 1.1 31.1992 1.2 31.1992C1.2 31.2992 1.3 31.2992 1.3 31.2992L1.4 31.3992C1.5 31.4992 1.6 31.4992 1.6 31.5992L1.7 31.6992C1.7 31.6992 1.8 31.6992 1.8 31.7992C1.9 31.8992 2 31.9992 2.1 31.9992C2.1 31.9992 2.2 31.9992 2.2 32.0992C2.3 32.1992 2.4 32.1992 2.5 32.2992H2.6C2.7 32.3992 2.8 32.3992 3 32.3992C3.1 32.3992 3.3 32.4992 3.4 32.4992H3.5C3.6 32.4992 3.7 32.4992 3.8 32.5992H4.7C5 32.5992 5.2 32.4992 5.5 32.4992H5.6C5.7 32.4992 5.8 32.3992 5.9 32.3992H6C6.1 32.3992 6.2 32.2992 6.3 32.2992H6.4C6.6 32.1992 6.9 31.9992 7.1 31.8992L7.4 31.5992L7.5 31.4992C9.1 29.7992 11.7 29.7992 13.3 31.4992C15.1 33.3992 18.1 33.2992 19.8 31.1992C21 29.6992 21 27.4992 19.8 25.8992C18.2 23.8992 15.3 23.7992 13.6 25.3992L13.4 25.5992L13 25.8992C11.4 27.1992 9 27.0992 7.5 25.5992L7.3 25.3992L7 24.9992C5.7 23.3992 5.8 20.9992 7.3 19.4992C8.2 18.6992 8.6 17.5992 8.6 16.4992V16.2992V16.1992C8.6 15.1992 8.2 14.1992 7.4 13.4992C7.4 13.3992 7.3 13.3992 7.3 13.2992L7 12.8992C5.7 11.2992 5.8 8.89923 7.3 7.39923L7.4 7.29923L7.5 7.19923C9.1 5.49923 11.7 5.49923 13.3 7.19923L13.4 7.29923L13.5 7.39923L13.7 7.59923C13.8 7.59923 13.8 7.69923 13.9 7.69923C14 7.69923 14 7.79923 14.1 7.79923C14.2 7.79923 14.2 7.89923 14.3 7.89923C14.4 7.89923 14.4 7.99923 14.5 7.99923C14.6 7.99923 14.6 8.09923 14.7 8.09923C14.8 8.09923 14.8 8.19923 14.9 8.19923C15 8.19923 15 8.19923 15.1 8.29923C15.2 8.29923 15.2 8.29923 15.3 8.39923H17C17.1 8.39923 17.2 8.39923 17.3 8.29923H17.5C17.6 8.29923 17.7 8.19923 17.8 8.19923H17.9C18 8.19923 18.1 8.09923 18.3 7.99923C18.7 7.79923 19.1 7.49923 19.4 7.19923L19.5 7.09923C21.1 5.39923 23.7 5.39923 25.3 7.09923C27 9.09923 30.1 8.99923 31.7 6.89923C32.9 5.39923 32.9 3.19923 31.7 1.69923" fill="#A5A5A5"/>
<path d="M54.4999 14.1C53.8999 13.5 53.3999 13.1 52.6999 12.8C52.0999 12.5 51.3999 12.3 50.4999 12.3C49.6999 12.3 48.8999 12.5 48.2999 12.8C47.6999 13.1 47.1999 13.5 46.7999 14.1C46.3999 14.6 46.0999 15.2 45.8999 15.9C45.6999 16.6 45.5999 17.3 45.5999 18C45.5999 18.7 45.6999 19.4 45.9999 20.1C46.1999 20.8 46.5999 21.3 46.9999 21.8C47.3999 22.3 47.9999 22.7 48.5999 23C49.1999 23.3 49.8999 23.4 50.6999 23.4C51.5999 23.4 52.2999 23.2 52.8999 22.9C53.4999 22.6 54.0999 22.2 54.5999 21.6L56.6999 23.8C55.8999 24.7 54.9999 25.3 53.9999 25.7C52.9999 26.1 51.8999 26.3 50.6999 26.3C49.4999 26.3 48.2999 26.1 47.2999 25.7C46.2999 25.3 45.3999 24.7 44.6999 24C43.9999 23.3 43.3999 22.4 42.9999 21.4C42.5999 20.4 42.3999 19.2 42.3999 18C42.3999 16.8 42.5999 15.6 42.9999 14.6C43.3999 13.6 43.9999 12.7 44.6999 11.9C45.3999 11.2 46.2999 10.6 47.2999 10.2C48.2999 9.8 49.4999 9.6 50.6999 9.6C51.8999 9.6 52.9999 9.8 53.9999 10.2C55.0999 10.6 55.9999 11.3 56.7999 12.1L54.4999 14.1V14.1ZM61.2999 17.8C61.2999 18.6 61.3999 19.4 61.6999 20C61.8999 20.7 62.2999 21.3 62.6999 21.8C63.0999 22.3 63.6999 22.7 64.2999 22.9C64.8999 23.2 65.6999 23.3 66.4999 23.3C67.2999 23.3 67.9999 23.2 68.6999 22.9C69.2999 22.6 69.8999 22.2 70.2999 21.8C70.6999 21.3 71.0999 20.7 71.2999 20C71.4999 19.3 71.6999 18.6 71.6999 17.8C71.6999 17 71.5999 16.2 71.2999 15.6C71.0999 14.9 70.6999 14.3 70.2999 13.8C69.8999 13.3 69.2999 12.9 68.6999 12.7C68.0999 12.4 67.2999 12.3 66.4999 12.3C65.6999 12.3 64.9999 12.4 64.2999 12.7C63.6999 13 63.0999 13.4 62.6999 13.8C62.2999 14.3 61.8999 14.9 61.6999 15.6C61.4999 16.3 61.2999 17 61.2999 17.8ZM58.0999 17.8C58.0999 16.6 58.2999 15.5 58.6999 14.5C59.0999 13.5 59.6999 12.6 60.4999 11.8C61.2999 11 62.0999 10.4 63.1999 10C64.1999 9.6 65.2999 9.3 66.4999 9.3C67.6999 9.3 68.7999 9.5 69.7999 10C70.7999 10.4 71.6999 11 72.4999 11.8C73.2999 12.6 73.7999 13.5 74.2999 14.5C74.6999 15.5 74.8999 16.6 74.8999 17.8C74.8999 19 74.6999 20.1 74.2999 21.1C73.8999 22.1 73.2999 23 72.4999 23.8C71.6999 24.6 70.8999 25.1 69.7999 25.6C68.7999 26 67.6999 26.3 66.4999 26.3C65.2999 26.3 64.1999 26.1 63.1999 25.6C62.1999 25.2 61.2999 24.6 60.4999 23.8C59.6999 23 59.1999 22.2 58.6999 21.1C58.3999 20.1 58.0999 19 58.0999 17.8V17.8ZM77.9999 25.9H80.9999V9.9H77.9999V25.9ZM77.2999 4.1C77.2999 3.5 77.4999 3 77.8999 2.5C78.2999 2.1 78.7999 1.8 79.3999 1.8C79.9999 1.8 80.4999 2 80.8999 2.5C81.2999 2.9 81.4999 3.5 81.4999 4.1C81.4999 4.7 81.2999 5.2 80.8999 5.7C80.4999 6.1 79.9999 6.4 79.3999 6.4C78.7999 6.4 78.2999 6.2 77.8999 5.7C77.4999 5.3 77.2999 4.7 77.2999 4.1ZM85.1999 9.9H88.1999V12.4H88.2999C88.6999 11.5 89.2999 10.8 90.2999 10.3C91.1999 9.8 92.2999 9.5 93.5999 9.5C94.3999 9.5 95.0999 9.6 95.7999 9.9C96.4999 10.1 97.0999 10.5 97.5999 11C98.0999 11.5 98.4999 12.1 98.8999 12.9C99.1999 13.7 99.3999 14.6 99.3999 15.7V26H96.3999V16.5C96.3999 15.8 96.2999 15.1 96.0999 14.6C95.8999 14.1 95.5999 13.6 95.2999 13.3C94.9999 13 94.5999 12.7 94.0999 12.6C93.6999 12.5 93.1999 12.4 92.6999 12.4C92.0999 12.4 91.4999 12.5 90.9999 12.7C90.4999 12.9 89.9999 13.2 89.5999 13.7C89.1999 14.1 88.8999 14.7 88.6999 15.4C88.4999 16.1 88.3999 16.9 88.3999 17.8V26.1H85.3999V9.9H85.1999ZM110.5 23.4C111.3 23.4 112 23.3 112.7 23C113.4 22.7 113.9 22.3 114.4 21.8C114.8 21.3 115.2 20.7 115.4 20C115.6 19.3 115.8 18.6 115.8 17.7C115.8 16.9 115.7 16.1 115.4 15.4C115.2 14.7 114.8 14.1 114.4 13.6C113.9 13.1 113.4 12.7 112.7 12.4C112 12.1 111.3 12 110.5 12C109.7 12 109 12.1 108.3 12.4C107.6 12.7 107.1 13.1 106.6 13.6C106.2 14.1 105.8 14.7 105.6 15.4C105.4 16.1 105.2 16.8 105.2 17.7C105.2 18.5 105.3 19.3 105.6 20C105.8 20.7 106.2 21.3 106.6 21.8C107 22.3 107.6 22.7 108.3 23C108.9 23.2 109.7 23.4 110.5 23.4ZM118.8 25.8H115.8V23.5H115.7C115.1 24.4 114.3 25 113.3 25.5C112.3 26 111.2 26.2 110.1 26.2C108.9 26.2 107.7 26 106.7 25.6C105.7 25.2 104.8 24.6 104.1 23.8C103.4 23 102.8 22.1 102.5 21.1C102.1 20.1 101.9 19 101.9 17.8C101.9 16.6 102.1 15.5 102.5 14.4C102.9 13.4 103.4 12.5 104.1 11.7C104.8 10.9 105.7 10.3 106.7 9.9C107.7 9.5 108.8 9.3 110.1 9.3C111.2 9.3 112.3 9.5 113.3 10C114.3 10.5 115.1 11.2 115.6 12H115.7V0H118.7V25.8H118.8ZM134.1 16.5C134.1 15.8 134 15.2 133.8 14.6C133.6 14 133.3 13.5 132.9 13.1C132.5 12.7 132 12.4 131.5 12.1C130.9 11.9 130.3 11.7 129.5 11.7C128.8 11.7 128.1 11.8 127.5 12.1C126.9 12.4 126.4 12.7 125.9 13.2C125.5 13.6 125.1 14.1 124.9 14.7C124.7 15.3 124.5 15.8 124.5 16.3H134.1V16.5ZM124.5 19C124.5 19.7 124.7 20.3 125 20.9C125.3 21.5 125.7 22 126.2 22.4C126.7 22.8 127.3 23.1 127.9 23.3C128.6 23.5 129.2 23.6 129.9 23.6C130.8 23.6 131.7 23.4 132.4 22.9C133.1 22.5 133.7 21.9 134.3 21.2L136.6 23C134.9 25.2 132.5 26.3 129.5 26.3C128.2 26.3 127.1 26.1 126.1 25.7C125.1 25.3 124.2 24.7 123.5 23.9C122.8 23.1 122.2 22.3 121.9 21.2C121.5 20.2 121.3 19.1 121.3 17.9C121.3 16.7 121.5 15.6 121.9 14.6C122.3 13.6 122.9 12.7 123.6 11.9C124.3 11.1 125.2 10.6 126.2 10.1C127.2 9.7 128.3 9.5 129.5 9.5C130.9 9.5 132.1 9.7 133.1 10.2C134.1 10.7 134.9 11.3 135.5 12.1C136.1 12.9 136.6 13.8 136.9 14.8C137.2 15.8 137.3 16.8 137.3 17.9V19H124.5V19ZM149.1 13.9C148.7 13.5 148.3 13.1 147.8 12.8C147.3 12.5 146.6 12.3 145.9 12.3C145.2 12.3 144.6 12.5 144 12.8C143.5 13.1 143.2 13.5 143.2 14.1C143.2 14.6 143.4 15 143.7 15.2C144 15.5 144.4 15.7 144.8 15.9C145.2 16.1 145.7 16.2 146.1 16.3C146.6 16.4 147 16.5 147.3 16.5C147.9 16.7 148.6 16.8 149.1 17.1C149.7 17.3 150.2 17.6 150.6 18C151 18.4 151.3 18.8 151.6 19.3C151.8 19.8 152 20.4 152 21.2C152 22.1 151.8 22.9 151.4 23.5C151 24.1 150.5 24.7 149.9 25.1C149.3 25.5 148.6 25.8 147.8 26C147 26.2 146.2 26.3 145.5 26.3C144.2 26.3 143 26.1 142 25.7C141 25.3 140.1 24.6 139.3 23.5L141.6 21.6C142.1 22.1 142.6 22.5 143.2 22.9C143.8 23.3 144.5 23.5 145.4 23.5C145.8 23.5 146.2 23.5 146.6 23.4C147 23.3 147.3 23.2 147.6 23C147.9 22.8 148.1 22.6 148.3 22.4C148.5 22.1 148.6 21.8 148.6 21.5C148.6 21.1 148.5 20.7 148.2 20.4C147.9 20.1 147.6 19.9 147.2 19.7C146.8 19.5 146.4 19.4 146 19.3L144.8 19C144.2 18.8 143.5 18.7 143 18.5C142.4 18.3 141.9 18 141.5 17.7C141.1 17.4 140.7 16.9 140.4 16.4C140.1 15.9 140 15.2 140 14.5C140 13.7 140.2 12.9 140.5 12.3C140.8 11.7 141.3 11.2 141.9 10.8C142.5 10.4 143.1 10.1 143.8 9.9C144.5 9.7 145.3 9.6 146 9.6C147.1 9.6 148.1 9.8 149.1 10.2C150.1 10.6 150.9 11.3 151.5 12.2L149.1 13.9V13.9ZM154.9 0.4H157.9V16.6L164.7 9.8H168.8L161.5 17L169.5 25.6H165.2L157.9 17.4V25.6H154.9V0.4" fill="#A5A5A5"/>
</svg>
