<svg width="151" height="34" viewBox="0 0 151 34" fill="none" xmlns="http://www.w3.org/2000/svg">
<path d="M33.5814 23.3668H11.2946V11.258H7.86591V25.0359C7.86591 25.9523 8.63903 26.705 9.58025 26.705H29.1106L25.0768 30.2395H3.42873V10.2107H7.83229H11.261H25.7155C26.1525 10.2107 26.5558 10.0471 26.8584 9.7853L34.7243 2.91268C35.2621 2.4545 35.4302 1.70179 35.1949 1.07998C34.926 0.425446 34.2873 0 33.5814 0H9.58025C8.63903 0 7.86591 0.752715 7.86591 1.66906V5.82536H11.2946V3.33812H29.1106L25.0768 6.87262H11.2946H7.86591H1.71436C0.773143 6.87262 0 7.6253 0 8.54168V31.9085C0 32.8249 0.773143 33.5776 1.71436 33.5776H25.7155C26.1525 33.5776 26.5558 33.414 26.8584 33.1521L34.7243 26.2795C35.2621 25.8214 35.4302 25.0686 35.1949 24.4468C34.926 23.7923 34.2873 23.3668 33.5814 23.3668Z" fill="#FE4350"/>
<path d="M51.6159 7.52344C55.3698 7.52344 59.4365 9.51792 60.1513 14.2008C58.587 14.2008 57.1575 14.2008 55.5933 14.2008C54.9229 12.423 53.5821 11.5992 51.6159 11.5992C48.8905 11.5992 47.1028 13.5937 47.1028 16.4988C47.1028 19.1004 48.8456 21.355 51.6159 21.3984C53.5821 21.3984 55.1913 20.4445 55.6826 18.5366C57.2468 18.5366 58.6768 18.5366 60.2406 18.5366C59.5702 23.523 55.504 25.4742 51.6159 25.4742C47.0135 25.5175 42.3213 22.4824 42.3213 16.4988C42.3213 10.5152 46.9686 7.52344 51.6159 7.52344Z" fill="white"/>
<path d="M61.627 16.5413C61.627 4.35733 80.261 4.35733 80.261 16.5413C80.2166 28.7686 61.627 28.7686 61.627 16.5413ZM75.4795 16.5413C75.4795 10.2108 66.3635 10.2108 66.3635 16.5413C66.3635 22.9584 75.4795 22.9584 75.4795 16.5413Z" fill="white"/>
<path d="M98.2254 7.65332H99.8789V25.3439C98.3147 25.3439 96.7061 25.3439 95.1424 25.3439V17.4959L91.2991 21.4416H90.7629L86.9197 17.4959V25.3439C85.3554 25.3439 83.7468 25.3439 82.1831 25.3439V7.65332H83.881L90.9864 15.2846L98.2254 7.65332Z" fill="white"/>
<path d="M109.754 25.3445H102.917V7.69727H109.754C121.596 7.784 121.596 25.3011 109.754 25.3445ZM107.564 21.2254H109.754C115.519 21.2254 115.519 11.8164 109.754 11.8164H107.564V21.2254Z" fill="white"/>
<path d="M131.963 11.7297C129.282 11.7297 127.896 11.7297 125.26 11.7297V14.2445H131.427C131.427 15.5887 131.427 16.9328 131.427 18.2336H125.215C125.215 19.2742 125.215 20.2715 125.215 21.3121C127.896 21.3121 129.46 21.3121 132.186 21.3121C132.186 22.6129 132.186 24.0004 132.186 25.3011C127.941 25.3011 124.813 25.3011 120.612 25.3011C120.612 19.4043 120.612 13.5074 120.612 7.69727C124.813 7.69727 127.673 7.69727 131.963 7.69727C131.963 9.04141 131.963 10.3856 131.963 11.7297Z" fill="white"/>
<path d="M142.51 19.7945L139.024 25.3445H134.153V24.6508L140.007 15.9789L134.779 8.39102V7.69727H139.516L142.465 12.2934H142.599L145.638 7.69727H150.285V8.39102L145.101 15.9789L151 24.6508V25.3445H146.129L142.644 19.7945H142.51Z" fill="white"/>
</svg>
