<svg width="315" height="70" viewBox="0 0 315 70" fill="none" xmlns="http://www.w3.org/2000/svg">
<path d="M70.0079 48.7134H23.5462V23.4698H16.3983V52.193C16.3983 54.1034 18.01 55.6726 19.9722 55.6726H60.6875L52.2782 63.041H7.14796V21.2866H16.3282H23.4761H53.6096C54.5207 21.2866 55.3616 20.9454 55.9923 20.3997L72.3905 6.07213C73.5118 5.11696 73.8622 3.54776 73.3717 2.25146C72.811 0.886937 71.4796 0 70.0079 0H19.9722C18.01 0 16.3983 1.5692 16.3983 3.47953V12.1443H23.5462V6.95907H60.6875L52.2782 14.3275H23.5462H16.3983H3.57397C1.61179 14.3275 0 15.8967 0 17.807V66.5205C0 68.4308 1.61179 70 3.57397 70H53.6096C54.5207 70 55.3616 69.6589 55.9923 69.1131L72.3905 54.7856C73.5118 53.8304 73.8622 52.2612 73.3717 50.9649C72.811 49.6004 71.4796 48.7134 70.0079 48.7134Z" fill="#FE4350"/>
<path d="M107.604 15.6837C115.43 15.6837 123.908 19.8417 125.398 29.6041C122.137 29.6041 119.157 29.6041 115.896 29.6041C114.498 25.8979 111.703 24.1805 107.604 24.1805C101.922 24.1805 98.1956 28.3386 98.1956 34.3949C98.1956 39.8184 101.829 44.5188 107.604 44.6091C111.703 44.6091 115.058 42.6205 116.082 38.6432C119.343 38.6432 122.324 38.6432 125.584 38.6432C124.187 49.0384 115.71 53.106 107.604 53.106C98.0094 53.1964 88.2275 46.8689 88.2275 34.3949C88.2275 21.9207 97.9158 15.6837 107.604 15.6837Z" fill="#053C75"/>
<path d="M128.475 34.4846C128.475 9.08441 167.322 9.08441 167.322 34.4846C167.229 59.9751 128.475 59.9751 128.475 34.4846ZM157.354 34.4846C157.354 21.2873 138.35 21.2873 138.35 34.4846C138.35 47.8626 157.354 47.8626 157.354 34.4846Z" fill="#053C75"/>
<path d="M204.773 15.9553H208.22V52.8353C204.959 52.8353 201.606 52.8353 198.346 52.8353V36.4744L190.334 44.7H189.216L181.204 36.4744V52.8353C177.943 52.8353 174.59 52.8353 171.33 52.8353V15.9553H174.869L189.682 31.8644L204.773 15.9553Z" fill="#053C75"/>
<path d="M228.806 52.8355H214.553V16.0459H228.806C253.494 16.2267 253.494 52.7451 228.806 52.8355ZM224.242 44.2482H228.806C240.824 44.2482 240.824 24.6332 228.806 24.6332H224.242V44.2482Z" fill="#053C75"/>
<path d="M275.107 24.4524C269.518 24.4524 266.629 24.4524 261.133 24.4524V29.6951H273.989C273.989 32.4973 273.989 35.2995 273.989 38.0113H261.04C261.04 40.1806 261.04 42.2596 261.04 44.429C266.629 44.429 269.89 44.429 275.573 44.429C275.573 47.1408 275.573 50.0334 275.573 52.7451C266.722 52.7451 260.202 52.7451 251.444 52.7451C251.444 40.4518 251.444 28.1584 251.444 16.0459C260.202 16.0459 266.163 16.0459 275.107 16.0459C275.107 18.8481 275.107 21.6502 275.107 24.4524Z" fill="#053C75"/>
<path d="M297.093 41.2654L289.827 52.8355H279.672V51.3893L291.876 33.3109L280.976 17.4922V16.0459H290.852L297.001 25.6275H297.279L303.614 16.0459H313.303V17.4922L302.496 33.3109L314.793 51.3893V52.8355H304.639L297.373 41.2654H297.093Z" fill="#053C75"/>
</svg>
