<svg width="21" height="20" viewBox="0 0 21 20" fill="none" xmlns="http://www.w3.org/2000/svg">
<path d="M19.5706 13.6178H6.5823V6.56094H4.58411V14.5905C4.58411 15.1245 5.03467 15.5632 5.58319 15.5632H16.9651L14.6143 17.623H1.9982V5.95063H4.56451H6.56271H14.9865C15.2412 5.95063 15.4762 5.85525 15.6526 5.70269L20.2367 1.69745C20.5501 1.43044 20.6481 0.991772 20.5109 0.629392C20.3542 0.247942 19.982 0 19.5706 0H5.58319C5.03467 0 4.58411 0.438668 4.58411 0.972698V3.39491H6.5823V1.9454H16.9651L14.6143 4.00524H6.5823H4.58411H0.999099C0.450574 4.00524 0 4.44389 0 4.97793V18.5957C0 19.1297 0.450574 19.5684 0.999099 19.5684H14.9865C15.2412 19.5684 15.4762 19.473 15.6526 19.3205L20.2367 15.3152C20.5501 15.0482 20.6481 14.6095 20.5109 14.2472C20.3542 13.8657 19.982 13.6178 19.5706 13.6178Z" fill="#FE4350"/>
</svg>
