<svg width="224" height="53" viewBox="0 0 224 53" fill="none" xmlns="http://www.w3.org/2000/svg">
<path d="M32.5173 38.1548L23.184 42.2242V41.8135C21.392 42.2615 19.376 42.5228 17.5093 42.6348C8.69866 42.5602 1.75467 37.9308 1.64267 32.4802V30.4642C4.51733 34.6455 10.416 37.4828 17.5093 37.3708C19.8987 37.4828 22.3627 37.1095 24.416 36.5495L25.2373 34.5335C22.8107 35.2802 20.1227 35.7655 17.5093 35.7655C8.69866 35.7655 1.75467 31.1735 1.64267 25.6108V23.9682C4.51733 27.8508 10.416 30.6508 17.5093 30.4642C20.72 30.6508 23.8187 29.9788 26.4693 28.8215L26.88 26.8055C24.304 28.1495 20.9813 28.9335 17.5467 28.8215C8.736 28.9335 1.792 24.3415 1.68 18.6668V17.0242C4.55466 20.9815 10.4533 23.8188 17.5467 23.9308C21.5787 23.8188 25.3867 22.7362 28.5227 21.0935L28.9333 18.6668C26.096 20.7575 21.952 22.1389 17.5467 22.3255C8.736 22.1389 1.792 17.5095 1.68 11.7602C1.75467 6.27219 8.736 1.68019 17.5467 1.60553C22.7733 1.68019 27.664 3.50953 30.5387 6.49619L30.8373 6.98152H32.8906L32.592 6.49619C29.7173 2.5762 23.9307 0.000194624 17.5467 0.000194624C7.76533 -0.0371387 0 5.30153 0 11.7229V12.1335V32.8535C0.336 39.1255 7.91466 44.2402 17.472 44.2402C23.7813 44.2775 29.4933 41.7762 32.5173 38.1548Z" fill="#A5A5A5"/>
<path d="M28.7094 52.4534L31.9947 38.4907L22.5494 42.5974L28.2987 18.4054H17.248L20.1227 6.49609H55.4027L52.528 18.4054H41.0294L38.5654 24.9761L51.296 19.6374L28.7094 52.4534ZM34.4587 35.6534L32.816 43.8667L46.368 23.3707L35.28 28.2987L40.208 16.8001H51.296L53.3494 8.17609H21.3174L19.264 16.8001H30.352L25.0134 39.7601L34.4587 35.6534Z" fill="#A5A5A5"/>
<path d="M78.8108 14.4859V14.5233C78.8481 15.8299 78.4375 16.8379 77.6161 17.5846C76.7948 18.3313 75.6748 18.7046 74.2188 18.7046C72.7628 18.7046 71.5681 18.2193 70.6721 17.2859C69.7761 16.3526 69.3281 15.1206 69.3281 13.6273V11.2006C69.3281 9.70726 69.7761 8.47527 70.6348 7.54193C71.5308 6.6086 72.6881 6.12327 74.1068 6.12327C75.6001 6.12327 76.7575 6.4966 77.6161 7.20594C78.4748 7.9526 78.8855 8.9606 78.8481 10.2673V10.3046H76.4588C76.4588 9.5206 76.2721 8.92327 75.8988 8.54994C75.5255 8.17661 74.9281 7.98994 74.1441 7.98994C73.3975 7.98994 72.8375 8.2886 72.4268 8.88594C72.0161 9.48327 71.7921 10.2299 71.7921 11.1633V13.6273C71.7921 14.5606 72.0161 15.3446 72.4268 15.9419C72.8748 16.5393 73.4721 16.8379 74.2561 16.8379C75.0028 16.8379 75.5255 16.6513 75.8988 16.2779C76.2721 15.9046 76.4588 15.3073 76.4588 14.5233H78.8108V14.4859ZM92.3254 13.5153C92.3254 15.0086 91.8401 16.2779 90.9068 17.2486C89.9734 18.2193 88.7415 18.7046 87.2108 18.7046C85.6801 18.7046 84.4854 18.2193 83.5148 17.2486C82.5815 16.2779 82.0961 15.0086 82.0961 13.5153V11.3126C82.0961 9.81927 82.5815 8.58727 83.5148 7.57927C84.4481 6.6086 85.6801 6.08594 87.1734 6.08594C88.7041 6.08594 89.9361 6.57127 90.8694 7.57927C91.8401 8.54994 92.2881 9.81927 92.2881 11.3126V13.5153H92.3254ZM89.8615 11.2753C89.8615 10.3046 89.6374 9.55794 89.1521 8.92327C88.6668 8.32594 88.0321 7.98994 87.1734 7.98994C86.3521 7.98994 85.6801 8.28861 85.2321 8.92327C84.7841 9.5206 84.5228 10.3046 84.5228 11.2753V13.4779C84.5228 14.4486 84.7468 15.2326 85.2321 15.8673C85.6801 16.4646 86.3521 16.8006 87.1734 16.8006C88.0321 16.8006 88.6668 16.5019 89.1521 15.8673C89.6374 15.2699 89.8615 14.4486 89.8615 13.4779V11.2753ZM98.6721 18.5179H96.2081V6.2726H98.6721V18.5179ZM112.821 18.5179H110.357L105.429 10.2673H105.392V18.5179H102.928V6.2726H105.392L110.32 14.5233H110.357V6.2726H112.821V18.5179ZM125.179 8.17661H121.669V18.5179H119.205V8.17661H115.771V6.2726H125.179V8.17661ZM135.333 13.1419H130.779V16.6513H136.192V18.5179H128.352V6.2726H136.192V8.17661H130.816V11.2379H135.371V13.1419H135.333ZM142.165 16.6513H147.653V18.5179H139.701V6.2726H142.165V16.6513ZM158.107 13.1419H153.552V16.6513H158.965V18.5179H151.125V6.2726H158.965V8.17661H153.589V11.2379H158.144V13.1419H158.107ZM171.883 16.8753C171.509 17.3606 170.949 17.8086 170.165 18.1819C169.419 18.5553 168.448 18.7419 167.253 18.7419C165.76 18.7419 164.565 18.2939 163.632 17.3606C162.699 16.4273 162.213 15.2326 162.213 13.7393V11.1633C162.213 9.66994 162.661 8.47527 163.595 7.54193C164.491 6.6086 165.685 6.12327 167.104 6.12327C168.597 6.12327 169.755 6.4966 170.539 7.20594C171.323 7.91527 171.733 8.8486 171.696 10.0433V10.0806H169.381C169.381 9.44593 169.195 8.92327 168.821 8.54994C168.448 8.17661 167.888 7.98994 167.179 7.98994C166.432 7.98994 165.835 8.2886 165.349 8.8486C164.901 9.44593 164.677 10.1926 164.677 11.0886V13.6646C164.677 14.5979 164.901 15.3446 165.387 15.9419C165.872 16.5393 166.507 16.8006 167.291 16.8006C167.888 16.8006 168.336 16.7259 168.672 16.6139C169.008 16.5019 169.269 16.3526 169.456 16.1659V13.7766H167.104V12.0593H171.92V16.8753H171.883ZM178.229 13.6273V18.5179H175.765V6.2726H180.021C181.403 6.2726 182.523 6.60861 183.307 7.24327C184.091 7.87794 184.501 8.77393 184.501 9.89393C184.501 10.5286 184.352 11.0513 184.016 11.5366C183.68 11.9846 183.195 12.3579 182.56 12.6566C183.269 12.8806 183.792 13.2166 184.128 13.7393C184.427 14.2246 184.613 14.8593 184.613 15.6059V16.5019C184.613 16.8379 184.651 17.2113 184.763 17.5846C184.837 17.9579 185.024 18.2193 185.248 18.4059V18.5926H182.709C182.485 18.4059 182.336 18.1073 182.261 17.6966C182.187 17.2859 182.149 16.8753 182.149 16.5019V15.6433C182.149 15.0459 182 14.5606 181.664 14.2246C181.328 13.8886 180.843 13.7019 180.245 13.7019H178.229V13.6273ZM178.229 11.7606H179.984C180.656 11.7606 181.179 11.6113 181.515 11.3126C181.851 11.0139 182.037 10.6033 182.037 10.0059C182.037 9.44594 181.851 8.99793 181.515 8.66193C181.179 8.32593 180.693 8.17661 180.021 8.17661H178.229V11.7606ZM194.917 15.9046H190.96L190.139 18.5553H187.563L191.707 6.30994H194.208L198.315 18.5553H195.739L194.917 15.9046ZM191.557 13.9633H194.32L192.976 9.6326H192.939L191.557 13.9633ZM203.765 14.0753V18.5179H201.301V6.2726H206.005C207.424 6.2726 208.507 6.64593 209.328 7.35527C210.149 8.0646 210.523 9.03527 210.523 10.1926C210.523 11.3499 210.112 12.3206 209.328 13.0299C208.507 13.7393 207.424 14.1126 206.005 14.1126H203.765V14.0753ZM203.765 12.2086H206.005C206.677 12.2086 207.2 12.0219 207.573 11.6486C207.909 11.2753 208.096 10.7899 208.096 10.2299C208.096 9.6326 207.909 9.14726 207.573 8.77393C207.237 8.4006 206.715 8.21393 206.005 8.21393H203.765V12.2086ZM224 18.5179H221.536V13.4406H216.533V18.5179H214.069V6.2726H216.533V11.5366H221.536V6.2726H224V18.5179Z" fill="#A5A5A5"/>
<path d="M73.8085 38.527H72.2778V30.463H69.5151V29.1564H76.5711V30.463H73.8085V38.527ZM84.0751 38.527H82.5445V34.159C82.5445 33.599 82.4325 33.1884 82.2085 32.927C81.9845 32.6657 81.6485 32.5164 81.1631 32.5164C80.5285 32.5164 80.0805 32.703 79.7818 33.0764C79.4831 33.4497 79.3338 34.0844 79.3338 34.9804V38.4897H77.8405V28.5217H79.3338V31.0604C79.3338 31.471 79.2965 31.8817 79.2591 32.367H79.3711C79.5578 32.031 79.8565 31.7697 80.2298 31.583C80.6031 31.3964 81.0138 31.2844 81.4991 31.2844C83.2165 31.2844 84.0751 32.143 84.0751 33.8977V38.527ZM89.2645 38.639C88.1445 38.639 87.2858 38.303 86.6885 37.6684C86.0538 37.0337 85.7551 36.1377 85.7551 35.0177C85.7551 33.8604 86.0538 32.9644 86.6138 32.2924C87.1738 31.6204 87.9951 31.2844 89.0031 31.2844C89.9365 31.2844 90.6831 31.583 91.2058 32.143C91.7658 32.703 92.0271 33.487 92.0271 34.495V35.3164H87.2858C87.3231 35.9884 87.5098 36.5484 87.8458 36.8844C88.1818 37.2577 88.7045 37.4444 89.3391 37.4444C89.7498 37.4444 90.1605 37.407 90.4965 37.3324C90.8698 37.2577 91.2431 37.1084 91.6538 36.9217V38.1537C91.2805 38.3404 90.9071 38.4524 90.5338 38.527C90.1978 38.6017 89.7498 38.639 89.2645 38.639ZM89.0031 32.4417C88.5178 32.4417 88.1445 32.591 87.8458 32.8897C87.5471 33.1884 87.3978 33.6364 87.3231 34.2337H90.5338C90.5338 33.6364 90.3845 33.1884 90.1231 32.8897C89.8618 32.591 89.4885 32.4417 89.0031 32.4417ZM100.688 32.5537H98.9711V38.527H97.4405V32.5537H96.2831V31.8444L97.4405 31.3964V30.9484C97.4405 30.127 97.6271 29.4924 98.0378 29.0817C98.4485 28.671 99.0458 28.4844 99.8298 28.4844C100.352 28.4844 100.875 28.559 101.398 28.7457L100.987 29.903C100.614 29.791 100.278 29.7164 99.9045 29.7164C99.5685 29.7164 99.3071 29.8284 99.1578 30.015C99.0085 30.239 98.9338 30.5377 98.9338 30.9484V31.3964H100.651V32.5537H100.688ZM106.923 38.527L106.699 37.5937H106.624C106.4 37.9297 106.102 38.191 105.728 38.3777C105.355 38.5644 104.907 38.6764 104.422 38.6764C103.563 38.6764 102.928 38.4524 102.48 38.0417C102.032 37.631 101.846 36.959 101.846 36.1004V31.4337H103.376V35.8017C103.376 36.3617 103.488 36.735 103.712 37.0337C103.936 37.295 104.272 37.4444 104.758 37.4444C105.392 37.4444 105.84 37.2577 106.139 36.8844C106.438 36.511 106.587 35.8764 106.587 34.9804V31.4337H108.118V38.527H106.923ZM112.896 37.407C113.27 37.407 113.643 37.3324 114.016 37.2204V38.3404C113.867 38.415 113.643 38.4897 113.382 38.527C113.12 38.5644 112.859 38.6017 112.56 38.6017C111.142 38.6017 110.432 37.855 110.432 36.3617V32.5537H109.462V31.8817L110.507 31.3217L111.03 29.8284H111.963V31.3964H113.979V32.5537H111.963V36.3617C111.963 36.735 112.038 36.9964 112.224 37.183C112.336 37.3324 112.598 37.407 112.896 37.407ZM120.4 38.527L120.176 37.5937H120.102C119.878 37.9297 119.579 38.191 119.206 38.3777C118.832 38.5644 118.384 38.6764 117.899 38.6764C117.04 38.6764 116.406 38.4524 115.958 38.0417C115.547 37.631 115.323 36.959 115.323 36.1004V31.4337H116.854V35.8017C116.854 36.3617 116.966 36.735 117.19 37.0337C117.414 37.295 117.75 37.4444 118.235 37.4444C118.87 37.4444 119.318 37.2577 119.616 36.8844C119.915 36.511 120.064 35.8764 120.064 34.9804V31.4337H121.595V38.527H120.4ZM127.344 31.2844C127.643 31.2844 127.904 31.3217 128.091 31.359L127.942 32.7777C127.718 32.7404 127.494 32.703 127.27 32.703C126.672 32.703 126.187 32.8897 125.814 33.3004C125.44 33.711 125.254 34.1964 125.254 34.831V38.527H123.76V31.4337H124.955L125.142 32.6657H125.216C125.44 32.255 125.776 31.919 126.15 31.6577C126.486 31.4337 126.896 31.2844 127.344 31.2844ZM132.235 38.639C131.115 38.639 130.256 38.303 129.659 37.6684C129.024 37.0337 128.726 36.1377 128.726 35.0177C128.726 33.8604 129.024 32.9644 129.584 32.2924C130.144 31.6204 130.966 31.2844 131.974 31.2844C132.907 31.2844 133.654 31.583 134.176 32.143C134.736 32.703 134.998 33.487 134.998 34.495V35.3164H130.256C130.294 35.9884 130.48 36.5484 130.816 36.8844C131.152 37.2577 131.675 37.4444 132.31 37.4444C132.72 37.4444 133.131 37.407 133.467 37.3324C133.84 37.2577 134.214 37.1084 134.624 36.9217V38.1537C134.251 38.3404 133.878 38.4524 133.504 38.527C133.131 38.6017 132.72 38.639 132.235 38.639ZM131.974 32.4417C131.488 32.4417 131.115 32.591 130.816 32.8897C130.518 33.1884 130.368 33.6364 130.294 34.2337H133.504C133.504 33.6364 133.355 33.1884 133.094 32.8897C132.795 32.591 132.422 32.4417 131.974 32.4417ZM146.384 34.943C146.384 36.1004 146.086 36.9964 145.488 37.6684C144.891 38.303 144.07 38.639 143.024 38.639C142.352 38.639 141.792 38.4897 141.27 38.191C140.747 37.8924 140.374 37.4444 140.112 36.8844C139.851 36.3244 139.702 35.6897 139.702 34.943C139.702 33.7857 140 32.8897 140.598 32.255C141.195 31.6204 142.016 31.2844 143.099 31.2844C144.107 31.2844 144.928 31.6204 145.526 32.2924C146.123 32.9644 146.384 33.823 146.384 34.943ZM141.232 34.943C141.232 36.5857 141.83 37.407 143.062 37.407C144.256 37.407 144.854 36.5857 144.854 34.943C144.854 33.3377 144.256 32.5164 143.062 32.5164C142.427 32.5164 141.979 32.7404 141.68 33.151C141.382 33.5617 141.232 34.159 141.232 34.943ZM151.686 32.5537H149.968V38.527H148.438V32.5537H147.28V31.8444L148.438 31.3964V30.9484C148.438 30.127 148.624 29.4924 149.035 29.0817C149.446 28.671 150.043 28.4844 150.827 28.4844C151.35 28.4844 151.872 28.559 152.395 28.7457L151.984 29.903C151.611 29.791 151.275 29.7164 150.902 29.7164C150.566 29.7164 150.304 29.8284 150.155 30.015C150.006 30.2017 149.931 30.5377 149.931 30.9484V31.3964H151.648V32.5537H151.686ZM162.288 38.527H160.758V34.159C160.758 33.599 160.646 33.2257 160.459 32.927C160.272 32.6657 159.936 32.5164 159.488 32.5164C158.891 32.5164 158.48 32.703 158.219 33.0764C157.958 33.4497 157.808 34.0844 157.808 34.9804V38.527H156.315V31.4337H157.51L157.734 32.367H157.808C157.995 32.031 158.294 31.7697 158.667 31.583C159.04 31.3964 159.451 31.3217 159.899 31.3217C160.982 31.3217 161.728 31.695 162.064 32.4417H162.176C162.4 32.1057 162.699 31.807 163.072 31.6204C163.446 31.4337 163.894 31.3217 164.379 31.3217C165.238 31.3217 165.835 31.5457 166.246 31.9564C166.619 32.367 166.843 33.039 166.843 33.8977V38.527H165.35V34.159C165.35 33.599 165.238 33.2257 165.051 32.927C164.827 32.6657 164.528 32.5164 164.08 32.5164C163.483 32.5164 163.072 32.703 162.811 33.0764C162.55 33.4497 162.4 34.0097 162.4 34.7564V38.527H162.288ZM175.131 34.943C175.131 36.1004 174.832 36.9964 174.235 37.6684C173.638 38.303 172.816 38.639 171.771 38.639C171.099 38.639 170.539 38.4897 170.016 38.191C169.494 37.8924 169.12 37.4444 168.859 36.8844C168.598 36.3244 168.448 35.6897 168.448 34.943C168.448 33.7857 168.747 32.8897 169.344 32.255C169.942 31.6204 170.763 31.2844 171.846 31.2844C172.854 31.2844 173.675 31.6204 174.272 32.2924C174.832 32.9644 175.131 33.823 175.131 34.943ZM169.979 34.943C169.979 36.5857 170.576 37.407 171.808 37.407C173.003 37.407 173.6 36.5857 173.6 34.943C173.6 33.3377 173.003 32.5164 171.808 32.5164C171.174 32.5164 170.726 32.7404 170.427 33.151C170.128 33.5617 169.979 34.159 169.979 34.943ZM183.12 38.527H181.59V34.159C181.59 33.599 181.478 33.1884 181.254 32.927C181.03 32.6657 180.694 32.5164 180.208 32.5164C179.574 32.5164 179.088 32.703 178.827 33.0764C178.566 33.4497 178.379 34.0844 178.379 34.9804V38.527H176.886V31.4337H178.08L178.304 32.367H178.379C178.603 32.031 178.902 31.7697 179.275 31.583C179.648 31.3964 180.096 31.3217 180.582 31.3217C182.299 31.3217 183.12 32.1804 183.12 33.935V38.527ZM188.31 38.639C187.19 38.639 186.331 38.303 185.734 37.6684C185.099 37.0337 184.8 36.1377 184.8 35.0177C184.8 33.8604 185.099 32.9644 185.659 32.2924C186.219 31.6204 187.04 31.2844 188.048 31.2844C188.982 31.2844 189.728 31.583 190.251 32.143C190.811 32.703 191.072 33.487 191.072 34.495V35.3164H186.331C186.368 35.9884 186.555 36.5484 186.891 36.8844C187.227 37.2577 187.75 37.4444 188.384 37.4444C188.795 37.4444 189.206 37.407 189.542 37.3324C189.878 37.2577 190.288 37.1084 190.699 36.9217V38.1537C190.326 38.3404 189.952 38.4524 189.579 38.527C189.206 38.6017 188.795 38.639 188.31 38.639ZM188.011 32.4417C187.526 32.4417 187.152 32.591 186.854 32.8897C186.555 33.1884 186.406 33.6364 186.331 34.2337H189.542C189.542 33.6364 189.392 33.1884 189.131 32.8897C188.87 32.591 188.496 32.4417 188.011 32.4417ZM191.446 31.4337H193.088L194.544 35.4657C194.768 36.0257 194.918 36.5857 194.992 37.071H195.03C195.067 36.847 195.142 36.5484 195.254 36.2124C195.366 35.8764 195.888 34.271 196.896 31.4337H198.539L195.515 39.4604C194.955 40.9164 194.059 41.663 192.752 41.663C192.416 41.663 192.08 41.6257 191.782 41.551V40.3564C192.006 40.3937 192.267 40.431 192.566 40.431C193.275 40.431 193.798 40.0204 194.096 39.1617L194.358 38.4897L191.446 31.4337Z" fill="#A5A5A5"/>
</svg>
