<svg width="131" height="43" viewBox="0 0 131 43" fill="none" xmlns="http://www.w3.org/2000/svg">
<path d="M6.46174 12.0878V18.6573H17.4922V22.7012H6.46174V32.5538H2.04016V8.04053H18.8254V12.0844H6.46174V12.0878Z" fill="white" stroke="white" stroke-width="0.25" stroke-miterlimit="10"/>
<path d="M22.0813 32.554V14.5764H26.4325V32.554H22.0813Z" fill="white" stroke="white" stroke-width="0.25" stroke-miterlimit="10"/>
<path d="M46.8086 34.941C46.8086 36.1176 46.5474 37.0948 46.0215 37.8792C45.4956 38.6636 44.8223 39.279 44.0016 39.7287C43.1809 40.1784 42.2531 40.4962 41.2281 40.6788C40.1997 40.8648 39.1948 40.9561 38.2134 40.9561C37.118 40.9561 36.026 40.8749 34.9441 40.7126C33.8588 40.5503 32.8505 40.1378 31.9126 39.4683C31.2293 38.9848 30.6967 38.4202 30.3215 37.7744C29.9464 37.1286 29.7554 36.3814 29.7554 35.5259C29.7554 34.7415 29.9397 34.0213 30.3048 33.3654C30.6699 32.7094 31.1958 32.209 31.8791 31.8608C31.3097 31.5396 30.8675 31.0932 30.5594 30.5286C30.2512 29.9639 30.0971 29.3824 30.0971 28.7805C30.0971 27.2354 30.8039 26.0283 32.2208 25.1492C31.6714 24.5947 31.2393 23.9523 30.9211 23.2118C30.5995 22.4747 30.4421 21.6463 30.4421 20.7233C30.4421 19.6616 30.6364 18.7182 31.025 17.8865C31.4135 17.0547 31.9394 16.365 32.6027 15.8105C33.2659 15.2559 34.0363 14.8367 34.9139 14.5493C35.7916 14.2619 36.7328 14.1165 37.7377 14.1165C38.4679 14.1165 39.1781 14.2146 39.8614 14.4107C40.5447 14.6068 41.1845 14.8773 41.7808 15.2221C42.1693 14.4377 42.6818 13.8697 43.3216 13.5113C43.9614 13.1529 44.6582 12.9771 45.4118 12.9771C45.5492 12.9771 45.7434 12.9771 45.9947 12.9771C46.2459 12.9771 46.4402 13.0007 46.5775 13.0447V16.3988L46.2359 16.365C45.7334 16.365 45.2812 16.4461 44.8826 16.6084C44.484 16.7707 44.2126 17.0716 44.0787 17.5078C44.695 18.5221 45.0032 19.6041 45.0032 20.7571C45.0032 21.7951 44.8022 22.7181 44.4036 23.5229C44.005 24.3309 43.4724 25.0106 42.8125 25.5617C42.1492 26.1162 41.3788 26.5422 40.5012 26.8398C39.6202 27.1407 38.7024 27.2894 37.7444 27.2894C36.7395 27.2894 35.7815 27.1272 34.867 26.8059C34.6627 26.9209 34.4617 27.09 34.2675 27.3064C34.0732 27.5261 33.976 27.7865 33.976 28.084C33.976 28.6149 34.1871 28.9665 34.6091 29.1389C35.0312 29.3114 35.47 29.3993 35.9289 29.3993H38.8733C39.3054 29.3993 39.7743 29.406 40.2768 29.4162C40.7792 29.4297 41.2884 29.4737 41.8009 29.5548C42.3134 29.636 42.8158 29.7577 43.3082 29.9166C43.8006 30.0789 44.2495 30.3088 44.6615 30.6064C45.4386 31.1372 45.9913 31.7729 46.3229 32.5066C46.6445 33.2572 46.8086 34.0653 46.8086 34.941ZM42.7689 35.0458C42.7689 34.4913 42.6215 34.0653 42.3234 33.7677C42.0253 33.4668 41.6669 33.2504 41.2448 33.1118C40.8228 32.9732 40.3639 32.892 39.8748 32.8717C39.3824 32.8481 38.9336 32.8379 38.5215 32.8379H35.1652C34.7063 32.9765 34.3244 33.2369 34.0162 33.6156C33.7081 33.9976 33.554 34.4744 33.554 35.0492C33.554 35.624 33.7081 36.0737 34.0162 36.3983C34.3244 36.7195 34.7063 36.9697 35.1652 37.1421C35.6207 37.3146 36.1131 37.4228 36.639 37.4701C37.1649 37.5174 37.6339 37.5377 38.0425 37.5377C38.4746 37.5377 38.967 37.5208 39.5164 37.487C40.0657 37.4532 40.5782 37.3551 41.0572 37.1928C41.5363 37.0305 41.9416 36.7837 42.2732 36.449C42.6015 36.1109 42.7689 35.6443 42.7689 35.0458ZM40.8831 20.73C40.8831 19.763 40.6017 18.9617 40.0423 18.326C39.4829 17.6904 38.7125 17.3759 37.731 17.3759C36.7496 17.3759 35.9791 17.6938 35.4197 18.326C34.8603 18.9583 34.579 19.7596 34.579 20.73C34.579 21.697 34.857 22.495 35.4197 23.1171C35.9791 23.7392 36.7496 24.0503 37.731 24.0503C38.7125 24.0503 39.4829 23.7392 40.0423 23.1171C40.605 22.495 40.8831 21.7004 40.8831 20.73Z" fill="white" stroke="white" stroke-width="0.25" stroke-miterlimit="10"/>
<path d="M70.3067 32.5539V21.386C70.3067 20.2803 70.1191 19.4215 69.7406 18.8095C69.3654 18.2009 68.6385 17.8932 67.5666 17.8932C66.9503 17.8932 66.4244 18.0386 65.9923 18.326C65.5602 18.6134 65.1984 18.9955 64.9137 19.4655C64.629 19.9388 64.4179 20.4629 64.2806 21.0377C64.1433 21.6159 64.0763 22.1771 64.0763 22.7316V32.5505H59.8289V21.386C59.8289 20.2803 59.6413 19.4215 59.2628 18.8095C58.8876 18.2009 58.1607 17.8932 57.0888 17.8932C56.4725 17.8932 55.9466 18.0386 55.5145 18.326C55.0824 18.6134 54.7139 18.9955 54.4191 19.4655C54.121 19.9388 53.9066 20.4629 53.7693 21.0377C53.632 21.6159 53.565 22.1771 53.565 22.7316V32.5505H49.3176V14.5763H52.8783L53.2199 16.9634C53.7224 16.135 54.3957 15.4554 55.2398 14.9246C56.0839 14.3937 57.1022 14.13 58.288 14.13C59.5441 14.13 60.5959 14.3904 61.4401 14.9077C62.2842 15.425 62.9374 16.1486 63.3929 17.0682C63.9188 16.1249 64.6424 15.3979 65.5669 14.8908C66.4914 14.3836 67.5599 14.13 68.7692 14.13C70.6885 14.13 72.1323 14.7116 73.1037 15.8781C74.0751 17.0446 74.5608 18.5559 74.5608 20.4257V32.5606H70.3067V32.5539Z" fill="white" stroke="white" stroke-width="0.25" stroke-miterlimit="10"/>
<path d="M94.009 23.7054C93.9856 23.8677 93.9755 24.0164 93.9755 24.1551V24.9158H82.0574C82.0574 25.609 82.1645 26.2649 82.3823 26.887C82.6 27.5092 82.9283 28.0265 83.357 28.4424C83.6786 28.7433 84.0504 29.0002 84.4725 29.22C84.8945 29.4398 85.4003 29.548 85.9966 29.548C86.6129 29.548 87.1221 29.4837 87.5207 29.3586C87.9193 29.2335 88.2811 29.007 88.5993 28.6858C89.0079 28.2699 89.296 27.7627 89.4568 27.1643H93.5669C93.52 27.6951 93.3424 28.2767 93.0343 28.9123C92.7261 29.548 92.4012 30.0687 92.0595 30.4846C91.3058 31.384 90.4048 32.0298 89.353 32.422C88.3012 32.8142 87.2058 33.0103 86.0669 33.0103C84.8309 33.0103 83.7657 32.8074 82.8646 32.4051C81.9602 32.0027 81.1563 31.4651 80.4495 30.799C79.5585 29.9233 78.8785 28.8751 78.4096 27.6546C77.9406 26.434 77.7061 25.0849 77.7061 23.6107C77.7061 22.1602 77.9171 20.8145 78.3392 19.5837C78.7613 18.3496 79.4078 17.2981 80.272 16.419C80.9352 15.7292 81.7391 15.1747 82.6871 14.7589C83.6351 14.343 84.7237 14.1367 85.9597 14.1367C87.2862 14.1367 88.5155 14.4072 89.6611 14.9482C90.8 15.4892 91.7379 16.3243 92.4715 17.4536C93.1314 18.4443 93.5535 19.4553 93.7377 20.4798C93.9152 21.4975 94.009 22.5761 94.009 23.7054ZM89.7281 21.768C89.7013 20.4561 89.3362 19.4045 88.6294 18.6235C88.3347 18.3023 87.9628 18.0487 87.5173 17.8627C87.0718 17.6802 86.5426 17.5855 85.9229 17.5855C85.263 17.5855 84.6802 17.714 84.1744 17.9676C83.6753 18.2211 83.2599 18.5559 82.9417 18.9718C82.6201 19.364 82.3923 19.7799 82.255 20.216C82.121 20.6522 82.0373 21.1729 82.0172 21.7714H89.7281V21.768Z" fill="white" stroke="white" stroke-width="0.25" stroke-miterlimit="10"/>
<path d="M108.225 32.5539V21.5246C108.225 20.4663 108.017 19.6346 107.609 19.0361C107.197 18.4376 106.423 18.1367 105.281 18.1367C104.527 18.1367 103.897 18.3497 103.395 18.7757C102.892 19.2018 102.494 19.7495 102.196 20.419C101.898 21.0885 101.727 21.8661 101.683 22.752C101.636 23.6412 101.613 24.4628 101.613 25.2236V32.5539H97.3319V14.5764H100.929L101.238 16.8925C101.764 15.9491 102.511 15.2492 103.482 14.7995C104.453 14.3498 105.452 14.1233 106.477 14.1233C107.438 14.1233 108.289 14.2856 109.029 14.6068C109.769 14.9314 110.399 15.3743 110.915 15.939C111.427 16.5036 111.823 17.1832 112.097 17.9778C112.372 18.7724 112.509 19.6312 112.509 20.5542V32.5505H108.225V32.5539Z" fill="white" stroke="white" stroke-width="0.25" stroke-miterlimit="10"/>
<path d="M126.96 32.3138C125.727 32.635 124.504 32.7973 123.295 32.7973C121.49 32.7973 120.143 32.307 119.252 31.3265C118.361 30.346 117.916 28.9935 117.916 27.2658V18.1367H114.66V14.5763H117.916V10.0118L122.197 8.93994V14.5763H126.685V18.1367H122.197V26.8837C122.197 27.5768 122.354 28.0772 122.676 28.3883C122.997 28.6994 123.5 28.8549 124.183 28.8549C124.638 28.8549 125.067 28.8448 125.466 28.8211C125.864 28.7974 126.36 28.7535 126.956 28.6825V32.3138H126.96Z" fill="white" stroke="white" stroke-width="0.25" stroke-miterlimit="10"/>
<path fill-rule="evenodd" clip-rule="evenodd" d="M26.7876 10.59C26.7876 9.24431 25.7091 8.06091 24.2486 8.06091C22.758 8.06091 21.7095 9.24431 21.7095 10.59C21.7095 11.9999 22.758 13.0549 24.2486 13.0549C25.7091 13.0549 26.7876 11.9999 26.7876 10.59Z" fill="white"/>
</svg>
