<svg width="129" height="54" viewBox="0 0 129 54" fill="none" xmlns="http://www.w3.org/2000/svg">
<path d="M127.014 51.7602V50.3836H2.93675V2.84498H125.546V51.7602H127.014V50.3836V51.7602H128.483V0H0V53.2286H128.483V51.7602H127.014Z" fill="#A5A5A5"/>
<path d="M15.5094 28.4472L18.905 37.0739H18.9967L22.2088 28.4472H26.0633L26.7057 30.0074L26.1551 30.0992C25.788 30.0992 25.5127 30.3745 25.6044 30.7416L26.2468 40.5613L27.3481 40.6531L27.9905 42.305H22.7595V40.7449L23.4019 40.6531C23.8607 40.6531 23.8607 40.4696 23.8607 39.9189L23.2183 32.1182L19.8227 40.1025L17.8955 40.7449L14.6834 32.1182L14.2245 40.4696L15.3258 40.5613V42.2133H10.0947L10.7371 40.6531L11.3796 40.5613C11.7466 40.4696 11.9302 40.3778 11.9302 39.8271L12.5726 30.0992L11.4713 30.0074L12.1137 28.3555H15.5094V28.4472Z" fill="#A5A5A5"/>
<path d="M28.8164 42.2152L29.4588 40.6551L29.9177 40.5633C30.3766 40.4715 30.4683 40.288 30.6519 39.9209L33.9557 30.1929L32.8544 30.1011L33.4968 28.4492H37.4431L41.7565 40.5633L42.4906 40.6551L43.1331 42.2152H37.902V40.6551L38.5444 40.5633C38.9115 40.5633 39.095 40.288 38.9115 39.9209L38.3608 38.269H33.5886L32.8544 40.4715L33.9557 40.5633V42.2152H28.8164ZM34.0475 36.5253H37.902L35.9747 30.6518H35.883L34.0475 36.5253Z" fill="#A5A5A5"/>
<path d="M51.9436 40.0106V36.7068L50.9341 36.615L50.2917 34.9631H55.7063L55.431 36.5233L54.8804 36.615C54.5133 36.7068 54.3297 36.7986 54.3297 37.2574V41.2037C53.1367 42.0297 51.4847 42.4885 49.6493 42.4885C45.6113 42.4885 43.4087 40.1942 43.4087 35.3302C43.4087 30.0073 46.529 28.1719 50.1081 28.1719C51.7601 28.1719 53.3202 28.539 54.238 28.9978V30.8333L52.3107 31.5675V30.9251C52.3107 30.558 52.3107 30.3744 51.9436 30.2827C51.5765 30.1909 50.8423 30.0991 50.2917 30.0991C47.3549 30.0991 46.0701 32.0264 46.0701 35.0549C46.0701 38.3587 47.1714 40.286 49.7411 40.286C50.4752 40.4695 51.393 40.286 51.9436 40.0106Z" fill="#A5A5A5"/>
<path d="M69.3801 41.5708L66.994 42.2133L60.937 32.21V40.5613L62.0383 40.6531V42.2133H56.9907L57.6331 40.6531L58.0002 40.5613C58.3673 40.4696 58.4591 40.3778 58.4591 40.0107V30.0992L57.0825 30.0074L57.7249 28.3555H61.1205L66.994 38.267V30.0992L65.8927 30.0074V28.4472H70.8485L70.2061 30.0074L69.839 30.0992C69.4719 30.1909 69.2884 30.2827 69.2884 30.7416V41.5708H69.3801Z" fill="#A5A5A5"/>
<path d="M70.9399 42.2152L71.5824 40.6551L71.7659 40.5633C72.2248 40.4715 72.3165 40.288 72.5001 39.9209L75.8957 30.1929L74.7944 30.1011L75.4368 28.4492H79.3831L83.5129 40.4715L84.2471 40.5633L84.8895 42.2152H79.6584V40.6551L80.3008 40.5633C80.6679 40.5633 80.8515 40.288 80.6679 39.9209L80.1173 38.269H75.3451L74.6109 40.4715L75.7122 40.5633V42.2152H70.9399ZM75.8039 36.5253H79.6584L77.7312 30.6518H77.6394L75.8039 36.5253Z" fill="#A5A5A5"/>
<path d="M88.5609 30.2847H86.6336C86.1748 30.2847 86.083 30.4682 86.083 30.8353V31.5695L84.064 30.9271V28.4492H95.4439V30.9271L93.4249 31.5695V30.8353C93.4249 30.4682 93.3331 30.2847 92.8742 30.2847H91.0387V40.5633L92.2318 40.6551L92.8742 42.307H86.7254L87.3678 40.7469L88.0102 40.6551C88.4691 40.6551 88.5609 40.4715 88.5609 40.0127V30.2847V30.2847Z" fill="#A5A5A5"/>
<path d="M97.6468 40.6531L97.8303 40.5613C98.381 40.4696 98.4727 40.3778 98.4727 39.8271V30.0992L97.6468 30.0074L97.0044 28.3555H106.732V30.8333L104.713 31.4758V30.4663C104.713 30.0992 104.622 30.1909 104.163 30.1909H100.951V34.1372H105.906V36.0644H100.951V40.3778H104.438C104.897 40.3778 104.897 40.1942 104.897 39.8271V39.6436L106.916 39.093V42.2133H96.9126L97.6468 40.6531Z" fill="#A5A5A5"/>
<path d="M115.726 38.4526C115.726 37.1678 114.625 36.6171 113.156 36.1583C111.229 35.6076 109.21 34.7817 109.302 32.1202C109.393 29.5506 111.321 28.0822 114.257 28.174C115.542 28.174 117.102 28.4493 118.112 28.9999V31.019L116.093 31.6614V31.019C116.093 30.6519 116.093 30.4683 115.726 30.3765C115.451 30.2848 114.716 30.193 114.257 30.193C113.156 30.193 112.055 30.5601 111.963 31.9367C111.963 33.2215 113.064 33.6804 114.625 34.231C116.552 34.8734 118.479 35.6076 118.387 38.3608C118.295 41.114 116.46 42.5824 113.156 42.4906C111.688 42.4906 110.219 42.2153 109.026 41.6647V39.6457L111.045 39.0032V39.6457C111.045 40.0128 111.137 40.1963 111.412 40.2881C111.78 40.3798 112.422 40.4716 113.064 40.4716C114.533 40.4716 115.726 40.0128 115.726 38.4526Z" fill="#A5A5A5"/>
<path d="M11.8379 11.0117H20.8317V11.9295H12.8474V16.977H19.4551V17.8947H12.8474V24.5024H11.8379V11.0117Z" fill="#A5A5A5"/>
<path d="M28.5408 11.0117H27.5312V24.5024H28.5408V11.0117Z" fill="#A5A5A5"/>
<path d="M36.1582 11.0117H37.0759L46.1615 22.8505V11.0117H47.0792V24.5024H46.2533L37.1677 12.6636V24.5024H36.1582V11.0117Z" fill="#A5A5A5"/>
<path d="M59.4692 10.9199H60.3869L66.4439 24.5024H65.4344L63.6907 20.5561H56.1653L54.4216 24.5024H53.4121L59.4692 10.9199ZM63.3236 19.7302L59.928 12.2048L56.5324 19.7302H63.3236Z" fill="#A5A5A5"/>
<path d="M72.6846 11.0117H73.5105L82.5961 22.8505V11.0117H83.6056V24.5024H82.7796L73.6023 12.6636V24.5024H72.6846V11.0117Z" fill="#A5A5A5"/>
<path d="M90.5801 17.7111C90.5801 13.6731 93.5168 10.7363 97.3713 10.7363C98.8397 10.7363 100.125 11.1034 101.226 11.8376V12.8471C100.125 12.1129 98.8397 11.6541 97.3713 11.6541C94.0675 11.6541 91.4978 14.2237 91.4978 17.7111C91.4978 21.1985 94.0675 23.7682 97.3713 23.7682C99.0232 23.7682 100.4 23.3093 101.501 22.3916V23.4928C100.4 24.3188 99.0232 24.7777 97.3713 24.7777C93.6086 24.6859 90.5801 21.8409 90.5801 17.7111Z" fill="#A5A5A5"/>
<path d="M108.108 11.0117H117.194V11.9295H109.118V16.7934H115.817V17.7112H109.118V23.5847H117.469V24.5024H108.108V11.0117Z" fill="#A5A5A5"/>
</svg>
