<svg width="24" height="34" viewBox="0 0 24 34" fill="none" xmlns="http://www.w3.org/2000/svg">
<path fill-rule="evenodd" clip-rule="evenodd" d="M23.4058 0L23.2236 0.49852L22.624 2.09352L22.2259 3.12202C19.2034 10.8308 16.8519 14.4895 14.3525 14.4895C12.9121 14.4895 12.0597 14.0615 10.9559 13.057L10.6374 12.7587C9.84329 12.0038 9.50889 11.8181 8.74503 11.8181C8.34684 11.8181 7.63448 12.3437 6.73306 13.5702C5.79826 14.8422 4.77307 16.7213 3.67139 19.1964L3.56878 19.4281L14.2918 19.4286L12.9567 22.2821H2.94331V34H0V0H23.4058ZM19.2335 2.85456L2.94315 2.85357V14.1848C4.89501 10.6972 6.74969 8.94631 8.74503 8.94631C10.2964 8.94631 11.2105 9.39627 12.3638 10.4435L12.6928 10.7512C13.4341 11.4561 13.7198 11.6177 14.3525 11.6177C15.0521 11.6177 16.9048 8.58877 19.2335 2.85456Z" fill="#2634A6"/>
</svg>
