<svg xmlns="http://www.w3.org/2000/svg" style="display: none;">
 <symbol id="tokenization" fill="none" viewBox="0 0 19 20">
 <path d="M9.5.197C4.262.197 0 4.518 0 9.83c0 5.312 4.262 9.634 9.5 9.634S19 15.142 19 9.83 14.738.197 9.5.197zm0 18.133c-4.622 0-8.382-3.813-8.382-8.5 0-4.687 3.76-8.5 8.382-8.5s8.382 3.813 8.382 8.5c0 4.687-3.76 8.5-8.382 8.5z" fill="#414141"/>
 <path d="M9.985 5.016c-.198-.353-.772-.353-.97 0l-4.47 7.933a.574.574 0 0 0 .001.566c.1.174.285.282.484.282h8.94a.558.558 0 0 0 .484-.282c.1-.175.1-.39.002-.566l-4.47-7.933zm-3.993 7.648L9.5 6.439l3.508 6.225H5.992z" fill="#414141"/>
 </symbol>
 <symbol id="lending" fill="none" viewBox="0 0 18 19">
 <path d="M17.4 9.337c0 4.717-3.769 8.527-8.4 8.527S.6 14.054.6 9.337C.6 4.62 4.369.811 9 .811s8.4 3.81 8.4 8.526z" stroke="#414141" stroke-width="1.2"/>
 <path d="M9.427 4.86L9 4.427l-.427.433-4 4.056-.416.421.416.422 4 4.056.427.433.427-.433 4-4.056.416-.422-.416-.421-4-4.056z" stroke="#414141" stroke-width="1.2"/>
 </symbol>
  <symbol id="exchange" fill="none" viewBox="0 0 18 18">
 <path d="M9 0C7.656 0 6.37.29 5.172.856l-.01.004-.02.008A9.05 9.05 0 0 0 0 9c0 4.963 4.037 9 9 9a8.88 8.88 0 0 0 3.83-.856l.008-.004.02-.008A9.051 9.051 0 0 0 18 9c0-4.963-4.037-9-9-9zM1.2 9a7.843 7.843 0 0 1 3.6-6.566V9c0 2.316 1.885 4.2 4.2 4.2a4.184 4.184 0 0 0 3-1.266v4.255a7.684 7.684 0 0 1-3 .611c-4.3 0-7.8-3.5-7.8-7.8zM6 9c0-1.654 1.346-3 3-3s3 1.346 3 3-1.346 3-3 3-3-1.346-3-3zm7.2 6.567V9c0-2.316-1.885-4.2-4.2-4.2a4.184 4.184 0 0 0-3 1.266V1.811A7.683 7.683 0 0 1 9 1.2c4.3 0 7.8 3.5 7.8 7.8a7.845 7.845 0 0 1-3.6 6.567z" fill="#414141"/>
 </symbol>
 <symbol id="deeds" fill="none" viewBox="0 0 18 22">
 <path d="M12.227 0H0v20.3h5.342v-2.137h-3.2V2.137h8.57V6.41h4.284v11.752h-3.224V20.3h5.366V4.9L12.227 0z" fill="#E50913"/>
 <path d="M11.782 14.408a.78.78 0 0 1 .23-.553l.55-.548a.782.782 0 0 0 0-1.105l-.55-.548a.78.78 0 0 1-.23-.553v-.772A.78.78 0 0 0 11 9.55h-.774a.783.783 0 0 1-.554-.23l-.549-.547a.787.787 0 0 0-1.108 0l-.547.55a.783.783 0 0 1-.554.23H6.14a.782.782 0 0 0-.782.78v.772a.78.78 0 0 1-.23.553l-.549.547a.782.782 0 0 0 0 1.106l.549.548a.78.78 0 0 1 .23.553v.771c0 .43.351.78.782.78h.284v5.407l2.145-2.137 2.14 2.137v-5.406H11c.431 0 .782-.35.782-.78v-.775zm-3.216.497a2.139 2.139 0 0 1-2.142-2.137c0-1.18.959-2.137 2.142-2.137 1.184 0 2.143.956 2.143 2.137 0 1.18-.96 2.137-2.143 2.137z" fill="#E50913"/>
 </symbol>
  <symbol id="invoices" fill="none" viewBox="0 0 18 22">
 <path d="M12.227 0H0v20.3h5.342v-2.137h-3.2V2.137h8.57V6.41h4.284v11.752h-3.224V20.3h5.366V4.9L12.227 0z" fill="#E50913"/>
 <path d="M11.782 14.408a.78.78 0 0 1 .23-.553l.55-.548a.782.782 0 0 0 0-1.105l-.55-.548a.78.78 0 0 1-.23-.553v-.772A.78.78 0 0 0 11 9.55h-.774a.783.783 0 0 1-.554-.23l-.549-.547a.787.787 0 0 0-1.108 0l-.547.55a.783.783 0 0 1-.554.23H6.14a.782.782 0 0 0-.782.78v.772a.78.78 0 0 1-.23.553l-.549.547a.782.782 0 0 0 0 1.106l.549.548a.78.78 0 0 1 .23.553v.771c0 .43.351.78.782.78h.284v5.407l2.145-2.137 2.14 2.137v-5.406H11c.431 0 .782-.35.782-.78v-.775zm-3.216.497a2.139 2.139 0 0 1-2.142-2.137c0-1.18.959-2.137 2.142-2.137 1.184 0 2.143.956 2.143 2.137 0 1.18-.96 2.137-2.143 2.137z" fill="#E50913"/>
 </symbol>
  <symbol id="obl" fill="none" viewBox="0 0 21 15"
 <path d="M19.762.44H1.238C.62.44.208.856.208 1.48v12.48c0 .624.412 1.04 1.03 1.04h18.524c.618 0 1.03-.416 1.03-1.04V1.48c0-.624-.412-1.04-1.03-1.04zm-1.029 10.4c-1.132 0-2.058.936-2.058 2.08H4.325c0-1.144-.926-2.08-2.058-2.08V4.6c1.132 0 2.058-.936 2.058-2.08h12.35c0 1.144.926 2.08 2.058 2.08v6.24z" fill="#E50913"/>
 <path d="M10.5 10.84c1.137 0 2.058-1.397 2.058-3.12S11.637 4.6 10.5 4.6c-1.137 0-2.058 1.397-2.058 3.12s.921 3.12 2.058 3.12zM6.383 6.68H5.354c-.617 0-1.029.416-1.029 1.04 0 .624.412 1.04 1.03 1.04h1.028c.618 0 1.03-.416 1.03-1.04 0-.624-.412-1.04-1.03-1.04zM15.646 6.68h-1.03c-.617 0-1.028.416-1.028 1.04 0 .624.411 1.04 1.029 1.04h1.029c.617 0 1.029-.416 1.029-1.04 0-.624-.412-1.04-1.03-1.04z" fill="#E50913"/>
 </symbol>
  <symbol id="wallet" fill="none" viewBox="0 0 19 16">
 <path d="M17.23.43H4.302a1.775 1.775 0 0 0-1.767 1.774v.023h-.24a1.768 1.768 0 0 0-1.77 1.76v9.809a1.779 1.779 0 0 0 1.77 1.773h12.929a1.775 1.775 0 0 0 1.766-1.773v-.023h.24a1.768 1.768 0 0 0 1.77-1.76V2.203A1.779 1.779 0 0 0 17.23.431zm-1.095 13.366a.92.92 0 0 1-.911.918H2.295a.922.922 0 0 1-.914-.918V3.988a.911.911 0 0 1 .914-.906h12.929a.908.908 0 0 1 .91.906v2.447a1.25 1.25 0 0 1-.228.025H13.44a2.434 2.434 0 0 0-2.433 2.437 2.44 2.44 0 0 0 2.434 2.439h2.465c.076-.004.153-.012.228-.024v2.484zm2.01-1.784a.912.912 0 0 1-.915.906h-.24v-1.914c.185-.125.351-.277.492-.45l.663-.856v2.314zm0-3.712l-1.341 1.736a1.144 1.144 0 0 1-.898.444H13.44a1.584 1.584 0 0 1-1.578-1.583 1.583 1.583 0 0 1 1.579-1.581h2.465c.295 0 .587-.066.853-.195.283-.133.53-.332.722-.58l.663-.855V8.3zm0-4.013l-1.155 1.49v-1.79a1.765 1.765 0 0 0-1.766-1.76H3.39v-.023a.92.92 0 0 1 .91-.918H17.23a.922.922 0 0 1 .915.918v2.083z" fill="#E50913"/>
 <path d="M14.4 8.47h-1.026a.428.428 0 0 0 0 .856h1.025a.428.428 0 0 0 0-.856z" fill="#E50913"/>
 </symbol>
 </svg>