<svg width="44" height="31" viewBox="0 0 44 31" fill="none" xmlns="http://www.w3.org/2000/svg">
<path d="M43.6893 1.06024C45.1338 20.6256 32.5571 29.8733 21.2824 30.8594C10.8003 31.7761 0.933622 25.3353 0.068026 15.4394C-0.646 7.26368 4.40696 3.78303 8.37702 3.43606C12.4603 3.07814 15.8916 5.89406 16.1893 9.30349C16.476 12.5814 14.4307 14.0734 13.0081 14.1976C11.8832 14.2962 10.468 13.6132 10.3401 12.1468C10.2306 10.8868 10.709 10.7151 10.5921 9.37654C10.384 6.99341 8.3058 6.71583 7.16811 6.81444C5.79119 6.93497 3.29301 8.54198 3.64363 12.5449C3.99608 16.5825 7.86752 19.7728 12.9424 19.3291C18.419 18.8506 22.232 14.5865 22.5187 8.6059C22.5161 8.28913 22.5828 7.97563 22.7141 7.68734L22.716 7.68004C22.775 7.55477 22.844 7.43447 22.9223 7.32029C23.0392 7.14498 23.1889 6.95141 23.3825 6.73957C23.3843 6.73409 23.3843 6.73409 23.388 6.73409C23.5286 6.57522 23.6984 6.40356 23.8902 6.21912C26.2824 3.96199 34.8982 -1.36124 43.0465 0.324298C43.2187 0.361213 43.3744 0.452826 43.4902 0.585462C43.6061 0.718098 43.6759 0.884643 43.6893 1.06024Z" fill="url(#paint0_linear)"/>
<defs>
<linearGradient id="paint0_linear" x1="42.5784" y1="0.865251" x2="14.2264" y2="40.9967" gradientUnits="userSpaceOnUse">
<stop stop-color="#11C4D1"/>
<stop offset="1" stop-color="#0062AD"/>
</linearGradient>
</defs>
</svg>
