<svg width="32" height="19" viewBox="0 0 32 19" fill="none" xmlns="http://www.w3.org/2000/svg">
<path fill-rule="evenodd" clip-rule="evenodd" d="M25.4272 14.3105C24.1636 14.3105 23.139 13.2859 23.139 12.0219C23.139 10.7579 24.1636 9.73326 25.4272 9.73326C26.6909 9.73326 27.7154 10.7579 27.7154 12.0219C27.7154 13.2859 26.6909 14.3105 25.4272 14.3105ZM25.4272 5.54883C21.8527 5.54883 18.9551 8.44683 18.9551 12.0219C18.9551 15.597 21.8527 18.4952 25.4272 18.4952C29.0016 18.4952 31.8993 15.597 31.8993 12.0219C31.8993 8.44683 29.0016 5.54883 25.4272 5.54883Z" fill="#00D2FF"/>
<path fill-rule="evenodd" clip-rule="evenodd" d="M0 5.54883V18.4952H4.62294V5.54883H4.6127H0Z" fill="#00D2FF"/>
<path fill-rule="evenodd" clip-rule="evenodd" d="M12.0191 8.78537L8.78307 5.54883H5.54688V8.78537L8.78307 12.0219L5.54688 15.2584V18.4952H8.78307L12.0191 15.2584L15.2551 18.4952V18.495V18.4952H18.4911V15.2584L15.2551 12.0219L18.4911 8.78537V5.54883H15.2551L12.0191 8.78537Z" fill="#00D2FF"/>
<path fill-rule="evenodd" clip-rule="evenodd" d="M2.31147 4.62369C1.03488 4.62369 0 3.58864 0 2.31184C0 1.03505 1.03488 0 2.31147 0C3.58806 0 4.62294 1.03505 4.62294 2.31184C4.62294 3.58864 3.58806 4.62369 2.31147 4.62369Z" fill="#00D2FF"/>
</svg>
