<svg width="36" height="36" viewBox="0 0 36 36" fill="none" xmlns="http://www.w3.org/2000/svg">
<path d="M33.12 0H2.88C1.28942 0 0 1.28942 0 2.88V33.12C0 34.7106 1.28942 36 2.88 36H33.12C34.7106 36 36 34.7106 36 33.12V2.88C36 1.28942 34.7106 0 33.12 0Z" fill="url(#paint0_radial)"/>
<path d="M33.12 0H2.88C1.28942 0 0 1.28942 0 2.88V33.12C0 34.7106 1.28942 36 2.88 36H33.12C34.7106 36 36 34.7106 36 33.12V2.88C36 1.28942 34.7106 0 33.12 0Z" fill="url(#paint1_radial)" fill-opacity="0.57"/>
<path d="M33.12 0H2.88C1.28942 0 0 1.28942 0 2.88V33.12C0 34.7106 1.28942 36 2.88 36H33.12C34.7106 36 36 34.7106 36 33.12V2.88C36 1.28942 34.7106 0 33.12 0Z" fill="url(#paint2_radial)" fill-opacity="0.68"/>
<path d="M33.12 0H2.88C1.28942 0 0 1.28942 0 2.88V33.12C0 34.7106 1.28942 36 2.88 36H33.12C34.7106 36 36 34.7106 36 33.12V2.88C36 1.28942 34.7106 0 33.12 0Z" fill="url(#paint3_radial)" fill-opacity="0.08"/>
<path d="M33.12 0H2.88C1.28942 0 0 1.28942 0 2.88V33.12C0 34.7106 1.28942 36 2.88 36H33.12C34.7106 36 36 34.7106 36 33.12V2.88C36 1.28942 34.7106 0 33.12 0Z" fill="url(#paint4_linear)" fill-opacity="0.03"/>
<path d="M12.6722 30.6004V19.4404L23.2202 30.6004H29.0882V30.3124L16.9562 17.6044L28.1522 5.54439V5.40039H22.2482L12.6722 16.0564V5.40039H7.92017V30.6004H12.6722Z" fill="white"/>
<defs>
<radialGradient id="paint0_radial" cx="0" cy="0" r="1" gradientUnits="userSpaceOnUse" gradientTransform="translate(-27.8667 17.2289) rotate(140.172) scale(61.9204 74.7209)">
<stop stop-color="#2F80F2"/>
<stop offset="0.999657" stop-color="#A942B5"/>
</radialGradient>
<radialGradient id="paint1_radial" cx="0" cy="0" r="1" gradientUnits="userSpaceOnUse" gradientTransform="translate(-0.583117 0.5607) rotate(46.3208) scale(57.2788 60.0199)">
<stop stop-color="#45F9DE"/>
<stop offset="1" stop-color="#A942B5" stop-opacity="0"/>
</radialGradient>
<radialGradient id="paint2_radial" cx="0" cy="0" r="1" gradientUnits="userSpaceOnUse" gradientTransform="translate(-35.64 -18.2659) rotate(180) scale(34.5757 17.8052)">
<stop stop-color="#E957C5"/>
<stop offset="1" stop-color="#A942B5" stop-opacity="0"/>
</radialGradient>
<radialGradient id="paint3_radial" cx="0" cy="0" r="1" gradientUnits="userSpaceOnUse" gradientTransform="translate(-32.116 2.2102) rotate(119.938) scale(20.7547 31.1152)">
<stop stop-opacity="0.184878"/>
<stop offset="1" stop-color="#101010"/>
</radialGradient>
<linearGradient id="paint4_linear" x1="33.9255" y1="21.2278" x2="0" y2="0" gradientUnits="userSpaceOnUse">
<stop stop-color="white" stop-opacity="0.184878"/>
<stop offset="1" stop-color="white"/>
</linearGradient>
</defs>
</svg>
