<svg width="642" height="85" viewBox="0 0 642 85" fill="none" xmlns="http://www.w3.org/2000/svg">
<rect x="0.932617" y="0.510265" width="84.3235" height="84.32" rx="5" fill="black"/>
<path d="M118.898 37.7086V49.4066H135.475V60.2808H118.898V72.9674H140.235V84.2535H104.811V26.4225H140.235V37.7086H118.898Z" fill="black"/>
<path d="M187.376 83.9041L176.492 62.0733H170.826V83.9041H156.739V26.0731H180.382C184.941 26.0731 188.813 26.8694 191.998 28.4621C195.238 30.0548 197.655 32.2516 199.248 35.0525C200.84 37.7986 201.637 40.8741 201.637 44.2791C201.637 48.1236 200.538 51.5561 198.341 54.5767C196.199 57.5973 193.014 59.7392 188.785 61.0024L202.131 83.9041H187.376ZM170.826 52.1053H179.559C182.14 52.1053 184.062 51.4737 185.325 50.2105C186.643 48.9474 187.302 47.1625 187.302 44.8558C187.302 42.659 186.643 40.929 185.325 39.6658C184.062 38.4027 182.14 37.7711 179.559 37.7711H170.826V52.1053Z" fill="black"/>
<path d="M237.226 84.8302C232.997 84.8302 229.208 84.1437 225.857 82.7707C222.507 81.3977 219.816 79.3656 217.784 76.6745C215.807 73.9834 214.764 70.7431 214.654 66.9536H229.647C229.867 69.0955 230.608 70.7431 231.871 71.8965C233.134 72.9949 234.782 73.5441 236.814 73.5441C238.901 73.5441 240.549 73.0773 241.757 72.1436C242.965 71.1551 243.569 69.8095 243.569 68.107C243.569 66.679 243.075 65.4983 242.086 64.5646C241.153 63.631 239.972 62.8621 238.544 62.258C237.171 61.6538 235.194 60.9673 232.613 60.1985C228.878 59.0451 225.83 57.8918 223.468 56.7385C221.107 55.5852 219.075 53.8826 217.372 51.6309C215.67 49.3792 214.818 46.4409 214.818 42.8162C214.818 37.434 216.768 33.2326 220.667 30.212C224.567 27.1365 229.647 25.5987 235.908 25.5987C242.279 25.5987 247.414 27.1365 251.313 30.212C255.212 33.2326 257.299 37.4615 257.574 42.8986H242.333C242.224 41.0313 241.537 39.5759 240.274 38.5324C239.011 37.434 237.391 36.8848 235.414 36.8848C233.711 36.8848 232.338 37.3516 231.294 38.2853C230.251 39.164 229.729 40.4546 229.729 42.1572C229.729 44.0244 230.608 45.4798 232.365 46.5233C234.123 47.5668 236.869 48.6927 240.603 49.9009C244.338 51.1641 247.359 52.3723 249.665 53.5256C252.027 54.679 254.059 56.354 255.761 58.5509C257.464 60.7477 258.315 63.5761 258.315 67.036C258.315 70.3312 257.464 73.3244 255.761 76.0155C254.114 78.7066 251.697 80.8485 248.512 82.4412C245.327 84.0338 241.565 84.8302 237.226 84.8302Z" fill="black"/>
<path d="M287.662 26.4225V84.2535H273.575V26.4225H287.662Z" fill="black"/>
<path d="M325.386 84.8302C321.157 84.8302 317.367 84.1437 314.017 82.7707C310.667 81.3977 307.976 79.3656 305.944 76.6745C303.967 73.9834 302.923 70.7431 302.814 66.9536H317.807C318.026 69.0955 318.768 70.7431 320.031 71.8965C321.294 72.9949 322.942 73.5441 324.974 73.5441C327.061 73.5441 328.708 73.0773 329.917 72.1436C331.125 71.1551 331.729 69.8095 331.729 68.107C331.729 66.679 331.235 65.4983 330.246 64.5646C329.313 63.631 328.132 62.8621 326.704 62.258C325.331 61.6538 323.354 60.9673 320.772 60.1985C317.038 59.0451 313.99 57.8918 311.628 56.7385C309.267 55.5852 307.235 53.8826 305.532 51.6309C303.83 49.3792 302.978 46.4409 302.978 42.8162C302.978 37.434 304.928 33.2326 308.827 30.212C312.727 27.1365 317.807 25.5987 324.068 25.5987C330.438 25.5987 335.573 27.1365 339.473 30.212C343.372 33.2326 345.459 37.4615 345.734 42.8986H330.493C330.383 41.0313 329.697 39.5759 328.434 38.5324C327.171 37.434 325.55 36.8848 323.573 36.8848C321.871 36.8848 320.498 37.3516 319.454 38.2853C318.411 39.164 317.889 40.4546 317.889 42.1572C317.889 44.0244 318.768 45.4798 320.525 46.5233C322.283 47.5668 325.029 48.6927 328.763 49.9009C332.498 51.1641 335.518 52.3723 337.825 53.5256C340.187 54.679 342.219 56.354 343.921 58.5509C345.624 60.7477 346.475 63.5761 346.475 67.036C346.475 70.3312 345.624 73.3244 343.921 76.0155C342.274 78.7066 339.857 80.8485 336.672 82.4412C333.486 84.0338 329.724 84.8302 325.386 84.8302Z" fill="black"/>
<path d="M403.337 26.4225V37.7086H388.014V84.2535H373.927V37.7086H358.604V26.4225H403.337Z" fill="black"/>
<path d="M431.084 37.7086V49.4066H447.661V60.2808H431.084V72.9674H452.421V84.2535H416.997V26.4225H452.421V37.7086H431.084Z" fill="black"/>
<path d="M519.892 84.2535H505.805L482.244 48.5828V84.2535H468.157V26.4225H482.244L505.805 62.258V26.4225H519.892V84.2535Z" fill="black"/>
<path d="M534.304 55.2556C534.304 49.5439 535.54 44.4638 538.011 40.0153C540.483 35.5118 543.915 32.0244 548.309 29.553C552.757 27.0266 557.783 25.7635 563.385 25.7635C570.25 25.7635 576.126 27.5758 581.014 31.2006C585.902 34.8253 589.17 39.7681 590.817 46.029H575.33C574.176 43.6125 572.529 41.7727 570.387 40.5096C568.3 39.2464 565.911 38.6148 563.22 38.6148C558.881 38.6148 555.366 40.1251 552.675 43.1457C549.984 46.1663 548.638 50.203 548.638 55.2556C548.638 60.3083 549.984 64.3449 552.675 67.3656C555.366 70.3862 558.881 71.8965 563.22 71.8965C565.911 71.8965 568.3 71.2649 570.387 70.0017C572.529 68.7386 574.176 66.8987 575.33 64.4822H590.817C589.17 70.7432 585.902 75.686 581.014 79.3107C576.126 82.8805 570.25 84.6654 563.385 84.6654C557.783 84.6654 552.757 83.4297 548.309 80.9583C543.915 78.432 540.483 74.9445 538.011 70.496C535.54 66.0475 534.304 60.9673 534.304 55.2556Z" fill="black"/>
<path d="M620.121 37.7086V49.4066H636.698V60.2808H620.121V72.9674H641.458V84.2535H606.034V26.4225H641.458V37.7086H620.121Z" fill="black"/>
<path d="M65.3391 45.2731C65.3391 48.6549 64.563 51.7594 63.0107 54.5868C61.4584 57.3587 59.0746 59.604 55.8591 61.3226C52.6437 63.0412 48.6521 63.9005 43.8844 63.9005H35.0696V84.8563H20.8496V26.4794H43.8844C48.5412 26.4794 52.4774 27.2833 55.6928 28.891C58.9082 30.4987 61.3198 32.7162 62.9275 35.5436C64.5353 38.371 65.3391 41.6141 65.3391 45.2731ZM42.8033 52.591C45.5198 52.591 47.5433 51.9534 48.8738 50.6784C50.2044 49.4033 50.8696 47.6015 50.8696 45.2731C50.8696 42.9447 50.2044 41.1429 48.8738 39.8678C47.5433 38.5927 45.5198 37.9552 42.8033 37.9552H35.0696V52.591H42.8033Z" fill="white"/>
<path d="M65.3391 11.6903H20.8496V21.0852H65.3391V11.6903Z" fill="#E50913"/>
</svg>
