<svg width="41" height="40" viewBox="0 0 41 40" fill="none" xmlns="http://www.w3.org/2000/svg">
<path fill-rule="evenodd" clip-rule="evenodd" d="M41 19.9129C41 30.1101 33.1213 38.5543 23.0064 39.2991C21.714 39.3944 20.589 38.4238 20.4939 37.1313C20.3987 35.8389 21.3692 34.714 22.6618 34.6189C30.3294 34.0541 36.307 27.6476 36.307 19.9129C36.307 12.1844 30.339 5.78115 22.679 5.20808C21.3866 5.1114 20.4173 3.98539 20.5139 2.69305C20.6106 1.40072 21.7366 0.43145 23.029 0.528132C33.134 1.2841 41 9.72392 41 19.9129ZM14.0123 6.73704C15.6073 6.73704 16.9004 5.44403 16.9004 3.84902C16.9004 2.25402 15.6073 0.961004 14.0123 0.961004C12.4173 0.961004 11.1243 2.25402 11.1243 3.84902C11.1243 5.44403 12.4173 6.73704 14.0123 6.73704ZM9.29197 9.86566C9.29197 11.4607 7.99896 12.7537 6.40396 12.7537C4.80895 12.7537 3.51594 11.4607 3.51594 9.86566C3.51594 8.27066 4.80895 6.97765 6.40396 6.97765C7.99896 6.97765 9.29197 8.27066 9.29197 9.86566ZM3.00593 22.2106C4.60095 22.2106 5.89396 20.9176 5.89396 19.3226C5.89396 17.7276 4.60095 16.4345 3.00593 16.4345C1.41093 16.4345 0.11792 17.7276 0.11792 19.3226C0.11792 20.9176 1.41093 22.2106 3.00593 22.2106ZM9.29197 29.5075C9.29197 31.1025 7.99896 32.3956 6.40396 32.3956C4.80895 32.3956 3.51594 31.1025 3.51594 29.5075C3.51594 27.9125 4.80895 26.6196 6.40396 26.6196C7.99896 26.6196 9.29197 27.9125 9.29197 29.5075ZM16.9004 35.5243C16.9004 37.1193 15.6073 38.4123 14.0123 38.4123C12.4173 38.4123 11.1243 37.1193 11.1243 35.5243C11.1243 33.9293 12.4173 32.6362 14.0123 32.6362C15.6073 32.6362 16.9004 33.9293 16.9004 35.5243Z" fill="black"/>
</svg>
