<svg width="414" height="737" viewBox="0 0 414 737" fill="none" xmlns="http://www.w3.org/2000/svg">
<path d="M79.667 445.508L0 397.536L31 379.471L79.667 408L461 185.5L704.525 79L79.667 445.508Z" fill="#515257"/>
<path d="M0 398L79.3548 445.718L80 735H0V398Z" fill="url(#paint0_linear)"/>
<path d="M79.5 445.5L431 239.5V736.5H79.5V445.5Z" fill="#1D1E22"/>
<path d="M79.667 365L469.5 138.5L704.525 42L79.667 408.508L79.667 365Z" fill="#3E0305"/>
<path d="M0 318.536L474.162 42.2156L704.525 0L79.5 366.5L0 318.536Z" fill="url(#paint1_linear)"/>
<path d="M79.5 408.5V366.5L0 318.5V361L79.5 408.5Z" fill="#960E15"/>
<defs>
<linearGradient id="paint0_linear" x1="40" y1="398" x2="40" y2="710.104" gradientUnits="userSpaceOnUse">
<stop stop-color="#303138"/>
<stop offset="1" stop-color="#1D1E22"/>
</linearGradient>
<linearGradient id="paint1_linear" x1="44.5" y1="344" x2="493.5" y2="72.5" gradientUnits="userSpaceOnUse">
<stop stop-color="#E50913"/>
<stop offset="1" stop-color="#E50913" stop-opacity="0.5"/>
</linearGradient>
</defs>
</svg>
