<svg width="36" height="28" viewBox="0 0 36 28" fill="none" xmlns="http://www.w3.org/2000/svg">
<path d="M13.9419 11.6257L17.9687 20.4058L23.9496 17.0062H23.961V10.2031L13.9419 11.6257Z" fill="#2BBDF7"/>
<path d="M31.6868 5.10016L27.9545 3.71966L23.9622 3.39844V10.2015V24.5954L29.9507 27.9988L34.727 18.4157L31.6983 9.19576L31.6868 5.10016Z" fill="#2891F9"/>
<path d="M31.3396 3.39844L29.9514 6.80188V27.9453L35.9399 24.5419V3.39844H31.3396Z" fill="#2BBDF7"/>
<path d="M29.9507 0L23.9622 3.39962L29.9507 6.80306L35.9392 3.39962L29.9507 0Z" fill="#2B6DEF"/>
<path d="M17.9699 13.6011L11.9814 6.99309L0.000488281 3.39844V24.5419L5.98902 27.9453L7.70604 16.2436L11.9814 17.0046L17.9699 20.4042V13.6011Z" fill="#2891F9"/>
<path d="M5.98853 0L0 3.39962L17.9694 13.6023L20.6845 12.065L23.9618 10.2027L5.98853 0Z" fill="#2B6DEF"/>
<path d="M5.9895 13.6016V27.9457L11.9819 24.5423V17.005L5.9895 13.6016Z" fill="#2BBDF7"/>
</svg>
