<svg width="62" height="62" viewBox="0 0 62 62" fill="none" xmlns="http://www.w3.org/2000/svg">
<circle cx="31" cy="31" r="31" fill="#F4F5F7"/>
<path d="M27.752 29.1388L31.1606 36.5711L36.2234 33.6933H36.2331V27.9346L27.752 29.1388Z" fill="#2BBDF7"/>
<path d="M42.7713 23.6163L39.6119 22.4477L36.2324 22.1758V27.9346V40.1189L41.3017 42.9999L45.3448 34.8878L42.781 27.0832L42.7713 23.6163Z" fill="#2891F9"/>
<path d="M42.4778 22.1758L41.3027 25.0568V42.9546L46.372 40.0736V22.1758H42.4778Z" fill="#2BBDF7"/>
<path d="M41.3017 19.2981L36.2324 22.1759L41.3017 25.0569L46.371 22.1759L41.3017 19.2981Z" fill="#2B6DEF"/>
<path d="M31.1603 30.8123L26.091 25.2186L15.9492 22.1758V40.0736L21.0185 42.9546L22.4719 33.0491L26.091 33.6933L31.1603 36.5711V30.8123Z" fill="#2891F9"/>
<path d="M21.0185 19.2981L15.9492 22.1759L31.1603 30.8124L33.4586 29.5111L36.2328 27.9346L21.0185 19.2981Z" fill="#2B6DEF"/>
<path d="M21.0195 30.8124V42.9547L26.092 40.0737V33.6934L21.0195 30.8124Z" fill="#2BBDF7"/>
</svg>
