<svg width="45" height="53" viewBox="0 0 45 53" fill="none" xmlns="http://www.w3.org/2000/svg">
<path d="M12.4864 0.00354667H26.5405C29.4716 0.00354667 31.8478 2.37974 31.8478 5.31093V40.6935C31.8478 43.6247 29.4716 46.0009 26.5405 46.0009H5.31093C2.37974 46.0009 0.00354667 43.6247 0.00354667 40.6935V12.4864C-0.0262436 12.0167 0.130356 11.5278 0.521712 11.1365L11.1365 0.521712C11.5278 0.130356 12.0167 -0.0262436 12.4864 0.00354667ZM14.1566 3.5418V12.3874C14.1566 13.3645 13.3645 14.1566 12.3874 14.1566H3.5418V40.6935C3.5418 41.6705 4.33387 42.4626 5.31093 42.4626H26.5405C27.5175 42.4626 28.3096 41.6705 28.3096 40.6935V5.31093C28.3096 4.33387 27.5175 3.5418 26.5405 3.5418H14.1566ZM6.04373 10.6183H10.6183V6.04373L6.04373 10.6183Z" fill="#E50913"/>
<circle cx="31" cy="38.9996" r="8.4" fill="white"/>
<path fill-rule="evenodd" clip-rule="evenodd" d="M34.2148 29.0444C34.7333 29.2519 35.2519 29.4593 35.7704 29.6667L38.2593 27.8C38.7778 27.4889 39.4 27.5926 39.7111 27.9037L41.9926 30.1852C42.4074 30.6 42.4074 31.2222 42.0963 31.637L40.3333 34.2296C40.5407 34.7481 40.7481 35.2667 40.9556 35.7852L44.0667 36.3037C44.5852 36.3037 45 36.8222 45 37.3407V40.5556C45 41.0741 44.5852 41.5926 44.0667 41.6963L40.9556 42.2148C40.7481 42.7333 40.5407 43.2519 40.3333 43.7704L42.2 46.2593C42.5111 46.7778 42.4074 47.4 42.0963 47.7111L39.8148 49.9926C39.4 50.4074 38.7778 50.4074 38.363 50.0963L35.7704 48.3333C35.2519 48.5407 34.7333 48.7481 34.2148 48.9556L33.6963 52.0667C33.5926 52.5852 33.0741 53 32.5556 53H29.3407C28.8222 53 28.3037 52.5852 28.3037 52.0667L27.7852 48.9556C27.2667 48.7481 26.7481 48.5407 26.2296 48.3333L23.637 50.0963C23.2222 50.4074 22.6 50.4074 22.1852 49.9926L19.9037 47.7111C19.5926 47.4 19.4889 46.7778 19.8 46.363L21.6667 43.7704C21.3556 43.2519 21.1481 42.7333 21.0444 42.2148L17.9333 41.6963C17.4148 41.5926 17 41.0741 17 40.5556V37.3407C17 36.8222 17.4148 36.3037 17.9333 36.3037L21.0444 35.7852C21.1481 35.163 21.3556 34.7481 21.6667 34.2296L19.8 31.637C19.4889 31.2222 19.5926 30.6 20.0074 30.1852L22.2889 27.9037C22.6 27.5926 23.2222 27.4889 23.637 27.8L26.2296 29.6667C26.7481 29.4593 27.2667 29.2519 27.7852 29.0444L28.3037 25.9333C28.3037 25.4148 28.8222 25 29.3407 25H32.5556C33.0741 25 33.5926 25.4148 33.6963 25.9333L34.2148 29.0444ZM31 31.3259C35.2519 31.3259 38.6741 34.7481 38.6741 39C38.6741 43.2519 35.2519 46.6741 31 46.6741C26.7481 46.6741 23.3259 43.2519 23.3259 39C23.3259 34.7481 26.7481 31.3259 31 31.3259Z" fill="#E50913"/>
<path fill-rule="evenodd" clip-rule="evenodd" d="M31.0001 35.2676C33.0741 35.2676 34.7334 36.9268 34.7334 39.0009C34.7334 41.075 33.0741 42.7342 31.0001 42.7342C28.926 42.7342 27.2667 41.075 27.2667 39.0009C27.2667 36.9268 28.926 35.2676 31.0001 35.2676Z" fill="#E50913"/>
</svg>
