<svg width="68" height="30" viewBox="0 0 68 30" fill="none" xmlns="http://www.w3.org/2000/svg">
<rect width="23.9327" height="23.9317" rx="1.4191" fill="black"/>
<path d="M18.2799 12.7045C18.2799 13.6644 18.0596 14.5455 17.619 15.348C17.1784 16.1347 16.5019 16.7719 15.5892 17.2597C14.6766 17.7475 13.5437 17.9914 12.1906 17.9914H9.68876V23.9391H5.65283V7.37051H12.1906C13.5123 7.37051 14.6294 7.59867 15.542 8.05497C16.4546 8.51127 17.1391 9.14066 17.5954 9.94312C18.0517 10.7456 18.2799 11.6661 18.2799 12.7045ZM11.8837 14.7815C12.6547 14.7815 13.229 14.6006 13.6067 14.2387C13.9843 13.8768 14.1731 13.3654 14.1731 12.7045C14.1731 12.0437 13.9843 11.5323 13.6067 11.1704C13.229 10.8085 12.6547 10.6276 11.8837 10.6276H9.68876V14.7815H11.8837Z" fill="white"/>
<path d="M18.3629 3.17297H5.65283V5.83943H18.3629V3.17297Z" fill="#E50913"/>
<path d="M35.98 19.52H30.74L29.9 22H26.32L31.4 7.96H35.36L40.44 22H36.82L35.98 19.52ZM35.1 16.88L33.36 11.74L31.64 16.88H35.1ZM45.4061 12.42C45.7394 11.9 46.1994 11.48 46.7861 11.16C47.3728 10.84 48.0594 10.68 48.8461 10.68C49.7661 10.68 50.5994 10.9133 51.3461 11.38C52.0928 11.8467 52.6794 12.5133 53.1061 13.38C53.5461 14.2467 53.7661 15.2533 53.7661 16.4C53.7661 17.5467 53.5461 18.56 53.1061 19.44C52.6794 20.3067 52.0928 20.98 51.3461 21.46C50.5994 21.9267 49.7661 22.16 48.8461 22.16C48.0728 22.16 47.3861 22 46.7861 21.68C46.1994 21.36 45.7394 20.9467 45.4061 20.44V27.32H41.9861V10.84H45.4061V12.42ZM50.2861 16.4C50.2861 15.5467 50.0461 14.88 49.5661 14.4C49.0994 13.9067 48.5194 13.66 47.8261 13.66C47.1461 13.66 46.5661 13.9067 46.0861 14.4C45.6194 14.8933 45.3861 15.5667 45.3861 16.42C45.3861 17.2733 45.6194 17.9467 46.0861 18.44C46.5661 18.9333 47.1461 19.18 47.8261 19.18C48.5061 19.18 49.0861 18.9333 49.5661 18.44C50.0461 17.9333 50.2861 17.2533 50.2861 16.4ZM58.9803 12.42C59.3136 11.9 59.7736 11.48 60.3603 11.16C60.947 10.84 61.6336 10.68 62.4203 10.68C63.3403 10.68 64.1736 10.9133 64.9203 11.38C65.667 11.8467 66.2536 12.5133 66.6803 13.38C67.1203 14.2467 67.3403 15.2533 67.3403 16.4C67.3403 17.5467 67.1203 18.56 66.6803 19.44C66.2536 20.3067 65.667 20.98 64.9203 21.46C64.1736 21.9267 63.3403 22.16 62.4203 22.16C61.647 22.16 60.9603 22 60.3603 21.68C59.7736 21.36 59.3136 20.9467 58.9803 20.44V27.32H55.5603V10.84H58.9803V12.42ZM63.8603 16.4C63.8603 15.5467 63.6203 14.88 63.1403 14.4C62.6736 13.9067 62.0936 13.66 61.4003 13.66C60.7203 13.66 60.1403 13.9067 59.6603 14.4C59.1936 14.8933 58.9603 15.5667 58.9603 16.42C58.9603 17.2733 59.1936 17.9467 59.6603 18.44C60.1403 18.9333 60.7203 19.18 61.4003 19.18C62.0803 19.18 62.6603 18.9333 63.1403 18.44C63.6203 17.9333 63.8603 17.2533 63.8603 16.4Z" fill="white"/>
</svg>
