<svg width="88" height="20" viewBox="0 0 88 20" fill="none" xmlns="http://www.w3.org/2000/svg">
<path d="M19.5706 13.6178H6.5823V6.56094H4.58411V14.5905C4.58411 15.1245 5.03467 15.5632 5.58319 15.5632H16.9651L14.6143 17.623H1.9982V5.95063H4.56451H6.56271H14.9865C15.2412 5.95063 15.4762 5.85525 15.6526 5.70269L20.2367 1.69745C20.5501 1.43044 20.6481 0.991772 20.5109 0.629392C20.3542 0.247942 19.982 0 19.5706 0H5.58319C5.03467 0 4.58411 0.438668 4.58411 0.972698V3.39491H6.5823V1.9454H16.9651L14.6143 4.00524H6.5823H4.58411H0.999099C0.450574 4.00524 0 4.44389 0 4.97793V18.5957C0 19.1297 0.450574 19.5684 0.999099 19.5684H14.9865C15.2412 19.5684 15.4762 19.473 15.6526 19.3205L20.2367 15.3152C20.5501 15.0482 20.6481 14.6095 20.5109 14.2472C20.3542 13.8657 19.982 13.6178 19.5706 13.6178Z" fill="#FE4350"/>
<path d="M30.0808 4.3844C32.2685 4.3844 34.6385 5.54675 35.055 8.27581C34.1434 8.27581 33.3103 8.27581 32.3987 8.27581C32.008 7.23977 31.2267 6.75967 30.0808 6.75967C28.4924 6.75967 27.4506 7.92205 27.4506 9.61507C27.4506 11.1312 28.4663 12.4452 30.0808 12.4704C31.2267 12.4704 32.1644 11.9145 32.4508 10.8027C33.3624 10.8027 34.1958 10.8027 35.1071 10.8027C34.7164 13.7086 32.3467 14.8457 30.0808 14.8457C27.3986 14.871 24.6641 13.1022 24.6641 9.61507C24.6641 6.12794 27.3724 4.3844 30.0808 4.3844Z" fill="white"/>
<path d="M35.9141 9.63989C35.9141 2.53931 46.7736 2.53931 46.7736 9.63989C46.7478 16.7657 35.9141 16.7657 35.9141 9.63989ZM43.9871 9.63989C43.9871 5.9506 38.6744 5.9506 38.6744 9.63989C38.6744 13.3797 43.9871 13.3797 43.9871 9.63989Z" fill="white"/>
<path d="M57.2437 4.46021H58.2073V14.7699C57.2957 14.7699 56.3582 14.7699 55.4469 14.7699V10.1963L53.2072 12.4957H52.8947L50.6549 10.1963V14.7699C49.7433 14.7699 48.8058 14.7699 47.8945 14.7699V4.46021H48.884L53.0249 8.90757L57.2437 4.46021Z" fill="white"/>
<path d="M63.961 14.7701H59.9766V4.4856H63.961C70.8623 4.53614 70.8623 14.7448 63.961 14.7701ZM62.6849 12.3695H63.961C67.3205 12.3695 67.3205 6.88617 63.961 6.88617H62.6849V12.3695Z" fill="white"/>
<path d="M76.9059 6.83563C75.3435 6.83563 74.5359 6.83563 72.9997 6.83563V8.30122H76.5935C76.5935 9.08456 76.5935 9.86791 76.5935 10.626H72.9735C72.9735 11.2324 72.9735 11.8136 72.9735 12.4201C74.536 12.4201 75.4476 12.4201 77.0362 12.4201C77.0362 13.1781 77.0362 13.9867 77.0362 14.7448C74.5621 14.7448 72.7392 14.7448 70.291 14.7448C70.291 11.3082 70.291 7.87164 70.291 4.4856C72.7392 4.4856 74.4057 4.4856 76.9059 4.4856C76.9059 5.26894 76.9059 6.05228 76.9059 6.83563Z" fill="white"/>
<path d="M83.0516 11.5357L81.0202 14.7701H78.1816V14.3658L81.5932 9.31199L78.5462 4.8899V4.4856H81.3068L83.0257 7.16411H83.1036L84.8745 4.4856H87.5831V4.8899L84.562 9.31199L87.9997 14.3658V14.7701H85.1611L83.1298 11.5357H83.0516Z" fill="white"/>
</svg>
