<svg width="62" height="16" viewBox="0 0 62 16" fill="none" xmlns="http://www.w3.org/2000/svg">
<path fill-rule="evenodd" clip-rule="evenodd" d="M44.7646 4.561C44.6979 4.55617 44.5612 4.54216 44.2708 4.54216C44.0181 4.54216 43.7833 4.56583 43.5654 4.61125C42.6561 4.78809 42.0749 5.28188 41.5734 5.80514V4.76973H38.7242V14.0014H41.5734V10.1458C41.5734 9.68973 41.5985 9.27132 41.6492 8.89204C41.6999 8.51179 41.8106 8.18614 41.9816 7.91364C42.1527 7.64114 42.3962 7.42903 42.7131 7.27732C43.0296 7.12561 43.4601 7.04927 44.0046 7.04927C44.4173 7.04791 44.8276 7.112 45.2202 7.23915V4.63686C45.0711 4.59728 44.9185 4.57188 44.7646 4.561ZM52.386 4.561C52.3198 4.55617 52.183 4.54216 51.8922 4.54216C51.6395 4.54216 51.4052 4.56583 51.1868 4.61125C50.2775 4.78809 49.6967 5.28188 49.1947 5.80514V4.76973H46.3455V14.0014H49.1947V10.1458C49.1947 9.68973 49.2203 9.27132 49.271 8.89204C49.3213 8.51179 49.4324 8.18614 49.6035 7.91364C49.7745 7.64114 50.018 7.42903 50.3345 7.27732C50.6509 7.12561 51.0819 7.04927 51.6264 7.04927C52.0391 7.04791 52.4494 7.112 52.8421 7.23915V4.63686C52.6928 4.59725 52.5401 4.57185 52.386 4.561ZM22.3485 4.39045H18.5117V1.76883H29.1489V4.39045H25.3122V14.0014H22.348L22.3485 4.39045ZM34.7425 8.34124C34.755 7.86001 34.597 7.44788 34.268 7.10628C33.9385 6.76469 33.5143 6.59365 32.9949 6.59365C32.6784 6.59365 32.3996 6.6439 32.159 6.74536C31.9189 6.84683 31.7131 6.9768 31.542 7.13479C31.371 7.29326 31.2376 7.47638 31.1429 7.68559C31.0485 7.89207 30.9937 8.1145 30.9816 8.34124H34.7425ZM37.1549 12.406C36.6993 12.9887 36.1228 13.4381 35.4266 13.7541C34.7475 14.0669 34.0088 14.2291 33.2611 14.2295C32.5518 14.2295 31.8841 14.1155 31.257 13.8874C30.6303 13.6598 30.0858 13.3337 29.6239 12.9095C29.1581 12.4806 28.7862 11.96 28.5315 11.3803C28.2657 10.7851 28.1324 10.1202 28.1324 9.38583C28.1324 8.65142 28.2657 7.9866 28.5315 7.39135C28.7862 6.8118 29.1579 6.29117 29.6234 5.86215C30.0858 5.43794 30.6303 5.1118 31.257 4.88424C31.8998 4.65348 32.5782 4.53768 33.2611 4.54216C33.9192 4.54216 34.5173 4.65619 35.056 4.88424C35.5801 5.10223 36.0477 5.43665 36.4234 5.86215C36.7969 6.28685 37.0853 6.79609 37.2882 7.39135C37.4902 7.9866 37.5917 8.65142 37.5917 9.38583V10.2787H30.982C31.0956 10.8232 31.3425 11.2566 31.7222 11.5798C32.1025 11.9026 32.5707 12.064 33.1282 12.064C33.5969 12.064 33.9921 11.9596 34.3154 11.7504C34.6445 11.5358 34.9312 11.2623 35.1609 10.9435L37.1549 12.406ZM59.413 10.7411V10.5855C59.4126 10.487 59.3813 10.3912 59.3233 10.3116C59.2654 10.232 59.1838 10.1726 59.0903 10.142C58.6319 9.99144 58.1523 9.91558 57.6698 9.9173C56.502 9.9173 55.7831 10.3729 55.7831 11.2146V11.2499C55.7831 11.9683 56.3942 12.3891 57.2746 12.3891C58.5506 12.3891 59.413 11.7055 59.413 10.7416V10.7411ZM53.1416 11.3552V11.3194C53.1416 9.2689 54.7409 8.32239 57.0228 8.32239C57.9935 8.32239 58.6946 8.4799 59.3773 8.70795V8.54996C59.3773 7.44594 58.6767 6.83185 57.3103 6.83185C56.2681 6.83185 55.5313 7.02511 54.6505 7.34061L53.9678 5.30748C55.0279 4.85138 56.0705 4.55376 57.706 4.55376C59.1975 4.55376 60.2759 4.93932 60.9586 5.60511C61.6776 6.30617 62.0008 7.34061 62.0008 8.60262V14.0541H59.3594V13.0375C58.6941 13.756 57.7775 14.2295 56.4479 14.2295C54.6327 14.2295 53.1411 13.2129 53.1411 11.3547" fill="white"/>
<path fill-rule="evenodd" clip-rule="evenodd" d="M6.98346 12.4143C7.42894 14.0604 9.02529 15.3166 9.83168 15.2649C9.86019 15.263 12.8901 14.6982 14.5488 11.9263C15.8398 9.76996 15.4001 7.68755 13.6443 7.64213C13.0128 7.68852 6.136 9.27714 6.98346 12.4143ZM13.481 1.83891L13.4795 1.83747L13.4819 1.83602C12.0895 0.647826 10.3181 -0.00336454 8.48754 1.30736e-05C7.37386 1.30736e-05 6.31622 0.238693 5.36053 0.663873C5.18853 0.736347 5.0257 0.815585 4.87254 0.903037C4.76383 0.961016 4.65561 1.01803 4.55076 1.08084L4.57637 1.08857C4.26586 1.29995 3.99132 1.55981 3.76321 1.85824C1.55131 4.78038 8.96441 6.90387 12.9278 6.91111C14.7512 8.21951 15.2634 3.22558 13.4815 1.83891" fill="#5493F7"/>
<path fill-rule="evenodd" clip-rule="evenodd" d="M5.80911 1.89836C4.79158 3.429 1.39884 4.50741 0.841273 4.33927L0.837891 4.33251C0.860599 4.28613 0.884274 4.24071 0.907465 4.19481C1.29173 3.45273 1.7885 2.77457 2.38013 2.18439C2.8581 1.70615 3.39369 1.28921 3.97456 0.943154C4.4495 0.668237 4.93604 0.65036 5.09597 0.644562C6.6068 0.673551 5.81781 1.88628 5.80959 1.89836" fill="white"/>
<mask id="mask0" mask-type="alpha" maskUnits="userSpaceOnUse" x="0" y="5" width="6" height="11">
<path d="M0 5.1167H5.00262V15.2577H0V5.1167Z" fill="white"/>
</mask>
<g mask="url(#mask0)">
<path fill-rule="evenodd" clip-rule="evenodd" d="M4.97365 12.7153C5.04613 13.1966 4.97172 15.0959 4.87316 15.2558C4.7886 15.2611 4.61225 15.2722 4.10107 14.9852C3.47078 14.6259 2.89161 14.1836 2.37909 13.6701C1.78813 13.0793 1.29144 12.4012 0.906424 11.6596C0.308203 10.5064 -0.00274268 9.22587 1.82262e-05 7.92675C1.82262e-05 7.47838 0.0362551 7.03822 0.106313 6.60966C0.189318 6.10056 0.32102 5.60062 0.499604 5.1167C1.08568 5.89507 1.76355 6.6 2.33947 7.3861C2.88786 8.13499 3.64255 9.35593 3.79571 9.61684C4.74947 11.2359 4.90118 12.2356 4.97414 12.7153" fill="white"/>
</g>
<path fill-rule="evenodd" clip-rule="evenodd" d="M16.2431 7.92674C16.2431 8.98003 16.0426 9.98645 15.6778 10.9098C14.7211 11.9384 8.27192 9.40714 8.20814 9.3796C7.32638 8.99307 4.64098 7.81707 4.39892 5.96898C4.05056 3.31113 9.4431 1.4587 11.813 1.38864C12.0971 1.39202 12.9619 1.40169 13.4664 1.81141C14.3395 2.57295 15.0392 3.51289 15.5182 4.56783C15.9972 5.62276 16.2444 6.76816 16.2431 7.92674ZM11.8772 15.1306C11.1738 15.4587 10.4002 15.2195 10.6012 14.5349C10.9873 13.2202 14.3588 11.8717 15.1033 11.7988C15.1951 11.7901 15.2338 11.8524 15.1932 11.9239C14.4173 13.2879 13.2665 14.4008 11.8772 15.1306Z" fill="white"/>
</svg>
