<svg width="34" height="32" viewBox="0 0 34 32" fill="none" xmlns="http://www.w3.org/2000/svg">
<path fill-rule="evenodd" clip-rule="evenodd" d="M14.6201 25.9864C15.5526 29.4322 18.8942 32.0618 20.5822 31.9536C20.6419 31.9495 26.9842 30.7672 30.4563 24.9649C33.1587 20.4511 32.2383 16.0921 28.563 15.997C27.2411 16.0941 12.8462 19.4195 14.6201 25.9864ZM28.2212 3.84934L28.2181 3.8463L28.2232 3.84327C25.3083 1.35607 21.6003 -0.00704289 17.7685 2.73665e-05C15.4373 2.73665e-05 13.2234 0.499649 11.2229 1.38966C10.8628 1.54137 10.522 1.70724 10.2014 1.8903C9.97384 2.01166 9.74729 2.131 9.52782 2.26248L9.58143 2.27867C8.93146 2.72113 8.35676 3.2651 7.87927 3.88979C3.24918 10.0066 18.7668 14.4516 27.0631 14.4668C30.8801 17.2056 31.9521 6.752 28.2222 3.84934" fill="#0D3AA3"/>
<path fill-rule="evenodd" clip-rule="evenodd" d="M12.1585 3.97414C10.0286 7.17819 2.92665 9.43559 1.75952 9.08363L1.75244 9.06947C1.79998 8.97238 1.84953 8.87731 1.89808 8.78123C2.70245 7.22785 3.74231 5.80828 4.98077 4.57288C5.98129 3.57181 7.10241 2.69903 8.31832 1.97464C9.31251 1.39917 10.331 1.36175 10.6657 1.34961C13.8283 1.41029 12.1767 3.94886 12.1595 3.97414" fill="#5493F7"/>
<path fill-rule="evenodd" clip-rule="evenodd" d="M34.0005 16.5922C34.0005 18.797 33.5808 20.9038 32.8172 22.8365C30.8147 24.9897 17.3148 19.6911 17.1813 19.6335C15.3355 18.8244 9.71425 16.3627 9.20755 12.4941C8.47834 6.93053 19.7663 3.0529 24.7272 2.90625C25.3219 2.91333 27.1322 2.93356 28.1881 3.79121C30.0158 5.38532 31.4804 7.35287 32.4831 9.56113C33.4858 11.7694 34.0032 14.167 34.0005 16.5922ZM24.8617 31.6719C23.3891 32.3586 21.7699 31.858 22.1906 30.4249C22.9987 27.6729 30.0561 24.8502 31.6147 24.6974C31.8068 24.6792 31.8877 24.8097 31.8028 24.9594C30.1786 27.8147 27.7697 30.1442 24.8617 31.6719Z" fill="#5493F7"/>
<mask id="mask0" mask-type="alpha" maskUnits="userSpaceOnUse" x="0" y="10" width="11" height="22">
<path d="M0 10.7109H10.4718V31.9388H0V10.7109Z" fill="white"/>
</mask>
<g mask="url(#mask0)">
<path fill-rule="evenodd" clip-rule="evenodd" d="M10.4112 26.6169C10.5629 27.6242 10.4071 31.6 10.2008 31.9347C10.0238 31.9459 9.65467 31.9691 8.58463 31.3684C7.26526 30.6162 6.0529 29.6903 4.98007 28.6154C3.74303 27.3788 2.70334 25.9594 1.89739 24.407C0.645151 21.9931 -0.00574117 19.3125 3.81523e-05 16.5931C3.81523e-05 15.6546 0.0758917 14.7332 0.222542 13.8361C0.396294 12.7704 0.67198 11.7239 1.0458 10.7109C2.27261 12.3403 3.69157 13.8159 4.89714 15.4614C6.04506 17.029 7.62483 19.5848 7.94544 20.1309C9.9419 23.5201 10.2595 25.6126 10.4122 26.6169" fill="#5493F7"/>
</g>
</svg>
