<svg width="62" height="62" viewBox="0 0 62 62" fill="none" xmlns="http://www.w3.org/2000/svg">
<circle cx="31" cy="31" r="31" fill="#F4F5F7"/>
<path d="M34.439 46C32.3381 46 30.8078 45.4971 29.8465 44.4914C28.886 43.4862 28.4053 42.402 28.4053 41.2402C28.4053 40.8154 28.4889 40.458 28.6565 40.1676C28.8201 39.881 29.0575 39.6436 29.3441 39.48C29.6345 39.3124 29.9919 39.2288 30.4167 39.2288C30.8415 39.2288 31.1985 39.3124 31.4894 39.48C31.7798 39.6476 32.0088 39.8771 32.1765 40.1676C32.3441 40.458 32.4276 40.8154 32.4276 41.2402C32.4276 41.7541 32.3048 42.173 32.0592 42.4971C31.8131 42.8213 31.5226 43.0332 31.1874 43.1343C31.4783 43.536 31.9363 43.8209 32.562 43.9886C33.1877 44.1677 33.8134 44.2568 34.439 44.2568C35.3104 44.2568 36.0981 44.0223 36.8023 43.5531C37.506 43.0835 38.0259 42.3909 38.3612 41.4748C38.6964 40.5587 38.864 39.5193 38.864 38.357C38.864 37.0946 38.6793 36.016 38.3108 35.1225C37.953 34.2174 37.4224 33.547 36.7182 33.1111C36.0358 32.6816 35.2454 32.455 34.439 32.4577C33.9025 32.4577 33.2325 32.6812 32.4276 33.1282L30.9528 33.8656V33.1282L37.59 24.2787H28.4053V33.4629C28.4053 34.223 28.5729 34.8487 28.9082 35.3404C29.2434 35.8322 29.7573 36.0778 30.4504 36.0778C30.9861 36.0778 31.5005 35.8991 31.9922 35.5413C32.4871 35.1804 32.9177 34.7386 33.2657 34.2345C33.3105 34.1334 33.3664 34.0609 33.4333 34.0161C33.4936 33.9629 33.571 33.9333 33.6513 33.9325C33.7741 33.9325 33.9191 33.994 34.0872 34.1172C34.2437 34.2955 34.3218 34.5023 34.3218 34.7369C34.3025 34.8949 34.2745 35.0517 34.2377 35.2065C33.8582 36.0557 33.3327 36.7035 32.6622 37.1505C32.0095 37.592 31.2385 37.8258 30.4504 37.8209C28.4612 37.8209 27.0866 37.4298 26.327 36.6481C25.5674 35.8654 25.1874 34.8039 25.1874 33.4634V24.2787H20.4941V22.5688H25.1874V18.6809L24.1147 17.6073V16.7365H27.232L28.4049 17.3395V22.5688L40.5397 22.5356L41.7467 23.7421L34.3051 31.1837C34.7556 31.0042 35.2299 30.8912 35.713 30.8485C36.5174 30.8485 37.4224 31.1057 38.4281 31.6196C39.4449 32.1225 40.2271 32.8156 40.7743 33.6975C41.3219 34.5693 41.6738 35.4074 41.8303 36.2117C41.9979 37.0166 42.082 37.7314 42.082 38.357C42.082 39.7875 41.78 41.1169 41.1769 42.3466C40.5734 43.5753 39.6573 44.4914 38.4281 45.0949C37.1989 45.6984 35.8691 46 34.439 46Z" fill="#2C7DF7"/>
</svg>
