<svg width="410" height="307" viewBox="0 0 410 307" fill="none" xmlns="http://www.w3.org/2000/svg">
<mask id="mask0_1550_15194" style="mask-type:luminance" maskUnits="userSpaceOnUse" x="0" y="0" width="410" height="307">
<path d="M8.52625 0.121086H401.474C406.179 0.121086 410 4.01768 410 8.8153V306.115H0V8.80945C0 4.01183 3.82132 0.115234 8.52625 0.115234V0.121086Z" fill="white"/>
</mask>
<g mask="url(#mask0_1550_15194)">
<path opacity="0.76" d="M291.741 151.385C291.741 151.385 290.892 140.128 302.78 143.591C302.78 143.591 307.451 133.633 315.948 136.664C324.44 139.695 318.496 136.091 318.496 136.091C318.496 136.091 328.686 121.657 340.58 136.091C340.58 136.091 351.195 138.396 350.77 142.726C350.77 142.726 363.084 144.89 359.262 153.116L291.735 151.385H291.741Z" fill="#E2E2E2"/>
<g filter="url(#filter0_d_1550_15194)">
<path d="M258.444 112.789C248.42 143.54 215.842 160.198 185.684 149.976C155.527 139.755 139.191 106.534 149.215 75.7829C159.239 45.0314 191.818 28.3743 221.975 38.5956C252.133 48.8168 268.468 82.0374 258.444 112.789Z" fill="#CC7617"/>
<path d="M251.088 110.297C241.064 141.048 208.485 157.705 178.328 147.484C148.17 137.263 131.835 104.042 141.859 73.2908C151.883 42.5392 184.461 25.8821 214.619 36.1034C244.776 46.3246 261.111 79.5452 251.088 110.297Z" fill="#EB9B0B"/>
<path d="M179.607 143.739H179.556C178.678 143.423 177.823 143.107 176.968 142.774L179.785 135.402C180.508 135.694 181.248 135.958 181.994 136.221L179.602 143.751V143.739H179.607ZM183.652 144.939L185.5 137.251C186.286 137.45 187.066 137.619 187.852 137.777L186.378 145.547C185.46 145.36 184.553 145.167 183.635 144.939H183.647H183.652ZM173.112 141.06C172.257 140.638 171.431 140.2 170.605 139.743L174.34 132.804C175.04 133.202 175.752 133.571 176.474 133.927L173.112 141.06ZM190.561 146.191L191.415 138.333C192.219 138.427 193.005 138.491 193.808 138.544L193.355 146.442C192.425 146.39 191.49 146.308 190.561 146.202V146.191ZM166.996 137.537C166.21 137.011 165.429 136.467 164.683 135.905L169.285 129.534C169.916 130.008 170.576 130.47 171.253 130.92L166.996 137.537ZM197.555 146.518L197.411 138.608C198.215 138.596 199.001 138.555 199.793 138.491L200.361 146.378C199.431 146.442 198.484 146.495 197.555 146.512V146.524V146.518ZM161.384 133.225C160.673 132.594 159.99 131.962 159.313 131.301L164.678 125.59C165.257 126.158 165.854 126.714 166.462 127.24L161.379 133.225H161.384ZM204.555 145.898L203.39 138.076C204.176 137.959 204.968 137.812 205.743 137.643L207.32 145.395C206.402 145.594 205.484 145.764 204.555 145.898ZM156.392 128.2C155.773 127.486 155.165 126.749 154.579 126.011L160.633 121.068C161.138 121.699 161.654 122.331 162.182 122.94L156.387 128.2H156.392ZM211.394 144.354L209.237 136.759C210 136.537 210.763 136.285 211.515 136.022L214.062 143.499C213.184 143.815 212.289 144.108 211.383 144.371L211.394 144.359V144.354ZM152.072 122.542C151.544 121.752 151.039 120.945 150.557 120.143L157.19 116.042C157.603 116.738 158.045 117.428 158.498 118.113L152.072 122.56V122.548V122.542ZM217.987 141.914L214.883 134.659C215.617 134.331 216.346 133.986 217.057 133.617L220.534 140.685C219.691 141.118 218.853 141.516 217.987 141.896V141.908V141.914ZM148.526 116.369C148.113 115.509 147.711 114.655 147.338 113.783L154.436 110.595C154.757 111.344 155.096 112.087 155.457 112.812L148.526 116.358V116.369ZM224.224 138.632L220.213 131.85C220.896 131.429 221.573 130.99 222.244 130.534L226.588 137.087C225.813 137.625 225.021 138.14 224.224 138.632ZM145.789 109.793C145.479 108.898 145.192 107.985 144.934 107.061L152.382 104.843C152.6 105.622 152.847 106.4 153.116 107.178L145.795 109.787H145.783L145.789 109.793ZM229.979 134.548L225.142 128.363C225.761 127.86 226.381 127.334 226.978 126.795L232.125 132.716C231.425 133.348 230.702 133.968 229.967 134.565L229.979 134.554V134.548ZM143.913 102.913C143.718 101.977 143.551 101.04 143.408 100.104L151.079 98.9049C151.194 99.7065 151.338 100.514 151.504 101.304L143.913 102.913ZM235.166 129.721L229.577 124.233C230.134 123.642 230.679 123.045 231.195 122.425L237.065 127.609C236.445 128.334 235.808 129.048 235.166 129.733V129.721ZM142.932 95.8274C142.869 94.8796 142.817 93.9259 142.8 92.9664L150.557 92.7967C150.569 93.6158 150.609 94.4291 150.672 95.2365L142.938 95.8157L142.926 95.8274H142.932ZM239.704 124.245L233.456 119.552C233.932 118.891 234.385 118.236 234.827 117.545L241.305 121.898C240.789 122.7 240.255 123.478 239.704 124.245ZM142.88 88.6661C142.932 87.7183 143.012 86.7646 143.115 85.8051L150.821 86.6768C150.729 87.496 150.666 88.2975 150.615 89.1166L142.869 88.6661H142.88ZM243.485 118.207L236.68 114.398C237.071 113.684 237.432 112.958 237.782 112.221L244.765 115.661C244.352 116.522 243.921 117.376 243.474 118.207H243.485ZM143.747 81.5691C143.93 80.633 144.119 79.7086 144.343 78.7725L151.883 80.6564C151.688 81.4463 151.521 82.2537 151.366 83.0435L143.747 81.5516V81.5633V81.5691ZM246.457 111.73L239.228 108.857C239.515 108.091 239.796 107.33 240.043 106.552L240.094 106.365L247.479 108.793L247.398 109.044C247.1 109.957 246.779 110.852 246.44 111.736H246.452L246.457 111.73ZM145.502 74.636L145.542 74.5307C145.829 73.6589 146.122 72.8047 146.449 71.9564L153.69 74.8174C153.42 75.5429 153.145 76.2801 152.915 77.0348L145.519 74.6477L145.508 74.636H145.502ZM241.087 102.819C241.282 102.018 241.448 101.222 241.592 100.42L249.223 101.883C249.057 102.819 248.85 103.743 248.626 104.68L241.087 102.807V102.819ZM155.113 71.4473L148.119 68.0188C148.52 67.147 148.962 66.3045 149.398 65.4737L156.203 69.2709C155.813 69.9847 155.451 70.7102 155.101 71.4473H155.113ZM242.137 96.7928C242.229 95.9737 242.292 95.1721 242.332 94.353L250.078 94.786C250.026 95.7338 249.946 96.6875 249.843 97.647L242.137 96.7869V96.7928ZM158.062 66.1173L151.573 61.7761C152.089 60.9745 152.623 60.1964 153.174 59.4182L159.433 64.0871C158.969 64.7482 158.504 65.4211 158.062 66.1056V66.1173ZM242.384 90.6729C242.372 89.8538 242.321 89.0523 242.269 88.2332L250.003 87.6247C250.084 88.5725 250.118 89.5262 250.147 90.4857L242.389 90.6729H242.384ZM161.671 61.2378L155.801 56.0657C156.41 55.3402 157.041 54.6264 157.689 53.9419L163.289 59.4124C162.733 60.0033 162.188 60.6118 161.671 61.2319V61.2378ZM241.856 84.594C241.724 83.7924 241.586 82.985 241.414 82.1835L249.005 80.5511C249.2 81.4872 249.366 82.4117 249.51 83.3595L241.839 84.5881L241.85 84.5998L241.856 84.594ZM165.888 56.8731L160.73 50.9639C161.43 50.332 162.153 49.7118 162.876 49.115L167.724 55.2876C167.105 55.8024 166.485 56.329 165.888 56.8673V56.8731ZM240.536 78.6321C240.318 77.8539 240.06 77.0758 239.802 76.2976L247.123 73.6706C247.433 74.5658 247.72 75.4785 247.989 76.3854L240.542 78.6262L240.536 78.6321ZM170.622 53.0994L166.25 46.5583C167.024 46.02 167.816 45.5051 168.614 45.002L172.624 51.7654C171.942 52.1867 171.265 52.6255 170.605 53.0818L170.616 53.0935L170.622 53.0994ZM238.482 72.8808C238.161 72.1319 237.811 71.3888 237.449 70.6633L244.38 67.0885C244.805 67.9486 245.207 68.8028 245.585 69.6746L238.488 72.8808H238.482ZM175.797 49.9868L172.303 42.9191C173.147 42.4861 173.984 42.0883 174.839 41.6904L177.955 48.9278C177.22 49.2555 176.492 49.6007 175.78 49.9693L175.792 49.9809L175.797 49.9868ZM235.699 67.4454C235.286 66.7492 234.844 66.0588 234.391 65.3743L240.806 60.916C241.334 61.7059 241.839 62.5133 242.321 63.3148L235.699 67.4279V67.4396V67.4454ZM181.329 47.588L178.77 40.1224C179.647 39.8065 180.543 39.514 181.449 39.2507L183.624 46.8449C182.861 47.0673 182.097 47.3189 181.346 47.5938L181.334 47.5821L181.329 47.588ZM232.245 62.4372C231.74 61.8053 231.224 61.1734 230.696 60.565L236.48 55.2876C237.099 56.0014 237.707 56.7269 238.304 57.4758L232.251 62.4314L232.245 62.4372ZM187.112 45.9556L185.523 38.2151C186.441 38.0162 187.359 37.8465 188.288 37.7002L189.476 45.5227C188.69 45.6397 187.898 45.786 187.124 45.9556H187.112ZM228.189 57.9146C227.609 57.347 227.012 56.8088 226.404 56.2647L231.459 50.2618C232.17 50.882 232.87 51.5255 233.542 52.1867L228.177 57.897L228.189 57.9087V57.9146ZM193.051 45.0956L192.471 37.2088C193.401 37.1444 194.336 37.0918 195.277 37.0625L195.443 44.9727C194.64 44.9844 193.854 45.0254 193.051 45.0897V45.0956ZM223.587 53.9946C222.938 53.5207 222.279 53.0467 221.607 52.5962L225.848 45.979C226.634 46.5056 227.397 47.0497 228.148 47.5997L223.57 53.9946H223.581H223.587ZM199.041 45.0254L199.483 37.1269C200.412 37.1795 201.347 37.2614 202.277 37.3667L201.451 45.2243C200.647 45.1307 199.85 45.0663 199.058 45.0254H199.047H199.041ZM218.515 50.7064C217.815 50.3086 217.103 49.94 216.38 49.5831L219.731 42.451C220.586 42.8606 221.412 43.3111 222.227 43.7558L218.515 50.7064ZM205.002 45.7743L206.448 37.9928C207.366 38.1624 208.284 38.3731 209.191 38.6012L207.355 46.2891C206.58 46.0902 205.788 45.9205 205.002 45.7743ZM213.07 48.1321C212.37 47.8571 211.675 47.6055 210.947 47.354L210.792 47.3013L213.236 39.7948L213.316 39.824C214.234 40.14 215.061 40.4325 215.875 40.7602L213.081 48.1321H213.07Z" fill="#F5CD85"/>
<path d="M183.021 133.086C160.661 125.503 148.543 100.871 155.979 78.0652C163.415 55.2648 187.571 42.908 209.936 50.4906C232.296 58.0732 244.414 82.7048 236.978 105.511C229.542 128.311 205.386 140.668 183.021 133.086Z" fill="#EE972C"/>
<path d="M155.216 81.9969C162.549 59.4832 187.095 46.9451 209.173 54.4223C228.922 61.1097 240.845 81.8506 237.885 102.264C243.227 80.4113 231.235 57.7046 209.925 50.4906C187.565 42.908 163.392 55.2648 155.967 78.0652C155.164 80.5284 154.596 83.0208 154.246 85.5132C154.516 84.3372 154.843 83.167 155.216 81.991V81.9969Z" fill="#BB8226"/>
<g opacity="0.3">
<path d="M248.754 66.5566C262.995 95.5295 251.508 130.792 223.095 145.314C194.682 159.835 160.1 148.122 145.859 119.149" fill="#BB8226"/>
</g>
<path d="M212.778 90.1935C213.547 90.4568 214.207 90.6791 214.873 90.9015C216.221 91.352 217.409 92.0716 218.35 93.154C219.549 94.5289 220.031 96.2081 220.22 97.9984C220.519 100.725 220.283 103.358 218.872 105.768C217.684 107.798 215.911 109.091 213.817 110.004C211.413 111.046 208.86 111.432 206.301 111.783C205.893 111.835 205.836 111.999 205.859 112.362C206.002 114.819 206.123 117.282 206.255 119.74C206.278 120.155 206.151 120.313 205.698 120.319C204.378 120.342 203.059 120.43 201.739 120.512C201.418 120.53 201.269 120.489 201.251 120.108C201.165 117.944 201.033 115.785 200.959 113.626C200.907 112.21 200.936 112.204 199.576 112.257C198.876 112.286 198.176 112.35 197.47 112.35C197.046 112.35 196.937 112.508 196.96 112.912C197.057 114.656 197.132 116.405 197.218 118.148C197.252 118.833 197.275 119.512 197.321 120.196C197.344 120.571 197.201 120.752 196.828 120.77C195.473 120.822 194.119 120.875 192.765 120.939C192.432 120.957 192.329 120.84 192.312 120.477C192.232 118.581 192.117 116.686 192.019 114.796C191.996 114.316 191.991 113.831 191.962 113.351C191.91 112.584 191.853 112.526 191.113 112.549C189.919 112.59 188.732 112.655 187.544 112.713C185.817 112.807 184.09 112.894 182.363 113.006C181.978 113.029 181.846 112.865 181.887 112.514C182.087 110.776 182.294 109.045 182.495 107.307C182.535 106.944 182.759 106.862 183.074 106.851C184.147 106.798 185.232 106.775 186.299 106.652C187.401 106.529 187.9 105.955 187.894 104.82C187.894 103.522 187.814 102.223 187.751 100.93C187.63 98.4548 187.492 95.9741 187.372 93.4992C187.217 90.4042 187.068 87.315 186.919 84.2199C186.896 83.7694 186.896 83.3189 186.89 82.8742C186.867 81.1249 185.88 80.0542 184.159 80.0191C183.034 79.9957 181.904 80.0659 180.785 80.142C180.423 80.1654 180.274 80.101 180.251 79.7266C180.165 78.1995 180.068 76.6725 179.976 75.1454C179.959 74.8353 180.085 74.7066 180.406 74.6949C183.453 74.5662 186.505 74.4199 189.552 74.2912C189.879 74.2795 190.011 74.1859 189.988 73.8173C189.851 71.36 189.742 68.8968 189.61 66.4337C189.587 66.0183 189.701 65.8369 190.149 65.8252C191.451 65.7901 192.76 65.7199 194.062 65.6321C194.498 65.6028 194.607 65.8135 194.624 66.1821C194.722 68.2415 194.819 70.3069 194.923 72.3663C194.94 72.6823 194.951 72.9982 194.963 73.3141C194.974 73.6476 195.135 73.7939 195.462 73.7705C196.489 73.712 197.516 73.6476 198.543 73.595C198.91 73.5774 198.951 73.3375 198.939 73.045C198.864 71.5004 198.796 69.9558 198.721 68.4054C198.681 67.5746 198.641 66.7437 198.583 65.9129C198.56 65.5619 198.675 65.3922 199.037 65.3747C200.454 65.3045 201.871 65.205 203.288 65.1523C203.392 65.1523 203.592 65.3864 203.598 65.5151C203.73 67.9607 203.856 70.4005 203.948 72.8461C203.965 73.2907 204.103 73.4721 204.539 73.4897C206.392 73.5716 208.217 73.8524 209.99 74.4082C211.912 75.0108 213.731 75.8534 214.993 77.5559C215.762 78.5974 216.215 79.7792 216.428 81.0722C216.778 83.1902 216.755 85.2672 215.682 87.1921C215.062 88.3037 214.27 89.275 213.128 89.8834C213.037 89.9303 212.974 90.0297 212.801 90.1994L212.778 90.1935ZM205.687 105.242C206.57 104.785 207.494 104.393 208.332 103.861C209.261 103.27 209.99 102.451 210.219 101.292C210.518 99.7887 210.414 98.3846 209.342 97.1793C208.062 95.74 206.375 95.2193 204.585 94.9911C202.198 94.6811 199.8 94.7103 197.401 94.9502C196.168 95.0731 196.179 95.0555 196.242 96.3368C196.397 99.3792 196.541 102.422 196.678 105.464C196.713 106.213 196.701 106.207 197.442 106.166C198.239 106.119 199.042 106.09 199.84 106.031C201.796 105.891 203.742 105.698 205.687 105.248V105.242ZM202.835 89.2633C203.736 88.8245 204.464 88.5261 205.147 88.1399C207.982 86.5134 207.643 83.0381 206.209 81.4876C205.245 80.4403 203.988 79.9372 202.611 79.7441C200.431 79.4399 198.251 79.5452 196.07 79.7266C195.479 79.7734 195.451 79.7968 195.479 80.4228C195.617 83.395 195.76 86.373 195.881 89.3452C195.898 89.7372 196.042 89.8893 196.409 89.8717C197.046 89.8366 197.682 89.8249 198.314 89.7606C199.886 89.6026 201.452 89.4154 202.835 89.2633Z" fill="white"/>
</g>
<path d="M218.618 243.991C218.618 243.991 255.133 230.025 258.587 231.307C258.587 231.307 274.613 231.628 292.526 221.05C292.526 221.05 304.781 214 310.123 216.885C310.123 216.885 319.235 228.1 322.695 224.414L340.292 240.914C340.292 240.914 314.209 255.652 308.557 255.652C308.557 255.652 254.508 286.093 248.85 293.623L218.618 243.985V243.991Z" fill="#3D3D3D"/>
<path d="M340.287 239.317L376.739 216.195L388.679 219.132L400.304 232.911L411.24 239.317V376.459L237.846 293.63L340.287 239.317Z" fill="#262626"/>
<path d="M134.778 243.162L139.179 233.871L152.06 230.343L156.461 220.414L168.717 217.208L176.572 208.554L185.368 205.67L211.451 209.836L220.563 205.67L228.108 212.082L134.778 243.162Z" fill="#F6931A"/>
<path d="M1.69251 329.354L7.20071 322.304C7.20071 322.304 13.7991 320.379 15.6868 320.379L31.0868 305.963C31.0868 305.963 43.6582 309.169 44.9147 309.807L46.1713 310.451L55.2828 298.275L75.0779 290.266L79.1632 283.859L89.8468 280.653L94.2476 275.206L107.76 272.965L110.273 265.593L127.239 260.146L134.779 243.161L149.232 238.358L152.061 230.348H159.29L169.974 219.454H178.77L186.309 215.932L187.566 219.454L196.677 215.932V221.379L228.103 212.088V226.826L232.188 231.313V240.926L235.958 244.448L234.701 256.624L238.786 259.83L240.043 268.161L246.641 274.568V291.869C246.641 291.869 226.531 273.603 201.394 265.915L174.369 302.763L126.918 321.345L82.296 375.178L1.68677 340.249V329.354H1.69251Z" fill="#2D2D2D"/>
<path d="M411.24 403.114V376.458C411.24 376.458 398.732 356.911 396.534 355.629C396.534 355.629 378.621 351.142 372.654 352.107C372.654 352.107 361.339 347.941 326.46 313.018L285.923 311.737L282.153 306.612C282.153 306.612 275.239 303.406 275.239 302.446V301.487H266.127V303.09L243.492 296.332L291.264 403.12H411.24V403.114Z" fill="#2D2D2D"/>
<path d="M-0.490961 256.941L7.88233 260.134H14.0252L21.5325 269.704L55.655 281.826C55.655 281.826 60.7699 282.147 61.7979 284.057L67.2555 287.884L70.1712 292.189L-2.00488 339.885L-0.478503 256.941H-0.490961Z" fill="#262626"/>
<path d="M324.578 403.114C324.578 403.114 315.466 393.121 308.237 391.196L274.298 336.404L265.502 333.841C265.502 333.841 251.99 304.043 246.648 302.119L248.846 293.629L246.648 291.868C246.648 291.868 227.794 274.567 201.401 265.914L174.376 302.762L126.925 321.344L82.3027 375.177C82.3027 375.177 111.84 401.248 112.472 403.114H324.578Z" fill="#262626"/>
<path opacity="0.76" d="M42.0239 122.695C42.0239 122.695 40.9969 109.116 55.3412 113.293C55.3412 113.293 60.9756 101.281 71.2174 104.938C81.4593 108.595 74.2928 104.248 74.2928 104.248C74.2928 104.248 86.583 86.8417 100.922 104.248C100.922 104.248 113.722 107.027 113.212 112.252C113.212 112.252 128.061 114.861 123.454 124.784L42.0239 122.695Z" fill="#E2E2E2"/>
<path d="M187.262 176.766C186.854 174.87 186.481 173.039 186.063 171.214C185.856 170.301 185.621 169.388 185.305 168.511C185.007 167.68 185.081 166.873 185.357 166.106C185.672 165.246 185.827 164.386 185.896 163.473C185.988 162.297 186.229 161.133 186.487 159.98C186.912 158.085 187.405 156.212 187.853 154.323C187.979 153.79 188.312 153.556 188.788 153.375C189.936 152.942 191.066 152.468 192.185 151.965C192.414 151.86 192.563 151.561 192.741 151.35C192.862 151.21 192.959 151.035 193.108 150.918C193.298 150.771 193.527 150.672 193.74 150.555C194.686 150.017 194.887 149.133 194.17 148.279C193.625 147.624 193.453 146.91 193.522 146.085C193.613 145.008 193.682 143.926 193.757 142.844C193.78 142.545 193.895 142.375 194.21 142.311C194.365 142.276 194.543 142.1 194.618 141.942C194.79 141.597 195.031 141.439 195.409 141.404C195.788 141.369 196.161 141.24 196.54 141.17C196.821 141.118 197.142 140.983 197.389 141.065C198.307 141.381 199.185 141.808 199.77 142.656C199.908 142.855 199.982 143.142 199.988 143.393C200.011 144.499 200.063 145.605 199.977 146.705C199.936 147.196 199.667 147.7 199.397 148.127C199.104 148.595 198.955 149.063 198.944 149.607C198.944 149.905 199.053 150.081 199.351 150.11C199.386 150.11 199.414 150.128 199.449 150.128C200.413 150.134 201.078 150.461 201.159 151.59C201.176 151.795 201.491 152.053 201.727 152.158C202.805 152.632 203.895 153.082 204.997 153.504C205.72 153.779 206.162 154.2 206.311 155.025C206.69 157.113 207.126 159.185 207.568 161.262C207.705 161.899 207.895 162.537 208.118 163.151C208.692 164.743 208.927 166.399 208.681 168.06C208.537 169.031 208.095 169.968 207.694 170.874C207.344 171.67 207.022 172.448 206.827 173.314C206.604 174.332 206.15 175.298 205.772 176.275C205.731 176.374 205.525 176.45 205.387 176.462C205.112 176.491 204.716 176.351 204.59 176.491C204.309 176.801 204.056 177.222 203.987 177.632C203.861 178.375 203.85 179.142 203.832 179.896C203.781 181.757 203.752 183.617 203.718 185.478C203.706 186.221 203.74 186.958 203.718 187.701C203.7 188.655 203.649 189.603 203.62 190.556C203.614 190.814 203.568 191.13 203.689 191.323C204.509 192.616 204.452 194.02 204.366 195.477C204.297 196.688 204.469 197.905 204.463 199.122C204.463 199.918 204.309 200.713 204.257 201.515C204.234 201.913 204.177 202.363 204.331 202.702C204.785 203.697 204.865 204.715 204.813 205.786C204.79 206.248 204.957 206.716 204.997 207.184C205.009 207.342 204.951 207.576 204.836 207.658C204.504 207.886 204.452 208.167 204.578 208.512C204.888 209.361 205.221 210.197 205.502 211.051C205.645 211.479 205.731 211.935 205.772 212.385C205.783 212.526 205.594 212.783 205.45 212.818C204.504 213.076 203.545 213.099 202.593 212.807C202.082 212.649 201.732 212.28 201.772 211.771C201.881 210.402 201.153 209.355 200.499 208.337C199.913 207.424 199.793 206.622 200.143 205.61C200.436 204.762 200.636 203.861 200.367 202.942C200.321 202.784 200.269 202.626 200.189 202.486C199.477 201.251 199.518 199.935 199.661 198.56C199.822 197.01 199.833 195.442 199.862 193.88C199.868 193.517 199.73 193.131 199.581 192.791C198.921 191.329 198.766 189.755 198.536 188.193C198.29 186.513 198.031 184.84 197.756 183.167C197.704 182.863 197.584 182.57 197.481 182.278C197.354 181.926 197.228 181.616 196.735 181.692C196.281 181.763 196.161 182.038 196.098 182.43C195.782 184.431 195.461 186.426 195.151 188.427C194.99 189.433 194.767 190.41 194.359 191.364C194.072 192.025 193.912 192.867 194.038 193.569C194.285 194.962 194.118 196.29 193.849 197.63C193.74 198.18 193.556 198.712 193.493 199.268C193.413 199.947 193.361 200.637 193.401 201.316C193.436 201.901 193.43 202.468 193.091 202.925C192.523 203.697 192.495 204.545 192.764 205.365C193.223 206.757 192.936 207.986 192.236 209.179C191.852 209.84 191.634 210.507 191.691 211.321C191.777 212.473 191.381 212.865 190.199 212.976C189.66 213.029 189.104 212.994 188.558 212.935C187.847 212.859 187.526 212.415 187.663 211.683C187.738 211.291 187.887 210.882 188.099 210.548C188.513 209.905 188.65 209.29 188.306 208.565C188.025 207.968 188.082 207.383 188.553 206.874C188.897 206.5 188.943 206.09 188.731 205.604C188.404 204.856 188.472 204.072 188.558 203.276C188.696 201.918 188.777 200.555 188.857 199.192C188.926 197.975 188.977 196.752 188.995 195.535C189.006 194.675 189.172 193.874 189.66 193.154C189.941 192.733 189.93 192.347 189.683 191.873C189.534 191.58 189.511 191.1 189.643 190.808C190.113 189.796 190.136 188.76 190.073 187.672C190.01 186.519 190.102 185.367 190.073 184.214C190.056 183.483 189.924 182.751 189.867 182.02C189.844 181.716 189.798 181.377 189.901 181.102C190.36 179.838 190.073 178.621 189.677 177.433C189.345 176.427 188.822 176.222 187.83 176.561C187.646 176.626 187.474 176.702 187.239 176.79L187.262 176.766ZM189.695 163.66C188.449 167.493 188.977 171.044 190.504 174.508C190.813 174.081 190.871 173.642 190.532 173.244C190.056 172.694 189.872 172.062 189.844 171.342C189.832 171.056 189.758 170.752 189.631 170.494C189.373 169.968 189.39 169.453 189.534 168.914C189.941 167.387 190.033 165.837 189.844 164.263C189.821 164.093 189.763 163.935 189.695 163.66ZM204.309 164.427C204.154 166.129 203.718 167.855 204.716 169.453C205.485 167.715 204.607 166.094 204.309 164.427Z" fill="#353535"/>
</g>
<defs>
<filter id="filter0_d_1550_15194" x="129.764" y="23.9505" width="140.775" height="138.179" filterUnits="userSpaceOnUse" color-interpolation-filters="sRGB">
<feFlood flood-opacity="0" result="BackgroundImageFix"/>
<feColorMatrix in="SourceAlpha" type="matrix" values="0 0 0 0 0 0 0 0 0 0 0 0 0 0 0 0 0 0 127 0" result="hardAlpha"/>
<feOffset/>
<feGaussianBlur stdDeviation="4.57161"/>
<feColorMatrix type="matrix" values="0 0 0 0 1 0 0 0 0 0.709804 0 0 0 0 0.0627451 0 0 0 0.75 0"/>
<feBlend mode="normal" in2="BackgroundImageFix" result="effect1_dropShadow_1550_15194"/>
<feBlend mode="normal" in="SourceGraphic" in2="effect1_dropShadow_1550_15194" result="shape"/>
</filter>
</defs>
</svg>
