<svg width="410" height="307" viewBox="0 0 410 307" fill="none" xmlns="http://www.w3.org/2000/svg">
<g clip-path="url(#clip0_1550_15226)">
<path d="M-15.3038 -4.88477H401.106C406.092 -4.88477 410.141 -0.835281 410.141 4.15057V313.115H-24.333V4.15057C-24.333 -0.835281 -20.2835 -4.88477 -15.2977 -4.88477H-15.3038Z" fill="#1B1B1B"/>
<mask id="mask0_1550_15226" style="mask-type:luminance" maskUnits="userSpaceOnUse" x="-25" y="-5" width="436" height="319">
<path d="M-15.3038 -4.88477H401.106C406.092 -4.88477 410.141 -0.835281 410.141 4.15057V313.115H-24.333V4.15057C-24.333 -0.835281 -20.2835 -4.88477 -15.2977 -4.88477H-15.3038Z" fill="white"/>
</mask>
<g mask="url(#mask0_1550_15226)">
<path d="M135.477 67.4638L139.587 60.5566L154.842 58.1488L169.338 54.8594L175.528 60.5566V70.8019L205.285 61.5599L236.148 64.2656L252.024 70.8019L258.664 83.1754L262.713 92.01L229.885 79.1441L208.039 71.9146H154.842L135.477 67.4638Z" fill="#E2E2E2"/>
<path d="M380.167 -10.947L327.895 32.1502C327.895 32.1502 345.965 42.6204 356.904 79.1388C356.904 79.1388 358.758 86.9216 355.791 88.9645L411.529 55.5958V-10.9531H380.167V-10.947Z" fill="#262626"/>
<path d="M327.895 32.1504C327.895 32.1504 324.284 32.9834 325.208 37.2457L347.45 84.1431C347.45 84.1431 351.901 88.9648 355.792 88.9648C355.792 88.9648 359.823 86.3563 355.792 75.5881C355.792 75.5881 347.936 47.9592 330.182 33.8529C329.434 33.2631 328.674 32.6915 327.895 32.1504Z" fill="#0C0C0C"/>
<path d="M330.259 34.375L309.963 47.0281C309.963 47.0281 320.944 52.4518 332.344 81.6433C332.344 81.6433 334.29 87.2068 332.344 90.1253L357.213 80.8103C357.213 80.8103 350.695 46.8883 330.259 34.375Z" fill="#212121"/>
<path d="M296.107 54.8594C296.107 54.8594 315.941 70.9843 311.862 88.9638L332.881 83.68" stroke="#1B1B1B" stroke-width="0.352658" stroke-miterlimit="10"/>
<path d="M190.831 64.206C188.758 63.3122 177.606 66.9117 177.606 66.9117C166.206 70.2498 159.67 68.4439 159.67 68.4439C140.346 73.5879 135.896 64.2729 135.896 64.2729C134.503 63.8533 133.257 65.6653 133.257 65.6653C132.564 70.5295 139.653 73.0346 139.653 73.0346C147.995 76.926 166.486 76.093 166.486 76.093C187.754 73.8676 207.637 75.1201 207.637 75.1201C225.848 76.5125 226.547 91.1053 226.547 91.1053C202.493 82.6232 197.629 91.7984 197.629 91.7984C195.683 97.0822 211.206 99.9095 211.206 99.9095L233.819 105.844C237.899 107.881 246.052 108.623 246.052 108.623C275.712 110.106 288.128 94.9054 288.128 94.9054L311.854 88.9711C311.854 88.9711 316.487 72.1043 296.099 54.8666C296.099 54.8666 288.87 60.4301 271.632 59.4998C271.632 59.4998 242.064 57.925 233.728 54.0336C233.728 54.0336 224.832 53.0121 216.77 55.8881C216.77 55.8881 194.431 62.619 187.195 65.5862C186.101 66.0361 185.639 67.3738 186.283 68.3649C186.575 68.8088 187.092 69.2709 187.943 69.6965C187.943 69.6965 194.802 74.9803 211.857 71.3625C211.857 71.3625 229.465 67.4711 231.6 68.7662C231.6 68.7662 241.808 76.4943 249.713 81.4376C251.829 82.7631 253.781 83.8879 255.325 84.6115" fill="#E2E2E2"/>
<path d="M190.831 64.206C188.758 63.3122 177.606 66.9117 177.606 66.9117C166.206 70.2498 159.67 68.4439 159.67 68.4439C140.346 73.5879 135.896 64.2729 135.896 64.2729C134.503 63.8533 133.257 65.6653 133.257 65.6653C132.564 70.5295 139.653 73.0346 139.653 73.0346C147.995 76.926 166.486 76.093 166.486 76.093C187.754 73.8676 207.637 75.1201 207.637 75.1201C225.848 76.5125 226.547 91.1053 226.547 91.1053C202.493 82.6232 197.629 91.7984 197.629 91.7984C195.683 97.0822 211.206 99.9095 211.206 99.9095L233.819 105.844C237.899 107.881 246.052 108.623 246.052 108.623C275.712 110.106 288.128 94.9054 288.128 94.9054L311.853 88.9711C311.853 88.9711 316.487 72.1043 296.099 54.8666C296.099 54.8666 288.87 60.4301 271.632 59.4998C271.632 59.4998 242.064 57.925 233.728 54.0336C233.728 54.0336 224.832 53.0121 216.77 55.8881C216.77 55.8881 194.431 62.619 187.195 65.5862C186.101 66.0361 185.638 67.3738 186.283 68.3649C186.575 68.8088 187.092 69.2709 187.943 69.6965C187.943 69.6965 194.802 74.9803 211.857 71.3625C211.857 71.3625 229.465 67.4711 231.6 68.7662C231.6 68.7662 241.808 76.4943 249.713 81.4376C251.829 82.7631 253.781 83.8879 255.325 84.6115" stroke="black" stroke-width="0.352658" stroke-miterlimit="10"/>
<path d="M226.547 91.0992C226.547 91.0992 240.684 80.9877 258.663 86.46" stroke="#1B1B1B" stroke-width="0.352658" stroke-miterlimit="10"/>
<path d="M290.915 91.0982C290.915 91.0982 277.568 94.57 261.443 87.9668" stroke="#1B1B1B" stroke-width="0.352658" stroke-miterlimit="10"/>
<path d="M191.093 50.9209C191.093 50.9209 177.467 48.8354 170.378 52.3133C170.378 52.3133 154.113 57.0377 147.996 58.1504C147.996 58.1504 141.186 58.7037 140.073 58.8436C140.073 58.8436 133.817 59.8164 135.902 64.2672" fill="#E2E2E2"/>
<path d="M191.093 50.9209C191.093 50.9209 177.467 48.8354 170.378 52.3133C170.378 52.3133 154.113 57.0377 147.996 58.1504C147.996 58.1504 141.186 58.7037 140.073 58.8436C140.073 58.8436 133.817 59.8164 135.902 64.2672" stroke="black" stroke-width="0.352658" stroke-miterlimit="10"/>
<path d="M218.801 55.2371C218.801 55.2371 201.381 46.8889 192.899 50.9201L172.183 56.4836L157.177 60.2655C156.021 60.5574 155.116 61.4816 154.915 62.649C154.599 64.467 155.085 67.0755 159.676 68.4375C159.676 68.4375 167.538 69.7447 175.752 67.416C175.752 67.416 188.344 63.1658 190.831 64.2056L218.801 55.2432V55.2371Z" fill="#E2E2E2" stroke="black" stroke-width="0.352658" stroke-miterlimit="10"/>
<path d="M135.859 61.1835C135.859 61.1835 138.45 60.235 142.992 63.4819C142.992 63.4819 150.379 63.0867 150.963 60.235C150.963 60.235 148.658 58.0947 147.996 58.1495C147.996 58.1495 140.401 58.6237 139.222 59.0372C139.222 59.0372 136.218 60.1377 135.859 61.1775V61.1835Z" stroke="#1B1B1B" stroke-width="0.352658" stroke-miterlimit="10"/>
<path d="M130.996 239.561L99.6211 260.386C99.6211 260.386 109.076 274.705 122.422 283.041C122.422 283.041 142.627 297.312 151.523 288.787L152.447 286.379L165.611 268.953L130.996 239.555V239.561Z" fill="#2D2D2D"/>
<path d="M109.186 254.032C109.186 254.032 101.287 250.974 97.9492 255.698C97.9492 255.698 98.691 259.31 100.922 262.235L109.186 254.032Z" fill="#0C0C0C"/>
<path d="M155.506 61.3486C155.506 61.3486 160.328 61.7681 161.623 64.0604C161.623 64.0604 170.616 62.2849 169.035 59.3117L166.615 57.8828L157.178 60.2602C157.178 60.2602 155.822 60.85 155.5 61.3425L155.506 61.3486Z" stroke="#1B1B1B" stroke-width="0.352658" stroke-miterlimit="10"/>
<path d="M186.753 66.2606H188.808C190.304 66.2606 191.769 66.6802 193.046 67.4645C193.046 67.4645 201.108 65.8897 200.458 62.9225L199.077 61.5605C199.077 61.5605 189.458 64.3332 186.643 65.8228C186.43 65.9323 186.515 66.2545 186.753 66.2545V66.2606Z" stroke="#1B1B1B" stroke-width="0.352658" stroke-miterlimit="10"/>
<path d="M312.318 45.5627L296.107 54.8595C296.107 54.8595 313.163 67.6525 311.862 88.9639L332.881 83.6802C332.881 83.6802 329.075 61.0979 312.311 45.5566L312.318 45.5627Z" fill="#2D2D2D"/>
<path d="M346.694 35.0934C348.487 35.0934 349.941 33.6397 349.941 31.8465C349.941 30.0533 348.487 28.5996 346.694 28.5996C344.901 28.5996 343.447 30.0533 343.447 31.8465C343.447 33.6397 344.901 35.0934 346.694 35.0934Z" fill="#F6931A"/>
<path d="M357.943 27.8944C359.753 27.8944 361.221 26.4271 361.221 24.6171C361.221 22.8071 359.753 21.3398 357.943 21.3398C356.133 21.3398 354.666 22.8071 354.666 24.6171C354.666 26.4271 356.133 27.8944 357.943 27.8944Z" fill="#F6931A"/>
<path d="M129.647 240.413L138.682 234.716L135.903 231.238C135.903 231.238 128.674 231.238 127.281 227.486C127.281 227.486 121.584 217.199 115.741 212.474C115.741 212.474 111.29 209.835 113.935 205.105C113.935 205.105 116.44 200.241 122.417 201.213C122.417 201.213 134.651 201.633 137.849 212.614C137.849 212.614 145.632 209.002 155.786 211.781C155.786 211.781 164.408 213.459 170.664 220.756C170.664 220.756 178.727 229.159 179.42 229.298C179.42 229.298 182.478 231.524 189.288 231.524C189.288 231.524 219.179 225.827 221.678 225.96C221.678 225.96 224.043 220.676 233.912 213.727C233.912 213.727 240.722 205.385 246.285 203.019C246.285 203.019 256.433 190.226 263.109 193.984C263.109 193.984 267.141 197.735 257.826 205.385C257.826 205.385 261.024 206.078 260.331 207.61C260.331 207.61 262.97 210.808 240.588 237.081C240.588 237.081 237.809 241.672 232.106 245.004C232.106 245.004 228.075 247.229 226.822 249.175C226.822 249.175 220.985 253.066 214.449 253.626C214.449 253.626 208.472 255.158 207.359 256.131C207.359 256.131 199.643 257.383 198.36 257.383L194.153 260.162C194.153 260.162 182.059 261.694 172.464 259.469L162.176 271.009C162.176 271.009 152.582 275.32 133.678 254.185C133.678 254.185 127.841 248.488 127.701 241.392L129.647 240.419V240.413Z" fill="#E2E2E2" stroke="black" stroke-width="0.352658" stroke-miterlimit="10"/>
<path d="M177.613 236.794C177.613 236.794 184.703 236.654 190.54 230.258L202.913 218.857C202.913 218.857 218.345 205.371 225.854 216.911C225.854 216.911 215.147 230.951 194.018 249.301" fill="#E2E2E2"/>
<path d="M177.613 236.794C177.613 236.794 184.703 236.654 190.54 230.258L202.913 218.857C202.913 218.857 218.345 205.371 225.854 216.911C225.854 216.911 215.147 230.951 194.018 249.301" stroke="black" stroke-width="0.352658" stroke-miterlimit="10"/>
<path d="M225.295 216.777C225.295 216.777 223.629 218.31 217.372 218.443L213.894 223.587C213.894 223.587 213.183 225.989 214.818 226.81C215.627 227.217 216.612 226.986 217.232 226.329C219.062 224.396 223.945 219.13 225.295 216.777Z" stroke="#1B1B1B" stroke-width="0.352658" stroke-miterlimit="10"/>
<path d="M209.451 234.849C209.451 234.849 217.775 232.575 219.52 232.32C219.52 232.32 229.467 220.25 233.359 218.025C233.359 218.025 242.114 208.156 249.07 210.656C249.07 210.656 251.575 211.209 250.736 214.407C250.736 214.407 249.763 219.581 241.701 227.005L237.876 231.067C231.857 237.457 224.67 242.668 216.65 246.237C212.947 247.885 208.855 249.344 204.727 250.135" stroke="#1B1B1B" stroke-width="0.352658" stroke-miterlimit="10"/>
<path d="M250.735 214.414C250.735 214.414 247.537 215.667 245.451 214.414L241.14 219.698C241.14 219.698 239.608 223.449 241.14 223.729H244.965C244.965 223.729 249.342 218.585 250.735 214.414Z" stroke="#1B1B1B" stroke-width="0.352658" stroke-miterlimit="10"/>
<path d="M255.326 211.355C259.218 210.662 260.33 207.604 260.33 207.604C259.777 205.099 253.654 204.825 253.654 204.825C249.483 204.272 245.598 210.255 245.598 210.255" stroke="#1B1B1B" stroke-width="0.352658" stroke-miterlimit="10"/>
<path d="M253.793 219.741C253.793 219.741 251.531 218.537 252.96 216.032L255.744 211.35C255.744 211.35 260.213 210.548 260.323 206.766C260.323 206.766 260.973 211.302 253.787 219.735L253.793 219.741Z" stroke="#1B1B1B" stroke-width="0.352658" stroke-miterlimit="10"/>
<path d="M113.1 207.465C113.1 207.465 115.192 212.311 121.722 212.25L124.92 216.78C124.92 216.78 125.778 221.042 122.294 219.747L117.168 213.728C117.168 213.728 112.267 209.83 113.106 207.465H113.1Z" stroke="#1B1B1B" stroke-width="0.352658" stroke-miterlimit="10"/>
<path d="M143.272 230.775L135.902 231.237" stroke="#1B1B1B" stroke-width="0.352658" stroke-miterlimit="10"/>
<path d="M146.891 244.305C146.891 244.305 158.571 262.655 194.159 260.156" stroke="#1B1B1B" stroke-width="0.352658" stroke-miterlimit="10"/>
<path d="M191.373 253.199C191.373 253.199 190.261 256.811 185.396 257.79" stroke="#1B1B1B" stroke-width="0.352658" stroke-miterlimit="10"/>
<path d="M201.734 254.033C201.734 254.033 200.208 257.092 198.365 257.371" stroke="#1B1B1B" stroke-width="0.352658" stroke-miterlimit="10"/>
<path d="M214.868 250.84C214.868 250.84 215.226 251.873 209.693 255.041" stroke="#1B1B1B" stroke-width="0.352658" stroke-miterlimit="10"/>
<path d="M-14.8096 332.968L97.9497 255.699C97.9497 255.699 118.708 296.571 151.152 290.643L123.536 332.968H-14.8035H-14.8096Z" fill="#262626"/>
<path d="M91.6309 277.285C93.6793 277.285 95.3399 275.625 95.3399 273.576C95.3399 271.528 93.6793 269.867 91.6309 269.867C89.5825 269.867 87.9219 271.528 87.9219 273.576C87.9219 275.625 89.5825 277.285 91.6309 277.285Z" fill="#F6931A"/>
<path d="M80.159 284.343C82.3081 284.343 84.0503 282.601 84.0503 280.452C84.0503 278.303 82.3081 276.561 80.159 276.561C78.0098 276.561 76.2676 278.303 76.2676 280.452C76.2676 282.601 78.0098 284.343 80.159 284.343Z" fill="#F6931A"/>
<g opacity="0.18">
<path d="M170.524 182.023L145.497 207.463" stroke="#F7931A" stroke-width="0.608031" stroke-miterlimit="10"/>
<path d="M123.256 230.199L106.292 247.084" stroke="#F7931A" stroke-width="0.608031" stroke-miterlimit="10"/>
<path d="M205.832 193.285L208.337 210.255" stroke="#F7931A" stroke-width="0.608031" stroke-miterlimit="10"/>
<path d="M227.812 183.131L244.485 198.982" stroke="#F7931A" stroke-width="0.608031" stroke-miterlimit="10"/>
<path d="M217.232 260.387L222.765 288.514" stroke="#F7931A" stroke-width="0.608031" stroke-miterlimit="10"/>
<path d="M199.253 266.273V305.473" stroke="#F7931A" stroke-width="0.608031" stroke-miterlimit="10"/>
<path d="M268.119 223.729L306.486 260.387" stroke="#F7931A" stroke-width="0.608031" stroke-miterlimit="10"/>
<path d="M227.812 174.516L250.735 189.528" stroke="#F7931A" stroke-width="0.608031" stroke-miterlimit="10"/>
<path d="M272.562 204.781L310.102 232.319" stroke="#F7931A" stroke-width="0.608031" stroke-miterlimit="10"/>
<path d="M177.614 183.131L161.069 206.771" stroke="#F7931A" stroke-width="0.608031" stroke-miterlimit="10"/>
<path d="M198.359 189.527V214.414" stroke="#F7931A" stroke-width="0.608031" stroke-miterlimit="10"/>
<path d="M63.7471 177.295L91.6314 172.57" stroke="#F7931A" stroke-width="0.608031" stroke-miterlimit="10"/>
<path d="M139.587 164.508L163.288 159.777" stroke="#F7931A" stroke-width="0.608031" stroke-miterlimit="10"/>
<path d="M135.477 154.219H153.839" stroke="#F7931A" stroke-width="0.608031" stroke-miterlimit="10"/>
<path d="M46.5098 154.219H86.5485" stroke="#F7931A" stroke-width="0.608031" stroke-miterlimit="10"/>
<path d="M242.605 153.105H261.442" stroke="#F7931A" stroke-width="0.608031" stroke-miterlimit="10"/>
<path d="M233.917 147.543L263.978 142.539" stroke="#F7931A" stroke-width="0.608031" stroke-miterlimit="10"/>
<path d="M307.878 134.755L327.894 131.137" stroke="#F7931A" stroke-width="0.608031" stroke-miterlimit="10"/>
<path d="M317.886 154.218L350.695 153.105" stroke="#F7931A" stroke-width="0.608031" stroke-miterlimit="10"/>
<path d="M96.0037 81.2852L169.223 132.943" stroke="#F7931A" stroke-width="0.608031" stroke-miterlimit="10"/>
<path d="M135.902 91.0977L169.222 124.187" stroke="#F7931A" stroke-width="0.608031" stroke-miterlimit="10"/>
<path d="M91.6318 47.0293L114.773 70.8033" stroke="#F7931A" stroke-width="0.608031" stroke-miterlimit="10"/>
<path d="M189.707 101.941L192.905 118.212" stroke="#F7931A" stroke-width="0.608031" stroke-miterlimit="10"/>
<path d="M198.359 101.941V111.536" stroke="#F7931A" stroke-width="0.608031" stroke-miterlimit="10"/>
<path d="M198.359 76.3594V84.8353" stroke="#F7931A" stroke-width="0.608031" stroke-miterlimit="10"/>
<path d="M185.676 79.1445L186.825 87.207" stroke="#F7931A" stroke-width="0.608031" stroke-miterlimit="10"/>
<path d="M175.528 19.6426L179.56 42.164" stroke="#F7931A" stroke-width="0.608031" stroke-miterlimit="10"/>
<path d="M198.359 1.56641V45.5635" stroke="#F7931A" stroke-width="0.608031" stroke-miterlimit="10"/>
<path d="M229.886 108.719L219.738 124.187" stroke="#F7931A" stroke-width="0.608031" stroke-miterlimit="10"/>
<path d="M241.007 111.535L227.812 124.602" stroke="#F7931A" stroke-width="0.608031" stroke-miterlimit="10"/>
</g>
<g filter="url(#filter0_d_1550_15226)">
<path d="M244.325 173.828C236.256 198.107 210.032 211.253 185.759 203.184C161.481 195.115 148.335 168.891 156.403 144.619C164.472 120.34 190.696 107.194 214.969 115.263C239.248 123.331 252.393 149.556 244.325 173.828Z" fill="#CC7617"/>
<path d="M238.397 171.858C230.328 196.136 204.104 209.282 179.831 201.213C155.553 193.145 142.407 166.92 150.476 142.648C158.544 118.369 184.769 105.224 209.041 113.292C233.32 121.361 246.466 147.585 238.397 171.858Z" fill="#EB9B0B"/>
<path d="M180.859 198.258H180.817C180.111 198.009 179.424 197.759 178.737 197.498L181.005 191.679C181.589 191.91 182.179 192.117 182.787 192.324L180.859 198.27V198.258ZM184.118 199.207L185.608 193.138C186.24 193.296 186.867 193.43 187.505 193.552L186.32 199.681C185.578 199.535 184.854 199.377 184.112 199.2H184.125L184.118 199.207ZM175.636 196.148C174.949 195.814 174.28 195.473 173.618 195.108L176.627 189.63C177.187 189.94 177.765 190.232 178.348 190.518L175.642 196.148H175.636ZM189.682 200.198L190.369 193.996C191.013 194.069 191.652 194.123 192.296 194.16L191.932 200.398C191.184 200.356 190.43 200.295 189.682 200.21V200.198ZM170.717 193.369C170.085 192.956 169.459 192.524 168.857 192.08L172.566 187.052C173.077 187.429 173.606 187.794 174.147 188.146L170.724 193.369H170.717ZM195.318 200.459L195.203 194.215C195.847 194.202 196.486 194.172 197.118 194.123L197.574 200.35C196.826 200.404 196.066 200.441 195.312 200.453V200.465L195.318 200.459ZM166.2 189.964C165.628 189.466 165.075 188.967 164.534 188.444L168.857 183.939C169.325 184.389 169.805 184.827 170.292 185.24L166.2 189.964ZM200.949 199.967L200.012 193.795C200.645 193.704 201.283 193.588 201.909 193.448L203.18 199.571C202.438 199.729 201.703 199.863 200.955 199.967H200.949ZM162.181 185.994C161.682 185.435 161.19 184.851 160.721 184.267L165.592 180.364C165.999 180.862 166.413 181.361 166.838 181.841L162.175 185.994H162.181ZM206.457 198.744L204.719 192.749C205.333 192.573 205.947 192.372 206.549 192.166L208.598 198.07C207.892 198.319 207.169 198.55 206.445 198.757L206.457 198.744ZM158.703 181.525C158.277 180.899 157.87 180.266 157.487 179.628L162.825 176.393C163.16 176.947 163.512 177.488 163.877 178.029L158.703 181.537V181.525ZM211.766 196.817L209.267 191.089C209.862 190.828 210.44 190.56 211.018 190.268L213.821 195.85C213.146 196.191 212.465 196.507 211.772 196.811V196.823L211.766 196.817ZM155.851 176.655C155.517 175.98 155.194 175.299 154.89 174.612L160.606 172.094C160.867 172.69 161.135 173.268 161.427 173.846L155.845 176.649V176.661L155.851 176.655ZM216.782 194.227L213.553 188.876C214.106 188.542 214.648 188.201 215.189 187.836L218.685 193.011C218.059 193.436 217.426 193.844 216.782 194.227ZM153.644 171.462C153.395 170.757 153.164 170.033 152.957 169.31L158.952 167.559C159.128 168.173 159.329 168.787 159.548 169.401L153.656 171.462H153.644ZM221.415 191.004L217.524 186.122C218.022 185.726 218.521 185.307 219.001 184.881L223.142 189.557C222.582 190.056 221.999 190.548 221.403 191.016L221.415 191.004ZM152.136 166.032C151.978 165.291 151.844 164.555 151.729 163.813L157.9 162.865C157.991 163.497 158.107 164.135 158.247 164.762L152.136 166.032ZM225.592 187.198L221.093 182.869C221.543 182.401 221.98 181.932 222.394 181.44L227.118 185.532C226.62 186.103 226.109 186.669 225.586 187.21V187.198H225.592ZM151.346 160.445C151.291 159.697 151.254 158.943 151.242 158.183L157.487 158.049C157.499 158.693 157.529 159.338 157.578 159.976L151.352 160.432L151.339 160.445H151.346ZM229.246 182.881L224.218 179.172C224.601 178.649 224.966 178.132 225.319 177.591L230.535 181.026C230.122 181.659 229.69 182.273 229.246 182.881ZM151.303 154.796C151.346 154.048 151.406 153.294 151.492 152.534L157.693 153.221C157.62 153.866 157.566 154.504 157.529 155.149L151.291 154.796H151.303ZM232.287 178.114L226.808 175.104C227.118 174.545 227.41 173.967 227.696 173.383L233.32 176.101C232.986 176.776 232.645 177.457 232.281 178.108H232.293L232.287 178.114ZM152.002 149.196C152.148 148.454 152.306 147.731 152.483 146.989L158.551 148.479C158.393 149.105 158.259 149.737 158.137 150.363L152.008 149.19V149.202L152.002 149.196ZM234.682 173.007L228.863 170.739C229.094 170.137 229.319 169.529 229.52 168.914L229.563 168.769L235.509 170.684L235.448 170.884C235.211 171.602 234.95 172.313 234.676 173.007H234.688H234.682ZM153.419 143.724L153.449 143.639C153.68 142.952 153.918 142.277 154.179 141.608L160.01 143.87C159.791 144.441 159.572 145.025 159.384 145.621L153.431 143.736L153.419 143.724ZM230.359 165.972C230.517 165.339 230.651 164.713 230.767 164.075L236.908 165.23C236.774 165.972 236.604 166.695 236.427 167.437L230.359 165.959V165.972ZM161.153 141.206L155.523 138.501C155.845 137.814 156.198 137.145 156.556 136.494L162.035 139.492C161.725 140.051 161.433 140.629 161.147 141.213H161.159L161.153 141.206ZM231.204 161.217C231.277 160.572 231.332 159.934 231.362 159.289L237.601 159.63C237.558 160.378 237.497 161.132 237.412 161.892L231.21 161.217H231.204ZM163.524 137.005L158.301 133.582C158.715 132.949 159.147 132.335 159.59 131.721L164.631 135.406C164.254 135.929 163.883 136.458 163.531 136.999V137.011L163.524 137.005ZM231.399 156.389C231.387 155.745 231.344 155.106 231.308 154.462L237.534 153.981C237.595 154.729 237.625 155.483 237.649 156.243L231.405 156.389H231.399ZM166.431 133.156L161.706 129.076C162.193 128.505 162.704 127.939 163.227 127.398L167.732 131.721C167.282 132.189 166.844 132.67 166.431 133.156ZM230.973 151.592C230.87 150.959 230.754 150.321 230.621 149.689L236.731 148.4C236.889 149.141 237.023 149.865 237.139 150.619L230.967 151.586L230.979 151.598L230.973 151.592ZM169.824 129.709L165.671 125.045C166.23 124.546 166.814 124.054 167.398 123.586L171.301 128.456C170.803 128.863 170.304 129.277 169.824 129.703V129.709ZM229.909 146.885C229.733 146.271 229.526 145.657 229.313 145.043L235.205 142.97C235.454 143.675 235.685 144.399 235.904 145.116L229.909 146.885ZM173.63 126.729L170.109 121.567C170.736 121.141 171.368 120.734 172.013 120.339L175.241 125.677C174.688 126.012 174.147 126.352 173.618 126.717L173.63 126.729ZM228.255 142.344C227.994 141.748 227.714 141.17 227.422 140.592L233.004 137.771C233.351 138.446 233.673 139.127 233.971 139.814L228.255 142.344ZM177.795 124.273L174.986 118.691C175.661 118.345 176.342 118.034 177.029 117.724L179.54 123.44C178.944 123.701 178.366 123.969 177.789 124.261L177.801 124.273H177.795ZM226.018 138.057C225.683 137.504 225.331 136.962 224.966 136.421L230.128 132.901C230.554 133.527 230.961 134.159 231.344 134.798L226.012 138.045V138.057H226.018ZM182.252 122.382L180.191 116.49C180.896 116.241 181.619 116.01 182.343 115.803L184.094 121.798C183.48 121.974 182.866 122.175 182.264 122.394L182.252 122.382ZM223.239 134.105C222.832 133.606 222.418 133.108 221.993 132.627L226.644 128.462C227.143 129.022 227.635 129.599 228.109 130.189L223.239 134.105ZM186.909 121.093L185.626 114.982C186.368 114.824 187.104 114.69 187.852 114.575L188.812 120.746C188.18 120.837 187.542 120.953 186.915 121.087H186.903L186.909 121.093ZM219.974 130.536C219.506 130.086 219.025 129.66 218.539 129.234L222.607 124.498C223.178 124.984 223.744 125.495 224.285 126.018L219.962 130.523L219.974 130.536ZM191.688 120.418L191.22 114.192C191.968 114.137 192.722 114.1 193.482 114.076L193.616 120.321C192.971 120.333 192.333 120.363 191.688 120.412V120.418ZM216.265 127.447C215.742 127.07 215.213 126.699 214.672 126.346L218.089 121.123C218.721 121.537 219.336 121.968 219.944 122.406L216.259 127.453H216.271L216.265 127.447ZM196.504 120.369L196.857 114.131C197.605 114.173 198.359 114.234 199.106 114.319L198.438 120.521C197.793 120.448 197.149 120.394 196.51 120.363H196.498L196.504 120.369ZM212.179 124.857C211.62 124.546 211.042 124.255 210.458 123.969L213.152 118.338C213.839 118.661 214.508 119.013 215.158 119.366L212.173 124.85L212.179 124.857ZM201.301 120.965L202.469 114.824C203.211 114.958 203.946 115.128 204.676 115.304L203.198 121.373C202.572 121.214 201.94 121.081 201.301 120.965ZM207.795 122.826C207.236 122.607 206.67 122.412 206.087 122.212L205.959 122.169L207.929 116.247L207.99 116.265C208.732 116.514 209.394 116.745 210.051 117.007L207.801 122.826H207.789H207.795Z" fill="#F5CD85"/>
<path d="M183.607 189.85C165.61 183.867 155.851 164.416 161.84 146.418C167.823 128.42 187.274 118.661 205.272 124.65C223.269 130.634 233.028 150.084 227.039 168.082C221.056 186.08 201.605 195.839 183.607 189.85Z" fill="#EE972C"/>
<path d="M161.226 149.519C167.13 131.746 186.884 121.847 204.657 127.751C220.551 133.029 230.152 149.403 227.768 165.522C232.067 148.272 222.418 130.347 205.259 124.65C187.261 118.667 167.804 128.42 161.827 146.418C161.183 148.363 160.727 150.333 160.441 152.297C160.66 151.373 160.922 150.443 161.219 149.519H161.226Z" fill="#BB8226"/>
<g opacity="0.3">
<path d="M236.518 137.328C247.98 160.202 238.738 188.038 215.864 199.499C192.989 210.961 165.154 201.719 153.692 178.844" fill="#BB8226"/>
</g>
<path d="M207.563 155.988C208.183 156.195 208.712 156.371 209.247 156.548C210.33 156.9 211.284 157.472 212.044 158.323C213.011 159.405 213.394 160.731 213.552 162.148C213.789 164.3 213.601 166.379 212.464 168.283C211.509 169.882 210.08 170.909 208.396 171.627C206.463 172.448 204.408 172.758 202.346 173.031C202.018 173.074 201.969 173.202 201.988 173.487C202.103 175.427 202.2 177.373 202.31 179.312C202.328 179.641 202.225 179.762 201.86 179.768C200.796 179.787 199.732 179.853 198.674 179.92C198.418 179.939 198.297 179.902 198.285 179.598C198.218 177.889 198.108 176.187 198.048 174.478C198.005 173.36 198.029 173.36 196.935 173.396C196.369 173.414 195.804 173.469 195.245 173.469C194.904 173.469 194.813 173.591 194.831 173.913C194.91 175.293 194.971 176.667 195.038 178.048C195.062 178.589 195.08 179.124 195.117 179.659C195.135 179.957 195.02 180.103 194.722 180.109C193.633 180.151 192.545 180.194 191.45 180.243C191.183 180.255 191.098 180.164 191.086 179.878C191.025 178.382 190.928 176.886 190.848 175.39C190.83 175.007 190.83 174.63 190.8 174.247C190.757 173.645 190.715 173.597 190.113 173.615C189.152 173.645 188.197 173.694 187.237 173.749C185.844 173.822 184.452 173.895 183.066 173.98C182.756 173.998 182.646 173.87 182.683 173.597C182.841 172.229 183.011 170.855 183.175 169.487C183.212 169.201 183.388 169.14 183.643 169.128C184.507 169.085 185.376 169.067 186.24 168.97C187.127 168.872 187.529 168.422 187.523 167.523C187.523 166.501 187.456 165.474 187.407 164.452C187.31 162.494 187.2 160.542 187.097 158.585C186.975 156.146 186.854 153.702 186.732 151.258C186.714 150.905 186.714 150.546 186.708 150.194C186.69 148.813 185.899 147.968 184.513 147.938C183.607 147.92 182.701 147.974 181.795 148.035C181.503 148.053 181.381 148.005 181.369 147.707C181.302 146.503 181.223 145.293 181.15 144.089C181.138 143.846 181.236 143.742 181.497 143.73C183.953 143.627 186.404 143.511 188.86 143.414C189.122 143.402 189.225 143.329 189.213 143.037C189.103 141.098 189.018 139.152 188.909 137.212C188.891 136.884 188.982 136.744 189.341 136.732C190.392 136.701 191.438 136.647 192.49 136.58C192.837 136.556 192.928 136.726 192.94 137.018C193.019 138.647 193.098 140.271 193.177 141.9C193.189 142.149 193.202 142.399 193.208 142.648C193.214 142.909 193.348 143.025 193.609 143.013C194.436 142.964 195.263 142.916 196.09 142.873C196.382 142.861 196.418 142.672 196.406 142.435C196.345 141.213 196.29 139.997 196.23 138.775C196.199 138.118 196.163 137.462 196.114 136.811C196.096 136.531 196.187 136.404 196.479 136.385C197.622 136.331 198.759 136.252 199.902 136.209C199.987 136.209 200.145 136.391 200.151 136.495C200.261 138.422 200.358 140.356 200.431 142.283C200.443 142.636 200.559 142.776 200.905 142.794C202.395 142.861 203.866 143.08 205.289 143.518C206.84 143.992 208.299 144.655 209.314 146.004C209.935 146.825 210.293 147.762 210.47 148.777C210.755 150.449 210.731 152.085 209.868 153.605C209.369 154.48 208.731 155.246 207.813 155.733C207.74 155.769 207.685 155.848 207.545 155.982L207.563 155.988ZM201.854 167.863C202.565 167.504 203.307 167.194 203.982 166.775C204.73 166.307 205.32 165.662 205.502 164.75C205.745 163.564 205.66 162.458 204.797 161.503C203.769 160.366 202.407 159.959 200.966 159.776C199.045 159.527 197.111 159.551 195.184 159.746C194.193 159.843 194.199 159.831 194.253 160.84C194.375 163.242 194.491 165.644 194.606 168.045C194.637 168.635 194.624 168.635 195.22 168.599C195.865 168.562 196.509 168.538 197.148 168.495C198.722 168.386 200.291 168.234 201.854 167.875V167.863ZM199.562 155.253C200.291 154.906 200.875 154.669 201.422 154.365C203.702 153.082 203.435 150.34 202.279 149.111C201.501 148.284 200.492 147.889 199.379 147.737C197.622 147.5 195.871 147.579 194.114 147.725C193.639 147.762 193.615 147.78 193.639 148.272C193.749 150.619 193.864 152.966 193.968 155.313C193.98 155.623 194.095 155.745 194.393 155.727C194.904 155.696 195.415 155.69 195.926 155.642C197.19 155.514 198.455 155.374 199.568 155.253H199.562Z" fill="white"/>
</g>
</g>
</g>
<defs>
<filter id="filter0_d_1550_15226" x="138.408" y="101.224" width="117.985" height="114.029" filterUnits="userSpaceOnUse" color-interpolation-filters="sRGB">
<feFlood flood-opacity="0" result="BackgroundImageFix"/>
<feColorMatrix in="SourceAlpha" type="matrix" values="0 0 0 0 0 0 0 0 0 0 0 0 0 0 0 0 0 0 127 0" result="hardAlpha"/>
<feOffset/>
<feGaussianBlur stdDeviation="4.846"/>
<feColorMatrix type="matrix" values="0 0 0 0 1 0 0 0 0 0.709804 0 0 0 0 0.0627451 0 0 0 0.75 0"/>
<feBlend mode="normal" in2="BackgroundImageFix" result="effect1_dropShadow_1550_15226"/>
<feBlend mode="normal" in="SourceGraphic" in2="effect1_dropShadow_1550_15226" result="shape"/>
</filter>
<clipPath id="clip0_1550_15226">
<rect width="410" height="306" fill="white" transform="translate(0 0.115234)"/>
</clipPath>
</defs>
</svg>
