<svg width="410" height="307" viewBox="0 0 410 307" fill="none" xmlns="http://www.w3.org/2000/svg">
<g clip-path="url(#clip0_1795_4986)">
<path d="M-0.745632 0.115234H400.147C404.947 0.115234 408.846 4.01382 408.846 8.81389V306.266H-9.43842V8.81389C-9.43842 4.01382 -5.53984 0.115234 -0.739773 0.115234H-0.745632Z" fill="#1B1B1B"/>
<mask id="mask0_1795_4986" style="mask-type:luminance" maskUnits="userSpaceOnUse" x="-10" y="0" width="419" height="307">
<path d="M-0.74667 0.115234H400.146C404.946 0.115234 408.845 4.01382 408.845 8.81389V306.266H-9.43945V8.81389C-9.43945 4.01382 -5.54087 0.115234 -0.74081 0.115234H-0.74667Z" fill="white"/>
</mask>
<g mask="url(#mask0_1795_4986)">
<path d="M-20.5491 314.349L-41.0723 206.418L124.389 208.063L427.437 204.627L430.874 310.427L-20.5491 314.349Z" fill="#2D2D2D"/>
<path d="M138.418 244.68V260.286C138.406 264.846 140.291 269.213 143.651 272.292C150.687 278.748 166.469 287.447 200.321 287.149C200.321 287.149 249.545 286.206 253.462 261.732V250.492L138.412 244.674L138.418 244.68Z" fill="#212121"/>
<path d="M187.454 274.831C155.967 272.554 134.209 257.709 138.839 241.676C143.469 225.642 172.738 214.503 204.225 216.78C235.712 219.057 257.471 233.902 252.84 249.941C248.21 265.974 218.941 277.114 187.466 274.837H187.454V274.831Z" fill="#2D2D2D"/>
<path d="M142.665 241.973V241.944C142.8 241.476 142.97 241.008 143.14 240.563L150.755 241.312C150.603 241.698 150.463 242.096 150.351 242.494L142.654 241.962H142.665V241.973ZM142.221 244.11L149.971 244.356C149.912 244.766 149.883 245.175 149.877 245.579L142.104 245.533C142.127 245.064 142.156 244.59 142.221 244.11ZM144.129 238.479C144.381 238.022 144.667 237.554 144.96 237.109L152.318 238.356C152.055 238.742 151.827 239.134 151.604 239.521L144.129 238.467V238.479ZM142.209 247.687L149.959 247.417C150.024 247.827 150.082 248.231 150.17 248.641L142.449 249.109C142.338 248.641 142.25 248.167 142.191 247.687H142.203H142.209ZM146.476 235.107C146.851 234.668 147.249 234.229 147.665 233.802L154.619 235.546C154.262 235.909 153.934 236.278 153.618 236.652L146.482 235.107H146.476ZM143.11 251.228L150.726 250.444C150.878 250.842 151.06 251.246 151.253 251.626L143.719 252.621C143.491 252.159 143.286 251.685 143.104 251.217V251.228H143.11ZM149.661 231.917C150.146 231.507 150.644 231.103 151.165 230.705L157.628 232.888C157.189 233.228 156.75 233.573 156.334 233.936L149.661 231.928V231.917ZM144.913 254.676L152.271 253.4C152.529 253.78 152.798 254.161 153.097 254.547L145.879 256.028C145.534 255.583 145.212 255.139 144.902 254.688L144.913 254.676ZM153.653 228.961C154.238 228.592 154.83 228.217 155.456 227.86L161.286 230.459C160.759 230.764 160.25 231.074 159.741 231.396L153.641 228.961H153.653ZM147.6 257.978L154.578 256.216C154.923 256.573 155.304 256.936 155.69 257.293L148.917 259.236C148.455 258.82 148.016 258.399 147.606 257.966V257.978H147.6ZM158.371 226.291C159.038 225.963 159.735 225.636 160.432 225.32L165.548 228.276C164.939 228.545 164.354 228.826 163.768 229.107L158.353 226.28H158.365L158.371 226.291ZM151.095 261.062L157.563 258.856C158.002 259.201 158.465 259.529 158.939 259.851L152.71 262.227C152.149 261.847 151.604 261.449 151.095 261.062ZM163.71 223.956C164.465 223.669 165.22 223.394 166.004 223.124L170.313 226.403C169.639 226.625 168.984 226.865 168.346 227.117L163.704 223.956H163.71ZM155.362 263.89L161.21 261.285C161.737 261.589 162.275 261.888 162.837 262.175L157.253 264.938C156.603 264.598 155.959 264.247 155.345 263.884H155.356L155.362 263.89ZM169.593 222.012C170.406 221.772 171.238 221.544 172.086 221.333L175.517 224.875C174.797 225.05 174.094 225.243 173.392 225.443L169.593 222.012ZM160.32 266.419L165.46 263.451C166.057 263.714 166.672 263.966 167.298 264.229L162.474 267.338C161.737 267.039 161.011 266.741 160.309 266.425H160.32V266.419ZM175.938 220.455C176.804 220.274 177.682 220.116 178.578 219.946L181.084 223.686C180.334 223.821 179.579 223.962 178.83 224.114L175.95 220.449H175.938V220.455ZM165.887 268.59L170.219 265.301C170.88 265.529 171.565 265.74 172.25 265.944L168.27 269.351C167.462 269.111 166.66 268.86 165.887 268.59ZM182.611 219.343C183.513 219.226 184.426 219.109 185.345 219.015L186.855 222.89C186.065 222.966 185.298 223.066 184.514 223.165L182.594 219.343H182.605H182.611ZM171.969 270.382L175.423 266.834C176.143 267.004 176.863 267.186 177.606 267.344L174.527 270.979C173.661 270.791 172.806 270.598 171.975 270.388L171.969 270.382ZM189.513 218.67C190.438 218.611 191.374 218.564 192.317 218.541L192.814 222.481C192.018 222.51 191.21 222.551 190.42 222.592L189.513 218.67ZM178.461 271.74L180.961 267.987C181.71 268.116 182.477 268.239 183.255 268.345L181.148 272.155C180.235 272.027 179.351 271.886 178.461 271.734V271.74ZM196.526 218.477C197.456 218.482 198.393 218.5 199.33 218.523L198.814 222.475C198.012 222.445 197.211 222.428 196.409 222.434L196.526 218.488V218.477ZM185.246 272.647L186.767 268.766C187.552 268.842 188.348 268.906 189.144 268.971H189.331L188.266 272.905L188.008 272.887C187.078 272.817 186.159 272.741 185.24 272.647H185.246ZM203.533 218.74L203.644 218.752C204.534 218.81 205.423 218.892 206.29 218.98L204.779 222.861C204.024 222.791 203.269 222.726 202.496 222.668L203.521 218.74H203.533ZM192.931 269.164C193.733 269.193 194.535 269.199 195.337 269.205L195.25 273.156C194.319 273.156 193.382 273.133 192.446 273.109L192.931 269.164ZM208.303 223.271L210.399 219.46C211.312 219.583 212.196 219.729 213.086 219.881L210.598 223.628C209.849 223.499 209.082 223.376 208.303 223.271ZM198.932 269.146C199.739 269.117 200.535 269.076 201.326 269.024L202.256 272.94C201.32 272.998 200.395 273.045 199.453 273.08L198.943 269.146H198.932ZM213.952 224.266L217.02 220.625C217.886 220.812 218.741 221.005 219.572 221.216L216.147 224.769C215.427 224.588 214.696 224.418 213.964 224.26H213.952V224.266ZM204.885 268.725C205.669 268.643 206.442 268.549 207.215 268.45L209.146 272.272C208.245 272.389 207.332 272.507 206.413 272.6L204.885 268.725ZM219.303 225.647L223.283 222.241C224.091 222.481 224.893 222.732 225.666 222.996L221.351 226.297C220.69 226.069 220.005 225.858 219.308 225.653V225.642L219.303 225.647ZM210.674 267.923C211.423 267.788 212.19 267.642 212.922 267.484L215.814 271.148C214.947 271.33 214.069 271.488 213.185 271.652L210.668 267.923H210.674ZM224.267 227.368L229.078 224.254C229.816 224.541 230.542 224.851 231.238 225.156L226.105 228.141C225.502 227.866 224.893 227.614 224.255 227.357H224.267V227.368ZM216.218 266.729C216.938 266.542 217.652 266.348 218.343 266.149L222.159 269.586C221.345 269.826 220.508 270.042 219.677 270.253L216.218 266.723V266.729ZM228.733 229.405L234.3 226.637C234.961 226.976 235.593 227.327 236.22 227.679L230.372 230.295C229.845 229.991 229.295 229.692 228.745 229.405H228.733ZM221.416 265.184C222.089 264.961 222.739 264.709 223.383 264.469L228.036 267.619C227.281 267.905 226.526 268.186 225.742 268.45L221.404 265.184H221.416ZM232.631 231.724L238.86 229.347C239.422 229.727 239.96 230.114 240.487 230.512L234.031 232.719C233.58 232.385 233.117 232.051 232.637 231.724H232.626H232.631ZM226.175 263.304C226.772 263.035 227.369 262.748 227.948 262.462L233.375 265.277C232.708 265.611 232.011 265.933 231.314 266.255L226.187 263.299H226.175V263.304ZM235.915 234.282L242.688 232.327C243.151 232.742 243.59 233.164 243.999 233.585L237.039 235.353C236.688 234.984 236.313 234.633 235.915 234.27V234.282ZM230.425 261.127C230.951 260.822 231.461 260.501 231.958 260.179L238.058 262.614C237.478 262.994 236.881 263.363 236.255 263.72L230.413 261.127H230.425ZM238.509 237.027L245.726 235.54C246.072 235.985 246.394 236.43 246.704 236.881L239.352 238.174C239.094 237.794 238.807 237.413 238.509 237.033V237.027ZM234.089 258.686C234.528 258.346 234.955 258.001 235.371 257.65L242.056 259.646C241.576 260.067 241.078 260.471 240.552 260.869L234.095 258.698V258.686H234.089ZM240.382 239.93L247.916 238.935C248.144 239.386 248.349 239.86 248.542 240.329L240.926 241.119C240.774 240.721 240.593 240.329 240.399 239.936H240.388L240.382 239.93ZM237.098 256.04C237.455 255.665 237.783 255.297 238.099 254.916L245.235 256.45C244.86 256.889 244.474 257.322 244.064 257.749L237.086 256.028H237.098V256.04ZM241.482 242.928L249.198 242.448C249.309 242.916 249.397 243.39 249.455 243.87L241.705 244.151C241.64 243.741 241.576 243.326 241.476 242.933L241.482 242.928ZM239.381 253.201C239.644 252.815 239.873 252.422 240.095 252.024L247.582 253.066C247.33 253.523 247.055 253.991 246.751 254.436L239.393 253.189L239.381 253.201ZM241.793 245.983L249.56 246.018C249.555 246.498 249.508 246.973 249.449 247.447L241.699 247.201C241.757 246.791 241.787 246.381 241.793 245.977V245.983ZM240.926 250.233C241.067 249.864 241.196 249.478 241.301 249.109L241.33 249.021L249.022 249.572V249.607C248.876 250.098 248.718 250.532 248.559 250.971L240.932 250.221V250.233H240.926Z" fill="#3D3D3D"/>
<path d="M153.561 242.741C157.003 230.846 178.709 222.587 202.047 224.278C225.386 225.97 241.537 236.975 238.095 248.87C234.664 260.753 212.947 269.024 189.608 267.327C166.269 265.635 150.119 254.63 153.561 242.741Z" fill="#EEA62C"/>
<path d="M198.718 224.16C221.501 225.875 237.733 237.079 234.39 248.798C231.417 259.282 213.656 267.079 193.637 267.39C215.442 268.157 235.064 260.154 238.277 248.839C241.655 236.956 225.674 225.922 202.599 224.189C200.093 224.002 197.623 223.943 195.182 223.978C196.359 224.014 197.524 224.066 198.712 224.16H198.718Z" fill="#BB8226"/>
<path fill-rule="evenodd" clip-rule="evenodd" d="M216.736 239.019C219.329 239.212 221.887 239.411 224.486 239.598C222.835 245.399 221.19 251.177 219.551 256.978C217.139 256.797 214.757 256.615 212.322 256.439C213.007 254.022 213.692 251.628 214.394 249.163C211.807 250.141 209.038 250.72 205.947 250.908C205.479 252.558 205.016 254.192 204.548 255.854C202.125 255.673 199.742 255.497 197.307 255.31C197.769 253.688 198.232 252.061 198.694 250.445C191.096 248.701 188.058 245.44 187.227 241.407C178.54 244.498 169.876 247.583 161.143 250.685C161.154 250.592 161.16 250.521 161.172 250.463C161.617 248.888 162.056 247.313 162.53 245.745C162.553 245.639 162.694 245.516 162.869 245.458C170.913 242.625 178.967 239.809 187.01 236.982C187.332 236.865 187.66 236.824 188.029 236.853C190.242 237.017 192.448 237.187 194.661 237.35C194.766 237.35 194.86 237.374 195.012 237.397C194.907 237.748 194.802 238.082 194.72 238.422C194.333 240.184 194.415 241.928 195.633 243.614C196.37 244.632 197.477 245.522 199.145 246.201C199.297 246.26 199.479 246.33 199.648 246.389C199.678 246.4 199.73 246.406 199.812 246.418C200.614 243.585 201.422 240.763 202.224 237.93C204.677 238.117 207.059 238.293 209.494 238.474C208.698 241.272 207.902 244.059 207.112 246.886C208.136 246.711 209.009 246.465 209.828 246.154C212.129 245.288 213.662 244.106 214.786 242.777C215.764 241.618 216.355 240.383 216.73 239.142C216.747 239.095 216.771 239.054 216.788 239.001L216.736 239.019Z" fill="#BB8226"/>
<path fill-rule="evenodd" clip-rule="evenodd" d="M219.452 238.544C222.045 238.737 224.604 238.936 227.203 239.123C225.552 244.93 223.913 250.714 222.268 256.503C219.856 256.321 217.474 256.14 215.039 255.964C215.724 253.559 216.408 251.153 217.111 248.694C214.523 249.672 211.755 250.251 208.664 250.438C208.196 252.089 207.733 253.734 207.259 255.379C204.836 255.198 202.453 255.022 200.018 254.835C200.48 253.201 200.943 251.586 201.394 249.976C193.795 248.232 190.757 244.971 189.932 240.944C181.245 244.034 172.581 247.119 163.848 250.222C163.859 250.128 163.865 250.058 163.877 249.999C164.322 248.425 164.761 246.85 165.223 245.287C165.247 245.188 165.387 245.059 165.563 245C173.606 242.179 181.649 239.357 189.704 236.53C190.026 236.413 190.353 236.384 190.722 236.413C192.935 236.577 195.142 236.747 197.354 236.91C197.46 236.91 197.554 236.928 197.706 236.951C197.6 237.303 197.495 237.636 197.419 237.988C197.033 239.75 197.114 241.494 198.332 243.18C199.07 244.198 200.176 245.088 201.844 245.767C202.014 245.826 202.178 245.896 202.348 245.954C202.377 245.966 202.43 245.972 202.512 245.984C203.314 243.151 204.121 240.329 204.923 237.496C207.376 237.683 209.759 237.859 212.182 238.04C211.386 240.844 210.59 243.636 209.799 246.452C210.824 246.276 211.696 246.031 212.516 245.72C214.816 244.854 216.35 243.672 217.474 242.343C218.451 241.172 219.043 239.949 219.417 238.708C219.423 238.661 219.458 238.62 219.476 238.567L219.458 238.55L219.452 238.544Z" fill="#FFD400"/>
<path d="M145.279 235.01V244.797C145.273 249.357 147.158 253.724 150.512 256.803C157.549 263.26 173.33 271.959 207.182 271.66C207.182 271.66 256.406 270.718 260.323 246.243V235.004H145.273L145.279 235.01Z" fill="#212121"/>
<path d="M194.317 259.337C162.83 257.06 141.072 242.215 145.702 226.181C150.332 210.148 179.601 199.008 211.088 201.286C242.575 203.563 264.334 218.408 259.703 234.447C255.073 250.48 225.804 261.62 194.329 259.343H194.317V259.337Z" fill="#2D2D2D"/>
<path d="M149.528 226.485V226.456C149.663 225.988 149.833 225.519 150.003 225.074L157.618 225.824C157.466 226.21 157.326 226.608 157.214 227.006L149.517 226.473H149.528V226.485ZM149.084 228.622L156.834 228.868C156.775 229.277 156.746 229.687 156.74 230.091L148.967 230.044C148.99 229.576 149.019 229.102 149.084 228.622ZM150.992 222.99C151.244 222.534 151.53 222.066 151.823 221.621L159.181 222.868C158.918 223.254 158.69 223.646 158.467 224.032L150.992 222.979V222.99ZM149.072 232.198L156.822 231.929C156.887 232.339 156.945 232.743 157.033 233.153L149.312 233.621C149.201 233.153 149.113 232.678 149.054 232.198H149.066H149.072ZM153.339 219.619C153.714 219.18 154.112 218.741 154.528 218.313L161.482 220.058C161.125 220.421 160.797 220.789 160.481 221.164L153.345 219.619H153.339ZM149.973 235.74L157.589 234.956C157.741 235.354 157.923 235.757 158.116 236.138L150.582 237.133C150.354 236.671 150.149 236.197 149.968 235.728V235.74H149.973ZM156.524 216.428C157.01 216.019 157.507 215.615 158.028 215.217L164.491 217.4C164.052 217.74 163.613 218.085 163.197 218.448L156.524 216.44V216.428ZM151.776 239.188L159.134 237.912C159.392 238.292 159.661 238.673 159.96 239.059L152.742 240.54C152.397 240.095 152.075 239.65 151.765 239.199L151.776 239.188ZM160.516 213.472C161.101 213.104 161.693 212.729 162.319 212.372L168.149 214.971C167.622 215.275 167.113 215.586 166.604 215.907L160.504 213.472H160.516ZM154.463 242.489L161.441 240.727C161.786 241.084 162.167 241.447 162.553 241.804L155.78 243.748C155.318 243.332 154.879 242.911 154.469 242.478V242.489H154.463ZM165.234 210.803C165.901 210.475 166.598 210.147 167.295 209.831L172.411 212.787C171.802 213.057 171.217 213.338 170.631 213.619L165.217 210.791H165.228L165.234 210.803ZM157.958 245.574L164.426 243.367C164.865 243.713 165.328 244.041 165.802 244.362L159.574 246.739C159.012 246.359 158.467 245.961 157.958 245.574ZM170.573 208.467C171.328 208.181 172.083 207.905 172.867 207.636L177.176 210.914C176.502 211.137 175.847 211.377 175.209 211.628L170.567 208.467H170.573ZM162.225 248.402L168.073 245.797C168.6 246.101 169.138 246.4 169.7 246.686L164.116 249.449C163.466 249.11 162.822 248.759 162.208 248.396H162.219L162.225 248.402ZM176.456 206.524C177.269 206.284 178.101 206.056 178.949 205.845L182.38 209.386C181.66 209.562 180.957 209.755 180.255 209.954L176.456 206.524ZM167.183 250.93L172.323 247.963C172.92 248.226 173.535 248.478 174.161 248.741L169.338 251.849C168.6 251.551 167.874 251.252 167.172 250.936H167.183V250.93ZM182.801 204.967C183.667 204.785 184.546 204.627 185.441 204.458L187.947 208.198C187.197 208.333 186.442 208.473 185.693 208.625L182.813 204.961H182.801V204.967ZM172.75 253.102L177.082 249.812C177.744 250.041 178.428 250.251 179.113 250.456L175.133 253.863C174.325 253.623 173.523 253.371 172.75 253.102ZM189.474 203.855C190.376 203.738 191.289 203.62 192.208 203.527L193.718 207.402C192.928 207.478 192.161 207.578 191.377 207.677L189.457 203.855H189.469H189.474ZM178.832 254.893L182.286 251.346C183.006 251.516 183.726 251.697 184.469 251.855L181.39 255.49C180.524 255.303 179.669 255.11 178.838 254.899L178.832 254.893ZM196.376 203.181C197.301 203.123 198.237 203.076 199.18 203.053L199.677 206.992C198.881 207.022 198.073 207.062 197.283 207.103L196.376 203.181ZM185.324 256.251L187.824 252.499C188.573 252.628 189.34 252.751 190.118 252.856L188.011 256.667C187.098 256.538 186.214 256.398 185.324 256.246V256.251ZM203.389 202.988C204.319 202.994 205.256 203.012 206.193 203.035L205.678 206.986C204.876 206.957 204.074 206.94 203.272 206.945L203.389 203V202.988ZM192.109 257.159L193.631 253.278C194.415 253.354 195.211 253.418 196.007 253.483H196.194L195.129 257.416L194.872 257.399C193.941 257.329 193.022 257.252 192.103 257.159H192.109ZM210.396 203.252L210.507 203.263C211.397 203.322 212.286 203.404 213.153 203.492L211.642 207.373C210.887 207.302 210.132 207.238 209.36 207.18L210.384 203.252H210.396ZM199.795 253.676C200.596 253.705 201.398 253.711 202.2 253.717L202.113 257.668C201.182 257.668 200.245 257.645 199.309 257.621L199.795 253.676ZM215.166 207.782L217.262 203.972C218.175 204.095 219.059 204.241 219.949 204.393L217.461 208.14C216.712 208.011 215.945 207.888 215.166 207.782ZM205.795 253.658C206.602 253.629 207.399 253.588 208.189 253.535L209.12 257.451C208.183 257.51 207.258 257.557 206.316 257.592L205.806 253.658H205.795ZM220.815 208.778L223.883 205.137C224.749 205.324 225.604 205.517 226.435 205.728L223.01 209.281C222.29 209.1 221.559 208.93 220.827 208.772H220.815V208.778ZM211.748 253.237C212.532 253.155 213.305 253.061 214.078 252.962L216.009 256.784C215.108 256.901 214.195 257.018 213.276 257.112L211.748 253.237ZM226.166 210.159L230.146 206.752C230.954 206.992 231.756 207.244 232.529 207.507L228.214 210.809C227.553 210.581 226.868 210.37 226.171 210.165V210.153L226.166 210.159ZM217.537 252.435C218.287 252.3 219.053 252.154 219.785 251.996L222.677 255.66C221.81 255.842 220.932 256 220.048 256.164L217.531 252.435H217.537ZM231.13 211.88L235.941 208.766C236.679 209.053 237.405 209.363 238.101 209.667L232.968 212.653C232.365 212.378 231.756 212.126 231.118 211.868H231.13V211.88ZM223.081 251.241C223.801 251.053 224.515 250.86 225.206 250.661L229.022 254.097C228.209 254.337 227.372 254.554 226.54 254.765L223.081 251.235V251.241ZM235.596 213.917L241.163 211.148C241.824 211.488 242.457 211.839 243.083 212.19L237.235 214.807C236.708 214.503 236.158 214.204 235.608 213.917H235.596ZM228.279 249.695C228.952 249.473 229.602 249.221 230.246 248.981L234.899 252.13C234.144 252.417 233.389 252.698 232.605 252.962L228.267 249.695H228.279ZM239.495 216.235L245.723 213.859C246.285 214.239 246.823 214.626 247.35 215.024L240.894 217.23C240.443 216.897 239.98 216.563 239.5 216.235H239.489H239.495ZM233.038 247.816C233.635 247.547 234.232 247.26 234.812 246.973L240.238 249.789C239.571 250.123 238.874 250.445 238.178 250.766L233.05 247.81H233.038V247.816ZM242.779 218.793L249.551 216.838C250.014 217.254 250.453 217.675 250.863 218.097L243.902 219.865C243.551 219.496 243.177 219.145 242.779 218.782V218.793ZM237.288 245.639C237.815 245.334 238.324 245.012 238.821 244.69L244.921 247.125C244.341 247.506 243.744 247.875 243.118 248.232L237.276 245.639H237.288ZM245.372 221.539L252.589 220.052C252.935 220.497 253.257 220.942 253.567 221.392L246.215 222.686C245.957 222.306 245.67 221.925 245.372 221.545V221.539ZM240.952 243.198C241.391 242.858 241.818 242.513 242.234 242.161L248.919 244.158C248.439 244.579 247.941 244.983 247.415 245.381L240.958 243.209V243.198H240.952ZM247.245 224.442L254.779 223.447C255.007 223.898 255.212 224.372 255.405 224.84L247.789 225.631C247.637 225.232 247.456 224.84 247.262 224.448H247.251L247.245 224.442ZM243.961 240.552C244.318 240.177 244.646 239.808 244.962 239.428L252.098 240.961C251.723 241.4 251.337 241.834 250.927 242.261L243.949 240.54H243.961V240.552ZM248.345 227.439L256.061 226.959C256.172 227.428 256.26 227.902 256.318 228.382L248.568 228.663C248.503 228.253 248.439 227.837 248.34 227.445L248.345 227.439ZM246.244 237.713C246.507 237.326 246.736 236.934 246.958 236.536L254.445 237.578C254.193 238.035 253.918 238.503 253.614 238.948L246.256 237.701L246.244 237.713ZM248.656 230.495L256.424 230.53C256.418 231.01 256.371 231.484 256.312 231.958L248.562 231.713C248.62 231.303 248.65 230.893 248.656 230.489V230.495ZM247.789 234.745C247.93 234.376 248.059 233.99 248.164 233.621L248.193 233.533L255.885 234.083V234.118C255.739 234.61 255.581 235.043 255.423 235.482L247.795 234.733V234.745H247.789Z" fill="#3D3D3D"/>
<path d="M160.416 227.253C163.858 215.358 185.564 207.098 208.903 208.79C232.242 210.482 248.392 221.487 244.95 233.382C241.52 245.265 219.803 253.536 196.464 251.838C173.125 250.147 156.974 239.142 160.416 227.253Z" fill="#EEA62C"/>
<path d="M205.581 208.668C228.363 210.383 244.596 221.587 241.253 233.306C238.28 243.79 220.52 251.587 200.5 251.898C222.305 252.664 241.927 244.662 245.14 233.347C248.518 221.464 232.537 210.43 209.462 208.697C206.956 208.51 204.486 208.451 202.045 208.486C203.222 208.521 204.387 208.574 205.575 208.668H205.581Z" fill="#BB8226"/>
<path fill-rule="evenodd" clip-rule="evenodd" d="M223.59 223.525C226.184 223.718 228.742 223.917 231.341 224.104C229.69 229.905 228.045 235.683 226.406 241.484C223.994 241.302 221.612 241.121 219.177 240.945C219.862 238.528 220.547 236.134 221.249 233.669C218.662 234.647 215.893 235.226 212.802 235.414C212.334 237.064 211.871 238.697 211.403 240.36C208.98 240.178 206.597 240.003 204.162 239.816C204.624 238.194 205.087 236.567 205.549 234.951C197.951 233.207 194.913 229.946 194.082 225.913C185.395 229.004 176.731 232.089 167.998 235.191C168.009 235.097 168.015 235.027 168.027 234.969C168.472 233.394 168.911 231.819 169.385 230.251C169.408 230.145 169.549 230.022 169.724 229.964C177.767 227.13 185.822 224.315 193.865 221.487C194.187 221.37 194.515 221.329 194.884 221.359C197.096 221.523 199.303 221.692 201.516 221.856C201.621 221.856 201.715 221.88 201.867 221.903C201.762 222.254 201.657 222.588 201.575 222.928C201.188 224.689 201.27 226.434 202.488 228.12C203.225 229.138 204.332 230.028 206 230.707C206.152 230.766 206.334 230.836 206.503 230.894C206.533 230.906 206.585 230.912 206.667 230.924C207.469 228.09 208.277 225.269 209.079 222.436C211.532 222.623 213.914 222.799 216.349 222.98C215.553 225.778 214.757 228.565 213.967 231.392C214.991 231.216 215.864 230.971 216.683 230.66C218.984 229.794 220.517 228.611 221.641 227.283C222.619 226.124 223.21 224.889 223.585 223.648C223.602 223.601 223.626 223.56 223.643 223.507L223.59 223.525Z" fill="#BB8226"/>
<path fill-rule="evenodd" clip-rule="evenodd" d="M226.315 223.055C228.909 223.249 231.467 223.448 234.066 223.635C232.415 229.442 230.776 235.225 229.131 241.015C226.719 240.833 224.337 240.652 221.902 240.476C222.586 238.07 223.271 235.664 223.974 233.206C221.386 234.183 218.618 234.763 215.527 234.95C215.059 236.601 214.596 238.246 214.122 239.891C211.699 239.709 209.316 239.534 206.881 239.346C207.343 237.713 207.806 236.098 208.257 234.488C200.658 232.743 197.62 229.483 196.795 225.455C188.108 228.546 179.444 231.631 170.711 234.734C170.722 234.64 170.728 234.57 170.74 234.511C171.185 232.936 171.624 231.362 172.086 229.799C172.11 229.699 172.25 229.571 172.426 229.512C180.469 226.691 188.512 223.869 196.567 221.042C196.889 220.925 197.216 220.895 197.585 220.925C199.798 221.089 202.005 221.258 204.217 221.422C204.323 221.422 204.416 221.44 204.569 221.463C204.463 221.814 204.358 222.148 204.282 222.499C203.896 224.261 203.977 226.006 205.195 227.692C205.933 228.71 207.039 229.6 208.707 230.279C208.877 230.337 209.041 230.408 209.211 230.466C209.24 230.478 209.293 230.484 209.375 230.495C210.177 227.662 210.984 224.841 211.786 222.008C214.239 222.195 216.622 222.37 219.045 222.552C218.249 225.356 217.453 228.148 216.663 230.964C217.687 230.788 218.559 230.542 219.379 230.232C221.679 229.366 223.213 228.183 224.337 226.854C225.314 225.684 225.906 224.46 226.28 223.219C226.286 223.172 226.321 223.131 226.339 223.079L226.321 223.061L226.315 223.055Z" fill="#FFD400"/>
<path d="M138.923 212.963V226.368C138.917 230.928 140.796 235.295 144.156 238.374C151.192 244.831 166.974 253.529 200.826 253.231C200.826 253.231 250.05 252.288 253.966 227.814V216.575L138.917 212.957L138.923 212.963Z" fill="#212121"/>
<path d="M187.958 240.909C156.471 238.632 134.712 223.787 139.343 207.754C143.973 191.72 173.242 180.581 204.729 182.858C236.216 185.135 257.975 199.98 253.344 216.019C248.714 232.053 219.445 243.192 187.97 240.915H187.958V240.909Z" fill="#2D2D2D"/>
<path d="M143.169 208.059V208.03C143.304 207.562 143.474 207.094 143.643 206.649L151.259 207.398C151.107 207.784 150.967 208.182 150.855 208.58L143.158 208.048H143.169V208.059ZM142.724 210.196L150.475 210.442C150.416 210.852 150.387 211.261 150.381 211.665L142.607 211.618C142.631 211.15 142.66 210.676 142.724 210.196ZM144.633 204.565C144.885 204.108 145.171 203.64 145.464 203.195L152.822 204.442C152.559 204.828 152.33 205.22 152.108 205.607L144.633 204.553V204.565ZM142.713 213.773L150.463 213.503C150.527 213.913 150.586 214.317 150.674 214.727L142.953 215.195C142.842 214.727 142.754 214.253 142.695 213.773H142.707H142.713ZM146.98 201.193C147.355 200.754 147.753 200.315 148.168 199.888L155.123 201.632C154.766 201.995 154.438 202.364 154.122 202.738L146.986 201.193H146.98ZM143.614 217.314L151.23 216.53C151.382 216.928 151.564 217.332 151.757 217.712L144.223 218.707C143.995 218.245 143.79 217.771 143.608 217.302V217.314H143.614ZM150.165 198.003C150.65 197.593 151.148 197.189 151.669 196.791L158.131 198.974C157.692 199.314 157.253 199.659 156.838 200.022L150.165 198.014V198.003ZM145.417 220.762L152.775 219.486C153.033 219.866 153.302 220.247 153.601 220.633L146.383 222.114C146.038 221.669 145.716 221.224 145.405 220.774L145.417 220.762ZM154.157 195.047C154.742 194.678 155.333 194.303 155.96 193.946L161.79 196.545C161.263 196.849 160.754 197.16 160.245 197.482L154.145 195.047H154.157ZM148.104 224.064L155.082 222.302C155.427 222.659 155.808 223.022 156.194 223.379L149.421 225.322C148.959 224.906 148.52 224.485 148.11 224.052V224.064H148.104ZM158.875 192.377C159.542 192.049 160.239 191.722 160.935 191.406L166.052 194.362C165.443 194.631 164.857 194.912 164.272 195.193L158.857 192.366H158.869L158.875 192.377ZM151.599 227.148L158.067 224.942C158.506 225.287 158.969 225.615 159.443 225.937L153.214 228.313C152.652 227.933 152.108 227.535 151.599 227.148ZM164.214 190.042C164.969 189.755 165.724 189.48 166.508 189.21L170.817 192.488C170.143 192.711 169.488 192.951 168.85 193.203L164.208 190.042H164.214ZM155.866 229.976L161.714 227.371C162.241 227.675 162.779 227.974 163.341 228.261L157.757 231.024C157.107 230.684 156.463 230.333 155.849 229.97H155.86L155.866 229.976ZM170.097 188.098C170.91 187.858 171.741 187.63 172.59 187.419L176.021 190.961C175.301 191.136 174.598 191.329 173.896 191.528L170.097 188.098ZM160.824 232.505L165.964 229.537C166.561 229.8 167.176 230.052 167.802 230.315L162.978 233.424C162.241 233.125 161.515 232.827 160.813 232.51H160.824V232.505ZM176.442 186.541C177.308 186.36 178.186 186.202 179.082 186.032L181.587 189.772C180.838 189.907 180.083 190.047 179.334 190.2L176.454 186.535H176.442V186.541ZM166.391 234.676L170.723 231.387C171.384 231.615 172.069 231.826 172.754 232.03L168.774 235.437C167.966 235.197 167.164 234.946 166.391 234.676ZM183.115 185.429C184.017 185.312 184.93 185.195 185.849 185.101L187.359 188.976C186.569 189.052 185.802 189.152 185.018 189.251L183.098 185.429H183.109H183.115ZM172.473 236.468L175.927 232.92C176.647 233.09 177.367 233.271 178.11 233.429L175.031 237.065C174.165 236.877 173.31 236.684 172.479 236.473L172.473 236.468ZM190.017 184.756C190.942 184.697 191.878 184.65 192.821 184.627L193.318 188.566C192.522 188.596 191.714 188.637 190.924 188.678L190.017 184.756ZM178.965 237.826L181.465 234.073C182.214 234.202 182.981 234.325 183.759 234.43L181.652 238.241C180.739 238.112 179.855 237.972 178.965 237.82V237.826ZM197.03 184.562C197.96 184.568 198.897 184.586 199.834 184.609L199.318 188.561C198.516 188.531 197.714 188.514 196.912 188.52L197.03 184.574V184.562ZM185.749 238.733L187.271 234.852C188.056 234.928 188.852 234.992 189.648 235.057H189.835L188.77 238.991L188.512 238.973C187.582 238.903 186.663 238.827 185.744 238.733H185.749ZM204.036 184.826L204.148 184.838C205.038 184.896 205.927 184.978 206.794 185.066L205.283 188.947C204.528 188.877 203.773 188.812 203 188.754L204.025 184.826H204.036ZM193.435 235.25C194.237 235.279 195.039 235.285 195.841 235.291L195.753 239.242C194.823 239.242 193.886 239.219 192.95 239.195L193.435 235.25ZM208.807 189.357L210.903 185.546C211.816 185.669 212.7 185.815 213.59 185.967L211.102 189.714C210.353 189.585 209.586 189.462 208.807 189.357ZM199.435 235.232C200.243 235.203 201.039 235.162 201.83 235.11L202.76 239.026C201.824 239.084 200.899 239.131 199.956 239.166L199.447 235.232H199.435ZM214.456 190.352L217.524 186.711C218.39 186.898 219.245 187.091 220.076 187.302L216.651 190.855C215.931 190.674 215.2 190.504 214.468 190.346H214.456V190.352ZM205.389 234.811C206.173 234.729 206.946 234.635 207.719 234.536L209.65 238.358C208.749 238.475 207.836 238.592 206.917 238.686L205.389 234.811ZM219.807 191.733L223.787 188.326C224.595 188.566 225.397 188.818 226.17 189.082L221.855 192.383C221.194 192.155 220.509 191.944 219.812 191.739V191.727L219.807 191.733ZM211.178 234.009C211.927 233.874 212.694 233.728 213.426 233.57L216.318 237.234C215.451 237.416 214.573 237.574 213.689 237.738L211.172 234.009H211.178ZM224.77 193.454L229.582 190.34C230.32 190.627 231.046 190.937 231.742 191.242L226.609 194.227C226.006 193.952 225.397 193.7 224.759 193.443H224.77V193.454ZM216.722 232.815C217.442 232.628 218.156 232.434 218.846 232.235L222.663 235.671C221.849 235.911 221.012 236.128 220.181 236.339L216.722 232.809V232.815ZM229.237 195.491L234.804 192.723C235.465 193.062 236.097 193.413 236.724 193.765L230.876 196.381C230.349 196.077 229.799 195.778 229.249 195.491H229.237ZM221.92 231.269C222.593 231.047 223.243 230.795 223.887 230.555L228.54 233.705C227.785 233.991 227.03 234.272 226.246 234.536L221.908 231.269H221.92ZM233.135 197.81L239.364 195.433C239.926 195.813 240.464 196.2 240.991 196.598L234.534 198.805C234.084 198.471 233.621 198.137 233.141 197.81H233.13H233.135ZM226.679 229.39C227.276 229.121 227.873 228.834 228.452 228.547L233.879 231.363C233.212 231.697 232.515 232.019 231.818 232.341L226.69 229.385H226.679V229.39ZM236.419 200.368L243.192 198.412C243.655 198.828 244.094 199.25 244.503 199.671L237.543 201.439C237.192 201.07 236.817 200.719 236.419 200.356V200.368ZM230.929 227.213C231.455 226.908 231.965 226.586 232.462 226.265L238.562 228.7C237.982 229.08 237.385 229.449 236.759 229.806L230.917 227.213H230.929ZM239.013 203.113L246.23 201.626C246.576 202.071 246.898 202.516 247.208 202.967L239.856 204.26C239.598 203.88 239.311 203.499 239.013 203.119V203.113ZM234.593 224.772C235.032 224.432 235.459 224.087 235.875 223.736L242.56 225.732C242.08 226.153 241.582 226.557 241.056 226.955L234.599 224.784V224.772H234.593ZM240.886 206.016L248.419 205.021C248.648 205.472 248.853 205.946 249.046 206.414L241.43 207.205C241.278 206.807 241.096 206.414 240.903 206.022H240.892L240.886 206.016ZM237.602 222.126C237.959 221.751 238.287 221.382 238.603 221.002L245.739 222.536C245.364 222.975 244.978 223.408 244.568 223.835L237.59 222.114H237.602V222.126ZM241.986 209.014L249.702 208.534C249.813 209.002 249.901 209.476 249.959 209.956L242.209 210.237C242.144 209.827 242.08 209.412 241.98 209.019L241.986 209.014ZM239.885 219.287C240.148 218.901 240.376 218.508 240.599 218.11L248.086 219.152C247.834 219.609 247.559 220.077 247.255 220.522L239.896 219.275L239.885 219.287ZM242.297 212.069L250.064 212.104C250.059 212.584 250.012 213.058 249.953 213.533L242.203 213.287C242.261 212.877 242.291 212.467 242.297 212.063V212.069ZM241.43 216.319C241.571 215.95 241.699 215.564 241.805 215.195L241.834 215.107L249.526 215.658V215.693C249.38 216.184 249.222 216.618 249.063 217.057L241.436 216.307V216.319H241.43Z" fill="#3D3D3D"/>
<path d="M154.057 208.825C157.499 196.93 179.205 188.671 202.544 190.362C225.882 192.054 242.033 203.059 238.591 214.954C235.161 226.837 213.443 235.108 190.104 233.411C166.766 231.719 150.615 220.714 154.057 208.825Z" fill="#EEA62C"/>
<path d="M199.222 190.238C222.004 191.953 238.237 203.157 234.894 214.876C231.921 225.36 214.16 233.158 194.141 233.468C215.946 234.235 235.568 226.233 238.781 214.917C242.159 203.034 226.178 192 203.103 190.267C200.597 190.08 198.127 190.021 195.686 190.057C196.863 190.092 198.028 190.144 199.216 190.238H199.222Z" fill="#BB8226"/>
<path fill-rule="evenodd" clip-rule="evenodd" d="M217.231 205.097C219.825 205.29 222.383 205.489 224.982 205.676C223.331 211.477 221.686 217.255 220.047 223.056C217.635 222.875 215.253 222.693 212.818 222.518C213.503 220.1 214.188 217.706 214.89 215.241C212.303 216.219 209.534 216.798 206.443 216.986C205.975 218.637 205.512 220.27 205.044 221.932C202.62 221.751 200.238 221.575 197.803 221.388C198.265 219.766 198.728 218.139 199.19 216.523C191.592 214.779 188.554 211.518 187.723 207.485C179.036 210.576 170.372 213.661 161.639 216.763C161.65 216.67 161.656 216.599 161.668 216.541C162.113 214.966 162.552 213.392 163.026 211.823C163.049 211.717 163.19 211.594 163.365 211.536C171.408 208.703 179.463 205.887 187.506 203.06C187.828 202.943 188.156 202.902 188.525 202.931C190.737 203.095 192.944 203.265 195.157 203.429C195.262 203.429 195.356 203.452 195.508 203.475C195.403 203.827 195.298 204.16 195.216 204.5C194.829 206.262 194.911 208.006 196.129 209.692C196.866 210.711 197.973 211.6 199.641 212.279C199.793 212.338 199.975 212.408 200.144 212.467C200.174 212.478 200.226 212.484 200.308 212.496C201.11 209.663 201.918 206.841 202.72 204.008C205.173 204.195 207.555 204.371 209.99 204.552C209.194 207.351 208.398 210.137 207.608 212.964C208.632 212.789 209.505 212.543 210.324 212.233C212.625 211.366 214.158 210.184 215.282 208.855C216.26 207.696 216.851 206.461 217.226 205.22C217.243 205.173 217.267 205.132 217.284 205.079L217.231 205.097Z" fill="#BB8226"/>
<path fill-rule="evenodd" clip-rule="evenodd" d="M219.956 204.628C222.549 204.821 225.107 205.02 227.707 205.207C226.056 211.014 224.417 216.798 222.772 222.587C220.36 222.405 217.978 222.224 215.542 222.048C216.227 219.642 216.912 217.237 217.615 214.778C215.027 215.756 212.258 216.335 209.168 216.522C208.699 218.173 208.237 219.818 207.763 221.463C205.339 221.282 202.957 221.106 200.522 220.919C200.984 219.285 201.447 217.67 201.897 216.06C194.299 214.316 191.261 211.055 190.436 207.028C181.749 210.118 173.085 213.203 164.352 216.306C164.363 216.212 164.369 216.142 164.381 216.083C164.826 214.509 165.265 212.934 165.727 211.371C165.751 211.272 165.891 211.143 166.067 211.084C174.11 208.263 182.153 205.441 190.207 202.614C190.529 202.497 190.857 202.468 191.226 202.497C193.439 202.661 195.646 202.831 197.858 202.994C197.964 202.994 198.057 203.012 198.21 203.035C198.104 203.387 197.999 203.72 197.923 204.072C197.536 205.834 197.618 207.578 198.836 209.264C199.573 210.282 200.68 211.172 202.348 211.851C202.518 211.91 202.682 211.98 202.852 212.038C202.881 212.05 202.933 212.056 203.015 212.068C203.817 209.235 204.625 206.413 205.427 203.58C207.88 203.767 210.262 203.943 212.686 204.124C211.89 206.928 211.094 209.72 210.303 212.536C211.328 212.36 212.2 212.115 213.019 211.804C215.32 210.938 216.854 209.756 217.978 208.427C218.955 207.256 219.546 206.033 219.921 204.792C219.927 204.745 219.962 204.704 219.98 204.651L219.962 204.634L219.956 204.628Z" fill="#FFD400"/>
<path d="M148.104 198.398L148.666 212.295C148.666 216.855 150.545 221.222 153.905 224.301C160.942 230.758 176.723 239.456 210.576 239.158C210.576 239.158 259.8 238.215 263.716 213.741V198.164L148.099 198.398H148.104Z" fill="#CC7617"/>
<path d="M197.701 226.837C166.214 224.56 144.456 209.715 149.086 193.681C153.716 177.648 182.985 166.508 214.472 168.786C245.959 171.063 267.718 185.908 263.087 201.947C258.457 217.98 229.188 229.12 197.713 226.843H197.701V226.837Z" fill="#EB9B0B"/>
<path d="M152.92 193.979V193.95C153.055 193.482 153.225 193.013 153.395 192.569L161.01 193.318C160.858 193.704 160.718 194.102 160.606 194.5L152.909 193.968H152.92V193.979ZM152.476 196.116L160.226 196.362C160.167 196.772 160.138 197.181 160.132 197.585L152.358 197.538C152.382 197.07 152.411 196.596 152.476 196.116ZM154.384 190.485C154.636 190.028 154.922 189.56 155.215 189.115L162.573 190.362C162.31 190.748 162.082 191.14 161.859 191.527L154.384 190.473V190.485ZM152.464 199.693L160.214 199.423C160.279 199.833 160.337 200.237 160.425 200.647L152.704 201.115C152.593 200.647 152.505 200.173 152.446 199.693H152.458H152.464ZM156.731 187.113C157.106 186.674 157.504 186.235 157.919 185.808L164.874 187.552C164.517 187.915 164.189 188.284 163.873 188.658L156.737 187.113H156.731ZM153.365 203.234L160.981 202.45C161.133 202.848 161.315 203.252 161.508 203.632L153.974 204.627C153.746 204.165 153.541 203.691 153.359 203.222V203.234H153.365ZM159.916 183.923C160.401 183.513 160.899 183.109 161.42 182.711L167.883 184.894C167.443 185.234 167.004 185.579 166.589 185.942L159.916 183.934V183.923ZM155.168 206.682L162.526 205.406C162.784 205.786 163.053 206.167 163.352 206.553L156.134 208.034C155.789 207.589 155.467 207.144 155.157 206.694L155.168 206.682ZM163.908 180.966C164.493 180.598 165.084 180.223 165.711 179.866L171.541 182.465C171.014 182.769 170.505 183.08 169.996 183.402L163.896 180.966H163.908ZM157.855 209.983L164.833 208.221C165.178 208.579 165.559 208.941 165.945 209.299L159.172 211.242C158.71 210.826 158.271 210.405 157.861 209.972V209.983H157.855ZM168.626 178.297C169.293 177.969 169.99 177.642 170.686 177.325L175.803 180.282C175.194 180.551 174.608 180.832 174.023 181.113L168.608 178.285H168.62L168.626 178.297ZM161.35 213.068L167.818 210.861C168.257 211.207 168.72 211.535 169.194 211.857L162.965 214.233C162.403 213.853 161.859 213.455 161.35 213.068ZM173.965 175.962C174.72 175.675 175.475 175.4 176.259 175.13L180.568 178.408C179.894 178.631 179.239 178.871 178.601 179.123L173.959 175.962H173.965ZM165.617 215.896L171.465 213.291C171.992 213.595 172.53 213.894 173.092 214.181L167.508 216.944C166.858 216.604 166.214 216.253 165.6 215.89H165.611L165.617 215.896ZM179.848 174.018C180.661 173.778 181.492 173.55 182.341 173.339L185.772 176.881C185.052 177.056 184.349 177.249 183.647 177.448L179.848 174.018ZM170.575 218.425L175.715 215.457C176.312 215.72 176.927 215.972 177.553 216.235L172.729 219.344C171.992 219.045 171.266 218.746 170.564 218.43H170.575V218.425ZM186.193 172.461C187.059 172.28 187.937 172.121 188.833 171.952L191.338 175.692C190.589 175.827 189.834 175.967 189.085 176.12L186.205 172.455H186.193V172.461ZM176.142 220.596L180.474 217.306C181.135 217.535 181.82 217.745 182.505 217.95L178.525 221.357C177.717 221.117 176.915 220.866 176.142 220.596ZM192.866 171.349C193.768 171.232 194.681 171.115 195.6 171.021L197.11 174.896C196.32 174.972 195.553 175.072 194.769 175.171L192.849 171.349H192.86H192.866ZM182.224 222.388L185.678 218.84C186.398 219.01 187.118 219.191 187.861 219.349L184.782 222.985C183.916 222.797 183.061 222.604 182.23 222.393L182.224 222.388ZM199.768 170.676C200.693 170.617 201.629 170.57 202.572 170.547L203.069 174.486C202.273 174.516 201.465 174.557 200.675 174.598L199.768 170.676ZM188.716 223.746L191.216 219.993C191.965 220.122 192.732 220.245 193.51 220.35L191.403 224.161C190.49 224.032 189.606 223.892 188.716 223.74V223.746ZM206.781 170.482C207.711 170.488 208.648 170.506 209.585 170.529L209.069 174.481C208.267 174.451 207.465 174.434 206.664 174.44L206.781 170.494V170.482ZM195.5 224.653L197.022 220.772C197.807 220.848 198.603 220.912 199.399 220.977H199.586L198.521 224.91L198.263 224.893C197.333 224.823 196.414 224.747 195.495 224.653H195.5ZM213.788 170.746L213.899 170.758C214.789 170.816 215.678 170.898 216.545 170.986L215.034 174.867C214.279 174.797 213.524 174.732 212.751 174.674L213.776 170.746H213.788ZM203.186 221.17C203.988 221.199 204.79 221.205 205.592 221.211L205.504 225.162C204.574 225.162 203.637 225.139 202.701 225.115L203.186 221.17ZM218.558 175.277L220.654 171.466C221.567 171.589 222.451 171.735 223.341 171.887L220.853 175.634C220.104 175.505 219.337 175.382 218.558 175.277ZM209.187 221.152C209.994 221.123 210.79 221.082 211.581 221.029L212.511 224.946C211.575 225.004 210.65 225.051 209.708 225.086L209.198 221.152H209.187ZM224.207 176.272L227.275 172.631C228.141 172.818 228.996 173.011 229.827 173.222L226.402 176.775C225.682 176.594 224.951 176.424 224.219 176.266H224.207V176.272ZM215.14 220.731C215.924 220.649 216.697 220.555 217.47 220.456L219.401 224.278C218.5 224.395 217.587 224.512 216.668 224.606L215.14 220.731ZM229.557 177.653L233.538 174.246C234.346 174.486 235.148 174.738 235.92 175.002L231.606 178.303C230.945 178.075 230.26 177.864 229.563 177.659V177.647L229.557 177.653ZM220.929 219.929C221.678 219.794 222.445 219.648 223.177 219.49L226.069 223.154C225.202 223.336 224.324 223.494 223.44 223.658L220.923 219.929H220.929ZM234.521 179.374L239.333 176.26C240.071 176.547 240.797 176.857 241.493 177.162L236.36 180.147C235.757 179.872 235.148 179.62 234.51 179.363H234.521V179.374ZM226.473 218.735C227.193 218.547 227.907 218.354 228.597 218.155L232.414 221.591C231.6 221.831 230.763 222.048 229.932 222.259L226.473 218.729V218.735ZM238.988 181.411L244.555 178.643C245.216 178.982 245.848 179.333 246.475 179.684L240.627 182.301C240.1 181.997 239.55 181.698 239 181.411H238.988ZM231.671 217.189C232.344 216.967 232.994 216.715 233.638 216.475L238.291 219.625C237.536 219.911 236.781 220.192 235.997 220.456L231.659 217.189H231.671ZM242.886 183.729L249.115 181.353C249.677 181.733 250.215 182.12 250.742 182.518L244.285 184.725C243.835 184.391 243.372 184.057 242.892 183.729H242.881H242.886ZM236.43 215.31C237.027 215.041 237.624 214.754 238.203 214.467L243.63 217.283C242.963 217.617 242.266 217.939 241.569 218.261L236.441 215.304H236.43V215.31ZM246.17 186.288L252.943 184.332C253.406 184.748 253.845 185.169 254.254 185.591L247.294 187.359C246.943 186.99 246.568 186.639 246.17 186.276V186.288ZM240.68 213.133C241.206 212.828 241.716 212.506 242.213 212.184L248.313 214.62C247.733 215 247.136 215.369 246.51 215.726L240.668 213.133H240.68ZM248.764 189.033L255.981 187.546C256.327 187.991 256.649 188.436 256.959 188.887L249.607 190.18C249.349 189.8 249.062 189.419 248.764 189.039V189.033ZM244.344 210.692C244.783 210.352 245.21 210.007 245.626 209.656L252.311 211.652C251.831 212.073 251.333 212.477 250.807 212.875L244.35 210.703V210.692H244.344ZM250.637 191.936L258.171 190.941C258.399 191.392 258.604 191.866 258.797 192.334L251.181 193.125C251.029 192.727 250.848 192.334 250.654 191.942H250.643L250.637 191.936ZM247.353 208.046C247.71 207.671 248.038 207.302 248.354 206.922L255.49 208.456C255.115 208.895 254.729 209.328 254.319 209.755L247.341 208.034H247.353V208.046ZM251.737 194.933L259.453 194.453C259.564 194.922 259.652 195.396 259.71 195.876L251.96 196.157C251.895 195.747 251.831 195.332 251.732 194.939L251.737 194.933ZM249.636 205.207C249.899 204.82 250.128 204.428 250.35 204.03L257.837 205.072C257.585 205.529 257.31 205.997 257.006 206.442L249.648 205.195L249.636 205.207ZM252.047 197.989L259.815 198.024C259.81 198.504 259.763 198.978 259.704 199.453L251.954 199.207C252.012 198.797 252.042 198.387 252.047 197.983V197.989ZM251.181 202.239C251.322 201.87 251.451 201.484 251.556 201.115L251.585 201.027L259.277 201.577V201.613C259.131 202.104 258.972 202.537 258.814 202.977L251.187 202.227V202.239H251.181Z" fill="#F5CD85"/>
<path d="M163.808 194.747C167.25 182.852 188.956 174.592 212.294 176.284C235.633 177.976 251.784 188.981 248.342 200.876C244.911 212.759 223.194 221.03 199.855 219.333C176.516 217.641 160.366 206.636 163.808 194.747Z" fill="#EE972C"/>
<path d="M208.972 176.168C231.754 177.883 247.987 189.087 244.644 200.806C241.671 211.29 223.91 219.087 203.891 219.398C225.696 220.164 245.318 212.162 248.531 200.847C251.909 188.964 235.928 177.93 212.853 176.197C210.347 176.01 207.877 175.951 205.436 175.986C206.613 176.021 207.778 176.074 208.966 176.168H208.972Z" fill="#BB8226"/>
<g opacity="0.3">
<path d="M240.46 221.254C214.926 230.983 178.832 228.36 159.854 215.412C140.864 202.463 146.174 184.082 171.708 174.365" fill="#BB8226"/>
</g>
<path d="M78.0276 144.586C78.0276 144.586 52.9151 81.9858 113.162 38.9492C113.162 38.9492 150.995 12.3205 199.387 27.5812C199.387 27.5812 242.945 42.1395 254.213 82.1146L78.0335 144.586H78.0276Z" fill="#212121"/>
<path d="M105.206 122.91C105.206 122.91 87.9724 48.538 133.128 29.2148" stroke="#3F3F3F" stroke-width="0.620496" stroke-miterlimit="10"/>
<path d="M161.607 98.8919L135.248 27.2656" stroke="#3F3F3F" stroke-width="0.620496" stroke-miterlimit="10"/>
<path d="M218.311 81.7163C218.311 81.7163 186.613 16.8335 140.55 26.8375" stroke="#3F3F3F" stroke-width="0.620496" stroke-miterlimit="10"/>
<path d="M77.9219 144.018C77.9219 144.018 83.12 129.729 160.735 99.2015C160.735 99.2015 250.373 67.0469 254.593 81.014C254.593 81.014 253.944 95.3029 170.481 126.808C170.481 126.808 110.398 151.165 82.1424 148.244C82.1424 148.244 78.5716 148.566 77.9219 144.024V144.018Z" fill="#2D2D2D"/>
<path d="M82.1475 147.426L147.299 196.603" stroke="#BABABA" stroke-width="0.620496" stroke-miterlimit="10"/>
<path d="M170.481 126.801L206.137 227.825" stroke="#BABABA" stroke-width="0.620496" stroke-miterlimit="10"/>
<path d="M254.598 81.0137L229.491 170.956" stroke="#BABABA" stroke-width="0.620496" stroke-miterlimit="10"/>
<path d="M156.823 84.8938C147.242 88.7236 136.071 83.9733 132.245 74.0864C128.511 64.4372 133.35 53.465 143.069 49.6876C152.724 45.9329 163.588 50.7048 167.425 60.265C171.391 70.1436 166.388 81.1926 156.824 84.8954L156.823 84.8938ZM144.78 54.3348C137.672 57.1454 134.109 65.2126 136.897 72.3626C139.688 79.5235 147.793 83.1034 154.936 80.3208C162.107 77.5271 165.655 69.4421 162.898 62.2799C160.073 54.9346 151.822 51.57 144.779 54.337L144.78 54.3348Z" fill="white"/>
<path d="M153.568 65.9092C154.344 67.9575 153.325 70.2221 151.282 70.9962C149.22 71.7754 146.967 70.7437 146.189 68.6621C145.434 66.6398 146.465 64.4027 148.512 63.6237C150.534 62.8544 152.797 63.8787 153.568 65.9092Z" fill="white"/>
<path d="M124.688 55.1942L160.177 41.3145L158.49 36.9995L123 50.8792L124.688 55.1942Z" fill="#FF6700"/>
<path d="M220.552 290.838L242.497 293.993L279.68 255.095L257.869 252.602L220.552 290.838Z" fill="#3D3D3D"/>
<path d="M293.612 270.864L332.903 228.682L349.984 231.047L334.214 210.547L293.612 223.689L311.747 225.79L281.788 257.195L279.681 255.094L293.612 270.864Z" fill="#3D3D3D"/>
<path d="M243.943 300.56L242.497 293.992L279.68 255.094L293.612 270.864L332.902 228.682L334.085 235.513L293.349 279.668L278.896 264.624L243.943 300.56Z" fill="#0C0C0C"/>
<path d="M295.45 231.046L293.612 223.688L311.747 225.789L305.589 232.246L295.45 231.046Z" fill="#F6931A"/>
<path d="M334.084 235.513L351.3 237.878L349.983 231.047L332.901 228.682L334.084 235.513Z" fill="#F6931A"/>
<path d="M221.734 298.065L243.943 300.559L242.497 293.991L220.552 290.836L221.734 298.065Z" fill="#0C0C0C"/>
</g>
<path d="M214.122 200.558C214.28 200.985 214.415 201.354 214.561 201.723C214.854 202.495 214.749 203.274 214.081 204.052C213.215 205.059 211.547 205.785 209.574 206.4C206.559 207.342 203.363 207.969 199.857 207.892C196.971 207.834 194.706 207.26 192.803 206.441C190.69 205.528 189.291 204.41 187.985 203.321C187.781 203.151 187.599 203.169 187.224 203.268C184.725 203.965 182.214 204.65 179.702 205.346C179.281 205.463 179.082 205.446 178.936 205.235C178.526 204.632 178.063 204.058 177.613 203.496C177.507 203.362 177.507 203.286 177.888 203.18C180.024 202.607 182.149 202.015 184.286 201.448C185.685 201.073 185.703 201.085 185.199 200.528C184.947 200.248 184.655 199.978 184.438 199.691C184.309 199.522 184.116 199.516 183.73 199.621C182.062 200.084 180.381 200.534 178.707 200.991C178.052 201.167 177.396 201.342 176.746 201.529C176.383 201.629 176.173 201.611 176.061 201.465C175.669 200.927 175.277 200.4 174.891 199.879C174.797 199.75 174.879 199.686 175.213 199.598C176.975 199.124 178.725 198.638 180.481 198.152C180.926 198.029 181.382 197.918 181.827 197.789C182.536 197.59 182.577 197.555 182.337 197.286C181.956 196.858 181.564 196.443 181.183 196.033C180.633 195.447 180.095 194.88 179.55 194.329C179.433 194.206 179.539 194.13 179.861 194.066C181.447 193.75 183.039 193.434 184.637 193.112C184.971 193.047 185.105 193.1 185.211 193.2C185.574 193.539 185.919 193.896 186.352 194.224C186.803 194.569 187.482 194.61 188.53 194.353C189.724 194.054 190.889 193.726 192.06 193.41C194.296 192.802 196.526 192.187 198.762 191.578C201.549 190.817 204.335 190.056 207.121 189.301C207.525 189.19 207.941 189.084 208.351 188.979C209.955 188.569 210.487 188.025 209.738 187.504C209.258 187.17 208.702 186.86 208.146 186.561C207.97 186.468 207.964 186.409 208.286 186.321C209.603 185.959 210.909 185.596 212.22 185.233C212.483 185.157 212.659 185.162 212.817 185.25C214.357 186.07 215.966 186.924 217.635 187.808C217.816 187.908 217.974 187.925 218.308 187.832C220.556 187.211 222.821 186.597 225.075 185.982C225.455 185.877 225.689 185.871 225.959 186C226.749 186.38 227.58 186.761 228.447 187.141C228.739 187.27 228.599 187.358 228.247 187.451C226.292 187.984 224.337 188.517 222.376 189.049C222.078 189.131 221.773 189.213 221.475 189.295C221.153 189.377 221.106 189.471 221.305 189.57C221.943 189.898 222.593 190.232 223.248 190.565C223.483 190.688 223.746 190.642 224.033 190.565C225.543 190.156 227.053 189.746 228.558 189.336C229.366 189.114 230.173 188.891 230.969 188.669C231.309 188.575 231.549 188.569 231.801 188.686C232.802 189.149 233.85 189.605 234.88 190.091C234.956 190.126 234.85 190.261 234.716 190.296C232.263 190.975 229.799 191.648 227.317 192.316C226.866 192.439 226.766 192.538 227.018 192.702C228.13 193.428 229.044 194.218 229.646 195.073C230.32 196.033 230.665 197.04 229.646 198.07C229.014 198.708 227.984 199.247 226.667 199.709C224.489 200.47 222.107 201.044 219.227 201.073C217.588 201.09 216.019 200.991 214.661 200.628C214.556 200.599 214.409 200.599 214.122 200.564V200.558ZM194.542 201.371C195.379 201.641 196.181 201.951 197.1 202.191C198.142 202.46 199.342 202.577 200.694 202.372C202.456 202.109 203.919 201.688 204.692 200.88C205.599 199.937 205.313 199.071 204.692 198.263C203.89 197.215 202.766 196.279 201.472 195.43C200.823 195.003 200.846 195.003 199.629 195.336C196.725 196.132 193.81 196.923 190.895 197.713C190.181 197.906 190.175 197.9 190.479 198.181C190.813 198.486 191.129 198.796 191.48 199.1C192.352 199.867 193.301 200.64 194.542 201.366V201.371ZM209.726 196.097C210.639 196.343 211.324 196.56 212.091 196.729C215.363 197.473 218.87 196.413 219.666 195.43C220.193 194.774 219.976 194.16 219.373 193.586C218.442 192.702 217.137 191.947 215.791 191.233C215.434 191.045 215.399 191.04 214.801 191.204C211.968 191.976 209.129 192.749 206.284 193.516C205.91 193.615 205.822 193.709 206.015 193.832C206.343 194.054 206.653 194.283 207.01 194.499C207.917 195.049 208.872 195.6 209.726 196.103V196.097Z" fill="white"/>
</g>
<defs>
<clipPath id="clip0_1795_4986">
<rect width="410" height="306" fill="white" transform="translate(0 0.115234)"/>
</clipPath>
</defs>
</svg>
