<svg width="388" height="360" viewBox="0 0 388 360" fill="none" xmlns="http://www.w3.org/2000/svg">
<path d="M0.260609 232.784L0 247.562C0 250.061 1.6403 252.56 4.9209 254.461L5.18151 239.683C1.90091 237.782 0.260609 235.283 0.260609 232.784Z" fill="#CFCDE2"/>
<mask id="mask0_2818_4489" style="mask-type:luminance" maskUnits="userSpaceOnUse" x="0" y="232" width="6" height="23">
<path d="M0.260609 232.784L0 247.562C0 250.061 1.6403 252.56 4.9209 254.461L5.18151 239.683C1.90091 237.782 0.260609 235.283 0.260609 232.784Z" fill="white"/>
</mask>
<g mask="url(#mask0_2818_4489)">
<path d="M0.260609 232.784L0 247.562C0 248.344 0.168629 249.126 0.490557 249.877L0.751165 235.099C0.429237 234.332 0.275938 233.566 0.260609 232.784Z" fill="#CFCDE2"/>
<path d="M0.750843 235.099L0.490234 249.877C1.19541 251.548 2.68241 253.142 4.93591 254.46L5.19652 239.682C2.94302 238.364 1.45602 236.785 0.750843 235.099Z" fill="#CFCDE2"/>
</g>
<path d="M387.738 247.471L387.998 232.693C387.998 235.223 386.343 237.752 383.001 239.684L382.74 254.462C386.082 252.53 387.753 250.001 387.738 247.471Z" fill="#E7E6F1"/>
<mask id="mask1_2818_4489" style="mask-type:luminance" maskUnits="userSpaceOnUse" x="382" y="232" width="6" height="23">
<path d="M387.738 247.472L387.998 232.694C387.998 235.224 386.343 237.753 383.001 239.685L382.74 254.463C386.082 252.531 387.753 250.002 387.738 247.472Z" fill="white"/>
</mask>
<g mask="url(#mask1_2818_4489)">
<path d="M382.987 239.685L382.727 254.463C386.068 252.531 387.739 250.002 387.724 247.472L387.985 232.694C387.985 235.224 386.329 237.753 382.987 239.685Z" fill="#E7E6F1"/>
</g>
<path d="M5.18278 239.668L4.9375 254.461L181.262 356.926L181.523 342.148L5.18278 239.668Z" fill="#CFCDE2"/>
<path d="M205.499 342.148L205.254 356.926L382.744 254.461L382.989 239.683L205.499 342.148Z" fill="#E7E6F1"/>
<mask id="mask2_2818_4489" style="mask-type:luminance" maskUnits="userSpaceOnUse" x="181" y="342" width="25" height="18">
<path d="M181.52 342.147L181.26 356.925C187.852 360.758 198.598 360.758 205.236 356.925L205.496 342.147C198.858 345.98 188.112 345.98 181.52 342.147Z" fill="white"/>
</mask>
<g mask="url(#mask2_2818_4489)">
<path d="M193.798 345.029L193.537 359.808C197.768 359.762 201.999 358.811 205.234 356.925L205.494 342.147C202.245 344.018 198.029 344.984 193.798 345.029Z" fill="#E7E6F1"/>
</g>
<path d="M5.25728 225.779C-1.38057 229.611 -1.42657 235.835 5.18062 239.668L181.521 342.148C188.112 345.98 198.859 345.98 205.497 342.148L382.986 239.668C389.624 235.835 389.67 229.611 383.063 225.779L206.723 123.298C200.131 119.466 189.385 119.466 182.747 123.298L5.25728 225.779Z" fill="#F4F4FB"/>
<path d="M181.522 342.147L181.262 356.925C184.634 358.888 189.095 359.854 193.541 359.808L193.802 345.029C189.356 345.075 184.895 344.125 181.522 342.147Z" fill="#CFCDE2"/>
<path d="M161.992 69.3994L161.9 99.0475L133.586 115.573L133.678 85.9251L161.992 69.3994Z" fill="#D5900E"/>
<path d="M133.678 85.9251L133.586 115.573L105.088 99.0475L105.165 69.3994L133.678 85.9251Z" fill="#FFC400"/>
<path d="M161.994 69.3987L133.68 85.9243L105.166 69.3987L133.48 52.873L161.994 69.3987Z" fill="#FFDE38"/>
<path d="M182.044 23.1035L181.982 44.7647L161.287 56.8446L161.348 35.1835L182.044 23.1035Z" fill="#133AA5"/>
<path d="M161.348 35.1835L161.286 56.8446L140.453 44.7647L140.514 23.1035L161.348 35.1835Z" fill="#185BCC"/>
<path d="M182.042 23.1034L161.347 35.1834L140.514 23.1034L161.209 11.0234L182.042 23.1034Z" fill="#4281EE"/>
<path d="M259.967 149.882L259.783 214.451L198.08 250.461L198.264 185.892L259.967 149.882Z" fill="#133AA5"/>
<path d="M198.264 185.892L198.08 250.461L135.979 214.451L136.162 149.882L198.264 185.892Z" fill="#185BCC"/>
<path d="M259.966 149.881L198.264 185.891L136.162 149.881L197.865 113.871L259.966 149.881Z" fill="#4281EE"/>
<path d="M251.761 144.744L251.685 171.234L226.375 186.012L226.452 159.507L251.761 144.744Z" fill="#CFCDE2"/>
<path d="M226.453 159.507L226.377 186.012L200.898 171.234L200.975 144.744L226.453 159.507Z" fill="#E7E6F1"/>
<path d="M251.765 144.745L226.455 159.508L200.977 144.745L226.286 129.967L251.765 144.745Z" fill="#F4F4FB"/>
<path d="M199.058 282.53L198.982 309.02L173.672 323.783L173.749 297.293L199.058 282.53Z" fill="#CFCDE2"/>
<path d="M173.75 297.293L173.674 323.783L148.195 309.02L148.272 282.53L173.75 297.293Z" fill="#E7E6F1"/>
<path d="M199.061 282.531L173.752 297.294L148.273 282.531L173.583 267.753L199.061 282.531Z" fill="#F4F4FB"/>
<path d="M206.891 104.964L206.799 139.793L173.533 159.201L173.625 124.387L206.891 104.964Z" fill="#CFCDE2"/>
<path d="M173.625 124.387L173.533 159.201L140.037 139.793L140.144 104.964L173.625 124.387Z" fill="#E7E6F1"/>
<path d="M206.891 104.963L173.625 124.386L140.145 104.963L173.41 85.5557L206.891 104.963Z" fill="#F4F4FB"/>
<path d="M170.789 207.275L170.667 248.973L130.824 272.228L130.947 230.531L170.789 207.275Z" fill="#CFCDE2"/>
<path d="M130.946 230.531L130.824 272.228L90.7207 248.973L90.8433 207.275L130.946 230.531Z" fill="#E7E6F1"/>
<path d="M170.789 207.275L130.947 230.531L90.8438 207.275L130.686 184.035L170.789 207.275Z" fill="white"/>
<path d="M304.821 202.969L304.698 247.517L262.143 272.352L262.265 227.803L304.821 202.969Z" fill="#CFCDE2"/>
<path d="M262.267 227.803L262.144 272.352L219.297 247.517L219.42 202.969L262.267 227.803Z" fill="#E7E6F1"/>
<path d="M304.823 202.968L262.267 227.803L219.42 202.968L261.991 178.134L304.823 202.968Z" fill="white"/>
<path d="M266.541 41.8662L266.434 78.9033L231.037 99.568L231.144 62.5156L266.541 41.8662Z" fill="#133AA5"/>
<path d="M231.144 62.5156L231.037 99.568L195.41 78.9186L195.517 41.8662L231.144 62.5156Z" fill="#185BCC"/>
<path d="M266.541 41.8659L231.144 62.5153L195.518 41.8659L230.914 21.2012L266.541 41.8659Z" fill="#4281EE"/>
<path d="M178.196 235.913L178.15 253.65L161.195 263.553L161.257 245.801L178.196 235.913Z" fill="#FFB700"/>
<path d="M161.254 245.801L161.193 263.553L144.131 253.65L144.192 235.913L161.254 245.801Z" fill="#FFC400"/>
<path d="M178.193 235.913L161.254 245.801L144.191 235.913L161.131 226.025L178.193 235.913Z" fill="#FFDE38"/>
<path d="M103.415 190.199L103.354 210.143L84.2988 221.273L84.3601 201.329L103.415 190.199Z" fill="#FFB700"/>
<path d="M84.3601 201.329L84.2988 221.273L65.1211 210.143L65.1671 190.199L84.3601 201.329Z" fill="#FFC400"/>
<path d="M103.414 190.199L84.3591 201.329L65.166 190.199L84.2364 179.085L103.414 190.199Z" fill="#FFDE38"/>
<path d="M291.651 144.117L291.62 156.795L279.51 163.862L279.556 151.184L291.651 144.117Z" fill="#FFB700"/>
<path d="M279.556 151.184L279.51 163.862L267.338 156.795L267.369 144.117L279.556 151.184Z" fill="#FFC400"/>
<path d="M291.65 144.117L279.554 151.184L267.367 144.117L279.478 137.05L291.65 144.117Z" fill="#FFDE38"/>
<path d="M86.903 254.309L86.857 266.971L74.7617 274.038L74.7924 261.376L86.903 254.309Z" fill="#FFB700"/>
<path d="M74.7941 261.376L74.7634 274.038L62.5762 266.971L62.6068 254.309L74.7941 261.376Z" fill="#FFC400"/>
<path d="M86.9034 254.308L74.7927 261.375L62.6055 254.308L74.7161 247.241L86.9034 254.308Z" fill="#FFDE38"/>
<path d="M238.15 11.7578L238.089 32.8518L217.93 44.6251L217.991 23.5312L238.15 11.7578Z" fill="#D5D6E0"/>
<path d="M217.991 23.5312L217.93 44.6251L197.648 32.8518L197.71 11.7578L217.991 23.5312Z" fill="#F2F3F8"/>
<path d="M238.149 11.758L217.99 23.5314L197.709 11.758L217.868 0L238.149 11.758Z" fill="#F4F4FB"/>
<path d="M251.552 255.793L251.475 279.662L228.68 292.968L228.756 269.099L251.552 255.793Z" fill="#133AA5"/>
<path d="M228.756 269.099L228.679 292.968L205.73 279.662L205.807 255.793L228.756 269.099Z" fill="#185BCC"/>
<path d="M251.553 255.794L228.757 269.1L205.809 255.794L228.604 242.487L251.553 255.794Z" fill="#4281EE"/>
<path d="M130.212 139.011L130.135 166.911L103.461 182.486L103.538 154.571L130.212 139.011Z" fill="#133AA5"/>
<path d="M103.538 154.571L103.462 182.486L76.6191 166.911L76.6958 139.011L103.538 154.571Z" fill="#185BCC"/>
<path d="M130.214 139.011L103.54 154.571L76.6973 139.011L103.371 123.436L130.214 139.011Z" fill="#4281EE"/>
<path d="M312.284 191.439L312.223 210.433L294.088 221.026L294.134 202.032L312.284 191.439Z" fill="#133AA5"/>
<path d="M294.134 202.032L294.088 221.026L275.814 210.433L275.876 191.439L294.134 202.032Z" fill="#185BCC"/>
<path d="M312.284 191.44L294.133 202.033L275.875 191.44L294.01 180.847L312.284 191.44Z" fill="#4281EE"/>
<path d="M315.734 70.1348L315.658 98.0965L288.953 113.687L289.03 85.7253L315.734 70.1348Z" fill="#D5900E"/>
<path d="M289.032 85.7253L288.955 113.687L262.066 98.0965L262.143 70.1348L289.032 85.7253Z" fill="#FFC400"/>
<path d="M315.738 70.1345L289.033 85.725L262.145 70.1345L288.849 54.5439L315.738 70.1345Z" fill="#FFDE38"/>
<path d="M267.353 107.264L267.307 122.011L253.219 130.228L253.265 115.481L267.353 107.264Z" fill="#CFCDE2"/>
<path d="M253.265 115.481L253.219 130.228L239.039 122.011L239.085 107.264L253.265 115.481Z" fill="#E7E6F1"/>
<path d="M267.352 107.263L253.264 115.48L239.084 107.263L253.172 99.0312L267.352 107.263Z" fill="#F4F4FB"/>
</svg>
