<svg width="368" height="384" viewBox="0 0 368 384" fill="none" xmlns="http://www.w3.org/2000/svg">
<path d="M273.076 76.5009L277.453 69.9184L285.269 75.1166C286.332 75.8231 287.533 76.1618 288.721 76.1618C290.741 76.1618 292.723 75.1827 293.926 73.3745L303.338 59.2224C304.254 57.8436 304.586 56.1571 304.259 54.5335C303.932 52.9099 302.974 51.483 301.595 50.5659L275.149 32.9794C272.275 31.0711 268.402 31.8496 266.492 34.7215L257.081 48.8726C255.172 51.7436 255.952 55.6188 258.824 57.5291L267.055 63.0033L262.682 69.5803C241.5 56.7228 216.926 48.9265 190.648 47.8542V35.0328H209.529C212.978 35.0328 215.773 32.2377 215.773 28.7891V6.24373C215.773 2.79508 212.978 0 209.529 0H158.477C155.028 0 152.233 2.79508 152.233 6.24373V28.7891C152.233 32.2377 155.028 35.0328 158.477 35.0328H178.161V47.8542C97.6168 51.141 33.1016 117.682 33.1016 199.018C33.1016 282.447 100.976 350.321 184.405 350.321C267.833 350.321 335.707 282.447 335.707 199.018C335.707 148.685 310.996 104.022 273.076 76.5009Z" fill="#242424"/>
<path d="M276 291.018C326.81 240.207 326.81 157.828 276 107.018C225.19 56.2074 142.81 56.2074 92 107.018C41.1898 157.828 41.1898 240.207 92 291.018C142.81 341.828 225.19 341.828 276 291.018Z" fill="white"/>
<path d="M281.512 142.721C262.013 109.079 225.609 86.3994 184.004 86.3994V199.017L86.4968 142.721C76.892 159.293 71.3867 178.524 71.3867 199.017C71.3867 219.511 76.892 238.742 86.4968 255.314C105.996 288.956 142.4 311.636 184.004 311.636C225.609 311.636 262.013 288.957 281.512 255.314C291.117 238.742 296.622 219.511 296.622 199.017C296.622 178.524 291.117 159.293 281.512 142.721Z" fill="#FFAA00"/>
<path d="M125.038 171.613L164.731 194.615C164.414 196.033 164.242 197.504 164.242 199.017C164.242 210.136 173.287 219.182 184.406 219.182C195.524 219.182 204.57 210.136 204.57 199.017C204.57 187.899 195.524 178.853 184.406 178.853C179.315 178.853 174.661 180.754 171.109 183.878L131.299 160.809C128.319 159.081 124.496 160.097 122.766 163.081C121.037 166.064 122.055 169.885 125.038 171.613Z" fill="#242424"/>
<path d="M184.406 191.341C188.638 191.341 192.082 194.784 192.082 199.017C192.082 203.251 188.638 206.695 184.406 206.695C180.173 206.695 176.729 203.251 176.729 199.017C176.729 194.784 180.173 191.341 184.406 191.341Z" fill="white"/>
<path d="M184.406 91.4435C188.232 91.4435 191.333 88.342 191.333 84.5162C191.333 80.6903 188.232 77.5889 184.406 77.5889C180.58 77.5889 177.479 80.6903 177.479 84.5162C177.479 88.342 180.58 91.4435 184.406 91.4435Z" fill="#242424"/>
<path d="M189.298 318.417C192.004 315.712 192.004 311.326 189.298 308.62C186.593 305.915 182.207 305.915 179.502 308.62C176.797 311.326 176.797 315.712 179.502 318.417C182.207 321.122 186.593 321.122 189.298 318.417Z" fill="#242424"/>
<path d="M88.7065 135.767C92.0199 137.68 93.1549 141.917 91.242 145.23C89.3291 148.543 85.0925 149.678 81.7792 147.765C78.4658 145.853 77.3308 141.616 79.2437 138.303C81.1566 134.989 85.3932 133.854 88.7065 135.767Z" fill="#242424"/>
<path d="M287.029 250.269C290.342 252.182 291.477 256.418 289.564 259.732C287.651 263.045 283.415 264.18 280.101 262.267C276.788 260.354 275.653 256.118 277.566 252.805C279.479 249.491 283.715 248.356 287.029 250.269Z" fill="#242424"/>
<path d="M81.7791 250.271C85.0925 248.358 89.329 249.493 91.2419 252.807C93.1548 256.12 92.0195 260.356 88.7064 262.269C85.3931 264.182 81.1566 263.047 79.2437 259.734C77.3308 256.421 78.4661 252.184 81.7791 250.271Z" fill="#242424"/>
<path d="M289.143 145.901C291.413 142.822 290.757 138.485 287.678 136.215C284.599 133.945 280.262 134.601 277.992 137.68C275.721 140.759 276.377 145.096 279.457 147.367C282.536 149.637 286.873 148.981 289.143 145.901Z" fill="#242424"/>
</svg>
