<svg width="266" height="240" viewBox="0 0 266 240" fill="none" xmlns="http://www.w3.org/2000/svg">
<g filter="url(#filter0_d_2818_4145)">
<path d="M48.1592 198.513C95.0375 224.487 171.042 224.488 217.919 198.514C264.798 172.539 264.798 130.427 217.919 104.453C171.041 78.4781 95.0364 78.4781 48.1587 104.452C1.28035 130.426 1.28035 172.539 48.1592 198.513Z" fill="#F6F5F5"/>
</g>
<path d="M130.031 1.03007L48.3595 48.1828C46.6935 49.1447 45.3438 51.4835 45.3438 53.4065V144.446C45.3438 146.369 46.6942 148.708 48.3595 149.67L130.032 196.823C131.698 197.785 134.398 197.785 136.064 196.823L217.736 149.67C219.402 148.708 220.752 146.369 220.752 144.446V53.4065C220.752 51.4835 219.402 49.1447 217.736 48.1828L136.062 1.02937C134.397 0.0682193 131.697 0.0682189 130.031 1.03007Z" fill="#37474F"/>
<path d="M133.05 99.5437V197.546C131.957 197.546 130.863 197.302 130.034 196.822L48.3576 149.67C46.693 148.709 45.3418 146.368 45.3418 144.446V53.4085C45.3418 51.6046 46.5328 49.4385 48.0511 48.3799C46.6999 49.348 46.8044 50.7688 48.3576 51.6673L130.034 98.8194C130.87 99.2999 131.957 99.5437 133.05 99.5437Z" fill="#263238"/>
<path d="M217.736 48.1825L136.062 1.029C134.396 0.0671555 131.695 0.0671555 130.03 1.029L48.3589 48.1825C46.6929 49.1443 46.6929 50.7031 48.3589 51.6649L130.032 98.8184C131.697 99.7802 134.398 99.7802 136.063 98.8184L217.736 51.6649C219.402 50.7038 219.402 49.1443 217.736 48.1825Z" fill="#455A64"/>
<path d="M140.213 102.956L213.584 60.5955C214.417 60.1149 215.092 60.5043 215.092 61.4661L215.093 142.922C215.093 143.883 214.418 145.053 213.585 145.533L140.214 187.894C139.381 188.375 138.706 187.986 138.706 187.024L138.705 105.568C138.705 104.606 139.381 103.437 140.213 102.956Z" fill="#263238"/>
<path d="M140.1 105.568C140.1 105.104 140.509 104.395 140.91 104.163L213.697 62.1396L213.701 142.92C213.701 143.385 213.292 144.094 212.891 144.326L140.104 186.349L140.1 105.568Z" fill="#37474F"/>
<path d="M138.967 110.204L154.895 101.014C155.218 100.827 155.616 100.827 155.939 101.014L158.521 102.504L141.797 111.838L138.967 110.204Z" fill="#455A64"/>
<path d="M158.772 103.082V114.06C158.772 114.636 158.366 115.339 157.867 115.627L141.797 124.905V111.837L157.867 102.559C158.366 102.27 158.772 102.504 158.772 103.082Z" fill="#263238"/>
<path d="M138.967 110.204L141.797 111.837V124.905L138.967 123.272L138.967 110.204Z" fill="black"/>
<path d="M148.608 112.896C149.389 112.445 150.022 112.811 150.022 113.713C150.022 114.615 149.389 115.712 148.608 116.163C147.826 116.614 147.193 116.249 147.193 115.347C147.193 114.445 147.826 113.348 148.608 112.896Z" fill="#455A64"/>
<path d="M154.266 109.63C155.048 109.179 155.681 109.544 155.681 110.446C155.681 111.348 155.048 112.445 154.266 112.896C153.485 113.348 152.852 112.982 152.852 112.08C152.852 111.178 153.485 110.081 154.266 109.63Z" fill="#455A64"/>
<path d="M138.706 110.361L134.789 112.623C133.712 113.245 132.385 113.245 131.308 112.624L128.442 110.971C128.119 110.785 127.721 110.785 127.399 110.971L124.838 112.447L131.309 115.891C132.386 116.513 133.715 116.513 134.792 115.891L141.535 111.995L138.706 110.361Z" fill="#455A64"/>
<path d="M125.465 125.584L131.309 128.958C132.387 129.58 133.715 129.58 134.793 128.957L141.536 125.062V111.994L134.793 115.89C133.715 116.512 132.387 116.512 131.309 115.89L125.465 112.517C124.966 112.228 124.561 112.462 124.561 113.039V124.017C124.56 124.594 124.965 125.296 125.465 125.584Z" fill="#37474F"/>
<path d="M133.068 129.423C133.664 129.42 134.259 129.266 134.793 128.957L141.536 125.062V111.994L134.793 115.89C134.259 116.199 133.665 116.353 133.068 116.356V129.423Z" fill="#263238"/>
<path d="M138.967 165.739L154.895 156.549C155.218 156.363 155.616 156.363 155.939 156.549L158.521 158.039L141.797 167.373L138.967 165.739Z" fill="#455A64"/>
<path d="M158.772 158.617V169.595C158.772 170.172 158.366 170.874 157.867 171.162L141.797 180.44V167.372L157.867 158.095C158.366 157.806 158.772 158.04 158.772 158.617Z" fill="#263238"/>
<path d="M138.967 165.739L141.797 167.373V180.44L138.967 178.807L138.967 165.739Z" fill="black"/>
<path d="M148.608 168.432C149.389 167.98 150.022 168.346 150.022 169.248C150.022 170.15 149.389 171.247 148.608 171.698C147.826 172.149 147.193 171.784 147.193 170.881C147.193 169.98 147.826 168.883 148.608 168.432Z" fill="#455A64"/>
<path d="M154.266 165.165C155.048 164.714 155.681 165.079 155.681 165.982C155.681 166.884 155.048 167.981 154.266 168.432C153.485 168.884 152.852 168.518 152.852 167.616C152.852 166.713 153.485 165.616 154.266 165.165Z" fill="#455A64"/>
<path d="M138.706 165.896L134.789 168.158C133.712 168.779 132.385 168.78 131.308 168.159L128.442 166.507C128.119 166.321 127.721 166.321 127.399 166.507L124.838 167.982L131.309 171.427C132.386 172.049 133.715 172.049 134.792 171.426L141.535 167.53L138.706 165.896Z" fill="#455A64"/>
<path d="M125.465 181.119L131.309 184.493C132.387 185.115 133.715 185.115 134.793 184.492L141.536 180.597V167.529L134.793 171.425C133.715 172.047 132.387 172.047 131.309 171.425L125.465 168.052C124.966 167.763 124.561 167.997 124.561 168.574V179.552C124.56 180.129 124.965 180.831 125.465 181.119Z" fill="#37474F"/>
<path d="M133.068 184.958C133.664 184.955 134.259 184.801 134.793 184.492L141.536 180.597V167.529L134.793 171.425C134.259 171.733 133.665 171.888 133.068 171.891V184.958Z" fill="#263238"/>
<path d="M188.318 112.785L188.795 111.957L185.919 110.297C185.907 110.29 185.895 110.282 185.882 110.275L185.827 110.243L185.826 110.245C183.528 108.962 180.377 109.169 176.899 111.176C169.868 115.236 164.168 125.108 164.168 133.227C164.168 137.213 165.544 140.03 167.773 141.391L167.771 141.394L167.857 141.444C167.884 141.46 167.911 141.476 167.938 141.491L170.815 143.154L171.299 142.314C172.989 142.295 174.889 141.738 176.898 140.578C183.929 136.518 189.629 126.646 189.629 118.527C189.629 116.193 189.156 114.261 188.318 112.785Z" fill="#263238"/>
<path d="M189.184 132.976C194.156 124.364 194.156 115.056 189.185 112.186C184.213 109.315 176.152 113.969 171.18 122.581C166.208 131.192 166.208 140.5 171.18 143.37C176.152 146.241 184.212 141.587 189.184 132.976Z" fill="#263238"/>
<path d="M188.725 132.715C193.697 124.104 193.697 114.796 188.726 111.925C183.754 109.055 175.693 113.709 170.721 122.32C165.749 130.931 165.749 140.239 170.721 143.11C175.693 145.98 183.754 141.326 188.725 132.715Z" fill="#37474F"/>
<path d="M181.034 117.706C180.75 117.81 180.575 117.573 180.644 117.174L181.229 113.794C181.298 113.395 181.584 112.988 181.868 112.884C182.153 112.78 182.327 113.017 182.258 113.415L181.673 116.796C181.604 117.195 181.318 117.601 181.034 117.706Z" fill="#27DEBF"/>
<path d="M176.237 121.363C176.077 121.421 175.939 121.376 175.871 121.219L174.925 119.006C174.813 118.745 174.943 118.276 175.213 117.958C175.484 117.639 175.793 117.593 175.905 117.852L176.851 120.066C176.962 120.326 176.833 120.796 176.562 121.114C176.456 121.241 176.342 121.324 176.237 121.363Z" fill="#27DEBF"/>
<path d="M172.573 127.668C172.52 127.688 172.468 127.696 172.419 127.691L170.303 127.491C170.054 127.467 169.976 127.115 170.129 126.704C170.283 126.294 170.608 125.981 170.859 126.003L172.975 126.204C173.224 126.227 173.302 126.58 173.149 126.99C173.025 127.32 172.79 127.588 172.573 127.668Z" fill="#27DEBF"/>
<path d="M168.961 136.102C168.744 136.182 168.576 136.062 168.558 135.784C168.536 135.438 168.755 134.977 169.046 134.754L171.524 132.866C171.816 132.643 172.07 132.744 172.093 133.09C172.115 133.436 171.896 133.897 171.605 134.119L169.127 136.008C169.07 136.051 169.014 136.083 168.961 136.102Z" fill="#27DEBF"/>
<path d="M171.377 141.755C171.272 141.793 171.174 141.788 171.099 141.728C170.909 141.579 170.937 141.147 171.159 140.764L173.052 137.507C173.275 137.123 173.609 136.934 173.799 137.083C173.989 137.233 173.961 137.665 173.738 138.048L171.845 141.305C171.712 141.535 171.537 141.696 171.377 141.755Z" fill="#27DEBF"/>
<path d="M176.784 142.266C176.5 142.371 176.325 142.133 176.394 141.735L176.979 138.354C177.048 137.956 177.334 137.549 177.618 137.445C177.903 137.34 178.077 137.578 178.008 137.976L177.423 141.357C177.355 141.754 177.068 142.162 176.784 142.266Z" fill="#27DEBF"/>
<path d="M183.112 137.441C182.952 137.5 182.814 137.454 182.746 137.298L181.8 135.084C181.688 134.824 181.818 134.354 182.088 134.036C182.359 133.718 182.668 133.67 182.78 133.931L183.726 136.144C183.838 136.405 183.708 136.874 183.438 137.193C183.331 137.319 183.216 137.403 183.112 137.441Z" fill="#27DEBF"/>
<path d="M187.947 129.124C187.894 129.144 187.842 129.151 187.794 129.147L185.678 128.947C185.429 128.923 185.351 128.57 185.504 128.16C185.658 127.749 185.983 127.435 186.234 127.458L188.349 127.659C188.598 127.682 188.676 128.035 188.523 128.445C188.399 128.776 188.163 129.044 187.947 129.124Z" fill="#27DEBF"/>
<path d="M186.963 122.379C186.746 122.46 186.578 122.34 186.56 122.061C186.538 121.715 186.757 121.254 187.048 121.032L189.525 119.143C189.818 118.92 190.072 119.021 190.094 119.367C190.116 119.713 189.898 120.174 189.607 120.397L187.129 122.285C187.071 122.329 187.016 122.36 186.963 122.379Z" fill="#27DEBF"/>
<path d="M185.131 118.094C185.026 118.132 184.928 118.126 184.853 118.067C184.663 117.918 184.69 117.486 184.913 117.102L186.806 113.846C187.029 113.463 187.363 113.273 187.553 113.422C187.742 113.571 187.715 114.004 187.492 114.387L185.599 117.644C185.466 117.875 185.291 118.035 185.131 118.094Z" fill="#27DEBF"/>
<path d="M185.904 119.961L185.901 119.966C184.691 118.169 182.382 117.812 179.729 119.344C175.822 121.599 172.656 127.084 172.656 131.594C172.656 134.815 174.274 136.657 176.619 136.633L176.613 136.643L182.051 136.77L188.9 124.244L185.904 119.961Z" fill="#263238"/>
<path d="M184.357 123.872C181.445 125.554 179.084 129.643 179.084 133.006C179.084 136.369 181.445 137.732 184.357 136.051C187.27 134.369 189.63 130.28 189.63 126.917C189.63 123.554 187.269 122.191 184.357 123.872Z" fill="#455A64"/>
<path d="M209.503 101.078C209.598 98.7503 208.393 96.5634 206.376 95.3982L196.946 89.9537C196.933 89.9454 196.919 89.9377 196.905 89.9301L196.904 89.9294C196.182 89.5247 195.191 89.5888 194.096 90.2205C191.886 91.4964 190.094 94.6007 190.094 97.1526C190.094 98.579 190.654 99.5297 191.533 99.8703L191.533 99.871L191.54 99.8731C191.559 99.8801 191.579 99.8849 191.598 99.8912L200.663 102.767C202.669 103.404 204.07 105.217 204.18 107.319L205.194 126.693C205.194 127.595 205.925 128.326 206.827 128.326C207.729 128.326 208.46 127.595 208.46 126.693L209.503 101.078Z" fill="#263238"/>
<defs>
<filter id="filter0_d_2818_4145" x="0.2" y="81.1717" width="265.678" height="158.622" filterUnits="userSpaceOnUse" color-interpolation-filters="sRGB">
<feFlood flood-opacity="0" result="BackgroundImageFix"/>
<feColorMatrix in="SourceAlpha" type="matrix" values="0 0 0 0 0 0 0 0 0 0 0 0 0 0 0 0 0 0 127 0" result="hardAlpha"/>
<feOffset dy="9"/>
<feGaussianBlur stdDeviation="6.4"/>
<feComposite in2="hardAlpha" operator="out"/>
<feColorMatrix type="matrix" values="0 0 0 0 0 0 0 0 0 0 0 0 0 0 0 0 0 0 0.25 0"/>
<feBlend mode="normal" in2="BackgroundImageFix" result="effect1_dropShadow_2818_4145"/>
<feBlend mode="normal" in="SourceGraphic" in2="effect1_dropShadow_2818_4145" result="shape"/>
</filter>
</defs>
</svg>
