<svg width="219" height="237" viewBox="0 0 219 237" fill="none" xmlns="http://www.w3.org/2000/svg">
<path d="M198.146 69.5342V174.767L94.3495 234.381H94.335V129.148L198.131 69.5342H198.146Z" fill="#DE5656"/>
<path d="M93.5508 234.832V129.148V128.566L94.0152 128.406L197.826 68.7923L198.232 68.6323L198.944 69.1124V174.767V175.233L94.7554 235.079L94.349 235.297L93.5653 234.832H93.5508ZM197.376 70.8726L95.1327 129.599V233.043L197.376 174.316V70.8726Z" fill="#150035"/>
<path d="M20.8418 86.6274V191.861L94.3062 234.381H94.3207V129.148L20.8563 86.6274H20.8418Z" fill="#150035"/>
<path d="M20.4204 192.53L20.0576 192.282V86.6274V86.1619L20.8558 85.7109L94.654 128.421L95.1185 128.581V234.381V234.847L94.3202 235.298L20.4204 192.53ZM21.6395 87.9657V191.41L93.5656 233.029V129.585L21.625 87.9657H21.6395Z" fill="#150035"/>
<path d="M11.3066 67.76L94.3206 115.809L207.666 50.6673V50.6527L124.667 2.58936L11.3066 67.7454V67.76Z" fill="white"/>
<path d="M10.9143 68.4439L10.5225 68.2111V67.2946L124.304 1.89126L124.696 1.70215L208.116 49.9837L208.464 50.231V51.1184L94.7555 116.464L94.3346 116.74L10.9143 68.4439ZM124.667 3.50598L12.859 67.7456L94.3346 114.892L206.142 50.6383L124.667 3.50598Z" fill="#150035"/>
<path d="M27.9814 67.76L94.3345 106.164L191.02 50.6672V50.6527L124.667 12.2485L27.9814 67.7454V67.76Z" fill="white"/>
<path d="M146.348 59.6036L120.055 44.3831V35.0516C129.237 30.3131 125.861 27.8959 144.959 41.163C144.959 41.163 144.959 41.1727 144.959 41.1824L154.354 45.6209V54.9524L146.367 59.5746L146.348 59.6036Z" fill="#150035"/>
<path d="M146.338 60.1448L146.106 59.9997L119.591 44.6535V44.3828V34.7876L128.754 29.8291L135.843 34.7128L145.894 41.182L154.777 45.3691V45.6689V55.2518L154.565 55.3968L146.299 60.1835L146.338 60.1448ZM120.507 44.112L146.347 59.0714L153.88 54.7103V45.9203L144.505 41.4915L144.457 40.9403L144.698 40.7856L136.094 35.6508L128.754 30.7961L120.507 35.5251V44.141V44.112Z" fill="#150035"/>
<path d="M146.347 50.2522L120.063 35.0413C120.063 35.0413 120.063 35.0317 120.063 35.022L128.754 29.8291C128.754 29.8291 146.116 40.9495 154.353 45.6299C154.353 45.6299 154.353 45.6396 154.353 45.6493L146.376 50.2715L146.347 50.2522Z" fill="#DE5656"/>
<path d="M146.357 50.7742L146.106 50.6485L119.591 35.3023V34.7608L119.822 34.6157L128.735 29.8291L138.641 36.0179L154.797 45.3687V45.9296L154.536 46.0649L146.367 50.7935L146.357 50.7742ZM120.951 35.0315L146.338 49.7202L153.417 45.6201L128.735 30.7961L120.951 35.0122V35.0315Z" fill="#150035"/>
<path d="M146.357 50.2618V59.5836C146.357 59.5836 146.357 59.5933 146.367 59.5836L154.344 54.9614V45.6396C154.344 45.6396 154.344 45.6299 154.334 45.6396L146.357 50.2618Z" fill="#150035"/>
<path d="M146.366 60.1261L145.894 59.8554V59.5846V49.9727L146.154 49.8373L154.343 45.0894L154.806 45.3698V45.6309V55.2041L154.594 55.3492L146.357 60.1165L146.366 60.1261ZM146.81 50.5239V58.8013L153.89 54.7013V46.4238L146.81 50.5239Z" fill="#150035"/>
<path d="M126.199 38.3193H125.282V47.6605H126.199V38.3193Z" fill="#150035"/>
<path d="M142.47 47.9419H141.554V57.2831H142.47V47.9419Z" fill="#150035"/>
<path d="M138.312 67.2315V57.7743L133.556 56.8556H133.547L133.142 59.4085C133.142 59.4085 133.142 59.4182 133.132 59.4085C132.003 58.5575 130.701 57.6969 129.206 56.8266L114.622 48.3848L68.9609 65.4716V74.8031L78.6353 80.402L94.8685 71.0028L99.0161 73.4009C108.044 78.6227 117.072 80.0345 126.129 77.617C134.154 74.3776 138.215 70.9061 138.312 67.1928V67.2315ZM123.332 63.3828C121.085 64.6883 118.847 65.4039 116.195 65.2298C113.542 65.0558 113.725 66.1291 110.745 64.4079L108.237 63.2958C108.237 63.2958 108.237 63.2861 108.237 63.2765L116.349 58.5866L120.747 61.1297C123.39 62.6576 126.698 60.1047 126.853 61.4489C127.007 62.793 125.589 62.0581 123.323 63.3732L123.332 63.3828Z" fill="#150035"/>
<path d="M78.5964 80.9731L78.3457 80.8183L68.4688 75.1034V74.8326V65.1434L68.8256 65.0467L114.622 47.9019L114.805 47.9889L129.418 56.4404C130.653 57.156 131.781 57.8812 132.794 58.6065L133.161 56.3244L133.624 56.3921L138.765 57.3881V57.7749V67.2417C138.658 71.1968 134.578 74.736 126.293 78.0818C117.101 80.5282 107.861 79.0971 98.7747 73.8366L94.849 71.5642L78.5964 80.9731ZM69.3851 74.5619L78.6061 79.8997L94.8586 70.4909L95.1094 70.6456L99.2376 73.034C108.111 78.1688 117.12 79.5709 126.004 77.2115C133.739 74.0881 137.742 70.7229 137.848 67.2321V58.152L133.913 57.3881L133.537 59.7282L133.074 59.9409L132.852 59.7959C131.704 58.9353 130.402 58.0746 128.946 57.2333L114.545 48.8979L69.3754 65.8009V74.5619H69.3851ZM113.436 65.8686C112.722 65.8686 111.95 65.6462 110.513 64.8146L107.774 63.6058V63.0063L108.025 62.8709L116.358 58.0456L116.609 58.2003L120.988 60.7339C122.3 61.4881 123.814 61.1207 125.02 60.8209C125.888 60.6082 126.515 60.4534 126.959 60.7629C127.103 60.8596 127.277 61.053 127.325 61.4011C127.46 62.5808 126.64 62.7646 125.849 62.9386C125.242 63.074 124.489 63.2481 123.573 63.7799C121.007 65.2691 118.731 65.8493 116.175 65.6849C115.326 65.6269 114.796 65.7042 114.323 65.7816C114.014 65.8299 113.744 65.8589 113.455 65.8589L113.436 65.8686ZM109.23 63.2384L110.928 63.983C112.809 65.066 113.291 64.9983 114.169 64.8629C114.661 64.7952 115.268 64.6986 116.214 64.7662C118.577 64.921 120.689 64.3698 123.091 62.9773C124.132 62.3778 125.001 62.1747 125.628 62.0393C126.428 61.8556 126.428 61.8556 126.39 61.5075C126.274 61.4591 125.666 61.6042 125.222 61.7202C123.92 62.0393 122.136 62.4841 120.506 61.5365L116.329 59.119L109.221 63.2384H109.23Z" fill="#150035"/>
<path d="M138.322 67.2513V57.7941L133.567 56.8755H133.557L133.152 59.4284C133.152 59.4284 133.152 59.438 133.143 59.4284C132.564 58.9932 131.937 58.5484 131.262 58.1132L130.799 58.6064C130.799 58.6064 119.195 65.298 116.765 65.2593V78.7682C122.166 78.9036 127.22 77.6175 131.927 74.9003C136.123 72.4731 138.255 69.9106 138.332 67.232L138.322 67.2513Z" fill="#150035"/>
<path d="M117.497 79.252C117.247 79.252 116.996 79.252 116.735 79.252H116.282L116.272 78.7782V64.8148H116.745C116.745 64.8148 116.755 64.8148 116.764 64.8148C118.684 64.8148 127.259 60.1152 130.499 58.2586L131.175 57.5333L131.503 57.7461C131.956 58.0458 132.4 58.3456 132.805 58.6454L133.171 56.3633L133.634 56.431L138.775 57.427V57.8138V67.2806C138.698 70.1236 136.46 72.8312 132.139 75.3357C127.615 77.9563 122.696 79.281 117.488 79.281L117.497 79.252ZM117.198 78.3334C122.388 78.3817 127.22 77.0956 131.686 74.5138C135.708 72.1833 137.791 69.7368 137.859 67.242V58.1619L133.924 57.398L133.547 59.7478L133.046 59.9508L132.824 59.7768C132.371 59.4287 131.859 59.0709 131.31 58.7034L131.011 58.9935C129.872 59.6511 120.324 65.1242 117.198 65.6658V78.3141V78.3334Z" fill="#150035"/>
<path d="M126.137 68.3057C117.08 70.7232 108.042 69.3114 99.0142 64.0896L94.8667 61.6914L78.6334 71.0906L68.9688 65.4917C68.9688 65.4917 68.9688 65.4821 68.9688 65.4724L114.621 39.0444L129.204 47.4863C134.741 50.6967 137.76 53.8201 138.261 56.8662C138.927 60.9565 134.895 64.7665 126.147 68.296L126.137 68.3057ZM102.805 57.0886C102.805 57.0886 102.805 57.0982 102.805 57.1079L105.978 58.9452C108.959 60.6664 111.775 61.6141 114.428 61.7882C117.08 61.9622 119.54 61.4014 121.787 60.0959C124.054 58.7808 125.115 57.456 124.96 56.1119C124.806 54.7678 123.407 53.3269 120.755 51.7991L116.357 49.2559L102.815 57.0886H102.805Z" fill="#DE5656"/>
<path d="M78.5956 71.632L78.3448 71.4773L68.4775 65.7623V65.2208L68.709 65.0757L114.573 38.5317L114.804 38.6381L129.417 47.0896C135.137 50.3968 138.175 53.5782 138.696 56.7983C139.41 61.1788 135.359 65.0854 126.302 68.731L126.254 68.7503C117.119 71.1871 107.869 69.7463 98.7834 64.4859L94.8578 62.2134L78.6052 71.6223L78.5956 71.632ZM69.8472 65.4819L78.6149 70.5586L94.8674 61.1497L95.1182 61.3045L99.2464 63.6929C108.111 68.8277 117.11 70.2298 125.993 67.8704C134.452 64.4569 138.416 60.7823 137.789 56.953C137.317 54.0617 134.346 51.0156 128.954 47.8922L114.592 39.5761L69.8375 65.4819H69.8472ZM115.345 62.2811C115.026 62.2811 114.708 62.2715 114.39 62.2521C111.679 62.0781 108.766 61.0917 105.738 59.3415L102.333 57.3688V56.8273L102.564 56.6919L116.348 48.7142L116.599 48.8689L120.978 51.4024C123.784 53.027 125.231 54.5452 125.405 56.0634C125.578 57.6009 124.44 59.09 122.01 60.5019C119.965 61.6913 117.727 62.2811 115.345 62.2811ZM103.712 57.098L106.21 58.5389C109.114 60.2214 111.892 61.1594 114.457 61.3238C117.013 61.4979 119.396 60.9467 121.556 59.6993C123.64 58.4905 124.633 57.3011 124.498 56.16C124.363 54.9706 123.022 53.6362 120.524 52.1954L116.348 49.7779L103.712 57.0884V57.098Z" fill="#150035"/>
<path d="M78.6055 71.0901V80.4119C78.6055 80.4119 78.6055 80.4216 78.6151 80.4119L94.8387 71.0224V61.7006C94.8387 61.7006 94.8387 61.6909 94.8291 61.7006L78.6055 71.0901Z" fill="#150035"/>
<path d="M78.6279 80.9632L78.1553 80.6925V80.4217V70.8485L78.3675 70.7034L94.8515 61.1592L95.3241 61.4299V61.7007V71.274L95.1119 71.419L78.6279 80.9632ZM79.0716 71.3513V79.6288L94.3982 70.7614V62.484L79.0716 71.3513Z" fill="#150035"/>
<path d="M116.351 49.2658V58.5877L111.634 61.3146C111.576 61.2952 107.342 59.7094 102.818 57.0888C102.818 57.0888 102.818 57.0791 102.818 57.0695L116.351 49.2368H116.361L116.351 49.2658Z" fill="#150035"/>
<path d="M111.795 61.8743L111.467 61.7679C111.004 61.5938 106.943 60.037 102.564 57.5035L102.323 57.3681V56.8266L102.564 56.6912L116.328 48.7231L116.801 48.9939V49.2647V58.8766L116.541 59.012L111.93 61.6809L111.785 61.8839L111.795 61.8743ZM103.712 57.0877C107.358 59.128 110.734 60.4818 111.573 60.8106L115.885 58.3157V50.0383L103.712 57.0877Z" fill="#150035"/>
<path d="M98.5042 63.5386H97.5879V72.7154H98.5042V63.5386Z" fill="#150035"/>
<path d="M71.8841 67.0483H70.9678V76.2251H71.8841V67.0483Z" fill="#150035"/>
<path d="M119.483 51.1118H118.566V60.2886H119.483V51.1118Z" fill="#150035"/>
<path d="M113.175 69.2046H112.259V78.3814H113.175V69.2046Z" fill="#150035"/>
<path d="M94.0737 106.906L27.5754 68.4437L27.1836 68.1673V67.28L124.304 11.5358L124.696 11.3467L191.412 49.9545L191.818 50.1872V51.1037L94.7413 106.833L94.3059 106.964L94.0882 106.891L94.0737 106.906ZM124.667 13.136L29.5202 67.7455L94.3349 105.248L189.467 50.6382L124.667 13.136Z" fill="#150035"/>
<path d="M207.709 50.6665V65.0099L94.3631 130.151H94.3486V115.808L207.695 50.6665H207.709Z" fill="#DE5656"/>
<path d="M93.5508 130.617V115.823V115.358L207.245 50.0123L207.651 49.7505L208.493 50.2014V65.0103V65.4758L94.7554 130.85L94.349 131.068L93.5653 130.603L93.5508 130.617ZM206.926 52.0198L95.1182 116.274V128.828L206.926 64.5739V52.0198Z" fill="#150035"/>
<path d="M11.292 67.7753V82.1186L94.3059 130.167H94.3204V115.824L11.3065 67.7607H11.292V67.7753Z" fill="#150035"/>
<path d="M10.9432 82.831L10.5078 82.5983V67.7749V67.3094L11.306 66.8584L94.7553 115.155L95.1182 115.402V130.167V130.647L94.3054 131.069L10.9432 82.831ZM12.0752 69.1132V81.6673L93.5508 128.814V116.26L12.0752 69.1132Z" fill="#150035"/>
<path d="M124.667 12.2631V19.6821L34.3962 71.4694L27.9814 67.76V67.7454L124.652 12.2485H124.667V12.2631Z" fill="#DE5656"/>
<path d="M27.5456 68.4146L27.1973 68.1673V67.28L124.26 11.5649L124.666 11.3467L125.45 11.8122V19.6967V20.1622L34.8311 72.1241L34.4102 72.4005L27.5311 68.4146H27.5456ZM123.882 13.6015L29.5193 67.7455L34.3957 70.5676L123.882 19.2312V13.5869V13.6015Z" fill="#150035"/>
<path d="M191.019 50.6524L184.605 54.3619L124.681 19.6818V12.2628C124.681 12.2628 124.681 12.2483 124.695 12.2628L191.034 50.6524V50.6669L191.019 50.6524Z" fill="#150035"/>
<path d="M124.318 20.3949L123.883 20.1622V12.2486V11.7685L124.696 11.3467L191.411 49.9545L191.818 50.1872V51.1037L185.04 55.0168L184.619 55.2932L124.318 20.3949ZM125.45 13.6015V19.2457L184.605 53.4748L189.481 50.6527L125.465 13.6015H125.45Z" fill="#150035"/>
<path d="M16.7484 71.4551H15.8486V77.7976H16.7484V71.4551Z" fill="#DE5656"/>
<path d="M203.094 53.7661H201.526V63.1198H203.094V53.7661Z" fill="#150035"/>
<path d="M100.821 112.71H99.2539V127.01H100.821V112.71Z" fill="#150035"/>
<path d="M91.6205 205.884H90.7207V223.849H91.6205V205.884Z" fill="#DE5656"/>
<path d="M91.6205 197.694H90.7207V203.527H91.6205V197.694Z" fill="#DE5656"/>
<path d="M193.806 105.378H192.238V111.735H193.806V105.378Z" fill="#150035"/>
<path d="M193.806 80.0669H192.238V103.211H193.806V80.0669Z" fill="#150035"/>
<path d="M22.9104 88.3647L22.4609 89.146L91.8226 129.238L92.2721 128.456L22.9104 88.3647Z" fill="#DE5656"/>
<path d="M88.0941 113.612H87.1943V126.312H88.0941V113.612Z" fill="#DE5656"/>
<path d="M29.9555 80.2271H29.0557V92.9266H29.9555V80.2271Z" fill="#DE5656"/>
<path d="M84.2475 111.503H83.3477V124.202H84.2475V111.503Z" fill="#DE5656"/>
<path d="M137.771 115.78L183.676 89.2168C184.924 88.4894 185.707 88.3149 186.578 88.8531L186.926 89.0131L191.774 92.068L191.193 94.9919L188.537 100.272V160.337C188.537 163.93 186.36 168.091 183.676 169.647L142.56 193.446L139.324 199.44L134.752 196.559L134.361 196.312C133.475 195.643 132.924 194.334 132.924 192.53V125.075C132.924 121.482 135.101 117.322 137.786 115.765L137.771 115.78Z" fill="#DE5656"/>
<path d="M137.728 117.948L183.632 91.3847C184.88 90.6574 185.664 90.4828 186.535 91.0211L186.883 91.1811L191.73 94.2505L191.15 97.1745L188.494 102.455V162.52C188.494 166.113 186.317 170.273 183.632 171.83L142.517 195.629L138.831 197.04L135.914 197.607L134.738 195.876C133.853 195.207 132.852 196.531 132.852 194.727V127.272C132.852 123.679 135.028 119.519 137.713 117.962L137.728 117.948Z" fill="white"/>
<path d="M133.853 196.981C132.706 196.123 132.082 194.538 132.082 192.53V125.076C132.082 121.162 134.404 116.755 137.365 115.038L183.269 88.4752C184.619 87.6897 185.765 87.3405 186.941 88.0679L192.717 91.661L192.02 95.1523L189.379 100.477V160.337C189.379 164.251 187.057 168.658 184.096 170.375L143.184 194.043L139.629 200.618L133.838 196.967L133.853 196.981ZM190.83 92.4611L186.578 89.7699L186.128 89.5517C185.736 89.3189 185.373 89.2026 184.096 89.9299L138.192 116.493C135.783 117.889 133.751 121.817 133.751 125.061V192.515C133.751 193.956 134.157 195.09 134.796 195.57L139.005 198.218L141.922 192.806L183.255 168.891C185.664 167.495 187.696 163.567 187.696 160.323V100.055L190.38 94.6868L190.816 92.4465L190.83 92.4611Z" fill="#150035"/>
<path d="M142.822 199.396L188.726 172.833C191.411 171.277 193.588 167.116 193.588 163.523V96.0689C193.588 92.4757 191.411 90.8319 188.726 92.3885L142.822 118.951C140.137 120.508 137.96 124.668 137.96 128.261V195.716C137.96 199.309 140.137 200.953 142.822 199.396Z" fill="#DE5656"/>
<path d="M139.223 200.385C137.887 199.614 137.118 197.912 137.118 195.716V128.261C137.118 124.348 139.44 119.94 142.401 118.224L188.305 91.661C189.742 90.8318 191.179 90.73 192.325 91.3992C193.661 92.1702 194.43 93.8722 194.43 96.0688V163.523C194.43 167.436 192.108 171.844 189.147 173.561L143.243 200.124C142.444 200.589 141.632 200.822 140.892 200.822C140.296 200.822 139.73 200.676 139.223 200.385ZM189.161 93.1303L143.257 119.693C140.848 121.09 138.816 125.017 138.816 128.261V195.716C138.816 197.287 139.281 198.465 140.079 198.916C140.862 199.367 141.777 199.033 142.415 198.654L188.32 172.091C190.729 170.695 192.761 166.782 192.761 163.523V96.0688C192.761 94.4977 192.296 93.3194 191.498 92.8684C191.237 92.7084 190.947 92.6502 190.671 92.6502C190.119 92.6502 189.582 92.883 189.161 93.1303Z" fill="#150035"/>
<path d="M142.793 196.995L185.374 172.353C186.883 171.48 188.117 169.123 188.117 167.101V106.804C188.117 104.782 186.883 103.851 185.374 104.724L142.793 129.366C141.283 130.239 140.05 132.596 140.05 134.618V194.915C140.05 196.937 141.283 197.868 142.793 196.995Z" fill="white"/>
<path d="M142.372 194.581C141.574 194.115 141.109 193.097 141.109 191.802V131.505C141.109 129.235 142.459 126.69 144.172 125.7L186.753 101.058C187.623 100.563 188.48 100.505 189.176 100.912C189.974 101.378 190.439 102.396 190.439 103.691V163.988C190.439 166.258 189.089 168.803 187.377 169.792L144.796 194.435C144.317 194.712 143.838 194.857 143.388 194.857C143.025 194.857 142.677 194.77 142.372 194.581ZM186.753 168.687C188.073 167.93 189.176 165.778 189.176 163.988V103.691C189.176 102.876 188.944 102.251 188.538 102.018C188.16 101.8 187.696 101.974 187.377 102.163L144.796 126.806C143.475 127.562 142.372 129.715 142.372 131.505V191.802C142.372 192.617 142.604 193.242 143.011 193.475C143.388 193.693 143.852 193.519 144.172 193.33L186.753 168.687Z" fill="#150035"/>
<path d="M137.96 126.225L133.127 123.068L132.938 193.024L133.94 196.094L138.482 198.8L138.178 127.927L137.96 126.225Z" fill="#150035"/>
<path d="M191.526 126.632L183.08 121.381C182.717 121.119 182.731 121.09 182.34 120.886L181.861 120.624C178.116 118.675 173.037 119.068 167.449 122.297C155.897 128.989 146.536 145.238 146.536 158.606C146.536 165.24 148.844 169.924 152.588 172.135L161.528 177.721L163.386 173.575L164.14 172.324C165.214 171.902 166.332 171.364 167.449 170.71C179.002 164.018 188.362 147.769 188.362 134.4C188.362 133.6 188.333 132.815 188.261 132.073L191.526 126.632Z" fill="#DE5656"/>
<path d="M191.628 129.004L183.181 123.752C182.818 123.49 182.833 123.461 182.441 123.258L181.962 122.996C178.218 121.047 173.138 121.439 167.551 124.669C155.999 131.36 146.638 147.609 146.638 160.978C146.638 167.612 152.414 170.085 156.158 172.296L158.64 173.707L162.921 176.296L163.487 175.947L164.242 174.696C165.316 174.274 166.433 173.736 167.551 173.081C179.103 166.39 188.464 150.141 188.464 136.772C188.464 135.972 188.435 135.186 188.362 134.444L191.628 129.004Z" fill="white"/>
<path d="M161.775 178.551L152.168 172.557C148.162 170.113 145.956 165.167 145.956 158.621C145.956 145.092 155.462 128.582 167.159 121.817C172.529 118.704 177.667 118.05 181.687 119.926L182.587 120.392C182.906 120.566 182.993 120.624 183.167 120.755L183.385 120.915L192.281 126.443L188.827 132.204C188.885 132.917 188.914 133.658 188.914 134.4C188.914 147.929 179.408 164.44 167.711 171.204C166.651 171.815 165.563 172.354 164.504 172.775L163.85 173.866L161.746 178.551H161.775ZM153.154 171.815L161.267 176.878L162.864 173.328L163.749 171.844L163.923 171.772C164.997 171.35 166.085 170.826 167.159 170.201C178.538 163.611 187.797 147.551 187.797 134.386C187.797 133.615 187.768 132.858 187.695 132.116V131.927L190.743 126.807L182.5 121.643C182.369 121.541 182.311 121.497 182.064 121.366L181.585 121.119C177.855 119.17 172.936 119.766 167.725 122.777C156.347 129.367 147.088 145.427 147.088 158.592C147.088 164.804 149.134 169.43 152.864 171.626L153.14 171.801L153.154 171.815Z" fill="#150035"/>
<path d="M191.569 160.889C199.737 146.709 199.735 131.382 191.565 126.653C183.395 121.925 170.151 129.588 161.983 143.767C153.815 157.947 153.817 173.275 161.988 178.003C170.158 182.731 183.402 175.069 191.569 160.889Z" fill="#150035"/>
<path d="M167.435 179.975C165.346 179.975 163.415 179.481 161.703 178.492C157.567 176.106 155.288 171.102 155.288 164.425C155.288 150.896 164.794 134.385 176.491 127.621C182.268 124.275 187.724 123.766 191.846 126.152C195.982 128.537 198.261 133.541 198.261 140.218C198.261 153.747 188.755 170.258 177.057 177.022C173.676 178.986 170.396 179.975 167.435 179.975ZM186.114 125.817C183.356 125.817 180.265 126.748 177.057 128.61C165.679 135.2 156.42 151.26 156.42 164.425C156.42 170.68 158.495 175.32 162.254 177.502C166.028 179.685 171.078 179.161 176.477 176.033C187.855 169.443 197.114 153.384 197.114 140.218C197.114 133.963 195.039 129.323 191.266 127.141C189.742 126.253 187.986 125.817 186.099 125.817H186.114Z" fill="#150035"/>
<path d="M189.509 159.912C196.652 147.737 196.785 134.533 189.807 130.42C182.829 126.306 171.382 132.841 164.239 145.016C157.095 157.19 156.962 170.394 163.94 174.508C170.918 178.621 182.365 172.086 189.509 159.912Z" fill="#DE5656"/>
<path d="M176.839 138.401L176.767 138.445C176.491 138.605 176.273 138.445 176.273 138.066V134.982C176.273 134.619 176.491 134.182 176.767 134.022L176.839 133.979C177.115 133.819 177.333 133.979 177.333 134.357V137.441C177.333 137.805 177.115 138.241 176.839 138.401Z" fill="#150035"/>
<path d="M179.902 137.092C179.611 137.165 179.452 136.932 179.524 136.554L180.235 133.077C180.308 132.699 180.598 132.335 180.888 132.262C181.179 132.19 181.338 132.422 181.266 132.801L180.555 136.277C180.482 136.655 180.177 137.019 179.902 137.092Z" fill="#150035"/>
<path d="M182.804 136.815C182.543 136.786 182.456 136.466 182.601 136.088L183.98 132.538C184.125 132.16 184.459 131.869 184.706 131.884C184.967 131.913 185.054 132.233 184.909 132.611L183.53 136.161C183.385 136.539 183.051 136.83 182.804 136.815Z" fill="#150035"/>
<path d="M185.286 137.572C185.083 137.455 185.083 137.063 185.286 136.699L187.231 133.324C187.434 132.96 187.782 132.771 187.986 132.888C188.189 133.004 188.189 133.397 187.986 133.761L186.041 137.135C185.838 137.499 185.489 137.688 185.286 137.572Z" fill="#150035"/>
<path d="M187.187 139.346C187.042 139.143 187.129 138.706 187.39 138.386L189.77 135.419C190.032 135.099 190.351 135.011 190.496 135.215C190.641 135.419 190.554 135.855 190.293 136.175L187.913 139.143C187.652 139.463 187.332 139.55 187.187 139.346Z" fill="#150035"/>
<path d="M188.377 141.994C188.304 141.703 188.464 141.267 188.754 141.02L191.41 138.663C191.7 138.416 191.99 138.43 192.063 138.721C192.136 139.012 191.976 139.448 191.686 139.696L189.03 142.052C188.74 142.3 188.449 142.285 188.377 141.994Z" fill="#150035"/>
<path d="M188.798 145.355C188.798 145.005 189.001 144.613 189.262 144.467L192.15 142.794C192.412 142.649 192.615 142.794 192.615 143.143C192.615 143.493 192.412 143.885 192.15 144.031L189.262 145.704C189.001 145.849 188.798 145.704 188.798 145.355Z" fill="#150035"/>
<path d="M188.377 149.18C188.449 148.802 188.754 148.438 189.03 148.365L191.686 147.652C191.976 147.58 192.136 147.812 192.063 148.191C191.99 148.569 191.686 148.933 191.41 149.005L188.754 149.718C188.464 149.791 188.304 149.558 188.377 149.18Z" fill="#150035"/>
<path d="M187.187 153.225C187.332 152.847 187.666 152.556 187.913 152.57L190.293 152.789C190.554 152.818 190.641 153.138 190.496 153.516C190.351 153.894 190.017 154.185 189.77 154.171L187.39 153.952C187.129 153.923 187.042 153.603 187.187 153.225Z" fill="#150035"/>
<path d="M166.419 165.24C166.564 165.444 166.477 165.88 166.216 166.2L163.836 169.168C163.574 169.488 163.255 169.575 163.11 169.371C162.965 169.168 163.052 168.731 163.313 168.411L165.693 165.444C165.954 165.124 166.274 165.036 166.419 165.24Z" fill="#150035"/>
<path d="M165.229 162.578C165.302 162.869 165.142 163.305 164.852 163.553L162.196 165.909C161.906 166.157 161.615 166.142 161.543 165.851C161.47 165.56 161.63 165.124 161.92 164.876L164.576 162.52C164.866 162.273 165.157 162.287 165.229 162.578Z" fill="#150035"/>
<path d="M164.823 159.232C164.823 159.581 164.62 159.974 164.358 160.12L161.47 161.793C161.209 161.938 161.006 161.793 161.006 161.443C161.006 161.094 161.209 160.702 161.47 160.556L164.358 158.883C164.62 158.738 164.823 158.883 164.823 159.232Z" fill="#150035"/>
<path d="M165.229 155.406C165.157 155.784 164.866 156.148 164.576 156.221L161.92 156.933C161.63 157.006 161.47 156.773 161.543 156.395C161.615 156.017 161.92 155.653 162.196 155.581L164.852 154.868C165.142 154.795 165.302 155.028 165.229 155.406Z" fill="#150035"/>
<path d="M166.419 151.363C166.274 151.741 165.94 152.032 165.693 152.017L163.313 151.799C163.052 151.77 162.965 151.45 163.11 151.072C163.255 150.693 163.589 150.402 163.836 150.417L166.216 150.635C166.477 150.664 166.564 150.984 166.419 151.363Z" fill="#150035"/>
<path d="M168.335 147.391C168.132 147.755 167.784 147.944 167.581 147.827L165.636 146.707C165.433 146.591 165.433 146.198 165.636 145.834C165.839 145.471 166.187 145.282 166.39 145.398L168.335 146.518C168.538 146.634 168.538 147.027 168.335 147.391Z" fill="#150035"/>
<path d="M170.817 143.74C170.556 144.06 170.236 144.147 170.091 143.943L168.712 141.979C168.567 141.776 168.654 141.339 168.916 141.019C169.177 140.699 169.496 140.612 169.641 140.816L171.02 142.779C171.165 142.983 171.078 143.42 170.817 143.74Z" fill="#150035"/>
<path d="M173.705 140.685C173.415 140.932 173.124 140.918 173.052 140.627L172.341 137.965C172.268 137.674 172.428 137.237 172.718 136.99C173.008 136.743 173.299 136.757 173.371 137.048L174.082 139.71C174.155 140.001 173.995 140.438 173.705 140.685Z" fill="#150035"/>
<path d="M176.839 138.401L176.767 138.445C176.491 138.605 176.273 138.445 176.273 138.066V134.982C176.273 134.619 176.491 134.182 176.767 134.022L176.839 133.979C177.115 133.819 177.333 133.979 177.333 134.357V137.441C177.333 137.805 177.115 138.241 176.839 138.401Z" fill="#150035"/>
<path d="M168.669 176.193C166.87 176.193 165.215 175.771 163.764 174.928C160.252 172.891 158.336 168.629 158.351 162.956C158.394 151.362 166.652 137.178 176.739 131.33C181.731 128.435 186.433 127.984 189.974 130.05C193.486 132.087 195.402 136.349 195.373 142.022C195.33 153.616 187.072 167.8 176.985 173.648C174.054 175.35 171.209 176.208 168.655 176.208L168.669 176.193ZM185.069 129.628C182.66 129.628 179.975 130.443 177.174 132.072C167.32 137.775 159.265 151.638 159.221 162.956C159.192 168.323 160.963 172.309 164.199 174.186C167.465 176.077 171.862 175.626 176.579 172.891C186.433 167.189 194.488 153.34 194.531 142.008C194.56 136.64 192.79 132.654 189.553 130.778C188.233 130.007 186.709 129.628 185.069 129.628Z" fill="#150035"/>
<path d="M148.743 146.503L158.176 152.017L156.434 158.097L155.883 163.174L156.173 168.237L157.45 172.455L158.786 176.005L150.15 170.128L147.611 165.662L146.595 160.483L146.769 154.853L147.567 150.649L148.743 146.503Z" fill="#150035"/>
<path d="M159.715 175.161C157.639 172.644 156.522 168.964 156.522 164.396C156.522 160.861 157.204 157.108 158.408 153.399L157.421 152.802C156.13 156.715 155.39 160.672 155.39 164.396C155.39 168.382 156.217 171.742 157.741 174.332L159.424 175.467L159.729 175.161H159.715Z" fill="#DE5656"/>
<path d="M188.842 142.94L184.677 140.351C184.503 140.22 184.503 140.205 184.314 140.103L184.082 139.972C182.239 139.012 179.742 139.201 176.985 140.802C171.296 144.089 166.681 152.105 166.681 158.694C166.681 161.967 167.813 164.266 169.656 165.357L174.053 168.106L174.968 166.07L175.33 165.459C175.867 165.255 176.404 164.993 176.956 164.659C182.645 161.371 187.26 153.356 187.26 146.766C187.26 146.373 187.245 145.98 187.216 145.617L188.827 142.94H188.842Z" fill="#DE5656"/>
<path d="M188.9 144.118L184.735 141.528C184.561 141.397 184.561 141.383 184.372 141.281L184.14 141.15C182.297 140.19 179.801 140.379 177.043 141.979C171.354 145.267 166.739 153.282 166.739 159.872C166.739 163.145 169.584 164.353 171.427 165.444L172.646 166.142L174.75 167.422L175.026 167.248L175.389 166.637C175.926 166.433 176.463 166.171 177.014 165.836C182.703 162.549 187.319 154.533 187.319 147.944C187.319 147.551 187.304 147.158 187.275 146.794L188.886 144.118H188.9Z" fill="white"/>
<path d="M174.184 168.513L169.453 165.56C167.479 164.353 166.391 161.923 166.391 158.694C166.391 152.032 171.078 143.9 176.84 140.568C179.481 139.041 182.021 138.706 183.995 139.637L184.445 139.87C184.604 139.957 184.648 139.987 184.735 140.059L184.851 140.147L189.234 142.867L187.536 145.704C187.565 146.053 187.579 146.416 187.579 146.78C187.579 153.443 182.892 161.574 177.13 164.906C176.608 165.211 176.071 165.473 175.548 165.677L175.229 166.215L174.199 168.513H174.184ZM169.932 165.197L173.937 167.699L174.721 165.953L175.156 165.226L175.244 165.197C175.766 164.993 176.303 164.731 176.84 164.426C182.442 161.182 186.999 153.268 186.999 146.78C186.999 146.402 186.984 146.024 186.955 145.66V145.573L188.465 143.056L184.401 140.51C184.401 140.51 184.3 140.438 184.183 140.379L183.951 140.248C182.108 139.288 179.684 139.579 177.13 141.063C171.528 144.307 166.971 152.221 166.971 158.709C166.971 161.763 167.987 164.047 169.816 165.124L169.961 165.211L169.932 165.197Z" fill="#150035"/>
<path d="M188.861 159.818C192.885 152.832 192.883 145.28 188.857 142.95C184.831 140.621 178.305 144.395 174.282 151.38C170.258 158.366 170.26 165.918 174.286 168.247C178.312 170.577 184.837 166.803 188.861 159.818Z" fill="#150035"/>
<path d="M176.985 169.225C175.955 169.225 174.997 168.978 174.155 168.498C172.123 167.32 170.991 164.861 170.991 161.574C170.991 154.911 175.679 146.779 181.441 143.448C184.285 141.804 186.97 141.542 189.002 142.721C191.034 143.899 192.166 146.357 192.166 149.645C192.166 156.308 187.478 164.439 181.716 167.771C180.047 168.731 178.436 169.225 176.971 169.225H176.985ZM186.186 142.546C184.822 142.546 183.313 143.012 181.731 143.928C176.129 147.172 171.572 155.086 171.572 161.574C171.572 164.658 172.588 166.942 174.445 168.018C176.303 169.094 178.785 168.833 181.455 167.291C187.057 164.047 191.614 156.133 191.614 149.645C191.614 146.561 190.598 144.277 188.741 143.201C187.986 142.764 187.13 142.546 186.201 142.546H186.186Z" fill="#150035"/>
<path d="M187.851 159.326C191.369 153.328 191.433 146.823 187.992 144.794C184.551 142.766 178.91 145.984 175.391 151.981C171.872 157.978 171.809 164.484 175.249 166.512C178.69 168.541 184.332 165.323 187.851 159.326Z" fill="#DE5656"/>
<path d="M177.581 167.349C176.695 167.349 175.883 167.146 175.157 166.724C173.43 165.72 172.487 163.625 172.501 160.818C172.53 155.101 176.594 148.118 181.557 145.238C184.024 143.812 186.332 143.594 188.074 144.598C189.801 145.602 190.744 147.696 190.729 150.504C190.7 156.221 186.637 163.204 181.673 166.084C180.222 166.928 178.829 167.349 177.566 167.349H177.581ZM185.664 144.409C184.474 144.409 183.154 144.816 181.775 145.616C176.913 148.424 172.951 155.246 172.937 160.832C172.937 163.48 173.793 165.444 175.389 166.36C177 167.291 179.163 167.073 181.485 165.72C186.346 162.913 190.308 156.09 190.338 150.504C190.338 147.856 189.481 145.893 187.885 144.976C187.232 144.598 186.492 144.409 185.679 144.409H185.664Z" fill="#150035"/>
<path d="M167.769 152.729L172.414 155.45L171.557 158.446L171.282 160.934L171.427 163.436L172.065 165.516L172.718 167.262L168.466 164.367L167.218 162.171L166.71 159.61L166.797 156.846L167.189 154.766L167.769 152.729Z" fill="#150035"/>
<path d="M173.183 166.855C172.167 165.618 171.601 163.8 171.601 161.545C171.601 159.8 171.935 157.952 172.53 156.134L172.037 155.843C171.398 157.778 171.035 159.712 171.035 161.56C171.035 163.524 171.442 165.182 172.196 166.462L173.023 167.015L173.169 166.855H173.183Z" fill="#DE5656"/>
<path d="M103.157 207.963V204.618H108.063L115.174 200.574C116.117 200.035 117.656 200.035 118.599 200.574L125.71 204.618H130.616V207.978C130.616 208.327 130.383 208.676 129.905 208.953L118.599 215.368C117.656 215.906 116.117 215.906 115.174 215.368L103.868 208.953C103.389 208.691 103.157 208.327 103.157 207.978V207.963Z" fill="#DE5656"/>
<path d="M114.927 215.79L103.607 209.375C102.998 209.026 102.649 208.517 102.649 207.964V204.938C102.649 204.487 103.012 204.109 103.477 204.109H107.932L114.942 200.137C116.016 199.526 117.786 199.526 118.86 200.137L125.856 204.109H130.355C130.79 204.109 131.138 204.458 131.138 204.894V207.964C131.138 208.517 130.79 209.026 130.18 209.375L118.875 215.79C118.323 216.096 117.627 216.256 116.916 216.256C116.204 216.256 115.508 216.096 114.956 215.79H114.927ZM125.58 205.113L118.352 201.01C117.554 200.559 116.219 200.559 115.421 201.01L108.193 205.113H103.651V207.964C103.651 208.138 103.825 208.342 104.101 208.502L115.421 214.917C116.219 215.368 117.554 215.368 118.352 214.917L129.658 208.502C129.948 208.342 130.108 208.138 130.108 207.964V205.113H125.565H125.58Z" fill="#150035"/>
<path d="M103.869 205.579L115.174 211.994C116.118 212.532 117.656 212.532 118.599 211.994L129.905 205.579C130.848 205.041 130.848 204.168 129.905 203.629L118.599 197.214C117.656 196.676 116.118 196.676 115.174 197.214L103.869 203.629C102.925 204.168 102.925 205.041 103.869 205.579Z" fill="#DE5656"/>
<path d="M114.927 212.43L103.607 206.015C102.983 205.665 102.649 205.156 102.649 204.604C102.649 204.051 102.998 203.542 103.607 203.192L114.927 196.777C116.03 196.152 117.757 196.152 118.846 196.777L130.151 203.192C130.775 203.542 131.109 204.051 131.109 204.604C131.109 205.156 130.761 205.665 130.151 206.015L118.846 212.43C118.294 212.735 117.598 212.895 116.887 212.895C116.175 212.895 115.479 212.735 114.927 212.43ZM115.421 197.65L104.101 204.065C103.81 204.225 103.651 204.429 103.651 204.604C103.651 204.778 103.825 204.982 104.101 205.142L115.421 211.557C116.219 212.008 117.554 212.008 118.352 211.557L129.658 205.142C129.948 204.982 130.108 204.778 130.108 204.604C130.108 204.429 129.934 204.225 129.658 204.065L118.352 197.65C117.961 197.432 117.424 197.315 116.887 197.315C116.35 197.315 115.813 197.432 115.421 197.65Z" fill="#150035"/>
<path d="M117.278 212.401V215.732L114.593 215.005L103.157 208.59L103.302 205.186L115.174 211.994L117.278 212.401Z" fill="#150035"/>
<path d="M138.322 177.954L124.738 185.431V201.84L138.322 194.363V177.954Z" fill="#DE5656"/>
<path d="M123.489 169.356L109.905 176.848L124.737 185.431L138.322 177.954L123.489 169.356Z" fill="#DE5656"/>
<path d="M123.635 172.615L110.051 180.092L124.883 188.69L138.467 181.198L123.635 172.615Z" fill="white"/>
<path d="M109.412 176.557V193.534L124.723 202.393L138.801 194.639V177.663L123.49 168.804L109.412 176.557ZM125.217 185.722L130.862 182.609L137.828 178.768V194.072L125.217 201.025V185.722ZM124.738 184.878L110.878 176.863L123.475 169.924L137.335 177.939L130.093 181.925L124.738 184.878Z" fill="#150035"/>
<path d="M124.099 175.713V203.658C124.07 204.676 123.373 205.709 121.995 206.48C119.179 208.08 114.622 208.08 111.807 206.48C110.428 205.695 109.731 204.676 109.702 203.658V175.713H124.099Z" fill="#DE5656"/>
<path d="M117.612 175.815H122.547V203.76C122.518 204.778 121.821 205.811 120.442 206.582C119.63 207.047 118.657 207.353 117.627 207.557V175.815H117.612Z" fill="white"/>
<path d="M111.56 206.917C110.268 206.189 109.47 205.215 109.252 204.153L109.194 175.204H124.607V203.644V204.153H124.549C124.346 205.215 123.533 206.175 122.241 206.917C120.776 207.746 118.831 208.168 116.901 208.168C114.97 208.168 113.04 207.746 111.56 206.917ZM123.606 176.222H110.21V203.454V203.644C110.239 204.531 110.892 205.389 112.068 206.044C114.738 207.557 119.092 207.557 121.763 206.044C122.938 205.375 123.591 204.531 123.606 203.644V203.513V176.222Z" fill="#150035"/>
<path d="M113.709 183.321V206.931L111.807 206.48L109.688 204.604V176.208L112.417 176.819L113.709 183.321Z" fill="#150035"/>
<path d="M103.157 177.488V174.127H108.063L115.174 170.083C116.117 169.545 117.656 169.545 118.599 170.083L125.71 174.127H130.616V177.488C130.616 177.837 130.383 178.186 129.905 178.462L118.599 184.878C117.656 185.416 116.117 185.416 115.174 184.878L103.868 178.462C103.389 178.201 103.157 177.837 103.157 177.488Z" fill="#DE5656"/>
<path d="M114.927 185.329L103.607 178.913C102.998 178.564 102.649 178.055 102.649 177.502V174.477C102.649 174.026 103.012 173.647 103.477 173.647H107.932L114.942 169.676C116.016 169.065 117.786 169.065 118.86 169.676L125.856 173.647H130.355C130.79 173.647 131.138 173.996 131.138 174.433V177.502C131.138 178.055 130.79 178.564 130.18 178.913L118.875 185.329C118.323 185.634 117.627 185.794 116.916 185.794C116.204 185.794 115.508 185.634 114.956 185.329H114.927ZM125.58 174.651L118.352 170.549C117.554 170.098 116.219 170.098 115.421 170.549L108.193 174.651H103.651V177.502C103.651 177.677 103.825 177.881 104.101 178.041L115.421 184.456C116.219 184.907 117.554 184.907 118.352 184.456L129.658 178.041C129.948 177.881 130.108 177.677 130.108 177.502V174.651H125.565H125.58Z" fill="#150035"/>
<path d="M103.869 175.117L115.174 181.533C116.118 182.071 117.656 182.071 118.599 181.533L129.905 175.117C130.848 174.579 130.848 173.706 129.905 173.168L118.599 166.753C117.656 166.215 116.118 166.215 115.174 166.753L103.869 173.168C102.925 173.706 102.925 174.579 103.869 175.117Z" fill="#DE5656"/>
<path d="M115.174 181.43L105.102 175.713L115.174 169.996C116.117 169.458 117.655 169.458 118.599 169.996L128.671 175.713L118.599 181.43C117.655 181.969 116.117 181.969 115.174 181.43Z" fill="white"/>
<path d="M114.927 181.968L103.607 175.553C102.983 175.204 102.649 174.695 102.649 174.142C102.649 173.589 102.998 173.08 103.607 172.731L114.927 166.316C116.03 165.69 117.757 165.69 118.846 166.316L130.151 172.731C130.775 173.08 131.109 173.589 131.109 174.142C131.109 174.695 130.761 175.204 130.151 175.553L118.846 181.968C118.294 182.274 117.598 182.434 116.887 182.434C116.175 182.434 115.479 182.274 114.927 181.968ZM115.421 167.189L104.101 173.604C103.81 173.764 103.651 173.968 103.651 174.142C103.651 174.317 103.825 174.52 104.101 174.68L115.421 181.096C116.219 181.547 117.554 181.547 118.352 181.096L129.658 174.68C129.948 174.52 130.108 174.317 130.108 174.142C130.108 173.968 129.934 173.764 129.658 173.604L118.352 167.189C117.961 166.97 117.424 166.854 116.887 166.854C116.35 166.854 115.813 166.97 115.421 167.189Z" fill="#150035"/>
<path d="M117.264 181.939V185.271L114.593 184.543L103.157 178.128L103.302 174.724L115.174 181.532L117.264 181.939Z" fill="#150035"/>
<path d="M113.127 184.267V183.205L109.818 181.329V182.391L113.127 184.267Z" fill="#DE5656"/>
<path d="M103.157 165.341V161.995H108.063L115.174 157.951C116.117 157.413 117.656 157.413 118.599 157.951L125.71 161.995H130.616V165.355C130.616 165.705 130.383 166.054 129.905 166.33L118.599 172.745C117.656 173.284 116.117 173.284 115.174 172.745L103.868 166.33C103.389 166.068 103.157 165.705 103.157 165.355V165.341Z" fill="#DE5656"/>
<path d="M114.927 173.167L103.607 166.752C102.998 166.403 102.649 165.894 102.649 165.341V162.315C102.649 161.864 103.012 161.486 103.477 161.486H107.932L114.942 157.515C116.016 156.904 117.786 156.904 118.86 157.515L125.856 161.486H130.355C130.79 161.486 131.138 161.835 131.138 162.272V165.341C131.138 165.894 130.79 166.403 130.18 166.752L118.875 173.167C118.323 173.473 117.627 173.633 116.916 173.633C116.204 173.633 115.508 173.473 114.956 173.167H114.927ZM125.58 162.49L118.352 158.388C117.554 157.937 116.219 157.937 115.421 158.388L108.193 162.49H103.651V165.341C103.651 165.516 103.825 165.719 104.101 165.879L115.421 172.295C116.219 172.746 117.554 172.746 118.352 172.295L129.658 165.879C129.948 165.719 130.108 165.516 130.108 165.341V162.49H125.565H125.58Z" fill="#150035"/>
<path d="M103.869 162.97L115.174 169.386C116.118 169.924 117.656 169.924 118.599 169.386L129.905 162.97C130.848 162.432 130.848 161.559 129.905 161.021L118.599 154.606C117.656 154.068 116.118 154.068 115.174 154.606L103.869 161.021C102.925 161.559 102.925 162.432 103.869 162.97Z" fill="#DE5656"/>
<path d="M114.927 169.821L103.607 163.406C102.983 163.057 102.649 162.548 102.649 161.995C102.649 161.442 102.998 160.933 103.607 160.584L114.927 154.169C116.03 153.543 117.757 153.543 118.846 154.169L130.151 160.584C130.775 160.933 131.109 161.442 131.109 161.995C131.109 162.548 130.761 163.057 130.151 163.406L118.846 169.821C118.294 170.127 117.598 170.287 116.887 170.287C116.175 170.287 115.479 170.127 114.927 169.821ZM115.421 155.042L104.101 161.457C103.81 161.617 103.651 161.821 103.651 161.995C103.651 162.17 103.825 162.373 104.101 162.533L115.421 168.949C116.219 169.4 117.554 169.4 118.352 168.949L129.658 162.533C129.948 162.373 130.108 162.17 130.108 161.995C130.108 161.821 129.934 161.617 129.658 161.457L118.352 155.042C117.961 154.823 117.424 154.707 116.887 154.707C116.35 154.707 115.813 154.823 115.421 155.042Z" fill="#150035"/>
<path d="M117.278 169.792V173.124L114.593 172.396L103.157 165.981L103.302 162.577L115.174 169.385L117.278 169.792Z" fill="#150035"/>
<path d="M138.322 135.331L124.738 142.822V159.217L138.322 151.74V135.331Z" fill="#DE5656"/>
<path d="M123.489 126.748L109.905 134.225L124.737 142.823L138.322 135.331L123.489 126.748Z" fill="#DE5656"/>
<path d="M123.635 130.007L110.051 137.484L124.883 146.067L138.467 138.59L123.635 130.007Z" fill="white"/>
<path d="M109.412 133.949V150.925L124.723 159.784L138.801 152.031V135.054L123.49 126.195L109.412 133.949ZM125.217 143.113L130.862 140L137.828 136.16V151.463L125.217 158.417V143.113ZM124.738 142.27L110.878 134.254L123.475 127.315L137.335 135.331L130.093 139.317L124.738 142.27Z" fill="#150035"/>
<path d="M124.099 133.09V161.035C124.07 162.053 123.373 163.086 121.995 163.857C119.179 165.457 114.622 165.457 111.807 163.857C110.428 163.072 109.731 162.053 109.702 161.035V133.09H124.099Z" fill="#DE5656"/>
<path d="M117.612 133.207H122.547V161.152C122.518 162.17 121.821 163.203 120.442 163.974C119.63 164.439 118.657 164.745 117.627 164.949V133.207H117.612Z" fill="white"/>
<path d="M111.56 164.294C110.268 163.566 109.47 162.592 109.252 161.53L109.194 132.581H124.607V161.02V161.53H124.549C124.346 162.592 123.533 163.552 122.241 164.294C120.776 165.123 118.831 165.545 116.901 165.545C114.97 165.545 113.04 165.123 111.56 164.294ZM123.606 133.599H110.21V160.831V161.02C110.239 161.908 110.892 162.766 112.068 163.421C114.738 164.934 119.092 164.934 121.763 163.421C122.938 162.752 123.591 161.908 123.606 161.02V160.89V133.599Z" fill="#150035"/>
<path d="M113.709 140.699V164.323L111.807 163.857L109.688 161.995V133.6L112.417 134.196L113.709 140.699Z" fill="#150035"/>
<path d="M103.157 134.88V131.52H108.063L115.174 127.475C116.117 126.937 117.656 126.937 118.599 127.475L125.71 131.52H130.616V134.88C130.616 135.229 130.383 135.578 129.905 135.855L118.599 142.27C117.656 142.808 116.117 142.808 115.174 142.27L103.868 135.855C103.389 135.593 103.157 135.229 103.157 134.88Z" fill="#DE5656"/>
<path d="M114.927 142.706L103.607 136.291C102.998 135.942 102.649 135.433 102.649 134.88V131.854C102.649 131.403 103.012 131.025 103.477 131.025H107.932L114.942 127.053C116.016 126.442 117.786 126.442 118.86 127.053L125.856 131.025H130.355C130.79 131.025 131.138 131.374 131.138 131.81V134.88C131.138 135.433 130.79 135.942 130.18 136.291L118.875 142.706C118.323 143.012 117.627 143.172 116.916 143.172C116.204 143.172 115.508 143.012 114.956 142.706H114.927ZM125.58 132.029L118.352 127.926C117.554 127.475 116.219 127.475 115.421 127.926L108.193 132.029H103.651V134.88C103.651 135.054 103.825 135.258 104.101 135.418L115.421 141.833C116.219 142.284 117.554 142.284 118.352 141.833L129.658 135.418C129.948 135.258 130.108 135.054 130.108 134.88V132.029H125.565H125.58Z" fill="#150035"/>
<path d="M103.869 132.494L115.174 138.909C116.118 139.447 117.656 139.447 118.599 138.909L129.905 132.494C130.848 131.956 130.848 131.083 129.905 130.544L118.599 124.129C117.656 123.591 116.118 123.591 115.174 124.129L103.869 130.544C102.925 131.083 102.925 131.956 103.869 132.494Z" fill="#DE5656"/>
<path d="M115.174 138.807L105.102 133.09L115.174 127.373C116.117 126.835 117.655 126.835 118.599 127.373L128.671 133.09L118.599 138.807C117.655 139.346 116.117 139.346 115.174 138.807Z" fill="white"/>
<path d="M114.927 139.36L103.607 132.945C102.983 132.596 102.649 132.087 102.649 131.534C102.649 130.981 102.998 130.472 103.607 130.123L114.927 123.707C116.03 123.082 117.757 123.082 118.846 123.707L130.151 130.123C130.775 130.472 131.109 130.981 131.109 131.534C131.109 132.087 130.761 132.596 130.151 132.945L118.846 139.36C118.294 139.666 117.598 139.826 116.887 139.826C116.175 139.826 115.479 139.666 114.927 139.36ZM115.421 124.58L104.101 130.995C103.81 131.155 103.651 131.359 103.651 131.534C103.651 131.708 103.825 131.912 104.101 132.072L115.421 138.487C116.219 138.938 117.554 138.938 118.352 138.487L129.658 132.072C129.948 131.912 130.108 131.708 130.108 131.534C130.108 131.359 129.934 131.155 129.658 130.995L118.352 124.58C117.961 124.362 117.424 124.246 116.887 124.246C116.35 124.246 115.813 124.362 115.421 124.58Z" fill="#150035"/>
<path d="M117.264 139.331V142.662L114.593 141.92L103.157 135.52L103.302 132.116L115.174 138.924L117.264 139.331Z" fill="#150035"/>
<path d="M113.127 141.644V140.582L109.818 138.705V139.767L113.127 141.644Z" fill="#DE5656"/>
</svg>
