<svg width="735" height="750" viewBox="0 0 735 750" fill="none" xmlns="http://www.w3.org/2000/svg">
<path d="M541.254 142.773C394.86 183.791 248.466 224.808 102.072 265.826C132.779 246.284 166.865 231.093 200.775 215.997C237.611 199.599 264.366 206.265 305.004 200.138C323.73 197.315 355.028 177.752 370.593 168.2C398.637 150.99 426.981 132.738 458.564 134.996C465.678 122.576 480.912 113.649 496.958 112.497C513.002 111.345 529.221 118.014 537.833 129.305C537.833 129.305 564.33 122.357 574.79 127.563L605.571 126.815L541.254 142.773Z" fill="#EBEBEB"/>
<path d="M110.031 185.047C157.962 153.942 197.294 158.325 243.041 138.09C255.527 132.567 267.294 125.79 278.982 118.959C302.979 104.932 328.197 90.159 356.619 88.5585C378.44 82.6125 400.797 78.3195 423.387 75.7365C456.369 71.964 489.738 71.8395 522.773 68.4795C408.909 87.636 218.622 148.318 110.031 185.047Z" fill="#EBEBEB"/>
<path d="M134.396 713.908C169.137 713.908 197.3 707.975 197.3 700.656C197.3 693.337 169.137 687.403 134.396 687.403C99.6553 687.403 71.4922 693.337 71.4922 700.656C71.4922 707.975 99.6553 713.908 134.396 713.908Z" fill="#E0E0E0"/>
<path d="M649.558 554.988C684.299 554.988 712.462 549.055 712.462 541.736C712.462 534.416 684.299 528.483 649.558 528.483C614.817 528.483 586.654 534.416 586.654 541.736C586.654 549.055 614.817 554.988 649.558 554.988Z" fill="#E0E0E0"/>
<path d="M93.7205 602.714L75.6875 616.302C264.499 677.93 473.194 676.875 661.372 613.343C472.073 615.002 282.524 616.506 93.7205 602.714Z" fill="#E0E0E0"/>
<path d="M611.193 216.804C612.444 213.952 613.721 211.06 615.825 208.602C617.93 206.143 621.006 204.129 624.546 203.758C628.088 203.388 632.01 205.02 633.164 207.901C633.672 201.408 634.749 194.745 638.558 189.106C642.366 183.468 649.47 179.038 657.08 179.436C664.254 179.811 670.398 184.36 673.812 189.76C677.226 195.16 678.398 193.431 679.518 199.494C682.238 196.645 687.981 197.541 690.819 200.304C693.657 203.067 694.377 206.929 694.98 210.57L606.99 218.494L611.193 216.804Z" fill="#F5F5F5"/>
<path d="M46.515 345.189C47.766 342.337 49.0425 339.445 51.147 336.987C53.2515 334.528 56.328 332.514 59.868 332.143C63.4095 331.773 67.332 333.405 68.4855 336.286C68.994 329.793 70.071 323.13 73.8795 317.491C77.688 311.853 84.792 307.423 92.4015 307.821C99.576 308.196 105.72 312.745 109.133 318.145C112.547 323.545 113.718 321.816 114.839 327.877C117.558 325.029 123.302 325.924 126.14 328.687C128.978 331.45 129.698 335.313 130.301 338.952L42.3105 346.876L46.515 345.189Z" fill="#F5F5F5"/>
<path d="M123.512 106.414C124.763 104.1 126.039 101.754 128.144 99.759C130.248 97.764 133.325 96.129 136.865 95.829C140.406 95.529 144.329 96.852 145.482 99.1905C145.991 93.921 147.068 88.515 150.876 83.94C154.685 79.365 161.789 75.771 169.398 76.0935C176.573 76.398 182.717 80.0895 186.131 84.471C189.545 88.854 190.716 87.45 191.837 92.3685C194.556 90.057 200.3 90.783 203.138 93.0255C205.976 95.268 206.696 98.4015 207.299 101.355L119.309 107.785L123.512 106.414Z" fill="#F5F5F5"/>
<path d="M323.912 697.465C323.912 697.681 305.476 697.855 282.739 697.855C259.994 697.855 241.561 697.68 241.561 697.465C241.561 697.251 259.993 697.075 282.739 697.075C305.476 697.074 323.912 697.249 323.912 697.465Z" fill="#252424"/>
<path d="M346.679 706.643C346.679 706.859 330.022 707.033 309.478 707.033C288.928 707.033 272.273 706.857 272.273 706.643C272.273 706.428 288.928 706.253 309.478 706.253C330.022 706.251 346.679 706.427 346.679 706.643Z" fill="#252424"/>
<path d="M614.954 679.57C614.954 679.786 601.983 679.96 585.987 679.96C569.985 679.96 557.018 679.785 557.018 679.57C557.018 679.356 569.985 679.18 585.987 679.18C601.983 679.18 614.954 679.356 614.954 679.57Z" fill="#252424"/>
<path d="M638.23 687.528C638.23 687.744 626.511 687.918 612.058 687.918C597.601 687.918 585.885 687.742 585.885 687.528C585.885 687.312 597.601 687.138 612.058 687.138C626.511 687.138 638.23 687.312 638.23 687.528Z" fill="#252424"/>
<path d="M631.978 671.916C631.978 672.132 620.259 672.306 605.806 672.306C591.349 672.306 579.633 672.131 579.633 671.916C579.633 671.702 591.349 671.526 605.806 671.526C620.26 671.525 631.978 671.7 631.978 671.916Z" fill="#252424"/>
<path d="M713.896 537.369C713.896 543.004 687.864 547.572 655.752 547.572C623.64 547.572 597.607 543.003 597.607 537.369C597.607 536.674 597.759 531.771 597.759 531.771C603.123 527.109 627.601 527.164 655.752 527.164C683.601 527.164 708.27 525.849 713.788 531.886C713.896 532.005 713.896 536.622 713.896 537.369Z" fill="#252424"/>
<path d="M713.896 531.598C713.896 536.73 687.864 540.889 655.752 540.889C623.64 540.889 597.607 536.73 597.607 531.598C597.607 526.467 623.64 522.307 655.752 522.307C687.865 522.306 713.896 526.467 713.896 531.598Z" fill="#484646"/>
<path d="M647.382 492.545C644.576 492.83 640.337 513.824 638.609 523.041C638.114 525.68 639.728 528.246 642.302 529.006C647.394 530.511 651.321 530.117 654.035 529.295C656.675 528.495 658.268 525.839 657.645 523.152C655.551 514.113 650.19 492.26 647.382 492.545Z" fill="#484646"/>
<path d="M660.019 505.32C658.153 505.511 655.335 519.471 654.184 525.602C653.856 527.357 654.928 529.064 656.64 529.569C660.027 530.57 662.638 530.307 664.443 529.761C666.198 529.229 667.258 527.463 666.844 525.675C665.452 519.665 661.887 505.13 660.019 505.32Z" fill="#484646"/>
<path d="M636.426 508.518C634.367 508.707 631.259 522.603 629.991 528.705C629.628 530.451 630.812 532.151 632.7 532.655C636.435 533.651 639.317 533.39 641.307 532.845C643.244 532.316 644.412 530.558 643.955 528.779C642.419 522.797 638.487 508.329 636.426 508.518Z" fill="#252424"/>
<path d="M656.46 522.308C655.251 522.419 653.427 530.576 652.683 534.156C652.47 535.181 653.164 536.178 654.273 536.474C656.466 537.059 658.156 536.906 659.325 536.586C660.462 536.276 661.147 535.244 660.879 534.2C659.977 530.688 657.67 522.197 656.46 522.308Z" fill="#252424"/>
<path d="M669.511 512.37C667.879 512.502 665.416 522.224 664.411 526.493C664.123 527.714 665.062 528.903 666.558 529.256C669.517 529.953 671.8 529.77 673.377 529.389C674.911 529.019 675.837 527.789 675.475 526.544C674.259 522.359 671.143 512.238 669.511 512.37Z" fill="#484646"/>
<g opacity="0.3">
<path d="M669.511 512.37C667.879 512.502 665.416 522.224 664.411 526.493C664.123 527.714 665.062 528.903 666.558 529.256C669.517 529.953 671.8 529.77 673.377 529.389C674.911 529.019 675.837 527.789 675.475 526.544C674.259 522.359 671.143 512.238 669.511 512.37Z" fill="black"/>
</g>
<path d="M685.722 507.351C683.572 507.525 680.326 520.337 679.002 525.962C678.622 527.571 679.86 529.139 681.831 529.602C685.731 530.52 688.74 530.28 690.817 529.778C692.839 529.289 694.059 527.669 693.582 526.029C691.98 520.514 687.874 507.177 685.722 507.351Z" fill="#484646"/>
<g opacity="0.3">
<path d="M685.722 507.351C683.572 507.525 680.326 520.337 679.002 525.962C678.622 527.571 679.86 529.139 681.831 529.602C685.731 530.52 688.74 530.28 690.817 529.778C692.839 529.289 694.059 527.669 693.582 526.029C691.98 520.514 687.874 507.177 685.722 507.351Z" fill="black"/>
</g>
<path d="M200.47 692.115C200.47 698.682 170.133 704.007 132.708 704.007C95.2843 704.007 64.9453 698.684 64.9453 692.115C64.9453 691.305 65.1208 685.592 65.1208 685.592C71.3713 680.157 99.8998 680.223 132.708 680.223C165.163 680.223 193.914 678.69 200.346 685.727C200.47 685.863 200.47 691.244 200.47 692.115Z" fill="#252424"/>
<path d="M132.708 696.218C170.132 696.218 200.47 691.37 200.47 685.389C200.47 679.409 170.132 674.561 132.708 674.561C95.2836 674.561 64.9453 679.409 64.9453 685.389C64.9453 691.37 95.2836 696.218 132.708 696.218Z" fill="#484646"/>
<path d="M122.951 639.875C119.679 640.208 114.74 664.674 112.727 675.416C112.151 678.491 114.032 681.482 117.03 682.368C122.964 684.122 127.541 683.663 130.704 682.704C133.781 681.771 135.636 678.677 134.912 675.545C132.471 665.012 126.225 639.542 122.951 639.875Z" fill="#484646"/>
<path d="M137.679 654.763C135.504 654.984 132.219 671.256 130.88 678.4C130.496 680.445 131.747 682.435 133.743 683.025C137.69 684.192 140.733 683.886 142.836 683.248C144.882 682.629 146.117 680.569 145.634 678.487C144.011 671.481 139.856 654.541 137.679 654.763Z" fill="#484646"/>
<path d="M110.187 658.491C107.787 658.711 104.165 674.907 102.687 682.017C102.264 684.053 103.644 686.032 105.845 686.619C110.198 687.78 113.556 687.476 115.875 686.841C118.133 686.223 119.493 684.174 118.962 682.101C117.171 675.131 112.589 658.27 110.187 658.491Z" fill="#252424"/>
<path d="M133.535 674.562C132.126 674.691 129.999 684.197 129.132 688.371C128.885 689.565 129.693 690.728 130.986 691.073C133.541 691.754 135.512 691.575 136.874 691.203C138.198 690.842 138.998 689.639 138.686 688.422C137.634 684.329 134.945 674.432 133.535 674.562Z" fill="#252424"/>
<path d="M148.747 662.98C146.845 663.135 143.974 674.464 142.804 679.44C142.47 680.863 143.562 682.249 145.306 682.659C148.756 683.472 151.416 683.259 153.255 682.815C155.043 682.383 156.121 680.95 155.7 679.5C154.281 674.62 150.649 662.826 148.747 662.98Z" fill="#484646"/>
<g opacity="0.3">
<path d="M148.747 662.98C146.845 663.135 143.974 674.464 142.804 679.44C142.47 680.863 143.562 682.249 145.306 682.659C148.756 683.472 151.416 683.259 153.255 682.815C155.043 682.383 156.121 680.95 155.7 679.5C154.281 674.62 150.649 662.826 148.747 662.98Z" fill="black"/>
</g>
<path d="M167.633 657.131C165.127 657.333 161.345 672.264 159.802 678.819C159.361 680.696 160.801 682.521 163.099 683.061C167.644 684.132 171.149 683.85 173.572 683.267C175.928 682.698 177.35 680.808 176.794 678.897C174.925 672.47 170.14 656.927 167.633 657.131Z" fill="#484646"/>
<g opacity="0.3">
<path d="M167.633 657.131C165.127 657.333 161.345 672.264 159.802 678.819C159.361 680.696 160.801 682.521 163.099 683.061C167.644 684.132 171.149 683.85 173.572 683.267C175.928 682.698 177.35 680.808 176.794 678.897C174.925 672.47 170.14 656.927 167.633 657.131Z" fill="black"/>
</g>
<path d="M593.399 246.982L557.076 250.936V256.735C557.076 256.735 571.914 257.368 578.273 267.967H593.397H608.522C614.88 257.368 629.718 256.735 629.718 256.735V250.936L593.399 246.982Z" fill="#E0E0E0"/>
<g opacity="0.3">
<path d="M593.399 246.982L557.076 250.936V256.735C557.076 256.735 571.914 257.368 578.273 267.967H593.397H608.522C614.88 257.368 629.718 256.735 629.718 256.735V250.936L593.399 246.982Z" fill="black"/>
</g>
<path d="M547.559 250.936H638.778L621.962 238.959H564.834L547.559 250.936Z" fill="#E0E0E0"/>
<path d="M582.553 229.241C576.12 230.835 568.474 233.75 564.84 238.958H621.967C621.967 238.958 618.03 232.35 605.653 229.13C598.09 227.162 590.14 227.361 582.553 229.241Z" fill="#E0E0E0"/>
<path d="M648.329 255.406H538.309V258.066H648.329V255.406Z" fill="#E0E0E0"/>
<path d="M619.004 267.967H568.711V270.627H619.004V267.967Z" fill="#E0E0E0"/>
<path d="M580.033 270.634L588.079 278.68H598.503L606.996 270.634H580.033Z" fill="#E0E0E0"/>
<path d="M593.669 181.386C593.885 181.386 594.059 191.716 594.059 204.456C594.059 217.2 593.885 227.529 593.669 227.529C593.453 227.529 593.279 217.201 593.279 204.456C593.279 191.716 593.453 181.386 593.669 181.386Z" fill="#252424"/>
<path d="M580.033 547.351C580.033 547.351 585.766 350.832 586.551 338.634C587.334 326.434 588.355 275.572 588.355 275.572H594.387L595 547.36L580.033 547.351Z" fill="#E0E0E0"/>
<path d="M608.854 547.351C608.854 547.351 601.025 350.832 600.242 338.634C599.459 326.434 598.438 275.572 598.438 275.572H592.406L593.974 547.512L608.854 547.351Z" fill="#E0E0E0"/>
<path d="M621.849 238.736C621.849 238.952 609.087 239.152 593.348 239.187C577.602 239.22 564.842 239.073 564.842 238.857C564.842 238.641 577.601 238.44 593.346 238.406C609.084 238.373 621.848 238.52 621.849 238.736Z" fill="#252424"/>
<path d="M597.098 177.96C597.034 177.961 597.01 177.655 596.843 177.16C596.678 176.673 596.317 175.977 595.577 175.456C594.862 174.933 593.717 174.66 592.628 175.08C591.547 175.468 590.626 176.62 590.638 177.958C590.626 179.298 591.548 180.45 592.628 180.838C593.717 181.26 594.862 180.985 595.577 180.462C596.317 179.941 596.678 179.244 596.843 178.758C597.01 178.264 597.034 177.958 597.098 177.96C597.14 177.958 597.226 178.267 597.139 178.833C597.053 179.386 596.735 180.226 595.913 180.903C595.121 181.578 593.747 181.995 592.384 181.516C591.032 181.083 589.84 179.647 589.858 177.96C589.841 176.272 591.032 174.838 592.384 174.405C593.749 173.926 595.121 174.343 595.913 175.018C596.735 175.693 597.053 176.533 597.139 177.087C597.224 177.652 597.14 177.963 597.098 177.96Z" fill="#252424"/>
<path d="M612.285 236.343H567.104C567.879 235.608 568.725 234.966 569.654 234.429L612.285 234.229V236.343Z" fill="#C73238"/>
<path d="M633.232 246.983C633.232 247.037 632.605 247.088 631.472 247.134C630.173 247.167 628.57 247.209 626.674 247.259C622.622 247.329 617.024 247.373 610.843 247.373C606.955 247.355 603.299 247.338 600.113 247.325H599.977L599.881 247.235C597.338 244.848 595.226 242.837 593.762 241.409C592.298 239.981 591.484 239.136 591.533 239.082C591.583 239.028 592.492 239.771 594.035 241.113C595.579 242.454 597.757 244.394 600.344 246.732L600.113 246.642C603.298 246.627 606.953 246.611 610.843 246.594C617.024 246.594 622.622 246.638 626.674 246.708C628.57 246.758 630.175 246.798 631.472 246.833C632.605 246.878 633.232 246.929 633.232 246.983Z" fill="#252424"/>
<path d="M619.173 270.669C619.173 270.885 607.84 271.06 593.863 271.06C579.882 271.06 568.551 270.885 568.551 270.669C568.551 270.453 579.882 270.279 593.863 270.279C607.839 270.277 619.173 270.453 619.173 270.669Z" fill="#252424"/>
<path d="M619.173 267.787C619.173 268.003 607.84 268.177 593.863 268.177C579.882 268.177 568.551 268.002 568.551 267.787C568.551 267.571 579.882 267.397 593.863 267.397C607.839 267.397 619.173 267.571 619.173 267.787Z" fill="#252424"/>
<path d="M608.86 547.351C608.86 547.351 608.815 546.883 608.767 545.97C608.722 545.037 608.658 543.682 608.572 541.912C608.418 538.324 608.19 533.068 607.897 526.3C607.345 512.718 606.546 493.087 605.557 468.807C603.654 420.202 601.023 352.993 598.105 278.496L598.351 278.844C596.889 278.265 595.182 277.941 593.469 277.975C591.6 278.002 589.747 278.452 588.201 279.199L588.423 278.859C586.161 353.298 584.121 420.415 582.646 468.945C581.872 493.188 581.247 512.784 580.813 526.342C580.581 533.098 580.401 538.344 580.276 541.924C580.207 543.691 580.153 545.043 580.117 545.974C580.077 546.886 580.036 547.353 580.036 547.353C580.036 547.353 580.024 546.885 580.038 545.971C580.057 545.038 580.084 543.687 580.12 541.92C580.21 538.338 580.342 533.089 580.512 526.333C580.887 512.773 581.428 493.176 582.097 468.928C583.512 420.399 585.469 353.278 587.64 278.836L587.647 278.599L587.862 278.496C589.51 277.701 591.472 277.225 593.454 277.195C595.267 277.159 597.079 277.503 598.636 278.119L598.873 278.214L598.882 278.469C601.708 352.971 604.257 420.183 606.1 468.789C606.984 493.074 607.699 512.707 608.193 526.293C608.422 533.062 608.601 538.321 608.722 541.911C608.773 543.682 608.814 545.037 608.841 545.971C608.869 546.882 608.86 547.351 608.86 547.351Z" fill="#252424"/>
<path d="M340.558 142.047L294.826 111.63V215.651L334.315 182.423L340.558 142.047Z" fill="#E0E0E0"/>
<path d="M301.808 117.208C302.024 117.208 302.198 134.76 302.198 156.405C302.198 178.057 302.022 195.604 301.808 195.604C301.592 195.604 301.418 178.057 301.418 156.405C301.418 134.76 301.593 117.208 301.808 117.208Z" fill="#252424"/>
<path d="M311.099 123.306C311.315 123.306 311.489 140.858 311.489 162.503C311.489 184.155 311.314 201.702 311.099 201.702C310.885 201.702 310.709 184.155 310.709 162.503C310.707 140.858 310.883 123.306 311.099 123.306Z" fill="#252424"/>
<path d="M320.47 128.082C320.686 128.082 320.86 145.634 320.86 167.277C320.86 188.93 320.685 206.477 320.47 206.477C320.254 206.477 320.08 188.93 320.08 167.277C320.08 145.634 320.256 128.082 320.47 128.082Z" fill="#252424"/>
<path d="M329.849 134.343C330.065 134.343 330.239 151.562 330.239 172.796C330.239 194.037 330.063 211.253 329.849 211.253C329.633 211.253 329.459 194.039 329.459 172.796C329.459 151.562 329.633 134.343 329.849 134.343Z" fill="#252424"/>
<path d="M353.833 118.371C350.638 118.371 275.554 184.537 281.944 320.545V590.725H353.833V118.371Z" fill="#C73238"/>
<path d="M294.128 506.331C293.912 506.331 293.738 442.445 293.738 363.656C293.738 284.838 293.914 220.967 294.128 220.967C294.343 220.967 294.518 284.84 294.518 363.656C294.518 442.445 294.344 506.331 294.128 506.331Z" fill="#252424"/>
<g opacity="0.3">
<path d="M353.83 273.144C350.98 273.369 314.266 307.428 314.266 307.428V520.217H353.83V273.144Z" fill="black"/>
</g>
<path d="M329.849 496.223C329.633 496.223 329.459 450.806 329.459 394.794C329.459 338.763 329.634 293.355 329.849 293.355C330.063 293.355 330.239 338.763 330.239 394.794C330.239 450.806 330.065 496.223 329.849 496.223Z" fill="#252424"/>
<path d="M338.812 487.941C338.596 487.941 338.422 442.524 338.422 386.513C338.422 330.482 338.597 285.074 338.812 285.074C339.028 285.074 339.202 330.482 339.202 386.513C339.202 442.524 339.028 487.941 338.812 487.941Z" fill="#252424"/>
<path d="M347.78 479.661C347.564 479.661 347.389 434.398 347.389 378.579C347.389 322.738 347.564 277.486 347.78 277.486C347.996 277.486 348.17 322.738 348.17 378.579C348.17 434.4 347.996 479.661 347.78 479.661Z" fill="#252424"/>
<path d="M353.836 233.708H321.859V237.741H353.836V233.708Z" fill="#484646"/>
<path d="M353.836 242.548H321.859V246.166H353.836V242.548Z" fill="#484646"/>
<path d="M353.836 251.495H321.859V255.113H353.836V251.495Z" fill="#484646"/>
<path d="M318.994 242.548H314.654V246.166H318.994V242.548Z" fill="#484646"/>
<path d="M312.256 242.548H307.916V246.166H312.256V242.548Z" fill="#484646"/>
<path d="M342.189 129.553C342.243 129.553 342.294 130.449 342.34 132.069C342.372 133.822 342.414 136.132 342.465 138.927C342.535 144.718 342.579 152.718 342.579 161.554C342.555 168.144 342.532 174.265 342.513 179.413L342.189 179.089C344.304 179.112 346.251 179.133 348 179.151C348.216 179.154 348.427 179.157 348.636 179.16L348.792 179.163H348.811H348.816C348.819 179.053 348.817 180.115 348.816 179.665H348.805H348.766L348.69 179.664L348.385 179.659L348.085 179.655L347.938 179.652H347.934C347.931 179.755 347.934 178.75 347.935 179.176H347.944H347.962H347.998L348.072 179.178C348.265 179.181 348.456 179.184 348.642 179.187C349.375 179.2 350.058 179.215 350.689 179.227C351.835 179.263 352.783 179.292 353.551 179.316C354.211 179.347 354.561 179.38 354.561 179.413C354.561 179.446 354.21 179.479 353.551 179.511C352.783 179.535 351.835 179.563 350.689 179.599C350.059 179.611 349.377 179.625 348.642 179.64C348.454 179.643 348.265 179.646 348.072 179.649L347.998 179.65H347.962H347.944H347.935C347.934 180.076 347.931 179.071 347.934 179.175H347.938L348.085 179.172L348.385 179.167L348.69 179.163L348.766 179.161H348.805L348.816 179.163C348.817 178.713 348.819 179.775 348.816 179.665L348.811 179.664H348.792L348.636 179.665C348.427 179.668 348.214 179.671 348 179.674C346.251 179.692 344.305 179.713 342.189 179.736L341.866 179.739L341.865 179.412C341.845 174.264 341.823 168.142 341.799 161.553C341.799 152.718 341.842 144.717 341.913 138.925C341.964 136.131 342.006 133.819 342.037 132.067C342.084 130.449 342.135 129.553 342.189 129.553Z" fill="#252424"/>
<path d="M353.831 185.004H343.012V189.096H353.831V185.004Z" fill="#484646"/>
<path d="M320.872 504.502C320.656 504.502 320.482 459.085 320.482 403.074C320.482 347.043 320.658 301.635 320.872 301.635C321.088 301.635 321.262 347.043 321.262 403.074C321.262 459.085 321.088 504.502 320.872 504.502Z" fill="#252424"/>
<path d="M518.372 205.323C515.753 205.323 454.198 259.568 459.437 371.07V592.569H518.372V205.323Z" fill="#E0E0E0"/>
<path d="M469.429 523.38C469.213 523.38 469.039 471.005 469.039 406.412C469.039 341.796 469.215 289.431 469.429 289.431C469.644 289.431 469.819 341.796 469.819 406.412C469.819 471.005 469.645 523.38 469.429 523.38Z" fill="#252424"/>
<path d="M518.373 332.21C516.038 332.394 485.938 360.317 485.938 360.317V534.765H518.373V332.21Z" fill="#484646"/>
<path d="M518.372 299.879H492.156V303.185H518.372V299.879Z" fill="#484646"/>
<path d="M518.372 307.125H492.156V310.091H518.372V307.125Z" fill="#484646"/>
<path d="M518.372 314.46H492.156V317.426H518.372V314.46Z" fill="#484646"/>
<path d="M489.812 307.125H486.256V310.091H489.812V307.125Z" fill="#484646"/>
<path d="M484.288 307.125H480.73V310.091H484.288V307.125Z" fill="#484646"/>
<path d="M508.831 214.49C508.885 214.49 508.936 215.225 508.983 216.552C509.016 218.031 509.056 219.918 509.107 222.174C509.178 226.922 509.221 233.481 509.221 240.725C509.197 246.117 509.175 251.126 509.155 255.365L508.831 255.041C510.559 255.063 512.152 255.083 513.595 255.102L514.117 255.111L514.245 255.114H514.261H514.266C514.267 255.005 514.267 256.067 514.266 255.617H514.258H514.227L514.164 255.615L513.913 255.611L513.667 255.606L513.546 255.605H513.541C513.54 255.708 513.541 254.703 513.543 255.129H513.55H513.565H513.595L513.655 255.131L514.123 255.14C514.722 255.153 515.28 255.167 515.802 255.18C517.827 255.236 518.976 255.299 518.976 255.366C518.976 255.434 517.825 255.497 515.802 255.552C515.281 255.564 514.722 255.578 514.123 255.593L513.655 255.602L513.595 255.603H513.565H513.55H513.543C513.541 256.029 513.54 255.024 513.541 255.128H513.546L513.667 255.126L513.913 255.122L514.164 255.117L514.227 255.116H514.258L514.266 255.114C514.267 254.664 514.269 255.728 514.266 255.618H514.261H514.245L514.117 255.62L513.595 255.629C512.154 255.647 510.559 255.668 508.831 255.69L508.509 255.695L508.507 255.366C508.488 251.127 508.465 246.117 508.441 240.726C508.441 233.483 508.485 226.925 508.555 222.176C508.605 219.92 508.647 218.033 508.68 216.554C508.726 215.225 508.777 214.49 508.831 214.49Z" fill="#252424"/>
<path d="M518.377 259.95H509.506V263.306H518.377V259.95Z" fill="#484646"/>
<path d="M408.111 221.224C408.327 221.224 408.501 229.918 408.501 240.642C408.501 251.368 408.325 260.061 408.111 260.061C407.896 260.061 407.721 251.368 407.721 240.642C407.721 229.918 407.895 221.224 408.111 221.224Z" fill="#252424"/>
<path d="M418.687 170.37C418.903 170.37 419.077 190.468 419.077 215.256C419.077 240.052 418.901 260.146 418.687 260.146C418.471 260.146 418.297 240.052 418.297 215.256C418.297 190.47 418.472 170.37 418.687 170.37Z" fill="#252424"/>
<path d="M434.281 257.821H397.51V600.81H434.281V257.821Z" fill="#E0E0E0"/>
<path d="M434.281 571.726H409.828V301.531L434.281 282.052V571.726Z" fill="#252424"/>
<path d="M433.369 320.352C433.369 320.568 428.077 320.742 421.55 320.742C415.021 320.742 409.73 320.566 409.73 320.352C409.73 320.136 415.021 319.962 421.55 319.962C428.077 319.962 433.369 320.136 433.369 320.352Z" fill="#484646"/>
<path d="M433.369 352.245C433.369 352.461 428.077 352.635 421.55 352.635C415.021 352.635 409.73 352.459 409.73 352.245C409.73 352.029 415.021 351.855 421.55 351.855C428.077 351.855 433.369 352.03 433.369 352.245Z" fill="#484646"/>
<path d="M433.369 384.139C433.369 384.355 428.077 384.529 421.55 384.529C415.021 384.529 409.73 384.354 409.73 384.139C409.73 383.923 415.021 383.749 421.55 383.749C428.077 383.748 433.369 383.923 433.369 384.139Z" fill="#484646"/>
<path d="M433.369 416.032C433.369 416.248 428.077 416.422 421.55 416.422C415.021 416.422 409.73 416.247 409.73 416.032C409.73 415.816 415.021 415.642 421.55 415.642C428.077 415.642 433.369 415.816 433.369 416.032Z" fill="#484646"/>
<path d="M433.369 447.926C433.369 448.142 428.077 448.316 421.55 448.316C415.021 448.316 409.73 448.14 409.73 447.926C409.73 447.711 415.021 447.536 421.55 447.536C428.077 447.536 433.369 447.711 433.369 447.926Z" fill="#484646"/>
<path d="M433.369 479.82C433.369 480.036 428.077 480.21 421.55 480.21C415.021 480.21 409.73 480.034 409.73 479.82C409.73 479.604 415.021 479.43 421.55 479.43C428.077 479.428 433.369 479.604 433.369 479.82Z" fill="#484646"/>
<path d="M433.369 511.713C433.369 511.929 428.077 512.103 421.55 512.103C415.021 512.103 409.73 511.929 409.73 511.713C409.73 511.497 415.021 511.323 421.55 511.323C428.077 511.323 433.369 511.497 433.369 511.713Z" fill="#484646"/>
<path d="M433.369 543.607C433.369 543.823 428.077 543.997 421.55 543.997C415.021 543.997 409.73 543.822 409.73 543.607C409.73 543.393 415.021 543.217 421.55 543.217C428.077 543.216 433.369 543.391 433.369 543.607Z" fill="#484646"/>
<path d="M422.075 168.037C422.011 168.039 421.987 167.736 421.822 167.247C421.658 166.765 421.3 166.077 420.569 165.562C419.861 165.046 418.73 164.776 417.655 165.192C416.587 165.576 415.676 166.714 415.688 168.036C415.676 169.359 416.587 170.497 417.655 170.881C418.732 171.297 419.863 171.027 420.571 170.511C421.303 169.996 421.66 169.308 421.823 168.826C421.987 168.337 422.011 168.036 422.075 168.037C422.117 168.036 422.201 168.342 422.117 168.901C422.033 169.449 421.718 170.281 420.905 170.95C420.121 171.619 418.76 172.032 417.41 171.558C416.071 171.129 414.89 169.707 414.908 168.036C414.892 166.365 416.072 164.944 417.41 164.515C418.762 164.041 420.121 164.454 420.905 165.123C421.718 165.792 422.033 166.624 422.119 167.172C422.201 167.733 422.117 168.039 422.075 168.037Z" fill="#252424"/>
<path d="M680.118 610.032C680.118 620.391 537.219 628.789 360.947 628.789C184.674 628.789 41.7754 620.391 41.7754 610.032C41.7754 608.754 42.6034 599.744 42.6034 599.744C72.0454 591.173 206.415 591.276 360.947 591.276C513.819 591.276 649.236 588.858 679.529 599.957C680.118 600.171 680.118 608.656 680.118 610.032Z" fill="#252424"/>
<path d="M360.947 619.857C537.22 619.857 680.118 611.459 680.118 601.1C680.118 590.74 537.22 582.342 360.947 582.342C184.673 582.342 41.7754 590.74 41.7754 601.1C41.7754 611.459 184.673 619.857 360.947 619.857Z" fill="#484646"/>
<path d="M105.55 383.148L74.1719 386.565V391.575C74.1719 391.575 86.9894 392.123 92.4839 401.279H105.55H118.617C124.11 392.123 136.929 391.575 136.929 391.575V386.565L105.55 383.148Z" fill="#E0E0E0"/>
<g opacity="0.3">
<path d="M105.55 383.148L74.1719 386.565V391.575C74.1719 391.575 86.9894 392.123 92.4839 401.279H105.55H118.617C124.11 392.123 136.929 391.575 136.929 391.575V386.565L105.55 383.148Z" fill="black"/>
</g>
<path d="M65.9473 386.564H144.751L130.224 376.215H80.8723L65.9473 386.564Z" fill="#E0E0E0"/>
<path d="M96.1741 367.821C90.6151 369.198 84.0106 371.717 80.8711 376.217H130.223C130.223 376.217 126.822 370.508 116.13 367.725C109.596 366.024 102.728 366.197 96.1741 367.821Z" fill="#E0E0E0"/>
<path d="M153.003 390.424H57.957V392.723H153.003V390.424Z" fill="#E0E0E0"/>
<path d="M127.666 401.276H84.2168V403.574H127.666V401.276Z" fill="#E0E0E0"/>
<path d="M93.9961 403.58L100.949 410.531H109.952L117.29 403.58H93.9961Z" fill="#E0E0E0"/>
<path d="M105.786 326.479C106.002 326.479 106.176 335.403 106.176 346.41C106.176 357.42 106.001 366.342 105.786 366.342C105.57 366.342 105.396 357.42 105.396 346.41C105.396 335.403 105.572 326.479 105.786 326.479Z" fill="#252424"/>
<path d="M93.9961 602.431C93.9961 602.431 98.9491 472.863 99.6256 462.324C100.302 451.785 101.186 407.845 101.186 407.845H106.397L106.926 602.439L93.9961 602.431Z" fill="#E0E0E0"/>
<path d="M118.897 602.431C118.897 602.431 112.135 472.863 111.457 462.324C110.78 451.785 109.897 407.845 109.897 407.845H104.686L106.04 602.439L118.897 602.431Z" fill="#E0E0E0"/>
<path d="M130.121 376.023C130.121 376.239 119.096 376.437 105.498 376.465C91.8961 376.494 80.8726 376.342 80.8711 376.126C80.8711 375.91 91.8931 375.712 105.497 375.684C119.094 375.655 130.119 375.807 130.121 376.023Z" fill="#252424"/>
<path d="M108.743 323.52C108.6 323.573 108.69 322.331 107.406 321.387C106.793 320.946 105.821 320.72 104.898 321.078C103.983 321.411 103.205 322.386 103.215 323.519C103.205 324.651 103.983 325.628 104.898 325.961C105.821 326.321 106.794 326.094 107.408 325.652C108.69 324.708 108.602 323.466 108.743 323.52C108.786 323.519 108.867 323.786 108.797 324.279C108.728 324.762 108.456 325.497 107.741 326.091C107.051 326.685 105.849 327.054 104.652 326.637C103.466 326.259 102.419 325.001 102.434 323.519C102.42 322.038 103.467 320.78 104.652 320.402C105.849 319.985 107.051 320.354 107.741 320.948C108.456 321.542 108.728 322.277 108.797 322.76C108.867 323.255 108.788 323.522 108.743 323.52Z" fill="#252424"/>
<path d="M121.864 373.956H82.832C83.5025 373.322 84.233 372.767 85.034 372.302L121.864 372.129V373.956Z" fill="#C73238"/>
<path d="M139.951 383.148C139.951 383.202 139.409 383.253 138.431 383.299C137.452 383.346 136.036 383.388 134.285 383.424C130.784 383.494 125.95 383.538 120.608 383.538C117.256 383.52 114.103 383.503 111.34 383.49L111.203 383.488L111.107 383.398C108.914 381.333 107.093 379.591 105.835 378.351C104.576 377.112 103.877 376.375 103.928 376.32C103.978 376.266 104.77 376.9 106.108 378.054C107.446 379.207 109.333 380.877 111.571 382.894L111.338 382.804C114.101 382.791 117.254 382.774 120.607 382.756C125.948 382.756 130.783 382.8 134.284 382.87C136.034 382.905 137.45 382.948 138.43 382.995C139.409 383.041 139.951 383.094 139.951 383.148Z" fill="#252424"/>
<path d="M127.816 403.61C127.816 403.826 118.026 404 105.951 404C93.873 404 84.084 403.824 84.084 403.61C84.084 403.394 93.873 403.22 105.951 403.22C118.024 403.22 127.816 403.394 127.816 403.61Z" fill="#252424"/>
<path d="M127.816 401.121C127.816 401.337 118.026 401.511 105.951 401.511C93.873 401.511 84.084 401.336 84.084 401.121C84.084 400.905 93.873 400.731 105.951 400.731C118.024 400.731 127.816 400.905 127.816 401.121Z" fill="#252424"/>
<path d="M109.939 410.358C109.855 410.576 107.895 409.871 105.402 409.977C102.906 410.046 100.999 410.886 100.902 410.675C100.783 410.513 102.676 409.278 105.375 409.196C108.072 409.089 110.046 410.19 109.939 410.358Z" fill="#252424"/>
<path d="M212.424 502.753L281.938 482.949L281.763 496.974L212.424 519.219V504.502" fill="#484646"/>
<path d="M160.199 595.901H277.079L281.936 493.182L207.755 514.548L128.402 547.845L122.801 562.968L160.199 595.901Z" fill="#252424"/>
<path d="M169.705 609.338C169.705 609.338 107.845 603.578 106.764 602.586C105.684 601.596 105.477 562.968 105.477 562.968L140.013 584.205L169.705 609.338Z" fill="#252424"/>
<path d="M206.148 603.024C206.148 603.024 154.109 586.601 135.113 565.034C135.113 565.034 125.274 553.458 145.575 543.677C161.591 535.959 237.515 510.762 237.515 510.762L237.593 495.57C237.593 495.57 134.663 522.125 110.258 550.164C100.958 560.849 105.801 571.065 111.326 576.866C132.875 599.492 169.704 609.339 169.704 609.339L206.148 603.024Z" fill="#484646"/>
<path d="M365.912 301.532L273.402 375.54V402.645H292.362C317.181 403.317 343.665 427.169 343.665 459.098C343.665 488.96 321.414 512.493 292.362 515.55H273.402V595.178L365.912 595.902C366.452 594.281 385.226 346.94 385.137 301.532H365.912Z" fill="#E0E0E0"/>
<g opacity="0.3">
<path d="M365.912 301.532L273.402 375.54V402.645H292.362C317.181 403.317 343.665 427.169 343.665 459.098C343.665 488.96 321.414 512.493 292.362 515.55H273.402V595.178L365.912 595.902C366.452 594.281 385.226 346.94 385.137 301.532H365.912Z" fill="black"/>
</g>
<path d="M304.813 516.909C336.742 516.909 362.624 491.027 362.624 459.098C362.624 427.169 336.74 401.286 304.813 401.286C300.536 401.286 296.374 401.765 292.361 402.645V375.54L384.871 301.532C384.871 301.532 385.468 594.111 384.871 595.902L292.361 595.178V515.55C296.374 516.431 300.536 516.909 304.813 516.909Z" fill="#E0E0E0"/>
<path d="M349 389.141C349 389.141 349.408 389.115 350.211 389.103C351.044 389.095 352.233 389.083 353.779 389.067C356.957 389.052 361.602 389.03 367.617 389.001L367.801 389V389.139C367.839 407.538 367.915 443.846 368 485.57C367.956 516.058 367.916 543.656 367.888 563.659C367.837 573.632 367.795 581.711 367.766 587.323C367.735 590.098 367.71 592.26 367.694 593.757C367.677 594.474 367.664 595.029 367.655 595.43C367.642 595.807 367.616 596 367.616 596C367.616 596 367.589 595.807 367.576 595.43C367.567 595.029 367.554 594.474 367.538 593.757C367.521 592.26 367.496 590.098 367.465 587.323C367.436 581.711 367.395 573.633 367.343 563.659C367.314 543.656 367.275 516.058 367.231 485.57C367.318 443.844 367.393 407.538 367.43 389.139L367.614 389.278C361.601 389.249 356.954 389.227 353.776 389.212C352.23 389.197 351.041 389.185 350.208 389.177C349.409 389.166 349 389.141 349 389.141Z" fill="#252424"/>
<path d="M385.023 388.928C385.023 389.144 360.035 389.318 329.216 389.318C298.386 389.318 273.402 389.142 273.402 388.928C273.402 388.712 298.386 388.538 329.216 388.538C360.035 388.538 385.023 388.712 385.023 388.928Z" fill="#252424"/>
<path d="M340.827 556.628H356.219V555.075H340.827V556.628Z" fill="#252424"/>
<path d="M340.827 560.013H356.219V558.461H340.827V560.013Z" fill="#252424"/>
<path d="M340.827 563.397H356.219V561.845H340.827V563.397Z" fill="#252424"/>
<path d="M340.827 566.783H356.219V565.231H340.827V566.783Z" fill="#252424"/>
<path d="M340.827 570.038H356.219V568.485H340.827V570.038Z" fill="#252424"/>
<path d="M340.827 573.424H356.219V571.871H340.827V573.424Z" fill="#252424"/>
<path d="M340.827 576.808H356.219V575.255H340.827V576.808Z" fill="#252424"/>
<path d="M340.827 580.193H356.219V578.641H340.827V580.193Z" fill="#252424"/>
<path d="M340.827 396.888H356.219V395.335H340.827V396.888Z" fill="#252424"/>
<path d="M340.827 400.273H356.219V398.721H340.827V400.273Z" fill="#252424"/>
<path d="M340.827 403.657H356.219V402.105H340.827V403.657Z" fill="#252424"/>
<path d="M340.827 407.043H356.219V405.49H340.827V407.043Z" fill="#252424"/>
<path d="M273.409 378.136H318.426V375.487H273.409V378.136Z" fill="#484646"/>
<path d="M291.938 515.271C291.938 515.487 287.789 515.661 282.671 515.661C277.552 515.661 273.404 515.486 273.404 515.271C273.404 515.057 277.553 514.881 282.671 514.881C287.789 514.88 291.938 515.055 291.938 515.271Z" fill="#252424"/>
<path d="M385.138 418.971H376.381V423.245H385.138V418.971Z" fill="#484646"/>
<path d="M385.138 432.572H376.381V436.845H385.138V432.572Z" fill="#484646"/>
<path d="M385.138 446.174H376.381V450.447H385.138V446.174Z" fill="#484646"/>
<path d="M385.138 459.776H376.381V464.049H385.138V459.776Z" fill="#484646"/>
<path d="M385.138 473.378H376.381V477.651H385.138V473.378Z" fill="#484646"/>
<path d="M385.138 486.978H376.381V491.252H385.138V486.978Z" fill="#484646"/>
<path d="M385.138 500.58H376.381V504.854H385.138V500.58Z" fill="#484646"/>
<path d="M385.138 514.182H376.381V518.456H385.138V514.182Z" fill="#484646"/>
<path d="M385.138 527.783H376.381V532.056H385.138V527.783Z" fill="#484646"/>
<path d="M194.723 293.75L158.4 297.704V303.503C158.4 303.503 173.238 304.136 179.597 314.735H194.721H209.846C216.204 304.136 231.042 303.503 231.042 303.503V297.704L194.723 293.75Z" fill="#E0E0E0"/>
<g opacity="0.3">
<path d="M194.723 293.75L158.4 297.704V303.503C158.4 303.503 173.238 304.136 179.597 314.735H194.721H209.846C216.204 304.136 231.042 303.503 231.042 303.503V297.704L194.723 293.75Z" fill="black"/>
</g>
<path d="M148.883 297.704H240.102L223.287 285.725H166.16L148.883 297.704Z" fill="#E0E0E0"/>
<path d="M183.874 276.008C177.44 277.602 169.793 280.517 166.16 285.725H223.288C223.288 285.725 219.352 279.117 206.974 275.897C199.411 273.929 191.459 274.128 183.874 276.008Z" fill="#E0E0E0"/>
<path d="M249.653 302.172H139.633V304.832H249.653V302.172Z" fill="#E0E0E0"/>
<path d="M220.333 314.733H170.039V317.393H220.333V314.733Z" fill="#E0E0E0"/>
<path d="M181.35 317.4L189.396 325.446H199.818L208.311 317.4H181.35Z" fill="#E0E0E0"/>
<path d="M194.999 228.151C195.215 228.151 195.389 238.482 195.389 251.221C195.389 263.965 195.214 274.295 194.999 274.295C194.785 274.295 194.609 263.967 194.609 251.221C194.608 238.482 194.783 228.151 194.999 228.151Z" fill="#252424"/>
<path d="M181.35 594.119C181.35 594.119 187.083 397.599 187.867 385.401C188.65 373.202 189.672 322.34 189.672 322.34H195.703L196.317 594.128L181.35 594.119Z" fill="#E0E0E0"/>
<path d="M210.172 594.119C210.172 594.119 202.344 397.599 201.561 385.401C200.778 373.202 199.756 322.34 199.756 322.34H193.725L195.292 594.279L210.172 594.119Z" fill="#E0E0E0"/>
<path d="M223.166 285.503C223.166 285.719 210.404 285.92 194.664 285.954C178.919 285.987 166.158 285.84 166.158 285.624C166.158 285.408 178.917 285.207 194.663 285.173C210.402 285.138 223.166 285.287 223.166 285.503Z" fill="#252424"/>
<path d="M198.426 224.727C198.362 224.729 198.339 224.423 198.171 223.928C198.006 223.442 197.645 222.744 196.905 222.224C196.19 221.7 195.045 221.427 193.956 221.847C192.875 222.236 191.954 223.388 191.966 224.726C191.954 226.065 192.875 227.217 193.956 227.606C195.045 228.027 196.191 227.753 196.905 227.229C197.645 226.709 198.006 226.011 198.171 225.525C198.338 225.03 198.362 224.726 198.426 224.727C198.468 224.726 198.554 225.035 198.467 225.6C198.381 226.154 198.063 226.994 197.241 227.669C196.449 228.344 195.075 228.761 193.712 228.282C192.36 227.849 191.168 226.413 191.186 224.726C191.169 223.038 192.36 221.604 193.712 221.171C195.077 220.692 196.449 221.109 197.241 221.784C198.063 222.459 198.381 223.299 198.467 223.854C198.552 224.42 198.468 224.729 198.426 224.727Z" fill="#252424"/>
<path d="M213.613 283.11H168.432C169.207 282.375 170.053 281.733 170.982 281.196L213.613 280.997V283.11Z" fill="#C73238"/>
<path d="M234.548 293.749C234.548 293.803 233.921 293.854 232.789 293.901C231.491 293.934 229.886 293.976 227.99 294.025C223.939 294.096 218.341 294.139 212.159 294.139C208.271 294.121 204.616 294.105 201.43 294.091H201.293L201.197 294.001C198.655 291.615 196.543 289.603 195.079 288.175C193.615 286.747 192.8 285.903 192.85 285.849C192.899 285.795 193.808 286.537 195.352 287.878C196.895 289.219 199.073 291.159 201.661 293.497L201.428 293.407C204.613 293.392 208.268 293.377 212.158 293.359C218.339 293.359 223.937 293.403 227.989 293.473C229.885 293.523 231.49 293.563 232.787 293.598C233.923 293.643 234.548 293.694 234.548 293.749Z" fill="#252424"/>
<path d="M220.489 317.435C220.489 317.651 209.157 317.825 195.18 317.825C181.198 317.825 169.867 317.649 169.867 317.435C169.867 317.22 181.198 317.045 195.18 317.045C209.157 317.045 220.489 317.22 220.489 317.435Z" fill="#252424"/>
<path d="M220.489 314.555C220.489 314.771 209.157 314.945 195.18 314.945C181.198 314.945 169.867 314.769 169.867 314.555C169.867 314.339 181.198 314.165 195.18 314.165C209.157 314.163 220.489 314.339 220.489 314.555Z" fill="#252424"/>
<path d="M210.169 594.119C210.169 594.119 210.124 593.652 210.076 592.737C210.031 591.804 209.966 590.45 209.881 588.68C209.726 585.092 209.498 579.836 209.206 573.068C208.654 559.485 207.854 539.855 206.866 515.574C204.962 466.97 202.331 399.761 199.414 325.263L199.66 325.611C198.197 325.032 196.489 324.708 194.777 324.743C192.908 324.77 191.056 325.22 189.509 325.967L189.731 325.626C187.469 400.065 185.429 467.183 183.955 515.712C183.181 539.955 182.555 559.551 182.122 573.11C181.889 579.866 181.708 585.111 181.585 588.693C181.516 590.46 181.462 591.81 181.426 592.743C181.385 593.655 181.345 594.122 181.345 594.122C181.345 594.122 181.333 593.654 181.346 592.74C181.366 591.809 181.393 590.456 181.429 588.689C181.519 585.107 181.651 579.86 181.82 573.102C182.195 559.542 182.737 539.945 183.406 515.697C184.82 467.168 186.778 400.047 188.95 325.605L188.957 325.368L189.172 325.265C190.82 324.47 192.782 323.994 194.764 323.964C196.577 323.928 198.389 324.272 199.946 324.888L200.183 324.983L200.194 325.238C203.02 399.74 205.568 466.95 207.412 515.558C208.295 539.843 209.011 559.476 209.504 573.062C209.734 579.833 209.912 585.09 210.034 588.68C210.085 590.451 210.125 591.806 210.152 592.74C210.176 593.649 210.169 594.119 210.169 594.119Z" fill="#252424"/>
<path d="M607.092 415.097L513.545 483.024V595.19H607.092C607.41 594.234 621.003 448.056 620.942 415.097H607.092ZM558.623 547.365C556.302 547.365 554.042 547.121 551.847 546.689L551.85 546.495C535.781 543.377 527.393 529.346 527.393 512.364C527.393 495.654 535.397 481.587 551.082 478.173V478.187C553.511 477.653 556.032 477.363 558.621 477.363C577.952 477.363 593.622 493.034 593.622 512.364C593.624 531.695 577.953 547.365 558.623 547.365Z" fill="#E0E0E0"/>
<g opacity="0.3">
<path d="M607.092 415.097L513.545 483.024V595.19H607.092C607.41 594.234 621.003 448.056 620.942 415.097H607.092ZM558.623 547.365C556.302 547.365 554.042 547.121 551.847 546.689L551.85 546.495C535.781 543.377 527.393 529.346 527.393 512.364C527.393 495.654 535.397 481.587 551.082 478.173V478.187C553.511 477.653 556.032 477.363 558.621 477.363C577.952 477.363 593.622 493.034 593.622 512.364C593.624 531.695 577.953 547.365 558.623 547.365Z" fill="black"/>
</g>
<path d="M620.942 415.097L527.395 483.024V595.19H620.942C621.304 594.105 620.942 415.097 620.942 415.097ZM572.473 547.365C570.152 547.365 567.892 547.121 565.697 546.689L565.7 546.495C549.631 543.377 537.496 529.235 537.496 512.253C537.496 495.543 549.247 481.587 564.934 478.173V478.187C567.362 477.653 569.884 477.363 572.473 477.363C591.803 477.363 607.474 493.034 607.474 512.364C607.474 531.695 591.803 547.365 572.473 547.365Z" fill="#E0E0E0"/>
<path d="M593.617 425.367C593.617 425.357 593.713 425.346 593.904 425.336C594.129 425.328 594.406 425.318 594.748 425.306C595.543 425.292 596.635 425.273 598.032 425.247C600.955 425.222 605.14 425.187 610.408 425.142L610.63 425.141V425.366C610.668 442.223 610.728 470.18 610.798 501.836C610.753 527.573 610.713 550.868 610.684 567.791C610.632 576.191 610.59 583.005 610.56 587.777C610.528 590.096 610.504 591.917 610.486 593.211C610.47 593.798 610.458 594.264 610.447 594.624C610.434 594.942 610.42 595.106 610.407 595.106C610.393 595.106 610.38 594.942 610.366 594.624C610.356 594.264 610.344 593.798 610.327 593.211C610.309 591.917 610.285 590.096 610.254 587.777C610.224 583.005 610.182 576.191 610.129 567.791C610.099 550.869 610.059 527.574 610.015 501.836C610.084 470.18 610.146 442.223 610.183 425.366L610.407 425.589C605.137 425.546 600.954 425.51 598.03 425.486C596.634 425.462 595.542 425.442 594.747 425.427C594.405 425.415 594.127 425.405 593.902 425.397C593.713 425.388 593.617 425.378 593.617 425.367Z" fill="#252424"/>
<path d="M532.631 469.883C532.631 469.667 552.42 469.493 576.827 469.493C601.242 469.493 621.027 469.668 621.027 469.883C621.027 470.097 601.241 470.273 576.827 470.273C552.42 470.274 532.631 470.099 532.631 469.883Z" fill="#252424"/>
<path d="M594.27 571.413H603.588V570.473H594.27V571.413Z" fill="#252424"/>
<path d="M594.27 573.463H603.588V572.522H594.27V573.463Z" fill="#252424"/>
<path d="M594.27 575.511H603.588V574.57H594.27V575.511Z" fill="#252424"/>
<path d="M594.27 577.56H603.588V576.62H594.27V577.56Z" fill="#252424"/>
<path d="M594.27 579.531H603.588V578.591H594.27V579.531Z" fill="#252424"/>
<path d="M594.27 581.581H603.588V580.64H594.27V581.581Z" fill="#252424"/>
<path d="M594.27 583.63H603.588V582.69H594.27V583.63Z" fill="#252424"/>
<path d="M594.27 585.68H603.588V584.74H594.27V585.68Z" fill="#252424"/>
<path d="M594.27 474.703H603.588V473.763H594.27V474.703Z" fill="#252424"/>
<path d="M594.27 476.751H603.588V475.811H594.27V476.751Z" fill="#252424"/>
<path d="M594.27 478.801H603.588V477.86H594.27V478.801Z" fill="#252424"/>
<path d="M594.27 480.85H603.588V479.91H594.27V480.85Z" fill="#252424"/>
<path d="M532.479 485.484H513.543V488.072H532.479V485.484Z" fill="#484646"/>
<path d="M532.479 493.719H513.543V496.307H532.479V493.719Z" fill="#484646"/>
<path d="M532.479 501.954H513.543V504.542H532.479V501.954Z" fill="#484646"/>
<path d="M532.479 510.188H513.543V512.775H532.479V510.188Z" fill="#484646"/>
<path d="M532.479 518.423H513.543V521.01H532.479V518.423Z" fill="#484646"/>
<path d="M532.479 526.658H513.543V529.245H532.479V526.658Z" fill="#484646"/>
<path d="M532.479 534.893H513.543V537.48H532.479V534.893Z" fill="#484646"/>
<path d="M532.479 543.128H513.543V545.715H532.479V543.128Z" fill="#484646"/>
<path d="M532.479 551.361H513.543V553.949H532.479V551.361Z" fill="#484646"/>
<path d="M244.79 452.707L250.863 371.37H240.347L204.098 390.916V418.875L244.79 452.707Z" fill="#C73238"/>
<g opacity="0.3">
<path d="M244.79 452.707L250.863 371.37H240.347L204.098 390.916V418.875L244.79 452.707Z" fill="black"/>
</g>
<path d="M250.863 452.707V371.37L212.375 391.15L212.593 421.818L250.863 452.707Z" fill="#C73238"/>
<path d="M206.905 416.871H196.91V594.882H206.905V416.871Z" fill="#C73238"/>
<path d="M206.902 416.871V594.711L255.886 595.793V456.806L206.902 416.871Z" fill="#C73238"/>
<g opacity="0.3">
<path d="M255.846 465.279C255.846 465.279 219.063 478.099 220.612 523.89C222.162 569.679 256.072 575.174 256.072 575.174L255.846 465.279Z" fill="black"/>
</g>
<path d="M249.542 573.576C249.326 573.576 249.152 550.352 249.152 521.711C249.152 493.059 249.328 469.839 249.542 469.839C249.757 469.839 249.932 493.058 249.932 521.711C249.934 550.352 249.758 573.576 249.542 573.576Z" fill="#252424"/>
<path d="M241.511 566.198C241.295 566.198 241.121 545.538 241.121 520.061C241.121 494.574 241.297 473.919 241.511 473.919C241.727 473.919 241.901 494.574 241.901 520.061C241.903 545.538 241.727 566.198 241.511 566.198Z" fill="#252424"/>
<path d="M233.48 559.904C233.264 559.904 233.09 542.924 233.09 521.982C233.09 501.033 233.265 484.058 233.48 484.058C233.694 484.058 233.87 501.035 233.87 521.982C233.87 542.922 233.696 559.904 233.48 559.904Z" fill="#252424"/>
<path d="M225.451 546.371C225.235 546.371 225.061 534.957 225.061 520.88C225.061 506.798 225.236 495.387 225.451 495.387C225.665 495.387 225.841 506.799 225.841 520.88C225.841 534.956 225.667 546.371 225.451 546.371Z" fill="#252424"/>
<path d="M233.483 457.67H196.91V461.948H233.483V457.67Z" fill="white"/>
<path d="M215.197 465.045H196.91V469.323H215.197V465.045Z" fill="white"/>
<g opacity="0.3">
<path d="M206.905 416.871H196.91V594.882H206.905V416.871Z" fill="black"/>
</g>
<path d="M196.91 416.871C196.91 416.846 197.146 416.82 197.597 416.795C198.136 416.775 198.788 416.753 199.574 416.724C201.415 416.694 203.885 416.652 206.905 416.602L206.996 416.601L207.074 416.662C212.243 420.778 219.62 426.732 227.77 433.375C235.604 439.762 242.668 445.578 247.757 449.818C250.22 451.893 252.248 453.6 253.757 454.871C254.398 455.432 254.929 455.894 255.364 456.275C255.725 456.603 255.907 456.784 255.89 456.805C255.874 456.826 255.658 456.686 255.265 456.396C254.804 456.047 254.243 455.62 253.565 455.106C252.016 453.883 249.937 452.241 247.408 450.246C242.23 446.117 235.111 440.369 227.276 433.982C219.127 427.338 211.81 421.311 206.737 417.076L206.905 417.137C203.884 417.087 201.415 417.047 199.574 417.015C198.787 416.987 198.136 416.964 197.597 416.945C197.147 416.922 196.91 416.897 196.91 416.871Z" fill="#252424"/>
<path d="M212.426 391.059C212.426 391.275 210.548 391.449 208.231 391.449C205.913 391.449 204.035 391.273 204.035 391.059C204.035 390.843 205.913 390.669 208.231 390.669C210.547 390.667 212.426 390.843 212.426 391.059Z" fill="#252424"/>
<path d="M250.863 432.692H243.186V395.091L250.863 390.425V432.692Z" fill="white"/>
<path d="M221.514 465.045H217.236V469.323H221.514V465.045Z" fill="white"/>
<path d="M458.655 355.15C458.661 355.177 458.407 355.255 457.918 355.381C457.342 355.519 456.634 355.69 455.777 355.897C453.799 356.344 451.129 356.947 447.883 357.681C441.114 359.217 431.962 361.293 421.849 363.588C411.742 365.931 402.598 368.05 395.836 369.618C392.59 370.354 389.922 370.959 387.943 371.407C387.081 371.587 386.369 371.737 385.789 371.859C385.294 371.953 385.031 371.991 385.025 371.964C385.019 371.938 385.27 371.85 385.752 371.706C386.323 371.545 387.022 371.35 387.871 371.112C389.836 370.603 392.485 369.916 395.707 369.081C402.334 367.408 411.508 365.167 421.674 362.826C431.836 360.483 441.067 358.494 447.767 357.141C451.117 356.461 453.833 355.938 455.714 355.599C456.583 355.45 457.3 355.327 457.885 355.227C458.386 355.152 458.65 355.125 458.655 355.15Z" fill="#252424"/>
<path d="M273.447 402.77C273.48 402.873 272.286 403.361 270.33 404.067C268.375 404.774 265.657 405.696 262.642 406.67C259.626 407.645 256.881 408.485 254.883 409.056C252.883 409.628 251.631 409.929 251.596 409.827C251.562 409.725 252.754 409.238 254.71 408.531C256.665 407.826 259.384 406.902 262.402 405.927C265.419 404.952 268.165 404.112 270.163 403.541C272.161 402.969 273.414 402.666 273.447 402.77Z" fill="#252424"/>
<path d="M184.96 434.343C184.96 434.343 184.318 434.64 183.052 435.184C181.773 435.736 179.893 436.546 177.432 437.608C172.504 439.765 165.234 442.956 156.075 447.484C151.498 449.752 146.457 452.371 141.076 455.478C135.729 458.62 129.942 462.168 124.459 466.899C121.816 469.302 119.002 471.993 117.633 475.572C117.331 476.466 117.133 477.406 117.181 478.354C117.265 479.289 117.496 480.238 118.032 481.048C119.037 482.71 120.774 483.861 122.568 484.768C126.237 486.552 130.416 487.44 134.682 488.121C138.969 488.758 143.41 489.123 147.967 489.325C166.215 490.036 186.228 488.584 207.574 486.306C228.928 483.976 251.647 480.618 275.445 476.476C323.037 468.163 374.949 456.69 428.842 442.41C482.724 428.049 533.547 412.293 578.601 394.83C589.852 390.442 600.735 385.932 611.148 381.192C621.55 376.441 631.516 371.5 640.698 365.952C645.27 363.159 649.663 360.219 653.578 356.859C655.524 355.173 657.352 353.37 658.818 351.336C660.253 349.341 661.438 346.941 660.999 344.566C660.978 344.268 660.87 343.992 660.759 343.719C660.645 343.447 660.571 343.158 660.429 342.9C660.073 342.426 659.836 341.866 659.371 341.476C658.962 341.043 658.542 340.621 658.033 340.293L657.31 339.76L656.524 339.321C654.421 338.164 652.138 337.359 649.834 336.787C645.232 335.583 640.575 335.038 636.037 334.648C626.941 333.943 618.232 334.017 610.014 334.267C601.792 334.54 594.048 335.068 586.816 335.659C572.353 336.871 559.938 338.373 549.807 339.685C539.674 341.01 531.828 342.184 526.506 342.972C523.855 343.374 521.832 343.681 520.455 343.89C519.091 344.092 518.389 344.176 518.389 344.176C518.389 344.176 519.082 344.04 520.443 343.81C521.817 343.584 523.837 343.251 526.482 342.816C531.796 341.977 539.638 340.755 549.768 339.384C559.897 338.023 572.311 336.478 586.782 335.223C594.018 334.611 601.765 334.062 609.999 333.769C618.229 333.499 626.952 333.406 636.084 334.096C640.642 334.479 645.321 335.016 649.981 336.226C652.314 336.801 654.637 337.611 656.815 338.805L657.63 339.259L658.39 339.816C658.92 340.158 659.373 340.603 659.812 341.07C660.303 341.485 660.58 342.096 660.96 342.615C661.116 342.897 661.204 343.218 661.329 343.518C661.45 343.822 661.569 344.127 661.594 344.458C661.824 345.745 661.659 347.101 661.182 348.304C660.714 349.51 660.094 350.661 659.319 351.691C657.81 353.79 655.954 355.62 653.989 357.33C650.035 360.732 645.624 363.691 641.035 366.502C631.825 372.084 621.847 377.046 611.434 381.814C601.012 386.571 590.122 391.096 578.865 395.497C533.788 413.011 482.95 428.794 429.046 443.161C375.132 457.447 323.194 468.903 275.572 477.181C251.76 481.306 229.024 484.642 207.648 486.946C186.279 489.198 166.245 490.621 147.946 489.873C143.376 489.66 138.918 489.286 134.605 488.635C130.312 487.939 126.103 487.042 122.349 485.209C120.513 484.272 118.705 483.085 117.622 481.294C117.051 480.423 116.794 479.386 116.71 478.375C116.661 477.349 116.875 476.349 117.195 475.411C118.642 471.676 121.501 468.991 124.173 466.567C129.711 461.817 135.522 458.283 140.892 455.152C146.295 452.059 151.351 449.457 155.943 447.208C165.13 442.719 172.422 439.572 177.372 437.46C179.847 436.429 181.738 435.642 183.024 435.106C184.299 434.592 184.96 434.343 184.96 434.343Z" fill="#252424"/>
<path d="M473.191 429.954L432.15 441.721C430.374 442.23 428.521 441.204 428.011 439.428C427.503 437.652 428.529 435.799 430.305 435.289L471.346 423.522C473.122 423.012 474.975 424.039 475.485 425.815C475.993 427.591 474.967 429.444 473.191 429.954Z" fill="#484646"/>
<path d="M631.489 337.714C609.896 336.486 587.429 339.702 565.988 342.1C562.4 342.501 559.687 338.826 559.544 335.656C559.376 331.909 562.649 329.586 565.988 329.212C569.272 328.845 572.557 328.495 575.846 328.17C587.719 326.998 599.63 326.1 611.558 325.8C620.36 325.578 629.221 325.627 637.982 326.595C648.149 327.718 665.623 330.19 666.164 343.569C666.358 348.337 663.637 352.587 660.65 356.047C656.998 360.279 652.286 363.67 647.678 366.772C633.538 376.291 617.735 383.44 602.12 390.144C578.929 400.099 555.212 408.781 531.296 416.823C527.875 417.973 524.396 415.494 523.37 412.323C522.257 408.883 524.683 405.469 527.87 404.397C531.082 403.317 534.29 402.226 537.494 401.121C549.236 397.071 560.92 392.845 572.509 388.374C577.744 386.355 582.959 384.283 588.148 382.15C589.48 381.603 590.81 381.051 592.139 380.494C592.447 380.365 592.762 380.245 593.063 380.106C592.874 380.193 591.808 380.638 592.901 380.175C593.431 379.95 593.962 379.725 594.491 379.498C596.846 378.493 599.195 377.473 601.537 376.435C601.537 376.435 630.59 362.643 639.103 356.967C646.715 351.892 653.254 347.554 651.64 343.384C649.877 338.839 631.489 337.714 631.489 337.714Z" fill="#E0E0E0"/>
<path d="M631.492 337.714C631.492 337.714 632.057 337.719 633.157 337.8C634.255 337.885 635.89 338.026 638.02 338.307C640.145 338.601 642.785 338.977 645.82 339.817C647.323 340.26 648.973 340.765 650.491 341.821C650.863 342.093 651.22 342.412 651.502 342.816C651.791 343.225 651.902 343.717 652.007 344.202C652.165 345.21 651.817 346.242 651.301 347.13C650.243 348.93 648.574 350.373 646.82 351.787C645.04 353.187 643.087 354.532 641.038 355.917C636.974 358.758 632.216 361.296 627.13 363.994C622.025 366.675 616.522 369.439 610.666 372.321C607.729 373.746 604.708 375.21 601.609 376.713C600.029 377.401 598.43 378.1 596.812 378.807C596.002 379.159 595.187 379.515 594.367 379.872L593.131 380.4L592.82 380.532L592.666 380.598L592.589 380.631L592.555 380.646C592.595 380.767 592.111 379.621 592.331 380.1L592.942 379.839L593.189 380.377C587.866 382.647 582.281 384.802 576.511 387.124C575.066 387.696 573.608 388.272 572.14 388.852C570.655 389.394 569.159 389.941 567.65 390.492C564.632 391.593 561.568 392.713 558.455 393.849C552.23 396.12 545.822 398.46 539.245 400.86C535.957 402.06 532.583 403.153 529.193 404.328C528.334 404.631 527.488 404.86 526.76 405.301C526.019 405.732 525.353 406.3 524.813 406.971C523.723 408.298 523.186 410.104 523.607 411.783C524.014 413.457 525.152 414.976 526.646 415.891C528.158 416.821 530.008 417.009 531.701 416.298C535.246 415.086 538.826 413.86 542.441 412.624C549.659 410.122 556.99 407.506 564.401 404.752C579.229 399.259 594.377 393.195 609.622 386.46C618.073 382.726 626.341 378.841 634.211 374.497C638.146 372.327 641.983 370.045 645.685 367.627C649.384 365.205 653.014 362.719 656.276 359.874C659.507 357.027 662.443 353.776 664.319 350.013C665.242 348.133 665.8 346.083 665.792 344.029C665.821 343.516 665.704 343.006 665.656 342.495C665.569 341.989 665.584 341.463 665.417 340.977L664.97 339.511C664.85 339.012 664.535 338.593 664.328 338.13C663.931 337.185 663.217 336.433 662.623 335.617C661.889 334.914 661.211 334.152 660.359 333.585C658.76 332.326 656.915 331.422 655.051 330.639C651.28 329.131 647.317 328.252 643.375 327.658C635.473 326.458 627.67 326.055 620.092 326.04C612.511 326.028 605.149 326.298 598.042 326.707C590.935 327.126 584.08 327.687 577.498 328.317C574.21 328.656 570.988 328.987 567.835 329.311C567.055 329.403 566.243 329.455 565.504 329.577C564.757 329.709 564.031 329.937 563.356 330.258C562.007 330.894 560.848 331.932 560.26 333.252C559.099 335.947 560.399 339.178 562.549 340.846C563.657 341.682 565.022 342.046 566.384 341.799C567.778 341.643 569.153 341.488 570.509 341.337C575.933 340.726 581.047 340.149 585.832 339.61C595.403 338.571 603.674 337.893 610.448 337.585C617.221 337.267 622.49 337.303 626.057 337.428C629.624 337.546 631.492 337.714 631.492 337.714C631.492 337.714 631.022 337.72 630.109 337.693C629.195 337.677 627.838 337.593 626.054 337.585C622.49 337.512 617.227 337.524 610.465 337.888C603.701 338.242 595.444 338.962 585.881 340.042C581.101 340.6 575.989 341.196 570.569 341.829C569.213 341.985 567.838 342.144 566.444 342.306C565.028 342.577 563.422 342.177 562.235 341.265C561.043 340.348 560.153 339.055 559.657 337.609C559.168 336.169 559.108 334.497 559.757 333.027C560.407 331.558 561.674 330.429 563.114 329.745C563.837 329.4 564.611 329.154 565.408 329.011C566.216 328.878 566.98 328.83 567.775 328.734C570.929 328.401 574.153 328.06 577.442 327.714C584.027 327.069 590.888 326.491 598.006 326.058C605.123 325.633 612.494 325.35 620.095 325.35C627.692 325.354 635.537 325.746 643.486 326.944C647.458 327.54 651.472 328.42 655.33 329.956C657.239 330.754 659.138 331.683 660.808 332.992C661.691 333.582 662.41 334.38 663.179 335.121C663.812 335.98 664.561 336.778 664.99 337.779C665.212 338.269 665.539 338.718 665.671 339.246L666.148 340.8C666.323 341.316 666.313 341.868 666.403 342.402C666.454 342.942 666.574 343.474 666.547 344.025C666.556 346.215 665.962 348.384 665.003 350.338C663.05 354.255 660.065 357.546 656.783 360.447C653.471 363.337 649.822 365.836 646.109 368.271C642.389 370.704 638.537 372.996 634.588 375.175C626.689 379.539 618.4 383.434 609.938 387.172C594.679 393.915 579.511 399.982 564.668 405.471C557.249 408.223 549.913 410.836 542.687 413.334C539.069 414.567 535.486 415.789 531.938 417C531.074 417.322 530.024 417.559 529.045 417.448C528.053 417.361 527.101 417.024 526.265 416.518C524.603 415.491 523.36 413.839 522.898 411.946C522.419 410.026 523.045 407.974 524.251 406.513C524.849 405.772 525.583 405.148 526.402 404.674C527.228 404.181 528.139 403.938 528.967 403.645C532.357 402.477 535.729 401.388 539.017 400.192C545.593 397.804 552.001 395.476 558.226 393.217C561.338 392.088 564.403 390.975 567.421 389.88C568.93 389.332 570.427 388.789 571.91 388.251C573.38 387.673 574.837 387.1 576.281 386.533C582.043 384.229 587.654 382.075 592.943 379.837L593.191 380.376L592.556 380.646C592.751 381.136 592.225 380.005 592.313 380.107L592.357 380.089L592.435 380.056L592.591 379.99L592.901 379.858L594.139 379.335C594.958 378.981 595.772 378.628 596.581 378.279C598.199 377.578 599.797 376.885 601.375 376.203C604.474 374.71 607.495 373.257 610.432 371.844C616.294 368.982 621.803 366.238 626.912 363.58C632.009 360.9 636.754 358.396 640.814 355.585C642.866 354.213 644.819 352.881 646.594 351.502C648.341 350.112 649.994 348.687 651.016 346.969C651.515 346.122 651.839 345.166 651.7 344.248C651.604 343.801 651.505 343.35 651.254 342.99C651.004 342.627 650.674 342.322 650.32 342.061C648.874 341.038 647.237 340.513 645.752 340.066C642.748 339.205 640.115 338.803 637.999 338.482C635.876 338.175 634.247 338.005 633.152 337.893C632.053 337.777 631.492 337.714 631.492 337.714Z" fill="#252424"/>
<path d="M563.715 329.671C563.77 329.598 564.489 329.997 565.341 330.996C566.19 331.978 567.117 333.63 567.378 335.646C567.637 337.663 567.159 339.496 566.587 340.662C566.016 341.844 565.422 342.412 565.35 342.355C565.249 342.286 565.668 341.617 566.077 340.45C566.491 339.294 566.842 337.593 566.604 335.746C566.365 333.9 565.594 332.343 564.901 331.329C564.208 330.306 563.634 329.764 563.715 329.671Z" fill="#252424"/>
<path d="M529.078 417.756C528.99 417.66 529.729 417.039 530.409 415.724C531.09 414.438 531.591 412.34 530.859 410.219C530.517 409.17 529.932 408.254 529.278 407.576C528.616 406.908 527.829 406.496 527.146 406.314C525.727 405.923 524.908 406.61 524.853 406.49C524.826 406.458 524.968 406.245 525.367 406.017C525.763 405.801 526.452 405.627 527.262 405.774C528.067 405.911 528.984 406.319 529.779 407.058C530.556 407.802 531.216 408.801 531.6 409.971C532.419 412.338 531.751 414.698 530.887 415.995C530.022 417.347 529.12 417.828 529.078 417.756Z" fill="#252424"/>
<path d="M561.533 405.855C561.419 405.806 561.721 405.063 561.887 403.826C562.06 402.6 562.028 400.835 561.317 399.095C560.605 397.355 559.391 396.072 558.41 395.318C557.425 394.55 556.691 394.232 556.736 394.116C556.762 394.029 557.588 394.167 558.725 394.865C559.852 395.546 561.256 396.884 562.04 398.799C562.822 400.716 562.757 402.654 562.429 403.929C562.105 405.224 561.611 405.899 561.533 405.855Z" fill="#252424"/>
<path d="M630.651 376.849C630.594 376.84 630.726 376.194 630.711 374.992C630.683 373.813 630.477 371.991 629.448 370.068L629.724 370.159C623.072 373.108 611.835 377.974 599.076 383.418C588.819 387.745 579.539 391.659 572.694 394.546C569.381 395.904 566.663 397.017 564.665 397.836C563.777 398.182 563.051 398.466 562.466 398.694C561.96 398.881 561.689 398.968 561.678 398.944C561.668 398.919 561.918 398.784 562.404 398.55C562.973 398.286 563.681 397.957 564.546 397.557C566.522 396.681 569.207 395.49 572.478 394.038C579.299 391.096 588.549 387.106 598.772 382.698C611.532 377.254 622.821 372.513 629.553 369.753L629.745 369.673L629.829 369.843C630.869 371.926 630.986 373.776 630.948 374.994C630.927 375.607 630.854 376.075 630.785 376.384C630.716 376.696 630.672 376.854 630.651 376.849Z" fill="#252424"/>
<path d="M595.908 332.927L585.982 333.689L586.129 335.604L596.055 334.841L595.908 332.927Z" fill="#484646"/>
<g opacity="0.3">
<path d="M563.823 329.744C561.43 330.554 559.742 332.612 559.579 335.132C559.415 337.652 560.859 340.431 563.127 341.543C563.935 341.94 564.859 342.207 565.648 341.774C566.298 341.417 566.663 340.703 566.899 340.001C567.512 338.172 567.483 336.135 566.817 334.326C566.152 332.517 565.474 330.738 563.823 329.744Z" fill="black"/>
</g>
<g opacity="0.3">
<path d="M527.015 406.302C526.313 405.917 525.394 406.103 524.766 406.601C524.139 407.099 523.765 407.856 523.549 408.627C522.814 411.239 523.818 414.251 525.972 415.901C526.895 416.607 528.113 417.08 529.218 416.724C529.985 416.478 530.595 415.859 530.961 415.142C531.327 414.425 531.471 413.613 531.528 412.809C531.625 411.423 531.463 409.991 530.851 408.743C530.238 407.495 529.136 406.449 527.789 406.104" fill="black"/>
</g>
<path d="M444.239 357.394L402.572 366.711C400.769 367.114 398.981 365.979 398.578 364.176C398.174 362.373 399.31 360.585 401.113 360.181L442.78 350.865C444.583 350.461 446.372 351.597 446.774 353.4C447.176 355.201 446.042 356.991 444.239 357.394Z" fill="#484646"/>
<path d="M267.681 477.363C266.037 477.497 263.553 487.296 262.54 491.6C262.251 492.831 263.196 494.03 264.705 494.385C267.688 495.087 269.989 494.903 271.579 494.52C273.126 494.147 274.059 492.906 273.694 491.652C272.467 487.431 269.326 477.23 267.681 477.363Z" fill="#484646"/>
<path d="M511.322 570.145C509.058 570.375 505.641 587.302 504.248 594.735C503.849 596.862 505.151 598.932 507.225 599.545C511.331 600.759 514.497 600.441 516.684 599.778C518.813 599.133 520.097 596.991 519.594 594.825C517.908 587.535 513.587 569.914 511.322 570.145Z" fill="#484646"/>
<path d="M554.441 570.979C552.177 571.21 548.76 588.136 547.367 595.569C546.968 597.696 548.27 599.766 550.344 600.379C554.45 601.593 557.616 601.275 559.803 600.612C561.932 599.967 563.216 597.825 562.715 595.659C561.027 588.37 556.706 570.748 554.441 570.979Z" fill="#484646"/>
<path d="M535.463 577.092C533.904 577.251 531.552 588.905 530.592 594.021C530.318 595.485 531.213 596.91 532.643 597.333C535.469 598.169 537.65 597.95 539.156 597.494C540.621 597.05 541.505 595.575 541.16 594.084C539.997 589.065 537.023 576.933 535.463 577.092Z" fill="#484646"/>
<path d="M528.753 588.792C527.718 588.886 526.156 595.869 525.519 598.935C525.337 599.812 525.931 600.666 526.881 600.919C528.757 601.42 530.205 601.288 531.205 601.015C532.179 600.75 532.765 599.866 532.536 598.972C531.763 595.965 529.788 588.696 528.753 588.792Z" fill="#252424"/>
<path d="M372.682 580.871C371.066 581.034 368.627 593.12 367.631 598.425C367.346 599.943 368.276 601.421 369.757 601.859C372.688 602.724 374.948 602.497 376.51 602.025C378.029 601.564 378.946 600.036 378.587 598.488C377.383 593.286 374.297 580.706 372.682 580.871Z" fill="#484646"/>
<path d="M364.193 586.345C363.158 586.44 361.596 593.422 360.959 596.49C360.776 597.367 361.371 598.221 362.321 598.474C364.197 598.975 365.645 598.843 366.645 598.57C367.619 598.305 368.205 597.421 367.976 596.527C367.205 593.52 365.229 586.249 364.193 586.345Z" fill="#252424"/>
<path d="M227.795 571.044C224.954 571.275 220.665 588.201 218.916 595.633C218.415 597.76 220.049 599.83 222.654 600.444C227.807 601.657 231.782 601.339 234.528 600.676C237.2 600.031 238.812 597.889 238.182 595.723C236.063 588.435 230.639 570.815 227.795 571.044Z" fill="#484646"/>
<path d="M215.929 576.792C214.108 576.977 211.36 590.592 210.239 596.571C209.918 598.283 210.965 599.948 212.635 600.44C215.938 601.416 218.485 601.16 220.244 600.627C221.956 600.108 222.989 598.386 222.586 596.643C221.227 590.78 217.751 576.606 215.929 576.792Z" fill="#484646"/>
<path d="M205.186 587.098C204.151 587.193 202.59 594.175 201.952 597.241C201.771 598.119 202.365 598.972 203.314 599.226C205.191 599.727 206.638 599.595 207.639 599.322C208.612 599.056 209.199 598.173 208.97 597.279C208.197 594.273 206.221 587.004 205.186 587.098Z" fill="#252424"/>
<path d="M221.579 590.817C219.935 590.951 217.451 600.75 216.439 605.054C216.149 606.285 217.094 607.484 218.603 607.839C221.587 608.541 223.888 608.358 225.478 607.974C227.024 607.601 227.957 606.36 227.593 605.106C226.366 600.887 223.225 590.684 221.579 590.817Z" fill="#484646"/>
<g opacity="0.3">
<path d="M221.579 590.817C219.935 590.951 217.451 600.75 216.439 605.054C216.149 606.285 217.094 607.484 218.603 607.839C221.587 608.541 223.888 608.358 225.478 607.974C227.024 607.601 227.957 606.36 227.593 605.106C226.366 600.887 223.225 590.684 221.579 590.817Z" fill="black"/>
</g>
<path d="M242.833 586.08C241.517 586.186 239.531 594.025 238.721 597.466C238.49 598.452 239.246 599.41 240.452 599.694C242.839 600.255 244.679 600.108 245.951 599.802C247.189 599.503 247.934 598.512 247.643 597.508C246.662 594.133 244.15 585.973 242.833 586.08Z" fill="#484646"/>
<g opacity="0.3">
<path d="M242.833 586.08C241.517 586.186 239.531 594.025 238.721 597.466C238.49 598.452 239.246 599.41 240.452 599.694C242.839 600.255 244.679 600.108 245.951 599.802C247.189 599.503 247.934 598.512 247.643 597.508C246.662 594.133 244.15 585.973 242.833 586.08Z" fill="black"/>
</g>
<path d="M265.96 595.299C264.644 595.406 262.658 603.245 261.848 606.686C261.617 607.671 262.373 608.63 263.579 608.913C265.966 609.476 267.806 609.327 269.078 609.021C270.316 608.723 271.061 607.731 270.77 606.728C269.789 603.353 267.277 595.193 265.96 595.299Z" fill="#484646"/>
<g opacity="0.3">
<path d="M265.96 595.299C264.644 595.406 262.658 603.245 261.848 606.686C261.617 607.671 262.373 608.63 263.579 608.913C265.966 609.476 267.806 609.327 269.078 609.021C270.316 608.723 271.061 607.731 270.77 606.728C269.789 603.353 267.277 595.193 265.96 595.299Z" fill="black"/>
</g>
<path d="M330.2 581.807C327.937 582.036 324.52 598.964 323.126 606.396C322.727 608.523 324.029 610.593 326.104 611.207C330.209 612.42 333.376 612.102 335.563 611.439C337.691 610.794 338.975 608.652 338.473 606.486C336.787 599.198 332.465 581.576 330.2 581.807Z" fill="#484646"/>
<path d="M291.531 572.375C289.267 572.606 285.85 589.532 284.457 596.964C284.058 599.091 285.36 601.161 287.434 601.775C291.54 602.988 294.706 602.67 296.893 602.007C299.022 601.362 300.306 599.22 299.805 597.054C298.117 589.766 293.796 572.145 291.531 572.375Z" fill="#484646"/>
<path d="M301.721 582.675C300.215 582.828 297.942 594.086 297.017 599.028C296.751 600.443 297.617 601.82 298.997 602.228C301.727 603.035 303.833 602.823 305.288 602.382C306.704 601.953 307.557 600.528 307.224 599.088C306.101 594.242 303.227 582.522 301.721 582.675Z" fill="#484646"/>
<path d="M321.761 591.332C320.726 591.426 319.165 598.409 318.527 601.475C318.344 602.352 318.94 603.206 319.889 603.459C321.766 603.96 323.213 603.828 324.214 603.555C325.187 603.29 325.774 602.406 325.544 601.512C324.772 598.506 322.796 591.237 321.761 591.332Z" fill="#252424"/>
<path d="M282.696 585.255C281.036 585.408 278.529 596.612 277.508 601.532C277.215 602.94 278.169 604.31 279.692 604.716C282.704 605.519 285.026 605.309 286.631 604.869C288.192 604.442 289.134 603.024 288.767 601.59C287.528 596.766 284.358 585.102 282.696 585.255Z" fill="#252424"/>
<path d="M309.378 588.362C308.062 588.468 306.076 596.307 305.266 599.748C305.035 600.734 305.791 601.692 306.997 601.976C309.384 602.537 311.224 602.39 312.496 602.084C313.734 601.785 314.481 600.794 314.188 599.79C313.207 596.414 310.695 588.254 309.378 588.362Z" fill="#484646"/>
<g opacity="0.3">
<path d="M309.378 588.362C308.062 588.468 306.076 596.307 305.266 599.748C305.035 600.734 305.791 601.692 306.997 601.976C309.384 602.537 311.224 602.39 312.496 602.084C313.734 601.785 314.481 600.794 314.188 599.79C313.207 596.414 310.695 588.254 309.378 588.362Z" fill="black"/>
</g>
<path d="M395.847 559.905C393.874 560.106 390.895 574.859 389.682 581.337C389.334 583.191 390.468 584.995 392.277 585.529C395.856 586.587 398.616 586.309 400.522 585.732C402.378 585.169 403.497 583.303 403.059 581.415C401.587 575.062 397.821 559.704 395.847 559.905Z" fill="#484646"/>
<path d="M409.305 567.971C407.689 568.136 405.25 580.22 404.254 585.525C403.969 587.043 404.899 588.521 406.38 588.959C409.311 589.826 411.571 589.598 413.133 589.125C414.652 588.665 415.569 587.136 415.21 585.59C414.007 580.388 410.922 567.807 409.305 567.971Z" fill="#484646"/>
<path d="M422.888 586.986C421.853 587.08 420.291 594.063 419.654 597.13C419.472 598.008 420.066 598.861 421.016 599.115C422.892 599.616 424.34 599.484 425.34 599.211C426.314 598.945 426.9 598.062 426.671 597.168C425.9 594.16 423.923 586.89 422.888 586.986Z" fill="#252424"/>
<path d="M400.907 585.762C398.81 585.931 395.643 598.426 394.353 603.913C393.984 605.484 395.189 607.011 397.113 607.464C400.917 608.359 403.851 608.124 405.878 607.635C407.85 607.159 409.04 605.578 408.575 603.978C407.009 598.599 403.005 585.592 400.907 585.762Z" fill="#484646"/>
<g opacity="0.3">
<path d="M400.907 585.762C398.81 585.931 395.643 598.426 394.353 603.913C393.984 605.484 395.189 607.011 397.113 607.464C400.917 608.359 403.851 608.124 405.878 607.635C407.85 607.159 409.04 605.578 408.575 603.978C407.009 598.599 403.005 585.592 400.907 585.762Z" fill="black"/>
</g>
<path d="M434.278 418.642H424.283V596.653H434.278V418.642Z" fill="#C73238"/>
<path d="M434.281 418.642V596.484L483.267 597.564V458.578L434.281 418.642Z" fill="#C73238"/>
<g opacity="0.3">
<path d="M483.221 467.052C483.221 467.052 446.438 479.872 447.987 525.663C449.537 571.452 483.449 576.946 483.449 576.946L483.221 467.052Z" fill="black"/>
</g>
<path d="M476.915 575.347C476.699 575.347 476.523 552.123 476.523 523.482C476.523 494.83 476.699 471.61 476.915 471.61C477.131 471.61 477.305 494.83 477.305 523.482C477.305 552.123 477.131 575.347 476.915 575.347Z" fill="#252424"/>
<path d="M468.886 567.969C468.67 567.969 468.496 547.309 468.496 521.832C468.496 496.345 468.672 475.69 468.886 475.69C469.101 475.69 469.276 496.345 469.276 521.832C469.276 547.311 469.102 567.969 468.886 567.969Z" fill="#252424"/>
<path d="M460.855 561.675C460.639 561.675 460.465 544.695 460.465 523.753C460.465 502.804 460.64 485.829 460.855 485.829C461.069 485.829 461.245 502.806 461.245 523.753C461.245 544.695 461.069 561.675 460.855 561.675Z" fill="#252424"/>
<path d="M452.826 548.142C452.61 548.142 452.436 536.728 452.436 522.651C452.436 508.569 452.611 497.158 452.826 497.158C453.042 497.158 453.216 508.57 453.216 522.651C453.217 536.728 453.042 548.142 452.826 548.142Z" fill="#252424"/>
<g opacity="0.3">
<path d="M434.278 418.642H424.283V596.653H434.278V418.642Z" fill="black"/>
</g>
<path d="M461.896 582.824C461.34 580.7 461.022 578.58 460.057 576.561C458.961 574.267 456.633 572.997 454.192 572.805L454.191 572.766C454.084 572.766 453.978 572.781 453.871 572.785C453.765 572.781 453.658 572.766 453.552 572.766L453.55 572.805C451.111 572.997 448.782 574.267 447.685 576.561C446.721 578.58 446.403 580.7 445.846 582.824C445.153 585.47 444.456 588.147 444.531 590.855C444.6 593.339 445.405 595.925 447.481 597.699C449.113 599.096 451.474 599.429 453.871 599.387C456.463 599.333 458.629 599.096 460.261 597.699C462.337 595.923 463.143 593.337 463.212 590.855C463.287 588.147 462.589 585.471 461.896 582.824Z" fill="#484646"/>
<path d="M478.497 571.728C476.234 571.959 472.817 588.885 471.423 596.318C471.024 598.445 472.326 600.515 474.401 601.128C478.506 602.342 481.673 602.024 483.86 601.361C485.988 600.716 487.272 598.574 486.77 596.408C485.084 589.119 480.762 571.499 478.497 571.728Z" fill="#484646"/>
<path d="M489.843 571.241C488.619 571.365 486.77 580.526 486.015 584.547C485.799 585.698 486.504 586.818 487.626 587.15C489.848 587.807 491.562 587.634 492.746 587.276C493.898 586.926 494.592 585.768 494.321 584.595C493.407 580.652 491.069 571.116 489.843 571.241Z" fill="#484646"/>
<path d="M496.19 575.541C495.155 575.635 493.594 582.618 492.956 585.684C492.775 586.561 493.369 587.415 494.318 587.668C496.195 588.169 497.642 588.037 498.643 587.764C499.616 587.499 500.203 586.615 499.973 585.721C499.202 582.715 497.227 575.445 496.19 575.541Z" fill="#252424"/>
<path d="M485.63 589.635C484.476 589.728 482.736 596.596 482.027 599.613C481.824 600.475 482.486 601.315 483.543 601.564C485.634 602.056 487.247 601.927 488.361 601.659C489.446 601.398 490.1 600.528 489.843 599.649C488.984 596.691 486.783 589.54 485.63 589.635Z" fill="#484646"/>
<g opacity="0.3">
<path d="M485.63 589.635C484.476 589.728 482.736 596.596 482.027 599.613C481.824 600.475 482.486 601.315 483.543 601.564C485.634 602.056 487.247 601.927 488.361 601.659C489.446 601.398 490.1 600.528 489.843 599.649C488.984 596.691 486.783 589.54 485.63 589.635Z" fill="black"/>
</g>
<path d="M622.609 570.117C620.345 570.347 616.928 587.274 615.535 594.707C615.136 596.834 616.438 598.904 618.512 599.517C622.618 600.731 625.784 600.413 627.971 599.75C630.1 599.105 631.384 596.963 630.881 594.797C629.195 587.508 624.874 569.886 622.609 570.117Z" fill="#484646"/>
<path d="M639.154 582.041C638.119 582.135 636.557 589.118 635.92 592.184C635.737 593.061 636.332 593.915 637.282 594.168C639.158 594.669 640.606 594.537 641.606 594.264C642.58 593.999 643.166 593.115 642.937 592.221C642.166 589.215 640.19 581.946 639.154 582.041Z" fill="#252424"/>
<path d="M613.94 588.037C612.787 588.13 611.047 594.999 610.337 598.015C610.135 598.878 610.796 599.718 611.854 599.967C613.945 600.459 615.557 600.33 616.672 600.061C617.756 599.8 618.41 598.93 618.154 598.051C617.296 595.095 615.094 587.944 613.94 588.037Z" fill="#484646"/>
<g opacity="0.3">
<path d="M613.94 588.037C612.787 588.13 611.047 594.999 610.337 598.015C610.135 598.878 610.796 599.718 611.854 599.967C613.945 600.459 615.557 600.33 616.672 600.061C617.756 599.8 618.41 598.93 618.154 598.051C617.296 595.095 615.094 587.944 613.94 588.037Z" fill="black"/>
</g>
<path d="M137.915 523.603C136.27 523.737 133.787 533.536 132.775 537.84C132.485 539.071 133.43 540.27 134.939 540.625C137.923 541.327 140.224 541.143 141.814 540.76C143.36 540.387 144.293 539.146 143.929 537.892C142.702 533.673 139.561 523.47 137.915 523.603Z" fill="#484646"/>
<path d="M153.858 518.073C152.819 518.157 151.248 524.352 150.609 527.073C150.426 527.851 151.023 528.609 151.977 528.834C153.863 529.278 155.318 529.161 156.323 528.919C157.301 528.684 157.89 527.899 157.661 527.106C156.884 524.437 154.899 517.989 153.858 518.073Z" fill="#484646"/>
<path d="M169.436 520.824C168.397 520.908 166.826 527.103 166.187 529.824C166.004 530.602 166.601 531.36 167.555 531.585C169.441 532.029 170.896 531.912 171.901 531.67C172.879 531.435 173.468 530.65 173.239 529.857C172.462 527.188 170.476 520.74 169.436 520.824Z" fill="#252424"/>
<path d="M161.095 516.874C160.3 516.939 159.1 521.677 158.609 523.758C158.47 524.353 158.926 524.932 159.656 525.105C161.099 525.444 162.211 525.355 162.98 525.169C163.727 524.989 164.179 524.389 164.003 523.783C163.409 521.743 161.891 516.81 161.095 516.874Z" fill="#252424"/>
<path d="M114.366 547.144C113.571 547.209 112.37 551.947 111.881 554.028C111.741 554.623 112.197 555.202 112.926 555.375C114.369 555.715 115.481 555.625 116.25 555.439C116.997 555.259 117.449 554.659 117.273 554.053C116.681 552.013 115.161 547.08 114.366 547.144Z" fill="#252424"/>
<path d="M127.149 541.259C126.354 541.323 125.154 546.062 124.664 548.142C124.524 548.738 124.98 549.316 125.711 549.489C127.154 549.828 128.265 549.739 129.035 549.553C129.782 549.373 130.233 548.774 130.058 548.168C129.464 546.126 127.946 541.194 127.149 541.259Z" fill="#252424"/>
<path d="M119.72 542.408C118.076 542.541 115.592 552.341 114.579 556.644C114.29 557.876 115.235 559.074 116.744 559.43C119.727 560.132 122.028 559.947 123.618 559.565C125.165 559.191 126.098 557.951 125.733 556.697C124.506 552.476 121.365 542.274 119.72 542.408Z" fill="#484646"/>
<g opacity="0.3">
<path d="M119.72 542.408C118.076 542.541 115.592 552.341 114.579 556.644C114.29 557.876 115.235 559.074 116.744 559.43C119.727 560.132 122.028 559.947 123.618 559.565C125.165 559.191 126.098 557.951 125.733 556.697C124.506 552.476 121.365 542.274 119.72 542.408Z" fill="black"/>
</g>
<path d="M144.268 526.003C143.074 526.099 141.273 533.211 140.538 536.334C140.328 537.228 141.013 538.096 142.108 538.354C144.273 538.864 145.942 538.731 147.096 538.452C148.218 538.18 148.896 537.282 148.63 536.371C147.741 533.31 145.462 525.907 144.268 526.003Z" fill="#484646"/>
<g opacity="0.3">
<path d="M144.268 526.003C143.074 526.099 141.273 533.211 140.538 536.334C140.328 537.228 141.013 538.096 142.108 538.354C144.273 538.864 145.942 538.731 147.096 538.452C148.218 538.18 148.896 537.282 148.63 536.371C147.741 533.31 145.462 525.907 144.268 526.003Z" fill="black"/>
</g>
<path d="M174.684 509.357C173.49 509.453 171.689 516.564 170.954 519.687C170.744 520.581 171.429 521.45 172.524 521.708C174.689 522.218 176.358 522.084 177.512 521.805C178.634 521.534 179.312 520.635 179.046 519.725C178.157 516.663 175.878 509.261 174.684 509.357Z" fill="#484646"/>
<g opacity="0.3">
<path d="M174.684 509.357C173.49 509.453 171.689 516.564 170.954 519.687C170.744 520.581 171.429 521.45 172.524 521.708C174.689 522.218 176.358 522.084 177.512 521.805C178.634 521.534 179.312 520.635 179.046 519.725C178.157 516.663 175.878 509.261 174.684 509.357Z" fill="black"/>
</g>
<path d="M243.765 258.454C243.393 257.547 242.888 256.587 241.977 256.221C240.722 255.714 239.258 256.648 238.695 257.88C238.133 259.111 238.23 260.53 238.338 261.88C237.15 259.12 232.812 258.487 230.885 260.793C230.447 261.318 230.126 261.946 229.61 262.393C228.692 263.188 227.369 263.251 226.155 263.278C212.504 263.587 198.867 264.591 185.316 266.284C187.445 267.337 189.908 267.408 192.282 267.457C209.06 267.805 227.855 267.274 244.632 267.622H246.134C246.093 264.654 244.89 261.201 243.765 258.454Z" fill="#EBEBEB"/>
<path d="M264.409 257.395H283.239C285.399 257.395 287.529 257.898 289.462 258.864L295.467 261.865C295.467 261.865 301.423 263.419 302.355 265.468C303.286 267.517 302.173 268.945 299.938 269.131C297.703 269.317 259.512 269.131 259.512 269.131L264.409 257.395Z" fill="#252424"/>
<path d="M255.096 261.913H275.34C277.041 261.913 278.421 263.292 278.421 264.994C278.421 266.695 277.042 268.074 275.34 268.074H261.871L255.096 261.913Z" fill="#252424"/>
<path d="M295.471 261.867L278.039 261.913L273.312 257.395H284.918C286.427 257.395 287.914 257.772 289.24 258.49L295.471 261.867Z" fill="#484646"/>
<path d="M278.021 261.951L278.01 261.941L273.215 257.358H284.915C286.425 257.358 287.927 257.738 289.254 258.458L295.614 261.903H295.467L278.021 261.951ZM273.402 257.433L278.051 261.876L295.32 261.83L289.22 258.524C287.903 257.81 286.413 257.433 284.915 257.433H273.402Z" fill="#252424"/>
<path d="M262.498 268.074C262.445 268.137 261.629 267.559 260.279 266.518C258.929 265.477 257.045 263.976 254.857 262.192L254.078 261.558L255.089 261.549C256.811 261.534 258.664 261.517 260.602 261.501C264.785 261.484 268.573 261.513 271.315 261.573C274.055 261.633 275.752 261.724 275.752 261.832C275.752 261.94 274.057 262.044 271.315 262.126C268.574 262.207 264.787 262.266 260.602 262.282C258.664 262.281 256.811 262.279 255.089 262.278L255.322 261.634C257.474 263.461 259.294 265.039 260.563 266.178C261.833 267.313 262.552 268.009 262.498 268.074Z" fill="#484646"/>
<path d="M222.277 267.621C222.277 267.405 229.596 267.231 238.62 267.231C247.648 267.231 254.964 267.406 254.964 267.621C254.964 267.835 247.648 268.011 238.62 268.011C229.594 268.012 222.277 267.837 222.277 267.621Z" fill="#252424"/>
<path d="M582.341 305.377H567.318C565.595 305.377 563.895 305.779 562.353 306.548L557.564 308.944C557.564 308.944 552.812 310.183 552.068 311.818C551.325 313.453 552.212 314.591 553.995 314.74C555.779 314.888 586.247 314.74 586.247 314.74L582.341 305.377Z" fill="#C73238"/>
<path d="M589.766 308.98H573.615C572.258 308.98 571.158 310.08 571.158 311.437C571.158 312.795 572.259 313.894 573.615 313.894H584.361L589.766 308.98Z" fill="#C73238"/>
<path d="M557.562 308.943L571.469 308.98L575.24 305.376H565.981C564.776 305.376 563.591 305.676 562.532 306.25L557.562 308.943Z" fill="#E0E0E0"/>
<path d="M583.854 313.896C583.748 313.769 586.104 311.625 589.532 308.702L589.764 309.345C588.38 309.348 586.907 309.351 585.366 309.354C582.029 309.341 579.006 309.285 576.819 309.206C574.632 309.126 573.279 309.023 573.279 308.916C573.279 308.808 574.632 308.717 576.819 308.654C579.006 308.591 582.027 308.559 585.366 308.573C586.907 308.588 588.38 308.603 589.764 308.616L590.778 308.627L589.997 309.26C586.496 312.098 583.959 314.024 583.854 313.896Z" fill="#252424"/>
<path d="M615.941 313.534C615.941 313.75 610.103 313.924 602.903 313.924C595.7 313.924 589.863 313.749 589.863 313.534C589.863 313.318 595.7 313.144 602.903 313.144C610.103 313.144 615.941 313.32 615.941 313.534Z" fill="#252424"/>
<path d="M605.02 310.899C605.02 311.115 601.576 311.29 597.328 311.29C593.079 311.29 589.635 311.115 589.635 310.899C589.635 310.683 593.079 310.509 597.328 310.509C601.576 310.507 605.02 310.683 605.02 310.899Z" fill="#252424"/>
<path d="M145.54 414.257H160.563C162.286 414.257 163.986 414.657 165.528 415.428L170.317 417.824C170.317 417.824 175.069 419.063 175.812 420.698C176.554 422.333 175.668 423.471 173.884 423.62C172.101 423.768 141.633 423.62 141.633 423.62L145.54 414.257Z" fill="#252424"/>
<path d="M138.104 417.86H154.254C155.612 417.86 156.711 418.959 156.711 420.317C156.711 421.674 155.612 422.774 154.254 422.774H143.508L138.104 417.86Z" fill="#252424"/>
<path d="M170.314 417.822L156.408 417.86L152.637 414.255H161.896C163.101 414.255 164.286 414.555 165.345 415.13L170.314 417.822Z" fill="#484646"/>
<path d="M156.39 417.899L156.379 417.888L152.539 414.218H161.892C163.099 414.218 164.298 414.522 165.358 415.097L170.458 417.86L170.311 417.861L156.39 417.899ZM152.727 414.294L156.418 417.824L170.163 417.788L165.321 415.166C164.271 414.596 163.086 414.296 161.89 414.296L152.727 414.294Z" fill="#252424"/>
<path d="M144.014 422.775C143.907 422.903 141.371 420.977 137.871 418.14L137.09 417.507L138.104 417.497C139.488 417.483 140.961 417.468 142.502 417.453C145.839 417.44 148.862 417.473 151.049 417.534C153.236 417.596 154.589 417.689 154.589 417.797C154.589 417.905 153.236 418.007 151.049 418.086C148.862 418.166 145.841 418.221 142.502 418.235C140.961 418.232 139.488 418.229 138.104 418.226L138.336 417.582C141.764 420.504 144.119 422.648 144.014 422.775Z" fill="#484646"/>
<path d="M135.318 421.895C135.318 422.111 133.162 422.285 130.504 422.285C127.845 422.285 125.689 422.109 125.689 421.895C125.689 421.679 127.845 421.505 130.504 421.505C133.162 421.505 135.318 421.679 135.318 421.895Z" fill="#252424"/>
<path d="M138.486 420.318C138.486 420.534 136.572 420.708 134.212 420.708C131.851 420.708 129.938 420.533 129.938 420.318C129.938 420.104 131.851 419.928 134.212 419.928C136.572 419.927 138.486 420.102 138.486 420.318Z" fill="#252424"/>
<path d="M369.183 360.566C369.199 362.386 368.724 364.181 367.805 365.779C366.82 367.397 365.363 368.709 363.612 369.555C361.723 370.522 359.375 371.005 356.569 371.005L351.391 371.012L351.376 382.737L343 382.748L343.041 350.087L356.574 350.069C358.967 349.996 361.344 350.456 363.515 351.412C365.293 352.212 366.773 353.507 367.761 355.127C368.729 356.788 369.219 358.664 369.183 360.566ZM355.933 364.678C357.528 364.675 358.717 364.318 359.499 363.606C360.257 362.762 360.675 361.689 360.676 360.579C360.677 359.47 360.263 358.398 359.507 357.556C358.73 356.842 357.542 356.487 355.943 356.489L351.399 356.494L351.389 364.683L355.933 364.678Z" fill="#252424"/>
<path d="M369.21 341L343.053 341.034L343.046 346.06L369.204 346.026L369.21 341Z" fill="#C73238"/>
<path d="M572.913 546.996C592.76 546.996 608.849 531.15 608.849 511.604C608.849 492.058 592.76 476.212 572.913 476.212C553.066 476.212 536.977 492.058 536.977 511.604C536.977 531.15 553.066 546.996 572.913 546.996Z" fill="#2E3148"/>
<path d="M572.912 532.139C584.429 532.139 593.764 522.945 593.764 511.603C593.764 500.262 584.429 491.067 572.912 491.067C561.396 491.067 552.061 500.262 552.061 511.603C552.061 522.945 561.396 532.139 572.912 532.139Z" fill="#1B1E36"/>
<path d="M572.985 480.725C569.106 480.725 565.961 494.581 565.961 511.675C565.961 528.768 569.106 542.624 572.985 542.624C576.865 542.624 580.01 528.768 580.01 511.675C580.01 494.581 576.865 480.725 572.985 480.725ZM573.471 540.878C573.027 541.46 572.583 541.023 572.583 541.023C570.797 538.984 569.904 535.197 569.904 535.197C566.779 525.294 567.523 504.029 567.523 504.029C568.991 487.148 571.662 483.16 572.571 482.275C572.664 482.184 572.787 482.129 572.917 482.119C573.047 482.108 573.176 482.143 573.283 482.218C574.602 483.138 575.708 486.988 575.708 486.988C578.975 498.931 578.679 510.145 578.679 510.145C578.975 519.904 577.042 530.827 577.042 530.827C575.554 539.128 573.471 540.878 573.471 540.878Z" fill="#B7B9C8"/>
<path d="M600.248 496.277C598.317 492.962 584.549 497.172 569.487 505.677C554.425 514.183 543.8 523.767 545.73 527.08C547.66 530.394 561.43 526.186 576.492 517.68C591.554 509.174 602.178 499.591 600.248 496.277ZM547.512 526.625C546.773 526.534 546.94 525.935 546.94 525.935C547.847 523.395 550.733 520.747 550.733 520.747C557.904 513.149 577.004 503.203 577.004 503.203C592.601 496.056 597.446 496.357 598.675 496.691C598.801 496.725 598.911 496.803 598.984 496.91C599.058 497.016 599.091 497.145 599.077 497.273C598.93 498.859 596.083 501.719 596.083 501.719C587.196 510.456 577.171 515.785 577.171 515.785C568.723 520.896 558.141 524.678 558.141 524.678C550.089 527.536 547.512 526.625 547.512 526.625Z" fill="#B7B9C8"/>
<path d="M600.177 527.188C602.123 523.881 591.525 514.254 576.517 505.684C561.508 497.115 547.741 492.853 545.796 496.165C543.852 499.477 554.448 509.098 569.466 517.668C584.483 526.238 598.232 530.5 600.177 527.188ZM547.086 497.443C546.799 496.771 547.406 496.61 547.406 496.61C550.092 496.11 553.867 497.249 553.867 497.249C564.134 499.551 582.443 510.846 582.443 510.846C596.54 520.561 598.701 524.84 599.025 526.054C599.058 526.179 599.046 526.311 598.989 526.427C598.933 526.543 598.837 526.636 598.718 526.69C597.248 527.352 593.311 526.365 593.311 526.365C581.177 523.161 571.473 517.29 571.473 517.29C562.753 512.658 554.132 505.532 554.132 505.532C547.58 500.099 547.088 497.45 547.088 497.45L547.086 497.443Z" fill="#B7B9C8"/>
<path d="M572.912 515.244C574.954 515.244 576.609 513.614 576.609 511.603C576.609 509.592 574.954 507.962 572.912 507.962C570.87 507.962 569.215 509.592 569.215 511.603C569.215 513.614 570.87 515.244 572.912 515.244Z" fill="#B7B9C8"/>
<path d="M588.072 499.805C589.256 499.805 590.216 498.826 590.216 497.62C590.216 496.413 589.256 495.435 588.072 495.435C586.888 495.435 585.928 496.413 585.928 497.62C585.928 498.826 586.888 499.805 588.072 499.805Z" fill="#B7B9C8"/>
<path d="M552.73 507.388C553.915 507.388 554.875 506.41 554.875 505.204C554.875 503.997 553.915 503.019 552.73 503.019C551.546 503.019 550.586 503.997 550.586 505.204C550.586 506.41 551.546 507.388 552.73 507.388Z" fill="#B7B9C8"/>
<path d="M569.058 534.191C570.243 534.191 571.203 533.213 571.203 532.006C571.203 530.8 570.243 529.822 569.058 529.822C567.874 529.822 566.914 530.8 566.914 532.006C566.914 533.213 567.874 534.191 569.058 534.191Z" fill="#B7B9C8"/>
</svg>
