<svg width="353" height="380" viewBox="0 0 353 380" fill="none" xmlns="http://www.w3.org/2000/svg">
<path d="M196.84 313.456C197.959 314.103 197.959 315.15 196.84 315.796C195.722 316.442 193.903 316.442 192.767 315.796C191.648 315.15 191.648 314.103 192.767 313.456C193.886 312.81 195.704 312.81 196.84 313.456Z" fill="#150035"/>
<path d="M207.487 307.328C208.606 307.974 208.606 309.021 207.487 309.667C206.368 310.313 204.55 310.313 203.413 309.667C202.294 309.021 202.294 307.974 203.413 307.328C204.532 306.682 206.351 306.682 207.487 307.328Z" fill="#150035"/>
<path d="M218.117 301.181C219.236 301.827 219.236 302.875 218.117 303.521C216.998 304.167 215.18 304.167 214.043 303.521C212.924 302.875 212.924 301.827 214.043 301.181C215.162 300.535 216.98 300.535 218.117 301.181Z" fill="#150035"/>
<path d="M228.764 295.053C229.883 295.699 229.883 296.747 228.764 297.393C227.645 298.039 225.827 298.039 224.691 297.393C223.572 296.747 223.572 295.699 224.691 295.053C225.81 294.407 227.628 294.407 228.764 295.053Z" fill="#150035"/>
<path d="M186.211 307.328C187.329 307.974 187.329 309.022 186.211 309.668C185.092 310.314 183.273 310.314 182.137 309.668C181.018 309.022 181.018 307.974 182.137 307.328C183.256 306.682 185.074 306.682 186.211 307.328Z" fill="#150035"/>
<path d="M196.84 301.181C197.959 301.827 197.959 302.875 196.84 303.521C195.722 304.167 193.903 304.167 192.767 303.521C191.648 302.875 191.648 301.827 192.767 301.181C193.886 300.535 195.704 300.535 196.84 301.181Z" fill="#150035"/>
<path d="M207.487 295.053C208.606 295.699 208.606 296.747 207.487 297.393C206.368 298.039 204.55 298.039 203.413 297.393C202.294 296.747 202.294 295.699 203.413 295.053C204.532 294.407 206.351 294.407 207.487 295.053Z" fill="#150035"/>
<path d="M218.117 288.924C219.236 289.57 219.236 290.618 218.117 291.264C216.998 291.91 215.18 291.91 214.043 291.264C212.924 290.618 212.924 289.57 214.043 288.924C215.162 288.278 216.98 288.278 218.117 288.924Z" fill="#150035"/>
<path d="M175.563 301.181C176.682 301.827 176.682 302.875 175.563 303.521C174.444 304.167 172.626 304.167 171.49 303.521C170.371 302.875 170.371 301.827 171.49 301.181C172.608 300.535 174.427 300.535 175.563 301.181Z" fill="#150035"/>
<path d="M186.211 295.053C187.329 295.699 187.329 296.747 186.211 297.393C185.092 298.039 183.273 298.039 182.137 297.393C181.018 296.747 181.018 295.699 182.137 295.053C183.256 294.407 185.074 294.407 186.211 295.053Z" fill="#150035"/>
<path d="M196.84 288.924C197.959 289.57 197.959 290.618 196.84 291.264C195.722 291.91 193.903 291.91 192.767 291.264C191.648 290.618 191.648 289.57 192.767 288.924C193.886 288.278 195.704 288.278 196.84 288.924Z" fill="#150035"/>
<path d="M207.487 282.778C208.606 283.424 208.606 284.471 207.487 285.117C206.368 285.764 204.55 285.764 203.413 285.117C202.294 284.471 202.294 283.424 203.413 282.778C204.532 282.132 206.351 282.132 207.487 282.778Z" fill="#150035"/>
<path d="M164.934 295.053C166.053 295.699 166.053 296.747 164.934 297.393C163.815 298.039 161.997 298.039 160.86 297.393C159.724 296.747 159.741 295.699 160.86 295.053C161.979 294.407 163.798 294.407 164.934 295.053Z" fill="#150035"/>
<path d="M175.563 288.924C176.682 289.57 176.682 290.618 175.563 291.264C174.444 291.91 172.626 291.91 171.49 291.264C170.371 290.618 170.371 289.57 171.49 288.924C172.608 288.278 174.427 288.278 175.563 288.924Z" fill="#150035"/>
<path d="M186.211 282.778C187.329 283.424 187.329 284.471 186.211 285.117C185.092 285.764 183.273 285.764 182.137 285.117C181.018 284.471 181.018 283.424 182.137 282.778C183.256 282.132 185.074 282.132 186.211 282.778Z" fill="#150035"/>
<path d="M196.84 276.649C197.959 277.295 197.959 278.343 196.84 278.989C195.722 279.635 193.903 279.635 192.767 278.989C191.648 278.343 191.648 277.295 192.767 276.649C193.886 276.003 195.704 276.003 196.84 276.649Z" fill="#150035"/>
<path d="M154.287 288.924C155.406 289.57 155.406 290.618 154.287 291.264C153.168 291.91 151.35 291.91 150.213 291.264C149.094 290.618 149.094 289.57 150.213 288.924C151.332 288.278 153.15 288.278 154.287 288.924Z" fill="#150035"/>
<path d="M164.934 282.778C166.053 283.424 166.053 284.471 164.934 285.117C163.815 285.764 161.997 285.764 160.861 285.117C159.742 284.471 159.742 283.424 160.861 282.778C161.98 282.132 163.798 282.132 164.934 282.778Z" fill="#150035"/>
<path d="M175.563 276.649C176.682 277.295 176.682 278.343 175.563 278.989C174.444 279.635 172.626 279.635 171.49 278.989C170.371 278.343 170.371 277.295 171.49 276.649C172.608 276.003 174.427 276.003 175.563 276.649Z" fill="#150035"/>
<path d="M186.211 270.52C187.329 271.166 187.329 272.214 186.211 272.86C185.092 273.506 183.273 273.506 182.137 272.86C181.018 272.214 181.018 271.166 182.137 270.52C183.256 269.874 185.074 269.874 186.211 270.52Z" fill="#150035"/>
<path d="M143.552 282.725C144.671 283.371 144.671 284.419 143.552 285.065C142.433 285.711 140.615 285.711 139.479 285.065C138.36 284.419 138.36 283.371 139.479 282.725C140.598 282.079 142.416 282.079 143.552 282.725Z" fill="#150035"/>
<path d="M154.2 276.58C155.319 277.226 155.319 278.273 154.2 278.919C153.081 279.565 151.263 279.565 150.126 278.919C149.007 278.273 149.007 277.226 150.126 276.58C151.245 275.933 153.063 275.933 154.2 276.58Z" fill="#150035"/>
<path d="M164.829 270.451C165.948 271.097 165.948 272.144 164.829 272.79C163.71 273.436 161.892 273.436 160.755 272.79C159.636 272.144 159.636 271.097 160.755 270.451C161.874 269.805 163.692 269.805 164.829 270.451Z" fill="#150035"/>
<path d="M175.476 264.322C176.595 264.968 176.595 266.015 175.476 266.661C174.357 267.307 172.539 267.307 171.403 266.661C170.284 266.015 170.284 264.968 171.403 264.322C172.522 263.676 174.34 263.676 175.476 264.322Z" fill="#150035"/>
<path d="M143.552 270.45C144.671 271.096 144.671 272.144 143.552 272.79C142.433 273.436 140.615 273.436 139.479 272.79C138.36 272.144 138.36 271.096 139.479 270.45C140.598 269.804 142.416 269.804 143.552 270.45Z" fill="#150035"/>
<path d="M154.2 264.322C155.319 264.968 155.319 266.015 154.2 266.661C153.081 267.307 151.263 267.307 150.126 266.661C149.007 266.015 149.007 264.968 150.126 264.322C151.245 263.676 153.063 263.676 154.2 264.322Z" fill="#150035"/>
<path d="M250.461 330.882C251.579 331.529 251.579 332.576 250.461 333.222C249.342 333.868 247.523 333.868 246.387 333.222C245.268 332.576 245.268 331.529 246.387 330.882C247.506 330.236 249.324 330.236 250.461 330.882Z" fill="#150035"/>
<path d="M261.089 324.753C262.208 325.399 262.208 326.447 261.089 327.093C259.971 327.739 258.152 327.739 257.016 327.093C255.897 326.447 255.897 325.399 257.016 324.753C258.135 324.107 259.953 324.107 261.089 324.753Z" fill="#150035"/>
<path d="M229.183 330.882C230.302 331.528 230.302 332.576 229.183 333.222C228.064 333.868 226.246 333.868 225.11 333.222C223.991 332.576 223.991 331.528 225.11 330.882C226.229 330.236 228.047 330.236 229.183 330.882Z" fill="#150035"/>
<path d="M239.813 324.753C240.932 325.399 240.932 326.447 239.813 327.093C238.694 327.739 236.876 327.739 235.74 327.093C234.621 326.447 234.621 325.399 235.74 324.753C236.858 324.107 238.677 324.107 239.813 324.753Z" fill="#150035"/>
<path d="M250.461 318.608C251.579 319.254 251.579 320.302 250.461 320.948C249.342 321.594 247.523 321.594 246.387 320.948C245.268 320.302 245.268 319.254 246.387 318.608C247.506 317.962 249.324 317.962 250.461 318.608Z" fill="#150035"/>
<path d="M261.089 312.479C262.208 313.125 262.208 314.173 261.089 314.819C259.971 315.465 258.152 315.465 257.016 314.819C255.897 314.173 255.897 313.125 257.016 312.479C258.135 311.833 259.953 311.833 261.089 312.479Z" fill="#150035"/>
<path d="M218.537 324.753C219.656 325.399 219.656 326.447 218.537 327.093C217.418 327.739 215.6 327.739 214.463 327.093C213.344 326.447 213.344 325.399 214.463 324.753C215.582 324.107 217.4 324.107 218.537 324.753Z" fill="#150035"/>
<path d="M229.183 318.608C230.302 319.254 230.302 320.302 229.183 320.948C228.064 321.594 226.246 321.594 225.11 320.948C223.991 320.302 223.991 319.254 225.11 318.608C226.229 317.962 228.047 317.962 229.183 318.608Z" fill="#150035"/>
<path d="M239.813 312.479C240.932 313.125 240.932 314.173 239.813 314.819C238.694 315.465 236.876 315.465 235.74 314.819C234.621 314.173 234.621 313.125 235.74 312.479C236.858 311.833 238.677 311.833 239.813 312.479Z" fill="#150035"/>
<path d="M250.461 306.332C251.579 306.978 251.579 308.026 250.461 308.672C249.342 309.318 247.523 309.318 246.387 308.672C245.268 308.026 245.268 306.978 246.387 306.332C247.506 305.686 249.324 305.686 250.461 306.332Z" fill="#150035"/>
<path d="M207.907 318.608C209.026 319.254 209.026 320.302 207.907 320.948C206.788 321.594 204.97 321.594 203.833 320.948C202.714 320.302 202.714 319.254 203.833 318.608C204.952 317.962 206.77 317.962 207.907 318.608Z" fill="#150035"/>
<path d="M218.537 312.479C219.656 313.125 219.656 314.173 218.537 314.819C217.418 315.465 215.6 315.465 214.463 314.819C213.344 314.173 213.344 313.125 214.463 312.479C215.582 311.833 217.4 311.833 218.537 312.479Z" fill="#150035"/>
<path d="M229.183 306.332C230.302 306.978 230.302 308.026 229.183 308.672C228.064 309.318 226.246 309.318 225.11 308.672C223.991 308.026 223.991 306.978 225.11 306.332C226.229 305.686 228.047 305.686 229.183 306.332Z" fill="#150035"/>
<path d="M239.813 300.204C240.932 300.85 240.932 301.897 239.813 302.544C238.694 303.19 236.876 303.19 235.74 302.544C234.621 301.897 234.621 300.85 235.74 300.204C236.858 299.558 238.677 299.558 239.813 300.204Z" fill="#150035"/>
<path d="M311.249 213.493C311.249 151.926 267.961 77.0542 214.568 46.2708C189.672 31.918 166.98 29.683 149.829 37.6452L149.776 37.6626C147.591 38.6754 145.493 39.8801 143.483 41.2246L112.678 58.7029L121.419 74.1907C119.129 82.3798 117.888 91.6515 117.888 102.006C117.888 163.573 161.175 238.445 214.568 269.228C222.331 273.698 229.866 276.963 237.086 279.146L246.859 296.467L281.213 276.893C282.227 276.37 283.223 275.793 284.185 275.2L284.727 274.885V274.851C301.143 264.339 311.249 243.194 311.249 213.476V213.493Z" fill="#DE5656"/>
<path d="M246.422 298.091L236.299 280.141C228.939 277.889 221.439 274.554 213.991 270.258C160.354 239.335 116.716 163.852 116.716 102.006C116.716 92.0181 117.87 82.729 120.16 74.3478L111.069 58.2489L142.906 40.1944C144.916 38.8325 147.084 37.6102 149.287 36.58L149.846 36.2483L149.916 36.3006C167.976 28.2163 191.124 31.3767 215.18 45.2406C268.818 76.1637 312.455 151.647 312.455 213.511C312.455 242.164 303.102 264.095 286.108 275.409V275.462L284.797 276.247C283.835 276.841 282.821 277.417 281.79 277.958L246.439 298.108L246.422 298.091ZM114.321 59.1394L122.73 74.0335L122.591 74.5049C120.283 82.7988 119.094 92.0356 119.094 102.006C119.094 163.101 162.189 237.659 215.163 268.198C222.628 272.493 230.11 275.793 237.436 277.993L237.89 278.133L247.314 294.826L280.619 275.846C281.65 275.304 282.612 274.763 283.556 274.17L284.08 273.838C300.829 263.117 310.042 241.675 310.042 213.476C310.042 152.38 266.947 77.8225 213.974 47.2835C190.354 33.6641 167.749 30.6084 150.336 38.7102L149.811 38.9547C147.818 39.9325 145.965 40.9976 144.164 42.2024L114.321 59.1394Z" fill="#150035"/>
<path d="M296.842 210.507C296.842 148.94 262.82 90.4114 209.427 59.6105C196.647 52.2421 184.444 48.0864 173.273 46.8467L141.367 65.0234L140.86 64.0456C137.083 62.9106 133.219 61.4614 129.286 59.7153L107.537 72.0601L116.279 87.5479C113.988 95.737 112.747 105.009 112.747 115.363C112.747 176.93 156.035 251.802 209.427 282.585C217.19 287.055 224.725 290.32 231.945 292.503L232.452 293.481L266.806 273.907C267.82 273.383 268.817 272.807 269.778 272.214L270.32 271.899V271.864C286.737 261.353 296.842 240.208 296.842 210.49V210.507Z" fill="white"/>
<path d="M284.727 274.886V274.851C301.143 264.339 311.248 243.194 311.248 213.476C311.248 184.928 301.93 153.533 286.632 125.002L251.019 145.606C251.019 145.606 231.281 192.593 231.281 196.644C231.281 199.35 234.114 246.564 236.002 278.762C236.369 278.884 236.736 279.024 237.103 279.129L246.876 296.45L281.23 276.876C282.244 276.352 283.24 275.776 284.202 275.183L284.744 274.868L284.727 274.886Z" fill="#150035"/>
<path d="M278.45 232.246C278.45 293.813 235.162 318.782 181.787 287.981C128.394 257.198 85.1064 182.326 85.1064 120.759C85.1064 59.1919 128.394 34.2229 181.787 65.0238C235.18 95.8072 278.45 170.679 278.45 232.246Z" fill="#DE5656"/>
<path d="M224.952 302.403C211.508 302.403 196.595 297.916 181.175 289.011C127.538 258.088 83.9004 182.605 83.9004 120.741C83.9004 90.5163 94.1629 67.957 112.817 57.2011C131.471 46.4452 156.157 48.8548 182.364 63.9584C236.002 94.8815 279.639 170.365 279.639 232.228C279.639 262.453 269.377 285.012 250.722 295.768C243.047 300.186 234.358 302.386 224.952 302.386V302.403ZM138.604 52.993C129.618 52.993 121.314 55.0883 114.006 59.2964C96.1384 69.5983 86.2955 91.4418 86.2955 120.776C86.2955 181.871 129.391 256.429 182.364 286.968C207.802 301.635 231.648 304.027 249.533 293.725C267.401 283.424 277.244 261.58 277.244 232.263C277.244 171.168 234.148 96.6102 181.175 66.0712C166.122 57.3932 151.629 53.0105 138.604 53.0105V52.993Z" fill="#150035"/>
<path d="M240.295 277.737C272.614 259.101 272.612 198.668 240.29 142.755C207.968 86.8426 155.566 56.6239 123.247 75.2596C90.9282 93.8954 90.9306 154.329 123.253 210.241C155.574 266.154 207.976 296.373 240.295 277.737Z" fill="white"/>
<path d="M241.012 286.72C273.331 268.085 273.328 207.651 241.006 151.739C208.685 95.8263 156.283 65.6075 123.964 84.2433C91.645 102.879 91.6474 163.312 123.969 219.225C156.291 275.137 208.693 305.356 241.012 286.72Z" fill="white"/>
<path d="M218.747 284.471C207.208 284.471 194.411 280.612 181.193 272.981C135.231 246.476 97.835 181.784 97.835 128.772C97.835 102.826 106.664 83.4616 122.678 74.2248C138.693 64.9881 159.899 67.0484 182.4 80.0218C228.362 106.527 265.758 171.22 265.758 224.231C265.758 250.178 256.929 269.542 240.915 278.778C234.324 282.585 226.841 284.471 218.764 284.471H218.747ZM144.829 70.9247C137.154 70.9247 130.073 72.7057 123.867 76.3027C108.622 85.0855 100.23 103.734 100.23 128.79C100.23 181.05 137.084 244.8 182.4 270.939C204.131 283.458 224.481 285.518 239.726 276.718C254.971 267.918 263.363 249.287 263.363 224.231C263.363 171.988 226.509 108.221 181.193 82.0822C168.344 74.6614 155.966 70.9247 144.829 70.9247Z" fill="#150035"/>
<path d="M188.274 267.936C142.556 241.57 105.509 177.471 105.509 124.757C105.509 102.337 111.698 85.3826 122.905 75.5696C122.94 75.5347 122.905 75.4648 122.853 75.4998C107.8 84.1079 99.0059 102.861 99.0059 129.297C99.0059 182.011 136.07 246.109 181.77 272.475C207.592 287.369 231.247 286.007 246.422 273.366C246.474 273.313 246.422 273.244 246.352 273.279C231.456 281.293 210.599 280.822 188.256 267.953L188.274 267.936Z" fill="#150035"/>
<path d="M217.908 284.419C206.386 284.419 193.799 280.77 181.193 273.506C135.231 247 97.835 182.308 97.835 129.297C97.835 102.949 106.524 83.4798 122.276 74.47L123.22 73.9287L124.531 75.6923L123.745 76.4605C112.608 86.2037 106.734 102.914 106.734 124.775C106.734 177.035 143.588 240.784 188.903 266.923C209.393 278.744 230.146 280.682 245.828 272.231L246.772 271.725L248.066 273.506L247.244 274.274C239.097 281.049 229.009 284.419 217.925 284.419H217.908ZM114.164 84.056C105.09 94.1134 100.213 109.723 100.213 129.297C100.213 181.557 137.067 245.307 182.382 271.446C201.666 282.568 220.81 284.943 235.793 278.517C221.334 281.887 204.393 278.605 187.697 268.984C141.735 242.478 104.339 177.786 104.339 124.775C104.339 108.082 107.713 94.2531 114.181 84.056H114.164Z" fill="#150035"/>
<path d="M137.381 51.8235L170.266 33.1055L155.493 35.4452L147.538 38.7977L119.758 54.495L130.894 51.8235H137.381Z" fill="#150035"/>
<path d="M249.989 136.841L248.782 134.78L281.3 115.573L282.524 117.634L249.989 136.841Z" fill="#150035"/>
<path d="M261.778 87.3552L229.074 106.213L230.272 108.285L262.976 89.4268L261.778 87.3552Z" fill="#150035"/>
<path d="M179.429 32.6436L145.849 51.3027L147.013 53.3931L180.593 34.734L179.429 32.6436Z" fill="#150035"/>
<path d="M183.589 132.825L179.445 180.511L188.029 185.854L184.043 133.122C184.008 132.755 183.606 132.493 183.571 132.825H183.589Z" fill="white"/>
<path d="M190.093 189.38L177.54 181.558L181.946 130.869L183.712 130.729C184.813 130.729 185.74 131.707 185.844 132.947L190.093 189.38ZM181.334 179.445L185.949 182.326L183.677 152.294L181.316 179.445H181.334Z" fill="#150035"/>
<path d="M221.649 191.388L184.113 187.774L184.428 183.915L221.981 187.512L221.649 191.388Z" fill="#150035"/>
<path d="M182.499 94.1202L182.4 104.526L185.163 104.552L185.261 94.1462L182.499 94.1202Z" fill="#150035"/>
<path d="M191.194 108.851L188.432 108.537L189.411 98.7412L192.156 99.073L191.194 108.851Z" fill="#150035"/>
<path d="M197.138 113.897L194.428 113.268L196.263 104.206L198.956 104.835L197.138 113.897Z" fill="#150035"/>
<path d="M202.925 119.659L200.32 118.663L202.995 110.422L205.6 111.417L202.925 119.659Z" fill="#150035"/>
<path d="M208.485 126.05L206.037 124.688L209.516 117.354L211.981 118.716L208.485 126.05Z" fill="#150035"/>
<path d="M213.764 133.017L211.526 131.271L215.792 124.933L218.03 126.679L213.764 133.017Z" fill="#150035"/>
<path d="M218.677 140.455L216.736 138.325L221.754 133.052L223.677 135.182L218.677 140.455Z" fill="#150035"/>
<path d="M223.188 148.295L221.632 145.816L227.314 141.66L228.87 144.14L223.188 148.295Z" fill="#150035"/>
<path d="M227.244 156.396L226.125 153.672L232.419 150.687L233.538 153.41L227.244 156.396Z" fill="#150035"/>
<path d="M230.81 164.708L230.163 161.809L236.999 160.011L237.663 162.909L230.81 164.708Z" fill="#150035"/>
<path d="M233.887 173.107L233.677 170.139L240.985 169.562L241.194 172.531L233.887 173.107Z" fill="#150035"/>
<path d="M244.114 182.169L236.422 181.523L236.632 178.555L244.342 179.201L244.114 182.169Z" fill="#150035"/>
<path d="M246.422 191.737L238.397 189.869L238.992 186.953L246.999 188.821L246.422 191.737Z" fill="#150035"/>
<path d="M248.03 201.131L239.813 198.076L240.723 195.264L248.94 198.32L248.03 201.131Z" fill="#150035"/>
<path d="M248.993 210.263L240.636 206.038L241.807 203.349L250.164 207.574L248.993 210.263Z" fill="#150035"/>
<path d="M249.237 219.046L232.751 208.657L234.15 206.09L250.619 216.462L249.237 219.046Z" fill="#150035"/>
<path d="M248.765 227.357L240.426 220.949L242.034 218.522L250.356 224.913L248.765 227.357Z" fill="#150035"/>
<path d="M247.594 235.11L239.395 227.741L241.178 225.437L249.36 232.822L247.594 235.11Z" fill="#150035"/>
<path d="M245.723 242.251L237.769 233.957L239.692 231.827L247.629 240.104L245.723 242.251Z" fill="#150035"/>
<path d="M243.17 248.677L235.548 239.58L237.593 237.572L245.216 246.687L243.17 248.677Z" fill="#150035"/>
<path d="M239.971 254.335L232.751 244.504L234.919 242.653L242.139 252.484L239.971 254.335Z" fill="#150035"/>
<path d="M236.142 259.136L229.411 248.695L231.666 247.001L238.415 257.425L236.142 259.136Z" fill="#150035"/>
<path d="M231.737 263.047L225.565 252.117L227.926 250.562L234.097 261.493L231.737 263.047Z" fill="#150035"/>
<path d="M226.807 265.999L221.247 254.702L223.695 253.305L229.237 264.602L226.807 265.999Z" fill="#150035"/>
<path d="M221.387 267.988L216.526 256.447L219.044 255.207L223.904 266.766L221.387 267.988Z" fill="#150035"/>
<path d="M215.548 268.984L211.422 257.302L214.009 256.237L218.135 267.919L215.548 268.984Z" fill="#150035"/>
<path d="M209.341 268.949L206.02 257.285L208.659 256.412L211.981 268.076L209.341 268.949Z" fill="#150035"/>
<path d="M202.872 267.919L200.354 256.377L203.047 255.696L205.547 267.238L202.872 267.919Z" fill="#150035"/>
<path d="M196.159 265.876L194.498 254.596L197.225 254.125L198.886 265.404L196.159 265.876Z" fill="#150035"/>
<path d="M189.305 262.838L188.519 251.943L191.281 251.698L192.068 262.611L189.305 262.838Z" fill="#150035"/>
<path d="M182.477 238.365L182.391 258.847L185.153 258.858L185.239 238.377L182.477 238.365Z" fill="#150035"/>
<path d="M178.239 254.247L175.494 253.932L176.456 244.154L179.218 244.469L178.239 254.247Z" fill="#150035"/>
<path d="M171.386 248.799L168.693 248.171L170.512 239.109L173.221 239.737L171.386 248.799Z" fill="#150035"/>
<path d="M164.655 242.583L162.05 241.588L164.725 233.346L167.33 234.342L164.655 242.583Z" fill="#150035"/>
<path d="M158.134 235.652L155.669 234.29L159.166 226.956L161.613 228.318L158.134 235.652Z" fill="#150035"/>
<path d="M151.857 228.074L149.619 226.328L153.885 219.989L156.123 221.735L151.857 228.074Z" fill="#150035"/>
<path d="M145.896 219.954L143.973 217.824L148.973 212.551L150.896 214.681L145.896 219.954Z" fill="#150035"/>
<path d="M140.336 211.346L138.78 208.867L144.462 204.711L146.018 207.19L140.336 211.346Z" fill="#150035"/>
<path d="M135.231 202.319L134.112 199.595L140.406 196.609L141.525 199.333L135.231 202.319Z" fill="#150035"/>
<path d="M130.651 192.995L129.986 190.096L136.84 188.298L137.486 191.196L130.651 192.995Z" fill="#150035"/>
<path d="M126.664 183.443L126.454 180.475L133.762 179.898L133.972 182.867L126.664 183.443Z" fill="#150035"/>
<path d="M131.018 174.451L123.308 173.805L123.535 170.837L131.227 171.483L131.018 174.451Z" fill="#150035"/>
<path d="M128.658 166.053L120.65 164.185L121.227 161.269L129.234 163.137L128.658 166.053Z" fill="#150035"/>
<path d="M126.927 157.741L118.71 154.685L119.602 151.874L127.836 154.93L126.927 157.741Z" fill="#150035"/>
<path d="M125.842 149.657L117.503 145.431L118.674 142.742L127.014 146.968L125.842 149.657Z" fill="#150035"/>
<path d="M133.5 146.915L117.031 136.543L118.412 133.959L134.899 144.348L133.5 146.915Z" fill="#150035"/>
<path d="M125.616 134.484L117.294 128.093L118.885 125.648L127.224 132.057L125.616 134.484Z" fill="#150035"/>
<path d="M126.472 127.569L118.29 120.183L120.056 117.878L128.255 125.264L126.472 127.569Z" fill="#150035"/>
<path d="M127.958 121.178L120.003 112.902L121.926 110.754L129.881 119.048L127.958 121.178Z" fill="#150035"/>
<path d="M130.056 115.433L122.434 106.319L124.479 104.328L132.102 113.425L130.056 115.433Z" fill="#150035"/>
<path d="M132.749 110.352L125.528 100.522L127.679 98.6709L134.899 108.501L132.749 110.352Z" fill="#150035"/>
<path d="M135.965 106.004L129.234 95.5803L131.507 93.8691L138.238 104.311L135.965 106.004Z" fill="#150035"/>
<path d="M139.724 102.443L133.553 91.5123L135.913 89.9583L142.084 100.889L139.724 102.443Z" fill="#150035"/>
<path d="M143.955 99.7009L138.413 88.3862L140.843 87.0068L146.385 98.304L143.955 99.7009Z" fill="#150035"/>
<path d="M148.605 97.7982L143.745 86.2391L146.263 85.0168L151.123 96.5585L148.605 97.7982Z" fill="#150035"/>
<path d="M153.641 96.7679L149.515 85.0866L152.102 84.0215L156.228 95.7028L153.641 96.7679Z" fill="#150035"/>
<path d="M158.991 96.5935L155.651 84.9297L158.291 84.0566L161.631 95.7205L158.991 96.5935Z" fill="#150035"/>
<path d="M164.603 97.3095L162.103 85.7679L164.777 85.0869L167.295 96.6285L164.603 97.3095Z" fill="#150035"/>
<path d="M170.424 98.881L168.763 87.6013L171.49 87.1299L173.151 98.4096L170.424 98.881Z" fill="#150035"/>
<path d="M176.368 101.308L175.581 90.395L178.326 90.168L179.13 101.064L176.368 101.308Z" fill="#150035"/>
<path d="M182.471 94.132L182.363 114.613L185.126 114.628L185.233 94.1465L182.471 94.132Z" fill="#150035"/>
<path d="M189.935 189.38C189.935 193.274 187.4 194.863 184.271 192.907C181.141 190.951 178.606 186.219 178.606 182.308C178.606 178.397 181.141 176.826 184.271 178.781C187.4 180.737 189.935 185.469 189.935 189.38Z" fill="white"/>
<path d="M186.806 195.683C185.704 195.683 184.533 195.316 183.362 194.601C179.69 192.313 176.806 186.918 176.806 182.326C176.806 179.759 177.732 177.698 179.358 176.686C180.984 175.673 183.1 175.83 185.163 177.122C188.851 179.41 191.736 184.805 191.736 189.397C191.736 191.964 190.809 194.024 189.184 195.037C188.467 195.474 187.663 195.701 186.823 195.701L186.806 195.683ZM181.736 179.899C181.509 179.899 181.316 179.951 181.159 180.038C180.687 180.335 180.39 181.191 180.39 182.326C180.39 185.538 182.575 189.624 185.163 191.248C186.072 191.807 186.893 191.964 187.365 191.685C187.837 191.388 188.135 190.532 188.135 189.397C188.135 186.167 185.949 182.099 183.362 180.475C182.75 180.091 182.19 179.899 181.736 179.899Z" fill="#150035"/>
<path d="M161.07 158.614C161.123 158.492 161.07 158.352 160.965 158.282L149.741 151.42C149.234 150.966 148.378 151.053 147.486 151.787L143.308 155.296C143.098 155.471 122.818 172.216 100.439 168.095C99.9849 168.008 99.5128 167.99 99.0058 168.043C96.7855 168.252 94.2854 169.701 92.0826 172.059C91.5581 172.617 91.0686 173.228 90.5966 173.857C69.0926 203.052 48.6026 210.106 47.7285 210.403L43.585 211.747C42.1864 212.201 40.8577 214.226 40.8752 215.868L40.9451 220.722C41.9416 283.476 59.4245 307.904 73.9528 317.35L87.5545 325.661L88.4811 322.973C91.2085 323.357 93.0092 323.234 93.3589 323.2H93.3938C94.7575 323.077 96.296 322.187 97.6422 320.738L97.6771 320.703C99.5478 318.712 139.689 275.06 148.465 186.691L154.532 173.455L161.053 158.631L161.07 158.614Z" fill="#150035"/>
<path d="M88.0792 327.041L73.481 318.136C58.7604 308.55 41.0153 283.878 40.0187 220.722L39.9488 215.868C39.9138 213.825 41.5223 211.433 43.3055 210.857L47.449 209.512C48.2881 209.233 68.5159 202.249 89.845 173.299C90.352 172.618 90.8765 171.972 91.401 171.413C93.7787 168.864 96.4536 167.345 98.9186 167.1C99.4956 167.048 100.055 167.065 100.614 167.17C122.276 171.151 141.892 155.244 142.713 154.563L146.874 151.071C148.046 150.076 149.374 149.919 150.266 150.652L161.438 157.479C161.945 157.793 162.154 158.44 161.91 158.981L155.388 173.805L149.392 186.918C140.563 275.619 100.09 319.481 98.3767 321.314C96.8032 322.973 95.0899 323.951 93.4989 324.09C93.1493 324.125 91.5409 324.23 89.1282 323.951L88.0792 327.024V327.041ZM99.5131 168.951C99.3732 168.951 99.2333 168.951 99.0935 168.968C97.1179 169.16 94.8102 170.522 92.7647 172.688C92.2926 173.194 91.8206 173.77 91.3485 174.399C69.6697 203.82 48.9 210.979 48.0259 211.276L43.865 212.62C42.851 212.952 41.7845 214.611 41.802 215.833L41.8719 220.687C42.851 283.023 60.1416 307.223 74.4601 316.547L87.0477 324.23L87.8345 321.908L88.6037 322.013C91.2436 322.379 92.957 322.257 93.2717 322.24C94.443 322.135 95.7717 321.349 96.978 320.074C98.7263 318.224 138.815 274.746 147.556 186.569L147.643 186.272L153.71 173.037L159.986 158.754L149.112 152.101C149.007 151.996 148.605 152.066 148.081 152.503L143.902 156.012C143.045 156.728 122.765 173.142 100.265 169.021C100.02 168.968 99.7578 168.951 99.4956 168.951H99.5131Z" fill="#150035"/>
<path d="M149.741 151.42C149.234 150.966 148.378 151.053 147.486 151.787L143.308 155.296C143.098 155.471 122.818 172.216 100.439 168.095C99.9849 168.008 99.5129 167.99 99.0059 168.043C96.7855 168.252 94.2855 169.701 92.0826 172.059C91.5581 172.617 91.0686 173.228 90.5966 173.857C69.0926 203.052 48.6026 210.106 47.7285 210.403L43.585 211.747C42.8508 211.991 42.134 212.655 41.627 213.476L75.3864 232.595L146.507 202.685C147.276 197.516 147.941 192.191 148.5 186.673L154.567 173.438L161.088 158.614C161.14 158.492 161.088 158.352 160.983 158.282L149.759 151.42H149.741Z" fill="white"/>
<path d="M75.3163 233.626L40.333 213.808L40.84 212.987C41.5044 211.922 42.396 211.154 43.3051 210.857L47.4486 209.512C48.2877 209.233 68.5155 202.249 89.8446 173.299C90.3516 172.618 90.8761 171.972 91.4006 171.413C93.7783 168.864 96.4531 167.345 98.9182 167.1C99.4952 167.048 100.055 167.065 100.614 167.17C122.275 171.151 141.891 155.244 142.713 154.563L146.874 151.071C148.045 150.076 149.374 149.919 150.266 150.652L161.437 157.479C161.944 157.793 162.154 158.44 161.909 158.981L155.388 173.805L149.391 186.918C148.867 192.244 148.203 197.587 147.416 202.807L147.346 203.331L75.3163 233.626ZM43.0254 213.197L75.4387 231.565L145.65 202.039C146.402 196.958 147.049 191.772 147.556 186.604L147.643 186.307L153.71 173.072L159.986 158.789L149.112 152.136C149.007 152.031 148.605 152.101 148.08 152.538L143.902 156.047C143.045 156.763 122.765 173.176 100.264 169.056C99.8798 168.986 99.4952 168.968 99.0931 169.003C97.1175 169.195 94.8097 170.557 92.7643 172.722C92.2922 173.229 91.8202 173.805 91.3481 174.434C69.6693 203.855 48.8996 211.014 48.0255 211.311L43.8646 212.655C43.5848 212.743 43.2876 212.952 43.0079 213.232L43.0254 213.197Z" fill="#150035"/>
<path d="M109.199 327.775C107.835 329.224 106.314 330.097 104.95 330.22H104.915C102.853 330.412 54.1626 333.625 52.5017 227.742L52.4318 222.888C52.4143 221.247 53.7256 219.221 55.1417 218.767L59.2851 217.423C60.1418 217.143 80.6492 210.072 102.153 180.877C102.625 180.249 103.115 179.637 103.639 179.079C105.86 176.722 108.342 175.272 110.562 175.063C111.069 175.01 111.542 175.045 111.996 175.115C134.374 179.218 154.654 162.473 154.864 162.316L159.043 158.807C160.459 157.619 161.787 158.108 161.77 159.785L161.7 164.761C160.039 272.564 111.349 325.488 109.269 327.688L109.234 327.723L109.199 327.775ZM63.9531 230.815C67.2224 299.454 91.8733 314.645 103.062 317.176C104.916 317.595 108.325 314.313 110.178 311.781C121.454 296.381 146.944 253.881 150.196 181.069C150.266 179.69 149.322 179.096 148.151 179.795C139.147 185.155 124.566 191.668 108.884 189.887C107.8 189.765 106.437 190.551 105.353 191.947C89.9326 211.713 75.1421 222.085 66.0335 227.148C64.8447 227.812 63.9006 229.488 63.9531 230.815Z" fill="#DE5656"/>
<path d="M103.622 331.197C99.8806 331.197 89.8628 330.22 79.513 320.93C67.2574 309.93 52.4669 284.839 51.5578 227.759L51.4879 222.905C51.4529 220.862 53.0613 218.47 54.8446 217.894L58.988 216.55C59.8272 216.27 80.0549 209.286 101.384 180.336C101.891 179.655 102.416 179.026 102.94 178.45C105.318 175.901 107.993 174.382 110.458 174.137C111.035 174.085 111.594 174.102 112.154 174.207C133.815 178.171 153.431 162.281 154.252 161.6L158.413 158.108C159.427 157.253 160.511 157.008 161.403 157.445C162.225 157.829 162.679 158.702 162.662 159.819L162.592 164.796C160.913 272.948 111.996 326.134 109.916 328.351L109.881 328.386C108.36 330.01 106.629 330.988 105.038 331.127C104.828 331.145 104.339 331.18 103.622 331.18V331.197ZM111.052 175.988C110.912 175.988 110.772 175.988 110.633 176.006C108.657 176.198 106.349 177.56 104.304 179.725C103.832 180.231 103.342 180.807 102.888 181.436C81.2088 210.857 60.4391 218.016 59.565 218.313L55.404 219.658C54.39 219.989 53.3236 221.648 53.3411 222.87L53.411 227.724C54.3026 284.14 68.761 308.795 80.7368 319.551C92.6776 330.254 104.321 329.346 104.811 329.294C105.982 329.189 107.311 328.404 108.517 327.129L108.552 327.094C110.615 324.894 159.06 272.232 160.721 164.778L160.791 159.802C160.791 159.4 160.704 159.173 160.599 159.138C160.476 159.086 160.109 159.138 159.602 159.557L155.424 163.067C154.567 163.783 134.287 180.196 111.786 176.075C111.542 176.023 111.279 176.006 111.017 176.006L111.052 175.988ZM103.412 318.137C103.237 318.137 103.045 318.119 102.87 318.084C94.4084 316.181 66.5232 304.238 63.0266 230.85C62.9392 229.174 64.093 227.148 65.5791 226.328C75.0548 221.072 89.5132 210.735 104.618 191.371C105.93 189.695 107.591 188.804 108.989 188.961C124.217 190.708 138.43 184.491 147.679 178.991C148.535 178.485 149.41 178.433 150.091 178.834C150.791 179.253 151.175 180.074 151.123 181.104C147.836 254.44 121.926 297.288 110.93 312.322C109.391 314.417 105.982 318.137 103.395 318.137H103.412ZM64.8973 230.763C68.3414 302.823 95.1602 314.417 103.29 316.268C104.374 316.513 107.363 314.068 109.444 311.222C120.336 296.328 146.018 253.846 149.287 181.017C149.287 180.633 149.2 180.458 149.165 180.423C149.13 180.423 148.973 180.388 148.658 180.58C139.165 186.238 124.531 192.593 108.814 190.795C108.167 190.708 107.118 191.231 106.122 192.506C90.8244 212.114 76.1388 222.608 66.5057 227.951C65.6315 228.44 64.8623 229.802 64.9147 230.763H64.8973Z" fill="#150035"/>
<path d="M148.168 179.794C139.164 185.155 124.583 191.667 108.901 189.886C107.817 189.764 106.453 190.55 105.369 191.947C89.9495 211.712 75.1589 222.084 66.0503 227.148C64.8615 227.811 63.9174 229.488 63.9699 230.815C67.2392 299.453 91.8901 314.644 103.079 317.176C104.932 317.595 108.341 314.312 110.195 311.78C121.471 296.38 146.961 253.88 150.213 181.069C150.283 179.689 149.339 179.096 148.168 179.794Z" fill="white"/>
<path d="M148.169 179.794C146.525 180.772 144.672 181.802 142.679 182.797C138.85 253.688 113.937 295.21 102.835 310.401C101.542 312.182 99.4788 314.295 97.7305 315.273C99.706 316.215 101.524 316.827 103.08 317.176C104.933 317.595 108.343 314.312 110.196 311.78C121.472 296.38 146.962 253.88 150.214 181.069C150.284 179.689 149.34 179.096 148.169 179.794Z" fill="#150035"/>
<path d="M103.412 318.136C103.237 318.136 103.045 318.119 102.87 318.084C101.087 317.682 99.2162 317.019 97.3106 316.111L95.7021 315.343L97.2581 314.47C98.9365 313.527 100.93 311.431 102.066 309.86C112.713 295.315 137.888 253.793 141.735 182.763L141.77 182.221L142.259 181.977C144.095 181.051 145.931 180.056 147.696 179.009C148.553 178.502 149.427 178.45 150.109 178.851C150.808 179.27 151.193 180.091 151.14 181.121C147.854 254.457 121.944 297.323 110.947 312.339C109.409 314.435 106 318.154 103.412 318.154V318.136ZM99.6183 315.098C100.877 315.605 102.101 316.006 103.272 316.268C104.356 316.513 107.346 314.068 109.426 311.222C120.318 296.345 146 253.863 149.27 181.017C149.27 180.632 149.182 180.458 149.147 180.423C149.112 180.423 148.955 180.388 148.64 180.58C146.997 181.558 145.284 182.501 143.57 183.374C139.602 254.596 114.286 296.293 103.569 310.943C102.59 312.287 101.104 313.911 99.6183 315.098Z" fill="white"/>
<path d="M42.0766 212.674L41.1621 214.284L52.9466 220.962L53.8611 219.352L42.0766 212.674Z" fill="#150035"/>
<path d="M49.2661 209.341L48.3516 210.951L60.1361 217.629L61.0506 216.019L49.2661 209.341Z" fill="#150035"/>
<path d="M97.7023 167.664L96.7881 169.274L108.574 175.95L109.488 174.34L97.7023 167.664Z" fill="#150035"/>
<path d="M88.0744 177.38L87.1602 178.99L98.9458 185.666L99.8601 184.056L88.0744 177.38Z" fill="#150035"/>
<path d="M143.946 154.033L142.999 155.624L155.456 163.023L156.403 161.432L143.946 154.033Z" fill="#150035"/>
<path d="M51.8721 240.348L42.6411 234.796L42.5537 232.596L51.8371 238.183L51.8721 240.348Z" fill="#DE5656"/>
<path d="M67.2747 304.307L58.0437 298.755L56.3828 295.577L65.6837 301.164L67.2747 304.307Z" fill="#DE5656"/>
<path d="M122.52 175.988L110.439 169.301L111.331 167.677L126.122 175.848L122.52 175.988Z" fill="#150035"/>
<path d="M109.583 312.287L104.758 309.301L105.824 307.782L110.562 310.716L109.583 312.287Z" fill="#DE5656"/>
<path d="M148.833 195.352L143.011 191.72L143.168 189.625L149.829 193.781L148.833 195.352Z" fill="#DE5656"/>
<path d="M147.784 205.724L141.979 202.109L142.207 200.049L148.763 204.152L147.784 205.724Z" fill="#DE5656"/>
<path d="M103.412 318.136C103.237 318.136 103.045 318.119 102.87 318.084C94.408 316.181 66.5227 304.238 63.0261 230.85C62.9387 229.173 64.0926 227.148 65.5786 226.327C75.0544 221.072 89.5127 210.735 104.618 191.371C105.929 189.694 107.59 188.804 108.989 188.961C124.216 190.707 138.43 184.491 147.678 178.991C148.535 178.485 149.409 178.432 150.091 178.834C150.79 179.253 151.175 180.074 151.123 181.104C147.836 254.439 121.926 297.306 110.929 312.322C109.391 314.417 105.982 318.136 103.394 318.136H103.412ZM108.674 190.794C108.045 190.794 107.031 191.301 106.104 192.506C90.8065 212.114 76.1208 222.608 66.4878 227.951C65.6136 228.44 64.8444 229.802 64.8968 230.762C68.3409 302.823 95.1597 314.417 103.289 316.268C104.373 316.512 107.363 314.068 109.443 311.222C120.335 296.345 146.017 253.863 149.287 181.016C149.287 180.632 149.199 180.458 149.164 180.423C149.129 180.423 148.972 180.388 148.657 180.58C139.164 186.237 124.531 192.593 108.814 190.794C108.779 190.794 108.744 190.794 108.691 190.794H108.674Z" fill="#150035"/>
<path d="M127.308 253.514C136.668 231.543 134.166 209.444 121.719 204.155C109.271 198.865 91.5923 212.388 82.2318 234.358C72.8714 256.329 75.3739 278.428 87.8213 283.718C100.269 289.007 117.948 275.485 127.308 253.514Z" fill="#150035"/>
<path d="M117.849 249.495C123.281 236.744 121.83 223.919 114.606 220.849C107.383 217.779 97.1235 225.628 91.691 238.379C86.2584 251.13 87.7101 263.955 94.9333 267.025C102.157 270.095 112.416 262.246 117.849 249.495Z" fill="#150035"/>
<path d="M99.1807 247.228C99.1807 265.37 101.646 278.64 104.688 276.894C107.73 275.13 110.195 259.014 110.195 240.872C110.195 222.73 107.73 209.46 104.688 211.206C101.646 212.97 99.1807 229.086 99.1807 247.228ZM101.506 266.208C101.506 266.208 99.9849 255.487 100.23 245.01C100.23 245.01 100.002 233.242 102.555 219.098C102.555 219.098 103.429 214.506 104.461 212.935C104.635 212.673 104.863 212.568 105.02 212.673C105.737 213.197 107.835 216.217 108.989 233.469C108.989 233.469 109.566 255.696 107.118 267.622C107.118 267.622 106.419 272.04 105.02 275.008C105.02 275.008 104.67 275.671 104.321 275.252C104.321 275.252 102.677 274.344 101.523 266.208H101.506Z" fill="white"/>
<path d="M83.3069 240.034C81.7859 244.416 90.1253 249.777 101.944 251.994C113.762 254.212 124.567 252.431 126.088 248.048C127.609 243.666 119.269 238.305 107.451 236.088C95.6324 233.87 84.828 235.634 83.3069 240.034ZM124.689 248.38C124.689 248.38 122.661 250.51 116.35 251.121C116.35 251.121 108.045 251.89 101.419 250.301C101.419 250.301 93.5519 249.183 86.5762 243.927C86.5762 243.927 84.3384 242.181 84.2335 240.558C84.2161 240.296 84.3384 239.946 84.5482 239.754C85.5098 238.846 89.3211 236.332 101.559 236.856C101.559 236.856 116.542 238.759 122.171 243.578C122.171 243.578 124.444 245.08 125.144 247.367C125.144 247.367 125.266 247.926 124.689 248.363V248.38Z" fill="white"/>
<path d="M107.468 248.817C119.252 232.928 127.574 217.929 126.035 215.292C124.514 212.656 113.71 223.411 101.926 239.301C90.1427 255.19 81.8383 270.206 83.3593 272.826C84.8804 275.462 95.6673 264.724 107.468 248.834V248.817ZM125.021 217.23C125.021 217.23 124.636 220.268 119.497 228.999C119.497 228.999 112.731 240.471 105.895 249.323C105.895 249.323 98.2723 259.939 88.7616 268.827C88.7616 268.827 85.6671 271.656 84.5132 271.621C84.3209 271.621 84.216 271.394 84.2685 271.079C84.5307 269.648 86.2265 264.13 97.2757 247.437C97.2757 247.437 111.647 227.165 119.706 220.076C119.706 220.076 122.661 217.16 124.776 216.479C124.776 216.479 125.248 216.375 125.021 217.213V217.23Z" fill="white"/>
<path d="M107.087 244.921C108.051 242.658 107.795 240.383 106.516 239.839C105.236 239.296 103.418 240.689 102.454 242.952C101.49 245.215 101.745 247.49 103.025 248.033C104.304 248.577 106.123 247.183 107.087 244.921Z" fill="white"/>
<path d="M94.2433 236.513C94.7784 235.158 94.5932 233.816 93.8298 233.515C93.0663 233.215 92.0136 234.069 91.4786 235.423C90.9435 236.778 91.1287 238.12 91.8921 238.421C92.6556 238.721 93.7083 237.867 94.2433 236.513Z" fill="white"/>
<path d="M121.866 228.464C122.401 227.109 122.216 225.767 121.453 225.467C120.689 225.166 119.637 226.02 119.102 227.375C118.567 228.729 118.752 230.071 119.515 230.372C120.279 230.673 121.331 229.818 121.866 228.464Z" fill="white"/>
<path d="M109.569 263.991C110.105 262.637 109.919 261.295 109.156 260.994C108.392 260.693 107.34 261.547 106.805 262.902C106.27 264.256 106.455 265.598 107.218 265.899C107.982 266.2 109.034 265.346 109.569 263.991Z" fill="white"/>
<path d="M193.186 284.367C193.151 283.861 193.081 283.372 193.011 282.9L197.749 278.413C197.889 278.291 197.854 278.064 197.697 277.976L186.543 271.586C186.263 271.411 185.669 271.079 185.669 271.079C181.962 269.176 177.137 269.246 171.822 271.638C157.241 278.203 144.898 298.44 144.898 314.888C144.898 322.466 147.521 327.827 151.769 330.394L151.839 330.446C151.927 330.498 162.224 336.4 163.972 337.413C164.112 337.5 164.287 337.43 164.357 337.291L166.787 332.262L164.497 330.987C165.983 330.464 167.504 329.748 169.077 328.857C169.462 328.63 169.847 328.403 170.214 328.159C171.437 330.586 171.455 334.846 171.053 338.984C170.965 339.857 171.28 340.346 171.752 340.469L183.081 346.999C183.238 347.086 183.413 347.016 183.483 346.859L184.655 343.716L184.113 330.237H177.976L189.305 304.552C192.19 297.812 193.693 290.723 193.151 284.384L193.186 284.367Z" fill="#DE5656"/>
<path d="M183.256 347.89C183.064 347.89 182.854 347.837 182.679 347.733L171.42 341.237C170.721 340.993 170.074 340.259 170.214 338.863C170.616 334.672 170.493 331.424 169.812 329.381C169.707 329.434 169.619 329.504 169.514 329.556C168.518 330.132 167.521 330.639 166.507 331.075L167.923 331.861L165.144 337.623C165.004 337.902 164.759 338.129 164.444 338.217C164.147 338.304 163.815 338.269 163.535 338.112L162.294 337.396C154.497 332.926 151.437 331.18 151.385 331.145C146.594 328.246 144.007 322.484 144.007 314.854C144.007 297.987 156.822 277.4 171.438 270.818C176.805 268.408 181.98 268.199 186.018 270.276C186.036 270.276 186.683 270.643 186.962 270.818L198.081 277.191C198.396 277.366 198.606 277.697 198.641 278.047C198.676 278.396 198.554 278.762 198.291 279.007L193.868 283.197C193.921 283.547 193.955 283.913 193.99 284.28C194.515 290.531 193.169 297.638 190.092 304.849L179.305 329.329H184.934L185.511 343.821L184.27 347.139C184.148 347.453 183.903 347.698 183.588 347.82C183.466 347.872 183.326 347.89 183.204 347.89H183.256ZM170.581 326.902L171.018 327.758C172.154 329.993 172.452 333.799 171.945 339.055C171.91 339.439 171.979 339.613 172.014 339.631L172.224 339.718L182.959 345.899L183.833 343.56L183.326 331.075H176.7L188.553 304.168C191.525 297.219 192.837 290.391 192.33 284.42C192.295 283.931 192.225 283.459 192.155 282.988L192.085 282.551L196.578 278.291L186.106 272.284C185.808 272.11 185.249 271.796 185.232 271.796C181.63 269.962 177.119 270.172 172.172 272.389C158.098 278.727 145.755 298.563 145.755 314.854C145.755 321.856 148.045 327.094 152.206 329.626C152.434 329.765 159.899 334.043 163.168 335.912L163.85 336.313L165.651 332.577L162.399 330.761L164.2 330.115C165.668 329.591 167.154 328.892 168.64 328.037C169.007 327.827 169.375 327.6 169.742 327.373L170.546 326.867L170.581 326.902Z" fill="#150035"/>
<path d="M188.676 306.141L189.358 304.605C192.242 297.865 193.746 290.776 193.204 284.437C193.169 283.931 193.099 283.442 193.029 282.971L197.767 278.483C197.907 278.361 197.872 278.134 197.714 278.047L186.56 271.656C186.281 271.481 185.686 271.15 185.686 271.15C181.98 269.246 177.154 269.316 171.84 271.708C165.511 274.554 159.602 279.985 154.951 286.568L188.676 306.159V306.141Z" fill="white"/>
<path d="M189.078 307.38L153.692 286.846L154.234 286.078C159.182 279.094 165.319 273.716 171.49 270.922C176.857 268.513 182.032 268.303 186.071 270.381C186.088 270.381 186.735 270.748 187.015 270.922L198.134 277.295C198.449 277.47 198.658 277.802 198.693 278.151C198.728 278.5 198.606 278.867 198.344 279.111L193.921 283.302C193.973 283.651 194.008 284.018 194.043 284.385C194.567 290.635 193.221 297.742 190.144 304.953L189.078 307.398V307.38ZM156.21 286.305L188.274 304.918L188.571 304.255C191.543 297.306 192.854 290.478 192.347 284.507C192.312 284.018 192.242 283.546 192.172 283.075L192.102 282.638L196.595 278.378L186.123 272.371C185.826 272.197 185.267 271.883 185.249 271.883C181.648 270.049 177.119 270.259 172.189 272.476C166.525 275.026 160.86 279.915 156.192 286.288L156.21 286.305Z" fill="#150035"/>
<path d="M201.106 311.275C203.99 304.535 205.494 297.446 204.952 291.107C203.903 278.693 194.882 273.297 183.605 278.378C169.025 284.944 156.682 305.181 156.682 321.629C156.682 337.029 167.504 343.28 180.878 335.58C181.263 335.353 181.647 335.126 182.014 334.882C183.238 337.309 183.256 341.569 182.854 345.707C182.626 347.995 185.091 347.611 186.158 345.201L201.106 311.275Z" fill="#150035"/>
<path d="M183.815 348.099C183.658 348.099 183.483 348.082 183.326 348.03C182.574 347.838 181.84 347.104 181.979 345.62C182.382 341.429 182.259 338.182 181.577 336.139C181.472 336.191 181.385 336.261 181.28 336.313C174.549 340.207 168.168 340.801 163.308 338.007C158.465 335.213 155.79 329.399 155.79 321.611C155.79 304.744 168.605 284.158 183.221 277.575C188.903 275.008 194.305 274.939 198.448 277.383C202.644 279.845 205.249 284.699 205.791 291.037C206.316 297.288 204.969 304.395 201.892 311.606L186.945 345.55C186.263 347.087 184.986 348.099 183.815 348.099ZM182.347 333.642L182.766 334.497C183.903 336.732 184.2 340.539 183.693 345.795C183.658 346.179 183.728 346.353 183.763 346.371C183.763 346.371 183.868 346.388 184.042 346.318C184.427 346.161 184.969 345.707 185.354 344.852L200.302 310.925C203.274 303.976 204.585 297.149 204.078 291.177C203.588 285.415 201.281 281.05 197.592 278.867C193.955 276.737 189.095 276.824 183.955 279.147C169.881 285.485 157.538 305.32 157.538 321.611C157.538 328.735 159.899 334.026 164.199 336.505C168.483 338.985 174.252 338.374 180.441 334.812C180.808 334.602 181.175 334.375 181.56 334.131L182.364 333.624L182.347 333.642Z" fill="#150035"/>
<path d="M145.658 317.397L144.795 318.896L156.54 325.643L157.403 324.145L145.658 317.397Z" fill="#150035"/>
<path d="M173.154 270.657L172.291 272.155L184.036 278.903L184.899 277.405L173.154 270.657Z" fill="#150035"/>
<path d="M195.111 313.981C202.361 301.103 202.323 287.342 195.026 283.244C187.73 279.146 175.937 286.263 168.686 299.141C161.436 312.018 161.474 325.779 168.771 329.877C176.068 333.975 187.86 326.858 195.111 313.981Z" fill="#150035"/>
<path d="M189.563 310.866C193.771 303.393 193.75 295.408 189.516 293.031C185.283 290.653 178.44 294.783 174.233 302.256C170.026 309.728 170.047 317.713 174.28 320.091C178.514 322.468 185.356 318.338 189.563 310.866Z" fill="#150035"/>
<path d="M178.256 308.219C177.032 319.377 177.644 327.706 179.637 326.833C181.63 325.959 184.235 316.216 185.476 305.059C186.7 293.901 186.088 285.573 184.095 286.446C182.102 287.319 179.497 297.062 178.256 308.219ZM178.396 320.04C178.396 320.04 178.186 313.353 179.043 306.91C179.043 306.91 179.707 299.663 182.242 291.143C182.242 291.143 183.081 288.384 183.833 287.493C183.955 287.336 184.113 287.284 184.2 287.371C184.602 287.738 185.686 289.746 185.214 300.432C185.214 300.432 184.06 314.138 181.752 321.297C181.752 321.297 181.018 323.969 179.952 325.698C179.952 325.698 179.689 326.082 179.515 325.802C179.515 325.802 178.571 325.139 178.413 320.058L178.396 320.04Z" fill="white"/>
<path d="M168.99 302.719C167.766 305.321 172.521 309.18 179.637 311.328C186.752 313.493 193.518 313.126 194.742 310.542C195.966 307.958 191.211 304.081 184.095 301.934C176.979 299.768 170.214 300.118 168.99 302.719ZM193.868 310.647C193.868 310.647 192.487 311.816 188.553 311.764C188.553 311.764 183.396 311.677 179.427 310.245C179.427 310.245 174.672 309.023 170.738 305.321C170.738 305.321 169.479 304.099 169.514 303.104C169.514 302.929 169.619 302.737 169.759 302.632C170.406 302.143 172.923 300.851 180.406 302.003C180.406 302.003 189.497 304.186 192.627 307.539C192.627 307.539 193.92 308.621 194.2 310.07C194.2 310.07 194.235 310.42 193.85 310.647H193.868Z" fill="white"/>
<path d="M183.238 309.755C191.56 300.781 197.697 292.12 196.927 290.409C196.176 288.68 188.798 294.564 180.476 303.522C172.154 312.497 166.018 321.157 166.787 322.868C167.539 324.597 174.916 318.713 183.238 309.755ZM196.176 291.526C196.176 291.526 195.738 293.36 191.98 298.388C191.98 298.388 187.049 304.971 182.224 309.965C182.224 309.965 176.822 315.971 170.371 320.791C170.371 320.791 168.273 322.327 167.574 322.222C167.451 322.222 167.416 322.065 167.469 321.873C167.731 321 169.147 317.735 177.067 308.219C177.067 308.219 187.277 296.73 192.714 292.923C192.714 292.923 194.724 291.334 196.071 291.055C196.071 291.055 196.368 291.02 196.176 291.526Z" fill="white"/>
<path d="M183.255 307.323C184.003 305.995 184.002 304.577 183.253 304.156C182.504 303.736 181.29 304.471 180.542 305.799C179.795 307.127 179.796 308.545 180.545 308.966C181.294 309.386 182.507 308.651 183.255 307.323Z" fill="white"/>
<path d="M175.93 301.284C176.35 300.491 176.33 299.658 175.886 299.424C175.442 299.19 174.742 299.643 174.323 300.436C173.903 301.229 173.923 302.062 174.367 302.296C174.811 302.53 175.511 302.077 175.93 301.284Z" fill="white"/>
<path d="M193.469 298.223C193.888 297.43 193.868 296.597 193.424 296.363C192.98 296.129 192.28 296.582 191.861 297.375C191.441 298.169 191.461 299.001 191.906 299.235C192.35 299.47 193.049 299.016 193.469 298.223Z" fill="white"/>
<path d="M183.489 319.248C183.908 318.455 183.888 317.622 183.444 317.388C183 317.154 182.3 317.607 181.881 318.4C181.462 319.193 181.482 320.026 181.926 320.26C182.37 320.494 183.07 320.041 183.489 319.248Z" fill="white"/>
</svg>
