<svg width="324" height="300" viewBox="0 0 324 300" fill="none" xmlns="http://www.w3.org/2000/svg">
<g clip-path="url(#clip0_2387_12987)">
<path d="M395.889 187.658H0V207.317H395.889V187.658Z" fill="#0A0A0A"/>
<path d="M198 395.964C307.352 395.964 396 311.274 396 206.803C396 102.333 307.352 17.6428 198 17.6428C88.6476 17.6428 0 102.333 0 206.803C0 311.274 88.6476 395.964 198 395.964Z" fill="#0A0A0A"/>
<path d="M198 378.321C307.352 378.321 396 293.631 396 189.161C396 84.6901 307.352 0 198 0C88.6476 0 0 84.6901 0 189.161C0 293.631 88.6476 378.321 198 378.321Z" fill="#262626"/>
<path opacity="0.5" d="M197.945 240.358C297.639 240.358 384.898 189.661 384.898 128.17C362.692 64.5268 297.926 0.883928 197.945 0C154.609 0 123.056 11.4911 91.5985 29.1696C54.5892 53.9196 29.6079 81.3214 13.8789 120.214C13.8789 181.705 98.2501 240.358 197.945 240.358Z" fill="url(#paint0_linear_2387_12987)"/>
<path d="M358.884 192.034C359.396 107.092 287.734 37.8361 198.823 37.3468C109.912 36.8576 37.4198 105.32 36.9077 190.262C36.3956 275.204 108.057 344.46 196.968 344.949C285.88 345.438 358.372 276.976 358.884 192.034Z" fill="#262626" stroke="#0A0A0A" stroke-width="4.84785" stroke-miterlimit="10"/>
<path d="M198.002 51.1451C239.104 51.2085 278.631 66.2605 308.51 93.2272C338.389 120.194 356.366 157.041 358.771 196.244C358.938 193.327 359.03 190.392 359.03 187.404C359.258 167.053 355.26 146.861 347.267 127.996C339.274 109.131 327.444 91.9685 312.463 77.5005C297.481 63.0326 279.645 51.5469 259.987 43.7082C240.329 35.8694 219.239 31.8333 197.938 31.8333C176.636 31.8333 155.546 35.8694 135.888 43.7082C116.23 51.5469 98.3942 63.0326 83.4127 77.5005C68.4312 91.9685 56.6016 109.131 48.6083 127.996C40.6151 146.861 36.6169 167.053 36.8452 187.404C36.8452 190.357 36.9562 193.291 37.1228 196.244C39.5242 157.021 57.5159 120.156 87.4195 93.186C117.323 66.2157 156.88 51.1772 198.002 51.1451Z" fill="#0A0A0A"/>
<path d="M252.514 189.973C252.577 196.426 250.907 202.786 247.666 208.448C244.189 214.178 239.047 218.821 232.862 221.813C226.188 225.23 217.892 226.933 207.973 226.922H189.672V268.484H160.064V152.707H207.899C216.357 152.457 224.759 154.098 232.436 157.498C238.724 160.343 243.963 164.941 247.462 170.686C250.889 176.58 252.632 183.232 252.514 189.973ZM205.697 204.488C211.335 204.488 215.535 203.226 218.299 200.704C220.974 197.717 222.444 193.914 222.444 189.982C222.444 186.05 220.974 182.248 218.299 179.26C215.548 176.726 211.347 175.459 205.697 175.459H189.635V204.488H205.697Z" fill="white"/>
<path d="M253.125 120.675H160.102V139.308H253.125V120.675Z" fill="#E50913"/>
</g>
<defs>
<linearGradient id="paint0_linear_2387_12987" x1="199.388" y1="0" x2="199.388" y2="240.358" gradientUnits="userSpaceOnUse">
<stop stop-color="white" stop-opacity="0.59"/>
<stop offset="0.9999" stop-color="white" stop-opacity="0"/>
</linearGradient>
<clipPath id="clip0_2387_12987">
<rect width="396" height="396" fill="white"/>
</clipPath>
</defs>
</svg>
