<svg width="164" height="31" viewBox="0 0 164 31" fill="none" xmlns="http://www.w3.org/2000/svg">
<g clip-path="url(#clip0_1852_823)">
<path d="M27.0061 0H4.91769C2.47787 0 0.5 1.98274 0.5 4.42857V26.5714C0.5 29.0173 2.47787 31 4.91769 31H27.0061C29.446 31 31.4238 29.0173 31.4238 26.5714V4.42857C31.4238 1.98274 29.446 0 27.0061 0Z" fill="url(#paint0_radial_1852_823)"/>
<path opacity="0.95" d="M14.4896 8.11719H7.12681C6.54099 8.11719 5.97916 8.3505 5.56492 8.76575C5.15069 9.181 4.91797 9.74424 4.91797 10.3315V20.6648C4.91881 21.1335 5.06796 21.5898 5.34397 21.9681C5.61998 22.3463 6.00859 22.6271 6.45389 22.7699C6.89918 22.9127 7.37818 22.9101 7.82194 22.7626C8.26569 22.6152 8.65136 22.3302 8.92334 21.9491L16.2862 11.6158C16.5213 11.2848 16.6609 10.8953 16.69 10.49C16.719 10.0847 16.6362 9.67929 16.4507 9.31799C16.2652 8.95677 15.9841 8.65364 15.6382 8.4418C15.2923 8.23004 14.895 8.1177 14.4896 8.11719ZM8.59938 13.2839C8.3081 13.2839 8.02346 13.1973 7.78126 13.035C7.5391 12.8729 7.35036 12.6423 7.2389 12.3726C7.12745 12.1028 7.09829 11.806 7.15511 11.5197C7.21193 11.2334 7.35217 10.9703 7.55812 10.7638C7.76406 10.5574 8.02648 10.4168 8.31208 10.3598C8.59776 10.3029 8.89382 10.3321 9.16293 10.4438C9.43196 10.5556 9.66198 10.7448 9.82374 10.9876C9.98557 11.2303 10.0719 11.5157 10.0719 11.8077C10.0719 12.1992 9.91681 12.5746 9.64063 12.8515C9.36445 13.1283 8.9899 13.2839 8.59938 13.2839Z" fill="black"/>
<path opacity="0.95" d="M20.0116 22.1436C21.0282 22.1436 21.8523 21.3175 21.8523 20.2984C21.8523 19.2793 21.0282 18.4531 20.0116 18.4531C18.995 18.4531 18.1709 19.2793 18.1709 20.2984C18.1709 21.3175 18.995 22.1436 20.0116 22.1436Z" fill="black"/>
<path opacity="0.95" d="M27.0065 10.3315V20.6648C27.0073 21.2173 26.802 21.7502 26.4309 22.1589C26.0598 22.5675 25.5498 22.8222 25.0009 22.873C24.452 22.924 23.9041 22.7673 23.4645 22.4337C23.025 22.1003 22.7258 21.6141 22.6256 21.0708C22.602 20.9367 22.5897 20.8009 22.5888 20.6648V18.9819C22.5848 18.5145 22.4334 18.0604 22.1563 17.6845C21.8791 17.3085 21.4905 17.0302 21.0459 16.8893C20.6012 16.7484 20.1236 16.7522 19.6813 16.9C19.2389 17.0478 18.8546 17.3322 18.5834 17.7124L17.4348 19.3289L15.5867 21.9269C15.2342 22.3762 14.7221 22.6715 14.1575 22.7509C13.5928 22.8304 13.0195 22.6879 12.5572 22.3532C12.095 22.0185 11.7798 21.5177 11.6774 20.9554C11.5752 20.3931 11.6937 19.8129 12.0084 19.3362L19.3712 9.0029C19.5746 8.73084 19.8379 8.50948 20.1406 8.35589C20.4432 8.20229 20.777 8.12058 21.1162 8.11719H24.7976C25.3834 8.11719 25.9453 8.3505 26.3595 8.76575C26.7737 9.181 27.0065 9.74424 27.0065 10.3315Z" fill="white"/>
<g opacity="0.95">
<path opacity="0.95" d="M45.546 8.11719H40.8117L35.8418 22.8791H39.6705L40.635 19.7791H45.7227L46.6946 22.8791H50.5159L45.546 8.11719ZM41.4817 17.0629L43.1163 11.8077H43.2046L44.8465 17.0408L41.4817 17.0629Z" fill="white"/>
<path opacity="0.95" d="M61.0004 15.1868L57.7681 15.2754C57.738 15.0469 57.6434 14.8318 57.4957 14.6554C57.3393 14.4692 57.1395 14.3247 56.914 14.2346C56.6552 14.1268 56.3769 14.074 56.0967 14.0796C55.7353 14.0675 55.377 14.1515 55.0586 14.3232C54.9481 14.3762 54.8527 14.456 54.7809 14.5553C54.7089 14.6545 54.6628 14.7703 54.6468 14.8919C54.6307 15.0135 54.6451 15.1373 54.6887 15.2519C54.7323 15.3665 54.8038 15.4684 54.8965 15.5485C55.1831 15.7514 55.5138 15.883 55.8611 15.9323L57.989 16.3308C58.8914 16.452 59.744 16.8168 60.4555 17.3863C60.7238 17.6329 60.9357 17.9346 61.0767 18.271C61.2178 18.6073 61.2847 18.9703 61.2728 19.3349C61.2805 20.0527 61.0413 20.7513 60.5954 21.313C60.1168 21.9007 59.492 22.3513 58.7842 22.6194C57.9434 22.9425 57.0485 23.1004 56.1483 23.0844C54.8386 23.166 53.5361 22.8357 52.4226 22.1396C51.9891 21.8426 51.6254 21.4542 51.3571 21.0016C51.0888 20.5491 50.9222 20.0432 50.8691 19.5194L54.337 19.4308C54.3677 19.6175 54.4364 19.7958 54.5391 19.9546C54.6417 20.1134 54.7759 20.2492 54.9334 20.3535C55.3042 20.575 55.7317 20.6828 56.163 20.6635C56.5469 20.6809 56.9285 20.5943 57.2674 20.4125C57.3952 20.3532 57.5033 20.2584 57.579 20.1394C57.6547 20.0204 57.6948 19.882 57.6945 19.7408C57.6962 19.6208 57.6665 19.5025 57.6083 19.3976C57.5502 19.2927 57.4656 19.2049 57.3631 19.143C57.0552 18.9543 56.7118 18.8312 56.3544 18.7813L54.4254 18.4196C53.5072 18.3027 52.6453 17.9118 51.9514 17.2977C51.6807 17.0243 51.4696 16.6974 51.3314 16.3378C51.1933 15.9783 51.1311 15.5939 51.1489 15.2089C51.1243 14.5279 51.3321 13.8588 51.7379 13.312C52.1746 12.7537 52.7626 12.3335 53.4314 12.1016C54.2651 11.8043 55.1458 11.6618 56.0305 11.6808C57.2786 11.6118 58.5164 11.9427 59.5646 12.6256C59.9789 12.9186 60.3226 13.3006 60.571 13.7437C60.8194 14.1867 60.9661 14.6797 61.0004 15.1868Z" fill="white"/>
<path opacity="0.95" d="M72.2357 15.1872L68.974 15.2758C68.944 15.0474 68.8494 14.8323 68.7016 14.6558C68.5453 14.4696 68.3454 14.3251 68.1199 14.2351C67.8611 14.1272 67.5829 14.0745 67.3026 14.0801C66.9412 14.0679 66.583 14.152 66.2645 14.3237C66.1541 14.3766 66.0587 14.4564 65.9868 14.5557C65.9149 14.655 65.8688 14.7707 65.8528 14.8924C65.8366 15.0139 65.8511 15.1377 65.8946 15.2523C65.9383 15.3669 66.0097 15.4689 66.1025 15.5489C66.3891 15.7518 66.7197 15.8834 67.067 15.9327L69.1949 16.3313C70.0973 16.4524 70.95 16.8172 71.6614 17.3867C71.935 17.6306 72.1525 17.9312 72.2987 18.2677C72.4449 18.6041 72.5163 18.9684 72.5082 19.3353C72.516 20.0531 72.2767 20.7517 71.8308 21.3134C71.3523 21.9011 70.7275 22.3517 70.0195 22.6198C69.1788 22.9429 68.2839 23.1008 67.3836 23.0848C66.0739 23.1664 64.7715 22.8361 63.658 22.1401C63.2245 21.843 62.8608 21.4546 62.5925 21.002C62.3241 20.5495 62.1576 20.0436 62.1045 19.5198L65.5724 19.4313C65.603 19.6179 65.6718 19.7963 65.7744 19.955C65.8771 20.1138 66.0114 20.2496 66.1688 20.3539C66.5388 20.578 66.9664 20.6884 67.3984 20.6713C67.7823 20.6888 68.1639 20.6021 68.5028 20.4203C68.6306 20.361 68.7388 20.2662 68.8145 20.1471C68.8901 20.0282 68.9302 19.8898 68.9298 19.7487C68.9316 19.6286 68.9018 19.5103 68.8438 19.4054C68.7856 19.3005 68.7011 19.2127 68.5985 19.1508C68.2906 18.9621 67.9473 18.8389 67.5898 18.7891L65.6607 18.4275C64.7426 18.3105 63.8806 17.9197 63.1868 17.3056C62.9161 17.0321 62.7049 16.7052 62.5668 16.3456C62.4287 15.9861 62.3665 15.6017 62.3843 15.2167C62.3598 14.5357 62.5675 13.8666 62.9733 13.3198C63.41 12.7615 63.998 12.3413 64.6668 12.1094C65.5004 11.8121 66.3812 11.6696 67.2658 11.6887C68.514 11.6196 69.7518 11.9505 70.8 12.6334C71.2133 12.9256 71.5566 13.3064 71.8049 13.7482C72.0532 14.1898 72.2004 14.6814 72.2357 15.1872Z" fill="white"/>
<path opacity="0.95" d="M84.2299 18.1934V17.3151C84.2439 16.4906 84.1091 15.6704 83.8323 14.8941C83.5974 14.2276 83.2212 13.6204 82.7278 13.1153C82.2522 12.6341 81.6764 12.2637 81.0418 12.0303C80.3504 11.7794 79.62 11.6544 78.8845 11.6612C77.8691 11.6412 76.8663 11.8963 75.9835 12.3993C75.1684 12.8713 74.5065 13.5682 74.0765 14.407C73.61 15.3277 73.3749 16.3489 73.3917 17.3815C73.365 18.4378 73.5977 19.4847 74.0691 20.4298C74.5006 21.2657 75.1729 21.9524 75.9982 22.4005C76.9068 22.8731 77.9199 23.1091 78.9434 23.087C79.8129 23.1038 80.6773 22.9534 81.4909 22.6441C82.1926 22.3885 82.8199 21.9625 83.3169 21.4041C83.7704 20.8603 84.073 20.2059 84.193 19.5072L80.9681 19.4186C80.8798 19.6543 80.7392 19.8664 80.5558 20.0386C80.3666 20.2115 80.1435 20.3424 79.9005 20.4224C79.6266 20.5081 79.341 20.5505 79.0538 20.5479C78.6481 20.5577 78.2468 20.461 77.8905 20.2674C77.5746 20.0807 77.3184 19.8064 77.1542 19.4777C76.9701 19.1093 76.8788 18.7012 76.8891 18.2893V18.2008L84.2299 18.1934ZM77.1542 15.182C77.3316 14.876 77.5849 14.6216 77.8905 14.4439C78.2144 14.2792 78.5723 14.1934 78.936 14.1934C79.299 14.1934 79.6575 14.2792 79.9815 14.4439C80.2841 14.6054 80.5381 14.8449 80.7178 15.1377C80.8908 15.4413 80.9821 15.7846 80.9829 16.1341H76.8965C76.8987 15.7997 76.9878 15.4718 77.1542 15.182Z" fill="white"/>
<path opacity="0.95" d="M92.0646 22.7185C91.9027 22.7702 91.6597 22.8293 91.3284 22.8957C90.9705 22.9754 90.6053 23.0223 90.2387 23.0359C89.5215 23.0899 88.8007 22.9893 88.1255 22.7407C87.5696 22.5381 87.0955 22.1566 86.7781 21.6557C86.4534 21.089 86.2981 20.441 86.329 19.7883V14.4002H84.8564V11.8095H86.329V9.15234H89.8411V11.8095H91.8364V14.4002H89.8411V19.3971C89.8337 19.5783 89.872 19.7585 89.9515 19.9212C90.0156 20.048 90.1223 20.1476 90.2534 20.2016C90.4095 20.2585 90.5737 20.2861 90.7393 20.2828C90.8829 20.2806 91.025 20.2683 91.1664 20.2459L91.5051 20.1721L92.0646 22.7185Z" fill="white"/>
<path opacity="0.95" d="M93.4854 8.11719H97.903L101.643 17.2548H101.813L105.546 8.11719H109.963V22.8791H106.525V13.8153H106.4L102.843 22.7831H100.635L97.1005 13.7636H96.9532V22.8791H93.4854V8.11719Z" fill="white"/>
<path opacity="0.95" d="M142.102 22.7185C141.935 22.7726 141.689 22.8317 141.365 22.8957C141.008 22.9749 140.642 23.0218 140.276 23.0359C139.556 23.0894 138.833 22.9887 138.155 22.7407C137.601 22.5381 137.13 22.1564 136.815 21.6557C136.488 21.0903 136.332 20.4413 136.366 19.7883V14.4002H134.894V11.8095H136.366V9.15234H139.878V11.8095H141.873V14.4002H139.878V19.3971C139.872 19.5773 139.908 19.7566 139.981 19.9212C140.048 20.0485 140.158 20.1479 140.29 20.2016C140.444 20.258 140.606 20.2856 140.769 20.2828C140.913 20.2809 141.055 20.2686 141.196 20.2459L141.542 20.1721L142.102 22.7185Z" fill="white"/>
<path opacity="0.95" d="M120.102 12.6276C119.631 12.2924 119.105 12.0427 118.548 11.8895C117.915 11.7157 117.261 11.6312 116.604 11.6385C115.736 11.6178 114.872 11.7735 114.064 12.0962C113.414 12.3614 112.845 12.7943 112.415 13.3509C112.016 13.8788 111.762 14.5023 111.679 15.1593L114.918 15.27C114.985 14.9336 115.177 14.6354 115.456 14.4359C115.791 14.2219 116.185 14.1162 116.582 14.1333C116.948 14.1149 117.309 14.2216 117.606 14.4359C117.733 14.5374 117.835 14.6682 117.902 14.8172C117.968 14.9662 117.998 15.1291 117.989 15.2921V15.329C117.993 15.431 117.971 15.5323 117.926 15.6238C117.881 15.7153 117.814 15.7942 117.731 15.8531C117.472 16.0011 117.187 16.0964 116.891 16.1335C116.509 16.2 116.001 16.259 115.375 16.3181C114.84 16.3603 114.31 16.4517 113.792 16.5912C113.324 16.7186 112.882 16.9232 112.481 17.1964C112.103 17.4606 111.796 17.816 111.59 18.2297C111.362 18.7135 111.251 19.2447 111.266 19.7797C111.241 20.4208 111.405 21.0552 111.738 21.6028C112.053 22.0824 112.5 22.4595 113.026 22.6878C114.064 23.096 115.207 23.153 116.28 22.8502C116.675 22.7284 117.041 22.5275 117.355 22.2597C117.656 21.9929 117.906 21.6726 118.092 21.315H118.18V22.8797H121.486V15.3512C121.496 14.8173 121.375 14.2891 121.132 13.8139C120.89 13.3386 120.532 12.931 120.094 12.6276H120.102ZM118.003 18.9383C118.011 19.2761 117.916 19.6083 117.731 19.8905C117.545 20.1624 117.291 20.3811 116.995 20.5252C116.676 20.6827 116.326 20.7612 115.971 20.754C115.618 20.7696 115.268 20.6685 114.977 20.4662C114.854 20.3671 114.758 20.2391 114.696 20.0936C114.635 19.9481 114.61 19.7896 114.624 19.6321C114.62 19.4114 114.685 19.195 114.808 19.0121C114.945 18.8241 115.127 18.6741 115.338 18.5766C115.609 18.4591 115.893 18.3772 116.185 18.3331L116.7 18.2593L117.215 18.1559C117.385 18.119 117.539 18.0747 117.679 18.0305C117.803 17.9933 117.924 17.9464 118.04 17.8902L118.003 18.9383Z" fill="white"/>
<path opacity="0.95" d="M133.414 13.6369C133.746 14.3136 133.908 15.0609 133.885 15.8143V22.8778H130.366V16.5081C130.404 15.9862 130.238 15.4699 129.902 15.0688C129.736 14.8925 129.533 14.7548 129.308 14.6655C129.083 14.5763 128.841 14.5375 128.599 14.5521C128.26 14.5462 127.926 14.6276 127.627 14.7883C127.346 14.9482 127.12 15.1902 126.979 15.4821C126.818 15.818 126.738 16.187 126.744 16.5597V22.8778H123.231V11.8064H126.574V13.8362H126.692C126.922 13.1805 127.362 12.6196 127.944 12.2419C128.583 11.8342 129.33 11.6308 130.086 11.6588C130.797 11.6414 131.498 11.8228 132.111 12.1828C132.673 12.5357 133.124 13.0395 133.414 13.6369Z" fill="white"/>
<path opacity="0.95" d="M147.035 8.11719H143.523V22.8791H147.035V8.11719Z" fill="white"/>
<path opacity="0.95" d="M159.264 18.1934V17.3151C159.278 16.4906 159.144 15.6704 158.867 14.8941C158.632 14.2276 158.255 13.6204 157.762 13.1153C157.286 12.6341 156.711 12.2637 156.076 12.0303C155.385 11.7794 154.654 11.6544 153.919 11.6612C152.903 11.6412 151.901 11.8963 151.018 12.3993C150.203 12.8713 149.541 13.5682 149.111 14.407C148.644 15.335 148.411 16.3642 148.434 17.4036C148.407 18.46 148.639 19.5068 149.111 20.452C149.543 21.2879 150.215 21.9745 151.04 22.4227C151.949 22.8952 152.962 23.1312 153.985 23.1091C154.855 23.1259 155.719 22.9756 156.533 22.6662C157.234 22.4033 157.859 21.9695 158.351 21.4041C158.805 20.8603 159.108 20.2059 159.228 19.5072L156.003 19.4186C155.914 19.6543 155.773 19.8664 155.59 20.0386C155.401 20.2115 155.178 20.3424 154.935 20.4224C154.661 20.5081 154.375 20.5505 154.088 20.5479C153.683 20.5577 153.281 20.461 152.925 20.2674C152.608 20.0807 152.353 19.8064 152.189 19.4777C152.005 19.1093 151.913 18.7012 151.924 18.2893V18.2008L159.264 18.1934ZM152.174 15.182C152.351 14.876 152.605 14.6216 152.91 14.4439C153.234 14.2792 153.592 14.1934 153.956 14.1934C154.319 14.1934 154.677 14.2792 155.001 14.4439C155.304 14.6054 155.558 14.8449 155.738 15.1377C155.91 15.4413 156.001 15.7846 156.003 16.1341H151.916C151.918 15.7997 152.008 15.4718 152.174 15.182Z" fill="white"/>
</g>
</g>
<defs>
<radialGradient id="paint0_radial_1852_823" cx="0" cy="0" r="1" gradientUnits="userSpaceOnUse" gradientTransform="translate(69.6442 -28.0033) scale(13.9157 13.95)">
<stop stop-color="#FFC942"/>
<stop offset="0.28" stop-color="#FEC73E"/>
<stop offset="0.57" stop-color="#FBC131"/>
<stop offset="0.86" stop-color="#F5B71D"/>
<stop offset="1" stop-color="#F2B110"/>
</radialGradient>
<clipPath id="clip0_1852_823">
<rect width="163.455" height="31" fill="white" transform="translate(0.5)"/>
</clipPath>
</defs>
</svg>
