<svg width="118" height="30" viewBox="0 0 118 30" fill="none" xmlns="http://www.w3.org/2000/svg">
<path d="M0.5 1.72867C0.5 0.773952 1.27392 0 2.2286 0H27.9237C28.8784 0 29.6523 0.773953 29.6523 1.72867V27.4237C29.6523 28.3784 28.8784 29.1523 27.9237 29.1523H2.2286C1.27392 29.1523 0.5 28.3784 0.5 27.4237V1.72867Z" fill="white"/>
<path d="M25.4881 2.56641H4.66504V6.73103H25.4881V2.56641Z" fill="#E50913"/>
<path d="M19.5303 29.1536H24.6552L17.4633 9.71875H11.857L4.66504 29.1536H9.73337L10.9226 25.7207H18.341L19.5303 29.1536ZM17.0952 22.0663H12.1967L14.6318 14.9512L17.0952 22.0663Z" fill="black"/>
<path d="M45.8865 20.1617H39.3397L38.2902 23.2601H33.8174L40.1643 5.71875H45.1118L51.4587 23.2601H46.9359L45.8865 20.1617ZM44.787 16.8633L42.6131 10.4414L40.4641 16.8633H44.787Z" fill="white"/>
<path d="M59.5873 5.71875V16.2136C59.5873 17.2631 59.8455 18.071 60.362 18.6374C60.8784 19.2038 61.6363 19.487 62.6358 19.487C63.6354 19.487 64.4016 19.2038 64.9347 18.6374C65.4678 18.071 65.7343 17.2631 65.7343 16.2136V5.71875H70.0072V16.1886C70.0072 17.7545 69.6741 19.0789 69.0077 20.1617C68.3414 21.2445 67.4418 22.0607 66.309 22.6105C65.1929 23.1602 63.9435 23.435 62.5609 23.435C61.1782 23.435 59.9372 23.1685 58.8377 22.6354C57.7549 22.0857 56.897 21.2694 56.264 20.1866C55.631 19.0872 55.3144 17.7545 55.3144 16.1886V5.71875H59.5873Z" fill="white"/>
<path d="M81.5785 5.71875C83.4276 5.71875 85.0435 6.08524 86.4261 6.81821C87.8088 7.55118 88.8749 8.58401 89.6245 9.91669C90.3908 11.2327 90.774 12.757 90.774 14.4894C90.774 16.2053 90.3908 17.7295 89.6245 19.0622C88.8749 20.3949 87.8004 21.4277 86.4011 22.1607C85.0185 22.8936 83.4109 23.2601 81.5785 23.2601H75.0067V5.71875H81.5785ZM81.3036 19.5619C82.9195 19.5619 84.1772 19.1205 85.0768 18.2376C85.9763 17.3547 86.4261 16.1053 86.4261 14.4894C86.4261 12.8736 85.9763 11.6159 85.0768 10.7163C84.1772 9.81674 82.9195 9.36696 81.3036 9.36696H79.2796V19.5619H81.3036Z" fill="white"/>
<path d="M99.4338 5.71875V23.2601H95.1609V5.71875H99.4338Z" fill="white"/>
<path d="M117.148 5.71875V9.14207H112.5V23.2601H108.228V9.14207H103.58V5.71875H117.148Z" fill="white"/>
</svg>
