<svg width="107" height="30" viewBox="0 0 107 30" fill="none" xmlns="http://www.w3.org/2000/svg">
<path d="M15.0007 0H14.9993C6.71544 0 0 6.71573 0 15C0 23.2843 6.71544 30 14.9993 30H15.0007C23.2846 30 30 23.2843 30 15C30 6.71573 23.2846 0 15.0007 0Z" fill="white"/>
<path fill-rule="evenodd" clip-rule="evenodd" d="M12.3662 29.7706V23.1269H15.2604C16.8257 23.1269 18.1363 22.8447 19.1921 22.2804C20.2478 21.7161 21.0305 20.979 21.5401 20.0688C22.0499 19.1404 22.3047 18.121 22.3047 17.0107C22.3047 15.8093 22.0407 14.7444 21.5129 13.816C20.985 12.8877 20.1932 12.1595 19.1375 11.6317C18.0817 11.1037 16.7893 10.8398 15.2604 10.8398H7.69727V28.1066C9.12591 28.9043 10.6985 29.4753 12.3662 29.7706ZM16.8986 18.7854C16.4617 19.2042 15.7973 19.4135 14.9054 19.4135H12.3662V14.6078H14.9054C15.7973 14.6078 16.4617 14.8172 16.8986 15.2358C17.3354 15.6546 17.5539 16.2461 17.5539 17.0107C17.5539 17.7752 17.3354 18.3668 16.8986 18.7854Z" fill="black"/>
<path d="M22.3998 5.98438H7.69629V9.0683H22.3998V5.98438Z" fill="#E50913"/>
<path d="M42.925 14.8422C43.779 15.0242 44.465 15.4512 44.983 16.1232C45.501 16.7812 45.76 17.5372 45.76 18.3912C45.76 19.6232 45.326 20.6032 44.458 21.3312C43.604 22.0452 42.407 22.4022 40.867 22.4022H34V7.66019H40.636C42.134 7.66019 43.303 8.00319 44.143 8.68919C44.997 9.37519 45.424 10.3062 45.424 11.4822C45.424 12.3502 45.193 13.0712 44.731 13.6452C44.283 14.2192 43.681 14.6182 42.925 14.8422ZM37.591 13.6242H39.943C40.531 13.6242 40.979 13.4982 41.287 13.2462C41.609 12.9802 41.77 12.5952 41.77 12.0912C41.77 11.5872 41.609 11.2022 41.287 10.9362C40.979 10.6702 40.531 10.5372 39.943 10.5372H37.591V13.6242ZM40.237 19.5042C40.839 19.5042 41.301 19.3712 41.623 19.1052C41.959 18.8252 42.127 18.4262 42.127 17.9082C42.127 17.3902 41.952 16.9842 41.602 16.6902C41.266 16.3962 40.797 16.2492 40.195 16.2492H37.591V19.5042H40.237Z" fill="white"/>
<path d="M55.1508 22.4022L52.0848 16.8372H51.2238V22.4022H47.6328V7.66019H53.6598C54.8218 7.66019 55.8088 7.86319 56.6208 8.26919C57.4468 8.67519 58.0628 9.23519 58.4688 9.94919C58.8748 10.6492 59.0778 11.4332 59.0778 12.3012C59.0778 13.2812 58.7978 14.1562 58.2378 14.9262C57.6918 15.6962 56.8798 16.2422 55.8018 16.5642L59.2038 22.4022H55.1508ZM51.2238 14.2962H53.4498C54.1078 14.2962 54.5978 14.1352 54.9198 13.8132C55.2558 13.4912 55.4238 13.0362 55.4238 12.4482C55.4238 11.8882 55.2558 11.4472 54.9198 11.1252C54.5978 10.8032 54.1078 10.6422 53.4498 10.6422H51.2238V14.2962Z" fill="white"/>
<path d="M64.713 7.66019V22.4022H61.122V7.66019H64.713Z" fill="white"/>
<path d="M72.6283 7.66019C74.1824 7.66019 75.5404 7.96819 76.7024 8.58419C77.8643 9.20019 78.7603 10.0682 79.3904 11.1882C80.0344 12.2942 80.3563 13.5752 80.3563 15.0312C80.3563 16.4732 80.0344 17.7542 79.3904 18.8742C78.7603 19.9942 77.8574 20.8622 76.6814 21.4782C75.5194 22.0942 74.1684 22.4022 72.6283 22.4022H67.1054V7.66019H72.6283ZM72.3974 19.2942C73.7554 19.2942 74.8124 18.9232 75.5684 18.1812C76.3244 17.4392 76.7024 16.3892 76.7024 15.0312C76.7024 13.6732 76.3244 12.6162 75.5684 11.8602C74.8124 11.1042 73.7554 10.7262 72.3974 10.7262H70.6964V19.2942H72.3974Z" fill="white"/>
<path d="M91.9392 12.3222C91.6732 11.8322 91.2882 11.4612 90.7842 11.2092C90.2942 10.9432 89.7132 10.8102 89.0412 10.8102C87.8792 10.8102 86.9482 11.1952 86.2482 11.9652C85.5482 12.7212 85.1982 13.7362 85.1982 15.0102C85.1982 16.3682 85.5622 17.4322 86.2902 18.2022C87.0322 18.9582 88.0472 19.3362 89.3352 19.3362C90.2172 19.3362 90.9592 19.1122 91.5612 18.6642C92.1772 18.2162 92.6252 17.5722 92.9052 16.7322H88.3482V14.0862H96.1602V17.4252C95.8942 18.3212 95.4392 19.1542 94.7952 19.9242C94.1652 20.6942 93.3602 21.3172 92.3802 21.7932C91.4002 22.2692 90.2942 22.5072 89.0622 22.5072C87.6062 22.5072 86.3042 22.1922 85.1562 21.5622C84.0222 20.9182 83.1332 20.0292 82.4892 18.8952C81.8592 17.7612 81.5442 16.4662 81.5442 15.0102C81.5442 13.5542 81.8592 12.2592 82.4892 11.1252C83.1332 9.97719 84.0222 9.08819 85.1562 8.45819C86.2902 7.81419 87.5852 7.49219 89.0412 7.49219C90.8052 7.49219 92.2892 7.91919 93.4932 8.77319C94.7112 9.62719 95.5162 10.8102 95.9082 12.3222H91.9392Z" fill="white"/>
<path d="M101.53 10.5372V13.5192H106.339V16.2912H101.53V19.5252H106.969V22.4022H97.9393V7.66019H106.969V10.5372H101.53Z" fill="white"/>
</svg>
