<svg width="136" height="30" viewBox="0 0 136 30" fill="none" xmlns="http://www.w3.org/2000/svg">
<path d="M30.5034 20.8772H10.5912V10.0585H7.52782V22.3684C7.52782 23.1872 8.21857 23.8597 9.05951 23.8597H26.5089L22.9049 27.0176H3.56341V9.12282H7.49778H10.5612H23.4756C23.866 9.12282 24.2264 8.97659 24.4967 8.74271L31.5245 2.60234C32.0051 2.19298 32.1552 1.52047 31.945 0.964911C31.7047 0.380116 31.1341 0 30.5034 0H9.05951C8.21857 0 7.52782 0.672515 7.52782 1.49123V5.20468H10.5912V2.98246H26.5089L22.9049 6.14037H10.5912H7.52782H2.0317C1.19077 6.14037 0.5 6.81285 0.5 7.63159V28.5088C0.5 29.3275 1.19077 30 2.0317 30H23.4756C23.866 30 24.2264 29.8538 24.4967 29.6199L31.5245 23.4795C32.0051 23.0702 32.1552 22.3977 31.945 21.8421C31.7047 21.2573 31.1341 20.8772 30.5034 20.8772Z" fill="#FE4350"/>
<path d="M46.2574 6.64062C49.6114 6.64062 53.2448 8.4226 53.8834 12.6065C52.4858 12.6065 51.2086 12.6065 49.811 12.6065C49.2121 11.0181 48.0141 10.2821 46.2574 10.2821C43.8224 10.2821 42.2251 12.0641 42.2251 14.6597C42.2251 16.9841 43.7822 18.9985 46.2574 19.0372C48.0141 19.0372 49.4518 18.1849 49.8908 16.4804C51.2884 16.4804 52.566 16.4804 53.9632 16.4804C53.3642 20.9355 49.7313 22.6788 46.2574 22.6788C42.1454 22.7175 37.9531 20.0057 37.9531 14.6597C37.9531 9.31362 42.1053 6.64062 46.2574 6.64062Z" fill="white"/>
<path d="M55.5596 14.7776C55.5596 3.89184 72.2082 3.89184 72.2082 14.7776C72.1685 25.7021 55.5596 25.7021 55.5596 14.7776ZM67.9362 14.7776C67.9362 9.12163 59.7915 9.12163 59.7915 14.7776C59.7915 20.5111 67.9362 20.5111 67.9362 14.7776Z" fill="white"/>
<path d="M88.2588 6.83984H89.7362V22.6455C88.3386 22.6455 86.9014 22.6455 85.5043 22.6455V15.6337L82.0705 19.159H81.5914L78.1577 15.6337V22.6455C76.7601 22.6455 75.3229 22.6455 73.9258 22.6455V6.83984H75.4428L81.7911 13.658L88.2588 6.83984Z" fill="white"/>
<path d="M98.5607 22.642H92.4521V6.875H98.5607C109.141 6.95249 109.141 22.6032 98.5607 22.642ZM96.6043 18.9617H98.5607C103.711 18.9617 103.711 10.5553 98.5607 10.5553H96.6043V18.9617Z" fill="white"/>
<path d="M118.403 10.4778C116.008 10.4778 114.77 10.4778 112.414 10.4778V12.7247H117.924C117.924 13.9256 117.924 15.1265 117.924 16.2887H112.374C112.374 17.2184 112.374 18.1094 112.374 19.0392C114.77 19.0392 116.167 19.0392 118.603 19.0392C118.603 20.2014 118.603 21.4411 118.603 22.6032C114.81 22.6032 112.015 22.6032 108.262 22.6032C108.262 17.3347 108.262 12.0661 108.262 6.875C112.015 6.875 114.57 6.875 118.403 6.875C118.403 8.07593 118.403 9.27686 118.403 10.4778Z" fill="white"/>
<path d="M127.825 17.6833L124.711 22.642H120.359V22.0222L125.59 14.2743L120.918 7.49484V6.875H125.151L127.786 10.9814H127.905L130.62 6.875H134.773V7.49484L130.141 14.2743L135.411 22.0222V22.642H131.059L127.945 17.6833H127.825Z" fill="white"/>
</svg>
