<svg width="136" height="30" viewBox="0 0 136 30" fill="none" xmlns="http://www.w3.org/2000/svg">
<path d="M15.0007 0H14.9993C6.71544 0 0 6.71573 0 15C0 23.2843 6.71544 30 14.9993 30H15.0007C23.2846 30 30 23.2843 30 15C30 6.71573 23.2846 0 15.0007 0Z" fill="white"/>
<path fill-rule="evenodd" clip-rule="evenodd" d="M12.3662 29.7706V23.1269H15.2604C16.8257 23.1269 18.1363 22.8447 19.1921 22.2804C20.2478 21.7161 21.0305 20.979 21.5401 20.0688C22.0499 19.1404 22.3047 18.121 22.3047 17.0107C22.3047 15.8093 22.0407 14.7444 21.5129 13.816C20.985 12.8877 20.1932 12.1595 19.1375 11.6317C18.0817 11.1037 16.7893 10.8398 15.2604 10.8398H7.69727V28.1066C9.12591 28.9043 10.6985 29.4753 12.3662 29.7706ZM16.8986 18.7854C16.4617 19.2042 15.7973 19.4135 14.9054 19.4135H12.3662V14.6078H14.9054C15.7973 14.6078 16.4617 14.8172 16.8986 15.2358C17.3354 15.6546 17.5539 16.2461 17.5539 17.0107C17.5539 17.7752 17.3354 18.3668 16.8986 18.7854Z" fill="black"/>
<path d="M22.3998 5.98438H7.69629V9.0683H22.3998V5.98438Z" fill="#E50913"/>
<path d="M37.591 10.5362V13.5182H42.4V16.2902H37.591V19.5242H43.03V22.4012H34V7.65922H43.03V10.5362H37.591Z" fill="white"/>
<path d="M54.1813 22.4012L51.1783 17.8862L48.5323 22.4012H44.4583L49.1833 14.9042L44.3533 7.65922H48.5323L51.4933 12.1112L54.0973 7.65922H58.1713L53.4883 15.0932L58.3603 22.4012H54.1813Z" fill="white"/>
<path d="M71.188 12.4052C71.188 13.2592 70.992 14.0432 70.6 14.7572C70.208 15.4572 69.606 16.0242 68.794 16.4582C67.982 16.8922 66.974 17.1092 65.77 17.1092H63.544V22.4012H59.953V7.65922H65.77C66.946 7.65922 67.94 7.86222 68.752 8.26822C69.564 8.67422 70.173 9.23422 70.579 9.94822C70.985 10.6622 71.188 11.4812 71.188 12.4052ZM65.497 14.2532C66.183 14.2532 66.694 14.0922 67.03 13.7702C67.366 13.4482 67.534 12.9932 67.534 12.4052C67.534 11.8172 67.366 11.3622 67.03 11.0402C66.694 10.7182 66.183 10.5572 65.497 10.5572H63.544V14.2532H65.497Z" fill="white"/>
<path d="M76.4385 19.6292H81.1425V22.4012H72.8475V7.65922H76.4385V19.6292Z" fill="white"/>
<path d="M89.6174 22.5482C88.2313 22.5482 86.9574 22.2262 85.7954 21.5822C84.6474 20.9382 83.7304 20.0422 83.0443 18.8942C82.3723 17.7322 82.0364 16.4302 82.0364 14.9882C82.0364 13.5462 82.3723 12.2512 83.0443 11.1032C83.7304 9.95522 84.6474 9.05922 85.7954 8.41522C86.9574 7.77122 88.2313 7.44922 89.6174 7.44922C91.0034 7.44922 92.2704 7.77122 93.4184 8.41522C94.5804 9.05922 95.4904 9.95522 96.1484 11.1032C96.8204 12.2512 97.1564 13.5462 97.1564 14.9882C97.1564 16.4302 96.8204 17.7322 96.1484 18.8942C95.4764 20.0422 94.5664 20.9382 93.4184 21.5822C92.2704 22.2262 91.0034 22.5482 89.6174 22.5482ZM89.6174 19.2722C90.7934 19.2722 91.7313 18.8802 92.4314 18.0962C93.1454 17.3122 93.5024 16.2762 93.5024 14.9882C93.5024 13.6862 93.1454 12.6502 92.4314 11.8802C91.7313 11.0962 90.7934 10.7042 89.6174 10.7042C88.4274 10.7042 87.4754 11.0892 86.7614 11.8592C86.0614 12.6292 85.7114 13.6722 85.7114 14.9882C85.7114 16.2902 86.0614 17.3332 86.7614 18.1172C87.4754 18.8872 88.4274 19.2722 89.6174 19.2722Z" fill="white"/>
<path d="M106.462 22.4012L103.396 16.8362H102.535V22.4012H98.9441V7.65922H104.971C106.133 7.65922 107.12 7.86222 107.932 8.26822C108.758 8.67422 109.374 9.23422 109.78 9.94822C110.186 10.6482 110.389 11.4322 110.389 12.3002C110.389 13.2802 110.109 14.1552 109.549 14.9252C109.003 15.6952 108.191 16.2412 107.113 16.5632L110.515 22.4012H106.462ZM102.535 14.2952H104.761C105.419 14.2952 105.909 14.1342 106.231 13.8122C106.567 13.4902 106.735 13.0352 106.735 12.4472C106.735 11.8872 106.567 11.4462 106.231 11.1242C105.909 10.8022 105.419 10.6412 104.761 10.6412H102.535V14.2952Z" fill="white"/>
<path d="M116.024 10.5362V13.5182H120.833V16.2902H116.024V19.5242H121.463V22.4012H112.433V7.65922H121.463V10.5362H116.024Z" fill="white"/>
<path d="M131.103 22.4012L128.037 16.8362H127.176V22.4012H123.585V7.65922H129.612C130.774 7.65922 131.761 7.86222 132.573 8.26822C133.399 8.67422 134.015 9.23422 134.421 9.94822C134.827 10.6482 135.03 11.4322 135.03 12.3002C135.03 13.2802 134.75 14.1552 134.19 14.9252C133.644 15.6952 132.832 16.2412 131.754 16.5632L135.156 22.4012H131.103ZM127.176 14.2952H129.402C130.06 14.2952 130.55 14.1342 130.872 13.8122C131.208 13.4902 131.376 13.0352 131.376 12.4472C131.376 11.8872 131.208 11.4462 130.872 11.1242C130.55 10.8022 130.06 10.6412 129.402 10.6412H127.176V14.2952Z" fill="white"/>
</svg>
