<svg width="124" height="30" viewBox="0 0 124 30" fill="none" xmlns="http://www.w3.org/2000/svg">
<g clip-path="url(#clip0_1852_798)">
<path d="M46.8452 12.1956C46.8452 13.218 46.6056 14.1525 46.1264 14.9992C45.6632 15.8299 44.9524 16.5009 43.9941 17.0121C43.0517 17.5073 41.8937 17.7549 40.52 17.7549H38.196V23.458H33.5V6.56437H40.52C41.8777 6.56437 43.0277 6.804 43.9701 7.28325C44.9285 7.7625 45.6472 8.42547 46.1264 9.27215C46.6056 10.1188 46.8452 11.0933 46.8452 12.1956ZM40.0648 14.0168C41.3905 14.0168 42.0534 13.4097 42.0534 12.1956C42.0534 10.9655 41.3905 10.3505 40.0648 10.3505H38.196V14.0168H40.0648Z" fill="white"/>
<path d="M55.1049 23.6258C53.1402 23.6258 51.527 23.1625 50.2652 22.2359C49.0033 21.2934 48.3245 19.9515 48.2286 18.2102H53.2361C53.284 18.8013 53.4597 19.2326 53.7632 19.5042C54.0667 19.7758 54.458 19.9116 54.9372 19.9116C55.3684 19.9116 55.7198 19.8077 55.9914 19.6001C56.2789 19.3764 56.4226 19.0729 56.4226 18.6895C56.4226 18.1942 56.191 17.8108 55.7278 17.5393C55.2646 17.2677 54.5139 16.9642 53.4757 16.6287C52.3735 16.2613 51.4791 15.9098 50.7922 15.5743C50.1214 15.2229 49.5304 14.7197 49.0193 14.0647C48.5241 13.3937 48.2766 12.5231 48.2766 11.4528C48.2766 10.3664 48.5481 9.43989 49.0912 8.67308C49.6342 7.8903 50.3849 7.29923 51.3433 6.89985C52.3017 6.50047 53.3878 6.30078 54.6017 6.30078C56.5664 6.30078 58.1317 6.76406 59.2977 7.69061C60.4797 8.6012 61.1106 9.88719 61.1905 11.5486H56.0872C56.0712 11.0374 55.9115 10.654 55.608 10.3984C55.3205 10.1428 54.9451 10.015 54.4819 10.015C54.1305 10.015 53.843 10.1188 53.6194 10.3265C53.3958 10.5342 53.284 10.8297 53.284 11.2131C53.284 11.5326 53.4038 11.8122 53.6434 12.0518C53.8989 12.2755 54.2104 12.4752 54.5778 12.6509C54.9451 12.8106 55.4882 13.0183 56.207 13.2739C57.2772 13.6413 58.1557 14.0088 58.8425 14.3762C59.5453 14.7276 60.1443 15.2309 60.6394 15.8858C61.1505 16.5248 61.4061 17.3396 61.4061 18.33C61.4061 19.3365 61.1505 20.2391 60.6394 21.0378C60.1443 21.8366 59.4175 22.4676 58.4591 22.9309C57.5168 23.3941 56.3987 23.6258 55.1049 23.6258Z" fill="white"/>
<path d="M76.3114 6.56437V10.3025H71.8071V23.458H67.1112V10.3025H62.6548V6.56437H76.3114Z" fill="white"/>
<path d="M88.7346 20.7023H82.7448L81.8344 23.458H76.8988L83.0563 6.56437H88.471L94.6045 23.458H89.645L88.7346 20.7023ZM87.5606 17.1079L85.7397 11.6445L83.9428 17.1079H87.5606Z" fill="white"/>
<path d="M106.126 23.458L100.831 16.0536V23.458H96.1351V6.56437H100.831V13.849L106.078 6.56437H111.493L105.287 14.7596L111.804 23.458H106.126Z" fill="white"/>
<path d="M118.215 10.3265V13.0822H123.606V16.6526H118.215V19.6959H124.325V23.458H113.519V6.56437H124.325V10.3265H118.215Z" fill="white"/>
<circle cx="15.5" cy="15" r="15" fill="white"/>
<path d="M22.0246 4.64844H8.97461V7.19844H22.0246V4.64844Z" fill="#E50913"/>
<path d="M15.6754 25.4266C14.4623 25.4266 13.3752 25.2258 12.4142 24.8242C11.4531 24.4226 10.6811 23.8282 10.0982 23.0411C9.53104 22.2539 9.2317 21.3062 9.2002 20.1977H13.5012C13.5643 20.8242 13.7769 21.3062 14.1393 21.6435C14.5017 21.9648 14.9743 22.1254 15.5572 22.1254C16.1559 22.1254 16.6285 21.9889 16.9751 21.7158C17.3218 21.4266 17.4951 21.0331 17.4951 20.5351C17.4951 20.1174 17.3533 19.772 17.0697 19.499C16.8018 19.2259 16.4631 19.001 16.0535 18.8243C15.6596 18.6476 15.0925 18.4468 14.352 18.2219C13.2807 17.8845 12.4063 17.5472 11.7288 17.2098C11.0514 16.8725 10.4684 16.3745 9.98005 15.7159C9.49166 15.0573 9.24746 14.1978 9.24746 13.1376C9.24746 11.5634 9.80675 10.3345 10.9253 9.45094C12.0439 8.55135 13.5012 8.10156 15.2973 8.10156C17.1248 8.10156 18.5979 8.55135 19.7165 9.45094C20.8351 10.3345 21.4337 11.5714 21.5125 13.1617H17.1406C17.1091 12.6155 16.9121 12.1898 16.5498 11.8846C16.1874 11.5634 15.7226 11.4027 15.1555 11.4027C14.6671 11.4027 14.2732 11.5393 13.9739 11.8123C13.6745 12.0694 13.5249 12.4469 13.5249 12.9449C13.5249 13.491 13.7769 13.9167 14.2811 14.2219C14.7852 14.5272 15.573 14.8565 16.6443 15.2099C17.7156 15.5793 18.5821 15.9328 19.2438 16.2701C19.9213 16.6074 20.5042 17.0974 20.9926 17.74C21.481 18.3825 21.7252 19.2098 21.7252 20.2218C21.7252 21.1857 21.481 22.0612 20.9926 22.8483C20.52 23.6354 19.8268 24.2619 18.913 24.7278C17.9992 25.1936 16.92 25.4266 15.6754 25.4266Z" fill="black"/>
</g>
<defs>
<clipPath id="clip0_1852_798">
<rect width="123.15" height="30" fill="white" transform="translate(0.5)"/>
</clipPath>
</defs>
</svg>
