<svg width="112" height="30" viewBox="0 0 112 30" fill="none" xmlns="http://www.w3.org/2000/svg">
<path d="M15.0007 0H14.9993C6.71544 0 0 6.71388 0 14.9959C0 23.2779 6.71544 29.9917 14.9993 29.9917H15.0007C23.2846 29.9917 30 23.2779 30 14.9959C30 6.71388 23.2846 0 15.0007 0Z" fill="white"/>
<path fill-rule="evenodd" clip-rule="evenodd" d="M12.3662 29.7614V23.1196H15.2604C16.8257 23.1196 18.1363 22.8375 19.1921 22.2734C20.2478 21.7092 21.0305 20.9723 21.5401 20.0623C22.0499 19.1342 22.3047 18.1151 22.3047 17.0051C22.3047 15.804 22.0407 14.7394 21.5129 13.8113C20.985 12.8832 20.1932 12.1552 19.1375 11.6275C18.0817 11.0998 16.7893 10.8359 15.2604 10.8359H7.69727V28.0978C9.12591 28.8954 10.6985 29.4662 12.3662 29.7614ZM16.8986 18.7794C16.4617 19.198 15.7973 19.4072 14.9054 19.4072H12.3662V14.6029H14.9054C15.7973 14.6029 16.4617 14.8122 16.8986 15.2307C17.3354 15.6493 17.5539 16.2407 17.5539 17.0051C17.5539 17.7694 17.3354 18.3608 16.8986 18.7794Z" fill="black"/>
<path d="M22.3998 5.98438H7.69629V9.0683H22.3998V5.98438Z" fill="#E50913"/>
<path d="M54.2004 7.92578L50.5148 22.064H46.3458L44.0901 12.7593L41.7539 22.064H37.5849L34 7.92578H37.6856L39.7197 18.2173L42.2372 7.92578H46.0235L48.4403 18.2173L50.4946 7.92578H54.2004ZM64.7287 19.5666H59.452L58.6061 22.064H55.0011L60.1166 7.92578H64.1043L69.2199 22.064H65.5746L64.7287 19.5666ZM63.8425 16.9082L62.0903 11.7322L60.3583 16.9082H63.8425ZM74.2207 19.4055H78.7321V22.064H70.7768V7.92578H74.2207V19.4055ZM83.8187 19.4055H88.33V22.064H80.3747V7.92578H83.8187V19.4055ZM93.4166 10.6849V13.5448H98.0287V16.2033H93.4166V19.3048H98.6325V22.064H89.9727V7.92578H98.6325V10.6849H93.4166ZM111.039 7.92578V10.6849H107.293V22.064H103.849V10.6849H100.104V7.92578H111.039Z" fill="white"/>
</svg>
