<svg width="876" height="40" viewBox="0 0 876 40" fill="none" xmlns="http://www.w3.org/2000/svg">
<path d="M444.271 -0.649941L444.273 -0.650435C480.389 -11.5557 512.512 -15.0654 536.692 -13.6856C548.782 -12.9956 558.877 -11.0836 566.49 -8.26834C574.112 -5.44962 579.202 -1.74164 581.35 2.509C584.104 7.95823 583.49 14.1865 579.837 20.8428C576.181 27.5041 569.492 34.5686 560.151 41.6439C541.473 55.7925 512.254 69.9386 475.721 80.9664C446.131 89.8985 413.771 94.5653 387.596 94.0373C374.507 93.7733 362.978 92.2106 354.12 89.241C345.258 86.2705 339.119 81.9104 336.714 76.088C334.89 70.2517 336.171 63.8749 340.276 57.2382C344.385 50.595 351.314 43.7122 360.735 36.8964C379.577 23.266 408.337 9.94045 444.271 -0.649941Z" stroke="url(#paint0_linear_282_234)" stroke-opacity="0.23" stroke-width="0.515692"/>
<path d="M431.485 -35.1622L431.486 -35.1627C497.876 -55.2088 556.933 -61.6631 601.395 -59.1258C623.628 -57.857 642.202 -54.3408 656.217 -49.1576C670.242 -43.971 679.659 -37.1314 683.643 -29.2474C688.746 -19.1511 687.596 -7.62808 680.859 4.64528C674.12 16.9236 661.802 29.9274 644.625 42.9388C610.274 68.9595 556.553 94.9648 489.402 115.235C435.007 131.655 375.519 140.235 327.392 139.264C303.328 138.778 282.118 135.905 265.809 130.439C249.498 124.971 238.143 116.927 233.69 106.137C230.309 95.3314 232.687 83.5443 240.255 71.3101C247.827 59.0693 260.583 46.4017 277.909 33.8675C312.56 8.80015 365.436 -15.6965 431.485 -35.1622Z" stroke="url(#paint1_linear_282_234)" stroke-opacity="0.23" stroke-width="0.515692"/>
<path d="M407.727 -99.2906L407.728 -99.2911C530.371 -136.322 639.473 -148.248 721.625 -143.56C762.702 -141.216 797.032 -134.718 822.944 -125.135C848.866 -115.549 866.322 -102.891 873.719 -88.2551C883.186 -69.5241 881.038 -48.1626 868.573 -25.452C856.105 -2.73649 833.327 21.3033 801.589 45.3447C738.115 93.4255 638.867 141.467 514.826 178.91C414.339 209.243 304.442 225.094 215.527 223.3C171.068 222.404 131.869 217.096 101.719 206.989C71.566 196.882 50.5159 181.993 42.2586 161.971C35.9849 141.932 40.4014 120.093 54.4032 97.4573C68.4089 74.8156 91.9942 51.3989 124.008 28.2391C188.035 -18.0795 285.722 -63.3335 407.727 -99.2906Z" stroke="url(#paint2_linear_282_234)" stroke-opacity="0.23" stroke-width="0.515692"/>
<path d="M451.194 18.0126L451.195 18.0124C470.844 12.0794 488.321 10.1698 501.477 10.9205C508.055 11.2959 513.548 12.3363 517.691 13.8684C521.839 15.4023 524.612 17.4211 525.783 19.7383C527.284 22.7081 526.949 26.1014 524.96 29.7252C522.969 33.3514 519.329 37.196 514.247 41.0456C504.084 48.7439 488.187 56.4401 468.311 62.4396C452.213 67.2991 434.608 69.8382 420.366 69.5509C413.245 69.4073 406.972 68.5571 402.151 66.941C397.328 65.3244 393.984 62.9504 392.673 59.777C391.679 56.5968 392.377 53.1233 394.612 49.5104C396.849 45.8943 400.62 42.1487 405.746 38.4403C415.998 31.0239 431.645 23.7741 451.194 18.0126Z" stroke="url(#paint3_linear_282_234)" stroke-opacity="0.23" stroke-width="0.252288"/>
<defs>
<linearGradient id="paint0_linear_282_234" x1="446.324" y1="-1.63094" x2="472.599" y2="82.2388" gradientUnits="userSpaceOnUse">
<stop stop-color="white"/>
<stop offset="1" stop-color="white" stop-opacity="0"/>
</linearGradient>
<linearGradient id="paint1_linear_282_234" x1="435.319" y1="-36.7577" x2="483.604" y2="117.366" gradientUnits="userSpaceOnUse">
<stop stop-color="white"/>
<stop offset="1" stop-color="white" stop-opacity="0"/>
</linearGradient>
<linearGradient id="paint2_linear_282_234" x1="414.871" y1="-102.028" x2="504.052" y2="182.638" gradientUnits="userSpaceOnUse">
<stop stop-color="white"/>
<stop offset="1" stop-color="white" stop-opacity="0"/>
</linearGradient>
<linearGradient id="paint3_linear_282_234" x1="452.315" y1="17.4925" x2="466.609" y2="63.1183" gradientUnits="userSpaceOnUse">
<stop stop-color="white"/>
<stop offset="1" stop-color="white" stop-opacity="0"/>
</linearGradient>
</defs>
</svg>
