<svg width="40" height="40" viewBox="0 0 40 40" fill="none" xmlns="http://www.w3.org/2000/svg">
<path d="M20 40C31.0457 40 40 31.0457 40 20C40 8.95431 31.0457 0 20 0C8.95431 0 0 8.95431 0 20C0 31.0457 8.95431 40 20 40Z" fill="white"/>
<path fill-rule="evenodd" clip-rule="evenodd" d="M39.9468 19.9734C39.9468 31.0045 31.0045 39.9468 19.9734 39.9468C8.9424 39.9468 0 31.0045 0 19.9734C0 8.9424 8.9424 0 19.9734 0C31.0045 0 39.9468 8.9424 39.9468 19.9734ZM14.3135 27.9218H10.4373C9.62269 27.9218 9.2204 27.9218 8.97503 27.7649C8.71006 27.5931 8.54817 27.3085 8.52851 26.9944C8.51383 26.705 8.71497 26.3517 9.11731 25.6451L18.6883 8.77486C19.0956 8.05846 19.3017 7.70029 19.5617 7.56783C19.8414 7.42554 20.1751 7.42554 20.4547 7.56783C20.7148 7.70029 20.9209 8.05846 21.3281 8.77486L23.2958 12.2095L23.3058 12.2271C23.7457 12.9956 23.9687 13.3854 24.0661 13.7944C24.174 14.2409 24.174 14.7119 24.0661 15.1585C23.9679 15.5706 23.7471 15.9631 23.3006 16.7433L18.2732 25.6304L18.2602 25.6531C17.8174 26.428 17.5931 26.8207 17.2821 27.117C16.9435 27.441 16.5362 27.6763 16.0897 27.809C15.6825 27.9218 15.2262 27.9218 14.3135 27.9218ZM24.1024 27.9218H29.6566C30.4761 27.9218 30.8883 27.9218 31.1338 27.7601C31.3987 27.5883 31.5654 27.2987 31.5803 26.9849C31.5944 26.7048 31.3976 26.3651 31.0119 25.6997C30.9987 25.677 30.9854 25.6539 30.9718 25.6305L28.1896 20.871L28.158 20.8174C27.767 20.1563 27.5697 19.8225 27.3162 19.6934C27.0367 19.5511 26.7077 19.5511 26.4282 19.6934C26.173 19.8259 25.9669 20.1742 25.5597 20.8759L22.7874 25.6354L22.7779 25.6518C22.3721 26.3523 22.1693 26.7024 22.1839 26.9896C22.2035 27.3037 22.3654 27.5931 22.6303 27.7649C22.8708 27.9218 23.283 27.9218 24.1024 27.9218Z" fill="#E84142"/>
</svg>
