<svg width="1440" height="891" viewBox="0 0 1440 891" fill="none" xmlns="http://www.w3.org/2000/svg">
<g clip-path="url(#clip0)">
<path d="M1441 0H-1V891H1441V0Z" fill="url(#paint0_radial)"/>
<mask id="mask0" mask-type="alpha" maskUnits="userSpaceOnUse" x="-1" y="0" width="1442" height="891">
<path d="M1441 0H-1V891H1441V0Z" fill="url(#paint1_linear)"/>
</mask>
<g mask="url(#mask0)">
<g opacity="0.03">
<path opacity="0.05" d="M-162.257 1283.5V-461.5H1609.26V1283.5H-162.257ZM-53.7966 1177.45H1500.8V-355.451H-53.7966V1177.45Z" fill="#555555"/>
<path opacity="0.5" d="M-191.662 -490.906V1313.39H1639.14V-490.906H-191.662ZM1306.05 -489.942H1471.39V-327.011H1306.05V-489.942ZM1471.39 -163.115H1306.05V-326.047H1471.39V-163.115ZM1471.39 0.779449H1306.05V-162.151H1471.39V0.779449ZM1471.39 164.675H1306.05V1.74353H1471.39V164.675ZM1471.39 328.57H1306.05V165.639H1471.39V328.57ZM1471.39 492.465H1306.05V329.534H1471.39V492.465ZM1471.39 656.36H1306.05V493.429H1471.39V656.36ZM1471.39 820.255H1306.05V657.324H1471.39V820.255ZM1471.39 984.151H1306.05V821.22H1471.39V984.151ZM1471.39 1148.05H1306.05V985.115H1471.39V1148.05ZM-24.393 985.115H140.948V1148.05H-24.393V985.115ZM-24.393 821.22H140.948V984.151H-24.393V821.22ZM-24.393 657.324H140.948V820.255H-24.393V657.324ZM-24.393 493.429H140.948V656.36H-24.393V493.429ZM-24.393 329.534H140.948V492.465H-24.393V329.534ZM-24.393 165.639H140.948V328.57H-24.393V165.639ZM-24.393 1.74353H140.948V164.675H-24.393V1.74353ZM-24.393 -162.151H140.948V0.779449H-24.393V-162.151ZM-24.393 -326.047H140.948V-163.115H-24.393V-326.047ZM1305.09 -163.115H1139.74V-326.047H1305.09V-163.115ZM1305.09 0.779449H1139.74V-162.151H1305.09V0.779449ZM1305.09 164.675H1139.74V1.74353H1305.09V164.675ZM1305.09 328.57H1139.74V165.639H1305.09V328.57ZM1305.09 492.465H1139.74V329.534H1305.09V492.465ZM1305.09 656.36H1139.74V493.429H1305.09V656.36ZM1305.09 820.255H1139.74V657.324H1305.09V820.255ZM1305.09 984.151H1139.74V821.22H1305.09V984.151ZM141.912 821.22H307.254V984.151H141.912V821.22ZM141.912 657.324H307.254V820.255H141.912V657.324ZM141.912 493.429H307.254V656.36H141.912V493.429ZM141.912 329.534H307.254V492.465H141.912V329.534ZM141.912 165.639H307.254V328.57H141.912V165.639ZM141.912 1.74353H307.254V164.675H141.912V1.74353ZM141.912 -162.151H307.254V0.779449H141.912V-162.151ZM1138.78 0.779449H973.44V-162.151H1138.78V0.779449ZM1138.78 164.675H973.44V1.74353H1138.78V164.675ZM1138.78 328.57H973.44V165.639H1138.78V328.57ZM1138.78 492.465H973.44V329.534H1138.78V492.465ZM1138.78 656.36H973.44V493.429H1138.78V656.36ZM1138.78 820.255H973.44V657.324H1138.78V820.255ZM308.218 657.324H473.559V820.255H308.218V657.324ZM308.218 493.429H473.559V656.36H308.218V493.429ZM308.218 329.534H473.559V492.465H308.218V329.534ZM308.218 165.639H473.559V328.57H308.218V165.639ZM308.218 1.74353H473.559V164.675H308.218V1.74353ZM972.475 164.675H807.134V1.74353H972.475V164.675ZM972.475 328.57H807.134V165.639H972.475V328.57ZM972.475 492.465H807.134V329.534H972.475V492.465ZM972.475 656.36H807.134V493.429H972.475V656.36ZM474.523 493.429H639.865V656.36H474.523V493.429ZM474.523 329.534H639.865V492.465H474.523V329.534ZM474.523 165.639H639.865V328.57H474.523V165.639ZM806.17 328.57H640.829V165.639H806.17V328.57ZM806.17 492.465H640.829V329.534H806.17V492.465ZM640.829 493.429H806.17V656.36H640.829V493.429ZM806.17 164.675H640.829V1.74353H806.17V164.675ZM639.865 164.675H474.523V1.74353H639.865V164.675ZM474.523 657.324H639.865V820.255H474.523V657.324ZM640.829 657.324H806.17V820.255H640.829V657.324ZM807.134 657.324H972.475V820.255H807.134V657.324ZM972.475 0.779449H807.134V-162.151H972.475V0.779449ZM806.17 0.779449H640.829V-162.151H806.17V0.779449ZM639.865 0.779449H474.523V-162.151H639.865V0.779449ZM473.559 0.779449H308.218V-162.151H473.559V0.779449ZM308.218 821.22H473.559V984.151H308.218V821.22ZM474.523 821.22H639.865V984.151H474.523V821.22ZM640.829 821.22H806.17V984.151H640.829V821.22ZM807.134 821.22H972.475V984.151H807.134V821.22ZM973.44 821.22H1138.78V984.151H973.44V821.22ZM1138.78 -163.115H973.44V-326.047H1138.78V-163.115ZM972.475 -163.115H807.134V-326.047H972.475V-163.115ZM806.17 -163.115H640.829V-326.047H806.17V-163.115ZM639.865 -163.115H474.523V-326.047H639.865V-163.115ZM473.559 -163.115H308.218V-326.047H473.559V-163.115ZM307.254 -163.115H141.912V-326.047H307.254V-163.115ZM141.912 985.115H307.254V1148.05H141.912V985.115ZM308.218 985.115H473.559V1148.05H308.218V985.115ZM474.523 985.115H639.865V1148.05H474.523V985.115ZM640.829 985.115H806.17V1148.05H640.829V985.115ZM807.134 985.115H972.475V1148.05H807.134V985.115ZM973.44 985.115H1138.78V1148.05H973.44V985.115ZM1139.74 985.115H1305.09V1148.05H1139.74V985.115ZM1139.74 -489.942H1305.09V-327.011H1139.74V-489.942ZM973.44 -489.942H1138.78V-327.011H973.44V-489.942ZM807.134 -489.942H972.475V-327.011H807.134V-489.942ZM640.829 -489.942H806.17V-327.011H640.829V-489.942ZM474.523 -489.942H639.865V-327.011H474.523V-489.942ZM308.218 -489.942H473.559V-327.011H308.218V-489.942ZM141.912 -489.942H307.254V-327.011H141.912V-489.942ZM-24.393 -489.942H140.948V-327.011H-24.393V-489.942ZM-190.698 -489.942H-25.3571V-327.011H-190.698V-489.942ZM-190.698 -326.047H-25.3571V-163.115H-190.698V-326.047ZM-190.698 -162.151H-25.3571V0.779449H-190.698V-162.151ZM-190.698 1.74353H-25.3571V164.675H-190.698V1.74353ZM-190.698 165.639H-25.3571V328.57H-190.698V165.639ZM-190.698 329.534H-25.3571V492.465H-190.698V329.534ZM-190.698 493.429H-25.3571V656.36H-190.698V493.429ZM-190.698 657.324H-25.3571V820.255H-190.698V657.324ZM-190.698 821.22H-25.3571V984.151H-190.698V821.22ZM-190.698 985.115H-25.3571V1148.05H-190.698V985.115ZM-25.3571 1311.94H-190.698V1149.01H-25.3571V1311.94ZM140.948 1311.94H-24.393V1149.01H140.948V1311.94ZM307.254 1311.94H141.912V1149.01H307.254V1311.94ZM473.559 1311.94H308.218V1149.01H473.559V1311.94ZM639.865 1311.94H474.523V1149.01H639.865V1311.94ZM806.17 1311.94H640.829V1149.01H806.17V1311.94ZM972.475 1311.94H807.134V1149.01H972.475V1311.94ZM1138.78 1311.94H973.44V1149.01H1138.78V1311.94ZM1305.09 1311.94H1139.74V1149.01H1305.09V1311.94ZM1471.39 1311.94H1306.05V1149.01H1471.39V1311.94ZM1637.7 1311.94H1472.36V1149.01H1637.7V1311.94ZM1637.7 1148.05H1472.36V985.115H1637.7V1148.05ZM1637.7 984.151H1472.36V821.22H1637.7V984.151ZM1637.7 820.255H1472.36V657.324H1637.7V820.255ZM1637.7 656.36H1472.36V493.429H1637.7V656.36ZM1637.7 492.465H1472.36V329.534H1637.7V492.465ZM1637.7 328.57H1472.36V165.639H1637.7V328.57ZM1637.7 164.675H1472.36V1.74353H1637.7V164.675ZM1637.7 0.779449H1472.36V-162.151H1637.7V0.779449ZM1637.7 -163.115H1472.36V-326.047H1637.7V-163.115ZM1472.36 -327.011V-489.942H1637.7V-327.011H1472.36Z" fill="white"/>
<path opacity="0.5" d="M723.741 407.626L727.597 411.483L723.741 415.339L719.885 411.001L723.741 407.626ZM719.885 574.896L723.741 578.752L727.597 574.896L723.741 571.039L719.885 574.896ZM719.885 738.791L723.741 742.647L727.597 738.791L723.741 734.935L719.885 738.791ZM719.885 902.686L723.741 906.542L727.597 902.686L723.741 898.83L719.885 902.686ZM719.885 1066.58L723.741 1070.44L727.597 1066.58L723.741 1062.72L719.885 1066.58ZM719.885 1230.48L723.741 1234.33L727.597 1230.48L723.741 1226.62L719.885 1230.48ZM719.885 247.105L723.741 250.962L727.597 247.105L723.741 243.249L719.885 247.105ZM719.885 83.2103L723.741 87.0667L727.597 83.2103L723.741 79.3539L719.885 83.2103ZM719.885 -80.6848L723.741 -76.8285L727.597 -80.6848L723.741 -84.5412L719.885 -80.6848ZM719.885 -244.58L723.741 -240.724L727.597 -244.58L723.741 -248.436L719.885 -244.58ZM719.885 -408.475L723.741 -404.619L727.597 -408.475L723.741 -412.332L719.885 -408.475ZM553.579 411.001L557.436 414.857L561.292 411.001L557.436 407.144L553.579 411.001ZM553.579 574.896L557.436 578.752L561.292 574.896L557.436 571.039L553.579 574.896ZM553.579 738.791L557.436 742.647L561.292 738.791L557.436 734.935L553.579 738.791ZM553.579 902.686L557.436 906.542L561.292 902.686L557.436 898.83L553.579 902.686ZM553.579 1066.58L557.436 1070.44L561.292 1066.58L557.436 1062.72L553.579 1066.58ZM553.579 1230.48L557.436 1234.33L561.292 1230.48L557.436 1226.62L553.579 1230.48ZM553.579 247.105L557.436 250.962L561.292 247.105L557.436 243.249L553.579 247.105ZM553.579 83.2103L557.436 87.0667L561.292 83.2103L557.436 79.3539L553.579 83.2103ZM553.579 -80.6848L557.436 -76.8285L560.81 -80.6848L556.953 -84.5412L553.579 -80.6848ZM553.579 -244.58L557.436 -240.724L560.81 -244.58L556.953 -248.436L553.579 -244.58ZM553.579 -408.475L557.436 -404.619L560.81 -408.475L556.953 -412.332L553.579 -408.475ZM387.274 411.001L391.13 414.857L394.986 411.001L391.13 407.144L387.274 411.001ZM387.274 574.896L391.13 578.752L394.986 574.896L391.13 571.039L387.274 574.896ZM387.274 738.791L391.13 742.647L394.986 738.791L391.13 734.935L387.274 738.791ZM387.274 902.686L391.13 906.542L394.986 902.686L391.13 898.83L387.274 902.686ZM387.274 1066.58L391.13 1070.44L394.986 1066.58L391.13 1062.72L387.274 1066.58ZM387.274 1230.48L391.13 1234.33L394.986 1230.48L391.13 1226.62L387.274 1230.48ZM387.274 247.105L391.13 250.962L394.986 247.105L391.13 243.249L387.274 247.105ZM387.274 83.2103L391.13 87.0667L394.986 83.2103L391.13 79.3539L387.274 83.2103ZM387.274 -80.6848L391.13 -76.8285L394.986 -80.6848L391.13 -84.5412L387.274 -80.6848ZM387.274 -244.58L391.13 -240.724L394.986 -244.58L391.13 -248.436L387.274 -244.58ZM387.274 -408.475L391.13 -404.619L394.986 -408.475L391.13 -412.332L387.274 -408.475ZM220.968 411.001L224.825 414.857L228.199 411.001L224.343 407.144L220.968 411.001ZM220.968 574.896L224.825 578.752L228.199 574.896L224.343 571.039L220.968 574.896ZM220.968 738.791L224.825 742.647L228.199 738.791L224.343 734.935L220.968 738.791ZM220.968 902.686L224.825 906.542L228.199 902.686L224.343 898.83L220.968 902.686ZM220.968 1066.58L224.825 1070.44L228.199 1066.58L224.343 1062.72L220.968 1066.58ZM220.968 1230.48L224.825 1234.33L228.199 1230.48L224.343 1226.62L220.968 1230.48ZM220.968 247.105L224.825 250.962L228.199 247.105L224.343 243.249L220.968 247.105ZM220.968 83.2103L224.825 87.0667L228.199 83.2103L224.343 79.3539L220.968 83.2103ZM220.968 -80.6848L224.825 -76.8285L228.199 -80.6848L224.343 -84.5412L220.968 -80.6848ZM220.968 -244.58L224.825 -240.724L228.199 -244.58L224.343 -248.436L220.968 -244.58ZM220.968 -408.475L224.825 -404.619L228.199 -408.475L224.343 -412.332L220.968 -408.475ZM54.6629 411.001L58.5193 414.857L62.3756 411.001L58.5193 407.144L54.6629 411.001ZM54.6629 574.896L58.5193 578.752L62.3756 574.896L58.5193 571.039L54.6629 574.896ZM54.6629 738.791L58.5193 742.647L62.3756 738.791L58.5193 734.935L54.6629 738.791ZM54.6629 902.686L58.5193 906.542L62.3756 902.686L58.5193 898.83L54.6629 902.686ZM54.6629 1066.58L58.5193 1070.44L62.3756 1066.58L58.5193 1062.72L54.6629 1066.58ZM54.6629 1230.48L58.5193 1234.33L62.3756 1230.48L58.5193 1226.62L54.6629 1230.48ZM54.6629 247.105L58.5193 250.962L62.3756 247.105L58.5193 243.249L54.6629 247.105ZM54.6629 83.2103L58.5193 87.0667L62.3756 83.2103L58.5193 79.3539L54.6629 83.2103ZM54.6629 -80.6848L58.5193 -76.8285L62.3756 -80.6848L58.5193 -84.5412L54.6629 -80.6848ZM54.6629 -244.58L58.5193 -240.724L62.3756 -244.58L58.5193 -248.436L54.6629 -244.58ZM54.6629 -408.475L58.5193 -404.619L62.3756 -408.475L58.5193 -412.332L54.6629 -408.475ZM-111.642 411.001L-107.786 414.857L-104.412 411.001L-108.268 407.144L-111.642 411.001ZM-111.642 574.896L-107.786 578.752L-104.412 574.896L-108.268 571.039L-111.642 574.896ZM-111.642 738.791L-107.786 742.647L-104.412 738.791L-108.268 734.935L-111.642 738.791ZM-111.642 902.686L-107.786 906.542L-104.412 902.686L-108.268 898.83L-111.642 902.686ZM-111.642 1066.58L-107.786 1070.44L-104.412 1066.58L-108.268 1062.72L-111.642 1066.58ZM-111.642 1230.48L-107.786 1234.33L-104.412 1230.48L-108.268 1226.62L-111.642 1230.48ZM-111.642 247.105L-107.786 250.962L-104.412 247.105L-108.268 243.249L-111.642 247.105ZM-111.642 83.2103L-107.786 87.0667L-104.412 83.2103L-108.268 79.3539L-111.642 83.2103ZM-111.642 -80.6848L-107.786 -76.8285L-104.412 -80.6848L-108.268 -84.5412L-111.642 -80.6848ZM-111.642 -244.58L-107.786 -240.724L-104.412 -244.58L-108.268 -248.436L-111.642 -244.58ZM-111.642 -408.475L-107.786 -404.619L-104.412 -408.475L-108.268 -412.332L-111.642 -408.475ZM886.19 411.001L890.046 414.857L893.903 411.001L890.046 407.144L886.19 411.001ZM886.19 574.896L890.046 578.752L893.903 574.896L890.046 571.039L886.19 574.896ZM886.19 738.791L890.046 742.647L893.903 738.791L890.046 734.935L886.19 738.791ZM886.19 902.686L890.046 906.542L893.903 902.686L890.046 898.83L886.19 902.686ZM886.19 1066.58L890.046 1070.44L893.903 1066.58L890.046 1062.72L886.19 1066.58ZM886.19 1230.48L890.046 1234.33L893.903 1230.48L890.046 1226.62L886.19 1230.48ZM886.19 247.105L890.046 250.962L893.903 247.105L890.046 243.249L886.19 247.105ZM886.19 83.2103L890.046 87.0667L893.903 83.2103L890.046 79.3539L886.19 83.2103ZM886.19 -80.6848L890.046 -76.8285L893.421 -80.6848L889.564 -84.5412L886.19 -80.6848ZM886.19 -244.58L890.046 -240.724L893.421 -244.58L889.564 -248.436L886.19 -244.58ZM886.19 -408.475L890.046 -404.619L893.421 -408.475L889.564 -412.332L886.19 -408.475ZM1052.5 411.001L1056.35 414.857L1060.21 411.001L1056.35 407.144L1052.5 411.001ZM1052.5 574.896L1056.35 578.752L1060.21 574.896L1056.35 571.039L1052.5 574.896ZM1052.5 738.791L1056.35 742.647L1060.21 738.791L1056.35 734.935L1052.5 738.791ZM1052.5 902.686L1056.35 906.542L1060.21 902.686L1056.35 898.83L1052.5 902.686ZM1052.5 1066.58L1056.35 1070.44L1060.21 1066.58L1056.35 1062.72L1052.5 1066.58ZM1052.5 1230.48L1056.35 1234.33L1060.21 1230.48L1056.35 1226.62L1052.5 1230.48ZM1052.5 247.105L1056.35 250.962L1060.21 247.105L1056.35 243.249L1052.5 247.105ZM1052.5 83.2103L1056.35 87.0667L1060.21 83.2103L1056.35 79.3539L1052.5 83.2103ZM1052.5 -80.6848L1056.35 -76.8285L1060.21 -80.6848L1056.35 -84.5412L1052.5 -80.6848ZM1052.5 -244.58L1056.35 -240.724L1060.21 -244.58L1056.35 -248.436L1052.5 -244.58ZM1052.5 -408.475L1056.35 -404.619L1060.21 -408.475L1056.35 -412.332L1052.5 -408.475ZM1218.8 411.001L1222.66 414.857L1226.51 411.001L1222.66 407.144L1218.8 411.001ZM1218.8 574.896L1222.66 578.752L1226.51 574.896L1222.66 571.039L1218.8 574.896ZM1218.8 738.791L1222.66 742.647L1226.51 738.791L1222.66 734.935L1218.8 738.791ZM1218.8 902.686L1222.66 906.542L1226.51 902.686L1222.66 898.83L1218.8 902.686ZM1218.8 1066.58L1222.66 1070.44L1226.51 1066.58L1222.66 1062.72L1218.8 1066.58ZM1218.8 1230.48L1222.66 1234.33L1226.51 1230.48L1222.66 1226.62L1218.8 1230.48ZM1218.8 247.105L1222.66 250.962L1226.51 247.105L1222.66 243.249L1218.8 247.105ZM1218.8 83.2103L1222.66 87.0667L1226.51 83.2103L1222.66 79.3539L1218.8 83.2103ZM1218.8 -80.6848L1222.66 -76.8285L1226.03 -80.6848L1222.18 -84.5412L1218.8 -80.6848ZM1218.8 -244.58L1222.66 -240.724L1226.03 -244.58L1222.18 -248.436L1218.8 -244.58ZM1218.8 -408.475L1222.66 -404.619L1226.03 -408.475L1222.18 -412.332L1218.8 -408.475ZM1385.11 411.001L1388.96 414.857L1392.82 411.001L1388.96 407.144L1385.11 411.001ZM1385.11 574.896L1388.96 578.752L1392.82 574.896L1388.96 571.039L1385.11 574.896ZM1385.11 738.791L1388.96 742.647L1392.82 738.791L1388.96 734.935L1385.11 738.791ZM1385.11 902.686L1388.96 906.542L1392.82 902.686L1388.96 898.83L1385.11 902.686ZM1385.11 1066.58L1388.96 1070.44L1392.82 1066.58L1388.96 1062.72L1385.11 1066.58ZM1385.11 1230.48L1388.96 1234.33L1392.82 1230.48L1388.96 1226.62L1385.11 1230.48ZM1385.11 247.105L1388.96 250.962L1392.82 247.105L1388.96 243.249L1385.11 247.105ZM1385.11 83.2103L1388.96 87.0667L1392.82 83.2103L1388.96 79.3539L1385.11 83.2103ZM1385.11 -80.6848L1388.96 -76.8285L1392.82 -80.6848L1388.96 -84.5412L1385.11 -80.6848ZM1385.11 -244.58L1388.96 -240.724L1392.82 -244.58L1388.96 -248.436L1385.11 -244.58ZM1385.11 -408.475L1388.96 -404.619L1392.82 -408.475L1388.96 -412.332L1385.11 -408.475ZM1551.41 411.001L1555.27 414.857L1559.12 411.001L1555.27 407.144L1551.41 411.001ZM1551.41 574.896L1555.27 578.752L1559.12 574.896L1555.27 571.039L1551.41 574.896ZM1551.41 738.791L1555.27 742.647L1559.12 738.791L1555.27 734.935L1551.41 738.791ZM1551.41 902.686L1555.27 906.542L1559.12 902.686L1555.27 898.83L1551.41 902.686ZM1551.41 1066.58L1555.27 1070.44L1559.12 1066.58L1555.27 1062.72L1551.41 1066.58ZM1551.41 1230.48L1555.27 1234.33L1559.12 1230.48L1555.27 1226.62L1551.41 1230.48ZM1551.41 247.105L1555.27 250.962L1559.12 247.105L1555.27 243.249L1551.41 247.105ZM1551.41 83.2103L1555.27 87.0667L1559.12 83.2103L1555.27 79.3539L1551.41 83.2103ZM1551.41 -80.6848L1555.27 -76.8285L1558.64 -80.6848L1554.79 -84.5412L1551.41 -80.6848ZM1551.41 -244.58L1555.27 -240.724L1558.64 -244.58L1554.79 -248.436L1551.41 -244.58ZM1551.41 -408.475L1555.27 -404.619L1558.64 -408.475L1554.79 -412.332L1551.41 -408.475Z" fill="white"/>
<path opacity="0.03" d="M478.862 1312.42L474.042 1317.24L469.221 1312.42L474.042 1307.6L478.862 1312.42ZM307.737 -495.244L302.916 -490.423L307.737 -485.603L312.557 -490.423L307.737 -495.244ZM141.431 -495.244L136.611 -490.423L141.431 -485.603L146.252 -490.423L141.431 -495.244ZM307.737 -331.348L302.916 -326.528L307.737 -321.708L312.557 -326.528L307.737 -331.348ZM307.737 -167.453L302.916 -162.633L307.737 -157.812L312.557 -162.633L307.737 -167.453ZM474.042 815.918L469.221 820.738L474.042 825.559L478.862 820.738L474.042 815.918ZM474.042 979.813L469.221 984.633L474.042 989.454L478.862 984.633L474.042 979.813ZM307.737 1143.71L302.916 1148.53L307.737 1153.35L312.557 1148.53L307.737 1143.71ZM474.042 652.022L469.221 656.843L474.042 661.663L478.862 656.843L474.042 652.022ZM307.737 979.813L302.916 984.633L307.737 989.454L312.557 984.633L307.737 979.813ZM307.737 1307.6L302.916 1312.42L307.737 1317.24L312.557 1312.42L307.737 1307.6ZM307.737 815.918L302.916 820.738L307.737 825.559L312.557 820.738L307.737 815.918ZM307.737 160.337L302.916 165.157L307.737 169.978L312.557 165.157L307.737 160.337ZM307.737 324.232L302.916 329.053L307.737 333.873L312.557 329.053L307.737 324.232ZM307.737 488.127L302.916 492.948L307.737 497.768L312.557 492.948L307.737 488.127ZM307.737 652.022L302.916 656.843L307.737 661.663L312.557 656.843L307.737 652.022ZM307.737 -3.55832L302.916 1.26215L307.737 6.08258L312.557 1.26215L307.737 -3.55832ZM640.347 324.232L635.527 329.053L640.347 333.873L645.168 329.053L640.347 324.232ZM640.347 488.127L635.527 492.948L640.347 497.768L645.168 492.948L640.347 488.127ZM640.347 652.022L635.527 656.843L640.347 661.663L645.168 656.843L640.347 652.022ZM640.347 979.813L635.527 984.633L640.347 989.454L645.168 984.633L640.347 979.813ZM640.347 815.918L635.527 820.738L640.347 825.559L645.168 820.738L640.347 815.918ZM640.347 -167.453L635.527 -162.633L640.347 -157.812L645.168 -162.633L640.347 -167.453ZM640.347 160.337L635.527 165.157L640.347 169.978L645.168 165.157L640.347 160.337ZM640.347 -3.55832L635.527 1.26215L640.347 6.08258L645.168 1.26215L640.347 -3.55832ZM640.347 1307.6L635.527 1312.42L640.347 1317.24L645.168 1312.42L640.347 1307.6ZM474.042 -3.55832L469.221 1.26215L474.042 6.08258L478.862 1.26215L474.042 -3.55832ZM474.042 -167.453L469.221 -162.633L474.042 -157.812L478.862 -162.633L474.042 -167.453ZM474.042 160.337L469.221 165.157L474.042 169.978L478.862 165.157L474.042 160.337ZM474.042 324.232L469.221 329.053L474.042 333.873L478.862 329.053L474.042 324.232ZM474.042 -495.244L469.221 -490.423L474.042 -485.603L478.862 -490.423L474.042 -495.244ZM474.042 488.127L469.221 492.948L474.042 497.768L478.862 492.948L474.042 488.127ZM640.347 1143.71L635.527 1148.53L640.347 1153.35L645.168 1148.53L640.347 1143.71ZM-191.18 160.337L-196 165.157L-191.18 169.978L-186.359 165.157L-191.18 160.337ZM-24.8742 1307.6L-29.6946 1312.42L-24.8742 1317.24L-20.0537 1312.42L-24.8742 1307.6ZM-191.18 -3.55832L-196 1.26215L-191.18 6.08258L-186.359 1.26215L-191.18 -3.55832ZM-191.18 -331.348L-196 -326.528L-191.18 -321.708L-186.359 -326.528L-191.18 -331.348ZM141.431 -331.348L136.611 -326.528L141.431 -321.708L146.252 -326.528L141.431 -331.348ZM-191.18 -495.244L-196 -490.423L-191.18 -485.603L-186.359 -490.423L-191.18 -495.244ZM-24.8742 815.918L-29.6946 820.738L-24.8742 825.559L-20.0537 820.738L-24.8742 815.918ZM-24.8742 979.813L-29.6946 984.633L-24.8742 989.454L-20.0537 984.633L-24.8742 979.813ZM1638.18 -485.603L1643 -490.423L1638.18 -495.244L1633.36 -490.423L1638.18 -485.603ZM-191.18 1307.6L-196 1312.42L-191.18 1317.24L-186.359 1312.42L-191.18 1307.6ZM-191.18 1143.71L-196 1148.53L-191.18 1153.35L-186.359 1148.53L-191.18 1143.71ZM-191.18 815.918L-196 820.738L-191.18 825.559L-186.359 820.738L-191.18 815.918ZM-191.18 652.022L-196 656.843L-191.18 661.663L-186.359 656.843L-191.18 652.022ZM-191.18 324.232L-196 329.053L-191.18 333.873L-186.359 329.053L-191.18 324.232ZM-191.18 488.127L-196 492.948L-191.18 497.768L-186.359 492.948L-191.18 488.127ZM640.347 -331.348L635.527 -326.528L640.347 -321.708L645.168 -326.528L640.347 -331.348ZM-191.18 -167.453L-196 -162.633L-191.18 -157.812L-186.359 -162.633L-191.18 -167.453ZM141.431 979.813L136.611 984.633L141.431 989.454L146.252 984.633L141.431 979.813ZM141.431 488.127L136.611 492.948L141.431 497.768L146.252 492.948L141.431 488.127ZM141.431 652.022L136.611 656.843L141.431 661.663L146.252 656.843L141.431 652.022ZM141.431 815.918L136.611 820.738L141.431 825.559L146.252 820.738L141.431 815.918ZM141.431 324.232L136.611 329.053L141.431 333.873L146.252 329.053L141.431 324.232ZM-24.8742 488.127L-29.6946 492.948L-24.8742 497.768L-20.0537 492.948L-24.8742 488.127ZM141.431 -3.55832L136.611 1.26215L141.431 6.08258L146.252 1.26215L141.431 -3.55832ZM141.431 160.337L136.611 165.157L141.431 169.978L146.252 165.157L141.431 160.337ZM141.431 -167.453L136.611 -162.633L141.431 -157.812L146.252 -162.633L141.431 -167.453ZM-24.8742 -167.453L-29.6946 -162.633L-24.8742 -157.812L-20.0537 -162.633L-24.8742 -167.453ZM141.431 1143.71L136.611 1148.53L141.431 1153.35L146.252 1148.53L141.431 1143.71ZM-24.8742 324.232L-29.6946 329.053L-24.8742 333.873L-20.0537 329.053L-24.8742 324.232ZM-24.8742 -3.55832L-29.6946 1.26215L-24.8742 6.08258L-20.0537 1.26215L-24.8742 -3.55832ZM141.431 1307.6L136.611 1312.42L141.431 1317.24L146.252 1312.42L141.431 1307.6ZM-24.8742 -495.244L-29.6946 -490.423L-24.8742 -485.603L-20.0537 -490.423L-24.8742 -495.244ZM-191.18 979.813L-196 984.633L-191.18 989.454L-186.359 984.633L-191.18 979.813ZM1305.57 -331.348L1300.75 -326.528L1305.57 -321.708L1310.39 -326.528L1305.57 -331.348ZM1305.57 -3.55832L1300.75 1.26215L1305.57 6.08258L1310.39 1.26215L1305.57 -3.55832ZM1471.87 1307.6L1467.05 1312.42L1471.87 1317.24L1476.69 1312.42L1471.87 1307.6ZM1305.57 -167.453L1300.75 -162.633L1305.57 -157.812L1310.39 -162.633L1305.57 -167.453ZM1305.57 -495.244L1300.75 -490.423L1305.57 -485.603L1310.39 -490.423L1305.57 -495.244ZM1471.87 488.127L1467.05 492.948L1471.87 497.768L1476.69 492.948L1471.87 488.127ZM1139.26 -495.244L1134.44 -490.423L1139.26 -485.603L1144.08 -490.423L1139.26 -495.244ZM1471.87 815.918L1467.05 820.738L1471.87 825.559L1476.69 820.738L1471.87 815.918ZM1305.57 160.337L1300.75 165.157L1305.57 169.978L1310.39 165.157L1305.57 160.337ZM1305.57 815.918L1300.75 820.738L1305.57 825.559L1310.39 820.738L1305.57 815.918ZM1305.57 979.813L1300.75 984.633L1305.57 989.454L1310.39 984.633L1305.57 979.813ZM1305.57 1307.6L1300.75 1312.42L1305.57 1317.24L1310.39 1312.42L1305.57 1307.6ZM1305.57 1143.71L1300.75 1148.53L1305.57 1153.35L1310.39 1148.53L1305.57 1143.71ZM1305.57 324.232L1300.75 329.053L1305.57 333.873L1310.39 329.053L1305.57 324.232ZM1305.57 488.127L1300.75 492.948L1305.57 497.768L1310.39 492.948L1305.57 488.127ZM1305.57 652.022L1300.75 656.843L1305.57 661.663L1310.39 656.843L1305.57 652.022ZM1471.87 979.813L1467.05 984.633L1471.87 989.454L1476.69 984.633L1471.87 979.813ZM1638.18 488.127L1633.36 492.948L1638.18 497.768L1643 492.948L1638.18 488.127ZM1638.18 324.232L1633.36 329.053L1638.18 333.873L1643 329.053L1638.18 324.232ZM1638.18 652.022L1633.36 656.843L1638.18 661.663L1643 656.843L1638.18 652.022ZM1638.18 160.337L1633.36 165.157L1638.18 169.978L1643 165.157L1638.18 160.337ZM1638.18 -167.453L1633.36 -162.633L1638.18 -157.812L1643 -162.633L1638.18 -167.453ZM1638.18 -3.55832L1633.36 1.26215L1638.18 6.08258L1643 1.26215L1638.18 -3.55832ZM1638.18 -331.348L1633.36 -326.528L1638.18 -321.708L1643 -326.528L1638.18 -331.348ZM1638.18 815.918L1633.36 820.738L1638.18 825.559L1643 820.738L1638.18 815.918ZM1471.87 324.232L1467.05 329.053L1471.87 333.873L1476.69 329.053L1471.87 324.232ZM1471.87 -167.453L1467.05 -162.633L1471.87 -157.812L1476.69 -162.633L1471.87 -167.453ZM1471.87 -3.55832L1467.05 1.26215L1471.87 6.08258L1476.69 1.26215L1471.87 -3.55832ZM1638.18 979.813L1633.36 984.633L1638.18 989.454L1643 984.633L1638.18 979.813ZM1638.18 1143.71L1633.36 1148.53L1638.18 1153.35L1643 1148.53L1638.18 1143.71ZM1638.18 1307.6L1633.36 1312.42L1638.18 1317.24L1643 1312.42L1638.18 1307.6ZM1471.87 -495.244L1467.05 -490.423L1471.87 -485.603L1476.69 -490.423L1471.87 -495.244ZM806.653 815.918L801.832 820.738L806.653 825.559L811.473 820.738L806.653 815.918ZM806.653 -3.55832L801.832 1.26215L806.653 6.08258L811.473 1.26215L806.653 -3.55832ZM806.653 -495.244L801.832 -490.423L806.653 -485.603L811.473 -490.423L806.653 -495.244ZM806.653 -167.453L801.832 -162.633L806.653 -157.812L811.473 -162.633L806.653 -167.453ZM972.958 652.022L968.138 656.843L972.958 661.663L977.778 656.843L972.958 652.022ZM806.653 -331.348L801.832 -326.528L806.653 -321.708L811.473 -326.528L806.653 -331.348ZM972.958 815.918L968.138 820.738L972.958 825.559L977.778 820.738L972.958 815.918ZM972.958 979.813L968.138 984.633L972.958 989.454L977.778 984.633L972.958 979.813ZM972.958 1307.6L968.138 1312.42L972.958 1317.24L977.778 1312.42L972.958 1307.6ZM806.653 160.337L801.832 165.157L806.653 169.978L811.473 165.157L806.653 160.337ZM640.347 -495.244L635.527 -490.423L640.347 -485.603L645.168 -490.423L640.347 -495.244ZM806.653 1143.71L801.832 1148.53L806.653 1153.35L811.473 1148.53L806.653 1143.71ZM806.653 1307.6L801.832 1312.42L806.653 1317.24L811.473 1312.42L806.653 1307.6ZM806.653 979.813L801.832 984.633L806.653 989.454L811.473 984.633L806.653 979.813ZM806.653 652.022L801.832 656.843L806.653 661.663L811.473 656.843L806.653 652.022ZM806.653 324.232L801.832 329.053L806.653 333.873L811.473 329.053L806.653 324.232ZM806.653 488.127L801.832 492.948L806.653 497.768L811.473 492.948L806.653 488.127ZM1139.26 1307.6L1134.44 1312.42L1139.26 1317.24L1144.08 1312.42L1139.26 1307.6ZM1139.26 324.232L1134.44 329.053L1139.26 333.873L1144.08 329.053L1139.26 324.232ZM1139.26 488.127L1134.44 492.948L1139.26 497.768L1144.08 492.948L1139.26 488.127ZM1139.26 652.022L1134.44 656.843L1139.26 661.663L1144.08 656.843L1139.26 652.022ZM1139.26 815.918L1134.44 820.738L1139.26 825.559L1144.08 820.738L1139.26 815.918ZM1139.26 -167.453L1134.44 -162.633L1139.26 -157.812L1144.08 -162.633L1139.26 -167.453ZM1139.26 979.813L1134.44 984.633L1139.26 989.454L1144.08 984.633L1139.26 979.813ZM1139.26 -3.55832L1134.44 1.26215L1139.26 6.08258L1144.08 1.26215L1139.26 -3.55832ZM1139.26 160.337L1134.44 165.157L1139.26 169.978L1144.08 165.157L1139.26 160.337ZM972.958 324.232L968.138 329.053L972.958 333.873L977.778 329.053L972.958 324.232ZM972.958 -3.55832L968.138 1.26215L972.958 6.08258L977.778 1.26215L972.958 -3.55832ZM972.958 -167.453L968.138 -162.633L972.958 -157.812L977.778 -162.633L972.958 -167.453ZM972.958 160.337L968.138 165.157L972.958 169.978L977.778 165.157L972.958 160.337ZM972.958 488.127L968.138 492.948L972.958 497.768L977.778 492.948L972.958 488.127ZM972.958 -495.244L968.138 -490.423L972.958 -485.603L977.778 -490.423L972.958 -495.244ZM1139.26 -331.348L1134.44 -326.528L1139.26 -321.708L1144.08 -326.528L1139.26 -331.348ZM1139.26 1143.71L1134.44 1148.53L1139.26 1153.35L1144.08 1148.53L1139.26 1143.71Z" fill="white"/>
</g>
</g>
</g>
<defs>
<radialGradient id="paint0_radial" cx="0" cy="0" r="1" gradientUnits="userSpaceOnUse" gradientTransform="translate(37.0528 107.5) rotate(22.4929) scale(1472.94 1584.47)">
<stop stop-color="#16151D"/>
<stop offset="1" stop-color="#232526"/>
</radialGradient>
<linearGradient id="paint1_linear" x1="647.5" y1="1.42446e-05" x2="564.5" y2="891" gradientUnits="userSpaceOnUse">
<stop offset="0.03125" stop-color="#232526" stop-opacity="0.03645"/>
<stop offset="1" stop-color="#1C1C21" stop-opacity="0.9687"/>
</linearGradient>
<clipPath id="clip0">
<rect width="1440" height="891" fill="white"/>
</clipPath>
</defs>
</svg>
