<svg width="40" height="40" viewBox="0 0 40 40" fill="none" xmlns="http://www.w3.org/2000/svg">
<path fill-rule="evenodd" clip-rule="evenodd" d="M20 0C31.0465 0 40 8.95353 40 20C40 31.0465 31.0465 40 20 40C8.95353 40 0 31.0465 0 20C0 8.95353 8.95353 0 20 0Z" fill="#F0B90B"/>
<path d="M10.992 20.0018L11.0064 25.2903L15.5 27.9345V31.0307L8.3766 26.8528V18.4553L10.992 20.0018ZM10.992 14.7133V17.7951L8.375 16.247V13.1653L10.992 11.6172L13.6218 13.1653L10.992 14.7133ZM17.3766 13.1653L19.9936 11.6172L22.6234 13.1653L19.9936 14.7133L17.3766 13.1653Z" fill="white"/>
<path d="M12.8831 24.1941V21.098L15.5 22.646V25.7278L12.8831 24.1941ZM17.3766 29.0435L19.9936 30.5915L22.6234 29.0435V32.1252L19.9936 33.6733L17.3766 32.1252V29.0435ZM26.3766 13.1653L28.9936 11.6172L31.6234 13.1653V16.247L28.9936 17.7951V14.7133L26.3766 13.1653ZM28.9936 25.2903L29.008 20.0018L31.625 18.4537V26.8512L24.5016 31.029V27.9329L28.9936 25.2903Z" fill="white"/>
<path d="M27.117 24.1938L24.5 25.7275V22.6457L27.117 21.0977V24.1938Z" fill="white"/>
<path d="M27.117 15.8073L27.1315 18.9034L22.625 21.5477V26.8489L20.0081 28.3826L17.3911 26.8489V21.5477L12.8847 18.9034V15.8073L15.5129 14.2592L19.992 16.9163L24.4984 14.2592L27.1283 15.8073H27.117ZM12.8831 10.5204L19.9936 6.32812L27.117 10.5204L24.5 12.0685L19.9936 9.41146L15.5 12.0685L12.8831 10.5204Z" fill="white"/>
</svg>
