<svg width="49" height="49" viewBox="0 0 49 49" fill="none" xmlns="http://www.w3.org/2000/svg">
<g filter="url(#filter0_bi_522_580)">
<rect width="48.5808" height="48.6486" rx="24.2904" fill="url(#paint0_linear_522_580)"/>
</g>
<path d="M34.8092 31.9528C34.8092 31.6276 35.0739 31.3633 35.3992 31.3633C35.7245 31.3633 35.9892 31.628 35.9892 31.9528C35.9892 32.2781 35.7245 32.5428 35.3992 32.5428C35.0737 32.5426 34.8092 32.2781 34.8092 31.9528ZM16.6943 30.0282C15.6325 30.0282 14.7689 30.8921 14.7689 31.9536C14.7689 33.0154 15.6327 33.879 16.6943 33.879C17.7561 33.879 18.6197 33.0152 18.6197 31.9536C18.6195 30.8918 17.7556 30.0282 16.6943 30.0282ZM22.5772 31.9536C22.5772 35.2028 19.9433 37.8371 16.6937 37.8371C13.4448 37.8367 10.8108 35.2028 10.8108 31.9536C10.8108 28.7045 13.4447 26.0701 16.6943 26.0701C19.9432 26.0701 22.5772 28.7043 22.5772 31.9536ZM19.2616 31.9536C19.2616 30.5381 18.1101 29.3864 16.6944 29.3864C15.2789 29.3864 14.1272 30.5379 14.1272 31.9536C14.1272 33.3691 15.2787 34.5208 16.6944 34.5208C18.1099 34.5208 19.2616 33.3691 19.2616 31.9536ZM36.9034 29.5647L33.7477 14.3278C33.4866 13.0682 32.3778 12.1649 31.0913 12.1643L27.0172 12.1622C26.5008 12.162 26.0055 12.3668 25.6404 12.732L23.3428 15.0296C22.9283 15.4441 22.9285 16.1156 23.3428 16.5301L24.6472 17.8345L26.7017 15.7818L26.0625 15.1426L26.5163 14.6888L27.6093 15.7819L24.3056 19.0858L24.8263 19.6065L28.58 18.5333L31.158 15.9686C30.6356 15.8118 30.2577 15.3172 30.2808 14.7392C30.3061 14.1063 30.83 13.5833 31.4625 13.5587C32.1639 13.5315 32.7429 14.094 32.7429 14.7894C32.7429 15.1497 32.5867 15.473 32.3392 15.6984L30.503 17.5253V28.5667C29.5294 28.0322 28.3057 27.7132 26.9754 27.7132C25.2132 27.7132 23.6381 28.2729 22.5846 29.1525C22.9468 29.9105 23.1676 30.7484 23.2107 31.6326H34.2114C34.3563 31.0968 34.8532 30.7042 35.4378 30.7225C36.075 30.7423 36.6046 31.2675 36.6296 31.9042C36.6571 32.6056 36.0945 33.1852 35.3989 33.1852C34.8309 33.1852 34.3529 32.7981 34.2112 32.2747H23.2115C23.0924 34.7274 21.6123 36.8278 19.5122 37.8378H29.5546L34.4188 34.6012C34.7904 34.7389 35.1987 34.8009 35.6255 34.7678C37.0136 34.6594 38.1303 33.5237 38.2167 32.1339C38.2839 31.0534 37.7426 30.095 36.9038 29.5654L36.9034 29.5647ZM31.5117 14.1989C31.1864 14.1989 30.9217 14.4636 30.9217 14.7889C30.9217 15.1142 31.1864 15.3785 31.5117 15.3785C31.8369 15.3785 32.1017 15.1138 32.1017 14.7889C32.1017 14.4632 31.837 14.1989 31.5117 14.1989Z" fill="white"/>
<defs>
<filter id="filter0_bi_522_580" x="-6.75676" y="-5.40541" width="60.7429" height="59.4594" filterUnits="userSpaceOnUse" color-interpolation-filters="sRGB">
<feFlood flood-opacity="0" result="BackgroundImageFix"/>
<feGaussianBlur in="BackgroundImage" stdDeviation="2.7027"/>
<feComposite in2="SourceAlpha" operator="in" result="effect1_backgroundBlur_522_580"/>
<feBlend mode="normal" in="SourceGraphic" in2="effect1_backgroundBlur_522_580" result="shape"/>
<feColorMatrix in="SourceAlpha" type="matrix" values="0 0 0 0 0 0 0 0 0 0 0 0 0 0 0 0 0 0 127 0" result="hardAlpha"/>
<feOffset dx="-6.75676" dy="-5.40541"/>
<feGaussianBlur stdDeviation="3.37838"/>
<feComposite in2="hardAlpha" operator="arithmetic" k2="-1" k3="1"/>
<feColorMatrix type="matrix" values="0 0 0 0 0 0 0 0 0 0 0 0 0 0 0 0 0 0 0.25 0"/>
<feBlend mode="normal" in2="shape" result="effect2_innerShadow_522_580"/>
</filter>
<linearGradient id="paint0_linear_522_580" x1="7.79583e-07" y1="9.78514" x2="50.3823" y2="14.178" gradientUnits="userSpaceOnUse">
<stop stop-color="#32C56D"/>
<stop offset="1" stop-color="#0A7246"/>
</linearGradient>
</defs>
</svg>
