<svg width="75" height="70" viewBox="0 0 75 70" fill="none" xmlns="http://www.w3.org/2000/svg">
<path d="M61.2591 42.7552C65.7235 28.0712 57.4389 12.5483 42.7549 8.08387C28.0709 3.61943 12.548 11.904 8.08359 26.588C3.61914 41.272 11.9037 56.7949 26.5878 61.2594C41.2718 65.7238 56.7946 57.4392 61.2591 42.7552Z" fill="#3C3C3E"/>
<path d="M45.5457 42.7945C43.1894 42.7945 40.9143 41.657 39.533 39.4632C37.4205 36.1319 38.3955 31.7442 41.7268 29.7129C45.0582 27.6004 49.4458 28.5754 51.4771 31.9068C53.5896 35.2381 52.6146 39.6257 49.2833 41.657C48.1457 42.4695 46.8457 42.7945 45.5457 42.7945ZM40.2643 39.0569C42.1331 41.982 46.0332 42.8758 48.9583 41.007C51.8833 39.1382 52.7771 35.2381 50.9083 32.313C49.0395 29.3879 45.1394 28.4942 42.2143 30.363C39.2893 32.2318 38.3955 36.1319 40.2643 39.0569Z" stroke="url(#paint0_linear)"/>
<path d="M52.8583 47.2628L52.452 46.6127C58.4647 42.7939 60.2522 34.8312 56.4333 28.8185C52.6145 22.8059 44.6518 21.0183 38.6392 24.8372C32.6265 28.656 30.8389 36.6187 34.6578 42.6314L34.0078 43.0377C29.9452 36.6187 31.8952 28.1685 38.3141 24.1059C44.733 20.0433 53.1833 21.9934 57.2459 28.4123C61.2272 34.7499 59.2772 43.2814 52.8583 47.2628Z" stroke="url(#paint1_linear)"/>
<path d="M45.6266 58.3138C37.9889 58.3138 30.595 54.4137 26.4511 47.751C19.7885 37.1883 22.9573 23.2129 33.5201 16.5503C44.0828 9.88759 58.0582 13.0564 64.7209 23.6192L64.0708 24.0255C57.6519 13.8689 44.1641 10.7814 34.0076 17.2003C23.8511 23.6192 20.7635 37.107 27.1824 47.2635C32.0575 54.9825 41.239 58.8826 50.1767 56.9325L50.3392 57.745C48.7142 58.1513 47.1704 58.3138 45.6266 58.3138Z" stroke="url(#paint2_linear)"/>
<path d="M45.6264 64.0016C36.2012 64.0016 27.0197 59.289 21.6571 50.8387C18.4882 45.8011 16.9445 40.0322 17.3507 34.1008L18.1632 34.1821C17.8382 39.951 19.3008 45.5574 22.3883 50.4325C30.5135 63.2703 47.4952 67.0892 60.3331 59.0452C73.1709 50.92 76.9897 33.9383 68.9458 21.1005C65.0457 14.8441 58.8705 10.5377 51.7203 8.91268C44.5701 7.28764 37.1762 8.58767 30.9198 12.4878L30.4323 11.7565C36.8512 7.6939 44.4076 6.39387 51.8016 8.10016C59.1955 9.80645 65.4519 14.1941 69.5145 20.613C77.8835 33.8571 73.9021 51.3263 60.6581 59.6952C56.0267 62.6203 50.7453 64.0016 45.6264 64.0016Z" stroke="url(#paint3_linear)"/>
<defs>
<linearGradient id="paint0_linear" x1="41.3708" y1="30.4739" x2="52.021" y2="42.8797" gradientUnits="userSpaceOnUse">
<stop stop-color="#E50913"/>
<stop offset="1" stop-color="#E50913" stop-opacity="0"/>
</linearGradient>
<linearGradient id="paint1_linear" x1="37.5986" y1="25.3244" x2="56.2635" y2="48.9474" gradientUnits="userSpaceOnUse">
<stop stop-color="#E50913"/>
<stop offset="1" stop-color="#E50913" stop-opacity="0"/>
</linearGradient>
<linearGradient id="paint2_linear" x1="31.6629" y1="19.043" x2="65.9121" y2="55.9153" gradientUnits="userSpaceOnUse">
<stop stop-color="#E50913"/>
<stop offset="1" stop-color="#E50913" stop-opacity="0"/>
</linearGradient>
<linearGradient id="paint3_linear" x1="29.0805" y1="14.8529" x2="71.5583" y2="64.3894" gradientUnits="userSpaceOnUse">
<stop stop-color="#E50913"/>
<stop offset="1" stop-color="#E50913" stop-opacity="0"/>
</linearGradient>
</defs>
</svg>
