<svg width="56" height="52" viewBox="0 0 56 52" fill="none" xmlns="http://www.w3.org/2000/svg">
<path d="M55.4534 40.2739C54.8573 38.0199 53.3863 36.098 51.368 34.9369L45.6279 31.6414C43.6119 30.483 41.2211 30.1711 38.9765 30.774C36.7321 31.3773 34.8172 32.8457 33.6504 34.8591C33.3937 35.3514 33.5696 35.9589 34.0494 36.2369C34.5296 36.515 35.1427 36.3642 35.4401 35.8955C36.3331 34.3582 37.7964 33.2372 39.5112 32.7768C41.2261 32.3169 43.0531 32.5552 44.5935 33.4393L50.3336 36.7607V36.7611C51.8666 37.6554 52.9845 39.1211 53.4435 40.838C53.9029 42.5554 53.666 44.3847 52.7846 45.9272C51.8916 47.4645 50.4283 48.586 48.7135 49.0459C46.9986 49.5062 45.1716 49.268 43.6313 48.3834L37.8911 45.062C37.1934 44.6595 36.5746 44.1326 36.0659 43.5075L41.8112 40.1445C42.1307 39.9594 42.3278 39.618 42.3283 39.2483V35.7867C42.3283 35.2144 41.8652 34.7504 41.294 34.7504C40.7229 34.7504 40.2597 35.2144 40.2597 35.7867V38.6523L28.8827 45.2381V32.0867L40.2597 25.76V27.4958C40.2597 28.0681 40.7229 28.5321 41.294 28.5321C41.8652 28.5321 42.3283 28.0681 42.3283 27.4958V23.6975C42.3278 23.3278 42.1307 22.9864 41.8112 22.8013L35.9259 19.3916C36.3891 18.3127 36.6315 17.1515 36.6398 15.9768V9.36C36.6398 6.22233 34.9692 3.32284 32.257 1.75353C29.5449 0.184696 26.2037 0.184696 23.4915 1.75353C20.7794 3.32284 19.1088 6.22221 19.1088 9.36V15.9768C19.1088 18.3132 20.035 20.5538 21.6839 22.2059C23.3322 23.8576 25.5684 24.7856 27.9002 24.7856C28.4713 24.7856 28.9345 24.3221 28.9345 23.7493C28.9345 23.177 28.4713 22.713 27.9002 22.713C26.117 22.713 24.4071 22.0033 23.1466 20.7403C21.8856 19.4768 21.1774 17.7636 21.1774 15.9768V9.36C21.3754 7.10232 22.6937 5.09574 24.6847 4.02056C26.6757 2.94537 29.073 2.94536 31.064 4.02056C33.055 5.09575 34.3732 7.10232 34.5713 9.36V15.9768C34.5681 16.786 34.4213 17.5878 34.1368 18.3451L28.3657 15.0237C28.0457 14.8382 27.6514 14.8382 27.3314 15.0237L24.2803 16.7906C24.0305 16.9215 23.8449 17.1487 23.7664 17.4202C23.6879 17.6914 23.723 17.9828 23.8643 18.2276C24.0051 18.4718 24.2397 18.6481 24.5135 18.7152C24.7873 18.7828 25.0768 18.7346 25.3146 18.5833L27.8487 17.1325L39.4635 23.8687L27.8487 30.2838L16.4716 23.7031L18.059 22.7806C18.5268 22.4826 18.6773 21.8682 18.3998 21.3875C18.1223 20.9063 17.516 20.7301 17.0247 20.9878L13.8859 22.8323C13.5663 23.0174 13.3692 23.3588 13.3687 23.7289V30.5114C12.2051 30.6646 11.0831 31.0486 10.0692 31.6412L4.32899 34.9626C1.82036 36.6328 0.339627 39.4734 0.40523 42.4908C0.470334 45.5077 2.07249 48.2813 4.65133 49.8409C7.22958 51.4005 10.4258 51.5291 13.1204 50.1814L18.8606 46.8601V46.8596C20.8746 45.6947 22.3439 43.7756 22.9451 41.5248C23.5462 39.2745 23.2304 36.8766 22.0669 34.859C21.9362 34.6087 21.7095 34.4227 21.4389 34.344C21.1679 34.2654 20.877 34.301 20.6332 34.4421C20.3889 34.5837 20.213 34.8187 20.1461 35.0931C20.0791 35.3674 20.1267 35.657 20.2777 35.8953C21.1586 37.4382 21.3955 39.2676 20.9365 40.9845C20.4771 42.7013 19.3592 44.167 17.8264 45.0618L12.0862 48.3832C10.5463 49.259 8.72294 49.4908 7.0136 49.0277C5.30379 48.5641 3.84563 47.444 2.95592 45.9099C2.0657 44.3753 1.8159 42.5516 2.26055 40.8337C2.7089 39.1145 3.82675 37.647 5.36339 36.761L11.1036 33.4396V33.4392C11.8026 33.0274 12.57 32.7447 13.3688 32.605V39.2533C13.3693 39.623 13.5665 39.9649 13.886 40.1495L16.9578 41.9529C17.1144 42.0459 17.2926 42.0963 17.475 42.0982C17.8439 42.0977 18.1851 41.9002 18.3694 41.58C18.6598 41.0929 18.5056 40.4623 18.0231 40.1653L15.4374 38.6625V25.4957L26.8144 32.0764V45.2373L25.082 44.237C24.8443 44.0858 24.5547 44.0381 24.2809 44.1052C24.0071 44.1723 23.7726 44.3485 23.6317 44.5933C23.4905 44.8376 23.4554 45.129 23.5339 45.4006C23.6124 45.6717 23.798 45.8989 24.0478 46.0298L27.3316 47.9267C27.6516 48.1118 28.0459 48.1118 28.3659 47.9267L34.2511 44.5226V44.5221C34.9525 45.4557 35.8311 46.2413 36.8368 46.8331L42.577 50.1544V50.1549C44.592 51.3046 46.9796 51.6099 49.2186 51.0043C51.4575 50.3987 53.3673 48.9307 54.5308 46.9209C55.6948 44.9111 56.0189 42.5215 55.433 40.2731L55.4534 40.2739Z" fill="black"/>
</svg>
