<svg width="41" height="37" viewBox="0 0 41 37" fill="none" xmlns="http://www.w3.org/2000/svg">
<path d="M40.1326 28.7104C39.7024 27.0837 38.6407 25.6967 37.1842 24.8587L33.0415 22.4804C31.5866 21.6443 29.8612 21.4193 28.2413 21.8543C26.6215 22.2897 25.2396 23.3495 24.3975 24.8026C24.2122 25.1578 24.3392 25.5962 24.6854 25.7969C25.032 25.9976 25.4745 25.8887 25.6891 25.5505C26.3336 24.441 27.3896 23.632 28.6272 23.2997C29.8648 22.9679 31.1834 23.1398 32.295 23.7779L36.4377 26.1749V26.1752C37.544 26.8206 38.3508 27.8784 38.682 29.1175C39.0136 30.3569 38.8426 31.6771 38.2065 32.7903C37.562 33.8998 36.506 34.7092 35.2685 35.0411C34.0308 35.3733 32.7122 35.2013 31.6006 34.5629L27.458 32.1659C26.9544 31.8754 26.5079 31.4951 26.1407 31.0441L30.2871 28.617C30.5177 28.4834 30.6599 28.237 30.6603 27.9702V25.472C30.6603 25.059 30.326 24.7241 29.9138 24.7241C29.5016 24.7241 29.1674 25.059 29.1674 25.472V27.5401L20.9566 32.293V22.8017L29.1674 18.2357V19.4885C29.1674 19.9015 29.5016 20.2364 29.9138 20.2364C30.326 20.2364 30.6603 19.9015 30.6603 19.4885V16.7473C30.6599 16.4805 30.5177 16.2341 30.2871 16.1005L26.0397 13.6397C26.374 12.8611 26.5489 12.023 26.5549 11.1753V6.39998C26.5549 4.13555 25.3493 2.043 23.3919 0.910443C21.4345 -0.221775 19.0233 -0.221775 17.0659 0.910443C15.1085 2.043 13.9029 4.13546 13.9029 6.39998V11.1753C13.9029 12.8615 14.5714 14.4785 15.7613 15.6708C16.9509 16.8628 18.5647 17.5326 20.2476 17.5326C20.6598 17.5326 20.994 17.198 20.994 16.7847C20.994 16.3716 20.6598 16.0367 20.2476 16.0367C18.9606 16.0367 17.7267 15.5246 16.817 14.6131C15.9069 13.7012 15.3958 12.4648 15.3958 11.1753V6.39998C15.5387 4.77064 16.4901 3.3225 17.927 2.54654C19.3639 1.77059 21.094 1.77058 22.5309 2.54654C23.9678 3.32251 24.9191 4.77064 25.0621 6.39998V11.1753C25.0598 11.7593 24.9538 12.3379 24.7486 12.8845L20.5835 10.4875C20.3526 10.3536 20.068 10.3536 19.8371 10.4875L17.6352 11.7626C17.4549 11.8571 17.3209 12.021 17.2643 12.217C17.2076 12.4127 17.233 12.623 17.3349 12.7997C17.4366 12.976 17.6058 13.1032 17.8034 13.1516C18.0011 13.2003 18.21 13.1656 18.3816 13.0564L20.2104 12.0093L28.5928 16.8708L20.2104 21.5005L11.9996 16.7513L13.1453 16.0855C13.4829 15.8705 13.5915 15.4271 13.3912 15.0801C13.191 14.7329 12.7534 14.6057 12.3989 14.7917L10.1335 16.1229C9.90294 16.2564 9.76065 16.5028 9.76031 16.77V21.6648C8.92057 21.7754 8.11083 22.0525 7.37906 22.4802L3.2364 24.8772C1.42594 26.0826 0.357302 28.1327 0.404647 30.3103C0.451632 32.4876 1.6079 34.4893 3.46903 35.6148C5.32974 36.7404 7.63644 36.8332 9.58109 35.8606L13.7237 33.4636V33.4632C15.1773 32.6225 16.2377 31.2375 16.6715 29.6131C17.1054 27.9891 16.8775 26.2585 16.0377 24.8024C15.9434 24.6218 15.7798 24.4876 15.5845 24.4308C15.3889 24.374 15.179 24.3998 15.003 24.5016C14.8268 24.6038 14.6998 24.7734 14.6515 24.9714C14.6032 25.1694 14.6375 25.3784 14.7465 25.5503C15.3823 26.6638 15.5532 27.9841 15.222 29.2232C14.8904 30.4622 14.0836 31.52 12.9774 32.1658L8.83472 34.5628C7.72343 35.1948 6.40749 35.3621 5.17387 35.0279C3.93991 34.6933 2.88757 33.885 2.24546 32.7778C1.603 31.6703 1.42272 30.3541 1.74362 29.1144C2.06719 27.8736 2.87393 26.8146 3.98292 26.1751L8.12558 23.7781V23.7778C8.6301 23.4806 9.1839 23.2766 9.7604 23.1758V27.9738C9.76073 28.2406 9.90303 28.4873 10.1336 28.6206L12.3506 29.9221C12.4635 29.9892 12.5922 30.0256 12.7238 30.0269C12.99 30.0266 13.2363 29.884 13.3693 29.653C13.5788 29.3014 13.4675 28.8463 13.1193 28.632L11.2532 27.5475V18.0451L19.464 22.7943V32.2924L18.2138 31.5705C18.0421 31.4614 17.8332 31.427 17.6356 31.4754C17.438 31.5238 17.2687 31.651 17.1671 31.8276C17.0651 32.0039 17.0398 32.2143 17.0964 32.4103C17.1531 32.6059 17.2871 32.7699 17.4673 32.8644L19.8372 34.2334C20.0682 34.3669 20.3527 34.3669 20.5837 34.2334L24.831 31.7766V31.7763C25.3372 32.4501 25.9713 33.017 26.6971 33.4441L30.8397 35.8411V35.8414C32.294 36.6711 34.0171 36.8915 35.633 36.4544C37.2487 36.0174 38.6271 34.9579 39.4667 33.5075C40.3068 32.057 40.5407 30.3325 40.1179 28.7098L40.1326 28.7104Z" fill="white"/>
</svg>
