<svg width="57" height="57" viewBox="0 0 57 57" fill="none" xmlns="http://www.w3.org/2000/svg">
<path d="M41.8836 27.2175C38.4163 27.2165 35.0639 28.4627 32.4366 30.7292L14.6382 12.8954C15.4198 11.8377 15.9198 10.5985 16.0916 9.2937H36.3827C36.7631 11.9342 38.4575 14.2001 40.8801 15.3074C43.3028 16.4151 46.1207 16.212 48.3607 14.7693C50.6006 13.3265 51.9542 10.8415 51.9542 8.17347C51.9542 5.50545 50.6006 3.0205 48.3607 1.57767C46.1207 0.134836 43.3028 -0.0680812 40.8801 1.03957C38.4575 2.14677 36.763 4.41275 36.3827 7.05325H16.0686C15.7716 5.12994 14.7714 3.38651 13.2626 2.16081C11.7538 0.935576 9.84424 0.315978 7.9052 0.423006C5.96565 0.530027 4.13547 1.35569 2.76999 2.73948C1.40438 4.12329 0.601348 5.96658 0.516509 7.9105C0.431662 9.85493 1.07152 11.7612 2.3113 13.259C3.55156 14.7567 5.3029 15.7389 7.22546 16.0149V36.2684C4.5902 36.6494 2.3288 38.3472 1.22371 40.7747C0.118209 43.2021 0.320841 46.0257 1.76075 48.2701C3.20065 50.5145 5.68073 51.8708 8.34346 51.8708C11.0062 51.8708 13.4862 50.5145 14.9262 48.2701C16.3661 46.0257 16.5687 43.2021 15.4632 40.7747C14.3582 38.3472 12.0967 36.6494 9.46146 36.2684V16.0149C10.7726 15.8244 12.0134 15.3023 13.067 14.4972L30.8539 32.3143C27.9596 35.7049 26.7762 40.2384 27.6432 44.6151C28.5101 48.992 31.3315 52.7287 35.2989 54.7545C39.2668 56.7809 43.9423 56.8729 47.9861 55.0041C52.0297 53.1352 54.9954 49.5121 56.0327 45.1727C57.0703 40.8333 56.0651 36.2575 53.3055 32.7554C50.546 29.2533 46.336 27.2123 41.8831 27.2173L41.8836 27.2175ZM44.1196 2.57281C45.602 2.57281 47.0238 3.16293 48.0725 4.21306C49.1207 5.26375 49.7095 6.68853 49.7095 8.17387C49.7095 9.6592 49.1206 11.0839 48.0725 12.1347C47.0239 13.1849 45.602 13.7749 44.1196 13.7749C42.6372 13.7749 41.2154 13.1848 40.1666 12.1347C39.1185 11.084 38.5297 9.6592 38.5297 8.17387C38.5297 6.68853 39.1186 5.26388 40.1666 4.21306C41.2153 3.16286 42.6372 2.57281 44.1196 2.57281ZM2.75402 8.25785C2.75402 6.77252 3.34296 5.34786 4.39101 4.29704C5.43962 3.24685 6.86157 2.6568 8.34396 2.6568C9.82635 2.6568 11.2482 3.24691 12.2969 4.29704C13.345 5.34774 13.9339 6.77252 13.9339 8.25785C13.9339 9.74319 13.345 11.1678 12.2969 12.2187C11.2483 13.2689 9.82635 13.8589 8.34396 13.8589C6.86157 13.8589 5.43975 13.2688 4.39101 12.2187C3.3429 11.168 2.75402 9.74319 2.75402 8.25785ZM13.9339 44.0201C13.9339 45.5055 13.345 46.9301 12.2969 47.9809C11.2483 49.0311 9.82635 49.6212 8.34396 49.6212C6.86157 49.6212 5.43975 49.0311 4.39101 47.9809C3.3429 46.9302 2.75402 45.5055 2.75402 44.0201C2.75402 42.5348 3.34296 41.1101 4.39101 40.0593C5.43962 39.0091 6.86157 38.4191 8.34396 38.4191C9.82635 38.4191 11.2482 39.0092 12.2969 40.0593C13.345 41.11 13.9339 42.5348 13.9339 44.0201ZM41.8836 54.102C38.622 54.102 35.4941 52.8037 33.1877 50.4929C30.8813 48.1819 29.5857 45.0479 29.5857 41.7797C29.5857 38.5115 30.8815 35.3775 33.1877 33.0665C35.4941 30.7555 38.6219 29.4574 41.8836 29.4574C45.1453 29.4574 48.2732 30.7557 50.5795 33.0665C52.8859 35.3775 54.1815 38.5115 54.1815 41.7797C54.1815 45.0479 52.8858 48.1819 50.5795 50.4929C48.2732 52.8038 45.1453 54.102 41.8836 54.102Z" fill="black"/>
</svg>
