<svg width="408" height="409" viewBox="0 0 408 409" fill="none" xmlns="http://www.w3.org/2000/svg">
<g filter="url(#filter0_d)">
<rect x="4.50781" y="0.632812" width="399.493" height="399.489" rx="8" fill="white"/>
</g>
<path d="M37.5934 339.866C36.7507 339.866 35.9347 339.738 35.1454 339.482C34.3667 339.216 33.7534 338.874 33.3054 338.458L33.8974 337.21C34.3241 337.594 34.8681 337.909 35.5294 338.154C36.2014 338.389 36.8894 338.506 37.5934 338.506C38.5214 338.506 39.2147 338.352 39.6734 338.042C40.1321 337.722 40.3614 337.301 40.3614 336.778C40.3614 336.394 40.2334 336.085 39.9774 335.85C39.7321 335.605 39.4227 335.418 39.0494 335.29C38.6867 335.162 38.1694 335.018 37.4974 334.858C36.6547 334.656 35.9721 334.453 35.4494 334.25C34.9374 334.048 34.4947 333.738 34.1214 333.322C33.7587 332.896 33.5774 332.325 33.5774 331.61C33.5774 331.013 33.7321 330.474 34.0414 329.994C34.3614 329.514 34.8414 329.13 35.4814 328.842C36.1214 328.554 36.9161 328.41 37.8654 328.41C38.5267 328.41 39.1774 328.496 39.8174 328.666C40.4574 328.837 41.0067 329.082 41.4654 329.402L40.9374 330.682C40.4681 330.384 39.9667 330.16 39.4334 330.01C38.9001 329.85 38.3774 329.77 37.8654 329.77C36.9587 329.77 36.2761 329.936 35.8174 330.266C35.3694 330.597 35.1454 331.024 35.1454 331.546C35.1454 331.93 35.2734 332.245 35.5294 332.49C35.7854 332.725 36.1001 332.912 36.4734 333.05C36.8574 333.178 37.3747 333.317 38.0254 333.466C38.8681 333.669 39.5454 333.872 40.0574 334.074C40.5694 334.277 41.0067 334.586 41.3694 335.002C41.7427 335.418 41.9294 335.978 41.9294 336.682C41.9294 337.269 41.7694 337.808 41.4494 338.298C41.1294 338.778 40.6441 339.162 39.9934 339.45C39.3427 339.728 38.5427 339.866 37.5934 339.866ZM48.8109 339.242C48.5869 339.434 48.3096 339.584 47.9789 339.69C47.6482 339.786 47.3069 339.834 46.9549 339.834C46.1016 339.834 45.4402 339.605 44.9709 339.146C44.5016 338.688 44.2669 338.032 44.2669 337.178V332.522H42.8269V331.258H44.2669V329.402H45.8029V331.258H48.2349V332.522H45.8029V337.114C45.8029 337.573 45.9149 337.925 46.1389 338.17C46.3736 338.416 46.7042 338.538 47.1309 338.538C47.6002 338.538 48.0002 338.405 48.3309 338.138L48.8109 339.242ZM53.7559 331.178C54.9292 331.178 55.8252 331.466 56.4439 332.042C57.0732 332.618 57.3879 333.477 57.3879 334.618V339.738H55.9319V338.618C55.6759 339.013 55.3079 339.317 54.8279 339.53C54.3586 339.733 53.7986 339.834 53.1479 339.834C52.1986 339.834 51.4359 339.605 50.8599 339.146C50.2946 338.688 50.0119 338.085 50.0119 337.338C50.0119 336.592 50.2839 335.994 50.8279 335.546C51.3719 335.088 52.2359 334.858 53.4199 334.858H55.8519V334.554C55.8519 333.893 55.6599 333.386 55.2759 333.034C54.8919 332.682 54.3266 332.506 53.5799 332.506C53.0786 332.506 52.5879 332.592 52.1079 332.762C51.6279 332.922 51.2226 333.141 50.8919 333.418L50.2519 332.266C50.6892 331.914 51.2119 331.648 51.8199 331.466C52.4279 331.274 53.0732 331.178 53.7559 331.178ZM53.4039 338.65C53.9906 338.65 54.4972 338.522 54.9239 338.266C55.3506 338 55.6599 337.626 55.8519 337.146V335.962H53.4839C52.1826 335.962 51.5319 336.4 51.5319 337.274C51.5319 337.701 51.6972 338.037 52.0279 338.282C52.3586 338.528 52.8172 338.65 53.4039 338.65ZM63.5264 335.786L61.7664 337.418V339.738H60.2304V327.866H61.7664V335.482L66.3904 331.258H68.2464L64.6784 334.762L68.5984 339.738H66.7104L63.5264 335.786ZM77.3944 335.546C77.3944 335.664 77.3837 335.818 77.3624 336.01H70.4824C70.5784 336.757 70.9037 337.36 71.4584 337.818C72.0237 338.266 72.7224 338.49 73.5544 338.49C74.5677 338.49 75.3837 338.149 76.0024 337.466L76.8504 338.458C76.4664 338.906 75.9864 339.248 75.4104 339.482C74.8451 339.717 74.2104 339.834 73.5064 339.834C72.6104 339.834 71.8157 339.653 71.1224 339.29C70.4291 338.917 69.8904 338.4 69.5064 337.738C69.1331 337.077 68.9464 336.33 68.9464 335.498C68.9464 334.677 69.1277 333.936 69.4904 333.274C69.8637 332.613 70.3704 332.101 71.0104 331.738C71.6611 331.365 72.3917 331.178 73.2024 331.178C74.0131 331.178 74.7331 331.365 75.3624 331.738C76.0024 332.101 76.4984 332.613 76.8504 333.274C77.2131 333.936 77.3944 334.693 77.3944 335.546ZM73.2024 332.474C72.4664 332.474 71.8477 332.698 71.3464 333.146C70.8557 333.594 70.5677 334.181 70.4824 334.906H75.9224C75.8371 334.192 75.5437 333.61 75.0424 333.162C74.5517 332.704 73.9384 332.474 73.2024 332.474ZM88.3362 335.866V339.738H86.7522V335.834L82.3042 328.538H84.0162L87.6002 334.442L91.2002 328.538H92.7842L88.3362 335.866ZM96.8624 339.834C96.0197 339.834 95.2624 339.648 94.5904 339.274C93.9184 338.901 93.3904 338.389 93.0064 337.738C92.6331 337.077 92.4464 336.33 92.4464 335.498C92.4464 334.666 92.6331 333.925 93.0064 333.274C93.3904 332.613 93.9184 332.101 94.5904 331.738C95.2624 331.365 96.0197 331.178 96.8624 331.178C97.7051 331.178 98.4571 331.365 99.1184 331.738C99.7904 332.101 100.313 332.613 100.686 333.274C101.07 333.925 101.262 334.666 101.262 335.498C101.262 336.33 101.07 337.077 100.686 337.738C100.313 338.389 99.7904 338.901 99.1184 339.274C98.4571 339.648 97.7051 339.834 96.8624 339.834ZM96.8624 338.49C97.4064 338.49 97.8917 338.368 98.3184 338.122C98.7557 337.866 99.0971 337.514 99.3424 337.066C99.5877 336.608 99.7104 336.085 99.7104 335.498C99.7104 334.912 99.5877 334.394 99.3424 333.946C99.0971 333.488 98.7557 333.136 98.3184 332.89C97.8917 332.645 97.4064 332.522 96.8624 332.522C96.3184 332.522 95.8277 332.645 95.3904 332.89C94.9637 333.136 94.6224 333.488 94.3664 333.946C94.1211 334.394 93.9984 334.912 93.9984 335.498C93.9984 336.085 94.1211 336.608 94.3664 337.066C94.6224 337.514 94.9637 337.866 95.3904 338.122C95.8277 338.368 96.3184 338.49 96.8624 338.49ZM111.291 331.258V339.738H109.835V338.458C109.525 338.896 109.115 339.237 108.603 339.482C108.101 339.717 107.552 339.834 106.955 339.834C105.824 339.834 104.933 339.525 104.283 338.906C103.632 338.277 103.307 337.354 103.307 336.138V331.258H104.843V335.962C104.843 336.784 105.04 337.408 105.435 337.834C105.829 338.25 106.395 338.458 107.131 338.458C107.941 338.458 108.581 338.213 109.051 337.722C109.52 337.232 109.755 336.538 109.755 335.642V331.258H111.291ZM115.687 332.682C115.953 332.192 116.348 331.818 116.871 331.562C117.393 331.306 118.028 331.178 118.775 331.178V332.666C118.689 332.656 118.572 332.65 118.423 332.65C117.591 332.65 116.935 332.901 116.455 333.402C115.985 333.893 115.751 334.597 115.751 335.514V339.738H114.215V331.258H115.687V332.682ZM132.434 336.938H126.482L125.25 339.738H123.602L128.674 328.538H130.258L135.346 339.738H133.666L132.434 336.938ZM131.874 335.658L129.458 330.17L127.042 335.658H131.874ZM139.147 339.834C138.453 339.834 137.787 339.744 137.147 339.562C136.507 339.37 136.005 339.13 135.643 338.842L136.283 337.626C136.656 337.893 137.109 338.106 137.643 338.266C138.176 338.426 138.715 338.506 139.259 338.506C140.603 338.506 141.275 338.122 141.275 337.354C141.275 337.098 141.184 336.896 141.003 336.746C140.821 336.597 140.592 336.49 140.315 336.426C140.048 336.352 139.664 336.272 139.163 336.186C138.48 336.08 137.92 335.957 137.483 335.818C137.056 335.68 136.688 335.445 136.379 335.114C136.069 334.784 135.915 334.32 135.915 333.722C135.915 332.954 136.235 332.341 136.875 331.882C137.515 331.413 138.373 331.178 139.451 331.178C140.016 331.178 140.581 331.248 141.147 331.386C141.712 331.525 142.176 331.712 142.539 331.946L141.883 333.162C141.189 332.714 140.373 332.49 139.435 332.49C138.784 332.49 138.288 332.597 137.947 332.81C137.605 333.024 137.435 333.306 137.435 333.658C137.435 333.936 137.531 334.154 137.723 334.314C137.915 334.474 138.149 334.592 138.427 334.666C138.715 334.741 139.115 334.826 139.627 334.922C140.309 335.04 140.859 335.168 141.275 335.306C141.701 335.434 142.064 335.658 142.363 335.978C142.661 336.298 142.811 336.746 142.811 337.322C142.811 338.09 142.48 338.704 141.819 339.162C141.168 339.61 140.277 339.834 139.147 339.834ZM147.162 339.834C146.469 339.834 145.802 339.744 145.162 339.562C144.522 339.37 144.021 339.13 143.658 338.842L144.298 337.626C144.672 337.893 145.125 338.106 145.658 338.266C146.192 338.426 146.73 338.506 147.274 338.506C148.618 338.506 149.29 338.122 149.29 337.354C149.29 337.098 149.2 336.896 149.018 336.746C148.837 336.597 148.608 336.49 148.33 336.426C148.064 336.352 147.68 336.272 147.178 336.186C146.496 336.08 145.936 335.957 145.498 335.818C145.072 335.68 144.704 335.445 144.394 335.114C144.085 334.784 143.93 334.32 143.93 333.722C143.93 332.954 144.25 332.341 144.89 331.882C145.53 331.413 146.389 331.178 147.466 331.178C148.032 331.178 148.597 331.248 149.162 331.386C149.728 331.525 150.192 331.712 150.554 331.946L149.898 333.162C149.205 332.714 148.389 332.49 147.45 332.49C146.8 332.49 146.304 332.597 145.962 332.81C145.621 333.024 145.45 333.306 145.45 333.658C145.45 333.936 145.546 334.154 145.738 334.314C145.93 334.474 146.165 334.592 146.442 334.666C146.73 334.741 147.13 334.826 147.642 334.922C148.325 335.04 148.874 335.168 149.29 335.306C149.717 335.434 150.08 335.658 150.378 335.978C150.677 336.298 150.826 336.746 150.826 337.322C150.826 338.09 150.496 338.704 149.834 339.162C149.184 339.61 148.293 339.834 147.162 339.834ZM160.41 335.546C160.41 335.664 160.399 335.818 160.378 336.01H153.498C153.594 336.757 153.919 337.36 154.474 337.818C155.039 338.266 155.738 338.49 156.57 338.49C157.583 338.49 158.399 338.149 159.018 337.466L159.866 338.458C159.482 338.906 159.002 339.248 158.426 339.482C157.861 339.717 157.226 339.834 156.522 339.834C155.626 339.834 154.831 339.653 154.138 339.29C153.445 338.917 152.906 338.4 152.522 337.738C152.149 337.077 151.962 336.33 151.962 335.498C151.962 334.677 152.143 333.936 152.506 333.274C152.879 332.613 153.386 332.101 154.026 331.738C154.677 331.365 155.407 331.178 156.218 331.178C157.029 331.178 157.749 331.365 158.378 331.738C159.018 332.101 159.514 332.613 159.866 333.274C160.229 333.936 160.41 334.693 160.41 335.546ZM156.218 332.474C155.482 332.474 154.863 332.698 154.362 333.146C153.871 333.594 153.583 334.181 153.498 334.906H158.938C158.853 334.192 158.559 333.61 158.058 333.162C157.567 332.704 156.954 332.474 156.218 332.474ZM167.311 339.242C167.087 339.434 166.81 339.584 166.479 339.69C166.148 339.786 165.807 339.834 165.455 339.834C164.602 339.834 163.94 339.605 163.471 339.146C163.002 338.688 162.767 338.032 162.767 337.178V332.522H161.327V331.258H162.767V329.402H164.303V331.258H166.735V332.522H164.303V337.114C164.303 337.573 164.415 337.925 164.639 338.17C164.874 338.416 165.204 338.538 165.631 338.538C166.1 338.538 166.5 338.405 166.831 338.138L167.311 339.242ZM171.6 339.834C170.907 339.834 170.24 339.744 169.6 339.562C168.96 339.37 168.459 339.13 168.096 338.842L168.736 337.626C169.109 337.893 169.563 338.106 170.096 338.266C170.629 338.426 171.168 338.506 171.712 338.506C173.056 338.506 173.728 338.122 173.728 337.354C173.728 337.098 173.637 336.896 173.456 336.746C173.275 336.597 173.045 336.49 172.768 336.426C172.501 336.352 172.117 336.272 171.616 336.186C170.933 336.08 170.373 335.957 169.936 335.818C169.509 335.68 169.141 335.445 168.832 335.114C168.523 334.784 168.368 334.32 168.368 333.722C168.368 332.954 168.688 332.341 169.328 331.882C169.968 331.413 170.827 331.178 171.904 331.178C172.469 331.178 173.035 331.248 173.6 331.386C174.165 331.525 174.629 331.712 174.992 331.946L174.336 333.162C173.643 332.714 172.827 332.49 171.888 332.49C171.237 332.49 170.741 332.597 170.4 332.81C170.059 333.024 169.888 333.306 169.888 333.658C169.888 333.936 169.984 334.154 170.176 334.314C170.368 334.474 170.603 334.592 170.88 334.666C171.168 334.741 171.568 334.826 172.08 334.922C172.763 335.04 173.312 335.168 173.728 335.306C174.155 335.434 174.517 335.658 174.816 335.978C175.115 336.298 175.264 336.746 175.264 337.322C175.264 338.09 174.933 338.704 174.272 339.162C173.621 339.61 172.731 339.834 171.6 339.834Z" fill="#80808E"/>
<path d="M34.3294 114.519H39.0494C40.2334 114.519 41.2841 114.753 42.2014 115.223C43.1187 115.692 43.8281 116.353 44.3294 117.207C44.8414 118.049 45.0974 119.02 45.0974 120.119C45.0974 121.217 44.8414 122.193 44.3294 123.047C43.8281 123.889 43.1187 124.545 42.2014 125.015C41.2841 125.484 40.2334 125.719 39.0494 125.719H34.3294V114.519ZM38.9534 124.327C39.8601 124.327 40.6547 124.151 41.3374 123.799C42.0307 123.447 42.5641 122.956 42.9374 122.327C43.3107 121.687 43.4974 120.951 43.4974 120.119C43.4974 119.287 43.3107 118.556 42.9374 117.927C42.5641 117.287 42.0307 116.791 41.3374 116.439C40.6547 116.087 39.8601 115.911 38.9534 115.911H35.9294V124.327H38.9534ZM54.9882 121.527C54.9882 121.644 54.9775 121.799 54.9562 121.991H48.0762C48.1722 122.737 48.4975 123.34 49.0522 123.799C49.6175 124.247 50.3162 124.471 51.1482 124.471C52.1615 124.471 52.9775 124.129 53.5962 123.447L54.4442 124.439C54.0602 124.887 53.5802 125.228 53.0042 125.463C52.4388 125.697 51.8042 125.815 51.1002 125.815C50.2042 125.815 49.4095 125.633 48.7162 125.271C48.0228 124.897 47.4842 124.38 47.1002 123.719C46.7268 123.057 46.5402 122.311 46.5402 121.479C46.5402 120.657 46.7215 119.916 47.0842 119.255C47.4575 118.593 47.9642 118.081 48.6042 117.719C49.2548 117.345 49.9855 117.159 50.7962 117.159C51.6068 117.159 52.3268 117.345 52.9562 117.719C53.5962 118.081 54.0922 118.593 54.4442 119.255C54.8068 119.916 54.9882 120.673 54.9882 121.527ZM50.7962 118.455C50.0602 118.455 49.4415 118.679 48.9402 119.127C48.4495 119.575 48.1615 120.161 48.0762 120.887H53.5162C53.4308 120.172 53.1375 119.591 52.6362 119.143C52.1455 118.684 51.5322 118.455 50.7962 118.455ZM60.817 125.815C59.953 125.815 59.1797 125.628 58.497 125.255C57.825 124.881 57.297 124.369 56.913 123.719C56.529 123.057 56.337 122.311 56.337 121.479C56.337 120.647 56.529 119.905 56.913 119.255C57.297 118.593 57.825 118.081 58.497 117.719C59.1797 117.345 59.953 117.159 60.817 117.159C61.585 117.159 62.2677 117.313 62.865 117.623C63.473 117.932 63.9424 118.38 64.273 118.967L63.105 119.719C62.8384 119.313 62.5077 119.009 62.113 118.807C61.7184 118.604 61.281 118.503 60.801 118.503C60.2464 118.503 59.745 118.625 59.297 118.871C58.8597 119.116 58.513 119.468 58.257 119.927C58.0117 120.375 57.889 120.892 57.889 121.479C57.889 122.076 58.0117 122.604 58.257 123.063C58.513 123.511 58.8597 123.857 59.297 124.103C59.745 124.348 60.2464 124.471 60.801 124.471C61.281 124.471 61.7184 124.369 62.113 124.167C62.5077 123.964 62.8384 123.66 63.105 123.255L64.273 123.991C63.9424 124.577 63.473 125.031 62.865 125.351C62.2677 125.66 61.585 125.815 60.817 125.815ZM73.8007 121.527C73.8007 121.644 73.79 121.799 73.7687 121.991H66.8887C66.9847 122.737 67.31 123.34 67.8647 123.799C68.43 124.247 69.1287 124.471 69.9607 124.471C70.974 124.471 71.79 124.129 72.4087 123.447L73.2567 124.439C72.8727 124.887 72.3927 125.228 71.8167 125.463C71.2513 125.697 70.6167 125.815 69.9127 125.815C69.0167 125.815 68.222 125.633 67.5287 125.271C66.8353 124.897 66.2967 124.38 65.9127 123.719C65.5393 123.057 65.3527 122.311 65.3527 121.479C65.3527 120.657 65.534 119.916 65.8967 119.255C66.27 118.593 66.7767 118.081 67.4167 117.719C68.0673 117.345 68.798 117.159 69.6087 117.159C70.4193 117.159 71.1393 117.345 71.7687 117.719C72.4087 118.081 72.9047 118.593 73.2567 119.255C73.6193 119.916 73.8007 120.673 73.8007 121.527ZM69.6087 118.455C68.8727 118.455 68.254 118.679 67.7527 119.127C67.262 119.575 66.974 120.161 66.8887 120.887H72.3287C72.2433 120.172 71.95 119.591 71.4487 119.143C70.958 118.684 70.3447 118.455 69.6087 118.455ZM80.4615 117.159C81.5389 117.159 82.3922 117.473 83.0215 118.103C83.6615 118.721 83.9815 119.633 83.9815 120.839V125.719H82.4455V121.015C82.4455 120.193 82.2482 119.575 81.8535 119.159C81.4589 118.743 80.8935 118.535 80.1575 118.535C79.3255 118.535 78.6695 118.78 78.1895 119.271C77.7095 119.751 77.4695 120.444 77.4695 121.351V125.719H75.9335V117.239H77.4055V118.519C77.7149 118.081 78.1309 117.745 78.6535 117.511C79.1869 117.276 79.7895 117.159 80.4615 117.159ZM91.5922 125.223C91.3682 125.415 91.0908 125.564 90.7602 125.671C90.4295 125.767 90.0882 125.815 89.7362 125.815C88.8828 125.815 88.2215 125.585 87.7522 125.127C87.2828 124.668 87.0482 124.012 87.0482 123.159V118.503H85.6082V117.239H87.0482V115.383H88.5842V117.239H91.0162V118.503H88.5842V123.095C88.5842 123.553 88.6962 123.905 88.9202 124.151C89.1548 124.396 89.4855 124.519 89.9122 124.519C90.3815 124.519 90.7815 124.385 91.1122 124.119L91.5922 125.223ZM94.9212 118.663C95.1878 118.172 95.5825 117.799 96.1052 117.543C96.6278 117.287 97.2625 117.159 98.0092 117.159V118.647C97.9238 118.636 97.8065 118.631 97.6572 118.631C96.8252 118.631 96.1692 118.881 95.6892 119.383C95.2198 119.873 94.9852 120.577 94.9852 121.495V125.719H93.4492V117.239H94.9212V118.663ZM102.975 117.159C104.148 117.159 105.044 117.447 105.663 118.023C106.292 118.599 106.607 119.457 106.607 120.599V125.719H105.151V124.599C104.895 124.993 104.527 125.297 104.047 125.511C103.577 125.713 103.017 125.815 102.367 125.815C101.417 125.815 100.655 125.585 100.079 125.127C99.5133 124.668 99.2307 124.065 99.2307 123.319C99.2307 122.572 99.5027 121.975 100.047 121.527C100.591 121.068 101.455 120.839 102.639 120.839H105.071V120.535C105.071 119.873 104.879 119.367 104.495 119.015C104.111 118.663 103.545 118.487 102.799 118.487C102.297 118.487 101.807 118.572 101.327 118.743C100.847 118.903 100.441 119.121 100.111 119.399L99.4707 118.247C99.908 117.895 100.431 117.628 101.039 117.447C101.647 117.255 102.292 117.159 102.975 117.159ZM102.623 124.631C103.209 124.631 103.716 124.503 104.143 124.247C104.569 123.98 104.879 123.607 105.071 123.127V121.943H102.703C101.401 121.943 100.751 122.38 100.751 123.255C100.751 123.681 100.916 124.017 101.247 124.263C101.577 124.508 102.036 124.631 102.623 124.631ZM109.449 113.847H110.985V125.719H109.449V113.847ZM113.918 117.239H115.454V125.719H113.918V117.239ZM114.686 115.607C114.387 115.607 114.137 115.511 113.934 115.319C113.742 115.127 113.646 114.892 113.646 114.615C113.646 114.337 113.742 114.103 113.934 113.911C114.137 113.708 114.387 113.607 114.686 113.607C114.985 113.607 115.23 113.703 115.422 113.895C115.625 114.076 115.726 114.305 115.726 114.583C115.726 114.871 115.625 115.116 115.422 115.319C115.23 115.511 114.985 115.607 114.686 115.607ZM124.675 124.455V125.719H117.571V124.727L122.579 118.503H117.667V117.239H124.547V118.247L119.539 124.455H124.675ZM134.269 121.527C134.269 121.644 134.259 121.799 134.237 121.991H127.357C127.453 122.737 127.779 123.34 128.333 123.799C128.899 124.247 129.597 124.471 130.429 124.471C131.443 124.471 132.259 124.129 132.877 123.447L133.725 124.439C133.341 124.887 132.861 125.228 132.285 125.463C131.72 125.697 131.085 125.815 130.381 125.815C129.485 125.815 128.691 125.633 127.997 125.271C127.304 124.897 126.765 124.38 126.381 123.719C126.008 123.057 125.821 122.311 125.821 121.479C125.821 120.657 126.003 119.916 126.365 119.255C126.739 118.593 127.245 118.081 127.885 117.719C128.536 117.345 129.267 117.159 130.077 117.159C130.888 117.159 131.608 117.345 132.237 117.719C132.877 118.081 133.373 118.593 133.725 119.255C134.088 119.916 134.269 120.673 134.269 121.527ZM130.077 118.455C129.341 118.455 128.723 118.679 128.221 119.127C127.731 119.575 127.443 120.161 127.357 120.887H132.797C132.712 120.172 132.419 119.591 131.917 119.143C131.427 118.684 130.813 118.455 130.077 118.455ZM145.931 125.847C144.811 125.847 143.798 125.601 142.891 125.111C141.995 124.609 141.291 123.927 140.779 123.063C140.267 122.188 140.011 121.207 140.011 120.119C140.011 119.031 140.267 118.055 140.779 117.191C141.291 116.316 142 115.633 142.907 115.143C143.814 114.641 144.827 114.391 145.947 114.391C146.822 114.391 147.622 114.54 148.347 114.839C149.072 115.127 149.691 115.559 150.203 116.135L149.163 117.143C148.32 116.257 147.27 115.815 146.011 115.815C145.179 115.815 144.427 116.001 143.755 116.375C143.083 116.748 142.555 117.265 142.171 117.927C141.798 118.577 141.611 119.308 141.611 120.119C141.611 120.929 141.798 121.665 142.171 122.327C142.555 122.977 143.083 123.489 143.755 123.863C144.427 124.236 145.179 124.423 146.011 124.423C147.259 124.423 148.31 123.975 149.163 123.079L150.203 124.087C149.691 124.663 149.067 125.1 148.331 125.399C147.606 125.697 146.806 125.847 145.931 125.847ZM155.534 125.815C154.692 125.815 153.934 125.628 153.262 125.255C152.59 124.881 152.062 124.369 151.678 123.719C151.305 123.057 151.118 122.311 151.118 121.479C151.118 120.647 151.305 119.905 151.678 119.255C152.062 118.593 152.59 118.081 153.262 117.719C153.934 117.345 154.692 117.159 155.534 117.159C156.377 117.159 157.129 117.345 157.79 117.719C158.462 118.081 158.985 118.593 159.358 119.255C159.742 119.905 159.934 120.647 159.934 121.479C159.934 122.311 159.742 123.057 159.358 123.719C158.985 124.369 158.462 124.881 157.79 125.255C157.129 125.628 156.377 125.815 155.534 125.815ZM155.534 124.471C156.078 124.471 156.564 124.348 156.99 124.103C157.428 123.847 157.769 123.495 158.014 123.047C158.26 122.588 158.382 122.065 158.382 121.479C158.382 120.892 158.26 120.375 158.014 119.927C157.769 119.468 157.428 119.116 156.99 118.871C156.564 118.625 156.078 118.503 155.534 118.503C154.99 118.503 154.5 118.625 154.062 118.871C153.636 119.116 153.294 119.468 153.038 119.927C152.793 120.375 152.67 120.892 152.67 121.479C152.67 122.065 152.793 122.588 153.038 123.047C153.294 123.495 153.636 123.847 154.062 124.103C154.5 124.348 154.99 124.471 155.534 124.471ZM172.667 117.159C173.733 117.159 174.576 117.468 175.195 118.087C175.824 118.705 176.139 119.623 176.139 120.839V125.719H174.603V121.015C174.603 120.193 174.411 119.575 174.027 119.159C173.653 118.743 173.115 118.535 172.411 118.535C171.632 118.535 171.013 118.78 170.555 119.271C170.096 119.751 169.867 120.444 169.867 121.351V125.719H168.331V121.015C168.331 120.193 168.139 119.575 167.755 119.159C167.381 118.743 166.843 118.535 166.139 118.535C165.36 118.535 164.741 118.78 164.283 119.271C163.824 119.751 163.595 120.444 163.595 121.351V125.719H162.059V117.239H163.531V118.503C163.84 118.065 164.245 117.735 164.747 117.511C165.248 117.276 165.819 117.159 166.459 117.159C167.12 117.159 167.707 117.292 168.219 117.559C168.731 117.825 169.125 118.215 169.403 118.727C169.723 118.236 170.165 117.852 170.731 117.575C171.307 117.297 171.952 117.159 172.667 117.159ZM182.644 125.815C181.801 125.815 181.044 125.628 180.372 125.255C179.7 124.881 179.172 124.369 178.788 123.719C178.414 123.057 178.228 122.311 178.228 121.479C178.228 120.647 178.414 119.905 178.788 119.255C179.172 118.593 179.7 118.081 180.372 117.719C181.044 117.345 181.801 117.159 182.644 117.159C183.486 117.159 184.238 117.345 184.9 117.719C185.572 118.081 186.094 118.593 186.468 119.255C186.852 119.905 187.044 120.647 187.044 121.479C187.044 122.311 186.852 123.057 186.468 123.719C186.094 124.369 185.572 124.881 184.9 125.255C184.238 125.628 183.486 125.815 182.644 125.815ZM182.644 124.471C183.188 124.471 183.673 124.348 184.1 124.103C184.537 123.847 184.878 123.495 185.124 123.047C185.369 122.588 185.492 122.065 185.492 121.479C185.492 120.892 185.369 120.375 185.124 119.927C184.878 119.468 184.537 119.116 184.1 118.871C183.673 118.625 183.188 118.503 182.644 118.503C182.1 118.503 181.609 118.625 181.172 118.871C180.745 119.116 180.404 119.468 180.148 119.927C179.902 120.375 179.78 120.892 179.78 121.479C179.78 122.065 179.902 122.588 180.148 123.047C180.404 123.495 180.745 123.847 181.172 124.103C181.609 124.348 182.1 124.471 182.644 124.471ZM197.168 113.847V125.719H195.696V124.375C195.355 124.844 194.923 125.201 194.4 125.447C193.877 125.692 193.301 125.815 192.672 125.815C191.851 125.815 191.115 125.633 190.464 125.271C189.813 124.908 189.301 124.401 188.928 123.751C188.565 123.089 188.384 122.332 188.384 121.479C188.384 120.625 188.565 119.873 188.928 119.223C189.301 118.572 189.813 118.065 190.464 117.703C191.115 117.34 191.851 117.159 192.672 117.159C193.28 117.159 193.84 117.276 194.352 117.511C194.864 117.735 195.291 118.071 195.632 118.519V113.847H197.168ZM192.8 124.471C193.333 124.471 193.819 124.348 194.256 124.103C194.693 123.847 195.035 123.495 195.28 123.047C195.525 122.588 195.648 122.065 195.648 121.479C195.648 120.892 195.525 120.375 195.28 119.927C195.035 119.468 194.693 119.116 194.256 118.871C193.819 118.625 193.333 118.503 192.8 118.503C192.256 118.503 191.765 118.625 191.328 118.871C190.901 119.116 190.56 119.468 190.304 119.927C190.059 120.375 189.936 120.892 189.936 121.479C189.936 122.065 190.059 122.588 190.304 123.047C190.56 123.495 190.901 123.847 191.328 124.103C191.765 124.348 192.256 124.471 192.8 124.471ZM200.074 117.239H201.61V125.719H200.074V117.239ZM200.842 115.607C200.543 115.607 200.293 115.511 200.09 115.319C199.898 115.127 199.802 114.892 199.802 114.615C199.802 114.337 199.898 114.103 200.09 113.911C200.293 113.708 200.543 113.607 200.842 113.607C201.141 113.607 201.386 113.703 201.578 113.895C201.781 114.076 201.882 114.305 201.882 114.583C201.882 114.871 201.781 115.116 201.578 115.319C201.386 115.511 201.141 115.607 200.842 115.607ZM209.311 125.223C209.087 125.415 208.81 125.564 208.479 125.671C208.148 125.767 207.807 125.815 207.455 125.815C206.602 125.815 205.94 125.585 205.471 125.127C205.002 124.668 204.767 124.012 204.767 123.159V118.503H203.327V117.239H204.767V115.383H206.303V117.239H208.735V118.503H206.303V123.095C206.303 123.553 206.415 123.905 206.639 124.151C206.874 124.396 207.204 124.519 207.631 124.519C208.1 124.519 208.5 124.385 208.831 124.119L209.311 125.223ZM218.516 117.239L214.404 126.567C214.041 127.431 213.614 128.039 213.124 128.391C212.644 128.743 212.062 128.919 211.38 128.919C210.964 128.919 210.558 128.849 210.164 128.711C209.78 128.583 209.46 128.391 209.204 128.135L209.86 126.983C210.297 127.399 210.804 127.607 211.38 127.607C211.753 127.607 212.062 127.505 212.308 127.303C212.564 127.111 212.793 126.775 212.996 126.295L213.268 125.703L209.524 117.239H211.124L214.084 124.023L217.012 117.239H218.516ZM226.694 115.911H222.854V114.519H232.118V115.911H228.278V125.719H226.694V115.911ZM234.906 118.663C235.172 118.172 235.567 117.799 236.09 117.543C236.612 117.287 237.247 117.159 237.994 117.159V118.647C237.908 118.636 237.791 118.631 237.642 118.631C236.81 118.631 236.154 118.881 235.674 119.383C235.204 119.873 234.97 120.577 234.97 121.495V125.719H233.434V117.239H234.906V118.663ZM242.959 117.159C244.132 117.159 245.028 117.447 245.647 118.023C246.276 118.599 246.591 119.457 246.591 120.599V125.719H245.135V124.599C244.879 124.993 244.511 125.297 244.031 125.511C243.562 125.713 243.002 125.815 242.351 125.815C241.402 125.815 240.639 125.585 240.063 125.127C239.498 124.668 239.215 124.065 239.215 123.319C239.215 122.572 239.487 121.975 240.031 121.527C240.575 121.068 241.439 120.839 242.623 120.839H245.055V120.535C245.055 119.873 244.863 119.367 244.479 119.015C244.095 118.663 243.53 118.487 242.783 118.487C242.282 118.487 241.791 118.572 241.311 118.743C240.831 118.903 240.426 119.121 240.095 119.399L239.455 118.247C239.892 117.895 240.415 117.628 241.023 117.447C241.631 117.255 242.276 117.159 242.959 117.159ZM242.607 124.631C243.194 124.631 243.7 124.503 244.127 124.247C244.554 123.98 244.863 123.607 245.055 123.127V121.943H242.687C241.386 121.943 240.735 122.38 240.735 123.255C240.735 123.681 240.9 124.017 241.231 124.263C241.562 124.508 242.02 124.631 242.607 124.631ZM257.48 113.847V125.719H256.008V124.375C255.667 124.844 255.235 125.201 254.712 125.447C254.19 125.692 253.614 125.815 252.984 125.815C252.163 125.815 251.427 125.633 250.776 125.271C250.126 124.908 249.614 124.401 249.24 123.751C248.878 123.089 248.696 122.332 248.696 121.479C248.696 120.625 248.878 119.873 249.24 119.223C249.614 118.572 250.126 118.065 250.776 117.703C251.427 117.34 252.163 117.159 252.984 117.159C253.592 117.159 254.152 117.276 254.664 117.511C255.176 117.735 255.603 118.071 255.944 118.519V113.847H257.48ZM253.112 124.471C253.646 124.471 254.131 124.348 254.568 124.103C255.006 123.847 255.347 123.495 255.592 123.047C255.838 122.588 255.96 122.065 255.96 121.479C255.96 120.892 255.838 120.375 255.592 119.927C255.347 119.468 255.006 119.116 254.568 118.871C254.131 118.625 253.646 118.503 253.112 118.503C252.568 118.503 252.078 118.625 251.64 118.871C251.214 119.116 250.872 119.468 250.616 119.927C250.371 120.375 250.248 120.892 250.248 121.479C250.248 122.065 250.371 122.588 250.616 123.047C250.872 123.495 251.214 123.847 251.64 124.103C252.078 124.348 252.568 124.471 253.112 124.471ZM268.051 121.527C268.051 121.644 268.04 121.799 268.019 121.991H261.139C261.235 122.737 261.56 123.34 262.115 123.799C262.68 124.247 263.379 124.471 264.211 124.471C265.224 124.471 266.04 124.129 266.659 123.447L267.507 124.439C267.123 124.887 266.643 125.228 266.067 125.463C265.501 125.697 264.867 125.815 264.163 125.815C263.267 125.815 262.472 125.633 261.779 125.271C261.085 124.897 260.547 124.38 260.163 123.719C259.789 123.057 259.603 122.311 259.603 121.479C259.603 120.657 259.784 119.916 260.147 119.255C260.52 118.593 261.027 118.081 261.667 117.719C262.317 117.345 263.048 117.159 263.859 117.159C264.669 117.159 265.389 117.345 266.019 117.719C266.659 118.081 267.155 118.593 267.507 119.255C267.869 119.916 268.051 120.673 268.051 121.527ZM263.859 118.455C263.123 118.455 262.504 118.679 262.003 119.127C261.512 119.575 261.224 120.161 261.139 120.887H266.579C266.493 120.172 266.2 119.591 265.699 119.143C265.208 118.684 264.595 118.455 263.859 118.455Z" fill="#80808E"/>
<path d="M66.2308 83.2907H43.944V71.1818H40.5153V84.9597C40.5153 85.8761 41.2884 86.6288 42.2297 86.6288H61.76L57.7262 90.1633H36.0781V70.1346H40.4817H43.9104H58.3649C58.8019 70.1346 59.2052 69.9709 59.5078 69.7091L67.3737 62.8365C67.9115 62.3783 68.0796 61.6256 67.8443 61.0038C67.5754 60.3493 66.9367 59.9238 66.2308 59.9238H42.2297C41.2884 59.9238 40.5153 60.6765 40.5153 61.5929V65.7492H43.944V63.262H61.76L57.7262 66.7965H43.944H40.5153H34.3638C33.4226 66.7965 32.6494 67.5491 32.6494 68.4655V91.8324C32.6494 92.7487 33.4226 93.5014 34.3638 93.5014H58.3649C58.8019 93.5014 59.2052 93.3378 59.5078 93.076L67.3737 86.2034C67.9115 85.7452 68.0796 84.9925 67.8443 84.3707C67.5754 83.7162 66.9367 83.2907 66.2308 83.2907Z" fill="#555555"/>
<path d="M84.2653 67.4473C88.0192 67.4473 92.0859 69.4418 92.8007 74.1246C91.2365 74.1246 89.8069 74.1246 88.2427 74.1246C87.5723 72.3468 86.2315 71.523 84.2653 71.523C81.5399 71.523 79.7522 73.5176 79.7522 76.4226C79.7522 79.0242 81.495 81.2789 84.2653 81.3222C86.2315 81.3222 87.8407 80.3683 88.332 78.4605C89.8962 78.4605 91.3263 78.4605 92.89 78.4605C92.2196 83.4468 88.1534 85.398 84.2653 85.398C79.6629 85.4414 74.9707 82.4062 74.9707 76.4226C74.9707 70.439 79.618 67.4473 84.2653 67.4473Z" fill="#555555"/>
<path d="M94.2764 76.4641C94.2764 64.2802 112.91 64.2802 112.91 76.4641C112.866 88.6914 94.2764 88.6914 94.2764 76.4641ZM108.129 76.4641C108.129 70.1336 99.0129 70.1336 99.0129 76.4641C99.0129 82.8813 108.129 82.8813 108.129 76.4641Z" fill="#555555"/>
<path d="M130.875 67.5762H132.529V85.2667C130.965 85.2667 129.356 85.2667 127.792 85.2667V77.4188L123.949 81.3644H123.413L119.57 77.4188V85.2667C118.005 85.2667 116.397 85.2667 114.833 85.2667V67.5762H116.531L123.636 75.2074L130.875 67.5762Z" fill="#555555"/>
<path d="M142.403 85.2683H135.566V67.6211H142.403C154.245 67.7078 154.245 85.2249 142.403 85.2683ZM140.214 81.1492H142.403C148.168 81.1492 148.168 71.7403 142.403 71.7403H140.214V81.1492Z" fill="#555555"/>
<path d="M164.612 71.6535C161.931 71.6535 160.546 71.6535 157.91 71.6535V74.1684H164.076C164.076 75.5125 164.076 76.8567 164.076 78.1574H157.865C157.865 79.198 157.865 80.1953 157.865 81.2359C160.546 81.2359 162.11 81.2359 164.836 81.2359C164.836 82.5367 164.836 83.9242 164.836 85.2249C160.591 85.2249 157.463 85.2249 153.262 85.2249C153.262 79.3281 153.262 73.4312 153.262 67.6211C157.463 67.6211 160.322 67.6211 164.612 67.6211C164.612 68.9652 164.612 70.3094 164.612 71.6535Z" fill="#555555"/>
<path d="M175.159 79.7184L171.673 85.2683H166.803V84.5746L172.657 75.9028L167.428 68.3149V67.6211H172.165L175.115 72.2172H175.248L178.287 67.6211H182.935V68.3149L177.751 75.9028L183.65 84.5746V85.2683H178.779L175.293 79.7184H175.159Z" fill="#555555"/>
<path d="M255.046 368.099H257.638V379.299H255.046V368.099ZM270.568 368.099V379.299H268.44L262.856 372.499V379.299H260.296V368.099H262.44L268.008 374.899V368.099H270.568ZM276.898 379.491C276.012 379.491 275.154 379.373 274.322 379.139C273.5 378.893 272.839 378.579 272.338 378.195L273.218 376.243C273.698 376.595 274.268 376.877 274.93 377.091C275.591 377.304 276.252 377.411 276.914 377.411C277.65 377.411 278.194 377.304 278.546 377.091C278.898 376.867 279.074 376.573 279.074 376.211C279.074 375.944 278.967 375.725 278.754 375.555C278.551 375.373 278.284 375.229 277.954 375.123C277.634 375.016 277.196 374.899 276.642 374.771C275.788 374.568 275.09 374.365 274.546 374.163C274.002 373.96 273.532 373.635 273.138 373.187C272.754 372.739 272.562 372.141 272.562 371.395C272.562 370.744 272.738 370.157 273.09 369.635C273.442 369.101 273.97 368.68 274.674 368.371C275.388 368.061 276.258 367.907 277.282 367.907C277.996 367.907 278.695 367.992 279.378 368.163C280.06 368.333 280.658 368.579 281.17 368.899L280.37 370.867C279.335 370.28 278.3 369.987 277.266 369.987C276.54 369.987 276.002 370.104 275.65 370.339C275.308 370.573 275.138 370.883 275.138 371.267C275.138 371.651 275.335 371.939 275.73 372.131C276.135 372.312 276.748 372.493 277.57 372.675C278.423 372.877 279.122 373.08 279.666 373.283C280.21 373.485 280.674 373.805 281.058 374.243C281.452 374.68 281.65 375.272 281.65 376.019C281.65 376.659 281.468 377.245 281.106 377.779C280.754 378.301 280.22 378.717 279.506 379.027C278.791 379.336 277.922 379.491 276.898 379.491ZM285.585 370.211H282.001V368.099H291.761V370.211H288.177V379.299H285.585V370.211ZM293.155 368.099H295.747V379.299H293.155V368.099ZM300.725 370.211H297.141V368.099H306.901V370.211H303.317V379.299H300.725V370.211ZM313.084 379.491C311.484 379.491 310.236 379.048 309.34 378.163C308.455 377.277 308.012 376.013 308.012 374.371V368.099H310.604V374.275C310.604 376.28 311.436 377.283 313.1 377.283C313.911 377.283 314.53 377.043 314.956 376.563C315.383 376.072 315.596 375.309 315.596 374.275V368.099H318.156V374.371C318.156 376.013 317.708 377.277 316.812 378.163C315.927 379.048 314.684 379.491 313.084 379.491ZM322.85 370.211H319.266V368.099H329.026V370.211H325.442V379.299H322.85V370.211ZM330.421 368.099H333.013V379.299H330.421V368.099ZM341.095 379.491C339.932 379.491 338.881 379.24 337.943 378.739C337.015 378.237 336.284 377.549 335.751 376.675C335.228 375.789 334.967 374.797 334.967 373.699C334.967 372.6 335.228 371.613 335.751 370.739C336.284 369.853 337.015 369.16 337.943 368.659C338.881 368.157 339.932 367.907 341.095 367.907C342.257 367.907 343.303 368.157 344.231 368.659C345.159 369.16 345.889 369.853 346.423 370.739C346.956 371.613 347.223 372.6 347.223 373.699C347.223 374.797 346.956 375.789 346.423 376.675C345.889 377.549 345.159 378.237 344.231 378.739C343.303 379.24 342.257 379.491 341.095 379.491ZM341.095 377.283C341.756 377.283 342.353 377.133 342.887 376.835C343.42 376.525 343.836 376.099 344.135 375.555C344.444 375.011 344.599 374.392 344.599 373.699C344.599 373.005 344.444 372.387 344.135 371.843C343.836 371.299 343.42 370.877 342.887 370.579C342.353 370.269 341.756 370.115 341.095 370.115C340.433 370.115 339.836 370.269 339.303 370.579C338.769 370.877 338.348 371.299 338.039 371.843C337.74 372.387 337.591 373.005 337.591 373.699C337.591 374.392 337.74 375.011 338.039 375.555C338.348 376.099 338.769 376.525 339.303 376.835C339.836 377.133 340.433 377.283 341.095 377.283ZM359.443 368.099V379.299H357.315L351.731 372.499V379.299H349.171V368.099H351.315L356.883 374.899V368.099H359.443ZM369.469 376.899H364.269L363.277 379.299H360.621L365.613 368.099H368.173L373.181 379.299H370.461L369.469 376.899ZM368.653 374.931L366.877 370.643L365.101 374.931H368.653ZM374.343 368.099H376.935V377.187H382.551V379.299H374.343V368.099Z" fill="#80808E"/>
<defs>
<filter id="filter0_d" x="0.507812" y="0.632812" width="407.493" height="407.489" filterUnits="userSpaceOnUse" color-interpolation-filters="sRGB">
<feFlood flood-opacity="0" result="BackgroundImageFix"/>
<feColorMatrix in="SourceAlpha" type="matrix" values="0 0 0 0 0 0 0 0 0 0 0 0 0 0 0 0 0 0 127 0"/>
<feOffset dy="4"/>
<feGaussianBlur stdDeviation="2"/>
<feColorMatrix type="matrix" values="0 0 0 0 0 0 0 0 0 0 0 0 0 0 0 0 0 0 0.05 0"/>
<feBlend mode="normal" in2="BackgroundImageFix" result="effect1_dropShadow"/>
<feBlend mode="normal" in="SourceGraphic" in2="effect1_dropShadow" result="shape"/>
</filter>
</defs>
</svg>
