<svg width="33" height="33" viewBox="0 0 33 33" fill="none" xmlns="http://www.w3.org/2000/svg">
<circle cx="16.5" cy="16.5" r="16.5" fill="white"/>
<path d="M6.8584 6.98949C6.8584 6.36265 7.36656 5.85449 7.9934 5.85449H24.8649C25.4917 5.85449 25.9999 6.36265 25.9999 6.98949V23.8602C25.9999 24.487 25.4917 24.9952 24.8649 24.9952H7.9934C7.36656 24.9952 6.8584 24.487 6.8584 23.8602V6.98949Z" fill="white"/>
<path d="M22.2367 7.82666H11.2837V10.1245H22.2367V7.82666Z" fill="#E50913"/>
<path d="M19.7623 25.0638H23.1938L18.3783 11.7549H14.6246L9.80908 25.0638H13.2027L13.9989 22.7129H18.9661L19.7623 25.0638ZM18.1319 20.2104H14.8521L16.4825 15.338L18.1319 20.2104Z" fill="#202024"/>
</svg>
