<svg width="33" height="33" viewBox="0 0 33 33" fill="none" xmlns="http://www.w3.org/2000/svg">
<circle cx="16.5" cy="16.5" r="16.5" fill="white"/>
<path d="M22.9503 19.7427H13.658V14.694H12.2284V20.4386C12.2284 20.8207 12.5507 21.1345 12.9432 21.1345H21.0862L19.4044 22.6082H10.3783V14.2573H12.2144H13.644H19.6707C19.8529 14.2573 20.021 14.1891 20.1472 14.0799L23.4268 11.2144C23.6511 11.0234 23.7212 10.7096 23.6231 10.4503C23.5109 10.1774 23.2446 10 22.9503 10H12.9432C12.5507 10 12.2284 10.3138 12.2284 10.6959V12.4289H13.658V11.3918H21.0862L19.4044 12.8655H13.658H12.2284H9.66353C9.27109 12.8655 8.94873 13.1793 8.94873 13.5614V23.3041C8.94873 23.6862 9.27109 24 9.66353 24H19.6707C19.8529 24 20.021 23.9318 20.1472 23.8226L23.4268 20.9571C23.6511 20.7661 23.7212 20.4522 23.6231 20.193C23.5109 19.9201 23.2446 19.7427 22.9503 19.7427Z" fill="#FE4350"/>
</svg>
