<svg width="33" height="33" viewBox="0 0 33 33" fill="none" xmlns="http://www.w3.org/2000/svg">
<circle cx="16.5" cy="16.5" r="16.5" fill="white"/>
<rect x="5.49951" y="4" width="23.0008" height="22.9998" rx="11.4999" fill="white"/>
<rect x="5.49951" y="4" width="23.0008" height="22.9998" rx="11.4999" fill="white"/>
<path d="M22.6 17.0415C22.6 17.8928 22.4047 18.6743 22.0139 19.3861C21.6231 20.0838 21.023 20.649 20.2136 21.0817C19.4042 21.5143 18.3994 21.7306 17.1992 21.7306H14.9803V27.0058H11.4006V12.3105H17.1992C18.3715 12.3105 19.3623 12.5129 20.1718 12.9176C20.9812 13.3223 21.5882 13.8806 21.993 14.5923C22.3977 15.304 22.6 16.1204 22.6 17.0415ZM16.9271 18.8836C17.6109 18.8836 18.1203 18.7232 18.4552 18.4022C18.7901 18.0812 18.9576 17.6276 18.9576 17.0415C18.9576 16.4554 18.7901 16.0018 18.4552 15.6808C18.1203 15.3599 17.6109 15.1994 16.9271 15.1994H14.9803V18.8836H16.9271Z" fill="#202024"/>
<path d="M22.6732 8.5874H11.4001V10.9524H22.6732V8.5874Z" fill="#E50913"/>
</svg>
