<svg width="13" height="20" viewBox="0 0 13 20" fill="none" xmlns="http://www.w3.org/2000/svg">
<path d="M6.50361 0.560547C4.56583 1.68188 3.26099 4.64762 3.26099 7.04762V16.1095H9.74603V7.04762C9.74623 4.64762 8.44139 1.68188 6.50361 0.560547ZM8.12756 6.72141C8.12756 7.60788 7.40896 8.32668 6.52229 8.32668H6.48473C5.59826 8.32668 4.87946 7.60809 4.87946 6.72141V6.68386C4.87946 5.79738 5.59805 5.07858 6.48473 5.07858H6.52229C7.40876 5.07858 8.12756 5.79718 8.12756 6.68386V6.72141Z" fill="#E50913"/>
<path d="M3.26198 12.0488L0.593622 15.4644L0.0392456 16.1093H13L12.4726 15.4642L9.74803 12.0511L9.2438 12.4534L11.6472 15.4642H1.4123L3.77027 12.4461L3.26198 12.0488Z" fill="#E50913"/>
<path d="M6.82846 16.752H6.18152V19.9777H6.82846V16.752Z" fill="#E50913"/>
<path d="M5.23467 16.7529H4.55078V18.6873H5.23467V16.7529Z" fill="#E50913"/>
<path d="M8.46939 16.7529H7.78571V18.6873H8.46939V16.7529Z" fill="#E50913"/>
</svg>
