<svg width="40" height="40" viewBox="0 0 40 40" fill="none" xmlns="http://www.w3.org/2000/svg">
<g clip-path="url(#clip0_2226_2009)">
<path d="M20 39.9999C31.0457 39.9999 40 31.0457 40 20C40 8.95429 31.0457 0 20 0C8.95429 0 0 8.95429 0 20C0 31.0457 8.95429 39.9999 20 39.9999Z" fill="#ECEFF0"/>
<path d="M19.9978 15.8633L10.2471 20.2979L19.9978 26.0586L29.7446 20.2979L19.9978 15.8633Z" fill="#343535"/>
<path d="M10.2471 20.2975L19.9978 26.0582V4.11914L10.2471 20.2975Z" fill="#828384" fill-opacity="0.73"/>
<path d="M19.9978 4.11914V26.0582L29.7447 20.2975L19.9978 4.11914Z" fill="#2D2E2E" fill-opacity="0.79"/>
<path d="M10.2471 22.1445L19.9978 35.8814V27.9053L10.2471 22.1445Z" fill="#828384"/>
<path opacity="0.8" d="M19.9978 27.9053V35.8814L29.7523 22.1445L19.9978 27.9053Z" fill="#2F3030"/>
</g>
<defs>
<clipPath id="clip0_2226_2009">
<rect width="40" height="40" fill="white"/>
</clipPath>
</defs>
</svg>
