<svg width="196" height="46" viewBox="0 0 196 46" fill="none" xmlns="http://www.w3.org/2000/svg">
<g clip-path="url(#clip0_687_2710)">
<path fill-rule="evenodd" clip-rule="evenodd" d="M23.6828 8.66471C24.6179 8.92273 25.3354 9.51572 25.8625 10.1903C26.9339 11.5613 27.1022 13.2887 26.927 14.777C26.7471 16.3041 26.1773 17.8943 25.3766 19.3505C24.0451 21.7721 21.8321 24.2382 19.0363 25.4297C19.0178 27.1865 19.1816 28.945 19.57 30.6075C20.0275 32.5652 20.7884 34.3566 21.9002 35.8656C23.3986 37.8991 24.7691 38.8779 25.8849 39.318C26.9781 39.7493 27.9943 39.7305 28.9391 39.4666C30.1961 39.1154 31.3025 38.3312 32.0781 37.6197C29.5328 33.7003 28.123 28.4513 27.8509 23.7526C27.6947 21.0547 27.903 18.3906 28.5754 16.1299C29.2351 13.9118 30.443 11.7657 32.5306 10.6302C33.7596 9.96182 35.1589 9.72865 36.5219 10.2718C37.7941 10.7789 38.6453 11.8121 39.2085 12.8318C40.3215 14.847 40.8362 17.7552 40.9601 20.7268C41.0869 23.7704 40.8144 27.1764 40.1363 30.3711C39.598 32.9066 38.7821 35.4128 37.6346 37.5242C38.2228 38.1251 38.8202 38.6241 39.4045 38.9657C40.2911 39.4841 40.9337 39.5312 41.4941 39.3121C42.2074 39.0332 42.9127 38.4121 43.5574 37.4069C42.7297 35.2039 42.1862 32.6247 41.85 30.0605C41.3856 26.5173 41.2889 22.7739 41.4875 19.6295C41.5869 18.0578 41.7623 16.5963 42.0162 15.3613C42.2557 14.1973 42.6118 12.9854 43.2045 12.1027C43.542 11.6003 44.0954 10.949 44.9545 10.6357C45.9868 10.2592 46.966 10.537 47.6566 11.0459C48.25 11.4831 48.6351 12.0786 48.8869 12.559C49.1562 13.0728 49.3765 13.6572 49.56 14.2618C50.2817 16.639 50.6963 20.2144 50.7007 23.9484C50.7051 27.7011 50.2957 31.8375 49.2373 35.3369C49.015 36.0726 48.7543 36.8106 48.4486 37.5283C48.948 38.4176 49.4224 38.8988 49.7976 39.1243C50.1011 39.3068 50.4206 39.3799 50.9148 39.2419C50.9142 39.242 50.9138 39.2422 50.9138 39.242C50.9138 39.242 50.9768 39.2215 51.0927 39.1353C51.2142 39.0451 51.3674 38.9018 51.533 38.6925C51.8665 38.2711 52.1929 37.654 52.3963 36.8811C52.7949 35.3658 52.7005 33.3275 51.3434 31.1878C50.6911 30.1592 50.9961 28.7965 52.0246 28.1442C53.0532 27.4918 54.4159 27.7968 55.0682 28.8254C57.1055 32.0377 57.3613 35.3443 56.6621 38.0031C56.3162 39.3176 55.7317 40.495 54.9916 41.4299C54.2744 42.3361 53.2933 43.1573 52.1009 43.4902C50.4563 43.9493 48.8839 43.7215 47.5249 42.9045C46.91 42.5348 46.3711 42.0647 45.8977 41.5337C45.1089 42.3415 44.1843 42.9962 43.1003 43.42C40.8919 44.2836 38.81 43.7275 37.1781 42.7734C36.349 42.2887 35.5849 41.6754 34.8955 41.0177C33.7099 42.0739 32.0796 43.1688 30.1261 43.7147C28.3788 44.2028 26.3664 44.2495 24.2664 43.4211C22.1891 42.6017 20.2017 40.996 18.3493 38.4821C16.8176 36.4035 15.8412 34.0344 15.275 31.6112C14.8542 29.8108 14.6554 27.9621 14.6275 26.1445C11.4322 25.8442 8.89402 23.7338 7.68892 20.9592C6.13467 17.3809 6.76181 12.7615 10.3823 9.20943C11.2517 8.35641 12.6481 8.36972 13.5011 9.23916C14.3541 10.1086 14.3408 11.5049 13.4713 12.3579C11.1174 14.6674 10.9288 17.3469 11.7346 19.2019C12.3309 20.5747 13.4525 21.5315 14.8828 21.7284C15.3595 18.0388 16.455 14.63 17.8272 12.2569C18.6051 10.9115 19.6661 9.55655 21.0541 8.9133C21.8127 8.5618 22.7265 8.40088 23.6828 8.66471ZM19.7348 19.6347C20.4078 18.9462 21.0169 18.1247 21.5116 17.2252C22.1031 16.1494 22.4473 15.1038 22.5464 14.2611C22.6026 13.7842 22.5735 13.455 22.5229 13.2381C22.2976 13.4753 21.9943 13.8618 21.6456 14.4647C20.9108 15.7357 20.2207 17.5403 19.7348 19.6347ZM46.0855 28.3187C46.2261 26.8752 46.2916 25.3987 46.2899 23.9536C46.2877 22.0632 46.1709 20.2915 45.9778 18.7771C45.9438 19.1389 45.9143 19.5163 45.8896 19.9077C45.73 22.4341 45.7796 25.419 46.0855 28.3187ZM34.7115 33.3139C35.153 32.1471 35.5266 30.8447 35.8217 29.4551C36.4232 26.6215 36.6645 23.5849 36.5532 20.9105C36.4386 18.1641 35.9631 16.079 35.3474 14.9643C35.1373 14.5838 34.9774 14.4367 34.9139 14.3881C34.8644 14.3995 34.7762 14.4299 34.6381 14.505C34.0066 14.8485 33.3027 15.708 32.8032 17.3873C32.3163 19.0241 32.1184 21.1494 32.2543 23.4976C32.4508 26.8901 33.3223 30.4434 34.7115 33.3139Z" fill="url(#paint0_linear_687_2710)"/>
<path fill-rule="evenodd" clip-rule="evenodd" d="M23.6828 8.66471C24.6179 8.92273 25.3354 9.51572 25.8625 10.1903C26.9339 11.5613 27.1022 13.2887 26.927 14.777C26.7471 16.3041 26.1773 17.8943 25.3766 19.3505C23.9037 22.0292 21.3523 24.7624 18.1266 25.7644C17.7357 26.0312 17.2562 26.1746 16.7472 26.1429C16.6638 26.1377 16.5818 26.1279 16.5013 26.1137C12.4372 26.6166 9.12133 24.257 7.68892 20.9592C6.13467 17.3809 6.76181 12.7615 10.3823 9.20943C11.2517 8.35641 12.6481 8.36972 13.5011 9.23916C14.3541 10.1086 14.3408 11.5049 13.4713 12.3579C11.1174 14.6674 10.9288 17.3469 11.7346 19.2019C12.3309 20.5747 13.4525 21.5315 14.8828 21.7284C15.3595 18.0388 16.455 14.63 17.8272 12.2569C18.6051 10.9115 19.6661 9.55655 21.0541 8.9133C21.8127 8.5618 22.7265 8.40088 23.6828 8.66471ZM19.7348 19.6347C20.4078 18.9462 21.0169 18.1247 21.5116 17.2252C22.1031 16.1494 22.4473 15.1038 22.5464 14.2611C22.6026 13.7842 22.5735 13.455 22.5229 13.2381C22.2976 13.4753 21.9943 13.8618 21.6456 14.4647C20.9108 15.7357 20.2207 17.5403 19.7348 19.6347ZM40.1363 30.3711C39.4638 33.5389 38.3582 36.6609 36.7136 39.0242C35.878 40.2251 33.4781 42.778 30.1261 43.7147C28.3788 44.2028 26.3664 44.2495 24.2664 43.4211C22.1891 42.6017 20.2017 40.996 18.3493 38.4821C16.8176 36.4035 15.8412 34.0344 15.275 31.6112C14.9978 30.4251 15.7346 29.2389 16.9207 28.9618C18.1067 28.6846 19.2929 29.4214 19.57 30.6075C20.0275 32.5652 20.7884 34.3566 21.9002 35.8656C23.3986 37.8991 24.7691 38.8779 25.8849 39.318C26.9781 39.7493 27.9943 39.7305 28.9391 39.4666C30.1961 39.1154 31.3025 38.3312 32.0781 37.6197C29.5328 33.7003 28.123 28.4513 27.8509 23.7526C27.6947 21.0547 27.903 18.3906 28.5754 16.1299C29.2351 13.9118 30.443 11.7657 32.5306 10.6302C33.7596 9.96182 35.1589 9.72865 36.5219 10.2718C37.7941 10.7789 38.6453 11.8121 39.2085 12.8318C40.3214 14.847 40.8362 17.7552 40.9601 20.7268C41.0869 23.7704 40.8144 27.1764 40.1363 30.3711ZM34.9137 14.3881C34.8644 14.3995 34.7762 14.4299 34.6381 14.505C34.0066 14.8485 33.3027 15.708 32.8032 17.3873C32.3163 19.0241 32.1184 21.1494 32.2543 23.4976C32.4508 26.8901 33.3223 30.4434 34.7115 33.3139C35.153 32.1471 35.5266 30.8447 35.8217 29.4551C36.4232 26.6215 36.6645 23.5849 36.5532 20.9105C36.4386 18.1641 35.9631 16.079 35.3474 14.9643C35.1373 14.5838 34.9774 14.4367 34.9137 14.3881ZM47.4413 39.5121C46.3944 41.2414 44.9895 42.6814 43.1003 43.42C41.7356 43.9536 40.3794 43.9517 39.1374 43.6127C37.9623 43.292 37.2698 42.0794 37.5905 40.9044C37.9113 39.7293 39.1238 39.0368 40.2988 39.3575C40.731 39.4755 41.108 39.463 41.4941 39.3121C42.2074 39.0332 42.9127 38.4121 43.5574 37.4069C42.1255 33.593 41.5006 28.5287 41.4035 24.0836C41.3486 21.5621 41.4612 19.1394 41.7251 17.123C41.857 16.1158 42.031 15.1768 42.253 14.3609C42.4657 13.5795 42.7611 12.7629 43.2045 12.1027C43.542 11.6003 44.0954 10.949 44.9545 10.6357C45.9868 10.2592 46.966 10.537 47.6566 11.0459C48.25 11.4831 48.6351 12.0786 48.8869 12.559C49.1562 13.0728 49.3765 13.6572 49.56 14.2618C50.2817 16.639 50.6963 20.2144 50.7007 23.9484C50.7051 27.7011 50.2957 31.8375 49.2374 35.3369C48.9794 36.1902 48.6699 37.0466 48.2983 37.871C48.267 38.5075 47.9599 39.1133 47.4413 39.5121ZM46.0855 28.3182C46.2261 26.8749 46.2916 25.3986 46.2899 23.9536C46.2877 22.0632 46.1709 20.2915 45.9778 18.7771C45.8334 20.3146 45.7722 22.1014 45.8133 23.9874C45.8448 25.4294 45.9352 26.8931 46.0855 28.3182ZM52.0246 28.1442C53.0532 27.4918 54.4159 27.7968 55.0682 28.8254C57.1055 32.0377 57.3613 35.3443 56.6621 38.0031C56.3162 39.3176 55.7317 40.495 54.9916 41.4299C54.2744 42.3361 53.2933 43.1573 52.1009 43.4902C50.9277 43.8177 49.7112 43.1322 49.3837 41.9591C49.056 40.786 49.7416 39.5694 50.9148 39.2419C50.9148 39.2419 50.9768 39.2215 51.0927 39.1353C51.2142 39.0451 51.3674 38.9018 51.533 38.6925C51.8665 38.2711 52.1929 37.654 52.3963 36.8811C52.7949 35.3658 52.7005 33.3275 51.3434 31.1878C50.6911 30.1592 50.9961 28.7965 52.0246 28.1442Z" fill="url(#paint1_radial_687_2710)"/>
<path opacity="0.6" fill-rule="evenodd" clip-rule="evenodd" d="M52.0242 28.1439C53.0527 27.4916 54.4154 27.7966 55.0678 28.8251C57.105 32.0374 57.3608 35.344 56.6614 38.0029C56.3157 39.3174 55.7312 40.4948 54.9911 41.4297C54.2739 42.3359 53.2928 43.1571 52.1004 43.49C50.9271 43.8175 49.7107 43.132 49.383 41.9589C49.0555 40.7857 49.7411 39.5692 50.9143 39.2417C50.9136 39.2418 50.9143 39.2417 50.9143 39.2417C50.9143 39.2415 50.9763 39.2213 51.0922 39.1351C51.2137 39.0448 51.3669 38.9016 51.5325 38.6923C51.8661 38.2709 52.1925 37.6538 52.3958 36.8809C52.7944 35.3655 52.7 33.3273 51.343 31.1875C50.6906 30.159 50.9956 28.7963 52.0242 28.1439Z" fill="url(#paint2_linear_687_2710)"/>
<path opacity="0.6" fill-rule="evenodd" clip-rule="evenodd" d="M13.5011 9.23865C14.3541 10.1081 14.3408 11.5044 13.4713 12.3574C11.1174 14.6669 10.9288 17.3464 11.7346 19.2014C12.5426 21.0617 14.3154 22.1579 16.5137 21.6351C18.3664 21.1944 20.2891 19.4479 21.5116 17.2247C22.1031 16.1489 22.4473 15.1033 22.5464 14.2606C22.6503 13.3791 22.4628 13.0026 22.387 12.9057C21.637 11.9459 21.8071 10.5599 22.7668 9.80997C23.7265 9.06 25.1125 9.23003 25.8625 10.1898C26.9339 11.5608 27.1022 13.2882 26.927 14.7765C26.7471 16.3036 26.1773 17.8938 25.3766 19.35C23.8146 22.1907 21.0397 25.0927 17.5342 25.9263C13.0039 27.0037 9.24091 24.5318 7.68892 20.9587C6.13467 17.3804 6.76181 12.761 10.3823 9.20892C11.2517 8.3559 12.6481 8.36921 13.5011 9.23865Z" fill="url(#paint3_linear_687_2710)"/>
<path opacity="0.6" fill-rule="evenodd" clip-rule="evenodd" d="M40.1361 30.3708C39.4635 33.5386 38.358 36.6606 36.7134 39.024C35.8778 40.225 33.4779 42.7779 30.1259 43.7145C28.3786 44.2027 26.3662 44.2493 24.2662 43.4209C22.1889 42.6014 20.2015 40.9958 18.349 38.4819C17.6265 37.5013 17.8357 36.1207 18.8162 35.3982C19.7968 34.6756 21.1774 34.8847 21.9 35.8653C23.3984 37.8988 24.7689 38.8776 25.8847 39.3177C26.9779 39.749 27.9941 39.7304 28.9388 39.4663C30.9708 38.8986 32.6094 37.1994 33.0928 36.5047C34.274 34.8074 35.2141 32.3154 35.8213 29.4549C36.423 26.6212 36.6643 23.5846 36.5528 20.9103C36.4384 18.1639 35.9629 16.0788 35.3472 14.964C35.1371 14.5836 34.9772 14.4365 34.9135 14.3878C34.8642 14.3993 34.776 14.4297 34.6378 14.5048C33.5678 15.0868 32.2287 14.6911 31.6468 13.6211C31.0648 12.5511 31.4604 11.212 32.5304 10.63C33.7594 9.96159 35.1587 9.72843 36.5217 10.2716C37.7939 10.7787 38.6451 11.8119 39.2083 12.8316C40.3212 14.8468 40.836 17.755 40.9599 20.7266C41.0867 23.7703 40.8142 27.1763 40.1361 30.3708Z" fill="url(#paint4_linear_687_2710)"/>
<path opacity="0.6" fill-rule="evenodd" clip-rule="evenodd" d="M49.237 35.3367C48.2175 38.708 46.3962 42.1309 43.0999 43.4198C41.9655 43.8634 40.6864 43.3033 40.2428 42.1689C39.7993 41.0345 40.3593 39.7554 41.4937 39.3118C42.8028 38.8 44.0848 37.1359 45.0151 34.0599C45.9065 31.1123 46.2935 27.4414 46.2895 23.9534C46.2854 20.4464 45.8869 17.3474 45.339 15.5429C45.3365 15.5343 45.3339 15.5258 45.3313 15.5174C44.8151 15.5875 44.2721 15.4761 43.8055 15.1628C42.7944 14.4838 42.5252 13.1136 43.2042 12.1025C43.5416 11.6001 44.095 10.9488 44.9541 10.6354C45.9864 10.259 46.9656 10.5368 47.6562 11.0456C48.2496 11.4829 48.6347 12.0784 48.8865 12.5588C49.1559 13.0725 49.3761 13.657 49.5596 14.2616C50.2813 16.6387 50.6959 20.2142 50.7005 23.9482C50.7047 27.7009 50.2954 31.8373 49.237 35.3367Z" fill="url(#paint5_linear_687_2710)"/>
</g>
<g clip-path="url(#clip1_687_2710)">
<path d="M77.1153 14.9526V27.6059C77.1153 28.6625 76.835 29.651 76.2744 30.5712C75.7312 31.4744 74.9866 32.1902 74.0405 32.7184C73.1119 33.2467 72.1045 33.5108 71.0183 33.5108C69.9846 33.5108 69.0034 33.2638 68.0748 32.7696C67.1462 32.2583 66.4016 31.5595 65.841 30.6734C65.2803 29.7873 65 28.7988 65 27.7083V26.0722H68.4428V27.7083C68.4603 28.5091 68.7056 29.1482 69.1786 29.6254C69.6692 30.1026 70.2912 30.3412 71.0445 30.3412C71.7979 30.3412 72.4199 30.1026 72.9105 29.6254C73.401 29.1311 73.6463 28.458 73.6463 27.6059V14.9526H77.1153Z" fill="white"/>
<path d="M92.5876 33.3574H89.1185H85.2291H80.4985V20.1674H83.9676V30.3667H86.5431H88.0674C88.3127 30.3667 88.5317 30.3753 88.7244 30.3923C88.9171 30.3923 89.0485 30.3837 89.1185 30.3667V20.1674H92.5876V33.3574Z" fill="white"/>
<path d="M108.3 20.1674V33.3574H104.831V25.2287L99.6799 33.3574H96.2109V20.1674H99.6799V28.424C99.8026 28.2536 101.485 25.5014 104.726 20.1674H108.3Z" fill="white"/>
<path d="M117.653 33.5108C116.427 33.5108 115.297 33.2125 114.263 32.6161C113.247 32.0026 112.432 31.1846 111.819 30.1621C111.223 29.1226 110.925 27.9893 110.925 26.7623C110.925 25.5354 111.223 24.4106 111.819 23.3881C112.432 22.3486 113.247 21.5306 114.263 20.9342C115.297 20.3207 116.427 20.0139 117.653 20.0139H117.679C118.906 20.0139 120.027 20.3207 121.043 20.9342C122.077 21.5306 122.892 22.3486 123.487 23.3881C124.083 24.4277 124.381 25.5524 124.381 26.7623C124.381 27.9723 124.083 29.097 123.487 30.1366C122.892 31.1762 122.077 32.0026 121.043 32.6161C120.027 33.2125 118.906 33.5108 117.679 33.5108H117.653ZM117.679 30.1366C118.59 30.1366 119.353 29.8128 119.966 29.1652C120.597 28.5006 120.912 27.6996 120.912 26.7623C120.912 26.1659 120.763 25.6121 120.465 25.1008C120.185 24.5725 119.791 24.155 119.283 23.8483C118.792 23.5415 118.258 23.3881 117.679 23.3881H117.653C116.742 23.3881 115.971 23.7204 115.34 24.3851C114.71 25.0326 114.394 25.8251 114.394 26.7623C114.394 27.6996 114.71 28.5006 115.34 29.1652C115.971 29.8128 116.742 30.1366 117.653 30.1366H117.679Z" fill="white"/>
<path d="M126.819 28.9608C126.889 29.0289 127.099 29.1822 127.45 29.4208C127.8 29.6424 128.186 29.8469 128.606 30.0343C129.622 30.5626 130.577 30.8268 131.471 30.8268C132.066 30.8268 132.522 30.7074 132.837 30.4689C133.17 30.2303 133.337 29.9236 133.337 29.5486C133.337 28.9011 132.846 28.458 131.865 28.2194L130.157 27.836C128.895 27.5462 127.949 27.1032 127.318 26.5067C126.705 25.9103 126.398 25.1434 126.398 24.2061C126.398 23.4393 126.617 22.7235 127.056 22.0589C127.511 21.3943 128.133 20.866 128.921 20.474C129.727 20.0821 130.647 19.8861 131.681 19.8861C132.399 19.8861 133.082 19.9798 133.731 20.1673C134.379 20.3377 134.905 20.5337 135.308 20.7552C135.728 20.9597 136 21.1046 136.122 21.1898V24.4873C136.052 24.4021 135.807 24.2317 135.386 23.9761C134.966 23.7034 134.51 23.4648 134.02 23.2603C133.161 22.9195 132.434 22.7406 131.839 22.7235C131.33 22.7235 130.901 22.8343 130.551 23.0558C130.218 23.2603 130.051 23.533 130.051 23.8738C130.051 24.1124 130.148 24.3339 130.341 24.5384C130.533 24.7259 130.796 24.8537 131.129 24.9219L132.863 25.3053C134.177 25.6121 135.185 26.1148 135.886 26.8135C136.604 27.4951 136.963 28.3131 136.963 29.2675C136.963 30.0343 136.735 30.7586 136.28 31.4402C135.824 32.1048 135.185 32.6417 134.362 33.0506C133.556 33.4427 132.636 33.6386 131.602 33.6386C130.726 33.6386 129.929 33.5449 129.21 33.3574C128.51 33.153 127.949 32.9399 127.529 32.7184C127.108 32.4968 126.854 32.3434 126.766 32.2582L126.819 28.9608Z" fill="white"/>
<path d="M154.49 33.3574H151.231L148.393 24.9475L145.528 33.3574H142.27L137.776 20.1674H141.245L143.925 28.4496L146.764 20.1674H149.996L152.834 28.4751L155.541 20.1674H159.01L154.49 33.3574Z" fill="white"/>
<path d="M172.985 20.1673V22.9024V26.0977V30.6222V30.6733V33.3574H169.516V31.6448C168.991 32.2412 168.377 32.7014 167.677 33.0251C166.993 33.3489 166.258 33.5108 165.469 33.5108H165.443C164.392 33.5108 163.428 33.2125 162.552 32.6161C161.676 32.0026 160.984 31.1846 160.476 30.1621C159.968 29.1226 159.714 27.9893 159.714 26.7623C159.714 25.5354 159.968 24.4106 160.476 23.3881C160.984 22.3486 161.676 21.5306 162.552 20.9342C163.428 20.3207 164.392 20.0139 165.443 20.0139H165.469C166.258 20.0139 166.993 20.1758 167.677 20.4996C168.377 20.8234 168.991 21.2835 169.516 21.88V20.1673H172.985ZM166.389 30.1366C166.95 30.1366 167.466 29.9917 167.939 29.702C168.43 29.3953 168.815 28.9862 169.096 28.475C169.376 27.9467 169.516 27.3759 169.516 26.7623C169.516 26.1489 169.376 25.5865 169.096 25.0752C168.815 24.5469 168.43 24.138 167.939 23.8483C167.466 23.5415 166.95 23.3881 166.389 23.3881H166.363C165.452 23.3881 164.689 23.7119 164.076 24.3595C163.481 25.0071 163.183 25.808 163.183 26.7623C163.183 27.7167 163.481 28.5176 164.076 29.1652C164.689 29.8128 165.452 30.1366 166.363 30.1366H166.389Z" fill="white"/>
<path d="M184.056 20.0139C185.107 20.0139 186.072 20.3207 186.948 20.9342C187.841 21.5306 188.542 22.3486 189.05 23.3881C189.575 24.4106 189.838 25.5354 189.838 26.7623C189.838 27.9893 189.575 29.1226 189.05 30.1621C188.542 31.1846 187.841 32.0026 186.948 32.6161C186.072 33.2125 185.107 33.5108 184.056 33.5108C183.285 33.5108 182.55 33.3489 181.849 33.0251C181.166 32.6843 180.561 32.2242 180.035 31.6448V38.7766H176.566V20.1673H180.035V21.88C180.561 21.3005 181.166 20.8489 181.849 20.5252C182.55 20.1843 183.285 20.0139 184.056 20.0139ZM183.163 30.1366C184.056 30.1366 184.81 29.8128 185.422 29.1652C186.036 28.5006 186.343 27.6996 186.343 26.7623C186.343 25.8251 186.036 25.0326 185.422 24.3851C184.81 23.7204 184.056 23.3881 183.163 23.3881C182.269 23.3881 181.525 23.7204 180.929 24.3851C180.333 25.0326 180.035 25.8251 180.035 26.7623C180.035 27.6996 180.333 28.5006 180.929 29.1652C181.525 29.8128 182.269 30.1366 183.163 30.1366Z" fill="white"/>
</g>
<defs>
<linearGradient id="paint0_linear_687_2710" x1="14.5322" y1="26.391" x2="27.2772" y2="16.4135" gradientUnits="userSpaceOnUse">
<stop stop-color="#B00017"/>
<stop offset="0.615809" stop-color="#3F00C7"/>
<stop offset="1" stop-color="#003C56"/>
</linearGradient>
<radialGradient id="paint1_radial_687_2710" cx="0" cy="0" r="1" gradientUnits="userSpaceOnUse" gradientTransform="translate(9.01864 16.8326) rotate(14.5889) scale(51.9869 73.3317)">
<stop stop-color="#F99974"/>
<stop offset="0.166667" stop-color="#FE4366"/>
<stop offset="0.402254" stop-color="#F43D88"/>
<stop offset="0.552743" stop-color="#D72DE5"/>
<stop offset="0.6875" stop-color="#3B7BEA"/>
<stop offset="0.828125" stop-color="#30B1CD"/>
<stop offset="0.927083" stop-color="#40CAD7"/>
<stop offset="1" stop-color="#09ACA2"/>
</radialGradient>
<linearGradient id="paint2_linear_687_2710" x1="48.0422" y1="14.0758" x2="40.592" y2="33.322" gradientUnits="userSpaceOnUse">
<stop stop-color="white" stop-opacity="0"/>
<stop offset="0.270833" stop-color="white" stop-opacity="0.5"/>
<stop offset="0.515625" stop-color="white" stop-opacity="0.8"/>
<stop offset="0.802083" stop-color="white" stop-opacity="0.5"/>
<stop offset="1" stop-color="white" stop-opacity="0"/>
</linearGradient>
<linearGradient id="paint3_linear_687_2710" x1="31.7619" y1="14.8443" x2="25.1649" y2="31.8867" gradientUnits="userSpaceOnUse">
<stop stop-color="white" stop-opacity="0"/>
<stop offset="0.270833" stop-color="white" stop-opacity="0.5"/>
<stop offset="0.515625" stop-color="white" stop-opacity="0.8"/>
<stop offset="0.802083" stop-color="white" stop-opacity="0.5"/>
<stop offset="1" stop-color="white" stop-opacity="0"/>
</linearGradient>
<linearGradient id="paint4_linear_687_2710" x1="30.511" y1="14.0758" x2="22.825" y2="33.9313" gradientUnits="userSpaceOnUse">
<stop stop-color="white" stop-opacity="0"/>
<stop offset="0.270833" stop-color="white" stop-opacity="0.5"/>
<stop offset="0.515625" stop-color="white" stop-opacity="0.8"/>
<stop offset="0.802083" stop-color="white" stop-opacity="0.5"/>
<stop offset="1" stop-color="white" stop-opacity="0"/>
</linearGradient>
<linearGradient id="paint5_linear_687_2710" x1="43.9959" y1="14.0757" x2="36.6927" y2="32.9422" gradientUnits="userSpaceOnUse">
<stop stop-color="white" stop-opacity="0"/>
<stop offset="0.270833" stop-color="white" stop-opacity="0.5"/>
<stop offset="0.515625" stop-color="white" stop-opacity="0.8"/>
<stop offset="0.802083" stop-color="white" stop-opacity="0.5"/>
<stop offset="1" stop-color="white" stop-opacity="0"/>
</linearGradient>
<clipPath id="clip0_687_2710">
<rect width="51" height="37.2162" fill="white" transform="translate(6.89185 7.84448)"/>
</clipPath>
<clipPath id="clip1_687_2710">
<rect width="124.838" height="23.824" fill="white" transform="translate(65 14.9526)"/>
</clipPath>
</defs>
</svg>
