<svg width="193" height="27" viewBox="0 0 193 27" fill="none" xmlns="http://www.w3.org/2000/svg">
<rect x="0.933594" y="0.76123" width="25.2385" height="25.2375" rx="1.49653" fill="white"/>
<path d="M36.2417 11.895V15.3962H41.2032V18.6509H36.2417V22.4481H42.6279V25.8261H32.0254V8.51695H42.6279V11.895H36.2417Z" fill="white"/>
<path d="M56.7374 25.7215L53.48 19.1874H51.7841V25.7215H47.5678V8.41237H54.6443C56.0087 8.41237 57.1676 8.65072 58.121 9.12742C59.0908 9.60412 59.8141 10.2616 60.2908 11.1C60.7675 11.9219 61.0058 12.8424 61.0058 13.8615C61.0058 15.0122 60.6771 16.0396 60.0196 16.9437C59.3785 17.8478 58.4251 18.4888 57.1594 18.8669L61.1538 25.7215H56.7374ZM51.7841 16.204H54.3978C55.1704 16.204 55.7457 16.0149 56.1238 15.6368C56.5183 15.2588 56.7155 14.7245 56.7155 14.0341C56.7155 13.3766 56.5183 12.8588 56.1238 12.4808C55.7457 12.1027 55.1704 11.9137 54.3978 11.9137H51.7841V16.204Z" fill="white"/>
<path d="M71.6579 25.9987C70.3922 25.9987 69.258 25.7932 68.2553 25.3823C67.2526 24.9713 66.4471 24.3631 65.8389 23.5577C65.2471 22.7522 64.9348 21.7824 64.9019 20.6482H69.3895C69.4552 21.2892 69.6771 21.7824 70.0552 22.1276C70.4333 22.4563 70.9264 22.6207 71.5346 22.6207C72.1593 22.6207 72.6524 22.481 73.014 22.2015C73.3757 21.9057 73.5565 21.5029 73.5565 20.9934C73.5565 20.566 73.4086 20.2126 73.1127 19.9331C72.8332 19.6537 72.4798 19.4235 72.0524 19.2427C71.6415 19.0619 71.0497 18.8564 70.2771 18.6263C69.1594 18.2811 68.247 17.9359 67.5402 17.5907C66.8334 17.2455 66.2252 16.7359 65.7156 16.062C65.206 15.388 64.9512 14.5086 64.9512 13.4237C64.9512 11.8128 65.5348 10.5553 66.7019 9.65117C67.869 8.73065 69.3895 8.27039 71.2634 8.27039C73.1702 8.27039 74.7072 8.73065 75.8743 9.65117C77.0413 10.5553 77.666 11.821 77.7482 13.4483H73.1867C73.1538 12.8894 72.9483 12.4538 72.5702 12.1415C72.1922 11.8128 71.7072 11.6484 71.1155 11.6484C70.6059 11.6484 70.1949 11.7881 69.8826 12.0676C69.5703 12.3306 69.4141 12.7168 69.4141 13.2264C69.4141 13.7853 69.6771 14.2209 70.2032 14.5332C70.7292 14.8456 71.5511 15.1825 72.6689 15.5442C73.7866 15.9222 74.6907 16.2839 75.3811 16.6291C76.088 16.9743 76.6961 17.4756 77.2057 18.1332C77.7153 18.7907 77.9701 19.6372 77.9701 20.6728C77.9701 21.6591 77.7153 22.555 77.2057 23.3604C76.7126 24.1659 75.9893 24.807 75.0359 25.2837C74.0825 25.7604 72.9565 25.9987 71.6579 25.9987Z" fill="white"/>
<path d="M86.7537 8.51695V25.8261H82.5374V8.51695H86.7537Z" fill="white"/>
<path d="M98.0447 25.9987C96.779 25.9987 95.6447 25.7932 94.642 25.3823C93.6393 24.9713 92.8338 24.3631 92.2256 23.5577C91.6339 22.7522 91.3216 21.7824 91.2887 20.6482H95.7762C95.842 21.2892 96.0639 21.7824 96.442 22.1276C96.82 22.4563 97.3132 22.6207 97.9214 22.6207C98.546 22.6207 99.0392 22.481 99.4008 22.2015C99.7624 21.9057 99.9433 21.5029 99.9433 20.9934C99.9433 20.566 99.7953 20.2126 99.4994 19.9331C99.22 19.6537 98.8666 19.4235 98.4392 19.2427C98.0282 19.0619 97.4365 18.8564 96.6639 18.6263C95.5461 18.2811 94.6338 17.9359 93.927 17.5907C93.2201 17.2455 92.6119 16.7359 92.1024 16.062C91.5928 15.388 91.338 14.5086 91.338 13.4237C91.338 11.8128 91.9215 10.5553 93.0886 9.65117C94.2557 8.73065 95.7762 8.27039 97.6502 8.27039C99.557 8.27039 101.094 8.73065 102.261 9.65117C103.428 10.5553 104.053 11.821 104.135 13.4483H99.5734C99.5405 12.8894 99.3351 12.4538 98.957 12.1415C98.5789 11.8128 98.094 11.6484 97.5022 11.6484C96.9926 11.6484 96.5817 11.7881 96.2694 12.0676C95.9571 12.3306 95.8009 12.7168 95.8009 13.2264C95.8009 13.7853 96.0639 14.2209 96.5899 14.5332C97.1159 14.8456 97.9378 15.1825 99.0556 15.5442C100.173 15.9222 101.077 16.2839 101.768 16.6291C102.475 16.9743 103.083 17.4756 103.592 18.1332C104.102 18.7907 104.357 19.6372 104.357 20.6728C104.357 21.6591 104.102 22.555 103.592 23.3604C103.099 24.1659 102.376 24.807 101.423 25.2837C100.469 25.7604 99.3433 25.9987 98.0447 25.9987Z" fill="white"/>
<path d="M121.376 8.51695V11.895H116.79V25.8261H112.573V11.895H107.987V8.51695H121.376Z" fill="white"/>
<path d="M129.681 11.895V15.3962H134.642V18.6509H129.681V22.4481H136.067V25.8261H125.465V8.51695H136.067V11.895H129.681Z" fill="white"/>
<path d="M156.261 25.8261H152.045L144.993 15.1497V25.8261H140.777V8.51695H144.993L152.045 19.2427V8.51695H156.261V25.8261Z" fill="white"/>
<path d="M160.575 17.1469C160.575 15.4373 160.945 13.9168 161.685 12.5853C162.424 11.2374 163.452 10.1936 164.767 9.45392C166.098 8.69777 167.602 8.3197 169.279 8.3197C171.334 8.3197 173.093 8.86215 174.556 9.94706C176.019 11.032 176.997 12.5114 177.49 14.3853H172.854C172.509 13.662 172.016 13.1114 171.375 12.7333C170.75 12.3552 170.035 12.1662 169.23 12.1662C167.931 12.1662 166.879 12.6182 166.074 13.5223C165.268 14.4264 164.866 15.6346 164.866 17.1469C164.866 18.6592 165.268 19.8674 166.074 20.7714C166.879 21.6755 167.931 22.1276 169.23 22.1276C170.035 22.1276 170.75 21.9385 171.375 21.5605C172.016 21.1824 172.509 20.6317 172.854 19.9085H177.49C176.997 21.7824 176.019 23.2618 174.556 24.3467C173.093 25.4152 171.334 25.9494 169.279 25.9494C167.602 25.9494 166.098 25.5795 164.767 24.8398C163.452 24.0837 162.424 23.0399 161.685 21.7084C160.945 20.3769 160.575 18.8564 160.575 17.1469Z" fill="white"/>
<path d="M186.261 11.895V15.3962H191.222V18.6509H186.261V22.4481H192.647V25.8261H182.044V8.51695H192.647V11.895H186.261Z" fill="white"/>
<path d="M20.2103 14.159C20.2103 15.1712 19.978 16.1004 19.5134 16.9466C19.0488 17.7763 18.3353 18.4483 17.3729 18.9627C16.4105 19.4771 15.2158 19.7343 13.7888 19.7343H11.1505V26.0065H6.89438V8.53394H13.7888C15.1826 8.53394 16.3607 8.77454 17.3231 9.25574C18.2855 9.73694 19.0073 10.4007 19.4885 11.2469C19.9697 12.0932 20.2103 13.0639 20.2103 14.159ZM13.4652 16.3493C14.2783 16.3493 14.884 16.1585 15.2822 15.7768C15.6804 15.3952 15.8795 14.8559 15.8795 14.159C15.8795 13.4621 15.6804 12.9228 15.2822 12.5412C14.884 12.1595 14.2783 11.9687 13.4652 11.9687H11.1505V16.3493H13.4652Z" fill="black"/>
<path d="M20.2105 4.10742H6.89453V6.91936H20.2105V4.10742Z" fill="#E50913"/>
</svg>
