<svg width="163" height="30" viewBox="0 0 163 30" fill="none" xmlns="http://www.w3.org/2000/svg">
<path d="M0 4.28947C0 1.92046 1.92046 0 4.28947 0H25.7368C28.1059 0 30.0263 1.92046 30.0263 4.28947V25.7105C30.0263 28.0795 28.1059 30 25.7368 30H4.28948C1.92046 30 0 28.0795 0 25.7105V4.28947Z" fill="white"/>
<path d="M23.3845 15.7667C23.3845 16.9827 23.1012 18.099 22.5348 19.1157C21.9683 20.1124 21.0984 20.9198 19.925 21.5378C18.7516 22.1557 17.2949 22.4647 15.5551 22.4647H12.3383V30H7.14905V9.00879H15.5551C17.2545 9.00879 18.6909 9.29784 19.8643 9.87595C21.0377 10.4541 21.9177 11.2514 22.5044 12.2681C23.0911 13.2848 23.3845 14.451 23.3845 15.7667ZM15.1605 18.398C16.1519 18.398 16.8903 18.1688 17.3758 17.7103C17.8614 17.2518 18.1042 16.6039 18.1042 15.7667C18.1042 14.9294 17.8614 14.2815 17.3758 13.823C16.8903 13.3645 16.1519 13.1353 15.1605 13.1353H12.3383V18.398H15.1605Z" fill="black"/>
<path d="M23.592 4.28564H7.14905V7.85707H23.592V4.28564Z" fill="#C33B3D"/>
<path d="M45.2121 13.7347C45.2121 14.5629 45.022 15.3233 44.6418 16.0157C44.2617 16.6945 43.6778 17.2444 42.8903 17.6653C42.1028 18.0862 41.1252 18.2966 39.9574 18.2966H37.7985V23.4288H34.3158V9.13212H39.9574C41.098 9.13212 42.062 9.32899 42.8496 9.72272C43.6371 10.1165 44.2277 10.6595 44.6215 11.352C45.0152 12.0444 45.2121 12.8387 45.2121 13.7347ZM39.6927 15.5269C40.358 15.5269 40.8536 15.3708 41.1795 15.0585C41.5053 14.7462 41.6683 14.305 41.6683 13.7347C41.6683 13.1645 41.5053 12.7233 41.1795 12.411C40.8536 12.0987 40.358 11.9426 39.6927 11.9426H37.7985V15.5269H39.6927Z" fill="white"/>
<path d="M50.3043 11.9222V14.8141H54.9684V17.5024H50.3043V20.6387H55.5794V23.4288H46.8216V9.13212H55.5794V11.9222H50.3043Z" fill="white"/>
<path d="M64.9281 23.4288L61.9546 18.0319H61.1195V23.4288H57.6368V9.13212H63.4821C64.6091 9.13212 65.5663 9.32899 66.3538 9.72272C67.1549 10.1165 67.7524 10.6595 68.1461 11.352C68.5399 12.0308 68.7368 12.7911 68.7368 13.6329C68.7368 14.5833 68.4652 15.4319 67.9221 16.1786C67.3925 16.9254 66.605 17.4549 65.5595 17.7671L68.859 23.4288H64.9281ZM61.1195 15.5676H63.2784C63.9166 15.5676 64.3918 15.4115 64.7041 15.0992C65.03 14.787 65.1929 14.3457 65.1929 13.7755C65.1929 13.2324 65.03 12.8047 64.7041 12.4924C64.3918 12.1802 63.9166 12.024 63.2784 12.024H61.1195V15.5676Z" fill="white"/>
<path d="M75.8926 23.5713C74.8471 23.5713 73.9102 23.4016 73.0819 23.0622C72.2537 22.7228 71.5884 22.2204 71.086 21.5551C70.5972 20.8899 70.3392 20.0888 70.312 19.152H74.0188C74.0731 19.6815 74.2564 20.0888 74.5687 20.3739C74.881 20.6455 75.2883 20.7812 75.7907 20.7812C76.3067 20.7812 76.714 20.6658 77.0128 20.435C77.3115 20.1906 77.4608 19.858 77.4608 19.4371C77.4608 19.0841 77.3386 18.7922 77.0942 18.5614C76.8634 18.3306 76.5715 18.1405 76.2184 17.9912C75.879 17.8418 75.3902 17.6721 74.752 17.482C73.8287 17.1969 73.0751 16.9118 72.4913 16.6267C71.9074 16.3415 71.405 15.9207 70.9841 15.364C70.5632 14.8073 70.3528 14.081 70.3528 13.1849C70.3528 11.8543 70.8348 10.8157 71.7988 10.0689C72.7628 9.30862 74.0188 8.92847 75.5667 8.92847C77.1417 8.92847 78.4113 9.30862 79.3753 10.0689C80.3394 10.8157 80.8553 11.8611 80.9232 13.2052H77.1553C77.1282 12.7436 76.9584 12.3838 76.6461 12.1259C76.3339 11.8543 75.9333 11.7186 75.4445 11.7186C75.0236 11.7186 74.6841 11.834 74.4261 12.0648C74.1682 12.282 74.0392 12.6011 74.0392 13.0219C74.0392 13.4836 74.2564 13.8434 74.6909 14.1013C75.1254 14.3593 75.8043 14.6376 76.7276 14.9363C77.6509 15.2486 78.3977 15.5473 78.968 15.8324C79.5518 16.1175 80.0542 16.5316 80.4751 17.0747C80.8961 17.6178 81.1065 18.317 81.1065 19.1724C81.1065 19.987 80.8961 20.7269 80.4751 21.3922C80.0678 22.0575 79.4704 22.587 78.6828 22.9807C77.8953 23.3745 76.9652 23.5713 75.8926 23.5713Z" fill="white"/>
<path d="M86.5289 9.13212V23.4288H83.0461V9.13212H86.5289Z" fill="white"/>
<path d="M94.0224 23.5713C92.9768 23.5713 92.04 23.4016 91.2117 23.0622C90.3834 22.7228 89.7181 22.2204 89.2157 21.5551C88.7269 20.8899 88.469 20.0888 88.4418 19.152H92.1486C92.2029 19.6815 92.3862 20.0888 92.6985 20.3739C93.0108 20.6455 93.4181 20.7812 93.9205 20.7812C94.4365 20.7812 94.8438 20.6658 95.1425 20.435C95.4412 20.1906 95.5906 19.858 95.5906 19.4371C95.5906 19.0841 95.4684 18.7922 95.224 18.5614C94.9932 18.3306 94.7012 18.1405 94.3482 17.9912C94.0088 17.8418 93.52 17.6721 92.8818 17.482C91.9585 17.1969 91.2049 16.9118 90.6211 16.6267C90.0372 16.3415 89.5348 15.9207 89.1139 15.364C88.693 14.8073 88.4825 14.081 88.4825 13.1849C88.4825 11.8543 88.9646 10.8157 89.9286 10.0689C90.8926 9.30862 92.1486 8.92847 93.6965 8.92847C95.2715 8.92847 96.5411 9.30862 97.5051 10.0689C98.4691 10.8157 98.9851 11.8611 99.053 13.2052H95.2851C95.2579 12.7436 95.0882 12.3838 94.7759 12.1259C94.4636 11.8543 94.0631 11.7186 93.5743 11.7186C93.1534 11.7186 92.8139 11.834 92.5559 12.0648C92.298 12.282 92.169 12.6011 92.169 13.0219C92.169 13.4836 92.3862 13.8434 92.8207 14.1013C93.2552 14.3593 93.9341 14.6376 94.8574 14.9363C95.7807 15.2486 96.5275 15.5473 97.0978 15.8324C97.6816 16.1175 98.184 16.5316 98.6049 17.0747C99.0258 17.6178 99.2363 18.317 99.2363 19.1724C99.2363 19.987 99.0258 20.7269 98.6049 21.3922C98.1976 22.0575 97.6001 22.587 96.8126 22.9807C96.0251 23.3745 95.095 23.5713 94.0224 23.5713Z" fill="white"/>
<path d="M111.461 9.13212V11.9222H107.673V23.4288H104.19V11.9222H100.402V9.13212H111.461Z" fill="white"/>
<path d="M116.488 11.9222V14.8141H121.152V17.5024H116.488V20.6387H121.763V23.4288H113.005V9.13212H121.763V11.9222H116.488Z" fill="white"/>
<path d="M136.611 23.4288H133.128L127.303 14.6105V23.4288H123.821V9.13212H127.303L133.128 17.9912V9.13212H136.611V23.4288Z" fill="white"/>
<path d="M138.341 16.2601C138.341 14.8481 138.647 13.5922 139.258 12.4924C139.869 11.3791 140.717 10.517 141.804 9.90601C142.904 9.28147 144.146 8.9692 145.531 8.9692C147.228 8.9692 148.681 9.41724 149.889 10.3133C151.098 11.2094 151.906 12.4313 152.313 13.9791H148.484C148.199 13.3817 147.792 12.9269 147.262 12.6146C146.746 12.3024 146.155 12.1462 145.49 12.1462C144.417 12.1462 143.548 12.5196 142.883 13.2663C142.218 14.0131 141.885 15.011 141.885 16.2601C141.885 17.5092 142.218 18.5071 142.883 19.2538C143.548 20.0006 144.417 20.3739 145.49 20.3739C146.155 20.3739 146.746 20.2178 147.262 19.9055C147.792 19.5932 148.199 19.1384 148.484 18.541H152.313C151.906 20.0888 151.098 21.3107 149.889 22.2068C148.681 23.0893 147.228 23.5306 145.531 23.5306C144.146 23.5306 142.904 23.2251 141.804 22.6141C140.717 21.9896 139.869 21.1275 139.258 20.0277C138.647 18.928 138.341 17.6721 138.341 16.2601Z" fill="white"/>
<path d="M157.725 11.9222V14.8141H162.389V17.5024H157.725V20.6387H163V23.4288H154.242V9.13212H163V11.9222H157.725Z" fill="white"/>
</svg>
