<svg width="216" height="43" viewBox="0 0 216 43" fill="none" xmlns="http://www.w3.org/2000/svg">
<path d="M16.5073 32.8985H7.84118L6.45195 37H0.531184L8.93272 13.78H15.482L23.8835 37H17.8966L16.5073 32.8985ZM15.052 28.5323L12.1743 20.0315L9.32965 28.5323H15.052ZM33.949 37.2646C32.3392 37.2646 30.9059 36.989 29.649 36.4377C28.392 35.8864 27.3997 35.1367 26.672 34.1885C25.9443 33.2182 25.5364 32.1377 25.4482 30.9469H31.0382C31.1043 31.5864 31.402 32.1046 31.9313 32.5015C32.4605 32.8985 33.111 33.0969 33.8828 33.0969C34.5884 33.0969 35.1287 32.9646 35.5036 32.7C35.9005 32.4133 36.099 32.0495 36.099 31.6085C36.099 31.0792 35.8233 30.6933 35.272 30.4508C34.7207 30.1862 33.8277 29.8995 32.5928 29.5908C31.2697 29.2821 30.1672 28.9623 29.2851 28.6315C28.4031 28.2787 27.6423 27.7385 27.0028 27.0108C26.3633 26.261 26.0436 25.2577 26.0436 24.0008C26.0436 22.9423 26.3302 21.9831 26.9036 21.1231C27.499 20.241 28.359 19.5464 29.4836 19.0392C30.6302 18.532 31.9864 18.2785 33.552 18.2785C35.8674 18.2785 37.6866 18.8518 39.0097 19.9985C40.3549 21.1451 41.1266 22.6667 41.3251 24.5631H36.099C36.0107 23.9236 35.7241 23.4164 35.239 23.0415C34.7759 22.6667 34.1584 22.4792 33.3866 22.4792C32.7251 22.4792 32.2179 22.6115 31.8651 22.8762C31.5123 23.1187 31.3359 23.4605 31.3359 23.9015C31.3359 24.4308 31.6115 24.8277 32.1628 25.0923C32.7361 25.3569 33.6182 25.6215 34.809 25.8862C36.1761 26.239 37.2897 26.5918 38.1497 26.9446C39.0097 27.2754 39.7595 27.8267 40.399 28.5985C41.0605 29.3482 41.4023 30.3626 41.4243 31.6415C41.4243 32.7221 41.1156 33.6923 40.4982 34.5523C39.9028 35.3903 39.0318 36.0518 37.8851 36.5369C36.7605 37.0221 35.4484 37.2646 33.949 37.2646ZM52.3932 37.2646C50.7835 37.2646 49.3501 36.989 48.0932 36.4377C46.8363 35.8864 45.844 35.1367 45.1163 34.1885C44.3886 33.2182 43.9807 32.1377 43.8924 30.9469H49.4824C49.5486 31.5864 49.8463 32.1046 50.3755 32.5015C50.9048 32.8985 51.5553 33.0969 52.3271 33.0969C53.0327 33.0969 53.573 32.9646 53.9478 32.7C54.3448 32.4133 54.5432 32.0495 54.5432 31.6085C54.5432 31.0792 54.2676 30.6933 53.7163 30.4508C53.165 30.1862 52.2719 29.8995 51.0371 29.5908C49.714 29.2821 48.6114 28.9623 47.7294 28.6315C46.8473 28.2787 46.0865 27.7385 45.4471 27.0108C44.8076 26.261 44.4878 25.2577 44.4878 24.0008C44.4878 22.9423 44.7745 21.9831 45.3478 21.1231C45.9432 20.241 46.8032 19.5464 47.9278 19.0392C49.0745 18.532 50.4307 18.2785 51.9963 18.2785C54.3117 18.2785 56.1309 18.8518 57.454 19.9985C58.7991 21.1451 59.5709 22.6667 59.7694 24.5631H54.5432C54.455 23.9236 54.1683 23.4164 53.6832 23.0415C53.2201 22.6667 52.6027 22.4792 51.8309 22.4792C51.1694 22.4792 50.6622 22.6115 50.3094 22.8762C49.9565 23.1187 49.7801 23.4605 49.7801 23.9015C49.7801 24.4308 50.0558 24.8277 50.6071 25.0923C51.1804 25.3569 52.0624 25.6215 53.2532 25.8862C54.6204 26.239 55.734 26.5918 56.594 26.9446C57.454 27.2754 58.2037 27.8267 58.8432 28.5985C59.5048 29.3482 59.8465 30.3626 59.8686 31.6415C59.8686 32.7221 59.5599 33.6923 58.9424 34.5523C58.3471 35.3903 57.476 36.0518 56.3294 36.5369C55.2048 37.0221 53.8927 37.2646 52.3932 37.2646ZM80.7275 27.4738C80.7275 28.0031 80.6944 28.5544 80.6282 29.1277H67.8275C67.9157 30.2744 68.2795 31.1564 68.919 31.7738C69.5806 32.3692 70.3854 32.6669 71.3336 32.6669C72.7449 32.6669 73.7262 32.0715 74.2775 30.8808H80.2975C79.9888 32.0936 79.4265 33.1851 78.6106 34.1554C77.8167 35.1256 76.8134 35.8864 75.6006 36.4377C74.3877 36.989 73.0316 37.2646 71.5321 37.2646C69.7239 37.2646 68.1141 36.8787 66.7029 36.1069C65.2916 35.3351 64.189 34.2326 63.3952 32.7992C62.6013 31.3659 62.2044 29.69 62.2044 27.7715C62.2044 25.8531 62.5903 24.1772 63.3621 22.7438C64.1559 21.3105 65.2585 20.2079 66.6698 19.4362C68.0811 18.6644 69.7018 18.2785 71.5321 18.2785C73.3182 18.2785 74.9059 18.6533 76.2952 19.4031C77.6844 20.1528 78.7649 21.2223 79.5367 22.6115C80.3306 24.0008 80.7275 25.6215 80.7275 27.4738ZM74.939 25.9854C74.939 25.0151 74.6082 24.2433 73.9467 23.67C73.2852 23.0967 72.4582 22.81 71.4659 22.81C70.5177 22.81 69.7129 23.0856 69.0513 23.6369C68.4118 24.1882 68.0149 24.971 67.8606 25.9854H74.939ZM93.9983 32.2038V37H91.1206C89.0698 37 87.4711 36.5038 86.3245 35.5115C85.1778 34.4972 84.6045 32.8544 84.6045 30.5831V23.24H82.3552V18.5431H84.6045V14.0446H90.2606V18.5431H93.9652V23.24H90.2606V30.6492C90.2606 31.2005 90.3929 31.5974 90.6575 31.84C90.9221 32.0826 91.3632 32.2038 91.9806 32.2038H93.9983Z" fill="#EFCB30"/>
<path d="M123.445 13.78V37H117.789V23.0746L112.596 37H108.031L102.805 23.0415V37H97.1489V13.78H103.83L110.347 29.8554L116.797 13.78H123.445ZM126.388 27.7385C126.388 25.8421 126.741 24.1772 127.446 22.7438C128.174 21.3105 129.155 20.2079 130.39 19.4362C131.625 18.6644 133.003 18.2785 134.525 18.2785C135.826 18.2785 136.961 18.5431 137.932 19.0723C138.924 19.6015 139.685 20.2962 140.214 21.1562V18.5431H145.87V37H140.214V34.3869C139.663 35.2469 138.891 35.9415 137.899 36.4708C136.928 37 135.793 37.2646 134.492 37.2646C132.992 37.2646 131.625 36.8787 130.39 36.1069C129.155 35.3131 128.174 34.1995 127.446 32.7662C126.741 31.3108 126.388 29.6349 126.388 27.7385ZM140.214 27.7715C140.214 26.3603 139.817 25.2467 139.023 24.4308C138.251 23.6149 137.303 23.2069 136.179 23.2069C135.054 23.2069 134.095 23.6149 133.301 24.4308C132.529 25.2246 132.143 26.3272 132.143 27.7385C132.143 29.1497 132.529 30.2744 133.301 31.1123C134.095 31.9282 135.054 32.3362 136.179 32.3362C137.303 32.3362 138.251 31.9282 139.023 31.1123C139.817 30.2964 140.214 29.1828 140.214 27.7715ZM161.208 18.3446C163.369 18.3446 165.089 19.0503 166.368 20.4615C167.669 21.8508 168.32 23.7692 168.32 26.2169V37H162.697V26.9777C162.697 25.7428 162.377 24.7836 161.738 24.1C161.098 23.4164 160.238 23.0746 159.158 23.0746C158.077 23.0746 157.217 23.4164 156.578 24.1C155.938 24.7836 155.618 25.7428 155.618 26.9777V37H149.962V18.5431H155.618V20.9908C156.192 20.1749 156.963 19.5354 157.934 19.0723C158.904 18.5872 159.995 18.3446 161.208 18.3446ZM182.537 32.2038V37H179.66C177.609 37 176.01 36.5038 174.863 35.5115C173.717 34.4972 173.143 32.8544 173.143 30.5831V23.24H170.894V18.5431H173.143V14.0446H178.8V18.5431H182.504V23.24H178.8V30.6492C178.8 31.2005 178.932 31.5974 179.196 31.84C179.461 32.0826 179.902 32.2038 180.52 32.2038H182.537ZM191.344 12.5231V37H185.688V12.5231H191.344ZM212.841 27.4738C212.841 28.0031 212.808 28.5544 212.742 29.1277H199.941C200.03 30.2744 200.393 31.1564 201.033 31.7738C201.694 32.3692 202.499 32.6669 203.448 32.6669C204.859 32.6669 205.84 32.0715 206.391 30.8808H212.411C212.103 32.0936 211.54 33.1851 210.724 34.1554C209.931 35.1256 208.927 35.8864 207.714 36.4377C206.502 36.989 205.145 37.2646 203.646 37.2646C201.838 37.2646 200.228 36.8787 198.817 36.1069C197.405 35.3351 196.303 34.2326 195.509 32.7992C194.715 31.3659 194.318 29.69 194.318 27.7715C194.318 25.8531 194.704 24.1772 195.476 22.7438C196.27 21.3105 197.372 20.2079 198.784 19.4362C200.195 18.6644 201.816 18.2785 203.646 18.2785C205.432 18.2785 207.02 18.6533 208.409 19.4031C209.798 20.1528 210.879 21.2223 211.651 22.6115C212.444 24.0008 212.841 25.6215 212.841 27.4738ZM207.053 25.9854C207.053 25.0151 206.722 24.2433 206.061 23.67C205.399 23.0967 204.572 22.81 203.58 22.81C202.632 22.81 201.827 23.0856 201.165 23.6369C200.526 24.1882 200.129 24.971 199.974 25.9854H207.053Z" fill="#E5E5E5"/>
<path d="M0 35.832H209.028L215 40.132H5.97222L0 35.832Z" fill="#EFCB30"/>
</svg>
