<svg width="1093" height="103" viewBox="0 0 1093 103" fill="none" xmlns="http://www.w3.org/2000/svg">
<path d="M2.03662 49.4423C44.6966 35.9165 301.217 4.41803 491.652 31.4696C729.695 65.2841 829.519 61.7638 933 36.5651C1015.78 16.4061 1075.48 1.32991 1114 2.19458" stroke="#515257" stroke-width="3.65657"/>
<path d="M1105.59 78.3463C1062.93 64.8205 994.431 16.4612 763.701 38.1396C595.793 53.9154 366.963 78.3463 221.066 47.3413C76.905 16.7053 40.5528 23.8719 2.03687 24.7365" stroke="#E50913" stroke-opacity="0.61" stroke-width="3.65657"/>
<path d="M1096.45 53.7173C934.828 40.2661 876.228 62.5363 688.375 86.7771C410.11 122.685 440.459 41.9385 259.825 41.9385C100.398 41.9385 17.5286 101.925 -21.0001 101.618" stroke="white" stroke-opacity="0.56" stroke-width="1.46263" stroke-dasharray="3.66 3.66"/>
</svg>
