<svg width="157" height="47" viewBox="0 0 157 47" fill="none" xmlns="http://www.w3.org/2000/svg">
<path d="M45.1886 25.9687C45.1886 21.0867 48.7607 17.5729 53.6685 17.5729C58.5763 17.5729 62.1484 21.0867 62.1484 25.9687C62.1484 30.8506 58.5763 34.3644 53.6685 34.3644C48.7918 34.3644 45.1886 30.8506 45.1886 25.9687ZM58.6073 25.9687C58.6073 22.9213 56.6504 20.6203 53.6685 20.6203C50.6865 20.6203 48.7607 22.9213 48.7607 25.9687C48.7607 28.9849 50.6865 31.3171 53.6685 31.3171C56.6504 31.286 58.6073 28.9849 58.6073 25.9687Z" fill="white"/>
<path d="M63.4838 31.7815L65.3475 29.1384C66.4968 30.32 68.2673 31.3151 70.5038 31.3151C72.3985 31.3151 73.3304 30.4444 73.3304 29.5115C73.3304 26.6508 63.9808 28.6098 63.9808 22.484C63.9808 19.7787 66.3104 17.5398 70.1311 17.5398C72.7092 17.5398 74.8524 18.3172 76.4677 19.8097L74.5418 22.3285C73.2372 21.1158 71.4667 20.5561 69.8204 20.5561C68.3295 20.5561 67.5219 21.2091 67.5219 22.173C67.5219 24.7539 76.8404 23.0126 76.8404 29.0762C76.8404 32.0613 74.7282 34.3002 70.3485 34.3002C67.2423 34.3624 65.0058 33.3052 63.4838 31.7815Z" fill="white"/>
<path d="M93.3032 34.0821V22.7011L88.7369 34.0821H87.2151L82.6491 22.7011V34.0821H79.2012V17.8191H84.0468L87.9917 27.6453L91.9364 17.8191H96.8131V34.0509H93.3032V34.0821Z" fill="white"/>
<path d="M99.2053 25.9671C99.2053 21.0851 102.777 17.5713 107.685 17.5713C112.593 17.5713 116.165 21.0851 116.165 25.9671C116.165 30.8491 112.593 34.3628 107.685 34.3628C102.777 34.3628 99.2053 30.8491 99.2053 25.9671ZM112.624 25.9671C112.624 22.9197 110.667 20.6186 107.685 20.6186C104.703 20.6186 102.777 22.9197 102.777 25.9671C102.777 28.9833 104.703 31.3154 107.685 31.3154C110.667 31.2844 112.624 28.9833 112.624 25.9671Z" fill="white"/>
<path d="M117.501 31.7815L119.364 29.1384C120.514 30.32 122.284 31.3151 124.52 31.3151C126.415 31.3151 127.347 30.4444 127.347 29.5115C127.347 26.6508 117.997 28.6098 117.997 22.484C117.997 19.7787 120.328 17.5398 124.148 17.5398C126.726 17.5398 128.869 18.3172 130.485 19.8097L128.559 22.3285C127.254 21.1158 125.484 20.5561 123.838 20.5561C122.346 20.5561 121.538 21.2091 121.538 22.173C121.538 24.7539 130.857 23.0126 130.857 29.0762C130.857 32.0613 128.745 34.3002 124.365 34.3002C121.259 34.3624 119.023 33.3052 117.501 31.7815Z" fill="white"/>
<path d="M133.187 34.0821V17.8191H136.666V34.0509H133.187V34.0821Z" fill="white"/>
<path d="M138.778 31.7815L140.642 29.1384C141.791 30.32 143.562 31.3151 145.798 31.3151C147.693 31.3151 148.625 30.4444 148.625 29.5115C148.625 26.6508 139.275 28.6098 139.275 22.484C139.275 19.7787 141.604 17.5398 145.425 17.5398C148.003 17.5398 150.147 18.3172 151.762 19.8097L149.836 22.3285C148.532 21.1158 146.761 20.5561 145.115 20.5561C143.624 20.5561 142.816 21.2091 142.816 22.173C142.816 24.7539 152.135 23.0126 152.135 29.0762C152.135 32.0613 150.023 34.3002 145.643 34.3002C142.505 34.3624 140.269 33.3052 138.778 31.7815Z" fill="white"/>
<path d="M39.0669 11.8739C38.6989 10.4552 37.516 9.03654 35.3868 7.45724C33.6782 6.19916 31.8645 5.47644 30.4187 5.47644C30.1296 5.47644 29.8667 5.5032 29.6038 5.55674C28.9467 5.69058 28.3684 6.17239 28.0004 6.89512C27.5535 7.75168 27.4484 8.9027 27.7376 9.59866C27.8427 9.8128 27.9741 10.0804 28.1318 10.3214C26.7387 11.1779 25.9501 11.4188 25.845 11.4456C29.4725 12.6769 32.4954 15.2466 34.388 18.5926L34.4142 18.2713C34.4931 17.388 34.7559 16.3708 35.1239 15.3269C35.492 15.434 35.86 15.4875 36.228 15.4875C37.2006 15.4875 38.0417 15.086 38.5675 14.3633C39.0932 13.6405 39.3035 12.6769 39.0669 11.8739Z" fill="#5E12A0"/>
<path d="M35.2816 14.5507C37.6737 15.22 38.6462 13.3463 38.3308 12.0881C37.9891 10.8301 36.885 9.54524 34.9398 8.09978C32.9947 6.65434 31.0233 6.06544 29.7615 6.33312C28.4997 6.6008 28.1317 8.55483 28.4472 9.30433C28.5786 9.59877 28.8677 10.027 29.262 10.5088C28.7626 10.8568 28.2895 11.1245 27.8951 11.3654C30.3135 12.4629 32.4164 14.1761 33.9936 16.3175C34.1775 15.5947 34.4404 14.9523 34.677 14.3902C34.861 14.417 35.0713 14.4705 35.2816 14.5507Z" fill="url(#paint0_radial_687_2654)"/>
<path d="M21.5864 40.7828C29.7017 40.7828 36.2804 34.0836 36.2804 25.8198C36.2804 17.5559 29.7017 10.8567 21.5864 10.8567C13.4712 10.8567 6.89246 17.5559 6.89246 25.8198C6.89246 34.0836 13.4712 40.7828 21.5864 40.7828Z" fill="url(#paint1_radial_687_2654)"/>
<path opacity="0.6" d="M37.1216 10.8567C35.1239 8.71525 33.4416 8.15313 31.4175 7.69809C29.8403 7.32334 30.2609 6.41324 32.1798 6.60062C31.2598 6.2794 30.3923 6.1991 29.7615 6.33293C28.4997 6.60062 28.1318 8.55465 28.4472 9.30415C28.5786 9.59859 28.8677 10.0269 29.262 10.5087C28.5523 10.9905 27.9477 11.3385 27.4482 11.6062C27.6849 11.7133 27.974 11.847 28.3157 12.0344C29.2095 12.5163 30.1821 13.3193 30.1821 13.3193C28.71 12.0344 29.0254 11.4456 31.0495 10.0001C31.6803 9.54506 32.837 9.59859 33.9147 10.1607C34.9924 10.7228 36.2542 12.1415 36.2542 12.1415L35.045 14.497C35.1239 14.5238 35.2027 14.5506 35.2816 14.5774C36.0439 14.7915 36.6484 14.738 37.1216 14.5506C37.6736 14.2026 39.1194 13.0249 37.1216 10.8567Z" fill="#A98698"/>
<path d="M31.3913 8.983C31.917 9.19714 32.6004 9.57189 33.4416 10.134C34.4405 10.8032 35.3079 11.5527 35.8599 12.1416C34.9399 13.3729 34.3353 15.0592 33.9673 16.237C34.1514 16.5047 34.3617 16.7724 34.5456 17.0401C34.7296 16.3709 35.0451 15.3804 35.4657 14.3901C35.5709 14.4169 35.7022 14.4169 35.8337 14.4169C36.1491 14.4169 36.5171 14.3633 36.8063 14.1224C37.0166 13.9617 37.2531 13.6673 37.2268 13.132C37.2268 12.6234 36.8325 11.981 36.0177 11.2048C35.4394 10.6426 34.6508 10.0269 33.8622 9.46482C31.6016 7.93906 30.0244 7.51078 29.3147 8.23351C28.8416 8.71533 28.8941 9.30422 29.0518 9.7325C28.2107 10.2946 27.501 10.6961 27.0278 10.9638C27.3433 11.0709 27.6324 11.2048 27.9478 11.3385C28.789 10.8835 29.9981 10.1073 31.3913 8.983ZM36.3594 12.8108C36.4383 12.9446 36.4645 13.0785 36.4645 13.1587C36.4645 13.3996 36.3857 13.4799 36.3331 13.5335C36.2279 13.6138 36.0176 13.6673 35.8337 13.6673C35.9914 13.3462 36.1754 13.0785 36.3594 12.8108ZM29.8667 8.8224C29.9455 8.7421 30.1559 8.68856 30.4976 8.7421C30.2347 8.95624 29.9719 9.14361 29.709 9.33098C29.6827 9.14361 29.709 8.95624 29.8667 8.8224Z" fill="#5E12A0"/>
<path d="M21.5864 9.97339C12.9908 9.97339 6.0249 17.0669 6.0249 25.8198C6.0249 34.5729 12.9908 41.6663 21.5864 41.6663C30.1819 41.6663 37.1477 34.5729 37.1477 25.8198C37.1477 17.0669 30.1556 9.97339 21.5864 9.97339ZM21.5864 40.7829C13.4639 40.7829 6.89235 34.0911 6.89235 25.8198C6.89235 17.5487 13.4639 10.8568 21.5864 10.8568C29.7088 10.8568 36.2803 17.5487 36.2803 25.8198C36.2803 34.0911 29.6825 40.7829 21.5864 40.7829Z" fill="#5E12A0"/>
<path opacity="0.6" d="M21.5864 40.7828C29.7017 40.7828 36.2804 34.0836 36.2804 25.8198C36.2804 17.5559 29.7017 10.8567 21.5864 10.8567C13.4712 10.8567 6.89246 17.5559 6.89246 25.8198C6.89246 34.0836 13.4712 40.7828 21.5864 40.7828Z" fill="url(#paint2_linear_687_2654)"/>
<path opacity="0.6" d="M21.4812 38.9627C13.4639 37.651 8.02262 29.9688 9.3369 21.8046C9.91523 18.191 11.7026 15.1128 14.2262 12.891C10.5461 15.0592 7.81233 18.8334 7.07631 23.4375C5.78828 31.6016 11.2295 39.2839 19.2205 40.5955C23.6892 41.345 28.0001 39.9263 31.1807 37.1424C28.3681 38.8021 24.9509 39.5248 21.4812 38.9627Z" fill="#A98698"/>
<path opacity="0.6" d="M23.9257 11.0707C20.2194 10.4551 16.6182 11.3116 13.6742 13.2121C13.6216 13.2657 13.5691 13.3192 13.5691 13.3192C14.6993 12.6233 16.3553 12.0076 16.3553 12.0076C12.097 14.5238 10.7827 17.3879 10.7827 17.3879C12.4388 14.1223 17.3017 11.8203 21.1131 11.6596C24.9247 11.4991 27.4219 12.6501 30.471 15.1394C33.5202 17.6556 35.3603 22.795 35.1763 26.8637C35.0185 30.9323 32.9156 34.2248 32.9156 34.2248C34.3614 32.3243 35.2289 30.9323 35.7808 29.5136C35.886 29.0854 35.9911 28.6571 36.0437 28.202C37.358 20.0647 31.943 12.3824 23.9257 11.0707Z" fill="url(#paint3_linear_687_2654)"/>
<path d="M35.5444 25.6859C35.5444 33.5288 29.2882 39.8996 21.5865 39.8996C13.8846 39.8996 7.60217 33.5288 7.60217 25.6859H35.5444Z" fill="url(#paint4_linear_687_2654)"/>
<g opacity="0.6">
<path opacity="0.6" d="M34.4405 25.6859C34.4405 33.3415 28.4999 39.6051 21.0345 39.8996C21.2186 39.8996 21.4026 39.8996 21.5865 39.8996C29.2884 39.8996 35.5445 33.5288 35.5445 25.6859H34.4405Z" fill="url(#paint5_linear_687_2654)"/>
</g>
<g opacity="0.7">
<path opacity="0.7" d="M9.57365 25.6859H7.60217C7.60217 33.5288 13.8583 39.8996 21.5601 39.8996C21.9019 39.8996 22.2173 39.8996 22.5327 39.8728C15.3041 39.3375 9.57365 33.1808 9.57365 25.6859Z" fill="url(#paint6_linear_687_2654)"/>
</g>
<path d="M35.5181 25.8197C35.5181 24.1869 32.7318 23.25 29.0254 22.9288C26.3443 22.7146 23.6368 22.9823 20.535 23.946C17.8538 24.749 15.4354 24.6151 13.6743 24.401C9.75761 23.946 7.60217 23.8924 7.60217 25.8197C7.60217 28.6035 13.1748 32.0834 21.5339 30.8788C25.7659 30.2631 27.9477 29.0051 30.4449 28.1485C33.1524 27.2384 35.5181 27.2651 35.5181 25.8197Z" fill="url(#paint7_linear_687_2654)"/>
<path d="M26.1603 19.0744C27.4668 19.0744 28.526 17.9958 28.526 16.6653C28.526 15.3348 27.4668 14.2562 26.1603 14.2562C24.8537 14.2562 23.7946 15.3348 23.7946 16.6653C23.7946 17.9958 24.8537 19.0744 26.1603 19.0744Z" fill="white"/>
<path d="M30.0242 20.8678C30.576 20.8678 31.0231 20.4125 31.0231 19.8506C31.0231 19.2889 30.576 18.8335 30.0242 18.8335C29.4726 18.8335 29.0254 19.2889 29.0254 19.8506C29.0254 20.4125 29.4726 20.8678 30.0242 20.8678Z" fill="white"/>
<g opacity="0.6">
<path opacity="0.6" d="M33.5992 14.738C33.573 14.738 33.5466 14.738 33.5466 14.738C33.3889 14.7112 33.2838 14.5507 33.31 14.3632C33.5466 13.132 34.5455 11.9541 34.5981 11.9006C34.7032 11.7668 34.9135 11.7668 35.0187 11.8739C35.1501 11.9809 35.1501 12.195 35.0449 12.3022C35.0187 12.3289 34.0986 13.4264 33.8884 14.4971C33.862 14.6577 33.7307 14.738 33.5992 14.738Z" fill="url(#paint8_linear_687_2654)"/>
</g>
<path opacity="0.2" d="M20.6156 36.982C21.022 36.982 21.3515 36.6464 21.3515 36.2326C21.3515 35.8186 21.022 35.483 20.6156 35.483C20.209 35.483 19.8795 35.8186 19.8795 36.2326C19.8795 36.6464 20.209 36.982 20.6156 36.982Z" fill="white"/>
<g opacity="0.4">
<path opacity="0.6" d="M20.1933 36.7152C19.9042 36.4207 19.9042 35.9389 20.1933 35.6445C20.2459 35.5909 20.2985 35.5642 20.351 35.5106C20.2459 35.5374 20.1671 35.5909 20.0882 35.6713C19.799 35.9657 19.799 36.4475 20.0882 36.742C20.3248 36.9829 20.6928 37.0364 20.982 36.8758C20.719 36.9829 20.4036 36.9293 20.1933 36.7152Z" fill="url(#paint9_linear_687_2654)"/>
</g>
<path opacity="0.3" d="M20.8766 36.0182C20.9637 36.0182 21.0344 35.9464 21.0344 35.8577C21.0344 35.769 20.9637 35.697 20.8766 35.697C20.7895 35.697 20.7189 35.769 20.7189 35.8577C20.7189 35.9464 20.7895 36.0182 20.8766 36.0182Z" fill="white"/>
<path opacity="0.2" d="M24.4534 36.6071C24.8599 36.6071 25.1894 36.2716 25.1894 35.8577C25.1894 35.4437 24.8599 35.1082 24.4534 35.1082C24.0469 35.1082 23.7174 35.4437 23.7174 35.8577C23.7174 36.2716 24.0469 36.6071 24.4534 36.6071Z" fill="white"/>
<g opacity="0.4">
<path opacity="0.6" d="M24.0311 36.3403C23.7419 36.0458 23.7419 35.564 24.0311 35.2696C24.0837 35.216 24.1362 35.1893 24.1888 35.1357C24.0837 35.1625 24.0048 35.216 23.926 35.2964C23.6368 35.5908 23.6368 36.0726 23.926 36.3671C24.1625 36.608 24.5306 36.6615 24.8196 36.5009C24.5568 36.608 24.2414 36.5544 24.0311 36.3403Z" fill="url(#paint10_linear_687_2654)"/>
</g>
<path opacity="0.3" d="M24.7145 35.6435C24.8016 35.6435 24.8722 35.5716 24.8722 35.4829C24.8722 35.3942 24.8016 35.3223 24.7145 35.3223C24.6274 35.3223 24.5568 35.3942 24.5568 35.4829C24.5568 35.5716 24.6274 35.6435 24.7145 35.6435Z" fill="white"/>
<path opacity="0.2" d="M22.559 38.3472C22.8639 38.3472 23.111 38.0955 23.111 37.7851C23.111 37.4746 22.8639 37.2229 22.559 37.2229C22.2541 37.2229 22.007 37.4746 22.007 37.7851C22.007 38.0955 22.2541 38.3472 22.559 38.3472Z" fill="white"/>
<g opacity="0.4">
<path opacity="0.6" d="M22.2437 38.1337C22.0334 37.9196 22.0334 37.5449 22.2437 37.3307C22.2699 37.3039 22.3225 37.2772 22.3488 37.2504C22.2699 37.2772 22.2173 37.3307 22.1648 37.3842C21.9545 37.5983 21.9545 37.9731 22.1648 38.1872C22.3488 38.3746 22.6116 38.4014 22.8482 38.2676C22.6379 38.3479 22.4014 38.2944 22.2437 38.1337Z" fill="url(#paint11_linear_687_2654)"/>
</g>
<path opacity="0.3" d="M22.7431 37.5977C22.8011 37.5977 22.8482 37.5497 22.8482 37.4906C22.8482 37.4314 22.8011 37.3835 22.7431 37.3835C22.685 37.3835 22.6379 37.4314 22.6379 37.4906C22.6379 37.5497 22.685 37.5977 22.7431 37.5977Z" fill="white"/>
<path opacity="0.2" d="M25.9501 37.9456C26.2549 37.9456 26.502 37.694 26.502 37.3835C26.502 37.0731 26.2549 36.8214 25.9501 36.8214C25.6452 36.8214 25.3981 37.0731 25.3981 37.3835C25.3981 37.694 25.6452 37.9456 25.9501 37.9456Z" fill="white"/>
<g opacity="0.4">
<path opacity="0.6" d="M25.6348 37.7322C25.4245 37.518 25.4245 37.1433 25.6348 36.9292C25.661 36.9024 25.7136 36.8757 25.7399 36.8489C25.661 36.8757 25.6084 36.9291 25.5559 36.9827C25.3456 37.1968 25.3456 37.5716 25.5559 37.7857C25.7399 37.9732 26.0027 37.9999 26.2394 37.866C26.0291 37.9464 25.7925 37.8928 25.6348 37.7322Z" fill="url(#paint12_linear_687_2654)"/>
</g>
<path opacity="0.3" d="M26.1342 37.1961C26.1923 37.1961 26.2394 37.1482 26.2394 37.089C26.2394 37.0299 26.1923 36.9819 26.1342 36.9819C26.0762 36.9819 26.0291 37.0299 26.0291 37.089C26.0291 37.1482 26.0762 37.1961 26.1342 37.1961Z" fill="white"/>
<path opacity="0.2" d="M17.4858 36.7144C18.1536 36.7144 18.6949 36.163 18.6949 35.483C18.6949 34.803 18.1536 34.2517 17.4858 34.2517C16.818 34.2517 16.2766 34.803 16.2766 35.483C16.2766 36.163 16.818 36.7144 17.4858 36.7144Z" fill="white"/>
<g opacity="0.4">
<path opacity="0.6" d="M16.803 36.2593C16.3298 35.7775 16.3298 35.0012 16.803 34.5194C16.8818 34.4391 16.9607 34.3855 17.0659 34.332C16.9082 34.3855 16.7767 34.4927 16.6453 34.5997C16.1721 35.0816 16.1721 35.8578 16.6453 36.3396C17.0396 36.7411 17.6442 36.8214 18.1173 36.5269C17.6705 36.7143 17.1447 36.6341 16.803 36.2593Z" fill="url(#paint13_linear_687_2654)"/>
</g>
<path opacity="0.3" d="M17.9064 35.1082C18.0516 35.1082 18.1693 34.9883 18.1693 34.8406C18.1693 34.6927 18.0516 34.5729 17.9064 34.5729C17.7613 34.5729 17.6436 34.6927 17.6436 34.8406C17.6436 34.9883 17.7613 35.1082 17.9064 35.1082Z" fill="white"/>
<path opacity="0.2" d="M28.2902 33.6895C28.958 33.6895 29.4994 33.1382 29.4994 32.4582C29.4994 31.7782 28.958 31.2269 28.2902 31.2269C27.6224 31.2269 27.0811 31.7782 27.0811 32.4582C27.0811 33.1382 27.6224 33.6895 28.2902 33.6895Z" fill="white"/>
<g opacity="0.4">
<path opacity="0.6" d="M27.5798 33.2344C27.1067 32.7526 27.1067 31.9764 27.5798 31.4946C27.6587 31.4142 27.7375 31.3607 27.8427 31.3071C27.685 31.3607 27.5536 31.4678 27.4221 31.5748C26.949 32.0566 26.949 32.833 27.4221 33.3148C27.8164 33.7162 28.421 33.7966 28.8942 33.5021C28.4473 33.6894 27.9478 33.6092 27.5798 33.2344Z" fill="url(#paint14_linear_687_2654)"/>
</g>
<path opacity="0.3" d="M28.7101 32.0835C28.8553 32.0835 28.9729 31.9637 28.9729 31.8158C28.9729 31.6679 28.8553 31.5481 28.7101 31.5481C28.5649 31.5481 28.4471 31.6679 28.4471 31.8158C28.4471 31.9637 28.5649 32.0835 28.7101 32.0835Z" fill="white"/>
<defs>
<radialGradient id="paint0_radial_687_2654" cx="0" cy="0" r="1" gradientUnits="userSpaceOnUse" gradientTransform="translate(37.8513 10.4018) scale(11.7485 11.9637)">
<stop stop-color="#FFEAFF" stop-opacity="0.6"/>
<stop offset="0.6807" stop-color="#A087C9"/>
<stop offset="1" stop-color="#10002F"/>
</radialGradient>
<radialGradient id="paint1_radial_687_2654" cx="0" cy="0" r="1" gradientUnits="userSpaceOnUse" gradientTransform="translate(31.3151 15.5039) scale(28.7442 29.2707)">
<stop stop-color="#FFEAFF" stop-opacity="0.6"/>
<stop offset="0.6807" stop-color="#A087C9"/>
<stop offset="1" stop-color="#10002F"/>
</radialGradient>
<linearGradient id="paint2_linear_687_2654" x1="19.2294" y1="40.5706" x2="24.0984" y2="11.0721" gradientUnits="userSpaceOnUse">
<stop stop-color="#81FFFF"/>
<stop offset="0.6202" stop-color="white" stop-opacity="0"/>
</linearGradient>
<linearGradient id="paint3_linear_687_2654" x1="31.9418" y1="15.6578" x2="19.59" y2="26.7871" gradientUnits="userSpaceOnUse">
<stop offset="0.2888" stop-color="white"/>
<stop offset="0.7796" stop-color="white" stop-opacity="0"/>
</linearGradient>
<linearGradient id="paint4_linear_687_2654" x1="7.614" y1="32.7844" x2="35.5376" y2="32.7844" gradientUnits="userSpaceOnUse">
<stop stop-color="#0002E9"/>
<stop offset="0.9952" stop-color="#FF00C7"/>
</linearGradient>
<linearGradient id="paint5_linear_687_2654" x1="36.8596" y1="26.9332" x2="21.4009" y2="41.2797" gradientUnits="userSpaceOnUse">
<stop offset="0.2888" stop-color="white"/>
<stop offset="0.7796" stop-color="white" stop-opacity="0"/>
</linearGradient>
<linearGradient id="paint6_linear_687_2654" x1="7.614" y1="32.7844" x2="22.553" y2="32.7844" gradientUnits="userSpaceOnUse">
<stop stop-color="#000292"/>
<stop offset="0.9952" stop-color="#7D00C7"/>
</linearGradient>
<linearGradient id="paint7_linear_687_2654" x1="7.63274" y1="27.0005" x2="35.5188" y2="27.0005" gradientUnits="userSpaceOnUse">
<stop stop-color="#000292"/>
<stop offset="0.9952" stop-color="#BE00C7"/>
</linearGradient>
<linearGradient id="paint8_linear_687_2654" x1="35.0614" y1="11.7703" x2="33.0039" y2="15.0534" gradientUnits="userSpaceOnUse">
<stop offset="0.2888" stop-color="white"/>
<stop offset="0.7796" stop-color="white" stop-opacity="0"/>
</linearGradient>
<linearGradient id="paint9_linear_687_2654" x1="19.8706" y1="36.2563" x2="20.9828" y2="36.2563" gradientUnits="userSpaceOnUse">
<stop offset="0.2888" stop-color="white"/>
<stop offset="0.7796" stop-color="white" stop-opacity="0"/>
</linearGradient>
<linearGradient id="paint10_linear_687_2654" x1="23.7056" y1="35.8763" x2="24.8178" y2="35.8763" gradientUnits="userSpaceOnUse">
<stop offset="0.2888" stop-color="white"/>
<stop offset="0.7796" stop-color="white" stop-opacity="0"/>
</linearGradient>
<linearGradient id="paint11_linear_687_2654" x1="22.0036" y1="37.7921" x2="22.8386" y2="37.7921" gradientUnits="userSpaceOnUse">
<stop offset="0.2888" stop-color="white"/>
<stop offset="0.7796" stop-color="white" stop-opacity="0"/>
</linearGradient>
<linearGradient id="paint12_linear_687_2654" x1="25.3834" y1="37.3896" x2="26.2183" y2="37.3896" gradientUnits="userSpaceOnUse">
<stop offset="0.2888" stop-color="white"/>
<stop offset="0.7796" stop-color="white" stop-opacity="0"/>
</linearGradient>
<linearGradient id="paint13_linear_687_2654" x1="16.2784" y1="35.5144" x2="18.0945" y2="35.5144" gradientUnits="userSpaceOnUse">
<stop offset="0.2888" stop-color="white"/>
<stop offset="0.7796" stop-color="white" stop-opacity="0"/>
</linearGradient>
<linearGradient id="paint14_linear_687_2654" x1="27.0653" y1="32.4886" x2="28.8815" y2="32.4886" gradientUnits="userSpaceOnUse">
<stop offset="0.2888" stop-color="white"/>
<stop offset="0.7796" stop-color="white" stop-opacity="0"/>
</linearGradient>
</defs>
</svg>
