<svg width="138" height="19" viewBox="0 0 138 19" fill="none" xmlns="http://www.w3.org/2000/svg">
<rect x="0.933594" width="18.0444" height="18.0437" rx="1.06995" fill="black"/>
<path d="M26.1773 7.95981V10.4631H29.7246V12.79H26.1773V15.5048H30.7431V17.92H23.1628V5.54469H30.7431V7.95981H26.1773Z" fill="black"/>
<path d="M40.8308 17.8452L38.5019 13.1736H37.2894V17.8452H34.275V5.46992H39.3344C40.3098 5.46992 41.1384 5.64033 41.82 5.98115C42.5134 6.32197 43.0305 6.79206 43.3713 7.39144C43.7121 7.97906 43.8825 8.63719 43.8825 9.36584C43.8825 10.1885 43.6475 10.923 43.1774 11.5694C42.7191 12.2158 42.0374 12.6741 41.1325 12.9444L43.9883 17.8452H40.8308ZM37.2894 11.0406H39.1581C39.7104 11.0406 40.1218 10.9054 40.3921 10.6351C40.6741 10.3648 40.8152 9.98284 40.8152 9.48924C40.8152 9.01914 40.6741 8.64894 40.3921 8.37864C40.1218 8.10833 39.7104 7.97318 39.1581 7.97318H37.2894V11.0406Z" fill="black"/>
<path d="M51.4983 18.0434C50.5934 18.0434 49.7825 17.8965 49.0656 17.6027C48.3487 17.3088 47.7728 16.874 47.338 16.2981C46.9149 15.7223 46.6916 15.0289 46.6681 14.218H49.8765C49.9235 14.6763 50.0821 15.0289 50.3524 15.2757C50.6227 15.5107 50.9753 15.6282 51.4102 15.6282C51.8568 15.6282 52.2093 15.5284 52.4679 15.3286C52.7264 15.117 52.8557 14.8291 52.8557 14.4648C52.8557 14.1592 52.7499 13.9065 52.5384 13.7067C52.3386 13.5069 52.0859 13.3424 51.7804 13.2131C51.4865 13.0839 51.0635 12.9369 50.5111 12.7724C49.7119 12.5256 49.0597 12.2788 48.5543 12.032C48.049 11.7852 47.6141 11.4209 47.2498 10.939C46.8855 10.4572 46.7033 9.82844 46.7033 9.05278C46.7033 7.90105 47.1205 7.00199 47.955 6.35561C48.7894 5.69747 49.8765 5.36841 51.2162 5.36841C52.5795 5.36841 53.6784 5.69747 54.5128 6.35561C55.3472 7.00199 55.7938 7.90693 55.8526 9.07041H52.5913C52.5678 8.67083 52.4209 8.35939 52.1506 8.1361C51.8803 7.90105 51.5336 7.78352 51.1105 7.78352C50.7462 7.78352 50.4523 7.88342 50.229 8.08321C50.0057 8.27125 49.8941 8.54743 49.8941 8.91175C49.8941 9.31134 50.0821 9.62277 50.4582 9.84607C50.8343 10.0694 51.4219 10.3103 52.2211 10.5688C53.0202 10.8391 53.6666 11.0977 54.1602 11.3445C54.6656 11.5913 55.1004 11.9497 55.4647 12.4198C55.8291 12.8899 56.0112 13.4952 56.0112 14.2356C56.0112 14.9407 55.8291 15.5812 55.4647 16.1571C55.1122 16.733 54.5951 17.1913 53.9134 17.5321C53.2318 17.873 52.4267 18.0434 51.4983 18.0434Z" fill="black"/>
<path d="M62.2911 5.54469V17.92H59.2766V5.54469H62.2911Z" fill="black"/>
<path d="M70.3636 18.0434C69.4587 18.0434 68.6478 17.8965 67.9309 17.6027C67.214 17.3088 66.6381 16.874 66.2033 16.2981C65.7802 15.7223 65.5569 15.0289 65.5334 14.218H68.7418C68.7888 14.6763 68.9475 15.0289 69.2178 15.2757C69.4881 15.5107 69.8407 15.6282 70.2755 15.6282C70.7221 15.6282 71.0747 15.5284 71.3332 15.3286C71.5918 15.117 71.721 14.8291 71.721 14.4648C71.721 14.1592 71.6153 13.9065 71.4037 13.7067C71.2039 13.5069 70.9513 13.3424 70.6457 13.2131C70.3519 13.0839 69.9288 12.9369 69.3764 12.7724C68.5773 12.5256 67.925 12.2788 67.4197 12.032C66.9143 11.7852 66.4795 11.4209 66.1152 10.939C65.7508 10.4572 65.5687 9.82844 65.5687 9.05278C65.5687 7.90105 65.9859 7.00199 66.8203 6.35561C67.6547 5.69747 68.7418 5.36841 70.0816 5.36841C71.4449 5.36841 72.5437 5.69747 73.3781 6.35561C74.2126 7.00199 74.6591 7.90693 74.7179 9.07041H71.4566C71.4331 8.67083 71.2862 8.35939 71.0159 8.1361C70.7456 7.90105 70.3989 7.78352 69.9758 7.78352C69.6115 7.78352 69.3177 7.88342 69.0944 8.08321C68.8711 8.27125 68.7594 8.54743 68.7594 8.91175C68.7594 9.31134 68.9475 9.62277 69.3236 9.84607C69.6996 10.0694 70.2873 10.3103 71.0864 10.5688C71.8856 10.8391 72.532 11.0977 73.0256 11.3445C73.5309 11.5913 73.9658 11.9497 74.3301 12.4198C74.6944 12.8899 74.8766 13.4952 74.8766 14.2356C74.8766 14.9407 74.6944 15.5812 74.3301 16.1571C73.9775 16.733 73.4604 17.1913 72.7788 17.5321C72.0971 17.873 71.2921 18.0434 70.3636 18.0434Z" fill="black"/>
<path d="M87.0444 5.54469V7.95981H83.7655V17.92H80.751V7.95981H77.4721V5.54469H87.0444Z" fill="black"/>
<path d="M92.9821 7.95981V10.4631H96.5294V12.79H92.9821V15.5048H97.5479V17.92H89.9676V5.54469H97.5479V7.95981H92.9821Z" fill="black"/>
<path d="M111.986 17.92H108.971L103.93 10.2868V17.92H100.915V5.54469H103.93L108.971 13.2131V5.54469H111.986V17.92Z" fill="black"/>
<path d="M115.07 11.7147C115.07 10.4925 115.335 9.40535 115.863 8.45341C116.392 7.48971 117.127 6.74344 118.067 6.21458C119.019 5.67397 120.094 5.40366 121.293 5.40366C122.762 5.40366 124.02 5.79149 125.066 6.56715C126.112 7.34281 126.811 8.40053 127.163 9.7403H123.849C123.602 9.22319 123.25 8.82949 122.791 8.55918C122.345 8.28888 121.834 8.15373 121.258 8.15373C120.329 8.15373 119.577 8.47692 119.001 9.1233C118.425 9.76968 118.138 10.6335 118.138 11.7147C118.138 12.7959 118.425 13.6597 119.001 14.3061C119.577 14.9525 120.329 15.2757 121.258 15.2757C121.834 15.2757 122.345 15.1405 122.791 14.8702C123.25 14.5999 123.602 14.2062 123.849 13.6891H127.163C126.811 15.0289 126.112 16.0866 125.066 16.8622C124.02 17.6262 122.762 18.0081 121.293 18.0081C120.094 18.0081 119.019 17.7437 118.067 17.2148C117.127 16.6742 116.392 15.9279 115.863 14.976C115.335 14.024 115.07 12.9369 115.07 11.7147Z" fill="black"/>
<path d="M133.434 7.95981V10.4631H136.981V12.79H133.434V15.5048H138V17.92H130.42V5.54469H138V7.95981H133.434Z" fill="black"/>
<path d="M14.7159 9.57855C14.7159 10.3022 14.5498 10.9666 14.2176 11.5716C13.8854 12.1648 13.3753 12.6452 12.6872 13.013C11.9992 13.3807 11.145 13.5646 10.1248 13.5646H8.2385V18.049H5.19556V5.55688H10.1248C11.1213 5.55688 11.9636 5.7289 12.6517 6.07294C13.3397 6.41698 13.8558 6.89151 14.1998 7.49654C14.5439 8.10157 14.7159 8.79557 14.7159 9.57855ZM9.89343 11.1445C10.4747 11.1445 10.9077 11.0081 11.1925 10.7352C11.4772 10.4624 11.6195 10.0768 11.6195 9.57855C11.6195 9.08029 11.4772 8.69474 11.1925 8.42188C10.9077 8.14902 10.4747 8.01259 9.89343 8.01259H8.2385V11.1445H9.89343Z" fill="white"/>
<path d="M14.7159 2.39185H5.19556V4.40226H14.7159V2.39185Z" fill="#E50913"/>
</svg>
