<svg width="463" height="287" viewBox="0 0 463 287" fill="none" xmlns="http://www.w3.org/2000/svg">
<mask id="mask0" mask-type="alpha" maskUnits="userSpaceOnUse" x="0" y="0" width="463" height="287">
<rect x="0.160538" y="0.160538" width="462.671" height="285.758" fill="url(#paint0_radial)" stroke="#282828" stroke-width="0.321076"/>
</mask>
<g mask="url(#mask0)">
<g opacity="0.15">
<path opacity="0.05" d="M-51.7759 412.101V-148.178H517.015V412.101H-51.7759ZM-16.9519 378.051H482.191V-114.128H-16.9519V378.051Z" fill="#555555"/>
<path opacity="0.5" d="M-61.217 -157.619V421.697H526.611V-157.619H-61.217ZM419.663 -157.31H472.75V-104.996H419.663V-157.31ZM472.75 -52.3734H419.663V-104.687H472.75V-52.3734ZM472.75 0.249435H419.663V-52.0639H472.75V0.249435ZM472.75 52.8723H419.663V0.558975H472.75V52.8723ZM472.75 105.495H419.663V53.1819H472.75V105.495ZM472.75 158.118H419.663V105.805H472.75V158.118ZM472.75 210.741H419.663V158.428H472.75V210.741ZM472.75 263.364H419.663V211.05H472.75V263.364ZM472.75 315.987H419.663V263.673H472.75V315.987ZM472.75 368.609H419.663V316.296H472.75V368.609ZM-7.51077 316.296H45.5764V368.609H-7.51077V316.296ZM-7.51077 263.673H45.5764V315.987H-7.51077V263.673ZM-7.51077 211.05H45.5764V263.364H-7.51077V211.05ZM-7.51077 158.428H45.5764V210.741H-7.51077V158.428ZM-7.51077 105.805H45.5764V158.118H-7.51077V105.805ZM-7.51077 53.1819H45.5764V105.495H-7.51077V53.1819ZM-7.51077 0.558975H45.5764V52.8723H-7.51077V0.558975ZM-7.51077 -52.0639H45.5764V0.249435H-7.51077V-52.0639ZM-7.51077 -104.687H45.5764V-52.3734H-7.51077V-104.687ZM419.354 -52.3734H366.266V-104.687H419.354V-52.3734ZM419.354 0.249435H366.266V-52.0639H419.354V0.249435ZM419.354 52.8723H366.266V0.558975H419.354V52.8723ZM419.354 105.495H366.266V53.1819H419.354V105.495ZM419.354 158.118H366.266V105.805H419.354V158.118ZM419.354 210.741H366.266V158.428H419.354V210.741ZM419.354 263.364H366.266V211.05H419.354V263.364ZM419.354 315.987H366.266V263.673H419.354V315.987ZM45.886 263.673H98.9731V315.987H45.886V263.673ZM45.886 211.05H98.9731V263.364H45.886V211.05ZM45.886 158.428H98.9731V210.741H45.886V158.428ZM45.886 105.805H98.9731V158.118H45.886V105.805ZM45.886 53.1819H98.9731V105.495H45.886V53.1819ZM45.886 0.558975H98.9731V52.8723H45.886V0.558975ZM45.886 -52.0639H98.9731V0.249435H45.886V-52.0639ZM365.957 0.249435H312.87V-52.0639H365.957V0.249435ZM365.957 52.8723H312.87V0.558975H365.957V52.8723ZM365.957 105.495H312.87V53.1819H365.957V105.495ZM365.957 158.118H312.87V105.805H365.957V158.118ZM365.957 210.741H312.87V158.428H365.957V210.741ZM365.957 263.364H312.87V211.05H365.957V263.364ZM99.2827 211.05H152.37V263.364H99.2827V211.05ZM99.2827 158.428H152.37V210.741H99.2827V158.428ZM99.2827 105.805H152.37V158.118H99.2827V105.805ZM99.2827 53.1819H152.37V105.495H99.2827V53.1819ZM99.2827 0.558975H152.37V52.8723H99.2827V0.558975ZM312.56 52.8723H259.473V0.558975H312.56V52.8723ZM312.56 105.495H259.473V53.1819H312.56V105.495ZM312.56 158.118H259.473V105.805H312.56V158.118ZM312.56 210.741H259.473V158.428H312.56V210.741ZM152.679 158.428H205.767V210.741H152.679V158.428ZM152.679 105.805H205.767V158.118H152.679V105.805ZM152.679 53.1819H205.767V105.495H152.679V53.1819ZM259.163 105.495H206.076V53.1819H259.163V105.495ZM259.163 158.118H206.076V105.805H259.163V158.118ZM206.076 158.428H259.163V210.741H206.076V158.428ZM259.163 52.8723H206.076V0.558975H259.163V52.8723ZM205.767 52.8723H152.679V0.558975H205.767V52.8723ZM152.679 211.05H205.767V263.364H152.679V211.05ZM206.076 211.05H259.163V263.364H206.076V211.05ZM259.473 211.05H312.56V263.364H259.473V211.05ZM312.56 0.249435H259.473V-52.0639H312.56V0.249435ZM259.163 0.249435H206.076V-52.0639H259.163V0.249435ZM205.767 0.249435H152.679V-52.0639H205.767V0.249435ZM152.37 0.249435H99.2827V-52.0639H152.37V0.249435ZM99.2827 263.673H152.37V315.987H99.2827V263.673ZM152.679 263.673H205.767V315.987H152.679V263.673ZM206.076 263.673H259.163V315.987H206.076V263.673ZM259.473 263.673H312.56V315.987H259.473V263.673ZM312.87 263.673H365.957V315.987H312.87V263.673ZM365.957 -52.3734H312.87V-104.687H365.957V-52.3734ZM312.56 -52.3734H259.473V-104.687H312.56V-52.3734ZM259.163 -52.3734H206.076V-104.687H259.163V-52.3734ZM205.767 -52.3734H152.679V-104.687H205.767V-52.3734ZM152.37 -52.3734H99.2827V-104.687H152.37V-52.3734ZM98.9731 -52.3734H45.886V-104.687H98.9731V-52.3734ZM45.886 316.296H98.9731V368.609H45.886V316.296ZM99.2827 316.296H152.37V368.609H99.2827V316.296ZM152.679 316.296H205.767V368.609H152.679V316.296ZM206.076 316.296H259.163V368.609H206.076V316.296ZM259.473 316.296H312.56V368.609H259.473V316.296ZM312.87 316.296H365.957V368.609H312.87V316.296ZM366.266 316.296H419.354V368.609H366.266V316.296ZM366.266 -157.31H419.354V-104.996H366.266V-157.31ZM312.87 -157.31H365.957V-104.996H312.87V-157.31ZM259.473 -157.31H312.56V-104.996H259.473V-157.31ZM206.076 -157.31H259.163V-104.996H206.076V-157.31ZM152.679 -157.31H205.767V-104.996H152.679V-157.31ZM99.2827 -157.31H152.37V-104.996H99.2827V-157.31ZM45.886 -157.31H98.9731V-104.996H45.886V-157.31ZM-7.51077 -157.31H45.5764V-104.996H-7.51077V-157.31ZM-60.9075 -157.31H-7.82031V-104.996H-60.9075V-157.31ZM-60.9075 -104.687H-7.82031V-52.3734H-60.9075V-104.687ZM-60.9075 -52.0639H-7.82031V0.249435H-60.9075V-52.0639ZM-60.9075 0.558975H-7.82031V52.8723H-60.9075V0.558975ZM-60.9075 53.1819H-7.82031V105.495H-60.9075V53.1819ZM-60.9075 105.805H-7.82031V158.118H-60.9075V105.805ZM-60.9075 158.428H-7.82031V210.741H-60.9075V158.428ZM-60.9075 211.05H-7.82031V263.364H-60.9075V211.05ZM-60.9075 263.673H-7.82031V315.987H-60.9075V263.673ZM-60.9075 316.296H-7.82031V368.609H-60.9075V316.296ZM-7.82031 421.232H-60.9075V368.919H-7.82031V421.232ZM45.5764 421.232H-7.51077V368.919H45.5764V421.232ZM98.9731 421.232H45.886V368.919H98.9731V421.232ZM152.37 421.232H99.2827V368.919H152.37V421.232ZM205.767 421.232H152.679V368.919H205.767V421.232ZM259.163 421.232H206.076V368.919H259.163V421.232ZM312.56 421.232H259.473V368.919H312.56V421.232ZM365.957 421.232H312.87V368.919H365.957V421.232ZM419.354 421.232H366.266V368.919H419.354V421.232ZM472.75 421.232H419.663V368.919H472.75V421.232ZM526.147 421.232H473.06V368.919H526.147V421.232ZM526.147 368.609H473.06V316.296H526.147V368.609ZM526.147 315.987H473.06V263.673H526.147V315.987ZM526.147 263.364H473.06V211.05H526.147V263.364ZM526.147 210.741H473.06V158.428H526.147V210.741ZM526.147 158.118H473.06V105.805H526.147V158.118ZM526.147 105.495H473.06V53.1819H526.147V105.495ZM526.147 52.8723H473.06V0.558975H526.147V52.8723ZM526.147 0.249435H473.06V-52.0639H526.147V0.249435ZM526.147 -52.3734H473.06V-104.687H526.147V-52.3734ZM473.06 -104.996V-157.31H526.147V-104.996H473.06Z" fill="white"/>
<path opacity="0.5" d="M232.697 130.879L233.935 132.117L232.697 133.355L231.459 131.962L232.697 130.879ZM231.459 184.585L232.697 185.823L233.935 184.585L232.697 183.347L231.459 184.585ZM231.459 237.208L232.697 238.446L233.935 237.208L232.697 235.969L231.459 237.208ZM231.459 289.83L232.697 291.069L233.935 289.83L232.697 288.592L231.459 289.83ZM231.459 342.453L232.697 343.692L233.935 342.453L232.697 341.215L231.459 342.453ZM231.459 395.076L232.697 396.314L233.935 395.076L232.697 393.838L231.459 395.076ZM231.459 79.339L232.697 80.5772L233.935 79.339L232.697 78.1008L231.459 79.339ZM231.459 26.7162L232.697 27.9544L233.935 26.7162L232.697 25.478L231.459 26.7162ZM231.459 -25.9067L232.697 -24.6685L233.935 -25.9067L232.697 -27.1449L231.459 -25.9067ZM231.459 -78.5296L232.697 -77.2914L233.935 -78.5296L232.697 -79.7678L231.459 -78.5296ZM231.459 -131.152L232.697 -129.914L233.935 -131.152L232.697 -132.391L231.459 -131.152ZM178.062 131.962L179.3 133.2L180.539 131.962L179.3 130.724L178.062 131.962ZM178.062 184.585L179.3 185.823L180.539 184.585L179.3 183.347L178.062 184.585ZM178.062 237.208L179.3 238.446L180.539 237.208L179.3 235.969L178.062 237.208ZM178.062 289.83L179.3 291.069L180.539 289.83L179.3 288.592L178.062 289.83ZM178.062 342.453L179.3 343.692L180.539 342.453L179.3 341.215L178.062 342.453ZM178.062 395.076L179.3 396.314L180.539 395.076L179.3 393.838L178.062 395.076ZM178.062 79.339L179.3 80.5772L180.539 79.339L179.3 78.1008L178.062 79.339ZM178.062 26.7162L179.3 27.9544L180.539 26.7162L179.3 25.478L178.062 26.7162ZM178.062 -25.9067L179.3 -24.6685L180.384 -25.9067L179.146 -27.1449L178.062 -25.9067ZM178.062 -78.5296L179.3 -77.2914L180.384 -78.5296L179.146 -79.7678L178.062 -78.5296ZM178.062 -131.152L179.3 -129.914L180.384 -131.152L179.146 -132.391L178.062 -131.152ZM124.666 131.962L125.904 133.2L127.142 131.962L125.904 130.724L124.666 131.962ZM124.666 184.585L125.904 185.823L127.142 184.585L125.904 183.347L124.666 184.585ZM124.666 237.208L125.904 238.446L127.142 237.208L125.904 235.969L124.666 237.208ZM124.666 289.83L125.904 291.069L127.142 289.83L125.904 288.592L124.666 289.83ZM124.666 342.453L125.904 343.692L127.142 342.453L125.904 341.215L124.666 342.453ZM124.666 395.076L125.904 396.314L127.142 395.076L125.904 393.838L124.666 395.076ZM124.666 79.339L125.904 80.5772L127.142 79.339L125.904 78.1008L124.666 79.339ZM124.666 26.7162L125.904 27.9544L127.142 26.7162L125.904 25.478L124.666 26.7162ZM124.666 -25.9067L125.904 -24.6685L127.142 -25.9067L125.904 -27.1449L124.666 -25.9067ZM124.666 -78.5296L125.904 -77.2914L127.142 -78.5296L125.904 -79.7678L124.666 -78.5296ZM124.666 -131.152L125.904 -129.914L127.142 -131.152L125.904 -132.391L124.666 -131.152ZM71.2688 131.962L72.507 133.2L73.5904 131.962L72.3522 130.724L71.2688 131.962ZM71.2688 184.585L72.507 185.823L73.5904 184.585L72.3522 183.347L71.2688 184.585ZM71.2688 237.208L72.507 238.446L73.5904 237.208L72.3522 235.969L71.2688 237.208ZM71.2688 289.83L72.507 291.069L73.5904 289.83L72.3522 288.592L71.2688 289.83ZM71.2688 342.453L72.507 343.692L73.5904 342.453L72.3522 341.215L71.2688 342.453ZM71.2688 395.076L72.507 396.314L73.5904 395.076L72.3522 393.838L71.2688 395.076ZM71.2688 79.339L72.507 80.5772L73.5904 79.339L72.3522 78.1008L71.2688 79.339ZM71.2688 26.7162L72.507 27.9544L73.5904 26.7162L72.3522 25.478L71.2688 26.7162ZM71.2688 -25.9067L72.507 -24.6685L73.5904 -25.9067L72.3522 -27.1449L71.2688 -25.9067ZM71.2688 -78.5296L72.507 -77.2914L73.5904 -78.5296L72.3522 -79.7678L71.2688 -78.5296ZM71.2688 -131.152L72.507 -129.914L73.5904 -131.152L72.3522 -132.391L71.2688 -131.152ZM17.8721 131.962L19.1102 133.2L20.3484 131.962L19.1102 130.724L17.8721 131.962ZM17.8721 184.585L19.1102 185.823L20.3484 184.585L19.1102 183.347L17.8721 184.585ZM17.8721 237.208L19.1102 238.446L20.3484 237.208L19.1102 235.969L17.8721 237.208ZM17.8721 289.83L19.1102 291.069L20.3484 289.83L19.1102 288.592L17.8721 289.83ZM17.8721 342.453L19.1102 343.692L20.3484 342.453L19.1102 341.215L17.8721 342.453ZM17.8721 395.076L19.1102 396.314L20.3484 395.076L19.1102 393.838L17.8721 395.076ZM17.8721 79.339L19.1102 80.5772L20.3484 79.339L19.1102 78.1008L17.8721 79.339ZM17.8721 26.7162L19.1102 27.9544L20.3484 26.7162L19.1102 25.478L17.8721 26.7162ZM17.8721 -25.9067L19.1102 -24.6685L20.3484 -25.9067L19.1102 -27.1449L17.8721 -25.9067ZM17.8721 -78.5296L19.1102 -77.2914L20.3484 -78.5296L19.1102 -79.7678L17.8721 -78.5296ZM17.8721 -131.152L19.1102 -129.914L20.3484 -131.152L19.1102 -132.391L17.8721 -131.152ZM-35.5247 131.962L-34.2865 133.2L-33.2031 131.962L-34.4412 130.724L-35.5247 131.962ZM-35.5247 184.585L-34.2865 185.823L-33.2031 184.585L-34.4412 183.347L-35.5247 184.585ZM-35.5247 237.208L-34.2865 238.446L-33.2031 237.208L-34.4412 235.969L-35.5247 237.208ZM-35.5247 289.83L-34.2865 291.069L-33.2031 289.83L-34.4412 288.592L-35.5247 289.83ZM-35.5247 342.453L-34.2865 343.692L-33.2031 342.453L-34.4412 341.215L-35.5247 342.453ZM-35.5247 395.076L-34.2865 396.314L-33.2031 395.076L-34.4412 393.838L-35.5247 395.076ZM-35.5247 79.339L-34.2865 80.5772L-33.2031 79.339L-34.4412 78.1008L-35.5247 79.339ZM-35.5247 26.7162L-34.2865 27.9544L-33.2031 26.7162L-34.4412 25.478L-35.5247 26.7162ZM-35.5247 -25.9067L-34.2865 -24.6685L-33.2031 -25.9067L-34.4412 -27.1449L-35.5247 -25.9067ZM-35.5247 -78.5296L-34.2865 -77.2914L-33.2031 -78.5296L-34.4412 -79.7678L-35.5247 -78.5296ZM-35.5247 -131.152L-34.2865 -129.914L-33.2031 -131.152L-34.4412 -132.391L-35.5247 -131.152ZM284.856 131.962L286.094 133.2L287.332 131.962L286.094 130.724L284.856 131.962ZM284.856 184.585L286.094 185.823L287.332 184.585L286.094 183.347L284.856 184.585ZM284.856 237.208L286.094 238.446L287.332 237.208L286.094 235.969L284.856 237.208ZM284.856 289.83L286.094 291.069L287.332 289.83L286.094 288.592L284.856 289.83ZM284.856 342.453L286.094 343.692L287.332 342.453L286.094 341.215L284.856 342.453ZM284.856 395.076L286.094 396.314L287.332 395.076L286.094 393.838L284.856 395.076ZM284.856 79.339L286.094 80.5772L287.332 79.339L286.094 78.1008L284.856 79.339ZM284.856 26.7162L286.094 27.9544L287.332 26.7162L286.094 25.478L284.856 26.7162ZM284.856 -25.9067L286.094 -24.6685L287.177 -25.9067L285.939 -27.1449L284.856 -25.9067ZM284.856 -78.5296L286.094 -77.2914L287.177 -78.5296L285.939 -79.7678L284.856 -78.5296ZM284.856 -131.152L286.094 -129.914L287.177 -131.152L285.939 -132.391L284.856 -131.152ZM338.252 131.962L339.491 133.2L340.729 131.962L339.491 130.724L338.252 131.962ZM338.252 184.585L339.491 185.823L340.729 184.585L339.491 183.347L338.252 184.585ZM338.252 237.208L339.491 238.446L340.729 237.208L339.491 235.969L338.252 237.208ZM338.252 289.83L339.491 291.069L340.729 289.83L339.491 288.592L338.252 289.83ZM338.252 342.453L339.491 343.692L340.729 342.453L339.491 341.215L338.252 342.453ZM338.252 395.076L339.491 396.314L340.729 395.076L339.491 393.838L338.252 395.076ZM338.252 79.339L339.491 80.5772L340.729 79.339L339.491 78.1008L338.252 79.339ZM338.252 26.7162L339.491 27.9544L340.729 26.7162L339.491 25.478L338.252 26.7162ZM338.252 -25.9067L339.491 -24.6685L340.729 -25.9067L339.491 -27.1449L338.252 -25.9067ZM338.252 -78.5296L339.491 -77.2914L340.729 -78.5296L339.491 -79.7678L338.252 -78.5296ZM338.252 -131.152L339.491 -129.914L340.729 -131.152L339.491 -132.391L338.252 -131.152ZM391.649 131.962L392.887 133.2L394.125 131.962L392.887 130.724L391.649 131.962ZM391.649 184.585L392.887 185.823L394.125 184.585L392.887 183.347L391.649 184.585ZM391.649 237.208L392.887 238.446L394.125 237.208L392.887 235.969L391.649 237.208ZM391.649 289.83L392.887 291.069L394.125 289.83L392.887 288.592L391.649 289.83ZM391.649 342.453L392.887 343.692L394.125 342.453L392.887 341.215L391.649 342.453ZM391.649 395.076L392.887 396.314L394.125 395.076L392.887 393.838L391.649 395.076ZM391.649 79.339L392.887 80.5772L394.125 79.339L392.887 78.1008L391.649 79.339ZM391.649 26.7162L392.887 27.9544L394.125 26.7162L392.887 25.478L391.649 26.7162ZM391.649 -25.9067L392.887 -24.6685L393.971 -25.9067L392.733 -27.1449L391.649 -25.9067ZM391.649 -78.5296L392.887 -77.2914L393.971 -78.5296L392.733 -79.7678L391.649 -78.5296ZM391.649 -131.152L392.887 -129.914L393.971 -131.152L392.733 -132.391L391.649 -131.152ZM445.046 131.962L446.284 133.2L447.522 131.962L446.284 130.724L445.046 131.962ZM445.046 184.585L446.284 185.823L447.522 184.585L446.284 183.347L445.046 184.585ZM445.046 237.208L446.284 238.446L447.522 237.208L446.284 235.969L445.046 237.208ZM445.046 289.83L446.284 291.069L447.522 289.83L446.284 288.592L445.046 289.83ZM445.046 342.453L446.284 343.692L447.522 342.453L446.284 341.215L445.046 342.453ZM445.046 395.076L446.284 396.314L447.522 395.076L446.284 393.838L445.046 395.076ZM445.046 79.339L446.284 80.5772L447.522 79.339L446.284 78.1008L445.046 79.339ZM445.046 26.7162L446.284 27.9544L447.522 26.7162L446.284 25.478L445.046 26.7162ZM445.046 -25.9067L446.284 -24.6685L447.522 -25.9067L446.284 -27.1449L445.046 -25.9067ZM445.046 -78.5296L446.284 -77.2914L447.522 -78.5296L446.284 -79.7678L445.046 -78.5296ZM445.046 -131.152L446.284 -129.914L447.522 -131.152L446.284 -132.391L445.046 -131.152ZM498.443 131.962L499.681 133.2L500.919 131.962L499.681 130.724L498.443 131.962ZM498.443 184.585L499.681 185.823L500.919 184.585L499.681 183.347L498.443 184.585ZM498.443 237.208L499.681 238.446L500.919 237.208L499.681 235.969L498.443 237.208ZM498.443 289.83L499.681 291.069L500.919 289.83L499.681 288.592L498.443 289.83ZM498.443 342.453L499.681 343.692L500.919 342.453L499.681 341.215L498.443 342.453ZM498.443 395.076L499.681 396.314L500.919 395.076L499.681 393.838L498.443 395.076ZM498.443 79.339L499.681 80.5772L500.919 79.339L499.681 78.1008L498.443 79.339ZM498.443 26.7162L499.681 27.9544L500.919 26.7162L499.681 25.478L498.443 26.7162ZM498.443 -25.9067L499.681 -24.6685L500.764 -25.9067L499.526 -27.1449L498.443 -25.9067ZM498.443 -78.5296L499.681 -77.2914L500.764 -78.5296L499.526 -79.7678L498.443 -78.5296ZM498.443 -131.152L499.681 -129.914L500.764 -131.152L499.526 -132.391L498.443 -131.152Z" fill="white"/>
<path d="M154.072 421.388L152.525 422.935L150.977 421.388L152.525 419.84L154.072 421.388ZM99.128 -159.012L97.5803 -157.464L99.128 -155.916L100.676 -157.464L99.128 -159.012ZM45.7313 -159.012L44.1836 -157.464L45.7313 -155.916L47.279 -157.464L45.7313 -159.012ZM99.128 -106.389L97.5803 -104.841L99.128 -103.293L100.676 -104.841L99.128 -106.389ZM99.128 -53.766L97.5803 -52.2183L99.128 -50.6705L100.676 -52.2183L99.128 -53.766ZM152.525 261.971L150.977 263.519L152.525 265.067L154.072 263.519L152.525 261.971ZM152.525 314.594L150.977 316.142L152.525 317.69L154.072 316.142L152.525 314.594ZM99.128 367.217L97.5803 368.765L99.128 370.312L100.676 368.765L99.128 367.217ZM152.525 209.348L150.977 210.896L152.525 212.444L154.072 210.896L152.525 209.348ZM99.128 314.594L97.5803 316.142L99.128 317.69L100.676 316.142L99.128 314.594ZM99.128 419.84L97.5803 421.388L99.128 422.935L100.676 421.388L99.128 419.84ZM99.128 261.971L97.5803 263.519L99.128 265.067L100.676 263.519L99.128 261.971ZM99.128 51.4797L97.5803 53.0275L99.128 54.5752L100.676 53.0275L99.128 51.4797ZM99.128 104.103L97.5803 105.65L99.128 107.198L100.676 105.65L99.128 104.103ZM99.128 156.725L97.5803 158.273L99.128 159.821L100.676 158.273L99.128 156.725ZM99.128 209.348L97.5803 210.896L99.128 212.444L100.676 210.896L99.128 209.348ZM99.128 -1.14313L97.5803 0.404602L99.128 1.95233L100.676 0.404602L99.128 -1.14313ZM205.921 104.103L204.374 105.65L205.921 107.198L207.469 105.65L205.921 104.103ZM205.921 156.725L204.374 158.273L205.921 159.821L207.469 158.273L205.921 156.725ZM205.921 209.348L204.374 210.896L205.921 212.444L207.469 210.896L205.921 209.348ZM205.921 314.594L204.374 316.142L205.921 317.69L207.469 316.142L205.921 314.594ZM205.921 261.971L204.374 263.519L205.921 265.067L207.469 263.519L205.921 261.971ZM205.921 -53.766L204.374 -52.2183L205.921 -50.6705L207.469 -52.2183L205.921 -53.766ZM205.921 51.4797L204.374 53.0275L205.921 54.5752L207.469 53.0275L205.921 51.4797ZM205.921 -1.14313L204.374 0.404602L205.921 1.95233L207.469 0.404602L205.921 -1.14313ZM205.921 419.84L204.374 421.388L205.921 422.935L207.469 421.388L205.921 419.84ZM152.525 -1.14313L150.977 0.404602L152.525 1.95233L154.072 0.404602L152.525 -1.14313ZM152.525 -53.766L150.977 -52.2183L152.525 -50.6705L154.072 -52.2183L152.525 -53.766ZM152.525 51.4797L150.977 53.0275L152.525 54.5752L154.072 53.0275L152.525 51.4797ZM152.525 104.103L150.977 105.65L152.525 107.198L154.072 105.65L152.525 104.103ZM152.525 -159.012L150.977 -157.464L152.525 -155.916L154.072 -157.464L152.525 -159.012ZM152.525 156.725L150.977 158.273L152.525 159.821L154.072 158.273L152.525 156.725ZM205.921 367.217L204.374 368.765L205.921 370.312L207.469 368.765L205.921 367.217ZM-61.0621 51.4797L-62.6099 53.0275L-61.0621 54.5752L-59.5144 53.0275L-61.0621 51.4797ZM-7.66541 419.84L-9.21314 421.388L-7.66541 422.935L-6.11768 421.388L-7.66541 419.84ZM-61.0621 -1.14313L-62.6099 0.404602L-61.0621 1.95233L-59.5144 0.404602L-61.0621 -1.14313ZM-61.0621 -106.389L-62.6099 -104.841L-61.0621 -103.293L-59.5144 -104.841L-61.0621 -106.389ZM45.7313 -106.389L44.1836 -104.841L45.7313 -103.293L47.279 -104.841L45.7313 -106.389ZM-61.0621 -159.012L-62.6099 -157.464L-61.0621 -155.916L-59.5144 -157.464L-61.0621 -159.012ZM-7.66541 261.971L-9.21314 263.519L-7.66541 265.067L-6.11768 263.519L-7.66541 261.971ZM-7.66541 314.594L-9.21314 316.142L-7.66541 317.69L-6.11768 316.142L-7.66541 314.594ZM526.302 -155.916L527.85 -157.464L526.302 -159.012L524.754 -157.464L526.302 -155.916ZM-61.0621 419.84L-62.6099 421.388L-61.0621 422.935L-59.5144 421.388L-61.0621 419.84ZM-61.0621 367.217L-62.6099 368.765L-61.0621 370.312L-59.5144 368.765L-61.0621 367.217ZM-61.0621 261.971L-62.6099 263.519L-61.0621 265.067L-59.5144 263.519L-61.0621 261.971ZM-61.0621 209.348L-62.6099 210.896L-61.0621 212.444L-59.5144 210.896L-61.0621 209.348ZM-61.0621 104.103L-62.6099 105.65L-61.0621 107.198L-59.5144 105.65L-61.0621 104.103ZM-61.0621 156.725L-62.6099 158.273L-61.0621 159.821L-59.5144 158.273L-61.0621 156.725ZM205.921 -106.389L204.374 -104.841L205.921 -103.293L207.469 -104.841L205.921 -106.389ZM-61.0621 -53.766L-62.6099 -52.2183L-61.0621 -50.6705L-59.5144 -52.2183L-61.0621 -53.766ZM45.7313 314.594L44.1836 316.142L45.7313 317.69L47.279 316.142L45.7313 314.594ZM45.7313 156.725L44.1836 158.273L45.7313 159.821L47.279 158.273L45.7313 156.725ZM45.7313 209.348L44.1836 210.896L45.7313 212.444L47.279 210.896L45.7313 209.348ZM45.7313 261.971L44.1836 263.519L45.7313 265.067L47.279 263.519L45.7313 261.971ZM45.7313 104.103L44.1836 105.65L45.7313 107.198L47.279 105.65L45.7313 104.103ZM-7.66541 156.725L-9.21314 158.273L-7.66541 159.821L-6.11768 158.273L-7.66541 156.725ZM45.7313 -1.14313L44.1836 0.404602L45.7313 1.95233L47.279 0.404602L45.7313 -1.14313ZM45.7313 51.4797L44.1836 53.0275L45.7313 54.5752L47.279 53.0275L45.7313 51.4797ZM45.7313 -53.766L44.1836 -52.2183L45.7313 -50.6705L47.279 -52.2183L45.7313 -53.766ZM-7.66541 -53.766L-9.21314 -52.2183L-7.66541 -50.6705L-6.11768 -52.2183L-7.66541 -53.766ZM45.7313 367.217L44.1836 368.765L45.7313 370.312L47.279 368.765L45.7313 367.217ZM-7.66541 104.103L-9.21314 105.65L-7.66541 107.198L-6.11768 105.65L-7.66541 104.103ZM-7.66541 -1.14313L-9.21314 0.404602L-7.66541 1.95233L-6.11768 0.404602L-7.66541 -1.14313ZM45.7313 419.84L44.1836 421.388L45.7313 422.935L47.279 421.388L45.7313 419.84ZM-7.66541 -159.012L-9.21314 -157.464L-7.66541 -155.916L-6.11768 -157.464L-7.66541 -159.012ZM-61.0621 314.594L-62.6099 316.142L-61.0621 317.69L-59.5144 316.142L-61.0621 314.594ZM419.508 -106.389L417.961 -104.841L419.508 -103.293L421.056 -104.841L419.508 -106.389ZM419.508 -1.14313L417.961 0.404602L419.508 1.95233L421.056 0.404602L419.508 -1.14313ZM472.905 419.84L471.357 421.388L472.905 422.935L474.453 421.388L472.905 419.84ZM419.508 -53.766L417.961 -52.2183L419.508 -50.6705L421.056 -52.2183L419.508 -53.766ZM419.508 -159.012L417.961 -157.464L419.508 -155.916L421.056 -157.464L419.508 -159.012ZM472.905 156.725L471.357 158.273L472.905 159.821L474.453 158.273L472.905 156.725ZM366.112 -159.012L364.564 -157.464L366.112 -155.916L367.659 -157.464L366.112 -159.012ZM472.905 261.971L471.357 263.519L472.905 265.067L474.453 263.519L472.905 261.971ZM419.508 51.4797L417.961 53.0275L419.508 54.5752L421.056 53.0275L419.508 51.4797ZM419.508 261.971L417.961 263.519L419.508 265.067L421.056 263.519L419.508 261.971ZM419.508 314.594L417.961 316.142L419.508 317.69L421.056 316.142L419.508 314.594ZM419.508 419.84L417.961 421.388L419.508 422.935L421.056 421.388L419.508 419.84ZM419.508 367.217L417.961 368.765L419.508 370.312L421.056 368.765L419.508 367.217ZM419.508 104.103L417.961 105.65L419.508 107.198L421.056 105.65L419.508 104.103ZM419.508 156.725L417.961 158.273L419.508 159.821L421.056 158.273L419.508 156.725ZM419.508 209.348L417.961 210.896L419.508 212.444L421.056 210.896L419.508 209.348ZM472.905 314.594L471.357 316.142L472.905 317.69L474.453 316.142L472.905 314.594ZM526.302 156.725L524.754 158.273L526.302 159.821L527.85 158.273L526.302 156.725ZM526.302 104.103L524.754 105.65L526.302 107.198L527.85 105.65L526.302 104.103ZM526.302 209.348L524.754 210.896L526.302 212.444L527.85 210.896L526.302 209.348ZM526.302 51.4797L524.754 53.0275L526.302 54.5752L527.85 53.0275L526.302 51.4797ZM526.302 -53.766L524.754 -52.2183L526.302 -50.6705L527.85 -52.2183L526.302 -53.766ZM526.302 -1.14313L524.754 0.404602L526.302 1.95233L527.85 0.404602L526.302 -1.14313ZM526.302 -106.389L524.754 -104.841L526.302 -103.293L527.85 -104.841L526.302 -106.389ZM526.302 261.971L524.754 263.519L526.302 265.067L527.85 263.519L526.302 261.971ZM472.905 104.103L471.357 105.65L472.905 107.198L474.453 105.65L472.905 104.103ZM472.905 -53.766L471.357 -52.2183L472.905 -50.6705L474.453 -52.2183L472.905 -53.766ZM472.905 -1.14313L471.357 0.404602L472.905 1.95233L474.453 0.404602L472.905 -1.14313ZM526.302 314.594L524.754 316.142L526.302 317.69L527.85 316.142L526.302 314.594ZM526.302 367.217L524.754 368.765L526.302 370.312L527.85 368.765L526.302 367.217ZM526.302 419.84L524.754 421.388L526.302 422.935L527.85 421.388L526.302 419.84ZM472.905 -159.012L471.357 -157.464L472.905 -155.916L474.453 -157.464L472.905 -159.012ZM259.318 261.971L257.77 263.519L259.318 265.067L260.866 263.519L259.318 261.971ZM259.318 -1.14313L257.77 0.404602L259.318 1.95233L260.866 0.404602L259.318 -1.14313ZM259.318 -159.012L257.77 -157.464L259.318 -155.916L260.866 -157.464L259.318 -159.012ZM259.318 -53.766L257.77 -52.2183L259.318 -50.6705L260.866 -52.2183L259.318 -53.766ZM312.715 209.348L311.167 210.896L312.715 212.444L314.263 210.896L312.715 209.348ZM259.318 -106.389L257.77 -104.841L259.318 -103.293L260.866 -104.841L259.318 -106.389ZM312.715 261.971L311.167 263.519L312.715 265.067L314.263 263.519L312.715 261.971ZM312.715 314.594L311.167 316.142L312.715 317.69L314.263 316.142L312.715 314.594ZM312.715 419.84L311.167 421.388L312.715 422.935L314.263 421.388L312.715 419.84ZM259.318 51.4797L257.77 53.0275L259.318 54.5752L260.866 53.0275L259.318 51.4797ZM205.921 -159.012L204.374 -157.464L205.921 -155.916L207.469 -157.464L205.921 -159.012ZM259.318 367.217L257.77 368.765L259.318 370.312L260.866 368.765L259.318 367.217ZM259.318 419.84L257.77 421.388L259.318 422.935L260.866 421.388L259.318 419.84ZM259.318 314.594L257.77 316.142L259.318 317.69L260.866 316.142L259.318 314.594ZM259.318 209.348L257.77 210.896L259.318 212.444L260.866 210.896L259.318 209.348ZM259.318 104.103L257.77 105.65L259.318 107.198L260.866 105.65L259.318 104.103ZM259.318 156.725L257.77 158.273L259.318 159.821L260.866 158.273L259.318 156.725ZM366.112 419.84L364.564 421.388L366.112 422.935L367.659 421.388L366.112 419.84ZM366.112 104.103L364.564 105.65L366.112 107.198L367.659 105.65L366.112 104.103ZM366.112 156.725L364.564 158.273L366.112 159.821L367.659 158.273L366.112 156.725ZM366.112 209.348L364.564 210.896L366.112 212.444L367.659 210.896L366.112 209.348ZM366.112 261.971L364.564 263.519L366.112 265.067L367.659 263.519L366.112 261.971ZM366.112 -53.766L364.564 -52.2183L366.112 -50.6705L367.659 -52.2183L366.112 -53.766ZM366.112 314.594L364.564 316.142L366.112 317.69L367.659 316.142L366.112 314.594ZM366.112 -1.14313L364.564 0.404602L366.112 1.95233L367.659 0.404602L366.112 -1.14313ZM366.112 51.4797L364.564 53.0275L366.112 54.5752L367.659 53.0275L366.112 51.4797ZM312.715 104.103L311.167 105.65L312.715 107.198L314.263 105.65L312.715 104.103ZM312.715 -1.14313L311.167 0.404602L312.715 1.95233L314.263 0.404602L312.715 -1.14313ZM312.715 -53.766L311.167 -52.2183L312.715 -50.6705L314.263 -52.2183L312.715 -53.766ZM312.715 51.4797L311.167 53.0275L312.715 54.5752L314.263 53.0275L312.715 51.4797ZM312.715 156.725L311.167 158.273L312.715 159.821L314.263 158.273L312.715 156.725ZM312.715 -159.012L311.167 -157.464L312.715 -155.916L314.263 -157.464L312.715 -159.012ZM366.112 -106.389L364.564 -104.841L366.112 -103.293L367.659 -104.841L366.112 -106.389ZM366.112 367.217L364.564 368.765L366.112 370.312L367.659 368.765L366.112 367.217Z" fill="white"/>
</g>
</g>
<defs>
<radialGradient id="paint0_radial" cx="0" cy="0" r="1" gradientUnits="userSpaceOnUse" gradientTransform="translate(12.2179 34.5157) rotate(22.4929) scale(472.926 508.735)">
<stop stop-color="#16151D"/>
<stop offset="1" stop-color="#232526"/>
</radialGradient>
</defs>
</svg>
