<svg width="218" height="50" viewBox="0 0 218 50" fill="none" xmlns="http://www.w3.org/2000/svg">
<g clip-path="url(#clip0_313_682)">
<path d="M76.1326 20.4044C76.1326 22.0802 75.7403 23.612 74.9559 24.9998C74.1976 26.3614 73.0339 27.4612 71.465 28.2991C69.9222 29.1108 68.0264 29.5167 65.7776 29.5167H61.9729V38.8646H54.2852V11.1742H65.7776C68.0003 11.1742 69.883 11.567 71.4258 12.3526C72.9947 13.1381 74.1714 14.2248 74.9559 15.6126C75.7403 17.0003 76.1326 18.5976 76.1326 20.4044ZM65.0324 23.3894C67.2027 23.3894 68.2879 22.3944 68.2879 20.4044C68.2879 18.3881 67.2027 17.38 65.0324 17.38H61.9729V23.3894H65.0324Z" fill="white"/>
<path d="M89.6545 39.1396C86.4382 39.1396 83.7972 38.3802 81.7314 36.8615C79.6656 35.3166 78.5543 33.1171 78.3974 30.2629H86.5951C86.6735 31.2318 86.9612 31.9387 87.458 32.3839C87.9548 32.829 88.5955 33.0516 89.38 33.0516C90.086 33.0516 90.6613 32.8814 91.1058 32.541C91.5765 32.1744 91.8118 31.6769 91.8118 31.0485C91.8118 30.2367 91.4327 29.6083 90.6743 29.1632C89.916 28.718 88.687 28.2205 86.9873 27.6706C85.1831 27.0684 83.7187 26.4923 82.5943 25.9424C81.4961 25.3664 80.5286 24.5416 79.6918 23.468C78.8812 22.3682 78.4759 20.9411 78.4759 19.1868C78.4759 17.4062 78.9204 15.8875 79.8095 14.6306C80.6985 13.3476 81.9275 12.3787 83.4965 11.7241C85.0654 11.0695 86.8435 10.7422 88.8308 10.7422C92.0472 10.7422 94.6097 11.5015 96.5186 13.0203C98.4536 14.5128 99.4865 16.6207 99.6173 19.3439H91.2627C91.2365 18.506 90.975 17.8775 90.4782 17.4586C90.0075 17.0396 89.393 16.8301 88.6347 16.8301C88.0594 16.8301 87.5888 17.0003 87.2227 17.3407C86.8566 17.6811 86.6735 18.1656 86.6735 18.794C86.6735 19.3177 86.8697 19.7759 87.2619 20.1687C87.6803 20.5353 88.1902 20.8626 88.7916 21.1506C89.393 21.4125 90.2821 21.7529 91.4588 22.1718C93.2108 22.7741 94.649 23.3763 95.7734 23.9786C96.9239 24.5546 97.9045 25.3795 98.7151 26.453C99.5519 27.5004 99.9703 28.8359 99.9703 30.4593C99.9703 32.1089 99.5519 33.5884 98.7151 34.8976C97.9045 36.2069 96.7147 37.2412 95.1458 38.0005C93.603 38.7599 91.7726 39.1396 89.6545 39.1396Z" fill="white"/>
<path d="M124.372 11.1742V17.3015H116.998V38.8646H109.31V17.3015H102.014V11.1742H124.372Z" fill="white"/>
<path d="M144.71 34.3477H134.904L133.413 38.8646H125.333L135.414 11.1742H144.278L154.319 38.8646H146.2L144.71 34.3477ZM142.788 28.4562L139.807 19.501L136.865 28.4562H142.788Z" fill="white"/>
<path d="M173.181 38.8646L164.513 26.728V38.8646H156.825V11.1742H164.513V23.1145L173.103 11.1742H181.967L171.808 24.607L182.477 38.8646H173.181Z" fill="white"/>
<path d="M192.973 17.3407V21.8576H201.798V27.7099H192.973V32.6981H202.975V38.8646H185.285V11.1742H202.975V17.3407H192.973Z" fill="white"/>
<ellipse cx="24.8163" cy="25.0025" rx="24.5565" ry="24.5865" fill="white"/>
<path d="M35.499 8.03906H14.1348V12.2188H35.499V8.03906Z" fill="#E50913"/>
<path d="M25.1035 42.0888C23.1175 42.0888 21.3378 41.7597 19.7645 41.1014C18.1912 40.4431 16.9274 39.4689 15.9731 38.1787C15.0446 36.8885 14.5545 35.335 14.5029 33.5182H21.5442C21.6473 34.5451 21.9955 35.335 22.5887 35.888C23.182 36.4146 23.9557 36.6779 24.91 36.6779C25.8901 36.6779 26.6639 36.4541 27.2313 36.0065C27.7987 35.5325 28.0825 34.8874 28.0825 34.0712C28.0825 33.3866 27.8503 32.8205 27.3861 32.3729C26.9476 31.9252 26.3931 31.5566 25.7225 31.267C25.0777 30.9773 24.1492 30.6482 22.9369 30.2796C21.1831 29.7266 19.7516 29.1737 18.6426 28.6208C17.5335 28.0678 16.5792 27.2516 15.7796 26.172C14.9801 25.0925 14.5803 23.6838 14.5803 21.946C14.5803 19.3656 15.4959 17.3513 17.3272 15.9032C19.1584 14.4287 21.5442 13.6914 24.4845 13.6914C27.4763 13.6914 29.8879 14.4287 31.7191 15.9032C33.5504 17.3513 34.5305 19.3788 34.6594 21.9855H27.5021C27.4505 21.0903 27.1281 20.3925 26.5349 19.8922C25.9417 19.3656 25.1808 19.1023 24.2523 19.1023C23.4528 19.1023 22.808 19.3261 22.3179 19.7737C21.8279 20.195 21.5829 20.8138 21.5829 21.63C21.5829 22.5253 21.9955 23.223 22.8209 23.7233C23.6462 24.2236 24.9358 24.7634 26.6897 25.3426C28.4435 25.9482 29.8621 26.5275 30.9454 27.0804C32.0544 27.6334 33.0087 28.4365 33.8083 29.4897C34.6078 30.5429 35.0076 31.8989 35.0076 33.5577C35.0076 35.1376 34.6078 36.5726 33.8083 37.8628C33.0345 39.1529 31.8997 40.1798 30.4037 40.9434C28.9078 41.707 27.141 42.0888 25.1035 42.0888Z" fill="black"/>
</g>
<defs>
<clipPath id="clip0_313_682">
<rect width="218" height="49.1729" fill="white" transform="translate(0 0.416016)"/>
</clipPath>
</defs>
</svg>
