<svg width="124" height="31" viewBox="0 0 124 31" fill="none" xmlns="http://www.w3.org/2000/svg">
<g clip-path="url(#clip0_687_1320)">
<path d="M46.3452 13.1475C46.3452 14.1699 46.1056 15.1044 45.6264 15.9511C45.1632 16.7818 44.4525 17.4528 43.4941 17.964C42.5517 18.4592 41.3937 18.7068 40.02 18.7068H37.696V24.4099H33V7.51627H40.02C41.3777 7.51627 42.5277 7.7559 43.4701 8.23515C44.4285 8.71441 45.1473 9.37737 45.6264 10.2241C46.1056 11.0707 46.3452 12.0452 46.3452 13.1475ZM39.5648 14.9687C40.8905 14.9687 41.5534 14.3616 41.5534 13.1475C41.5534 11.9174 40.8905 11.3024 39.5648 11.3024H37.696V14.9687H39.5648Z" fill="black"/>
<path d="M54.6049 24.5777C52.6403 24.5777 51.027 24.1144 49.7652 23.1879C48.5033 22.2453 47.8245 20.9034 47.7287 19.1621H52.7361C52.784 19.7532 52.9597 20.1845 53.2632 20.4561C53.5667 20.7277 53.958 20.8635 54.4372 20.8635C54.8685 20.8635 55.2199 20.7596 55.4914 20.552C55.7789 20.3283 55.9227 20.0248 55.9227 19.6414C55.9227 19.1462 55.691 18.7627 55.2278 18.4912C54.7646 18.2196 54.0139 17.9161 52.9757 17.5806C51.8736 17.2132 50.9791 16.8617 50.2923 16.5262C49.6214 16.1748 49.0304 15.6716 48.5193 15.0166C48.0242 14.3456 47.7766 13.475 47.7766 12.4047C47.7766 11.3183 48.0481 10.3918 48.5912 9.62499C49.1343 8.84221 49.885 8.25113 50.8433 7.85175C51.8017 7.45237 52.8878 7.25269 54.1018 7.25269C56.0664 7.25269 57.6317 7.71596 58.7977 8.64252C59.9797 9.5531 60.6106 10.8391 60.6905 12.5005H55.5872C55.5713 11.9893 55.4115 11.6059 55.108 11.3503C54.8205 11.0947 54.4452 10.9669 53.982 10.9669C53.6306 10.9669 53.3431 11.0707 53.1194 11.2784C52.8958 11.4861 52.784 11.7816 52.784 12.165C52.784 12.4845 52.9038 12.7641 53.1434 13.0037C53.399 13.2274 53.7104 13.4271 54.0778 13.6028C54.4452 13.7625 54.9883 13.9702 55.707 14.2258C56.7772 14.5932 57.6557 14.9607 58.3425 15.3281C59.0453 15.6796 59.6443 16.1828 60.1394 16.8377C60.6506 17.4768 60.9061 18.2915 60.9061 19.2819C60.9061 20.2884 60.6506 21.191 60.1394 21.9897C59.6443 22.7885 58.9175 23.4195 57.9592 23.8828C57.0168 24.346 55.8987 24.5777 54.6049 24.5777Z" fill="black"/>
<path d="M75.8115 7.51627V11.2544H71.3072V24.4099H66.6112V11.2544H62.1548V7.51627H75.8115Z" fill="black"/>
<path d="M88.2346 21.6542H82.2448L81.3344 24.4099H76.3988L82.5563 7.51627H87.9711L94.1046 24.4099H89.145L88.2346 21.6542ZM87.0606 18.0598L85.2397 12.5964L83.4428 18.0598H87.0606Z" fill="black"/>
<path d="M105.626 24.4099L100.331 17.0055V24.4099H95.6351V7.51627H100.331V14.8009L105.578 7.51627H110.993L104.787 15.7115L111.304 24.4099H105.626Z" fill="black"/>
<path d="M117.715 11.2784V14.0341H123.106V17.6046H117.715V20.6478H123.825V24.4099H113.019V7.51627H123.825V11.2784H117.715Z" fill="black"/>
<circle cx="15" cy="15.9526" r="15" fill="black"/>
<path d="M21.525 5.60254H8.47499V8.15254H21.525V5.60254Z" fill="#E50913"/>
<path d="M15.1752 26.3777C13.9621 26.3777 12.875 26.1769 11.914 25.7753C10.9529 25.3737 10.1809 24.7794 9.59801 23.9922C9.03085 23.2051 8.73151 22.2573 8.7 21.1489H13.001C13.0641 21.7754 13.2767 22.2573 13.6391 22.5947C14.0015 22.916 14.4741 23.0766 15.057 23.0766C15.6557 23.0766 16.1283 22.9401 16.4749 22.667C16.8216 22.3778 16.9949 21.9842 16.9949 21.4863C16.9949 21.0686 16.8531 20.7232 16.5695 20.4501C16.3016 20.177 15.9629 19.9521 15.5533 19.7754C15.1594 19.5987 14.5923 19.3979 13.8518 19.173C12.7805 18.8357 11.9061 18.4984 11.2286 18.161C10.5512 17.8237 9.96825 17.3257 9.47985 16.6671C8.99146 16.0084 8.74726 15.149 8.74726 14.0888C8.74726 12.5145 9.30655 11.2856 10.4251 10.4021C11.5437 9.50253 13.001 9.05273 14.7971 9.05273C16.6246 9.05273 18.0977 9.50253 19.2163 10.4021C20.3349 11.2856 20.9335 12.5226 21.0123 14.1129H16.6404C16.6089 13.5667 16.4119 13.141 16.0496 12.8358C15.6872 12.5145 15.2224 12.3539 14.6553 12.3539C14.1669 12.3539 13.773 12.4904 13.4737 12.7635C13.1743 13.0205 13.0247 13.398 13.0247 13.896C13.0247 14.4422 13.2767 14.8679 13.7809 15.1731C14.285 15.4783 15.0728 15.8076 16.1441 16.161C17.2154 16.5305 18.0819 16.8839 18.7436 17.2213C19.4211 17.5586 20.004 18.0486 20.4924 18.6911C20.9808 19.3337 21.225 20.161 21.225 21.173C21.225 22.1368 20.9808 23.0123 20.4924 23.7995C20.0198 24.5866 19.3266 25.2131 18.4128 25.679C17.499 26.1448 16.4198 26.3777 15.1752 26.3777Z" fill="white"/>
</g>
<defs>
<clipPath id="clip0_687_1320">
<rect width="123.15" height="30" fill="white" transform="translate(0 0.952637)"/>
</clipPath>
</defs>
</svg>
