<svg width="55" height="47" viewBox="0 0 55 47" fill="none" xmlns="http://www.w3.org/2000/svg">
<path d="M30.0714 30.6924C30.0714 24.2833 32.0714 18.3965 36.0714 13.0318C40.119 7.61969 45.2619 3.27575 51.5 0L55 4.41516C51.8095 6.97879 49 9.82727 46.5714 12.9606C44.1905 16.0939 43 19.2273 43 22.3606C43 24.1172 43.3333 25.304 44 25.9212C44.7143 26.5384 45.6191 27.1556 46.7143 27.7727C48.0476 28.5798 49.3095 29.7429 50.5 31.2621C51.6905 32.7338 52.2857 34.6566 52.2857 37.0303C52.2857 39.8313 51.3571 42.205 49.5 44.1515C47.6429 46.0505 45.2381 47 42.2857 47C39.0476 47 36.1905 45.647 33.7143 42.9409C31.2857 40.2348 30.0714 36.152 30.0714 30.6924ZM0 30.6924C0 24.2833 2 18.3965 6 13.0318C10.0476 7.61969 15.1905 3.27575 21.4286 0L24.9286 4.41516C21.7381 6.97879 18.9286 9.82727 16.5 12.9606C14.119 16.0939 12.9286 19.2273 12.9286 22.3606C12.9286 24.1172 13.2619 25.304 13.9286 25.9212C14.6429 26.5384 15.5476 27.1556 16.6429 27.7727C17.9762 28.5798 19.2381 29.7429 20.4286 31.2621C21.619 32.7338 22.2143 34.6566 22.2143 37.0303C22.2143 39.8313 21.2857 42.205 19.4286 44.1515C17.5714 46.0505 15.1667 47 12.2143 47C8.97619 47 6.11905 45.647 3.64286 42.9409C1.21429 40.2348 0 36.152 0 30.6924Z" fill="white" fill-opacity="0.12"/>
</svg>
