<svg width="122" height="54" viewBox="0 0 122 54" fill="none" xmlns="http://www.w3.org/2000/svg">
<path d="M51.3962 41.2866C49.2943 41.2866 47.4109 40.9454 45.7458 40.263C44.0807 39.5806 42.7432 38.5706 41.7332 37.2331C40.7505 35.8956 40.2319 34.2851 40.1773 32.4016H47.6292C47.7384 33.4662 48.1069 34.2851 48.7347 34.8583C49.3626 35.4042 50.1815 35.6772 51.1914 35.6772C52.2287 35.6772 53.0476 35.4452 53.6481 34.9811C54.2486 34.4898 54.5489 33.821 54.5489 32.9748C54.5489 32.2651 54.3032 31.6782 53.8119 31.2142C53.3479 30.7502 52.761 30.368 52.0513 30.0677C51.3689 29.7675 50.3862 29.4263 49.1033 29.0441C47.2471 28.4709 45.7321 27.8977 44.5584 27.3244C43.3846 26.7512 42.3747 25.905 41.5285 24.7859C40.6823 23.6667 40.2592 22.2063 40.2592 20.4048C40.2592 17.7297 41.2282 15.6415 43.1663 14.1402C45.1043 12.6116 47.6292 11.8473 50.741 11.8473C53.9074 11.8473 56.4597 12.6116 58.3977 14.1402C60.3358 15.6415 61.373 17.7434 61.5095 20.4457H53.9347C53.8801 19.5176 53.5389 18.7943 52.9111 18.2757C52.2833 17.7297 51.478 17.4568 50.4954 17.4568C49.6492 17.4568 48.9668 17.6888 48.4481 18.1528C47.9295 18.5896 47.6702 19.231 47.6702 20.0772C47.6702 21.0053 48.1069 21.7287 48.9804 22.2473C49.8539 22.7659 51.2187 23.3255 53.0749 23.926C54.9311 24.5538 56.4324 25.1544 57.5788 25.7276C58.7526 26.3008 59.7625 27.1334 60.6087 28.2252C61.4549 29.3171 61.878 30.7229 61.878 32.4425C61.878 34.0803 61.4549 35.568 60.6087 36.9055C59.7898 38.2431 58.5888 39.3076 57.0056 40.0992C55.4224 40.8908 53.5526 41.2866 51.3962 41.2866ZM76.9553 12.2568C79.9852 12.2568 82.633 12.8573 84.8986 14.0583C87.1642 15.2594 88.9112 16.9518 90.1395 19.1355C91.3951 21.2919 92.023 23.7895 92.023 26.6284C92.023 29.4399 91.3951 31.9376 90.1395 34.1213C88.9112 36.305 87.1505 37.9974 84.8576 39.1984C82.592 40.3995 79.9579 41 76.9553 41H66.1868V12.2568H76.9553ZM76.5049 34.9402C79.1527 34.9402 81.2135 34.2168 82.6876 32.7701C84.1616 31.3234 84.8986 29.2761 84.8986 26.6284C84.8986 23.9806 84.1616 21.9197 82.6876 20.4457C81.2135 18.9717 79.1527 18.2347 76.5049 18.2347H73.1884V34.9402H76.5049ZM112.6 41L102.937 28.3071V41H95.9358V12.2568H102.937V24.8678L112.518 12.2568H120.748L109.611 26.3418L121.158 41H112.6Z" fill="white"/>
<rect y="7.61914" width="33.2676" height="33.2662" rx="1.97262" fill="white"/>
<path d="M25.4106 25.2798C25.4106 26.614 25.1044 27.8388 24.4919 28.9543C23.8795 30.0479 22.939 30.9337 21.6705 31.6117C20.4019 32.2897 18.8271 32.6287 16.9462 32.6287H13.4685V40.8963H7.8584V17.8652H16.9462C18.7834 17.8652 20.3363 18.1824 21.6049 18.8167C22.8734 19.4509 23.8249 20.3258 24.4591 21.4413C25.0934 22.5567 25.4106 23.8363 25.4106 25.2798ZM16.5197 28.1669C17.5914 28.1669 18.3897 27.9154 18.9146 27.4123C19.4395 26.9092 19.702 26.1984 19.702 25.2798C19.702 24.3612 19.4395 23.6503 18.9146 23.1473C18.3897 22.6442 17.5914 22.3927 16.5197 22.3927H13.4685V28.1669H16.5197Z" fill="#252525"/>
<path d="M25.5261 12.0312H7.8584V15.7377H25.5261V12.0312Z" fill="#E50913"/>
</svg>
