<svg width="40" height="40" viewBox="0 0 40 40" fill="none" xmlns="http://www.w3.org/2000/svg">
<path d="M24.7201 13.2553C24.5976 13.3797 24.4331 13.4508 24.2616 13.4508H8.00412C7.43012 13.4508 7.13962 12.74 7.53862 12.3171L10.2056 9.51312C10.3281 9.38518 10.4961 9.31055 10.6711 9.31055H26.9881C27.5656 9.31055 27.8561 10.0284 27.4466 10.4513L24.7201 13.2553ZM24.7201 25.7862C24.5976 25.907 24.4331 25.9781 24.2616 25.9781H8.00412C7.43012 25.9781 7.13962 25.2851 7.53862 24.8728L10.2056 22.1364C10.3281 22.012 10.4961 21.9409 10.6711 21.9409H26.9881C27.5656 21.9409 27.8561 22.641 27.4466 23.0533L24.7201 25.7862ZM24.2616 15.6257C24.4331 15.6257 24.5976 15.6933 24.7201 15.8176L27.4466 18.5541C27.8561 18.9628 27.5656 19.6665 26.9881 19.6665H10.6711C10.4961 19.6665 10.3281 19.5954 10.2056 19.471L7.53862 16.7345C7.13612 16.3223 7.42662 15.6293 8.00412 15.6293L24.2616 15.6257Z" fill="#00FFAD"/>
<path d="M20 0C31.044 0 40 8.956 40 20C40 31.044 31.044 40 20 40C8.956 40 0 31.044 0 20C0 8.956 8.956 0 20 0Z" fill="white"/>
<path fill-rule="evenodd" clip-rule="evenodd" d="M10.7578 17.9848H26.9523C27.1553 17.9848 27.3478 18.0665 27.4878 18.2122L30.0498 20.8314C30.5223 21.3147 30.1863 22.1392 29.5143 22.1392H13.3198C13.1168 22.1392 12.9243 22.0575 12.7843 21.9118L10.2223 19.2926C9.74628 18.8092 10.0858 17.9848 10.7578 17.9848ZM10.2223 14.5126L12.7843 11.8935C12.9278 11.7478 13.1203 11.666 13.3198 11.666H29.5108C30.1828 11.666 30.5223 12.4905 30.0463 12.9738L27.4878 15.593C27.3443 15.7387 27.1518 15.8205 26.9523 15.8205H10.7578C10.0858 15.8205 9.74628 14.996 10.2223 14.5126ZM30.0463 25.6113L27.4843 28.2305C27.3408 28.3762 27.1483 28.4579 26.9488 28.4579H10.7578C10.0858 28.4579 9.74628 27.6334 10.2223 27.1501L12.7843 24.5309C12.9278 24.3852 13.1203 24.3035 13.3198 24.3035H29.5108C30.1828 24.3035 30.5223 25.128 30.0463 25.6113Z" fill="url(#paint0_linear_2226_1999)"/>
<defs>
<linearGradient id="paint0_linear_2226_1999" x1="11.154" y1="29.1804" x2="29.3888" y2="11.2219" gradientUnits="userSpaceOnUse">
<stop stop-color="#CB4EE8"/>
<stop offset="1" stop-color="#10F4B1"/>
</linearGradient>
</defs>
</svg>
