<svg width="40" height="41" viewBox="0 0 40 41" fill="none" xmlns="http://www.w3.org/2000/svg">
<path d="M19.9999 36.2894C28.7202 36.2894 35.7894 29.2202 35.7894 20.4999C35.7894 11.7796 28.7202 4.71045 19.9999 4.71045C11.2796 4.71045 4.21045 11.7796 4.21045 20.4999C4.21045 29.2202 11.2796 36.2894 19.9999 36.2894Z" fill="url(#paint0_linear_1426_65173)"/>
<path d="M40 20.5C40 23.1264 39.4827 25.7272 38.4776 28.1537C37.4725 30.5802 35.9993 32.785 34.1421 34.6421C32.285 36.4993 30.0802 37.9725 27.6537 38.9776C25.2272 39.9827 22.6264 40.5 20 40.5C17.3736 40.5 14.7728 39.9827 12.3463 38.9776C9.91982 37.9725 7.71503 36.4993 5.85786 34.6421C4.00069 32.785 2.5275 30.5802 1.52241 28.1537C0.517315 25.7272 -2.2961e-07 23.1264 0 20.5H4.7935C4.7935 22.4969 5.18682 24.4743 5.95102 26.3193C6.71522 28.1642 7.83532 29.8406 9.24738 31.2526C10.6594 32.6647 12.3358 33.7848 14.1807 34.549C16.0257 35.3132 18.0031 35.7065 20 35.7065C21.9969 35.7065 23.9743 35.3132 25.8193 34.549C27.6642 33.7848 29.3406 32.6647 30.7526 31.2526C32.1647 29.8406 33.2848 28.1642 34.049 26.3193C34.8132 24.4743 35.2065 22.4969 35.2065 20.5H40Z" fill="#C73238"/>
<path d="M35.7894 20.4999C35.7894 22.5734 35.381 24.6266 34.5875 26.5423C33.794 28.458 32.631 30.1986 31.1648 31.6648C29.6986 33.131 27.958 34.294 26.0423 35.0875C24.1266 35.881 22.0734 36.2894 19.9999 36.2894C17.9264 36.2894 15.8732 35.881 13.9576 35.0875C12.0419 34.294 10.3013 33.131 8.83508 31.6648C7.36889 30.1986 6.20585 28.458 5.41235 26.5423C4.61886 24.6266 4.21045 22.5734 4.21045 20.4999L19.9999 20.4999H35.7894Z" fill="#070B09"/>
<path d="M24.0399 11.728L11.5791 29.2705H15.4048L27.9302 11.728H24.0399Z" fill="white"/>
<path d="M15.8034 11.728L19.4697 16.8972L17.5568 19.7168L11.8979 11.728H15.8034Z" fill="url(#paint1_linear_1426_65173)"/>
<path d="M24.4109 29.2721L20.3462 23.5548L22.2591 20.8135L28.2367 29.2721H24.4109Z" fill="url(#paint2_linear_1426_65173)"/>
<defs>
<linearGradient id="paint0_linear_1426_65173" x1="29.7702" y1="0.261481" x2="22.0063" y2="32.5383" gradientUnits="userSpaceOnUse">
<stop stop-color="#2C2C3D"/>
<stop offset="1" stop-color="#1A1A27"/>
</linearGradient>
<linearGradient id="paint1_linear_1426_65173" x1="14.9266" y1="12.8245" x2="20.0666" y2="19.1391" gradientUnits="userSpaceOnUse">
<stop stop-color="white"/>
<stop offset="1" stop-color="white" stop-opacity="0.55"/>
</linearGradient>
<linearGradient id="paint2_linear_1426_65173" x1="25.2878" y1="27.9407" x2="18.9841" y2="19.2927" gradientUnits="userSpaceOnUse">
<stop stop-color="#6966FF"/>
<stop offset="1" stop-color="#6966FF" stop-opacity="0.36"/>
</linearGradient>
</defs>
</svg>
