<svg width="152" height="153" viewBox="0 0 152 153" fill="none" xmlns="http://www.w3.org/2000/svg">
<path d="M75.6637 136.726C108.654 136.726 135.398 109.982 135.398 76.9911C135.398 44.0006 108.654 17.2566 75.6637 17.2566C42.6732 17.2566 15.9292 44.0006 15.9292 76.9911C15.9292 109.982 42.6732 136.726 75.6637 136.726Z" fill="#2E3148"/>
<path d="M75.5206 110.797C94.5818 110.797 110.034 95.3452 110.034 76.284C110.034 57.2229 94.5818 41.7708 75.5206 41.7708C56.4594 41.7708 41.0073 57.2229 41.0073 76.284C41.0073 95.3452 56.4594 110.797 75.5206 110.797Z" fill="#1B1E36"/>
<path d="M151.327 76.9911C151.327 86.9274 149.37 96.7664 145.568 105.946C141.765 115.126 136.192 123.467 129.166 130.493C122.14 137.519 113.799 143.093 104.619 146.895C95.439 150.698 85.6 152.655 75.6637 152.655C65.7274 152.655 55.8884 150.698 46.7085 146.895C37.5285 143.093 29.1874 137.519 22.1614 130.493C15.1354 123.467 9.56201 115.126 5.75955 105.946C1.9571 96.7664 -8.68659e-07 86.9274 0 76.9911H18.1347C18.1347 84.5459 19.6227 92.0268 22.5138 99.0065C25.4049 105.986 29.6425 112.328 34.9845 117.67C40.3266 123.012 46.6686 127.25 53.6483 130.141C60.628 133.032 68.1089 134.52 75.6637 134.52C83.2185 134.52 90.6994 133.032 97.6791 130.141C104.659 127.25 111.001 123.012 116.343 117.67C121.685 112.328 125.923 105.986 128.814 99.0065C131.705 92.0268 133.193 84.5459 133.193 76.9911H151.327Z" fill="#C73238"/>
<path d="M135.398 76.9911C135.398 84.8356 133.853 92.6032 130.851 99.8505C127.849 107.098 123.449 113.683 117.902 119.23C112.356 124.777 105.77 129.177 98.5231 132.179C91.2758 135.181 83.5082 136.726 75.6637 136.726C67.8193 136.726 60.0516 135.181 52.8043 132.179C45.557 129.177 38.9719 124.777 33.425 119.23C27.8782 113.683 23.4782 107.098 20.4762 99.8505C17.4743 92.6032 15.9292 84.8355 15.9292 76.9911L75.6637 76.9911H135.398Z" fill="#070B09"/>
<path d="M74.4535 24.7104C68.1486 24.7104 63.0361 47.578 63.0361 75.7867C63.0361 103.995 68.1486 126.863 74.4535 126.863C80.7585 126.863 85.8709 103.995 85.8709 75.7867C85.8709 47.578 80.7585 24.7104 74.4535 24.7104ZM75.2418 123.981C74.5208 124.942 73.7998 124.221 73.7998 124.221C70.8962 120.856 69.4443 114.606 69.4443 114.606C64.3655 98.2622 65.5744 63.1699 65.5744 63.1699C67.9612 35.3102 72.3031 28.7289 73.7807 27.2677C73.9315 27.1186 74.1302 27.0275 74.3416 27.0104C74.5531 26.9933 74.7638 27.0513 74.9367 27.1743C77.0805 28.6933 78.8786 35.0462 78.8786 35.0462C84.1883 54.7555 83.7074 73.2631 83.7074 73.2631C84.1883 89.3671 81.0468 107.394 81.0468 107.394C78.6286 121.094 75.2418 123.981 75.2418 123.981Z" fill="white"/>
<path d="M118.754 50.3657C115.615 44.895 93.2375 51.8413 68.7575 65.8786C44.2774 79.9159 27.0095 95.7312 30.1462 101.199C33.2829 106.668 55.6626 99.7239 80.1427 85.6865C104.623 71.6492 121.891 55.834 118.754 50.3657ZM33.0422 100.449C31.8405 100.298 32.1119 99.3099 32.1119 99.3099C33.5861 95.1181 38.2774 90.7483 38.2774 90.7483C49.9322 78.209 80.9748 61.7948 80.9748 61.7948C106.325 50.0003 114.2 50.4979 116.197 51.0479C116.402 51.1051 116.58 51.233 116.7 51.4091C116.82 51.5851 116.873 51.7978 116.851 52.0095C116.611 54.6261 111.984 59.3454 111.984 59.3454C97.54 73.7645 81.2463 82.5592 81.2463 82.5592C67.5169 90.9932 50.3172 97.2353 50.3172 97.2353C37.2298 101.951 33.0427 100.449 33.0427 100.449H33.0422Z" fill="white"/>
<path d="M118.646 101.38C121.809 95.9236 104.585 80.0362 80.1908 65.8935C55.797 51.7508 33.4226 44.7187 30.2621 50.1841C27.1016 55.6495 44.3231 71.5276 68.731 85.6703C93.1388 99.813 115.485 106.846 118.646 101.38ZM32.3582 52.2924C31.891 51.1845 32.8773 50.9177 32.8773 50.9177C37.2443 50.093 43.3784 51.9723 43.3784 51.9723C60.0663 55.7724 89.8232 74.4119 89.8232 74.4119C112.734 90.4437 116.248 97.5053 116.774 99.5098C116.828 99.7154 116.807 99.9333 116.716 100.125C116.624 100.317 116.468 100.47 116.274 100.558C113.885 101.652 107.487 100.022 107.487 100.022C87.7654 94.734 71.9933 85.0456 71.9933 85.0456C57.8221 77.4023 43.8092 65.6417 43.8092 65.6417C33.1614 56.6766 32.3615 52.3045 32.3615 52.3045L32.3582 52.2924Z" fill="white"/>
<path d="M74.3341 81.6665C77.6528 81.6665 80.343 78.9762 80.343 75.6576C80.343 72.339 77.6528 69.6487 74.3341 69.6487C71.0155 69.6487 68.3252 72.339 68.3252 75.6576C68.3252 78.9762 71.0155 81.6665 74.3341 81.6665Z" fill="white"/>
<path d="M98.9741 56.1939C100.899 56.1939 102.459 54.5797 102.459 52.5885C102.459 50.5973 100.899 48.9832 98.9741 48.9832C97.0495 48.9832 95.4893 50.5973 95.4893 52.5885C95.4893 54.5797 97.0495 56.1939 98.9741 56.1939Z" fill="white"/>
<path d="M41.7632 68.4502C43.6881 68.4502 45.2486 66.836 45.2486 64.8449C45.2486 62.8537 43.6881 61.2395 41.7632 61.2395C39.8383 61.2395 38.2778 62.8537 38.2778 64.8449C38.2778 66.836 39.8383 68.4502 41.7632 68.4502Z" fill="white"/>
<path d="M67.2443 112.675C69.1693 112.675 70.7298 111.061 70.7298 109.07C70.7298 107.079 69.1693 105.465 67.2443 105.465C65.3193 105.465 63.7588 107.079 63.7588 109.07C63.7588 111.061 65.3193 112.675 67.2443 112.675Z" fill="white"/>
</svg>
