<svg width="154" height="153" viewBox="0 0 154 153" fill="none" xmlns="http://www.w3.org/2000/svg">
<path d="M76.8305 136.596C110.113 136.596 137.094 109.616 137.094 76.3333C137.094 43.0509 110.113 16.0702 76.8305 16.0702C43.5481 16.0702 16.5674 43.0509 16.5674 76.3333C16.5674 109.616 43.5481 136.596 76.8305 136.596Z" fill="url(#paint0_linear_13_2415)"/>
<path d="M153.164 76.3333C153.164 86.3575 151.189 96.2836 147.353 105.545C143.517 114.806 137.894 123.221 130.806 130.309C123.718 137.397 115.303 143.02 106.042 146.856C96.7807 150.692 86.8546 152.667 76.8304 152.667C66.8061 152.667 56.8801 150.692 47.6189 146.856C38.3577 143.02 29.9428 137.397 22.8546 130.309C15.7664 123.221 10.1437 114.806 6.30759 105.545C2.47149 96.2836 0.497069 86.3575 0.49707 76.3333H18.7922C18.7922 83.955 20.2934 91.502 23.2101 98.5435C26.1268 105.585 30.4019 111.983 35.7912 117.372C41.1805 122.762 47.5786 127.037 54.6201 129.954C61.6617 132.87 69.2087 134.371 76.8304 134.371C84.452 134.371 91.9991 132.87 99.0406 129.954C106.082 127.037 112.48 122.762 117.87 117.372C123.259 111.983 127.534 105.585 130.451 98.5435C133.367 91.502 134.869 83.955 134.869 76.3333H153.164Z" fill="#C73238"/>
<path d="M137.094 76.3333C137.094 84.2472 135.535 92.0836 132.506 99.395C129.478 106.706 125.039 113.35 119.443 118.946C113.847 124.542 107.204 128.981 99.8922 132.009C92.5808 135.038 84.7444 136.596 76.8305 136.596C68.9166 136.596 61.0803 135.038 53.7688 132.009C46.4574 128.981 39.814 124.542 34.218 118.946C28.6221 113.35 24.1831 106.706 21.1546 99.395C18.1261 92.0836 16.5674 84.2472 16.5674 76.3333L76.8305 76.3333H137.094Z" fill="#070B09"/>
<path d="M75.6597 110.804C92.4183 110.804 106.004 97.1203 106.004 80.2401C106.004 63.3598 92.4183 49.6757 75.6597 49.6757C58.901 49.6757 45.3154 63.3598 45.3154 80.2401C45.3154 97.1203 58.901 110.804 75.6597 110.804Z" fill="white"/>
<path d="M111.455 51.8566C110.712 48.9693 108.321 46.0819 104.019 42.8676C100.567 40.3071 96.902 38.8363 93.9808 38.8363C93.3965 38.8363 92.8656 38.8908 92.3343 38.9997C91.0065 39.272 89.838 40.2527 89.0944 41.7236C88.1914 43.4669 87.979 45.8095 88.5633 47.2259C88.7757 47.6617 89.0413 48.2065 89.36 48.6969C86.545 50.4401 84.9516 50.9304 84.7393 50.9851C92.0689 53.4909 98.1769 58.7209 102.001 65.5308L102.054 64.8769C102.213 63.0792 102.745 61.0089 103.488 58.8843C104.232 59.1022 104.975 59.2112 105.719 59.2112C107.684 59.2112 109.384 58.394 110.446 56.923C111.508 55.4522 111.933 53.4909 111.455 51.8566Z" fill="white"/>
<path d="M76.1338 47.9885C58.7656 47.9885 44.6904 62.4255 44.6904 80.2399C44.6904 98.0545 58.7656 112.491 76.1338 112.491C93.5018 112.491 107.577 98.0545 107.577 80.2399C107.577 62.4255 93.4487 47.9885 76.1338 47.9885ZM76.1338 110.693C59.7216 110.693 46.4433 97.0739 46.4433 80.2399C46.4433 63.4061 59.7216 49.7864 76.1338 49.7864C92.5458 49.7864 105.824 63.4061 105.824 80.2399C105.824 97.0739 92.4927 110.693 76.1338 110.693Z" fill="white"/>
<path d="M104.337 79.9674C104.337 95.9297 91.6964 108.896 76.1343 108.896C60.5721 108.896 47.8779 95.9297 47.8779 79.9674H104.337Z" fill="#070B09"/>
<path d="M104.284 80.2398C104.284 76.9168 98.6544 75.01 91.1653 74.3563C85.7478 73.9204 80.2771 74.4652 74.0097 76.4265C68.592 78.0607 63.7056 77.7883 60.147 77.3525C52.2331 76.4265 47.8779 76.3174 47.8779 80.2398C47.8779 85.9057 59.1378 92.988 76.028 90.5364C84.5793 89.2833 88.9877 86.723 94.0336 84.9796C99.5043 83.1273 104.284 83.1818 104.284 80.2398Z" fill="#070B09"/>
<path d="M85.3749 66.5113C88.0149 66.5113 90.1552 64.3163 90.1552 61.6084C90.1552 58.9005 88.0149 56.7053 85.3749 56.7053C82.735 56.7053 80.5947 58.9005 80.5947 61.6084C80.5947 64.3163 82.735 66.5113 85.3749 66.5113Z" fill="#070B09"/>
<path d="M93.1833 70.1616C94.2982 70.1616 95.2016 69.2347 95.2016 68.0914C95.2016 66.948 94.2982 66.0212 93.1833 66.0212C92.0688 66.0212 91.165 66.948 91.165 68.0914C91.165 69.2347 92.0688 70.1616 93.1833 70.1616Z" fill="#070B09"/>
<defs>
<linearGradient id="paint0_linear_13_2415" x1="16.6629" y1="76.263" x2="137.257" y2="76.263" gradientUnits="userSpaceOnUse">
<stop stop-color="#000292" stop-opacity="0.7"/>
<stop offset="1" stop-color="#7D00C7" stop-opacity="0.7"/>
</linearGradient>
</defs>
</svg>
