<svg aria-hidden="true" style="position: absolute; width: 0; height: 0; overflow: hidden;" version="1.1" xmlns="http://www.w3.org/2000/svg" xmlns:xlink="http://www.w3.org/1999/xlink">
<defs>																																			
 <symbol id="icon-github-alt" viewBox="0 0 32 32">
 <title>Github</title>
	<path d="M11.631 20.544c0 1.306-0.681 3.444-2.294 3.444s-2.294-2.137-2.294-3.444 0.681-3.444 2.294-3.444 2.294 2.137 2.294 3.444zM30 17.387c0 1.994-0.2 4.106-1.094 5.938-2.369 4.787-8.881 4.675-13.544 4.675-4.738 0-11.637 0.169-14.1-4.675-0.912-1.813-1.262-3.944-1.262-5.938 0-2.619 0.869-5.094 2.594-7.1-0.325-0.988-0.481-2.025-0.481-3.050 0-1.344 0.306-2.019 0.913-3.237 2.831 0 4.644 0.563 6.8 2.25 1.813-0.431 3.675-0.625 5.544-0.625 1.688 0 3.387 0.181 5.025 0.575 2.125-1.669 3.938-2.2 6.738-2.2 0.613 1.219 0.913 1.894 0.913 3.237 0 1.025-0.163 2.044-0.481 3.013 1.719 2.025 2.438 4.519 2.438 7.137zM25.981 20.544c0-2.744-1.669-5.162-4.594-5.162-1.181 0-2.313 0.213-3.5 0.375-0.931 0.144-1.863 0.2-2.819 0.2-0.95 0-1.881-0.056-2.819-0.2-1.169-0.162-2.313-0.375-3.5-0.375-2.925 0-4.594 2.419-4.594 5.162 0 5.488 5.025 6.331 9.4 6.331h3.013c4.394 0 9.413-0.837 9.413-6.331zM20.819 17.1c-1.613 0-2.294 2.137-2.294 3.444s0.681 3.444 2.294 3.444 2.294-2.137 2.294-3.444-0.681-3.444-2.294-3.444z"></path>
</symbol>
<symbol id="icon-telegram-plane" viewBox="0 0 32 32">
<title>Telegram</title>
	<path d="M27.919 6.162l-4.225 19.925c-0.319 1.406-1.15 1.756-2.331 1.094l-6.438-4.744-3.106 2.988c-0.344 0.344-0.631 0.631-1.294 0.631l0.463-6.556 11.931-10.781c0.519-0.463-0.113-0.719-0.806-0.256l-14.75 9.287-6.35-1.988c-1.381-0.431-1.406-1.381 0.288-2.044l24.837-9.569c1.15-0.431 2.156 0.256 1.781 2.013z"></path>
</symbol>
<symbol id="icon-twitter-logo" viewBox="0 0 32 32">
	<title>Official Twitter Handle</title>
	<path d="M32 6.079c-1.178 0.522-2.442 0.876-3.769 1.034 1.356-0.812 2.394-2.1 2.885-3.629-1.272 0.752-2.675 1.298-4.171 1.594-1.198-1.278-2.901-2.074-4.791-2.074-3.625 0-6.565 2.939-6.565 6.563 0 0.514 0.058 1.016 0.17 1.496-5.455-0.274-10.292-2.887-13.529-6.859-0.566 0.968-0.888 2.096-0.888 3.299 0 2.278 1.16 4.287 2.919 5.463-1.076-0.036-2.088-0.332-2.973-0.824v0.082c0 3.179 2.264 5.833 5.265 6.437-0.55 0.148-1.13 0.23-1.73 0.23-0.424 0-0.834-0.042-1.236-0.122 0.836 2.61 3.259 4.507 6.131 4.559-2.246 1.76-5.077 2.805-8.152 2.805-0.53 0-1.052-0.032-1.566-0.090 2.905 1.866 6.355 2.953 10.062 2.953 12.076 0 18.677-10.002 18.677-18.677l-0.022-0.85c1.29-0.92 2.405-2.076 3.283-3.391z"></path>
</symbol>
 <!-- <symbol id="icon-twitter-logo" viewBox="0 0 32 32">
	<path d="M32 6.079c-1.178 0.522-2.442 0.876-3.769 1.034 1.356-0.812 2.394-2.1 2.885-3.629-1.272 0.752-2.675 1.298-4.171 1.594-1.198-1.278-2.901-2.074-4.791-2.074-3.625 0-6.565 2.939-6.565 6.563 0 0.514 0.058 1.016 0.17 1.496-5.455-0.274-10.292-2.887-13.529-6.859-0.566 0.968-0.888 2.096-0.888 3.299 0 2.278 1.16 4.287 2.919 5.463-1.076-0.036-2.088-0.332-2.973-0.824v0.082c0 3.179 2.264 5.833 5.265 6.437-0.55 0.148-1.13 0.23-1.73 0.23-0.424 0-0.834-0.042-1.236-0.122 0.836 2.61 3.259 4.507 6.131 4.559-2.246 1.76-5.077 2.805-8.152 2.805-0.53 0-1.052-0.032-1.566-0.090 2.905 1.866 6.355 2.953 10.062 2.953 12.076 0 18.677-10.002 18.677-18.677l-0.022-0.85c1.29-0.92 2.405-2.076 3.283-3.391z"></path>
</symbol> -->
<symbol id="icon-medium-m" viewBox="0 0 32 32">
<title>Medium</title>
	<path d="M4.469 8.894c0.037-0.369-0.106-0.738-0.381-0.987l-2.819-3.4v-0.506h8.762l6.775 14.856 5.956-14.856h8.356v0.506l-2.413 2.313c-0.206 0.156-0.313 0.419-0.269 0.675v17c-0.044 0.256 0.063 0.519 0.269 0.675l2.356 2.313v0.506h-11.856v-0.506l2.444-2.369c0.238-0.238 0.238-0.313 0.238-0.675v-13.738l-6.794 17.244h-0.919l-7.9-17.244v11.556c-0.069 0.488 0.094 0.975 0.438 1.325l3.175 3.85v0.506h-9v-0.5l3.175-3.856c0.338-0.35 0.494-0.844 0.406-1.325v-13.363z"></path>
</symbol>
<symbol id="icon-linkedin" viewBox="0 0 512 512">
<title>linkedin</title>
 <path d="M475.074 0H36.926C16.53 0 0 16.531 0 36.926v438.148C0 495.47 16.531 512 36.926 512h438.148C495.47 512 512 495.469 512 475.074V36.926C512 16.53 495.469 0 475.074 0zM181.61 387h-62.347V199.426h62.347zm-31.172-213.188h-.406c-20.922 0-34.453-14.402-34.453-32.402 0-18.406 13.945-32.41 35.274-32.41 21.328 0 34.453 14.004 34.859 32.41 0 18-13.531 32.403-35.274 32.403zM406.423 387h-62.34V286.652c0-25.218-9.027-42.418-31.586-42.418-17.223 0-27.48 11.602-31.988 22.801-1.649 4.008-2.051 9.61-2.051 15.215V387h-62.344s.817-169.977 0-187.574h62.344v26.558c8.285-12.78 23.11-30.96 56.188-30.96 41.02 0 71.777 26.808 71.777 84.421zm0 0"/>
 </symbol>
 <symbol id="icon-whitepaper" viewBox="0 0 14 16">
 <title>Whitepaper</title>
 <path d="M9.886 3.026c0 .54.45.99.99.99h2.368L9.886.655l-.03-.029v2.399h.03z" />
 <path d="M10.876 4.615a1.6 1.6 0 0 1-1.59-1.59V.388H1.61c-.54 0-.99.45-.99.99V14.99c0 .54.45.99.99.99h10.975c.54 0 .99-.45.99-.99V4.765v-.15h-2.7z"/>
 </symbol>
 <symbol id="icon-tick" fill="none">
 <title>Tick</title>
 <path fill-rule="evenodd" clip-rule="evenodd" d="M7.784 0c2.05 0 3.916.8 5.307 2.107L7.742 8.923 4.954 5.368l-1.05.837 3.838 4.893C10.48 7.61 13.196 4.056 15.95.547L17 1.383l-2.278 2.904a7.864 7.864 0 0 1 .846 3.56c0 4.332-3.486 7.845-7.784 7.845C3.485 15.692 0 12.18 0 7.846S3.485 0 7.784 0z" fill="#E50913"/>
 </symbol>
  <symbol id="icon-untick" fill="none">
  <title>Untick</title>
 <path fill-rule="evenodd" clip-rule="evenodd" d="M7.784 0c2.05 0 3.916.8 5.307 2.107L7.742 8.923 4.954 5.368l-1.05.837 3.838 4.893C10.48 7.61 13.196 4.056 15.95.547L17 1.383l-2.278 2.904a7.864 7.864 0 0 1 .846 3.56c0 4.332-3.486 7.845-7.784 7.845C3.485 15.692 0 12.18 0 7.846S3.485 0 7.784 0z" fill="#7B7B7B"/>
 </symbol>
 <symbol id="icon-arrow" fill="none" viewBox="0 0 16 16">
 <title>Arrow</title>
 <path d="M12.6 4a.6.6 0 0 0-.6-.6H6.6a.6.6 0 0 0 0 1.2h4.8v4.8a.6.6 0 1 0 1.2 0V4zm-8.176 8.424l8-8-.848-.848-8 8 .848.848z" fill="#E50913"/>
 </symbol>


 <symbol id="icon-overview" fill="none" viewBox="0 0 343 382">
 <title>Overview</title>
 <path d="M158.445 354.768L342.5 252.281V277.957L158.445 381.146V354.768Z" fill="#222020" stroke="#D03239"/>
<path d="M187.674 159.614L341.997 251.417L157.597 354.293L2.00917 265.713L187.674 159.614Z" fill="#222020" stroke="#D03239"/>
<path d="M157.445 381.143L1.5 292.854V266.568L157.445 354.062V381.143Z" fill="#222020" stroke="#D03239"/>
<rect width="28.2495" height="28.2483" rx="2.06129" transform="matrix(0.870145 -0.492795 0.870145 0.492795 172 294.77)" fill="white"/>
<path d="M203.822 291.527C204.808 292.085 205.486 292.726 205.858 293.449C206.214 294.163 206.173 294.927 205.737 295.742C205.3 296.556 204.387 297.357 202.997 298.144L200.428 299.599L206.537 303.059L202.391 305.407L185.374 295.769L192.089 291.966C193.446 291.197 194.828 290.68 196.234 290.415C197.64 290.149 198.99 290.117 200.282 290.319C201.575 290.52 202.755 290.923 203.822 291.527ZM199.386 296.455C200.177 296.007 200.581 295.568 200.598 295.138C200.614 294.707 200.282 294.3 199.604 293.916C198.925 293.531 198.206 293.344 197.446 293.353C196.687 293.362 195.911 293.591 195.119 294.039L192.865 295.316L197.131 297.732L199.386 296.455Z" fill="black"/>
<path d="M194.12 285.933L181.065 293.327L183.804 294.878L196.859 287.484L194.12 285.933Z" fill="#E50913"/>
<path d="M219.518 287.493C218.356 286.737 217.582 285.916 217.198 285.03C216.803 284.137 216.817 283.263 217.24 282.407C217.664 281.538 218.467 280.766 219.648 280.093C221.096 279.267 222.704 278.8 224.473 278.692C226.241 278.584 227.937 278.845 229.558 279.475L226.292 281.338C225.557 281.157 224.835 281.111 224.126 281.202C223.429 281.286 222.797 281.489 222.229 281.813C221.314 282.335 220.881 282.958 220.928 283.681C220.975 284.404 221.513 285.1 222.541 285.769C223.57 286.438 224.675 286.81 225.857 286.886C227.04 286.962 228.088 286.739 229.003 286.217C229.571 285.894 229.946 285.523 230.129 285.105C230.324 284.68 230.297 284.238 230.048 283.78L233.314 281.917C234.241 282.944 234.558 283.991 234.265 285.058C233.961 286.119 233.085 287.062 231.637 287.887C230.456 288.561 229.145 289.002 227.703 289.21C226.263 289.404 224.829 289.355 223.402 289.064C221.976 288.772 220.681 288.249 219.518 287.493ZM235.66 273.949C236.772 273.315 238.021 273.039 239.409 273.121C240.785 273.195 242.093 273.636 243.334 274.443L248.8 277.997L245.847 279.681L240.766 276.378C240.14 275.971 239.486 275.751 238.803 275.717C238.121 275.683 237.496 275.828 236.929 276.152C236.361 276.475 236.083 276.846 236.093 277.263C236.104 277.679 236.422 278.091 237.048 278.498L242.129 281.802L239.158 283.496L226.75 275.429L229.721 273.734L234.03 276.536C233.918 276.095 233.999 275.647 234.274 275.189C234.549 274.732 235.011 274.319 235.66 273.949ZM245.579 274.104C244.618 273.479 243.959 272.824 243.603 272.141C243.259 271.45 243.215 270.793 243.472 270.169C243.73 269.544 244.258 269.004 245.057 268.549C245.741 268.159 246.471 267.906 247.249 267.79C248.039 267.667 248.79 267.668 249.504 267.793L248.18 266.932L251.15 265.237L260.507 271.321L257.536 273.015L256.211 272.154C256.358 272.602 256.304 273.062 256.051 273.534C255.81 273.999 255.348 274.426 254.664 274.816C253.877 275.265 252.963 275.548 251.923 275.663C250.872 275.771 249.792 275.698 248.684 275.444C247.575 275.176 246.54 274.729 245.579 274.104ZM252.858 269.973C252.142 269.508 251.369 269.26 250.539 269.229C249.72 269.191 249.015 269.341 248.424 269.678C247.834 270.014 247.537 270.436 247.533 270.943C247.53 271.436 247.886 271.915 248.602 272.38C249.317 272.845 250.09 273.1 250.92 273.145C251.751 273.176 252.461 273.023 253.052 272.686C253.643 272.35 253.934 271.931 253.926 271.431C253.929 270.924 253.573 270.438 252.858 269.973ZM253.821 262.527C253.3 262.825 252.726 262.974 252.1 262.977C251.473 262.966 250.942 262.818 250.506 262.535C250.059 262.244 249.853 261.912 249.886 261.538C249.92 261.15 250.198 260.808 250.719 260.51C251.229 260.22 251.797 260.08 252.423 260.091C253.049 260.089 253.586 260.233 254.033 260.524C254.469 260.807 254.67 261.143 254.636 261.53C254.602 261.904 254.331 262.237 253.821 262.527ZM256.27 262.317L265.627 268.4L262.656 270.095L253.3 264.012L256.27 262.317ZM264.23 257.655C265.365 257.008 266.626 256.725 268.013 256.807C269.401 256.876 270.715 257.313 271.956 258.12L277.422 261.674L274.468 263.358L269.388 260.055C268.762 259.648 268.108 259.427 267.425 259.394C266.743 259.36 266.118 259.505 265.55 259.829C264.983 260.152 264.704 260.523 264.715 260.939C264.726 261.356 265.044 261.768 265.67 262.175L270.751 265.478L267.78 267.173L258.423 261.09L261.394 259.395L262.635 260.202C262.523 259.761 262.604 259.319 262.879 258.876C263.142 258.426 263.593 258.019 264.23 257.655Z" fill="white"/>
<path d="M154.53 269.296L339.452 165.054V191.185L154.53 296.141V269.296Z" fill="#222020" stroke="#D03239"/>
<path d="M186.224 71.582L338.96 164.184L154.033 268.428L1.9898 179.502L186.224 71.582Z" fill="#222020" stroke="#D03239"/>
<path d="M153.53 296.128L1.5 207.116V180.37L153.53 268.574V296.128Z" fill="#222020" stroke="#D03239"/>
<rect width="28.1537" height="28.1525" rx="2.04813" transform="matrix(0.867531 -0.497383 0.867531 0.497383 169.797 211.993)" fill="white"/>
<path d="M201.416 208.732C202.395 209.293 203.07 209.938 203.439 210.665C203.792 211.383 203.752 212.152 203.319 212.971C202.885 213.791 201.978 214.596 200.597 215.388L198.044 216.852L204.114 220.332L199.995 222.693L183.086 212.999L189.758 209.174C191.107 208.4 192.48 207.88 193.877 207.613C195.274 207.346 196.615 207.314 197.899 207.516C199.184 207.719 200.356 208.124 201.416 208.732ZM197.008 213.689C197.795 213.238 198.196 212.796 198.212 212.364C198.228 211.931 197.899 211.521 197.225 211.134C196.55 210.748 195.836 210.559 195.081 210.568C194.326 210.577 193.556 210.808 192.769 211.259L190.529 212.543L194.768 214.974L197.008 213.689Z" fill="black"/>
<path d="M191.775 203.105L178.804 210.542L181.525 212.102L194.496 204.666L191.775 203.105Z" fill="#E50913"/>
<path d="M226.773 206.512C225.884 207.025 224.948 207.394 223.965 207.617C222.982 207.84 222.004 207.896 221.031 207.783C220.07 207.664 219.193 207.358 218.402 206.866L221.554 205.046C222.035 205.305 222.525 205.435 223.024 205.436C223.512 205.429 223.97 205.302 224.398 205.056C224.836 204.802 225.088 204.54 225.153 204.269C225.206 203.99 225.06 203.737 224.715 203.51C224.426 203.319 224.082 203.222 223.685 203.217C223.299 203.206 222.895 203.246 222.473 203.339C222.061 203.425 221.506 203.574 220.808 203.784C219.789 204.084 218.914 204.3 218.184 204.432C217.453 204.565 216.681 204.585 215.866 204.491C215.051 204.397 214.277 204.108 213.542 203.624C212.45 202.906 212.008 202.108 212.215 201.232C212.411 200.348 213.168 199.526 214.484 198.766C215.824 197.993 217.215 197.575 218.659 197.512C220.091 197.442 221.387 197.753 222.548 198.445L219.343 200.295C218.942 200.059 218.502 199.948 218.025 199.962C217.537 199.969 217.085 200.092 216.669 200.332C216.311 200.539 216.117 200.768 216.087 201.019C216.046 201.263 216.198 201.499 216.543 201.726C216.922 201.975 217.402 202.063 217.983 201.989C218.564 201.915 219.369 201.732 220.4 201.44C221.441 201.155 222.321 200.95 223.04 200.824C223.77 200.691 224.537 200.668 225.341 200.754C226.144 200.841 226.897 201.115 227.598 201.577C228.267 202.017 228.695 202.52 228.882 203.085C229.082 203.645 229.008 204.224 228.661 204.823C228.315 205.422 227.685 205.985 226.773 206.512ZM225.74 192.474C227.022 191.734 228.387 191.248 229.836 191.017C231.284 190.787 232.714 190.814 234.124 191.101C235.535 191.373 236.82 191.891 237.978 192.653C239.125 193.408 239.879 194.232 240.239 195.125C240.61 196.012 240.556 196.896 240.076 197.779C239.607 198.655 238.738 199.459 237.468 200.193L232.913 202.823L221.185 195.104L225.74 192.474ZM234.805 198.675C235.925 198.029 236.502 197.331 236.535 196.582C236.568 195.834 236.045 195.104 234.964 194.393C233.884 193.682 232.731 193.309 231.506 193.273C230.281 193.237 229.109 193.542 227.989 194.189L226.586 194.999L233.402 199.485L234.805 198.675ZM252.547 191.487L243.28 190.438L248.459 193.847L245.497 195.557L233.769 187.838L236.731 186.128L241.877 189.515L240.784 183.788L244.266 181.778L245.301 188.281L256.167 189.397L252.547 191.487Z" fill="white"/>
<g opacity="0.95">
<path d="M151.5 217.099L335.936 110.596V85.585L151.5 192V217.099Z" fill="url(#paint0_linear)"/>
</g>
<g opacity="0.95">
<path opacity="0.9" d="M70.5 171.599L254.936 65.0956V40.085L70.5 146.5V171.599Z" fill="url(#paint1_linear)"/>
</g>
<g opacity="0.95">
<path d="M151.5 192L335.984 85.4894L265 45.5L81 152L151.5 192Z" fill="url(#paint2_linear)"/>
<path d="M81 177L152.224 217.423V192.412L81 151.99V177Z" fill="url(#paint3_linear)"/>
</g>
<g opacity="0.95" class="papp-color">
<path d="M70.5 146.5L254.984 39.9894L184 0L0 106.5L70.5 146.5Z" fill="#C4070F"/>
<path opacity="0.9" d="M0 131.5L71.2245 171.923V146.912L0 106.49V131.5Z" fill="url(#paint4_linear)"/>
</g>
<path d="M130.567 88.6041C129.945 88.2246 129.518 87.8165 129.285 87.3797C129.059 86.9385 129.034 86.513 129.211 86.1031C129.387 85.6933 129.741 85.3342 130.274 85.026C130.679 84.7916 131.154 84.6223 131.699 84.518C132.237 84.4092 132.758 84.3799 133.264 84.4302L130.346 82.6483L131.944 81.7237L140.154 86.7373L138.557 87.6619L137.647 87.1064C137.755 87.4044 137.725 87.7119 137.558 88.0289C137.39 88.3458 137.074 88.6388 136.609 88.908C136.084 89.2118 135.47 89.4083 134.769 89.4975C134.068 89.5867 133.349 89.5582 132.613 89.4122C131.878 89.2574 131.195 88.988 130.567 88.6041ZM135.495 85.7787C135.117 85.5483 134.721 85.3953 134.304 85.3195C133.881 85.2392 133.471 85.2299 133.075 85.2917C132.672 85.3489 132.325 85.4622 132.032 85.6315C131.74 85.8008 131.54 86 131.433 86.229C131.326 86.4581 131.33 86.7018 131.447 86.9601C131.563 87.2095 131.806 87.4471 132.176 87.6729C132.546 87.8988 132.946 88.0541 133.377 88.1389C133.808 88.2149 134.222 88.2264 134.617 88.1735C135.02 88.1163 135.364 88.0052 135.649 87.8402C135.942 87.6709 136.145 87.4696 136.26 87.2362C136.367 86.9982 136.362 86.7546 136.246 86.5051C136.122 86.2512 135.872 86.0091 135.495 85.7787ZM145.033 82.1591L141.905 83.9692L142.863 85.1699L141.209 86.127L136.278 79.7568L138.112 78.6955L148.692 81.797L147.026 82.7607L145.033 82.1591ZM143.363 81.6477L138.987 80.327L141.09 82.963L143.363 81.6477ZM146.064 77.0631C145.985 76.7743 146.03 76.4714 146.197 76.1545C146.365 75.8287 146.678 75.5334 147.135 75.2686C147.668 74.9604 148.277 74.7616 148.964 74.6723C149.658 74.5786 150.369 74.6069 151.097 74.7573C151.826 74.8988 152.504 75.1615 153.133 75.5454C153.762 75.9293 154.192 76.3441 154.426 76.7898C154.659 77.2267 154.691 77.6523 154.522 78.0667C154.361 78.4767 154.014 78.8358 153.481 79.144C153.024 79.4088 152.526 79.5867 151.989 79.6778C151.459 79.7646 150.945 79.7851 150.446 79.7393L154.252 82.0632L152.676 82.9748L143.601 77.4327L145.176 76.5211L146.064 77.0631ZM151.524 76.4765C151.154 76.2507 150.757 76.102 150.333 76.0306C149.91 75.9503 149.5 75.941 149.104 76.0028C148.716 76.0602 148.376 76.1736 148.084 76.3429C147.798 76.5078 147.602 76.7092 147.495 76.9472C147.388 77.1762 147.393 77.4199 147.509 77.6782C147.633 77.9321 147.879 78.172 148.249 78.3979C148.619 78.6237 149.016 78.7768 149.44 78.8571C149.871 78.933 150.284 78.9446 150.68 78.8917C151.075 78.8299 151.415 78.7165 151.7 78.5516C151.993 78.3823 152.189 78.1808 152.289 77.9473C152.396 77.7093 152.388 77.4634 152.264 77.2095C152.148 76.9512 151.901 76.7069 151.524 76.4765ZM153.689 72.6503C153.611 72.3614 153.655 72.0585 153.823 71.7416C153.991 71.4158 154.303 71.1205 154.761 70.8557C155.294 70.5475 155.903 70.3487 156.589 70.2594C157.283 70.1657 157.995 70.194 158.723 70.3444C159.451 70.4859 160.13 70.7486 160.759 71.1325C161.387 71.5164 161.818 71.9313 162.051 72.3769C162.285 72.8138 162.317 73.2394 162.148 73.6538C161.987 74.0638 161.64 74.4229 161.107 74.7311C160.65 74.9959 160.152 75.1738 159.615 75.2649C159.085 75.3517 158.57 75.3722 158.072 75.3265L161.877 77.6503L160.302 78.5619L151.226 73.0198L152.802 72.1082L153.689 72.6503ZM159.15 72.0636C158.78 71.8378 158.383 71.6891 157.959 71.6177C157.535 71.5374 157.126 71.5281 156.73 71.5899C156.342 71.6473 156.002 71.7607 155.709 71.93C155.424 72.0949 155.228 72.2964 155.121 72.5343C155.014 72.7633 155.019 73.007 155.135 73.2653C155.258 73.5192 155.505 73.7591 155.875 73.985C156.245 74.2108 156.642 74.3639 157.065 74.4442C157.496 74.5201 157.91 74.5317 158.305 74.4788C158.701 74.417 159.041 74.3036 159.326 74.1387C159.619 73.9694 159.815 73.7679 159.914 73.5344C160.022 73.2964 160.013 73.0505 159.89 72.7966C159.774 72.5383 159.527 72.294 159.15 72.0636Z" fill="#E1E1E1"/>
<path d="M76.201 85.3557L78.5276 86.6127L81.7838 84.7583L83.9465 85.9267L80.6903 87.7811L83.2134 89.1442L87.4046 86.7574L89.6493 87.9701L82.6909 91.9328L71.1892 85.7189L78.1476 81.7562L80.3922 82.9689L76.201 85.3557Z" fill="white"/>
<path d="M98.8399 82.6591L92.3602 81.5309L91.2472 82.1647L95.589 84.5104L92.8218 86.0863L81.3202 79.8724L85.9645 77.2275C86.8599 76.7176 87.7789 76.37 88.7214 76.1848C89.6746 75.9935 90.5862 75.9592 91.4561 76.082C92.3151 76.1989 93.0832 76.4403 93.7604 76.8062C94.525 77.2192 94.9919 77.7109 95.1612 78.2812C95.3412 78.8454 95.1414 79.4319 94.562 80.0407L101.738 81.0085L98.8399 82.6591ZM89.2647 81.0937L90.9801 80.1168C91.4871 79.8281 91.7391 79.5452 91.736 79.2681C91.7437 78.985 91.5182 78.7195 91.0594 78.4716C90.6225 78.2356 90.149 78.1234 89.6388 78.1351C89.1395 78.1407 88.6363 78.2879 88.1292 78.5766L86.4139 79.5535L89.2647 81.0937Z" fill="white"/>
<path d="M108.816 77.1821C107.986 77.6552 107.105 78.0053 106.174 78.2326C105.242 78.4598 104.31 78.5425 103.375 78.4807C102.452 78.4127 101.602 78.1812 100.827 77.7863L103.772 76.1091C104.241 76.3147 104.715 76.4088 105.192 76.3914C105.659 76.3681 106.092 76.2428 106.491 76.0155C106.901 75.7821 107.132 75.5476 107.183 75.3121C107.224 75.0707 107.075 74.8586 106.736 74.6756C106.452 74.5222 106.12 74.4506 105.741 74.4609C105.371 74.465 104.987 74.5145 104.586 74.6093C104.196 74.698 103.671 74.8454 103.011 75.0515C102.048 75.3454 101.22 75.5624 100.527 75.7027C99.8336 75.8429 99.0959 75.8873 98.3136 75.8358C97.5313 75.7843 96.7797 75.5638 96.0588 75.1744C94.9884 74.5961 94.5358 73.9265 94.701 73.1658C94.8553 72.3991 95.5474 71.6656 96.7772 70.9652C98.0287 70.2525 99.3432 69.8433 100.721 69.7376C102.088 69.626 103.339 69.8469 104.474 70.4004L101.48 72.1052C101.087 71.9169 100.663 71.8373 100.207 71.8665C99.7406 71.8898 99.3131 72.012 98.9248 72.2332C98.5903 72.4236 98.4135 72.6274 98.3942 72.8444C98.364 73.0556 98.5182 73.2526 98.8568 73.4355C99.2281 73.6362 99.6902 73.6943 100.243 73.6098C100.796 73.5253 101.559 73.3391 102.533 73.0512C103.518 72.7691 104.351 72.561 105.034 72.4269C105.727 72.2867 106.459 72.2393 107.231 72.2849C108.002 72.3305 108.732 72.5392 109.42 72.911C110.075 73.265 110.503 73.6819 110.704 74.1615C110.916 74.635 110.867 75.1354 110.558 75.6629C110.249 76.1904 109.669 76.6968 108.816 77.1821Z" fill="white"/>
<path d="M107.107 65.2642L118.609 71.4781L115.842 73.054L104.34 66.8401L107.107 65.2642Z" fill="white"/>
<path d="M126.134 67.3201C125.303 67.7932 124.422 68.1433 123.491 68.3705C122.56 68.5978 121.627 68.6805 120.693 68.6186C119.769 68.5506 118.92 68.3192 118.145 67.9243L121.09 66.2471C121.559 66.4527 122.032 66.5468 122.51 66.5294C122.976 66.5061 123.409 66.3808 123.808 66.1535C124.218 65.92 124.449 65.6856 124.501 65.4501C124.541 65.2087 124.393 64.9965 124.054 64.8136C123.77 64.6602 123.438 64.5886 123.058 64.5989C122.689 64.603 122.304 64.6525 121.904 64.7473C121.514 64.836 120.989 64.9834 120.329 65.1895C119.366 65.4833 118.538 65.7004 117.844 65.8407C117.151 65.9809 116.413 66.0253 115.631 65.9738C114.849 65.9223 114.097 65.7018 113.376 65.3123C112.306 64.734 111.853 64.0645 112.019 63.3037C112.173 62.5371 112.865 61.8035 114.095 61.1032C115.346 60.3905 116.661 59.9813 118.038 59.8756C119.405 59.7639 120.656 59.9849 121.791 60.5384L118.798 62.2432C118.405 62.0549 117.98 61.9753 117.525 62.0045C117.058 62.0277 116.631 62.15 116.242 62.3711C115.908 62.5616 115.731 62.7654 115.712 62.9824C115.682 63.1935 115.836 63.3906 116.174 63.5735C116.546 63.7742 117.008 63.8322 117.561 63.7478C118.113 63.6633 118.877 63.4771 119.851 63.1891C120.835 62.9071 121.669 62.699 122.351 62.5649C123.045 62.4247 123.777 62.3773 124.548 62.4229C125.32 62.4685 126.049 62.6772 126.738 63.049C127.393 63.403 127.821 63.8199 128.022 64.2995C128.233 64.7729 128.185 65.2734 127.876 65.8009C127.567 66.3283 126.986 66.8347 126.134 67.3201Z" fill="white"/>
<path d="M129.83 52.3242L132.074 53.5369L129.065 55.251L138.322 60.2522L135.554 61.828L126.297 56.8268L123.287 58.5409L121.043 57.3282L129.83 52.3242Z" fill="white"/>
<path d="M137.525 50.4329L139.851 51.6899L143.108 49.8355L145.27 51.0039L142.014 52.8583L144.537 54.2215L148.729 51.8346L150.973 53.0473L144.015 57.01L132.513 50.7961L139.472 46.8334L141.716 48.0461L137.525 50.4329Z" fill="white"/>
<path d="M164.227 45.4997L161.46 47.0755L149.737 45.8784L156.831 49.7112L154.064 51.287L142.563 45.0731L145.33 43.4973L157.085 44.7121L149.958 40.8616L152.725 39.2858L164.227 45.4997Z" fill="white"/>
<path d="M161.291 40.7716C160.155 40.1579 159.387 39.4738 158.988 38.7193C158.578 37.959 158.558 37.2003 158.93 36.4432C159.301 35.6742 160.037 34.9763 161.137 34.3496C162.486 33.5817 164.001 33.119 165.682 32.9617C167.363 32.8044 168.988 32.97 170.557 33.4584L167.514 35.1909C166.807 35.0603 166.118 35.0469 165.446 35.1508C164.785 35.2485 164.19 35.4479 163.661 35.7489C162.809 36.2343 162.419 36.7897 162.491 37.4153C162.563 38.041 163.101 38.6252 164.106 39.1681C165.111 39.711 166.178 39.9942 167.308 40.0177C168.437 40.0413 169.428 39.8104 170.28 39.325C170.809 39.024 171.153 38.6889 171.311 38.3197C171.481 37.9443 171.439 37.5623 171.184 37.1737L174.227 35.4412C175.148 36.2982 175.489 37.1948 175.25 38.1311C175 39.0615 174.201 39.9106 172.852 40.6786C171.752 41.3052 170.519 41.7346 169.153 41.9667C167.788 42.1867 166.42 42.196 165.05 41.9945C163.68 41.7929 162.427 41.3853 161.291 40.7716Z" fill="white"/>
<path d="M174.658 29.2862L176.985 30.5432L180.241 28.6888L182.404 29.8572L179.147 31.7116L181.671 33.0748L185.862 30.6879L188.106 31.9006L181.148 35.8633L169.646 29.6494L176.605 25.6867L178.849 26.8994L174.658 29.2862Z" fill="white"/>
<rect width="19.0616" height="19.0608" rx="1.39775" transform="matrix(0.868971 -0.494862 0.87981 0.475326 45.6299 94.5564)" fill="white"/>
<path d="M67.184 92.1614C67.8566 92.5248 68.3216 92.9452 68.579 93.4226C68.8254 93.8941 68.8036 94.4021 68.5138 94.9464C68.224 95.4908 67.6108 96.0296 66.6743 96.563L64.9428 97.549L69.1105 99.8007L66.3173 101.391L54.707 95.1189L59.2318 92.5421C60.1466 92.0212 61.0797 91.6672 62.031 91.4803C62.9824 91.2933 63.8972 91.2618 64.7753 91.3858C65.6534 91.5097 66.4563 91.7683 67.184 92.1614ZM64.2127 95.4687C64.7463 95.1648 65.017 94.87 65.0247 94.5841C65.0325 94.2983 64.8048 94.0302 64.3417 93.7801C63.8787 93.5299 63.3896 93.4107 62.8747 93.4225C62.3597 93.4344 61.8354 93.5922 61.3018 93.8961L59.7827 94.7612L62.6935 96.3338L64.2127 95.4687Z" fill="black"/>
<path d="M60.5614 88.5195L51.7646 93.5291L53.6331 94.5385L62.4299 89.5289L60.5614 88.5195Z" fill="#E50913"/>
<path d="M212.563 135.44C211.941 135.06 211.514 134.653 211.28 134.216C211.054 133.775 211.029 133.349 211.205 132.939C211.381 132.529 211.735 132.17 212.268 131.862C212.673 131.627 213.148 131.458 213.693 131.353C214.23 131.244 214.752 131.214 215.258 131.264L212.339 129.484L213.937 128.559L222.149 133.568L220.552 134.494L219.642 133.939C219.75 134.237 219.721 134.544 219.553 134.861C219.386 135.178 219.07 135.471 218.605 135.741C218.08 136.045 217.467 136.242 216.765 136.331C216.064 136.421 215.345 136.392 214.61 136.247C213.874 136.092 213.191 135.823 212.563 135.44ZM217.489 132.612C217.112 132.382 216.715 132.229 216.299 132.153C215.875 132.073 215.465 132.064 215.07 132.126C214.667 132.183 214.319 132.297 214.027 132.466C213.734 132.636 213.534 132.835 213.428 133.064C213.321 133.293 213.325 133.537 213.442 133.795C213.558 134.045 213.801 134.282 214.171 134.508C214.541 134.733 214.942 134.889 215.373 134.973C215.804 135.049 216.217 135.06 216.613 135.007C217.016 134.95 217.36 134.838 217.645 134.673C217.937 134.504 218.14 134.302 218.255 134.069C218.362 133.831 218.357 133.587 218.241 133.338C218.117 133.084 217.866 132.842 217.489 132.612ZM227.026 128.988L223.899 130.799L224.857 132L223.204 132.957L218.27 126.59L220.103 125.527L230.684 128.624L229.019 129.588L227.026 128.988ZM225.355 128.477L220.979 127.159L223.083 129.793L225.355 128.477ZM228.054 123.891C227.975 123.602 228.02 123.3 228.187 122.983C228.355 122.657 228.667 122.361 229.125 122.096C229.657 121.788 230.267 121.589 230.953 121.499C231.647 121.405 232.358 121.433 233.086 121.583C233.815 121.724 234.494 121.987 235.122 122.37C235.751 122.754 236.182 123.168 236.416 123.614C236.649 124.051 236.682 124.476 236.513 124.891C236.352 125.301 236.005 125.66 235.473 125.969C235.015 126.234 234.518 126.412 233.98 126.503C233.451 126.59 232.936 126.611 232.438 126.565L236.244 128.887L234.669 129.8L225.591 124.262L227.166 123.35L228.054 123.891ZM233.514 123.302C233.144 123.076 232.747 122.928 232.323 122.857C231.899 122.777 231.49 122.767 231.094 122.829C230.706 122.887 230.366 123.001 230.074 123.17C229.789 123.335 229.593 123.537 229.486 123.775C229.379 124.004 229.383 124.247 229.5 124.506C229.623 124.759 229.87 124.999 230.24 125.225C230.61 125.451 231.007 125.603 231.431 125.684C231.862 125.759 232.275 125.771 232.671 125.718C233.066 125.656 233.407 125.542 233.692 125.377C233.984 125.208 234.18 125.006 234.279 124.772C234.386 124.534 234.378 124.289 234.254 124.035C234.138 123.776 233.891 123.532 233.514 123.302ZM235.678 119.475C235.599 119.186 235.643 118.883 235.811 118.566C235.978 118.24 236.291 117.945 236.748 117.68C237.281 117.371 237.89 117.172 238.577 117.082C239.27 116.988 239.982 117.016 240.71 117.166C241.439 117.308 242.117 117.57 242.746 117.954C243.375 118.337 243.806 118.752 244.039 119.197C244.273 119.634 244.305 120.06 244.137 120.474C243.976 120.884 243.629 121.244 243.096 121.552C242.639 121.817 242.142 121.995 241.604 122.087C241.074 122.174 240.56 122.194 240.061 122.149L243.868 124.471L242.293 125.383L233.215 119.845L234.79 118.933L235.678 119.475ZM241.138 118.885C240.768 118.66 240.371 118.511 239.947 118.44C239.523 118.36 239.113 118.351 238.718 118.413C238.33 118.471 237.99 118.584 237.697 118.753C237.412 118.919 237.216 119.12 237.109 119.358C237.002 119.587 237.007 119.831 237.123 120.089C237.247 120.343 237.494 120.583 237.864 120.808C238.234 121.034 238.631 121.187 239.054 121.267C239.486 121.343 239.899 121.354 240.294 121.301C240.69 121.239 241.03 121.126 241.315 120.96C241.608 120.791 241.804 120.59 241.903 120.356C242.01 120.118 242.002 119.872 241.878 119.618C241.762 119.36 241.515 119.116 241.138 118.885Z" fill="#E1E1E1"/>
<path d="M185.294 129.271L166.894 140.287L157.271 133.716L154.44 135.411L165.389 142.888C166.117 143.385 167.354 143.412 168.131 142.946L184.256 133.293L183.734 137.205L165.861 147.905L149.945 137.036L153.581 134.859L156.411 133.164L168.345 126.02C168.706 125.804 168.909 125.516 168.951 125.224L169.984 117.606C170.064 117.092 169.604 116.6 168.916 116.379C168.174 116.157 167.308 116.242 166.726 116.591L146.91 128.454C146.133 128.919 146.092 129.71 146.821 130.207L150.123 132.463L152.954 130.768L150.978 129.418L165.687 120.612L165.165 124.524L153.786 131.336L150.956 133.031L145.877 136.072C145.1 136.537 145.059 137.328 145.788 137.825L164.356 150.506C165.084 151.003 166.321 151.029 167.098 150.564L186.914 138.7C187.275 138.484 187.478 138.196 187.519 137.905L188.552 130.287C188.632 129.773 188.173 129.281 187.485 129.06C186.742 128.838 185.877 128.922 185.294 129.271Z" fill="#FE4350"/>
<path d="M187.771 113.916C190.348 112.486 194.49 111.727 198.154 113.311C197.08 113.907 196.099 114.452 195.025 115.048C193.36 114.599 191.882 114.783 190.532 115.532C188.662 116.571 188.786 118.042 190.755 119.194C192.517 120.226 195.241 120.456 197.172 119.417C198.521 118.668 198.98 117.677 198.024 116.733C199.098 116.137 200.079 115.592 201.153 114.996C204.071 117.229 202.602 119.552 199.933 121.033C196.804 122.804 191.527 123.388 187.473 121.016C183.419 118.644 184.581 115.687 187.771 113.916Z" fill="white"/>
<path d="M200.751 113.676C192.496 108.845 205.285 101.746 213.541 106.576C221.795 111.441 209.036 118.524 200.751 113.676ZM210.259 108.398C205.97 105.888 199.713 109.361 204.002 111.871C208.35 114.415 214.607 110.942 210.259 108.398Z" fill="white"/>
<path d="M219.849 96.2068L220.984 95.5768L232.97 102.591C231.896 103.187 230.792 103.799 229.719 104.395L224.401 101.284L224.437 104.312L224.069 104.517L218.758 104.417L224.075 107.528C223.001 108.124 221.897 108.737 220.824 109.333L208.838 102.319L210.003 101.672L220.051 101.991L219.849 96.2068Z" fill="white"/>
<path d="M239.748 98.8296L235.055 101.435L223.099 94.438L227.791 91.833C235.978 87.3555 247.846 94.3005 239.748 98.8296ZM235.454 98.0308L236.957 97.1965C240.914 95.0001 234.539 91.2698 230.582 93.4661L229.079 94.3004L235.454 98.0308Z" fill="white"/>
<path d="M245.767 84.9686C243.927 85.9901 242.976 86.5181 241.166 87.5225L242.87 88.5195L247.103 86.17C248.013 86.7029 248.924 87.2358 249.806 87.7515L245.542 90.1182C246.247 90.5307 246.923 90.9261 247.628 91.3387C249.468 90.3172 250.542 89.7212 252.413 88.6826C253.294 89.1983 254.234 89.7484 255.115 90.2641C252.202 91.8816 250.055 93.0734 247.172 94.674C243.176 92.3361 239.181 89.9981 235.244 87.6946C238.127 86.094 240.09 85.0045 243.035 83.3698C243.945 83.9028 244.856 84.4357 245.767 84.9686Z" fill="white"/>
<path d="M258.471 84.1482L259.839 87.6767L256.496 89.5325L256.026 89.2575L254.168 83.5889L245.438 82.5726L244.968 82.2976L248.22 80.4927L253.358 81.1911L253.45 81.1402L252.421 78.1602L255.611 76.3894L256.081 76.6644L257.665 81.648L267.589 82.8386L268.059 83.1136L264.716 84.9694L258.563 84.0971L258.471 84.1482Z" fill="white"/>
<defs>
<linearGradient id="paint0_linear" x1="110.502" y1="131" x2="336.002" y2="128" gradientUnits="userSpaceOnUse">
<stop stop-color="#063B71"/>
<stop offset="1" stop-color="#1661AE"/>
</linearGradient>
<linearGradient id="paint1_linear" x1="62.9752" y1="62.3572" x2="249.292" y2="170.294" gradientUnits="userSpaceOnUse">
<stop stop-color="#E50913"/>
<stop offset="1" stop-color="#F53F48"/>
</linearGradient>
<linearGradient id="paint2_linear" x1="254.5" y1="42.5" x2="164.5" y2="177.5" gradientUnits="userSpaceOnUse">
<stop stop-color="#053C75"/>
<stop offset="1" stop-color="#04386F"/>
</linearGradient>
<linearGradient id="paint3_linear" x1="42.643" y1="171.895" x2="152.262" y2="170.697" gradientUnits="userSpaceOnUse">
<stop stop-color="#063B71"/>
<stop offset="1" stop-color="#1661AE"/>
</linearGradient>
<linearGradient id="paint4_linear" x1="-64.4201" y1="84.2648" x2="74.7558" y2="156.549" gradientUnits="userSpaceOnUse">
<stop stop-color="#E50913"/>
<stop offset="1" stop-color="#F53F48"/>
</linearGradient>
 </defs>
 </symbol>












 <symbol id="icon-stakearrow" fill="none" viewBox="0 0 15 15">
 <title>StakeArrow</title>
 <path d="M10.901 4.847c0-.022 0-.042-.003-.061 0-.011-.002-.022-.004-.033a.746.746 0 0 0-.653-.649l-.026-.002a.592.592 0 0 0-.064-.004H5.44a.75.75 0 0 0 0 1.5H8.34L4.317 9.621a.75.75 0 1 0 1.061 1.061L9.401 6.66v2.9a.75.75 0 0 0 1.5.001V4.85v-.003z" fill="#565C68"/>
 <path d="M2.197 12.804A7.5 7.5 0 1 0 12.804 2.196 7.5 7.5 0 0 0 2.197 12.804zm9.546-9.546a6.001 6.001 0 1 1-8.488 8.485 6.001 6.001 0 0 1 8.488-8.486z" fill="#565C68"/>
 </symbol>
 <symbol id="icon-stake-time" fill="none" viewBox="0 0 18 18">
 <title>Staketime</title>
 <path d="M6.2 3.164h.956c.257 0 .46-.203.46-.46V.46a.455.455 0 0 0-.46-.46h-.957a.455.455 0 0 0-.46.46v2.226a.45.45 0 0 0 .46.478zM12.875 3.164h.957c.257 0 .46-.203.46-.46V.46a.455.455 0 0 0-.46-.46h-.957a.455.455 0 0 0-.46.46v2.226a.45.45 0 0 0 .46.478z" fill="#565C68"/>
 <path d="M15.34 2.06h-.239v.644c0 .699-.57 1.25-1.25 1.25h-.957c-.699 0-1.25-.57-1.25-1.25V2.06h-3.22v.644c0 .699-.57 1.25-1.25 1.25h-.957c-.699 0-1.25-.57-1.25-1.25V2.06H4.69c-.974 0-1.765.791-1.765 1.766v4.598C1.214 9.142 0 10.816 0 12.784a4.687 4.687 0 0 0 4.69 4.69c1.95 0 3.624-1.195 4.341-2.906h6.291c.975 0 1.766-.79 1.766-1.766V3.826c.018-.975-.79-1.766-1.747-1.766zM4.71 16.297c-1.95 0-3.532-1.582-3.532-3.513A3.525 3.525 0 0 1 4.69 9.27c1.932 0 3.532 1.563 3.532 3.513a3.513 3.513 0 0 1-3.513 3.513zm11.22-3.495a.605.605 0 0 1-.588.589H9.344c.019-.203.037-.405.037-.607a4.687 4.687 0 0 0-5.28-4.654V5.74h11.81v7.063h.018z" fill="#565C68"/>
 <path d="M6.382 12.195H5.296v-1.398a.581.581 0 0 0-.588-.588.581.581 0 0 0-.589.588v1.987c0 .33.258.588.589.588h1.674a.581.581 0 0 0 .588-.588.581.581 0 0 0-.588-.589z" fill="#565C68"/>
 </symbol>
 <symbol id="icon-stake-flag" fill="none" viewBox="0 0 14 18">
 <title>Stakeflag</title>
 <path d="M.9 16.5a.6.6 0 0 0 1.2 0v-15a.6.6 0 0 0-1.2 0v15z" fill="#565C68" stroke="#565C68" stroke-width=".2"/>
 <path d="M.936 10.705h0a.6.6 0 0 0 .768.36l.001-.001 11-4h0a.601.601 0 0 0 0-1.128h0l-11-4h0a.6.6 0 0 0-.769.359h0a.601.601 0 0 0 .359.769h0l9.45 3.436-9.45 3.436s0 0 0 0a.6.6 0 0 0-.359.769z" fill="#565C68" stroke="#565C68" stroke-width=".2"/>
 </symbol>
 <symbol id="icon-stake-fillflag" fill="none" viewBox="0 0 14 18">
 <title>Stakefillflag</title>
 <path d="M.9 16.5a.6.6 0 0 0 1.2 0v-15a.6.6 0 0 0-1.2 0v15z" fill="#565C68" stroke="#565C68" stroke-width=".2"/>
 <path d="M.936 10.705h0a.6.6 0 0 0 .768.36l.001-.001 11-4h0a.601.601 0 0 0 0-1.128h0l-11-4h0a.6.6 0 0 0-.769.359h0a.601.601 0 0 0 .359.769h0l9.45 3.436-9.45 3.436s0 0 0 0a.6.6 0 0 0-.359.769z" fill="#565C68" stroke="#565C68" stroke-width=".2"/>
 <path d="M11 6.5L1.5 3v7.5l9.5-4z" fill="#565C68"/>
 </symbol>
 <symbol id="icon-reddit" fill="none" viewBox="0 0 35 35">
 <title>Reddit</title>
 <path d="M20.764 22.383a.314.314 0 0 1 0 .446c-.678.674-1.741 1.002-3.254 1.002l-.012-.003-.011.003c-1.511 0-2.575-.328-3.254-1.004a.313.313 0 0 1 0-.445.319.319 0 0 1 .448 0c.553.55 1.47.819 2.806.819l.012.002.011-.002c1.335 0 2.252-.269 2.806-.819a.319.319 0 0 1 .448 0zm-5.017-3.527c0-.74-.604-1.34-1.345-1.34-.742 0-1.345.6-1.345 1.34 0 .738.603 1.339 1.345 1.339.741.002 1.345-.6 1.345-1.339zM35 17.5C35 27.164 27.164 35 17.5 35S0 27.164 0 17.5 7.836 0 17.5 0 35 7.836 35 17.5zm-7.292-.188a2.257 2.257 0 0 0-3.826-1.616c-1.54-1.014-3.624-1.658-5.93-1.741l1.261-3.973 3.417.8-.004.05c0 1.015.83 1.84 1.85 1.84 1.019 0 1.847-.825 1.847-1.84 0-1.014-.828-1.84-1.848-1.84a1.85 1.85 0 0 0-1.72 1.173L19.075 9.3a.316.316 0 0 0-.375.212l-1.408 4.43c-2.415.03-4.6.68-6.21 1.722a2.255 2.255 0 0 0-1.53-.605 2.26 2.26 0 0 0-2.26 2.252c0 .825.454 1.54 1.12 1.932-.043.24-.072.483-.072.73 0 3.326 4.09 6.032 9.119 6.032 5.028 0 9.119-2.706 9.119-6.033 0-.233-.025-.462-.065-.688a2.24 2.24 0 0 0 1.196-1.973zm-7.105.205c-.742 0-1.344.601-1.344 1.34a1.344 1.344 0 0 0 2.689 0c0-.739-.602-1.34-1.345-1.34z" fill="#9A9A9A"/>
 </symbol>
 <symbol id="icon-participate" fill="none" viewBox="0 0 35 42">
 <title>Participate</title>
 <path d="M32.895 38.116h-1.74c0-10.272-9.932-11.842-12.989-17.318 3.057-5.475 12.989-7.088 12.989-17.317h1.74c.976 0 1.74-.765 1.74-1.74 0-.977-.764-1.741-1.74-1.741H1.74C.764 0 0 .764 0 1.74s.764 1.74 1.74 1.74h1.74c0 10.272 9.933 11.843 12.989 17.318C13.413 26.274 3.48 27.887 3.48 38.116H1.74c-.977 0-1.741.764-1.741 1.74s.764 1.74 1.74 1.74h31.198c.976 0 1.74-.764 1.74-1.74-.043-.934-.807-1.74-1.783-1.74zM6.919 3.48h20.798c0 8.658-10.4 10.356-10.4 13.837 0-3.48-10.398-5.179-10.398-13.837zm0 34.635c0-8.659 10.399-10.4 10.399-13.837 0 3.438 10.399 5.22 10.399 13.88l-20.798-.043z" fill="#838C9F"/>
 </symbol>
  <symbol id="icon-arrow-right"  viewBox="0 0 18 12">
  <title>Arrow-right</title>
 <path d="M17.259 6.53a.75.75 0 0 0 0-1.06L12.486.697a.75.75 0 1 0-1.061 1.06L15.668 6l-4.243 4.243a.75.75 0 0 0 1.06 1.06L17.26 6.53zM0 6.75h16.728v-1.5H0v1.5z"/>
 </symbol>							
 <symbol id="icon-magic" fill="none" viewBox="0 0 21 21">
 <title>Magic</title>
 <path d="M17.095 7.054l-3.15-3.15a2.119 2.119 0 0 0-2.986 0l-9.68 9.713A4.297 4.297 0 0 0 0 16.668 4.327 4.327 0 0 0 4.331 21c1.149 0 2.231-.46 3.052-1.28l9.712-9.713a2.08 2.08 0 0 0 0-2.953zM5.545 17.882a1.685 1.685 0 0 1-1.214.493 1.695 1.695 0 0 1-1.706-1.707c0-.459.197-.886.492-1.214l5.25-5.25 2.395 2.396-5.217 5.282zm7.088-7.12l-2.395-2.395 2.23-2.231 2.396 2.395-2.231 2.231zM18.375 0l-.919 1.706-1.706.919 1.706.919.919 1.706.919-1.706L21 2.625l-1.706-.919L18.375 0zM18.703 12.14l-.82 1.477-1.477.82 1.477.82.82 1.477.82-1.476 1.477-.82-1.477-.82-.82-1.477zM7.71 3.117l1.478-.82-1.477-.82L6.89 0l-.82 1.477-1.477.82 1.476.82.82 1.477.82-1.477z" fill="#fff"/>
 </symbol>
 <symbol id="icon-blockheight" fill="none" viewBox="0 0 16 17">
 <title>Blockheight							</title>							
 <path d="M7.991 0L.536 2.924l7.455 2.93 7.456-2.93L7.99 0zM0 3.551v10.464L7.602 17V6.536L0 3.55zm15.983 0L8.38 6.536V17l7.602-2.985V3.551z" fill="#E50913"/>
 </symbol>
<symbol id="icon-earn" viewBox="0 0 17 11">
 <path d="M17 0l-5.518 1.503 1.331 1.422-5.016 5.187-2.293-2.244a.919.919 0 0 0-1.305.007L.797 9.273a1.037 1.037 0 0 0-.035 1.415.927.927 0 0 0 .691.312.924.924 0 0 0 .656-.275l2.753-2.75 2.304 2.256a.919.919 0 0 0 1.317-.02l5.666-5.858 1.331 1.422L17 0z" />
 </symbol>
 <symbol id="icon-youtube" viewBox="-21 -117 682.667 682">
 <path d="M626.813 64.035c-7.375-27.418-28.993-49.031-56.407-56.414C520.324-6.082 319.992-6.082 319.992-6.082s-200.324 0-250.406 13.184c-26.887 7.375-49.031 29.52-56.406 56.933C0 114.113 0 217.97 0 217.97s0 104.379 13.18 153.933c7.382 27.414 28.992 49.028 56.41 56.41C120.195 442.02 320 442.02 320 442.02s200.324 0 250.406-13.184c27.418-7.379 49.032-28.992 56.414-56.406 13.176-50.082 13.176-153.934 13.176-153.934s.527-104.383-13.183-154.46zM256.21 313.915V122.022l166.586 95.946zm0 0"/>
 </symbol>
</defs>							
</svg>