<svg width="383" height="171" viewBox="0 0 383 171" fill="none" xmlns="http://www.w3.org/2000/svg">
<rect width="383" height="171" fill="url(#paint0_linear)"/>
<path d="M182.396 100.287C180.294 100.287 178.411 99.9454 176.746 99.263C175.081 98.5806 173.743 97.5706 172.733 96.2331C171.751 94.8956 171.232 93.2851 171.177 91.4016H178.629C178.738 92.4662 179.107 93.2851 179.735 93.8583C180.363 94.4042 181.181 94.6772 182.191 94.6772C183.229 94.6772 184.048 94.4452 184.648 93.9811C185.249 93.4898 185.549 92.821 185.549 91.9748C185.549 91.2651 185.303 90.6782 184.812 90.2142C184.348 89.7502 183.761 89.368 183.051 89.0677C182.369 88.7675 181.386 88.4263 180.103 88.0441C178.247 87.4709 176.732 86.8977 175.558 86.3244C174.385 85.7512 173.375 84.905 172.528 83.7859C171.682 82.6667 171.259 81.2063 171.259 79.4048C171.259 76.7297 172.228 74.6415 174.166 73.1402C176.104 71.6116 178.629 70.8473 181.741 70.8473C184.907 70.8473 187.46 71.6116 189.398 73.1402C191.336 74.6415 192.373 76.7434 192.51 79.4457H184.935C184.88 78.5176 184.539 77.7943 183.911 77.2757C183.283 76.7297 182.478 76.4568 181.495 76.4568C180.649 76.4568 179.967 76.6888 179.448 77.1528C178.93 77.5896 178.67 78.231 178.67 79.0772C178.67 80.0053 179.107 80.7287 179.98 81.2473C180.854 81.7659 182.219 82.3255 184.075 82.926C185.931 83.5538 187.432 84.1544 188.579 84.7276C189.753 85.3008 190.763 86.1334 191.609 87.2252C192.455 88.3171 192.878 89.7229 192.878 91.4425C192.878 93.0803 192.455 94.568 191.609 95.9055C190.79 97.2431 189.589 98.3076 188.006 99.0992C186.422 99.8908 184.553 100.287 182.396 100.287ZM207.955 71.2568C210.985 71.2568 213.633 71.8573 215.899 73.0583C218.164 74.2594 219.911 75.9518 221.14 78.1355C222.395 80.2919 223.023 82.7895 223.023 85.6284C223.023 88.4399 222.395 90.9376 221.14 93.1213C219.911 95.305 218.151 96.9974 215.858 98.1984C213.592 99.3995 210.958 100 207.955 100H197.187V71.2568H207.955ZM207.505 93.9402C210.153 93.9402 212.214 93.2168 213.688 91.7701C215.162 90.3234 215.899 88.2761 215.899 85.6284C215.899 82.9806 215.162 80.9197 213.688 79.4457C212.214 77.9717 210.153 77.2347 207.505 77.2347H204.188V93.9402H207.505ZM243.6 100L233.937 87.3071V100H226.936V71.2568H233.937V83.8678L243.518 71.2568H251.748L240.611 85.3418L252.158 100H243.6Z" fill="white"/>
<rect x="131" y="66.6191" width="33.2676" height="33.2662" rx="1.97262" fill="white"/>
<path d="M156.411 84.2798C156.411 85.614 156.104 86.8388 155.492 87.9543C154.88 89.0479 153.939 89.9337 152.67 90.6117C151.402 91.2897 149.827 91.6287 147.946 91.6287H144.469V99.8963H138.858V76.8652H147.946C149.783 76.8652 151.336 77.1824 152.605 77.8167C153.873 78.4509 154.825 79.3258 155.459 80.4413C156.093 81.5567 156.411 82.8363 156.411 84.2798ZM147.52 87.1669C148.591 87.1669 149.39 86.9154 149.915 86.4123C150.44 85.9092 150.702 85.1984 150.702 84.2798C150.702 83.3612 150.44 82.6503 149.915 82.1473C149.39 81.6442 148.591 81.3927 147.52 81.3927H144.469V87.1669H147.52Z" fill="#252525"/>
<path d="M156.526 71.0312H138.858V74.7377H156.526V71.0312Z" fill="#E50913"/>
<defs>
<linearGradient id="paint0_linear" x1="-3.98027e-07" y1="7.85676" x2="349.13" y2="225.366" gradientUnits="userSpaceOnUse">
<stop stop-color="#441D21" stop-opacity="0.44"/>
<stop offset="1" stop-color="#202024"/>
</linearGradient>
</defs>
</svg>
