<svg width="383" height="171" viewBox="0 0 383 171" fill="none" xmlns="http://www.w3.org/2000/svg">
<rect width="383" height="171" fill="url(#paint0_linear)"/>
<path d="M100.507 94.8985H91.8412L90.452 99H84.5312L92.9327 75.78H99.482L107.883 99H101.897L100.507 94.8985ZM99.052 90.5323L96.1743 82.0315L93.3296 90.5323H99.052ZM117.949 99.2646C116.339 99.2646 114.906 98.989 113.649 98.4377C112.392 97.8864 111.4 97.1367 110.672 96.1885C109.944 95.2182 109.536 94.1377 109.448 92.9469H115.038C115.104 93.5864 115.402 94.1046 115.931 94.5015C116.46 94.8985 117.111 95.0969 117.883 95.0969C118.588 95.0969 119.129 94.9646 119.504 94.7C119.9 94.4133 120.099 94.0495 120.099 93.6085C120.099 93.0792 119.823 92.6933 119.272 92.4508C118.721 92.1862 117.828 91.8995 116.593 91.5908C115.27 91.2821 114.167 90.9623 113.285 90.6315C112.403 90.2787 111.642 89.7385 111.003 89.0108C110.363 88.261 110.044 87.2577 110.044 86.0008C110.044 84.9423 110.33 83.9831 110.904 83.1231C111.499 82.241 112.359 81.5464 113.484 81.0392C114.63 80.532 115.986 80.2785 117.552 80.2785C119.867 80.2785 121.687 80.8518 123.01 81.9985C124.355 83.1451 125.127 84.6667 125.325 86.5631H120.099C120.011 85.9236 119.724 85.4164 119.239 85.0415C118.776 84.6667 118.158 84.4792 117.387 84.4792C116.725 84.4792 116.218 84.6115 115.865 84.8762C115.512 85.1187 115.336 85.4605 115.336 85.9015C115.336 86.4308 115.612 86.8277 116.163 87.0923C116.736 87.3569 117.618 87.6215 118.809 87.8862C120.176 88.239 121.29 88.5918 122.15 88.9446C123.01 89.2754 123.759 89.8267 124.399 90.5985C125.06 91.3482 125.402 92.3626 125.424 93.6415C125.424 94.7221 125.116 95.6923 124.498 96.5523C123.903 97.3903 123.032 98.0518 121.885 98.5369C120.76 99.0221 119.448 99.2646 117.949 99.2646ZM136.393 99.2646C134.783 99.2646 133.35 98.989 132.093 98.4377C130.836 97.8864 129.844 97.1367 129.116 96.1885C128.389 95.2182 127.981 94.1377 127.892 92.9469H133.482C133.549 93.5864 133.846 94.1046 134.376 94.5015C134.905 94.8985 135.555 95.0969 136.327 95.0969C137.033 95.0969 137.573 94.9646 137.948 94.7C138.345 94.4133 138.543 94.0495 138.543 93.6085C138.543 93.0792 138.268 92.6933 137.716 92.4508C137.165 92.1862 136.272 91.8995 135.037 91.5908C133.714 91.2821 132.611 90.9623 131.729 90.6315C130.847 90.2787 130.087 89.7385 129.447 89.0108C128.808 88.261 128.488 87.2577 128.488 86.0008C128.488 84.9423 128.774 83.9831 129.348 83.1231C129.943 82.241 130.803 81.5464 131.928 81.0392C133.074 80.532 134.431 80.2785 135.996 80.2785C138.312 80.2785 140.131 80.8518 141.454 81.9985C142.799 83.1451 143.571 84.6667 143.769 86.5631H138.543C138.455 85.9236 138.168 85.4164 137.683 85.0415C137.22 84.6667 136.603 84.4792 135.831 84.4792C135.169 84.4792 134.662 84.6115 134.309 84.8762C133.957 85.1187 133.78 85.4605 133.78 85.9015C133.78 86.4308 134.056 86.8277 134.607 87.0923C135.18 87.3569 136.062 87.6215 137.253 87.8862C138.62 88.239 139.734 88.5918 140.594 88.9446C141.454 89.2754 142.204 89.8267 142.843 90.5985C143.505 91.3482 143.847 92.3626 143.869 93.6415C143.869 94.7221 143.56 95.6923 142.942 96.5523C142.347 97.3903 141.476 98.0518 140.329 98.5369C139.205 99.0221 137.893 99.2646 136.393 99.2646ZM164.727 89.4738C164.727 90.0031 164.694 90.5544 164.628 91.1277H151.827C151.916 92.2744 152.28 93.1564 152.919 93.7738C153.581 94.3692 154.385 94.6669 155.334 94.6669C156.745 94.6669 157.726 94.0715 158.277 92.8808H164.297C163.989 94.0936 163.426 95.1851 162.611 96.1554C161.817 97.1256 160.813 97.8864 159.601 98.4377C158.388 98.989 157.032 99.2646 155.532 99.2646C153.724 99.2646 152.114 98.8787 150.703 98.1069C149.292 97.3351 148.189 96.2326 147.395 94.7992C146.601 93.3659 146.204 91.69 146.204 89.7715C146.204 87.8531 146.59 86.1772 147.362 84.7438C148.156 83.3105 149.259 82.2079 150.67 81.4362C152.081 80.6644 153.702 80.2785 155.532 80.2785C157.318 80.2785 158.906 80.6533 160.295 81.4031C161.684 82.1528 162.765 83.2223 163.537 84.6115C164.331 86.0008 164.727 87.6215 164.727 89.4738ZM158.939 87.9854C158.939 87.0151 158.608 86.2433 157.947 85.67C157.285 85.0967 156.458 84.81 155.466 84.81C154.518 84.81 153.713 85.0856 153.051 85.6369C152.412 86.1882 152.015 86.971 151.861 87.9854H158.939ZM177.998 94.2038V99H175.121C173.07 99 171.471 98.5038 170.324 97.5115C169.178 96.4972 168.604 94.8544 168.604 92.5831V85.24H166.355V80.5431H168.604V76.0446H174.261V80.5431H177.965V85.24H174.261V92.6492C174.261 93.2005 174.393 93.5974 174.658 93.84C174.922 94.0826 175.363 94.2038 175.981 94.2038H177.998Z" fill="#EFCB30"/>
<path d="M207.445 75.78V99H201.789V85.0746L196.596 99H192.031L186.805 85.0415V99H181.149V75.78H187.83L194.347 91.8554L200.797 75.78H207.445ZM210.388 89.7385C210.388 87.8421 210.741 86.1772 211.446 84.7438C212.174 83.3105 213.155 82.2079 214.39 81.4362C215.625 80.6644 217.003 80.2785 218.525 80.2785C219.826 80.2785 220.961 80.5431 221.932 81.0723C222.924 81.6015 223.685 82.2962 224.214 83.1562V80.5431H229.87V99H224.214V96.3869C223.663 97.2469 222.891 97.9415 221.899 98.4708C220.928 99 219.793 99.2646 218.492 99.2646C216.992 99.2646 215.625 98.8787 214.39 98.1069C213.155 97.3131 212.174 96.1995 211.446 94.7662C210.741 93.3108 210.388 91.6349 210.388 89.7385ZM224.214 89.7715C224.214 88.3603 223.817 87.2467 223.023 86.4308C222.251 85.6149 221.303 85.2069 220.179 85.2069C219.054 85.2069 218.095 85.6149 217.301 86.4308C216.529 87.2246 216.143 88.3272 216.143 89.7385C216.143 91.1497 216.529 92.2744 217.301 93.1123C218.095 93.9282 219.054 94.3362 220.179 94.3362C221.303 94.3362 222.251 93.9282 223.023 93.1123C223.817 92.2964 224.214 91.1828 224.214 89.7715ZM245.208 80.3446C247.369 80.3446 249.089 81.0503 250.368 82.4615C251.669 83.8508 252.32 85.7692 252.32 88.2169V99H246.697V88.9777C246.697 87.7428 246.377 86.7836 245.738 86.1C245.098 85.4164 244.238 85.0746 243.158 85.0746C242.077 85.0746 241.217 85.4164 240.578 86.1C239.938 86.7836 239.618 87.7428 239.618 88.9777V99H233.962V80.5431H239.618V82.9908C240.192 82.1749 240.963 81.5354 241.934 81.0723C242.904 80.5872 243.995 80.3446 245.208 80.3446ZM266.537 94.2038V99H263.66C261.609 99 260.01 98.5038 258.863 97.5115C257.717 96.4972 257.143 94.8544 257.143 92.5831V85.24H254.894V80.5431H257.143V76.0446H262.8V80.5431H266.504V85.24H262.8V92.6492C262.8 93.2005 262.932 93.5974 263.196 93.84C263.461 94.0826 263.902 94.2038 264.52 94.2038H266.537ZM275.344 74.5231V99H269.688V74.5231H275.344ZM296.841 89.4738C296.841 90.0031 296.808 90.5544 296.742 91.1277H283.941C284.03 92.2744 284.393 93.1564 285.033 93.7738C285.694 94.3692 286.499 94.6669 287.448 94.6669C288.859 94.6669 289.84 94.0715 290.391 92.8808H296.411C296.103 94.0936 295.54 95.1851 294.724 96.1554C293.931 97.1256 292.927 97.8864 291.714 98.4377C290.502 98.989 289.145 99.2646 287.646 99.2646C285.838 99.2646 284.228 98.8787 282.817 98.1069C281.405 97.3351 280.303 96.2326 279.509 94.7992C278.715 93.3659 278.318 91.69 278.318 89.7715C278.318 87.8531 278.704 86.1772 279.476 84.7438C280.27 83.3105 281.372 82.2079 282.784 81.4362C284.195 80.6644 285.816 80.2785 287.646 80.2785C289.432 80.2785 291.02 80.6533 292.409 81.4031C293.798 82.1528 294.879 83.2223 295.651 84.6115C296.444 86.0008 296.841 87.6215 296.841 89.4738ZM291.053 87.9854C291.053 87.0151 290.722 86.2433 290.061 85.67C289.399 85.0967 288.572 84.81 287.58 84.81C286.632 84.81 285.827 85.0856 285.165 85.6369C284.526 86.1882 284.129 86.971 283.974 87.9854H291.053Z" fill="#E5E5E5"/>
<path d="M84 97.832H293.028L299 102.132H89.9722L84 97.832Z" fill="#EFCB30"/>
<defs>
<linearGradient id="paint0_linear" x1="-1.20752e-06" y1="7.85676" x2="347.01" y2="238.982" gradientUnits="userSpaceOnUse">
<stop stop-color="#31302A"/>
<stop offset="1" stop-color="#26272A"/>
</linearGradient>
</defs>
</svg>
