<svg width="781" height="442" viewBox="0 0 781 442" fill="none" xmlns="http://www.w3.org/2000/svg">
<path d="M262.626 370.637C288.173 395.955 320.133 413.835 355.075 422.359C390.017 430.883 426.621 429.728 460.957 419.019L442.202 358.89C418.789 366.193 393.829 366.98 370.003 361.168C346.176 355.355 324.382 343.163 306.962 325.899L262.626 370.637Z" fill="#999999"/>
<path d="M493.971 405.343C523.927 389.631 549.358 366.506 567.838 338.174C586.319 309.842 597.233 277.248 599.539 243.5L546.689 239.888C545 264.607 537.006 288.481 523.47 309.233C509.933 329.985 491.306 346.923 469.365 358.432L493.971 405.343Z" fill="#488369"/>
<path d="M590.023 167.942C579.294 135.433 560.319 106.262 534.95 83.275L503.38 118.116C522.725 135.644 537.194 157.889 545.376 182.678L590.023 167.942Z" fill="#CFE0F4"/>
<path d="M534.913 83.2411C498.536 50.296 451.219 32.035 402.141 32.0001L402.104 83.8268C438.336 83.8526 473.267 97.3337 500.123 121.655L534.913 83.2411Z" fill="#F05C6C"/>
<path d="M402 32C356.116 32 311.656 47.9359 276.22 77.0839L309.354 117.367C335.456 95.8977 368.203 84.1599 402 84.1599L402 32Z" fill="#D4D4D4"/>
<path d="M460.958 419.018C472.349 415.465 483.394 410.89 493.961 405.349L476.583 372.213C468.013 376.707 459.055 380.418 449.817 383.299L460.958 419.018Z" fill="#A0C1E9"/>
<path d="M599.537 243.527C599.773 240.086 599.919 236.64 599.974 233.192L569.119 232.695C569.073 235.605 568.95 238.514 568.751 241.418L599.537 243.527Z" fill="#417BC9"/>
<path d="M599.975 233.162C600.327 211.135 597 189.204 590.132 168.272L553.079 180.43C558.594 197.239 561.266 214.85 560.983 232.539L599.975 233.162Z" fill="#565656"/>
<path d="M275.999 77.2656C254.569 94.9446 237.099 116.935 224.725 141.808C212.351 166.682 205.35 193.88 204.177 221.637C203.003 249.393 207.684 277.086 217.914 302.914C228.145 328.743 243.696 352.13 263.558 371.555L315.224 318.727C302.775 306.551 293.027 291.892 286.615 275.703C280.202 259.513 277.269 242.156 278.004 224.758C278.74 207.36 283.128 190.312 290.884 174.721C298.64 159.131 309.59 145.347 323.023 134.266L275.999 77.2656Z" fill="#EE0000"/>
<path d="M6.15608 434V423.956H4.05008V422.894C5.40608 422.894 6.25208 422.396 6.58808 421.4H7.72208V434H6.15608ZM13.1769 434.216V432.758C14.3169 432.554 15.3009 432.05 16.1289 431.246C16.9689 430.442 17.4909 429.416 17.6949 428.168C17.1069 428.888 16.1889 429.248 14.9409 429.248C13.8369 429.248 12.9129 428.87 12.1689 428.114C11.4369 427.358 11.0709 426.416 11.0709 425.288C11.0709 424.1 11.4729 423.122 12.2769 422.354C13.0929 421.574 14.1189 421.184 15.3549 421.184C16.7349 421.184 17.7789 421.634 18.4869 422.534C19.1949 423.434 19.5489 424.61 19.5489 426.062C19.5489 428.186 18.9789 430.01 17.8389 431.534C16.7109 433.046 15.1569 433.94 13.1769 434.216ZM15.3009 427.79C16.0809 427.79 16.7109 427.556 17.1909 427.088C17.6829 426.608 17.9289 425.984 17.9289 425.216C17.9289 424.484 17.6769 423.884 17.1729 423.416C16.6809 422.936 16.0569 422.696 15.3009 422.696C14.5209 422.696 13.8849 422.936 13.3929 423.416C12.9129 423.884 12.6729 424.484 12.6729 425.216C12.6729 425.996 12.9069 426.62 13.3749 427.088C13.8549 427.556 14.4969 427.79 15.3009 427.79ZM23.6832 433.874C23.4432 434.114 23.1492 434.234 22.8012 434.234C22.4532 434.234 22.1592 434.114 21.9192 433.874C21.6792 433.622 21.5592 433.334 21.5592 433.01C21.5592 432.674 21.6792 432.386 21.9192 432.146C22.1592 431.894 22.4532 431.768 22.8012 431.768C23.1492 431.768 23.4432 431.894 23.6832 432.146C23.9352 432.398 24.0612 432.686 24.0612 433.01C24.0612 433.334 23.9352 433.622 23.6832 433.874ZM31.7221 434V430.868H25.2781V429.932L31.8121 421.4H33.2881V429.464H35.0701V430.868H33.2881V434H31.7221ZM31.7221 429.464V423.614L27.3301 429.464H31.7221ZM39.8418 427.592C38.8578 427.592 38.1258 427.274 37.6458 426.638C37.1778 426.002 36.9438 425.252 36.9438 424.388C36.9438 423.56 37.1838 422.822 37.6638 422.174C38.1438 421.514 38.8698 421.184 39.8418 421.184C40.8138 421.184 41.5338 421.502 42.0018 422.138C42.4818 422.762 42.7218 423.512 42.7218 424.388C42.7218 424.904 42.6378 425.39 42.4698 425.846C42.3018 426.302 41.9898 426.71 41.5338 427.07C41.0778 427.418 40.5138 427.592 39.8418 427.592ZM40.2918 434.216H38.7798L47.3838 421.184H48.8958L40.2918 434.216ZM39.8418 426.35C40.3338 426.35 40.7118 426.164 40.9758 425.792C41.2518 425.408 41.3898 424.94 41.3898 424.388C41.3898 423.788 41.2578 423.314 40.9938 422.966C40.7298 422.606 40.3458 422.426 39.8418 422.426C39.3258 422.426 38.9358 422.612 38.6718 422.984C38.4198 423.344 38.2938 423.812 38.2938 424.388C38.2938 424.976 38.4198 425.45 38.6718 425.81C38.9358 426.17 39.3258 426.35 39.8418 426.35ZM47.8338 434.216C46.8618 434.216 46.1358 433.898 45.6558 433.262C45.1878 432.626 44.9538 431.876 44.9538 431.012C44.9538 430.196 45.1878 429.458 45.6558 428.798C46.1358 428.138 46.8618 427.808 47.8338 427.808C48.8178 427.808 49.5438 428.126 50.0118 428.762C50.4918 429.386 50.7318 430.136 50.7318 431.012C50.7318 431.528 50.6478 432.014 50.4798 432.47C50.3118 432.926 49.9998 433.334 49.5438 433.694C49.0878 434.042 48.5178 434.216 47.8338 434.216ZM46.6818 432.434C46.9458 432.794 47.3298 432.974 47.8338 432.974C48.3378 432.974 48.7218 432.788 48.9858 432.416C49.2498 432.044 49.3818 431.576 49.3818 431.012C49.3818 430.412 49.2498 429.938 48.9858 429.59C48.7218 429.23 48.3378 429.05 47.8338 429.05C47.3298 429.05 46.9458 429.236 46.6818 429.608C46.4178 429.968 46.2858 430.436 46.2858 431.012C46.2858 431.6 46.4178 432.074 46.6818 432.434Z" fill="white"/>
<path d="M2.43676 253C2.43676 252.208 2.55076 251.488 2.77876 250.84C3.00676 250.18 3.33676 249.604 3.76876 249.112C4.20076 248.62 4.63276 248.206 5.06476 247.87C5.49676 247.534 6.01276 247.192 6.61276 246.844C7.16476 246.508 7.59676 246.226 7.90876 245.998C8.22076 245.758 8.50876 245.44 8.77276 245.044C9.04876 244.648 9.18676 244.228 9.18676 243.784C9.18676 243.172 8.95876 242.662 8.50276 242.254C8.05876 241.846 7.46476 241.642 6.72076 241.642C5.32876 241.642 4.43476 242.26 4.03876 243.496L2.63476 242.866C2.88676 242.074 3.38476 241.432 4.12876 240.94C4.87276 240.436 5.75476 240.184 6.77476 240.184C8.02276 240.184 9.00676 240.52 9.72676 241.192C10.4468 241.852 10.8068 242.728 10.8068 243.82C10.8068 244.252 10.7408 244.654 10.6088 245.026C10.4768 245.398 10.3148 245.716 10.1228 245.98C9.94276 246.244 9.67876 246.52 9.33076 246.808C8.98276 247.096 8.67076 247.33 8.39476 247.51C8.13076 247.678 7.77076 247.9 7.31476 248.176C6.42676 248.692 5.72476 249.202 5.20876 249.706C4.70476 250.21 4.38676 250.798 4.25476 251.47H10.9148V253H2.43676ZM17.4362 253.216C16.5002 253.216 15.6842 253.078 14.9882 252.802C14.2922 252.526 13.7642 252.202 13.4042 251.83L14.3402 250.624C15.2162 251.392 16.2422 251.776 17.4182 251.776C18.3062 251.776 19.0382 251.506 19.6142 250.966C20.2022 250.426 20.4962 249.754 20.4962 248.95C20.4962 248.158 20.2562 247.516 19.7762 247.024C19.3082 246.532 18.6902 246.286 17.9222 246.286C16.8422 246.286 15.9962 246.628 15.3842 247.312L13.8362 246.772L14.5742 240.4H21.3062V241.858H15.9422L15.4562 245.656C16.1762 245.08 17.0582 244.792 18.1022 244.792C19.3022 244.792 20.2742 245.182 21.0182 245.962C21.7622 246.742 22.1342 247.702 22.1342 248.842C22.1342 250.066 21.6962 251.104 20.8202 251.956C19.9562 252.796 18.8282 253.216 17.4362 253.216ZM26.2759 252.874C26.0359 253.114 25.7419 253.234 25.3939 253.234C25.0459 253.234 24.7519 253.114 24.5119 252.874C24.2719 252.622 24.1519 252.334 24.1519 252.01C24.1519 251.674 24.2719 251.386 24.5119 251.146C24.7519 250.894 25.0459 250.768 25.3939 250.768C25.7419 250.768 26.0359 250.894 26.2759 251.146C26.5279 251.398 26.6539 251.686 26.6539 252.01C26.6539 252.334 26.5279 252.622 26.2759 252.874ZM32.8569 253.216C31.4889 253.216 30.4329 252.766 29.6889 251.866C28.9569 250.954 28.5909 249.778 28.5909 248.338C28.5909 246.346 29.1849 244.594 30.3729 243.082C31.5729 241.57 33.1989 240.604 35.2509 240.184V241.57C34.1109 241.834 33.0909 242.386 32.1909 243.226C31.3029 244.054 30.7329 245.032 30.4809 246.16C31.0809 245.476 31.9989 245.134 33.2349 245.134C34.3149 245.134 35.2209 245.518 35.9529 246.286C36.6849 247.054 37.0509 247.99 37.0509 249.094C37.0509 250.282 36.6489 251.266 35.8449 252.046C35.0529 252.826 34.0569 253.216 32.8569 253.216ZM32.8389 251.74C33.6189 251.74 34.2549 251.506 34.7469 251.038C35.2389 250.57 35.4849 249.952 35.4849 249.184C35.4849 248.404 35.2389 247.78 34.7469 247.312C34.2669 246.832 33.6309 246.592 32.8389 246.592C32.0589 246.592 31.4169 246.832 30.9129 247.312C30.4209 247.78 30.1749 248.404 30.1749 249.184C30.1749 249.94 30.4269 250.558 30.9309 251.038C31.4349 251.506 32.0709 251.74 32.8389 251.74ZM41.9951 246.592C41.0111 246.592 40.2791 246.274 39.7991 245.638C39.3311 245.002 39.0971 244.252 39.0971 243.388C39.0971 242.56 39.3371 241.822 39.8171 241.174C40.2971 240.514 41.0231 240.184 41.9951 240.184C42.9671 240.184 43.6871 240.502 44.1551 241.138C44.6351 241.762 44.8751 242.512 44.8751 243.388C44.8751 243.904 44.7911 244.39 44.6231 244.846C44.4551 245.302 44.1431 245.71 43.6871 246.07C43.2311 246.418 42.6671 246.592 41.9951 246.592ZM42.4451 253.216H40.9331L49.5371 240.184H51.0491L42.4451 253.216ZM41.9951 245.35C42.4871 245.35 42.8651 245.164 43.1291 244.792C43.4051 244.408 43.5431 243.94 43.5431 243.388C43.5431 242.788 43.4111 242.314 43.1471 241.966C42.8831 241.606 42.4991 241.426 41.9951 241.426C41.4791 241.426 41.0891 241.612 40.8251 241.984C40.5731 242.344 40.4471 242.812 40.4471 243.388C40.4471 243.976 40.5731 244.45 40.8251 244.81C41.0891 245.17 41.4791 245.35 41.9951 245.35ZM49.9871 253.216C49.0151 253.216 48.2891 252.898 47.8091 252.262C47.3411 251.626 47.1071 250.876 47.1071 250.012C47.1071 249.196 47.3411 248.458 47.8091 247.798C48.2891 247.138 49.0151 246.808 49.9871 246.808C50.9711 246.808 51.6971 247.126 52.1651 247.762C52.6451 248.386 52.8851 249.136 52.8851 250.012C52.8851 250.528 52.8011 251.014 52.6331 251.47C52.4651 251.926 52.1531 252.334 51.6971 252.694C51.2411 253.042 50.6711 253.216 49.9871 253.216ZM48.8351 251.434C49.0991 251.794 49.4831 251.974 49.9871 251.974C50.4911 251.974 50.8751 251.788 51.1391 251.416C51.4031 251.044 51.5351 250.576 51.5351 250.012C51.5351 249.412 51.4031 248.938 51.1391 248.59C50.8751 248.23 50.4911 248.05 49.9871 248.05C49.4831 248.05 49.0991 248.236 48.8351 248.608C48.5711 248.968 48.4391 249.436 48.4391 250.012C48.4391 250.6 48.5711 251.074 48.8351 251.434Z" fill="white"/>
<path d="M5.11995 83V72.956H3.01395V71.894C4.36995 71.894 5.21595 71.396 5.55195 70.4H6.68595V83H5.11995ZM14.7688 83.216C13.9648 83.216 13.2628 83.03 12.6628 82.658C12.0628 82.274 11.6008 81.764 11.2768 81.128C10.9648 80.48 10.7308 79.79 10.5748 79.058C10.4308 78.326 10.3588 77.54 10.3588 76.7C10.3588 75.932 10.4248 75.2 10.5568 74.504C10.6888 73.796 10.9108 73.106 11.2228 72.434C11.5348 71.75 11.9908 71.204 12.5908 70.796C13.2028 70.388 13.9288 70.184 14.7688 70.184C15.5728 70.184 16.2748 70.376 16.8748 70.76C17.4748 71.132 17.9308 71.642 18.2428 72.29C18.5668 72.938 18.8008 73.628 18.9448 74.36C19.1008 75.092 19.1788 75.872 19.1788 76.7C19.1788 77.468 19.1068 78.206 18.9628 78.914C18.8308 79.61 18.6088 80.3 18.2968 80.984C17.9848 81.656 17.5228 82.196 16.9108 82.604C16.3108 83.012 15.5968 83.216 14.7688 83.216ZM14.7688 81.74C15.3088 81.74 15.7708 81.59 16.1548 81.29C16.5388 80.99 16.8208 80.576 17.0008 80.048C17.1928 79.52 17.3248 78.992 17.3968 78.464C17.4808 77.924 17.5228 77.336 17.5228 76.7C17.5228 76.028 17.4808 75.41 17.3968 74.846C17.3128 74.282 17.1688 73.754 16.9648 73.262C16.7728 72.758 16.4908 72.362 16.1188 72.074C15.7468 71.786 15.2968 71.642 14.7688 71.642C14.2168 71.642 13.7488 71.798 13.3648 72.11C12.9808 72.41 12.6928 72.824 12.5008 73.352C12.3088 73.868 12.1708 74.402 12.0868 74.954C12.0148 75.494 11.9788 76.076 11.9788 76.7C11.9788 77.372 12.0208 77.99 12.1048 78.554C12.1888 79.106 12.3328 79.634 12.5368 80.138C12.7408 80.642 13.0288 81.038 13.4008 81.326C13.7848 81.602 14.2408 81.74 14.7688 81.74ZM23.4029 82.874C23.1629 83.114 22.8689 83.234 22.5209 83.234C22.1729 83.234 21.8789 83.114 21.6389 82.874C21.3989 82.622 21.2789 82.334 21.2789 82.01C21.2789 81.674 21.3989 81.386 21.6389 81.146C21.8789 80.894 22.1729 80.768 22.5209 80.768C22.8689 80.768 23.1629 80.894 23.4029 81.146C23.6549 81.398 23.7809 81.686 23.7809 82.01C23.7809 82.334 23.6549 82.622 23.4029 82.874ZM30.3079 83.216C29.5039 83.216 28.8019 83.03 28.2019 82.658C27.6019 82.274 27.1399 81.764 26.8159 81.128C26.5039 80.48 26.2699 79.79 26.1139 79.058C25.9699 78.326 25.8979 77.54 25.8979 76.7C25.8979 75.932 25.9639 75.2 26.0959 74.504C26.2279 73.796 26.4499 73.106 26.7619 72.434C27.0739 71.75 27.5299 71.204 28.1299 70.796C28.7419 70.388 29.4679 70.184 30.3079 70.184C31.1119 70.184 31.8139 70.376 32.4139 70.76C33.0139 71.132 33.4699 71.642 33.7819 72.29C34.1059 72.938 34.3399 73.628 34.4839 74.36C34.6399 75.092 34.7179 75.872 34.7179 76.7C34.7179 77.468 34.6459 78.206 34.5019 78.914C34.3699 79.61 34.1479 80.3 33.8359 80.984C33.5239 81.656 33.0619 82.196 32.4499 82.604C31.8499 83.012 31.1359 83.216 30.3079 83.216ZM30.3079 81.74C30.8479 81.74 31.3099 81.59 31.6939 81.29C32.0779 80.99 32.3599 80.576 32.5399 80.048C32.7319 79.52 32.8639 78.992 32.9359 78.464C33.0199 77.924 33.0619 77.336 33.0619 76.7C33.0619 76.028 33.0199 75.41 32.9359 74.846C32.8519 74.282 32.7079 73.754 32.5039 73.262C32.3119 72.758 32.0299 72.362 31.6579 72.074C31.2859 71.786 30.8359 71.642 30.3079 71.642C29.7559 71.642 29.2879 71.798 28.9039 72.11C28.5199 72.41 28.2319 72.824 28.0399 73.352C27.8479 73.868 27.7099 74.402 27.6259 74.954C27.5539 75.494 27.5179 76.076 27.5179 76.7C27.5179 77.372 27.5599 77.99 27.6439 78.554C27.7279 79.106 27.8719 79.634 28.0759 80.138C28.2799 80.642 28.5679 81.038 28.9399 81.326C29.3239 81.602 29.7799 81.74 30.3079 81.74ZM39.8779 76.592C38.8939 76.592 38.1619 76.274 37.6819 75.638C37.2139 75.002 36.9799 74.252 36.9799 73.388C36.9799 72.56 37.2199 71.822 37.6999 71.174C38.1799 70.514 38.9059 70.184 39.8779 70.184C40.8499 70.184 41.5699 70.502 42.0379 71.138C42.5179 71.762 42.7579 72.512 42.7579 73.388C42.7579 73.904 42.6739 74.39 42.5059 74.846C42.3379 75.302 42.0259 75.71 41.5699 76.07C41.1139 76.418 40.5499 76.592 39.8779 76.592ZM40.3279 83.216H38.8159L47.4199 70.184H48.9319L40.3279 83.216ZM39.8779 75.35C40.3699 75.35 40.7479 75.164 41.0119 74.792C41.2879 74.408 41.4259 73.94 41.4259 73.388C41.4259 72.788 41.2939 72.314 41.0299 71.966C40.7659 71.606 40.3819 71.426 39.8779 71.426C39.3619 71.426 38.9719 71.612 38.7079 71.984C38.4559 72.344 38.3299 72.812 38.3299 73.388C38.3299 73.976 38.4559 74.45 38.7079 74.81C38.9719 75.17 39.3619 75.35 39.8779 75.35ZM47.8699 83.216C46.8979 83.216 46.1719 82.898 45.6919 82.262C45.2239 81.626 44.9899 80.876 44.9899 80.012C44.9899 79.196 45.2239 78.458 45.6919 77.798C46.1719 77.138 46.8979 76.808 47.8699 76.808C48.8539 76.808 49.5799 77.126 50.0479 77.762C50.5279 78.386 50.7679 79.136 50.7679 80.012C50.7679 80.528 50.6839 81.014 50.5159 81.47C50.3479 81.926 50.0359 82.334 49.5799 82.694C49.1239 83.042 48.5539 83.216 47.8699 83.216ZM46.7179 81.434C46.9819 81.794 47.3659 81.974 47.8699 81.974C48.3739 81.974 48.7579 81.788 49.0219 81.416C49.2859 81.044 49.4179 80.576 49.4179 80.012C49.4179 79.412 49.2859 78.938 49.0219 78.59C48.7579 78.23 48.3739 78.05 47.8699 78.05C47.3659 78.05 46.9819 78.236 46.7179 78.608C46.4539 78.968 46.3219 79.436 46.3219 80.012C46.3219 80.6 46.4539 81.074 46.7179 81.434Z" fill="white"/>
<path d="M732.12 69V58.956H730.014V57.894C731.37 57.894 732.216 57.396 732.552 56.4H733.686V69H732.12ZM741.769 69.216C740.965 69.216 740.263 69.03 739.663 68.658C739.063 68.274 738.601 67.764 738.277 67.128C737.965 66.48 737.731 65.79 737.575 65.058C737.431 64.326 737.359 63.54 737.359 62.7C737.359 61.932 737.425 61.2 737.557 60.504C737.689 59.796 737.911 59.106 738.223 58.434C738.535 57.75 738.991 57.204 739.591 56.796C740.203 56.388 740.929 56.184 741.769 56.184C742.573 56.184 743.275 56.376 743.875 56.76C744.475 57.132 744.931 57.642 745.243 58.29C745.567 58.938 745.801 59.628 745.945 60.36C746.101 61.092 746.179 61.872 746.179 62.7C746.179 63.468 746.107 64.206 745.963 64.914C745.831 65.61 745.609 66.3 745.297 66.984C744.985 67.656 744.523 68.196 743.911 68.604C743.311 69.012 742.597 69.216 741.769 69.216ZM741.769 67.74C742.309 67.74 742.771 67.59 743.155 67.29C743.539 66.99 743.821 66.576 744.001 66.048C744.193 65.52 744.325 64.992 744.397 64.464C744.481 63.924 744.523 63.336 744.523 62.7C744.523 62.028 744.481 61.41 744.397 60.846C744.313 60.282 744.169 59.754 743.965 59.262C743.773 58.758 743.491 58.362 743.119 58.074C742.747 57.786 742.297 57.642 741.769 57.642C741.217 57.642 740.749 57.798 740.365 58.11C739.981 58.41 739.693 58.824 739.501 59.352C739.309 59.868 739.171 60.402 739.087 60.954C739.015 61.494 738.979 62.076 738.979 62.7C738.979 63.372 739.021 63.99 739.105 64.554C739.189 65.106 739.333 65.634 739.537 66.138C739.741 66.642 740.029 67.038 740.401 67.326C740.785 67.602 741.241 67.74 741.769 67.74ZM750.403 68.874C750.163 69.114 749.869 69.234 749.521 69.234C749.173 69.234 748.879 69.114 748.639 68.874C748.399 68.622 748.279 68.334 748.279 68.01C748.279 67.674 748.399 67.386 748.639 67.146C748.879 66.894 749.173 66.768 749.521 66.768C749.869 66.768 750.163 66.894 750.403 67.146C750.655 67.398 750.781 67.686 750.781 68.01C750.781 68.334 750.655 68.622 750.403 68.874ZM757.308 69.216C756.504 69.216 755.802 69.03 755.202 68.658C754.602 68.274 754.14 67.764 753.816 67.128C753.504 66.48 753.27 65.79 753.114 65.058C752.97 64.326 752.898 63.54 752.898 62.7C752.898 61.932 752.964 61.2 753.096 60.504C753.228 59.796 753.45 59.106 753.762 58.434C754.074 57.75 754.53 57.204 755.13 56.796C755.742 56.388 756.468 56.184 757.308 56.184C758.112 56.184 758.814 56.376 759.414 56.76C760.014 57.132 760.47 57.642 760.782 58.29C761.106 58.938 761.34 59.628 761.484 60.36C761.64 61.092 761.718 61.872 761.718 62.7C761.718 63.468 761.646 64.206 761.502 64.914C761.37 65.61 761.148 66.3 760.836 66.984C760.524 67.656 760.062 68.196 759.45 68.604C758.85 69.012 758.136 69.216 757.308 69.216ZM757.308 67.74C757.848 67.74 758.31 67.59 758.694 67.29C759.078 66.99 759.36 66.576 759.54 66.048C759.732 65.52 759.864 64.992 759.936 64.464C760.02 63.924 760.062 63.336 760.062 62.7C760.062 62.028 760.02 61.41 759.936 60.846C759.852 60.282 759.708 59.754 759.504 59.262C759.312 58.758 759.03 58.362 758.658 58.074C758.286 57.786 757.836 57.642 757.308 57.642C756.756 57.642 756.288 57.798 755.904 58.11C755.52 58.41 755.232 58.824 755.04 59.352C754.848 59.868 754.71 60.402 754.626 60.954C754.554 61.494 754.518 62.076 754.518 62.7C754.518 63.372 754.56 63.99 754.644 64.554C754.728 65.106 754.872 65.634 755.076 66.138C755.28 66.642 755.568 67.038 755.94 67.326C756.324 67.602 756.78 67.74 757.308 67.74ZM766.878 62.592C765.894 62.592 765.162 62.274 764.682 61.638C764.214 61.002 763.98 60.252 763.98 59.388C763.98 58.56 764.22 57.822 764.7 57.174C765.18 56.514 765.906 56.184 766.878 56.184C767.85 56.184 768.57 56.502 769.038 57.138C769.518 57.762 769.758 58.512 769.758 59.388C769.758 59.904 769.674 60.39 769.506 60.846C769.338 61.302 769.026 61.71 768.57 62.07C768.114 62.418 767.55 62.592 766.878 62.592ZM767.328 69.216H765.816L774.42 56.184H775.932L767.328 69.216ZM766.878 61.35C767.37 61.35 767.748 61.164 768.012 60.792C768.288 60.408 768.426 59.94 768.426 59.388C768.426 58.788 768.294 58.314 768.03 57.966C767.766 57.606 767.382 57.426 766.878 57.426C766.362 57.426 765.972 57.612 765.708 57.984C765.456 58.344 765.33 58.812 765.33 59.388C765.33 59.976 765.456 60.45 765.708 60.81C765.972 61.17 766.362 61.35 766.878 61.35ZM774.87 69.216C773.898 69.216 773.172 68.898 772.692 68.262C772.224 67.626 771.99 66.876 771.99 66.012C771.99 65.196 772.224 64.458 772.692 63.798C773.172 63.138 773.898 62.808 774.87 62.808C775.854 62.808 776.58 63.126 777.048 63.762C777.528 64.386 777.768 65.136 777.768 66.012C777.768 66.528 777.684 67.014 777.516 67.47C777.348 67.926 777.036 68.334 776.58 68.694C776.124 69.042 775.554 69.216 774.87 69.216ZM773.718 67.434C773.982 67.794 774.366 67.974 774.87 67.974C775.374 67.974 775.758 67.788 776.022 67.416C776.286 67.044 776.418 66.576 776.418 66.012C776.418 65.412 776.286 64.938 776.022 64.59C775.758 64.23 775.374 64.05 774.87 64.05C774.366 64.05 773.982 64.236 773.718 64.608C773.454 64.968 773.322 65.436 773.322 66.012C773.322 66.6 773.454 67.074 773.718 67.434Z" fill="white"/>
<path d="M742.887 140.216C741.651 140.216 740.637 139.856 739.845 139.136C739.053 138.404 738.657 137.486 738.657 136.382C738.657 135.614 738.855 134.942 739.251 134.366C739.647 133.778 740.169 133.346 740.817 133.07C740.301 132.806 739.905 132.446 739.629 131.99C739.353 131.534 739.215 131.024 739.215 130.46C739.215 129.536 739.557 128.762 740.241 128.138C740.937 127.502 741.819 127.184 742.887 127.184C743.955 127.184 744.837 127.502 745.533 128.138C746.229 128.762 746.577 129.536 746.577 130.46C746.577 131.672 746.037 132.542 744.957 133.07C745.617 133.358 746.145 133.79 746.541 134.366C746.937 134.942 747.135 135.614 747.135 136.382C747.135 137.486 746.739 138.404 745.947 139.136C745.155 139.856 744.135 140.216 742.887 140.216ZM741.375 131.918C741.759 132.266 742.263 132.44 742.887 132.44C743.511 132.44 744.015 132.266 744.399 131.918C744.795 131.558 744.993 131.114 744.993 130.586C744.993 129.998 744.795 129.53 744.399 129.182C744.015 128.822 743.511 128.642 742.887 128.642C742.275 128.642 741.771 128.822 741.375 129.182C740.991 129.53 740.799 129.998 740.799 130.586C740.799 131.114 740.991 131.558 741.375 131.918ZM740.997 138.074C741.489 138.518 742.119 138.74 742.887 138.74C743.655 138.74 744.285 138.518 744.777 138.074C745.269 137.618 745.515 137.012 745.515 136.256C745.515 135.572 745.263 134.984 744.759 134.492C744.267 134 743.643 133.754 742.887 133.754C742.131 133.754 741.507 134 741.015 134.492C740.523 134.972 740.277 135.56 740.277 136.256C740.277 137.012 740.517 137.618 740.997 138.074ZM751.299 139.874C751.059 140.114 750.765 140.234 750.417 140.234C750.069 140.234 749.775 140.114 749.535 139.874C749.295 139.622 749.175 139.334 749.175 139.01C749.175 138.674 749.295 138.386 749.535 138.146C749.775 137.894 750.069 137.768 750.417 137.768C750.765 137.768 751.059 137.894 751.299 138.146C751.551 138.398 751.677 138.686 751.677 139.01C751.677 139.334 751.551 139.622 751.299 139.874ZM758.204 140.216C757.4 140.216 756.698 140.03 756.098 139.658C755.498 139.274 755.036 138.764 754.712 138.128C754.4 137.48 754.166 136.79 754.01 136.058C753.866 135.326 753.794 134.54 753.794 133.7C753.794 132.932 753.86 132.2 753.992 131.504C754.124 130.796 754.346 130.106 754.658 129.434C754.97 128.75 755.426 128.204 756.026 127.796C756.638 127.388 757.364 127.184 758.204 127.184C759.008 127.184 759.71 127.376 760.31 127.76C760.91 128.132 761.366 128.642 761.678 129.29C762.002 129.938 762.236 130.628 762.38 131.36C762.536 132.092 762.614 132.872 762.614 133.7C762.614 134.468 762.542 135.206 762.398 135.914C762.266 136.61 762.044 137.3 761.732 137.984C761.42 138.656 760.958 139.196 760.346 139.604C759.746 140.012 759.032 140.216 758.204 140.216ZM758.204 138.74C758.744 138.74 759.206 138.59 759.59 138.29C759.974 137.99 760.256 137.576 760.436 137.048C760.628 136.52 760.76 135.992 760.832 135.464C760.916 134.924 760.958 134.336 760.958 133.7C760.958 133.028 760.916 132.41 760.832 131.846C760.748 131.282 760.604 130.754 760.4 130.262C760.208 129.758 759.926 129.362 759.554 129.074C759.182 128.786 758.732 128.642 758.204 128.642C757.652 128.642 757.184 128.798 756.8 129.11C756.416 129.41 756.128 129.824 755.936 130.352C755.744 130.868 755.606 131.402 755.522 131.954C755.45 132.494 755.414 133.076 755.414 133.7C755.414 134.372 755.456 134.99 755.54 135.554C755.624 136.106 755.768 136.634 755.972 137.138C756.176 137.642 756.464 138.038 756.836 138.326C757.22 138.602 757.676 138.74 758.204 138.74ZM767.774 133.592C766.79 133.592 766.058 133.274 765.578 132.638C765.11 132.002 764.876 131.252 764.876 130.388C764.876 129.56 765.116 128.822 765.596 128.174C766.076 127.514 766.802 127.184 767.774 127.184C768.746 127.184 769.466 127.502 769.934 128.138C770.414 128.762 770.654 129.512 770.654 130.388C770.654 130.904 770.57 131.39 770.402 131.846C770.234 132.302 769.922 132.71 769.466 133.07C769.01 133.418 768.446 133.592 767.774 133.592ZM768.224 140.216H766.712L775.316 127.184H776.828L768.224 140.216ZM767.774 132.35C768.266 132.35 768.644 132.164 768.908 131.792C769.184 131.408 769.322 130.94 769.322 130.388C769.322 129.788 769.19 129.314 768.926 128.966C768.662 128.606 768.278 128.426 767.774 128.426C767.258 128.426 766.868 128.612 766.604 128.984C766.352 129.344 766.226 129.812 766.226 130.388C766.226 130.976 766.352 131.45 766.604 131.81C766.868 132.17 767.258 132.35 767.774 132.35ZM775.766 140.216C774.794 140.216 774.068 139.898 773.588 139.262C773.12 138.626 772.886 137.876 772.886 137.012C772.886 136.196 773.12 135.458 773.588 134.798C774.068 134.138 774.794 133.808 775.766 133.808C776.75 133.808 777.476 134.126 777.944 134.762C778.424 135.386 778.664 136.136 778.664 137.012C778.664 137.528 778.58 138.014 778.412 138.47C778.244 138.926 777.932 139.334 777.476 139.694C777.02 140.042 776.45 140.216 775.766 140.216ZM774.614 138.434C774.878 138.794 775.262 138.974 775.766 138.974C776.27 138.974 776.654 138.788 776.918 138.416C777.182 138.044 777.314 137.576 777.314 137.012C777.314 136.412 777.182 135.938 776.918 135.59C776.654 135.23 776.27 135.05 775.766 135.05C775.262 135.05 774.878 135.236 774.614 135.608C774.35 135.968 774.218 136.436 774.218 137.012C774.218 137.6 774.35 138.074 774.614 138.434Z" fill="white"/>
<path d="M742.465 196.216C741.097 196.216 740.041 195.766 739.297 194.866C738.565 193.954 738.199 192.778 738.199 191.338C738.199 189.346 738.793 187.594 739.981 186.082C741.181 184.57 742.807 183.604 744.859 183.184V184.57C743.719 184.834 742.699 185.386 741.799 186.226C740.911 187.054 740.341 188.032 740.089 189.16C740.689 188.476 741.607 188.134 742.843 188.134C743.923 188.134 744.829 188.518 745.561 189.286C746.293 190.054 746.659 190.99 746.659 192.094C746.659 193.282 746.257 194.266 745.453 195.046C744.661 195.826 743.665 196.216 742.465 196.216ZM742.447 194.74C743.227 194.74 743.863 194.506 744.355 194.038C744.847 193.57 745.093 192.952 745.093 192.184C745.093 191.404 744.847 190.78 744.355 190.312C743.875 189.832 743.239 189.592 742.447 189.592C741.667 189.592 741.025 189.832 740.521 190.312C740.029 190.78 739.783 191.404 739.783 192.184C739.783 192.94 740.035 193.558 740.539 194.038C741.043 194.506 741.679 194.74 742.447 194.74ZM750.668 195.874C750.428 196.114 750.134 196.234 749.786 196.234C749.438 196.234 749.144 196.114 748.904 195.874C748.664 195.622 748.544 195.334 748.544 195.01C748.544 194.674 748.664 194.386 748.904 194.146C749.144 193.894 749.438 193.768 749.786 193.768C750.134 193.768 750.428 193.894 750.668 194.146C750.92 194.398 751.046 194.686 751.046 195.01C751.046 195.334 750.92 195.622 750.668 195.874ZM757.573 196.216C756.769 196.216 756.067 196.03 755.467 195.658C754.867 195.274 754.405 194.764 754.081 194.128C753.769 193.48 753.535 192.79 753.379 192.058C753.235 191.326 753.163 190.54 753.163 189.7C753.163 188.932 753.229 188.2 753.361 187.504C753.493 186.796 753.715 186.106 754.027 185.434C754.339 184.75 754.795 184.204 755.395 183.796C756.007 183.388 756.733 183.184 757.573 183.184C758.377 183.184 759.079 183.376 759.679 183.76C760.279 184.132 760.735 184.642 761.047 185.29C761.371 185.938 761.605 186.628 761.749 187.36C761.905 188.092 761.982 188.872 761.982 189.7C761.982 190.468 761.911 191.206 761.767 191.914C761.635 192.61 761.413 193.3 761.101 193.984C760.789 194.656 760.327 195.196 759.715 195.604C759.115 196.012 758.401 196.216 757.573 196.216ZM757.573 194.74C758.113 194.74 758.575 194.59 758.959 194.29C759.343 193.99 759.625 193.576 759.805 193.048C759.997 192.52 760.129 191.992 760.201 191.464C760.285 190.924 760.327 190.336 760.327 189.7C760.327 189.028 760.285 188.41 760.201 187.846C760.117 187.282 759.973 186.754 759.769 186.262C759.577 185.758 759.295 185.362 758.923 185.074C758.551 184.786 758.101 184.642 757.573 184.642C757.021 184.642 756.553 184.798 756.169 185.11C755.785 185.41 755.497 185.824 755.305 186.352C755.113 186.868 754.975 187.402 754.891 187.954C754.819 188.494 754.783 189.076 754.783 189.7C754.783 190.372 754.825 190.99 754.909 191.554C754.993 192.106 755.137 192.634 755.341 193.138C755.545 193.642 755.833 194.038 756.205 194.326C756.589 194.602 757.045 194.74 757.573 194.74ZM767.143 189.592C766.159 189.592 765.427 189.274 764.947 188.638C764.479 188.002 764.245 187.252 764.245 186.388C764.245 185.56 764.485 184.822 764.965 184.174C765.445 183.514 766.171 183.184 767.143 183.184C768.115 183.184 768.835 183.502 769.303 184.138C769.783 184.762 770.023 185.512 770.023 186.388C770.023 186.904 769.939 187.39 769.771 187.846C769.603 188.302 769.291 188.71 768.835 189.07C768.379 189.418 767.815 189.592 767.143 189.592ZM767.593 196.216H766.081L774.685 183.184H776.197L767.593 196.216ZM767.143 188.35C767.635 188.35 768.013 188.164 768.277 187.792C768.553 187.408 768.691 186.94 768.691 186.388C768.691 185.788 768.559 185.314 768.295 184.966C768.031 184.606 767.647 184.426 767.143 184.426C766.627 184.426 766.237 184.612 765.973 184.984C765.721 185.344 765.595 185.812 765.595 186.388C765.595 186.976 765.721 187.45 765.973 187.81C766.237 188.17 766.627 188.35 767.143 188.35ZM775.135 196.216C774.163 196.216 773.437 195.898 772.957 195.262C772.489 194.626 772.255 193.876 772.255 193.012C772.255 192.196 772.489 191.458 772.957 190.798C773.437 190.138 774.163 189.808 775.135 189.808C776.119 189.808 776.845 190.126 777.313 190.762C777.793 191.386 778.033 192.136 778.033 193.012C778.033 193.528 777.949 194.014 777.781 194.47C777.613 194.926 777.301 195.334 776.845 195.694C776.389 196.042 775.819 196.216 775.135 196.216ZM773.983 194.434C774.247 194.794 774.631 194.974 775.135 194.974C775.639 194.974 776.023 194.788 776.287 194.416C776.551 194.044 776.683 193.576 776.683 193.012C776.683 192.412 776.551 191.938 776.287 191.59C776.023 191.23 775.639 191.05 775.135 191.05C774.631 191.05 774.247 191.236 773.983 191.608C773.719 191.968 773.587 192.436 773.587 193.012C773.587 193.6 773.719 194.074 773.983 194.434Z" fill="white"/>
<path d="M743.868 258V247.956H741.762V246.894C743.118 246.894 743.964 246.396 744.3 245.4H745.434V258H743.868ZM750.655 257.874C750.415 258.114 750.121 258.234 749.773 258.234C749.425 258.234 749.131 258.114 748.891 257.874C748.651 257.622 748.531 257.334 748.531 257.01C748.531 256.674 748.651 256.386 748.891 256.146C749.131 255.894 749.425 255.768 749.773 255.768C750.121 255.768 750.415 255.894 750.655 256.146C750.907 256.398 751.033 256.686 751.033 257.01C751.033 257.334 750.907 257.622 750.655 257.874ZM757.56 258.216C756.756 258.216 756.054 258.03 755.454 257.658C754.854 257.274 754.392 256.764 754.068 256.128C753.756 255.48 753.522 254.79 753.366 254.058C753.222 253.326 753.15 252.54 753.15 251.7C753.15 250.932 753.216 250.2 753.348 249.504C753.48 248.796 753.702 248.106 754.014 247.434C754.326 246.75 754.782 246.204 755.382 245.796C755.994 245.388 756.72 245.184 757.56 245.184C758.364 245.184 759.066 245.376 759.666 245.76C760.266 246.132 760.722 246.642 761.034 247.29C761.358 247.938 761.592 248.628 761.736 249.36C761.892 250.092 761.97 250.872 761.97 251.7C761.97 252.468 761.898 253.206 761.754 253.914C761.622 254.61 761.4 255.3 761.088 255.984C760.776 256.656 760.314 257.196 759.702 257.604C759.102 258.012 758.388 258.216 757.56 258.216ZM757.56 256.74C758.1 256.74 758.562 256.59 758.946 256.29C759.33 255.99 759.612 255.576 759.792 255.048C759.984 254.52 760.116 253.992 760.188 253.464C760.272 252.924 760.314 252.336 760.314 251.7C760.314 251.028 760.272 250.41 760.188 249.846C760.104 249.282 759.96 248.754 759.756 248.262C759.564 247.758 759.282 247.362 758.91 247.074C758.538 246.786 758.088 246.642 757.56 246.642C757.008 246.642 756.54 246.798 756.156 247.11C755.772 247.41 755.484 247.824 755.292 248.352C755.1 248.868 754.962 249.402 754.878 249.954C754.806 250.494 754.77 251.076 754.77 251.7C754.77 252.372 754.812 252.99 754.896 253.554C754.98 254.106 755.124 254.634 755.328 255.138C755.532 255.642 755.82 256.038 756.192 256.326C756.576 256.602 757.032 256.74 757.56 256.74ZM767.13 251.592C766.146 251.592 765.414 251.274 764.934 250.638C764.466 250.002 764.232 249.252 764.232 248.388C764.232 247.56 764.472 246.822 764.952 246.174C765.432 245.514 766.158 245.184 767.13 245.184C768.102 245.184 768.822 245.502 769.29 246.138C769.77 246.762 770.01 247.512 770.01 248.388C770.01 248.904 769.926 249.39 769.758 249.846C769.59 250.302 769.278 250.71 768.822 251.07C768.366 251.418 767.802 251.592 767.13 251.592ZM767.58 258.216H766.068L774.672 245.184H776.184L767.58 258.216ZM767.13 250.35C767.622 250.35 768 250.164 768.264 249.792C768.54 249.408 768.678 248.94 768.678 248.388C768.678 247.788 768.546 247.314 768.282 246.966C768.018 246.606 767.634 246.426 767.13 246.426C766.614 246.426 766.224 246.612 765.96 246.984C765.708 247.344 765.582 247.812 765.582 248.388C765.582 248.976 765.708 249.45 765.96 249.81C766.224 250.17 766.614 250.35 767.13 250.35ZM775.122 258.216C774.15 258.216 773.424 257.898 772.944 257.262C772.476 256.626 772.242 255.876 772.242 255.012C772.242 254.196 772.476 253.458 772.944 252.798C773.424 252.138 774.15 251.808 775.122 251.808C776.106 251.808 776.832 252.126 777.3 252.762C777.78 253.386 778.02 254.136 778.02 255.012C778.02 255.528 777.936 256.014 777.768 256.47C777.6 256.926 777.288 257.334 776.832 257.694C776.376 258.042 775.806 258.216 775.122 258.216ZM773.97 256.434C774.234 256.794 774.618 256.974 775.122 256.974C775.626 256.974 776.01 256.788 776.274 256.416C776.538 256.044 776.67 255.576 776.67 255.012C776.67 254.412 776.538 253.938 776.274 253.59C776.01 253.23 775.626 253.05 775.122 253.05C774.618 253.05 774.234 253.236 773.97 253.608C773.706 253.968 773.574 254.436 773.574 255.012C773.574 255.6 773.706 256.074 773.97 256.434Z" fill="white"/>
<path d="M733.998 351V340.956H731.892V339.894C733.248 339.894 734.094 339.396 734.43 338.4H735.564V351H733.998ZM743.323 351.216C741.955 351.216 740.899 350.766 740.155 349.866C739.423 348.954 739.057 347.778 739.057 346.338C739.057 344.346 739.651 342.594 740.839 341.082C742.039 339.57 743.665 338.604 745.717 338.184V339.57C744.577 339.834 743.557 340.386 742.657 341.226C741.769 342.054 741.199 343.032 740.947 344.16C741.547 343.476 742.465 343.134 743.701 343.134C744.781 343.134 745.687 343.518 746.419 344.286C747.151 345.054 747.517 345.99 747.517 347.094C747.517 348.282 747.115 349.266 746.311 350.046C745.519 350.826 744.523 351.216 743.323 351.216ZM743.305 349.74C744.085 349.74 744.721 349.506 745.213 349.038C745.705 348.57 745.951 347.952 745.951 347.184C745.951 346.404 745.705 345.78 745.213 345.312C744.733 344.832 744.097 344.592 743.305 344.592C742.525 344.592 741.883 344.832 741.379 345.312C740.887 345.78 740.641 346.404 740.641 347.184C740.641 347.94 740.893 348.558 741.397 349.038C741.901 349.506 742.537 349.74 743.305 349.74ZM751.525 350.874C751.285 351.114 750.991 351.234 750.643 351.234C750.295 351.234 750.001 351.114 749.761 350.874C749.521 350.622 749.401 350.334 749.401 350.01C749.401 349.674 749.521 349.386 749.761 349.146C750.001 348.894 750.295 348.768 750.643 348.768C750.991 348.768 751.285 348.894 751.525 349.146C751.777 349.398 751.903 349.686 751.903 350.01C751.903 350.334 751.777 350.622 751.525 350.874ZM758.43 351.216C757.626 351.216 756.924 351.03 756.324 350.658C755.724 350.274 755.262 349.764 754.938 349.128C754.626 348.48 754.392 347.79 754.236 347.058C754.092 346.326 754.02 345.54 754.02 344.7C754.02 343.932 754.086 343.2 754.218 342.504C754.35 341.796 754.572 341.106 754.884 340.434C755.196 339.75 755.652 339.204 756.252 338.796C756.864 338.388 757.59 338.184 758.43 338.184C759.234 338.184 759.936 338.376 760.536 338.76C761.136 339.132 761.592 339.642 761.904 340.29C762.228 340.938 762.462 341.628 762.606 342.36C762.762 343.092 762.84 343.872 762.84 344.7C762.84 345.468 762.768 346.206 762.624 346.914C762.492 347.61 762.27 348.3 761.958 348.984C761.646 349.656 761.184 350.196 760.572 350.604C759.972 351.012 759.258 351.216 758.43 351.216ZM758.43 349.74C758.97 349.74 759.432 349.59 759.816 349.29C760.2 348.99 760.482 348.576 760.662 348.048C760.854 347.52 760.986 346.992 761.058 346.464C761.142 345.924 761.184 345.336 761.184 344.7C761.184 344.028 761.142 343.41 761.058 342.846C760.974 342.282 760.83 341.754 760.626 341.262C760.434 340.758 760.152 340.362 759.78 340.074C759.408 339.786 758.958 339.642 758.43 339.642C757.878 339.642 757.41 339.798 757.026 340.11C756.642 340.41 756.354 340.824 756.162 341.352C755.97 341.868 755.832 342.402 755.748 342.954C755.676 343.494 755.64 344.076 755.64 344.7C755.64 345.372 755.682 345.99 755.766 346.554C755.85 347.106 755.994 347.634 756.198 348.138C756.402 348.642 756.69 349.038 757.062 349.326C757.446 349.602 757.902 349.74 758.43 349.74ZM768 344.592C767.016 344.592 766.284 344.274 765.804 343.638C765.336 343.002 765.102 342.252 765.102 341.388C765.102 340.56 765.342 339.822 765.822 339.174C766.302 338.514 767.028 338.184 768 338.184C768.972 338.184 769.692 338.502 770.16 339.138C770.64 339.762 770.88 340.512 770.88 341.388C770.88 341.904 770.796 342.39 770.628 342.846C770.46 343.302 770.148 343.71 769.692 344.07C769.236 344.418 768.672 344.592 768 344.592ZM768.45 351.216H766.938L775.542 338.184H777.054L768.45 351.216ZM768 343.35C768.492 343.35 768.87 343.164 769.134 342.792C769.41 342.408 769.548 341.94 769.548 341.388C769.548 340.788 769.416 340.314 769.152 339.966C768.888 339.606 768.504 339.426 768 339.426C767.484 339.426 767.094 339.612 766.83 339.984C766.578 340.344 766.452 340.812 766.452 341.388C766.452 341.976 766.578 342.45 766.83 342.81C767.094 343.17 767.484 343.35 768 343.35ZM775.992 351.216C775.02 351.216 774.294 350.898 773.814 350.262C773.346 349.626 773.112 348.876 773.112 348.012C773.112 347.196 773.346 346.458 773.814 345.798C774.294 345.138 775.02 344.808 775.992 344.808C776.976 344.808 777.702 345.126 778.17 345.762C778.65 346.386 778.89 347.136 778.89 348.012C778.89 348.528 778.806 349.014 778.638 349.47C778.47 349.926 778.158 350.334 777.702 350.694C777.246 351.042 776.676 351.216 775.992 351.216ZM774.84 349.434C775.104 349.794 775.488 349.974 775.992 349.974C776.496 349.974 776.88 349.788 777.144 349.416C777.408 349.044 777.54 348.576 777.54 348.012C777.54 347.412 777.408 346.938 777.144 346.59C776.88 346.23 776.496 346.05 775.992 346.05C775.488 346.05 775.104 346.236 774.84 346.608C774.576 346.968 774.444 347.436 774.444 348.012C774.444 348.6 774.576 349.074 774.84 349.434Z" fill="white"/>
<path d="M744.204 430V426.868H737.76V425.932L744.294 417.4H745.77V425.464H747.552V426.868H745.77V430H744.204ZM744.204 425.464V419.614L739.812 425.464H744.204ZM751.387 429.874C751.147 430.114 750.853 430.234 750.505 430.234C750.157 430.234 749.863 430.114 749.623 429.874C749.383 429.622 749.263 429.334 749.263 429.01C749.263 428.674 749.383 428.386 749.623 428.146C749.863 427.894 750.157 427.768 750.505 427.768C750.853 427.768 751.147 427.894 751.387 428.146C751.639 428.398 751.765 428.686 751.765 429.01C751.765 429.334 751.639 429.622 751.387 429.874ZM758.292 430.216C757.488 430.216 756.786 430.03 756.186 429.658C755.586 429.274 755.124 428.764 754.8 428.128C754.488 427.48 754.254 426.79 754.098 426.058C753.954 425.326 753.882 424.54 753.882 423.7C753.882 422.932 753.948 422.2 754.08 421.504C754.212 420.796 754.434 420.106 754.746 419.434C755.058 418.75 755.514 418.204 756.114 417.796C756.726 417.388 757.452 417.184 758.292 417.184C759.096 417.184 759.798 417.376 760.398 417.76C760.998 418.132 761.454 418.642 761.766 419.29C762.09 419.938 762.324 420.628 762.468 421.36C762.624 422.092 762.702 422.872 762.702 423.7C762.702 424.468 762.63 425.206 762.486 425.914C762.354 426.61 762.132 427.3 761.82 427.984C761.508 428.656 761.046 429.196 760.434 429.604C759.834 430.012 759.12 430.216 758.292 430.216ZM758.292 428.74C758.832 428.74 759.294 428.59 759.678 428.29C760.062 427.99 760.344 427.576 760.524 427.048C760.716 426.52 760.848 425.992 760.92 425.464C761.004 424.924 761.046 424.336 761.046 423.7C761.046 423.028 761.004 422.41 760.92 421.846C760.836 421.282 760.692 420.754 760.488 420.262C760.296 419.758 760.014 419.362 759.642 419.074C759.27 418.786 758.82 418.642 758.292 418.642C757.74 418.642 757.272 418.798 756.888 419.11C756.504 419.41 756.216 419.824 756.024 420.352C755.832 420.868 755.694 421.402 755.61 421.954C755.538 422.494 755.502 423.076 755.502 423.7C755.502 424.372 755.544 424.99 755.628 425.554C755.712 426.106 755.856 426.634 756.06 427.138C756.264 427.642 756.552 428.038 756.924 428.326C757.308 428.602 757.764 428.74 758.292 428.74ZM767.862 423.592C766.878 423.592 766.146 423.274 765.666 422.638C765.198 422.002 764.964 421.252 764.964 420.388C764.964 419.56 765.204 418.822 765.684 418.174C766.164 417.514 766.89 417.184 767.862 417.184C768.834 417.184 769.554 417.502 770.022 418.138C770.502 418.762 770.742 419.512 770.742 420.388C770.742 420.904 770.658 421.39 770.49 421.846C770.322 422.302 770.01 422.71 769.554 423.07C769.098 423.418 768.534 423.592 767.862 423.592ZM768.312 430.216H766.8L775.404 417.184H776.916L768.312 430.216ZM767.862 422.35C768.354 422.35 768.732 422.164 768.996 421.792C769.272 421.408 769.41 420.94 769.41 420.388C769.41 419.788 769.278 419.314 769.014 418.966C768.75 418.606 768.366 418.426 767.862 418.426C767.346 418.426 766.956 418.612 766.692 418.984C766.44 419.344 766.314 419.812 766.314 420.388C766.314 420.976 766.44 421.45 766.692 421.81C766.956 422.17 767.346 422.35 767.862 422.35ZM775.854 430.216C774.882 430.216 774.156 429.898 773.676 429.262C773.208 428.626 772.974 427.876 772.974 427.012C772.974 426.196 773.208 425.458 773.676 424.798C774.156 424.138 774.882 423.808 775.854 423.808C776.838 423.808 777.564 424.126 778.032 424.762C778.512 425.386 778.752 426.136 778.752 427.012C778.752 427.528 778.668 428.014 778.5 428.47C778.332 428.926 778.02 429.334 777.564 429.694C777.108 430.042 776.538 430.216 775.854 430.216ZM774.702 428.434C774.966 428.794 775.35 428.974 775.854 428.974C776.358 428.974 776.742 428.788 777.006 428.416C777.27 428.044 777.402 427.576 777.402 427.012C777.402 426.412 777.27 425.938 777.006 425.59C776.742 425.23 776.358 425.05 775.854 425.05C775.35 425.05 774.966 425.236 774.702 425.608C774.438 425.968 774.306 426.436 774.306 427.012C774.306 427.6 774.438 428.074 774.702 428.434Z" fill="white"/>
<line x1="-4.37114e-08" y1="411.5" x2="337" y2="411.5" stroke="#999999"/>
<line x1="-4.37114e-08" y1="229.5" x2="230" y2="229.5" stroke="#EE0000"/>
<line x1="-4.37114e-08" y1="54.5" x2="331" y2="54.5" stroke="#D4D4D4"/>
<line x1="449" y1="46.5" x2="780" y2="46.5" stroke="#F05C6C"/>
<line x1="534" y1="119.5" x2="780" y2="119.5" stroke="#CFE0F4"/>
<line x1="576" y1="179.5" x2="780" y2="179.5" stroke="#727273"/>
<line x1="576" y1="238.5" x2="780" y2="238.5" stroke="#417BC9"/>
<line x1="556" y1="331.5" x2="780" y2="331.5" stroke="#488369"/>
<line x1="473" y1="411.5" x2="780" y2="411.5" stroke="#A0C1E9"/>
<path d="M2.926 392.81V395.26H6.216V396.814H2.926V399.404H6.636V401H0.966V391.214H6.636V392.81H2.926ZM7.94117 396.1C7.94117 395.139 8.15584 394.28 8.58517 393.524C9.02384 392.759 9.61651 392.166 10.3632 391.746C11.1192 391.317 11.9638 391.102 12.8972 391.102C13.9892 391.102 14.9458 391.382 15.7672 391.942C16.5885 392.502 17.1625 393.277 17.4892 394.266H15.2352C15.0112 393.799 14.6938 393.449 14.2832 393.216C13.8818 392.983 13.4152 392.866 12.8832 392.866C12.3138 392.866 11.8052 393.001 11.3572 393.272C10.9185 393.533 10.5732 393.907 10.3212 394.392C10.0785 394.877 9.95717 395.447 9.95717 396.1C9.95717 396.744 10.0785 397.313 10.3212 397.808C10.5732 398.293 10.9185 398.671 11.3572 398.942C11.8052 399.203 12.3138 399.334 12.8832 399.334C13.4152 399.334 13.8818 399.217 14.2832 398.984C14.6938 398.741 15.0112 398.387 15.2352 397.92H17.4892C17.1625 398.919 16.5885 399.698 15.7672 400.258C14.9552 400.809 13.9985 401.084 12.8972 401.084C11.9638 401.084 11.1192 400.874 10.3632 400.454C9.61651 400.025 9.02384 399.432 8.58517 398.676C8.15584 397.92 7.94117 397.061 7.94117 396.1ZM23.6993 401.098C22.7846 401.098 21.9446 400.883 21.1793 400.454C20.4139 400.025 19.8073 399.432 19.3593 398.676C18.9113 397.911 18.6873 397.047 18.6873 396.086C18.6873 395.134 18.9113 394.28 19.3593 393.524C19.8073 392.759 20.4139 392.161 21.1793 391.732C21.9446 391.303 22.7846 391.088 23.6993 391.088C24.6233 391.088 25.4633 391.303 26.2193 391.732C26.9846 392.161 27.5866 392.759 28.0253 393.524C28.4733 394.28 28.6973 395.134 28.6973 396.086C28.6973 397.047 28.4733 397.911 28.0253 398.676C27.5866 399.432 26.9846 400.025 26.2193 400.454C25.4539 400.883 24.6139 401.098 23.6993 401.098ZM23.6993 399.348C24.2873 399.348 24.8053 399.217 25.2533 398.956C25.7013 398.685 26.0513 398.303 26.3033 397.808C26.5553 397.313 26.6813 396.739 26.6813 396.086C26.6813 395.433 26.5553 394.863 26.3033 394.378C26.0513 393.883 25.7013 393.505 25.2533 393.244C24.8053 392.983 24.2873 392.852 23.6993 392.852C23.1113 392.852 22.5886 392.983 22.1313 393.244C21.6833 393.505 21.3333 393.883 21.0813 394.378C20.8293 394.863 20.7033 395.433 20.7033 396.086C20.7033 396.739 20.8293 397.313 21.0813 397.808C21.3333 398.303 21.6833 398.685 22.1313 398.956C22.5886 399.217 23.1113 399.348 23.6993 399.348ZM33.5295 401.098C32.8481 401.098 32.2321 400.981 31.6815 400.748C31.1401 400.515 30.7108 400.179 30.3935 399.74C30.0761 399.301 29.9128 398.783 29.9035 398.186H32.0035C32.0315 398.587 32.1715 398.905 32.4235 399.138C32.6848 399.371 33.0395 399.488 33.4875 399.488C33.9448 399.488 34.3041 399.381 34.5655 399.166C34.8268 398.942 34.9575 398.653 34.9575 398.298C34.9575 398.009 34.8688 397.771 34.6915 397.584C34.5141 397.397 34.2901 397.253 34.0195 397.15C33.7581 397.038 33.3941 396.917 32.9275 396.786C32.2928 396.599 31.7748 396.417 31.3735 396.24C30.9815 396.053 30.6408 395.778 30.3515 395.414C30.0715 395.041 29.9315 394.546 29.9315 393.93C29.9315 393.351 30.0761 392.847 30.3655 392.418C30.6548 391.989 31.0608 391.662 31.5835 391.438C32.1061 391.205 32.7035 391.088 33.3755 391.088C34.3835 391.088 35.2001 391.335 35.8255 391.83C36.4601 392.315 36.8101 392.997 36.8755 393.874H34.7195C34.7008 393.538 34.5561 393.263 34.2855 393.048C34.0241 392.824 33.6741 392.712 33.2355 392.712C32.8528 392.712 32.5448 392.81 32.3115 393.006C32.0875 393.202 31.9755 393.487 31.9755 393.86C31.9755 394.121 32.0595 394.341 32.2275 394.518C32.4048 394.686 32.6195 394.826 32.8715 394.938C33.1328 395.041 33.4968 395.162 33.9635 395.302C34.5981 395.489 35.1161 395.675 35.5175 395.862C35.9188 396.049 36.2641 396.329 36.5535 396.702C36.8428 397.075 36.9875 397.565 36.9875 398.172C36.9875 398.695 36.8521 399.18 36.5815 399.628C36.3108 400.076 35.9141 400.435 35.3915 400.706C34.8688 400.967 34.2481 401.098 33.5295 401.098ZM46.4567 391.228L43.1527 397.598V401H41.1927V397.598L37.8747 391.228H40.0867L42.1867 395.694L44.2727 391.228H46.4567ZM50.9611 401.098C50.2798 401.098 49.6638 400.981 49.1131 400.748C48.5718 400.515 48.1424 400.179 47.8251 399.74C47.5078 399.301 47.3444 398.783 47.3351 398.186H49.4351C49.4631 398.587 49.6031 398.905 49.8551 399.138C50.1164 399.371 50.4711 399.488 50.9191 399.488C51.3764 399.488 51.7358 399.381 51.9971 399.166C52.2584 398.942 52.3891 398.653 52.3891 398.298C52.3891 398.009 52.3004 397.771 52.1231 397.584C51.9458 397.397 51.7218 397.253 51.4511 397.15C51.1898 397.038 50.8258 396.917 50.3591 396.786C49.7244 396.599 49.2064 396.417 48.8051 396.24C48.4131 396.053 48.0724 395.778 47.7831 395.414C47.5031 395.041 47.3631 394.546 47.3631 393.93C47.3631 393.351 47.5078 392.847 47.7971 392.418C48.0864 391.989 48.4924 391.662 49.0151 391.438C49.5378 391.205 50.1351 391.088 50.8071 391.088C51.8151 391.088 52.6318 391.335 53.2571 391.83C53.8918 392.315 54.2418 392.997 54.3071 393.874H52.1511C52.1324 393.538 51.9878 393.263 51.7171 393.048C51.4558 392.824 51.1058 392.712 50.6671 392.712C50.2844 392.712 49.9764 392.81 49.7431 393.006C49.5191 393.202 49.4071 393.487 49.4071 393.86C49.4071 394.121 49.4911 394.341 49.6591 394.518C49.8364 394.686 50.0511 394.826 50.3031 394.938C50.5644 395.041 50.9284 395.162 51.3951 395.302C52.0298 395.489 52.5478 395.675 52.9491 395.862C53.3504 396.049 53.6958 396.329 53.9851 396.702C54.2744 397.075 54.4191 397.565 54.4191 398.172C54.4191 398.695 54.2838 399.18 54.0131 399.628C53.7424 400.076 53.3458 400.435 52.8231 400.706C52.3004 400.967 51.6798 401.098 50.9611 401.098ZM62.7683 391.228V392.81H60.1643V401H58.2043V392.81H55.6003V391.228H62.7683ZM66.1584 392.81V395.26H69.4484V396.814H66.1584V399.404H69.8684V401H64.1984V391.214H69.8684V392.81H66.1584ZM82.3036 391.228V401H80.3436V394.644L77.7256 401H76.2416L73.6096 394.644V401H71.6496V391.228H73.8756L76.9836 398.494L80.0916 391.228H82.3036Z" fill="white"/>
<path d="M11.62 209.228V219H9.66V212.644L7.042 219H5.558L2.926 212.644V219H0.966V209.228H3.192L6.3 216.494L9.408 209.228H11.62ZM19.5498 217.138H15.6578L15.0138 219H12.9558L16.4698 209.214H18.7518L22.2658 219H20.1938L19.5498 217.138ZM19.0178 215.57L17.6038 211.482L16.1898 215.57H19.0178ZM28.6193 219L26.4633 215.192H25.5393V219H23.5793V209.228H27.2473C28.0033 209.228 28.6473 209.363 29.1793 209.634C29.7113 209.895 30.1079 210.255 30.3693 210.712C30.6399 211.16 30.7753 211.664 30.7753 212.224C30.7753 212.868 30.5886 213.451 30.2153 213.974C29.8419 214.487 29.2866 214.842 28.5493 215.038L30.8873 219H28.6193ZM25.5393 213.722H27.1773C27.7093 213.722 28.1059 213.596 28.3673 213.344C28.6286 213.083 28.7593 212.723 28.7593 212.266C28.7593 211.818 28.6286 211.473 28.3673 211.23C28.1059 210.978 27.7093 210.852 27.1773 210.852H25.5393V213.722ZM38.064 219L34.508 214.646V219H32.548V209.228H34.508V213.61L38.064 209.228H40.43L36.398 214.072L40.542 219H38.064ZM43.7912 210.81V213.26H47.0812V214.814H43.7912V217.404H47.5012V219H41.8312V209.214H47.5012V210.81H43.7912ZM55.9324 209.228V210.81H53.3284V219H51.3684V210.81H48.7644V209.228H55.9324ZM59.3225 209.228V219H57.3625V209.228H59.3225ZM69.617 219H67.657L63.219 212.294V219H61.259V209.214H63.219L67.657 215.934V209.214H69.617V219ZM78.3579 212.168C78.1339 211.757 77.8259 211.445 77.4339 211.23C77.0419 211.015 76.5846 210.908 76.0619 210.908C75.4832 210.908 74.9699 211.039 74.5219 211.3C74.0739 211.561 73.7239 211.935 73.4719 212.42C73.2199 212.905 73.0939 213.465 73.0939 214.1C73.0939 214.753 73.2199 215.323 73.4719 215.808C73.7332 216.293 74.0926 216.667 74.5499 216.928C75.0072 217.189 75.5392 217.32 76.1459 217.32C76.8926 217.32 77.5039 217.124 77.9799 216.732C78.4559 216.331 78.7686 215.775 78.9179 215.066H75.5579V213.568H80.8499V215.276C80.7192 215.957 80.4392 216.587 80.0099 217.166C79.5806 217.745 79.0252 218.211 78.3439 218.566C77.6719 218.911 76.9159 219.084 76.0759 219.084C75.1332 219.084 74.2792 218.874 73.5139 218.454C72.7579 218.025 72.1606 217.432 71.7219 216.676C71.2926 215.92 71.0779 215.061 71.0779 214.1C71.0779 213.139 71.2926 212.28 71.7219 211.524C72.1606 210.759 72.7579 210.166 73.5139 209.746C74.2792 209.317 75.1286 209.102 76.0619 209.102C77.1632 209.102 78.1199 209.373 78.9319 209.914C79.7439 210.446 80.3039 211.197 80.6119 212.168H78.3579ZM87.55 205.742L83.77 221.534H81.852L85.632 205.742H87.55ZM95.9126 212.168C95.6886 211.757 95.3806 211.445 94.9886 211.23C94.5966 211.015 94.1392 210.908 93.6166 210.908C93.0379 210.908 92.5246 211.039 92.0766 211.3C91.6286 211.561 91.2786 211.935 91.0266 212.42C90.7746 212.905 90.6486 213.465 90.6486 214.1C90.6486 214.753 90.7746 215.323 91.0266 215.808C91.2879 216.293 91.6472 216.667 92.1046 216.928C92.5619 217.189 93.0939 217.32 93.7006 217.32C94.4472 217.32 95.0586 217.124 95.5346 216.732C96.0106 216.331 96.3232 215.775 96.4726 215.066H93.1126V213.568H98.4046V215.276C98.2739 215.957 97.9939 216.587 97.5646 217.166C97.1352 217.745 96.5799 218.211 95.8986 218.566C95.2266 218.911 94.4706 219.084 93.6306 219.084C92.6879 219.084 91.8339 218.874 91.0686 218.454C90.3126 218.025 89.7152 217.432 89.2766 216.676C88.8472 215.92 88.6326 215.061 88.6326 214.1C88.6326 213.139 88.8472 212.28 89.2766 211.524C89.7152 210.759 90.3126 210.166 91.0686 209.746C91.8339 209.317 92.6832 209.102 93.6166 209.102C94.7179 209.102 95.6746 209.373 96.4866 209.914C97.2986 210.446 97.8586 211.197 98.1666 212.168H95.9126ZM104.895 219L102.739 215.192H101.815V219H99.8547V209.228H103.523C104.279 209.228 104.923 209.363 105.455 209.634C105.987 209.895 106.383 210.255 106.645 210.712C106.915 211.16 107.051 211.664 107.051 212.224C107.051 212.868 106.864 213.451 106.491 213.974C106.117 214.487 105.562 214.842 104.825 215.038L107.163 219H104.895ZM101.815 213.722H103.453C103.985 213.722 104.381 213.596 104.643 213.344C104.904 213.083 105.035 212.723 105.035 212.266C105.035 211.818 104.904 211.473 104.643 211.23C104.381 210.978 103.985 210.852 103.453 210.852H101.815V213.722ZM113.359 219.098C112.445 219.098 111.605 218.883 110.839 218.454C110.074 218.025 109.467 217.432 109.019 216.676C108.571 215.911 108.347 215.047 108.347 214.086C108.347 213.134 108.571 212.28 109.019 211.524C109.467 210.759 110.074 210.161 110.839 209.732C111.605 209.303 112.445 209.088 113.359 209.088C114.283 209.088 115.123 209.303 115.879 209.732C116.645 210.161 117.247 210.759 117.685 211.524C118.133 212.28 118.357 213.134 118.357 214.086C118.357 215.047 118.133 215.911 117.685 216.676C117.247 217.432 116.645 218.025 115.879 218.454C115.114 218.883 114.274 219.098 113.359 219.098ZM113.359 217.348C113.947 217.348 114.465 217.217 114.913 216.956C115.361 216.685 115.711 216.303 115.963 215.808C116.215 215.313 116.341 214.739 116.341 214.086C116.341 213.433 116.215 212.863 115.963 212.378C115.711 211.883 115.361 211.505 114.913 211.244C114.465 210.983 113.947 210.852 113.359 210.852C112.771 210.852 112.249 210.983 111.791 211.244C111.343 211.505 110.993 211.883 110.741 212.378C110.489 212.863 110.363 213.433 110.363 214.086C110.363 214.739 110.489 215.313 110.741 215.808C110.993 216.303 111.343 216.685 111.791 216.956C112.249 217.217 112.771 217.348 113.359 217.348ZM132.878 209.228L130.148 219H127.838L126.004 212.042L124.086 219L121.79 219.014L119.158 209.228H121.258L122.98 216.816L124.968 209.228H127.152L129.028 216.774L130.764 209.228H132.878ZM140.807 209.228V210.81H138.203V219H136.243V210.81H133.639V209.228H140.807ZM150.343 209.228V219H148.383V214.842H144.197V219H142.237V209.228H144.197V213.246H148.383V209.228H150.343Z" fill="white"/>
<path d="M9.744 5.228L6.16 15H3.78L0.196 5.228H2.296L4.984 12.998L7.658 5.228H9.744ZM16.9111 13.138H13.0191L12.3751 15H10.3171L13.8311 5.214H16.1131L19.6271 15H17.5551L16.9111 13.138ZM16.3791 11.57L14.9651 7.482L13.5511 11.57H16.3791ZM22.9006 13.446H26.1206V15H20.9406V5.228H22.9006V13.446ZM29.3264 5.228V15H27.3664V5.228H29.3264ZM34.6789 5.228C35.7055 5.228 36.6062 5.42867 37.3809 5.83C38.1649 6.23133 38.7669 6.80533 39.1869 7.552C39.6162 8.28933 39.8309 9.148 39.8309 10.128C39.8309 11.108 39.6162 11.9667 39.1869 12.704C38.7669 13.432 38.1649 13.9967 37.3809 14.398C36.6062 14.7993 35.7055 15 34.6789 15H31.2629V5.228H34.6789ZM34.6089 13.334C35.6355 13.334 36.4289 13.054 36.9889 12.494C37.5489 11.934 37.8289 11.1453 37.8289 10.128C37.8289 9.11067 37.5489 8.31733 36.9889 7.748C36.4289 7.16933 35.6355 6.88 34.6089 6.88H33.2229V13.334H34.6089ZM47.29 13.138H43.398L42.754 15H40.696L44.21 5.214H46.492L50.006 15H47.934L47.29 13.138ZM46.758 11.57L45.344 7.482L43.93 11.57H46.758ZM57.9695 5.228V6.81H55.3655V15H53.4055V6.81H50.8015V5.228H57.9695ZM63.9356 15.098C63.0209 15.098 62.1809 14.8833 61.4156 14.454C60.6503 14.0247 60.0436 13.432 59.5956 12.676C59.1476 11.9107 58.9236 11.0473 58.9236 10.086C58.9236 9.134 59.1476 8.28 59.5956 7.524C60.0436 6.75867 60.6503 6.16133 61.4156 5.732C62.1809 5.30267 63.0209 5.088 63.9356 5.088C64.8596 5.088 65.6996 5.30267 66.4556 5.732C67.2209 6.16133 67.8229 6.75867 68.2616 7.524C68.7096 8.28 68.9336 9.134 68.9336 10.086C68.9336 11.0473 68.7096 11.9107 68.2616 12.676C67.8229 13.432 67.2209 14.0247 66.4556 14.454C65.6903 14.8833 64.8503 15.098 63.9356 15.098ZM63.9356 13.348C64.5236 13.348 65.0416 13.2173 65.4896 12.956C65.9376 12.6853 66.2876 12.3027 66.5396 11.808C66.7916 11.3133 66.9176 10.7393 66.9176 10.086C66.9176 9.43267 66.7916 8.86333 66.5396 8.378C66.2876 7.88333 65.9376 7.50533 65.4896 7.244C65.0416 6.98267 64.5236 6.852 63.9356 6.852C63.3476 6.852 62.8249 6.98267 62.3676 7.244C61.9196 7.50533 61.5696 7.88333 61.3176 8.378C61.0656 8.86333 60.9396 9.43267 60.9396 10.086C60.9396 10.7393 61.0656 11.3133 61.3176 11.808C61.5696 12.3027 61.9196 12.6853 62.3676 12.956C62.8249 13.2173 63.3476 13.348 63.9356 13.348ZM75.4318 15L73.2758 11.192H72.3518V15H70.3918V5.228H74.0598C74.8158 5.228 75.4598 5.36333 75.9918 5.634C76.5238 5.89533 76.9204 6.25467 77.1818 6.712C77.4524 7.16 77.5878 7.664 77.5878 8.224C77.5878 8.868 77.4011 9.45133 77.0278 9.974C76.6544 10.4873 76.0991 10.842 75.3618 11.038L77.6998 15H75.4318ZM72.3518 9.722H73.9898C74.5218 9.722 74.9184 9.596 75.1798 9.344C75.4411 9.08267 75.5718 8.72333 75.5718 8.266C75.5718 7.818 75.4411 7.47267 75.1798 7.23C74.9184 6.978 74.5218 6.852 73.9898 6.852H72.3518V9.722ZM2.926 26.228V36H0.966V26.228H2.926ZM13.2205 36H11.2605L6.82248 29.294V36H4.86248V26.214H6.82248L11.2605 32.934V26.214H13.2205V36ZM14.6814 31.1C14.6814 30.1387 14.8961 29.28 15.3254 28.524C15.7641 27.7587 16.3567 27.166 17.1034 26.746C17.8594 26.3167 18.7041 26.102 19.6374 26.102C20.7294 26.102 21.6861 26.382 22.5074 26.942C23.3287 27.502 23.9027 28.2767 24.2294 29.266H21.9754C21.7514 28.7993 21.4341 28.4493 21.0234 28.216C20.6221 27.9827 20.1554 27.866 19.6234 27.866C19.0541 27.866 18.5454 28.0013 18.0974 28.272C17.6587 28.5333 17.3134 28.9067 17.0614 29.392C16.8187 29.8773 16.6974 30.4467 16.6974 31.1C16.6974 31.744 16.8187 32.3133 17.0614 32.808C17.3134 33.2933 17.6587 33.6713 18.0974 33.942C18.5454 34.2033 19.0541 34.334 19.6234 34.334C20.1554 34.334 20.6221 34.2173 21.0234 33.984C21.4341 33.7413 21.7514 33.3867 21.9754 32.92H24.2294C23.9027 33.9187 23.3287 34.698 22.5074 35.258C21.6954 35.8087 20.7387 36.084 19.6374 36.084C18.7041 36.084 17.8594 35.874 17.1034 35.454C16.3567 35.0247 15.7641 34.432 15.3254 33.676C14.8961 32.92 14.6814 32.0613 14.6814 31.1ZM27.8635 27.81V30.26H31.1535V31.814H27.8635V34.404H31.5735V36H25.9035V26.214H31.5735V27.81H27.8635ZM41.7127 36H39.7527L35.3147 29.294V36H33.3547V26.214H35.3147L39.7527 32.934V26.214H41.7127V36ZM50.2996 26.228V27.81H47.6956V36H45.7356V27.81H43.1316V26.228H50.2996ZM53.6897 26.228V36H51.7297V26.228H53.6897ZM64.4042 26.228L60.8202 36H58.4402L54.8562 26.228H56.9562L59.6442 33.998L62.3182 26.228H64.4042ZM67.5393 26.228V36H65.5793V26.228H67.5393ZM71.4778 34.348H75.8738V36H69.2098V34.488L73.5778 27.88H69.2098V26.228H75.8738V27.74L71.4778 34.348ZM83.5342 34.138H79.6422L78.9982 36H76.9402L80.4542 26.214H82.7362L86.2502 36H84.1782L83.5342 34.138ZM83.0022 32.57L81.5882 28.482L80.1742 32.57H83.0022ZM94.2137 26.228V27.81H91.6097V36H89.6497V27.81H87.0457V26.228H94.2137ZM97.6037 26.228V36H95.6437V26.228H97.6037ZM104.076 36.098C103.162 36.098 102.322 35.8833 101.556 35.454C100.791 35.0247 100.184 34.432 99.7362 33.676C99.2882 32.9107 99.0642 32.0473 99.0642 31.086C99.0642 30.134 99.2882 29.28 99.7362 28.524C100.184 27.7587 100.791 27.1613 101.556 26.732C102.322 26.3027 103.162 26.088 104.076 26.088C105 26.088 105.84 26.3027 106.596 26.732C107.362 27.1613 107.964 27.7587 108.402 28.524C108.85 29.28 109.074 30.134 109.074 31.086C109.074 32.0473 108.85 32.9107 108.402 33.676C107.964 34.432 107.362 35.0247 106.596 35.454C105.831 35.8833 104.991 36.098 104.076 36.098ZM104.076 34.348C104.664 34.348 105.182 34.2173 105.63 33.956C106.078 33.6853 106.428 33.3027 106.68 32.808C106.932 32.3133 107.058 31.7393 107.058 31.086C107.058 30.4327 106.932 29.8633 106.68 29.378C106.428 28.8833 106.078 28.5053 105.63 28.244C105.182 27.9827 104.664 27.852 104.076 27.852C103.488 27.852 102.966 27.9827 102.508 28.244C102.06 28.5053 101.71 28.8833 101.458 29.378C101.206 29.8633 101.08 30.4327 101.08 31.086C101.08 31.7393 101.206 32.3133 101.458 32.808C101.71 33.3027 102.06 33.6853 102.508 33.956C102.966 34.2173 103.488 34.348 104.076 34.348ZM118.89 36H116.93L112.492 29.294V36H110.532V26.214H112.492L116.93 32.934V26.214H118.89V36Z" fill="white"/>
<path d="M582.744 26.228L579.16 36H576.78L573.196 26.228H575.296L577.984 33.998L580.658 26.228H582.744ZM589.911 34.138H586.019L585.375 36H583.317L586.831 26.214H589.113L592.627 36H590.555L589.911 34.138ZM589.379 32.57L587.965 28.482L586.551 32.57H589.379ZM595.901 34.446H599.121V36H593.941V26.228H595.901V34.446ZM602.326 26.228V36H600.366V26.228H602.326ZM607.679 26.228C608.706 26.228 609.606 26.4287 610.381 26.83C611.165 27.2313 611.767 27.8053 612.187 28.552C612.616 29.2893 612.831 30.148 612.831 31.128C612.831 32.108 612.616 32.9667 612.187 33.704C611.767 34.432 611.165 34.9967 610.381 35.398C609.606 35.7993 608.706 36 607.679 36H604.263V26.228H607.679ZM607.609 34.334C608.636 34.334 609.429 34.054 609.989 33.494C610.549 32.934 610.829 32.1453 610.829 31.128C610.829 30.1107 610.549 29.3173 609.989 28.748C609.429 28.1693 608.636 27.88 607.609 27.88H606.223V34.334H607.609ZM620.29 34.138H616.398L615.754 36H613.696L617.21 26.214H619.492L623.006 36H620.934L620.29 34.138ZM619.758 32.57L618.344 28.482L616.93 32.57H619.758ZM630.97 26.228V27.81H628.366V36H626.406V27.81H623.802V26.228H630.97ZM636.936 36.098C636.021 36.098 635.181 35.8833 634.416 35.454C633.65 35.0247 633.044 34.432 632.596 33.676C632.148 32.9107 631.924 32.0473 631.924 31.086C631.924 30.134 632.148 29.28 632.596 28.524C633.044 27.7587 633.65 27.1613 634.416 26.732C635.181 26.3027 636.021 26.088 636.936 26.088C637.86 26.088 638.7 26.3027 639.456 26.732C640.221 27.1613 640.823 27.7587 641.262 28.524C641.71 29.28 641.934 30.134 641.934 31.086C641.934 32.0473 641.71 32.9107 641.262 33.676C640.823 34.432 640.221 35.0247 639.456 35.454C638.69 35.8833 637.85 36.098 636.936 36.098ZM636.936 34.348C637.524 34.348 638.042 34.2173 638.49 33.956C638.938 33.6853 639.288 33.3027 639.54 32.808C639.792 32.3133 639.918 31.7393 639.918 31.086C639.918 30.4327 639.792 29.8633 639.54 29.378C639.288 28.8833 638.938 28.5053 638.49 28.244C638.042 27.9827 637.524 27.852 636.936 27.852C636.348 27.852 635.825 27.9827 635.368 28.244C634.92 28.5053 634.57 28.8833 634.318 29.378C634.066 29.8633 633.94 30.4327 633.94 31.086C633.94 31.7393 634.066 32.3133 634.318 32.808C634.57 33.3027 634.92 33.6853 635.368 33.956C635.825 34.2173 636.348 34.348 636.936 34.348ZM648.432 36L646.276 32.192H645.352V36H643.392V26.228H647.06C647.816 26.228 648.46 26.3633 648.992 26.634C649.524 26.8953 649.92 27.2547 650.182 27.712C650.452 28.16 650.588 28.664 650.588 29.224C650.588 29.868 650.401 30.4513 650.028 30.974C649.654 31.4873 649.099 31.842 648.362 32.038L650.7 36H648.432ZM645.352 30.722H646.99C647.522 30.722 647.918 30.596 648.18 30.344C648.441 30.0827 648.572 29.7233 648.572 29.266C648.572 28.818 648.441 28.4727 648.18 28.23C647.918 27.978 647.522 27.852 646.99 27.852H645.352V30.722ZM655.735 36.098C655.053 36.098 654.437 35.9813 653.887 35.748C653.345 35.5147 652.916 35.1787 652.599 34.74C652.281 34.3013 652.118 33.7833 652.109 33.186H654.209C654.237 33.5873 654.377 33.9047 654.629 34.138C654.89 34.3713 655.245 34.488 655.693 34.488C656.15 34.488 656.509 34.3807 656.771 34.166C657.032 33.942 657.163 33.6527 657.163 33.298C657.163 33.0087 657.074 32.7707 656.897 32.584C656.719 32.3973 656.495 32.2527 656.225 32.15C655.963 32.038 655.599 31.9167 655.133 31.786C654.498 31.5993 653.98 31.4173 653.579 31.24C653.187 31.0533 652.846 30.778 652.557 30.414C652.277 30.0407 652.137 29.546 652.137 28.93C652.137 28.3513 652.281 27.8473 652.571 27.418C652.86 26.9887 653.266 26.662 653.789 26.438C654.311 26.2047 654.909 26.088 655.581 26.088C656.589 26.088 657.405 26.3353 658.031 26.83C658.665 27.3153 659.015 27.9967 659.081 28.874H656.925C656.906 28.538 656.761 28.2627 656.491 28.048C656.229 27.824 655.879 27.712 655.441 27.712C655.058 27.712 654.75 27.81 654.517 28.006C654.293 28.202 654.181 28.4867 654.181 28.86C654.181 29.1213 654.265 29.3407 654.433 29.518C654.61 29.686 654.825 29.826 655.077 29.938C655.338 30.0407 655.702 30.162 656.169 30.302C656.803 30.4887 657.321 30.6753 657.723 30.862C658.124 31.0487 658.469 31.3287 658.759 31.702C659.048 32.0753 659.193 32.5653 659.193 33.172C659.193 33.6947 659.057 34.18 658.787 34.628C658.516 35.076 658.119 35.4353 657.597 35.706C657.074 35.9673 656.453 36.098 655.735 36.098ZM666.142 22.742L662.362 38.534H660.444L664.224 22.742H666.142ZM671.074 36.098C670.393 36.098 669.777 35.9813 669.226 35.748C668.685 35.5147 668.256 35.1787 667.938 34.74C667.621 34.3013 667.458 33.7833 667.448 33.186H669.548C669.576 33.5873 669.716 33.9047 669.968 34.138C670.23 34.3713 670.584 34.488 671.032 34.488C671.49 34.488 671.849 34.3807 672.11 34.166C672.372 33.942 672.502 33.6527 672.502 33.298C672.502 33.0087 672.414 32.7707 672.236 32.584C672.059 32.3973 671.835 32.2527 671.564 32.15C671.303 32.038 670.939 31.9167 670.472 31.786C669.838 31.5993 669.32 31.4173 668.918 31.24C668.526 31.0533 668.186 30.778 667.896 30.414C667.616 30.0407 667.476 29.546 667.476 28.93C667.476 28.3513 667.621 27.8473 667.91 27.418C668.2 26.9887 668.606 26.662 669.128 26.438C669.651 26.2047 670.248 26.088 670.92 26.088C671.928 26.088 672.745 26.3353 673.37 26.83C674.005 27.3153 674.355 27.9967 674.42 28.874H672.264C672.246 28.538 672.101 28.2627 671.83 28.048C671.569 27.824 671.219 27.712 670.78 27.712C670.398 27.712 670.09 27.81 669.856 28.006C669.632 28.202 669.52 28.4867 669.52 28.86C669.52 29.1213 669.604 29.3407 669.772 29.518C669.95 29.686 670.164 29.826 670.416 29.938C670.678 30.0407 671.042 30.162 671.508 30.302C672.143 30.4887 672.661 30.6753 673.062 30.862C673.464 31.0487 673.809 31.3287 674.098 31.702C674.388 32.0753 674.532 32.5653 674.532 33.172C674.532 33.6947 674.397 34.18 674.126 34.628C673.856 35.076 673.459 35.4353 672.936 35.706C672.414 35.9673 671.793 36.098 671.074 36.098ZM682.882 26.228V27.81H680.278V36H678.318V27.81H675.714V26.228H682.882ZM689.352 36L687.196 32.192H686.272V36H684.312V26.228H687.98C688.736 26.228 689.38 26.3633 689.912 26.634C690.444 26.8953 690.84 27.2547 691.102 27.712C691.372 28.16 691.508 28.664 691.508 29.224C691.508 29.868 691.321 30.4513 690.948 30.974C690.574 31.4873 690.019 31.842 689.282 32.038L691.62 36H689.352ZM686.272 30.722H687.91C688.442 30.722 688.838 30.596 689.1 30.344C689.361 30.0827 689.492 29.7233 689.492 29.266C689.492 28.818 689.361 28.4727 689.1 28.23C688.838 27.978 688.442 27.852 687.91 27.852H686.272V30.722ZM699.272 34.138H695.38L694.736 36H692.678L696.192 26.214H698.474L701.988 36H699.916L699.272 34.138ZM698.74 32.57L697.326 28.482L695.912 32.57H698.74ZM709.952 26.228V27.81H707.348V36H705.388V27.81H702.784V26.228H709.952ZM713.342 27.81V30.26H716.632V31.814H713.342V34.404H717.052V36H711.382V26.214H717.052V27.81H713.342ZM725.637 29.168C725.413 28.7573 725.105 28.4447 724.713 28.23C724.321 28.0153 723.864 27.908 723.341 27.908C722.763 27.908 722.249 28.0387 721.801 28.3C721.353 28.5613 721.003 28.9347 720.751 29.42C720.499 29.9053 720.373 30.4653 720.373 31.1C720.373 31.7533 720.499 32.3227 720.751 32.808C721.013 33.2933 721.372 33.6667 721.829 33.928C722.287 34.1893 722.819 34.32 723.425 34.32C724.172 34.32 724.783 34.124 725.259 33.732C725.735 33.3307 726.048 32.7753 726.197 32.066H722.837V30.568H728.129V32.276C727.999 32.9573 727.719 33.5873 727.289 34.166C726.86 34.7447 726.305 35.2113 725.623 35.566C724.951 35.9113 724.195 36.084 723.355 36.084C722.413 36.084 721.559 35.874 720.793 35.454C720.037 35.0247 719.44 34.432 719.001 33.676C718.572 32.92 718.357 32.0613 718.357 31.1C718.357 30.1387 718.572 29.28 719.001 28.524C719.44 27.7587 720.037 27.166 720.793 26.746C721.559 26.3167 722.408 26.102 723.341 26.102C724.443 26.102 725.399 26.3727 726.211 26.914C727.023 27.446 727.583 28.1973 727.891 29.168H725.637ZM731.539 26.228V36H729.579V26.228H731.539ZM733 31.1C733 30.1387 733.214 29.28 733.644 28.524C734.082 27.7587 734.675 27.166 735.422 26.746C736.178 26.3167 737.022 26.102 737.956 26.102C739.048 26.102 740.004 26.382 740.826 26.942C741.647 27.502 742.221 28.2767 742.548 29.266H740.294C740.07 28.7993 739.752 28.4493 739.342 28.216C738.94 27.9827 738.474 27.866 737.942 27.866C737.372 27.866 736.864 28.0013 736.416 28.272C735.977 28.5333 735.632 28.9067 735.38 29.392C735.137 29.8773 735.016 30.4467 735.016 31.1C735.016 31.744 735.137 32.3133 735.38 32.808C735.632 33.2933 735.977 33.6713 736.416 33.942C736.864 34.2033 737.372 34.334 737.942 34.334C738.474 34.334 738.94 34.2173 739.342 33.984C739.752 33.7413 740.07 33.3867 740.294 32.92H742.548C742.221 33.9187 741.647 34.698 740.826 35.258C740.014 35.8087 739.057 36.084 737.956 36.084C737.022 36.084 736.178 35.874 735.422 35.454C734.675 35.0247 734.082 34.432 733.644 33.676C733.214 32.92 733 32.0613 733 31.1ZM750.932 36.098C750.25 36.098 749.634 35.9813 749.084 35.748C748.542 35.5147 748.113 35.1787 747.796 34.74C747.478 34.3013 747.315 33.7833 747.306 33.186H749.406C749.434 33.5873 749.574 33.9047 749.826 34.138C750.087 34.3713 750.442 34.488 750.89 34.488C751.347 34.488 751.706 34.3807 751.968 34.166C752.229 33.942 752.36 33.6527 752.36 33.298C752.36 33.0087 752.271 32.7707 752.094 32.584C751.916 32.3973 751.692 32.2527 751.422 32.15C751.16 32.038 750.796 31.9167 750.33 31.786C749.695 31.5993 749.177 31.4173 748.776 31.24C748.384 31.0533 748.043 30.778 747.754 30.414C747.474 30.0407 747.334 29.546 747.334 28.93C747.334 28.3513 747.478 27.8473 747.768 27.418C748.057 26.9887 748.463 26.662 748.986 26.438C749.508 26.2047 750.106 26.088 750.778 26.088C751.786 26.088 752.602 26.3353 753.228 26.83C753.862 27.3153 754.212 27.9967 754.278 28.874H752.122C752.103 28.538 751.958 28.2627 751.688 28.048C751.426 27.824 751.076 27.712 750.638 27.712C750.255 27.712 749.947 27.81 749.714 28.006C749.49 28.202 749.378 28.4867 749.378 28.86C749.378 29.1213 749.462 29.3407 749.63 29.518C749.807 29.686 750.022 29.826 750.274 29.938C750.535 30.0407 750.899 30.162 751.366 30.302C752 30.4887 752.518 30.6753 752.92 30.862C753.321 31.0487 753.666 31.3287 753.956 31.702C754.245 32.0753 754.39 32.5653 754.39 33.172C754.39 33.6947 754.254 34.18 753.984 34.628C753.713 35.076 753.316 35.4353 752.794 35.706C752.271 35.9673 751.65 36.098 750.932 36.098ZM762.081 34.138H758.189L757.545 36H755.487L759.001 26.214H761.283L764.797 36H762.725L762.081 34.138ZM761.549 32.57L760.135 28.482L758.721 32.57H761.549ZM768.071 34.446H771.291V36H766.111V26.228H768.071V34.446ZM774.496 27.81V30.26H777.786V31.814H774.496V34.404H778.206V36H772.536V26.214H778.206V27.81H774.496Z" fill="white"/>
<path d="M714.34 110.098C713.659 110.098 713.043 109.981 712.492 109.748C711.951 109.515 711.521 109.179 711.204 108.74C710.887 108.301 710.723 107.783 710.714 107.186H712.814C712.842 107.587 712.982 107.905 713.234 108.138C713.495 108.371 713.85 108.488 714.298 108.488C714.755 108.488 715.115 108.381 715.376 108.166C715.637 107.942 715.768 107.653 715.768 107.298C715.768 107.009 715.679 106.771 715.502 106.584C715.325 106.397 715.101 106.253 714.83 106.15C714.569 106.038 714.205 105.917 713.738 105.786C713.103 105.599 712.585 105.417 712.184 105.24C711.792 105.053 711.451 104.778 711.162 104.414C710.882 104.041 710.742 103.546 710.742 102.93C710.742 102.351 710.887 101.847 711.176 101.418C711.465 100.989 711.871 100.662 712.394 100.438C712.917 100.205 713.514 100.088 714.186 100.088C715.194 100.088 716.011 100.335 716.636 100.83C717.271 101.315 717.621 101.997 717.686 102.874H715.53C715.511 102.538 715.367 102.263 715.096 102.048C714.835 101.824 714.485 101.712 714.046 101.712C713.663 101.712 713.355 101.81 713.122 102.006C712.898 102.202 712.786 102.487 712.786 102.86C712.786 103.121 712.87 103.341 713.038 103.518C713.215 103.686 713.43 103.826 713.682 103.938C713.943 104.041 714.307 104.162 714.774 104.302C715.409 104.489 715.927 104.675 716.328 104.862C716.729 105.049 717.075 105.329 717.364 105.702C717.653 106.075 717.798 106.565 717.798 107.172C717.798 107.695 717.663 108.18 717.392 108.628C717.121 109.076 716.725 109.435 716.202 109.706C715.679 109.967 715.059 110.098 714.34 110.098ZM721.457 101.81V104.26H724.747V105.814H721.457V108.404H725.167V110H719.497V100.214H725.167V101.81H721.457ZM728.908 101.81V104.26H732.198V105.814H728.908V108.404H732.618V110H726.948V100.214H732.618V101.81H728.908ZM737.816 100.228C738.842 100.228 739.743 100.429 740.518 100.83C741.302 101.231 741.904 101.805 742.324 102.552C742.753 103.289 742.968 104.148 742.968 105.128C742.968 106.108 742.753 106.967 742.324 107.704C741.904 108.432 741.302 108.997 740.518 109.398C739.743 109.799 738.842 110 737.816 110H734.4V100.228H737.816ZM737.746 108.334C738.772 108.334 739.566 108.054 740.126 107.494C740.686 106.934 740.966 106.145 740.966 105.128C740.966 104.111 740.686 103.317 740.126 102.748C739.566 102.169 738.772 101.88 737.746 101.88H736.36V108.334H737.746ZM751.145 110.098C750.463 110.098 749.847 109.981 749.297 109.748C748.755 109.515 748.326 109.179 748.009 108.74C747.691 108.301 747.528 107.783 747.519 107.186H749.619C749.647 107.587 749.787 107.905 750.039 108.138C750.3 108.371 750.655 108.488 751.103 108.488C751.56 108.488 751.919 108.381 752.181 108.166C752.442 107.942 752.573 107.653 752.573 107.298C752.573 107.009 752.484 106.771 752.307 106.584C752.129 106.397 751.905 106.253 751.635 106.15C751.373 106.038 751.009 105.917 750.543 105.786C749.908 105.599 749.39 105.417 748.989 105.24C748.597 105.053 748.256 104.778 747.967 104.414C747.687 104.041 747.547 103.546 747.547 102.93C747.547 102.351 747.691 101.847 747.981 101.418C748.27 100.989 748.676 100.662 749.199 100.438C749.721 100.205 750.319 100.088 750.991 100.088C751.999 100.088 752.815 100.335 753.441 100.83C754.075 101.315 754.425 101.997 754.491 102.874H752.335C752.316 102.538 752.171 102.263 751.901 102.048C751.639 101.824 751.289 101.712 750.851 101.712C750.468 101.712 750.16 101.81 749.927 102.006C749.703 102.202 749.591 102.487 749.591 102.86C749.591 103.121 749.675 103.341 749.843 103.518C750.02 103.686 750.235 103.826 750.487 103.938C750.748 104.041 751.112 104.162 751.579 104.302C752.213 104.489 752.731 104.675 753.133 104.862C753.534 105.049 753.879 105.329 754.169 105.702C754.458 106.075 754.603 106.565 754.603 107.172C754.603 107.695 754.467 108.18 754.197 108.628C753.926 109.076 753.529 109.435 753.007 109.706C752.484 109.967 751.863 110.098 751.145 110.098ZM762.294 108.138H758.402L757.758 110H755.7L759.214 100.214H761.496L765.01 110H762.938L762.294 108.138ZM761.762 106.57L760.348 102.482L758.934 106.57H761.762ZM768.283 108.446H771.503V110H766.323V100.228H768.283V108.446ZM774.709 101.81V104.26H777.999V105.814H774.709V108.404H778.419V110H772.749V100.214H778.419V101.81H774.709Z" fill="white"/>
<path d="M695.092 166.252C695.092 166.775 694.966 167.265 694.714 167.722C694.471 168.179 694.084 168.548 693.552 168.828C693.029 169.108 692.367 169.248 691.564 169.248H689.926V173H687.966V163.228H691.564C692.32 163.228 692.964 163.359 693.496 163.62C694.028 163.881 694.425 164.241 694.686 164.698C694.957 165.155 695.092 165.673 695.092 166.252ZM691.48 167.666C692.021 167.666 692.423 167.545 692.684 167.302C692.945 167.05 693.076 166.7 693.076 166.252C693.076 165.3 692.544 164.824 691.48 164.824H689.926V167.666H691.48ZM701.524 173L699.368 169.192H698.444V173H696.484V163.228H700.152C700.908 163.228 701.552 163.363 702.084 163.634C702.616 163.895 703.012 164.255 703.274 164.712C703.544 165.16 703.68 165.664 703.68 166.224C703.68 166.868 703.493 167.451 703.12 167.974C702.746 168.487 702.191 168.842 701.454 169.038L703.792 173H701.524ZM698.444 167.722H700.082C700.614 167.722 701.01 167.596 701.272 167.344C701.533 167.083 701.664 166.723 701.664 166.266C701.664 165.818 701.533 165.473 701.272 165.23C701.01 164.978 700.614 164.852 700.082 164.852H698.444V167.722ZM707.412 163.228V173H705.452V163.228H707.412ZM718.127 163.228L714.543 173H712.163L708.579 163.228H710.679L713.367 170.998L716.041 163.228H718.127ZM725.294 171.138H721.402L720.758 173H718.7L722.214 163.214H724.496L728.01 173H725.938L725.294 171.138ZM724.762 169.57L723.348 165.482L721.934 169.57H724.762ZM735.973 163.228V164.81H733.369V173H731.409V164.81H728.805V163.228H735.973ZM739.364 164.81V167.26H742.654V168.814H739.364V171.404H743.074V173H737.404V163.214H743.074V164.81H739.364ZM751.565 173.098C750.883 173.098 750.267 172.981 749.717 172.748C749.175 172.515 748.746 172.179 748.429 171.74C748.111 171.301 747.948 170.783 747.939 170.186H750.039C750.067 170.587 750.207 170.905 750.459 171.138C750.72 171.371 751.075 171.488 751.523 171.488C751.98 171.488 752.339 171.381 752.601 171.166C752.862 170.942 752.993 170.653 752.993 170.298C752.993 170.009 752.904 169.771 752.727 169.584C752.549 169.397 752.325 169.253 752.055 169.15C751.793 169.038 751.429 168.917 750.963 168.786C750.328 168.599 749.81 168.417 749.409 168.24C749.017 168.053 748.676 167.778 748.387 167.414C748.107 167.041 747.967 166.546 747.967 165.93C747.967 165.351 748.111 164.847 748.401 164.418C748.69 163.989 749.096 163.662 749.619 163.438C750.141 163.205 750.739 163.088 751.411 163.088C752.419 163.088 753.235 163.335 753.861 163.83C754.495 164.315 754.845 164.997 754.911 165.874H752.755C752.736 165.538 752.591 165.263 752.321 165.048C752.059 164.824 751.709 164.712 751.271 164.712C750.888 164.712 750.58 164.81 750.347 165.006C750.123 165.202 750.011 165.487 750.011 165.86C750.011 166.121 750.095 166.341 750.263 166.518C750.44 166.686 750.655 166.826 750.907 166.938C751.168 167.041 751.532 167.162 751.999 167.302C752.633 167.489 753.151 167.675 753.553 167.862C753.954 168.049 754.299 168.329 754.589 168.702C754.878 169.075 755.023 169.565 755.023 170.172C755.023 170.695 754.887 171.18 754.617 171.628C754.346 172.076 753.949 172.435 753.427 172.706C752.904 172.967 752.283 173.098 751.565 173.098ZM762.714 171.138H758.822L758.178 173H756.12L759.634 163.214H761.916L765.43 173H763.358L762.714 171.138ZM762.182 169.57L760.768 165.482L759.354 169.57H762.182ZM768.703 171.446H771.923V173H766.743V163.228H768.703V171.446ZM775.129 164.81V167.26H778.419V168.814H775.129V171.404H778.839V173H773.169V163.214H778.839V164.81H775.129Z" fill="white"/>
<path d="M703.092 225.252C703.092 225.775 702.966 226.265 702.714 226.722C702.471 227.179 702.084 227.548 701.552 227.828C701.029 228.108 700.367 228.248 699.564 228.248H697.926V232H695.966V222.228H699.564C700.32 222.228 700.964 222.359 701.496 222.62C702.028 222.881 702.425 223.241 702.686 223.698C702.957 224.155 703.092 224.673 703.092 225.252ZM699.48 226.666C700.021 226.666 700.423 226.545 700.684 226.302C700.945 226.05 701.076 225.7 701.076 225.252C701.076 224.3 700.544 223.824 699.48 223.824H697.926V226.666H699.48ZM706.416 222.228V228.276C706.416 228.939 706.588 229.447 706.934 229.802C707.279 230.147 707.764 230.32 708.39 230.32C709.024 230.32 709.514 230.147 709.86 229.802C710.205 229.447 710.378 228.939 710.378 228.276V222.228H712.352V228.262C712.352 229.093 712.17 229.797 711.806 230.376C711.451 230.945 710.97 231.375 710.364 231.664C709.766 231.953 709.099 232.098 708.362 232.098C707.634 232.098 706.971 231.953 706.374 231.664C705.786 231.375 705.319 230.945 704.974 230.376C704.628 229.797 704.456 229.093 704.456 228.262V222.228H706.416ZM719.789 226.988C720.34 227.091 720.793 227.366 721.147 227.814C721.502 228.262 721.679 228.775 721.679 229.354C721.679 229.877 721.549 230.339 721.287 230.74C721.035 231.132 720.667 231.44 720.181 231.664C719.696 231.888 719.122 232 718.459 232H714.245V222.228H718.277C718.94 222.228 719.509 222.335 719.985 222.55C720.471 222.765 720.835 223.063 721.077 223.446C721.329 223.829 721.455 224.263 721.455 224.748C721.455 225.317 721.301 225.793 720.993 226.176C720.695 226.559 720.293 226.829 719.789 226.988ZM716.205 226.26H717.997C718.464 226.26 718.823 226.157 719.075 225.952C719.327 225.737 719.453 225.434 719.453 225.042C719.453 224.65 719.327 224.347 719.075 224.132C718.823 223.917 718.464 223.81 717.997 223.81H716.205V226.26ZM718.179 230.404C718.655 230.404 719.024 230.292 719.285 230.068C719.556 229.844 719.691 229.527 719.691 229.116C719.691 228.696 719.551 228.369 719.271 228.136C718.991 227.893 718.613 227.772 718.137 227.772H716.205V230.404H718.179ZM725.201 230.446H728.421V232H723.241V222.228H725.201V230.446ZM731.627 222.228V232H729.667V222.228H731.627ZM733.088 227.1C733.088 226.139 733.302 225.28 733.732 224.524C734.17 223.759 734.763 223.166 735.51 222.746C736.266 222.317 737.11 222.102 738.044 222.102C739.136 222.102 740.092 222.382 740.914 222.942C741.735 223.502 742.309 224.277 742.636 225.266H740.382C740.158 224.799 739.84 224.449 739.43 224.216C739.028 223.983 738.562 223.866 738.03 223.866C737.46 223.866 736.952 224.001 736.504 224.272C736.065 224.533 735.72 224.907 735.468 225.392C735.225 225.877 735.104 226.447 735.104 227.1C735.104 227.744 735.225 228.313 735.468 228.808C735.72 229.293 736.065 229.671 736.504 229.942C736.952 230.203 737.46 230.334 738.03 230.334C738.562 230.334 739.028 230.217 739.43 229.984C739.84 229.741 740.158 229.387 740.382 228.92H742.636C742.309 229.919 741.735 230.698 740.914 231.258C740.102 231.809 739.145 232.084 738.044 232.084C737.11 232.084 736.266 231.874 735.51 231.454C734.763 231.025 734.17 230.432 733.732 229.676C733.302 228.92 733.088 228.061 733.088 227.1ZM751.02 232.098C750.338 232.098 749.722 231.981 749.172 231.748C748.63 231.515 748.201 231.179 747.884 230.74C747.566 230.301 747.403 229.783 747.394 229.186H749.494C749.522 229.587 749.662 229.905 749.914 230.138C750.175 230.371 750.53 230.488 750.978 230.488C751.435 230.488 751.794 230.381 752.056 230.166C752.317 229.942 752.448 229.653 752.448 229.298C752.448 229.009 752.359 228.771 752.182 228.584C752.004 228.397 751.78 228.253 751.51 228.15C751.248 228.038 750.884 227.917 750.418 227.786C749.783 227.599 749.265 227.417 748.864 227.24C748.472 227.053 748.131 226.778 747.842 226.414C747.562 226.041 747.422 225.546 747.422 224.93C747.422 224.351 747.566 223.847 747.856 223.418C748.145 222.989 748.551 222.662 749.074 222.438C749.596 222.205 750.194 222.088 750.866 222.088C751.874 222.088 752.69 222.335 753.316 222.83C753.95 223.315 754.3 223.997 754.366 224.874H752.21C752.191 224.538 752.046 224.263 751.776 224.048C751.514 223.824 751.164 223.712 750.726 223.712C750.343 223.712 750.035 223.81 749.802 224.006C749.578 224.202 749.466 224.487 749.466 224.86C749.466 225.121 749.55 225.341 749.718 225.518C749.895 225.686 750.11 225.826 750.362 225.938C750.623 226.041 750.987 226.162 751.454 226.302C752.088 226.489 752.606 226.675 753.008 226.862C753.409 227.049 753.754 227.329 754.044 227.702C754.333 228.075 754.478 228.565 754.478 229.172C754.478 229.695 754.342 230.18 754.072 230.628C753.801 231.076 753.404 231.435 752.882 231.706C752.359 231.967 751.738 232.098 751.02 232.098ZM762.169 230.138H758.277L757.633 232H755.575L759.089 222.214H761.371L764.885 232H762.813L762.169 230.138ZM761.637 228.57L760.223 224.482L758.809 228.57H761.637ZM768.158 230.446H771.378V232H766.198V222.228H768.158V230.446ZM774.584 223.81V226.26H777.874V227.814H774.584V230.404H778.294V232H772.624V222.214H778.294V223.81H774.584Z" fill="white"/>
<path d="M749.616 315.228V316.81H747.012V325H745.052V316.81H742.448V315.228H749.616ZM753.006 316.81V319.26H756.296V320.814H753.006V323.404H756.716V325H751.046V315.214H756.716V316.81H753.006ZM764.489 323.138H760.597L759.953 325H757.895L761.409 315.214H763.691L767.205 325H765.133L764.489 323.138ZM763.957 321.57L762.543 317.482L761.129 321.57H763.957ZM779.173 315.228V325H777.213V318.644L774.595 325H773.111L770.479 318.644V325H768.519V315.228H770.745L773.853 322.494L776.961 315.228H779.173Z" fill="white"/>
<path d="M715.958 403.138H712.066L711.422 405H709.364L712.878 395.214H715.16L718.674 405H716.602L715.958 403.138ZM715.426 401.57L714.012 397.482L712.598 401.57H715.426ZM723.403 395.228C724.43 395.228 725.331 395.429 726.105 395.83C726.889 396.231 727.491 396.805 727.911 397.552C728.341 398.289 728.555 399.148 728.555 400.128C728.555 401.108 728.341 401.967 727.911 402.704C727.491 403.432 726.889 403.997 726.105 404.398C725.331 404.799 724.43 405 723.403 405H719.987V395.228H723.403ZM723.333 403.334C724.36 403.334 725.153 403.054 725.713 402.494C726.273 401.934 726.553 401.145 726.553 400.128C726.553 399.111 726.273 398.317 725.713 397.748C725.153 397.169 724.36 396.88 723.333 396.88H721.947V403.334H723.333ZM738.801 395.228L735.217 405H732.837L729.253 395.228H731.353L734.041 402.998L736.715 395.228H738.801ZM741.936 395.228V405H739.976V395.228H741.936ZM747.246 405.098C746.565 405.098 745.949 404.981 745.398 404.748C744.857 404.515 744.428 404.179 744.11 403.74C743.793 403.301 743.63 402.783 743.62 402.186H745.72C745.748 402.587 745.888 402.905 746.14 403.138C746.402 403.371 746.756 403.488 747.204 403.488C747.662 403.488 748.021 403.381 748.282 403.166C748.544 402.942 748.674 402.653 748.674 402.298C748.674 402.009 748.586 401.771 748.408 401.584C748.231 401.397 748.007 401.253 747.736 401.15C747.475 401.038 747.111 400.917 746.644 400.786C746.01 400.599 745.492 400.417 745.09 400.24C744.698 400.053 744.358 399.778 744.068 399.414C743.788 399.041 743.648 398.546 743.648 397.93C743.648 397.351 743.793 396.847 744.082 396.418C744.372 395.989 744.778 395.662 745.3 395.438C745.823 395.205 746.42 395.088 747.092 395.088C748.1 395.088 748.917 395.335 749.542 395.83C750.177 396.315 750.527 396.997 750.592 397.874H748.436C748.418 397.538 748.273 397.263 748.002 397.048C747.741 396.824 747.391 396.712 746.952 396.712C746.57 396.712 746.262 396.81 746.028 397.006C745.804 397.202 745.692 397.487 745.692 397.86C745.692 398.121 745.776 398.341 745.944 398.518C746.122 398.686 746.336 398.826 746.588 398.938C746.85 399.041 747.214 399.162 747.68 399.302C748.315 399.489 748.833 399.675 749.234 399.862C749.636 400.049 749.981 400.329 750.27 400.702C750.56 401.075 750.704 401.565 750.704 402.172C750.704 402.695 750.569 403.18 750.298 403.628C750.028 404.076 749.631 404.435 749.108 404.706C748.586 404.967 747.965 405.098 747.246 405.098ZM756.94 405.098C756.025 405.098 755.185 404.883 754.42 404.454C753.654 404.025 753.048 403.432 752.6 402.676C752.152 401.911 751.928 401.047 751.928 400.086C751.928 399.134 752.152 398.28 752.6 397.524C753.048 396.759 753.654 396.161 754.42 395.732C755.185 395.303 756.025 395.088 756.94 395.088C757.864 395.088 758.704 395.303 759.46 395.732C760.225 396.161 760.827 396.759 761.266 397.524C761.714 398.28 761.938 399.134 761.938 400.086C761.938 401.047 761.714 401.911 761.266 402.676C760.827 403.432 760.225 404.025 759.46 404.454C758.694 404.883 757.854 405.098 756.94 405.098ZM756.94 403.348C757.528 403.348 758.046 403.217 758.494 402.956C758.942 402.685 759.292 402.303 759.544 401.808C759.796 401.313 759.922 400.739 759.922 400.086C759.922 399.433 759.796 398.863 759.544 398.378C759.292 397.883 758.942 397.505 758.494 397.244C758.046 396.983 757.528 396.852 756.94 396.852C756.352 396.852 755.829 396.983 755.372 397.244C754.924 397.505 754.574 397.883 754.322 398.378C754.07 398.863 753.944 399.433 753.944 400.086C753.944 400.739 754.07 401.313 754.322 401.808C754.574 402.303 754.924 402.685 755.372 402.956C755.829 403.217 756.352 403.348 756.94 403.348ZM768.436 405L766.28 401.192H765.356V405H763.396V395.228H767.064C767.82 395.228 768.464 395.363 768.996 395.634C769.528 395.895 769.924 396.255 770.186 396.712C770.456 397.16 770.592 397.664 770.592 398.224C770.592 398.868 770.405 399.451 770.032 399.974C769.658 400.487 769.103 400.842 768.366 401.038L770.704 405H768.436ZM765.356 399.722H766.994C767.526 399.722 767.922 399.596 768.184 399.344C768.445 399.083 768.576 398.723 768.576 398.266C768.576 397.818 768.445 397.473 768.184 397.23C767.922 396.978 767.526 396.852 766.994 396.852H765.356V399.722ZM775.738 405.098C775.057 405.098 774.441 404.981 773.89 404.748C773.349 404.515 772.92 404.179 772.602 403.74C772.285 403.301 772.122 402.783 772.112 402.186H774.212C774.24 402.587 774.38 402.905 774.632 403.138C774.894 403.371 775.248 403.488 775.696 403.488C776.154 403.488 776.513 403.381 776.774 403.166C777.036 402.942 777.166 402.653 777.166 402.298C777.166 402.009 777.078 401.771 776.9 401.584C776.723 401.397 776.499 401.253 776.228 401.15C775.967 401.038 775.603 400.917 775.136 400.786C774.502 400.599 773.984 400.417 773.582 400.24C773.19 400.053 772.85 399.778 772.56 399.414C772.28 399.041 772.14 398.546 772.14 397.93C772.14 397.351 772.285 396.847 772.574 396.418C772.864 395.989 773.27 395.662 773.792 395.438C774.315 395.205 774.912 395.088 775.584 395.088C776.592 395.088 777.409 395.335 778.034 395.83C778.669 396.315 779.019 396.997 779.084 397.874H776.928C776.91 397.538 776.765 397.263 776.494 397.048C776.233 396.824 775.883 396.712 775.444 396.712C775.062 396.712 774.754 396.81 774.52 397.006C774.296 397.202 774.184 397.487 774.184 397.86C774.184 398.121 774.268 398.341 774.436 398.518C774.614 398.686 774.828 398.826 775.08 398.938C775.342 399.041 775.706 399.162 776.172 399.302C776.807 399.489 777.325 399.675 777.726 399.862C778.128 400.049 778.473 400.329 778.762 400.702C779.052 401.075 779.196 401.565 779.196 402.172C779.196 402.695 779.061 403.18 778.79 403.628C778.52 404.076 778.123 404.435 777.6 404.706C777.078 404.967 776.457 405.098 775.738 405.098Z" fill="white"/>
</svg>
