<svg width="59" height="55" viewBox="0 0 59 55" fill="none" xmlns="http://www.w3.org/2000/svg">
<path d="M57.7106 42.9001H47.6487V32.258C47.6487 31.6394 47.1481 31.1378 46.5308 31.1378C45.9134 31.1378 45.4128 31.6394 45.4128 32.258V42.9001H24.171C23.5536 42.9001 23.053 43.4017 23.053 44.0203V47.3809C23.053 48.9817 22.2005 50.461 20.817 51.2616C19.4335 52.0617 17.7286 52.0617 16.3451 51.2616C14.9616 50.4609 14.1091 48.9816 14.1091 47.3809V7.0533C14.1091 5.39743 13.4957 3.80072 12.3871 2.57245H40.9412C42.1271 2.57245 43.2646 3.04454 44.1035 3.8847C44.942 4.72536 45.4131 5.86511 45.4131 7.0533C45.4131 7.67191 45.9137 8.17351 46.5311 8.17351C47.1485 8.17351 47.6491 7.67191 47.6491 7.0533C47.6491 5.27043 46.9424 3.56118 45.6847 2.3004C44.4264 1.04016 42.7205 0.332031 40.9412 0.332031H7.40154C5.62221 0.332031 3.91635 1.04016 2.65807 2.3004C1.40033 3.56115 0.693604 5.27043 0.693604 7.0533V10.4139C0.693604 10.711 0.811392 10.996 1.02101 11.2061C1.23064 11.4161 1.51513 11.5341 1.81159 11.5341H11.8735V47.3809C11.8735 49.1638 12.5802 50.873 13.838 52.1338C15.0962 53.394 16.8021 54.1022 18.5814 54.1022H51.0031C55.6093 54.1022 58.829 51.3407 58.829 47.3809V44.0203C58.829 43.7232 58.7112 43.4382 58.5016 43.2281C58.292 43.0181 58.0075 42.9001 57.711 42.9001H57.7106ZM2.9292 7.0533C2.9292 5.45248 3.78167 3.97317 5.16517 3.17263C6.54867 2.37248 8.25363 2.37248 9.63713 3.17263C11.0206 3.97328 11.8731 5.45261 11.8731 7.0533V9.29372H2.9292V7.0533ZM56.5927 47.3809C56.5927 50.0639 54.3567 51.8617 51.0027 51.8617H23.5666C24.6751 50.6335 25.2886 49.0368 25.2886 47.3809V45.1405H56.5923L56.5927 47.3809Z" fill="black"/>
<path d="M32.8074 15.3052C30.0125 18.6939 25.5405 24.2669 25.5405 24.2669C25.3773 24.4674 25.2879 24.719 25.2889 24.978V34.8078C23.3379 37.3114 22.1811 38.8351 22.1586 38.8631C21.7852 39.3577 21.8826 40.0629 22.3767 40.4369C22.8703 40.811 23.574 40.7135 23.9474 40.2184C23.9474 40.1849 25.1103 38.6726 27.0552 36.1801H37.5868C37.9107 36.1801 38.2187 36.0391 38.4308 35.7936C38.4812 35.7376 43.3834 30.058 46.8157 26.2718C52.5848 19.9371 53.2387 11.9497 53.2387 11.6143C53.2851 11.0167 52.8539 10.4886 52.2605 10.4156C51.6845 10.3486 38.1457 8.73525 32.8075 15.3054L32.8074 15.3052ZM50.8626 12.5497C50.4883 14.8352 49.1856 20.3017 45.1439 24.7826C42.2261 27.9971 38.2463 32.59 37.0779 33.9398H28.8158C30.4259 31.9008 32.3653 29.4589 34.54 26.8095C39.2635 21.0573 41.9017 19.8641 41.9132 19.8586C42.4872 19.6296 42.7677 18.978 42.5391 18.4024C42.3105 17.8273 41.6602 17.5462 41.0857 17.7752C40.7728 17.9043 37.877 19.181 32.8071 25.3872C30.8337 27.8066 29.0449 30.0191 27.5246 31.9624V25.3757C28.5028 24.1604 32.1642 19.6345 34.5399 16.7275C38.3131 12.0956 47.6479 12.3196 50.8625 12.5492L50.8626 12.5497Z" fill="black"/>
</svg>
