<svg width="44" height="45" viewBox="0 0 44 45" fill="none" xmlns="http://www.w3.org/2000/svg">
<g filter="url(#filter0_i_711_880)">
<path d="M37.4261 22.2132C37.4261 24.249 37.0251 26.2649 36.246 28.1457C35.467 30.0265 34.3251 31.7355 32.8856 33.175C31.4461 34.6145 29.7371 35.7564 27.8563 36.5354C25.9755 37.3145 23.9596 37.7155 21.9238 37.7155C19.888 37.7155 17.8722 37.3145 15.9914 36.5354C14.1105 35.7564 12.4016 34.6145 10.9621 33.175C9.52256 31.7355 8.38067 30.0265 7.60161 28.1457C6.82255 26.2649 6.42157 24.249 6.42157 22.2132L21.9238 22.2132L37.4261 22.2132Z" fill="url(#paint0_radial_711_880)"/>
</g>
<g filter="url(#filter1_i_711_880)">
<ellipse rx="6.14634" ry="6" transform="matrix(-1 0 0 1 21.922 13.7119)" fill="url(#paint1_radial_711_880)"/>
<ellipse rx="6.14634" ry="6" transform="matrix(-1 0 0 1 21.922 13.7119)" fill="url(#paint2_linear_711_880)" fill-opacity="0.2"/>
</g>
<defs>
<filter id="filter0_i_711_880" x="6.42188" y="22.2129" width="31.0039" height="28.5792" filterUnits="userSpaceOnUse" color-interpolation-filters="sRGB">
<feFlood flood-opacity="0" result="BackgroundImageFix"/>
<feBlend mode="normal" in="SourceGraphic" in2="BackgroundImageFix" result="shape"/>
<feColorMatrix in="SourceAlpha" type="matrix" values="0 0 0 0 0 0 0 0 0 0 0 0 0 0 0 0 0 0 127 0" result="hardAlpha"/>
<feMorphology radius="4.35874" operator="dilate" in="SourceAlpha" result="effect1_innerShadow_711_880"/>
<feOffset dy="20.3408"/>
<feGaussianBlur stdDeviation="8.71749"/>
<feComposite in2="hardAlpha" operator="arithmetic" k2="-1" k3="1"/>
<feColorMatrix type="matrix" values="0 0 0 0 0.7 0 0 0 0 0.7 0 0 0 0 0.7 0 0 0 0.41 0"/>
<feBlend mode="normal" in2="shape" result="effect1_innerShadow_711_880"/>
</filter>
<filter id="filter1_i_711_880" x="15.7754" y="7.71191" width="12.293" height="13.1707" filterUnits="userSpaceOnUse" color-interpolation-filters="sRGB">
<feFlood flood-opacity="0" result="BackgroundImageFix"/>
<feBlend mode="normal" in="SourceGraphic" in2="BackgroundImageFix" result="shape"/>
<feColorMatrix in="SourceAlpha" type="matrix" values="0 0 0 0 0 0 0 0 0 0 0 0 0 0 0 0 0 0 127 0" result="hardAlpha"/>
<feMorphology radius="0.292683" operator="dilate" in="SourceAlpha" result="effect1_innerShadow_711_880"/>
<feOffset dy="1.17073"/>
<feGaussianBlur stdDeviation="0.731707"/>
<feComposite in2="hardAlpha" operator="arithmetic" k2="-1" k3="1"/>
<feColorMatrix type="matrix" values="0 0 0 0 1 0 0 0 0 1 0 0 0 0 1 0 0 0 0.29 0"/>
<feBlend mode="normal" in2="shape" result="effect1_innerShadow_711_880"/>
</filter>
<radialGradient id="paint0_radial_711_880" cx="0" cy="0" r="1" gradientUnits="userSpaceOnUse" gradientTransform="translate(13.9606 30.1765) rotate(-45) scale(26.764)">
<stop stop-color="#414141"/>
<stop offset="0.443944"/>
</radialGradient>
<radialGradient id="paint1_radial_711_880" cx="0" cy="0" r="1" gradientUnits="userSpaceOnUse" gradientTransform="translate(6.14634 2.12195) rotate(90) scale(9.59233 9.82629)">
<stop offset="0.0001" stop-color="#C14449"/>
<stop offset="0.0002" stop-color="#E50913"/>
<stop offset="1" stop-color="#2D0002"/>
</radialGradient>
<linearGradient id="paint2_linear_711_880" x1="2.70732" y1="9.21951" x2="6.14634" y2="12" gradientUnits="userSpaceOnUse">
<stop stop-color="#D83636"/>
<stop offset="1" stop-color="#D83636" stop-opacity="0"/>
</linearGradient>
</defs>
</svg>
