<svg width="265" height="521" viewBox="0 0 265 521" fill="none" xmlns="http://www.w3.org/2000/svg">
<g filter="url(#filter0_d_687_2318)">
<path d="M435.403 216.548H0.873779V239.134H435.403V216.548Z" fill="#0A0A0A"/>
<g filter="url(#filter1_i_687_2318)">
<path d="M218.199 435.6C338.225 435.6 435.525 338.3 435.525 218.275C435.525 98.249 338.225 0.948975 218.199 0.948975C98.1738 0.948975 0.873779 98.249 0.873779 218.275C0.873779 338.3 98.1738 435.6 218.199 435.6Z" fill="url(#paint0_radial_687_2318)"/>
</g>
<g filter="url(#filter2_i_687_2318)">
<path d="M278.036 219.209C278.105 226.623 276.273 233.93 272.714 240.434C268.899 247.017 263.254 252.351 256.466 255.789C249.14 259.716 240.034 261.672 229.148 261.659H209.06V309.409H176.563V176.394H229.066C238.35 176.107 247.572 177.992 255.999 181.898C262.9 185.167 268.65 190.449 272.491 197.05C276.253 203.822 278.165 211.464 278.036 219.209ZM226.649 235.884C232.837 235.884 237.448 234.435 240.481 231.538C243.418 228.105 245.031 223.737 245.031 219.219C245.031 214.702 243.418 210.333 240.481 206.901C237.462 203.99 232.851 202.534 226.649 202.534H209.02V235.884H226.649Z" fill="#D9D9D9"/>
</g>
<g filter="url(#filter3_i_687_2318)">
<path d="M278.705 139.591H176.603V160.998H278.705V139.591Z" fill="#E50913"/>
</g>
</g>
<defs>
<filter id="filter0_d_687_2318" x="0.873779" y="0.948975" width="531.372" height="519.576" filterUnits="userSpaceOnUse" color-interpolation-filters="sRGB">
<feFlood flood-opacity="0" result="BackgroundImageFix"/>
<feColorMatrix in="SourceAlpha" type="matrix" values="0 0 0 0 0 0 0 0 0 0 0 0 0 0 0 0 0 0 127 0" result="hardAlpha"/>
<feOffset dx="55.4372" dy="43.6421"/>
<feGaussianBlur stdDeviation="20.6415"/>
<feComposite in2="hardAlpha" operator="out"/>
<feColorMatrix type="matrix" values="0 0 0 0 0 0 0 0 0 0 0 0 0 0 0 0 0 0 0.95 0"/>
<feBlend mode="normal" in2="BackgroundImageFix" result="effect1_dropShadow_687_2318"/>
<feBlend mode="normal" in="SourceGraphic" in2="effect1_dropShadow_687_2318" result="shape"/>
</filter>
<filter id="filter1_i_687_2318" x="0.873779" y="0.948975" width="434.651" height="450.075" filterUnits="userSpaceOnUse" color-interpolation-filters="sRGB">
<feFlood flood-opacity="0" result="BackgroundImageFix"/>
<feBlend mode="normal" in="SourceGraphic" in2="BackgroundImageFix" result="shape"/>
<feColorMatrix in="SourceAlpha" type="matrix" values="0 0 0 0 0 0 0 0 0 0 0 0 0 0 0 0 0 0 127 0" result="hardAlpha"/>
<feMorphology radius="5.14121" operator="dilate" in="SourceAlpha" result="effect1_innerShadow_687_2318"/>
<feOffset dy="23.9923"/>
<feGaussianBlur stdDeviation="10.2824"/>
<feComposite in2="hardAlpha" operator="arithmetic" k2="-1" k3="1"/>
<feColorMatrix type="matrix" values="0 0 0 0 0.7 0 0 0 0 0.7 0 0 0 0 0.7 0 0 0 0.41 0"/>
<feBlend mode="normal" in2="shape" result="effect1_innerShadow_687_2318"/>
</filter>
<filter id="filter2_i_687_2318" x="176.563" y="176.365" width="101.479" height="142.48" filterUnits="userSpaceOnUse" color-interpolation-filters="sRGB">
<feFlood flood-opacity="0" result="BackgroundImageFix"/>
<feBlend mode="normal" in="SourceGraphic" in2="BackgroundImageFix" result="shape"/>
<feColorMatrix in="SourceAlpha" type="matrix" values="0 0 0 0 0 0 0 0 0 0 0 0 0 0 0 0 0 0 127 0" result="hardAlpha"/>
<feMorphology radius="2.35903" operator="dilate" in="SourceAlpha" result="effect1_innerShadow_687_2318"/>
<feOffset dy="9.43612"/>
<feGaussianBlur stdDeviation="5.89758"/>
<feComposite in2="hardAlpha" operator="arithmetic" k2="-1" k3="1"/>
<feColorMatrix type="matrix" values="0 0 0 0 1 0 0 0 0 1 0 0 0 0 1 0 0 0 0.29 0"/>
<feBlend mode="normal" in2="shape" result="effect1_innerShadow_687_2318"/>
</filter>
<filter id="filter3_i_687_2318" x="176.603" y="139.591" width="102.103" height="30.8437" filterUnits="userSpaceOnUse" color-interpolation-filters="sRGB">
<feFlood flood-opacity="0" result="BackgroundImageFix"/>
<feBlend mode="normal" in="SourceGraphic" in2="BackgroundImageFix" result="shape"/>
<feColorMatrix in="SourceAlpha" type="matrix" values="0 0 0 0 0 0 0 0 0 0 0 0 0 0 0 0 0 0 127 0" result="hardAlpha"/>
<feMorphology radius="2.35903" operator="dilate" in="SourceAlpha" result="effect1_innerShadow_687_2318"/>
<feOffset dy="9.43612"/>
<feGaussianBlur stdDeviation="5.89758"/>
<feComposite in2="hardAlpha" operator="arithmetic" k2="-1" k3="1"/>
<feColorMatrix type="matrix" values="0 0 0 0 1 0 0 0 0 1 0 0 0 0 1 0 0 0 0.29 0"/>
<feBlend mode="normal" in2="shape" result="effect1_innerShadow_687_2318"/>
</filter>
<radialGradient id="paint0_radial_687_2318" cx="0" cy="0" r="1" gradientUnits="userSpaceOnUse" gradientTransform="translate(218.199 60.3968) rotate(90) scale(375.204)">
<stop stop-color="#414141"/>
<stop offset="0.443944"/>
</radialGradient>
</defs>
</svg>
