<svg width="33" height="32" viewBox="0 0 33 32" fill="none" xmlns="http://www.w3.org/2000/svg">
<g filter="url(#filter0_i_709_117)">
<path d="M30.0781 13.8197C30.0872 12.3368 29.7979 10.8702 29.2267 9.50361C28.6556 8.13703 27.8139 6.89725 26.7496 5.85505C25.6853 4.81285 24.4192 3.98865 23.0238 3.42951C21.6283 2.87036 20.1307 2.58722 18.6165 2.59624L18.5478 13.8885L30.0781 13.8197Z" fill="url(#paint0_radial_709_117)"/>
<path d="M30.0781 13.8197C30.0872 12.3368 29.7979 10.8702 29.2267 9.50361C28.6556 8.13703 27.8139 6.89725 26.7496 5.85505C25.6853 4.81285 24.4192 3.98865 23.0238 3.42951C21.6283 2.87036 20.1307 2.58722 18.6165 2.59624L18.5478 13.8885L30.0781 13.8197Z" fill="url(#paint1_linear_709_117)" fill-opacity="0.2"/>
</g>
<g filter="url(#filter1_i_709_117)">
<path d="M31.0045 16.1175C31.0045 19.1835 30.0953 22.1807 28.3919 24.7301C26.6885 27.2794 24.2674 29.2664 21.4347 30.4397C18.602 31.613 15.4851 31.92 12.4779 31.3219C9.47077 30.7237 6.70853 29.2473 4.54051 27.0792C2.37248 24.9112 0.896029 22.149 0.297871 19.1418C-0.300286 16.1347 0.00670993 13.0177 1.18004 10.185C2.35337 7.35237 4.34033 4.93124 6.88966 3.22784C9.439 1.52443 12.4362 0.615234 15.5023 0.615234L15.5023 16.1175H31.0045Z" fill="url(#paint2_radial_709_117)"/>
</g>
<defs>
<filter id="filter0_i_709_117" x="18.5469" y="2.5957" width="11.5312" height="13.4927" filterUnits="userSpaceOnUse" color-interpolation-filters="sRGB">
<feFlood flood-opacity="0" result="BackgroundImageFix"/>
<feBlend mode="normal" in="SourceGraphic" in2="BackgroundImageFix" result="shape"/>
<feColorMatrix in="SourceAlpha" type="matrix" values="0 0 0 0 0 0 0 0 0 0 0 0 0 0 0 0 0 0 127 0" result="hardAlpha"/>
<feMorphology radius="0.549942" operator="dilate" in="SourceAlpha" result="effect1_innerShadow_709_117"/>
<feOffset dy="2.19977"/>
<feGaussianBlur stdDeviation="1.37485"/>
<feComposite in2="hardAlpha" operator="arithmetic" k2="-1" k3="1"/>
<feColorMatrix type="matrix" values="0 0 0 0 1 0 0 0 0 1 0 0 0 0 1 0 0 0 0.29 0"/>
<feBlend mode="normal" in2="shape" result="effect1_innerShadow_709_117"/>
</filter>
<filter id="filter1_i_709_117" x="0" y="0.615234" width="31.0039" height="44.0811" filterUnits="userSpaceOnUse" color-interpolation-filters="sRGB">
<feFlood flood-opacity="0" result="BackgroundImageFix"/>
<feBlend mode="normal" in="SourceGraphic" in2="BackgroundImageFix" result="shape"/>
<feColorMatrix in="SourceAlpha" type="matrix" values="0 0 0 0 0 0 0 0 0 0 0 0 0 0 0 0 0 0 127 0" result="hardAlpha"/>
<feMorphology radius="4.35874" operator="dilate" in="SourceAlpha" result="effect1_innerShadow_709_117"/>
<feOffset dy="20.3408"/>
<feGaussianBlur stdDeviation="8.71749"/>
<feComposite in2="hardAlpha" operator="arithmetic" k2="-1" k3="1"/>
<feColorMatrix type="matrix" values="0 0 0 0 0.7 0 0 0 0 0.7 0 0 0 0 0.7 0 0 0 0.41 0"/>
<feBlend mode="normal" in2="shape" result="effect1_innerShadow_709_117"/>
</filter>
<radialGradient id="paint0_radial_709_117" cx="0" cy="0" r="1" gradientUnits="userSpaceOnUse" gradientTransform="translate(16.6618 6.85003) rotate(75) scale(18.0237 18.4633)">
<stop offset="0.0001" stop-color="#C14449"/>
<stop offset="0.0002" stop-color="#E50913"/>
<stop offset="1" stop-color="#2D0002"/>
</radialGradient>
<linearGradient id="paint1_linear_709_117" x1="26.3551" y1="18.0593" x2="21.4656" y2="24.7781" gradientUnits="userSpaceOnUse">
<stop stop-color="#D83636"/>
<stop offset="1" stop-color="#D83636" stop-opacity="0"/>
</linearGradient>
<radialGradient id="paint2_radial_709_117" cx="0" cy="0" r="1" gradientUnits="userSpaceOnUse" gradientTransform="translate(15.5023 4.85576) rotate(90) scale(26.764)">
<stop stop-color="#414141"/>
<stop offset="0.443944"/>
</radialGradient>
</defs>
</svg>
