<svg width="289" height="266" viewBox="0 0 289 266" fill="none" xmlns="http://www.w3.org/2000/svg">
<path d="M219.585 150.476C210.511 186.772 173.719 208.883 137.422 199.894C101.121 190.733 79.0149 153.936 88.0041 117.642C97.0797 81.3458 133.873 59.2364 170.171 68.227C206.552 77.303 228.659 114.094 219.585 150.476Z" fill="url(#paint0_radial)" stroke="url(#paint1_radial)" stroke-width="6"/>
<path d="M169.788 132.217C169.788 134.634 169.234 136.852 168.125 138.872C167.015 140.853 165.312 142.457 163.015 143.685C160.717 144.913 157.865 145.527 154.459 145.527H148.16V160.5H138V118.789H154.459C157.786 118.789 160.598 119.363 162.896 120.512C165.193 121.661 166.916 123.245 168.065 125.266C169.214 127.286 169.788 129.603 169.788 132.217ZM153.686 137.446C155.627 137.446 157.073 136.991 158.024 136.08C158.974 135.168 159.45 133.881 159.45 132.217C159.45 130.554 158.974 129.266 158.024 128.355C157.073 127.444 155.627 126.989 153.686 126.989H148.16V137.446H153.686Z" fill="white"/>
<path d="M170 108.223H138.003V114.935H170V108.223Z" fill="#E50913"/>
<path opacity="0.076923" d="M121.06 29.8614C140.634 36.179 156.597 32.9073 174.929 28.1691C189.539 24.3898 215.994 13.9545 229.757 20.3849C243.351 26.7025 248.767 40.2403 249.274 55.1882C249.443 60.0956 243.464 75.4384 244.423 80.2894C246.172 89.3146 254.069 95.6886 258.356 103.811C263.15 112.836 263.15 124.287 258.412 133.312C255.987 137.825 252.433 141.943 251.587 147.019C250.064 155.988 267.494 163.772 270.935 172.064C271.837 174.208 272.514 176.52 272.176 178.833C271.781 181.823 269.863 184.304 267.889 186.561C262.417 192.653 245.269 197.673 237.88 201.057C225.414 206.698 210.353 208.221 200.82 218.149C194.108 225.2 189.934 236.312 180.401 237.891C171.996 239.245 165.115 232.138 157.274 229.148C150.167 225.877 140.577 232.815 134.091 235.409C125.122 239.019 116.153 242.573 107.128 246.127C93.5337 251.429 78.9806 256.788 64.7096 253.685C52.8077 251.091 42.4287 242.348 37.9161 231.122C33.0651 219.221 34.6445 200.493 45.5311 192.991C50.9462 189.268 57.7151 188.084 62.8482 183.91C69.335 178.607 71.3657 168.51 68.3761 160.444C64.6532 150.291 55.7972 145.383 47.2233 140.025C35.6599 132.805 25.3373 123.667 16.8762 112.949C12.7585 107.703 9.09203 102.006 7.17418 95.5758C5.31274 89.1454 5.42556 81.8688 8.75359 76.0025C16.3122 62.2391 38.8187 65.7364 51.7359 65.5671C59.7458 65.4543 68.9401 66.9209 76.8936 64.9467C80.278 64.1006 83.5496 62.0699 85.0162 58.9111C86.7084 55.1882 85.4675 51.0141 85.4111 47.0656C85.2982 41.4813 87.4981 35.7841 91.5595 31.61C100.867 21.9079 110.174 26.3641 121.06 29.8614Z" stroke="url(#paint2_linear)" stroke-width="1.17152" stroke-miterlimit="10" stroke-linecap="round" stroke-linejoin="round"/>
<path opacity="0.1538" d="M123.881 30.6492C142.834 36.4028 158.346 33.526 176.001 29.5775C190.329 26.4187 215.373 17.4499 228.798 23.9368C241.772 30.2544 247.131 43.2281 248.09 57.4991C248.428 62.3501 243.239 76.8468 244.254 81.7542C246.115 90.4409 253.392 96.7586 257.453 104.656C261.966 113.399 262.022 124.455 257.679 133.254C255.479 137.654 252.207 141.659 251.361 146.566C249.895 155.366 265.745 162.981 268.791 171.103C269.581 173.19 270.145 175.447 269.806 177.647C269.412 180.523 267.607 182.949 265.689 185.149C260.443 191.241 244.48 196.374 237.316 199.871C225.47 205.681 211.199 207.486 201.948 217.075C195.405 223.844 191.231 234.336 182.037 235.972C173.97 237.382 167.258 231.121 159.699 228.47C152.818 225.593 143.623 232.08 137.249 234.505C128.563 237.89 119.876 241.218 111.133 244.433C97.9335 249.34 83.8316 254.078 70.0119 251.032C58.5048 248.494 48.4643 240.202 43.7261 229.654C38.7058 218.373 39.4955 200.774 49.0284 193.384C53.7102 189.718 59.7457 188.364 64.2019 184.246C69.899 179.057 71.4785 169.411 68.6017 161.627C64.9916 151.868 56.6433 146.848 48.6335 141.49C37.8597 134.213 28.2141 125.188 20.5427 114.583C16.7634 109.337 13.4354 103.64 11.7432 97.3226C10.1073 91.005 10.333 83.8413 13.4918 78.0877C20.9375 64.55 42.0903 66.8627 54.6127 65.9602C62.3405 65.3961 71.1964 66.4114 78.9806 64.268C82.2522 63.3655 85.4675 61.3912 86.9905 58.3452C88.7955 54.7915 87.893 50.843 88.0622 47.1202C88.2878 41.8179 90.7133 36.5156 94.7747 32.5671C104.025 23.4855 113.22 27.3776 123.881 30.6492Z" stroke="url(#paint3_linear)" stroke-width="1.21496" stroke-miterlimit="10" stroke-linecap="round" stroke-linejoin="round"/>
<path opacity="0.2308" d="M126.758 31.3834C145.034 36.5729 160.151 34.091 177.186 30.9886C191.175 28.3938 214.922 20.9481 227.896 27.5477C240.249 33.8089 245.495 46.2749 246.905 59.8691C247.413 64.7201 242.957 78.3143 244.085 83.2217C245.946 91.57 252.771 97.8312 256.551 105.503C260.781 114.02 260.894 124.625 256.889 133.199C254.858 137.486 251.869 141.378 251.079 146.116C249.669 154.746 263.996 162.248 266.535 170.202C267.212 172.232 267.663 174.376 267.324 176.519C266.873 179.283 265.181 181.652 263.432 183.796C258.356 189.888 243.633 195.134 236.752 198.8C225.583 204.723 212.045 206.866 203.077 216.061C196.759 222.548 192.472 232.363 183.673 234.111C175.945 235.634 169.458 230.106 162.069 227.85C155.356 225.424 146.557 231.347 140.352 233.716C131.947 236.875 123.486 239.977 115.025 242.911C102.164 247.367 88.5699 251.541 75.2577 248.551C64.1455 246.013 54.3871 238.229 49.4796 228.301C44.2337 217.64 44.3466 201.169 52.4128 193.893C56.4177 190.283 61.6072 188.76 65.4993 184.698C70.4067 179.565 71.5913 170.427 68.7145 162.869C65.1608 153.505 57.3766 148.429 49.9873 142.957C40.0032 135.624 31.0909 126.655 24.0964 116.22C20.5991 110.974 17.6659 105.333 16.2557 99.0722C14.8456 92.8109 15.184 85.8728 18.23 80.1757C25.3373 66.8072 45.2491 67.8225 57.3766 66.2431C64.766 65.2842 73.3399 65.7919 80.8985 63.4792C84.1137 62.5202 87.2161 60.546 88.7955 57.7256C90.6569 54.3412 90.1493 50.6183 90.6005 47.1211C91.1646 42.1572 93.8157 37.1934 97.8771 33.4705C107.184 25.0094 116.266 28.3938 126.758 31.3834Z" stroke="url(#paint4_linear)" stroke-width="1.25833" stroke-miterlimit="10" stroke-linecap="round" stroke-linejoin="round"/>
<path opacity="0.3077" d="M129.578 32.1168C147.233 36.7422 161.899 34.7116 178.257 32.3425C191.964 30.3682 214.302 24.389 226.88 31.1015C238.67 37.3627 243.859 49.2082 245.664 62.1819C246.341 67.0329 242.675 79.7246 243.859 84.632C245.777 92.6982 252.038 98.8466 255.535 106.349C259.427 114.641 259.653 124.794 256.043 133.199C254.238 137.373 251.53 141.208 250.797 145.777C249.5 154.182 262.191 161.628 264.335 169.356C264.899 171.274 265.294 173.361 264.955 175.448C264.504 178.099 262.868 180.412 261.232 182.499C256.381 188.591 242.844 193.949 236.244 197.729C225.752 203.764 213.004 206.246 204.261 215.046C198.113 221.25 193.826 230.388 185.365 232.25C177.975 233.886 171.658 229.091 164.55 227.23C158.064 225.199 149.659 230.67 143.567 232.87C135.444 235.803 127.265 238.624 119.086 241.275C106.62 245.28 93.4773 248.946 80.6728 246.013C69.9555 243.531 60.479 236.198 55.4588 226.948C49.9873 216.907 49.3668 201.564 56.0229 194.344C59.3509 190.79 63.7507 189.098 66.9659 185.093C71.0272 180.073 71.8733 171.33 69.0529 164.11C65.5557 155.141 58.3356 150.008 51.5103 144.48C42.3159 137.091 34.0804 128.235 27.8756 117.912C24.7168 112.666 22.1221 107.026 20.9376 100.877C19.753 94.7289 20.2043 87.96 23.1374 82.3193C29.9627 69.0636 48.5207 68.8944 60.3098 66.5817C67.4171 65.1715 75.6526 65.2279 83.042 62.746C86.1444 61.7307 89.1903 59.8128 90.8826 57.1053C92.8568 53.89 92.6876 50.3928 93.3645 47.0648C94.3234 42.383 97.1438 37.814 101.205 34.3167C110.287 26.5889 119.312 29.4093 129.578 32.1168Z" stroke="url(#paint5_linear)" stroke-width="1.30171" stroke-miterlimit="10" stroke-linecap="round" stroke-linejoin="round"/>
<path opacity="0.3846" d="M132.455 32.9061C149.433 36.9674 163.761 35.388 179.442 33.8086C192.867 32.4549 213.85 27.9423 225.978 34.7111C237.147 40.9723 242.28 52.2538 244.536 64.607C245.438 69.4016 242.449 81.1907 243.746 86.1546C245.721 93.8824 251.418 99.9744 254.689 107.251C258.299 115.317 258.525 125.019 255.366 133.198C253.787 137.26 251.305 140.982 250.628 145.382C249.387 153.618 260.499 160.894 262.191 168.509C262.643 170.371 262.925 172.401 262.586 174.376C262.135 176.914 260.612 179.114 259.089 181.144C254.464 187.236 242.11 192.651 235.793 196.6C225.978 202.748 213.963 205.569 205.502 213.973C199.523 219.896 195.18 228.414 187.113 230.332C180.062 232.024 173.914 228.019 167.089 226.552C160.828 224.916 152.818 229.937 146.895 231.967C139.054 234.675 131.157 237.27 123.204 239.639C111.076 243.192 98.3847 246.295 86.0879 243.418C75.7654 240.993 66.6274 234.111 61.3816 225.481C55.6844 216.061 54.3307 201.789 59.6329 194.739C62.2277 191.241 65.8377 189.38 68.4325 185.431C71.7041 180.468 72.0989 172.232 69.335 165.294C65.9506 156.72 59.2945 151.531 53.0333 145.946C44.6286 138.501 37.1264 129.701 31.6549 119.548C28.8346 114.302 26.5783 108.661 25.6194 102.625C24.6604 96.5335 25.2245 89.9903 27.9885 84.4059C34.5317 71.3195 51.7359 69.9093 63.1866 66.8633C70.0119 65.0582 77.9089 64.5506 85.0726 61.9559C88.0622 60.8841 91.0518 59.0227 92.8004 56.4279C94.8875 53.3819 95.0567 50.1103 95.9592 47.0079C97.2566 42.6646 100.246 38.3776 104.364 35.1624C113.389 28.1115 122.301 30.4806 132.455 32.9061Z" stroke="url(#paint6_linear)" stroke-width="1.34509" stroke-miterlimit="10" stroke-linecap="round" stroke-linejoin="round"/>
<path opacity="0.4615" d="M135.332 33.6388C151.69 37.1924 165.566 36.0079 180.627 35.1618C193.769 34.4285 213.343 31.3825 225.075 38.2642C235.624 44.469 240.757 55.2428 243.408 66.9191C244.48 71.7137 242.28 82.6003 243.633 87.5641C245.664 94.9535 250.854 100.989 253.843 108.096C257.171 115.881 257.453 125.244 254.689 133.141C253.279 137.09 251.136 140.756 250.515 144.987C249.331 152.997 258.863 160.217 260.161 167.606C260.499 169.411 260.725 171.329 260.33 173.247C259.822 175.672 258.412 177.816 257.002 179.79C252.602 185.882 241.377 191.41 235.342 195.528C226.147 201.789 214.922 204.948 206.743 212.957C200.99 218.598 196.533 226.439 188.862 228.469C182.15 230.275 176.17 227.003 169.627 225.931C163.535 224.69 155.977 229.259 150.167 231.177C142.608 233.659 134.993 236.028 127.265 238.059C115.533 241.161 103.292 243.699 91.5031 240.879C81.5754 238.51 72.7194 232.08 67.3607 224.07C61.438 215.27 59.4073 202.127 63.243 195.189C65.1609 191.748 67.9812 189.718 69.8991 185.826C72.381 180.975 72.381 173.19 69.6735 166.478C66.3454 158.299 60.2534 152.997 54.5563 147.412C46.8849 139.91 40.1724 131.167 35.4342 121.183C32.9523 115.881 31.0909 110.296 30.3576 104.374C29.6243 98.3943 30.3012 91.9639 32.9523 86.4924C39.2135 73.5187 55.064 70.924 66.1762 67.0883C72.7194 64.832 80.278 63.8731 87.2161 61.1655C90.1493 60.0374 93.0261 58.1759 94.8875 55.8068C97.031 52.9301 97.595 49.8841 98.7796 47.0073C100.472 42.946 103.631 39.0539 107.805 36.0643C116.548 29.6339 125.347 31.4953 135.332 33.6388Z" stroke="url(#paint7_linear)" stroke-width="1.38846" stroke-miterlimit="10" stroke-linecap="round" stroke-linejoin="round"/>
<path opacity="0.5385" d="M138.152 34.3753C153.833 37.3649 167.371 35.8983 181.698 36.5752C194.559 37.1392 212.779 34.8265 224.06 41.821C234.044 48.0258 239.177 58.1791 242.167 69.235C243.464 74.0296 241.941 84.0137 243.408 88.9775C245.438 96.0848 250.12 102.008 252.828 108.889C255.874 116.448 256.212 125.36 253.787 133.088C252.602 136.924 250.684 140.477 250.12 144.539C248.992 152.379 257.002 159.43 257.848 166.707C258.074 168.455 258.187 170.26 257.792 172.065C257.284 174.378 255.987 176.465 254.633 178.383C250.459 184.475 240.418 190.059 234.665 194.346C226.147 200.664 215.655 204.274 207.758 211.833C202.174 217.191 197.718 224.355 190.385 226.555C184.011 228.416 178.257 225.934 171.883 225.257C166.017 224.468 158.853 228.529 153.156 230.278C145.88 232.534 138.547 234.677 131.101 236.426C119.707 239.077 107.974 241.108 96.6361 238.288C87.0469 235.918 78.5294 229.996 73.0015 222.663C66.8531 214.484 64.0891 202.469 66.571 195.587C67.7556 192.203 69.7862 190.003 71.14 186.167C72.7758 181.373 72.4374 174.096 69.7298 167.666C66.5146 159.881 60.9303 154.523 55.8537 148.826C48.972 141.267 42.9928 132.58 38.9879 122.765C36.788 117.463 35.3214 111.879 34.8137 106.069C34.3061 100.203 35.0958 93.9413 37.6341 88.5262C43.6133 75.7218 58.1099 71.8861 68.8837 67.3171C75.1449 64.666 82.3651 63.1994 89.1339 60.3226C91.9543 59.1381 94.7747 57.333 96.6925 55.0767C98.9488 52.3692 99.7949 49.5488 101.262 46.8977C103.292 43.1748 106.62 39.6211 110.851 36.8572C119.65 31.1601 128.393 32.5138 138.152 34.3753Z" stroke="url(#paint8_linear)" stroke-width="1.4319" stroke-miterlimit="10" stroke-linecap="round" stroke-linejoin="round"/>
<path opacity="0.6154" d="M141.029 35.1631C156.033 37.645 169.232 37.363 182.883 37.9834C195.462 38.5475 212.327 38.3219 223.158 45.4292C232.521 51.5776 237.711 61.2232 241.039 71.6022C242.562 76.3404 241.772 85.4784 243.239 90.4422C245.326 97.2111 249.443 103.077 251.925 109.79C254.633 117.123 255.084 125.584 253.053 133.086C252.038 136.809 250.459 140.25 249.951 144.142C248.936 151.757 255.31 158.751 255.705 165.802C255.817 167.495 255.817 169.187 255.423 170.935C254.915 173.135 253.674 175.166 252.489 177.027C248.541 183.119 239.685 188.816 234.213 193.216C226.373 199.647 216.671 203.595 208.999 210.759C203.584 215.836 199.072 222.379 192.134 224.635C186.042 226.609 180.514 224.861 174.422 224.635C168.781 224.24 162.012 227.85 156.428 229.486C149.433 231.573 142.326 233.378 135.162 234.845C124.163 237.045 112.881 238.511 102.051 235.804C92.8568 233.491 84.6214 228.076 78.9242 221.307C72.5502 213.748 69.1094 202.862 70.1247 196.093C70.6324 192.765 71.8733 190.396 72.5502 186.673C73.3963 181.991 72.6066 175.11 70.0119 169.018C66.8531 161.628 61.8328 156.213 57.3202 150.46C51.2283 142.845 46.0388 134.158 42.7108 124.569C40.8493 119.266 39.7212 113.738 39.4391 107.985C39.2135 102.175 40.0596 96.1393 42.4851 90.7806C48.1823 78.089 61.3816 73.0688 71.7605 67.7665C77.7397 64.7205 84.6214 62.7462 91.1646 59.7002C93.8722 58.4029 96.6361 56.7106 98.6104 54.5672C100.979 52.0852 102.164 49.4341 103.913 47.0086C106.282 43.5678 109.835 40.4089 114.066 37.8706C122.753 32.6811 131.439 33.5837 141.029 35.1631Z" stroke="url(#paint9_linear)" stroke-width="1.47528" stroke-miterlimit="10" stroke-linecap="round" stroke-linejoin="round"/>
<path opacity="0.6923" d="M143.849 35.8961C158.233 37.8704 171.037 38.0396 184.011 39.3934C196.364 40.6343 211.763 41.7625 222.199 49.039C230.942 55.131 236.244 64.2126 239.854 73.971C241.603 78.7092 241.49 86.8883 243.069 91.9085C245.156 98.3954 248.823 104.149 251.023 110.636C253.448 117.687 253.9 125.753 252.32 133.029C251.53 136.583 250.233 140.024 249.725 143.747C248.767 151.193 253.618 158.018 253.561 164.956C253.561 166.535 253.505 168.228 253.053 169.863C252.489 171.95 251.418 173.925 250.29 175.73C246.567 181.822 238.839 187.575 233.649 192.201C226.429 198.688 217.517 203.031 210.128 209.8C204.938 214.594 200.369 220.461 193.769 222.83C188.016 224.917 182.657 223.902 176.847 224.071C171.432 224.071 165.058 227.173 159.643 228.696C152.931 230.558 146.105 232.137 139.224 233.322C128.563 235.07 117.789 235.973 107.466 233.322C98.6668 231.065 90.7133 226.101 84.9034 219.953C78.3037 213.015 74.1296 203.256 73.7912 196.6C73.6219 193.329 74.0168 190.79 74.0732 187.124C74.1296 182.499 72.9451 176.125 70.3503 170.258C67.3043 163.264 62.8481 157.736 58.8996 151.982C53.5974 144.254 49.1412 135.681 46.5465 126.317C45.0799 120.958 44.2337 115.487 44.2337 109.846C44.2337 104.149 45.1927 98.2826 47.449 92.9803C52.8641 80.4579 64.7096 74.2531 74.6937 68.1611C80.3908 64.7202 86.9341 62.2383 93.3081 59.0231C95.9592 57.6693 98.6104 56.0335 100.697 54.0593C103.179 51.7466 104.702 49.321 106.677 47.1212C109.441 44.0188 113.107 41.142 117.394 38.8857C125.855 34.2039 134.485 34.5987 143.849 35.8961Z" stroke="url(#paint10_linear)" stroke-width="1.51865" stroke-miterlimit="10" stroke-linecap="round" stroke-linejoin="round"/>
<path opacity="0.7692" d="M146.726 36.6282C160.433 38.0948 172.842 38.7152 185.139 40.7459C197.21 42.7201 211.256 45.1457 221.296 52.535C229.475 58.5706 234.834 67.0881 238.726 76.2825C240.7 80.9643 241.264 88.2972 242.957 93.3175C245.044 99.4659 248.202 105.163 250.12 111.424C252.264 118.249 252.771 125.864 251.53 132.972C250.966 136.413 249.895 139.741 249.5 143.294C248.654 150.514 251.925 157.283 251.361 163.996C251.248 165.519 251.079 167.098 250.628 168.678C250.064 170.652 249.049 172.513 248.09 174.318C244.649 180.467 237.993 186.22 233.142 191.015C226.542 197.558 218.419 202.296 211.312 208.727C206.292 213.239 201.666 218.429 195.462 220.911C190.047 223.054 184.857 222.885 179.329 223.393C174.083 223.787 168.161 226.439 162.858 227.792C156.428 229.428 149.885 230.782 143.229 231.628C132.962 232.982 122.64 233.32 112.769 230.669C104.364 228.413 96.6925 223.957 90.7134 218.485C83.8881 212.168 79.037 203.537 77.232 196.938C76.3859 193.722 75.9911 191.015 75.3706 187.405C74.6373 182.892 73.0579 176.969 70.5196 171.385C67.53 164.785 63.6379 159.201 60.2534 153.391C55.7408 145.607 52.0744 137.09 50.1565 127.895C49.0284 122.536 48.5771 117.065 48.7463 111.537C48.972 105.953 50.0437 100.199 52.1872 95.0097C57.3202 82.6001 67.8684 75.2107 77.4576 68.3855C82.8727 64.5498 89.0775 61.6166 95.2259 58.1757C97.7643 56.7656 100.359 55.1297 102.502 53.3247C105.041 51.1812 106.959 48.9814 109.215 47.0071C112.317 44.1867 116.209 41.7048 120.496 39.6742C128.901 35.6692 137.475 35.6692 146.726 36.6282Z" stroke="url(#paint11_linear)" stroke-width="1.56203" stroke-miterlimit="10" stroke-linecap="round" stroke-linejoin="round"/>
<path opacity="0.8462" d="M149.603 37.4173C162.633 38.3762 174.704 39.5043 186.324 42.2119C198.056 44.863 210.804 48.6423 220.337 56.1445C227.952 62.1236 233.367 70.0771 237.485 78.651C239.741 83.3328 240.926 89.7632 242.731 94.7835C244.818 100.65 247.469 106.234 249.161 112.326C251.023 118.926 251.587 126.089 250.741 132.971C250.346 136.299 249.613 139.571 249.218 142.899C248.428 149.95 250.177 156.606 249.161 163.149C248.936 164.616 248.71 166.082 248.259 167.605C247.695 169.467 246.792 171.272 245.89 173.02C242.675 179.169 237.203 184.979 232.634 189.999C226.655 196.599 219.322 201.732 212.497 207.767C207.646 211.998 202.964 216.567 197.154 219.105C192.077 221.361 187.057 221.925 181.755 222.828C176.734 223.618 171.15 225.818 166.017 227.059C159.869 228.469 153.607 229.54 147.233 230.161C137.306 231.063 127.491 230.838 118.127 228.243C110.117 226.043 102.728 222.095 96.6361 217.187C89.5852 211.49 84.0009 203.932 80.7857 197.501C79.2063 194.342 78.0781 191.466 76.8372 187.912C75.3142 183.512 73.2835 178.041 70.8016 172.682C67.8684 166.477 64.5404 160.836 61.7764 154.914C58.0535 147.073 55.1768 138.612 53.9358 129.587C53.1461 124.172 53.0333 118.757 53.4281 113.341C53.8794 107.814 55.064 102.286 57.0946 97.1526C61.9456 84.8558 71.14 76.3383 80.3908 68.7233C85.5239 64.4928 91.3902 61.0519 97.313 57.4418C99.7385 55.9753 102.277 54.3959 104.477 52.7036C107.128 50.7294 109.384 48.7551 111.866 47.0065C115.363 44.5246 119.368 42.3247 123.768 40.5197C132.003 37.1916 140.521 36.7404 149.603 37.4173Z" stroke="url(#paint12_linear)" stroke-width="1.60541" stroke-miterlimit="10" stroke-linecap="round" stroke-linejoin="round"/>
<path opacity="0.9231" d="M152.423 38.1525C164.776 38.6038 176.452 40.296 187.395 43.5676C198.846 47.0085 210.24 52.0287 219.378 59.7565C226.373 65.6793 231.901 73.0122 236.301 81.0221C238.839 85.6475 240.644 91.2318 242.562 96.252C244.649 101.78 246.849 107.364 248.259 113.174C249.782 119.492 250.402 126.261 250.007 132.917C249.782 136.132 249.387 139.291 249.049 142.506C248.315 149.331 248.541 155.875 247.074 162.249C246.736 163.659 246.397 165.069 245.946 166.479C245.326 168.284 244.592 169.976 243.746 171.669C240.813 177.817 236.413 183.683 232.183 188.873C226.824 195.472 220.337 201.113 213.738 206.697C209.112 210.646 204.374 214.538 198.902 217.246C194.164 219.558 189.37 220.912 184.293 222.209C179.498 223.45 174.309 225.143 169.289 226.214C163.422 227.455 157.443 228.245 151.295 228.527C141.762 228.978 132.398 228.189 123.486 225.707C115.871 223.563 108.764 220.066 102.502 215.779C95.1695 210.759 88.9647 204.272 84.3393 197.954C82.083 194.852 80.1088 191.806 78.2473 188.309C75.9346 183.965 73.5091 178.945 71.0836 173.925C68.2633 168.058 65.4993 162.418 63.243 156.439C60.2534 148.542 58.2792 140.08 57.6587 131.281C57.2638 125.866 57.4331 120.451 58.11 115.148C58.7868 109.733 60.0842 104.375 61.9456 99.298C66.5146 87.1705 74.4116 77.4684 83.2676 69.0637C88.1186 64.4383 93.5901 60.4898 99.4001 56.7105C101.769 55.1875 104.195 53.6645 106.507 52.0851C109.271 50.2801 111.866 48.5315 114.574 47.0085C118.409 44.8086 122.583 42.9472 127.04 41.4242C135.106 38.6602 143.567 37.8141 152.423 38.1525Z" stroke="url(#paint13_linear)" stroke-width="1.64884" stroke-miterlimit="10" stroke-linecap="round" stroke-linejoin="round"/>
<path d="M221.756 199.348C258.455 162.649 258.455 103.148 221.756 66.4491C185.057 29.7501 125.556 29.7501 88.8574 66.4491C52.1584 103.148 52.1584 162.649 88.8574 199.348C125.556 236.047 185.057 236.047 221.756 199.348Z" stroke="url(#paint14_linear)" stroke-width="1.69222" stroke-miterlimit="10" stroke-linecap="round" stroke-linejoin="round"/>
<defs>
<radialGradient id="paint0_radial" cx="0" cy="0" r="1" gradientUnits="userSpaceOnUse" gradientTransform="translate(114.989 84.9023) rotate(47.5415) scale(135.544)">
<stop stop-color="#36373A"/>
<stop offset="1" stop-color="#1F2023"/>
</radialGradient>
<radialGradient id="paint1_radial" cx="0" cy="0" r="1" gradientUnits="userSpaceOnUse" gradientTransform="translate(124.5 71.2227) rotate(54.2147) scale(147.927 147.871)">
<stop stop-color="#7B7B7B"/>
<stop offset="1" stop-color="#212228"/>
</radialGradient>
<linearGradient id="paint2_linear" x1="45.5901" y1="37.4927" x2="231.27" y2="223.515" gradientUnits="userSpaceOnUse">
<stop stop-color="#1F2023"/>
<stop offset="1" stop-color="#80808E"/>
</linearGradient>
<linearGradient id="paint3_linear" x1="49.3052" y1="40.3128" x2="230.344" y2="221.352" gradientUnits="userSpaceOnUse">
<stop stop-color="#1F2023"/>
<stop offset="1" stop-color="#80808E"/>
</linearGradient>
<linearGradient id="paint4_linear" x1="52.9516" y1="43.1039" x2="229.522" y2="219.125" gradientUnits="userSpaceOnUse">
<stop stop-color="#1F2023"/>
<stop offset="1" stop-color="#80808E"/>
</linearGradient>
<linearGradient id="paint5_linear" x1="56.748" y1="45.7613" x2="228.915" y2="216.727" gradientUnits="userSpaceOnUse">
<stop stop-color="#1F2023"/>
<stop offset="1" stop-color="#80808E"/>
</linearGradient>
<linearGradient id="paint6_linear" x1="60.5326" y1="47.836" x2="228.755" y2="213.76" gradientUnits="userSpaceOnUse">
<stop stop-color="#1F2023"/>
<stop offset="1" stop-color="#80808E"/>
</linearGradient>
<linearGradient id="paint7_linear" x1="64.3725" y1="48.6963" x2="229.719" y2="209.623" gradientUnits="userSpaceOnUse">
<stop stop-color="#1F2023"/>
<stop offset="1" stop-color="#80808E"/>
</linearGradient>
<linearGradient id="paint8_linear" x1="67.9072" y1="49.5385" x2="230.36" y2="205.452" gradientUnits="userSpaceOnUse">
<stop stop-color="#1F2023"/>
<stop offset="1" stop-color="#80808E"/>
</linearGradient>
<linearGradient id="paint9_linear" x1="71.5988" y1="50.4173" x2="231.157" y2="201.324" gradientUnits="userSpaceOnUse">
<stop stop-color="#1F2023"/>
<stop offset="1" stop-color="#80808E"/>
</linearGradient>
<linearGradient id="paint10_linear" x1="75.3813" y1="51.248" x2="232.118" y2="197.095" gradientUnits="userSpaceOnUse">
<stop stop-color="#1F2023"/>
<stop offset="1" stop-color="#80808E"/>
</linearGradient>
<linearGradient id="paint11_linear" x1="78.9899" y1="52.0374" x2="232.933" y2="193.69" gradientUnits="userSpaceOnUse">
<stop stop-color="#1F2023"/>
<stop offset="1" stop-color="#80808E"/>
</linearGradient>
<linearGradient id="paint12_linear" x1="82.6566" y1="52.8358" x2="234.037" y2="190.466" gradientUnits="userSpaceOnUse">
<stop stop-color="#1F2023"/>
<stop offset="1" stop-color="#80808E"/>
</linearGradient>
<linearGradient id="paint13_linear" x1="86.1185" y1="53.532" x2="235.034" y2="187.36" gradientUnits="userSpaceOnUse">
<stop stop-color="#1F2023"/>
<stop offset="1" stop-color="#80808E"/>
</linearGradient>
<linearGradient id="paint14_linear" x1="52.9578" y1="123.898" x2="248.878" y2="112.368" gradientUnits="userSpaceOnUse">
<stop stop-color="#1F2023"/>
<stop offset="1" stop-color="#80808E"/>
</linearGradient>
</defs>
</svg>
