<svg width="54" height="54" viewBox="0 0 54 54" fill="none" xmlns="http://www.w3.org/2000/svg">
<path d="M44.1397 45.3125C45.1196 45.3125 45.9141 44.5181 45.9141 43.5381C45.9141 42.5581 45.1196 41.7637 44.1397 41.7637C43.1597 41.7637 42.3652 42.5581 42.3652 43.5381C42.3652 44.5181 43.1597 45.3125 44.1397 45.3125Z" fill="white"/>
<path d="M35.2666 36.4395C36.2466 36.4395 37.041 35.645 37.041 34.6651C37.041 33.6851 36.2466 32.8906 35.2666 32.8906C34.2866 32.8906 33.4922 33.6851 33.4922 34.6651C33.4922 35.645 34.2866 36.4395 35.2666 36.4395Z" fill="white"/>
<path d="M5.10109 32H3.32667C3.09136 32 2.8657 32.0935 2.69931 32.2599C2.53293 32.4262 2.43945 32.6519 2.43945 32.8872V34.6616C2.43945 34.8969 2.53293 35.1226 2.69931 35.289C2.8657 35.4554 3.09136 35.5489 3.32667 35.5489H25.9745C26.295 34.3052 26.7839 33.1112 27.4278 32H5.10109Z" fill="white"/>
<path d="M32.3599 26.9654C32.2795 26.8741 32.1809 26.8006 32.0704 26.7497C31.96 26.6989 31.8401 26.6717 31.7184 26.6699H5.10206C4.86675 26.6699 4.64109 26.7634 4.4747 26.9298C4.30832 27.0962 4.21484 27.3218 4.21484 27.5571V29.3316C4.21484 29.5669 4.30832 29.7925 4.4747 29.9589C4.64109 30.1253 4.86675 30.2188 5.10206 30.2188H28.6398C29.6814 28.9264 30.9403 27.8255 32.3599 26.9654Z" fill="white"/>
<path d="M24.0134 16.6574C25.1563 17.0121 26.3824 16.9941 27.5144 16.6059C28.9891 16.121 30.2126 15.0732 30.9186 13.6906C32.8936 9.7469 32.6797 4.17964 32.497 1.96959C32.4927 1.94621 32.483 1.92416 32.4687 1.9052C32.4544 1.88625 32.4358 1.87092 32.4145 1.86047C32.3852 1.84314 32.3522 1.83341 32.3182 1.83217C32.2843 1.83093 32.2506 1.83822 32.2202 1.85337C31.2336 2.33246 30.2088 2.76809 29.2178 3.18862C25.8047 4.63922 22.5806 6.00907 20.8718 9.03891C20.2516 10.1254 20.0499 11.4011 20.3049 12.6259C21.313 11.1947 22.4731 9.87689 23.765 8.69555C24.2999 8.25567 24.9852 8.04161 25.6754 8.09881C26.3656 8.15601 27.0063 8.47998 27.4615 9.00192C27.9167 9.52387 28.1506 10.2027 28.1134 10.8942C28.0762 11.5858 27.7709 12.2356 27.2624 12.7058C26.0285 13.8913 24.9381 15.2176 24.0134 16.6574Z" fill="white"/>
<path d="M10.9568 15.231C10.85 15.2764 10.7534 15.3429 10.6728 15.4264C10.5921 15.5099 10.5291 15.6088 10.4875 15.7172C10.4074 15.9371 10.4169 16.1796 10.5138 16.3926C10.6107 16.6057 10.7873 16.7722 11.0056 16.8563C11.6648 17.1225 16.9455 19.4195 17.4743 24.8998H19.3427C19.7713 17.4526 25.3989 12.0148 26.0652 11.3973C26.2491 11.2423 26.3641 11.0207 26.3849 10.781C26.4057 10.5413 26.3306 10.3032 26.1761 10.1189C26.0192 9.94522 25.8006 9.83978 25.5671 9.82503C25.3335 9.81028 25.1035 9.88738 24.926 10.0399C22.1977 12.5943 20.0843 15.7342 18.7448 19.2234C18.6891 19.3726 18.5943 19.504 18.4704 19.6039C18.3464 19.7038 18.1979 19.7685 18.0403 19.7912C17.8829 19.8157 17.7219 19.7966 17.5746 19.7361C17.4273 19.6756 17.2993 19.5759 17.2046 19.4479C15.7404 17.581 13.8221 16.1206 11.6329 15.2061C11.4124 15.129 11.171 15.1379 10.9568 15.231Z" fill="white"/>
<path d="M6.0013 10.2353C5.12473 10.1138 4.22066 9.9887 3.32812 9.81836C3.64752 11.5325 4.64741 15.9091 7.01272 18.5698C7.67787 19.294 8.55507 19.7891 9.51875 19.9843C10.4824 20.1795 11.4832 20.0648 12.3777 19.6567C11.754 19.2 11.0801 18.8162 10.369 18.513C9.73773 18.2436 9.23493 17.7406 8.96565 17.1092C8.69637 16.4778 8.68143 15.7668 8.92395 15.1247C9.16648 14.4825 9.64771 13.9589 10.2671 13.6632C10.8866 13.3674 11.5963 13.3224 12.2482 13.5376C13.1162 13.8864 13.9482 14.3191 14.7324 14.8293C14.5545 14.1366 14.196 13.5034 13.6934 12.9946C11.7442 11.0276 8.95483 10.6426 6.0013 10.2353Z" fill="white"/>
<path d="M39.7022 26.6699C37.2456 26.6699 34.8441 27.3984 32.8015 28.7632C30.7589 30.1281 29.1669 32.068 28.2267 34.3376C27.2866 36.6072 27.0407 39.1047 27.5199 41.5141C27.9992 43.9235 29.1822 46.1368 30.9193 47.8739C32.6564 49.611 34.8696 50.7939 37.279 51.2732C39.6885 51.7525 42.1859 51.5065 44.4555 50.5664C46.7252 49.6263 48.6651 48.0342 50.0299 45.9916C51.3947 43.949 52.1232 41.5475 52.1232 39.0909C52.1197 35.7977 50.8099 32.6405 48.4813 30.3118C46.1527 27.9832 42.9954 26.6734 39.7022 26.6699ZM35.2662 31.106C35.9681 31.106 36.6542 31.3141 37.2378 31.7041C37.8214 32.094 38.2763 32.6483 38.5449 33.2967C38.8135 33.9452 38.8838 34.6588 38.7468 35.3472C38.6099 36.0356 38.2719 36.6679 37.7756 37.1643C37.2793 37.6606 36.6469 37.9986 35.9585 38.1355C35.2701 38.2724 34.5565 38.2022 33.9081 37.9335C33.2596 37.6649 32.7054 37.2101 32.3154 36.6265C31.9255 36.0429 31.7173 35.3567 31.7173 34.6548C31.7173 33.7136 32.0912 32.811 32.7568 32.1454C33.4223 31.4799 34.325 31.106 35.2662 31.106ZM34.119 45.9286C33.9517 46.0903 33.7276 46.1797 33.4949 46.1777C33.2623 46.1756 33.0398 46.0823 32.8753 45.9178C32.7108 45.7533 32.6175 45.5308 32.6155 45.2982C32.6134 45.0656 32.7029 44.8415 32.8645 44.6741L45.2855 32.2532C45.4528 32.0915 45.6769 32.0021 45.9095 32.0041C46.1422 32.0062 46.3647 32.0995 46.5292 32.264C46.6937 32.4285 46.787 32.651 46.789 32.8836C46.791 33.1162 46.7016 33.3403 46.54 33.5077L34.119 45.9286ZM44.1383 47.0758C43.4364 47.0758 42.7503 46.8677 42.1667 46.4777C41.5831 46.0878 41.1282 45.5335 40.8596 44.885C40.591 44.2366 40.5207 43.523 40.6576 42.8346C40.7946 42.1462 41.1326 41.5139 41.6289 41.0175C42.1252 40.5212 42.7575 40.1832 43.4459 40.0463C44.1344 39.9094 44.8479 39.9796 45.4964 40.2483C46.1449 40.5169 46.6991 40.9717 47.0891 41.5553C47.479 42.1389 47.6871 42.8251 47.6871 43.527C47.6871 44.4682 47.3133 45.3708 46.6477 46.0364C45.9822 46.7019 45.0795 47.0758 44.1383 47.0758Z" fill="white"/>
<path d="M5.10206 37.3164C4.86675 37.3164 4.64109 37.4099 4.4747 37.5763C4.30832 37.7426 4.21484 37.9683 4.21484 38.2036V39.978C4.21484 40.2133 4.30832 40.439 4.4747 40.6054C4.64109 40.7718 4.86675 40.8653 5.10206 40.8653H25.6313C25.4668 39.688 25.4668 38.4936 25.6313 37.3164H5.10206Z" fill="white"/>
<path d="M28.6398 47.9746H5.10206C4.86675 47.9746 4.64109 48.0681 4.4747 48.2345C4.30832 48.4009 4.21484 48.6265 4.21484 48.8618V50.6362C4.21484 50.8716 4.30832 51.0972 4.4747 51.2636C4.64109 51.43 4.86675 51.5235 5.10206 51.5235H31.7184C31.8401 51.5217 31.96 51.4945 32.0704 51.4436C32.1809 51.3928 32.2795 51.3193 32.3599 51.228C30.9403 50.3679 29.6814 49.267 28.6398 47.9746Z" fill="white"/>
<path d="M6.87549 42.6504C6.64019 42.6504 6.41452 42.7439 6.24814 42.9102C6.08176 43.0766 5.98828 43.3023 5.98828 43.5376V45.312C5.98828 45.5473 6.08176 45.773 6.24814 45.9394C6.41452 46.1058 6.64019 46.1992 6.87549 46.1992H27.4278C26.7839 45.0881 26.2949 43.894 25.9745 42.6504H6.87549Z" fill="white"/>
</svg>
