<svg width="63" height="63" viewBox="0 0 63 63" fill="none" xmlns="http://www.w3.org/2000/svg">
<g clip-path="url(#clip0_2763_30403)">
<path fill-rule="evenodd" clip-rule="evenodd" d="M12.2197 20.5942C11.7714 20.3422 11.2144 20.4945 10.9719 20.9519C10.9719 20.9519 11.0787 20.7393 10.9244 21.045C9.31446 24.2336 8.46117 27.7696 8.46117 31.426C8.46117 35.114 9.32917 38.6795 10.9663 41.8897C11.1078 42.1672 10.9731 41.9028 10.9731 41.9028C11.2134 42.3509 11.7646 42.5137 12.2198 42.2577L13.8129 41.362C14.2613 41.1099 14.4265 40.538 14.1919 40.0905C14.1919 40.0905 14.3031 40.3156 14.1541 40.0151C12.8444 37.3723 12.1513 34.4513 12.1513 31.426C12.1513 28.3966 12.8463 25.4715 14.1595 22.8258C14.3068 22.5292 14.1891 22.7671 14.1891 22.7671C14.4296 22.3139 14.2682 21.746 13.8129 21.4901L12.2197 20.5942ZM50.8294 42.2577C51.2777 42.5098 51.8395 42.3486 52.0753 41.9041C52.0753 41.9041 51.9627 42.1274 52.1136 41.8293C53.7308 38.635 54.588 35.091 54.588 31.4261C54.588 27.7719 53.7359 24.2381 52.1279 21.0511C51.9726 20.7435 52.0799 20.9575 52.0799 20.9575C51.8376 20.5049 51.2846 20.3384 50.8294 20.5943L49.2362 21.4901C48.7879 21.7421 48.6228 22.3143 48.8575 22.7619C48.8575 22.7619 48.7463 22.5367 48.8953 22.8373C50.205 25.48 50.8978 28.4009 50.8978 31.426C50.8978 34.4489 50.2059 37.368 48.898 40.0092C48.7482 40.3117 48.8599 40.085 48.8599 40.085C48.6194 40.5382 48.781 41.1059 49.2361 41.3619L50.8294 42.2577ZM58.0717 46.3209C58.5201 46.5729 59.0857 46.4082 59.3271 45.9597C59.3271 45.9597 59.2105 46.1844 59.3666 45.8844C61.6689 41.46 62.8909 36.5299 62.8909 31.4259C62.8909 26.3326 61.674 21.4123 59.3811 16.9951C59.2205 16.6857 59.3228 16.884 59.3228 16.884C59.0802 16.437 58.527 16.275 58.0718 16.5309L56.4787 17.4267C56.0304 17.6787 55.8653 18.2465 56.1054 18.6951C56.1054 18.6951 56.004 18.496 56.1635 18.8068C58.1485 22.6735 59.2008 26.9716 59.2008 31.426C59.2008 35.8826 58.1475 40.1826 56.1606 44.0509C56.002 44.3597 56.1029 44.1617 56.1029 44.1617C55.8622 44.6075 56.0234 45.1692 56.4787 45.4251L58.0717 46.3209ZM4.97723 16.531C4.52888 16.279 3.96712 16.4359 3.75112 16.8362C1.40448 21.2942 0.158203 26.2714 0.158203 31.426C0.158203 36.5142 1.37268 41.4298 3.66118 45.8436C3.82388 46.1573 3.72961 45.9738 3.72961 45.9738C3.97041 46.4176 4.52219 46.5769 4.97733 46.321L6.57051 45.4253C7.01876 45.1732 7.18783 44.6123 6.94415 44.1573C6.94415 44.1573 7.0345 44.336 6.87027 44.015C4.89522 40.1561 3.84847 35.8689 3.84847 31.426C3.84847 26.9287 4.92105 22.5912 6.94312 18.6956C7.08482 18.4226 6.94652 18.6892 6.94652 18.6892C7.18721 18.244 7.02576 17.6827 6.57061 17.4267L4.97723 16.531ZM30.8831 23.5625C28.1802 20.8596 23.8036 20.8544 21.1026 23.5555L20.8864 23.7717C18.1877 26.4704 18.1932 30.852 20.8934 33.5522L30.2199 42.8786C30.9404 43.5991 32.1087 43.5991 32.8291 42.8786L42.1556 33.5522C44.8558 30.852 44.8613 26.4703 42.1626 23.7717L41.9464 23.5555C39.2452 20.8544 34.8687 20.8597 32.1659 23.5625L31.5245 24.2039L30.8831 23.5625Z" fill="white"/>
</g>
<defs>
<clipPath id="clip0_2763_30403">
<rect width="62.7327" height="62.7327" fill="white" transform="translate(0.158203 0.0595703)"/>
</clipPath>
</defs>
</svg>
