<svg width="54" height="55" viewBox="0 0 54 55" fill="none" xmlns="http://www.w3.org/2000/svg">
<g clip-path="url(#clip0_2602_7393)">
<path d="M26.9261 0.55957C12.1851 0.55957 0.0878906 12.6567 0.0878906 27.3978C0.0878906 42.1388 12.1851 54.2359 26.9261 54.2359C31.6224 54.2359 36.2463 52.9951 40.2956 50.6469L38.7169 47.9257C35.1467 49.9958 31.0692 51.0908 26.9261 51.0908C13.919 51.0908 3.23299 40.4049 3.23299 27.3978C3.23299 14.3906 13.919 3.70467 26.9261 3.70467C39.9332 3.70467 50.6192 14.3906 50.6192 27.3978C50.6192 31.581 49.5245 35.6659 47.4741 39.2148V35.3653H44.329V44.8006H53.7643V41.6555H49.6732C52.3146 37.4277 53.7643 32.4066 53.7643 27.3978C53.7643 12.6567 41.6671 0.55957 26.9261 0.55957Z" fill="white"/>
<path d="M26.9263 9.9873C17.3882 9.9873 9.52344 17.8521 9.52344 27.3902C9.52344 36.9283 17.3882 44.7931 26.9263 44.7931C36.4644 44.7931 44.3292 36.9283 44.3292 27.3902C44.3292 17.8521 36.4644 9.9873 26.9263 9.9873ZM37.9342 28.9627H25.3538V16.2775H28.4989V25.8176H37.9342V28.9627Z" fill="white"/>
</g>
<defs>
<clipPath id="clip0_2602_7393">
<rect width="53.6764" height="53.6764" fill="white" transform="translate(0.0878906 0.561523)"/>
</clipPath>
</defs>
</svg>
