<svg width="57" height="56" viewBox="0 0 57 56" fill="none" xmlns="http://www.w3.org/2000/svg">
<g clip-path="url(#clip0_2763_30341)">
<path d="M17.2636 31.916H0.958984V53.8109H17.2636V31.916Z" fill="white"/>
<path d="M56.0879 26.29H39.7832V53.8106H56.0879V26.29Z" fill="white"/>
<path d="M36.6785 18.126H20.3691V53.8107H36.6785V18.126Z" fill="white"/>
<path d="M48.0606 9.70117L50.3695 14.3853L55.541 15.1376L51.8031 18.7832L52.6832 23.9334L48.0606 21.5014L43.4379 23.9334L44.318 18.7832L40.5801 15.1376L45.7469 14.3852L48.0606 9.70117Z" fill="white"/>
<path d="M28.6113 1.58496L30.9227 6.27151L36.0942 7.02387L32.3563 10.6718L33.2388 15.8172L28.6137 13.3876L23.9887 15.8172L24.8687 10.6718L21.1309 7.02387L26.3 6.27151L28.6113 1.58496Z" fill="white"/>
<path d="M8.82802 15.1641L11.137 19.8506L16.3085 20.6053L12.573 24.2485L13.453 29.3963L8.82802 26.9668L4.203 29.3988L5.08542 24.2509L1.34766 20.6076L6.51677 19.8529L8.82802 15.1641Z" fill="white"/>
</g>
<defs>
<clipPath id="clip0_2763_30341">
<rect width="55.1287" height="55.1287" fill="white" transform="translate(0.960938 0.132812)"/>
</clipPath>
</defs>
</svg>
