<svg width="55" height="55" viewBox="0 0 55 55" fill="none" xmlns="http://www.w3.org/2000/svg">
<g clip-path="url(#clip0_2763_30375)">
<path d="M46.4543 29.3262H42.3379C42.7575 30.4749 42.9867 31.7147 42.9867 33.0068V48.5645C42.9867 49.1032 42.8929 49.6203 42.7223 50.1012H49.5277C52.0699 50.1012 54.1379 48.033 54.1379 45.491V37.0098C54.138 32.7731 50.6911 29.3262 46.4543 29.3262Z" fill="white"/>
<path d="M12.0634 33.0068C12.0634 31.7146 12.2927 30.4749 12.7123 29.3262H8.59584C4.35903 29.3262 0.912109 32.7731 0.912109 37.0099V45.4911C0.912109 48.0332 2.9802 50.1013 5.52235 50.1013H12.3278C12.1572 49.6202 12.0634 49.1032 12.0634 48.5645V33.0068Z" fill="white"/>
<path d="M32.2292 25.3223H22.8185C18.5817 25.3223 15.1348 28.7692 15.1348 33.006V48.5637C15.1348 49.4123 15.8228 50.1004 16.6715 50.1004H38.3762C39.2249 50.1004 39.9129 49.4124 39.9129 48.5637V33.006C39.9129 28.7692 36.466 25.3223 32.2292 25.3223Z" fill="white"/>
<path d="M27.5238 4.94922C22.4285 4.94922 18.2832 9.09454 18.2832 14.19C18.2832 17.6461 20.1908 20.6646 23.0079 22.2494C24.3441 23.001 25.8846 23.4306 27.5238 23.4306C29.1631 23.4306 30.7036 23.001 32.0398 22.2494C34.857 20.6646 36.7645 17.646 36.7645 14.19C36.7645 9.09465 32.6192 4.94922 27.5238 4.94922Z" fill="white"/>
<path d="M11.2975 13.5615C7.48682 13.5615 4.38672 16.6616 4.38672 20.4723C4.38672 24.283 7.48682 27.3831 11.2975 27.3831C12.2641 27.3831 13.1846 27.1829 14.0207 26.8229C15.4664 26.2005 16.6584 25.0988 17.396 23.7187C17.9138 22.7501 18.2083 21.6451 18.2083 20.4723C18.2083 16.6617 15.1082 13.5615 11.2975 13.5615Z" fill="white"/>
<path d="M43.7526 13.5615C39.9419 13.5615 36.8418 16.6616 36.8418 20.4723C36.8418 21.6452 37.1363 22.7502 37.654 23.7187C38.3916 25.0989 39.5837 26.2006 41.0293 26.8229C41.8655 27.1829 42.786 27.3831 43.7526 27.3831C47.5633 27.3831 50.6634 24.283 50.6634 20.4723C50.6634 16.6616 47.5633 13.5615 43.7526 13.5615Z" fill="white"/>
</g>
<defs>
<clipPath id="clip0_2763_30375">
<rect width="53.2277" height="53.2277" fill="white" transform="translate(0.910156 0.911133)"/>
</clipPath>
</defs>
</svg>
