<svg width="50" height="50" viewBox="0 0 50 50" fill="none" xmlns="http://www.w3.org/2000/svg">
<path d="M20.2542 13.5133C18.2582 15.6757 14.5323 16.6903 11.7378 16.6903C3.96988 16.6903 0.327107 6.02813 0.177404 5.57902C-0.072101 4.84714 0.227305 4.03209 0.876018 3.63288C1.12552 3.48318 6.73107 0.0566406 11.7378 0.0566406C17.2435 0.0566406 21.718 4.5311 21.718 10.0368C21.718 10.1533 21.7014 10.3695 21.7014 10.3695C21.7014 10.3695 23.1815 13.297 20.2542 13.5133Z" fill="white"/>
<path d="M48.3314 29.9935H26.7741C26.7908 25.6188 26.7908 20.978 26.7076 19.8802C26.6411 19.15 26.508 18.4663 26.3583 17.801L29.9345 15.3558C30.866 16.1376 32.3132 16.6865 34.5753 16.6865H35.0743C38.9999 16.5701 43.7571 10.582 44.672 9.38436C44.988 8.95022 45.0878 8.38467 44.9381 7.88733C44.7718 7.37168 44.3726 6.95584 43.8736 6.7895C43.6573 6.72297 38.584 5.04297 35.0244 5.04297C31.3484 5.04297 28.371 8.02039 28.371 11.6964C28.371 11.9127 28.3876 12.1289 28.4042 12.3784L25.1773 14.5741C24.2625 12.8608 23.0482 11.4636 21.7009 10.3657C21.6177 11.5966 21.0854 12.6446 20.2538 13.5095C21.834 15.0232 23.1314 17.1523 23.3809 20.1463C23.464 21.0945 23.464 25.5523 23.4474 29.9935H1.75712C0.842265 29.9935 0.09375 30.742 0.09375 31.6568C0.09375 32.5717 0.842265 33.3202 1.75712 33.3202H19.5551L19.1393 33.603C18.8233 33.8026 18.5904 34.102 18.4739 34.4513L18.3076 34.9836H15.064C14.1492 34.9836 13.4007 35.7321 13.4007 36.6469C13.4007 37.5618 14.1492 38.3103 15.064 38.3103H17.1932L17.0767 38.6596L12.8684 40.0568C12.386 40.2248 11.9868 40.6057 11.8205 41.1048L10.3734 45.4461L7.66207 46.8101C6.84702 47.2076 6.51434 48.2073 6.93019 49.039C7.21296 49.6212 7.79514 49.9539 8.41058 49.9539C8.66009 49.9539 8.90959 49.904 9.1591 49.7709L12.4858 48.1075C12.8684 47.9262 13.1678 47.5769 13.3175 47.1611L14.5484 43.4667L17.2098 46.1448C17.5425 46.4608 17.9583 46.6271 18.3908 46.6271C18.8233 46.6271 19.2391 46.4608 19.5718 46.1448C20.2205 45.496 20.2205 44.4315 19.5718 43.7828L17.7254 41.9531L18.9231 41.5539C19.4054 41.3859 19.8046 41.005 19.971 40.5059L21.4514 36.0465L23.4141 34.7507C23.3975 36.1313 23.3975 37.3788 23.3809 38.2937C23.3809 38.6263 23.4807 38.9573 23.6637 39.2251L24.8945 41.0881L22.1999 43.7828C21.5512 44.4315 21.5512 45.496 22.1999 46.1448C22.5326 46.4608 22.9484 46.6271 23.3809 46.6271C23.8134 46.6271 24.2292 46.4608 24.5619 46.1448L26.7076 43.9824V46.6271C26.7076 47.2592 27.0569 47.8248 27.6225 48.1075L30.9492 49.7709C31.1987 49.904 31.4482 49.9539 31.6977 49.9539C32.3132 49.9539 32.8953 49.6212 33.1781 49.039C33.5939 48.2073 33.2613 47.2076 32.4462 46.8101L30.0343 45.5958V43.3004C30.0343 42.9677 29.9345 42.6517 29.7516 42.3855L26.7076 37.8113C26.7242 37.1792 26.7242 36.098 26.7409 34.784L28.6371 36.0481L30.1175 40.5076C30.2838 41.0066 30.6831 41.3875 31.1654 41.5555L35.3737 42.9528L36.771 47.1611C36.9207 47.5769 37.2201 47.9262 37.6027 48.1075L40.9294 49.7709C41.1789 49.904 41.4284 49.9539 41.6779 49.9539C42.2934 49.9539 42.8755 49.6212 43.1583 49.039C43.5741 48.2073 43.2415 47.2076 42.4264 46.8101L39.7151 45.4461L39.5488 44.9638H41.6779C42.5928 44.9638 43.3413 44.2152 43.3413 43.3004C43.3413 42.3855 42.5928 41.637 41.6779 41.637H38.4343L38.268 41.1048C38.1017 40.6057 37.7025 40.2248 37.2201 40.0568L33.0118 38.6596L32.8953 38.3103H34.6252L37.6027 39.7907C37.8522 39.9238 38.1017 39.9737 38.3512 39.9737C38.9666 39.9737 39.5488 39.641 39.8316 39.0588C40.2474 38.2271 39.9147 37.2274 39.0997 36.8299L35.773 35.1665C35.5401 35.0501 35.2906 34.9836 35.0244 34.9836H31.7809L31.6145 34.4513C31.4981 34.102 31.2652 33.8026 30.9492 33.603L30.5334 33.3202H48.3314C49.2462 33.3202 49.9947 32.5717 49.9947 31.6568C49.9947 30.742 49.2462 29.9935 48.3314 29.9935Z" fill="white"/>
</svg>
